solid model
  facet normal 0 0 1
    outer loop
      vertex -100.25 -40.25 3.5
      vertex -62.25 -22.25 3.5
      vertex -100.25 40.25 3.5
    endloop
  endfacet
  facet normal 0 0 1
    outer loop
      vertex -100.25 -40.25 3.5
      vertex -98.25 -48.25 3.5
      vertex -62.25 -22.25 3.5
    endloop
  endfacet
  facet normal 1 0 0
    outer loop
      vertex -100.25 -48.25 21.8
      vertex -100.25 -40.25 3.5
      vertex -100.25 -40.25 23.8
    endloop
  endfacet
  facet normal 0 1 -0
    outer loop
      vertex -100.25 -48.25 21.8
      vertex -98.25 -48.25 21.8
      vertex -98.25 -48.25 3.5
    endloop
  endfacet
  facet normal -0 0 1
    outer loop
      vertex -100.25 -48.25 21.8
      vertex -98.25 -50.25 21.8
      vertex -98.25 -48.25 21.8
    endloop
  endfacet
  facet normal 1 0 0
    outer loop
      vertex -100.25 -48.25 3.5
      vertex -100.25 -40.25 3.5
      vertex -100.25 -48.25 21.8
    endloop
  endfacet
  facet normal 0 1 0
    outer loop
      vertex -100.25 -48.25 3.5
      vertex -100.25 -48.25 21.8
      vertex -98.25 -48.25 3.5
    endloop
  endfacet
  facet normal 0 0 1
    outer loop
      vertex -100.25 -48.25 3.5
      vertex -98.25 -48.25 3.5
      vertex -100.25 -40.25 3.5
    endloop
  endfacet
  facet normal 1 0 0
    outer loop
      vertex -100.25 -50.25 21.8
      vertex -100.25 -48.25 21.8
      vertex -100.25 -50.25 23.8
    endloop
  endfacet
  facet normal 0 1 0
    outer loop
      vertex -100.25 -50.25 21.8
      vertex -100.25 -50.25 23.8
      vertex -98.25 -50.25 21.8
    endloop
  endfacet
  facet normal 0 0 1
    outer loop
      vertex -100.25 -50.25 21.8
      vertex -98.25 -50.25 21.8
      vertex -100.25 -48.25 21.8
    endloop
  endfacet
  facet normal 1 -0 0
    outer loop
      vertex -100.25 -50.25 23.8
      vertex -100.25 -48.25 21.8
      vertex -100.25 -40.25 23.8
    endloop
  endfacet
  facet normal 0 1 0
    outer loop
      vertex -100.25 -50.25 23.8
      vertex -90.25 -50.25 23.8
      vertex -98.25 -50.25 21.8
    endloop
  endfacet
  facet normal -0 0 1
    outer loop
      vertex -100.25 -50.25 23.8
      vertex -90.25 -52.25 23.8
      vertex -90.25 -50.25 23.8
    endloop
  endfacet
  facet normal 1 -0 0
    outer loop
      vertex -100.25 40.25 23.8
      vertex -100.25 48.25 21.8
      vertex -100.25 50.25 23.8
    endloop
  endfacet
  facet normal 1 0 0
    outer loop
      vertex -100.25 40.25 3.5
      vertex -100.25 48.25 21.8
      vertex -100.25 40.25 23.8
    endloop
  endfacet
  facet normal 1 0 0
    outer loop
      vertex -100.25 40.25 3.5
      vertex -100.25 48.25 3.5
      vertex -100.25 48.25 21.8
    endloop
  endfacet
  facet normal 0 0 1
    outer loop
      vertex -100.25 40.25 3.5
      vertex -62.25 -22.25 3.5
      vertex -62.25 22.25 3.5
    endloop
  endfacet
  facet normal 0 0 1
    outer loop
      vertex -100.25 40.25 3.5
      vertex -62.25 22.25 3.5
      vertex -90.25 50.25 3.5
    endloop
  endfacet
  facet normal 0 0 1
    outer loop
      vertex -100.25 40.25 3.5
      vertex -90.25 50.25 3.5
      vertex -98.25 48.25 3.5
    endloop
  endfacet
  facet normal 0 0 1
    outer loop
      vertex -100.25 40.25 3.5
      vertex -98.25 48.25 3.5
      vertex -100.25 48.25 3.5
    endloop
  endfacet
  facet normal 1 0 0
    outer loop
      vertex -100.25 48.25 21.8
      vertex -100.25 50.25 21.8
      vertex -100.25 50.25 23.8
    endloop
  endfacet
  facet normal 0 0 1
    outer loop
      vertex -100.25 48.25 21.8
      vertex -98.25 48.25 21.8
      vertex -100.25 50.25 21.8
    endloop
  endfacet
  facet normal 0 -1 0
    outer loop
      vertex -100.25 48.25 3.5
      vertex -98.25 48.25 21.8
      vertex -100.25 48.25 21.8
    endloop
  endfacet
  facet normal 0 -1 -0
    outer loop
      vertex -100.25 48.25 3.5
      vertex -98.25 48.25 3.5
      vertex -98.25 48.25 21.8
    endloop
  endfacet
  facet normal -0 0 1
    outer loop
      vertex -100.25 50.25 21.8
      vertex -98.25 48.25 21.8
      vertex -98.25 50.25 21.8
    endloop
  endfacet
  facet normal 0 -1 0
    outer loop
      vertex -100.25 50.25 21.8
      vertex -98.25 50.25 21.8
      vertex -100.25 50.25 23.8
    endloop
  endfacet
  facet normal 0 0 1
    outer loop
      vertex -100.25 50.25 23.8
      vertex -90.25 50.25 23.8
      vertex -90.25 52.25 23.8
    endloop
  endfacet
  facet normal 0 -1 0
    outer loop
      vertex -100.25 50.25 23.8
      vertex -98.25 50.25 21.8
      vertex -90.25 50.25 23.8
    endloop
  endfacet
  facet normal 0 1 -0
    outer loop
      vertex -102.25 -40.25 23.8
      vertex -100.25 -40.25 23.8
      vertex -100.25 -40.25 3.5
    endloop
  endfacet
  facet normal 0 0 1
    outer loop
      vertex -102.25 -40.25 23.8
      vertex -100.25 -50.25 23.8
      vertex -100.25 -40.25 23.8
    endloop
  endfacet
  facet normal 0 0 1
    outer loop
      vertex -102.25 -40.25 3.5
      vertex -100.25 -40.25 3.5
      vertex -102.25 40.25 3.5
    endloop
  endfacet
  facet normal 0 1 0
    outer loop
      vertex -102.25 -40.25 3.5
      vertex -102.25 -40.25 23.8
      vertex -100.25 -40.25 3.5
    endloop
  endfacet
  facet normal -1 0 0
    outer loop
      vertex -102.25 -40.25 3.5
      vertex -102.25 40.25 3.5
      vertex -102.25 52.25 0
    endloop
  endfacet
  facet normal -1 0 0
    outer loop
      vertex -102.25 -52.25 0
      vertex -102.25 -40.25 3.5
      vertex -102.25 52.25 0
    endloop
  endfacet
  facet normal -1 0 0
    outer loop
      vertex -102.25 -52.25 0
      vertex -102.25 -52.25 23.8
      vertex -102.25 -40.25 3.5
    endloop
  endfacet
  facet normal 0 0 -1
    outer loop
      vertex -102.25 -52.25 0
      vertex -102.25 52.25 0
      vertex 60 20 0
    endloop
  endfacet
  facet normal 0 -1 0
    outer loop
      vertex -102.25 -52.25 0
      vertex -90.25 -52.25 3.5
      vertex -102.25 -52.25 23.8
    endloop
  endfacet
  facet normal 0 -1 0
    outer loop
      vertex -102.25 -52.25 0
      vertex 102.25 -52.25 0
      vertex 90.25 -52.25 3.5
    endloop
  endfacet
  facet normal 0 0 -1
    outer loop
      vertex -102.25 -52.25 0
      vertex 60 -20 0
      vertex 102.25 -52.25 0
    endloop
  endfacet
  facet normal -0 0 -1
    outer loop
      vertex -102.25 -52.25 0
      vertex 60 20 0
      vertex 60 -20 0
    endloop
  endfacet
  facet normal 0 -1 -0
    outer loop
      vertex -102.25 -52.25 0
      vertex 90.25 -52.25 3.5
      vertex -90.25 -52.25 3.5
    endloop
  endfacet
  facet normal 0 0 1
    outer loop
      vertex -102.25 -52.25 23.8
      vertex -100.25 -50.25 23.8
      vertex -102.25 -40.25 23.8
    endloop
  endfacet
  facet normal -1 0 0
    outer loop
      vertex -102.25 -52.25 23.8
      vertex -102.25 -40.25 23.8
      vertex -102.25 -40.25 3.5
    endloop
  endfacet
  facet normal 0 0 1
    outer loop
      vertex -102.25 -52.25 23.8
      vertex -90.25 -52.25 23.8
      vertex -100.25 -50.25 23.8
    endloop
  endfacet
  facet normal 0 -1 0
    outer loop
      vertex -102.25 -52.25 23.8
      vertex -90.25 -52.25 3.5
      vertex -90.25 -52.25 23.8
    endloop
  endfacet
  facet normal 0 0 1
    outer loop
      vertex -102.25 40.25 23.8
      vertex -100.25 40.25 23.8
      vertex -100.25 50.25 23.8
    endloop
  endfacet
  facet normal 0 0 1
    outer loop
      vertex -102.25 40.25 23.8
      vertex -100.25 50.25 23.8
      vertex -102.25 52.25 23.8
    endloop
  endfacet
  facet normal -0 0 1
    outer loop
      vertex -102.25 40.25 3.5
      vertex -100.25 -40.25 3.5
      vertex -100.25 40.25 3.5
    endloop
  endfacet
  facet normal 0 -1 0
    outer loop
      vertex -102.25 40.25 3.5
      vertex -100.25 40.25 23.8
      vertex -102.25 40.25 23.8
    endloop
  endfacet
  facet normal 0 -1 -0
    outer loop
      vertex -102.25 40.25 3.5
      vertex -100.25 40.25 3.5
      vertex -100.25 40.25 23.8
    endloop
  endfacet
  facet normal -1 -0 0
    outer loop
      vertex -102.25 40.25 3.5
      vertex -102.25 40.25 23.8
      vertex -102.25 52.25 23.8
    endloop
  endfacet
  facet normal -1 0 0
    outer loop
      vertex -102.25 40.25 3.5
      vertex -102.25 52.25 23.8
      vertex -102.25 52.25 0
    endloop
  endfacet
  facet normal 0 1 0
    outer loop
      vertex -102.25 52.25 0
      vertex -102.25 52.25 23.8
      vertex -90.25 52.25 3.5
    endloop
  endfacet
  facet normal 0 1 0
    outer loop
      vertex -102.25 52.25 0
      vertex -90.25 52.25 3.5
      vertex 102.25 52.25 0
    endloop
  endfacet
  facet normal 0 0 -1
    outer loop
      vertex -102.25 52.25 0
      vertex 102.25 52.25 0
      vertex 60 20 0
    endloop
  endfacet
  facet normal -0 0 1
    outer loop
      vertex -102.25 52.25 23.8
      vertex -100.25 50.25 23.8
      vertex -90.25 52.25 23.8
    endloop
  endfacet
  facet normal 0 1 -0
    outer loop
      vertex -102.25 52.25 23.8
      vertex -90.25 52.25 23.8
      vertex -90.25 52.25 3.5
    endloop
  endfacet
  facet normal 1 0 0
    outer loop
      vertex -20.05 20.25 16
      vertex -20.05 22.25 16
      vertex -20.05 20.25 20.35
    endloop
  endfacet
  facet normal 0 0 1
    outer loop
      vertex -20.05 20.25 16
      vertex 20.05 20.25 16
      vertex -20.05 22.25 16
    endloop
  endfacet
  facet normal 1 -0 0
    outer loop
      vertex -20.05 20.25 20.35
      vertex -20.05 22.25 16
      vertex -20.05 22.25 20.35
    endloop
  endfacet
  facet normal -0 0 1
    outer loop
      vertex -20.05 22.25 16
      vertex 20.05 20.25 16
      vertex 20.05 22.25 16
    endloop
  endfacet
  facet normal 0 1 0
    outer loop
      vertex -20.05 22.25 16
      vertex 20.05 22.25 16
      vertex 60 22.25 3.5
    endloop
  endfacet
  facet normal 0 1 0
    outer loop
      vertex -24 -20.25 16
      vertex 24 -20.25 16
      vertex 60 -20.25 3.5
    endloop
  endfacet
  facet normal -0 0 1
    outer loop
      vertex -24 -20.25 16
      vertex 24 -22.25 16
      vertex 24 -20.25 16
    endloop
  endfacet
  facet normal 1 0 0
    outer loop
      vertex -24 -22.25 16
      vertex -24 -20.25 16
      vertex -24 -22.25 20.35
    endloop
  endfacet
  facet normal 0 0 1
    outer loop
      vertex -24 -22.25 16
      vertex 24 -22.25 16
      vertex -24 -20.25 16
    endloop
  endfacet
  facet normal 0 -1 0
    outer loop
      vertex -24 -22.25 16
      vertex 60 -22.25 3.5
      vertex 24 -22.25 16
    endloop
  endfacet
  facet normal 1 -0 0
    outer loop
      vertex -24 -22.25 20.35
      vertex -24 -20.25 16
      vertex -24 -20.25 20.35
    endloop
  endfacet
  facet normal 0 1 0
    outer loop
      vertex -56 -20.25 16
      vertex -56 -20.25 20.35
      vertex -24 -20.25 16
    endloop
  endfacet
  facet normal 0 1 -0
    outer loop
      vertex -56 -20.25 20.35
      vertex -24 -20.25 20.35
      vertex -24 -20.25 16
    endloop
  endfacet
  facet normal -0 0 1
    outer loop
      vertex -56 -20.25 20.35
      vertex -24 -22.25 20.35
      vertex -24 -20.25 20.35
    endloop
  endfacet
  facet normal 0 -1 -0
    outer loop
      vertex -56 -22.25 16
      vertex -24 -22.25 16
      vertex -24 -22.25 20.35
    endloop
  endfacet
  facet normal 0 -1 0
    outer loop
      vertex -56 -22.25 16
      vertex -24 -22.25 20.35
      vertex -56 -22.25 20.35
    endloop
  endfacet
  facet normal -1 0 0
    outer loop
      vertex -56 -22.25 16
      vertex -56 -20.25 20.35
      vertex -56 -20.25 16
    endloop
  endfacet
  facet normal -1 -0 0
    outer loop
      vertex -56 -22.25 16
      vertex -56 -22.25 20.35
      vertex -56 -20.25 20.35
    endloop
  endfacet
  facet normal 0 0 1
    outer loop
      vertex -56 -22.25 20.35
      vertex -24 -22.25 20.35
      vertex -56 -20.25 20.35
    endloop
  endfacet
  facet normal -0 0 1
    outer loop
      vertex -60 -20.25 16
      vertex -56 -22.25 16
      vertex -56 -20.25 16
    endloop
  endfacet
  facet normal 0 0 1
    outer loop
      vertex -60 -22.25 16
      vertex -56 -22.25 16
      vertex -60 -20.25 16
    endloop
  endfacet
  facet normal 1 0 0
    outer loop
      vertex -60 -22.25 16
      vertex -60 -20.25 16
      vertex -60 -22.25 20.35
    endloop
  endfacet
  facet normal 1 -0 0
    outer loop
      vertex -60 -22.25 20.35
      vertex -60 -20.25 16
      vertex -60 -20.25 20.35
    endloop
  endfacet
  facet normal 0 1 -0
    outer loop
      vertex -60.25 -20.25 20.35
      vertex -60 -20.25 20.35
      vertex -60 -20.25 16
    endloop
  endfacet
  facet normal -0 0 1
    outer loop
      vertex -60.25 -20.25 20.35
      vertex -60 -22.25 20.35
      vertex -60 -20.25 20.35
    endloop
  endfacet
  facet normal 1 -0 0
    outer loop
      vertex -60.25 -20.25 20.35
      vertex -60.25 20.25 3.5
      vertex -60.25 20.25 20.35
    endloop
  endfacet
  facet normal 0 1 0
    outer loop
      vertex -60.25 -20.25 3.5
      vertex -24 -20.25 16
      vertex 60 -20.25 3.5
    endloop
  endfacet
  facet normal 0 1 0
    outer loop
      vertex -60.25 -20.25 3.5
      vertex -56 -20.25 16
      vertex -24 -20.25 16
    endloop
  endfacet
  facet normal 0 1 0
    outer loop
      vertex -60.25 -20.25 3.5
      vertex -60 -20.25 16
      vertex -56 -20.25 16
    endloop
  endfacet
  facet normal 0 1 0
    outer loop
      vertex -60.25 -20.25 3.5
      vertex -60.25 -20.25 20.35
      vertex -60 -20.25 16
    endloop
  endfacet
  facet normal 1 0 0
    outer loop
      vertex -60.25 -20.25 3.5
      vertex -60.25 20.25 3.5
      vertex -60.25 -20.25 20.35
    endloop
  endfacet
  facet normal 0 0 1
    outer loop
      vertex -60.25 -20.25 3.5
      vertex 60 -20 3.5
      vertex -60.25 20.25 3.5
    endloop
  endfacet
  facet normal 0 0 1
    outer loop
      vertex -60.25 -20.25 3.5
      vertex 60 -20.25 3.5
      vertex 60 -20 3.5
    endloop
  endfacet
  facet normal 0 -1 0
    outer loop
      vertex -60.25 20.25 20.35
      vertex -20.05 20.25 16
      vertex -20.05 20.25 20.35
    endloop
  endfacet
  facet normal 0 0 1
    outer loop
      vertex -60.25 20.25 20.35
      vertex -20.05 20.25 20.35
      vertex -20.05 22.25 20.35
    endloop
  endfacet
  facet normal 0 -1 0
    outer loop
      vertex -60.25 20.25 3.5
      vertex -20.05 20.25 16
      vertex -60.25 20.25 20.35
    endloop
  endfacet
  facet normal 0 -1 -0
    outer loop
      vertex -60.25 20.25 3.5
      vertex 20.05 20.25 16
      vertex -20.05 20.25 16
    endloop
  endfacet
  facet normal 0 0 1
    outer loop
      vertex -60.25 20.25 3.5
      vertex 60 -20 3.5
      vertex 60 20 3.5
    endloop
  endfacet
  facet normal -0 0 1
    outer loop
      vertex -60.25 20.25 3.5
      vertex 60 20 3.5
      vertex 60 20.25 3.5
    endloop
  endfacet
  facet normal 0 -1 0
    outer loop
      vertex -60.25 20.25 3.5
      vertex 60 20.25 3.5
      vertex 20.05 20.25 16
    endloop
  endfacet
  facet normal 0 -1 0
    outer loop
      vertex -62.25 -22.25 20.35
      vertex -60 -22.25 16
      vertex -60 -22.25 20.35
    endloop
  endfacet
  facet normal 0 0 1
    outer loop
      vertex -62.25 -22.25 20.35
      vertex -60 -22.25 20.35
      vertex -60.25 -20.25 20.35
    endloop
  endfacet
  facet normal 0 0 1
    outer loop
      vertex -62.25 -22.25 20.35
      vertex -60.25 -20.25 20.35
      vertex -62.25 22.25 20.35
    endloop
  endfacet
  facet normal 0 -1 -0
    outer loop
      vertex -62.25 -22.25 3.5
      vertex -24 -22.25 16
      vertex -56 -22.25 16
    endloop
  endfacet
  facet normal 0 -1 0
    outer loop
      vertex -62.25 -22.25 3.5
      vertex -56 -22.25 16
      vertex -60 -22.25 16
    endloop
  endfacet
  facet normal 0 -1 0
    outer loop
      vertex -62.25 -22.25 3.5
      vertex -60 -22.25 16
      vertex -62.25 -22.25 20.35
    endloop
  endfacet
  facet normal -1 -0 0
    outer loop
      vertex -62.25 -22.25 3.5
      vertex -62.25 -22.25 20.35
      vertex -62.25 22.25 20.35
    endloop
  endfacet
  facet normal -1 0 0
    outer loop
      vertex -62.25 -22.25 3.5
      vertex -62.25 22.25 20.35
      vertex -62.25 22.25 3.5
    endloop
  endfacet
  facet normal 0 -1 0
    outer loop
      vertex -62.25 -22.25 3.5
      vertex 60 -22.25 3.5
      vertex -24 -22.25 16
    endloop
  endfacet
  facet normal 0 1 -0
    outer loop
      vertex -62.25 22.25 20.35
      vertex -20.05 22.25 20.35
      vertex -20.05 22.25 16
    endloop
  endfacet
  facet normal 0 0 1
    outer loop
      vertex -62.25 22.25 20.35
      vertex -60.25 -20.25 20.35
      vertex -60.25 20.25 20.35
    endloop
  endfacet
  facet normal -0 0 1
    outer loop
      vertex -62.25 22.25 20.35
      vertex -60.25 20.25 20.35
      vertex -20.05 22.25 20.35
    endloop
  endfacet
  facet normal 0 1 0
    outer loop
      vertex -62.25 22.25 3.5
      vertex -20.05 22.25 16
      vertex 60 22.25 3.5
    endloop
  endfacet
  facet normal 0 1 0
    outer loop
      vertex -62.25 22.25 3.5
      vertex -62.25 22.25 20.35
      vertex -20.05 22.25 16
    endloop
  endfacet
  facet normal 1 -0 0
    outer loop
      vertex -90.25 -52.25 23.8
      vertex -90.25 -50.25 3.5
      vertex -90.25 -50.25 23.8
    endloop
  endfacet
  facet normal 0 0 1
    outer loop
      vertex -90.25 -52.25 3.5
      vertex -62.25 -22.25 3.5
      vertex -90.25 -50.25 3.5
    endloop
  endfacet
  facet normal 1 0 0
    outer loop
      vertex -90.25 -52.25 3.5
      vertex -90.25 -50.25 3.5
      vertex -90.25 -52.25 23.8
    endloop
  endfacet
  facet normal 0 0 1
    outer loop
      vertex -90.25 -52.25 3.5
      vertex 60 -22.25 3.5
      vertex -62.25 -22.25 3.5
    endloop
  endfacet
  facet normal 0 0 1
    outer loop
      vertex -90.25 -52.25 3.5
      vertex 90.25 -52.25 3.5
      vertex 60 -22.25 3.5
    endloop
  endfacet
  facet normal 1 -0 0
    outer loop
      vertex -90.25 50.25 23.8
      vertex -90.25 52.25 3.5
      vertex -90.25 52.25 23.8
    endloop
  endfacet
  facet normal -0 0 1
    outer loop
      vertex -90.25 50.25 3.5
      vertex -62.25 22.25 3.5
      vertex -90.25 52.25 3.5
    endloop
  endfacet
  facet normal 1 0 0
    outer loop
      vertex -90.25 50.25 3.5
      vertex -90.25 52.25 3.5
      vertex -90.25 50.25 23.8
    endloop
  endfacet
  facet normal 0 0 1
    outer loop
      vertex -90.25 52.25 3.5
      vertex -62.25 22.25 3.5
      vertex 60 22.25 3.5
    endloop
  endfacet
  facet normal -0 0 1
    outer loop
      vertex -90.25 52.25 3.5
      vertex 60 22.25 3.5
      vertex 90.25 52.25 3.5
    endloop
  endfacet
  facet normal 0 1 0
    outer loop
      vertex -90.25 52.25 3.5
      vertex 90.25 52.25 3.5
      vertex 102.25 52.25 0
    endloop
  endfacet
  facet normal 0 0 1
    outer loop
      vertex -98.25 -48.25 3.5
      vertex -90.25 -50.25 3.5
      vertex -62.25 -22.25 3.5
    endloop
  endfacet
  facet normal 0 1 -0
    outer loop
      vertex -98.25 -50.25 21.8
      vertex -90.25 -50.25 23.8
      vertex -90.25 -50.25 3.5
    endloop
  endfacet
  facet normal 1 -0 0
    outer loop
      vertex -98.25 -50.25 21.8
      vertex -98.25 -48.25 3.5
      vertex -98.25 -48.25 21.8
    endloop
  endfacet
  facet normal 0 0 1
    outer loop
      vertex -98.25 -50.25 3.5
      vertex -90.25 -50.25 3.5
      vertex -98.25 -48.25 3.5
    endloop
  endfacet
  facet normal 1 0 0
    outer loop
      vertex -98.25 -50.25 3.5
      vertex -98.25 -48.25 3.5
      vertex -98.25 -50.25 21.8
    endloop
  endfacet
  facet normal 0 1 0
    outer loop
      vertex -98.25 -50.25 3.5
      vertex -98.25 -50.25 21.8
      vertex -90.25 -50.25 3.5
    endloop
  endfacet
  facet normal 1 -0 0
    outer loop
      vertex -98.25 48.25 21.8
      vertex -98.25 50.25 3.5
      vertex -98.25 50.25 21.8
    endloop
  endfacet
  facet normal 0 0 1
    outer loop
      vertex -98.25 48.25 3.5
      vertex -90.25 50.25 3.5
      vertex -98.25 50.25 3.5
    endloop
  endfacet
  facet normal 1 0 0
    outer loop
      vertex -98.25 48.25 3.5
      vertex -98.25 50.25 3.5
      vertex -98.25 48.25 21.8
    endloop
  endfacet
  facet normal 0 -1 0
    outer loop
      vertex -98.25 50.25 21.8
      vertex -90.25 50.25 3.5
      vertex -90.25 50.25 23.8
    endloop
  endfacet
  facet normal 0 -1 0
    outer loop
      vertex -98.25 50.25 3.5
      vertex -90.25 50.25 3.5
      vertex -98.25 50.25 21.8
    endloop
  endfacet
  facet normal 0 1 -0
    outer loop
      vertex 100.25 -40.25 23.8
      vertex 102.25 -40.25 23.8
      vertex 102.25 -40.25 3.5
    endloop
  endfacet
  facet normal 0 1 0
    outer loop
      vertex 100.25 -40.25 3.5
      vertex 100.25 -40.25 23.8
      vertex 102.25 -40.25 3.5
    endloop
  endfacet
  facet normal 0 0 1
    outer loop
      vertex 100.25 -40.25 3.5
      vertex 102.25 -40.25 3.5
      vertex 102.25 -20 3.5
    endloop
  endfacet
  facet normal -1 0 0
    outer loop
      vertex 100.25 -48.25 21.8
      vertex 100.25 -40.25 23.8
      vertex 100.25 -40.25 3.5
    endloop
  endfacet
  facet normal -1 0 0
    outer loop
      vertex 100.25 -48.25 3.5
      vertex 100.25 -48.25 21.8
      vertex 100.25 -40.25 3.5
    endloop
  endfacet
  facet normal -1 0 0
    outer loop
      vertex 100.25 -50.25 21.8
      vertex 100.25 -50.25 23.8
      vertex 100.25 -48.25 21.8
    endloop
  endfacet
  facet normal -1 0 0
    outer loop
      vertex 100.25 -50.25 23.8
      vertex 100.25 -40.25 23.8
      vertex 100.25 -48.25 21.8
    endloop
  endfacet
  facet normal 0 0 1
    outer loop
      vertex 100.25 -50.25 23.8
      vertex 102.25 -40.25 23.8
      vertex 100.25 -40.25 23.8
    endloop
  endfacet
  facet normal 0 0 1
    outer loop
      vertex 100.25 -50.25 23.8
      vertex 102.25 -52.25 23.8
      vertex 102.25 -40.25 23.8
    endloop
  endfacet
  facet normal -1 0 0
    outer loop
      vertex 100.25 40.25 23.8
      vertex 100.25 50.25 23.8
      vertex 100.25 48.25 21.8
    endloop
  endfacet
  facet normal 0 0 1
    outer loop
      vertex 100.25 40.25 23.8
      vertex 102.25 40.25 23.8
      vertex 100.25 50.25 23.8
    endloop
  endfacet
  facet normal -1 0 0
    outer loop
      vertex 100.25 40.25 3.5
      vertex 100.25 40.25 23.8
      vertex 100.25 48.25 21.8
    endloop
  endfacet
  facet normal -1 0 0
    outer loop
      vertex 100.25 40.25 3.5
      vertex 100.25 48.25 21.8
      vertex 100.25 48.25 3.5
    endloop
  endfacet
  facet normal -0 0 1
    outer loop
      vertex 100.25 40.25 3.5
      vertex 102.25 20 3.5
      vertex 102.25 40.25 3.5
    endloop
  endfacet
  facet normal 0 -1 0
    outer loop
      vertex 100.25 40.25 3.5
      vertex 102.25 40.25 23.8
      vertex 100.25 40.25 23.8
    endloop
  endfacet
  facet normal 0 -1 -0
    outer loop
      vertex 100.25 40.25 3.5
      vertex 102.25 40.25 3.5
      vertex 102.25 40.25 23.8
    endloop
  endfacet
  facet normal -1 0 0
    outer loop
      vertex 100.25 48.25 21.8
      vertex 100.25 50.25 23.8
      vertex 100.25 50.25 21.8
    endloop
  endfacet
  facet normal 0 0 1
    outer loop
      vertex 100.25 50.25 23.8
      vertex 102.25 40.25 23.8
      vertex 102.25 52.25 23.8
    endloop
  endfacet
  facet normal 1 -0 0
    outer loop
      vertex 102.25 -40.25 3.5
      vertex 102.25 -20 0
      vertex 102.25 -20 3.5
    endloop
  endfacet
  facet normal 1 0 0
    outer loop
      vertex 102.25 -52.25 0
      vertex 102.25 -20 0
      vertex 102.25 -40.25 3.5
    endloop
  endfacet
  facet normal 1 0 0
    outer loop
      vertex 102.25 -52.25 0
      vertex 102.25 -40.25 3.5
      vertex 102.25 -52.25 23.8
    endloop
  endfacet
  facet normal 1 0 0
    outer loop
      vertex 102.25 -52.25 23.8
      vertex 102.25 -40.25 3.5
      vertex 102.25 -40.25 23.8
    endloop
  endfacet
  facet normal 1 0 0
    outer loop
      vertex 102.25 20 0
      vertex 102.25 40.25 3.5
      vertex 102.25 20 3.5
    endloop
  endfacet
  facet normal 1 0 0
    outer loop
      vertex 102.25 20 0
      vertex 102.25 52.25 0
      vertex 102.25 40.25 3.5
    endloop
  endfacet
  facet normal 1 0 0
    outer loop
      vertex 102.25 40.25 3.5
      vertex 102.25 52.25 0
      vertex 102.25 52.25 23.8
    endloop
  endfacet
  facet normal 1 0 0
    outer loop
      vertex 102.25 40.25 3.5
      vertex 102.25 52.25 23.8
      vertex 102.25 40.25 23.8
    endloop
  endfacet
  facet normal -1 -0 0
    outer loop
      vertex 20.05 20.25 16
      vertex 20.05 20.25 20.35
      vertex 20.05 22.25 20.35
    endloop
  endfacet
  facet normal -1 0 0
    outer loop
      vertex 20.05 20.25 16
      vertex 20.05 22.25 20.35
      vertex 20.05 22.25 16
    endloop
  endfacet
  facet normal 0 -1 0
    outer loop
      vertex 20.05 20.25 16
      vertex 60 20.25 20.35
      vertex 20.05 20.25 20.35
    endloop
  endfacet
  facet normal 0 -1 0
    outer loop
      vertex 20.05 20.25 16
      vertex 60 20.25 3.5
      vertex 60 20.25 20.35
    endloop
  endfacet
  facet normal 0 0 1
    outer loop
      vertex 20.05 20.25 20.35
      vertex 60 20.25 20.35
      vertex 20.05 22.25 20.35
    endloop
  endfacet
  facet normal 0 1 0
    outer loop
      vertex 20.05 22.25 16
      vertex 20.05 22.25 20.35
      vertex 60 22.25 20.35
    endloop
  endfacet
  facet normal 0 1 -0
    outer loop
      vertex 20.05 22.25 16
      vertex 60 22.25 20.35
      vertex 60 22.25 3.5
    endloop
  endfacet
  facet normal -0 0 1
    outer loop
      vertex 20.05 22.25 20.35
      vertex 60 20.25 20.35
      vertex 60 22.25 20.35
    endloop
  endfacet
  facet normal 0 1 0
    outer loop
      vertex 24 -20.25 16
      vertex 24 -20.25 20.35
      vertex 56 -20.25 16
    endloop
  endfacet
  facet normal 0 1 0
    outer loop
      vertex 24 -20.25 16
      vertex 56 -20.25 16
      vertex 60 -20.25 3.5
    endloop
  endfacet
  facet normal 0 1 -0
    outer loop
      vertex 24 -20.25 20.35
      vertex 56 -20.25 20.35
      vertex 56 -20.25 16
    endloop
  endfacet
  facet normal -0 0 1
    outer loop
      vertex 24 -20.25 20.35
      vertex 56 -22.25 20.35
      vertex 56 -20.25 20.35
    endloop
  endfacet
  facet normal -1 0 0
    outer loop
      vertex 24 -22.25 16
      vertex 24 -20.25 20.35
      vertex 24 -20.25 16
    endloop
  endfacet
  facet normal -1 -0 0
    outer loop
      vertex 24 -22.25 16
      vertex 24 -22.25 20.35
      vertex 24 -20.25 20.35
    endloop
  endfacet
  facet normal 0 -1 -0
    outer loop
      vertex 24 -22.25 16
      vertex 56 -22.25 16
      vertex 56 -22.25 20.35
    endloop
  endfacet
  facet normal 0 -1 0
    outer loop
      vertex 24 -22.25 16
      vertex 56 -22.25 20.35
      vertex 24 -22.25 20.35
    endloop
  endfacet
  facet normal 0 -1 0
    outer loop
      vertex 24 -22.25 16
      vertex 60 -22.25 3.5
      vertex 56 -22.25 16
    endloop
  endfacet
  facet normal 0 0 1
    outer loop
      vertex 24 -22.25 20.35
      vertex 56 -22.25 20.35
      vertex 24 -20.25 20.35
    endloop
  endfacet
  facet normal 0 1 -0
    outer loop
      vertex 56 -20.25 16
      vertex 60 -20.25 16
      vertex 60 -20.25 3.5
    endloop
  endfacet
  facet normal -0 0 1
    outer loop
      vertex 56 -20.25 16
      vertex 60 -22.25 16
      vertex 60 -20.25 16
    endloop
  endfacet
  facet normal 1 0 0
    outer loop
      vertex 56 -22.25 16
      vertex 56 -20.25 16
      vertex 56 -22.25 20.35
    endloop
  endfacet
  facet normal 0 0 1
    outer loop
      vertex 56 -22.25 16
      vertex 60 -22.25 16
      vertex 56 -20.25 16
    endloop
  endfacet
  facet normal 0 -1 0
    outer loop
      vertex 56 -22.25 16
      vertex 60 -22.25 3.5
      vertex 60 -22.25 16
    endloop
  endfacet
  facet normal 1 -0 0
    outer loop
      vertex 56 -22.25 20.35
      vertex 56 -20.25 16
      vertex 56 -20.25 20.35
    endloop
  endfacet
  facet normal 0 0 -1
    outer loop
      vertex 60 -20 0
      vertex 102.25 -20 0
      vertex 102.25 -52.25 0
    endloop
  endfacet
  facet normal 0 1 0
    outer loop
      vertex 60 -20 0
      vertex 60 -20 3.5
      vertex 102.25 -20 0
    endloop
  endfacet
  facet normal 1 0 0
    outer loop
      vertex 60 -20 0
      vertex 60 20 0
      vertex 60 -20 3.5
    endloop
  endfacet
  facet normal 0 1 -0
    outer loop
      vertex 60 -20 3.5
      vertex 102.25 -20 3.5
      vertex 102.25 -20 0
    endloop
  endfacet
  facet normal 1 -0 0
    outer loop
      vertex 60 -20 3.5
      vertex 60 20 0
      vertex 60 20 3.5
    endloop
  endfacet
  facet normal 0 0 1
    outer loop
      vertex 60 -20.25 3.5
      vertex 102.25 -20 3.5
      vertex 60 -20 3.5
    endloop
  endfacet
  facet normal 1 -0 0
    outer loop
      vertex 60 -22.25 16
      vertex 60 -20.25 3.5
      vertex 60 -20.25 16
    endloop
  endfacet
  facet normal -0 0 1
    outer loop
      vertex 60 -22.25 3.5
      vertex 100.25 -40.25 3.5
      vertex 102.25 -20 3.5
    endloop
  endfacet
  facet normal 0 0 1
    outer loop
      vertex 60 -22.25 3.5
      vertex 102.25 -20 3.5
      vertex 60 -20.25 3.5
    endloop
  endfacet
  facet normal 1 0 0
    outer loop
      vertex 60 -22.25 3.5
      vertex 60 -20.25 3.5
      vertex 60 -22.25 16
    endloop
  endfacet
  facet normal 0 0 1
    outer loop
      vertex 60 -22.25 3.5
      vertex 90.25 -50.25 3.5
      vertex 100.25 -40.25 3.5
    endloop
  endfacet
  facet normal 0 0 1
    outer loop
      vertex 60 -22.25 3.5
      vertex 90.25 -52.25 3.5
      vertex 90.25 -50.25 3.5
    endloop
  endfacet
  facet normal 0 -1 -0
    outer loop
      vertex 60 20 0
      vertex 102.25 20 0
      vertex 102.25 20 3.5
    endloop
  endfacet
  facet normal 0 -1 0
    outer loop
      vertex 60 20 0
      vertex 102.25 20 3.5
      vertex 60 20 3.5
    endloop
  endfacet
  facet normal 0 0 -1
    outer loop
      vertex 60 20 0
      vertex 102.25 52.25 0
      vertex 102.25 20 0
    endloop
  endfacet
  facet normal 0 0 1
    outer loop
      vertex 60 20 3.5
      vertex 102.25 20 3.5
      vertex 60 20.25 3.5
    endloop
  endfacet
  facet normal 1 -0 0
    outer loop
      vertex 60 20.25 20.35
      vertex 60 22.25 3.5
      vertex 60 22.25 20.35
    endloop
  endfacet
  facet normal -0 0 1
    outer loop
      vertex 60 20.25 3.5
      vertex 102.25 20 3.5
      vertex 60 22.25 3.5
    endloop
  endfacet
  facet normal 1 0 0
    outer loop
      vertex 60 20.25 3.5
      vertex 60 22.25 3.5
      vertex 60 20.25 20.35
    endloop
  endfacet
  facet normal 0 0 1
    outer loop
      vertex 60 22.25 3.5
      vertex 100.25 40.25 3.5
      vertex 90.25 50.25 3.5
    endloop
  endfacet
  facet normal 0 0 1
    outer loop
      vertex 60 22.25 3.5
      vertex 102.25 20 3.5
      vertex 100.25 40.25 3.5
    endloop
  endfacet
  facet normal 0 0 1
    outer loop
      vertex 60 22.25 3.5
      vertex 90.25 50.25 3.5
      vertex 90.25 52.25 3.5
    endloop
  endfacet
  facet normal 0 1 0
    outer loop
      vertex 90.25 -50.25 23.8
      vertex 100.25 -50.25 23.8
      vertex 98.25 -50.25 21.8
    endloop
  endfacet
  facet normal 0 1 0
    outer loop
      vertex 90.25 -50.25 3.5
      vertex 90.25 -50.25 23.8
      vertex 98.25 -50.25 21.8
    endloop
  endfacet
  facet normal 0 0 1
    outer loop
      vertex 90.25 -50.25 3.5
      vertex 98.25 -48.25 3.5
      vertex 100.25 -40.25 3.5
    endloop
  endfacet
  facet normal 0 1 0
    outer loop
      vertex 90.25 -50.25 3.5
      vertex 98.25 -50.25 21.8
      vertex 98.25 -50.25 3.5
    endloop
  endfacet
  facet normal 0 0 1
    outer loop
      vertex 90.25 -50.25 3.5
      vertex 98.25 -50.25 3.5
      vertex 98.25 -48.25 3.5
    endloop
  endfacet
  facet normal 0 0 1
    outer loop
      vertex 90.25 -52.25 23.8
      vertex 100.25 -50.25 23.8
      vertex 90.25 -50.25 23.8
    endloop
  endfacet
  facet normal 0 0 1
    outer loop
      vertex 90.25 -52.25 23.8
      vertex 102.25 -52.25 23.8
      vertex 100.25 -50.25 23.8
    endloop
  endfacet
  facet normal 0 -1 0
    outer loop
      vertex 90.25 -52.25 3.5
      vertex 102.25 -52.25 0
      vertex 102.25 -52.25 23.8
    endloop
  endfacet
  facet normal 0 -1 0
    outer loop
      vertex 90.25 -52.25 3.5
      vertex 102.25 -52.25 23.8
      vertex 90.25 -52.25 23.8
    endloop
  endfacet
  facet normal -1 0 0
    outer loop
      vertex 90.25 -52.25 3.5
      vertex 90.25 -50.25 23.8
      vertex 90.25 -50.25 3.5
    endloop
  endfacet
  facet normal -1 -0 0
    outer loop
      vertex 90.25 -52.25 3.5
      vertex 90.25 -52.25 23.8
      vertex 90.25 -50.25 23.8
    endloop
  endfacet
  facet normal 0 0 1
    outer loop
      vertex 90.25 50.25 23.8
      vertex 100.25 50.25 23.8
      vertex 90.25 52.25 23.8
    endloop
  endfacet
  facet normal 0 -1 0
    outer loop
      vertex 90.25 50.25 23.8
      vertex 98.25 50.25 21.8
      vertex 100.25 50.25 23.8
    endloop
  endfacet
  facet normal 0 0 1
    outer loop
      vertex 90.25 50.25 3.5
      vertex 100.25 40.25 3.5
      vertex 98.25 48.25 3.5
    endloop
  endfacet
  facet normal -1 -0 0
    outer loop
      vertex 90.25 50.25 3.5
      vertex 90.25 50.25 23.8
      vertex 90.25 52.25 23.8
    endloop
  endfacet
  facet normal -1 0 0
    outer loop
      vertex 90.25 50.25 3.5
      vertex 90.25 52.25 23.8
      vertex 90.25 52.25 3.5
    endloop
  endfacet
  facet normal 0 0 1
    outer loop
      vertex 90.25 50.25 3.5
      vertex 98.25 48.25 3.5
      vertex 98.25 50.25 3.5
    endloop
  endfacet
  facet normal 0 -1 0
    outer loop
      vertex 90.25 50.25 3.5
      vertex 98.25 50.25 21.8
      vertex 90.25 50.25 23.8
    endloop
  endfacet
  facet normal 0 -1 -0
    outer loop
      vertex 90.25 50.25 3.5
      vertex 98.25 50.25 3.5
      vertex 98.25 50.25 21.8
    endloop
  endfacet
  facet normal -0 0 1
    outer loop
      vertex 90.25 52.25 23.8
      vertex 100.25 50.25 23.8
      vertex 102.25 52.25 23.8
    endloop
  endfacet
  facet normal 0 1 -0
    outer loop
      vertex 90.25 52.25 3.5
      vertex 102.25 52.25 23.8
      vertex 102.25 52.25 0
    endloop
  endfacet
  facet normal 0 1 0
    outer loop
      vertex 90.25 52.25 3.5
      vertex 90.25 52.25 23.8
      vertex 102.25 52.25 23.8
    endloop
  endfacet
  facet normal 0 1 -0
    outer loop
      vertex 98.25 -48.25 21.8
      vertex 100.25 -48.25 21.8
      vertex 100.25 -48.25 3.5
    endloop
  endfacet
  facet normal -0 0 1
    outer loop
      vertex 98.25 -48.25 21.8
      vertex 100.25 -50.25 21.8
      vertex 100.25 -48.25 21.8
    endloop
  endfacet
  facet normal 0 0 1
    outer loop
      vertex 98.25 -48.25 3.5
      vertex 100.25 -48.25 3.5
      vertex 100.25 -40.25 3.5
    endloop
  endfacet
  facet normal 0 1 0
    outer loop
      vertex 98.25 -48.25 3.5
      vertex 98.25 -48.25 21.8
      vertex 100.25 -48.25 3.5
    endloop
  endfacet
  facet normal 0 0 1
    outer loop
      vertex 98.25 -50.25 21.8
      vertex 100.25 -50.25 21.8
      vertex 98.25 -48.25 21.8
    endloop
  endfacet
  facet normal 0 1 0
    outer loop
      vertex 98.25 -50.25 21.8
      vertex 100.25 -50.25 23.8
      vertex 100.25 -50.25 21.8
    endloop
  endfacet
  facet normal -1 0 0
    outer loop
      vertex 98.25 -50.25 3.5
      vertex 98.25 -48.25 21.8
      vertex 98.25 -48.25 3.5
    endloop
  endfacet
  facet normal -1 -0 0
    outer loop
      vertex 98.25 -50.25 3.5
      vertex 98.25 -50.25 21.8
      vertex 98.25 -48.25 21.8
    endloop
  endfacet
  facet normal 0 0 1
    outer loop
      vertex 98.25 48.25 21.8
      vertex 100.25 48.25 21.8
      vertex 98.25 50.25 21.8
    endloop
  endfacet
  facet normal 0 0 1
    outer loop
      vertex 98.25 48.25 3.5
      vertex 100.25 40.25 3.5
      vertex 100.25 48.25 3.5
    endloop
  endfacet
  facet normal 0 -1 0
    outer loop
      vertex 98.25 48.25 3.5
      vertex 100.25 48.25 21.8
      vertex 98.25 48.25 21.8
    endloop
  endfacet
  facet normal 0 -1 -0
    outer loop
      vertex 98.25 48.25 3.5
      vertex 100.25 48.25 3.5
      vertex 100.25 48.25 21.8
    endloop
  endfacet
  facet normal -1 -0 0
    outer loop
      vertex 98.25 48.25 3.5
      vertex 98.25 48.25 21.8
      vertex 98.25 50.25 21.8
    endloop
  endfacet
  facet normal -1 0 0
    outer loop
      vertex 98.25 48.25 3.5
      vertex 98.25 50.25 21.8
      vertex 98.25 50.25 3.5
    endloop
  endfacet
  facet normal -0 0 1
    outer loop
      vertex 98.25 50.25 21.8
      vertex 100.25 48.25 21.8
      vertex 100.25 50.25 21.8
    endloop
  endfacet
  facet normal 0 -1 -0
    outer loop
      vertex 98.25 50.25 21.8
      vertex 100.25 50.25 21.8
      vertex 100.25 50.25 23.8
    endloop
  endfacet
endsolid model
