solid model
  facet normal 1 0 0
    outer loop
      vertex -20.05 20.25 16
      vertex -20.05 22.25 16
      vertex -20.05 20.25 20.35
    endloop
  endfacet
  facet normal 0 0 1
    outer loop
      vertex -20.05 20.25 16
      vertex 20.05 20.25 16
      vertex -20.05 22.25 16
    endloop
  endfacet
  facet normal 1 -0 0
    outer loop
      vertex -20.05 20.25 20.35
      vertex -20.05 22.25 16
      vertex -20.05 22.25 20.35
    endloop
  endfacet
  facet normal -0 0 1
    outer loop
      vertex -20.05 22.25 16
      vertex 20.05 20.25 16
      vertex 20.05 22.25 16
    endloop
  endfacet
  facet normal 0 1 0
    outer loop
      vertex -20.05 22.25 16
      vertex 20.05 22.25 16
      vertex 60 22.25 3.5
    endloop
  endfacet
  facet normal 0 1 0
    outer loop
      vertex -24 -20.25 16
      vertex 24 -20.25 16
      vertex 60 -20.25 3.5
    endloop
  endfacet
  facet normal -0 0 1
    outer loop
      vertex -24 -20.25 16
      vertex 24 -22.25 16
      vertex 24 -20.25 16
    endloop
  endfacet
  facet normal 1 0 0
    outer loop
      vertex -24 -22.25 16
      vertex -24 -20.25 16
      vertex -24 -22.25 20.35
    endloop
  endfacet
  facet normal 0 0 1
    outer loop
      vertex -24 -22.25 16
      vertex 24 -22.25 16
      vertex -24 -20.25 16
    endloop
  endfacet
  facet normal 0 -1 0
    outer loop
      vertex -24 -22.25 16
      vertex 60 -22.25 3.5
      vertex 24 -22.25 16
    endloop
  endfacet
  facet normal 1 -0 0
    outer loop
      vertex -24 -22.25 20.35
      vertex -24 -20.25 16
      vertex -24 -20.25 20.35
    endloop
  endfacet
  facet normal 0 1 0
    outer loop
      vertex -56 -20.25 16
      vertex -56 -20.25 20.35
      vertex -24 -20.25 16
    endloop
  endfacet
  facet normal 0 1 -0
    outer loop
      vertex -56 -20.25 20.35
      vertex -24 -20.25 20.35
      vertex -24 -20.25 16
    endloop
  endfacet
  facet normal -0 0 1
    outer loop
      vertex -56 -20.25 20.35
      vertex -24 -22.25 20.35
      vertex -24 -20.25 20.35
    endloop
  endfacet
  facet normal 0 -1 -0
    outer loop
      vertex -56 -22.25 16
      vertex -24 -22.25 16
      vertex -24 -22.25 20.35
    endloop
  endfacet
  facet normal 0 -1 0
    outer loop
      vertex -56 -22.25 16
      vertex -24 -22.25 20.35
      vertex -56 -22.25 20.35
    endloop
  endfacet
  facet normal -1 0 0
    outer loop
      vertex -56 -22.25 16
      vertex -56 -20.25 20.35
      vertex -56 -20.25 16
    endloop
  endfacet
  facet normal -1 -0 0
    outer loop
      vertex -56 -22.25 16
      vertex -56 -22.25 20.35
      vertex -56 -20.25 20.35
    endloop
  endfacet
  facet normal 0 0 1
    outer loop
      vertex -56 -22.25 20.35
      vertex -24 -22.25 20.35
      vertex -56 -20.25 20.35
    endloop
  endfacet
  facet normal -0 0 1
    outer loop
      vertex -60 -20.25 16
      vertex -56 -22.25 16
      vertex -56 -20.25 16
    endloop
  endfacet
  facet normal 0 0 1
    outer loop
      vertex -60 -22.25 16
      vertex -56 -22.25 16
      vertex -60 -20.25 16
    endloop
  endfacet
  facet normal 1 0 0
    outer loop
      vertex -60 -22.25 16
      vertex -60 -20.25 16
      vertex -60 -22.25 20.35
    endloop
  endfacet
  facet normal 1 -0 0
    outer loop
      vertex -60 -22.25 20.35
      vertex -60 -20.25 16
      vertex -60 -20.25 20.35
    endloop
  endfacet
  facet normal 0 1 -0
    outer loop
      vertex -60.25 -20.25 20.35
      vertex -60 -20.25 20.35
      vertex -60 -20.25 16
    endloop
  endfacet
  facet normal -0 0 1
    outer loop
      vertex -60.25 -20.25 20.35
      vertex -60 -22.25 20.35
      vertex -60 -20.25 20.35
    endloop
  endfacet
  facet normal 1 -0 0
    outer loop
      vertex -60.25 -20.25 20.35
      vertex -60.25 20.25 3.5
      vertex -60.25 20.25 20.35
    endloop
  endfacet
  facet normal 0 1 0
    outer loop
      vertex -60.25 -20.25 3.5
      vertex -24 -20.25 16
      vertex 60 -20.25 3.5
    endloop
  endfacet
  facet normal 0 1 0
    outer loop
      vertex -60.25 -20.25 3.5
      vertex -56 -20.25 16
      vertex -24 -20.25 16
    endloop
  endfacet
  facet normal 0 1 0
    outer loop
      vertex -60.25 -20.25 3.5
      vertex -60 -20.25 16
      vertex -56 -20.25 16
    endloop
  endfacet
  facet normal 0 1 0
    outer loop
      vertex -60.25 -20.25 3.5
      vertex -60.25 -20.25 20.35
      vertex -60 -20.25 16
    endloop
  endfacet
  facet normal 1 0 0
    outer loop
      vertex -60.25 -20.25 3.5
      vertex -60.25 20.25 3.5
      vertex -60.25 -20.25 20.35
    endloop
  endfacet
  facet normal 0 0 1
    outer loop
      vertex -60.25 -20.25 3.5
      vertex 60 -20 3.5
      vertex -60.25 20.25 3.5
    endloop
  endfacet
  facet normal 0 0 1
    outer loop
      vertex -60.25 -20.25 3.5
      vertex 60 -20.25 3.5
      vertex 60 -20 3.5
    endloop
  endfacet
  facet normal 0 -1 0
    outer loop
      vertex -60.25 20.25 20.35
      vertex -20.05 20.25 16
      vertex -20.05 20.25 20.35
    endloop
  endfacet
  facet normal 0 0 1
    outer loop
      vertex -60.25 20.25 20.35
      vertex -20.05 20.25 20.35
      vertex -20.05 22.25 20.35
    endloop
  endfacet
  facet normal 0 -1 0
    outer loop
      vertex -60.25 20.25 3.5
      vertex -20.05 20.25 16
      vertex -60.25 20.25 20.35
    endloop
  endfacet
  facet normal 0 -1 -0
    outer loop
      vertex -60.25 20.25 3.5
      vertex 20.05 20.25 16
      vertex -20.05 20.25 16
    endloop
  endfacet
  facet normal 0 0 1
    outer loop
      vertex -60.25 20.25 3.5
      vertex 60 -20 3.5
      vertex 60 20 3.5
    endloop
  endfacet
  facet normal -0 0 1
    outer loop
      vertex -60.25 20.25 3.5
      vertex 60 20 3.5
      vertex 60 20.25 3.5
    endloop
  endfacet
  facet normal 0 -1 0
    outer loop
      vertex -60.25 20.25 3.5
      vertex 60 20.25 3.5
      vertex 20.05 20.25 16
    endloop
  endfacet
  facet normal 0 -1 0
    outer loop
      vertex -62.25 -22.25 20.35
      vertex -60 -22.25 16
      vertex -60 -22.25 20.35
    endloop
  endfacet
  facet normal 0 0 1
    outer loop
      vertex -62.25 -22.25 20.35
      vertex -60 -22.25 20.35
      vertex -60.25 -20.25 20.35
    endloop
  endfacet
  facet normal 0 0 1
    outer loop
      vertex -62.25 -22.25 20.35
      vertex -60.25 -20.25 20.35
      vertex -62.25 22.25 20.35
    endloop
  endfacet
  facet normal 0 -1 -0
    outer loop
      vertex -62.25 -22.25 3.5
      vertex -24 -22.25 16
      vertex -56 -22.25 16
    endloop
  endfacet
  facet normal 0 -1 0
    outer loop
      vertex -62.25 -22.25 3.5
      vertex -56 -22.25 16
      vertex -60 -22.25 16
    endloop
  endfacet
  facet normal 0 -1 0
    outer loop
      vertex -62.25 -22.25 3.5
      vertex -60 -22.25 16
      vertex -62.25 -22.25 20.35
    endloop
  endfacet
  facet normal -1 -0 0
    outer loop
      vertex -62.25 -22.25 3.5
      vertex -62.25 -22.25 20.35
      vertex -62.25 22.25 20.35
    endloop
  endfacet
  facet normal -1 0 0
    outer loop
      vertex -62.25 -22.25 3.5
      vertex -62.25 22.25 20.35
      vertex -62.25 22.25 3.5
    endloop
  endfacet
  facet normal 0 -1 0
    outer loop
      vertex -62.25 -22.25 3.5
      vertex 60 -22.25 3.5
      vertex -24 -22.25 16
    endloop
  endfacet
  facet normal 0 1 -0
    outer loop
      vertex -62.25 22.25 20.35
      vertex -20.05 22.25 20.35
      vertex -20.05 22.25 16
    endloop
  endfacet
  facet normal 0 0 1
    outer loop
      vertex -62.25 22.25 20.35
      vertex -60.25 -20.25 20.35
      vertex -60.25 20.25 20.35
    endloop
  endfacet
  facet normal -0 0 1
    outer loop
      vertex -62.25 22.25 20.35
      vertex -60.25 20.25 20.35
      vertex -20.05 22.25 20.35
    endloop
  endfacet
  facet normal 0 1 0
    outer loop
      vertex -62.25 22.25 3.5
      vertex -20.05 22.25 16
      vertex 60 22.25 3.5
    endloop
  endfacet
  facet normal 0 1 0
    outer loop
      vertex -62.25 22.25 3.5
      vertex -62.25 22.25 20.35
      vertex -20.05 22.25 16
    endloop
  endfacet
  facet normal 1 -0 0
    outer loop
      vertex -80 -52 23.8
      vertex -80 -50 3.5
      vertex -80 -50 23.8
    endloop
  endfacet
  facet normal 0 0 1
    outer loop
      vertex -80 -52 3.5
      vertex -62.25 -22.25 3.5
      vertex -80 -50 3.5
    endloop
  endfacet
  facet normal 1 0 0
    outer loop
      vertex -80 -52 3.5
      vertex -80 -50 3.5
      vertex -80 -52 23.8
    endloop
  endfacet
  facet normal 0 0 1
    outer loop
      vertex -80 -52 3.5
      vertex 60 -22.25 3.5
      vertex -62.25 -22.25 3.5
    endloop
  endfacet
  facet normal 0 0 1
    outer loop
      vertex -80 -52 3.5
      vertex 80 -52 3.5
      vertex 60 -22.25 3.5
    endloop
  endfacet
  facet normal 1 -0 0
    outer loop
      vertex -80 50 23.8
      vertex -80 52 3.5
      vertex -80 52 23.8
    endloop
  endfacet
  facet normal -0 0 1
    outer loop
      vertex -80 50 3.5
      vertex -62.25 22.25 3.5
      vertex -80 52 3.5
    endloop
  endfacet
  facet normal 1 0 0
    outer loop
      vertex -80 50 3.5
      vertex -80 52 3.5
      vertex -80 50 23.8
    endloop
  endfacet
  facet normal 0 0 1
    outer loop
      vertex -80 52 3.5
      vertex -62.25 22.25 3.5
      vertex 60 22.25 3.5
    endloop
  endfacet
  facet normal -0 0 1
    outer loop
      vertex -80 52 3.5
      vertex 60 22.25 3.5
      vertex 80 52 3.5
    endloop
  endfacet
  facet normal 0 1 0
    outer loop
      vertex -80 52 3.5
      vertex 80 52 3.5
      vertex 92 52 0
    endloop
  endfacet
  facet normal 0 0 1
    outer loop
      vertex -88 -48 3.5
      vertex -80 -50 3.5
      vertex -62.25 -22.25 3.5
    endloop
  endfacet
  facet normal 0 1 -0
    outer loop
      vertex -88 -50 21.8
      vertex -80 -50 23.8
      vertex -80 -50 3.5
    endloop
  endfacet
  facet normal 1 -0 0
    outer loop
      vertex -88 -50 21.8
      vertex -88 -48 3.5
      vertex -88 -48 21.8
    endloop
  endfacet
  facet normal 0 0 1
    outer loop
      vertex -88 -50 3.5
      vertex -80 -50 3.5
      vertex -88 -48 3.5
    endloop
  endfacet
  facet normal 1 0 0
    outer loop
      vertex -88 -50 3.5
      vertex -88 -48 3.5
      vertex -88 -50 21.8
    endloop
  endfacet
  facet normal 0 1 0
    outer loop
      vertex -88 -50 3.5
      vertex -88 -50 21.8
      vertex -80 -50 3.5
    endloop
  endfacet
  facet normal 1 -0 0
    outer loop
      vertex -88 48 21.8
      vertex -88 50 3.5
      vertex -88 50 21.8
    endloop
  endfacet
  facet normal 0 0 1
    outer loop
      vertex -88 48 3.5
      vertex -80 50 3.5
      vertex -88 50 3.5
    endloop
  endfacet
  facet normal 1 0 0
    outer loop
      vertex -88 48 3.5
      vertex -88 50 3.5
      vertex -88 48 21.8
    endloop
  endfacet
  facet normal 0 -1 0
    outer loop
      vertex -88 50 21.8
      vertex -80 50 3.5
      vertex -80 50 23.8
    endloop
  endfacet
  facet normal 0 -1 0
    outer loop
      vertex -88 50 3.5
      vertex -80 50 3.5
      vertex -88 50 21.8
    endloop
  endfacet
  facet normal 0 0 1
    outer loop
      vertex -90 -40 3.5
      vertex -88 -48 3.5
      vertex -62.25 -22.25 3.5
    endloop
  endfacet
  facet normal 0 1 -0
    outer loop
      vertex -90 -48 21.8
      vertex -88 -48 21.8
      vertex -88 -48 3.5
    endloop
  endfacet
  facet normal -0 0 1
    outer loop
      vertex -90 -48 21.8
      vertex -88 -50 21.8
      vertex -88 -48 21.8
    endloop
  endfacet
  facet normal 1 0 0
    outer loop
      vertex -90 -48 21.8
      vertex -90 -40 3.5
      vertex -90 -40 23.8
    endloop
  endfacet
  facet normal 0 0 1
    outer loop
      vertex -90 -48 3.5
      vertex -88 -48 3.5
      vertex -90 -40 3.5
    endloop
  endfacet
  facet normal 1 0 0
    outer loop
      vertex -90 -48 3.5
      vertex -90 -40 3.5
      vertex -90 -48 21.8
    endloop
  endfacet
  facet normal 0 1 0
    outer loop
      vertex -90 -48 3.5
      vertex -90 -48 21.8
      vertex -88 -48 3.5
    endloop
  endfacet
  facet normal 0 0 1
    outer loop
      vertex -90 -50 21.8
      vertex -88 -50 21.8
      vertex -90 -48 21.8
    endloop
  endfacet
  facet normal 1 0 0
    outer loop
      vertex -90 -50 21.8
      vertex -90 -48 21.8
      vertex -90 -50 23.8
    endloop
  endfacet
  facet normal 0 1 0
    outer loop
      vertex -90 -50 21.8
      vertex -90 -50 23.8
      vertex -88 -50 21.8
    endloop
  endfacet
  facet normal 0 1 0
    outer loop
      vertex -90 -50 23.8
      vertex -80 -50 23.8
      vertex -88 -50 21.8
    endloop
  endfacet
  facet normal -0 0 1
    outer loop
      vertex -90 -50 23.8
      vertex -80 -52 23.8
      vertex -80 -50 23.8
    endloop
  endfacet
  facet normal 1 -0 0
    outer loop
      vertex -90 -50 23.8
      vertex -90 -48 21.8
      vertex -90 -40 23.8
    endloop
  endfacet
  facet normal 1 -0 0
    outer loop
      vertex -90 40 23.8
      vertex -90 48 21.8
      vertex -90 50 23.8
    endloop
  endfacet
  facet normal 0 0 1
    outer loop
      vertex -90 40 3.5
      vertex -62.25 22.25 3.5
      vertex -80 50 3.5
    endloop
  endfacet
  facet normal 0 0 1
    outer loop
      vertex -90 40 3.5
      vertex -80 50 3.5
      vertex -88 48 3.5
    endloop
  endfacet
  facet normal 0 0 1
    outer loop
      vertex -90 40 3.5
      vertex -88 48 3.5
      vertex -90 48 3.5
    endloop
  endfacet
  facet normal 1 0 0
    outer loop
      vertex -90 40 3.5
      vertex -90 48 21.8
      vertex -90 40 23.8
    endloop
  endfacet
  facet normal 1 0 0
    outer loop
      vertex -90 40 3.5
      vertex -90 48 3.5
      vertex -90 48 21.8
    endloop
  endfacet
  facet normal 0 0 1
    outer loop
      vertex -90 48 21.8
      vertex -88 48 21.8
      vertex -90 50 21.8
    endloop
  endfacet
  facet normal 1 0 0
    outer loop
      vertex -90 48 21.8
      vertex -90 50 21.8
      vertex -90 50 23.8
    endloop
  endfacet
  facet normal 0 -1 0
    outer loop
      vertex -90 48 3.5
      vertex -88 48 21.8
      vertex -90 48 21.8
    endloop
  endfacet
  facet normal 0 -1 -0
    outer loop
      vertex -90 48 3.5
      vertex -88 48 3.5
      vertex -88 48 21.8
    endloop
  endfacet
  facet normal -0 0 1
    outer loop
      vertex -90 50 21.8
      vertex -88 48 21.8
      vertex -88 50 21.8
    endloop
  endfacet
  facet normal 0 -1 0
    outer loop
      vertex -90 50 21.8
      vertex -88 50 21.8
      vertex -90 50 23.8
    endloop
  endfacet
  facet normal 0 0 1
    outer loop
      vertex -90 50 23.8
      vertex -80 50 23.8
      vertex -80 52 23.8
    endloop
  endfacet
  facet normal 0 -1 0
    outer loop
      vertex -90 50 23.8
      vertex -88 50 21.8
      vertex -80 50 23.8
    endloop
  endfacet
  facet normal 0 1 -0
    outer loop
      vertex -92 -40 23.8
      vertex -90 -40 23.8
      vertex -90 -40 3.5
    endloop
  endfacet
  facet normal 0 0 1
    outer loop
      vertex -92 -40 23.8
      vertex -90 -50 23.8
      vertex -90 -40 23.8
    endloop
  endfacet
  facet normal 0 0 1
    outer loop
      vertex -92 -40 3.5
      vertex -62.25 -22.25 3.5
      vertex -92 40 3.5
    endloop
  endfacet
  facet normal 0 0 1
    outer loop
      vertex -92 -40 3.5
      vertex -90 -40 3.5
      vertex -62.25 -22.25 3.5
    endloop
  endfacet
  facet normal 0 1 0
    outer loop
      vertex -92 -40 3.5
      vertex -92 -40 23.8
      vertex -90 -40 3.5
    endloop
  endfacet
  facet normal -1 0 0
    outer loop
      vertex -92 -40 3.5
      vertex -92 40 3.5
      vertex -92 52 0
    endloop
  endfacet
  facet normal 0 -1 0
    outer loop
      vertex -92 -52 0
      vertex -80 -52 3.5
      vertex -92 -52 23.8
    endloop
  endfacet
  facet normal -1 0 0
    outer loop
      vertex -92 -52 0
      vertex -92 -40 3.5
      vertex -92 52 0
    endloop
  endfacet
  facet normal -1 0 0
    outer loop
      vertex -92 -52 0
      vertex -92 -52 23.8
      vertex -92 -40 3.5
    endloop
  endfacet
  facet normal 0 0 -1
    outer loop
      vertex -92 -52 0
      vertex -92 52 0
      vertex 60 20 0
    endloop
  endfacet
  facet normal 0 0 -1
    outer loop
      vertex -92 -52 0
      vertex 60 -20 0
      vertex 92 -52 0
    endloop
  endfacet
  facet normal -0 0 -1
    outer loop
      vertex -92 -52 0
      vertex 60 20 0
      vertex 60 -20 0
    endloop
  endfacet
  facet normal 0 -1 -0
    outer loop
      vertex -92 -52 0
      vertex 80 -52 3.5
      vertex -80 -52 3.5
    endloop
  endfacet
  facet normal 0 -1 0
    outer loop
      vertex -92 -52 0
      vertex 92 -52 0
      vertex 80 -52 3.5
    endloop
  endfacet
  facet normal 0 0 1
    outer loop
      vertex -92 -52 23.8
      vertex -80 -52 23.8
      vertex -90 -50 23.8
    endloop
  endfacet
  facet normal 0 -1 0
    outer loop
      vertex -92 -52 23.8
      vertex -80 -52 3.5
      vertex -80 -52 23.8
    endloop
  endfacet
  facet normal 0 0 1
    outer loop
      vertex -92 -52 23.8
      vertex -90 -50 23.8
      vertex -92 -40 23.8
    endloop
  endfacet
  facet normal -1 0 0
    outer loop
      vertex -92 -52 23.8
      vertex -92 -40 23.8
      vertex -92 -40 3.5
    endloop
  endfacet
  facet normal 0 0 1
    outer loop
      vertex -92 40 23.8
      vertex -90 40 23.8
      vertex -90 50 23.8
    endloop
  endfacet
  facet normal 0 0 1
    outer loop
      vertex -92 40 23.8
      vertex -90 50 23.8
      vertex -92 52 23.8
    endloop
  endfacet
  facet normal 0 0 1
    outer loop
      vertex -92 40 3.5
      vertex -62.25 -22.25 3.5
      vertex -62.25 22.25 3.5
    endloop
  endfacet
  facet normal -0 0 1
    outer loop
      vertex -92 40 3.5
      vertex -62.25 22.25 3.5
      vertex -90 40 3.5
    endloop
  endfacet
  facet normal 0 -1 0
    outer loop
      vertex -92 40 3.5
      vertex -90 40 23.8
      vertex -92 40 23.8
    endloop
  endfacet
  facet normal 0 -1 -0
    outer loop
      vertex -92 40 3.5
      vertex -90 40 3.5
      vertex -90 40 23.8
    endloop
  endfacet
  facet normal -1 -0 0
    outer loop
      vertex -92 40 3.5
      vertex -92 40 23.8
      vertex -92 52 23.8
    endloop
  endfacet
  facet normal -1 0 0
    outer loop
      vertex -92 40 3.5
      vertex -92 52 23.8
      vertex -92 52 0
    endloop
  endfacet
  facet normal 0 1 0
    outer loop
      vertex -92 52 0
      vertex -80 52 3.5
      vertex 92 52 0
    endloop
  endfacet
  facet normal 0 1 0
    outer loop
      vertex -92 52 0
      vertex -92 52 23.8
      vertex -80 52 3.5
    endloop
  endfacet
  facet normal 0 0 -1
    outer loop
      vertex -92 52 0
      vertex 92 52 0
      vertex 60 20 0
    endloop
  endfacet
  facet normal 0 1 -0
    outer loop
      vertex -92 52 23.8
      vertex -80 52 23.8
      vertex -80 52 3.5
    endloop
  endfacet
  facet normal -0 0 1
    outer loop
      vertex -92 52 23.8
      vertex -90 50 23.8
      vertex -80 52 23.8
    endloop
  endfacet
  facet normal -1 -0 0
    outer loop
      vertex 20.05 20.25 16
      vertex 20.05 20.25 20.35
      vertex 20.05 22.25 20.35
    endloop
  endfacet
  facet normal -1 0 0
    outer loop
      vertex 20.05 20.25 16
      vertex 20.05 22.25 20.35
      vertex 20.05 22.25 16
    endloop
  endfacet
  facet normal 0 -1 0
    outer loop
      vertex 20.05 20.25 16
      vertex 60 20.25 20.35
      vertex 20.05 20.25 20.35
    endloop
  endfacet
  facet normal 0 -1 0
    outer loop
      vertex 20.05 20.25 16
      vertex 60 20.25 3.5
      vertex 60 20.25 20.35
    endloop
  endfacet
  facet normal 0 0 1
    outer loop
      vertex 20.05 20.25 20.35
      vertex 60 20.25 20.35
      vertex 20.05 22.25 20.35
    endloop
  endfacet
  facet normal 0 1 0
    outer loop
      vertex 20.05 22.25 16
      vertex 20.05 22.25 20.35
      vertex 60 22.25 20.35
    endloop
  endfacet
  facet normal 0 1 -0
    outer loop
      vertex 20.05 22.25 16
      vertex 60 22.25 20.35
      vertex 60 22.25 3.5
    endloop
  endfacet
  facet normal -0 0 1
    outer loop
      vertex 20.05 22.25 20.35
      vertex 60 20.25 20.35
      vertex 60 22.25 20.35
    endloop
  endfacet
  facet normal 0 1 0
    outer loop
      vertex 24 -20.25 16
      vertex 24 -20.25 20.35
      vertex 56 -20.25 16
    endloop
  endfacet
  facet normal 0 1 0
    outer loop
      vertex 24 -20.25 16
      vertex 56 -20.25 16
      vertex 60 -20.25 3.5
    endloop
  endfacet
  facet normal 0 1 -0
    outer loop
      vertex 24 -20.25 20.35
      vertex 56 -20.25 20.35
      vertex 56 -20.25 16
    endloop
  endfacet
  facet normal -0 0 1
    outer loop
      vertex 24 -20.25 20.35
      vertex 56 -22.25 20.35
      vertex 56 -20.25 20.35
    endloop
  endfacet
  facet normal -1 0 0
    outer loop
      vertex 24 -22.25 16
      vertex 24 -20.25 20.35
      vertex 24 -20.25 16
    endloop
  endfacet
  facet normal -1 -0 0
    outer loop
      vertex 24 -22.25 16
      vertex 24 -22.25 20.35
      vertex 24 -20.25 20.35
    endloop
  endfacet
  facet normal 0 -1 -0
    outer loop
      vertex 24 -22.25 16
      vertex 56 -22.25 16
      vertex 56 -22.25 20.35
    endloop
  endfacet
  facet normal 0 -1 0
    outer loop
      vertex 24 -22.25 16
      vertex 56 -22.25 20.35
      vertex 24 -22.25 20.35
    endloop
  endfacet
  facet normal 0 -1 0
    outer loop
      vertex 24 -22.25 16
      vertex 60 -22.25 3.5
      vertex 56 -22.25 16
    endloop
  endfacet
  facet normal 0 0 1
    outer loop
      vertex 24 -22.25 20.35
      vertex 56 -22.25 20.35
      vertex 24 -20.25 20.35
    endloop
  endfacet
  facet normal 0 1 -0
    outer loop
      vertex 56 -20.25 16
      vertex 60 -20.25 16
      vertex 60 -20.25 3.5
    endloop
  endfacet
  facet normal -0 0 1
    outer loop
      vertex 56 -20.25 16
      vertex 60 -22.25 16
      vertex 60 -20.25 16
    endloop
  endfacet
  facet normal 1 0 0
    outer loop
      vertex 56 -22.25 16
      vertex 56 -20.25 16
      vertex 56 -22.25 20.35
    endloop
  endfacet
  facet normal 0 0 1
    outer loop
      vertex 56 -22.25 16
      vertex 60 -22.25 16
      vertex 56 -20.25 16
    endloop
  endfacet
  facet normal 0 -1 0
    outer loop
      vertex 56 -22.25 16
      vertex 60 -22.25 3.5
      vertex 60 -22.25 16
    endloop
  endfacet
  facet normal 1 -0 0
    outer loop
      vertex 56 -22.25 20.35
      vertex 56 -20.25 16
      vertex 56 -20.25 20.35
    endloop
  endfacet
  facet normal 0 1 0
    outer loop
      vertex 60 -20 0
      vertex 60 -20 3.5
      vertex 92 -20 0
    endloop
  endfacet
  facet normal 1 0 0
    outer loop
      vertex 60 -20 0
      vertex 60 20 0
      vertex 60 -20 3.5
    endloop
  endfacet
  facet normal 0 0 -1
    outer loop
      vertex 60 -20 0
      vertex 92 -20 0
      vertex 92 -52 0
    endloop
  endfacet
  facet normal 1 -0 0
    outer loop
      vertex 60 -20 3.5
      vertex 60 20 0
      vertex 60 20 3.5
    endloop
  endfacet
  facet normal 0 1 -0
    outer loop
      vertex 60 -20 3.5
      vertex 92 -20 3.5
      vertex 92 -20 0
    endloop
  endfacet
  facet normal 0 0 1
    outer loop
      vertex 60 -20.25 3.5
      vertex 92 -20 3.5
      vertex 60 -20 3.5
    endloop
  endfacet
  facet normal 1 -0 0
    outer loop
      vertex 60 -22.25 16
      vertex 60 -20.25 3.5
      vertex 60 -20.25 16
    endloop
  endfacet
  facet normal 1 0 0
    outer loop
      vertex 60 -22.25 3.5
      vertex 60 -20.25 3.5
      vertex 60 -22.25 16
    endloop
  endfacet
  facet normal 0 0 1
    outer loop
      vertex 60 -22.25 3.5
      vertex 80 -50 3.5
      vertex 90 -40 3.5
    endloop
  endfacet
  facet normal 0 0 1
    outer loop
      vertex 60 -22.25 3.5
      vertex 80 -52 3.5
      vertex 80 -50 3.5
    endloop
  endfacet
  facet normal -0 0 1
    outer loop
      vertex 60 -22.25 3.5
      vertex 90 -40 3.5
      vertex 92 -20 3.5
    endloop
  endfacet
  facet normal 0 0 1
    outer loop
      vertex 60 -22.25 3.5
      vertex 92 -20 3.5
      vertex 60 -20.25 3.5
    endloop
  endfacet
  facet normal 0 -1 -0
    outer loop
      vertex 60 20 0
      vertex 92 20 0
      vertex 92 20 3.5
    endloop
  endfacet
  facet normal 0 -1 0
    outer loop
      vertex 60 20 0
      vertex 92 20 3.5
      vertex 60 20 3.5
    endloop
  endfacet
  facet normal 0 0 -1
    outer loop
      vertex 60 20 0
      vertex 92 52 0
      vertex 92 20 0
    endloop
  endfacet
  facet normal 0 0 1
    outer loop
      vertex 60 20 3.5
      vertex 92 20 3.5
      vertex 60 20.25 3.5
    endloop
  endfacet
  facet normal 1 -0 0
    outer loop
      vertex 60 20.25 20.35
      vertex 60 22.25 3.5
      vertex 60 22.25 20.35
    endloop
  endfacet
  facet normal 1 0 0
    outer loop
      vertex 60 20.25 3.5
      vertex 60 22.25 3.5
      vertex 60 20.25 20.35
    endloop
  endfacet
  facet normal -0 0 1
    outer loop
      vertex 60 20.25 3.5
      vertex 92 20 3.5
      vertex 60 22.25 3.5
    endloop
  endfacet
  facet normal 0 0 1
    outer loop
      vertex 60 22.25 3.5
      vertex 80 50 3.5
      vertex 80 52 3.5
    endloop
  endfacet
  facet normal 0 0 1
    outer loop
      vertex 60 22.25 3.5
      vertex 90 40 3.5
      vertex 80 50 3.5
    endloop
  endfacet
  facet normal 0 0 1
    outer loop
      vertex 60 22.25 3.5
      vertex 92 20 3.5
      vertex 90 40 3.5
    endloop
  endfacet
  facet normal 0 1 0
    outer loop
      vertex 80 -50 23.8
      vertex 90 -50 23.8
      vertex 88 -50 21.8
    endloop
  endfacet
  facet normal 0 1 0
    outer loop
      vertex 80 -50 3.5
      vertex 80 -50 23.8
      vertex 88 -50 21.8
    endloop
  endfacet
  facet normal 0 0 1
    outer loop
      vertex 80 -50 3.5
      vertex 88 -48 3.5
      vertex 90 -40 3.5
    endloop
  endfacet
  facet normal 0 1 0
    outer loop
      vertex 80 -50 3.5
      vertex 88 -50 21.8
      vertex 88 -50 3.5
    endloop
  endfacet
  facet normal 0 0 1
    outer loop
      vertex 80 -50 3.5
      vertex 88 -50 3.5
      vertex 88 -48 3.5
    endloop
  endfacet
  facet normal 0 0 1
    outer loop
      vertex 80 -52 23.8
      vertex 90 -50 23.8
      vertex 80 -50 23.8
    endloop
  endfacet
  facet normal 0 0 1
    outer loop
      vertex 80 -52 23.8
      vertex 92 -52 23.8
      vertex 90 -50 23.8
    endloop
  endfacet
  facet normal -1 0 0
    outer loop
      vertex 80 -52 3.5
      vertex 80 -50 23.8
      vertex 80 -50 3.5
    endloop
  endfacet
  facet normal -1 -0 0
    outer loop
      vertex 80 -52 3.5
      vertex 80 -52 23.8
      vertex 80 -50 23.8
    endloop
  endfacet
  facet normal 0 -1 0
    outer loop
      vertex 80 -52 3.5
      vertex 92 -52 0
      vertex 92 -52 23.8
    endloop
  endfacet
  facet normal 0 -1 0
    outer loop
      vertex 80 -52 3.5
      vertex 92 -52 23.8
      vertex 80 -52 23.8
    endloop
  endfacet
  facet normal 0 -1 0
    outer loop
      vertex 80 50 23.8
      vertex 88 50 21.8
      vertex 90 50 23.8
    endloop
  endfacet
  facet normal 0 0 1
    outer loop
      vertex 80 50 23.8
      vertex 90 50 23.8
      vertex 80 52 23.8
    endloop
  endfacet
  facet normal -1 -0 0
    outer loop
      vertex 80 50 3.5
      vertex 80 50 23.8
      vertex 80 52 23.8
    endloop
  endfacet
  facet normal -1 0 0
    outer loop
      vertex 80 50 3.5
      vertex 80 52 23.8
      vertex 80 52 3.5
    endloop
  endfacet
  facet normal 0 0 1
    outer loop
      vertex 80 50 3.5
      vertex 88 48 3.5
      vertex 88 50 3.5
    endloop
  endfacet
  facet normal 0 -1 0
    outer loop
      vertex 80 50 3.5
      vertex 88 50 21.8
      vertex 80 50 23.8
    endloop
  endfacet
  facet normal 0 -1 -0
    outer loop
      vertex 80 50 3.5
      vertex 88 50 3.5
      vertex 88 50 21.8
    endloop
  endfacet
  facet normal 0 0 1
    outer loop
      vertex 80 50 3.5
      vertex 90 40 3.5
      vertex 88 48 3.5
    endloop
  endfacet
  facet normal -0 0 1
    outer loop
      vertex 80 52 23.8
      vertex 90 50 23.8
      vertex 92 52 23.8
    endloop
  endfacet
  facet normal 0 1 0
    outer loop
      vertex 80 52 3.5
      vertex 80 52 23.8
      vertex 92 52 23.8
    endloop
  endfacet
  facet normal 0 1 -0
    outer loop
      vertex 80 52 3.5
      vertex 92 52 23.8
      vertex 92 52 0
    endloop
  endfacet
  facet normal 0 1 -0
    outer loop
      vertex 88 -48 21.8
      vertex 90 -48 21.8
      vertex 90 -48 3.5
    endloop
  endfacet
  facet normal -0 0 1
    outer loop
      vertex 88 -48 21.8
      vertex 90 -50 21.8
      vertex 90 -48 21.8
    endloop
  endfacet
  facet normal 0 1 0
    outer loop
      vertex 88 -48 3.5
      vertex 88 -48 21.8
      vertex 90 -48 3.5
    endloop
  endfacet
  facet normal 0 0 1
    outer loop
      vertex 88 -48 3.5
      vertex 90 -48 3.5
      vertex 90 -40 3.5
    endloop
  endfacet
  facet normal 0 0 1
    outer loop
      vertex 88 -50 21.8
      vertex 90 -50 21.8
      vertex 88 -48 21.8
    endloop
  endfacet
  facet normal 0 1 0
    outer loop
      vertex 88 -50 21.8
      vertex 90 -50 23.8
      vertex 90 -50 21.8
    endloop
  endfacet
  facet normal -1 0 0
    outer loop
      vertex 88 -50 3.5
      vertex 88 -48 21.8
      vertex 88 -48 3.5
    endloop
  endfacet
  facet normal -1 -0 0
    outer loop
      vertex 88 -50 3.5
      vertex 88 -50 21.8
      vertex 88 -48 21.8
    endloop
  endfacet
  facet normal 0 0 1
    outer loop
      vertex 88 48 21.8
      vertex 90 48 21.8
      vertex 88 50 21.8
    endloop
  endfacet
  facet normal -1 -0 0
    outer loop
      vertex 88 48 3.5
      vertex 88 48 21.8
      vertex 88 50 21.8
    endloop
  endfacet
  facet normal -1 0 0
    outer loop
      vertex 88 48 3.5
      vertex 88 50 21.8
      vertex 88 50 3.5
    endloop
  endfacet
  facet normal 0 0 1
    outer loop
      vertex 88 48 3.5
      vertex 90 40 3.5
      vertex 90 48 3.5
    endloop
  endfacet
  facet normal 0 -1 0
    outer loop
      vertex 88 48 3.5
      vertex 90 48 21.8
      vertex 88 48 21.8
    endloop
  endfacet
  facet normal 0 -1 -0
    outer loop
      vertex 88 48 3.5
      vertex 90 48 3.5
      vertex 90 48 21.8
    endloop
  endfacet
  facet normal -0 0 1
    outer loop
      vertex 88 50 21.8
      vertex 90 48 21.8
      vertex 90 50 21.8
    endloop
  endfacet
  facet normal 0 -1 -0
    outer loop
      vertex 88 50 21.8
      vertex 90 50 21.8
      vertex 90 50 23.8
    endloop
  endfacet
  facet normal 0 1 -0
    outer loop
      vertex 90 -40 23.8
      vertex 92 -40 23.8
      vertex 92 -40 3.5
    endloop
  endfacet
  facet normal 0 1 0
    outer loop
      vertex 90 -40 3.5
      vertex 90 -40 23.8
      vertex 92 -40 3.5
    endloop
  endfacet
  facet normal 0 0 1
    outer loop
      vertex 90 -40 3.5
      vertex 92 -40 3.5
      vertex 92 -20 3.5
    endloop
  endfacet
  facet normal -1 0 0
    outer loop
      vertex 90 -48 21.8
      vertex 90 -40 23.8
      vertex 90 -40 3.5
    endloop
  endfacet
  facet normal -1 0 0
    outer loop
      vertex 90 -48 3.5
      vertex 90 -48 21.8
      vertex 90 -40 3.5
    endloop
  endfacet
  facet normal -1 0 0
    outer loop
      vertex 90 -50 21.8
      vertex 90 -50 23.8
      vertex 90 -48 21.8
    endloop
  endfacet
  facet normal -1 0 0
    outer loop
      vertex 90 -50 23.8
      vertex 90 -40 23.8
      vertex 90 -48 21.8
    endloop
  endfacet
  facet normal 0 0 1
    outer loop
      vertex 90 -50 23.8
      vertex 92 -40 23.8
      vertex 90 -40 23.8
    endloop
  endfacet
  facet normal 0 0 1
    outer loop
      vertex 90 -50 23.8
      vertex 92 -52 23.8
      vertex 92 -40 23.8
    endloop
  endfacet
  facet normal -1 0 0
    outer loop
      vertex 90 40 23.8
      vertex 90 50 23.8
      vertex 90 48 21.8
    endloop
  endfacet
  facet normal 0 0 1
    outer loop
      vertex 90 40 23.8
      vertex 92 40 23.8
      vertex 90 50 23.8
    endloop
  endfacet
  facet normal -1 0 0
    outer loop
      vertex 90 40 3.5
      vertex 90 40 23.8
      vertex 90 48 21.8
    endloop
  endfacet
  facet normal -1 0 0
    outer loop
      vertex 90 40 3.5
      vertex 90 48 21.8
      vertex 90 48 3.5
    endloop
  endfacet
  facet normal -0 0 1
    outer loop
      vertex 90 40 3.5
      vertex 92 20 3.5
      vertex 92 40 3.5
    endloop
  endfacet
  facet normal 0 -1 0
    outer loop
      vertex 90 40 3.5
      vertex 92 40 23.8
      vertex 90 40 23.8
    endloop
  endfacet
  facet normal 0 -1 -0
    outer loop
      vertex 90 40 3.5
      vertex 92 40 3.5
      vertex 92 40 23.8
    endloop
  endfacet
  facet normal -1 0 0
    outer loop
      vertex 90 48 21.8
      vertex 90 50 23.8
      vertex 90 50 21.8
    endloop
  endfacet
  facet normal 0 0 1
    outer loop
      vertex 90 50 23.8
      vertex 92 40 23.8
      vertex 92 52 23.8
    endloop
  endfacet
  facet normal 1 -0 0
    outer loop
      vertex 92 -40 3.5
      vertex 92 -20 0
      vertex 92 -20 3.5
    endloop
  endfacet
  facet normal 1 0 0
    outer loop
      vertex 92 -52 0
      vertex 92 -20 0
      vertex 92 -40 3.5
    endloop
  endfacet
  facet normal 1 0 0
    outer loop
      vertex 92 -52 0
      vertex 92 -40 3.5
      vertex 92 -52 23.8
    endloop
  endfacet
  facet normal 1 0 0
    outer loop
      vertex 92 -52 23.8
      vertex 92 -40 3.5
      vertex 92 -40 23.8
    endloop
  endfacet
  facet normal 1 0 0
    outer loop
      vertex 92 20 0
      vertex 92 40 3.5
      vertex 92 20 3.5
    endloop
  endfacet
  facet normal 1 0 0
    outer loop
      vertex 92 20 0
      vertex 92 52 0
      vertex 92 40 3.5
    endloop
  endfacet
  facet normal 1 0 0
    outer loop
      vertex 92 40 3.5
      vertex 92 52 0
      vertex 92 52 23.8
    endloop
  endfacet
  facet normal 1 0 0
    outer loop
      vertex 92 40 3.5
      vertex 92 52 23.8
      vertex 92 40 23.8
    endloop
  endfacet
endsolid model
