solid model
  facet normal -1 -0 0
    outer loop
      vertex -100 -50 0
      vertex -100 -50 8
      vertex -100 50 8
    endloop
  endfacet
  facet normal 0 0 -1
    outer loop
      vertex -100 -50 0
      vertex -100 50 0
      vertex -94.3 -39.7 0
    endloop
  endfacet
  facet normal -1 0 0
    outer loop
      vertex -100 -50 0
      vertex -100 50 8
      vertex -100 50 0
    endloop
  endfacet
  facet normal 0 0 -1
    outer loop
      vertex -100 -50 0
      vertex -80.3 -44.3 0
      vertex 100 -50 0
    endloop
  endfacet
  facet normal 0 0 -1
    outer loop
      vertex -100 -50 0
      vertex -94.3 -39.7 0
      vertex -94.3 -44.3 0
    endloop
  endfacet
  facet normal -0 0 -1
    outer loop
      vertex -100 -50 0
      vertex -94.3 -44.3 0
      vertex -80.3 -44.3 0
    endloop
  endfacet
  facet normal 0 -1 -0
    outer loop
      vertex -100 -50 0
      vertex 100 -50 0
      vertex 100 -50 8
    endloop
  endfacet
  facet normal 0 -1 0
    outer loop
      vertex -100 -50 0
      vertex 100 -50 8
      vertex -100 -50 8
    endloop
  endfacet
  facet normal 0 0 1
    outer loop
      vertex -100 -50 8
      vertex 100 -50 8
      vertex -100 50 8
    endloop
  endfacet
  facet normal 0 1 0
    outer loop
      vertex -100 50 0
      vertex -100 50 8
      vertex 100 50 0
    endloop
  endfacet
  facet normal 0 0 -1
    outer loop
      vertex -100 50 0
      vertex -2.3 2.3 0
      vertex -80.3 -39.7 0
    endloop
  endfacet
  facet normal 0 0 -1
    outer loop
      vertex -100 50 0
      vertex -80.3 -39.7 0
      vertex -94.3 -39.7 0
    endloop
  endfacet
  facet normal 0 0 -1
    outer loop
      vertex -100 50 0
      vertex 100 50 0
      vertex -2.3 2.3 0
    endloop
  endfacet
  facet normal -0 0 1
    outer loop
      vertex -100 50 8
      vertex 100 -50 8
      vertex 100 50 8
    endloop
  endfacet
  facet normal 0 1 -0
    outer loop
      vertex -100 50 8
      vertex 100 50 8
      vertex 100 50 0
    endloop
  endfacet
  facet normal 0 1 0
    outer loop
      vertex -2.3 -11.7 0
      vertex -2.3 -11.7 3.35
      vertex 2.3 -11.7 0
    endloop
  endfacet
  facet normal 1 0 0
    outer loop
      vertex -2.3 -11.7 0
      vertex -2.3 -2.3 3.35
      vertex -2.3 -11.7 3.35
    endloop
  endfacet
  facet normal 1 0 0
    outer loop
      vertex -2.3 -11.7 0
      vertex -2.3 2.3 0
      vertex -2.3 -2.3 3.35
    endloop
  endfacet
  facet normal -0 0 -1
    outer loop
      vertex -2.3 -11.7 3.35
      vertex -2.3 -2.3 3.35
      vertex 2.3 -2.3 3.35
    endloop
  endfacet
  facet normal 0 1 -0
    outer loop
      vertex -2.3 -11.7 3.35
      vertex 2.3 -11.7 3.35
      vertex 2.3 -11.7 0
    endloop
  endfacet
  facet normal 0 0 -1
    outer loop
      vertex -2.3 -11.7 3.35
      vertex 2.3 -2.3 3.35
      vertex 2.3 -11.7 3.35
    endloop
  endfacet
  facet normal 0 1 0
    outer loop
      vertex -2.3 -2.3 3.35
      vertex -2.3 -2.3 3.85
      vertex 2.3 -2.3 3.35
    endloop
  endfacet
  facet normal 1 0 0
    outer loop
      vertex -2.3 -2.3 3.35
      vertex -2.3 2.3 0
      vertex -2.3 2.3 3.85
    endloop
  endfacet
  facet normal 1 0 0
    outer loop
      vertex -2.3 -2.3 3.35
      vertex -2.3 2.3 3.85
      vertex -2.3 -2.3 3.85
    endloop
  endfacet
  facet normal -0 0 -1
    outer loop
      vertex -2.3 -2.3 3.85
      vertex -2.3 2.3 3.85
      vertex 2.3 2.3 3.85
    endloop
  endfacet
  facet normal 0 1 -0
    outer loop
      vertex -2.3 -2.3 3.85
      vertex 2.3 -2.3 3.85
      vertex 2.3 -2.3 3.35
    endloop
  endfacet
  facet normal 0 0 -1
    outer loop
      vertex -2.3 -2.3 3.85
      vertex 2.3 2.3 3.85
      vertex 2.3 -2.3 3.85
    endloop
  endfacet
  facet normal 0 0 -1
    outer loop
      vertex -2.3 2.3 0
      vertex 100 50 0
      vertex 2.3 2.3 0
    endloop
  endfacet
  facet normal 0 -1 -0
    outer loop
      vertex -2.3 2.3 0
      vertex 2.3 2.3 0
      vertex 2.3 2.3 3.85
    endloop
  endfacet
  facet normal 0 -1 0
    outer loop
      vertex -2.3 2.3 0
      vertex 2.3 2.3 3.85
      vertex -2.3 2.3 3.85
    endloop
  endfacet
  facet normal -0 0 -1
    outer loop
      vertex -80.3 -39.7 0
      vertex -2.3 2.3 0
      vertex -2.3 -11.7 0
    endloop
  endfacet
  facet normal -0 0 -1
    outer loop
      vertex -80.3 -44.3 0
      vertex -2.3 -11.7 0
      vertex 2.3 -11.7 0
    endloop
  endfacet
  facet normal 0 0 -1
    outer loop
      vertex -80.3 -44.3 0
      vertex -80.3 -39.7 0
      vertex -2.3 -11.7 0
    endloop
  endfacet
  facet normal -1 0 0
    outer loop
      vertex -80.3 -44.3 0
      vertex -80.3 -39.7 3.35
      vertex -80.3 -39.7 0
    endloop
  endfacet
  facet normal -1 -0 0
    outer loop
      vertex -80.3 -44.3 0
      vertex -80.3 -44.3 3.35
      vertex -80.3 -39.7 3.35
    endloop
  endfacet
  facet normal 0 0 -1
    outer loop
      vertex -80.3 -44.3 0
      vertex 2.3 -11.7 0
      vertex 100 -50 0
    endloop
  endfacet
  facet normal 0 -1 0
    outer loop
      vertex -89.7 -39.7 3.35
      vertex -80.3 -39.7 0
      vertex -80.3 -39.7 3.35
    endloop
  endfacet
  facet normal 0 0 -1
    outer loop
      vertex -89.7 -44.3 3.35
      vertex -80.3 -39.7 3.35
      vertex -80.3 -44.3 3.35
    endloop
  endfacet
  facet normal 0 1 0
    outer loop
      vertex -89.7 -44.3 3.35
      vertex -80.3 -44.3 3.35
      vertex -80.3 -44.3 0
    endloop
  endfacet
  facet normal -0 0 -1
    outer loop
      vertex -89.7 -44.3 3.35
      vertex -89.7 -39.7 3.35
      vertex -80.3 -39.7 3.35
    endloop
  endfacet
  facet normal -1 0 0
    outer loop
      vertex -89.7 -44.3 3.35
      vertex -89.7 -39.7 3.85
      vertex -89.7 -39.7 3.35
    endloop
  endfacet
  facet normal -1 -0 0
    outer loop
      vertex -89.7 -44.3 3.35
      vertex -89.7 -44.3 3.85
      vertex -89.7 -39.7 3.85
    endloop
  endfacet
  facet normal 0 -1 0
    outer loop
      vertex -94.3 -39.7 0
      vertex -80.3 -39.7 0
      vertex -89.7 -39.7 3.35
    endloop
  endfacet
  facet normal 0 -1 0
    outer loop
      vertex -94.3 -39.7 0
      vertex -89.7 -39.7 3.35
      vertex -94.3 -39.7 3.85
    endloop
  endfacet
  facet normal 0 -1 0
    outer loop
      vertex -94.3 -39.7 3.85
      vertex -89.7 -39.7 3.35
      vertex -89.7 -39.7 3.85
    endloop
  endfacet
  facet normal 0 0 -1
    outer loop
      vertex -94.3 -39.7 3.85
      vertex -89.7 -39.7 3.85
      vertex -89.7 -44.3 3.85
    endloop
  endfacet
  facet normal 0 1 0
    outer loop
      vertex -94.3 -44.3 0
      vertex -89.7 -44.3 3.35
      vertex -80.3 -44.3 0
    endloop
  endfacet
  facet normal 1 -1.65856e-06 0
    outer loop
      vertex -94.3 -44.3 0
      vertex -94.3 -39.7 0
      vertex -94.3 -44.3 3.85
    endloop
  endfacet
  facet normal 0 1 0
    outer loop
      vertex -94.3 -44.3 0
      vertex -94.3 -44.3 3.85
      vertex -89.7 -44.3 3.35
    endloop
  endfacet
  facet normal 0 1 -0
    outer loop
      vertex -94.3 -44.3 3.85
      vertex -89.7 -44.3 3.85
      vertex -89.7 -44.3 3.35
    endloop
  endfacet
  facet normal 1 -1.65856e-06 0
    outer loop
      vertex -94.3 -44.3 3.85
      vertex -94.3 -39.7 0
      vertex -94.3 -39.7 3.85
    endloop
  endfacet
  facet normal 0 -0 -1
    outer loop
      vertex -94.3 -44.3 3.85
      vertex -94.3 -39.7 3.85
      vertex -89.7 -44.3 3.85
    endloop
  endfacet
  facet normal 1 0 0
    outer loop
      vertex 100 -50 0
      vertex 100 50 0
      vertex 100 -50 8
    endloop
  endfacet
  facet normal 1 -0 0
    outer loop
      vertex 100 -50 8
      vertex 100 50 0
      vertex 100 50 8
    endloop
  endfacet
  facet normal -1 -0 0
    outer loop
      vertex 2.3 -11.7 0
      vertex 2.3 -11.7 3.35
      vertex 2.3 -2.3 3.35
    endloop
  endfacet
  facet normal -1 0 0
    outer loop
      vertex 2.3 -11.7 0
      vertex 2.3 -2.3 3.35
      vertex 2.3 2.3 0
    endloop
  endfacet
  facet normal 0 0 -1
    outer loop
      vertex 2.3 -11.7 0
      vertex 2.3 2.3 0
      vertex 100 -50 0
    endloop
  endfacet
  facet normal -1 -0 0
    outer loop
      vertex 2.3 -2.3 3.35
      vertex 2.3 -2.3 3.85
      vertex 2.3 2.3 3.85
    endloop
  endfacet
  facet normal -1 0 0
    outer loop
      vertex 2.3 -2.3 3.35
      vertex 2.3 2.3 3.85
      vertex 2.3 2.3 0
    endloop
  endfacet
  facet normal 0 0 -1
    outer loop
      vertex 2.3 2.3 0
      vertex 100 50 0
      vertex 100 -50 0
    endloop
  endfacet
endsolid model
