G04 #@! TF.GenerationSoftware,KiCad,Pcbnew,5.1.5-52549c5~84~ubuntu18.04.1*
G04 #@! TF.CreationDate,2020-01-09T20:53:28+01:00*
G04 #@! TF.ProjectId,DSB_R1,4453425f-5231-42e6-9b69-6361645f7063,rev?*
G04 #@! TF.SameCoordinates,Original*
G04 #@! TF.FileFunction,Soldermask,Bot*
G04 #@! TF.FilePolarity,Negative*
%FSLAX46Y46*%
G04 Gerber Fmt 4.6, Leading zero omitted, Abs format (unit mm)*
G04 Created by KiCad (PCBNEW 5.1.5-52549c5~84~ubuntu18.04.1) date 2020-01-09 20:53:28*
%MOMM*%
%LPD*%
G04 APERTURE LIST*
%ADD10R,1.500000X1.050000*%
%ADD11O,1.500000X1.050000*%
%ADD12C,0.100000*%
%ADD13C,6.000000*%
%ADD14R,1.524000X1.524000*%
G04 APERTURE END LIST*
D10*
X156845000Y-100330000D03*
D11*
X156845000Y-102870000D03*
X156845000Y-101600000D03*
D12*
G36*
X152874505Y-102931204D02*
G01*
X152898773Y-102934804D01*
X152922572Y-102940765D01*
X152945671Y-102949030D01*
X152967850Y-102959520D01*
X152988893Y-102972132D01*
X153008599Y-102986747D01*
X153026777Y-103003223D01*
X153043253Y-103021401D01*
X153057868Y-103041107D01*
X153070480Y-103062150D01*
X153080970Y-103084329D01*
X153089235Y-103107428D01*
X153095196Y-103131227D01*
X153098796Y-103155495D01*
X153100000Y-103179999D01*
X153100000Y-103830001D01*
X153098796Y-103854505D01*
X153095196Y-103878773D01*
X153089235Y-103902572D01*
X153080970Y-103925671D01*
X153070480Y-103947850D01*
X153057868Y-103968893D01*
X153043253Y-103988599D01*
X153026777Y-104006777D01*
X153008599Y-104023253D01*
X152988893Y-104037868D01*
X152967850Y-104050480D01*
X152945671Y-104060970D01*
X152922572Y-104069235D01*
X152898773Y-104075196D01*
X152874505Y-104078796D01*
X152850001Y-104080000D01*
X151949999Y-104080000D01*
X151925495Y-104078796D01*
X151901227Y-104075196D01*
X151877428Y-104069235D01*
X151854329Y-104060970D01*
X151832150Y-104050480D01*
X151811107Y-104037868D01*
X151791401Y-104023253D01*
X151773223Y-104006777D01*
X151756747Y-103988599D01*
X151742132Y-103968893D01*
X151729520Y-103947850D01*
X151719030Y-103925671D01*
X151710765Y-103902572D01*
X151704804Y-103878773D01*
X151701204Y-103854505D01*
X151700000Y-103830001D01*
X151700000Y-103179999D01*
X151701204Y-103155495D01*
X151704804Y-103131227D01*
X151710765Y-103107428D01*
X151719030Y-103084329D01*
X151729520Y-103062150D01*
X151742132Y-103041107D01*
X151756747Y-103021401D01*
X151773223Y-103003223D01*
X151791401Y-102986747D01*
X151811107Y-102972132D01*
X151832150Y-102959520D01*
X151854329Y-102949030D01*
X151877428Y-102940765D01*
X151901227Y-102934804D01*
X151925495Y-102931204D01*
X151949999Y-102930000D01*
X152850001Y-102930000D01*
X152874505Y-102931204D01*
G37*
G36*
X152874505Y-100881204D02*
G01*
X152898773Y-100884804D01*
X152922572Y-100890765D01*
X152945671Y-100899030D01*
X152967850Y-100909520D01*
X152988893Y-100922132D01*
X153008599Y-100936747D01*
X153026777Y-100953223D01*
X153043253Y-100971401D01*
X153057868Y-100991107D01*
X153070480Y-101012150D01*
X153080970Y-101034329D01*
X153089235Y-101057428D01*
X153095196Y-101081227D01*
X153098796Y-101105495D01*
X153100000Y-101129999D01*
X153100000Y-101780001D01*
X153098796Y-101804505D01*
X153095196Y-101828773D01*
X153089235Y-101852572D01*
X153080970Y-101875671D01*
X153070480Y-101897850D01*
X153057868Y-101918893D01*
X153043253Y-101938599D01*
X153026777Y-101956777D01*
X153008599Y-101973253D01*
X152988893Y-101987868D01*
X152967850Y-102000480D01*
X152945671Y-102010970D01*
X152922572Y-102019235D01*
X152898773Y-102025196D01*
X152874505Y-102028796D01*
X152850001Y-102030000D01*
X151949999Y-102030000D01*
X151925495Y-102028796D01*
X151901227Y-102025196D01*
X151877428Y-102019235D01*
X151854329Y-102010970D01*
X151832150Y-102000480D01*
X151811107Y-101987868D01*
X151791401Y-101973253D01*
X151773223Y-101956777D01*
X151756747Y-101938599D01*
X151742132Y-101918893D01*
X151729520Y-101897850D01*
X151719030Y-101875671D01*
X151710765Y-101852572D01*
X151704804Y-101828773D01*
X151701204Y-101804505D01*
X151700000Y-101780001D01*
X151700000Y-101129999D01*
X151701204Y-101105495D01*
X151704804Y-101081227D01*
X151710765Y-101057428D01*
X151719030Y-101034329D01*
X151729520Y-101012150D01*
X151742132Y-100991107D01*
X151756747Y-100971401D01*
X151773223Y-100953223D01*
X151791401Y-100936747D01*
X151811107Y-100922132D01*
X151832150Y-100909520D01*
X151854329Y-100899030D01*
X151877428Y-100890765D01*
X151901227Y-100884804D01*
X151925495Y-100881204D01*
X151949999Y-100880000D01*
X152850001Y-100880000D01*
X152874505Y-100881204D01*
G37*
D13*
X132080000Y-101600000D03*
X172720000Y-101600000D03*
D14*
X148590000Y-98425000D03*
X148590000Y-100965000D03*
X146050000Y-98425000D03*
X146050000Y-100965000D03*
X143510000Y-98425000D03*
X143510000Y-100965000D03*
X140970000Y-98425000D03*
X140970000Y-100965000D03*
X138430000Y-98425000D03*
X138430000Y-100965000D03*
M02*
