G04 #@! TF.GenerationSoftware,KiCad,Pcbnew,5.1.5-52549c5~84~ubuntu18.04.1*
G04 #@! TF.CreationDate,2020-01-10T14:34:25+01:00*
G04 #@! TF.ProjectId,DSB_R1,4453425f-5231-42e6-9b69-6361645f7063,rev?*
G04 #@! TF.SameCoordinates,Original*
G04 #@! TF.FileFunction,Legend,Bot*
G04 #@! TF.FilePolarity,Positive*
%FSLAX46Y46*%
G04 Gerber Fmt 4.6, Leading zero omitted, Abs format (unit mm)*
G04 Created by KiCad (PCBNEW 5.1.5-52549c5~84~ubuntu18.04.1) date 2020-01-10 14:34:25*
%MOMM*%
%LPD*%
G04 APERTURE LIST*
%ADD10C,0.010000*%
%ADD11C,0.120000*%
%ADD12C,0.150000*%
G04 APERTURE END LIST*
D10*
G36*
X167263097Y-104609267D02*
G01*
X166585267Y-104609267D01*
X166585267Y-105287097D01*
X167263097Y-105287097D01*
X167263097Y-104609267D01*
G37*
X167263097Y-104609267D02*
X166585267Y-104609267D01*
X166585267Y-105287097D01*
X167263097Y-105287097D01*
X167263097Y-104609267D01*
G36*
X160566733Y-104609267D02*
G01*
X159888903Y-104609267D01*
X159888903Y-105287097D01*
X160566733Y-105287097D01*
X160566733Y-104609267D01*
G37*
X160566733Y-104609267D02*
X159888903Y-104609267D01*
X159888903Y-105287097D01*
X160566733Y-105287097D01*
X160566733Y-104609267D01*
G36*
X166369255Y-98806745D02*
G01*
X166138346Y-98806745D01*
X166138346Y-99037654D01*
X166369255Y-99037654D01*
X166369255Y-98806745D01*
G37*
X166369255Y-98806745D02*
X166138346Y-98806745D01*
X166138346Y-99037654D01*
X166369255Y-99037654D01*
X166369255Y-98806745D01*
G36*
X160566733Y-97912903D02*
G01*
X159888903Y-97912903D01*
X159888903Y-98590733D01*
X160566733Y-98590733D01*
X160566733Y-97912903D01*
G37*
X160566733Y-97912903D02*
X159888903Y-97912903D01*
X159888903Y-98590733D01*
X160566733Y-98590733D01*
X160566733Y-97912903D01*
G36*
X163024798Y-105503108D02*
G01*
X162793889Y-105503108D01*
X162793889Y-105734018D01*
X163024798Y-105734018D01*
X163024798Y-105503108D01*
G37*
X163024798Y-105503108D02*
X162793889Y-105503108D01*
X162793889Y-105734018D01*
X163024798Y-105734018D01*
X163024798Y-105503108D01*
G36*
X165922334Y-105056188D02*
G01*
X165467965Y-105056188D01*
X165467965Y-105287097D01*
X165922334Y-105287097D01*
X165922334Y-105056188D01*
G37*
X165922334Y-105056188D02*
X165467965Y-105056188D01*
X165467965Y-105287097D01*
X165922334Y-105287097D01*
X165922334Y-105056188D01*
G36*
X167710018Y-104162346D02*
G01*
X166138346Y-104162346D01*
X166138346Y-105503108D01*
X166369255Y-105503108D01*
X166369255Y-104393255D01*
X167479109Y-104393255D01*
X167479109Y-105503108D01*
X166369255Y-105503108D01*
X166138346Y-105503108D01*
X166138346Y-105734018D01*
X167710018Y-105734018D01*
X167710018Y-104162346D01*
G37*
X167710018Y-104162346D02*
X166138346Y-104162346D01*
X166138346Y-105503108D01*
X166369255Y-105503108D01*
X166369255Y-104393255D01*
X167479109Y-104393255D01*
X167479109Y-105503108D01*
X166369255Y-105503108D01*
X166138346Y-105503108D01*
X166138346Y-105734018D01*
X167710018Y-105734018D01*
X167710018Y-104162346D01*
G36*
X161013654Y-104162346D02*
G01*
X159441982Y-104162346D01*
X159441982Y-105503108D01*
X159672892Y-105503108D01*
X159672892Y-104393255D01*
X160782745Y-104393255D01*
X160782745Y-105503108D01*
X159672892Y-105503108D01*
X159441982Y-105503108D01*
X159441982Y-105734018D01*
X161013654Y-105734018D01*
X161013654Y-104162346D01*
G37*
X161013654Y-104162346D02*
X159441982Y-104162346D01*
X159441982Y-105503108D01*
X159672892Y-105503108D01*
X159672892Y-104393255D01*
X160782745Y-104393255D01*
X160782745Y-105503108D01*
X159672892Y-105503108D01*
X159441982Y-105503108D01*
X159441982Y-105734018D01*
X161013654Y-105734018D01*
X161013654Y-104162346D01*
G36*
X159896352Y-102151202D02*
G01*
X159665443Y-102151202D01*
X159665443Y-102382111D01*
X159896352Y-102382111D01*
X159896352Y-102151202D01*
G37*
X159896352Y-102151202D02*
X159665443Y-102151202D01*
X159665443Y-102382111D01*
X159896352Y-102382111D01*
X159896352Y-102151202D01*
G36*
X167710018Y-101488270D02*
G01*
X167479109Y-101488270D01*
X167479109Y-101935191D01*
X167710018Y-101935191D01*
X167710018Y-101488270D01*
G37*
X167710018Y-101488270D02*
X167479109Y-101488270D01*
X167479109Y-101935191D01*
X167710018Y-101935191D01*
X167710018Y-101488270D01*
G36*
X160566733Y-101264809D02*
G01*
X160335824Y-101264809D01*
X160335824Y-101495718D01*
X160566733Y-101495718D01*
X160566733Y-101264809D01*
G37*
X160566733Y-101264809D02*
X160335824Y-101264809D01*
X160335824Y-101495718D01*
X160566733Y-101495718D01*
X160566733Y-101264809D01*
G36*
X160119812Y-101488270D02*
G01*
X159896352Y-101488270D01*
X159896352Y-101272258D01*
X160119812Y-101272258D01*
X160119812Y-101048798D01*
X160566733Y-101048798D01*
X160566733Y-100817889D01*
X159665443Y-100817889D01*
X159665443Y-101495718D01*
X159888903Y-101495718D01*
X159888903Y-101704281D01*
X159665443Y-101704281D01*
X159665443Y-101935191D01*
X160119812Y-101935191D01*
X160119812Y-101488270D01*
G37*
X160119812Y-101488270D02*
X159896352Y-101488270D01*
X159896352Y-101272258D01*
X160119812Y-101272258D01*
X160119812Y-101048798D01*
X160566733Y-101048798D01*
X160566733Y-100817889D01*
X159665443Y-100817889D01*
X159665443Y-101495718D01*
X159888903Y-101495718D01*
X159888903Y-101704281D01*
X159665443Y-101704281D01*
X159665443Y-101935191D01*
X160119812Y-101935191D01*
X160119812Y-101488270D01*
G36*
X161013654Y-100594428D02*
G01*
X160782745Y-100594428D01*
X160782745Y-100825337D01*
X161013654Y-100825337D01*
X161013654Y-100594428D01*
G37*
X161013654Y-100594428D02*
X160782745Y-100594428D01*
X160782745Y-100825337D01*
X161013654Y-100825337D01*
X161013654Y-100594428D01*
G36*
X167710018Y-97465982D02*
G01*
X167479109Y-97465982D01*
X167479109Y-97696891D01*
X167710018Y-97696891D01*
X167710018Y-97465982D01*
G37*
X167710018Y-97465982D02*
X167479109Y-97465982D01*
X167479109Y-97696891D01*
X167710018Y-97696891D01*
X167710018Y-97465982D01*
G36*
X162354416Y-105510557D02*
G01*
X162577877Y-105510557D01*
X162577877Y-105063636D01*
X162793889Y-105063636D01*
X162793889Y-105287097D01*
X163024798Y-105287097D01*
X163024798Y-105063636D01*
X163471719Y-105063636D01*
X163471719Y-104840176D01*
X163680282Y-104840176D01*
X163680282Y-105063636D01*
X164127202Y-105063636D01*
X164127202Y-105279648D01*
X163903742Y-105279648D01*
X163903742Y-105503108D01*
X163680282Y-105503108D01*
X163680282Y-105734018D01*
X163911191Y-105734018D01*
X163911191Y-105510557D01*
X164134651Y-105510557D01*
X164134651Y-105287097D01*
X164574123Y-105287097D01*
X164574123Y-105503108D01*
X164350663Y-105503108D01*
X164350663Y-105734018D01*
X164805032Y-105734018D01*
X164805032Y-105279648D01*
X164581572Y-105279648D01*
X164581572Y-105063636D01*
X165021044Y-105063636D01*
X165021044Y-105734018D01*
X165475414Y-105734018D01*
X165475414Y-105503108D01*
X165251953Y-105503108D01*
X165251953Y-104840176D01*
X165475414Y-104840176D01*
X165475414Y-104169795D01*
X165691425Y-104169795D01*
X165691425Y-104840176D01*
X165922334Y-104840176D01*
X165922334Y-103499413D01*
X166138346Y-103499413D01*
X166138346Y-103946334D01*
X166592716Y-103946334D01*
X166592716Y-103268504D01*
X165922334Y-103268504D01*
X165922334Y-103045044D01*
X165691425Y-103045044D01*
X165691425Y-103268504D01*
X165475414Y-103268504D01*
X165475414Y-103045044D01*
X165244504Y-103045044D01*
X165244504Y-103275953D01*
X165467965Y-103275953D01*
X165467965Y-103491965D01*
X165698874Y-103491965D01*
X165698874Y-103275953D01*
X165914886Y-103275953D01*
X165914886Y-103491965D01*
X165698874Y-103491965D01*
X165467965Y-103491965D01*
X165467965Y-103499413D01*
X165691425Y-103499413D01*
X165691425Y-103938886D01*
X165251953Y-103938886D01*
X165251953Y-103491965D01*
X164805032Y-103491965D01*
X164805032Y-103275953D01*
X165028493Y-103275953D01*
X165028493Y-102605572D01*
X165251953Y-102605572D01*
X165251953Y-102382111D01*
X165467965Y-102382111D01*
X165467965Y-102829032D01*
X166138346Y-102829032D01*
X166138346Y-103052493D01*
X166592716Y-103052493D01*
X166592716Y-102605572D01*
X167032188Y-102605572D01*
X167032188Y-102821584D01*
X166808727Y-102821584D01*
X166808727Y-103268504D01*
X167039636Y-103268504D01*
X167039636Y-102829032D01*
X167255648Y-102829032D01*
X167255648Y-103268504D01*
X167039636Y-103268504D01*
X166808727Y-103268504D01*
X166808727Y-103499413D01*
X167032188Y-103499413D01*
X167032188Y-103715425D01*
X166808727Y-103715425D01*
X166808727Y-103946334D01*
X167039636Y-103946334D01*
X167039636Y-103722874D01*
X167263097Y-103722874D01*
X167263097Y-103275953D01*
X167479109Y-103275953D01*
X167479109Y-103722874D01*
X167710018Y-103722874D01*
X167710018Y-103268504D01*
X167486557Y-103268504D01*
X167486557Y-103052493D01*
X167710018Y-103052493D01*
X167710018Y-102151202D01*
X167479109Y-102151202D01*
X167479109Y-102821584D01*
X167263097Y-102821584D01*
X167263097Y-102374663D01*
X167039636Y-102374663D01*
X167039636Y-102151202D01*
X166808727Y-102151202D01*
X166808727Y-102374663D01*
X166585267Y-102374663D01*
X166585267Y-102598123D01*
X165922334Y-102598123D01*
X165922334Y-102382111D01*
X166369255Y-102382111D01*
X166369255Y-102158651D01*
X166592716Y-102158651D01*
X166592716Y-101927742D01*
X166138346Y-101927742D01*
X166138346Y-102151202D01*
X165914886Y-102151202D01*
X165914886Y-102374663D01*
X165698874Y-102374663D01*
X165698874Y-101935191D01*
X165922334Y-101935191D01*
X165922334Y-101711730D01*
X166145795Y-101711730D01*
X166145795Y-101495718D01*
X166585267Y-101495718D01*
X166585267Y-101711730D01*
X166816176Y-101711730D01*
X166816176Y-101495718D01*
X167039636Y-101495718D01*
X167039636Y-101048798D01*
X167255648Y-101048798D01*
X167255648Y-101272258D01*
X167486557Y-101272258D01*
X167486557Y-101048798D01*
X167710018Y-101048798D01*
X167710018Y-99700586D01*
X167479109Y-99700586D01*
X167479109Y-100147507D01*
X166808727Y-100147507D01*
X166808727Y-100594428D01*
X167039636Y-100594428D01*
X167039636Y-100378416D01*
X167255648Y-100378416D01*
X167255648Y-100594428D01*
X167039636Y-100594428D01*
X166808727Y-100594428D01*
X166592716Y-100594428D01*
X166592716Y-99931496D01*
X166816176Y-99931496D01*
X166816176Y-99708035D01*
X167032188Y-99708035D01*
X167032188Y-99931496D01*
X167263097Y-99931496D01*
X167263097Y-99700586D01*
X167039636Y-99700586D01*
X167039636Y-99037654D01*
X167479109Y-99037654D01*
X167479109Y-99484575D01*
X167710018Y-99484575D01*
X167710018Y-97912903D01*
X167255648Y-97912903D01*
X167255648Y-98136364D01*
X166816176Y-98136364D01*
X166816176Y-97920352D01*
X167039636Y-97920352D01*
X167039636Y-97465982D01*
X166808727Y-97465982D01*
X166808727Y-97912903D01*
X166592716Y-97912903D01*
X166592716Y-97689443D01*
X166369255Y-97689443D01*
X166369255Y-97465982D01*
X166138346Y-97465982D01*
X166138346Y-97689443D01*
X165922334Y-97689443D01*
X165922334Y-97465982D01*
X165691425Y-97465982D01*
X165691425Y-97689443D01*
X165244504Y-97689443D01*
X165244504Y-98136364D01*
X165475414Y-98136364D01*
X165475414Y-97920352D01*
X165691425Y-97920352D01*
X165691425Y-98136364D01*
X165475414Y-98136364D01*
X165244504Y-98136364D01*
X165244504Y-98143812D01*
X165467965Y-98143812D01*
X165467965Y-98359824D01*
X165698874Y-98359824D01*
X165698874Y-98143812D01*
X165922334Y-98143812D01*
X165922334Y-97920352D01*
X166145795Y-97920352D01*
X166145795Y-97696891D01*
X166361807Y-97696891D01*
X166361807Y-97920352D01*
X166585267Y-97920352D01*
X166585267Y-98359824D01*
X165698874Y-98359824D01*
X165467965Y-98359824D01*
X165467965Y-98583284D01*
X166816176Y-98583284D01*
X166816176Y-98367273D01*
X167255648Y-98367273D01*
X167255648Y-98590733D01*
X167479109Y-98590733D01*
X167479109Y-98806745D01*
X167039636Y-98806745D01*
X167039636Y-98583284D01*
X166816176Y-98583284D01*
X165467965Y-98583284D01*
X165467965Y-98806745D01*
X165244504Y-98806745D01*
X165244504Y-99030205D01*
X165475414Y-99030205D01*
X165475414Y-98814193D01*
X165691425Y-98814193D01*
X165691425Y-99030205D01*
X165475414Y-99030205D01*
X165244504Y-99030205D01*
X165244504Y-99037654D01*
X165467965Y-99037654D01*
X165467965Y-99253666D01*
X165922334Y-99253666D01*
X165922334Y-98590733D01*
X166585267Y-98590733D01*
X166585267Y-99253666D01*
X165922334Y-99253666D01*
X165467965Y-99253666D01*
X165467965Y-99477126D01*
X165244504Y-99477126D01*
X165244504Y-99700586D01*
X165698874Y-99700586D01*
X165698874Y-99484575D01*
X165914886Y-99484575D01*
X165914886Y-99700586D01*
X165698874Y-99700586D01*
X165244504Y-99700586D01*
X165244504Y-99708035D01*
X165467965Y-99708035D01*
X165467965Y-99924047D01*
X166369255Y-99924047D01*
X166369255Y-99708035D01*
X166585267Y-99708035D01*
X166585267Y-99924047D01*
X166369255Y-99924047D01*
X165467965Y-99924047D01*
X165467965Y-100147507D01*
X165698874Y-100147507D01*
X165698874Y-99931496D01*
X165914886Y-99931496D01*
X165914886Y-100147507D01*
X165698874Y-100147507D01*
X165467965Y-100147507D01*
X165244504Y-100147507D01*
X165244504Y-100370968D01*
X165475414Y-100370968D01*
X165475414Y-100154956D01*
X165691425Y-100154956D01*
X165691425Y-100370968D01*
X165922334Y-100370968D01*
X165922334Y-100154956D01*
X166138346Y-100154956D01*
X166138346Y-100370968D01*
X165922334Y-100370968D01*
X165691425Y-100370968D01*
X165475414Y-100370968D01*
X165244504Y-100370968D01*
X165244504Y-100594428D01*
X165698874Y-100594428D01*
X165698874Y-100378416D01*
X165914886Y-100378416D01*
X165914886Y-100594428D01*
X166145795Y-100594428D01*
X166145795Y-100378416D01*
X166361807Y-100378416D01*
X166361807Y-100594428D01*
X166145795Y-100594428D01*
X165914886Y-100594428D01*
X165698874Y-100594428D01*
X165244504Y-100594428D01*
X165028493Y-100594428D01*
X165028493Y-99924047D01*
X164805032Y-99924047D01*
X164805032Y-99700586D01*
X164574123Y-99700586D01*
X164574123Y-99924047D01*
X164358111Y-99924047D01*
X164358111Y-99700586D01*
X164127202Y-99700586D01*
X164127202Y-99931496D01*
X164350663Y-99931496D01*
X164350663Y-100154956D01*
X164797584Y-100154956D01*
X164797584Y-100594428D01*
X164574123Y-100594428D01*
X164574123Y-101264809D01*
X164350663Y-101264809D01*
X164350663Y-101488270D01*
X164134651Y-101488270D01*
X164134651Y-101264809D01*
X163911191Y-101264809D01*
X163911191Y-101048798D01*
X164358111Y-101048798D01*
X164358111Y-100817889D01*
X164134651Y-100817889D01*
X164134651Y-100594428D01*
X163911191Y-100594428D01*
X163911191Y-100378416D01*
X164134651Y-100378416D01*
X164134651Y-100147507D01*
X163911191Y-100147507D01*
X163911191Y-99261114D01*
X164350663Y-99261114D01*
X164350663Y-99484575D01*
X164581572Y-99484575D01*
X164581572Y-99261114D01*
X165028493Y-99261114D01*
X165028493Y-99030205D01*
X164805032Y-99030205D01*
X164805032Y-98806745D01*
X164574123Y-98806745D01*
X164574123Y-99253666D01*
X164358111Y-99253666D01*
X164358111Y-99030205D01*
X163903742Y-99030205D01*
X163903742Y-99253666D01*
X163687730Y-99253666D01*
X163687730Y-99030205D01*
X163240809Y-99030205D01*
X163240809Y-99477126D01*
X163017349Y-99477126D01*
X163017349Y-99700586D01*
X163248258Y-99700586D01*
X163248258Y-99484575D01*
X163464270Y-99484575D01*
X163464270Y-99700586D01*
X163248258Y-99700586D01*
X163017349Y-99700586D01*
X162801337Y-99700586D01*
X162801337Y-99253666D01*
X162346968Y-99253666D01*
X162346968Y-99708035D01*
X162793889Y-99708035D01*
X162793889Y-99924047D01*
X163471719Y-99924047D01*
X163471719Y-99708035D01*
X163680282Y-99708035D01*
X163680282Y-99924047D01*
X163471719Y-99924047D01*
X162793889Y-99924047D01*
X162570428Y-99924047D01*
X162570428Y-100147507D01*
X163024798Y-100147507D01*
X163024798Y-99931496D01*
X163464270Y-99931496D01*
X163464270Y-100154956D01*
X163680282Y-100154956D01*
X163680282Y-100594428D01*
X163248258Y-100594428D01*
X163248258Y-100147507D01*
X163024798Y-100147507D01*
X162570428Y-100147507D01*
X162354416Y-100147507D01*
X162354416Y-99924047D01*
X162130956Y-99924047D01*
X162130956Y-99477126D01*
X161900047Y-99477126D01*
X161900047Y-99924047D01*
X161460575Y-99924047D01*
X161460575Y-99484575D01*
X161684035Y-99484575D01*
X161684035Y-99253666D01*
X161460575Y-99253666D01*
X161460575Y-99030205D01*
X161229666Y-99030205D01*
X161229666Y-99253666D01*
X160559285Y-99253666D01*
X160559285Y-99477126D01*
X160343273Y-99477126D01*
X160343273Y-99253666D01*
X160112364Y-99253666D01*
X160112364Y-99484575D01*
X160335824Y-99484575D01*
X160335824Y-99700586D01*
X160566733Y-99700586D01*
X160566733Y-99484575D01*
X161229666Y-99484575D01*
X161229666Y-99700586D01*
X160566733Y-99700586D01*
X160335824Y-99700586D01*
X159896352Y-99700586D01*
X159896352Y-99253666D01*
X159665443Y-99253666D01*
X159665443Y-99708035D01*
X159888903Y-99708035D01*
X159888903Y-100147507D01*
X159665443Y-100147507D01*
X159665443Y-100601877D01*
X159896352Y-100601877D01*
X159896352Y-100378416D01*
X160335824Y-100378416D01*
X160335824Y-100601877D01*
X160566733Y-100601877D01*
X160566733Y-100147507D01*
X160343273Y-100147507D01*
X160343273Y-99931496D01*
X161006205Y-99931496D01*
X161006205Y-100147507D01*
X161237114Y-100147507D01*
X161237114Y-99931496D01*
X161453126Y-99931496D01*
X161453126Y-100147507D01*
X161237114Y-100147507D01*
X161006205Y-100147507D01*
X160782745Y-100147507D01*
X160782745Y-100370968D01*
X161460575Y-100370968D01*
X161460575Y-100154956D01*
X161676587Y-100154956D01*
X161676587Y-100370968D01*
X161460575Y-100370968D01*
X160782745Y-100370968D01*
X160782745Y-100378416D01*
X161229666Y-100378416D01*
X161229666Y-101041349D01*
X161460575Y-101041349D01*
X161460575Y-100825337D01*
X161907496Y-100825337D01*
X161907496Y-100378416D01*
X162570428Y-100378416D01*
X162570428Y-100601877D01*
X163017349Y-100601877D01*
X163017349Y-100817889D01*
X162354416Y-100817889D01*
X162354416Y-100594428D01*
X162123507Y-100594428D01*
X162123507Y-100825337D01*
X162346968Y-100825337D01*
X162346968Y-101041349D01*
X163471719Y-101041349D01*
X163471719Y-100825337D01*
X163903742Y-100825337D01*
X163903742Y-101041349D01*
X163471719Y-101041349D01*
X162346968Y-101041349D01*
X162123507Y-101041349D01*
X162123507Y-101264809D01*
X161907496Y-101264809D01*
X161907496Y-101041349D01*
X161460575Y-101041349D01*
X161229666Y-101041349D01*
X161229666Y-101264809D01*
X161013654Y-101264809D01*
X161013654Y-101041349D01*
X160782745Y-101041349D01*
X160782745Y-101272258D01*
X161006205Y-101272258D01*
X161006205Y-101488270D01*
X160782745Y-101488270D01*
X160782745Y-101704281D01*
X161237114Y-101704281D01*
X161237114Y-101272258D01*
X161900047Y-101272258D01*
X161900047Y-101488270D01*
X162130956Y-101488270D01*
X162130956Y-101272258D01*
X162354416Y-101272258D01*
X162354416Y-101048798D01*
X162570428Y-101048798D01*
X162570428Y-101272258D01*
X163024798Y-101272258D01*
X163024798Y-101048798D01*
X163240809Y-101048798D01*
X163240809Y-101711730D01*
X163687730Y-101711730D01*
X163687730Y-101488270D01*
X163471719Y-101488270D01*
X163471719Y-101272258D01*
X163903344Y-101272258D01*
X163907466Y-101491994D01*
X164017334Y-101494055D01*
X164127202Y-101496117D01*
X164127202Y-101704281D01*
X164358111Y-101704281D01*
X164358111Y-101495718D01*
X164574123Y-101495718D01*
X164574123Y-101704281D01*
X164358111Y-101704281D01*
X164127202Y-101704281D01*
X164127202Y-101711730D01*
X164350663Y-101711730D01*
X164350663Y-101927742D01*
X164581572Y-101927742D01*
X164581572Y-101711730D01*
X164805032Y-101711730D01*
X164805032Y-101488270D01*
X164581572Y-101488270D01*
X164581572Y-101272258D01*
X165028493Y-101272258D01*
X165028493Y-101048798D01*
X165251953Y-101048798D01*
X165251953Y-100601877D01*
X165467965Y-100601877D01*
X165467965Y-101041349D01*
X165698874Y-101041349D01*
X165698874Y-100825337D01*
X165922334Y-100825337D01*
X165922334Y-100601877D01*
X166138346Y-100601877D01*
X166138346Y-101264809D01*
X166369255Y-101264809D01*
X166369255Y-101048798D01*
X166592716Y-101048798D01*
X166592716Y-100825337D01*
X166808727Y-100825337D01*
X166808727Y-101041349D01*
X167263097Y-101041349D01*
X167263097Y-100601877D01*
X167479109Y-100601877D01*
X167479109Y-101041349D01*
X167263097Y-101041349D01*
X166808727Y-101041349D01*
X166808727Y-101264809D01*
X166369255Y-101264809D01*
X166138346Y-101264809D01*
X165922334Y-101264809D01*
X165922334Y-101041349D01*
X165698874Y-101041349D01*
X165467965Y-101041349D01*
X165467965Y-101048798D01*
X165691425Y-101048798D01*
X165691425Y-101272258D01*
X165914886Y-101272258D01*
X165914886Y-101488270D01*
X165475414Y-101488270D01*
X165475414Y-101264809D01*
X165244504Y-101264809D01*
X165244504Y-101495718D01*
X165467965Y-101495718D01*
X165467965Y-101704281D01*
X165021044Y-101704281D01*
X165021044Y-101927742D01*
X164581572Y-101927742D01*
X164350663Y-101927742D01*
X164127202Y-101927742D01*
X164127202Y-102158651D01*
X164350663Y-102158651D01*
X164350663Y-102374663D01*
X164581572Y-102374663D01*
X164581572Y-102158651D01*
X164797584Y-102158651D01*
X164797584Y-102374663D01*
X165028493Y-102374663D01*
X165028493Y-101935191D01*
X165467965Y-101935191D01*
X165467965Y-102151202D01*
X165244504Y-102151202D01*
X165244504Y-102374663D01*
X165028493Y-102374663D01*
X164797584Y-102374663D01*
X164581572Y-102374663D01*
X164350663Y-102374663D01*
X163911191Y-102374663D01*
X163911191Y-101927742D01*
X163017349Y-101927742D01*
X163017349Y-102374663D01*
X162801337Y-102374663D01*
X162801337Y-101488270D01*
X162570428Y-101488270D01*
X162570428Y-101704281D01*
X162354416Y-101704281D01*
X162354416Y-101488270D01*
X162130956Y-101488270D01*
X161900047Y-101488270D01*
X161900047Y-101711730D01*
X162123507Y-101711730D01*
X162123507Y-101927742D01*
X161460575Y-101927742D01*
X161460575Y-101704281D01*
X161237114Y-101704281D01*
X160782745Y-101704281D01*
X160335824Y-101704281D01*
X160335824Y-101927742D01*
X160790194Y-101927742D01*
X160790194Y-101711730D01*
X161229666Y-101711730D01*
X161229666Y-101927742D01*
X160790194Y-101927742D01*
X160335824Y-101927742D01*
X160335824Y-102151202D01*
X160112364Y-102151202D01*
X160112364Y-102598123D01*
X159665443Y-102598123D01*
X159665443Y-102829032D01*
X160119812Y-102829032D01*
X160119812Y-102605572D01*
X160343273Y-102605572D01*
X160343273Y-102158651D01*
X160559285Y-102158651D01*
X160559285Y-102821584D01*
X160790194Y-102821584D01*
X160790194Y-102605572D01*
X161013654Y-102605572D01*
X161013654Y-102374663D01*
X160790194Y-102374663D01*
X160790194Y-102158651D01*
X161453126Y-102158651D01*
X161453126Y-102374663D01*
X161684035Y-102374663D01*
X161684035Y-102158651D01*
X162130956Y-102158651D01*
X162130956Y-101935191D01*
X162346968Y-101935191D01*
X162346968Y-102158651D01*
X162570428Y-102158651D01*
X162570428Y-102374663D01*
X162346968Y-102374663D01*
X162346968Y-102598123D01*
X162130956Y-102598123D01*
X162130956Y-102374663D01*
X161684035Y-102374663D01*
X161453126Y-102374663D01*
X161453126Y-102382111D01*
X161676587Y-102382111D01*
X161676587Y-102598123D01*
X161229666Y-102598123D01*
X161229666Y-103045044D01*
X161460575Y-103045044D01*
X161460575Y-102829032D01*
X161676587Y-102829032D01*
X161676587Y-103045044D01*
X161460575Y-103045044D01*
X161229666Y-103045044D01*
X161013654Y-103045044D01*
X161013654Y-102821584D01*
X160790194Y-102821584D01*
X160559285Y-102821584D01*
X160559285Y-102829032D01*
X160782745Y-102829032D01*
X160782745Y-103052493D01*
X161006205Y-103052493D01*
X161006205Y-103268504D01*
X160343273Y-103268504D01*
X160343273Y-103045044D01*
X159888903Y-103045044D01*
X159888903Y-103275953D01*
X160335824Y-103275953D01*
X160335824Y-103491965D01*
X159888903Y-103491965D01*
X159888903Y-103715425D01*
X159665443Y-103715425D01*
X159665443Y-103946334D01*
X160119812Y-103946334D01*
X160119812Y-103722874D01*
X160782745Y-103722874D01*
X160782745Y-103946334D01*
X161013654Y-103946334D01*
X161013654Y-103715425D01*
X160790194Y-103715425D01*
X160790194Y-103499413D01*
X161013654Y-103499413D01*
X161013654Y-103275953D01*
X161684035Y-103275953D01*
X161684035Y-103052493D01*
X161907496Y-103052493D01*
X161907496Y-102605572D01*
X162123507Y-102605572D01*
X162123507Y-102821584D01*
X162354416Y-102821584D01*
X162354416Y-102605572D01*
X162577877Y-102605572D01*
X162577877Y-102382111D01*
X162793889Y-102382111D01*
X162793889Y-102598123D01*
X163024798Y-102598123D01*
X163024798Y-102382111D01*
X163248258Y-102382111D01*
X163248258Y-102158651D01*
X163680282Y-102158651D01*
X163680282Y-102374663D01*
X163464270Y-102374663D01*
X163464270Y-102598123D01*
X163024798Y-102598123D01*
X162793889Y-102598123D01*
X162793889Y-102605572D01*
X163017349Y-102605572D01*
X163017349Y-102821584D01*
X162793889Y-102821584D01*
X162793889Y-103268504D01*
X163024798Y-103268504D01*
X163024798Y-102829032D01*
X163240809Y-102829032D01*
X163240809Y-103268504D01*
X163471719Y-103268504D01*
X163471719Y-102829032D01*
X163687730Y-102829032D01*
X163687730Y-102382111D01*
X163903742Y-102382111D01*
X163903742Y-102829032D01*
X164134651Y-102829032D01*
X164134651Y-102605572D01*
X164574123Y-102605572D01*
X164574123Y-102829032D01*
X164797584Y-102829032D01*
X164797584Y-103268504D01*
X164581572Y-103268504D01*
X164581572Y-103045044D01*
X164350663Y-103045044D01*
X164350663Y-103268504D01*
X164134651Y-103268504D01*
X164134651Y-103045044D01*
X163680282Y-103045044D01*
X163680282Y-103268504D01*
X163471719Y-103268504D01*
X163240809Y-103268504D01*
X163024798Y-103268504D01*
X162793889Y-103268504D01*
X162577877Y-103268504D01*
X162577877Y-102821584D01*
X162354416Y-102821584D01*
X162123507Y-102821584D01*
X162123507Y-102829032D01*
X162346968Y-102829032D01*
X162346968Y-103045044D01*
X162123507Y-103045044D01*
X162123507Y-103491965D01*
X162801337Y-103491965D01*
X162801337Y-103275953D01*
X163017349Y-103275953D01*
X163017349Y-103491965D01*
X162801337Y-103491965D01*
X162123507Y-103491965D01*
X161900047Y-103491965D01*
X161900047Y-103715425D01*
X162130956Y-103715425D01*
X162130956Y-103499413D01*
X162793889Y-103499413D01*
X162793889Y-103715425D01*
X162570428Y-103715425D01*
X162570428Y-103938886D01*
X162354416Y-103938886D01*
X162354416Y-103715425D01*
X162130956Y-103715425D01*
X161900047Y-103715425D01*
X161900047Y-103946334D01*
X162123507Y-103946334D01*
X162123507Y-104162346D01*
X162577877Y-104162346D01*
X162577877Y-103946334D01*
X162801337Y-103946334D01*
X162801337Y-103722874D01*
X163248258Y-103722874D01*
X163248258Y-103275953D01*
X163464270Y-103275953D01*
X163464270Y-103722874D01*
X163680282Y-103722874D01*
X163680282Y-104162346D01*
X163471719Y-104162346D01*
X163471719Y-103938886D01*
X163017349Y-103938886D01*
X163017349Y-104609267D01*
X163248258Y-104609267D01*
X163248258Y-104169795D01*
X163464270Y-104169795D01*
X163464270Y-104393255D01*
X163687730Y-104393255D01*
X163687730Y-104169795D01*
X163903742Y-104169795D01*
X163903742Y-104393255D01*
X164134651Y-104393255D01*
X164134651Y-104162346D01*
X163911191Y-104162346D01*
X163911191Y-103946334D01*
X164134651Y-103946334D01*
X164134651Y-103715425D01*
X163687730Y-103715425D01*
X163687730Y-103275953D01*
X164127202Y-103275953D01*
X164127202Y-103499413D01*
X164358111Y-103499413D01*
X164358111Y-103275953D01*
X164574123Y-103275953D01*
X164574123Y-103722874D01*
X164797584Y-103722874D01*
X164797584Y-103938886D01*
X164350663Y-103938886D01*
X164350663Y-104609267D01*
X163248258Y-104609267D01*
X163017349Y-104609267D01*
X163017349Y-104832727D01*
X164358111Y-104832727D01*
X164358111Y-104616715D01*
X164581572Y-104616715D01*
X164581572Y-104169795D01*
X164797584Y-104169795D01*
X164797584Y-104609267D01*
X165028493Y-104609267D01*
X165028493Y-103946334D01*
X165244504Y-103946334D01*
X165244504Y-104609267D01*
X165028493Y-104609267D01*
X164797584Y-104609267D01*
X164797584Y-104616715D01*
X165021044Y-104616715D01*
X165021044Y-104832727D01*
X164358111Y-104832727D01*
X163017349Y-104832727D01*
X163017349Y-105056188D01*
X162801337Y-105056188D01*
X162801337Y-104162346D01*
X162577877Y-104162346D01*
X162123507Y-104162346D01*
X162123507Y-104385806D01*
X161907496Y-104385806D01*
X161907496Y-104162346D01*
X161684035Y-104162346D01*
X161684035Y-103491965D01*
X161229666Y-103491965D01*
X161229666Y-103722874D01*
X161453126Y-103722874D01*
X161453126Y-103938886D01*
X161229666Y-103938886D01*
X161229666Y-104385806D01*
X161460575Y-104385806D01*
X161460575Y-104169795D01*
X161676587Y-104169795D01*
X161676587Y-104385806D01*
X161460575Y-104385806D01*
X161229666Y-104385806D01*
X161229666Y-104609267D01*
X162130956Y-104609267D01*
X162130956Y-104393255D01*
X162354416Y-104393255D01*
X162354416Y-104169795D01*
X162570428Y-104169795D01*
X162570428Y-104832727D01*
X162354416Y-104832727D01*
X162354416Y-104609267D01*
X162130956Y-104609267D01*
X161229666Y-104609267D01*
X161229666Y-104616715D01*
X161453126Y-104616715D01*
X161453126Y-104832727D01*
X161684035Y-104832727D01*
X161684035Y-104616715D01*
X162123507Y-104616715D01*
X162123507Y-105056188D01*
X161907496Y-105056188D01*
X161907496Y-104832727D01*
X161684035Y-104832727D01*
X161453126Y-104832727D01*
X161229666Y-104832727D01*
X161229666Y-105063636D01*
X161900047Y-105063636D01*
X161900047Y-105279648D01*
X162130956Y-105279648D01*
X162130956Y-105063636D01*
X162346968Y-105063636D01*
X162346968Y-105279648D01*
X162130956Y-105279648D01*
X161900047Y-105279648D01*
X161900047Y-105734018D01*
X162354416Y-105734018D01*
X162354416Y-105510557D01*
G37*
X162354416Y-105510557D02*
X162577877Y-105510557D01*
X162577877Y-105063636D01*
X162793889Y-105063636D01*
X162793889Y-105287097D01*
X163024798Y-105287097D01*
X163024798Y-105063636D01*
X163471719Y-105063636D01*
X163471719Y-104840176D01*
X163680282Y-104840176D01*
X163680282Y-105063636D01*
X164127202Y-105063636D01*
X164127202Y-105279648D01*
X163903742Y-105279648D01*
X163903742Y-105503108D01*
X163680282Y-105503108D01*
X163680282Y-105734018D01*
X163911191Y-105734018D01*
X163911191Y-105510557D01*
X164134651Y-105510557D01*
X164134651Y-105287097D01*
X164574123Y-105287097D01*
X164574123Y-105503108D01*
X164350663Y-105503108D01*
X164350663Y-105734018D01*
X164805032Y-105734018D01*
X164805032Y-105279648D01*
X164581572Y-105279648D01*
X164581572Y-105063636D01*
X165021044Y-105063636D01*
X165021044Y-105734018D01*
X165475414Y-105734018D01*
X165475414Y-105503108D01*
X165251953Y-105503108D01*
X165251953Y-104840176D01*
X165475414Y-104840176D01*
X165475414Y-104169795D01*
X165691425Y-104169795D01*
X165691425Y-104840176D01*
X165922334Y-104840176D01*
X165922334Y-103499413D01*
X166138346Y-103499413D01*
X166138346Y-103946334D01*
X166592716Y-103946334D01*
X166592716Y-103268504D01*
X165922334Y-103268504D01*
X165922334Y-103045044D01*
X165691425Y-103045044D01*
X165691425Y-103268504D01*
X165475414Y-103268504D01*
X165475414Y-103045044D01*
X165244504Y-103045044D01*
X165244504Y-103275953D01*
X165467965Y-103275953D01*
X165467965Y-103491965D01*
X165698874Y-103491965D01*
X165698874Y-103275953D01*
X165914886Y-103275953D01*
X165914886Y-103491965D01*
X165698874Y-103491965D01*
X165467965Y-103491965D01*
X165467965Y-103499413D01*
X165691425Y-103499413D01*
X165691425Y-103938886D01*
X165251953Y-103938886D01*
X165251953Y-103491965D01*
X164805032Y-103491965D01*
X164805032Y-103275953D01*
X165028493Y-103275953D01*
X165028493Y-102605572D01*
X165251953Y-102605572D01*
X165251953Y-102382111D01*
X165467965Y-102382111D01*
X165467965Y-102829032D01*
X166138346Y-102829032D01*
X166138346Y-103052493D01*
X166592716Y-103052493D01*
X166592716Y-102605572D01*
X167032188Y-102605572D01*
X167032188Y-102821584D01*
X166808727Y-102821584D01*
X166808727Y-103268504D01*
X167039636Y-103268504D01*
X167039636Y-102829032D01*
X167255648Y-102829032D01*
X167255648Y-103268504D01*
X167039636Y-103268504D01*
X166808727Y-103268504D01*
X166808727Y-103499413D01*
X167032188Y-103499413D01*
X167032188Y-103715425D01*
X166808727Y-103715425D01*
X166808727Y-103946334D01*
X167039636Y-103946334D01*
X167039636Y-103722874D01*
X167263097Y-103722874D01*
X167263097Y-103275953D01*
X167479109Y-103275953D01*
X167479109Y-103722874D01*
X167710018Y-103722874D01*
X167710018Y-103268504D01*
X167486557Y-103268504D01*
X167486557Y-103052493D01*
X167710018Y-103052493D01*
X167710018Y-102151202D01*
X167479109Y-102151202D01*
X167479109Y-102821584D01*
X167263097Y-102821584D01*
X167263097Y-102374663D01*
X167039636Y-102374663D01*
X167039636Y-102151202D01*
X166808727Y-102151202D01*
X166808727Y-102374663D01*
X166585267Y-102374663D01*
X166585267Y-102598123D01*
X165922334Y-102598123D01*
X165922334Y-102382111D01*
X166369255Y-102382111D01*
X166369255Y-102158651D01*
X166592716Y-102158651D01*
X166592716Y-101927742D01*
X166138346Y-101927742D01*
X166138346Y-102151202D01*
X165914886Y-102151202D01*
X165914886Y-102374663D01*
X165698874Y-102374663D01*
X165698874Y-101935191D01*
X165922334Y-101935191D01*
X165922334Y-101711730D01*
X166145795Y-101711730D01*
X166145795Y-101495718D01*
X166585267Y-101495718D01*
X166585267Y-101711730D01*
X166816176Y-101711730D01*
X166816176Y-101495718D01*
X167039636Y-101495718D01*
X167039636Y-101048798D01*
X167255648Y-101048798D01*
X167255648Y-101272258D01*
X167486557Y-101272258D01*
X167486557Y-101048798D01*
X167710018Y-101048798D01*
X167710018Y-99700586D01*
X167479109Y-99700586D01*
X167479109Y-100147507D01*
X166808727Y-100147507D01*
X166808727Y-100594428D01*
X167039636Y-100594428D01*
X167039636Y-100378416D01*
X167255648Y-100378416D01*
X167255648Y-100594428D01*
X167039636Y-100594428D01*
X166808727Y-100594428D01*
X166592716Y-100594428D01*
X166592716Y-99931496D01*
X166816176Y-99931496D01*
X166816176Y-99708035D01*
X167032188Y-99708035D01*
X167032188Y-99931496D01*
X167263097Y-99931496D01*
X167263097Y-99700586D01*
X167039636Y-99700586D01*
X167039636Y-99037654D01*
X167479109Y-99037654D01*
X167479109Y-99484575D01*
X167710018Y-99484575D01*
X167710018Y-97912903D01*
X167255648Y-97912903D01*
X167255648Y-98136364D01*
X166816176Y-98136364D01*
X166816176Y-97920352D01*
X167039636Y-97920352D01*
X167039636Y-97465982D01*
X166808727Y-97465982D01*
X166808727Y-97912903D01*
X166592716Y-97912903D01*
X166592716Y-97689443D01*
X166369255Y-97689443D01*
X166369255Y-97465982D01*
X166138346Y-97465982D01*
X166138346Y-97689443D01*
X165922334Y-97689443D01*
X165922334Y-97465982D01*
X165691425Y-97465982D01*
X165691425Y-97689443D01*
X165244504Y-97689443D01*
X165244504Y-98136364D01*
X165475414Y-98136364D01*
X165475414Y-97920352D01*
X165691425Y-97920352D01*
X165691425Y-98136364D01*
X165475414Y-98136364D01*
X165244504Y-98136364D01*
X165244504Y-98143812D01*
X165467965Y-98143812D01*
X165467965Y-98359824D01*
X165698874Y-98359824D01*
X165698874Y-98143812D01*
X165922334Y-98143812D01*
X165922334Y-97920352D01*
X166145795Y-97920352D01*
X166145795Y-97696891D01*
X166361807Y-97696891D01*
X166361807Y-97920352D01*
X166585267Y-97920352D01*
X166585267Y-98359824D01*
X165698874Y-98359824D01*
X165467965Y-98359824D01*
X165467965Y-98583284D01*
X166816176Y-98583284D01*
X166816176Y-98367273D01*
X167255648Y-98367273D01*
X167255648Y-98590733D01*
X167479109Y-98590733D01*
X167479109Y-98806745D01*
X167039636Y-98806745D01*
X167039636Y-98583284D01*
X166816176Y-98583284D01*
X165467965Y-98583284D01*
X165467965Y-98806745D01*
X165244504Y-98806745D01*
X165244504Y-99030205D01*
X165475414Y-99030205D01*
X165475414Y-98814193D01*
X165691425Y-98814193D01*
X165691425Y-99030205D01*
X165475414Y-99030205D01*
X165244504Y-99030205D01*
X165244504Y-99037654D01*
X165467965Y-99037654D01*
X165467965Y-99253666D01*
X165922334Y-99253666D01*
X165922334Y-98590733D01*
X166585267Y-98590733D01*
X166585267Y-99253666D01*
X165922334Y-99253666D01*
X165467965Y-99253666D01*
X165467965Y-99477126D01*
X165244504Y-99477126D01*
X165244504Y-99700586D01*
X165698874Y-99700586D01*
X165698874Y-99484575D01*
X165914886Y-99484575D01*
X165914886Y-99700586D01*
X165698874Y-99700586D01*
X165244504Y-99700586D01*
X165244504Y-99708035D01*
X165467965Y-99708035D01*
X165467965Y-99924047D01*
X166369255Y-99924047D01*
X166369255Y-99708035D01*
X166585267Y-99708035D01*
X166585267Y-99924047D01*
X166369255Y-99924047D01*
X165467965Y-99924047D01*
X165467965Y-100147507D01*
X165698874Y-100147507D01*
X165698874Y-99931496D01*
X165914886Y-99931496D01*
X165914886Y-100147507D01*
X165698874Y-100147507D01*
X165467965Y-100147507D01*
X165244504Y-100147507D01*
X165244504Y-100370968D01*
X165475414Y-100370968D01*
X165475414Y-100154956D01*
X165691425Y-100154956D01*
X165691425Y-100370968D01*
X165922334Y-100370968D01*
X165922334Y-100154956D01*
X166138346Y-100154956D01*
X166138346Y-100370968D01*
X165922334Y-100370968D01*
X165691425Y-100370968D01*
X165475414Y-100370968D01*
X165244504Y-100370968D01*
X165244504Y-100594428D01*
X165698874Y-100594428D01*
X165698874Y-100378416D01*
X165914886Y-100378416D01*
X165914886Y-100594428D01*
X166145795Y-100594428D01*
X166145795Y-100378416D01*
X166361807Y-100378416D01*
X166361807Y-100594428D01*
X166145795Y-100594428D01*
X165914886Y-100594428D01*
X165698874Y-100594428D01*
X165244504Y-100594428D01*
X165028493Y-100594428D01*
X165028493Y-99924047D01*
X164805032Y-99924047D01*
X164805032Y-99700586D01*
X164574123Y-99700586D01*
X164574123Y-99924047D01*
X164358111Y-99924047D01*
X164358111Y-99700586D01*
X164127202Y-99700586D01*
X164127202Y-99931496D01*
X164350663Y-99931496D01*
X164350663Y-100154956D01*
X164797584Y-100154956D01*
X164797584Y-100594428D01*
X164574123Y-100594428D01*
X164574123Y-101264809D01*
X164350663Y-101264809D01*
X164350663Y-101488270D01*
X164134651Y-101488270D01*
X164134651Y-101264809D01*
X163911191Y-101264809D01*
X163911191Y-101048798D01*
X164358111Y-101048798D01*
X164358111Y-100817889D01*
X164134651Y-100817889D01*
X164134651Y-100594428D01*
X163911191Y-100594428D01*
X163911191Y-100378416D01*
X164134651Y-100378416D01*
X164134651Y-100147507D01*
X163911191Y-100147507D01*
X163911191Y-99261114D01*
X164350663Y-99261114D01*
X164350663Y-99484575D01*
X164581572Y-99484575D01*
X164581572Y-99261114D01*
X165028493Y-99261114D01*
X165028493Y-99030205D01*
X164805032Y-99030205D01*
X164805032Y-98806745D01*
X164574123Y-98806745D01*
X164574123Y-99253666D01*
X164358111Y-99253666D01*
X164358111Y-99030205D01*
X163903742Y-99030205D01*
X163903742Y-99253666D01*
X163687730Y-99253666D01*
X163687730Y-99030205D01*
X163240809Y-99030205D01*
X163240809Y-99477126D01*
X163017349Y-99477126D01*
X163017349Y-99700586D01*
X163248258Y-99700586D01*
X163248258Y-99484575D01*
X163464270Y-99484575D01*
X163464270Y-99700586D01*
X163248258Y-99700586D01*
X163017349Y-99700586D01*
X162801337Y-99700586D01*
X162801337Y-99253666D01*
X162346968Y-99253666D01*
X162346968Y-99708035D01*
X162793889Y-99708035D01*
X162793889Y-99924047D01*
X163471719Y-99924047D01*
X163471719Y-99708035D01*
X163680282Y-99708035D01*
X163680282Y-99924047D01*
X163471719Y-99924047D01*
X162793889Y-99924047D01*
X162570428Y-99924047D01*
X162570428Y-100147507D01*
X163024798Y-100147507D01*
X163024798Y-99931496D01*
X163464270Y-99931496D01*
X163464270Y-100154956D01*
X163680282Y-100154956D01*
X163680282Y-100594428D01*
X163248258Y-100594428D01*
X163248258Y-100147507D01*
X163024798Y-100147507D01*
X162570428Y-100147507D01*
X162354416Y-100147507D01*
X162354416Y-99924047D01*
X162130956Y-99924047D01*
X162130956Y-99477126D01*
X161900047Y-99477126D01*
X161900047Y-99924047D01*
X161460575Y-99924047D01*
X161460575Y-99484575D01*
X161684035Y-99484575D01*
X161684035Y-99253666D01*
X161460575Y-99253666D01*
X161460575Y-99030205D01*
X161229666Y-99030205D01*
X161229666Y-99253666D01*
X160559285Y-99253666D01*
X160559285Y-99477126D01*
X160343273Y-99477126D01*
X160343273Y-99253666D01*
X160112364Y-99253666D01*
X160112364Y-99484575D01*
X160335824Y-99484575D01*
X160335824Y-99700586D01*
X160566733Y-99700586D01*
X160566733Y-99484575D01*
X161229666Y-99484575D01*
X161229666Y-99700586D01*
X160566733Y-99700586D01*
X160335824Y-99700586D01*
X159896352Y-99700586D01*
X159896352Y-99253666D01*
X159665443Y-99253666D01*
X159665443Y-99708035D01*
X159888903Y-99708035D01*
X159888903Y-100147507D01*
X159665443Y-100147507D01*
X159665443Y-100601877D01*
X159896352Y-100601877D01*
X159896352Y-100378416D01*
X160335824Y-100378416D01*
X160335824Y-100601877D01*
X160566733Y-100601877D01*
X160566733Y-100147507D01*
X160343273Y-100147507D01*
X160343273Y-99931496D01*
X161006205Y-99931496D01*
X161006205Y-100147507D01*
X161237114Y-100147507D01*
X161237114Y-99931496D01*
X161453126Y-99931496D01*
X161453126Y-100147507D01*
X161237114Y-100147507D01*
X161006205Y-100147507D01*
X160782745Y-100147507D01*
X160782745Y-100370968D01*
X161460575Y-100370968D01*
X161460575Y-100154956D01*
X161676587Y-100154956D01*
X161676587Y-100370968D01*
X161460575Y-100370968D01*
X160782745Y-100370968D01*
X160782745Y-100378416D01*
X161229666Y-100378416D01*
X161229666Y-101041349D01*
X161460575Y-101041349D01*
X161460575Y-100825337D01*
X161907496Y-100825337D01*
X161907496Y-100378416D01*
X162570428Y-100378416D01*
X162570428Y-100601877D01*
X163017349Y-100601877D01*
X163017349Y-100817889D01*
X162354416Y-100817889D01*
X162354416Y-100594428D01*
X162123507Y-100594428D01*
X162123507Y-100825337D01*
X162346968Y-100825337D01*
X162346968Y-101041349D01*
X163471719Y-101041349D01*
X163471719Y-100825337D01*
X163903742Y-100825337D01*
X163903742Y-101041349D01*
X163471719Y-101041349D01*
X162346968Y-101041349D01*
X162123507Y-101041349D01*
X162123507Y-101264809D01*
X161907496Y-101264809D01*
X161907496Y-101041349D01*
X161460575Y-101041349D01*
X161229666Y-101041349D01*
X161229666Y-101264809D01*
X161013654Y-101264809D01*
X161013654Y-101041349D01*
X160782745Y-101041349D01*
X160782745Y-101272258D01*
X161006205Y-101272258D01*
X161006205Y-101488270D01*
X160782745Y-101488270D01*
X160782745Y-101704281D01*
X161237114Y-101704281D01*
X161237114Y-101272258D01*
X161900047Y-101272258D01*
X161900047Y-101488270D01*
X162130956Y-101488270D01*
X162130956Y-101272258D01*
X162354416Y-101272258D01*
X162354416Y-101048798D01*
X162570428Y-101048798D01*
X162570428Y-101272258D01*
X163024798Y-101272258D01*
X163024798Y-101048798D01*
X163240809Y-101048798D01*
X163240809Y-101711730D01*
X163687730Y-101711730D01*
X163687730Y-101488270D01*
X163471719Y-101488270D01*
X163471719Y-101272258D01*
X163903344Y-101272258D01*
X163907466Y-101491994D01*
X164017334Y-101494055D01*
X164127202Y-101496117D01*
X164127202Y-101704281D01*
X164358111Y-101704281D01*
X164358111Y-101495718D01*
X164574123Y-101495718D01*
X164574123Y-101704281D01*
X164358111Y-101704281D01*
X164127202Y-101704281D01*
X164127202Y-101711730D01*
X164350663Y-101711730D01*
X164350663Y-101927742D01*
X164581572Y-101927742D01*
X164581572Y-101711730D01*
X164805032Y-101711730D01*
X164805032Y-101488270D01*
X164581572Y-101488270D01*
X164581572Y-101272258D01*
X165028493Y-101272258D01*
X165028493Y-101048798D01*
X165251953Y-101048798D01*
X165251953Y-100601877D01*
X165467965Y-100601877D01*
X165467965Y-101041349D01*
X165698874Y-101041349D01*
X165698874Y-100825337D01*
X165922334Y-100825337D01*
X165922334Y-100601877D01*
X166138346Y-100601877D01*
X166138346Y-101264809D01*
X166369255Y-101264809D01*
X166369255Y-101048798D01*
X166592716Y-101048798D01*
X166592716Y-100825337D01*
X166808727Y-100825337D01*
X166808727Y-101041349D01*
X167263097Y-101041349D01*
X167263097Y-100601877D01*
X167479109Y-100601877D01*
X167479109Y-101041349D01*
X167263097Y-101041349D01*
X166808727Y-101041349D01*
X166808727Y-101264809D01*
X166369255Y-101264809D01*
X166138346Y-101264809D01*
X165922334Y-101264809D01*
X165922334Y-101041349D01*
X165698874Y-101041349D01*
X165467965Y-101041349D01*
X165467965Y-101048798D01*
X165691425Y-101048798D01*
X165691425Y-101272258D01*
X165914886Y-101272258D01*
X165914886Y-101488270D01*
X165475414Y-101488270D01*
X165475414Y-101264809D01*
X165244504Y-101264809D01*
X165244504Y-101495718D01*
X165467965Y-101495718D01*
X165467965Y-101704281D01*
X165021044Y-101704281D01*
X165021044Y-101927742D01*
X164581572Y-101927742D01*
X164350663Y-101927742D01*
X164127202Y-101927742D01*
X164127202Y-102158651D01*
X164350663Y-102158651D01*
X164350663Y-102374663D01*
X164581572Y-102374663D01*
X164581572Y-102158651D01*
X164797584Y-102158651D01*
X164797584Y-102374663D01*
X165028493Y-102374663D01*
X165028493Y-101935191D01*
X165467965Y-101935191D01*
X165467965Y-102151202D01*
X165244504Y-102151202D01*
X165244504Y-102374663D01*
X165028493Y-102374663D01*
X164797584Y-102374663D01*
X164581572Y-102374663D01*
X164350663Y-102374663D01*
X163911191Y-102374663D01*
X163911191Y-101927742D01*
X163017349Y-101927742D01*
X163017349Y-102374663D01*
X162801337Y-102374663D01*
X162801337Y-101488270D01*
X162570428Y-101488270D01*
X162570428Y-101704281D01*
X162354416Y-101704281D01*
X162354416Y-101488270D01*
X162130956Y-101488270D01*
X161900047Y-101488270D01*
X161900047Y-101711730D01*
X162123507Y-101711730D01*
X162123507Y-101927742D01*
X161460575Y-101927742D01*
X161460575Y-101704281D01*
X161237114Y-101704281D01*
X160782745Y-101704281D01*
X160335824Y-101704281D01*
X160335824Y-101927742D01*
X160790194Y-101927742D01*
X160790194Y-101711730D01*
X161229666Y-101711730D01*
X161229666Y-101927742D01*
X160790194Y-101927742D01*
X160335824Y-101927742D01*
X160335824Y-102151202D01*
X160112364Y-102151202D01*
X160112364Y-102598123D01*
X159665443Y-102598123D01*
X159665443Y-102829032D01*
X160119812Y-102829032D01*
X160119812Y-102605572D01*
X160343273Y-102605572D01*
X160343273Y-102158651D01*
X160559285Y-102158651D01*
X160559285Y-102821584D01*
X160790194Y-102821584D01*
X160790194Y-102605572D01*
X161013654Y-102605572D01*
X161013654Y-102374663D01*
X160790194Y-102374663D01*
X160790194Y-102158651D01*
X161453126Y-102158651D01*
X161453126Y-102374663D01*
X161684035Y-102374663D01*
X161684035Y-102158651D01*
X162130956Y-102158651D01*
X162130956Y-101935191D01*
X162346968Y-101935191D01*
X162346968Y-102158651D01*
X162570428Y-102158651D01*
X162570428Y-102374663D01*
X162346968Y-102374663D01*
X162346968Y-102598123D01*
X162130956Y-102598123D01*
X162130956Y-102374663D01*
X161684035Y-102374663D01*
X161453126Y-102374663D01*
X161453126Y-102382111D01*
X161676587Y-102382111D01*
X161676587Y-102598123D01*
X161229666Y-102598123D01*
X161229666Y-103045044D01*
X161460575Y-103045044D01*
X161460575Y-102829032D01*
X161676587Y-102829032D01*
X161676587Y-103045044D01*
X161460575Y-103045044D01*
X161229666Y-103045044D01*
X161013654Y-103045044D01*
X161013654Y-102821584D01*
X160790194Y-102821584D01*
X160559285Y-102821584D01*
X160559285Y-102829032D01*
X160782745Y-102829032D01*
X160782745Y-103052493D01*
X161006205Y-103052493D01*
X161006205Y-103268504D01*
X160343273Y-103268504D01*
X160343273Y-103045044D01*
X159888903Y-103045044D01*
X159888903Y-103275953D01*
X160335824Y-103275953D01*
X160335824Y-103491965D01*
X159888903Y-103491965D01*
X159888903Y-103715425D01*
X159665443Y-103715425D01*
X159665443Y-103946334D01*
X160119812Y-103946334D01*
X160119812Y-103722874D01*
X160782745Y-103722874D01*
X160782745Y-103946334D01*
X161013654Y-103946334D01*
X161013654Y-103715425D01*
X160790194Y-103715425D01*
X160790194Y-103499413D01*
X161013654Y-103499413D01*
X161013654Y-103275953D01*
X161684035Y-103275953D01*
X161684035Y-103052493D01*
X161907496Y-103052493D01*
X161907496Y-102605572D01*
X162123507Y-102605572D01*
X162123507Y-102821584D01*
X162354416Y-102821584D01*
X162354416Y-102605572D01*
X162577877Y-102605572D01*
X162577877Y-102382111D01*
X162793889Y-102382111D01*
X162793889Y-102598123D01*
X163024798Y-102598123D01*
X163024798Y-102382111D01*
X163248258Y-102382111D01*
X163248258Y-102158651D01*
X163680282Y-102158651D01*
X163680282Y-102374663D01*
X163464270Y-102374663D01*
X163464270Y-102598123D01*
X163024798Y-102598123D01*
X162793889Y-102598123D01*
X162793889Y-102605572D01*
X163017349Y-102605572D01*
X163017349Y-102821584D01*
X162793889Y-102821584D01*
X162793889Y-103268504D01*
X163024798Y-103268504D01*
X163024798Y-102829032D01*
X163240809Y-102829032D01*
X163240809Y-103268504D01*
X163471719Y-103268504D01*
X163471719Y-102829032D01*
X163687730Y-102829032D01*
X163687730Y-102382111D01*
X163903742Y-102382111D01*
X163903742Y-102829032D01*
X164134651Y-102829032D01*
X164134651Y-102605572D01*
X164574123Y-102605572D01*
X164574123Y-102829032D01*
X164797584Y-102829032D01*
X164797584Y-103268504D01*
X164581572Y-103268504D01*
X164581572Y-103045044D01*
X164350663Y-103045044D01*
X164350663Y-103268504D01*
X164134651Y-103268504D01*
X164134651Y-103045044D01*
X163680282Y-103045044D01*
X163680282Y-103268504D01*
X163471719Y-103268504D01*
X163240809Y-103268504D01*
X163024798Y-103268504D01*
X162793889Y-103268504D01*
X162577877Y-103268504D01*
X162577877Y-102821584D01*
X162354416Y-102821584D01*
X162123507Y-102821584D01*
X162123507Y-102829032D01*
X162346968Y-102829032D01*
X162346968Y-103045044D01*
X162123507Y-103045044D01*
X162123507Y-103491965D01*
X162801337Y-103491965D01*
X162801337Y-103275953D01*
X163017349Y-103275953D01*
X163017349Y-103491965D01*
X162801337Y-103491965D01*
X162123507Y-103491965D01*
X161900047Y-103491965D01*
X161900047Y-103715425D01*
X162130956Y-103715425D01*
X162130956Y-103499413D01*
X162793889Y-103499413D01*
X162793889Y-103715425D01*
X162570428Y-103715425D01*
X162570428Y-103938886D01*
X162354416Y-103938886D01*
X162354416Y-103715425D01*
X162130956Y-103715425D01*
X161900047Y-103715425D01*
X161900047Y-103946334D01*
X162123507Y-103946334D01*
X162123507Y-104162346D01*
X162577877Y-104162346D01*
X162577877Y-103946334D01*
X162801337Y-103946334D01*
X162801337Y-103722874D01*
X163248258Y-103722874D01*
X163248258Y-103275953D01*
X163464270Y-103275953D01*
X163464270Y-103722874D01*
X163680282Y-103722874D01*
X163680282Y-104162346D01*
X163471719Y-104162346D01*
X163471719Y-103938886D01*
X163017349Y-103938886D01*
X163017349Y-104609267D01*
X163248258Y-104609267D01*
X163248258Y-104169795D01*
X163464270Y-104169795D01*
X163464270Y-104393255D01*
X163687730Y-104393255D01*
X163687730Y-104169795D01*
X163903742Y-104169795D01*
X163903742Y-104393255D01*
X164134651Y-104393255D01*
X164134651Y-104162346D01*
X163911191Y-104162346D01*
X163911191Y-103946334D01*
X164134651Y-103946334D01*
X164134651Y-103715425D01*
X163687730Y-103715425D01*
X163687730Y-103275953D01*
X164127202Y-103275953D01*
X164127202Y-103499413D01*
X164358111Y-103499413D01*
X164358111Y-103275953D01*
X164574123Y-103275953D01*
X164574123Y-103722874D01*
X164797584Y-103722874D01*
X164797584Y-103938886D01*
X164350663Y-103938886D01*
X164350663Y-104609267D01*
X163248258Y-104609267D01*
X163017349Y-104609267D01*
X163017349Y-104832727D01*
X164358111Y-104832727D01*
X164358111Y-104616715D01*
X164581572Y-104616715D01*
X164581572Y-104169795D01*
X164797584Y-104169795D01*
X164797584Y-104609267D01*
X165028493Y-104609267D01*
X165028493Y-103946334D01*
X165244504Y-103946334D01*
X165244504Y-104609267D01*
X165028493Y-104609267D01*
X164797584Y-104609267D01*
X164797584Y-104616715D01*
X165021044Y-104616715D01*
X165021044Y-104832727D01*
X164358111Y-104832727D01*
X163017349Y-104832727D01*
X163017349Y-105056188D01*
X162801337Y-105056188D01*
X162801337Y-104162346D01*
X162577877Y-104162346D01*
X162123507Y-104162346D01*
X162123507Y-104385806D01*
X161907496Y-104385806D01*
X161907496Y-104162346D01*
X161684035Y-104162346D01*
X161684035Y-103491965D01*
X161229666Y-103491965D01*
X161229666Y-103722874D01*
X161453126Y-103722874D01*
X161453126Y-103938886D01*
X161229666Y-103938886D01*
X161229666Y-104385806D01*
X161460575Y-104385806D01*
X161460575Y-104169795D01*
X161676587Y-104169795D01*
X161676587Y-104385806D01*
X161460575Y-104385806D01*
X161229666Y-104385806D01*
X161229666Y-104609267D01*
X162130956Y-104609267D01*
X162130956Y-104393255D01*
X162354416Y-104393255D01*
X162354416Y-104169795D01*
X162570428Y-104169795D01*
X162570428Y-104832727D01*
X162354416Y-104832727D01*
X162354416Y-104609267D01*
X162130956Y-104609267D01*
X161229666Y-104609267D01*
X161229666Y-104616715D01*
X161453126Y-104616715D01*
X161453126Y-104832727D01*
X161684035Y-104832727D01*
X161684035Y-104616715D01*
X162123507Y-104616715D01*
X162123507Y-105056188D01*
X161907496Y-105056188D01*
X161907496Y-104832727D01*
X161684035Y-104832727D01*
X161453126Y-104832727D01*
X161229666Y-104832727D01*
X161229666Y-105063636D01*
X161900047Y-105063636D01*
X161900047Y-105279648D01*
X162130956Y-105279648D01*
X162130956Y-105063636D01*
X162346968Y-105063636D01*
X162346968Y-105279648D01*
X162130956Y-105279648D01*
X161900047Y-105279648D01*
X161900047Y-105734018D01*
X162354416Y-105734018D01*
X162354416Y-105510557D01*
G36*
X164358111Y-97920352D02*
G01*
X164574123Y-97920352D01*
X164574123Y-98367273D01*
X164805032Y-98367273D01*
X164805032Y-97920352D01*
X165028493Y-97920352D01*
X165028493Y-97465982D01*
X164797584Y-97465982D01*
X164797584Y-97912903D01*
X164581572Y-97912903D01*
X164581572Y-97689443D01*
X164350663Y-97689443D01*
X164350663Y-97912903D01*
X164127202Y-97912903D01*
X164127202Y-98814193D01*
X164358111Y-98814193D01*
X164358111Y-97920352D01*
G37*
X164358111Y-97920352D02*
X164574123Y-97920352D01*
X164574123Y-98367273D01*
X164805032Y-98367273D01*
X164805032Y-97920352D01*
X165028493Y-97920352D01*
X165028493Y-97465982D01*
X164797584Y-97465982D01*
X164797584Y-97912903D01*
X164581572Y-97912903D01*
X164581572Y-97689443D01*
X164350663Y-97689443D01*
X164350663Y-97912903D01*
X164127202Y-97912903D01*
X164127202Y-98814193D01*
X164358111Y-98814193D01*
X164358111Y-97920352D01*
G36*
X164134651Y-97465982D02*
G01*
X163680282Y-97465982D01*
X163680282Y-97696891D01*
X164134651Y-97696891D01*
X164134651Y-97465982D01*
G37*
X164134651Y-97465982D02*
X163680282Y-97465982D01*
X163680282Y-97696891D01*
X164134651Y-97696891D01*
X164134651Y-97465982D01*
G36*
X162130956Y-98814193D02*
G01*
X162346968Y-98814193D01*
X162346968Y-99037654D01*
X163024798Y-99037654D01*
X163024798Y-98590733D01*
X163680282Y-98590733D01*
X163680282Y-98814193D01*
X163911191Y-98814193D01*
X163911191Y-98583284D01*
X163687730Y-98583284D01*
X163687730Y-98143812D01*
X163911191Y-98143812D01*
X163911191Y-97912903D01*
X163680282Y-97912903D01*
X163680282Y-98136364D01*
X163471719Y-98136364D01*
X163471719Y-97465982D01*
X162793889Y-97465982D01*
X162793889Y-97689443D01*
X162354416Y-97689443D01*
X162354416Y-97465982D01*
X162123507Y-97465982D01*
X162123507Y-97689443D01*
X161900047Y-97689443D01*
X161900047Y-97912903D01*
X162801337Y-97912903D01*
X162801337Y-97696891D01*
X163240809Y-97696891D01*
X163240809Y-97912903D01*
X162801337Y-97912903D01*
X161900047Y-97912903D01*
X161684035Y-97912903D01*
X161684035Y-97689443D01*
X161229666Y-97689443D01*
X161229666Y-98136364D01*
X162130956Y-98136364D01*
X162130956Y-97920352D01*
X162570428Y-97920352D01*
X162570428Y-98136364D01*
X162130956Y-98136364D01*
X161229666Y-98136364D01*
X161229666Y-98143812D01*
X161453126Y-98143812D01*
X161453126Y-98359824D01*
X161907496Y-98359824D01*
X161907496Y-98143812D01*
X162123507Y-98143812D01*
X162123507Y-98359824D01*
X161907496Y-98359824D01*
X161453126Y-98359824D01*
X161453126Y-98590733D01*
X161684035Y-98590733D01*
X161684035Y-98367273D01*
X161900047Y-98367273D01*
X161900047Y-98806745D01*
X162354416Y-98806745D01*
X162354416Y-98367273D01*
X162801337Y-98367273D01*
X162801337Y-98143812D01*
X163464270Y-98143812D01*
X163464270Y-98359824D01*
X163017349Y-98359824D01*
X163017349Y-98583284D01*
X162793889Y-98583284D01*
X162793889Y-98806745D01*
X162354416Y-98806745D01*
X161900047Y-98806745D01*
X161676587Y-98806745D01*
X161676587Y-99037654D01*
X162130956Y-99037654D01*
X162130956Y-98814193D01*
G37*
X162130956Y-98814193D02*
X162346968Y-98814193D01*
X162346968Y-99037654D01*
X163024798Y-99037654D01*
X163024798Y-98590733D01*
X163680282Y-98590733D01*
X163680282Y-98814193D01*
X163911191Y-98814193D01*
X163911191Y-98583284D01*
X163687730Y-98583284D01*
X163687730Y-98143812D01*
X163911191Y-98143812D01*
X163911191Y-97912903D01*
X163680282Y-97912903D01*
X163680282Y-98136364D01*
X163471719Y-98136364D01*
X163471719Y-97465982D01*
X162793889Y-97465982D01*
X162793889Y-97689443D01*
X162354416Y-97689443D01*
X162354416Y-97465982D01*
X162123507Y-97465982D01*
X162123507Y-97689443D01*
X161900047Y-97689443D01*
X161900047Y-97912903D01*
X162801337Y-97912903D01*
X162801337Y-97696891D01*
X163240809Y-97696891D01*
X163240809Y-97912903D01*
X162801337Y-97912903D01*
X161900047Y-97912903D01*
X161684035Y-97912903D01*
X161684035Y-97689443D01*
X161229666Y-97689443D01*
X161229666Y-98136364D01*
X162130956Y-98136364D01*
X162130956Y-97920352D01*
X162570428Y-97920352D01*
X162570428Y-98136364D01*
X162130956Y-98136364D01*
X161229666Y-98136364D01*
X161229666Y-98143812D01*
X161453126Y-98143812D01*
X161453126Y-98359824D01*
X161907496Y-98359824D01*
X161907496Y-98143812D01*
X162123507Y-98143812D01*
X162123507Y-98359824D01*
X161907496Y-98359824D01*
X161453126Y-98359824D01*
X161453126Y-98590733D01*
X161684035Y-98590733D01*
X161684035Y-98367273D01*
X161900047Y-98367273D01*
X161900047Y-98806745D01*
X162354416Y-98806745D01*
X162354416Y-98367273D01*
X162801337Y-98367273D01*
X162801337Y-98143812D01*
X163464270Y-98143812D01*
X163464270Y-98359824D01*
X163017349Y-98359824D01*
X163017349Y-98583284D01*
X162793889Y-98583284D01*
X162793889Y-98806745D01*
X162354416Y-98806745D01*
X161900047Y-98806745D01*
X161676587Y-98806745D01*
X161676587Y-99037654D01*
X162130956Y-99037654D01*
X162130956Y-98814193D01*
G36*
X161013654Y-97465982D02*
G01*
X159441982Y-97465982D01*
X159441982Y-98806745D01*
X159672892Y-98806745D01*
X159672892Y-97696891D01*
X160782745Y-97696891D01*
X160782745Y-98806745D01*
X159672892Y-98806745D01*
X159441982Y-98806745D01*
X159441982Y-99037654D01*
X161013654Y-99037654D01*
X161013654Y-97465982D01*
G37*
X161013654Y-97465982D02*
X159441982Y-97465982D01*
X159441982Y-98806745D01*
X159672892Y-98806745D01*
X159672892Y-97696891D01*
X160782745Y-97696891D01*
X160782745Y-98806745D01*
X159672892Y-98806745D01*
X159441982Y-98806745D01*
X159441982Y-99037654D01*
X161013654Y-99037654D01*
X161013654Y-97465982D01*
D11*
X153110000Y-102218748D02*
X153110000Y-102741252D01*
X151690000Y-102218748D02*
X151690000Y-102741252D01*
D12*
X151202380Y-102313333D02*
X150726190Y-101980000D01*
X151202380Y-101741904D02*
X150202380Y-101741904D01*
X150202380Y-102122857D01*
X150250000Y-102218095D01*
X150297619Y-102265714D01*
X150392857Y-102313333D01*
X150535714Y-102313333D01*
X150630952Y-102265714D01*
X150678571Y-102218095D01*
X150726190Y-102122857D01*
X150726190Y-101741904D01*
X151202380Y-103265714D02*
X151202380Y-102694285D01*
X151202380Y-102980000D02*
X150202380Y-102980000D01*
X150345238Y-102884761D01*
X150440476Y-102789523D01*
X150488095Y-102694285D01*
M02*
