G04 #@! TF.GenerationSoftware,KiCad,Pcbnew,5.1.5-52549c5~84~ubuntu18.04.1*
G04 #@! TF.CreationDate,2020-01-09T20:53:28+01:00*
G04 #@! TF.ProjectId,DSB_R1,4453425f-5231-42e6-9b69-6361645f7063,rev?*
G04 #@! TF.SameCoordinates,Original*
G04 #@! TF.FileFunction,Copper,L2,Bot*
G04 #@! TF.FilePolarity,Positive*
%FSLAX46Y46*%
G04 Gerber Fmt 4.6, Leading zero omitted, Abs format (unit mm)*
G04 Created by KiCad (PCBNEW 5.1.5-52549c5~84~ubuntu18.04.1) date 2020-01-09 20:53:28*
%MOMM*%
%LPD*%
G04 APERTURE LIST*
%ADD10R,1.500000X1.050000*%
%ADD11O,1.500000X1.050000*%
%ADD12C,0.100000*%
%ADD13C,6.000000*%
%ADD14R,1.524000X1.524000*%
%ADD15C,0.250000*%
%ADD16C,0.254000*%
G04 APERTURE END LIST*
D10*
X156845000Y-100330000D03*
D11*
X156845000Y-102870000D03*
X156845000Y-101600000D03*
G04 #@! TA.AperFunction,SMDPad,CuDef*
D12*
G36*
X152874505Y-102931204D02*
G01*
X152898773Y-102934804D01*
X152922572Y-102940765D01*
X152945671Y-102949030D01*
X152967850Y-102959520D01*
X152988893Y-102972132D01*
X153008599Y-102986747D01*
X153026777Y-103003223D01*
X153043253Y-103021401D01*
X153057868Y-103041107D01*
X153070480Y-103062150D01*
X153080970Y-103084329D01*
X153089235Y-103107428D01*
X153095196Y-103131227D01*
X153098796Y-103155495D01*
X153100000Y-103179999D01*
X153100000Y-103830001D01*
X153098796Y-103854505D01*
X153095196Y-103878773D01*
X153089235Y-103902572D01*
X153080970Y-103925671D01*
X153070480Y-103947850D01*
X153057868Y-103968893D01*
X153043253Y-103988599D01*
X153026777Y-104006777D01*
X153008599Y-104023253D01*
X152988893Y-104037868D01*
X152967850Y-104050480D01*
X152945671Y-104060970D01*
X152922572Y-104069235D01*
X152898773Y-104075196D01*
X152874505Y-104078796D01*
X152850001Y-104080000D01*
X151949999Y-104080000D01*
X151925495Y-104078796D01*
X151901227Y-104075196D01*
X151877428Y-104069235D01*
X151854329Y-104060970D01*
X151832150Y-104050480D01*
X151811107Y-104037868D01*
X151791401Y-104023253D01*
X151773223Y-104006777D01*
X151756747Y-103988599D01*
X151742132Y-103968893D01*
X151729520Y-103947850D01*
X151719030Y-103925671D01*
X151710765Y-103902572D01*
X151704804Y-103878773D01*
X151701204Y-103854505D01*
X151700000Y-103830001D01*
X151700000Y-103179999D01*
X151701204Y-103155495D01*
X151704804Y-103131227D01*
X151710765Y-103107428D01*
X151719030Y-103084329D01*
X151729520Y-103062150D01*
X151742132Y-103041107D01*
X151756747Y-103021401D01*
X151773223Y-103003223D01*
X151791401Y-102986747D01*
X151811107Y-102972132D01*
X151832150Y-102959520D01*
X151854329Y-102949030D01*
X151877428Y-102940765D01*
X151901227Y-102934804D01*
X151925495Y-102931204D01*
X151949999Y-102930000D01*
X152850001Y-102930000D01*
X152874505Y-102931204D01*
G37*
G04 #@! TD.AperFunction*
G04 #@! TA.AperFunction,SMDPad,CuDef*
G36*
X152874505Y-100881204D02*
G01*
X152898773Y-100884804D01*
X152922572Y-100890765D01*
X152945671Y-100899030D01*
X152967850Y-100909520D01*
X152988893Y-100922132D01*
X153008599Y-100936747D01*
X153026777Y-100953223D01*
X153043253Y-100971401D01*
X153057868Y-100991107D01*
X153070480Y-101012150D01*
X153080970Y-101034329D01*
X153089235Y-101057428D01*
X153095196Y-101081227D01*
X153098796Y-101105495D01*
X153100000Y-101129999D01*
X153100000Y-101780001D01*
X153098796Y-101804505D01*
X153095196Y-101828773D01*
X153089235Y-101852572D01*
X153080970Y-101875671D01*
X153070480Y-101897850D01*
X153057868Y-101918893D01*
X153043253Y-101938599D01*
X153026777Y-101956777D01*
X153008599Y-101973253D01*
X152988893Y-101987868D01*
X152967850Y-102000480D01*
X152945671Y-102010970D01*
X152922572Y-102019235D01*
X152898773Y-102025196D01*
X152874505Y-102028796D01*
X152850001Y-102030000D01*
X151949999Y-102030000D01*
X151925495Y-102028796D01*
X151901227Y-102025196D01*
X151877428Y-102019235D01*
X151854329Y-102010970D01*
X151832150Y-102000480D01*
X151811107Y-101987868D01*
X151791401Y-101973253D01*
X151773223Y-101956777D01*
X151756747Y-101938599D01*
X151742132Y-101918893D01*
X151729520Y-101897850D01*
X151719030Y-101875671D01*
X151710765Y-101852572D01*
X151704804Y-101828773D01*
X151701204Y-101804505D01*
X151700000Y-101780001D01*
X151700000Y-101129999D01*
X151701204Y-101105495D01*
X151704804Y-101081227D01*
X151710765Y-101057428D01*
X151719030Y-101034329D01*
X151729520Y-101012150D01*
X151742132Y-100991107D01*
X151756747Y-100971401D01*
X151773223Y-100953223D01*
X151791401Y-100936747D01*
X151811107Y-100922132D01*
X151832150Y-100909520D01*
X151854329Y-100899030D01*
X151877428Y-100890765D01*
X151901227Y-100884804D01*
X151925495Y-100881204D01*
X151949999Y-100880000D01*
X152850001Y-100880000D01*
X152874505Y-100881204D01*
G37*
G04 #@! TD.AperFunction*
D13*
X132080000Y-101600000D03*
X172720000Y-101600000D03*
D14*
X148590000Y-98425000D03*
X148590000Y-100965000D03*
X146050000Y-98425000D03*
X146050000Y-100965000D03*
X143510000Y-98425000D03*
X143510000Y-100965000D03*
X140970000Y-98425000D03*
X140970000Y-100965000D03*
X138430000Y-98425000D03*
X138430000Y-100965000D03*
D15*
X146050000Y-98425000D02*
X146050000Y-101600000D01*
X149860000Y-102870000D02*
X151275000Y-101455000D01*
X146943000Y-102870000D02*
X149860000Y-102870000D01*
X146050000Y-100965000D02*
X146050000Y-101977000D01*
X151275000Y-101455000D02*
X152400000Y-101455000D01*
X146050000Y-101977000D02*
X146943000Y-102870000D01*
X156700000Y-101455000D02*
X156845000Y-101600000D01*
X152400000Y-101455000D02*
X156700000Y-101455000D01*
X143510000Y-98425000D02*
X143510000Y-100965000D01*
X151700000Y-103505000D02*
X152400000Y-103505000D01*
X145038000Y-103505000D02*
X151700000Y-103505000D01*
X143510000Y-100965000D02*
X143510000Y-101977000D01*
X143510000Y-101977000D02*
X145038000Y-103505000D01*
X152400000Y-103505000D02*
X154305000Y-103505000D01*
X154305000Y-103505000D02*
X154940000Y-102870000D01*
X154940000Y-102870000D02*
X156845000Y-102870000D01*
D16*
G36*
X137042188Y-97538518D02*
G01*
X137029928Y-97663000D01*
X137033000Y-98139250D01*
X137191750Y-98298000D01*
X138303000Y-98298000D01*
X138303000Y-98278000D01*
X138557000Y-98278000D01*
X138557000Y-98298000D01*
X138577000Y-98298000D01*
X138577000Y-98552000D01*
X138557000Y-98552000D01*
X138557000Y-99663250D01*
X138588750Y-99695000D01*
X138557000Y-99726750D01*
X138557000Y-100838000D01*
X138577000Y-100838000D01*
X138577000Y-101092000D01*
X138557000Y-101092000D01*
X138557000Y-102203250D01*
X138715750Y-102362000D01*
X139192000Y-102365072D01*
X139316482Y-102352812D01*
X139436180Y-102316502D01*
X139546494Y-102257537D01*
X139643185Y-102178185D01*
X139700000Y-102108956D01*
X139756815Y-102178185D01*
X139853506Y-102257537D01*
X139963820Y-102316502D01*
X140083518Y-102352812D01*
X140208000Y-102365072D01*
X141732000Y-102365072D01*
X141856482Y-102352812D01*
X141976180Y-102316502D01*
X142086494Y-102257537D01*
X142183185Y-102178185D01*
X142240000Y-102108956D01*
X142296815Y-102178185D01*
X142393506Y-102257537D01*
X142503820Y-102316502D01*
X142623518Y-102352812D01*
X142748000Y-102365072D01*
X142855674Y-102365072D01*
X142875026Y-102401276D01*
X142946201Y-102488002D01*
X142970000Y-102517001D01*
X142998998Y-102540799D01*
X144474201Y-104016003D01*
X144497999Y-104045001D01*
X144613724Y-104139974D01*
X144745753Y-104210546D01*
X144889014Y-104254003D01*
X145000667Y-104265000D01*
X145000676Y-104265000D01*
X145037999Y-104268676D01*
X145075322Y-104265000D01*
X151180386Y-104265000D01*
X151211595Y-104323387D01*
X151322038Y-104457962D01*
X151456613Y-104568405D01*
X151610149Y-104650472D01*
X151776745Y-104701008D01*
X151949999Y-104718072D01*
X152850001Y-104718072D01*
X153023255Y-104701008D01*
X153189851Y-104650472D01*
X153343387Y-104568405D01*
X153477962Y-104457962D01*
X153588405Y-104323387D01*
X153619614Y-104265000D01*
X154267678Y-104265000D01*
X154305000Y-104268676D01*
X154342322Y-104265000D01*
X154342333Y-104265000D01*
X154453986Y-104254003D01*
X154597247Y-104210546D01*
X154729276Y-104139974D01*
X154845001Y-104045001D01*
X154868803Y-104015998D01*
X155254802Y-103630000D01*
X155743091Y-103630000D01*
X155795788Y-103694212D01*
X155972421Y-103839171D01*
X156173940Y-103946885D01*
X156392600Y-104013215D01*
X156563021Y-104030000D01*
X157126979Y-104030000D01*
X157297400Y-104013215D01*
X157516060Y-103946885D01*
X157717579Y-103839171D01*
X157894212Y-103694212D01*
X158039171Y-103517579D01*
X158146885Y-103316060D01*
X158213215Y-103097400D01*
X158235612Y-102870000D01*
X158213215Y-102642600D01*
X158146885Y-102423940D01*
X158045895Y-102235000D01*
X158146885Y-102046060D01*
X158213215Y-101827400D01*
X158235612Y-101600000D01*
X158213215Y-101372600D01*
X158149907Y-101163902D01*
X158184502Y-101099180D01*
X158220812Y-100979482D01*
X158233072Y-100855000D01*
X158230000Y-100615750D01*
X158071250Y-100457000D01*
X157298109Y-100457000D01*
X157297400Y-100456785D01*
X157126979Y-100440000D01*
X156563021Y-100440000D01*
X156392600Y-100456785D01*
X156391891Y-100457000D01*
X155618750Y-100457000D01*
X155460000Y-100615750D01*
X155458982Y-100695000D01*
X153619614Y-100695000D01*
X153588405Y-100636613D01*
X153477962Y-100502038D01*
X153343387Y-100391595D01*
X153189851Y-100309528D01*
X153023255Y-100258992D01*
X152850001Y-100241928D01*
X151949999Y-100241928D01*
X151776745Y-100258992D01*
X151610149Y-100309528D01*
X151456613Y-100391595D01*
X151322038Y-100502038D01*
X151211595Y-100636613D01*
X151177203Y-100700955D01*
X151126014Y-100705997D01*
X150982753Y-100749454D01*
X150850724Y-100820026D01*
X150734999Y-100914999D01*
X150711201Y-100943997D01*
X149989675Y-101665523D01*
X149987000Y-101250750D01*
X149828250Y-101092000D01*
X148717000Y-101092000D01*
X148717000Y-101112000D01*
X148463000Y-101112000D01*
X148463000Y-101092000D01*
X148443000Y-101092000D01*
X148443000Y-100838000D01*
X148463000Y-100838000D01*
X148463000Y-99726750D01*
X148431250Y-99695000D01*
X148463000Y-99663250D01*
X148463000Y-98552000D01*
X148717000Y-98552000D01*
X148717000Y-99663250D01*
X148748750Y-99695000D01*
X148717000Y-99726750D01*
X148717000Y-100838000D01*
X149828250Y-100838000D01*
X149987000Y-100679250D01*
X149990072Y-100203000D01*
X149977812Y-100078518D01*
X149941502Y-99958820D01*
X149882537Y-99848506D01*
X149846833Y-99805000D01*
X155456928Y-99805000D01*
X155460000Y-100044250D01*
X155618750Y-100203000D01*
X156718000Y-100203000D01*
X156718000Y-99328750D01*
X156972000Y-99328750D01*
X156972000Y-100203000D01*
X158071250Y-100203000D01*
X158230000Y-100044250D01*
X158233072Y-99805000D01*
X158220812Y-99680518D01*
X158184502Y-99560820D01*
X158125537Y-99450506D01*
X158046185Y-99353815D01*
X157949494Y-99274463D01*
X157839180Y-99215498D01*
X157719482Y-99179188D01*
X157595000Y-99166928D01*
X157130750Y-99170000D01*
X156972000Y-99328750D01*
X156718000Y-99328750D01*
X156559250Y-99170000D01*
X156095000Y-99166928D01*
X155970518Y-99179188D01*
X155850820Y-99215498D01*
X155740506Y-99274463D01*
X155643815Y-99353815D01*
X155564463Y-99450506D01*
X155505498Y-99560820D01*
X155469188Y-99680518D01*
X155456928Y-99805000D01*
X149846833Y-99805000D01*
X149803185Y-99751815D01*
X149733956Y-99695000D01*
X149803185Y-99638185D01*
X149882537Y-99541494D01*
X149941502Y-99431180D01*
X149977812Y-99311482D01*
X149990072Y-99187000D01*
X149987000Y-98710750D01*
X149828250Y-98552000D01*
X148717000Y-98552000D01*
X148463000Y-98552000D01*
X148443000Y-98552000D01*
X148443000Y-98298000D01*
X148463000Y-98298000D01*
X148463000Y-98278000D01*
X148717000Y-98278000D01*
X148717000Y-98298000D01*
X149828250Y-98298000D01*
X149987000Y-98139250D01*
X149990072Y-97663000D01*
X149977812Y-97538518D01*
X149953690Y-97459000D01*
X176861000Y-97459000D01*
X176861001Y-105741000D01*
X127939000Y-105741000D01*
X127939000Y-101727000D01*
X137029928Y-101727000D01*
X137042188Y-101851482D01*
X137078498Y-101971180D01*
X137137463Y-102081494D01*
X137216815Y-102178185D01*
X137313506Y-102257537D01*
X137423820Y-102316502D01*
X137543518Y-102352812D01*
X137668000Y-102365072D01*
X138144250Y-102362000D01*
X138303000Y-102203250D01*
X138303000Y-101092000D01*
X137191750Y-101092000D01*
X137033000Y-101250750D01*
X137029928Y-101727000D01*
X127939000Y-101727000D01*
X127939000Y-99187000D01*
X137029928Y-99187000D01*
X137042188Y-99311482D01*
X137078498Y-99431180D01*
X137137463Y-99541494D01*
X137216815Y-99638185D01*
X137286044Y-99695000D01*
X137216815Y-99751815D01*
X137137463Y-99848506D01*
X137078498Y-99958820D01*
X137042188Y-100078518D01*
X137029928Y-100203000D01*
X137033000Y-100679250D01*
X137191750Y-100838000D01*
X138303000Y-100838000D01*
X138303000Y-99726750D01*
X138271250Y-99695000D01*
X138303000Y-99663250D01*
X138303000Y-98552000D01*
X137191750Y-98552000D01*
X137033000Y-98710750D01*
X137029928Y-99187000D01*
X127939000Y-99187000D01*
X127939000Y-97459000D01*
X137066310Y-97459000D01*
X137042188Y-97538518D01*
G37*
X137042188Y-97538518D02*
X137029928Y-97663000D01*
X137033000Y-98139250D01*
X137191750Y-98298000D01*
X138303000Y-98298000D01*
X138303000Y-98278000D01*
X138557000Y-98278000D01*
X138557000Y-98298000D01*
X138577000Y-98298000D01*
X138577000Y-98552000D01*
X138557000Y-98552000D01*
X138557000Y-99663250D01*
X138588750Y-99695000D01*
X138557000Y-99726750D01*
X138557000Y-100838000D01*
X138577000Y-100838000D01*
X138577000Y-101092000D01*
X138557000Y-101092000D01*
X138557000Y-102203250D01*
X138715750Y-102362000D01*
X139192000Y-102365072D01*
X139316482Y-102352812D01*
X139436180Y-102316502D01*
X139546494Y-102257537D01*
X139643185Y-102178185D01*
X139700000Y-102108956D01*
X139756815Y-102178185D01*
X139853506Y-102257537D01*
X139963820Y-102316502D01*
X140083518Y-102352812D01*
X140208000Y-102365072D01*
X141732000Y-102365072D01*
X141856482Y-102352812D01*
X141976180Y-102316502D01*
X142086494Y-102257537D01*
X142183185Y-102178185D01*
X142240000Y-102108956D01*
X142296815Y-102178185D01*
X142393506Y-102257537D01*
X142503820Y-102316502D01*
X142623518Y-102352812D01*
X142748000Y-102365072D01*
X142855674Y-102365072D01*
X142875026Y-102401276D01*
X142946201Y-102488002D01*
X142970000Y-102517001D01*
X142998998Y-102540799D01*
X144474201Y-104016003D01*
X144497999Y-104045001D01*
X144613724Y-104139974D01*
X144745753Y-104210546D01*
X144889014Y-104254003D01*
X145000667Y-104265000D01*
X145000676Y-104265000D01*
X145037999Y-104268676D01*
X145075322Y-104265000D01*
X151180386Y-104265000D01*
X151211595Y-104323387D01*
X151322038Y-104457962D01*
X151456613Y-104568405D01*
X151610149Y-104650472D01*
X151776745Y-104701008D01*
X151949999Y-104718072D01*
X152850001Y-104718072D01*
X153023255Y-104701008D01*
X153189851Y-104650472D01*
X153343387Y-104568405D01*
X153477962Y-104457962D01*
X153588405Y-104323387D01*
X153619614Y-104265000D01*
X154267678Y-104265000D01*
X154305000Y-104268676D01*
X154342322Y-104265000D01*
X154342333Y-104265000D01*
X154453986Y-104254003D01*
X154597247Y-104210546D01*
X154729276Y-104139974D01*
X154845001Y-104045001D01*
X154868803Y-104015998D01*
X155254802Y-103630000D01*
X155743091Y-103630000D01*
X155795788Y-103694212D01*
X155972421Y-103839171D01*
X156173940Y-103946885D01*
X156392600Y-104013215D01*
X156563021Y-104030000D01*
X157126979Y-104030000D01*
X157297400Y-104013215D01*
X157516060Y-103946885D01*
X157717579Y-103839171D01*
X157894212Y-103694212D01*
X158039171Y-103517579D01*
X158146885Y-103316060D01*
X158213215Y-103097400D01*
X158235612Y-102870000D01*
X158213215Y-102642600D01*
X158146885Y-102423940D01*
X158045895Y-102235000D01*
X158146885Y-102046060D01*
X158213215Y-101827400D01*
X158235612Y-101600000D01*
X158213215Y-101372600D01*
X158149907Y-101163902D01*
X158184502Y-101099180D01*
X158220812Y-100979482D01*
X158233072Y-100855000D01*
X158230000Y-100615750D01*
X158071250Y-100457000D01*
X157298109Y-100457000D01*
X157297400Y-100456785D01*
X157126979Y-100440000D01*
X156563021Y-100440000D01*
X156392600Y-100456785D01*
X156391891Y-100457000D01*
X155618750Y-100457000D01*
X155460000Y-100615750D01*
X155458982Y-100695000D01*
X153619614Y-100695000D01*
X153588405Y-100636613D01*
X153477962Y-100502038D01*
X153343387Y-100391595D01*
X153189851Y-100309528D01*
X153023255Y-100258992D01*
X152850001Y-100241928D01*
X151949999Y-100241928D01*
X151776745Y-100258992D01*
X151610149Y-100309528D01*
X151456613Y-100391595D01*
X151322038Y-100502038D01*
X151211595Y-100636613D01*
X151177203Y-100700955D01*
X151126014Y-100705997D01*
X150982753Y-100749454D01*
X150850724Y-100820026D01*
X150734999Y-100914999D01*
X150711201Y-100943997D01*
X149989675Y-101665523D01*
X149987000Y-101250750D01*
X149828250Y-101092000D01*
X148717000Y-101092000D01*
X148717000Y-101112000D01*
X148463000Y-101112000D01*
X148463000Y-101092000D01*
X148443000Y-101092000D01*
X148443000Y-100838000D01*
X148463000Y-100838000D01*
X148463000Y-99726750D01*
X148431250Y-99695000D01*
X148463000Y-99663250D01*
X148463000Y-98552000D01*
X148717000Y-98552000D01*
X148717000Y-99663250D01*
X148748750Y-99695000D01*
X148717000Y-99726750D01*
X148717000Y-100838000D01*
X149828250Y-100838000D01*
X149987000Y-100679250D01*
X149990072Y-100203000D01*
X149977812Y-100078518D01*
X149941502Y-99958820D01*
X149882537Y-99848506D01*
X149846833Y-99805000D01*
X155456928Y-99805000D01*
X155460000Y-100044250D01*
X155618750Y-100203000D01*
X156718000Y-100203000D01*
X156718000Y-99328750D01*
X156972000Y-99328750D01*
X156972000Y-100203000D01*
X158071250Y-100203000D01*
X158230000Y-100044250D01*
X158233072Y-99805000D01*
X158220812Y-99680518D01*
X158184502Y-99560820D01*
X158125537Y-99450506D01*
X158046185Y-99353815D01*
X157949494Y-99274463D01*
X157839180Y-99215498D01*
X157719482Y-99179188D01*
X157595000Y-99166928D01*
X157130750Y-99170000D01*
X156972000Y-99328750D01*
X156718000Y-99328750D01*
X156559250Y-99170000D01*
X156095000Y-99166928D01*
X155970518Y-99179188D01*
X155850820Y-99215498D01*
X155740506Y-99274463D01*
X155643815Y-99353815D01*
X155564463Y-99450506D01*
X155505498Y-99560820D01*
X155469188Y-99680518D01*
X155456928Y-99805000D01*
X149846833Y-99805000D01*
X149803185Y-99751815D01*
X149733956Y-99695000D01*
X149803185Y-99638185D01*
X149882537Y-99541494D01*
X149941502Y-99431180D01*
X149977812Y-99311482D01*
X149990072Y-99187000D01*
X149987000Y-98710750D01*
X149828250Y-98552000D01*
X148717000Y-98552000D01*
X148463000Y-98552000D01*
X148443000Y-98552000D01*
X148443000Y-98298000D01*
X148463000Y-98298000D01*
X148463000Y-98278000D01*
X148717000Y-98278000D01*
X148717000Y-98298000D01*
X149828250Y-98298000D01*
X149987000Y-98139250D01*
X149990072Y-97663000D01*
X149977812Y-97538518D01*
X149953690Y-97459000D01*
X176861000Y-97459000D01*
X176861001Y-105741000D01*
X127939000Y-105741000D01*
X127939000Y-101727000D01*
X137029928Y-101727000D01*
X137042188Y-101851482D01*
X137078498Y-101971180D01*
X137137463Y-102081494D01*
X137216815Y-102178185D01*
X137313506Y-102257537D01*
X137423820Y-102316502D01*
X137543518Y-102352812D01*
X137668000Y-102365072D01*
X138144250Y-102362000D01*
X138303000Y-102203250D01*
X138303000Y-101092000D01*
X137191750Y-101092000D01*
X137033000Y-101250750D01*
X137029928Y-101727000D01*
X127939000Y-101727000D01*
X127939000Y-99187000D01*
X137029928Y-99187000D01*
X137042188Y-99311482D01*
X137078498Y-99431180D01*
X137137463Y-99541494D01*
X137216815Y-99638185D01*
X137286044Y-99695000D01*
X137216815Y-99751815D01*
X137137463Y-99848506D01*
X137078498Y-99958820D01*
X137042188Y-100078518D01*
X137029928Y-100203000D01*
X137033000Y-100679250D01*
X137191750Y-100838000D01*
X138303000Y-100838000D01*
X138303000Y-99726750D01*
X138271250Y-99695000D01*
X138303000Y-99663250D01*
X138303000Y-98552000D01*
X137191750Y-98552000D01*
X137033000Y-98710750D01*
X137029928Y-99187000D01*
X127939000Y-99187000D01*
X127939000Y-97459000D01*
X137066310Y-97459000D01*
X137042188Y-97538518D01*
M02*
