G04 #@! TF.GenerationSoftware,KiCad,Pcbnew,5.1.5-52549c5~84~ubuntu18.04.1*
G04 #@! TF.CreationDate,2020-01-10T14:34:25+01:00*
G04 #@! TF.ProjectId,DSB_R1,4453425f-5231-42e6-9b69-6361645f7063,rev?*
G04 #@! TF.SameCoordinates,Original*
G04 #@! TF.FileFunction,Legend,Top*
G04 #@! TF.FilePolarity,Positive*
%FSLAX46Y46*%
G04 Gerber Fmt 4.6, Leading zero omitted, Abs format (unit mm)*
G04 Created by KiCad (PCBNEW 5.1.5-52549c5~84~ubuntu18.04.1) date 2020-01-10 14:34:25*
%MOMM*%
%LPD*%
G04 APERTURE LIST*
%ADD10C,0.100000*%
%ADD11C,0.200000*%
%ADD12C,0.010000*%
%ADD13C,0.120000*%
%ADD14C,0.150000*%
G04 APERTURE END LIST*
D10*
X154630380Y-104742857D02*
X153630380Y-104742857D01*
X153630380Y-104504761D01*
X153678000Y-104361904D01*
X153773238Y-104266666D01*
X153868476Y-104219047D01*
X154058952Y-104171428D01*
X154201809Y-104171428D01*
X154392285Y-104219047D01*
X154487523Y-104266666D01*
X154582761Y-104361904D01*
X154630380Y-104504761D01*
X154630380Y-104742857D01*
X154582761Y-103790476D02*
X154630380Y-103647619D01*
X154630380Y-103409523D01*
X154582761Y-103314285D01*
X154535142Y-103266666D01*
X154439904Y-103219047D01*
X154344666Y-103219047D01*
X154249428Y-103266666D01*
X154201809Y-103314285D01*
X154154190Y-103409523D01*
X154106571Y-103600000D01*
X154058952Y-103695238D01*
X154011333Y-103742857D01*
X153916095Y-103790476D01*
X153820857Y-103790476D01*
X153725619Y-103742857D01*
X153678000Y-103695238D01*
X153630380Y-103600000D01*
X153630380Y-103361904D01*
X153678000Y-103219047D01*
X154630380Y-102266666D02*
X154630380Y-102838095D01*
X154630380Y-102552380D02*
X153630380Y-102552380D01*
X153773238Y-102647619D01*
X153868476Y-102742857D01*
X153916095Y-102838095D01*
X154058952Y-101695238D02*
X154011333Y-101790476D01*
X153963714Y-101838095D01*
X153868476Y-101885714D01*
X153820857Y-101885714D01*
X153725619Y-101838095D01*
X153678000Y-101790476D01*
X153630380Y-101695238D01*
X153630380Y-101504761D01*
X153678000Y-101409523D01*
X153725619Y-101361904D01*
X153820857Y-101314285D01*
X153868476Y-101314285D01*
X153963714Y-101361904D01*
X154011333Y-101409523D01*
X154058952Y-101504761D01*
X154058952Y-101695238D01*
X154106571Y-101790476D01*
X154154190Y-101838095D01*
X154249428Y-101885714D01*
X154439904Y-101885714D01*
X154535142Y-101838095D01*
X154582761Y-101790476D01*
X154630380Y-101695238D01*
X154630380Y-101504761D01*
X154582761Y-101409523D01*
X154535142Y-101361904D01*
X154439904Y-101314285D01*
X154249428Y-101314285D01*
X154154190Y-101361904D01*
X154106571Y-101409523D01*
X154058952Y-101504761D01*
X154106571Y-100552380D02*
X154154190Y-100409523D01*
X154201809Y-100361904D01*
X154297047Y-100314285D01*
X154439904Y-100314285D01*
X154535142Y-100361904D01*
X154582761Y-100409523D01*
X154630380Y-100504761D01*
X154630380Y-100885714D01*
X153630380Y-100885714D01*
X153630380Y-100552380D01*
X153678000Y-100457142D01*
X153725619Y-100409523D01*
X153820857Y-100361904D01*
X153916095Y-100361904D01*
X154011333Y-100409523D01*
X154058952Y-100457142D01*
X154106571Y-100552380D01*
X154106571Y-100885714D01*
X153725619Y-99933333D02*
X153678000Y-99885714D01*
X153630380Y-99790476D01*
X153630380Y-99552380D01*
X153678000Y-99457142D01*
X153725619Y-99409523D01*
X153820857Y-99361904D01*
X153916095Y-99361904D01*
X154058952Y-99409523D01*
X154630380Y-99980952D01*
X154630380Y-99361904D01*
X153630380Y-98742857D02*
X153630380Y-98647619D01*
X153678000Y-98552380D01*
X153725619Y-98504761D01*
X153820857Y-98457142D01*
X154011333Y-98409523D01*
X154249428Y-98409523D01*
X154439904Y-98457142D01*
X154535142Y-98504761D01*
X154582761Y-98552380D01*
X154630380Y-98647619D01*
X154630380Y-98742857D01*
X154582761Y-98838095D01*
X154535142Y-98885714D01*
X154439904Y-98933333D01*
X154249428Y-98980952D01*
X154011333Y-98980952D01*
X153820857Y-98933333D01*
X153725619Y-98885714D01*
X153678000Y-98838095D01*
X153630380Y-98742857D01*
D11*
X146592857Y-105082857D02*
X145392857Y-105082857D01*
X145392857Y-104797142D01*
X145450000Y-104625714D01*
X145564285Y-104511428D01*
X145678571Y-104454285D01*
X145907142Y-104397142D01*
X146078571Y-104397142D01*
X146307142Y-104454285D01*
X146421428Y-104511428D01*
X146535714Y-104625714D01*
X146592857Y-104797142D01*
X146592857Y-105082857D01*
X146707142Y-103082857D02*
X146650000Y-103197142D01*
X146535714Y-103311428D01*
X146364285Y-103482857D01*
X146307142Y-103597142D01*
X146307142Y-103711428D01*
X146592857Y-103654285D02*
X146535714Y-103768571D01*
X146421428Y-103882857D01*
X146192857Y-103940000D01*
X145792857Y-103940000D01*
X145564285Y-103882857D01*
X145450000Y-103768571D01*
X145392857Y-103654285D01*
X145392857Y-103425714D01*
X145450000Y-103311428D01*
X145564285Y-103197142D01*
X145792857Y-103140000D01*
X146192857Y-103140000D01*
X146421428Y-103197142D01*
X146535714Y-103311428D01*
X146592857Y-103425714D01*
X146592857Y-103654285D01*
X141512857Y-105082857D02*
X140312857Y-105082857D01*
X140312857Y-104797142D01*
X140370000Y-104625714D01*
X140484285Y-104511428D01*
X140598571Y-104454285D01*
X140827142Y-104397142D01*
X140998571Y-104397142D01*
X141227142Y-104454285D01*
X141341428Y-104511428D01*
X141455714Y-104625714D01*
X141512857Y-104797142D01*
X141512857Y-105082857D01*
X141627142Y-103082857D02*
X141570000Y-103197142D01*
X141455714Y-103311428D01*
X141284285Y-103482857D01*
X141227142Y-103597142D01*
X141227142Y-103711428D01*
X141512857Y-103654285D02*
X141455714Y-103768571D01*
X141341428Y-103882857D01*
X141112857Y-103940000D01*
X140712857Y-103940000D01*
X140484285Y-103882857D01*
X140370000Y-103768571D01*
X140312857Y-103654285D01*
X140312857Y-103425714D01*
X140370000Y-103311428D01*
X140484285Y-103197142D01*
X140712857Y-103140000D01*
X141112857Y-103140000D01*
X141341428Y-103197142D01*
X141455714Y-103311428D01*
X141512857Y-103425714D01*
X141512857Y-103654285D01*
X142852857Y-105625714D02*
X142852857Y-104882857D01*
X143310000Y-105282857D01*
X143310000Y-105111428D01*
X143367142Y-104997142D01*
X143424285Y-104940000D01*
X143538571Y-104882857D01*
X143824285Y-104882857D01*
X143938571Y-104940000D01*
X143995714Y-104997142D01*
X144052857Y-105111428D01*
X144052857Y-105454285D01*
X143995714Y-105568571D01*
X143938571Y-105625714D01*
X142852857Y-104540000D02*
X144052857Y-104140000D01*
X142852857Y-103740000D01*
X142852857Y-103454285D02*
X142852857Y-102711428D01*
X143310000Y-103111428D01*
X143310000Y-102940000D01*
X143367142Y-102825714D01*
X143424285Y-102768571D01*
X143538571Y-102711428D01*
X143824285Y-102711428D01*
X143938571Y-102768571D01*
X143995714Y-102825714D01*
X144052857Y-102940000D01*
X144052857Y-103282857D01*
X143995714Y-103397142D01*
X143938571Y-103454285D01*
X147990000Y-105054285D02*
X147932857Y-105168571D01*
X147932857Y-105340000D01*
X147990000Y-105511428D01*
X148104285Y-105625714D01*
X148218571Y-105682857D01*
X148447142Y-105740000D01*
X148618571Y-105740000D01*
X148847142Y-105682857D01*
X148961428Y-105625714D01*
X149075714Y-105511428D01*
X149132857Y-105340000D01*
X149132857Y-105225714D01*
X149075714Y-105054285D01*
X149018571Y-104997142D01*
X148618571Y-104997142D01*
X148618571Y-105225714D01*
X149132857Y-104482857D02*
X147932857Y-104482857D01*
X149132857Y-103797142D01*
X147932857Y-103797142D01*
X149132857Y-103225714D02*
X147932857Y-103225714D01*
X147932857Y-102940000D01*
X147990000Y-102768571D01*
X148104285Y-102654285D01*
X148218571Y-102597142D01*
X148447142Y-102540000D01*
X148618571Y-102540000D01*
X148847142Y-102597142D01*
X148961428Y-102654285D01*
X149075714Y-102768571D01*
X149132857Y-102940000D01*
X149132857Y-103225714D01*
X137830000Y-105054285D02*
X137772857Y-105168571D01*
X137772857Y-105340000D01*
X137830000Y-105511428D01*
X137944285Y-105625714D01*
X138058571Y-105682857D01*
X138287142Y-105740000D01*
X138458571Y-105740000D01*
X138687142Y-105682857D01*
X138801428Y-105625714D01*
X138915714Y-105511428D01*
X138972857Y-105340000D01*
X138972857Y-105225714D01*
X138915714Y-105054285D01*
X138858571Y-104997142D01*
X138458571Y-104997142D01*
X138458571Y-105225714D01*
X138972857Y-104482857D02*
X137772857Y-104482857D01*
X138972857Y-103797142D01*
X137772857Y-103797142D01*
X138972857Y-103225714D02*
X137772857Y-103225714D01*
X137772857Y-102940000D01*
X137830000Y-102768571D01*
X137944285Y-102654285D01*
X138058571Y-102597142D01*
X138287142Y-102540000D01*
X138458571Y-102540000D01*
X138687142Y-102597142D01*
X138801428Y-102654285D01*
X138915714Y-102768571D01*
X138972857Y-102940000D01*
X138972857Y-103225714D01*
D12*
G36*
X164070517Y-102680185D02*
G01*
X164120594Y-102594524D01*
X164196855Y-102525098D01*
X164217295Y-102512582D01*
X164315827Y-102475328D01*
X164418827Y-102468367D01*
X164518607Y-102489793D01*
X164607480Y-102537703D01*
X164677759Y-102610190D01*
X164690273Y-102629777D01*
X164725389Y-102712354D01*
X164742812Y-102802743D01*
X164740187Y-102885969D01*
X164734304Y-102909995D01*
X164685550Y-103010444D01*
X164614310Y-103088050D01*
X164526527Y-103140444D01*
X164428147Y-103165255D01*
X164325114Y-103160114D01*
X164223373Y-103122649D01*
X164214135Y-103117407D01*
X164132761Y-103051114D01*
X164077748Y-102967543D01*
X164049059Y-102873397D01*
X164046661Y-102775376D01*
X164070517Y-102680185D01*
G37*
X164070517Y-102680185D02*
X164120594Y-102594524D01*
X164196855Y-102525098D01*
X164217295Y-102512582D01*
X164315827Y-102475328D01*
X164418827Y-102468367D01*
X164518607Y-102489793D01*
X164607480Y-102537703D01*
X164677759Y-102610190D01*
X164690273Y-102629777D01*
X164725389Y-102712354D01*
X164742812Y-102802743D01*
X164740187Y-102885969D01*
X164734304Y-102909995D01*
X164685550Y-103010444D01*
X164614310Y-103088050D01*
X164526527Y-103140444D01*
X164428147Y-103165255D01*
X164325114Y-103160114D01*
X164223373Y-103122649D01*
X164214135Y-103117407D01*
X164132761Y-103051114D01*
X164077748Y-102967543D01*
X164049059Y-102873397D01*
X164046661Y-102775376D01*
X164070517Y-102680185D01*
G36*
X163087484Y-100279056D02*
G01*
X163153910Y-100196514D01*
X163239990Y-100139457D01*
X163338513Y-100109750D01*
X163442267Y-100109253D01*
X163544040Y-100139831D01*
X163571076Y-100154143D01*
X163646958Y-100214711D01*
X163696037Y-100279056D01*
X163740563Y-100356831D01*
X163751319Y-101528451D01*
X164105441Y-101528451D01*
X164116197Y-100356831D01*
X164160723Y-100279056D01*
X164226375Y-100196758D01*
X164309566Y-100140819D01*
X164403613Y-100111272D01*
X164501832Y-100108147D01*
X164597542Y-100131479D01*
X164684058Y-100181298D01*
X164754698Y-100257636D01*
X164766367Y-100276146D01*
X164813803Y-100356831D01*
X164824559Y-101528451D01*
X165107131Y-101528451D01*
X165117887Y-100356831D01*
X165162413Y-100279056D01*
X165228065Y-100196758D01*
X165311256Y-100140819D01*
X165405303Y-100111272D01*
X165503522Y-100108147D01*
X165599232Y-100131479D01*
X165685748Y-100181298D01*
X165756389Y-100257636D01*
X165768057Y-100276146D01*
X165815493Y-100356831D01*
X165818784Y-101143873D01*
X165819138Y-101309987D01*
X165818818Y-101466380D01*
X165817880Y-101609136D01*
X165816377Y-101734341D01*
X165814367Y-101838079D01*
X165811904Y-101916434D01*
X165809042Y-101965492D01*
X165806983Y-101979855D01*
X165758607Y-102081275D01*
X165684689Y-102161873D01*
X165641975Y-102190963D01*
X165565070Y-102235000D01*
X163293380Y-102235000D01*
X163212695Y-102187564D01*
X163136929Y-102127074D01*
X163087484Y-102062353D01*
X163042958Y-101984578D01*
X163042958Y-100356831D01*
X163087484Y-100279056D01*
G37*
X163087484Y-100279056D02*
X163153910Y-100196514D01*
X163239990Y-100139457D01*
X163338513Y-100109750D01*
X163442267Y-100109253D01*
X163544040Y-100139831D01*
X163571076Y-100154143D01*
X163646958Y-100214711D01*
X163696037Y-100279056D01*
X163740563Y-100356831D01*
X163751319Y-101528451D01*
X164105441Y-101528451D01*
X164116197Y-100356831D01*
X164160723Y-100279056D01*
X164226375Y-100196758D01*
X164309566Y-100140819D01*
X164403613Y-100111272D01*
X164501832Y-100108147D01*
X164597542Y-100131479D01*
X164684058Y-100181298D01*
X164754698Y-100257636D01*
X164766367Y-100276146D01*
X164813803Y-100356831D01*
X164824559Y-101528451D01*
X165107131Y-101528451D01*
X165117887Y-100356831D01*
X165162413Y-100279056D01*
X165228065Y-100196758D01*
X165311256Y-100140819D01*
X165405303Y-100111272D01*
X165503522Y-100108147D01*
X165599232Y-100131479D01*
X165685748Y-100181298D01*
X165756389Y-100257636D01*
X165768057Y-100276146D01*
X165815493Y-100356831D01*
X165818784Y-101143873D01*
X165819138Y-101309987D01*
X165818818Y-101466380D01*
X165817880Y-101609136D01*
X165816377Y-101734341D01*
X165814367Y-101838079D01*
X165811904Y-101916434D01*
X165809042Y-101965492D01*
X165806983Y-101979855D01*
X165758607Y-102081275D01*
X165684689Y-102161873D01*
X165641975Y-102190963D01*
X165565070Y-102235000D01*
X163293380Y-102235000D01*
X163212695Y-102187564D01*
X163136929Y-102127074D01*
X163087484Y-102062353D01*
X163042958Y-101984578D01*
X163042958Y-100356831D01*
X163087484Y-100279056D01*
G36*
X162014244Y-99277366D02*
G01*
X162073397Y-99202937D01*
X162139455Y-99152155D01*
X162220141Y-99104718D01*
X165636620Y-99104718D01*
X165717305Y-99152155D01*
X165798967Y-99218805D01*
X165854103Y-99302673D01*
X165882745Y-99397074D01*
X165884925Y-99495326D01*
X165860676Y-99590746D01*
X165810028Y-99676650D01*
X165733015Y-99746356D01*
X165714395Y-99757798D01*
X165636620Y-99802324D01*
X164156444Y-99807196D01*
X162676267Y-99812069D01*
X162676267Y-103387932D01*
X164156444Y-103392804D01*
X165636620Y-103397676D01*
X165714395Y-103442202D01*
X165789322Y-103503294D01*
X165846319Y-103585623D01*
X165881410Y-103679577D01*
X165890614Y-103775544D01*
X165879092Y-103840136D01*
X165829387Y-103942711D01*
X165754850Y-104023268D01*
X165713524Y-104051245D01*
X165636620Y-104095282D01*
X162220141Y-104095282D01*
X162139455Y-104047846D01*
X162063690Y-103987356D01*
X162014244Y-103922634D01*
X161969718Y-103844859D01*
X161969718Y-99355141D01*
X162014244Y-99277366D01*
G37*
X162014244Y-99277366D02*
X162073397Y-99202937D01*
X162139455Y-99152155D01*
X162220141Y-99104718D01*
X165636620Y-99104718D01*
X165717305Y-99152155D01*
X165798967Y-99218805D01*
X165854103Y-99302673D01*
X165882745Y-99397074D01*
X165884925Y-99495326D01*
X165860676Y-99590746D01*
X165810028Y-99676650D01*
X165733015Y-99746356D01*
X165714395Y-99757798D01*
X165636620Y-99802324D01*
X164156444Y-99807196D01*
X162676267Y-99812069D01*
X162676267Y-103387932D01*
X164156444Y-103392804D01*
X165636620Y-103397676D01*
X165714395Y-103442202D01*
X165789322Y-103503294D01*
X165846319Y-103585623D01*
X165881410Y-103679577D01*
X165890614Y-103775544D01*
X165879092Y-103840136D01*
X165829387Y-103942711D01*
X165754850Y-104023268D01*
X165713524Y-104051245D01*
X165636620Y-104095282D01*
X162220141Y-104095282D01*
X162139455Y-104047846D01*
X162063690Y-103987356D01*
X162014244Y-103922634D01*
X161969718Y-103844859D01*
X161969718Y-99355141D01*
X162014244Y-99277366D01*
G36*
X166307202Y-99277366D02*
G01*
X166372694Y-99195385D01*
X166455821Y-99139616D01*
X166549872Y-99110059D01*
X166648135Y-99106713D01*
X166743899Y-99129579D01*
X166830453Y-99178657D01*
X166901085Y-99253947D01*
X166915755Y-99277366D01*
X166960282Y-99355141D01*
X166963357Y-101573169D01*
X166963625Y-101852759D01*
X166963654Y-102122938D01*
X166963453Y-102381493D01*
X166963034Y-102626210D01*
X166962410Y-102854873D01*
X166961591Y-103065270D01*
X166960588Y-103255185D01*
X166959415Y-103422404D01*
X166958081Y-103564713D01*
X166956599Y-103679898D01*
X166954980Y-103765744D01*
X166953235Y-103820038D01*
X166951555Y-103840136D01*
X166903882Y-103940825D01*
X166830653Y-104020949D01*
X166786764Y-104050724D01*
X166686852Y-104088345D01*
X166582890Y-104094548D01*
X166482292Y-104071313D01*
X166392471Y-104020621D01*
X166320842Y-103944451D01*
X166307202Y-103922634D01*
X166262676Y-103844859D01*
X166262676Y-99355141D01*
X166307202Y-99277366D01*
G37*
X166307202Y-99277366D02*
X166372694Y-99195385D01*
X166455821Y-99139616D01*
X166549872Y-99110059D01*
X166648135Y-99106713D01*
X166743899Y-99129579D01*
X166830453Y-99178657D01*
X166901085Y-99253947D01*
X166915755Y-99277366D01*
X166960282Y-99355141D01*
X166963357Y-101573169D01*
X166963625Y-101852759D01*
X166963654Y-102122938D01*
X166963453Y-102381493D01*
X166963034Y-102626210D01*
X166962410Y-102854873D01*
X166961591Y-103065270D01*
X166960588Y-103255185D01*
X166959415Y-103422404D01*
X166958081Y-103564713D01*
X166956599Y-103679898D01*
X166954980Y-103765744D01*
X166953235Y-103820038D01*
X166951555Y-103840136D01*
X166903882Y-103940825D01*
X166830653Y-104020949D01*
X166786764Y-104050724D01*
X166686852Y-104088345D01*
X166582890Y-104094548D01*
X166482292Y-104071313D01*
X166392471Y-104020621D01*
X166320842Y-103944451D01*
X166307202Y-103922634D01*
X166262676Y-103844859D01*
X166262676Y-99355141D01*
X166307202Y-99277366D01*
D13*
X155006522Y-103438478D02*
G75*
G03X159445000Y-101600000I1838478J1838478D01*
G01*
X155006522Y-99761522D02*
G75*
G02X159445000Y-101600000I1838478J-1838478D01*
G01*
X154995000Y-99800000D02*
X154995000Y-103400000D01*
D14*
X149860000Y-102235000D02*
X137160000Y-102235000D01*
X149860000Y-97155000D02*
X149860000Y-102235000D01*
X137160000Y-97155000D02*
X149860000Y-97155000D01*
X137160000Y-102235000D02*
X137160000Y-97155000D01*
M02*
