G04 #@! TF.GenerationSoftware,KiCad,Pcbnew,5.1.5-52549c5~84~ubuntu18.04.1*
G04 #@! TF.CreationDate,2020-02-09T13:15:16+01:00*
G04 #@! TF.ProjectId,E32CB_R2,45333243-425f-4523-922e-6b696361645f,rev?*
G04 #@! TF.SameCoordinates,Original*
G04 #@! TF.FileFunction,Soldermask,Bot*
G04 #@! TF.FilePolarity,Negative*
%FSLAX46Y46*%
G04 Gerber Fmt 4.6, Leading zero omitted, Abs format (unit mm)*
G04 Created by KiCad (PCBNEW 5.1.5-52549c5~84~ubuntu18.04.1) date 2020-02-09 13:15:16*
%MOMM*%
%LPD*%
G04 APERTURE LIST*
%ADD10C,0.100000*%
G04 APERTURE END LIST*
D10*
G36*
X204089943Y-129146248D02*
G01*
X204645189Y-129376238D01*
X204645190Y-129376239D01*
X205144899Y-129710134D01*
X205569866Y-130135101D01*
X205569867Y-130135103D01*
X205903762Y-130634811D01*
X206133752Y-131190057D01*
X206251000Y-131779501D01*
X206251000Y-132380499D01*
X206133752Y-132969943D01*
X205903762Y-133525189D01*
X205903761Y-133525190D01*
X205569866Y-134024899D01*
X205144899Y-134449866D01*
X204893347Y-134617948D01*
X204645189Y-134783762D01*
X204089943Y-135013752D01*
X203500499Y-135131000D01*
X202899501Y-135131000D01*
X202310057Y-135013752D01*
X201754811Y-134783762D01*
X201506653Y-134617948D01*
X201255101Y-134449866D01*
X200830134Y-134024899D01*
X200496239Y-133525190D01*
X200496238Y-133525189D01*
X200266248Y-132969943D01*
X200149000Y-132380499D01*
X200149000Y-131779501D01*
X200266248Y-131190057D01*
X200496238Y-130634811D01*
X200830133Y-130135103D01*
X200830134Y-130135101D01*
X201255101Y-129710134D01*
X201754810Y-129376239D01*
X201754811Y-129376238D01*
X202310057Y-129146248D01*
X202899501Y-129029000D01*
X203500499Y-129029000D01*
X204089943Y-129146248D01*
G37*
G36*
X92329943Y-129146248D02*
G01*
X92885189Y-129376238D01*
X92885190Y-129376239D01*
X93384899Y-129710134D01*
X93809866Y-130135101D01*
X93809867Y-130135103D01*
X94143762Y-130634811D01*
X94373752Y-131190057D01*
X94491000Y-131779501D01*
X94491000Y-132380499D01*
X94373752Y-132969943D01*
X94143762Y-133525189D01*
X94143761Y-133525190D01*
X93809866Y-134024899D01*
X93384899Y-134449866D01*
X93133347Y-134617948D01*
X92885189Y-134783762D01*
X92329943Y-135013752D01*
X91740499Y-135131000D01*
X91139501Y-135131000D01*
X90550057Y-135013752D01*
X89994811Y-134783762D01*
X89746653Y-134617948D01*
X89495101Y-134449866D01*
X89070134Y-134024899D01*
X88736239Y-133525190D01*
X88736238Y-133525189D01*
X88506248Y-132969943D01*
X88389000Y-132380499D01*
X88389000Y-131779501D01*
X88506248Y-131190057D01*
X88736238Y-130634811D01*
X89070133Y-130135103D01*
X89070134Y-130135101D01*
X89495101Y-129710134D01*
X89994810Y-129376239D01*
X89994811Y-129376238D01*
X90550057Y-129146248D01*
X91139501Y-129029000D01*
X91740499Y-129029000D01*
X92329943Y-129146248D01*
G37*
G36*
X194996000Y-131496000D02*
G01*
X191084000Y-131496000D01*
X191084000Y-127584000D01*
X194996000Y-127584000D01*
X194996000Y-131496000D01*
G37*
G36*
X189916000Y-131496000D02*
G01*
X186004000Y-131496000D01*
X186004000Y-127584000D01*
X189916000Y-127584000D01*
X189916000Y-131496000D01*
G37*
G36*
X103556000Y-131496000D02*
G01*
X99644000Y-131496000D01*
X99644000Y-127584000D01*
X103556000Y-127584000D01*
X103556000Y-131496000D01*
G37*
G36*
X139116000Y-131496000D02*
G01*
X135204000Y-131496000D01*
X135204000Y-127584000D01*
X139116000Y-127584000D01*
X139116000Y-131496000D01*
G37*
G36*
X154356000Y-131496000D02*
G01*
X150444000Y-131496000D01*
X150444000Y-127584000D01*
X154356000Y-127584000D01*
X154356000Y-131496000D01*
G37*
G36*
X159436000Y-131496000D02*
G01*
X155524000Y-131496000D01*
X155524000Y-127584000D01*
X159436000Y-127584000D01*
X159436000Y-131496000D01*
G37*
G36*
X169596000Y-131496000D02*
G01*
X165684000Y-131496000D01*
X165684000Y-127584000D01*
X169596000Y-127584000D01*
X169596000Y-131496000D01*
G37*
G36*
X179756000Y-131496000D02*
G01*
X175844000Y-131496000D01*
X175844000Y-127584000D01*
X179756000Y-127584000D01*
X179756000Y-131496000D01*
G37*
G36*
X184836000Y-131416000D02*
G01*
X180924000Y-131416000D01*
X180924000Y-127504000D01*
X184836000Y-127504000D01*
X184836000Y-131416000D01*
G37*
G36*
X164516000Y-131416000D02*
G01*
X160604000Y-131416000D01*
X160604000Y-127504000D01*
X164516000Y-127504000D01*
X164516000Y-131416000D01*
G37*
G36*
X144196000Y-131416000D02*
G01*
X140284000Y-131416000D01*
X140284000Y-127504000D01*
X144196000Y-127504000D01*
X144196000Y-131416000D01*
G37*
G36*
X134036000Y-131416000D02*
G01*
X130124000Y-131416000D01*
X130124000Y-127504000D01*
X134036000Y-127504000D01*
X134036000Y-131416000D01*
G37*
G36*
X128956000Y-131416000D02*
G01*
X125044000Y-131416000D01*
X125044000Y-127504000D01*
X128956000Y-127504000D01*
X128956000Y-131416000D01*
G37*
G36*
X118796000Y-131416000D02*
G01*
X114884000Y-131416000D01*
X114884000Y-127504000D01*
X118796000Y-127504000D01*
X118796000Y-131416000D01*
G37*
G36*
X113716000Y-131416000D02*
G01*
X109804000Y-131416000D01*
X109804000Y-127504000D01*
X113716000Y-127504000D01*
X113716000Y-131416000D01*
G37*
G36*
X108636000Y-131416000D02*
G01*
X104724000Y-131416000D01*
X104724000Y-127504000D01*
X108636000Y-127504000D01*
X108636000Y-131416000D01*
G37*
G36*
X194996000Y-126496000D02*
G01*
X191084000Y-126496000D01*
X191084000Y-122584000D01*
X194996000Y-122584000D01*
X194996000Y-126496000D01*
G37*
G36*
X189916000Y-126496000D02*
G01*
X186004000Y-126496000D01*
X186004000Y-122584000D01*
X189916000Y-122584000D01*
X189916000Y-126496000D01*
G37*
G36*
X179756000Y-126496000D02*
G01*
X175844000Y-126496000D01*
X175844000Y-122584000D01*
X179756000Y-122584000D01*
X179756000Y-126496000D01*
G37*
G36*
X169596000Y-126496000D02*
G01*
X165684000Y-126496000D01*
X165684000Y-122584000D01*
X169596000Y-122584000D01*
X169596000Y-126496000D01*
G37*
G36*
X159436000Y-126496000D02*
G01*
X155524000Y-126496000D01*
X155524000Y-122584000D01*
X159436000Y-122584000D01*
X159436000Y-126496000D01*
G37*
G36*
X154356000Y-126496000D02*
G01*
X150444000Y-126496000D01*
X150444000Y-122584000D01*
X154356000Y-122584000D01*
X154356000Y-126496000D01*
G37*
G36*
X103556000Y-126496000D02*
G01*
X99644000Y-126496000D01*
X99644000Y-122584000D01*
X103556000Y-122584000D01*
X103556000Y-126496000D01*
G37*
G36*
X139116000Y-126496000D02*
G01*
X135204000Y-126496000D01*
X135204000Y-122584000D01*
X139116000Y-122584000D01*
X139116000Y-126496000D01*
G37*
G36*
X144196000Y-126416000D02*
G01*
X140284000Y-126416000D01*
X140284000Y-122504000D01*
X144196000Y-122504000D01*
X144196000Y-126416000D01*
G37*
G36*
X164516000Y-126416000D02*
G01*
X160604000Y-126416000D01*
X160604000Y-122504000D01*
X164516000Y-122504000D01*
X164516000Y-126416000D01*
G37*
G36*
X134036000Y-126416000D02*
G01*
X130124000Y-126416000D01*
X130124000Y-122504000D01*
X134036000Y-122504000D01*
X134036000Y-126416000D01*
G37*
G36*
X128956000Y-126416000D02*
G01*
X125044000Y-126416000D01*
X125044000Y-122504000D01*
X128956000Y-122504000D01*
X128956000Y-126416000D01*
G37*
G36*
X184836000Y-126416000D02*
G01*
X180924000Y-126416000D01*
X180924000Y-122504000D01*
X184836000Y-122504000D01*
X184836000Y-126416000D01*
G37*
G36*
X118796000Y-126416000D02*
G01*
X114884000Y-126416000D01*
X114884000Y-122504000D01*
X118796000Y-122504000D01*
X118796000Y-126416000D01*
G37*
G36*
X108636000Y-126416000D02*
G01*
X104724000Y-126416000D01*
X104724000Y-122504000D01*
X108636000Y-122504000D01*
X108636000Y-126416000D01*
G37*
G36*
X113716000Y-126416000D02*
G01*
X109804000Y-126416000D01*
X109804000Y-122504000D01*
X113716000Y-122504000D01*
X113716000Y-126416000D01*
G37*
G36*
X205283000Y-99873000D02*
G01*
X203657000Y-99873000D01*
X203657000Y-98247000D01*
X205283000Y-98247000D01*
X205283000Y-99873000D01*
G37*
G36*
X98145331Y-94478211D02*
G01*
X98473092Y-94613974D01*
X98768070Y-94811072D01*
X99018928Y-95061930D01*
X99216026Y-95356908D01*
X99351789Y-95684669D01*
X99421000Y-96032616D01*
X99421000Y-96387384D01*
X99351789Y-96735331D01*
X99216026Y-97063092D01*
X99018928Y-97358070D01*
X98768070Y-97608928D01*
X98473092Y-97806026D01*
X98145331Y-97941789D01*
X97797384Y-98011000D01*
X97442616Y-98011000D01*
X97094669Y-97941789D01*
X96766908Y-97806026D01*
X96471930Y-97608928D01*
X96221072Y-97358070D01*
X96023974Y-97063092D01*
X95888211Y-96735331D01*
X95819000Y-96387384D01*
X95819000Y-96032616D01*
X95888211Y-95684669D01*
X96023974Y-95356908D01*
X96221072Y-95061930D01*
X96471930Y-94811072D01*
X96766908Y-94613974D01*
X97094669Y-94478211D01*
X97442616Y-94409000D01*
X97797384Y-94409000D01*
X98145331Y-94478211D01*
G37*
G36*
X92028674Y-96383465D02*
G01*
X92066367Y-96394899D01*
X92101103Y-96413466D01*
X92131548Y-96438452D01*
X92156534Y-96468897D01*
X92175101Y-96503633D01*
X92186535Y-96541326D01*
X92191000Y-96586661D01*
X92191000Y-97423339D01*
X92186535Y-97468674D01*
X92175101Y-97506367D01*
X92156534Y-97541103D01*
X92131548Y-97571548D01*
X92101103Y-97596534D01*
X92066367Y-97615101D01*
X92028674Y-97626535D01*
X91983339Y-97631000D01*
X90896661Y-97631000D01*
X90851326Y-97626535D01*
X90813633Y-97615101D01*
X90778897Y-97596534D01*
X90748452Y-97571548D01*
X90723466Y-97541103D01*
X90704899Y-97506367D01*
X90693465Y-97468674D01*
X90689000Y-97423339D01*
X90689000Y-96586661D01*
X90693465Y-96541326D01*
X90704899Y-96503633D01*
X90723466Y-96468897D01*
X90748452Y-96438452D01*
X90778897Y-96413466D01*
X90813633Y-96394899D01*
X90851326Y-96383465D01*
X90896661Y-96379000D01*
X91983339Y-96379000D01*
X92028674Y-96383465D01*
G37*
G36*
X205283000Y-97333000D02*
G01*
X203657000Y-97333000D01*
X203657000Y-95707000D01*
X205283000Y-95707000D01*
X205283000Y-97333000D01*
G37*
G36*
X163148674Y-95644465D02*
G01*
X163186367Y-95655899D01*
X163221103Y-95674466D01*
X163251548Y-95699452D01*
X163276534Y-95729897D01*
X163295101Y-95764633D01*
X163306535Y-95802326D01*
X163311000Y-95847661D01*
X163311000Y-96684339D01*
X163306535Y-96729674D01*
X163295101Y-96767367D01*
X163276534Y-96802103D01*
X163251548Y-96832548D01*
X163221103Y-96857534D01*
X163186367Y-96876101D01*
X163148674Y-96887535D01*
X163103339Y-96892000D01*
X162016661Y-96892000D01*
X161971326Y-96887535D01*
X161933633Y-96876101D01*
X161898897Y-96857534D01*
X161868452Y-96832548D01*
X161843466Y-96802103D01*
X161824899Y-96767367D01*
X161813465Y-96729674D01*
X161809000Y-96684339D01*
X161809000Y-95847661D01*
X161813465Y-95802326D01*
X161824899Y-95764633D01*
X161843466Y-95729897D01*
X161868452Y-95699452D01*
X161898897Y-95674466D01*
X161933633Y-95655899D01*
X161971326Y-95644465D01*
X162016661Y-95640000D01*
X163103339Y-95640000D01*
X163148674Y-95644465D01*
G37*
G36*
X166704674Y-95616965D02*
G01*
X166742367Y-95628399D01*
X166777103Y-95646966D01*
X166807548Y-95671952D01*
X166832534Y-95702397D01*
X166851101Y-95737133D01*
X166862535Y-95774826D01*
X166867000Y-95820161D01*
X166867000Y-96656839D01*
X166862535Y-96702174D01*
X166851101Y-96739867D01*
X166832534Y-96774603D01*
X166807548Y-96805048D01*
X166777103Y-96830034D01*
X166742367Y-96848601D01*
X166704674Y-96860035D01*
X166659339Y-96864500D01*
X165572661Y-96864500D01*
X165527326Y-96860035D01*
X165489633Y-96848601D01*
X165454897Y-96830034D01*
X165424452Y-96805048D01*
X165399466Y-96774603D01*
X165380899Y-96739867D01*
X165369465Y-96702174D01*
X165365000Y-96656839D01*
X165365000Y-95820161D01*
X165369465Y-95774826D01*
X165380899Y-95737133D01*
X165399466Y-95702397D01*
X165424452Y-95671952D01*
X165454897Y-95646966D01*
X165489633Y-95628399D01*
X165527326Y-95616965D01*
X165572661Y-95612500D01*
X166659339Y-95612500D01*
X166704674Y-95616965D01*
G37*
G36*
X188040674Y-95616965D02*
G01*
X188078367Y-95628399D01*
X188113103Y-95646966D01*
X188143548Y-95671952D01*
X188168534Y-95702397D01*
X188187101Y-95737133D01*
X188198535Y-95774826D01*
X188203000Y-95820161D01*
X188203000Y-96656839D01*
X188198535Y-96702174D01*
X188187101Y-96739867D01*
X188168534Y-96774603D01*
X188143548Y-96805048D01*
X188113103Y-96830034D01*
X188078367Y-96848601D01*
X188040674Y-96860035D01*
X187995339Y-96864500D01*
X186908661Y-96864500D01*
X186863326Y-96860035D01*
X186825633Y-96848601D01*
X186790897Y-96830034D01*
X186760452Y-96805048D01*
X186735466Y-96774603D01*
X186716899Y-96739867D01*
X186705465Y-96702174D01*
X186701000Y-96656839D01*
X186701000Y-95820161D01*
X186705465Y-95774826D01*
X186716899Y-95737133D01*
X186735466Y-95702397D01*
X186760452Y-95671952D01*
X186790897Y-95646966D01*
X186825633Y-95628399D01*
X186863326Y-95616965D01*
X186908661Y-95612500D01*
X187995339Y-95612500D01*
X188040674Y-95616965D01*
G37*
G36*
X184484674Y-95616965D02*
G01*
X184522367Y-95628399D01*
X184557103Y-95646966D01*
X184587548Y-95671952D01*
X184612534Y-95702397D01*
X184631101Y-95737133D01*
X184642535Y-95774826D01*
X184647000Y-95820161D01*
X184647000Y-96656839D01*
X184642535Y-96702174D01*
X184631101Y-96739867D01*
X184612534Y-96774603D01*
X184587548Y-96805048D01*
X184557103Y-96830034D01*
X184522367Y-96848601D01*
X184484674Y-96860035D01*
X184439339Y-96864500D01*
X183352661Y-96864500D01*
X183307326Y-96860035D01*
X183269633Y-96848601D01*
X183234897Y-96830034D01*
X183204452Y-96805048D01*
X183179466Y-96774603D01*
X183160899Y-96739867D01*
X183149465Y-96702174D01*
X183145000Y-96656839D01*
X183145000Y-95820161D01*
X183149465Y-95774826D01*
X183160899Y-95737133D01*
X183179466Y-95702397D01*
X183204452Y-95671952D01*
X183234897Y-95646966D01*
X183269633Y-95628399D01*
X183307326Y-95616965D01*
X183352661Y-95612500D01*
X184439339Y-95612500D01*
X184484674Y-95616965D01*
G37*
G36*
X180928674Y-95616965D02*
G01*
X180966367Y-95628399D01*
X181001103Y-95646966D01*
X181031548Y-95671952D01*
X181056534Y-95702397D01*
X181075101Y-95737133D01*
X181086535Y-95774826D01*
X181091000Y-95820161D01*
X181091000Y-96656839D01*
X181086535Y-96702174D01*
X181075101Y-96739867D01*
X181056534Y-96774603D01*
X181031548Y-96805048D01*
X181001103Y-96830034D01*
X180966367Y-96848601D01*
X180928674Y-96860035D01*
X180883339Y-96864500D01*
X179796661Y-96864500D01*
X179751326Y-96860035D01*
X179713633Y-96848601D01*
X179678897Y-96830034D01*
X179648452Y-96805048D01*
X179623466Y-96774603D01*
X179604899Y-96739867D01*
X179593465Y-96702174D01*
X179589000Y-96656839D01*
X179589000Y-95820161D01*
X179593465Y-95774826D01*
X179604899Y-95737133D01*
X179623466Y-95702397D01*
X179648452Y-95671952D01*
X179678897Y-95646966D01*
X179713633Y-95628399D01*
X179751326Y-95616965D01*
X179796661Y-95612500D01*
X180883339Y-95612500D01*
X180928674Y-95616965D01*
G37*
G36*
X177372674Y-95616965D02*
G01*
X177410367Y-95628399D01*
X177445103Y-95646966D01*
X177475548Y-95671952D01*
X177500534Y-95702397D01*
X177519101Y-95737133D01*
X177530535Y-95774826D01*
X177535000Y-95820161D01*
X177535000Y-96656839D01*
X177530535Y-96702174D01*
X177519101Y-96739867D01*
X177500534Y-96774603D01*
X177475548Y-96805048D01*
X177445103Y-96830034D01*
X177410367Y-96848601D01*
X177372674Y-96860035D01*
X177327339Y-96864500D01*
X176240661Y-96864500D01*
X176195326Y-96860035D01*
X176157633Y-96848601D01*
X176122897Y-96830034D01*
X176092452Y-96805048D01*
X176067466Y-96774603D01*
X176048899Y-96739867D01*
X176037465Y-96702174D01*
X176033000Y-96656839D01*
X176033000Y-95820161D01*
X176037465Y-95774826D01*
X176048899Y-95737133D01*
X176067466Y-95702397D01*
X176092452Y-95671952D01*
X176122897Y-95646966D01*
X176157633Y-95628399D01*
X176195326Y-95616965D01*
X176240661Y-95612500D01*
X177327339Y-95612500D01*
X177372674Y-95616965D01*
G37*
G36*
X173816674Y-95616965D02*
G01*
X173854367Y-95628399D01*
X173889103Y-95646966D01*
X173919548Y-95671952D01*
X173944534Y-95702397D01*
X173963101Y-95737133D01*
X173974535Y-95774826D01*
X173979000Y-95820161D01*
X173979000Y-96656839D01*
X173974535Y-96702174D01*
X173963101Y-96739867D01*
X173944534Y-96774603D01*
X173919548Y-96805048D01*
X173889103Y-96830034D01*
X173854367Y-96848601D01*
X173816674Y-96860035D01*
X173771339Y-96864500D01*
X172684661Y-96864500D01*
X172639326Y-96860035D01*
X172601633Y-96848601D01*
X172566897Y-96830034D01*
X172536452Y-96805048D01*
X172511466Y-96774603D01*
X172492899Y-96739867D01*
X172481465Y-96702174D01*
X172477000Y-96656839D01*
X172477000Y-95820161D01*
X172481465Y-95774826D01*
X172492899Y-95737133D01*
X172511466Y-95702397D01*
X172536452Y-95671952D01*
X172566897Y-95646966D01*
X172601633Y-95628399D01*
X172639326Y-95616965D01*
X172684661Y-95612500D01*
X173771339Y-95612500D01*
X173816674Y-95616965D01*
G37*
G36*
X170260674Y-95616965D02*
G01*
X170298367Y-95628399D01*
X170333103Y-95646966D01*
X170363548Y-95671952D01*
X170388534Y-95702397D01*
X170407101Y-95737133D01*
X170418535Y-95774826D01*
X170423000Y-95820161D01*
X170423000Y-96656839D01*
X170418535Y-96702174D01*
X170407101Y-96739867D01*
X170388534Y-96774603D01*
X170363548Y-96805048D01*
X170333103Y-96830034D01*
X170298367Y-96848601D01*
X170260674Y-96860035D01*
X170215339Y-96864500D01*
X169128661Y-96864500D01*
X169083326Y-96860035D01*
X169045633Y-96848601D01*
X169010897Y-96830034D01*
X168980452Y-96805048D01*
X168955466Y-96774603D01*
X168936899Y-96739867D01*
X168925465Y-96702174D01*
X168921000Y-96656839D01*
X168921000Y-95820161D01*
X168925465Y-95774826D01*
X168936899Y-95737133D01*
X168955466Y-95702397D01*
X168980452Y-95671952D01*
X169010897Y-95646966D01*
X169045633Y-95628399D01*
X169083326Y-95616965D01*
X169128661Y-95612500D01*
X170215339Y-95612500D01*
X170260674Y-95616965D01*
G37*
G36*
X92028674Y-94333465D02*
G01*
X92066367Y-94344899D01*
X92101103Y-94363466D01*
X92131548Y-94388452D01*
X92156534Y-94418897D01*
X92175101Y-94453633D01*
X92186535Y-94491326D01*
X92191000Y-94536661D01*
X92191000Y-95373339D01*
X92186535Y-95418674D01*
X92175101Y-95456367D01*
X92156534Y-95491103D01*
X92131548Y-95521548D01*
X92101103Y-95546534D01*
X92066367Y-95565101D01*
X92028674Y-95576535D01*
X91983339Y-95581000D01*
X90896661Y-95581000D01*
X90851326Y-95576535D01*
X90813633Y-95565101D01*
X90778897Y-95546534D01*
X90748452Y-95521548D01*
X90723466Y-95491103D01*
X90704899Y-95456367D01*
X90693465Y-95418674D01*
X90689000Y-95373339D01*
X90689000Y-94536661D01*
X90693465Y-94491326D01*
X90704899Y-94453633D01*
X90723466Y-94418897D01*
X90748452Y-94388452D01*
X90778897Y-94363466D01*
X90813633Y-94344899D01*
X90851326Y-94333465D01*
X90896661Y-94329000D01*
X91983339Y-94329000D01*
X92028674Y-94333465D01*
G37*
G36*
X163148674Y-93594465D02*
G01*
X163186367Y-93605899D01*
X163221103Y-93624466D01*
X163251548Y-93649452D01*
X163276534Y-93679897D01*
X163295101Y-93714633D01*
X163306535Y-93752326D01*
X163311000Y-93797661D01*
X163311000Y-94634339D01*
X163306535Y-94679674D01*
X163295101Y-94717367D01*
X163276534Y-94752103D01*
X163251548Y-94782548D01*
X163221103Y-94807534D01*
X163186367Y-94826101D01*
X163148674Y-94837535D01*
X163103339Y-94842000D01*
X162016661Y-94842000D01*
X161971326Y-94837535D01*
X161933633Y-94826101D01*
X161898897Y-94807534D01*
X161868452Y-94782548D01*
X161843466Y-94752103D01*
X161824899Y-94717367D01*
X161813465Y-94679674D01*
X161809000Y-94634339D01*
X161809000Y-93797661D01*
X161813465Y-93752326D01*
X161824899Y-93714633D01*
X161843466Y-93679897D01*
X161868452Y-93649452D01*
X161898897Y-93624466D01*
X161933633Y-93605899D01*
X161971326Y-93594465D01*
X162016661Y-93590000D01*
X163103339Y-93590000D01*
X163148674Y-93594465D01*
G37*
G36*
X173816674Y-93566965D02*
G01*
X173854367Y-93578399D01*
X173889103Y-93596966D01*
X173919548Y-93621952D01*
X173944534Y-93652397D01*
X173963101Y-93687133D01*
X173974535Y-93724826D01*
X173979000Y-93770161D01*
X173979000Y-94606839D01*
X173974535Y-94652174D01*
X173963101Y-94689867D01*
X173944534Y-94724603D01*
X173919548Y-94755048D01*
X173889103Y-94780034D01*
X173854367Y-94798601D01*
X173816674Y-94810035D01*
X173771339Y-94814500D01*
X172684661Y-94814500D01*
X172639326Y-94810035D01*
X172601633Y-94798601D01*
X172566897Y-94780034D01*
X172536452Y-94755048D01*
X172511466Y-94724603D01*
X172492899Y-94689867D01*
X172481465Y-94652174D01*
X172477000Y-94606839D01*
X172477000Y-93770161D01*
X172481465Y-93724826D01*
X172492899Y-93687133D01*
X172511466Y-93652397D01*
X172536452Y-93621952D01*
X172566897Y-93596966D01*
X172601633Y-93578399D01*
X172639326Y-93566965D01*
X172684661Y-93562500D01*
X173771339Y-93562500D01*
X173816674Y-93566965D01*
G37*
G36*
X177372674Y-93566965D02*
G01*
X177410367Y-93578399D01*
X177445103Y-93596966D01*
X177475548Y-93621952D01*
X177500534Y-93652397D01*
X177519101Y-93687133D01*
X177530535Y-93724826D01*
X177535000Y-93770161D01*
X177535000Y-94606839D01*
X177530535Y-94652174D01*
X177519101Y-94689867D01*
X177500534Y-94724603D01*
X177475548Y-94755048D01*
X177445103Y-94780034D01*
X177410367Y-94798601D01*
X177372674Y-94810035D01*
X177327339Y-94814500D01*
X176240661Y-94814500D01*
X176195326Y-94810035D01*
X176157633Y-94798601D01*
X176122897Y-94780034D01*
X176092452Y-94755048D01*
X176067466Y-94724603D01*
X176048899Y-94689867D01*
X176037465Y-94652174D01*
X176033000Y-94606839D01*
X176033000Y-93770161D01*
X176037465Y-93724826D01*
X176048899Y-93687133D01*
X176067466Y-93652397D01*
X176092452Y-93621952D01*
X176122897Y-93596966D01*
X176157633Y-93578399D01*
X176195326Y-93566965D01*
X176240661Y-93562500D01*
X177327339Y-93562500D01*
X177372674Y-93566965D01*
G37*
G36*
X170260674Y-93566965D02*
G01*
X170298367Y-93578399D01*
X170333103Y-93596966D01*
X170363548Y-93621952D01*
X170388534Y-93652397D01*
X170407101Y-93687133D01*
X170418535Y-93724826D01*
X170423000Y-93770161D01*
X170423000Y-94606839D01*
X170418535Y-94652174D01*
X170407101Y-94689867D01*
X170388534Y-94724603D01*
X170363548Y-94755048D01*
X170333103Y-94780034D01*
X170298367Y-94798601D01*
X170260674Y-94810035D01*
X170215339Y-94814500D01*
X169128661Y-94814500D01*
X169083326Y-94810035D01*
X169045633Y-94798601D01*
X169010897Y-94780034D01*
X168980452Y-94755048D01*
X168955466Y-94724603D01*
X168936899Y-94689867D01*
X168925465Y-94652174D01*
X168921000Y-94606839D01*
X168921000Y-93770161D01*
X168925465Y-93724826D01*
X168936899Y-93687133D01*
X168955466Y-93652397D01*
X168980452Y-93621952D01*
X169010897Y-93596966D01*
X169045633Y-93578399D01*
X169083326Y-93566965D01*
X169128661Y-93562500D01*
X170215339Y-93562500D01*
X170260674Y-93566965D01*
G37*
G36*
X184484674Y-93566965D02*
G01*
X184522367Y-93578399D01*
X184557103Y-93596966D01*
X184587548Y-93621952D01*
X184612534Y-93652397D01*
X184631101Y-93687133D01*
X184642535Y-93724826D01*
X184647000Y-93770161D01*
X184647000Y-94606839D01*
X184642535Y-94652174D01*
X184631101Y-94689867D01*
X184612534Y-94724603D01*
X184587548Y-94755048D01*
X184557103Y-94780034D01*
X184522367Y-94798601D01*
X184484674Y-94810035D01*
X184439339Y-94814500D01*
X183352661Y-94814500D01*
X183307326Y-94810035D01*
X183269633Y-94798601D01*
X183234897Y-94780034D01*
X183204452Y-94755048D01*
X183179466Y-94724603D01*
X183160899Y-94689867D01*
X183149465Y-94652174D01*
X183145000Y-94606839D01*
X183145000Y-93770161D01*
X183149465Y-93724826D01*
X183160899Y-93687133D01*
X183179466Y-93652397D01*
X183204452Y-93621952D01*
X183234897Y-93596966D01*
X183269633Y-93578399D01*
X183307326Y-93566965D01*
X183352661Y-93562500D01*
X184439339Y-93562500D01*
X184484674Y-93566965D01*
G37*
G36*
X166704674Y-93566965D02*
G01*
X166742367Y-93578399D01*
X166777103Y-93596966D01*
X166807548Y-93621952D01*
X166832534Y-93652397D01*
X166851101Y-93687133D01*
X166862535Y-93724826D01*
X166867000Y-93770161D01*
X166867000Y-94606839D01*
X166862535Y-94652174D01*
X166851101Y-94689867D01*
X166832534Y-94724603D01*
X166807548Y-94755048D01*
X166777103Y-94780034D01*
X166742367Y-94798601D01*
X166704674Y-94810035D01*
X166659339Y-94814500D01*
X165572661Y-94814500D01*
X165527326Y-94810035D01*
X165489633Y-94798601D01*
X165454897Y-94780034D01*
X165424452Y-94755048D01*
X165399466Y-94724603D01*
X165380899Y-94689867D01*
X165369465Y-94652174D01*
X165365000Y-94606839D01*
X165365000Y-93770161D01*
X165369465Y-93724826D01*
X165380899Y-93687133D01*
X165399466Y-93652397D01*
X165424452Y-93621952D01*
X165454897Y-93596966D01*
X165489633Y-93578399D01*
X165527326Y-93566965D01*
X165572661Y-93562500D01*
X166659339Y-93562500D01*
X166704674Y-93566965D01*
G37*
G36*
X188040674Y-93566965D02*
G01*
X188078367Y-93578399D01*
X188113103Y-93596966D01*
X188143548Y-93621952D01*
X188168534Y-93652397D01*
X188187101Y-93687133D01*
X188198535Y-93724826D01*
X188203000Y-93770161D01*
X188203000Y-94606839D01*
X188198535Y-94652174D01*
X188187101Y-94689867D01*
X188168534Y-94724603D01*
X188143548Y-94755048D01*
X188113103Y-94780034D01*
X188078367Y-94798601D01*
X188040674Y-94810035D01*
X187995339Y-94814500D01*
X186908661Y-94814500D01*
X186863326Y-94810035D01*
X186825633Y-94798601D01*
X186790897Y-94780034D01*
X186760452Y-94755048D01*
X186735466Y-94724603D01*
X186716899Y-94689867D01*
X186705465Y-94652174D01*
X186701000Y-94606839D01*
X186701000Y-93770161D01*
X186705465Y-93724826D01*
X186716899Y-93687133D01*
X186735466Y-93652397D01*
X186760452Y-93621952D01*
X186790897Y-93596966D01*
X186825633Y-93578399D01*
X186863326Y-93566965D01*
X186908661Y-93562500D01*
X187995339Y-93562500D01*
X188040674Y-93566965D01*
G37*
G36*
X180928674Y-93566965D02*
G01*
X180966367Y-93578399D01*
X181001103Y-93596966D01*
X181031548Y-93621952D01*
X181056534Y-93652397D01*
X181075101Y-93687133D01*
X181086535Y-93724826D01*
X181091000Y-93770161D01*
X181091000Y-94606839D01*
X181086535Y-94652174D01*
X181075101Y-94689867D01*
X181056534Y-94724603D01*
X181031548Y-94755048D01*
X181001103Y-94780034D01*
X180966367Y-94798601D01*
X180928674Y-94810035D01*
X180883339Y-94814500D01*
X179796661Y-94814500D01*
X179751326Y-94810035D01*
X179713633Y-94798601D01*
X179678897Y-94780034D01*
X179648452Y-94755048D01*
X179623466Y-94724603D01*
X179604899Y-94689867D01*
X179593465Y-94652174D01*
X179589000Y-94606839D01*
X179589000Y-93770161D01*
X179593465Y-93724826D01*
X179604899Y-93687133D01*
X179623466Y-93652397D01*
X179648452Y-93621952D01*
X179678897Y-93596966D01*
X179713633Y-93578399D01*
X179751326Y-93566965D01*
X179796661Y-93562500D01*
X180883339Y-93562500D01*
X180928674Y-93566965D01*
G37*
G36*
X205283000Y-94793000D02*
G01*
X203657000Y-94793000D01*
X203657000Y-93167000D01*
X205283000Y-93167000D01*
X205283000Y-94793000D01*
G37*
G36*
X112468674Y-92979465D02*
G01*
X112506367Y-92990899D01*
X112541103Y-93009466D01*
X112571548Y-93034452D01*
X112596534Y-93064897D01*
X112615101Y-93099633D01*
X112626535Y-93137326D01*
X112631000Y-93182661D01*
X112631000Y-94269339D01*
X112626535Y-94314674D01*
X112615101Y-94352367D01*
X112596534Y-94387103D01*
X112571548Y-94417548D01*
X112541103Y-94442534D01*
X112506367Y-94461101D01*
X112468674Y-94472535D01*
X112423339Y-94477000D01*
X111586661Y-94477000D01*
X111541326Y-94472535D01*
X111503633Y-94461101D01*
X111468897Y-94442534D01*
X111438452Y-94417548D01*
X111413466Y-94387103D01*
X111394899Y-94352367D01*
X111383465Y-94314674D01*
X111379000Y-94269339D01*
X111379000Y-93182661D01*
X111383465Y-93137326D01*
X111394899Y-93099633D01*
X111413466Y-93064897D01*
X111438452Y-93034452D01*
X111468897Y-93009466D01*
X111503633Y-92990899D01*
X111541326Y-92979465D01*
X111586661Y-92975000D01*
X112423339Y-92975000D01*
X112468674Y-92979465D01*
G37*
G36*
X114518674Y-92979465D02*
G01*
X114556367Y-92990899D01*
X114591103Y-93009466D01*
X114621548Y-93034452D01*
X114646534Y-93064897D01*
X114665101Y-93099633D01*
X114676535Y-93137326D01*
X114681000Y-93182661D01*
X114681000Y-94269339D01*
X114676535Y-94314674D01*
X114665101Y-94352367D01*
X114646534Y-94387103D01*
X114621548Y-94417548D01*
X114591103Y-94442534D01*
X114556367Y-94461101D01*
X114518674Y-94472535D01*
X114473339Y-94477000D01*
X113636661Y-94477000D01*
X113591326Y-94472535D01*
X113553633Y-94461101D01*
X113518897Y-94442534D01*
X113488452Y-94417548D01*
X113463466Y-94387103D01*
X113444899Y-94352367D01*
X113433465Y-94314674D01*
X113429000Y-94269339D01*
X113429000Y-93182661D01*
X113433465Y-93137326D01*
X113444899Y-93099633D01*
X113463466Y-93064897D01*
X113488452Y-93034452D01*
X113518897Y-93009466D01*
X113553633Y-92990899D01*
X113591326Y-92979465D01*
X113636661Y-92975000D01*
X114473339Y-92975000D01*
X114518674Y-92979465D01*
G37*
G36*
X120850674Y-92725465D02*
G01*
X120888367Y-92736899D01*
X120923103Y-92755466D01*
X120953548Y-92780452D01*
X120978534Y-92810897D01*
X120997101Y-92845633D01*
X121008535Y-92883326D01*
X121013000Y-92928661D01*
X121013000Y-94015339D01*
X121008535Y-94060674D01*
X120997101Y-94098367D01*
X120978534Y-94133103D01*
X120953548Y-94163548D01*
X120923103Y-94188534D01*
X120888367Y-94207101D01*
X120850674Y-94218535D01*
X120805339Y-94223000D01*
X119968661Y-94223000D01*
X119923326Y-94218535D01*
X119885633Y-94207101D01*
X119850897Y-94188534D01*
X119820452Y-94163548D01*
X119795466Y-94133103D01*
X119776899Y-94098367D01*
X119765465Y-94060674D01*
X119761000Y-94015339D01*
X119761000Y-92928661D01*
X119765465Y-92883326D01*
X119776899Y-92845633D01*
X119795466Y-92810897D01*
X119820452Y-92780452D01*
X119850897Y-92755466D01*
X119885633Y-92736899D01*
X119923326Y-92725465D01*
X119968661Y-92721000D01*
X120805339Y-92721000D01*
X120850674Y-92725465D01*
G37*
G36*
X122900674Y-92725465D02*
G01*
X122938367Y-92736899D01*
X122973103Y-92755466D01*
X123003548Y-92780452D01*
X123028534Y-92810897D01*
X123047101Y-92845633D01*
X123058535Y-92883326D01*
X123063000Y-92928661D01*
X123063000Y-94015339D01*
X123058535Y-94060674D01*
X123047101Y-94098367D01*
X123028534Y-94133103D01*
X123003548Y-94163548D01*
X122973103Y-94188534D01*
X122938367Y-94207101D01*
X122900674Y-94218535D01*
X122855339Y-94223000D01*
X122018661Y-94223000D01*
X121973326Y-94218535D01*
X121935633Y-94207101D01*
X121900897Y-94188534D01*
X121870452Y-94163548D01*
X121845466Y-94133103D01*
X121826899Y-94098367D01*
X121815465Y-94060674D01*
X121811000Y-94015339D01*
X121811000Y-92928661D01*
X121815465Y-92883326D01*
X121826899Y-92845633D01*
X121845466Y-92810897D01*
X121870452Y-92780452D01*
X121900897Y-92755466D01*
X121935633Y-92736899D01*
X121973326Y-92725465D01*
X122018661Y-92721000D01*
X122855339Y-92721000D01*
X122900674Y-92725465D01*
G37*
G36*
X100443512Y-90543927D02*
G01*
X100592812Y-90573624D01*
X100756784Y-90641544D01*
X100904354Y-90740147D01*
X101029853Y-90865646D01*
X101128456Y-91013216D01*
X101188523Y-91158229D01*
X101200068Y-91179829D01*
X101215613Y-91198771D01*
X101234555Y-91214316D01*
X101256166Y-91225867D01*
X101279615Y-91232980D01*
X101304001Y-91235382D01*
X101328387Y-91232980D01*
X101351836Y-91225867D01*
X101373447Y-91214316D01*
X101392389Y-91198771D01*
X101407934Y-91179829D01*
X101419485Y-91158218D01*
X101426598Y-91134769D01*
X101429000Y-91110383D01*
X101429000Y-90539000D01*
X103231000Y-90539000D01*
X103231000Y-92341000D01*
X101429000Y-92341000D01*
X101429000Y-91769617D01*
X101426598Y-91745231D01*
X101419485Y-91721782D01*
X101407934Y-91700171D01*
X101392389Y-91681229D01*
X101373447Y-91665684D01*
X101351836Y-91654133D01*
X101328387Y-91647020D01*
X101304001Y-91644618D01*
X101279615Y-91647020D01*
X101256166Y-91654133D01*
X101234555Y-91665684D01*
X101215613Y-91681229D01*
X101200068Y-91700171D01*
X101188523Y-91721771D01*
X101128456Y-91866784D01*
X101029853Y-92014354D01*
X100904354Y-92139853D01*
X100756784Y-92238456D01*
X100592812Y-92306376D01*
X100443512Y-92336073D01*
X100418742Y-92341000D01*
X100241258Y-92341000D01*
X100216488Y-92336073D01*
X100067188Y-92306376D01*
X99903216Y-92238456D01*
X99755646Y-92139853D01*
X99630147Y-92014354D01*
X99531544Y-91866784D01*
X99463624Y-91702812D01*
X99429000Y-91528741D01*
X99429000Y-91351259D01*
X99463624Y-91177188D01*
X99531544Y-91013216D01*
X99630147Y-90865646D01*
X99755646Y-90740147D01*
X99903216Y-90641544D01*
X100067188Y-90573624D01*
X100216488Y-90543927D01*
X100241258Y-90539000D01*
X100418742Y-90539000D01*
X100443512Y-90543927D01*
G37*
G36*
X205283000Y-92253000D02*
G01*
X203657000Y-92253000D01*
X203657000Y-90627000D01*
X205283000Y-90627000D01*
X205283000Y-92253000D01*
G37*
G36*
X124121500Y-90967000D02*
G01*
X119519500Y-90967000D01*
X119519500Y-88865000D01*
X124121500Y-88865000D01*
X124121500Y-90967000D01*
G37*
G36*
X115621500Y-90967000D02*
G01*
X111019500Y-90967000D01*
X111019500Y-88865000D01*
X115621500Y-88865000D01*
X115621500Y-90967000D01*
G37*
G36*
X100443512Y-88043927D02*
G01*
X100592812Y-88073624D01*
X100756784Y-88141544D01*
X100904354Y-88240147D01*
X101029853Y-88365646D01*
X101128456Y-88513216D01*
X101196376Y-88677188D01*
X101207405Y-88732638D01*
X101214516Y-88756078D01*
X101226067Y-88777689D01*
X101241613Y-88796631D01*
X101260555Y-88812176D01*
X101282165Y-88823727D01*
X101305614Y-88830840D01*
X101330000Y-88833242D01*
X101354387Y-88830840D01*
X101377835Y-88823727D01*
X101399446Y-88812176D01*
X101418388Y-88796630D01*
X101433933Y-88777688D01*
X101445484Y-88756078D01*
X101452595Y-88732638D01*
X101463624Y-88677188D01*
X101531544Y-88513216D01*
X101630147Y-88365646D01*
X101755646Y-88240147D01*
X101903216Y-88141544D01*
X102067188Y-88073624D01*
X102216488Y-88043927D01*
X102241258Y-88039000D01*
X102418742Y-88039000D01*
X102443512Y-88043927D01*
X102592812Y-88073624D01*
X102756784Y-88141544D01*
X102904354Y-88240147D01*
X103029853Y-88365646D01*
X103128456Y-88513216D01*
X103196376Y-88677188D01*
X103231000Y-88851259D01*
X103231000Y-89028741D01*
X103196376Y-89202812D01*
X103128456Y-89366784D01*
X103029853Y-89514354D01*
X102904354Y-89639853D01*
X102756784Y-89738456D01*
X102592812Y-89806376D01*
X102443512Y-89836073D01*
X102418742Y-89841000D01*
X102241258Y-89841000D01*
X102216488Y-89836073D01*
X102067188Y-89806376D01*
X101903216Y-89738456D01*
X101755646Y-89639853D01*
X101630147Y-89514354D01*
X101531544Y-89366784D01*
X101463624Y-89202812D01*
X101452595Y-89147362D01*
X101445484Y-89123922D01*
X101433933Y-89102311D01*
X101418387Y-89083369D01*
X101399445Y-89067824D01*
X101377835Y-89056273D01*
X101354386Y-89049160D01*
X101330000Y-89046758D01*
X101305613Y-89049160D01*
X101282165Y-89056273D01*
X101260554Y-89067824D01*
X101241612Y-89083370D01*
X101226067Y-89102312D01*
X101214516Y-89123922D01*
X101207405Y-89147362D01*
X101196376Y-89202812D01*
X101128456Y-89366784D01*
X101029853Y-89514354D01*
X100904354Y-89639853D01*
X100756784Y-89738456D01*
X100592812Y-89806376D01*
X100443512Y-89836073D01*
X100418742Y-89841000D01*
X100241258Y-89841000D01*
X100216488Y-89836073D01*
X100067188Y-89806376D01*
X99903216Y-89738456D01*
X99755646Y-89639853D01*
X99630147Y-89514354D01*
X99531544Y-89366784D01*
X99463624Y-89202812D01*
X99429000Y-89028741D01*
X99429000Y-88851259D01*
X99463624Y-88677188D01*
X99531544Y-88513216D01*
X99630147Y-88365646D01*
X99755646Y-88240147D01*
X99903216Y-88141544D01*
X100067188Y-88073624D01*
X100216488Y-88043927D01*
X100241258Y-88039000D01*
X100418742Y-88039000D01*
X100443512Y-88043927D01*
G37*
G36*
X93035781Y-88203295D02*
G01*
X93071816Y-88214227D01*
X93105024Y-88231977D01*
X93134134Y-88255866D01*
X93158023Y-88284976D01*
X93175773Y-88318184D01*
X93186705Y-88354219D01*
X93191000Y-88397831D01*
X93191000Y-89402169D01*
X93186705Y-89445781D01*
X93175773Y-89481816D01*
X93158023Y-89515024D01*
X93134134Y-89544134D01*
X93105024Y-89568023D01*
X93071816Y-89585773D01*
X93035781Y-89596705D01*
X92992169Y-89601000D01*
X89887831Y-89601000D01*
X89844219Y-89596705D01*
X89808184Y-89585773D01*
X89774976Y-89568023D01*
X89745866Y-89544134D01*
X89721977Y-89515024D01*
X89704227Y-89481816D01*
X89693295Y-89445781D01*
X89689000Y-89402169D01*
X89689000Y-88397831D01*
X89693295Y-88354219D01*
X89704227Y-88318184D01*
X89721977Y-88284976D01*
X89745866Y-88255866D01*
X89774976Y-88231977D01*
X89808184Y-88214227D01*
X89844219Y-88203295D01*
X89887831Y-88199000D01*
X92992169Y-88199000D01*
X93035781Y-88203295D01*
G37*
G36*
X188461000Y-88291000D02*
G01*
X187459000Y-88291000D01*
X187459000Y-86189000D01*
X188461000Y-86189000D01*
X188461000Y-88291000D01*
G37*
G36*
X185921000Y-88291000D02*
G01*
X184919000Y-88291000D01*
X184919000Y-86189000D01*
X185921000Y-86189000D01*
X185921000Y-88291000D01*
G37*
G36*
X184651000Y-88291000D02*
G01*
X183649000Y-88291000D01*
X183649000Y-86189000D01*
X184651000Y-86189000D01*
X184651000Y-88291000D01*
G37*
G36*
X183381000Y-88291000D02*
G01*
X182379000Y-88291000D01*
X182379000Y-86189000D01*
X183381000Y-86189000D01*
X183381000Y-88291000D01*
G37*
G36*
X182111000Y-88291000D02*
G01*
X181109000Y-88291000D01*
X181109000Y-86189000D01*
X182111000Y-86189000D01*
X182111000Y-88291000D01*
G37*
G36*
X177031000Y-88291000D02*
G01*
X176029000Y-88291000D01*
X176029000Y-86189000D01*
X177031000Y-86189000D01*
X177031000Y-88291000D01*
G37*
G36*
X178301000Y-88291000D02*
G01*
X177299000Y-88291000D01*
X177299000Y-86189000D01*
X178301000Y-86189000D01*
X178301000Y-88291000D01*
G37*
G36*
X179571000Y-88291000D02*
G01*
X178569000Y-88291000D01*
X178569000Y-86189000D01*
X179571000Y-86189000D01*
X179571000Y-88291000D01*
G37*
G36*
X187191000Y-88291000D02*
G01*
X186189000Y-88291000D01*
X186189000Y-86189000D01*
X187191000Y-86189000D01*
X187191000Y-88291000D01*
G37*
G36*
X180841000Y-88291000D02*
G01*
X179839000Y-88291000D01*
X179839000Y-86189000D01*
X180841000Y-86189000D01*
X180841000Y-88291000D01*
G37*
G36*
X189731000Y-88291000D02*
G01*
X188729000Y-88291000D01*
X188729000Y-86189000D01*
X189731000Y-86189000D01*
X189731000Y-88291000D01*
G37*
G36*
X191001000Y-88291000D02*
G01*
X189999000Y-88291000D01*
X189999000Y-86189000D01*
X191001000Y-86189000D01*
X191001000Y-88291000D01*
G37*
G36*
X175761000Y-88291000D02*
G01*
X174759000Y-88291000D01*
X174759000Y-86189000D01*
X175761000Y-86189000D01*
X175761000Y-88291000D01*
G37*
G36*
X174491000Y-88291000D02*
G01*
X173489000Y-88291000D01*
X173489000Y-86189000D01*
X174491000Y-86189000D01*
X174491000Y-88291000D01*
G37*
G36*
X202743000Y-87173000D02*
G01*
X201117000Y-87173000D01*
X201117000Y-85547000D01*
X202743000Y-85547000D01*
X202743000Y-87173000D01*
G37*
G36*
X205283000Y-87173000D02*
G01*
X203657000Y-87173000D01*
X203657000Y-85547000D01*
X205283000Y-85547000D01*
X205283000Y-87173000D01*
G37*
G36*
X144860674Y-85275965D02*
G01*
X144898367Y-85287399D01*
X144933103Y-85305966D01*
X144963548Y-85330952D01*
X144988534Y-85361397D01*
X145007101Y-85396133D01*
X145018535Y-85433826D01*
X145023000Y-85479161D01*
X145023000Y-86315839D01*
X145018535Y-86361174D01*
X145007101Y-86398867D01*
X144988534Y-86433603D01*
X144963548Y-86464048D01*
X144933103Y-86489034D01*
X144898367Y-86507601D01*
X144860674Y-86519035D01*
X144815339Y-86523500D01*
X143728661Y-86523500D01*
X143683326Y-86519035D01*
X143645633Y-86507601D01*
X143610897Y-86489034D01*
X143580452Y-86464048D01*
X143555466Y-86433603D01*
X143536899Y-86398867D01*
X143525465Y-86361174D01*
X143521000Y-86315839D01*
X143521000Y-85479161D01*
X143525465Y-85433826D01*
X143536899Y-85396133D01*
X143555466Y-85361397D01*
X143580452Y-85330952D01*
X143610897Y-85305966D01*
X143645633Y-85287399D01*
X143683326Y-85275965D01*
X143728661Y-85271500D01*
X144815339Y-85271500D01*
X144860674Y-85275965D01*
G37*
G36*
X148670674Y-85275965D02*
G01*
X148708367Y-85287399D01*
X148743103Y-85305966D01*
X148773548Y-85330952D01*
X148798534Y-85361397D01*
X148817101Y-85396133D01*
X148828535Y-85433826D01*
X148833000Y-85479161D01*
X148833000Y-86315839D01*
X148828535Y-86361174D01*
X148817101Y-86398867D01*
X148798534Y-86433603D01*
X148773548Y-86464048D01*
X148743103Y-86489034D01*
X148708367Y-86507601D01*
X148670674Y-86519035D01*
X148625339Y-86523500D01*
X147538661Y-86523500D01*
X147493326Y-86519035D01*
X147455633Y-86507601D01*
X147420897Y-86489034D01*
X147390452Y-86464048D01*
X147365466Y-86433603D01*
X147346899Y-86398867D01*
X147335465Y-86361174D01*
X147331000Y-86315839D01*
X147331000Y-85479161D01*
X147335465Y-85433826D01*
X147346899Y-85396133D01*
X147365466Y-85361397D01*
X147390452Y-85330952D01*
X147420897Y-85305966D01*
X147455633Y-85287399D01*
X147493326Y-85275965D01*
X147538661Y-85271500D01*
X148625339Y-85271500D01*
X148670674Y-85275965D01*
G37*
G36*
X136605674Y-85202965D02*
G01*
X136643367Y-85214399D01*
X136678103Y-85232966D01*
X136708548Y-85257952D01*
X136733534Y-85288397D01*
X136752101Y-85323133D01*
X136763535Y-85360826D01*
X136768000Y-85406161D01*
X136768000Y-86242839D01*
X136763535Y-86288174D01*
X136752101Y-86325867D01*
X136733534Y-86360603D01*
X136708548Y-86391048D01*
X136678103Y-86416034D01*
X136643367Y-86434601D01*
X136605674Y-86446035D01*
X136560339Y-86450500D01*
X135473661Y-86450500D01*
X135428326Y-86446035D01*
X135390633Y-86434601D01*
X135355897Y-86416034D01*
X135325452Y-86391048D01*
X135300466Y-86360603D01*
X135281899Y-86325867D01*
X135270465Y-86288174D01*
X135266000Y-86242839D01*
X135266000Y-85406161D01*
X135270465Y-85360826D01*
X135281899Y-85323133D01*
X135300466Y-85288397D01*
X135325452Y-85257952D01*
X135355897Y-85232966D01*
X135390633Y-85214399D01*
X135428326Y-85202965D01*
X135473661Y-85198500D01*
X136560339Y-85198500D01*
X136605674Y-85202965D01*
G37*
G36*
X140415674Y-85202965D02*
G01*
X140453367Y-85214399D01*
X140488103Y-85232966D01*
X140518548Y-85257952D01*
X140543534Y-85288397D01*
X140562101Y-85323133D01*
X140573535Y-85360826D01*
X140578000Y-85406161D01*
X140578000Y-86242839D01*
X140573535Y-86288174D01*
X140562101Y-86325867D01*
X140543534Y-86360603D01*
X140518548Y-86391048D01*
X140488103Y-86416034D01*
X140453367Y-86434601D01*
X140415674Y-86446035D01*
X140370339Y-86450500D01*
X139283661Y-86450500D01*
X139238326Y-86446035D01*
X139200633Y-86434601D01*
X139165897Y-86416034D01*
X139135452Y-86391048D01*
X139110466Y-86360603D01*
X139091899Y-86325867D01*
X139080465Y-86288174D01*
X139076000Y-86242839D01*
X139076000Y-85406161D01*
X139080465Y-85360826D01*
X139091899Y-85323133D01*
X139110466Y-85288397D01*
X139135452Y-85257952D01*
X139165897Y-85232966D01*
X139200633Y-85214399D01*
X139238326Y-85202965D01*
X139283661Y-85198500D01*
X140370339Y-85198500D01*
X140415674Y-85202965D01*
G37*
G36*
X98145331Y-82438211D02*
G01*
X98473092Y-82573974D01*
X98768070Y-82771072D01*
X99018928Y-83021930D01*
X99216026Y-83316908D01*
X99351789Y-83644669D01*
X99421000Y-83992616D01*
X99421000Y-84347384D01*
X99351789Y-84695331D01*
X99216026Y-85023092D01*
X99018928Y-85318070D01*
X98768070Y-85568928D01*
X98473092Y-85766026D01*
X98145331Y-85901789D01*
X97797384Y-85971000D01*
X97442616Y-85971000D01*
X97094669Y-85901789D01*
X96766908Y-85766026D01*
X96471930Y-85568928D01*
X96221072Y-85318070D01*
X96023974Y-85023092D01*
X95888211Y-84695331D01*
X95819000Y-84347384D01*
X95819000Y-83992616D01*
X95888211Y-83644669D01*
X96023974Y-83316908D01*
X96221072Y-83021930D01*
X96471930Y-82771072D01*
X96766908Y-82573974D01*
X97094669Y-82438211D01*
X97442616Y-82369000D01*
X97797384Y-82369000D01*
X98145331Y-82438211D01*
G37*
G36*
X199343674Y-84640965D02*
G01*
X199381367Y-84652399D01*
X199416103Y-84670966D01*
X199446548Y-84695952D01*
X199471534Y-84726397D01*
X199490101Y-84761133D01*
X199501535Y-84798826D01*
X199506000Y-84844161D01*
X199506000Y-85680839D01*
X199501535Y-85726174D01*
X199490101Y-85763867D01*
X199471534Y-85798603D01*
X199446548Y-85829048D01*
X199416103Y-85854034D01*
X199381367Y-85872601D01*
X199343674Y-85884035D01*
X199298339Y-85888500D01*
X198211661Y-85888500D01*
X198166326Y-85884035D01*
X198128633Y-85872601D01*
X198093897Y-85854034D01*
X198063452Y-85829048D01*
X198038466Y-85798603D01*
X198019899Y-85763867D01*
X198008465Y-85726174D01*
X198004000Y-85680839D01*
X198004000Y-84844161D01*
X198008465Y-84798826D01*
X198019899Y-84761133D01*
X198038466Y-84726397D01*
X198063452Y-84695952D01*
X198093897Y-84670966D01*
X198128633Y-84652399D01*
X198166326Y-84640965D01*
X198211661Y-84636500D01*
X199298339Y-84636500D01*
X199343674Y-84640965D01*
G37*
G36*
X93035781Y-83753295D02*
G01*
X93071816Y-83764227D01*
X93105024Y-83781977D01*
X93134134Y-83805866D01*
X93158023Y-83834976D01*
X93175773Y-83868184D01*
X93186705Y-83904219D01*
X93191000Y-83947831D01*
X93191000Y-84952169D01*
X93186705Y-84995781D01*
X93175773Y-85031816D01*
X93158023Y-85065024D01*
X93134134Y-85094134D01*
X93105024Y-85118023D01*
X93071816Y-85135773D01*
X93035781Y-85146705D01*
X92992169Y-85151000D01*
X89887831Y-85151000D01*
X89844219Y-85146705D01*
X89808184Y-85135773D01*
X89774976Y-85118023D01*
X89745866Y-85094134D01*
X89721977Y-85065024D01*
X89704227Y-85031816D01*
X89693295Y-84995781D01*
X89689000Y-84952169D01*
X89689000Y-83947831D01*
X89693295Y-83904219D01*
X89704227Y-83868184D01*
X89721977Y-83834976D01*
X89745866Y-83805866D01*
X89774976Y-83781977D01*
X89808184Y-83764227D01*
X89844219Y-83753295D01*
X89887831Y-83749000D01*
X92992169Y-83749000D01*
X93035781Y-83753295D01*
G37*
G36*
X192551000Y-84956000D02*
G01*
X190449000Y-84956000D01*
X190449000Y-83954000D01*
X192551000Y-83954000D01*
X192551000Y-84956000D01*
G37*
G36*
X205283000Y-84633000D02*
G01*
X203657000Y-84633000D01*
X203657000Y-83007000D01*
X205283000Y-83007000D01*
X205283000Y-84633000D01*
G37*
G36*
X202743000Y-84633000D02*
G01*
X201117000Y-84633000D01*
X201117000Y-83007000D01*
X202743000Y-83007000D01*
X202743000Y-84633000D01*
G37*
G36*
X144860674Y-83225965D02*
G01*
X144898367Y-83237399D01*
X144933103Y-83255966D01*
X144963548Y-83280952D01*
X144988534Y-83311397D01*
X145007101Y-83346133D01*
X145018535Y-83383826D01*
X145023000Y-83429161D01*
X145023000Y-84265839D01*
X145018535Y-84311174D01*
X145007101Y-84348867D01*
X144988534Y-84383603D01*
X144963548Y-84414048D01*
X144933103Y-84439034D01*
X144898367Y-84457601D01*
X144860674Y-84469035D01*
X144815339Y-84473500D01*
X143728661Y-84473500D01*
X143683326Y-84469035D01*
X143645633Y-84457601D01*
X143610897Y-84439034D01*
X143580452Y-84414048D01*
X143555466Y-84383603D01*
X143536899Y-84348867D01*
X143525465Y-84311174D01*
X143521000Y-84265839D01*
X143521000Y-83429161D01*
X143525465Y-83383826D01*
X143536899Y-83346133D01*
X143555466Y-83311397D01*
X143580452Y-83280952D01*
X143610897Y-83255966D01*
X143645633Y-83237399D01*
X143683326Y-83225965D01*
X143728661Y-83221500D01*
X144815339Y-83221500D01*
X144860674Y-83225965D01*
G37*
G36*
X148670674Y-83225965D02*
G01*
X148708367Y-83237399D01*
X148743103Y-83255966D01*
X148773548Y-83280952D01*
X148798534Y-83311397D01*
X148817101Y-83346133D01*
X148828535Y-83383826D01*
X148833000Y-83429161D01*
X148833000Y-84265839D01*
X148828535Y-84311174D01*
X148817101Y-84348867D01*
X148798534Y-84383603D01*
X148773548Y-84414048D01*
X148743103Y-84439034D01*
X148708367Y-84457601D01*
X148670674Y-84469035D01*
X148625339Y-84473500D01*
X147538661Y-84473500D01*
X147493326Y-84469035D01*
X147455633Y-84457601D01*
X147420897Y-84439034D01*
X147390452Y-84414048D01*
X147365466Y-84383603D01*
X147346899Y-84348867D01*
X147335465Y-84311174D01*
X147331000Y-84265839D01*
X147331000Y-83429161D01*
X147335465Y-83383826D01*
X147346899Y-83346133D01*
X147365466Y-83311397D01*
X147390452Y-83280952D01*
X147420897Y-83255966D01*
X147455633Y-83237399D01*
X147493326Y-83225965D01*
X147538661Y-83221500D01*
X148625339Y-83221500D01*
X148670674Y-83225965D01*
G37*
G36*
X136605674Y-83152965D02*
G01*
X136643367Y-83164399D01*
X136678103Y-83182966D01*
X136708548Y-83207952D01*
X136733534Y-83238397D01*
X136752101Y-83273133D01*
X136763535Y-83310826D01*
X136768000Y-83356161D01*
X136768000Y-84192839D01*
X136763535Y-84238174D01*
X136752101Y-84275867D01*
X136733534Y-84310603D01*
X136708548Y-84341048D01*
X136678103Y-84366034D01*
X136643367Y-84384601D01*
X136605674Y-84396035D01*
X136560339Y-84400500D01*
X135473661Y-84400500D01*
X135428326Y-84396035D01*
X135390633Y-84384601D01*
X135355897Y-84366034D01*
X135325452Y-84341048D01*
X135300466Y-84310603D01*
X135281899Y-84275867D01*
X135270465Y-84238174D01*
X135266000Y-84192839D01*
X135266000Y-83356161D01*
X135270465Y-83310826D01*
X135281899Y-83273133D01*
X135300466Y-83238397D01*
X135325452Y-83207952D01*
X135355897Y-83182966D01*
X135390633Y-83164399D01*
X135428326Y-83152965D01*
X135473661Y-83148500D01*
X136560339Y-83148500D01*
X136605674Y-83152965D01*
G37*
G36*
X140415674Y-83152965D02*
G01*
X140453367Y-83164399D01*
X140488103Y-83182966D01*
X140518548Y-83207952D01*
X140543534Y-83238397D01*
X140562101Y-83273133D01*
X140573535Y-83310826D01*
X140578000Y-83356161D01*
X140578000Y-84192839D01*
X140573535Y-84238174D01*
X140562101Y-84275867D01*
X140543534Y-84310603D01*
X140518548Y-84341048D01*
X140488103Y-84366034D01*
X140453367Y-84384601D01*
X140415674Y-84396035D01*
X140370339Y-84400500D01*
X139283661Y-84400500D01*
X139238326Y-84396035D01*
X139200633Y-84384601D01*
X139165897Y-84366034D01*
X139135452Y-84341048D01*
X139110466Y-84310603D01*
X139091899Y-84275867D01*
X139080465Y-84238174D01*
X139076000Y-84192839D01*
X139076000Y-83356161D01*
X139080465Y-83310826D01*
X139091899Y-83273133D01*
X139110466Y-83238397D01*
X139135452Y-83207952D01*
X139165897Y-83182966D01*
X139200633Y-83164399D01*
X139238326Y-83152965D01*
X139283661Y-83148500D01*
X140370339Y-83148500D01*
X140415674Y-83152965D01*
G37*
G36*
X199343674Y-82590965D02*
G01*
X199381367Y-82602399D01*
X199416103Y-82620966D01*
X199446548Y-82645952D01*
X199471534Y-82676397D01*
X199490101Y-82711133D01*
X199501535Y-82748826D01*
X199506000Y-82794161D01*
X199506000Y-83630839D01*
X199501535Y-83676174D01*
X199490101Y-83713867D01*
X199471534Y-83748603D01*
X199446548Y-83779048D01*
X199416103Y-83804034D01*
X199381367Y-83822601D01*
X199343674Y-83834035D01*
X199298339Y-83838500D01*
X198211661Y-83838500D01*
X198166326Y-83834035D01*
X198128633Y-83822601D01*
X198093897Y-83804034D01*
X198063452Y-83779048D01*
X198038466Y-83748603D01*
X198019899Y-83713867D01*
X198008465Y-83676174D01*
X198004000Y-83630839D01*
X198004000Y-82794161D01*
X198008465Y-82748826D01*
X198019899Y-82711133D01*
X198038466Y-82676397D01*
X198063452Y-82645952D01*
X198093897Y-82620966D01*
X198128633Y-82602399D01*
X198166326Y-82590965D01*
X198211661Y-82586500D01*
X199298339Y-82586500D01*
X199343674Y-82590965D01*
G37*
G36*
X192551000Y-83686000D02*
G01*
X190449000Y-83686000D01*
X190449000Y-82684000D01*
X192551000Y-82684000D01*
X192551000Y-83686000D01*
G37*
G36*
X192551000Y-82416000D02*
G01*
X190449000Y-82416000D01*
X190449000Y-81414000D01*
X192551000Y-81414000D01*
X192551000Y-82416000D01*
G37*
G36*
X110749928Y-80256764D02*
G01*
X110771009Y-80263160D01*
X110790445Y-80273548D01*
X110807476Y-80287524D01*
X110821452Y-80304555D01*
X110831840Y-80323991D01*
X110838236Y-80345072D01*
X110841000Y-80373140D01*
X110841000Y-82186860D01*
X110838236Y-82214928D01*
X110831840Y-82236009D01*
X110821452Y-82255445D01*
X110807476Y-82272476D01*
X110790445Y-82286452D01*
X110771009Y-82296840D01*
X110749928Y-82303236D01*
X110721860Y-82306000D01*
X110258140Y-82306000D01*
X110230072Y-82303236D01*
X110208991Y-82296840D01*
X110189555Y-82286452D01*
X110172524Y-82272476D01*
X110158548Y-82255445D01*
X110148160Y-82236009D01*
X110141764Y-82214928D01*
X110139000Y-82186860D01*
X110139000Y-80373140D01*
X110141764Y-80345072D01*
X110148160Y-80323991D01*
X110158548Y-80304555D01*
X110172524Y-80287524D01*
X110189555Y-80273548D01*
X110208991Y-80263160D01*
X110230072Y-80256764D01*
X110258140Y-80254000D01*
X110721860Y-80254000D01*
X110749928Y-80256764D01*
G37*
G36*
X118369928Y-80256764D02*
G01*
X118391009Y-80263160D01*
X118410445Y-80273548D01*
X118427476Y-80287524D01*
X118441452Y-80304555D01*
X118451840Y-80323991D01*
X118458236Y-80345072D01*
X118461000Y-80373140D01*
X118461000Y-82186860D01*
X118458236Y-82214928D01*
X118451840Y-82236009D01*
X118441452Y-82255445D01*
X118427476Y-82272476D01*
X118410445Y-82286452D01*
X118391009Y-82296840D01*
X118369928Y-82303236D01*
X118341860Y-82306000D01*
X117878140Y-82306000D01*
X117850072Y-82303236D01*
X117828991Y-82296840D01*
X117809555Y-82286452D01*
X117792524Y-82272476D01*
X117778548Y-82255445D01*
X117768160Y-82236009D01*
X117761764Y-82214928D01*
X117759000Y-82186860D01*
X117759000Y-80373140D01*
X117761764Y-80345072D01*
X117768160Y-80323991D01*
X117778548Y-80304555D01*
X117792524Y-80287524D01*
X117809555Y-80273548D01*
X117828991Y-80263160D01*
X117850072Y-80256764D01*
X117878140Y-80254000D01*
X118341860Y-80254000D01*
X118369928Y-80256764D01*
G37*
G36*
X117099928Y-80256764D02*
G01*
X117121009Y-80263160D01*
X117140445Y-80273548D01*
X117157476Y-80287524D01*
X117171452Y-80304555D01*
X117181840Y-80323991D01*
X117188236Y-80345072D01*
X117191000Y-80373140D01*
X117191000Y-82186860D01*
X117188236Y-82214928D01*
X117181840Y-82236009D01*
X117171452Y-82255445D01*
X117157476Y-82272476D01*
X117140445Y-82286452D01*
X117121009Y-82296840D01*
X117099928Y-82303236D01*
X117071860Y-82306000D01*
X116608140Y-82306000D01*
X116580072Y-82303236D01*
X116558991Y-82296840D01*
X116539555Y-82286452D01*
X116522524Y-82272476D01*
X116508548Y-82255445D01*
X116498160Y-82236009D01*
X116491764Y-82214928D01*
X116489000Y-82186860D01*
X116489000Y-80373140D01*
X116491764Y-80345072D01*
X116498160Y-80323991D01*
X116508548Y-80304555D01*
X116522524Y-80287524D01*
X116539555Y-80273548D01*
X116558991Y-80263160D01*
X116580072Y-80256764D01*
X116608140Y-80254000D01*
X117071860Y-80254000D01*
X117099928Y-80256764D01*
G37*
G36*
X115829928Y-80256764D02*
G01*
X115851009Y-80263160D01*
X115870445Y-80273548D01*
X115887476Y-80287524D01*
X115901452Y-80304555D01*
X115911840Y-80323991D01*
X115918236Y-80345072D01*
X115921000Y-80373140D01*
X115921000Y-82186860D01*
X115918236Y-82214928D01*
X115911840Y-82236009D01*
X115901452Y-82255445D01*
X115887476Y-82272476D01*
X115870445Y-82286452D01*
X115851009Y-82296840D01*
X115829928Y-82303236D01*
X115801860Y-82306000D01*
X115338140Y-82306000D01*
X115310072Y-82303236D01*
X115288991Y-82296840D01*
X115269555Y-82286452D01*
X115252524Y-82272476D01*
X115238548Y-82255445D01*
X115228160Y-82236009D01*
X115221764Y-82214928D01*
X115219000Y-82186860D01*
X115219000Y-80373140D01*
X115221764Y-80345072D01*
X115228160Y-80323991D01*
X115238548Y-80304555D01*
X115252524Y-80287524D01*
X115269555Y-80273548D01*
X115288991Y-80263160D01*
X115310072Y-80256764D01*
X115338140Y-80254000D01*
X115801860Y-80254000D01*
X115829928Y-80256764D01*
G37*
G36*
X114559928Y-80256764D02*
G01*
X114581009Y-80263160D01*
X114600445Y-80273548D01*
X114617476Y-80287524D01*
X114631452Y-80304555D01*
X114641840Y-80323991D01*
X114648236Y-80345072D01*
X114651000Y-80373140D01*
X114651000Y-82186860D01*
X114648236Y-82214928D01*
X114641840Y-82236009D01*
X114631452Y-82255445D01*
X114617476Y-82272476D01*
X114600445Y-82286452D01*
X114581009Y-82296840D01*
X114559928Y-82303236D01*
X114531860Y-82306000D01*
X114068140Y-82306000D01*
X114040072Y-82303236D01*
X114018991Y-82296840D01*
X113999555Y-82286452D01*
X113982524Y-82272476D01*
X113968548Y-82255445D01*
X113958160Y-82236009D01*
X113951764Y-82214928D01*
X113949000Y-82186860D01*
X113949000Y-80373140D01*
X113951764Y-80345072D01*
X113958160Y-80323991D01*
X113968548Y-80304555D01*
X113982524Y-80287524D01*
X113999555Y-80273548D01*
X114018991Y-80263160D01*
X114040072Y-80256764D01*
X114068140Y-80254000D01*
X114531860Y-80254000D01*
X114559928Y-80256764D01*
G37*
G36*
X112019928Y-80256764D02*
G01*
X112041009Y-80263160D01*
X112060445Y-80273548D01*
X112077476Y-80287524D01*
X112091452Y-80304555D01*
X112101840Y-80323991D01*
X112108236Y-80345072D01*
X112111000Y-80373140D01*
X112111000Y-82186860D01*
X112108236Y-82214928D01*
X112101840Y-82236009D01*
X112091452Y-82255445D01*
X112077476Y-82272476D01*
X112060445Y-82286452D01*
X112041009Y-82296840D01*
X112019928Y-82303236D01*
X111991860Y-82306000D01*
X111528140Y-82306000D01*
X111500072Y-82303236D01*
X111478991Y-82296840D01*
X111459555Y-82286452D01*
X111442524Y-82272476D01*
X111428548Y-82255445D01*
X111418160Y-82236009D01*
X111411764Y-82214928D01*
X111409000Y-82186860D01*
X111409000Y-80373140D01*
X111411764Y-80345072D01*
X111418160Y-80323991D01*
X111428548Y-80304555D01*
X111442524Y-80287524D01*
X111459555Y-80273548D01*
X111478991Y-80263160D01*
X111500072Y-80256764D01*
X111528140Y-80254000D01*
X111991860Y-80254000D01*
X112019928Y-80256764D01*
G37*
G36*
X109479928Y-80256764D02*
G01*
X109501009Y-80263160D01*
X109520445Y-80273548D01*
X109537476Y-80287524D01*
X109551452Y-80304555D01*
X109561840Y-80323991D01*
X109568236Y-80345072D01*
X109571000Y-80373140D01*
X109571000Y-82186860D01*
X109568236Y-82214928D01*
X109561840Y-82236009D01*
X109551452Y-82255445D01*
X109537476Y-82272476D01*
X109520445Y-82286452D01*
X109501009Y-82296840D01*
X109479928Y-82303236D01*
X109451860Y-82306000D01*
X108988140Y-82306000D01*
X108960072Y-82303236D01*
X108938991Y-82296840D01*
X108919555Y-82286452D01*
X108902524Y-82272476D01*
X108888548Y-82255445D01*
X108878160Y-82236009D01*
X108871764Y-82214928D01*
X108869000Y-82186860D01*
X108869000Y-80373140D01*
X108871764Y-80345072D01*
X108878160Y-80323991D01*
X108888548Y-80304555D01*
X108902524Y-80287524D01*
X108919555Y-80273548D01*
X108938991Y-80263160D01*
X108960072Y-80256764D01*
X108988140Y-80254000D01*
X109451860Y-80254000D01*
X109479928Y-80256764D01*
G37*
G36*
X113289928Y-80256764D02*
G01*
X113311009Y-80263160D01*
X113330445Y-80273548D01*
X113347476Y-80287524D01*
X113361452Y-80304555D01*
X113371840Y-80323991D01*
X113378236Y-80345072D01*
X113381000Y-80373140D01*
X113381000Y-82186860D01*
X113378236Y-82214928D01*
X113371840Y-82236009D01*
X113361452Y-82255445D01*
X113347476Y-82272476D01*
X113330445Y-82286452D01*
X113311009Y-82296840D01*
X113289928Y-82303236D01*
X113261860Y-82306000D01*
X112798140Y-82306000D01*
X112770072Y-82303236D01*
X112748991Y-82296840D01*
X112729555Y-82286452D01*
X112712524Y-82272476D01*
X112698548Y-82255445D01*
X112688160Y-82236009D01*
X112681764Y-82214928D01*
X112679000Y-82186860D01*
X112679000Y-80373140D01*
X112681764Y-80345072D01*
X112688160Y-80323991D01*
X112698548Y-80304555D01*
X112712524Y-80287524D01*
X112729555Y-80273548D01*
X112748991Y-80263160D01*
X112770072Y-80256764D01*
X112798140Y-80254000D01*
X113261860Y-80254000D01*
X113289928Y-80256764D01*
G37*
G36*
X205283000Y-82093000D02*
G01*
X203657000Y-82093000D01*
X203657000Y-80467000D01*
X205283000Y-80467000D01*
X205283000Y-82093000D01*
G37*
G36*
X202743000Y-82093000D02*
G01*
X201117000Y-82093000D01*
X201117000Y-80467000D01*
X202743000Y-80467000D01*
X202743000Y-82093000D01*
G37*
G36*
X192551000Y-81146000D02*
G01*
X190449000Y-81146000D01*
X190449000Y-80144000D01*
X192551000Y-80144000D01*
X192551000Y-81146000D01*
G37*
G36*
X184041000Y-80291000D02*
G01*
X178939000Y-80291000D01*
X178939000Y-75189000D01*
X184041000Y-75189000D01*
X184041000Y-80291000D01*
G37*
G36*
X199343674Y-78925965D02*
G01*
X199381367Y-78937399D01*
X199416103Y-78955966D01*
X199446548Y-78980952D01*
X199471534Y-79011397D01*
X199490101Y-79046133D01*
X199501535Y-79083826D01*
X199506000Y-79129161D01*
X199506000Y-79965839D01*
X199501535Y-80011174D01*
X199490101Y-80048867D01*
X199471534Y-80083603D01*
X199446548Y-80114048D01*
X199416103Y-80139034D01*
X199381367Y-80157601D01*
X199343674Y-80169035D01*
X199298339Y-80173500D01*
X198211661Y-80173500D01*
X198166326Y-80169035D01*
X198128633Y-80157601D01*
X198093897Y-80139034D01*
X198063452Y-80114048D01*
X198038466Y-80083603D01*
X198019899Y-80048867D01*
X198008465Y-80011174D01*
X198004000Y-79965839D01*
X198004000Y-79129161D01*
X198008465Y-79083826D01*
X198019899Y-79046133D01*
X198038466Y-79011397D01*
X198063452Y-78980952D01*
X198093897Y-78955966D01*
X198128633Y-78937399D01*
X198166326Y-78925965D01*
X198211661Y-78921500D01*
X199298339Y-78921500D01*
X199343674Y-78925965D01*
G37*
G36*
X192551000Y-79876000D02*
G01*
X190449000Y-79876000D01*
X190449000Y-78874000D01*
X192551000Y-78874000D01*
X192551000Y-79876000D01*
G37*
G36*
X202743000Y-79553000D02*
G01*
X201117000Y-79553000D01*
X201117000Y-77927000D01*
X202743000Y-77927000D01*
X202743000Y-79553000D01*
G37*
G36*
X205283000Y-79553000D02*
G01*
X203657000Y-79553000D01*
X203657000Y-77927000D01*
X205283000Y-77927000D01*
X205283000Y-79553000D01*
G37*
G36*
X141863000Y-79463000D02*
G01*
X140961000Y-79463000D01*
X140961000Y-78461000D01*
X141863000Y-78461000D01*
X141863000Y-79463000D01*
G37*
G36*
X134883000Y-79463000D02*
G01*
X133981000Y-79463000D01*
X133981000Y-78461000D01*
X134883000Y-78461000D01*
X134883000Y-79463000D01*
G37*
G36*
X139963000Y-79463000D02*
G01*
X139061000Y-79463000D01*
X139061000Y-78461000D01*
X139963000Y-78461000D01*
X139963000Y-79463000D01*
G37*
G36*
X136783000Y-79463000D02*
G01*
X135881000Y-79463000D01*
X135881000Y-78461000D01*
X136783000Y-78461000D01*
X136783000Y-79463000D01*
G37*
G36*
X192551000Y-78606000D02*
G01*
X190449000Y-78606000D01*
X190449000Y-77604000D01*
X192551000Y-77604000D01*
X192551000Y-78606000D01*
G37*
G36*
X199343674Y-76875965D02*
G01*
X199381367Y-76887399D01*
X199416103Y-76905966D01*
X199446548Y-76930952D01*
X199471534Y-76961397D01*
X199490101Y-76996133D01*
X199501535Y-77033826D01*
X199506000Y-77079161D01*
X199506000Y-77915839D01*
X199501535Y-77961174D01*
X199490101Y-77998867D01*
X199471534Y-78033603D01*
X199446548Y-78064048D01*
X199416103Y-78089034D01*
X199381367Y-78107601D01*
X199343674Y-78119035D01*
X199298339Y-78123500D01*
X198211661Y-78123500D01*
X198166326Y-78119035D01*
X198128633Y-78107601D01*
X198093897Y-78089034D01*
X198063452Y-78064048D01*
X198038466Y-78033603D01*
X198019899Y-77998867D01*
X198008465Y-77961174D01*
X198004000Y-77915839D01*
X198004000Y-77079161D01*
X198008465Y-77033826D01*
X198019899Y-76996133D01*
X198038466Y-76961397D01*
X198063452Y-76930952D01*
X198093897Y-76905966D01*
X198128633Y-76887399D01*
X198166326Y-76875965D01*
X198211661Y-76871500D01*
X199298339Y-76871500D01*
X199343674Y-76875965D01*
G37*
G36*
X135833000Y-77463000D02*
G01*
X134931000Y-77463000D01*
X134931000Y-76461000D01*
X135833000Y-76461000D01*
X135833000Y-77463000D01*
G37*
G36*
X140913000Y-77463000D02*
G01*
X140011000Y-77463000D01*
X140011000Y-76461000D01*
X140913000Y-76461000D01*
X140913000Y-77463000D01*
G37*
G36*
X117099928Y-75306764D02*
G01*
X117121009Y-75313160D01*
X117140445Y-75323548D01*
X117157476Y-75337524D01*
X117171452Y-75354555D01*
X117181840Y-75373991D01*
X117188236Y-75395072D01*
X117191000Y-75423140D01*
X117191000Y-77236860D01*
X117188236Y-77264928D01*
X117181840Y-77286009D01*
X117171452Y-77305445D01*
X117157476Y-77322476D01*
X117140445Y-77336452D01*
X117121009Y-77346840D01*
X117099928Y-77353236D01*
X117071860Y-77356000D01*
X116608140Y-77356000D01*
X116580072Y-77353236D01*
X116558991Y-77346840D01*
X116539555Y-77336452D01*
X116522524Y-77322476D01*
X116508548Y-77305445D01*
X116498160Y-77286009D01*
X116491764Y-77264928D01*
X116489000Y-77236860D01*
X116489000Y-75423140D01*
X116491764Y-75395072D01*
X116498160Y-75373991D01*
X116508548Y-75354555D01*
X116522524Y-75337524D01*
X116539555Y-75323548D01*
X116558991Y-75313160D01*
X116580072Y-75306764D01*
X116608140Y-75304000D01*
X117071860Y-75304000D01*
X117099928Y-75306764D01*
G37*
G36*
X115829928Y-75306764D02*
G01*
X115851009Y-75313160D01*
X115870445Y-75323548D01*
X115887476Y-75337524D01*
X115901452Y-75354555D01*
X115911840Y-75373991D01*
X115918236Y-75395072D01*
X115921000Y-75423140D01*
X115921000Y-77236860D01*
X115918236Y-77264928D01*
X115911840Y-77286009D01*
X115901452Y-77305445D01*
X115887476Y-77322476D01*
X115870445Y-77336452D01*
X115851009Y-77346840D01*
X115829928Y-77353236D01*
X115801860Y-77356000D01*
X115338140Y-77356000D01*
X115310072Y-77353236D01*
X115288991Y-77346840D01*
X115269555Y-77336452D01*
X115252524Y-77322476D01*
X115238548Y-77305445D01*
X115228160Y-77286009D01*
X115221764Y-77264928D01*
X115219000Y-77236860D01*
X115219000Y-75423140D01*
X115221764Y-75395072D01*
X115228160Y-75373991D01*
X115238548Y-75354555D01*
X115252524Y-75337524D01*
X115269555Y-75323548D01*
X115288991Y-75313160D01*
X115310072Y-75306764D01*
X115338140Y-75304000D01*
X115801860Y-75304000D01*
X115829928Y-75306764D01*
G37*
G36*
X114559928Y-75306764D02*
G01*
X114581009Y-75313160D01*
X114600445Y-75323548D01*
X114617476Y-75337524D01*
X114631452Y-75354555D01*
X114641840Y-75373991D01*
X114648236Y-75395072D01*
X114651000Y-75423140D01*
X114651000Y-77236860D01*
X114648236Y-77264928D01*
X114641840Y-77286009D01*
X114631452Y-77305445D01*
X114617476Y-77322476D01*
X114600445Y-77336452D01*
X114581009Y-77346840D01*
X114559928Y-77353236D01*
X114531860Y-77356000D01*
X114068140Y-77356000D01*
X114040072Y-77353236D01*
X114018991Y-77346840D01*
X113999555Y-77336452D01*
X113982524Y-77322476D01*
X113968548Y-77305445D01*
X113958160Y-77286009D01*
X113951764Y-77264928D01*
X113949000Y-77236860D01*
X113949000Y-75423140D01*
X113951764Y-75395072D01*
X113958160Y-75373991D01*
X113968548Y-75354555D01*
X113982524Y-75337524D01*
X113999555Y-75323548D01*
X114018991Y-75313160D01*
X114040072Y-75306764D01*
X114068140Y-75304000D01*
X114531860Y-75304000D01*
X114559928Y-75306764D01*
G37*
G36*
X113289928Y-75306764D02*
G01*
X113311009Y-75313160D01*
X113330445Y-75323548D01*
X113347476Y-75337524D01*
X113361452Y-75354555D01*
X113371840Y-75373991D01*
X113378236Y-75395072D01*
X113381000Y-75423140D01*
X113381000Y-77236860D01*
X113378236Y-77264928D01*
X113371840Y-77286009D01*
X113361452Y-77305445D01*
X113347476Y-77322476D01*
X113330445Y-77336452D01*
X113311009Y-77346840D01*
X113289928Y-77353236D01*
X113261860Y-77356000D01*
X112798140Y-77356000D01*
X112770072Y-77353236D01*
X112748991Y-77346840D01*
X112729555Y-77336452D01*
X112712524Y-77322476D01*
X112698548Y-77305445D01*
X112688160Y-77286009D01*
X112681764Y-77264928D01*
X112679000Y-77236860D01*
X112679000Y-75423140D01*
X112681764Y-75395072D01*
X112688160Y-75373991D01*
X112698548Y-75354555D01*
X112712524Y-75337524D01*
X112729555Y-75323548D01*
X112748991Y-75313160D01*
X112770072Y-75306764D01*
X112798140Y-75304000D01*
X113261860Y-75304000D01*
X113289928Y-75306764D01*
G37*
G36*
X112019928Y-75306764D02*
G01*
X112041009Y-75313160D01*
X112060445Y-75323548D01*
X112077476Y-75337524D01*
X112091452Y-75354555D01*
X112101840Y-75373991D01*
X112108236Y-75395072D01*
X112111000Y-75423140D01*
X112111000Y-77236860D01*
X112108236Y-77264928D01*
X112101840Y-77286009D01*
X112091452Y-77305445D01*
X112077476Y-77322476D01*
X112060445Y-77336452D01*
X112041009Y-77346840D01*
X112019928Y-77353236D01*
X111991860Y-77356000D01*
X111528140Y-77356000D01*
X111500072Y-77353236D01*
X111478991Y-77346840D01*
X111459555Y-77336452D01*
X111442524Y-77322476D01*
X111428548Y-77305445D01*
X111418160Y-77286009D01*
X111411764Y-77264928D01*
X111409000Y-77236860D01*
X111409000Y-75423140D01*
X111411764Y-75395072D01*
X111418160Y-75373991D01*
X111428548Y-75354555D01*
X111442524Y-75337524D01*
X111459555Y-75323548D01*
X111478991Y-75313160D01*
X111500072Y-75306764D01*
X111528140Y-75304000D01*
X111991860Y-75304000D01*
X112019928Y-75306764D01*
G37*
G36*
X118369928Y-75306764D02*
G01*
X118391009Y-75313160D01*
X118410445Y-75323548D01*
X118427476Y-75337524D01*
X118441452Y-75354555D01*
X118451840Y-75373991D01*
X118458236Y-75395072D01*
X118461000Y-75423140D01*
X118461000Y-77236860D01*
X118458236Y-77264928D01*
X118451840Y-77286009D01*
X118441452Y-77305445D01*
X118427476Y-77322476D01*
X118410445Y-77336452D01*
X118391009Y-77346840D01*
X118369928Y-77353236D01*
X118341860Y-77356000D01*
X117878140Y-77356000D01*
X117850072Y-77353236D01*
X117828991Y-77346840D01*
X117809555Y-77336452D01*
X117792524Y-77322476D01*
X117778548Y-77305445D01*
X117768160Y-77286009D01*
X117761764Y-77264928D01*
X117759000Y-77236860D01*
X117759000Y-75423140D01*
X117761764Y-75395072D01*
X117768160Y-75373991D01*
X117778548Y-75354555D01*
X117792524Y-75337524D01*
X117809555Y-75323548D01*
X117828991Y-75313160D01*
X117850072Y-75306764D01*
X117878140Y-75304000D01*
X118341860Y-75304000D01*
X118369928Y-75306764D01*
G37*
G36*
X109479928Y-75306764D02*
G01*
X109501009Y-75313160D01*
X109520445Y-75323548D01*
X109537476Y-75337524D01*
X109551452Y-75354555D01*
X109561840Y-75373991D01*
X109568236Y-75395072D01*
X109571000Y-75423140D01*
X109571000Y-77236860D01*
X109568236Y-77264928D01*
X109561840Y-77286009D01*
X109551452Y-77305445D01*
X109537476Y-77322476D01*
X109520445Y-77336452D01*
X109501009Y-77346840D01*
X109479928Y-77353236D01*
X109451860Y-77356000D01*
X108988140Y-77356000D01*
X108960072Y-77353236D01*
X108938991Y-77346840D01*
X108919555Y-77336452D01*
X108902524Y-77322476D01*
X108888548Y-77305445D01*
X108878160Y-77286009D01*
X108871764Y-77264928D01*
X108869000Y-77236860D01*
X108869000Y-75423140D01*
X108871764Y-75395072D01*
X108878160Y-75373991D01*
X108888548Y-75354555D01*
X108902524Y-75337524D01*
X108919555Y-75323548D01*
X108938991Y-75313160D01*
X108960072Y-75306764D01*
X108988140Y-75304000D01*
X109451860Y-75304000D01*
X109479928Y-75306764D01*
G37*
G36*
X110749928Y-75306764D02*
G01*
X110771009Y-75313160D01*
X110790445Y-75323548D01*
X110807476Y-75337524D01*
X110821452Y-75354555D01*
X110831840Y-75373991D01*
X110838236Y-75395072D01*
X110841000Y-75423140D01*
X110841000Y-77236860D01*
X110838236Y-77264928D01*
X110831840Y-77286009D01*
X110821452Y-77305445D01*
X110807476Y-77322476D01*
X110790445Y-77336452D01*
X110771009Y-77346840D01*
X110749928Y-77353236D01*
X110721860Y-77356000D01*
X110258140Y-77356000D01*
X110230072Y-77353236D01*
X110208991Y-77346840D01*
X110189555Y-77336452D01*
X110172524Y-77322476D01*
X110158548Y-77305445D01*
X110148160Y-77286009D01*
X110141764Y-77264928D01*
X110139000Y-77236860D01*
X110139000Y-75423140D01*
X110141764Y-75395072D01*
X110148160Y-75373991D01*
X110158548Y-75354555D01*
X110172524Y-75337524D01*
X110189555Y-75323548D01*
X110208991Y-75313160D01*
X110230072Y-75306764D01*
X110258140Y-75304000D01*
X110721860Y-75304000D01*
X110749928Y-75306764D01*
G37*
G36*
X192551000Y-77336000D02*
G01*
X190449000Y-77336000D01*
X190449000Y-76334000D01*
X192551000Y-76334000D01*
X192551000Y-77336000D01*
G37*
G36*
X91746564Y-75189389D02*
G01*
X91937833Y-75268615D01*
X91937835Y-75268616D01*
X92035056Y-75333577D01*
X92109973Y-75383635D01*
X92256365Y-75530027D01*
X92371385Y-75702167D01*
X92450611Y-75893436D01*
X92491000Y-76096484D01*
X92491000Y-76303516D01*
X92450611Y-76506564D01*
X92371385Y-76697833D01*
X92371384Y-76697835D01*
X92256365Y-76869973D01*
X92109973Y-77016365D01*
X91937835Y-77131384D01*
X91937834Y-77131385D01*
X91937833Y-77131385D01*
X91746564Y-77210611D01*
X91543516Y-77251000D01*
X91336484Y-77251000D01*
X91133436Y-77210611D01*
X90942167Y-77131385D01*
X90942166Y-77131385D01*
X90942165Y-77131384D01*
X90770027Y-77016365D01*
X90623635Y-76869973D01*
X90508616Y-76697835D01*
X90508615Y-76697833D01*
X90429389Y-76506564D01*
X90389000Y-76303516D01*
X90389000Y-76096484D01*
X90429389Y-75893436D01*
X90508615Y-75702167D01*
X90623635Y-75530027D01*
X90770027Y-75383635D01*
X90844944Y-75333577D01*
X90942165Y-75268616D01*
X90942167Y-75268615D01*
X91133436Y-75189389D01*
X91336484Y-75149000D01*
X91543516Y-75149000D01*
X91746564Y-75189389D01*
G37*
G36*
X98246564Y-75189389D02*
G01*
X98437833Y-75268615D01*
X98437835Y-75268616D01*
X98535056Y-75333577D01*
X98609973Y-75383635D01*
X98756365Y-75530027D01*
X98871385Y-75702167D01*
X98950611Y-75893436D01*
X98991000Y-76096484D01*
X98991000Y-76303516D01*
X98950611Y-76506564D01*
X98871385Y-76697833D01*
X98871384Y-76697835D01*
X98756365Y-76869973D01*
X98609973Y-77016365D01*
X98437835Y-77131384D01*
X98437834Y-77131385D01*
X98437833Y-77131385D01*
X98246564Y-77210611D01*
X98043516Y-77251000D01*
X97836484Y-77251000D01*
X97633436Y-77210611D01*
X97442167Y-77131385D01*
X97442166Y-77131385D01*
X97442165Y-77131384D01*
X97270027Y-77016365D01*
X97123635Y-76869973D01*
X97008616Y-76697835D01*
X97008615Y-76697833D01*
X96929389Y-76506564D01*
X96889000Y-76303516D01*
X96889000Y-76096484D01*
X96929389Y-75893436D01*
X97008615Y-75702167D01*
X97123635Y-75530027D01*
X97270027Y-75383635D01*
X97344944Y-75333577D01*
X97442165Y-75268616D01*
X97442167Y-75268615D01*
X97633436Y-75189389D01*
X97836484Y-75149000D01*
X98043516Y-75149000D01*
X98246564Y-75189389D01*
G37*
G36*
X205283000Y-77013000D02*
G01*
X203657000Y-77013000D01*
X203657000Y-75387000D01*
X205283000Y-75387000D01*
X205283000Y-77013000D01*
G37*
G36*
X202743000Y-77013000D02*
G01*
X201117000Y-77013000D01*
X201117000Y-75387000D01*
X202743000Y-75387000D01*
X202743000Y-77013000D01*
G37*
G36*
X192551000Y-76066000D02*
G01*
X190449000Y-76066000D01*
X190449000Y-75064000D01*
X192551000Y-75064000D01*
X192551000Y-76066000D01*
G37*
G36*
X107776674Y-73555465D02*
G01*
X107814367Y-73566899D01*
X107849103Y-73585466D01*
X107879548Y-73610452D01*
X107904534Y-73640897D01*
X107923101Y-73675633D01*
X107934535Y-73713326D01*
X107939000Y-73758661D01*
X107939000Y-74595339D01*
X107934535Y-74640674D01*
X107923101Y-74678367D01*
X107904534Y-74713103D01*
X107879548Y-74743548D01*
X107849103Y-74768534D01*
X107814367Y-74787101D01*
X107776674Y-74798535D01*
X107731339Y-74803000D01*
X106644661Y-74803000D01*
X106599326Y-74798535D01*
X106561633Y-74787101D01*
X106526897Y-74768534D01*
X106496452Y-74743548D01*
X106471466Y-74713103D01*
X106452899Y-74678367D01*
X106441465Y-74640674D01*
X106437000Y-74595339D01*
X106437000Y-73758661D01*
X106441465Y-73713326D01*
X106452899Y-73675633D01*
X106471466Y-73640897D01*
X106496452Y-73610452D01*
X106526897Y-73585466D01*
X106561633Y-73566899D01*
X106599326Y-73555465D01*
X106644661Y-73551000D01*
X107731339Y-73551000D01*
X107776674Y-73555465D01*
G37*
G36*
X192551000Y-74796000D02*
G01*
X190449000Y-74796000D01*
X190449000Y-73794000D01*
X192551000Y-73794000D01*
X192551000Y-74796000D01*
G37*
G36*
X192551000Y-73526000D02*
G01*
X190449000Y-73526000D01*
X190449000Y-72524000D01*
X192551000Y-72524000D01*
X192551000Y-73526000D01*
G37*
G36*
X107776674Y-71505465D02*
G01*
X107814367Y-71516899D01*
X107849103Y-71535466D01*
X107879548Y-71560452D01*
X107904534Y-71590897D01*
X107923101Y-71625633D01*
X107934535Y-71663326D01*
X107939000Y-71708661D01*
X107939000Y-72545339D01*
X107934535Y-72590674D01*
X107923101Y-72628367D01*
X107904534Y-72663103D01*
X107879548Y-72693548D01*
X107849103Y-72718534D01*
X107814367Y-72737101D01*
X107776674Y-72748535D01*
X107731339Y-72753000D01*
X106644661Y-72753000D01*
X106599326Y-72748535D01*
X106561633Y-72737101D01*
X106526897Y-72718534D01*
X106496452Y-72693548D01*
X106471466Y-72663103D01*
X106452899Y-72628367D01*
X106441465Y-72590674D01*
X106437000Y-72545339D01*
X106437000Y-71708661D01*
X106441465Y-71663326D01*
X106452899Y-71625633D01*
X106471466Y-71590897D01*
X106496452Y-71560452D01*
X106526897Y-71535466D01*
X106561633Y-71516899D01*
X106599326Y-71505465D01*
X106644661Y-71501000D01*
X107731339Y-71501000D01*
X107776674Y-71505465D01*
G37*
G36*
X98246564Y-70689389D02*
G01*
X98437833Y-70768615D01*
X98437835Y-70768616D01*
X98609973Y-70883635D01*
X98756365Y-71030027D01*
X98871385Y-71202167D01*
X98950611Y-71393436D01*
X98991000Y-71596484D01*
X98991000Y-71803516D01*
X98950611Y-72006564D01*
X98871385Y-72197833D01*
X98871384Y-72197835D01*
X98756365Y-72369973D01*
X98609973Y-72516365D01*
X98437835Y-72631384D01*
X98437834Y-72631385D01*
X98437833Y-72631385D01*
X98246564Y-72710611D01*
X98043516Y-72751000D01*
X97836484Y-72751000D01*
X97633436Y-72710611D01*
X97442167Y-72631385D01*
X97442166Y-72631385D01*
X97442165Y-72631384D01*
X97270027Y-72516365D01*
X97123635Y-72369973D01*
X97008616Y-72197835D01*
X97008615Y-72197833D01*
X96929389Y-72006564D01*
X96889000Y-71803516D01*
X96889000Y-71596484D01*
X96929389Y-71393436D01*
X97008615Y-71202167D01*
X97123635Y-71030027D01*
X97270027Y-70883635D01*
X97442165Y-70768616D01*
X97442167Y-70768615D01*
X97633436Y-70689389D01*
X97836484Y-70649000D01*
X98043516Y-70649000D01*
X98246564Y-70689389D01*
G37*
G36*
X91746564Y-70689389D02*
G01*
X91937833Y-70768615D01*
X91937835Y-70768616D01*
X92109973Y-70883635D01*
X92256365Y-71030027D01*
X92371385Y-71202167D01*
X92450611Y-71393436D01*
X92491000Y-71596484D01*
X92491000Y-71803516D01*
X92450611Y-72006564D01*
X92371385Y-72197833D01*
X92371384Y-72197835D01*
X92256365Y-72369973D01*
X92109973Y-72516365D01*
X91937835Y-72631384D01*
X91937834Y-72631385D01*
X91937833Y-72631385D01*
X91746564Y-72710611D01*
X91543516Y-72751000D01*
X91336484Y-72751000D01*
X91133436Y-72710611D01*
X90942167Y-72631385D01*
X90942166Y-72631385D01*
X90942165Y-72631384D01*
X90770027Y-72516365D01*
X90623635Y-72369973D01*
X90508616Y-72197835D01*
X90508615Y-72197833D01*
X90429389Y-72006564D01*
X90389000Y-71803516D01*
X90389000Y-71596484D01*
X90429389Y-71393436D01*
X90508615Y-71202167D01*
X90623635Y-71030027D01*
X90770027Y-70883635D01*
X90942165Y-70768616D01*
X90942167Y-70768615D01*
X91133436Y-70689389D01*
X91336484Y-70649000D01*
X91543516Y-70649000D01*
X91746564Y-70689389D01*
G37*
G36*
X133917000Y-72558000D02*
G01*
X132315000Y-72558000D01*
X132315000Y-71206000D01*
X133917000Y-71206000D01*
X133917000Y-72558000D01*
G37*
G36*
X136417000Y-72558000D02*
G01*
X134815000Y-72558000D01*
X134815000Y-71206000D01*
X136417000Y-71206000D01*
X136417000Y-72558000D01*
G37*
G36*
X205283000Y-71933000D02*
G01*
X203657000Y-71933000D01*
X203657000Y-70307000D01*
X205283000Y-70307000D01*
X205283000Y-71933000D01*
G37*
G36*
X202743000Y-71933000D02*
G01*
X201117000Y-71933000D01*
X201117000Y-70307000D01*
X202743000Y-70307000D01*
X202743000Y-71933000D01*
G37*
G36*
X175761000Y-71291000D02*
G01*
X174759000Y-71291000D01*
X174759000Y-69189000D01*
X175761000Y-69189000D01*
X175761000Y-71291000D01*
G37*
G36*
X177031000Y-71291000D02*
G01*
X176029000Y-71291000D01*
X176029000Y-69189000D01*
X177031000Y-69189000D01*
X177031000Y-71291000D01*
G37*
G36*
X174491000Y-71291000D02*
G01*
X173489000Y-71291000D01*
X173489000Y-69189000D01*
X174491000Y-69189000D01*
X174491000Y-71291000D01*
G37*
G36*
X184651000Y-71291000D02*
G01*
X183649000Y-71291000D01*
X183649000Y-69189000D01*
X184651000Y-69189000D01*
X184651000Y-71291000D01*
G37*
G36*
X185921000Y-71291000D02*
G01*
X184919000Y-71291000D01*
X184919000Y-69189000D01*
X185921000Y-69189000D01*
X185921000Y-71291000D01*
G37*
G36*
X187191000Y-71291000D02*
G01*
X186189000Y-71291000D01*
X186189000Y-69189000D01*
X187191000Y-69189000D01*
X187191000Y-71291000D01*
G37*
G36*
X188461000Y-71291000D02*
G01*
X187459000Y-71291000D01*
X187459000Y-69189000D01*
X188461000Y-69189000D01*
X188461000Y-71291000D01*
G37*
G36*
X191001000Y-71291000D02*
G01*
X189999000Y-71291000D01*
X189999000Y-69189000D01*
X191001000Y-69189000D01*
X191001000Y-71291000D01*
G37*
G36*
X183381000Y-71291000D02*
G01*
X182379000Y-71291000D01*
X182379000Y-69189000D01*
X183381000Y-69189000D01*
X183381000Y-71291000D01*
G37*
G36*
X182111000Y-71291000D02*
G01*
X181109000Y-71291000D01*
X181109000Y-69189000D01*
X182111000Y-69189000D01*
X182111000Y-71291000D01*
G37*
G36*
X180841000Y-71291000D02*
G01*
X179839000Y-71291000D01*
X179839000Y-69189000D01*
X180841000Y-69189000D01*
X180841000Y-71291000D01*
G37*
G36*
X178301000Y-71291000D02*
G01*
X177299000Y-71291000D01*
X177299000Y-69189000D01*
X178301000Y-69189000D01*
X178301000Y-71291000D01*
G37*
G36*
X179571000Y-71291000D02*
G01*
X178569000Y-71291000D01*
X178569000Y-69189000D01*
X179571000Y-69189000D01*
X179571000Y-71291000D01*
G37*
G36*
X189731000Y-71291000D02*
G01*
X188729000Y-71291000D01*
X188729000Y-69189000D01*
X189731000Y-69189000D01*
X189731000Y-71291000D01*
G37*
G36*
X205283000Y-69393000D02*
G01*
X203657000Y-69393000D01*
X203657000Y-67767000D01*
X205283000Y-67767000D01*
X205283000Y-69393000D01*
G37*
G36*
X202743000Y-69393000D02*
G01*
X201117000Y-69393000D01*
X201117000Y-67767000D01*
X202743000Y-67767000D01*
X202743000Y-69393000D01*
G37*
G36*
X143710674Y-67833465D02*
G01*
X143748367Y-67844899D01*
X143783103Y-67863466D01*
X143813548Y-67888452D01*
X143838534Y-67918897D01*
X143857101Y-67953633D01*
X143868535Y-67991326D01*
X143873000Y-68036661D01*
X143873000Y-69123339D01*
X143868535Y-69168674D01*
X143857101Y-69206367D01*
X143838534Y-69241103D01*
X143813548Y-69271548D01*
X143783103Y-69296534D01*
X143748367Y-69315101D01*
X143710674Y-69326535D01*
X143665339Y-69331000D01*
X142828661Y-69331000D01*
X142783326Y-69326535D01*
X142745633Y-69315101D01*
X142710897Y-69296534D01*
X142680452Y-69271548D01*
X142655466Y-69241103D01*
X142636899Y-69206367D01*
X142625465Y-69168674D01*
X142621000Y-69123339D01*
X142621000Y-68036661D01*
X142625465Y-67991326D01*
X142636899Y-67953633D01*
X142655466Y-67918897D01*
X142680452Y-67888452D01*
X142710897Y-67863466D01*
X142745633Y-67844899D01*
X142783326Y-67833465D01*
X142828661Y-67829000D01*
X143665339Y-67829000D01*
X143710674Y-67833465D01*
G37*
G36*
X145760674Y-67833465D02*
G01*
X145798367Y-67844899D01*
X145833103Y-67863466D01*
X145863548Y-67888452D01*
X145888534Y-67918897D01*
X145907101Y-67953633D01*
X145918535Y-67991326D01*
X145923000Y-68036661D01*
X145923000Y-69123339D01*
X145918535Y-69168674D01*
X145907101Y-69206367D01*
X145888534Y-69241103D01*
X145863548Y-69271548D01*
X145833103Y-69296534D01*
X145798367Y-69315101D01*
X145760674Y-69326535D01*
X145715339Y-69331000D01*
X144878661Y-69331000D01*
X144833326Y-69326535D01*
X144795633Y-69315101D01*
X144760897Y-69296534D01*
X144730452Y-69271548D01*
X144705466Y-69241103D01*
X144686899Y-69206367D01*
X144675465Y-69168674D01*
X144671000Y-69123339D01*
X144671000Y-68036661D01*
X144675465Y-67991326D01*
X144686899Y-67953633D01*
X144705466Y-67918897D01*
X144730452Y-67888452D01*
X144760897Y-67863466D01*
X144795633Y-67844899D01*
X144833326Y-67833465D01*
X144878661Y-67829000D01*
X145715339Y-67829000D01*
X145760674Y-67833465D01*
G37*
G36*
X136196000Y-69246000D02*
G01*
X129694000Y-69246000D01*
X129694000Y-63344000D01*
X136196000Y-63344000D01*
X136196000Y-69246000D01*
G37*
G36*
X140396000Y-69226000D02*
G01*
X138094000Y-69226000D01*
X138094000Y-67924000D01*
X140396000Y-67924000D01*
X140396000Y-69226000D01*
G37*
G36*
X159084674Y-66189465D02*
G01*
X159122367Y-66200899D01*
X159157103Y-66219466D01*
X159187548Y-66244452D01*
X159212534Y-66274897D01*
X159231101Y-66309633D01*
X159242535Y-66347326D01*
X159247000Y-66392661D01*
X159247000Y-67229339D01*
X159242535Y-67274674D01*
X159231101Y-67312367D01*
X159212534Y-67347103D01*
X159187548Y-67377548D01*
X159157103Y-67402534D01*
X159122367Y-67421101D01*
X159084674Y-67432535D01*
X159039339Y-67437000D01*
X157952661Y-67437000D01*
X157907326Y-67432535D01*
X157869633Y-67421101D01*
X157834897Y-67402534D01*
X157804452Y-67377548D01*
X157779466Y-67347103D01*
X157760899Y-67312367D01*
X157749465Y-67274674D01*
X157745000Y-67229339D01*
X157745000Y-66392661D01*
X157749465Y-66347326D01*
X157760899Y-66309633D01*
X157779466Y-66274897D01*
X157804452Y-66244452D01*
X157834897Y-66219466D01*
X157869633Y-66200899D01*
X157907326Y-66189465D01*
X157952661Y-66185000D01*
X159039339Y-66185000D01*
X159084674Y-66189465D01*
G37*
G36*
X205283000Y-66853000D02*
G01*
X203657000Y-66853000D01*
X203657000Y-65227000D01*
X205283000Y-65227000D01*
X205283000Y-66853000D01*
G37*
G36*
X202743000Y-66853000D02*
G01*
X201117000Y-66853000D01*
X201117000Y-65227000D01*
X202743000Y-65227000D01*
X202743000Y-66853000D01*
G37*
G36*
X173936674Y-65039465D02*
G01*
X173974367Y-65050899D01*
X174009103Y-65069466D01*
X174039548Y-65094452D01*
X174064534Y-65124897D01*
X174083101Y-65159633D01*
X174094535Y-65197326D01*
X174099000Y-65242661D01*
X174099000Y-66329339D01*
X174094535Y-66374674D01*
X174083101Y-66412367D01*
X174064534Y-66447103D01*
X174039548Y-66477548D01*
X174009103Y-66502534D01*
X173974367Y-66521101D01*
X173936674Y-66532535D01*
X173891339Y-66537000D01*
X173054661Y-66537000D01*
X173009326Y-66532535D01*
X172971633Y-66521101D01*
X172936897Y-66502534D01*
X172906452Y-66477548D01*
X172881466Y-66447103D01*
X172862899Y-66412367D01*
X172851465Y-66374674D01*
X172847000Y-66329339D01*
X172847000Y-65242661D01*
X172851465Y-65197326D01*
X172862899Y-65159633D01*
X172881466Y-65124897D01*
X172906452Y-65094452D01*
X172936897Y-65069466D01*
X172971633Y-65050899D01*
X173009326Y-65039465D01*
X173054661Y-65035000D01*
X173891339Y-65035000D01*
X173936674Y-65039465D01*
G37*
G36*
X175986674Y-65039465D02*
G01*
X176024367Y-65050899D01*
X176059103Y-65069466D01*
X176089548Y-65094452D01*
X176114534Y-65124897D01*
X176133101Y-65159633D01*
X176144535Y-65197326D01*
X176149000Y-65242661D01*
X176149000Y-66329339D01*
X176144535Y-66374674D01*
X176133101Y-66412367D01*
X176114534Y-66447103D01*
X176089548Y-66477548D01*
X176059103Y-66502534D01*
X176024367Y-66521101D01*
X175986674Y-66532535D01*
X175941339Y-66537000D01*
X175104661Y-66537000D01*
X175059326Y-66532535D01*
X175021633Y-66521101D01*
X174986897Y-66502534D01*
X174956452Y-66477548D01*
X174931466Y-66447103D01*
X174912899Y-66412367D01*
X174901465Y-66374674D01*
X174897000Y-66329339D01*
X174897000Y-65242661D01*
X174901465Y-65197326D01*
X174912899Y-65159633D01*
X174931466Y-65124897D01*
X174956452Y-65094452D01*
X174986897Y-65069466D01*
X175021633Y-65050899D01*
X175059326Y-65039465D01*
X175104661Y-65035000D01*
X175941339Y-65035000D01*
X175986674Y-65039465D01*
G37*
G36*
X106252674Y-65209965D02*
G01*
X106290367Y-65221399D01*
X106325103Y-65239966D01*
X106355548Y-65264952D01*
X106380534Y-65295397D01*
X106399101Y-65330133D01*
X106410535Y-65367826D01*
X106415000Y-65413161D01*
X106415000Y-66249839D01*
X106410535Y-66295174D01*
X106399101Y-66332867D01*
X106380534Y-66367603D01*
X106355548Y-66398048D01*
X106325103Y-66423034D01*
X106290367Y-66441601D01*
X106252674Y-66453035D01*
X106207339Y-66457500D01*
X105120661Y-66457500D01*
X105075326Y-66453035D01*
X105037633Y-66441601D01*
X105002897Y-66423034D01*
X104972452Y-66398048D01*
X104947466Y-66367603D01*
X104928899Y-66332867D01*
X104917465Y-66295174D01*
X104913000Y-66249839D01*
X104913000Y-65413161D01*
X104917465Y-65367826D01*
X104928899Y-65330133D01*
X104947466Y-65295397D01*
X104972452Y-65264952D01*
X105002897Y-65239966D01*
X105037633Y-65221399D01*
X105075326Y-65209965D01*
X105120661Y-65205500D01*
X106207339Y-65205500D01*
X106252674Y-65209965D01*
G37*
G36*
X123524674Y-65209965D02*
G01*
X123562367Y-65221399D01*
X123597103Y-65239966D01*
X123627548Y-65264952D01*
X123652534Y-65295397D01*
X123671101Y-65330133D01*
X123682535Y-65367826D01*
X123687000Y-65413161D01*
X123687000Y-66249839D01*
X123682535Y-66295174D01*
X123671101Y-66332867D01*
X123652534Y-66367603D01*
X123627548Y-66398048D01*
X123597103Y-66423034D01*
X123562367Y-66441601D01*
X123524674Y-66453035D01*
X123479339Y-66457500D01*
X122392661Y-66457500D01*
X122347326Y-66453035D01*
X122309633Y-66441601D01*
X122274897Y-66423034D01*
X122244452Y-66398048D01*
X122219466Y-66367603D01*
X122200899Y-66332867D01*
X122189465Y-66295174D01*
X122185000Y-66249839D01*
X122185000Y-65413161D01*
X122189465Y-65367826D01*
X122200899Y-65330133D01*
X122219466Y-65295397D01*
X122244452Y-65264952D01*
X122274897Y-65239966D01*
X122309633Y-65221399D01*
X122347326Y-65209965D01*
X122392661Y-65205500D01*
X123479339Y-65205500D01*
X123524674Y-65209965D01*
G37*
G36*
X110062674Y-65209965D02*
G01*
X110100367Y-65221399D01*
X110135103Y-65239966D01*
X110165548Y-65264952D01*
X110190534Y-65295397D01*
X110209101Y-65330133D01*
X110220535Y-65367826D01*
X110225000Y-65413161D01*
X110225000Y-66249839D01*
X110220535Y-66295174D01*
X110209101Y-66332867D01*
X110190534Y-66367603D01*
X110165548Y-66398048D01*
X110135103Y-66423034D01*
X110100367Y-66441601D01*
X110062674Y-66453035D01*
X110017339Y-66457500D01*
X108930661Y-66457500D01*
X108885326Y-66453035D01*
X108847633Y-66441601D01*
X108812897Y-66423034D01*
X108782452Y-66398048D01*
X108757466Y-66367603D01*
X108738899Y-66332867D01*
X108727465Y-66295174D01*
X108723000Y-66249839D01*
X108723000Y-65413161D01*
X108727465Y-65367826D01*
X108738899Y-65330133D01*
X108757466Y-65295397D01*
X108782452Y-65264952D01*
X108812897Y-65239966D01*
X108847633Y-65221399D01*
X108885326Y-65209965D01*
X108930661Y-65205500D01*
X110017339Y-65205500D01*
X110062674Y-65209965D01*
G37*
G36*
X119714674Y-65209965D02*
G01*
X119752367Y-65221399D01*
X119787103Y-65239966D01*
X119817548Y-65264952D01*
X119842534Y-65295397D01*
X119861101Y-65330133D01*
X119872535Y-65367826D01*
X119877000Y-65413161D01*
X119877000Y-66249839D01*
X119872535Y-66295174D01*
X119861101Y-66332867D01*
X119842534Y-66367603D01*
X119817548Y-66398048D01*
X119787103Y-66423034D01*
X119752367Y-66441601D01*
X119714674Y-66453035D01*
X119669339Y-66457500D01*
X118582661Y-66457500D01*
X118537326Y-66453035D01*
X118499633Y-66441601D01*
X118464897Y-66423034D01*
X118434452Y-66398048D01*
X118409466Y-66367603D01*
X118390899Y-66332867D01*
X118379465Y-66295174D01*
X118375000Y-66249839D01*
X118375000Y-65413161D01*
X118379465Y-65367826D01*
X118390899Y-65330133D01*
X118409466Y-65295397D01*
X118434452Y-65264952D01*
X118464897Y-65239966D01*
X118499633Y-65221399D01*
X118537326Y-65209965D01*
X118582661Y-65205500D01*
X119669339Y-65205500D01*
X119714674Y-65209965D01*
G37*
G36*
X113872674Y-65209965D02*
G01*
X113910367Y-65221399D01*
X113945103Y-65239966D01*
X113975548Y-65264952D01*
X114000534Y-65295397D01*
X114019101Y-65330133D01*
X114030535Y-65367826D01*
X114035000Y-65413161D01*
X114035000Y-66249839D01*
X114030535Y-66295174D01*
X114019101Y-66332867D01*
X114000534Y-66367603D01*
X113975548Y-66398048D01*
X113945103Y-66423034D01*
X113910367Y-66441601D01*
X113872674Y-66453035D01*
X113827339Y-66457500D01*
X112740661Y-66457500D01*
X112695326Y-66453035D01*
X112657633Y-66441601D01*
X112622897Y-66423034D01*
X112592452Y-66398048D01*
X112567466Y-66367603D01*
X112548899Y-66332867D01*
X112537465Y-66295174D01*
X112533000Y-66249839D01*
X112533000Y-65413161D01*
X112537465Y-65367826D01*
X112548899Y-65330133D01*
X112567466Y-65295397D01*
X112592452Y-65264952D01*
X112622897Y-65239966D01*
X112657633Y-65221399D01*
X112695326Y-65209965D01*
X112740661Y-65205500D01*
X113827339Y-65205500D01*
X113872674Y-65209965D01*
G37*
G36*
X151436000Y-65436000D02*
G01*
X144934000Y-65436000D01*
X144934000Y-59534000D01*
X151436000Y-59534000D01*
X151436000Y-65436000D01*
G37*
G36*
X155636000Y-65416000D02*
G01*
X153334000Y-65416000D01*
X153334000Y-64114000D01*
X155636000Y-64114000D01*
X155636000Y-65416000D01*
G37*
G36*
X159084674Y-64139465D02*
G01*
X159122367Y-64150899D01*
X159157103Y-64169466D01*
X159187548Y-64194452D01*
X159212534Y-64224897D01*
X159231101Y-64259633D01*
X159242535Y-64297326D01*
X159247000Y-64342661D01*
X159247000Y-65179339D01*
X159242535Y-65224674D01*
X159231101Y-65262367D01*
X159212534Y-65297103D01*
X159187548Y-65327548D01*
X159157103Y-65352534D01*
X159122367Y-65371101D01*
X159084674Y-65382535D01*
X159039339Y-65387000D01*
X157952661Y-65387000D01*
X157907326Y-65382535D01*
X157869633Y-65371101D01*
X157834897Y-65352534D01*
X157804452Y-65327548D01*
X157779466Y-65297103D01*
X157760899Y-65262367D01*
X157749465Y-65224674D01*
X157745000Y-65179339D01*
X157745000Y-64342661D01*
X157749465Y-64297326D01*
X157760899Y-64259633D01*
X157779466Y-64224897D01*
X157804452Y-64194452D01*
X157834897Y-64169466D01*
X157869633Y-64150899D01*
X157907326Y-64139465D01*
X157952661Y-64135000D01*
X159039339Y-64135000D01*
X159084674Y-64139465D01*
G37*
G36*
X140396000Y-64666000D02*
G01*
X138094000Y-64666000D01*
X138094000Y-63364000D01*
X140396000Y-63364000D01*
X140396000Y-64666000D01*
G37*
G36*
X91746564Y-62489389D02*
G01*
X91937833Y-62568615D01*
X91937835Y-62568616D01*
X92109973Y-62683635D01*
X92256365Y-62830027D01*
X92371385Y-63002167D01*
X92450611Y-63193436D01*
X92491000Y-63396484D01*
X92491000Y-63603516D01*
X92450611Y-63806564D01*
X92371385Y-63997833D01*
X92371384Y-63997835D01*
X92256365Y-64169973D01*
X92109973Y-64316365D01*
X91937835Y-64431384D01*
X91937834Y-64431385D01*
X91937833Y-64431385D01*
X91746564Y-64510611D01*
X91543516Y-64551000D01*
X91336484Y-64551000D01*
X91133436Y-64510611D01*
X90942167Y-64431385D01*
X90942166Y-64431385D01*
X90942165Y-64431384D01*
X90770027Y-64316365D01*
X90623635Y-64169973D01*
X90508616Y-63997835D01*
X90508615Y-63997833D01*
X90429389Y-63806564D01*
X90389000Y-63603516D01*
X90389000Y-63396484D01*
X90429389Y-63193436D01*
X90508615Y-63002167D01*
X90623635Y-62830027D01*
X90770027Y-62683635D01*
X90942165Y-62568616D01*
X90942167Y-62568615D01*
X91133436Y-62489389D01*
X91336484Y-62449000D01*
X91543516Y-62449000D01*
X91746564Y-62489389D01*
G37*
G36*
X98246564Y-62489389D02*
G01*
X98437833Y-62568615D01*
X98437835Y-62568616D01*
X98609973Y-62683635D01*
X98756365Y-62830027D01*
X98871385Y-63002167D01*
X98950611Y-63193436D01*
X98991000Y-63396484D01*
X98991000Y-63603516D01*
X98950611Y-63806564D01*
X98871385Y-63997833D01*
X98871384Y-63997835D01*
X98756365Y-64169973D01*
X98609973Y-64316365D01*
X98437835Y-64431384D01*
X98437834Y-64431385D01*
X98437833Y-64431385D01*
X98246564Y-64510611D01*
X98043516Y-64551000D01*
X97836484Y-64551000D01*
X97633436Y-64510611D01*
X97442167Y-64431385D01*
X97442166Y-64431385D01*
X97442165Y-64431384D01*
X97270027Y-64316365D01*
X97123635Y-64169973D01*
X97008616Y-63997835D01*
X97008615Y-63997833D01*
X96929389Y-63806564D01*
X96889000Y-63603516D01*
X96889000Y-63396484D01*
X96929389Y-63193436D01*
X97008615Y-63002167D01*
X97123635Y-62830027D01*
X97270027Y-62683635D01*
X97442165Y-62568616D01*
X97442167Y-62568615D01*
X97633436Y-62489389D01*
X97836484Y-62449000D01*
X98043516Y-62449000D01*
X98246564Y-62489389D01*
G37*
G36*
X113872674Y-63159965D02*
G01*
X113910367Y-63171399D01*
X113945103Y-63189966D01*
X113975548Y-63214952D01*
X114000534Y-63245397D01*
X114019101Y-63280133D01*
X114030535Y-63317826D01*
X114035000Y-63363161D01*
X114035000Y-64199839D01*
X114030535Y-64245174D01*
X114019101Y-64282867D01*
X114000534Y-64317603D01*
X113975548Y-64348048D01*
X113945103Y-64373034D01*
X113910367Y-64391601D01*
X113872674Y-64403035D01*
X113827339Y-64407500D01*
X112740661Y-64407500D01*
X112695326Y-64403035D01*
X112657633Y-64391601D01*
X112622897Y-64373034D01*
X112592452Y-64348048D01*
X112567466Y-64317603D01*
X112548899Y-64282867D01*
X112537465Y-64245174D01*
X112533000Y-64199839D01*
X112533000Y-63363161D01*
X112537465Y-63317826D01*
X112548899Y-63280133D01*
X112567466Y-63245397D01*
X112592452Y-63214952D01*
X112622897Y-63189966D01*
X112657633Y-63171399D01*
X112695326Y-63159965D01*
X112740661Y-63155500D01*
X113827339Y-63155500D01*
X113872674Y-63159965D01*
G37*
G36*
X119714674Y-63159965D02*
G01*
X119752367Y-63171399D01*
X119787103Y-63189966D01*
X119817548Y-63214952D01*
X119842534Y-63245397D01*
X119861101Y-63280133D01*
X119872535Y-63317826D01*
X119877000Y-63363161D01*
X119877000Y-64199839D01*
X119872535Y-64245174D01*
X119861101Y-64282867D01*
X119842534Y-64317603D01*
X119817548Y-64348048D01*
X119787103Y-64373034D01*
X119752367Y-64391601D01*
X119714674Y-64403035D01*
X119669339Y-64407500D01*
X118582661Y-64407500D01*
X118537326Y-64403035D01*
X118499633Y-64391601D01*
X118464897Y-64373034D01*
X118434452Y-64348048D01*
X118409466Y-64317603D01*
X118390899Y-64282867D01*
X118379465Y-64245174D01*
X118375000Y-64199839D01*
X118375000Y-63363161D01*
X118379465Y-63317826D01*
X118390899Y-63280133D01*
X118409466Y-63245397D01*
X118434452Y-63214952D01*
X118464897Y-63189966D01*
X118499633Y-63171399D01*
X118537326Y-63159965D01*
X118582661Y-63155500D01*
X119669339Y-63155500D01*
X119714674Y-63159965D01*
G37*
G36*
X123524674Y-63159965D02*
G01*
X123562367Y-63171399D01*
X123597103Y-63189966D01*
X123627548Y-63214952D01*
X123652534Y-63245397D01*
X123671101Y-63280133D01*
X123682535Y-63317826D01*
X123687000Y-63363161D01*
X123687000Y-64199839D01*
X123682535Y-64245174D01*
X123671101Y-64282867D01*
X123652534Y-64317603D01*
X123627548Y-64348048D01*
X123597103Y-64373034D01*
X123562367Y-64391601D01*
X123524674Y-64403035D01*
X123479339Y-64407500D01*
X122392661Y-64407500D01*
X122347326Y-64403035D01*
X122309633Y-64391601D01*
X122274897Y-64373034D01*
X122244452Y-64348048D01*
X122219466Y-64317603D01*
X122200899Y-64282867D01*
X122189465Y-64245174D01*
X122185000Y-64199839D01*
X122185000Y-63363161D01*
X122189465Y-63317826D01*
X122200899Y-63280133D01*
X122219466Y-63245397D01*
X122244452Y-63214952D01*
X122274897Y-63189966D01*
X122309633Y-63171399D01*
X122347326Y-63159965D01*
X122392661Y-63155500D01*
X123479339Y-63155500D01*
X123524674Y-63159965D01*
G37*
G36*
X110062674Y-63159965D02*
G01*
X110100367Y-63171399D01*
X110135103Y-63189966D01*
X110165548Y-63214952D01*
X110190534Y-63245397D01*
X110209101Y-63280133D01*
X110220535Y-63317826D01*
X110225000Y-63363161D01*
X110225000Y-64199839D01*
X110220535Y-64245174D01*
X110209101Y-64282867D01*
X110190534Y-64317603D01*
X110165548Y-64348048D01*
X110135103Y-64373034D01*
X110100367Y-64391601D01*
X110062674Y-64403035D01*
X110017339Y-64407500D01*
X108930661Y-64407500D01*
X108885326Y-64403035D01*
X108847633Y-64391601D01*
X108812897Y-64373034D01*
X108782452Y-64348048D01*
X108757466Y-64317603D01*
X108738899Y-64282867D01*
X108727465Y-64245174D01*
X108723000Y-64199839D01*
X108723000Y-63363161D01*
X108727465Y-63317826D01*
X108738899Y-63280133D01*
X108757466Y-63245397D01*
X108782452Y-63214952D01*
X108812897Y-63189966D01*
X108847633Y-63171399D01*
X108885326Y-63159965D01*
X108930661Y-63155500D01*
X110017339Y-63155500D01*
X110062674Y-63159965D01*
G37*
G36*
X106252674Y-63159965D02*
G01*
X106290367Y-63171399D01*
X106325103Y-63189966D01*
X106355548Y-63214952D01*
X106380534Y-63245397D01*
X106399101Y-63280133D01*
X106410535Y-63317826D01*
X106415000Y-63363161D01*
X106415000Y-64199839D01*
X106410535Y-64245174D01*
X106399101Y-64282867D01*
X106380534Y-64317603D01*
X106355548Y-64348048D01*
X106325103Y-64373034D01*
X106290367Y-64391601D01*
X106252674Y-64403035D01*
X106207339Y-64407500D01*
X105120661Y-64407500D01*
X105075326Y-64403035D01*
X105037633Y-64391601D01*
X105002897Y-64373034D01*
X104972452Y-64348048D01*
X104947466Y-64317603D01*
X104928899Y-64282867D01*
X104917465Y-64245174D01*
X104913000Y-64199839D01*
X104913000Y-63363161D01*
X104917465Y-63317826D01*
X104928899Y-63280133D01*
X104947466Y-63245397D01*
X104972452Y-63214952D01*
X105002897Y-63189966D01*
X105037633Y-63171399D01*
X105075326Y-63159965D01*
X105120661Y-63155500D01*
X106207339Y-63155500D01*
X106252674Y-63159965D01*
G37*
G36*
X202743000Y-64313000D02*
G01*
X201117000Y-64313000D01*
X201117000Y-62687000D01*
X202743000Y-62687000D01*
X202743000Y-64313000D01*
G37*
G36*
X205283000Y-64313000D02*
G01*
X203657000Y-64313000D01*
X203657000Y-62687000D01*
X205283000Y-62687000D01*
X205283000Y-64313000D01*
G37*
G36*
X175986674Y-62753465D02*
G01*
X176024367Y-62764899D01*
X176059103Y-62783466D01*
X176089548Y-62808452D01*
X176114534Y-62838897D01*
X176133101Y-62873633D01*
X176144535Y-62911326D01*
X176149000Y-62956661D01*
X176149000Y-64043339D01*
X176144535Y-64088674D01*
X176133101Y-64126367D01*
X176114534Y-64161103D01*
X176089548Y-64191548D01*
X176059103Y-64216534D01*
X176024367Y-64235101D01*
X175986674Y-64246535D01*
X175941339Y-64251000D01*
X175104661Y-64251000D01*
X175059326Y-64246535D01*
X175021633Y-64235101D01*
X174986897Y-64216534D01*
X174956452Y-64191548D01*
X174931466Y-64161103D01*
X174912899Y-64126367D01*
X174901465Y-64088674D01*
X174897000Y-64043339D01*
X174897000Y-62956661D01*
X174901465Y-62911326D01*
X174912899Y-62873633D01*
X174931466Y-62838897D01*
X174956452Y-62808452D01*
X174986897Y-62783466D01*
X175021633Y-62764899D01*
X175059326Y-62753465D01*
X175104661Y-62749000D01*
X175941339Y-62749000D01*
X175986674Y-62753465D01*
G37*
G36*
X173936674Y-62753465D02*
G01*
X173974367Y-62764899D01*
X174009103Y-62783466D01*
X174039548Y-62808452D01*
X174064534Y-62838897D01*
X174083101Y-62873633D01*
X174094535Y-62911326D01*
X174099000Y-62956661D01*
X174099000Y-64043339D01*
X174094535Y-64088674D01*
X174083101Y-64126367D01*
X174064534Y-64161103D01*
X174039548Y-64191548D01*
X174009103Y-64216534D01*
X173974367Y-64235101D01*
X173936674Y-64246535D01*
X173891339Y-64251000D01*
X173054661Y-64251000D01*
X173009326Y-64246535D01*
X172971633Y-64235101D01*
X172936897Y-64216534D01*
X172906452Y-64191548D01*
X172881466Y-64161103D01*
X172862899Y-64126367D01*
X172851465Y-64088674D01*
X172847000Y-64043339D01*
X172847000Y-62956661D01*
X172851465Y-62911326D01*
X172862899Y-62873633D01*
X172881466Y-62838897D01*
X172906452Y-62808452D01*
X172936897Y-62783466D01*
X172971633Y-62764899D01*
X173009326Y-62753465D01*
X173054661Y-62749000D01*
X173891339Y-62749000D01*
X173936674Y-62753465D01*
G37*
G36*
X205283000Y-61773000D02*
G01*
X203657000Y-61773000D01*
X203657000Y-60147000D01*
X205283000Y-60147000D01*
X205283000Y-61773000D01*
G37*
G36*
X202743000Y-61773000D02*
G01*
X201117000Y-61773000D01*
X201117000Y-60147000D01*
X202743000Y-60147000D01*
X202743000Y-61773000D01*
G37*
G36*
X155636000Y-60856000D02*
G01*
X153334000Y-60856000D01*
X153334000Y-59554000D01*
X155636000Y-59554000D01*
X155636000Y-60856000D01*
G37*
G36*
X159084674Y-59585465D02*
G01*
X159122367Y-59596899D01*
X159157103Y-59615466D01*
X159187548Y-59640452D01*
X159212534Y-59670897D01*
X159231101Y-59705633D01*
X159242535Y-59743326D01*
X159247000Y-59788661D01*
X159247000Y-60625339D01*
X159242535Y-60670674D01*
X159231101Y-60708367D01*
X159212534Y-60743103D01*
X159187548Y-60773548D01*
X159157103Y-60798534D01*
X159122367Y-60817101D01*
X159084674Y-60828535D01*
X159039339Y-60833000D01*
X157952661Y-60833000D01*
X157907326Y-60828535D01*
X157869633Y-60817101D01*
X157834897Y-60798534D01*
X157804452Y-60773548D01*
X157779466Y-60743103D01*
X157760899Y-60708367D01*
X157749465Y-60670674D01*
X157745000Y-60625339D01*
X157745000Y-59788661D01*
X157749465Y-59743326D01*
X157760899Y-59705633D01*
X157779466Y-59670897D01*
X157804452Y-59640452D01*
X157834897Y-59615466D01*
X157869633Y-59596899D01*
X157907326Y-59585465D01*
X157952661Y-59581000D01*
X159039339Y-59581000D01*
X159084674Y-59585465D01*
G37*
G36*
X98246564Y-57989389D02*
G01*
X98437833Y-58068615D01*
X98437835Y-58068616D01*
X98609973Y-58183635D01*
X98756365Y-58330027D01*
X98860882Y-58486447D01*
X98871385Y-58502167D01*
X98950611Y-58693436D01*
X98991000Y-58896484D01*
X98991000Y-59103516D01*
X98950611Y-59306564D01*
X98871385Y-59497833D01*
X98871384Y-59497835D01*
X98756365Y-59669973D01*
X98609973Y-59816365D01*
X98437835Y-59931384D01*
X98437834Y-59931385D01*
X98437833Y-59931385D01*
X98246564Y-60010611D01*
X98043516Y-60051000D01*
X97836484Y-60051000D01*
X97633436Y-60010611D01*
X97442167Y-59931385D01*
X97442166Y-59931385D01*
X97442165Y-59931384D01*
X97270027Y-59816365D01*
X97123635Y-59669973D01*
X97008616Y-59497835D01*
X97008615Y-59497833D01*
X96929389Y-59306564D01*
X96889000Y-59103516D01*
X96889000Y-58896484D01*
X96929389Y-58693436D01*
X97008615Y-58502167D01*
X97019119Y-58486447D01*
X97123635Y-58330027D01*
X97270027Y-58183635D01*
X97442165Y-58068616D01*
X97442167Y-58068615D01*
X97633436Y-57989389D01*
X97836484Y-57949000D01*
X98043516Y-57949000D01*
X98246564Y-57989389D01*
G37*
G36*
X91746564Y-57989389D02*
G01*
X91937833Y-58068615D01*
X91937835Y-58068616D01*
X92109973Y-58183635D01*
X92256365Y-58330027D01*
X92360882Y-58486447D01*
X92371385Y-58502167D01*
X92450611Y-58693436D01*
X92491000Y-58896484D01*
X92491000Y-59103516D01*
X92450611Y-59306564D01*
X92371385Y-59497833D01*
X92371384Y-59497835D01*
X92256365Y-59669973D01*
X92109973Y-59816365D01*
X91937835Y-59931384D01*
X91937834Y-59931385D01*
X91937833Y-59931385D01*
X91746564Y-60010611D01*
X91543516Y-60051000D01*
X91336484Y-60051000D01*
X91133436Y-60010611D01*
X90942167Y-59931385D01*
X90942166Y-59931385D01*
X90942165Y-59931384D01*
X90770027Y-59816365D01*
X90623635Y-59669973D01*
X90508616Y-59497835D01*
X90508615Y-59497833D01*
X90429389Y-59306564D01*
X90389000Y-59103516D01*
X90389000Y-58896484D01*
X90429389Y-58693436D01*
X90508615Y-58502167D01*
X90519119Y-58486447D01*
X90623635Y-58330027D01*
X90770027Y-58183635D01*
X90942165Y-58068616D01*
X90942167Y-58068615D01*
X91133436Y-57989389D01*
X91336484Y-57949000D01*
X91543516Y-57949000D01*
X91746564Y-57989389D01*
G37*
G36*
X124118000Y-55694161D02*
G01*
X124095248Y-55696402D01*
X124071799Y-55703515D01*
X124050188Y-55715066D01*
X124031246Y-55730611D01*
X124015701Y-55749553D01*
X124004150Y-55771164D01*
X123997037Y-55794613D01*
X123994635Y-55818999D01*
X123997037Y-55843385D01*
X124004150Y-55866834D01*
X124015701Y-55888445D01*
X124031246Y-55907387D01*
X124050188Y-55922932D01*
X124210086Y-56029772D01*
X124405228Y-56224914D01*
X124507675Y-56378237D01*
X124558551Y-56454379D01*
X124620415Y-56603733D01*
X124664161Y-56709343D01*
X124718000Y-56980014D01*
X124718000Y-57255986D01*
X124664161Y-57526657D01*
X124643362Y-57576869D01*
X124558551Y-57781621D01*
X124558550Y-57781622D01*
X124405228Y-58011086D01*
X124210086Y-58206228D01*
X124091034Y-58285776D01*
X124050188Y-58313068D01*
X124031246Y-58328613D01*
X124015701Y-58347555D01*
X124004150Y-58369166D01*
X123997037Y-58392615D01*
X123994635Y-58417001D01*
X123997037Y-58441387D01*
X124004150Y-58464836D01*
X124015701Y-58486447D01*
X124031246Y-58505389D01*
X124050188Y-58520934D01*
X124071799Y-58532485D01*
X124095248Y-58539598D01*
X124118000Y-58541839D01*
X124118000Y-59694000D01*
X122516000Y-59694000D01*
X122516000Y-58541839D01*
X122538752Y-58539598D01*
X122562201Y-58532485D01*
X122583812Y-58520934D01*
X122602754Y-58505389D01*
X122618299Y-58486447D01*
X122629850Y-58464836D01*
X122636963Y-58441387D01*
X122639365Y-58417001D01*
X122636963Y-58392615D01*
X122629850Y-58369166D01*
X122618299Y-58347555D01*
X122602754Y-58328613D01*
X122583812Y-58313068D01*
X122542966Y-58285776D01*
X122423914Y-58206228D01*
X122228772Y-58011086D01*
X122075450Y-57781622D01*
X122075449Y-57781621D01*
X121990638Y-57576869D01*
X121969839Y-57526657D01*
X121916000Y-57255986D01*
X121916000Y-56980014D01*
X121969839Y-56709343D01*
X122013585Y-56603733D01*
X122075449Y-56454379D01*
X122126325Y-56378237D01*
X122228772Y-56224914D01*
X122423914Y-56029772D01*
X122583812Y-55922932D01*
X122602754Y-55907387D01*
X122618299Y-55888445D01*
X122629850Y-55866834D01*
X122636963Y-55843385D01*
X122639365Y-55818999D01*
X122636963Y-55794613D01*
X122629850Y-55771164D01*
X122618299Y-55749553D01*
X122602754Y-55730611D01*
X122583812Y-55715066D01*
X122562201Y-55703515D01*
X122538752Y-55696402D01*
X122516000Y-55694161D01*
X122516000Y-54542000D01*
X124118000Y-54542000D01*
X124118000Y-55694161D01*
G37*
G36*
X120054000Y-55694161D02*
G01*
X120031248Y-55696402D01*
X120007799Y-55703515D01*
X119986188Y-55715066D01*
X119967246Y-55730611D01*
X119951701Y-55749553D01*
X119940150Y-55771164D01*
X119933037Y-55794613D01*
X119930635Y-55818999D01*
X119933037Y-55843385D01*
X119940150Y-55866834D01*
X119951701Y-55888445D01*
X119967246Y-55907387D01*
X119986188Y-55922932D01*
X120146086Y-56029772D01*
X120341228Y-56224914D01*
X120443675Y-56378237D01*
X120494551Y-56454379D01*
X120556415Y-56603733D01*
X120600161Y-56709343D01*
X120654000Y-56980014D01*
X120654000Y-57255986D01*
X120600161Y-57526657D01*
X120579362Y-57576869D01*
X120494551Y-57781621D01*
X120494550Y-57781622D01*
X120341228Y-58011086D01*
X120146086Y-58206228D01*
X120027034Y-58285776D01*
X119986188Y-58313068D01*
X119967246Y-58328613D01*
X119951701Y-58347555D01*
X119940150Y-58369166D01*
X119933037Y-58392615D01*
X119930635Y-58417001D01*
X119933037Y-58441387D01*
X119940150Y-58464836D01*
X119951701Y-58486447D01*
X119967246Y-58505389D01*
X119986188Y-58520934D01*
X120007799Y-58532485D01*
X120031248Y-58539598D01*
X120054000Y-58541839D01*
X120054000Y-59694000D01*
X118452000Y-59694000D01*
X118452000Y-58541839D01*
X118474752Y-58539598D01*
X118498201Y-58532485D01*
X118519812Y-58520934D01*
X118538754Y-58505389D01*
X118554299Y-58486447D01*
X118565850Y-58464836D01*
X118572963Y-58441387D01*
X118575365Y-58417001D01*
X118572963Y-58392615D01*
X118565850Y-58369166D01*
X118554299Y-58347555D01*
X118538754Y-58328613D01*
X118519812Y-58313068D01*
X118478966Y-58285776D01*
X118359914Y-58206228D01*
X118164772Y-58011086D01*
X118011450Y-57781622D01*
X118011449Y-57781621D01*
X117926638Y-57576869D01*
X117905839Y-57526657D01*
X117852000Y-57255986D01*
X117852000Y-56980014D01*
X117905839Y-56709343D01*
X117949585Y-56603733D01*
X118011449Y-56454379D01*
X118062325Y-56378237D01*
X118164772Y-56224914D01*
X118359914Y-56029772D01*
X118519812Y-55922932D01*
X118538754Y-55907387D01*
X118554299Y-55888445D01*
X118565850Y-55866834D01*
X118572963Y-55843385D01*
X118575365Y-55818999D01*
X118572963Y-55794613D01*
X118565850Y-55771164D01*
X118554299Y-55749553D01*
X118538754Y-55730611D01*
X118519812Y-55715066D01*
X118498201Y-55703515D01*
X118474752Y-55696402D01*
X118452000Y-55694161D01*
X118452000Y-54542000D01*
X120054000Y-54542000D01*
X120054000Y-55694161D01*
G37*
G36*
X111291000Y-55694161D02*
G01*
X111268248Y-55696402D01*
X111244799Y-55703515D01*
X111223188Y-55715066D01*
X111204246Y-55730611D01*
X111188701Y-55749553D01*
X111177150Y-55771164D01*
X111170037Y-55794613D01*
X111167635Y-55818999D01*
X111170037Y-55843385D01*
X111177150Y-55866834D01*
X111188701Y-55888445D01*
X111204246Y-55907387D01*
X111223188Y-55922932D01*
X111383086Y-56029772D01*
X111578228Y-56224914D01*
X111680675Y-56378237D01*
X111731551Y-56454379D01*
X111793415Y-56603733D01*
X111837161Y-56709343D01*
X111891000Y-56980014D01*
X111891000Y-57255986D01*
X111837161Y-57526657D01*
X111816362Y-57576869D01*
X111731551Y-57781621D01*
X111731550Y-57781622D01*
X111578228Y-58011086D01*
X111383086Y-58206228D01*
X111264034Y-58285776D01*
X111223188Y-58313068D01*
X111204246Y-58328613D01*
X111188701Y-58347555D01*
X111177150Y-58369166D01*
X111170037Y-58392615D01*
X111167635Y-58417001D01*
X111170037Y-58441387D01*
X111177150Y-58464836D01*
X111188701Y-58486447D01*
X111204246Y-58505389D01*
X111223188Y-58520934D01*
X111244799Y-58532485D01*
X111268248Y-58539598D01*
X111291000Y-58541839D01*
X111291000Y-59694000D01*
X109689000Y-59694000D01*
X109689000Y-58541839D01*
X109711752Y-58539598D01*
X109735201Y-58532485D01*
X109756812Y-58520934D01*
X109775754Y-58505389D01*
X109791299Y-58486447D01*
X109802850Y-58464836D01*
X109809963Y-58441387D01*
X109812365Y-58417001D01*
X109809963Y-58392615D01*
X109802850Y-58369166D01*
X109791299Y-58347555D01*
X109775754Y-58328613D01*
X109756812Y-58313068D01*
X109715966Y-58285776D01*
X109596914Y-58206228D01*
X109401772Y-58011086D01*
X109248450Y-57781622D01*
X109248449Y-57781621D01*
X109163638Y-57576869D01*
X109142839Y-57526657D01*
X109089000Y-57255986D01*
X109089000Y-56980014D01*
X109142839Y-56709343D01*
X109186585Y-56603733D01*
X109248449Y-56454379D01*
X109299325Y-56378237D01*
X109401772Y-56224914D01*
X109596914Y-56029772D01*
X109756812Y-55922932D01*
X109775754Y-55907387D01*
X109791299Y-55888445D01*
X109802850Y-55866834D01*
X109809963Y-55843385D01*
X109812365Y-55818999D01*
X109809963Y-55794613D01*
X109802850Y-55771164D01*
X109791299Y-55749553D01*
X109775754Y-55730611D01*
X109756812Y-55715066D01*
X109735201Y-55703515D01*
X109711752Y-55696402D01*
X109689000Y-55694161D01*
X109689000Y-54542000D01*
X111291000Y-54542000D01*
X111291000Y-55694161D01*
G37*
G36*
X107481000Y-55694161D02*
G01*
X107458248Y-55696402D01*
X107434799Y-55703515D01*
X107413188Y-55715066D01*
X107394246Y-55730611D01*
X107378701Y-55749553D01*
X107367150Y-55771164D01*
X107360037Y-55794613D01*
X107357635Y-55818999D01*
X107360037Y-55843385D01*
X107367150Y-55866834D01*
X107378701Y-55888445D01*
X107394246Y-55907387D01*
X107413188Y-55922932D01*
X107573086Y-56029772D01*
X107768228Y-56224914D01*
X107870675Y-56378237D01*
X107921551Y-56454379D01*
X107983415Y-56603733D01*
X108027161Y-56709343D01*
X108081000Y-56980014D01*
X108081000Y-57255986D01*
X108027161Y-57526657D01*
X108006362Y-57576869D01*
X107921551Y-57781621D01*
X107921550Y-57781622D01*
X107768228Y-58011086D01*
X107573086Y-58206228D01*
X107454034Y-58285776D01*
X107413188Y-58313068D01*
X107394246Y-58328613D01*
X107378701Y-58347555D01*
X107367150Y-58369166D01*
X107360037Y-58392615D01*
X107357635Y-58417001D01*
X107360037Y-58441387D01*
X107367150Y-58464836D01*
X107378701Y-58486447D01*
X107394246Y-58505389D01*
X107413188Y-58520934D01*
X107434799Y-58532485D01*
X107458248Y-58539598D01*
X107481000Y-58541839D01*
X107481000Y-59694000D01*
X105879000Y-59694000D01*
X105879000Y-58541839D01*
X105901752Y-58539598D01*
X105925201Y-58532485D01*
X105946812Y-58520934D01*
X105965754Y-58505389D01*
X105981299Y-58486447D01*
X105992850Y-58464836D01*
X105999963Y-58441387D01*
X106002365Y-58417001D01*
X105999963Y-58392615D01*
X105992850Y-58369166D01*
X105981299Y-58347555D01*
X105965754Y-58328613D01*
X105946812Y-58313068D01*
X105905966Y-58285776D01*
X105786914Y-58206228D01*
X105591772Y-58011086D01*
X105438450Y-57781622D01*
X105438449Y-57781621D01*
X105353638Y-57576869D01*
X105332839Y-57526657D01*
X105279000Y-57255986D01*
X105279000Y-56980014D01*
X105332839Y-56709343D01*
X105376585Y-56603733D01*
X105438449Y-56454379D01*
X105489325Y-56378237D01*
X105591772Y-56224914D01*
X105786914Y-56029772D01*
X105946812Y-55922932D01*
X105965754Y-55907387D01*
X105981299Y-55888445D01*
X105992850Y-55866834D01*
X105999963Y-55843385D01*
X106002365Y-55818999D01*
X105999963Y-55794613D01*
X105992850Y-55771164D01*
X105981299Y-55749553D01*
X105965754Y-55730611D01*
X105946812Y-55715066D01*
X105925201Y-55703515D01*
X105901752Y-55696402D01*
X105879000Y-55694161D01*
X105879000Y-54542000D01*
X107481000Y-54542000D01*
X107481000Y-55694161D01*
G37*
G36*
X159084674Y-57535465D02*
G01*
X159122367Y-57546899D01*
X159157103Y-57565466D01*
X159187548Y-57590452D01*
X159212534Y-57620897D01*
X159231101Y-57655633D01*
X159242535Y-57693326D01*
X159247000Y-57738661D01*
X159247000Y-58575339D01*
X159242535Y-58620674D01*
X159231101Y-58658367D01*
X159212534Y-58693103D01*
X159187548Y-58723548D01*
X159157103Y-58748534D01*
X159122367Y-58767101D01*
X159084674Y-58778535D01*
X159039339Y-58783000D01*
X157952661Y-58783000D01*
X157907326Y-58778535D01*
X157869633Y-58767101D01*
X157834897Y-58748534D01*
X157804452Y-58723548D01*
X157779466Y-58693103D01*
X157760899Y-58658367D01*
X157749465Y-58620674D01*
X157745000Y-58575339D01*
X157745000Y-57738661D01*
X157749465Y-57693326D01*
X157760899Y-57655633D01*
X157779466Y-57620897D01*
X157804452Y-57590452D01*
X157834897Y-57565466D01*
X157869633Y-57546899D01*
X157907326Y-57535465D01*
X157952661Y-57531000D01*
X159039339Y-57531000D01*
X159084674Y-57535465D01*
G37*
G36*
X141501000Y-56831000D02*
G01*
X137899000Y-56831000D01*
X137899000Y-54929000D01*
X141501000Y-54929000D01*
X141501000Y-56831000D01*
G37*
G36*
X136501000Y-56831000D02*
G01*
X132899000Y-56831000D01*
X132899000Y-54929000D01*
X136501000Y-54929000D01*
X136501000Y-56831000D01*
G37*
G36*
X165236601Y-54914397D02*
G01*
X165275305Y-54922096D01*
X165307340Y-54935365D01*
X165384680Y-54967400D01*
X165483115Y-55033173D01*
X165566827Y-55116885D01*
X165632600Y-55215320D01*
X165664635Y-55292660D01*
X165677904Y-55324695D01*
X165701000Y-55440807D01*
X165701000Y-55559193D01*
X165677904Y-55675305D01*
X165669165Y-55696402D01*
X165632600Y-55784680D01*
X165566827Y-55883115D01*
X165483115Y-55966827D01*
X165384680Y-56032600D01*
X165307340Y-56064635D01*
X165275305Y-56077904D01*
X165236601Y-56085603D01*
X165159195Y-56101000D01*
X165040805Y-56101000D01*
X164963399Y-56085603D01*
X164924695Y-56077904D01*
X164892660Y-56064635D01*
X164815320Y-56032600D01*
X164716885Y-55966827D01*
X164633173Y-55883115D01*
X164567400Y-55784680D01*
X164530835Y-55696402D01*
X164522096Y-55675305D01*
X164499000Y-55559193D01*
X164499000Y-55440807D01*
X164522096Y-55324695D01*
X164535365Y-55292660D01*
X164567400Y-55215320D01*
X164633173Y-55116885D01*
X164716885Y-55033173D01*
X164815320Y-54967400D01*
X164892660Y-54935365D01*
X164924695Y-54922096D01*
X164963399Y-54914397D01*
X165040805Y-54899000D01*
X165159195Y-54899000D01*
X165236601Y-54914397D01*
G37*
G36*
X177936601Y-54914397D02*
G01*
X177975305Y-54922096D01*
X178007340Y-54935365D01*
X178084680Y-54967400D01*
X178183115Y-55033173D01*
X178266827Y-55116885D01*
X178332600Y-55215320D01*
X178364635Y-55292660D01*
X178377904Y-55324695D01*
X178401000Y-55440807D01*
X178401000Y-55559193D01*
X178377904Y-55675305D01*
X178369165Y-55696402D01*
X178332600Y-55784680D01*
X178266827Y-55883115D01*
X178183115Y-55966827D01*
X178084680Y-56032600D01*
X178007340Y-56064635D01*
X177975305Y-56077904D01*
X177936601Y-56085603D01*
X177859195Y-56101000D01*
X177740805Y-56101000D01*
X177663399Y-56085603D01*
X177624695Y-56077904D01*
X177592660Y-56064635D01*
X177515320Y-56032600D01*
X177416885Y-55966827D01*
X177333173Y-55883115D01*
X177267400Y-55784680D01*
X177230835Y-55696402D01*
X177222096Y-55675305D01*
X177199000Y-55559193D01*
X177199000Y-55440807D01*
X177222096Y-55324695D01*
X177235365Y-55292660D01*
X177267400Y-55215320D01*
X177333173Y-55116885D01*
X177416885Y-55033173D01*
X177515320Y-54967400D01*
X177592660Y-54935365D01*
X177624695Y-54922096D01*
X177663399Y-54914397D01*
X177740805Y-54899000D01*
X177859195Y-54899000D01*
X177936601Y-54914397D01*
G37*
G36*
X190636601Y-54914397D02*
G01*
X190675305Y-54922096D01*
X190707340Y-54935365D01*
X190784680Y-54967400D01*
X190883115Y-55033173D01*
X190966827Y-55116885D01*
X191032600Y-55215320D01*
X191064635Y-55292660D01*
X191077904Y-55324695D01*
X191101000Y-55440807D01*
X191101000Y-55559193D01*
X191077904Y-55675305D01*
X191069165Y-55696402D01*
X191032600Y-55784680D01*
X190966827Y-55883115D01*
X190883115Y-55966827D01*
X190784680Y-56032600D01*
X190707340Y-56064635D01*
X190675305Y-56077904D01*
X190636601Y-56085603D01*
X190559195Y-56101000D01*
X190440805Y-56101000D01*
X190363399Y-56085603D01*
X190324695Y-56077904D01*
X190292660Y-56064635D01*
X190215320Y-56032600D01*
X190116885Y-55966827D01*
X190033173Y-55883115D01*
X189967400Y-55784680D01*
X189930835Y-55696402D01*
X189922096Y-55675305D01*
X189899000Y-55559193D01*
X189899000Y-55440807D01*
X189922096Y-55324695D01*
X189935365Y-55292660D01*
X189967400Y-55215320D01*
X190033173Y-55116885D01*
X190116885Y-55033173D01*
X190215320Y-54967400D01*
X190292660Y-54935365D01*
X190324695Y-54922096D01*
X190363399Y-54914397D01*
X190440805Y-54899000D01*
X190559195Y-54899000D01*
X190636601Y-54914397D01*
G37*
G36*
X167803468Y-52285668D02*
G01*
X167819568Y-52287254D01*
X167905900Y-52313443D01*
X167992234Y-52339632D01*
X168151365Y-52424689D01*
X168290844Y-52539156D01*
X168405311Y-52678635D01*
X168490368Y-52837766D01*
X168525287Y-52952878D01*
X168542746Y-53010432D01*
X168542746Y-53010434D01*
X168556000Y-53145003D01*
X168556000Y-53534998D01*
X168542746Y-53669567D01*
X168490368Y-53842234D01*
X168405311Y-54001365D01*
X168290844Y-54140844D01*
X168151364Y-54255311D01*
X167992233Y-54340368D01*
X167819567Y-54392746D01*
X167803467Y-54394332D01*
X167640000Y-54410432D01*
X167476532Y-54394332D01*
X167460432Y-54392746D01*
X167287766Y-54340368D01*
X167128635Y-54255311D01*
X166989156Y-54140844D01*
X166874689Y-54001364D01*
X166789632Y-53842233D01*
X166756724Y-53733751D01*
X166737254Y-53669567D01*
X166735361Y-53650342D01*
X166724000Y-53534997D01*
X166724000Y-53145002D01*
X166737254Y-53010433D01*
X166789632Y-52837766D01*
X166874689Y-52678635D01*
X166989157Y-52539156D01*
X167128636Y-52424689D01*
X167287767Y-52339632D01*
X167374101Y-52313443D01*
X167460433Y-52287254D01*
X167476533Y-52285668D01*
X167640000Y-52269568D01*
X167803468Y-52285668D01*
G37*
G36*
X165263468Y-52285668D02*
G01*
X165279568Y-52287254D01*
X165365900Y-52313443D01*
X165452234Y-52339632D01*
X165611365Y-52424689D01*
X165750844Y-52539156D01*
X165865311Y-52678635D01*
X165950368Y-52837766D01*
X165985287Y-52952878D01*
X166002746Y-53010432D01*
X166002746Y-53010434D01*
X166016000Y-53145003D01*
X166016000Y-53534998D01*
X166002746Y-53669567D01*
X165950368Y-53842234D01*
X165865311Y-54001365D01*
X165750844Y-54140844D01*
X165611364Y-54255311D01*
X165452233Y-54340368D01*
X165279567Y-54392746D01*
X165263467Y-54394332D01*
X165100000Y-54410432D01*
X164936532Y-54394332D01*
X164920432Y-54392746D01*
X164747766Y-54340368D01*
X164588635Y-54255311D01*
X164449156Y-54140844D01*
X164334689Y-54001364D01*
X164249632Y-53842233D01*
X164216724Y-53733751D01*
X164197254Y-53669567D01*
X164195361Y-53650342D01*
X164184000Y-53534997D01*
X164184000Y-53145002D01*
X164197254Y-53010433D01*
X164249632Y-52837766D01*
X164334689Y-52678635D01*
X164449157Y-52539156D01*
X164588636Y-52424689D01*
X164747767Y-52339632D01*
X164834101Y-52313443D01*
X164920433Y-52287254D01*
X164936533Y-52285668D01*
X165100000Y-52269568D01*
X165263468Y-52285668D01*
G37*
G36*
X162723468Y-52285668D02*
G01*
X162739568Y-52287254D01*
X162825900Y-52313443D01*
X162912234Y-52339632D01*
X163071365Y-52424689D01*
X163210844Y-52539156D01*
X163325311Y-52678635D01*
X163410368Y-52837766D01*
X163445287Y-52952878D01*
X163462746Y-53010432D01*
X163462746Y-53010434D01*
X163476000Y-53145003D01*
X163476000Y-53534998D01*
X163462746Y-53669567D01*
X163410368Y-53842234D01*
X163325311Y-54001365D01*
X163210844Y-54140844D01*
X163071364Y-54255311D01*
X162912233Y-54340368D01*
X162739567Y-54392746D01*
X162723467Y-54394332D01*
X162560000Y-54410432D01*
X162396532Y-54394332D01*
X162380432Y-54392746D01*
X162207766Y-54340368D01*
X162048635Y-54255311D01*
X161909156Y-54140844D01*
X161794689Y-54001364D01*
X161709632Y-53842233D01*
X161676724Y-53733751D01*
X161657254Y-53669567D01*
X161655361Y-53650342D01*
X161644000Y-53534997D01*
X161644000Y-53145002D01*
X161657254Y-53010433D01*
X161709632Y-52837766D01*
X161794689Y-52678635D01*
X161909157Y-52539156D01*
X162048636Y-52424689D01*
X162207767Y-52339632D01*
X162294101Y-52313443D01*
X162380433Y-52287254D01*
X162396533Y-52285668D01*
X162560000Y-52269568D01*
X162723468Y-52285668D01*
G37*
G36*
X180503468Y-52285668D02*
G01*
X180519568Y-52287254D01*
X180605900Y-52313443D01*
X180692234Y-52339632D01*
X180851365Y-52424689D01*
X180990844Y-52539156D01*
X181105311Y-52678635D01*
X181190368Y-52837766D01*
X181225287Y-52952878D01*
X181242746Y-53010432D01*
X181242746Y-53010434D01*
X181256000Y-53145003D01*
X181256000Y-53534998D01*
X181242746Y-53669567D01*
X181190368Y-53842234D01*
X181105311Y-54001365D01*
X180990844Y-54140844D01*
X180851364Y-54255311D01*
X180692233Y-54340368D01*
X180519567Y-54392746D01*
X180503467Y-54394332D01*
X180340000Y-54410432D01*
X180176532Y-54394332D01*
X180160432Y-54392746D01*
X179987766Y-54340368D01*
X179828635Y-54255311D01*
X179689156Y-54140844D01*
X179574689Y-54001364D01*
X179489632Y-53842233D01*
X179456724Y-53733751D01*
X179437254Y-53669567D01*
X179435361Y-53650342D01*
X179424000Y-53534997D01*
X179424000Y-53145002D01*
X179437254Y-53010433D01*
X179489632Y-52837766D01*
X179574689Y-52678635D01*
X179689157Y-52539156D01*
X179828636Y-52424689D01*
X179987767Y-52339632D01*
X180074101Y-52313443D01*
X180160433Y-52287254D01*
X180176533Y-52285668D01*
X180340000Y-52269568D01*
X180503468Y-52285668D01*
G37*
G36*
X177963468Y-52285668D02*
G01*
X177979568Y-52287254D01*
X178065900Y-52313443D01*
X178152234Y-52339632D01*
X178311365Y-52424689D01*
X178450844Y-52539156D01*
X178565311Y-52678635D01*
X178650368Y-52837766D01*
X178685287Y-52952878D01*
X178702746Y-53010432D01*
X178702746Y-53010434D01*
X178716000Y-53145003D01*
X178716000Y-53534998D01*
X178702746Y-53669567D01*
X178650368Y-53842234D01*
X178565311Y-54001365D01*
X178450844Y-54140844D01*
X178311364Y-54255311D01*
X178152233Y-54340368D01*
X177979567Y-54392746D01*
X177963467Y-54394332D01*
X177800000Y-54410432D01*
X177636532Y-54394332D01*
X177620432Y-54392746D01*
X177447766Y-54340368D01*
X177288635Y-54255311D01*
X177149156Y-54140844D01*
X177034689Y-54001364D01*
X176949632Y-53842233D01*
X176916724Y-53733751D01*
X176897254Y-53669567D01*
X176895361Y-53650342D01*
X176884000Y-53534997D01*
X176884000Y-53145002D01*
X176897254Y-53010433D01*
X176949632Y-52837766D01*
X177034689Y-52678635D01*
X177149157Y-52539156D01*
X177288636Y-52424689D01*
X177447767Y-52339632D01*
X177534101Y-52313443D01*
X177620433Y-52287254D01*
X177636533Y-52285668D01*
X177800000Y-52269568D01*
X177963468Y-52285668D01*
G37*
G36*
X175423468Y-52285668D02*
G01*
X175439568Y-52287254D01*
X175525900Y-52313443D01*
X175612234Y-52339632D01*
X175771365Y-52424689D01*
X175910844Y-52539156D01*
X176025311Y-52678635D01*
X176110368Y-52837766D01*
X176145287Y-52952878D01*
X176162746Y-53010432D01*
X176162746Y-53010434D01*
X176176000Y-53145003D01*
X176176000Y-53534998D01*
X176162746Y-53669567D01*
X176110368Y-53842234D01*
X176025311Y-54001365D01*
X175910844Y-54140844D01*
X175771364Y-54255311D01*
X175612233Y-54340368D01*
X175439567Y-54392746D01*
X175423467Y-54394332D01*
X175260000Y-54410432D01*
X175096532Y-54394332D01*
X175080432Y-54392746D01*
X174907766Y-54340368D01*
X174748635Y-54255311D01*
X174609156Y-54140844D01*
X174494689Y-54001364D01*
X174409632Y-53842233D01*
X174376724Y-53733751D01*
X174357254Y-53669567D01*
X174355361Y-53650342D01*
X174344000Y-53534997D01*
X174344000Y-53145002D01*
X174357254Y-53010433D01*
X174409632Y-52837766D01*
X174494689Y-52678635D01*
X174609157Y-52539156D01*
X174748636Y-52424689D01*
X174907767Y-52339632D01*
X174994101Y-52313443D01*
X175080433Y-52287254D01*
X175096533Y-52285668D01*
X175260000Y-52269568D01*
X175423468Y-52285668D01*
G37*
G36*
X193203468Y-52285668D02*
G01*
X193219568Y-52287254D01*
X193305900Y-52313443D01*
X193392234Y-52339632D01*
X193551365Y-52424689D01*
X193690844Y-52539156D01*
X193805311Y-52678635D01*
X193890368Y-52837766D01*
X193925287Y-52952878D01*
X193942746Y-53010432D01*
X193942746Y-53010434D01*
X193956000Y-53145003D01*
X193956000Y-53534998D01*
X193942746Y-53669567D01*
X193890368Y-53842234D01*
X193805311Y-54001365D01*
X193690844Y-54140844D01*
X193551364Y-54255311D01*
X193392233Y-54340368D01*
X193219567Y-54392746D01*
X193203467Y-54394332D01*
X193040000Y-54410432D01*
X192876532Y-54394332D01*
X192860432Y-54392746D01*
X192687766Y-54340368D01*
X192528635Y-54255311D01*
X192389156Y-54140844D01*
X192274689Y-54001364D01*
X192189632Y-53842233D01*
X192156724Y-53733751D01*
X192137254Y-53669567D01*
X192135361Y-53650342D01*
X192124000Y-53534997D01*
X192124000Y-53145002D01*
X192137254Y-53010433D01*
X192189632Y-52837766D01*
X192274689Y-52678635D01*
X192389157Y-52539156D01*
X192528636Y-52424689D01*
X192687767Y-52339632D01*
X192774101Y-52313443D01*
X192860433Y-52287254D01*
X192876533Y-52285668D01*
X193040000Y-52269568D01*
X193203468Y-52285668D01*
G37*
G36*
X188123468Y-52285668D02*
G01*
X188139568Y-52287254D01*
X188225900Y-52313443D01*
X188312234Y-52339632D01*
X188471365Y-52424689D01*
X188610844Y-52539156D01*
X188725311Y-52678635D01*
X188810368Y-52837766D01*
X188845287Y-52952878D01*
X188862746Y-53010432D01*
X188862746Y-53010434D01*
X188876000Y-53145003D01*
X188876000Y-53534998D01*
X188862746Y-53669567D01*
X188810368Y-53842234D01*
X188725311Y-54001365D01*
X188610844Y-54140844D01*
X188471364Y-54255311D01*
X188312233Y-54340368D01*
X188139567Y-54392746D01*
X188123467Y-54394332D01*
X187960000Y-54410432D01*
X187796532Y-54394332D01*
X187780432Y-54392746D01*
X187607766Y-54340368D01*
X187448635Y-54255311D01*
X187309156Y-54140844D01*
X187194689Y-54001364D01*
X187109632Y-53842233D01*
X187076724Y-53733751D01*
X187057254Y-53669567D01*
X187055361Y-53650342D01*
X187044000Y-53534997D01*
X187044000Y-53145002D01*
X187057254Y-53010433D01*
X187109632Y-52837766D01*
X187194689Y-52678635D01*
X187309157Y-52539156D01*
X187448636Y-52424689D01*
X187607767Y-52339632D01*
X187694101Y-52313443D01*
X187780433Y-52287254D01*
X187796533Y-52285668D01*
X187960000Y-52269568D01*
X188123468Y-52285668D01*
G37*
G36*
X190663468Y-52285668D02*
G01*
X190679568Y-52287254D01*
X190765900Y-52313443D01*
X190852234Y-52339632D01*
X191011365Y-52424689D01*
X191150844Y-52539156D01*
X191265311Y-52678635D01*
X191350368Y-52837766D01*
X191385287Y-52952878D01*
X191402746Y-53010432D01*
X191402746Y-53010434D01*
X191416000Y-53145003D01*
X191416000Y-53534998D01*
X191402746Y-53669567D01*
X191350368Y-53842234D01*
X191265311Y-54001365D01*
X191150844Y-54140844D01*
X191011364Y-54255311D01*
X190852233Y-54340368D01*
X190679567Y-54392746D01*
X190663467Y-54394332D01*
X190500000Y-54410432D01*
X190336532Y-54394332D01*
X190320432Y-54392746D01*
X190147766Y-54340368D01*
X189988635Y-54255311D01*
X189849156Y-54140844D01*
X189734689Y-54001364D01*
X189649632Y-53842233D01*
X189616724Y-53733751D01*
X189597254Y-53669567D01*
X189595361Y-53650342D01*
X189584000Y-53534997D01*
X189584000Y-53145002D01*
X189597254Y-53010433D01*
X189649632Y-52837766D01*
X189734689Y-52678635D01*
X189849157Y-52539156D01*
X189988636Y-52424689D01*
X190147767Y-52339632D01*
X190234101Y-52313443D01*
X190320433Y-52287254D01*
X190336533Y-52285668D01*
X190500000Y-52269568D01*
X190663468Y-52285668D01*
G37*
G36*
X171096000Y-54406000D02*
G01*
X169264000Y-54406000D01*
X169264000Y-52274000D01*
X171096000Y-52274000D01*
X171096000Y-54406000D01*
G37*
G36*
X183796000Y-54406000D02*
G01*
X181964000Y-54406000D01*
X181964000Y-52274000D01*
X183796000Y-52274000D01*
X183796000Y-54406000D01*
G37*
G36*
X196496000Y-54406000D02*
G01*
X194664000Y-54406000D01*
X194664000Y-52274000D01*
X196496000Y-52274000D01*
X196496000Y-54406000D01*
G37*
G36*
X150673000Y-54153000D02*
G01*
X149047000Y-54153000D01*
X149047000Y-52527000D01*
X150673000Y-52527000D01*
X150673000Y-54153000D01*
G37*
G36*
X148133000Y-54153000D02*
G01*
X146507000Y-54153000D01*
X146507000Y-52527000D01*
X148133000Y-52527000D01*
X148133000Y-54153000D01*
G37*
G36*
X153213000Y-54153000D02*
G01*
X151587000Y-54153000D01*
X151587000Y-52527000D01*
X153213000Y-52527000D01*
X153213000Y-54153000D01*
G37*
G36*
X155753000Y-54153000D02*
G01*
X154127000Y-54153000D01*
X154127000Y-52527000D01*
X155753000Y-52527000D01*
X155753000Y-54153000D01*
G37*
G36*
X204089943Y-47866248D02*
G01*
X204645189Y-48096238D01*
X204645190Y-48096239D01*
X205144899Y-48430134D01*
X205569866Y-48855101D01*
X205569867Y-48855103D01*
X205903762Y-49354811D01*
X206133752Y-49910057D01*
X206251000Y-50499501D01*
X206251000Y-51100499D01*
X206133752Y-51689943D01*
X205903762Y-52245189D01*
X205884511Y-52274000D01*
X205569866Y-52744899D01*
X205144899Y-53169866D01*
X204893347Y-53337948D01*
X204645189Y-53503762D01*
X204089943Y-53733752D01*
X203500499Y-53851000D01*
X202899501Y-53851000D01*
X202310057Y-53733752D01*
X201754811Y-53503762D01*
X201506653Y-53337948D01*
X201255101Y-53169866D01*
X200830134Y-52744899D01*
X200515489Y-52274000D01*
X200496238Y-52245189D01*
X200266248Y-51689943D01*
X200149000Y-51100499D01*
X200149000Y-50499501D01*
X200266248Y-49910057D01*
X200496238Y-49354811D01*
X200830133Y-48855103D01*
X200830134Y-48855101D01*
X201255101Y-48430134D01*
X201754810Y-48096239D01*
X201754811Y-48096238D01*
X202310057Y-47866248D01*
X202899501Y-47749000D01*
X203500499Y-47749000D01*
X204089943Y-47866248D01*
G37*
G36*
X92329943Y-47866248D02*
G01*
X92885189Y-48096238D01*
X92885190Y-48096239D01*
X93384899Y-48430134D01*
X93809866Y-48855101D01*
X93809867Y-48855103D01*
X94143762Y-49354811D01*
X94373752Y-49910057D01*
X94491000Y-50499501D01*
X94491000Y-51100499D01*
X94373752Y-51689943D01*
X94143762Y-52245189D01*
X94124511Y-52274000D01*
X93809866Y-52744899D01*
X93384899Y-53169866D01*
X93133347Y-53337948D01*
X92885189Y-53503762D01*
X92329943Y-53733752D01*
X91740499Y-53851000D01*
X91139501Y-53851000D01*
X90550057Y-53733752D01*
X89994811Y-53503762D01*
X89746653Y-53337948D01*
X89495101Y-53169866D01*
X89070134Y-52744899D01*
X88755489Y-52274000D01*
X88736238Y-52245189D01*
X88506248Y-51689943D01*
X88389000Y-51100499D01*
X88389000Y-50499501D01*
X88506248Y-49910057D01*
X88736238Y-49354811D01*
X89070133Y-48855103D01*
X89070134Y-48855101D01*
X89495101Y-48430134D01*
X89994810Y-48096239D01*
X89994811Y-48096238D01*
X90550057Y-47866248D01*
X91139501Y-47749000D01*
X91740499Y-47749000D01*
X92329943Y-47866248D01*
G37*
G36*
X136501000Y-51751000D02*
G01*
X132899000Y-51751000D01*
X132899000Y-49849000D01*
X136501000Y-49849000D01*
X136501000Y-51751000D01*
G37*
G36*
X141501000Y-51751000D02*
G01*
X137899000Y-51751000D01*
X137899000Y-49849000D01*
X141501000Y-49849000D01*
X141501000Y-51751000D01*
G37*
G36*
X148133000Y-51613000D02*
G01*
X146507000Y-51613000D01*
X146507000Y-49987000D01*
X148133000Y-49987000D01*
X148133000Y-51613000D01*
G37*
G36*
X150673000Y-51613000D02*
G01*
X149047000Y-51613000D01*
X149047000Y-49987000D01*
X150673000Y-49987000D01*
X150673000Y-51613000D01*
G37*
G36*
X153213000Y-51613000D02*
G01*
X151587000Y-51613000D01*
X151587000Y-49987000D01*
X153213000Y-49987000D01*
X153213000Y-51613000D01*
G37*
G36*
X155753000Y-51613000D02*
G01*
X154127000Y-51613000D01*
X154127000Y-49987000D01*
X155753000Y-49987000D01*
X155753000Y-51613000D01*
G37*
M02*
