M48
;DRILL file {KiCad 5.0.2-bee76a0~70~ubuntu18.04.1} date Út 28. dubna 2020, 13:56:15 CEST
;FORMAT={-:-/ absolute / inch / decimal}
FMAT,2
INCH,TZ
T1C0.0157
T2C0.0197
T3C0.0350
T4C0.0362
T5C0.0402
T6C0.0433
T7C0.0512
T8C0.0917
T9C0.1181
%
G90
G05
T1
X4.53Y-4.005
X4.54Y-4.64
X4.57Y-2.6
X4.575Y-4.005
X4.5974Y-2.8776
X4.67Y-3.225
X4.8Y-2.99
X4.805Y-2.445
X4.9Y-3.29
X4.905Y-2.895
X5.04Y-4.64
X5.12Y-2.57
X5.19Y-3.04
X5.39Y-3.18
X5.43Y-3.34
X5.51Y-3.585
X5.52Y-3.84
X5.575Y-2.92
X5.585Y-3.585
X5.62Y-2.96
X5.62Y-3.7
X5.675Y-2.73
X5.685Y-3.235
X5.695Y-3.39
X5.77Y-4.645
X5.825Y-3.235
X5.92Y-3.54
X5.925Y-2.505
X5.93Y-3.22
X5.98Y-2.8
X6.Y-3.5
X6.075Y-3.245
X6.125Y-3.245
X6.13Y-3.9
X6.15Y-2.385
X6.17Y-2.855
X6.17Y-3.245
X6.175Y-2.79
X6.27Y-4.645
X6.335Y-2.41
X6.345Y-2.47
X6.38Y-2.495
X6.38Y-2.72
X6.405Y-2.275
X6.46Y-3.44
X6.5Y-2.55
X6.6Y-2.51
X6.72Y-3.85
X6.935Y-3.18
X6.9805Y-4.64
X7.33Y-2.17
X7.4702Y-4.65
X7.4898Y-3.2498
X7.5Y-3.74
T2
X4.4Y-4.7
X4.4Y-4.8389
X4.4059Y-4.2941
X4.4111Y-4.56
X4.69Y-4.5619
X4.69Y-4.74
X4.69Y-4.84
X4.9Y-4.56
X4.9Y-4.66
X4.9Y-4.76
X4.9027Y-4.2973
X5.17Y-4.5851
X5.17Y-4.74
X5.17Y-4.84
X5.55Y-2.76
X5.65Y-4.545
X5.65Y-4.705
X5.65Y-4.855
X5.6559Y-4.2991
X5.92Y-4.5668
X5.92Y-4.725
X5.92Y-4.845
X6.15Y-4.305
X6.15Y-4.545
X6.15Y-4.665
X6.15Y-4.855
X6.4Y-4.5928
X6.4Y-4.745
X6.4Y-4.845
X6.85Y-4.56
X6.85Y-4.7
X6.85Y-4.85
X6.86Y-4.2973
X7.1141Y-3.8859
X7.1173Y-3.3827
X7.14Y-4.5654
X7.14Y-4.74
X7.14Y-4.84
X7.3001Y-3.9
X7.3034Y-3.4
X7.35Y-4.3
X7.35Y-4.56
X7.35Y-4.7
X7.35Y-4.85
X7.3718Y-3.58
X7.4Y-3.14
X7.48Y-3.4
X7.48Y-3.9
X7.56Y-3.1
X7.56Y-3.58
X7.62Y-4.5778
X7.62Y-4.74
X7.62Y-4.84
X7.64Y-3.4
X7.64Y-3.86
X7.66Y-3.1
X7.66Y-3.58
T3
X7.06Y-1.94
X7.06Y-2.04
X7.06Y-2.14
X7.06Y-2.24
X6.66Y-1.94
X6.66Y-2.04
X6.76Y-1.94
X6.76Y-2.04
X6.86Y-1.94
X6.86Y-2.04
X5.1Y-1.94
X5.1Y-2.04
X5.2Y-1.94
X5.2Y-2.04
X5.3Y-1.94
X5.3Y-2.04
X5.4Y-1.94
X5.4Y-2.04
X5.5Y-1.94
X5.5Y-2.04
X5.6Y-1.94
X5.6Y-2.04
X5.7Y-1.94
X5.7Y-2.04
X5.8Y-1.94
X5.8Y-2.04
X5.9Y-1.94
X5.9Y-2.04
X7.9Y-2.4
X7.9Y-2.5
X7.9Y-2.6
X7.9Y-2.7
X8.Y-2.4
X8.Y-2.5
X8.Y-2.6
X8.Y-2.7
X6.08Y-1.94
X6.08Y-2.04
X6.18Y-1.94
X6.18Y-2.04
X6.28Y-1.94
X6.28Y-2.04
X6.38Y-1.94
X6.38Y-2.04
X6.48Y-1.94
X6.48Y-2.04
T4
X4.3413Y-3.5416
X4.3413Y-3.64
X4.42Y-3.5416
X4.42Y-3.64
T5
X7.36Y-2.04
X7.46Y-2.04
X7.56Y-2.04
X7.66Y-2.04
T6
X3.955Y-2.89
X3.955Y-3.0672
X4.2109Y-2.89
X4.2109Y-3.0672
X3.955Y-2.5128
X3.955Y-2.69
X4.2109Y-2.5128
X4.2109Y-2.69
T7
X4.69Y-4.9528
X4.69Y-5.1496
X5.92Y-4.9609
X5.92Y-5.1578
X7.14Y-4.9622
X7.14Y-5.1591
X7.7654Y-3.1
X7.9622Y-3.1
X7.7676Y-3.78
X7.9644Y-3.78
X5.72Y-4.9609
X5.72Y-5.1578
X4.97Y-4.9528
X4.97Y-5.1496
X6.4Y-4.9609
X6.4Y-5.1578
X7.42Y-4.9622
X7.42Y-5.1591
X7.62Y-4.9622
X7.62Y-5.1591
X7.7654Y-3.3
X7.9622Y-3.3
X5.17Y-4.9528
X5.17Y-5.1496
X6.94Y-4.9622
X6.94Y-5.1591
X4.49Y-4.9528
X4.49Y-5.1496
X7.7676Y-3.58
X7.9644Y-3.58
X6.2Y-4.9609
X6.2Y-5.1578
T8
X4.2346Y-3.3538
X4.2346Y-3.8278
T9
X8.Y-2.
X8.Y-5.2
X4.Y-2.
X4.Y-5.2
T0
M30
