G04 #@! TF.GenerationSoftware,KiCad,Pcbnew,5.1.5-52549c5~84~ubuntu18.04.1*
G04 #@! TF.CreationDate,2020-01-09T22:54:15+01:00*
G04 #@! TF.ProjectId,E32CB_R2,45333243-425f-4523-922e-6b696361645f,rev?*
G04 #@! TF.SameCoordinates,Original*
G04 #@! TF.FileFunction,Paste,Bot*
G04 #@! TF.FilePolarity,Positive*
%FSLAX46Y46*%
G04 Gerber Fmt 4.6, Leading zero omitted, Abs format (unit mm)*
G04 Created by KiCad (PCBNEW 5.1.5-52549c5~84~ubuntu18.04.1) date 2020-01-09 22:54:15*
%MOMM*%
%LPD*%
G04 APERTURE LIST*
%ADD10R,4.500000X2.000000*%
%ADD11R,3.500000X1.800000*%
%ADD12C,0.100000*%
%ADD13R,1.500000X1.250000*%
%ADD14R,0.900000X2.000000*%
%ADD15R,2.000000X0.900000*%
%ADD16R,5.000000X5.000000*%
%ADD17R,1.500000X1.050000*%
%ADD18R,0.800000X0.900000*%
%ADD19R,3.050000X2.750000*%
%ADD20R,2.200000X1.200000*%
G04 APERTURE END LIST*
D10*
X113320500Y-89916000D03*
X121820500Y-89916000D03*
D11*
X134700000Y-50800000D03*
X139700000Y-50800000D03*
D12*
G36*
X158970505Y-66237204D02*
G01*
X158994773Y-66240804D01*
X159018572Y-66246765D01*
X159041671Y-66255030D01*
X159063850Y-66265520D01*
X159084893Y-66278132D01*
X159104599Y-66292747D01*
X159122777Y-66309223D01*
X159139253Y-66327401D01*
X159153868Y-66347107D01*
X159166480Y-66368150D01*
X159176970Y-66390329D01*
X159185235Y-66413428D01*
X159191196Y-66437227D01*
X159194796Y-66461495D01*
X159196000Y-66485999D01*
X159196000Y-67136001D01*
X159194796Y-67160505D01*
X159191196Y-67184773D01*
X159185235Y-67208572D01*
X159176970Y-67231671D01*
X159166480Y-67253850D01*
X159153868Y-67274893D01*
X159139253Y-67294599D01*
X159122777Y-67312777D01*
X159104599Y-67329253D01*
X159084893Y-67343868D01*
X159063850Y-67356480D01*
X159041671Y-67366970D01*
X159018572Y-67375235D01*
X158994773Y-67381196D01*
X158970505Y-67384796D01*
X158946001Y-67386000D01*
X158045999Y-67386000D01*
X158021495Y-67384796D01*
X157997227Y-67381196D01*
X157973428Y-67375235D01*
X157950329Y-67366970D01*
X157928150Y-67356480D01*
X157907107Y-67343868D01*
X157887401Y-67329253D01*
X157869223Y-67312777D01*
X157852747Y-67294599D01*
X157838132Y-67274893D01*
X157825520Y-67253850D01*
X157815030Y-67231671D01*
X157806765Y-67208572D01*
X157800804Y-67184773D01*
X157797204Y-67160505D01*
X157796000Y-67136001D01*
X157796000Y-66485999D01*
X157797204Y-66461495D01*
X157800804Y-66437227D01*
X157806765Y-66413428D01*
X157815030Y-66390329D01*
X157825520Y-66368150D01*
X157838132Y-66347107D01*
X157852747Y-66327401D01*
X157869223Y-66309223D01*
X157887401Y-66292747D01*
X157907107Y-66278132D01*
X157928150Y-66265520D01*
X157950329Y-66255030D01*
X157973428Y-66246765D01*
X157997227Y-66240804D01*
X158021495Y-66237204D01*
X158045999Y-66236000D01*
X158946001Y-66236000D01*
X158970505Y-66237204D01*
G37*
G36*
X158970505Y-64187204D02*
G01*
X158994773Y-64190804D01*
X159018572Y-64196765D01*
X159041671Y-64205030D01*
X159063850Y-64215520D01*
X159084893Y-64228132D01*
X159104599Y-64242747D01*
X159122777Y-64259223D01*
X159139253Y-64277401D01*
X159153868Y-64297107D01*
X159166480Y-64318150D01*
X159176970Y-64340329D01*
X159185235Y-64363428D01*
X159191196Y-64387227D01*
X159194796Y-64411495D01*
X159196000Y-64435999D01*
X159196000Y-65086001D01*
X159194796Y-65110505D01*
X159191196Y-65134773D01*
X159185235Y-65158572D01*
X159176970Y-65181671D01*
X159166480Y-65203850D01*
X159153868Y-65224893D01*
X159139253Y-65244599D01*
X159122777Y-65262777D01*
X159104599Y-65279253D01*
X159084893Y-65293868D01*
X159063850Y-65306480D01*
X159041671Y-65316970D01*
X159018572Y-65325235D01*
X158994773Y-65331196D01*
X158970505Y-65334796D01*
X158946001Y-65336000D01*
X158045999Y-65336000D01*
X158021495Y-65334796D01*
X157997227Y-65331196D01*
X157973428Y-65325235D01*
X157950329Y-65316970D01*
X157928150Y-65306480D01*
X157907107Y-65293868D01*
X157887401Y-65279253D01*
X157869223Y-65262777D01*
X157852747Y-65244599D01*
X157838132Y-65224893D01*
X157825520Y-65203850D01*
X157815030Y-65181671D01*
X157806765Y-65158572D01*
X157800804Y-65134773D01*
X157797204Y-65110505D01*
X157796000Y-65086001D01*
X157796000Y-64435999D01*
X157797204Y-64411495D01*
X157800804Y-64387227D01*
X157806765Y-64363428D01*
X157815030Y-64340329D01*
X157825520Y-64318150D01*
X157838132Y-64297107D01*
X157852747Y-64277401D01*
X157869223Y-64259223D01*
X157887401Y-64242747D01*
X157907107Y-64228132D01*
X157928150Y-64215520D01*
X157950329Y-64205030D01*
X157973428Y-64196765D01*
X157997227Y-64190804D01*
X158021495Y-64187204D01*
X158045999Y-64186000D01*
X158946001Y-64186000D01*
X158970505Y-64187204D01*
G37*
G36*
X158970505Y-57583204D02*
G01*
X158994773Y-57586804D01*
X159018572Y-57592765D01*
X159041671Y-57601030D01*
X159063850Y-57611520D01*
X159084893Y-57624132D01*
X159104599Y-57638747D01*
X159122777Y-57655223D01*
X159139253Y-57673401D01*
X159153868Y-57693107D01*
X159166480Y-57714150D01*
X159176970Y-57736329D01*
X159185235Y-57759428D01*
X159191196Y-57783227D01*
X159194796Y-57807495D01*
X159196000Y-57831999D01*
X159196000Y-58482001D01*
X159194796Y-58506505D01*
X159191196Y-58530773D01*
X159185235Y-58554572D01*
X159176970Y-58577671D01*
X159166480Y-58599850D01*
X159153868Y-58620893D01*
X159139253Y-58640599D01*
X159122777Y-58658777D01*
X159104599Y-58675253D01*
X159084893Y-58689868D01*
X159063850Y-58702480D01*
X159041671Y-58712970D01*
X159018572Y-58721235D01*
X158994773Y-58727196D01*
X158970505Y-58730796D01*
X158946001Y-58732000D01*
X158045999Y-58732000D01*
X158021495Y-58730796D01*
X157997227Y-58727196D01*
X157973428Y-58721235D01*
X157950329Y-58712970D01*
X157928150Y-58702480D01*
X157907107Y-58689868D01*
X157887401Y-58675253D01*
X157869223Y-58658777D01*
X157852747Y-58640599D01*
X157838132Y-58620893D01*
X157825520Y-58599850D01*
X157815030Y-58577671D01*
X157806765Y-58554572D01*
X157800804Y-58530773D01*
X157797204Y-58506505D01*
X157796000Y-58482001D01*
X157796000Y-57831999D01*
X157797204Y-57807495D01*
X157800804Y-57783227D01*
X157806765Y-57759428D01*
X157815030Y-57736329D01*
X157825520Y-57714150D01*
X157838132Y-57693107D01*
X157852747Y-57673401D01*
X157869223Y-57655223D01*
X157887401Y-57638747D01*
X157907107Y-57624132D01*
X157928150Y-57611520D01*
X157950329Y-57601030D01*
X157973428Y-57592765D01*
X157997227Y-57586804D01*
X158021495Y-57583204D01*
X158045999Y-57582000D01*
X158946001Y-57582000D01*
X158970505Y-57583204D01*
G37*
G36*
X158970505Y-59633204D02*
G01*
X158994773Y-59636804D01*
X159018572Y-59642765D01*
X159041671Y-59651030D01*
X159063850Y-59661520D01*
X159084893Y-59674132D01*
X159104599Y-59688747D01*
X159122777Y-59705223D01*
X159139253Y-59723401D01*
X159153868Y-59743107D01*
X159166480Y-59764150D01*
X159176970Y-59786329D01*
X159185235Y-59809428D01*
X159191196Y-59833227D01*
X159194796Y-59857495D01*
X159196000Y-59881999D01*
X159196000Y-60532001D01*
X159194796Y-60556505D01*
X159191196Y-60580773D01*
X159185235Y-60604572D01*
X159176970Y-60627671D01*
X159166480Y-60649850D01*
X159153868Y-60670893D01*
X159139253Y-60690599D01*
X159122777Y-60708777D01*
X159104599Y-60725253D01*
X159084893Y-60739868D01*
X159063850Y-60752480D01*
X159041671Y-60762970D01*
X159018572Y-60771235D01*
X158994773Y-60777196D01*
X158970505Y-60780796D01*
X158946001Y-60782000D01*
X158045999Y-60782000D01*
X158021495Y-60780796D01*
X157997227Y-60777196D01*
X157973428Y-60771235D01*
X157950329Y-60762970D01*
X157928150Y-60752480D01*
X157907107Y-60739868D01*
X157887401Y-60725253D01*
X157869223Y-60708777D01*
X157852747Y-60690599D01*
X157838132Y-60670893D01*
X157825520Y-60649850D01*
X157815030Y-60627671D01*
X157806765Y-60604572D01*
X157800804Y-60580773D01*
X157797204Y-60556505D01*
X157796000Y-60532001D01*
X157796000Y-59881999D01*
X157797204Y-59857495D01*
X157800804Y-59833227D01*
X157806765Y-59809428D01*
X157815030Y-59786329D01*
X157825520Y-59764150D01*
X157838132Y-59743107D01*
X157852747Y-59723401D01*
X157869223Y-59705223D01*
X157887401Y-59688747D01*
X157907107Y-59674132D01*
X157928150Y-59661520D01*
X157950329Y-59651030D01*
X157973428Y-59642765D01*
X157997227Y-59636804D01*
X158021495Y-59633204D01*
X158045999Y-59632000D01*
X158946001Y-59632000D01*
X158970505Y-59633204D01*
G37*
G36*
X91914505Y-96431204D02*
G01*
X91938773Y-96434804D01*
X91962572Y-96440765D01*
X91985671Y-96449030D01*
X92007850Y-96459520D01*
X92028893Y-96472132D01*
X92048599Y-96486747D01*
X92066777Y-96503223D01*
X92083253Y-96521401D01*
X92097868Y-96541107D01*
X92110480Y-96562150D01*
X92120970Y-96584329D01*
X92129235Y-96607428D01*
X92135196Y-96631227D01*
X92138796Y-96655495D01*
X92140000Y-96679999D01*
X92140000Y-97330001D01*
X92138796Y-97354505D01*
X92135196Y-97378773D01*
X92129235Y-97402572D01*
X92120970Y-97425671D01*
X92110480Y-97447850D01*
X92097868Y-97468893D01*
X92083253Y-97488599D01*
X92066777Y-97506777D01*
X92048599Y-97523253D01*
X92028893Y-97537868D01*
X92007850Y-97550480D01*
X91985671Y-97560970D01*
X91962572Y-97569235D01*
X91938773Y-97575196D01*
X91914505Y-97578796D01*
X91890001Y-97580000D01*
X90989999Y-97580000D01*
X90965495Y-97578796D01*
X90941227Y-97575196D01*
X90917428Y-97569235D01*
X90894329Y-97560970D01*
X90872150Y-97550480D01*
X90851107Y-97537868D01*
X90831401Y-97523253D01*
X90813223Y-97506777D01*
X90796747Y-97488599D01*
X90782132Y-97468893D01*
X90769520Y-97447850D01*
X90759030Y-97425671D01*
X90750765Y-97402572D01*
X90744804Y-97378773D01*
X90741204Y-97354505D01*
X90740000Y-97330001D01*
X90740000Y-96679999D01*
X90741204Y-96655495D01*
X90744804Y-96631227D01*
X90750765Y-96607428D01*
X90759030Y-96584329D01*
X90769520Y-96562150D01*
X90782132Y-96541107D01*
X90796747Y-96521401D01*
X90813223Y-96503223D01*
X90831401Y-96486747D01*
X90851107Y-96472132D01*
X90872150Y-96459520D01*
X90894329Y-96449030D01*
X90917428Y-96440765D01*
X90941227Y-96434804D01*
X90965495Y-96431204D01*
X90989999Y-96430000D01*
X91890001Y-96430000D01*
X91914505Y-96431204D01*
G37*
G36*
X91914505Y-94381204D02*
G01*
X91938773Y-94384804D01*
X91962572Y-94390765D01*
X91985671Y-94399030D01*
X92007850Y-94409520D01*
X92028893Y-94422132D01*
X92048599Y-94436747D01*
X92066777Y-94453223D01*
X92083253Y-94471401D01*
X92097868Y-94491107D01*
X92110480Y-94512150D01*
X92120970Y-94534329D01*
X92129235Y-94557428D01*
X92135196Y-94581227D01*
X92138796Y-94605495D01*
X92140000Y-94629999D01*
X92140000Y-95280001D01*
X92138796Y-95304505D01*
X92135196Y-95328773D01*
X92129235Y-95352572D01*
X92120970Y-95375671D01*
X92110480Y-95397850D01*
X92097868Y-95418893D01*
X92083253Y-95438599D01*
X92066777Y-95456777D01*
X92048599Y-95473253D01*
X92028893Y-95487868D01*
X92007850Y-95500480D01*
X91985671Y-95510970D01*
X91962572Y-95519235D01*
X91938773Y-95525196D01*
X91914505Y-95528796D01*
X91890001Y-95530000D01*
X90989999Y-95530000D01*
X90965495Y-95528796D01*
X90941227Y-95525196D01*
X90917428Y-95519235D01*
X90894329Y-95510970D01*
X90872150Y-95500480D01*
X90851107Y-95487868D01*
X90831401Y-95473253D01*
X90813223Y-95456777D01*
X90796747Y-95438599D01*
X90782132Y-95418893D01*
X90769520Y-95397850D01*
X90759030Y-95375671D01*
X90750765Y-95352572D01*
X90744804Y-95328773D01*
X90741204Y-95304505D01*
X90740000Y-95280001D01*
X90740000Y-94629999D01*
X90741204Y-94605495D01*
X90744804Y-94581227D01*
X90750765Y-94557428D01*
X90759030Y-94534329D01*
X90769520Y-94512150D01*
X90782132Y-94491107D01*
X90796747Y-94471401D01*
X90813223Y-94453223D01*
X90831401Y-94436747D01*
X90851107Y-94422132D01*
X90872150Y-94409520D01*
X90894329Y-94399030D01*
X90917428Y-94390765D01*
X90941227Y-94384804D01*
X90965495Y-94381204D01*
X90989999Y-94380000D01*
X91890001Y-94380000D01*
X91914505Y-94381204D01*
G37*
G36*
X114404505Y-93027204D02*
G01*
X114428773Y-93030804D01*
X114452572Y-93036765D01*
X114475671Y-93045030D01*
X114497850Y-93055520D01*
X114518893Y-93068132D01*
X114538599Y-93082747D01*
X114556777Y-93099223D01*
X114573253Y-93117401D01*
X114587868Y-93137107D01*
X114600480Y-93158150D01*
X114610970Y-93180329D01*
X114619235Y-93203428D01*
X114625196Y-93227227D01*
X114628796Y-93251495D01*
X114630000Y-93275999D01*
X114630000Y-94176001D01*
X114628796Y-94200505D01*
X114625196Y-94224773D01*
X114619235Y-94248572D01*
X114610970Y-94271671D01*
X114600480Y-94293850D01*
X114587868Y-94314893D01*
X114573253Y-94334599D01*
X114556777Y-94352777D01*
X114538599Y-94369253D01*
X114518893Y-94383868D01*
X114497850Y-94396480D01*
X114475671Y-94406970D01*
X114452572Y-94415235D01*
X114428773Y-94421196D01*
X114404505Y-94424796D01*
X114380001Y-94426000D01*
X113729999Y-94426000D01*
X113705495Y-94424796D01*
X113681227Y-94421196D01*
X113657428Y-94415235D01*
X113634329Y-94406970D01*
X113612150Y-94396480D01*
X113591107Y-94383868D01*
X113571401Y-94369253D01*
X113553223Y-94352777D01*
X113536747Y-94334599D01*
X113522132Y-94314893D01*
X113509520Y-94293850D01*
X113499030Y-94271671D01*
X113490765Y-94248572D01*
X113484804Y-94224773D01*
X113481204Y-94200505D01*
X113480000Y-94176001D01*
X113480000Y-93275999D01*
X113481204Y-93251495D01*
X113484804Y-93227227D01*
X113490765Y-93203428D01*
X113499030Y-93180329D01*
X113509520Y-93158150D01*
X113522132Y-93137107D01*
X113536747Y-93117401D01*
X113553223Y-93099223D01*
X113571401Y-93082747D01*
X113591107Y-93068132D01*
X113612150Y-93055520D01*
X113634329Y-93045030D01*
X113657428Y-93036765D01*
X113681227Y-93030804D01*
X113705495Y-93027204D01*
X113729999Y-93026000D01*
X114380001Y-93026000D01*
X114404505Y-93027204D01*
G37*
G36*
X112354505Y-93027204D02*
G01*
X112378773Y-93030804D01*
X112402572Y-93036765D01*
X112425671Y-93045030D01*
X112447850Y-93055520D01*
X112468893Y-93068132D01*
X112488599Y-93082747D01*
X112506777Y-93099223D01*
X112523253Y-93117401D01*
X112537868Y-93137107D01*
X112550480Y-93158150D01*
X112560970Y-93180329D01*
X112569235Y-93203428D01*
X112575196Y-93227227D01*
X112578796Y-93251495D01*
X112580000Y-93275999D01*
X112580000Y-94176001D01*
X112578796Y-94200505D01*
X112575196Y-94224773D01*
X112569235Y-94248572D01*
X112560970Y-94271671D01*
X112550480Y-94293850D01*
X112537868Y-94314893D01*
X112523253Y-94334599D01*
X112506777Y-94352777D01*
X112488599Y-94369253D01*
X112468893Y-94383868D01*
X112447850Y-94396480D01*
X112425671Y-94406970D01*
X112402572Y-94415235D01*
X112378773Y-94421196D01*
X112354505Y-94424796D01*
X112330001Y-94426000D01*
X111679999Y-94426000D01*
X111655495Y-94424796D01*
X111631227Y-94421196D01*
X111607428Y-94415235D01*
X111584329Y-94406970D01*
X111562150Y-94396480D01*
X111541107Y-94383868D01*
X111521401Y-94369253D01*
X111503223Y-94352777D01*
X111486747Y-94334599D01*
X111472132Y-94314893D01*
X111459520Y-94293850D01*
X111449030Y-94271671D01*
X111440765Y-94248572D01*
X111434804Y-94224773D01*
X111431204Y-94200505D01*
X111430000Y-94176001D01*
X111430000Y-93275999D01*
X111431204Y-93251495D01*
X111434804Y-93227227D01*
X111440765Y-93203428D01*
X111449030Y-93180329D01*
X111459520Y-93158150D01*
X111472132Y-93137107D01*
X111486747Y-93117401D01*
X111503223Y-93099223D01*
X111521401Y-93082747D01*
X111541107Y-93068132D01*
X111562150Y-93055520D01*
X111584329Y-93045030D01*
X111607428Y-93036765D01*
X111631227Y-93030804D01*
X111655495Y-93027204D01*
X111679999Y-93026000D01*
X112330001Y-93026000D01*
X112354505Y-93027204D01*
G37*
G36*
X120736505Y-92773204D02*
G01*
X120760773Y-92776804D01*
X120784572Y-92782765D01*
X120807671Y-92791030D01*
X120829850Y-92801520D01*
X120850893Y-92814132D01*
X120870599Y-92828747D01*
X120888777Y-92845223D01*
X120905253Y-92863401D01*
X120919868Y-92883107D01*
X120932480Y-92904150D01*
X120942970Y-92926329D01*
X120951235Y-92949428D01*
X120957196Y-92973227D01*
X120960796Y-92997495D01*
X120962000Y-93021999D01*
X120962000Y-93922001D01*
X120960796Y-93946505D01*
X120957196Y-93970773D01*
X120951235Y-93994572D01*
X120942970Y-94017671D01*
X120932480Y-94039850D01*
X120919868Y-94060893D01*
X120905253Y-94080599D01*
X120888777Y-94098777D01*
X120870599Y-94115253D01*
X120850893Y-94129868D01*
X120829850Y-94142480D01*
X120807671Y-94152970D01*
X120784572Y-94161235D01*
X120760773Y-94167196D01*
X120736505Y-94170796D01*
X120712001Y-94172000D01*
X120061999Y-94172000D01*
X120037495Y-94170796D01*
X120013227Y-94167196D01*
X119989428Y-94161235D01*
X119966329Y-94152970D01*
X119944150Y-94142480D01*
X119923107Y-94129868D01*
X119903401Y-94115253D01*
X119885223Y-94098777D01*
X119868747Y-94080599D01*
X119854132Y-94060893D01*
X119841520Y-94039850D01*
X119831030Y-94017671D01*
X119822765Y-93994572D01*
X119816804Y-93970773D01*
X119813204Y-93946505D01*
X119812000Y-93922001D01*
X119812000Y-93021999D01*
X119813204Y-92997495D01*
X119816804Y-92973227D01*
X119822765Y-92949428D01*
X119831030Y-92926329D01*
X119841520Y-92904150D01*
X119854132Y-92883107D01*
X119868747Y-92863401D01*
X119885223Y-92845223D01*
X119903401Y-92828747D01*
X119923107Y-92814132D01*
X119944150Y-92801520D01*
X119966329Y-92791030D01*
X119989428Y-92782765D01*
X120013227Y-92776804D01*
X120037495Y-92773204D01*
X120061999Y-92772000D01*
X120712001Y-92772000D01*
X120736505Y-92773204D01*
G37*
G36*
X122786505Y-92773204D02*
G01*
X122810773Y-92776804D01*
X122834572Y-92782765D01*
X122857671Y-92791030D01*
X122879850Y-92801520D01*
X122900893Y-92814132D01*
X122920599Y-92828747D01*
X122938777Y-92845223D01*
X122955253Y-92863401D01*
X122969868Y-92883107D01*
X122982480Y-92904150D01*
X122992970Y-92926329D01*
X123001235Y-92949428D01*
X123007196Y-92973227D01*
X123010796Y-92997495D01*
X123012000Y-93021999D01*
X123012000Y-93922001D01*
X123010796Y-93946505D01*
X123007196Y-93970773D01*
X123001235Y-93994572D01*
X122992970Y-94017671D01*
X122982480Y-94039850D01*
X122969868Y-94060893D01*
X122955253Y-94080599D01*
X122938777Y-94098777D01*
X122920599Y-94115253D01*
X122900893Y-94129868D01*
X122879850Y-94142480D01*
X122857671Y-94152970D01*
X122834572Y-94161235D01*
X122810773Y-94167196D01*
X122786505Y-94170796D01*
X122762001Y-94172000D01*
X122111999Y-94172000D01*
X122087495Y-94170796D01*
X122063227Y-94167196D01*
X122039428Y-94161235D01*
X122016329Y-94152970D01*
X121994150Y-94142480D01*
X121973107Y-94129868D01*
X121953401Y-94115253D01*
X121935223Y-94098777D01*
X121918747Y-94080599D01*
X121904132Y-94060893D01*
X121891520Y-94039850D01*
X121881030Y-94017671D01*
X121872765Y-93994572D01*
X121866804Y-93970773D01*
X121863204Y-93946505D01*
X121862000Y-93922001D01*
X121862000Y-93021999D01*
X121863204Y-92997495D01*
X121866804Y-92973227D01*
X121872765Y-92949428D01*
X121881030Y-92926329D01*
X121891520Y-92904150D01*
X121904132Y-92883107D01*
X121918747Y-92863401D01*
X121935223Y-92845223D01*
X121953401Y-92828747D01*
X121973107Y-92814132D01*
X121994150Y-92801520D01*
X122016329Y-92791030D01*
X122039428Y-92782765D01*
X122063227Y-92776804D01*
X122087495Y-92773204D01*
X122111999Y-92772000D01*
X122762001Y-92772000D01*
X122786505Y-92773204D01*
G37*
G36*
X145646505Y-67881204D02*
G01*
X145670773Y-67884804D01*
X145694572Y-67890765D01*
X145717671Y-67899030D01*
X145739850Y-67909520D01*
X145760893Y-67922132D01*
X145780599Y-67936747D01*
X145798777Y-67953223D01*
X145815253Y-67971401D01*
X145829868Y-67991107D01*
X145842480Y-68012150D01*
X145852970Y-68034329D01*
X145861235Y-68057428D01*
X145867196Y-68081227D01*
X145870796Y-68105495D01*
X145872000Y-68129999D01*
X145872000Y-69030001D01*
X145870796Y-69054505D01*
X145867196Y-69078773D01*
X145861235Y-69102572D01*
X145852970Y-69125671D01*
X145842480Y-69147850D01*
X145829868Y-69168893D01*
X145815253Y-69188599D01*
X145798777Y-69206777D01*
X145780599Y-69223253D01*
X145760893Y-69237868D01*
X145739850Y-69250480D01*
X145717671Y-69260970D01*
X145694572Y-69269235D01*
X145670773Y-69275196D01*
X145646505Y-69278796D01*
X145622001Y-69280000D01*
X144971999Y-69280000D01*
X144947495Y-69278796D01*
X144923227Y-69275196D01*
X144899428Y-69269235D01*
X144876329Y-69260970D01*
X144854150Y-69250480D01*
X144833107Y-69237868D01*
X144813401Y-69223253D01*
X144795223Y-69206777D01*
X144778747Y-69188599D01*
X144764132Y-69168893D01*
X144751520Y-69147850D01*
X144741030Y-69125671D01*
X144732765Y-69102572D01*
X144726804Y-69078773D01*
X144723204Y-69054505D01*
X144722000Y-69030001D01*
X144722000Y-68129999D01*
X144723204Y-68105495D01*
X144726804Y-68081227D01*
X144732765Y-68057428D01*
X144741030Y-68034329D01*
X144751520Y-68012150D01*
X144764132Y-67991107D01*
X144778747Y-67971401D01*
X144795223Y-67953223D01*
X144813401Y-67936747D01*
X144833107Y-67922132D01*
X144854150Y-67909520D01*
X144876329Y-67899030D01*
X144899428Y-67890765D01*
X144923227Y-67884804D01*
X144947495Y-67881204D01*
X144971999Y-67880000D01*
X145622001Y-67880000D01*
X145646505Y-67881204D01*
G37*
G36*
X143596505Y-67881204D02*
G01*
X143620773Y-67884804D01*
X143644572Y-67890765D01*
X143667671Y-67899030D01*
X143689850Y-67909520D01*
X143710893Y-67922132D01*
X143730599Y-67936747D01*
X143748777Y-67953223D01*
X143765253Y-67971401D01*
X143779868Y-67991107D01*
X143792480Y-68012150D01*
X143802970Y-68034329D01*
X143811235Y-68057428D01*
X143817196Y-68081227D01*
X143820796Y-68105495D01*
X143822000Y-68129999D01*
X143822000Y-69030001D01*
X143820796Y-69054505D01*
X143817196Y-69078773D01*
X143811235Y-69102572D01*
X143802970Y-69125671D01*
X143792480Y-69147850D01*
X143779868Y-69168893D01*
X143765253Y-69188599D01*
X143748777Y-69206777D01*
X143730599Y-69223253D01*
X143710893Y-69237868D01*
X143689850Y-69250480D01*
X143667671Y-69260970D01*
X143644572Y-69269235D01*
X143620773Y-69275196D01*
X143596505Y-69278796D01*
X143572001Y-69280000D01*
X142921999Y-69280000D01*
X142897495Y-69278796D01*
X142873227Y-69275196D01*
X142849428Y-69269235D01*
X142826329Y-69260970D01*
X142804150Y-69250480D01*
X142783107Y-69237868D01*
X142763401Y-69223253D01*
X142745223Y-69206777D01*
X142728747Y-69188599D01*
X142714132Y-69168893D01*
X142701520Y-69147850D01*
X142691030Y-69125671D01*
X142682765Y-69102572D01*
X142676804Y-69078773D01*
X142673204Y-69054505D01*
X142672000Y-69030001D01*
X142672000Y-68129999D01*
X142673204Y-68105495D01*
X142676804Y-68081227D01*
X142682765Y-68057428D01*
X142691030Y-68034329D01*
X142701520Y-68012150D01*
X142714132Y-67991107D01*
X142728747Y-67971401D01*
X142745223Y-67953223D01*
X142763401Y-67936747D01*
X142783107Y-67922132D01*
X142804150Y-67909520D01*
X142826329Y-67899030D01*
X142849428Y-67890765D01*
X142873227Y-67884804D01*
X142897495Y-67881204D01*
X142921999Y-67880000D01*
X143572001Y-67880000D01*
X143596505Y-67881204D01*
G37*
G36*
X173822505Y-62801204D02*
G01*
X173846773Y-62804804D01*
X173870572Y-62810765D01*
X173893671Y-62819030D01*
X173915850Y-62829520D01*
X173936893Y-62842132D01*
X173956599Y-62856747D01*
X173974777Y-62873223D01*
X173991253Y-62891401D01*
X174005868Y-62911107D01*
X174018480Y-62932150D01*
X174028970Y-62954329D01*
X174037235Y-62977428D01*
X174043196Y-63001227D01*
X174046796Y-63025495D01*
X174048000Y-63049999D01*
X174048000Y-63950001D01*
X174046796Y-63974505D01*
X174043196Y-63998773D01*
X174037235Y-64022572D01*
X174028970Y-64045671D01*
X174018480Y-64067850D01*
X174005868Y-64088893D01*
X173991253Y-64108599D01*
X173974777Y-64126777D01*
X173956599Y-64143253D01*
X173936893Y-64157868D01*
X173915850Y-64170480D01*
X173893671Y-64180970D01*
X173870572Y-64189235D01*
X173846773Y-64195196D01*
X173822505Y-64198796D01*
X173798001Y-64200000D01*
X173147999Y-64200000D01*
X173123495Y-64198796D01*
X173099227Y-64195196D01*
X173075428Y-64189235D01*
X173052329Y-64180970D01*
X173030150Y-64170480D01*
X173009107Y-64157868D01*
X172989401Y-64143253D01*
X172971223Y-64126777D01*
X172954747Y-64108599D01*
X172940132Y-64088893D01*
X172927520Y-64067850D01*
X172917030Y-64045671D01*
X172908765Y-64022572D01*
X172902804Y-63998773D01*
X172899204Y-63974505D01*
X172898000Y-63950001D01*
X172898000Y-63049999D01*
X172899204Y-63025495D01*
X172902804Y-63001227D01*
X172908765Y-62977428D01*
X172917030Y-62954329D01*
X172927520Y-62932150D01*
X172940132Y-62911107D01*
X172954747Y-62891401D01*
X172971223Y-62873223D01*
X172989401Y-62856747D01*
X173009107Y-62842132D01*
X173030150Y-62829520D01*
X173052329Y-62819030D01*
X173075428Y-62810765D01*
X173099227Y-62804804D01*
X173123495Y-62801204D01*
X173147999Y-62800000D01*
X173798001Y-62800000D01*
X173822505Y-62801204D01*
G37*
G36*
X175872505Y-62801204D02*
G01*
X175896773Y-62804804D01*
X175920572Y-62810765D01*
X175943671Y-62819030D01*
X175965850Y-62829520D01*
X175986893Y-62842132D01*
X176006599Y-62856747D01*
X176024777Y-62873223D01*
X176041253Y-62891401D01*
X176055868Y-62911107D01*
X176068480Y-62932150D01*
X176078970Y-62954329D01*
X176087235Y-62977428D01*
X176093196Y-63001227D01*
X176096796Y-63025495D01*
X176098000Y-63049999D01*
X176098000Y-63950001D01*
X176096796Y-63974505D01*
X176093196Y-63998773D01*
X176087235Y-64022572D01*
X176078970Y-64045671D01*
X176068480Y-64067850D01*
X176055868Y-64088893D01*
X176041253Y-64108599D01*
X176024777Y-64126777D01*
X176006599Y-64143253D01*
X175986893Y-64157868D01*
X175965850Y-64170480D01*
X175943671Y-64180970D01*
X175920572Y-64189235D01*
X175896773Y-64195196D01*
X175872505Y-64198796D01*
X175848001Y-64200000D01*
X175197999Y-64200000D01*
X175173495Y-64198796D01*
X175149227Y-64195196D01*
X175125428Y-64189235D01*
X175102329Y-64180970D01*
X175080150Y-64170480D01*
X175059107Y-64157868D01*
X175039401Y-64143253D01*
X175021223Y-64126777D01*
X175004747Y-64108599D01*
X174990132Y-64088893D01*
X174977520Y-64067850D01*
X174967030Y-64045671D01*
X174958765Y-64022572D01*
X174952804Y-63998773D01*
X174949204Y-63974505D01*
X174948000Y-63950001D01*
X174948000Y-63049999D01*
X174949204Y-63025495D01*
X174952804Y-63001227D01*
X174958765Y-62977428D01*
X174967030Y-62954329D01*
X174977520Y-62932150D01*
X174990132Y-62911107D01*
X175004747Y-62891401D01*
X175021223Y-62873223D01*
X175039401Y-62856747D01*
X175059107Y-62842132D01*
X175080150Y-62829520D01*
X175102329Y-62819030D01*
X175125428Y-62810765D01*
X175149227Y-62804804D01*
X175173495Y-62801204D01*
X175197999Y-62800000D01*
X175848001Y-62800000D01*
X175872505Y-62801204D01*
G37*
G36*
X173822505Y-65087204D02*
G01*
X173846773Y-65090804D01*
X173870572Y-65096765D01*
X173893671Y-65105030D01*
X173915850Y-65115520D01*
X173936893Y-65128132D01*
X173956599Y-65142747D01*
X173974777Y-65159223D01*
X173991253Y-65177401D01*
X174005868Y-65197107D01*
X174018480Y-65218150D01*
X174028970Y-65240329D01*
X174037235Y-65263428D01*
X174043196Y-65287227D01*
X174046796Y-65311495D01*
X174048000Y-65335999D01*
X174048000Y-66236001D01*
X174046796Y-66260505D01*
X174043196Y-66284773D01*
X174037235Y-66308572D01*
X174028970Y-66331671D01*
X174018480Y-66353850D01*
X174005868Y-66374893D01*
X173991253Y-66394599D01*
X173974777Y-66412777D01*
X173956599Y-66429253D01*
X173936893Y-66443868D01*
X173915850Y-66456480D01*
X173893671Y-66466970D01*
X173870572Y-66475235D01*
X173846773Y-66481196D01*
X173822505Y-66484796D01*
X173798001Y-66486000D01*
X173147999Y-66486000D01*
X173123495Y-66484796D01*
X173099227Y-66481196D01*
X173075428Y-66475235D01*
X173052329Y-66466970D01*
X173030150Y-66456480D01*
X173009107Y-66443868D01*
X172989401Y-66429253D01*
X172971223Y-66412777D01*
X172954747Y-66394599D01*
X172940132Y-66374893D01*
X172927520Y-66353850D01*
X172917030Y-66331671D01*
X172908765Y-66308572D01*
X172902804Y-66284773D01*
X172899204Y-66260505D01*
X172898000Y-66236001D01*
X172898000Y-65335999D01*
X172899204Y-65311495D01*
X172902804Y-65287227D01*
X172908765Y-65263428D01*
X172917030Y-65240329D01*
X172927520Y-65218150D01*
X172940132Y-65197107D01*
X172954747Y-65177401D01*
X172971223Y-65159223D01*
X172989401Y-65142747D01*
X173009107Y-65128132D01*
X173030150Y-65115520D01*
X173052329Y-65105030D01*
X173075428Y-65096765D01*
X173099227Y-65090804D01*
X173123495Y-65087204D01*
X173147999Y-65086000D01*
X173798001Y-65086000D01*
X173822505Y-65087204D01*
G37*
G36*
X175872505Y-65087204D02*
G01*
X175896773Y-65090804D01*
X175920572Y-65096765D01*
X175943671Y-65105030D01*
X175965850Y-65115520D01*
X175986893Y-65128132D01*
X176006599Y-65142747D01*
X176024777Y-65159223D01*
X176041253Y-65177401D01*
X176055868Y-65197107D01*
X176068480Y-65218150D01*
X176078970Y-65240329D01*
X176087235Y-65263428D01*
X176093196Y-65287227D01*
X176096796Y-65311495D01*
X176098000Y-65335999D01*
X176098000Y-66236001D01*
X176096796Y-66260505D01*
X176093196Y-66284773D01*
X176087235Y-66308572D01*
X176078970Y-66331671D01*
X176068480Y-66353850D01*
X176055868Y-66374893D01*
X176041253Y-66394599D01*
X176024777Y-66412777D01*
X176006599Y-66429253D01*
X175986893Y-66443868D01*
X175965850Y-66456480D01*
X175943671Y-66466970D01*
X175920572Y-66475235D01*
X175896773Y-66481196D01*
X175872505Y-66484796D01*
X175848001Y-66486000D01*
X175197999Y-66486000D01*
X175173495Y-66484796D01*
X175149227Y-66481196D01*
X175125428Y-66475235D01*
X175102329Y-66466970D01*
X175080150Y-66456480D01*
X175059107Y-66443868D01*
X175039401Y-66429253D01*
X175021223Y-66412777D01*
X175004747Y-66394599D01*
X174990132Y-66374893D01*
X174977520Y-66353850D01*
X174967030Y-66331671D01*
X174958765Y-66308572D01*
X174952804Y-66284773D01*
X174949204Y-66260505D01*
X174948000Y-66236001D01*
X174948000Y-65335999D01*
X174949204Y-65311495D01*
X174952804Y-65287227D01*
X174958765Y-65263428D01*
X174967030Y-65240329D01*
X174977520Y-65218150D01*
X174990132Y-65197107D01*
X175004747Y-65177401D01*
X175021223Y-65159223D01*
X175039401Y-65142747D01*
X175059107Y-65128132D01*
X175080150Y-65115520D01*
X175102329Y-65105030D01*
X175125428Y-65096765D01*
X175149227Y-65090804D01*
X175173495Y-65087204D01*
X175197999Y-65086000D01*
X175848001Y-65086000D01*
X175872505Y-65087204D01*
G37*
G36*
X159224505Y-95138704D02*
G01*
X159248773Y-95142304D01*
X159272572Y-95148265D01*
X159295671Y-95156530D01*
X159317850Y-95167020D01*
X159338893Y-95179632D01*
X159358599Y-95194247D01*
X159376777Y-95210723D01*
X159393253Y-95228901D01*
X159407868Y-95248607D01*
X159420480Y-95269650D01*
X159430970Y-95291829D01*
X159439235Y-95314928D01*
X159445196Y-95338727D01*
X159448796Y-95362995D01*
X159450000Y-95387499D01*
X159450000Y-96037501D01*
X159448796Y-96062005D01*
X159445196Y-96086273D01*
X159439235Y-96110072D01*
X159430970Y-96133171D01*
X159420480Y-96155350D01*
X159407868Y-96176393D01*
X159393253Y-96196099D01*
X159376777Y-96214277D01*
X159358599Y-96230753D01*
X159338893Y-96245368D01*
X159317850Y-96257980D01*
X159295671Y-96268470D01*
X159272572Y-96276735D01*
X159248773Y-96282696D01*
X159224505Y-96286296D01*
X159200001Y-96287500D01*
X158299999Y-96287500D01*
X158275495Y-96286296D01*
X158251227Y-96282696D01*
X158227428Y-96276735D01*
X158204329Y-96268470D01*
X158182150Y-96257980D01*
X158161107Y-96245368D01*
X158141401Y-96230753D01*
X158123223Y-96214277D01*
X158106747Y-96196099D01*
X158092132Y-96176393D01*
X158079520Y-96155350D01*
X158069030Y-96133171D01*
X158060765Y-96110072D01*
X158054804Y-96086273D01*
X158051204Y-96062005D01*
X158050000Y-96037501D01*
X158050000Y-95387499D01*
X158051204Y-95362995D01*
X158054804Y-95338727D01*
X158060765Y-95314928D01*
X158069030Y-95291829D01*
X158079520Y-95269650D01*
X158092132Y-95248607D01*
X158106747Y-95228901D01*
X158123223Y-95210723D01*
X158141401Y-95194247D01*
X158161107Y-95179632D01*
X158182150Y-95167020D01*
X158204329Y-95156530D01*
X158227428Y-95148265D01*
X158251227Y-95142304D01*
X158275495Y-95138704D01*
X158299999Y-95137500D01*
X159200001Y-95137500D01*
X159224505Y-95138704D01*
G37*
G36*
X159224505Y-97188704D02*
G01*
X159248773Y-97192304D01*
X159272572Y-97198265D01*
X159295671Y-97206530D01*
X159317850Y-97217020D01*
X159338893Y-97229632D01*
X159358599Y-97244247D01*
X159376777Y-97260723D01*
X159393253Y-97278901D01*
X159407868Y-97298607D01*
X159420480Y-97319650D01*
X159430970Y-97341829D01*
X159439235Y-97364928D01*
X159445196Y-97388727D01*
X159448796Y-97412995D01*
X159450000Y-97437499D01*
X159450000Y-98087501D01*
X159448796Y-98112005D01*
X159445196Y-98136273D01*
X159439235Y-98160072D01*
X159430970Y-98183171D01*
X159420480Y-98205350D01*
X159407868Y-98226393D01*
X159393253Y-98246099D01*
X159376777Y-98264277D01*
X159358599Y-98280753D01*
X159338893Y-98295368D01*
X159317850Y-98307980D01*
X159295671Y-98318470D01*
X159272572Y-98326735D01*
X159248773Y-98332696D01*
X159224505Y-98336296D01*
X159200001Y-98337500D01*
X158299999Y-98337500D01*
X158275495Y-98336296D01*
X158251227Y-98332696D01*
X158227428Y-98326735D01*
X158204329Y-98318470D01*
X158182150Y-98307980D01*
X158161107Y-98295368D01*
X158141401Y-98280753D01*
X158123223Y-98264277D01*
X158106747Y-98246099D01*
X158092132Y-98226393D01*
X158079520Y-98205350D01*
X158069030Y-98183171D01*
X158060765Y-98160072D01*
X158054804Y-98136273D01*
X158051204Y-98112005D01*
X158050000Y-98087501D01*
X158050000Y-97437499D01*
X158051204Y-97412995D01*
X158054804Y-97388727D01*
X158060765Y-97364928D01*
X158069030Y-97341829D01*
X158079520Y-97319650D01*
X158092132Y-97298607D01*
X158106747Y-97278901D01*
X158123223Y-97260723D01*
X158141401Y-97244247D01*
X158161107Y-97229632D01*
X158182150Y-97217020D01*
X158204329Y-97206530D01*
X158227428Y-97198265D01*
X158251227Y-97192304D01*
X158275495Y-97188704D01*
X158299999Y-97187500D01*
X159200001Y-97187500D01*
X159224505Y-97188704D01*
G37*
G36*
X147794505Y-95138704D02*
G01*
X147818773Y-95142304D01*
X147842572Y-95148265D01*
X147865671Y-95156530D01*
X147887850Y-95167020D01*
X147908893Y-95179632D01*
X147928599Y-95194247D01*
X147946777Y-95210723D01*
X147963253Y-95228901D01*
X147977868Y-95248607D01*
X147990480Y-95269650D01*
X148000970Y-95291829D01*
X148009235Y-95314928D01*
X148015196Y-95338727D01*
X148018796Y-95362995D01*
X148020000Y-95387499D01*
X148020000Y-96037501D01*
X148018796Y-96062005D01*
X148015196Y-96086273D01*
X148009235Y-96110072D01*
X148000970Y-96133171D01*
X147990480Y-96155350D01*
X147977868Y-96176393D01*
X147963253Y-96196099D01*
X147946777Y-96214277D01*
X147928599Y-96230753D01*
X147908893Y-96245368D01*
X147887850Y-96257980D01*
X147865671Y-96268470D01*
X147842572Y-96276735D01*
X147818773Y-96282696D01*
X147794505Y-96286296D01*
X147770001Y-96287500D01*
X146869999Y-96287500D01*
X146845495Y-96286296D01*
X146821227Y-96282696D01*
X146797428Y-96276735D01*
X146774329Y-96268470D01*
X146752150Y-96257980D01*
X146731107Y-96245368D01*
X146711401Y-96230753D01*
X146693223Y-96214277D01*
X146676747Y-96196099D01*
X146662132Y-96176393D01*
X146649520Y-96155350D01*
X146639030Y-96133171D01*
X146630765Y-96110072D01*
X146624804Y-96086273D01*
X146621204Y-96062005D01*
X146620000Y-96037501D01*
X146620000Y-95387499D01*
X146621204Y-95362995D01*
X146624804Y-95338727D01*
X146630765Y-95314928D01*
X146639030Y-95291829D01*
X146649520Y-95269650D01*
X146662132Y-95248607D01*
X146676747Y-95228901D01*
X146693223Y-95210723D01*
X146711401Y-95194247D01*
X146731107Y-95179632D01*
X146752150Y-95167020D01*
X146774329Y-95156530D01*
X146797428Y-95148265D01*
X146821227Y-95142304D01*
X146845495Y-95138704D01*
X146869999Y-95137500D01*
X147770001Y-95137500D01*
X147794505Y-95138704D01*
G37*
G36*
X147794505Y-97188704D02*
G01*
X147818773Y-97192304D01*
X147842572Y-97198265D01*
X147865671Y-97206530D01*
X147887850Y-97217020D01*
X147908893Y-97229632D01*
X147928599Y-97244247D01*
X147946777Y-97260723D01*
X147963253Y-97278901D01*
X147977868Y-97298607D01*
X147990480Y-97319650D01*
X148000970Y-97341829D01*
X148009235Y-97364928D01*
X148015196Y-97388727D01*
X148018796Y-97412995D01*
X148020000Y-97437499D01*
X148020000Y-98087501D01*
X148018796Y-98112005D01*
X148015196Y-98136273D01*
X148009235Y-98160072D01*
X148000970Y-98183171D01*
X147990480Y-98205350D01*
X147977868Y-98226393D01*
X147963253Y-98246099D01*
X147946777Y-98264277D01*
X147928599Y-98280753D01*
X147908893Y-98295368D01*
X147887850Y-98307980D01*
X147865671Y-98318470D01*
X147842572Y-98326735D01*
X147818773Y-98332696D01*
X147794505Y-98336296D01*
X147770001Y-98337500D01*
X146869999Y-98337500D01*
X146845495Y-98336296D01*
X146821227Y-98332696D01*
X146797428Y-98326735D01*
X146774329Y-98318470D01*
X146752150Y-98307980D01*
X146731107Y-98295368D01*
X146711401Y-98280753D01*
X146693223Y-98264277D01*
X146676747Y-98246099D01*
X146662132Y-98226393D01*
X146649520Y-98205350D01*
X146639030Y-98183171D01*
X146630765Y-98160072D01*
X146624804Y-98136273D01*
X146621204Y-98112005D01*
X146620000Y-98087501D01*
X146620000Y-97437499D01*
X146621204Y-97412995D01*
X146624804Y-97388727D01*
X146630765Y-97364928D01*
X146639030Y-97341829D01*
X146649520Y-97319650D01*
X146662132Y-97298607D01*
X146676747Y-97278901D01*
X146693223Y-97260723D01*
X146711401Y-97244247D01*
X146731107Y-97229632D01*
X146752150Y-97217020D01*
X146774329Y-97206530D01*
X146797428Y-97198265D01*
X146821227Y-97192304D01*
X146845495Y-97188704D01*
X146869999Y-97187500D01*
X147770001Y-97187500D01*
X147794505Y-97188704D01*
G37*
G36*
X151604505Y-95138704D02*
G01*
X151628773Y-95142304D01*
X151652572Y-95148265D01*
X151675671Y-95156530D01*
X151697850Y-95167020D01*
X151718893Y-95179632D01*
X151738599Y-95194247D01*
X151756777Y-95210723D01*
X151773253Y-95228901D01*
X151787868Y-95248607D01*
X151800480Y-95269650D01*
X151810970Y-95291829D01*
X151819235Y-95314928D01*
X151825196Y-95338727D01*
X151828796Y-95362995D01*
X151830000Y-95387499D01*
X151830000Y-96037501D01*
X151828796Y-96062005D01*
X151825196Y-96086273D01*
X151819235Y-96110072D01*
X151810970Y-96133171D01*
X151800480Y-96155350D01*
X151787868Y-96176393D01*
X151773253Y-96196099D01*
X151756777Y-96214277D01*
X151738599Y-96230753D01*
X151718893Y-96245368D01*
X151697850Y-96257980D01*
X151675671Y-96268470D01*
X151652572Y-96276735D01*
X151628773Y-96282696D01*
X151604505Y-96286296D01*
X151580001Y-96287500D01*
X150679999Y-96287500D01*
X150655495Y-96286296D01*
X150631227Y-96282696D01*
X150607428Y-96276735D01*
X150584329Y-96268470D01*
X150562150Y-96257980D01*
X150541107Y-96245368D01*
X150521401Y-96230753D01*
X150503223Y-96214277D01*
X150486747Y-96196099D01*
X150472132Y-96176393D01*
X150459520Y-96155350D01*
X150449030Y-96133171D01*
X150440765Y-96110072D01*
X150434804Y-96086273D01*
X150431204Y-96062005D01*
X150430000Y-96037501D01*
X150430000Y-95387499D01*
X150431204Y-95362995D01*
X150434804Y-95338727D01*
X150440765Y-95314928D01*
X150449030Y-95291829D01*
X150459520Y-95269650D01*
X150472132Y-95248607D01*
X150486747Y-95228901D01*
X150503223Y-95210723D01*
X150521401Y-95194247D01*
X150541107Y-95179632D01*
X150562150Y-95167020D01*
X150584329Y-95156530D01*
X150607428Y-95148265D01*
X150631227Y-95142304D01*
X150655495Y-95138704D01*
X150679999Y-95137500D01*
X151580001Y-95137500D01*
X151604505Y-95138704D01*
G37*
G36*
X151604505Y-97188704D02*
G01*
X151628773Y-97192304D01*
X151652572Y-97198265D01*
X151675671Y-97206530D01*
X151697850Y-97217020D01*
X151718893Y-97229632D01*
X151738599Y-97244247D01*
X151756777Y-97260723D01*
X151773253Y-97278901D01*
X151787868Y-97298607D01*
X151800480Y-97319650D01*
X151810970Y-97341829D01*
X151819235Y-97364928D01*
X151825196Y-97388727D01*
X151828796Y-97412995D01*
X151830000Y-97437499D01*
X151830000Y-98087501D01*
X151828796Y-98112005D01*
X151825196Y-98136273D01*
X151819235Y-98160072D01*
X151810970Y-98183171D01*
X151800480Y-98205350D01*
X151787868Y-98226393D01*
X151773253Y-98246099D01*
X151756777Y-98264277D01*
X151738599Y-98280753D01*
X151718893Y-98295368D01*
X151697850Y-98307980D01*
X151675671Y-98318470D01*
X151652572Y-98326735D01*
X151628773Y-98332696D01*
X151604505Y-98336296D01*
X151580001Y-98337500D01*
X150679999Y-98337500D01*
X150655495Y-98336296D01*
X150631227Y-98332696D01*
X150607428Y-98326735D01*
X150584329Y-98318470D01*
X150562150Y-98307980D01*
X150541107Y-98295368D01*
X150521401Y-98280753D01*
X150503223Y-98264277D01*
X150486747Y-98246099D01*
X150472132Y-98226393D01*
X150459520Y-98205350D01*
X150449030Y-98183171D01*
X150440765Y-98160072D01*
X150434804Y-98136273D01*
X150431204Y-98112005D01*
X150430000Y-98087501D01*
X150430000Y-97437499D01*
X150431204Y-97412995D01*
X150434804Y-97388727D01*
X150440765Y-97364928D01*
X150449030Y-97341829D01*
X150459520Y-97319650D01*
X150472132Y-97298607D01*
X150486747Y-97278901D01*
X150503223Y-97260723D01*
X150521401Y-97244247D01*
X150541107Y-97229632D01*
X150562150Y-97217020D01*
X150584329Y-97206530D01*
X150607428Y-97198265D01*
X150631227Y-97192304D01*
X150655495Y-97188704D01*
X150679999Y-97187500D01*
X151580001Y-97187500D01*
X151604505Y-97188704D01*
G37*
G36*
X155414505Y-95138704D02*
G01*
X155438773Y-95142304D01*
X155462572Y-95148265D01*
X155485671Y-95156530D01*
X155507850Y-95167020D01*
X155528893Y-95179632D01*
X155548599Y-95194247D01*
X155566777Y-95210723D01*
X155583253Y-95228901D01*
X155597868Y-95248607D01*
X155610480Y-95269650D01*
X155620970Y-95291829D01*
X155629235Y-95314928D01*
X155635196Y-95338727D01*
X155638796Y-95362995D01*
X155640000Y-95387499D01*
X155640000Y-96037501D01*
X155638796Y-96062005D01*
X155635196Y-96086273D01*
X155629235Y-96110072D01*
X155620970Y-96133171D01*
X155610480Y-96155350D01*
X155597868Y-96176393D01*
X155583253Y-96196099D01*
X155566777Y-96214277D01*
X155548599Y-96230753D01*
X155528893Y-96245368D01*
X155507850Y-96257980D01*
X155485671Y-96268470D01*
X155462572Y-96276735D01*
X155438773Y-96282696D01*
X155414505Y-96286296D01*
X155390001Y-96287500D01*
X154489999Y-96287500D01*
X154465495Y-96286296D01*
X154441227Y-96282696D01*
X154417428Y-96276735D01*
X154394329Y-96268470D01*
X154372150Y-96257980D01*
X154351107Y-96245368D01*
X154331401Y-96230753D01*
X154313223Y-96214277D01*
X154296747Y-96196099D01*
X154282132Y-96176393D01*
X154269520Y-96155350D01*
X154259030Y-96133171D01*
X154250765Y-96110072D01*
X154244804Y-96086273D01*
X154241204Y-96062005D01*
X154240000Y-96037501D01*
X154240000Y-95387499D01*
X154241204Y-95362995D01*
X154244804Y-95338727D01*
X154250765Y-95314928D01*
X154259030Y-95291829D01*
X154269520Y-95269650D01*
X154282132Y-95248607D01*
X154296747Y-95228901D01*
X154313223Y-95210723D01*
X154331401Y-95194247D01*
X154351107Y-95179632D01*
X154372150Y-95167020D01*
X154394329Y-95156530D01*
X154417428Y-95148265D01*
X154441227Y-95142304D01*
X154465495Y-95138704D01*
X154489999Y-95137500D01*
X155390001Y-95137500D01*
X155414505Y-95138704D01*
G37*
G36*
X155414505Y-97188704D02*
G01*
X155438773Y-97192304D01*
X155462572Y-97198265D01*
X155485671Y-97206530D01*
X155507850Y-97217020D01*
X155528893Y-97229632D01*
X155548599Y-97244247D01*
X155566777Y-97260723D01*
X155583253Y-97278901D01*
X155597868Y-97298607D01*
X155610480Y-97319650D01*
X155620970Y-97341829D01*
X155629235Y-97364928D01*
X155635196Y-97388727D01*
X155638796Y-97412995D01*
X155640000Y-97437499D01*
X155640000Y-98087501D01*
X155638796Y-98112005D01*
X155635196Y-98136273D01*
X155629235Y-98160072D01*
X155620970Y-98183171D01*
X155610480Y-98205350D01*
X155597868Y-98226393D01*
X155583253Y-98246099D01*
X155566777Y-98264277D01*
X155548599Y-98280753D01*
X155528893Y-98295368D01*
X155507850Y-98307980D01*
X155485671Y-98318470D01*
X155462572Y-98326735D01*
X155438773Y-98332696D01*
X155414505Y-98336296D01*
X155390001Y-98337500D01*
X154489999Y-98337500D01*
X154465495Y-98336296D01*
X154441227Y-98332696D01*
X154417428Y-98326735D01*
X154394329Y-98318470D01*
X154372150Y-98307980D01*
X154351107Y-98295368D01*
X154331401Y-98280753D01*
X154313223Y-98264277D01*
X154296747Y-98246099D01*
X154282132Y-98226393D01*
X154269520Y-98205350D01*
X154259030Y-98183171D01*
X154250765Y-98160072D01*
X154244804Y-98136273D01*
X154241204Y-98112005D01*
X154240000Y-98087501D01*
X154240000Y-97437499D01*
X154241204Y-97412995D01*
X154244804Y-97388727D01*
X154250765Y-97364928D01*
X154259030Y-97341829D01*
X154269520Y-97319650D01*
X154282132Y-97298607D01*
X154296747Y-97278901D01*
X154313223Y-97260723D01*
X154331401Y-97244247D01*
X154351107Y-97229632D01*
X154372150Y-97217020D01*
X154394329Y-97206530D01*
X154417428Y-97198265D01*
X154441227Y-97192304D01*
X154465495Y-97188704D01*
X154489999Y-97187500D01*
X155390001Y-97187500D01*
X155414505Y-97188704D01*
G37*
G36*
X140174505Y-95138704D02*
G01*
X140198773Y-95142304D01*
X140222572Y-95148265D01*
X140245671Y-95156530D01*
X140267850Y-95167020D01*
X140288893Y-95179632D01*
X140308599Y-95194247D01*
X140326777Y-95210723D01*
X140343253Y-95228901D01*
X140357868Y-95248607D01*
X140370480Y-95269650D01*
X140380970Y-95291829D01*
X140389235Y-95314928D01*
X140395196Y-95338727D01*
X140398796Y-95362995D01*
X140400000Y-95387499D01*
X140400000Y-96037501D01*
X140398796Y-96062005D01*
X140395196Y-96086273D01*
X140389235Y-96110072D01*
X140380970Y-96133171D01*
X140370480Y-96155350D01*
X140357868Y-96176393D01*
X140343253Y-96196099D01*
X140326777Y-96214277D01*
X140308599Y-96230753D01*
X140288893Y-96245368D01*
X140267850Y-96257980D01*
X140245671Y-96268470D01*
X140222572Y-96276735D01*
X140198773Y-96282696D01*
X140174505Y-96286296D01*
X140150001Y-96287500D01*
X139249999Y-96287500D01*
X139225495Y-96286296D01*
X139201227Y-96282696D01*
X139177428Y-96276735D01*
X139154329Y-96268470D01*
X139132150Y-96257980D01*
X139111107Y-96245368D01*
X139091401Y-96230753D01*
X139073223Y-96214277D01*
X139056747Y-96196099D01*
X139042132Y-96176393D01*
X139029520Y-96155350D01*
X139019030Y-96133171D01*
X139010765Y-96110072D01*
X139004804Y-96086273D01*
X139001204Y-96062005D01*
X139000000Y-96037501D01*
X139000000Y-95387499D01*
X139001204Y-95362995D01*
X139004804Y-95338727D01*
X139010765Y-95314928D01*
X139019030Y-95291829D01*
X139029520Y-95269650D01*
X139042132Y-95248607D01*
X139056747Y-95228901D01*
X139073223Y-95210723D01*
X139091401Y-95194247D01*
X139111107Y-95179632D01*
X139132150Y-95167020D01*
X139154329Y-95156530D01*
X139177428Y-95148265D01*
X139201227Y-95142304D01*
X139225495Y-95138704D01*
X139249999Y-95137500D01*
X140150001Y-95137500D01*
X140174505Y-95138704D01*
G37*
G36*
X140174505Y-97188704D02*
G01*
X140198773Y-97192304D01*
X140222572Y-97198265D01*
X140245671Y-97206530D01*
X140267850Y-97217020D01*
X140288893Y-97229632D01*
X140308599Y-97244247D01*
X140326777Y-97260723D01*
X140343253Y-97278901D01*
X140357868Y-97298607D01*
X140370480Y-97319650D01*
X140380970Y-97341829D01*
X140389235Y-97364928D01*
X140395196Y-97388727D01*
X140398796Y-97412995D01*
X140400000Y-97437499D01*
X140400000Y-98087501D01*
X140398796Y-98112005D01*
X140395196Y-98136273D01*
X140389235Y-98160072D01*
X140380970Y-98183171D01*
X140370480Y-98205350D01*
X140357868Y-98226393D01*
X140343253Y-98246099D01*
X140326777Y-98264277D01*
X140308599Y-98280753D01*
X140288893Y-98295368D01*
X140267850Y-98307980D01*
X140245671Y-98318470D01*
X140222572Y-98326735D01*
X140198773Y-98332696D01*
X140174505Y-98336296D01*
X140150001Y-98337500D01*
X139249999Y-98337500D01*
X139225495Y-98336296D01*
X139201227Y-98332696D01*
X139177428Y-98326735D01*
X139154329Y-98318470D01*
X139132150Y-98307980D01*
X139111107Y-98295368D01*
X139091401Y-98280753D01*
X139073223Y-98264277D01*
X139056747Y-98246099D01*
X139042132Y-98226393D01*
X139029520Y-98205350D01*
X139019030Y-98183171D01*
X139010765Y-98160072D01*
X139004804Y-98136273D01*
X139001204Y-98112005D01*
X139000000Y-98087501D01*
X139000000Y-97437499D01*
X139001204Y-97412995D01*
X139004804Y-97388727D01*
X139010765Y-97364928D01*
X139019030Y-97341829D01*
X139029520Y-97319650D01*
X139042132Y-97298607D01*
X139056747Y-97278901D01*
X139073223Y-97260723D01*
X139091401Y-97244247D01*
X139111107Y-97229632D01*
X139132150Y-97217020D01*
X139154329Y-97206530D01*
X139177428Y-97198265D01*
X139201227Y-97192304D01*
X139225495Y-97188704D01*
X139249999Y-97187500D01*
X140150001Y-97187500D01*
X140174505Y-97188704D01*
G37*
G36*
X143984505Y-95138704D02*
G01*
X144008773Y-95142304D01*
X144032572Y-95148265D01*
X144055671Y-95156530D01*
X144077850Y-95167020D01*
X144098893Y-95179632D01*
X144118599Y-95194247D01*
X144136777Y-95210723D01*
X144153253Y-95228901D01*
X144167868Y-95248607D01*
X144180480Y-95269650D01*
X144190970Y-95291829D01*
X144199235Y-95314928D01*
X144205196Y-95338727D01*
X144208796Y-95362995D01*
X144210000Y-95387499D01*
X144210000Y-96037501D01*
X144208796Y-96062005D01*
X144205196Y-96086273D01*
X144199235Y-96110072D01*
X144190970Y-96133171D01*
X144180480Y-96155350D01*
X144167868Y-96176393D01*
X144153253Y-96196099D01*
X144136777Y-96214277D01*
X144118599Y-96230753D01*
X144098893Y-96245368D01*
X144077850Y-96257980D01*
X144055671Y-96268470D01*
X144032572Y-96276735D01*
X144008773Y-96282696D01*
X143984505Y-96286296D01*
X143960001Y-96287500D01*
X143059999Y-96287500D01*
X143035495Y-96286296D01*
X143011227Y-96282696D01*
X142987428Y-96276735D01*
X142964329Y-96268470D01*
X142942150Y-96257980D01*
X142921107Y-96245368D01*
X142901401Y-96230753D01*
X142883223Y-96214277D01*
X142866747Y-96196099D01*
X142852132Y-96176393D01*
X142839520Y-96155350D01*
X142829030Y-96133171D01*
X142820765Y-96110072D01*
X142814804Y-96086273D01*
X142811204Y-96062005D01*
X142810000Y-96037501D01*
X142810000Y-95387499D01*
X142811204Y-95362995D01*
X142814804Y-95338727D01*
X142820765Y-95314928D01*
X142829030Y-95291829D01*
X142839520Y-95269650D01*
X142852132Y-95248607D01*
X142866747Y-95228901D01*
X142883223Y-95210723D01*
X142901401Y-95194247D01*
X142921107Y-95179632D01*
X142942150Y-95167020D01*
X142964329Y-95156530D01*
X142987428Y-95148265D01*
X143011227Y-95142304D01*
X143035495Y-95138704D01*
X143059999Y-95137500D01*
X143960001Y-95137500D01*
X143984505Y-95138704D01*
G37*
G36*
X143984505Y-97188704D02*
G01*
X144008773Y-97192304D01*
X144032572Y-97198265D01*
X144055671Y-97206530D01*
X144077850Y-97217020D01*
X144098893Y-97229632D01*
X144118599Y-97244247D01*
X144136777Y-97260723D01*
X144153253Y-97278901D01*
X144167868Y-97298607D01*
X144180480Y-97319650D01*
X144190970Y-97341829D01*
X144199235Y-97364928D01*
X144205196Y-97388727D01*
X144208796Y-97412995D01*
X144210000Y-97437499D01*
X144210000Y-98087501D01*
X144208796Y-98112005D01*
X144205196Y-98136273D01*
X144199235Y-98160072D01*
X144190970Y-98183171D01*
X144180480Y-98205350D01*
X144167868Y-98226393D01*
X144153253Y-98246099D01*
X144136777Y-98264277D01*
X144118599Y-98280753D01*
X144098893Y-98295368D01*
X144077850Y-98307980D01*
X144055671Y-98318470D01*
X144032572Y-98326735D01*
X144008773Y-98332696D01*
X143984505Y-98336296D01*
X143960001Y-98337500D01*
X143059999Y-98337500D01*
X143035495Y-98336296D01*
X143011227Y-98332696D01*
X142987428Y-98326735D01*
X142964329Y-98318470D01*
X142942150Y-98307980D01*
X142921107Y-98295368D01*
X142901401Y-98280753D01*
X142883223Y-98264277D01*
X142866747Y-98246099D01*
X142852132Y-98226393D01*
X142839520Y-98205350D01*
X142829030Y-98183171D01*
X142820765Y-98160072D01*
X142814804Y-98136273D01*
X142811204Y-98112005D01*
X142810000Y-98087501D01*
X142810000Y-97437499D01*
X142811204Y-97412995D01*
X142814804Y-97388727D01*
X142820765Y-97364928D01*
X142829030Y-97341829D01*
X142839520Y-97319650D01*
X142852132Y-97298607D01*
X142866747Y-97278901D01*
X142883223Y-97260723D01*
X142901401Y-97244247D01*
X142921107Y-97229632D01*
X142942150Y-97217020D01*
X142964329Y-97206530D01*
X142987428Y-97198265D01*
X143011227Y-97192304D01*
X143035495Y-97188704D01*
X143059999Y-97187500D01*
X143960001Y-97187500D01*
X143984505Y-97188704D01*
G37*
G36*
X136364505Y-95138704D02*
G01*
X136388773Y-95142304D01*
X136412572Y-95148265D01*
X136435671Y-95156530D01*
X136457850Y-95167020D01*
X136478893Y-95179632D01*
X136498599Y-95194247D01*
X136516777Y-95210723D01*
X136533253Y-95228901D01*
X136547868Y-95248607D01*
X136560480Y-95269650D01*
X136570970Y-95291829D01*
X136579235Y-95314928D01*
X136585196Y-95338727D01*
X136588796Y-95362995D01*
X136590000Y-95387499D01*
X136590000Y-96037501D01*
X136588796Y-96062005D01*
X136585196Y-96086273D01*
X136579235Y-96110072D01*
X136570970Y-96133171D01*
X136560480Y-96155350D01*
X136547868Y-96176393D01*
X136533253Y-96196099D01*
X136516777Y-96214277D01*
X136498599Y-96230753D01*
X136478893Y-96245368D01*
X136457850Y-96257980D01*
X136435671Y-96268470D01*
X136412572Y-96276735D01*
X136388773Y-96282696D01*
X136364505Y-96286296D01*
X136340001Y-96287500D01*
X135439999Y-96287500D01*
X135415495Y-96286296D01*
X135391227Y-96282696D01*
X135367428Y-96276735D01*
X135344329Y-96268470D01*
X135322150Y-96257980D01*
X135301107Y-96245368D01*
X135281401Y-96230753D01*
X135263223Y-96214277D01*
X135246747Y-96196099D01*
X135232132Y-96176393D01*
X135219520Y-96155350D01*
X135209030Y-96133171D01*
X135200765Y-96110072D01*
X135194804Y-96086273D01*
X135191204Y-96062005D01*
X135190000Y-96037501D01*
X135190000Y-95387499D01*
X135191204Y-95362995D01*
X135194804Y-95338727D01*
X135200765Y-95314928D01*
X135209030Y-95291829D01*
X135219520Y-95269650D01*
X135232132Y-95248607D01*
X135246747Y-95228901D01*
X135263223Y-95210723D01*
X135281401Y-95194247D01*
X135301107Y-95179632D01*
X135322150Y-95167020D01*
X135344329Y-95156530D01*
X135367428Y-95148265D01*
X135391227Y-95142304D01*
X135415495Y-95138704D01*
X135439999Y-95137500D01*
X136340001Y-95137500D01*
X136364505Y-95138704D01*
G37*
G36*
X136364505Y-97188704D02*
G01*
X136388773Y-97192304D01*
X136412572Y-97198265D01*
X136435671Y-97206530D01*
X136457850Y-97217020D01*
X136478893Y-97229632D01*
X136498599Y-97244247D01*
X136516777Y-97260723D01*
X136533253Y-97278901D01*
X136547868Y-97298607D01*
X136560480Y-97319650D01*
X136570970Y-97341829D01*
X136579235Y-97364928D01*
X136585196Y-97388727D01*
X136588796Y-97412995D01*
X136590000Y-97437499D01*
X136590000Y-98087501D01*
X136588796Y-98112005D01*
X136585196Y-98136273D01*
X136579235Y-98160072D01*
X136570970Y-98183171D01*
X136560480Y-98205350D01*
X136547868Y-98226393D01*
X136533253Y-98246099D01*
X136516777Y-98264277D01*
X136498599Y-98280753D01*
X136478893Y-98295368D01*
X136457850Y-98307980D01*
X136435671Y-98318470D01*
X136412572Y-98326735D01*
X136388773Y-98332696D01*
X136364505Y-98336296D01*
X136340001Y-98337500D01*
X135439999Y-98337500D01*
X135415495Y-98336296D01*
X135391227Y-98332696D01*
X135367428Y-98326735D01*
X135344329Y-98318470D01*
X135322150Y-98307980D01*
X135301107Y-98295368D01*
X135281401Y-98280753D01*
X135263223Y-98264277D01*
X135246747Y-98246099D01*
X135232132Y-98226393D01*
X135219520Y-98205350D01*
X135209030Y-98183171D01*
X135200765Y-98160072D01*
X135194804Y-98136273D01*
X135191204Y-98112005D01*
X135190000Y-98087501D01*
X135190000Y-97437499D01*
X135191204Y-97412995D01*
X135194804Y-97388727D01*
X135200765Y-97364928D01*
X135209030Y-97341829D01*
X135219520Y-97319650D01*
X135232132Y-97298607D01*
X135246747Y-97278901D01*
X135263223Y-97260723D01*
X135281401Y-97244247D01*
X135301107Y-97229632D01*
X135322150Y-97217020D01*
X135344329Y-97206530D01*
X135367428Y-97198265D01*
X135391227Y-97192304D01*
X135415495Y-97188704D01*
X135439999Y-97187500D01*
X136340001Y-97187500D01*
X136364505Y-97188704D01*
G37*
G36*
X107662505Y-71553204D02*
G01*
X107686773Y-71556804D01*
X107710572Y-71562765D01*
X107733671Y-71571030D01*
X107755850Y-71581520D01*
X107776893Y-71594132D01*
X107796599Y-71608747D01*
X107814777Y-71625223D01*
X107831253Y-71643401D01*
X107845868Y-71663107D01*
X107858480Y-71684150D01*
X107868970Y-71706329D01*
X107877235Y-71729428D01*
X107883196Y-71753227D01*
X107886796Y-71777495D01*
X107888000Y-71801999D01*
X107888000Y-72452001D01*
X107886796Y-72476505D01*
X107883196Y-72500773D01*
X107877235Y-72524572D01*
X107868970Y-72547671D01*
X107858480Y-72569850D01*
X107845868Y-72590893D01*
X107831253Y-72610599D01*
X107814777Y-72628777D01*
X107796599Y-72645253D01*
X107776893Y-72659868D01*
X107755850Y-72672480D01*
X107733671Y-72682970D01*
X107710572Y-72691235D01*
X107686773Y-72697196D01*
X107662505Y-72700796D01*
X107638001Y-72702000D01*
X106737999Y-72702000D01*
X106713495Y-72700796D01*
X106689227Y-72697196D01*
X106665428Y-72691235D01*
X106642329Y-72682970D01*
X106620150Y-72672480D01*
X106599107Y-72659868D01*
X106579401Y-72645253D01*
X106561223Y-72628777D01*
X106544747Y-72610599D01*
X106530132Y-72590893D01*
X106517520Y-72569850D01*
X106507030Y-72547671D01*
X106498765Y-72524572D01*
X106492804Y-72500773D01*
X106489204Y-72476505D01*
X106488000Y-72452001D01*
X106488000Y-71801999D01*
X106489204Y-71777495D01*
X106492804Y-71753227D01*
X106498765Y-71729428D01*
X106507030Y-71706329D01*
X106517520Y-71684150D01*
X106530132Y-71663107D01*
X106544747Y-71643401D01*
X106561223Y-71625223D01*
X106579401Y-71608747D01*
X106599107Y-71594132D01*
X106620150Y-71581520D01*
X106642329Y-71571030D01*
X106665428Y-71562765D01*
X106689227Y-71556804D01*
X106713495Y-71553204D01*
X106737999Y-71552000D01*
X107638001Y-71552000D01*
X107662505Y-71553204D01*
G37*
G36*
X107662505Y-73603204D02*
G01*
X107686773Y-73606804D01*
X107710572Y-73612765D01*
X107733671Y-73621030D01*
X107755850Y-73631520D01*
X107776893Y-73644132D01*
X107796599Y-73658747D01*
X107814777Y-73675223D01*
X107831253Y-73693401D01*
X107845868Y-73713107D01*
X107858480Y-73734150D01*
X107868970Y-73756329D01*
X107877235Y-73779428D01*
X107883196Y-73803227D01*
X107886796Y-73827495D01*
X107888000Y-73851999D01*
X107888000Y-74502001D01*
X107886796Y-74526505D01*
X107883196Y-74550773D01*
X107877235Y-74574572D01*
X107868970Y-74597671D01*
X107858480Y-74619850D01*
X107845868Y-74640893D01*
X107831253Y-74660599D01*
X107814777Y-74678777D01*
X107796599Y-74695253D01*
X107776893Y-74709868D01*
X107755850Y-74722480D01*
X107733671Y-74732970D01*
X107710572Y-74741235D01*
X107686773Y-74747196D01*
X107662505Y-74750796D01*
X107638001Y-74752000D01*
X106737999Y-74752000D01*
X106713495Y-74750796D01*
X106689227Y-74747196D01*
X106665428Y-74741235D01*
X106642329Y-74732970D01*
X106620150Y-74722480D01*
X106599107Y-74709868D01*
X106579401Y-74695253D01*
X106561223Y-74678777D01*
X106544747Y-74660599D01*
X106530132Y-74640893D01*
X106517520Y-74619850D01*
X106507030Y-74597671D01*
X106498765Y-74574572D01*
X106492804Y-74550773D01*
X106489204Y-74526505D01*
X106488000Y-74502001D01*
X106488000Y-73851999D01*
X106489204Y-73827495D01*
X106492804Y-73803227D01*
X106498765Y-73779428D01*
X106507030Y-73756329D01*
X106517520Y-73734150D01*
X106530132Y-73713107D01*
X106544747Y-73693401D01*
X106561223Y-73675223D01*
X106579401Y-73658747D01*
X106599107Y-73644132D01*
X106620150Y-73631520D01*
X106642329Y-73621030D01*
X106665428Y-73612765D01*
X106689227Y-73606804D01*
X106713495Y-73603204D01*
X106737999Y-73602000D01*
X107638001Y-73602000D01*
X107662505Y-73603204D01*
G37*
G36*
X106138505Y-63207704D02*
G01*
X106162773Y-63211304D01*
X106186572Y-63217265D01*
X106209671Y-63225530D01*
X106231850Y-63236020D01*
X106252893Y-63248632D01*
X106272599Y-63263247D01*
X106290777Y-63279723D01*
X106307253Y-63297901D01*
X106321868Y-63317607D01*
X106334480Y-63338650D01*
X106344970Y-63360829D01*
X106353235Y-63383928D01*
X106359196Y-63407727D01*
X106362796Y-63431995D01*
X106364000Y-63456499D01*
X106364000Y-64106501D01*
X106362796Y-64131005D01*
X106359196Y-64155273D01*
X106353235Y-64179072D01*
X106344970Y-64202171D01*
X106334480Y-64224350D01*
X106321868Y-64245393D01*
X106307253Y-64265099D01*
X106290777Y-64283277D01*
X106272599Y-64299753D01*
X106252893Y-64314368D01*
X106231850Y-64326980D01*
X106209671Y-64337470D01*
X106186572Y-64345735D01*
X106162773Y-64351696D01*
X106138505Y-64355296D01*
X106114001Y-64356500D01*
X105213999Y-64356500D01*
X105189495Y-64355296D01*
X105165227Y-64351696D01*
X105141428Y-64345735D01*
X105118329Y-64337470D01*
X105096150Y-64326980D01*
X105075107Y-64314368D01*
X105055401Y-64299753D01*
X105037223Y-64283277D01*
X105020747Y-64265099D01*
X105006132Y-64245393D01*
X104993520Y-64224350D01*
X104983030Y-64202171D01*
X104974765Y-64179072D01*
X104968804Y-64155273D01*
X104965204Y-64131005D01*
X104964000Y-64106501D01*
X104964000Y-63456499D01*
X104965204Y-63431995D01*
X104968804Y-63407727D01*
X104974765Y-63383928D01*
X104983030Y-63360829D01*
X104993520Y-63338650D01*
X105006132Y-63317607D01*
X105020747Y-63297901D01*
X105037223Y-63279723D01*
X105055401Y-63263247D01*
X105075107Y-63248632D01*
X105096150Y-63236020D01*
X105118329Y-63225530D01*
X105141428Y-63217265D01*
X105165227Y-63211304D01*
X105189495Y-63207704D01*
X105213999Y-63206500D01*
X106114001Y-63206500D01*
X106138505Y-63207704D01*
G37*
G36*
X106138505Y-65257704D02*
G01*
X106162773Y-65261304D01*
X106186572Y-65267265D01*
X106209671Y-65275530D01*
X106231850Y-65286020D01*
X106252893Y-65298632D01*
X106272599Y-65313247D01*
X106290777Y-65329723D01*
X106307253Y-65347901D01*
X106321868Y-65367607D01*
X106334480Y-65388650D01*
X106344970Y-65410829D01*
X106353235Y-65433928D01*
X106359196Y-65457727D01*
X106362796Y-65481995D01*
X106364000Y-65506499D01*
X106364000Y-66156501D01*
X106362796Y-66181005D01*
X106359196Y-66205273D01*
X106353235Y-66229072D01*
X106344970Y-66252171D01*
X106334480Y-66274350D01*
X106321868Y-66295393D01*
X106307253Y-66315099D01*
X106290777Y-66333277D01*
X106272599Y-66349753D01*
X106252893Y-66364368D01*
X106231850Y-66376980D01*
X106209671Y-66387470D01*
X106186572Y-66395735D01*
X106162773Y-66401696D01*
X106138505Y-66405296D01*
X106114001Y-66406500D01*
X105213999Y-66406500D01*
X105189495Y-66405296D01*
X105165227Y-66401696D01*
X105141428Y-66395735D01*
X105118329Y-66387470D01*
X105096150Y-66376980D01*
X105075107Y-66364368D01*
X105055401Y-66349753D01*
X105037223Y-66333277D01*
X105020747Y-66315099D01*
X105006132Y-66295393D01*
X104993520Y-66274350D01*
X104983030Y-66252171D01*
X104974765Y-66229072D01*
X104968804Y-66205273D01*
X104965204Y-66181005D01*
X104964000Y-66156501D01*
X104964000Y-65506499D01*
X104965204Y-65481995D01*
X104968804Y-65457727D01*
X104974765Y-65433928D01*
X104983030Y-65410829D01*
X104993520Y-65388650D01*
X105006132Y-65367607D01*
X105020747Y-65347901D01*
X105037223Y-65329723D01*
X105055401Y-65313247D01*
X105075107Y-65298632D01*
X105096150Y-65286020D01*
X105118329Y-65275530D01*
X105141428Y-65267265D01*
X105165227Y-65261304D01*
X105189495Y-65257704D01*
X105213999Y-65256500D01*
X106114001Y-65256500D01*
X106138505Y-65257704D01*
G37*
G36*
X140301505Y-85250704D02*
G01*
X140325773Y-85254304D01*
X140349572Y-85260265D01*
X140372671Y-85268530D01*
X140394850Y-85279020D01*
X140415893Y-85291632D01*
X140435599Y-85306247D01*
X140453777Y-85322723D01*
X140470253Y-85340901D01*
X140484868Y-85360607D01*
X140497480Y-85381650D01*
X140507970Y-85403829D01*
X140516235Y-85426928D01*
X140522196Y-85450727D01*
X140525796Y-85474995D01*
X140527000Y-85499499D01*
X140527000Y-86149501D01*
X140525796Y-86174005D01*
X140522196Y-86198273D01*
X140516235Y-86222072D01*
X140507970Y-86245171D01*
X140497480Y-86267350D01*
X140484868Y-86288393D01*
X140470253Y-86308099D01*
X140453777Y-86326277D01*
X140435599Y-86342753D01*
X140415893Y-86357368D01*
X140394850Y-86369980D01*
X140372671Y-86380470D01*
X140349572Y-86388735D01*
X140325773Y-86394696D01*
X140301505Y-86398296D01*
X140277001Y-86399500D01*
X139376999Y-86399500D01*
X139352495Y-86398296D01*
X139328227Y-86394696D01*
X139304428Y-86388735D01*
X139281329Y-86380470D01*
X139259150Y-86369980D01*
X139238107Y-86357368D01*
X139218401Y-86342753D01*
X139200223Y-86326277D01*
X139183747Y-86308099D01*
X139169132Y-86288393D01*
X139156520Y-86267350D01*
X139146030Y-86245171D01*
X139137765Y-86222072D01*
X139131804Y-86198273D01*
X139128204Y-86174005D01*
X139127000Y-86149501D01*
X139127000Y-85499499D01*
X139128204Y-85474995D01*
X139131804Y-85450727D01*
X139137765Y-85426928D01*
X139146030Y-85403829D01*
X139156520Y-85381650D01*
X139169132Y-85360607D01*
X139183747Y-85340901D01*
X139200223Y-85322723D01*
X139218401Y-85306247D01*
X139238107Y-85291632D01*
X139259150Y-85279020D01*
X139281329Y-85268530D01*
X139304428Y-85260265D01*
X139328227Y-85254304D01*
X139352495Y-85250704D01*
X139376999Y-85249500D01*
X140277001Y-85249500D01*
X140301505Y-85250704D01*
G37*
G36*
X140301505Y-83200704D02*
G01*
X140325773Y-83204304D01*
X140349572Y-83210265D01*
X140372671Y-83218530D01*
X140394850Y-83229020D01*
X140415893Y-83241632D01*
X140435599Y-83256247D01*
X140453777Y-83272723D01*
X140470253Y-83290901D01*
X140484868Y-83310607D01*
X140497480Y-83331650D01*
X140507970Y-83353829D01*
X140516235Y-83376928D01*
X140522196Y-83400727D01*
X140525796Y-83424995D01*
X140527000Y-83449499D01*
X140527000Y-84099501D01*
X140525796Y-84124005D01*
X140522196Y-84148273D01*
X140516235Y-84172072D01*
X140507970Y-84195171D01*
X140497480Y-84217350D01*
X140484868Y-84238393D01*
X140470253Y-84258099D01*
X140453777Y-84276277D01*
X140435599Y-84292753D01*
X140415893Y-84307368D01*
X140394850Y-84319980D01*
X140372671Y-84330470D01*
X140349572Y-84338735D01*
X140325773Y-84344696D01*
X140301505Y-84348296D01*
X140277001Y-84349500D01*
X139376999Y-84349500D01*
X139352495Y-84348296D01*
X139328227Y-84344696D01*
X139304428Y-84338735D01*
X139281329Y-84330470D01*
X139259150Y-84319980D01*
X139238107Y-84307368D01*
X139218401Y-84292753D01*
X139200223Y-84276277D01*
X139183747Y-84258099D01*
X139169132Y-84238393D01*
X139156520Y-84217350D01*
X139146030Y-84195171D01*
X139137765Y-84172072D01*
X139131804Y-84148273D01*
X139128204Y-84124005D01*
X139127000Y-84099501D01*
X139127000Y-83449499D01*
X139128204Y-83424995D01*
X139131804Y-83400727D01*
X139137765Y-83376928D01*
X139146030Y-83353829D01*
X139156520Y-83331650D01*
X139169132Y-83310607D01*
X139183747Y-83290901D01*
X139200223Y-83272723D01*
X139218401Y-83256247D01*
X139238107Y-83241632D01*
X139259150Y-83229020D01*
X139281329Y-83218530D01*
X139304428Y-83210265D01*
X139328227Y-83204304D01*
X139352495Y-83200704D01*
X139376999Y-83199500D01*
X140277001Y-83199500D01*
X140301505Y-83200704D01*
G37*
G36*
X109948505Y-65257704D02*
G01*
X109972773Y-65261304D01*
X109996572Y-65267265D01*
X110019671Y-65275530D01*
X110041850Y-65286020D01*
X110062893Y-65298632D01*
X110082599Y-65313247D01*
X110100777Y-65329723D01*
X110117253Y-65347901D01*
X110131868Y-65367607D01*
X110144480Y-65388650D01*
X110154970Y-65410829D01*
X110163235Y-65433928D01*
X110169196Y-65457727D01*
X110172796Y-65481995D01*
X110174000Y-65506499D01*
X110174000Y-66156501D01*
X110172796Y-66181005D01*
X110169196Y-66205273D01*
X110163235Y-66229072D01*
X110154970Y-66252171D01*
X110144480Y-66274350D01*
X110131868Y-66295393D01*
X110117253Y-66315099D01*
X110100777Y-66333277D01*
X110082599Y-66349753D01*
X110062893Y-66364368D01*
X110041850Y-66376980D01*
X110019671Y-66387470D01*
X109996572Y-66395735D01*
X109972773Y-66401696D01*
X109948505Y-66405296D01*
X109924001Y-66406500D01*
X109023999Y-66406500D01*
X108999495Y-66405296D01*
X108975227Y-66401696D01*
X108951428Y-66395735D01*
X108928329Y-66387470D01*
X108906150Y-66376980D01*
X108885107Y-66364368D01*
X108865401Y-66349753D01*
X108847223Y-66333277D01*
X108830747Y-66315099D01*
X108816132Y-66295393D01*
X108803520Y-66274350D01*
X108793030Y-66252171D01*
X108784765Y-66229072D01*
X108778804Y-66205273D01*
X108775204Y-66181005D01*
X108774000Y-66156501D01*
X108774000Y-65506499D01*
X108775204Y-65481995D01*
X108778804Y-65457727D01*
X108784765Y-65433928D01*
X108793030Y-65410829D01*
X108803520Y-65388650D01*
X108816132Y-65367607D01*
X108830747Y-65347901D01*
X108847223Y-65329723D01*
X108865401Y-65313247D01*
X108885107Y-65298632D01*
X108906150Y-65286020D01*
X108928329Y-65275530D01*
X108951428Y-65267265D01*
X108975227Y-65261304D01*
X108999495Y-65257704D01*
X109023999Y-65256500D01*
X109924001Y-65256500D01*
X109948505Y-65257704D01*
G37*
G36*
X109948505Y-63207704D02*
G01*
X109972773Y-63211304D01*
X109996572Y-63217265D01*
X110019671Y-63225530D01*
X110041850Y-63236020D01*
X110062893Y-63248632D01*
X110082599Y-63263247D01*
X110100777Y-63279723D01*
X110117253Y-63297901D01*
X110131868Y-63317607D01*
X110144480Y-63338650D01*
X110154970Y-63360829D01*
X110163235Y-63383928D01*
X110169196Y-63407727D01*
X110172796Y-63431995D01*
X110174000Y-63456499D01*
X110174000Y-64106501D01*
X110172796Y-64131005D01*
X110169196Y-64155273D01*
X110163235Y-64179072D01*
X110154970Y-64202171D01*
X110144480Y-64224350D01*
X110131868Y-64245393D01*
X110117253Y-64265099D01*
X110100777Y-64283277D01*
X110082599Y-64299753D01*
X110062893Y-64314368D01*
X110041850Y-64326980D01*
X110019671Y-64337470D01*
X109996572Y-64345735D01*
X109972773Y-64351696D01*
X109948505Y-64355296D01*
X109924001Y-64356500D01*
X109023999Y-64356500D01*
X108999495Y-64355296D01*
X108975227Y-64351696D01*
X108951428Y-64345735D01*
X108928329Y-64337470D01*
X108906150Y-64326980D01*
X108885107Y-64314368D01*
X108865401Y-64299753D01*
X108847223Y-64283277D01*
X108830747Y-64265099D01*
X108816132Y-64245393D01*
X108803520Y-64224350D01*
X108793030Y-64202171D01*
X108784765Y-64179072D01*
X108778804Y-64155273D01*
X108775204Y-64131005D01*
X108774000Y-64106501D01*
X108774000Y-63456499D01*
X108775204Y-63431995D01*
X108778804Y-63407727D01*
X108784765Y-63383928D01*
X108793030Y-63360829D01*
X108803520Y-63338650D01*
X108816132Y-63317607D01*
X108830747Y-63297901D01*
X108847223Y-63279723D01*
X108865401Y-63263247D01*
X108885107Y-63248632D01*
X108906150Y-63236020D01*
X108928329Y-63225530D01*
X108951428Y-63217265D01*
X108975227Y-63211304D01*
X108999495Y-63207704D01*
X109023999Y-63206500D01*
X109924001Y-63206500D01*
X109948505Y-63207704D01*
G37*
G36*
X113758505Y-65257704D02*
G01*
X113782773Y-65261304D01*
X113806572Y-65267265D01*
X113829671Y-65275530D01*
X113851850Y-65286020D01*
X113872893Y-65298632D01*
X113892599Y-65313247D01*
X113910777Y-65329723D01*
X113927253Y-65347901D01*
X113941868Y-65367607D01*
X113954480Y-65388650D01*
X113964970Y-65410829D01*
X113973235Y-65433928D01*
X113979196Y-65457727D01*
X113982796Y-65481995D01*
X113984000Y-65506499D01*
X113984000Y-66156501D01*
X113982796Y-66181005D01*
X113979196Y-66205273D01*
X113973235Y-66229072D01*
X113964970Y-66252171D01*
X113954480Y-66274350D01*
X113941868Y-66295393D01*
X113927253Y-66315099D01*
X113910777Y-66333277D01*
X113892599Y-66349753D01*
X113872893Y-66364368D01*
X113851850Y-66376980D01*
X113829671Y-66387470D01*
X113806572Y-66395735D01*
X113782773Y-66401696D01*
X113758505Y-66405296D01*
X113734001Y-66406500D01*
X112833999Y-66406500D01*
X112809495Y-66405296D01*
X112785227Y-66401696D01*
X112761428Y-66395735D01*
X112738329Y-66387470D01*
X112716150Y-66376980D01*
X112695107Y-66364368D01*
X112675401Y-66349753D01*
X112657223Y-66333277D01*
X112640747Y-66315099D01*
X112626132Y-66295393D01*
X112613520Y-66274350D01*
X112603030Y-66252171D01*
X112594765Y-66229072D01*
X112588804Y-66205273D01*
X112585204Y-66181005D01*
X112584000Y-66156501D01*
X112584000Y-65506499D01*
X112585204Y-65481995D01*
X112588804Y-65457727D01*
X112594765Y-65433928D01*
X112603030Y-65410829D01*
X112613520Y-65388650D01*
X112626132Y-65367607D01*
X112640747Y-65347901D01*
X112657223Y-65329723D01*
X112675401Y-65313247D01*
X112695107Y-65298632D01*
X112716150Y-65286020D01*
X112738329Y-65275530D01*
X112761428Y-65267265D01*
X112785227Y-65261304D01*
X112809495Y-65257704D01*
X112833999Y-65256500D01*
X113734001Y-65256500D01*
X113758505Y-65257704D01*
G37*
G36*
X113758505Y-63207704D02*
G01*
X113782773Y-63211304D01*
X113806572Y-63217265D01*
X113829671Y-63225530D01*
X113851850Y-63236020D01*
X113872893Y-63248632D01*
X113892599Y-63263247D01*
X113910777Y-63279723D01*
X113927253Y-63297901D01*
X113941868Y-63317607D01*
X113954480Y-63338650D01*
X113964970Y-63360829D01*
X113973235Y-63383928D01*
X113979196Y-63407727D01*
X113982796Y-63431995D01*
X113984000Y-63456499D01*
X113984000Y-64106501D01*
X113982796Y-64131005D01*
X113979196Y-64155273D01*
X113973235Y-64179072D01*
X113964970Y-64202171D01*
X113954480Y-64224350D01*
X113941868Y-64245393D01*
X113927253Y-64265099D01*
X113910777Y-64283277D01*
X113892599Y-64299753D01*
X113872893Y-64314368D01*
X113851850Y-64326980D01*
X113829671Y-64337470D01*
X113806572Y-64345735D01*
X113782773Y-64351696D01*
X113758505Y-64355296D01*
X113734001Y-64356500D01*
X112833999Y-64356500D01*
X112809495Y-64355296D01*
X112785227Y-64351696D01*
X112761428Y-64345735D01*
X112738329Y-64337470D01*
X112716150Y-64326980D01*
X112695107Y-64314368D01*
X112675401Y-64299753D01*
X112657223Y-64283277D01*
X112640747Y-64265099D01*
X112626132Y-64245393D01*
X112613520Y-64224350D01*
X112603030Y-64202171D01*
X112594765Y-64179072D01*
X112588804Y-64155273D01*
X112585204Y-64131005D01*
X112584000Y-64106501D01*
X112584000Y-63456499D01*
X112585204Y-63431995D01*
X112588804Y-63407727D01*
X112594765Y-63383928D01*
X112603030Y-63360829D01*
X112613520Y-63338650D01*
X112626132Y-63317607D01*
X112640747Y-63297901D01*
X112657223Y-63279723D01*
X112675401Y-63263247D01*
X112695107Y-63248632D01*
X112716150Y-63236020D01*
X112738329Y-63225530D01*
X112761428Y-63217265D01*
X112785227Y-63211304D01*
X112809495Y-63207704D01*
X112833999Y-63206500D01*
X113734001Y-63206500D01*
X113758505Y-63207704D01*
G37*
G36*
X119600505Y-65257704D02*
G01*
X119624773Y-65261304D01*
X119648572Y-65267265D01*
X119671671Y-65275530D01*
X119693850Y-65286020D01*
X119714893Y-65298632D01*
X119734599Y-65313247D01*
X119752777Y-65329723D01*
X119769253Y-65347901D01*
X119783868Y-65367607D01*
X119796480Y-65388650D01*
X119806970Y-65410829D01*
X119815235Y-65433928D01*
X119821196Y-65457727D01*
X119824796Y-65481995D01*
X119826000Y-65506499D01*
X119826000Y-66156501D01*
X119824796Y-66181005D01*
X119821196Y-66205273D01*
X119815235Y-66229072D01*
X119806970Y-66252171D01*
X119796480Y-66274350D01*
X119783868Y-66295393D01*
X119769253Y-66315099D01*
X119752777Y-66333277D01*
X119734599Y-66349753D01*
X119714893Y-66364368D01*
X119693850Y-66376980D01*
X119671671Y-66387470D01*
X119648572Y-66395735D01*
X119624773Y-66401696D01*
X119600505Y-66405296D01*
X119576001Y-66406500D01*
X118675999Y-66406500D01*
X118651495Y-66405296D01*
X118627227Y-66401696D01*
X118603428Y-66395735D01*
X118580329Y-66387470D01*
X118558150Y-66376980D01*
X118537107Y-66364368D01*
X118517401Y-66349753D01*
X118499223Y-66333277D01*
X118482747Y-66315099D01*
X118468132Y-66295393D01*
X118455520Y-66274350D01*
X118445030Y-66252171D01*
X118436765Y-66229072D01*
X118430804Y-66205273D01*
X118427204Y-66181005D01*
X118426000Y-66156501D01*
X118426000Y-65506499D01*
X118427204Y-65481995D01*
X118430804Y-65457727D01*
X118436765Y-65433928D01*
X118445030Y-65410829D01*
X118455520Y-65388650D01*
X118468132Y-65367607D01*
X118482747Y-65347901D01*
X118499223Y-65329723D01*
X118517401Y-65313247D01*
X118537107Y-65298632D01*
X118558150Y-65286020D01*
X118580329Y-65275530D01*
X118603428Y-65267265D01*
X118627227Y-65261304D01*
X118651495Y-65257704D01*
X118675999Y-65256500D01*
X119576001Y-65256500D01*
X119600505Y-65257704D01*
G37*
G36*
X119600505Y-63207704D02*
G01*
X119624773Y-63211304D01*
X119648572Y-63217265D01*
X119671671Y-63225530D01*
X119693850Y-63236020D01*
X119714893Y-63248632D01*
X119734599Y-63263247D01*
X119752777Y-63279723D01*
X119769253Y-63297901D01*
X119783868Y-63317607D01*
X119796480Y-63338650D01*
X119806970Y-63360829D01*
X119815235Y-63383928D01*
X119821196Y-63407727D01*
X119824796Y-63431995D01*
X119826000Y-63456499D01*
X119826000Y-64106501D01*
X119824796Y-64131005D01*
X119821196Y-64155273D01*
X119815235Y-64179072D01*
X119806970Y-64202171D01*
X119796480Y-64224350D01*
X119783868Y-64245393D01*
X119769253Y-64265099D01*
X119752777Y-64283277D01*
X119734599Y-64299753D01*
X119714893Y-64314368D01*
X119693850Y-64326980D01*
X119671671Y-64337470D01*
X119648572Y-64345735D01*
X119624773Y-64351696D01*
X119600505Y-64355296D01*
X119576001Y-64356500D01*
X118675999Y-64356500D01*
X118651495Y-64355296D01*
X118627227Y-64351696D01*
X118603428Y-64345735D01*
X118580329Y-64337470D01*
X118558150Y-64326980D01*
X118537107Y-64314368D01*
X118517401Y-64299753D01*
X118499223Y-64283277D01*
X118482747Y-64265099D01*
X118468132Y-64245393D01*
X118455520Y-64224350D01*
X118445030Y-64202171D01*
X118436765Y-64179072D01*
X118430804Y-64155273D01*
X118427204Y-64131005D01*
X118426000Y-64106501D01*
X118426000Y-63456499D01*
X118427204Y-63431995D01*
X118430804Y-63407727D01*
X118436765Y-63383928D01*
X118445030Y-63360829D01*
X118455520Y-63338650D01*
X118468132Y-63317607D01*
X118482747Y-63297901D01*
X118499223Y-63279723D01*
X118517401Y-63263247D01*
X118537107Y-63248632D01*
X118558150Y-63236020D01*
X118580329Y-63225530D01*
X118603428Y-63217265D01*
X118627227Y-63211304D01*
X118651495Y-63207704D01*
X118675999Y-63206500D01*
X119576001Y-63206500D01*
X119600505Y-63207704D01*
G37*
G36*
X123410505Y-65257704D02*
G01*
X123434773Y-65261304D01*
X123458572Y-65267265D01*
X123481671Y-65275530D01*
X123503850Y-65286020D01*
X123524893Y-65298632D01*
X123544599Y-65313247D01*
X123562777Y-65329723D01*
X123579253Y-65347901D01*
X123593868Y-65367607D01*
X123606480Y-65388650D01*
X123616970Y-65410829D01*
X123625235Y-65433928D01*
X123631196Y-65457727D01*
X123634796Y-65481995D01*
X123636000Y-65506499D01*
X123636000Y-66156501D01*
X123634796Y-66181005D01*
X123631196Y-66205273D01*
X123625235Y-66229072D01*
X123616970Y-66252171D01*
X123606480Y-66274350D01*
X123593868Y-66295393D01*
X123579253Y-66315099D01*
X123562777Y-66333277D01*
X123544599Y-66349753D01*
X123524893Y-66364368D01*
X123503850Y-66376980D01*
X123481671Y-66387470D01*
X123458572Y-66395735D01*
X123434773Y-66401696D01*
X123410505Y-66405296D01*
X123386001Y-66406500D01*
X122485999Y-66406500D01*
X122461495Y-66405296D01*
X122437227Y-66401696D01*
X122413428Y-66395735D01*
X122390329Y-66387470D01*
X122368150Y-66376980D01*
X122347107Y-66364368D01*
X122327401Y-66349753D01*
X122309223Y-66333277D01*
X122292747Y-66315099D01*
X122278132Y-66295393D01*
X122265520Y-66274350D01*
X122255030Y-66252171D01*
X122246765Y-66229072D01*
X122240804Y-66205273D01*
X122237204Y-66181005D01*
X122236000Y-66156501D01*
X122236000Y-65506499D01*
X122237204Y-65481995D01*
X122240804Y-65457727D01*
X122246765Y-65433928D01*
X122255030Y-65410829D01*
X122265520Y-65388650D01*
X122278132Y-65367607D01*
X122292747Y-65347901D01*
X122309223Y-65329723D01*
X122327401Y-65313247D01*
X122347107Y-65298632D01*
X122368150Y-65286020D01*
X122390329Y-65275530D01*
X122413428Y-65267265D01*
X122437227Y-65261304D01*
X122461495Y-65257704D01*
X122485999Y-65256500D01*
X123386001Y-65256500D01*
X123410505Y-65257704D01*
G37*
G36*
X123410505Y-63207704D02*
G01*
X123434773Y-63211304D01*
X123458572Y-63217265D01*
X123481671Y-63225530D01*
X123503850Y-63236020D01*
X123524893Y-63248632D01*
X123544599Y-63263247D01*
X123562777Y-63279723D01*
X123579253Y-63297901D01*
X123593868Y-63317607D01*
X123606480Y-63338650D01*
X123616970Y-63360829D01*
X123625235Y-63383928D01*
X123631196Y-63407727D01*
X123634796Y-63431995D01*
X123636000Y-63456499D01*
X123636000Y-64106501D01*
X123634796Y-64131005D01*
X123631196Y-64155273D01*
X123625235Y-64179072D01*
X123616970Y-64202171D01*
X123606480Y-64224350D01*
X123593868Y-64245393D01*
X123579253Y-64265099D01*
X123562777Y-64283277D01*
X123544599Y-64299753D01*
X123524893Y-64314368D01*
X123503850Y-64326980D01*
X123481671Y-64337470D01*
X123458572Y-64345735D01*
X123434773Y-64351696D01*
X123410505Y-64355296D01*
X123386001Y-64356500D01*
X122485999Y-64356500D01*
X122461495Y-64355296D01*
X122437227Y-64351696D01*
X122413428Y-64345735D01*
X122390329Y-64337470D01*
X122368150Y-64326980D01*
X122347107Y-64314368D01*
X122327401Y-64299753D01*
X122309223Y-64283277D01*
X122292747Y-64265099D01*
X122278132Y-64245393D01*
X122265520Y-64224350D01*
X122255030Y-64202171D01*
X122246765Y-64179072D01*
X122240804Y-64155273D01*
X122237204Y-64131005D01*
X122236000Y-64106501D01*
X122236000Y-63456499D01*
X122237204Y-63431995D01*
X122240804Y-63407727D01*
X122246765Y-63383928D01*
X122255030Y-63360829D01*
X122265520Y-63338650D01*
X122278132Y-63317607D01*
X122292747Y-63297901D01*
X122309223Y-63279723D01*
X122327401Y-63263247D01*
X122347107Y-63248632D01*
X122368150Y-63236020D01*
X122390329Y-63225530D01*
X122413428Y-63217265D01*
X122437227Y-63211304D01*
X122461495Y-63207704D01*
X122485999Y-63206500D01*
X123386001Y-63206500D01*
X123410505Y-63207704D01*
G37*
G36*
X144746505Y-85323704D02*
G01*
X144770773Y-85327304D01*
X144794572Y-85333265D01*
X144817671Y-85341530D01*
X144839850Y-85352020D01*
X144860893Y-85364632D01*
X144880599Y-85379247D01*
X144898777Y-85395723D01*
X144915253Y-85413901D01*
X144929868Y-85433607D01*
X144942480Y-85454650D01*
X144952970Y-85476829D01*
X144961235Y-85499928D01*
X144967196Y-85523727D01*
X144970796Y-85547995D01*
X144972000Y-85572499D01*
X144972000Y-86222501D01*
X144970796Y-86247005D01*
X144967196Y-86271273D01*
X144961235Y-86295072D01*
X144952970Y-86318171D01*
X144942480Y-86340350D01*
X144929868Y-86361393D01*
X144915253Y-86381099D01*
X144898777Y-86399277D01*
X144880599Y-86415753D01*
X144860893Y-86430368D01*
X144839850Y-86442980D01*
X144817671Y-86453470D01*
X144794572Y-86461735D01*
X144770773Y-86467696D01*
X144746505Y-86471296D01*
X144722001Y-86472500D01*
X143821999Y-86472500D01*
X143797495Y-86471296D01*
X143773227Y-86467696D01*
X143749428Y-86461735D01*
X143726329Y-86453470D01*
X143704150Y-86442980D01*
X143683107Y-86430368D01*
X143663401Y-86415753D01*
X143645223Y-86399277D01*
X143628747Y-86381099D01*
X143614132Y-86361393D01*
X143601520Y-86340350D01*
X143591030Y-86318171D01*
X143582765Y-86295072D01*
X143576804Y-86271273D01*
X143573204Y-86247005D01*
X143572000Y-86222501D01*
X143572000Y-85572499D01*
X143573204Y-85547995D01*
X143576804Y-85523727D01*
X143582765Y-85499928D01*
X143591030Y-85476829D01*
X143601520Y-85454650D01*
X143614132Y-85433607D01*
X143628747Y-85413901D01*
X143645223Y-85395723D01*
X143663401Y-85379247D01*
X143683107Y-85364632D01*
X143704150Y-85352020D01*
X143726329Y-85341530D01*
X143749428Y-85333265D01*
X143773227Y-85327304D01*
X143797495Y-85323704D01*
X143821999Y-85322500D01*
X144722001Y-85322500D01*
X144746505Y-85323704D01*
G37*
G36*
X144746505Y-83273704D02*
G01*
X144770773Y-83277304D01*
X144794572Y-83283265D01*
X144817671Y-83291530D01*
X144839850Y-83302020D01*
X144860893Y-83314632D01*
X144880599Y-83329247D01*
X144898777Y-83345723D01*
X144915253Y-83363901D01*
X144929868Y-83383607D01*
X144942480Y-83404650D01*
X144952970Y-83426829D01*
X144961235Y-83449928D01*
X144967196Y-83473727D01*
X144970796Y-83497995D01*
X144972000Y-83522499D01*
X144972000Y-84172501D01*
X144970796Y-84197005D01*
X144967196Y-84221273D01*
X144961235Y-84245072D01*
X144952970Y-84268171D01*
X144942480Y-84290350D01*
X144929868Y-84311393D01*
X144915253Y-84331099D01*
X144898777Y-84349277D01*
X144880599Y-84365753D01*
X144860893Y-84380368D01*
X144839850Y-84392980D01*
X144817671Y-84403470D01*
X144794572Y-84411735D01*
X144770773Y-84417696D01*
X144746505Y-84421296D01*
X144722001Y-84422500D01*
X143821999Y-84422500D01*
X143797495Y-84421296D01*
X143773227Y-84417696D01*
X143749428Y-84411735D01*
X143726329Y-84403470D01*
X143704150Y-84392980D01*
X143683107Y-84380368D01*
X143663401Y-84365753D01*
X143645223Y-84349277D01*
X143628747Y-84331099D01*
X143614132Y-84311393D01*
X143601520Y-84290350D01*
X143591030Y-84268171D01*
X143582765Y-84245072D01*
X143576804Y-84221273D01*
X143573204Y-84197005D01*
X143572000Y-84172501D01*
X143572000Y-83522499D01*
X143573204Y-83497995D01*
X143576804Y-83473727D01*
X143582765Y-83449928D01*
X143591030Y-83426829D01*
X143601520Y-83404650D01*
X143614132Y-83383607D01*
X143628747Y-83363901D01*
X143645223Y-83345723D01*
X143663401Y-83329247D01*
X143683107Y-83314632D01*
X143704150Y-83302020D01*
X143726329Y-83291530D01*
X143749428Y-83283265D01*
X143773227Y-83277304D01*
X143797495Y-83273704D01*
X143821999Y-83272500D01*
X144722001Y-83272500D01*
X144746505Y-83273704D01*
G37*
G36*
X148556505Y-85323704D02*
G01*
X148580773Y-85327304D01*
X148604572Y-85333265D01*
X148627671Y-85341530D01*
X148649850Y-85352020D01*
X148670893Y-85364632D01*
X148690599Y-85379247D01*
X148708777Y-85395723D01*
X148725253Y-85413901D01*
X148739868Y-85433607D01*
X148752480Y-85454650D01*
X148762970Y-85476829D01*
X148771235Y-85499928D01*
X148777196Y-85523727D01*
X148780796Y-85547995D01*
X148782000Y-85572499D01*
X148782000Y-86222501D01*
X148780796Y-86247005D01*
X148777196Y-86271273D01*
X148771235Y-86295072D01*
X148762970Y-86318171D01*
X148752480Y-86340350D01*
X148739868Y-86361393D01*
X148725253Y-86381099D01*
X148708777Y-86399277D01*
X148690599Y-86415753D01*
X148670893Y-86430368D01*
X148649850Y-86442980D01*
X148627671Y-86453470D01*
X148604572Y-86461735D01*
X148580773Y-86467696D01*
X148556505Y-86471296D01*
X148532001Y-86472500D01*
X147631999Y-86472500D01*
X147607495Y-86471296D01*
X147583227Y-86467696D01*
X147559428Y-86461735D01*
X147536329Y-86453470D01*
X147514150Y-86442980D01*
X147493107Y-86430368D01*
X147473401Y-86415753D01*
X147455223Y-86399277D01*
X147438747Y-86381099D01*
X147424132Y-86361393D01*
X147411520Y-86340350D01*
X147401030Y-86318171D01*
X147392765Y-86295072D01*
X147386804Y-86271273D01*
X147383204Y-86247005D01*
X147382000Y-86222501D01*
X147382000Y-85572499D01*
X147383204Y-85547995D01*
X147386804Y-85523727D01*
X147392765Y-85499928D01*
X147401030Y-85476829D01*
X147411520Y-85454650D01*
X147424132Y-85433607D01*
X147438747Y-85413901D01*
X147455223Y-85395723D01*
X147473401Y-85379247D01*
X147493107Y-85364632D01*
X147514150Y-85352020D01*
X147536329Y-85341530D01*
X147559428Y-85333265D01*
X147583227Y-85327304D01*
X147607495Y-85323704D01*
X147631999Y-85322500D01*
X148532001Y-85322500D01*
X148556505Y-85323704D01*
G37*
G36*
X148556505Y-83273704D02*
G01*
X148580773Y-83277304D01*
X148604572Y-83283265D01*
X148627671Y-83291530D01*
X148649850Y-83302020D01*
X148670893Y-83314632D01*
X148690599Y-83329247D01*
X148708777Y-83345723D01*
X148725253Y-83363901D01*
X148739868Y-83383607D01*
X148752480Y-83404650D01*
X148762970Y-83426829D01*
X148771235Y-83449928D01*
X148777196Y-83473727D01*
X148780796Y-83497995D01*
X148782000Y-83522499D01*
X148782000Y-84172501D01*
X148780796Y-84197005D01*
X148777196Y-84221273D01*
X148771235Y-84245072D01*
X148762970Y-84268171D01*
X148752480Y-84290350D01*
X148739868Y-84311393D01*
X148725253Y-84331099D01*
X148708777Y-84349277D01*
X148690599Y-84365753D01*
X148670893Y-84380368D01*
X148649850Y-84392980D01*
X148627671Y-84403470D01*
X148604572Y-84411735D01*
X148580773Y-84417696D01*
X148556505Y-84421296D01*
X148532001Y-84422500D01*
X147631999Y-84422500D01*
X147607495Y-84421296D01*
X147583227Y-84417696D01*
X147559428Y-84411735D01*
X147536329Y-84403470D01*
X147514150Y-84392980D01*
X147493107Y-84380368D01*
X147473401Y-84365753D01*
X147455223Y-84349277D01*
X147438747Y-84331099D01*
X147424132Y-84311393D01*
X147411520Y-84290350D01*
X147401030Y-84268171D01*
X147392765Y-84245072D01*
X147386804Y-84221273D01*
X147383204Y-84197005D01*
X147382000Y-84172501D01*
X147382000Y-83522499D01*
X147383204Y-83497995D01*
X147386804Y-83473727D01*
X147392765Y-83449928D01*
X147401030Y-83426829D01*
X147411520Y-83404650D01*
X147424132Y-83383607D01*
X147438747Y-83363901D01*
X147455223Y-83345723D01*
X147473401Y-83329247D01*
X147493107Y-83314632D01*
X147514150Y-83302020D01*
X147536329Y-83291530D01*
X147559428Y-83283265D01*
X147583227Y-83277304D01*
X147607495Y-83273704D01*
X147631999Y-83272500D01*
X148532001Y-83272500D01*
X148556505Y-83273704D01*
G37*
G36*
X199229505Y-76923704D02*
G01*
X199253773Y-76927304D01*
X199277572Y-76933265D01*
X199300671Y-76941530D01*
X199322850Y-76952020D01*
X199343893Y-76964632D01*
X199363599Y-76979247D01*
X199381777Y-76995723D01*
X199398253Y-77013901D01*
X199412868Y-77033607D01*
X199425480Y-77054650D01*
X199435970Y-77076829D01*
X199444235Y-77099928D01*
X199450196Y-77123727D01*
X199453796Y-77147995D01*
X199455000Y-77172499D01*
X199455000Y-77822501D01*
X199453796Y-77847005D01*
X199450196Y-77871273D01*
X199444235Y-77895072D01*
X199435970Y-77918171D01*
X199425480Y-77940350D01*
X199412868Y-77961393D01*
X199398253Y-77981099D01*
X199381777Y-77999277D01*
X199363599Y-78015753D01*
X199343893Y-78030368D01*
X199322850Y-78042980D01*
X199300671Y-78053470D01*
X199277572Y-78061735D01*
X199253773Y-78067696D01*
X199229505Y-78071296D01*
X199205001Y-78072500D01*
X198304999Y-78072500D01*
X198280495Y-78071296D01*
X198256227Y-78067696D01*
X198232428Y-78061735D01*
X198209329Y-78053470D01*
X198187150Y-78042980D01*
X198166107Y-78030368D01*
X198146401Y-78015753D01*
X198128223Y-77999277D01*
X198111747Y-77981099D01*
X198097132Y-77961393D01*
X198084520Y-77940350D01*
X198074030Y-77918171D01*
X198065765Y-77895072D01*
X198059804Y-77871273D01*
X198056204Y-77847005D01*
X198055000Y-77822501D01*
X198055000Y-77172499D01*
X198056204Y-77147995D01*
X198059804Y-77123727D01*
X198065765Y-77099928D01*
X198074030Y-77076829D01*
X198084520Y-77054650D01*
X198097132Y-77033607D01*
X198111747Y-77013901D01*
X198128223Y-76995723D01*
X198146401Y-76979247D01*
X198166107Y-76964632D01*
X198187150Y-76952020D01*
X198209329Y-76941530D01*
X198232428Y-76933265D01*
X198256227Y-76927304D01*
X198280495Y-76923704D01*
X198304999Y-76922500D01*
X199205001Y-76922500D01*
X199229505Y-76923704D01*
G37*
G36*
X199229505Y-78973704D02*
G01*
X199253773Y-78977304D01*
X199277572Y-78983265D01*
X199300671Y-78991530D01*
X199322850Y-79002020D01*
X199343893Y-79014632D01*
X199363599Y-79029247D01*
X199381777Y-79045723D01*
X199398253Y-79063901D01*
X199412868Y-79083607D01*
X199425480Y-79104650D01*
X199435970Y-79126829D01*
X199444235Y-79149928D01*
X199450196Y-79173727D01*
X199453796Y-79197995D01*
X199455000Y-79222499D01*
X199455000Y-79872501D01*
X199453796Y-79897005D01*
X199450196Y-79921273D01*
X199444235Y-79945072D01*
X199435970Y-79968171D01*
X199425480Y-79990350D01*
X199412868Y-80011393D01*
X199398253Y-80031099D01*
X199381777Y-80049277D01*
X199363599Y-80065753D01*
X199343893Y-80080368D01*
X199322850Y-80092980D01*
X199300671Y-80103470D01*
X199277572Y-80111735D01*
X199253773Y-80117696D01*
X199229505Y-80121296D01*
X199205001Y-80122500D01*
X198304999Y-80122500D01*
X198280495Y-80121296D01*
X198256227Y-80117696D01*
X198232428Y-80111735D01*
X198209329Y-80103470D01*
X198187150Y-80092980D01*
X198166107Y-80080368D01*
X198146401Y-80065753D01*
X198128223Y-80049277D01*
X198111747Y-80031099D01*
X198097132Y-80011393D01*
X198084520Y-79990350D01*
X198074030Y-79968171D01*
X198065765Y-79945072D01*
X198059804Y-79921273D01*
X198056204Y-79897005D01*
X198055000Y-79872501D01*
X198055000Y-79222499D01*
X198056204Y-79197995D01*
X198059804Y-79173727D01*
X198065765Y-79149928D01*
X198074030Y-79126829D01*
X198084520Y-79104650D01*
X198097132Y-79083607D01*
X198111747Y-79063901D01*
X198128223Y-79045723D01*
X198146401Y-79029247D01*
X198166107Y-79014632D01*
X198187150Y-79002020D01*
X198209329Y-78991530D01*
X198232428Y-78983265D01*
X198256227Y-78977304D01*
X198280495Y-78973704D01*
X198304999Y-78972500D01*
X199205001Y-78972500D01*
X199229505Y-78973704D01*
G37*
G36*
X199229505Y-84688704D02*
G01*
X199253773Y-84692304D01*
X199277572Y-84698265D01*
X199300671Y-84706530D01*
X199322850Y-84717020D01*
X199343893Y-84729632D01*
X199363599Y-84744247D01*
X199381777Y-84760723D01*
X199398253Y-84778901D01*
X199412868Y-84798607D01*
X199425480Y-84819650D01*
X199435970Y-84841829D01*
X199444235Y-84864928D01*
X199450196Y-84888727D01*
X199453796Y-84912995D01*
X199455000Y-84937499D01*
X199455000Y-85587501D01*
X199453796Y-85612005D01*
X199450196Y-85636273D01*
X199444235Y-85660072D01*
X199435970Y-85683171D01*
X199425480Y-85705350D01*
X199412868Y-85726393D01*
X199398253Y-85746099D01*
X199381777Y-85764277D01*
X199363599Y-85780753D01*
X199343893Y-85795368D01*
X199322850Y-85807980D01*
X199300671Y-85818470D01*
X199277572Y-85826735D01*
X199253773Y-85832696D01*
X199229505Y-85836296D01*
X199205001Y-85837500D01*
X198304999Y-85837500D01*
X198280495Y-85836296D01*
X198256227Y-85832696D01*
X198232428Y-85826735D01*
X198209329Y-85818470D01*
X198187150Y-85807980D01*
X198166107Y-85795368D01*
X198146401Y-85780753D01*
X198128223Y-85764277D01*
X198111747Y-85746099D01*
X198097132Y-85726393D01*
X198084520Y-85705350D01*
X198074030Y-85683171D01*
X198065765Y-85660072D01*
X198059804Y-85636273D01*
X198056204Y-85612005D01*
X198055000Y-85587501D01*
X198055000Y-84937499D01*
X198056204Y-84912995D01*
X198059804Y-84888727D01*
X198065765Y-84864928D01*
X198074030Y-84841829D01*
X198084520Y-84819650D01*
X198097132Y-84798607D01*
X198111747Y-84778901D01*
X198128223Y-84760723D01*
X198146401Y-84744247D01*
X198166107Y-84729632D01*
X198187150Y-84717020D01*
X198209329Y-84706530D01*
X198232428Y-84698265D01*
X198256227Y-84692304D01*
X198280495Y-84688704D01*
X198304999Y-84687500D01*
X199205001Y-84687500D01*
X199229505Y-84688704D01*
G37*
G36*
X199229505Y-82638704D02*
G01*
X199253773Y-82642304D01*
X199277572Y-82648265D01*
X199300671Y-82656530D01*
X199322850Y-82667020D01*
X199343893Y-82679632D01*
X199363599Y-82694247D01*
X199381777Y-82710723D01*
X199398253Y-82728901D01*
X199412868Y-82748607D01*
X199425480Y-82769650D01*
X199435970Y-82791829D01*
X199444235Y-82814928D01*
X199450196Y-82838727D01*
X199453796Y-82862995D01*
X199455000Y-82887499D01*
X199455000Y-83537501D01*
X199453796Y-83562005D01*
X199450196Y-83586273D01*
X199444235Y-83610072D01*
X199435970Y-83633171D01*
X199425480Y-83655350D01*
X199412868Y-83676393D01*
X199398253Y-83696099D01*
X199381777Y-83714277D01*
X199363599Y-83730753D01*
X199343893Y-83745368D01*
X199322850Y-83757980D01*
X199300671Y-83768470D01*
X199277572Y-83776735D01*
X199253773Y-83782696D01*
X199229505Y-83786296D01*
X199205001Y-83787500D01*
X198304999Y-83787500D01*
X198280495Y-83786296D01*
X198256227Y-83782696D01*
X198232428Y-83776735D01*
X198209329Y-83768470D01*
X198187150Y-83757980D01*
X198166107Y-83745368D01*
X198146401Y-83730753D01*
X198128223Y-83714277D01*
X198111747Y-83696099D01*
X198097132Y-83676393D01*
X198084520Y-83655350D01*
X198074030Y-83633171D01*
X198065765Y-83610072D01*
X198059804Y-83586273D01*
X198056204Y-83562005D01*
X198055000Y-83537501D01*
X198055000Y-82887499D01*
X198056204Y-82862995D01*
X198059804Y-82838727D01*
X198065765Y-82814928D01*
X198074030Y-82791829D01*
X198084520Y-82769650D01*
X198097132Y-82748607D01*
X198111747Y-82728901D01*
X198128223Y-82710723D01*
X198146401Y-82694247D01*
X198166107Y-82679632D01*
X198187150Y-82667020D01*
X198209329Y-82656530D01*
X198232428Y-82648265D01*
X198256227Y-82642304D01*
X198280495Y-82638704D01*
X198304999Y-82637500D01*
X199205001Y-82637500D01*
X199229505Y-82638704D01*
G37*
G36*
X136491505Y-85250704D02*
G01*
X136515773Y-85254304D01*
X136539572Y-85260265D01*
X136562671Y-85268530D01*
X136584850Y-85279020D01*
X136605893Y-85291632D01*
X136625599Y-85306247D01*
X136643777Y-85322723D01*
X136660253Y-85340901D01*
X136674868Y-85360607D01*
X136687480Y-85381650D01*
X136697970Y-85403829D01*
X136706235Y-85426928D01*
X136712196Y-85450727D01*
X136715796Y-85474995D01*
X136717000Y-85499499D01*
X136717000Y-86149501D01*
X136715796Y-86174005D01*
X136712196Y-86198273D01*
X136706235Y-86222072D01*
X136697970Y-86245171D01*
X136687480Y-86267350D01*
X136674868Y-86288393D01*
X136660253Y-86308099D01*
X136643777Y-86326277D01*
X136625599Y-86342753D01*
X136605893Y-86357368D01*
X136584850Y-86369980D01*
X136562671Y-86380470D01*
X136539572Y-86388735D01*
X136515773Y-86394696D01*
X136491505Y-86398296D01*
X136467001Y-86399500D01*
X135566999Y-86399500D01*
X135542495Y-86398296D01*
X135518227Y-86394696D01*
X135494428Y-86388735D01*
X135471329Y-86380470D01*
X135449150Y-86369980D01*
X135428107Y-86357368D01*
X135408401Y-86342753D01*
X135390223Y-86326277D01*
X135373747Y-86308099D01*
X135359132Y-86288393D01*
X135346520Y-86267350D01*
X135336030Y-86245171D01*
X135327765Y-86222072D01*
X135321804Y-86198273D01*
X135318204Y-86174005D01*
X135317000Y-86149501D01*
X135317000Y-85499499D01*
X135318204Y-85474995D01*
X135321804Y-85450727D01*
X135327765Y-85426928D01*
X135336030Y-85403829D01*
X135346520Y-85381650D01*
X135359132Y-85360607D01*
X135373747Y-85340901D01*
X135390223Y-85322723D01*
X135408401Y-85306247D01*
X135428107Y-85291632D01*
X135449150Y-85279020D01*
X135471329Y-85268530D01*
X135494428Y-85260265D01*
X135518227Y-85254304D01*
X135542495Y-85250704D01*
X135566999Y-85249500D01*
X136467001Y-85249500D01*
X136491505Y-85250704D01*
G37*
G36*
X136491505Y-83200704D02*
G01*
X136515773Y-83204304D01*
X136539572Y-83210265D01*
X136562671Y-83218530D01*
X136584850Y-83229020D01*
X136605893Y-83241632D01*
X136625599Y-83256247D01*
X136643777Y-83272723D01*
X136660253Y-83290901D01*
X136674868Y-83310607D01*
X136687480Y-83331650D01*
X136697970Y-83353829D01*
X136706235Y-83376928D01*
X136712196Y-83400727D01*
X136715796Y-83424995D01*
X136717000Y-83449499D01*
X136717000Y-84099501D01*
X136715796Y-84124005D01*
X136712196Y-84148273D01*
X136706235Y-84172072D01*
X136697970Y-84195171D01*
X136687480Y-84217350D01*
X136674868Y-84238393D01*
X136660253Y-84258099D01*
X136643777Y-84276277D01*
X136625599Y-84292753D01*
X136605893Y-84307368D01*
X136584850Y-84319980D01*
X136562671Y-84330470D01*
X136539572Y-84338735D01*
X136515773Y-84344696D01*
X136491505Y-84348296D01*
X136467001Y-84349500D01*
X135566999Y-84349500D01*
X135542495Y-84348296D01*
X135518227Y-84344696D01*
X135494428Y-84338735D01*
X135471329Y-84330470D01*
X135449150Y-84319980D01*
X135428107Y-84307368D01*
X135408401Y-84292753D01*
X135390223Y-84276277D01*
X135373747Y-84258099D01*
X135359132Y-84238393D01*
X135346520Y-84217350D01*
X135336030Y-84195171D01*
X135327765Y-84172072D01*
X135321804Y-84148273D01*
X135318204Y-84124005D01*
X135317000Y-84099501D01*
X135317000Y-83449499D01*
X135318204Y-83424995D01*
X135321804Y-83400727D01*
X135327765Y-83376928D01*
X135336030Y-83353829D01*
X135346520Y-83331650D01*
X135359132Y-83310607D01*
X135373747Y-83290901D01*
X135390223Y-83272723D01*
X135408401Y-83256247D01*
X135428107Y-83241632D01*
X135449150Y-83229020D01*
X135471329Y-83218530D01*
X135494428Y-83210265D01*
X135518227Y-83204304D01*
X135542495Y-83200704D01*
X135566999Y-83199500D01*
X136467001Y-83199500D01*
X136491505Y-83200704D01*
G37*
G36*
X132554505Y-95138704D02*
G01*
X132578773Y-95142304D01*
X132602572Y-95148265D01*
X132625671Y-95156530D01*
X132647850Y-95167020D01*
X132668893Y-95179632D01*
X132688599Y-95194247D01*
X132706777Y-95210723D01*
X132723253Y-95228901D01*
X132737868Y-95248607D01*
X132750480Y-95269650D01*
X132760970Y-95291829D01*
X132769235Y-95314928D01*
X132775196Y-95338727D01*
X132778796Y-95362995D01*
X132780000Y-95387499D01*
X132780000Y-96037501D01*
X132778796Y-96062005D01*
X132775196Y-96086273D01*
X132769235Y-96110072D01*
X132760970Y-96133171D01*
X132750480Y-96155350D01*
X132737868Y-96176393D01*
X132723253Y-96196099D01*
X132706777Y-96214277D01*
X132688599Y-96230753D01*
X132668893Y-96245368D01*
X132647850Y-96257980D01*
X132625671Y-96268470D01*
X132602572Y-96276735D01*
X132578773Y-96282696D01*
X132554505Y-96286296D01*
X132530001Y-96287500D01*
X131629999Y-96287500D01*
X131605495Y-96286296D01*
X131581227Y-96282696D01*
X131557428Y-96276735D01*
X131534329Y-96268470D01*
X131512150Y-96257980D01*
X131491107Y-96245368D01*
X131471401Y-96230753D01*
X131453223Y-96214277D01*
X131436747Y-96196099D01*
X131422132Y-96176393D01*
X131409520Y-96155350D01*
X131399030Y-96133171D01*
X131390765Y-96110072D01*
X131384804Y-96086273D01*
X131381204Y-96062005D01*
X131380000Y-96037501D01*
X131380000Y-95387499D01*
X131381204Y-95362995D01*
X131384804Y-95338727D01*
X131390765Y-95314928D01*
X131399030Y-95291829D01*
X131409520Y-95269650D01*
X131422132Y-95248607D01*
X131436747Y-95228901D01*
X131453223Y-95210723D01*
X131471401Y-95194247D01*
X131491107Y-95179632D01*
X131512150Y-95167020D01*
X131534329Y-95156530D01*
X131557428Y-95148265D01*
X131581227Y-95142304D01*
X131605495Y-95138704D01*
X131629999Y-95137500D01*
X132530001Y-95137500D01*
X132554505Y-95138704D01*
G37*
G36*
X132554505Y-97188704D02*
G01*
X132578773Y-97192304D01*
X132602572Y-97198265D01*
X132625671Y-97206530D01*
X132647850Y-97217020D01*
X132668893Y-97229632D01*
X132688599Y-97244247D01*
X132706777Y-97260723D01*
X132723253Y-97278901D01*
X132737868Y-97298607D01*
X132750480Y-97319650D01*
X132760970Y-97341829D01*
X132769235Y-97364928D01*
X132775196Y-97388727D01*
X132778796Y-97412995D01*
X132780000Y-97437499D01*
X132780000Y-98087501D01*
X132778796Y-98112005D01*
X132775196Y-98136273D01*
X132769235Y-98160072D01*
X132760970Y-98183171D01*
X132750480Y-98205350D01*
X132737868Y-98226393D01*
X132723253Y-98246099D01*
X132706777Y-98264277D01*
X132688599Y-98280753D01*
X132668893Y-98295368D01*
X132647850Y-98307980D01*
X132625671Y-98318470D01*
X132602572Y-98326735D01*
X132578773Y-98332696D01*
X132554505Y-98336296D01*
X132530001Y-98337500D01*
X131629999Y-98337500D01*
X131605495Y-98336296D01*
X131581227Y-98332696D01*
X131557428Y-98326735D01*
X131534329Y-98318470D01*
X131512150Y-98307980D01*
X131491107Y-98295368D01*
X131471401Y-98280753D01*
X131453223Y-98264277D01*
X131436747Y-98246099D01*
X131422132Y-98226393D01*
X131409520Y-98205350D01*
X131399030Y-98183171D01*
X131390765Y-98160072D01*
X131384804Y-98136273D01*
X131381204Y-98112005D01*
X131380000Y-98087501D01*
X131380000Y-97437499D01*
X131381204Y-97412995D01*
X131384804Y-97388727D01*
X131390765Y-97364928D01*
X131399030Y-97341829D01*
X131409520Y-97319650D01*
X131422132Y-97298607D01*
X131436747Y-97278901D01*
X131453223Y-97260723D01*
X131471401Y-97244247D01*
X131491107Y-97229632D01*
X131512150Y-97217020D01*
X131534329Y-97206530D01*
X131557428Y-97198265D01*
X131581227Y-97192304D01*
X131605495Y-97188704D01*
X131629999Y-97187500D01*
X132530001Y-97187500D01*
X132554505Y-97188704D01*
G37*
D13*
X133116000Y-71882000D03*
X135616000Y-71882000D03*
D14*
X173990000Y-87240000D03*
X175260000Y-87240000D03*
X176530000Y-87240000D03*
X177800000Y-87240000D03*
X179070000Y-87240000D03*
X180340000Y-87240000D03*
X181610000Y-87240000D03*
X182880000Y-87240000D03*
X184150000Y-87240000D03*
X185420000Y-87240000D03*
X186690000Y-87240000D03*
X187960000Y-87240000D03*
X189230000Y-87240000D03*
X190500000Y-87240000D03*
D15*
X191500000Y-84455000D03*
X191500000Y-83185000D03*
X191500000Y-81915000D03*
X191500000Y-80645000D03*
X191500000Y-79375000D03*
X191500000Y-78105000D03*
X191500000Y-76835000D03*
X191500000Y-75565000D03*
X191500000Y-74295000D03*
X191500000Y-73025000D03*
D14*
X190500000Y-70240000D03*
X189230000Y-70240000D03*
X187960000Y-70240000D03*
X186690000Y-70240000D03*
X185420000Y-70240000D03*
X184150000Y-70240000D03*
X182880000Y-70240000D03*
X181610000Y-70240000D03*
X180340000Y-70240000D03*
X179070000Y-70240000D03*
X177800000Y-70240000D03*
X176530000Y-70240000D03*
X175260000Y-70240000D03*
X173990000Y-70240000D03*
D16*
X181490000Y-77740000D03*
D17*
X119253000Y-55118000D03*
X119253000Y-59118000D03*
X106680000Y-55118000D03*
X106680000Y-59118000D03*
X123317000Y-55118000D03*
X123317000Y-59118000D03*
D18*
X140462000Y-76962000D03*
X139512000Y-78962000D03*
X141412000Y-78962000D03*
X135382000Y-76962000D03*
X134432000Y-78962000D03*
X136332000Y-78962000D03*
D17*
X110490000Y-55118000D03*
X110490000Y-59118000D03*
D12*
G36*
X92914504Y-88251204D02*
G01*
X92938773Y-88254804D01*
X92962571Y-88260765D01*
X92985671Y-88269030D01*
X93007849Y-88279520D01*
X93028893Y-88292133D01*
X93048598Y-88306747D01*
X93066777Y-88323223D01*
X93083253Y-88341402D01*
X93097867Y-88361107D01*
X93110480Y-88382151D01*
X93120970Y-88404329D01*
X93129235Y-88427429D01*
X93135196Y-88451227D01*
X93138796Y-88475496D01*
X93140000Y-88500000D01*
X93140000Y-89300000D01*
X93138796Y-89324504D01*
X93135196Y-89348773D01*
X93129235Y-89372571D01*
X93120970Y-89395671D01*
X93110480Y-89417849D01*
X93097867Y-89438893D01*
X93083253Y-89458598D01*
X93066777Y-89476777D01*
X93048598Y-89493253D01*
X93028893Y-89507867D01*
X93007849Y-89520480D01*
X92985671Y-89530970D01*
X92962571Y-89539235D01*
X92938773Y-89545196D01*
X92914504Y-89548796D01*
X92890000Y-89550000D01*
X89990000Y-89550000D01*
X89965496Y-89548796D01*
X89941227Y-89545196D01*
X89917429Y-89539235D01*
X89894329Y-89530970D01*
X89872151Y-89520480D01*
X89851107Y-89507867D01*
X89831402Y-89493253D01*
X89813223Y-89476777D01*
X89796747Y-89458598D01*
X89782133Y-89438893D01*
X89769520Y-89417849D01*
X89759030Y-89395671D01*
X89750765Y-89372571D01*
X89744804Y-89348773D01*
X89741204Y-89324504D01*
X89740000Y-89300000D01*
X89740000Y-88500000D01*
X89741204Y-88475496D01*
X89744804Y-88451227D01*
X89750765Y-88427429D01*
X89759030Y-88404329D01*
X89769520Y-88382151D01*
X89782133Y-88361107D01*
X89796747Y-88341402D01*
X89813223Y-88323223D01*
X89831402Y-88306747D01*
X89851107Y-88292133D01*
X89872151Y-88279520D01*
X89894329Y-88269030D01*
X89917429Y-88260765D01*
X89941227Y-88254804D01*
X89965496Y-88251204D01*
X89990000Y-88250000D01*
X92890000Y-88250000D01*
X92914504Y-88251204D01*
G37*
G36*
X92914504Y-83801204D02*
G01*
X92938773Y-83804804D01*
X92962571Y-83810765D01*
X92985671Y-83819030D01*
X93007849Y-83829520D01*
X93028893Y-83842133D01*
X93048598Y-83856747D01*
X93066777Y-83873223D01*
X93083253Y-83891402D01*
X93097867Y-83911107D01*
X93110480Y-83932151D01*
X93120970Y-83954329D01*
X93129235Y-83977429D01*
X93135196Y-84001227D01*
X93138796Y-84025496D01*
X93140000Y-84050000D01*
X93140000Y-84850000D01*
X93138796Y-84874504D01*
X93135196Y-84898773D01*
X93129235Y-84922571D01*
X93120970Y-84945671D01*
X93110480Y-84967849D01*
X93097867Y-84988893D01*
X93083253Y-85008598D01*
X93066777Y-85026777D01*
X93048598Y-85043253D01*
X93028893Y-85057867D01*
X93007849Y-85070480D01*
X92985671Y-85080970D01*
X92962571Y-85089235D01*
X92938773Y-85095196D01*
X92914504Y-85098796D01*
X92890000Y-85100000D01*
X89990000Y-85100000D01*
X89965496Y-85098796D01*
X89941227Y-85095196D01*
X89917429Y-85089235D01*
X89894329Y-85080970D01*
X89872151Y-85070480D01*
X89851107Y-85057867D01*
X89831402Y-85043253D01*
X89813223Y-85026777D01*
X89796747Y-85008598D01*
X89782133Y-84988893D01*
X89769520Y-84967849D01*
X89759030Y-84945671D01*
X89750765Y-84922571D01*
X89744804Y-84898773D01*
X89741204Y-84874504D01*
X89740000Y-84850000D01*
X89740000Y-84050000D01*
X89741204Y-84025496D01*
X89744804Y-84001227D01*
X89750765Y-83977429D01*
X89759030Y-83954329D01*
X89769520Y-83932151D01*
X89782133Y-83911107D01*
X89796747Y-83891402D01*
X89813223Y-83873223D01*
X89831402Y-83856747D01*
X89851107Y-83842133D01*
X89872151Y-83829520D01*
X89894329Y-83819030D01*
X89917429Y-83810765D01*
X89941227Y-83804804D01*
X89965496Y-83801204D01*
X89990000Y-83800000D01*
X92890000Y-83800000D01*
X92914504Y-83801204D01*
G37*
D11*
X134700000Y-55880000D03*
X139700000Y-55880000D03*
D12*
G36*
X118274703Y-75355722D02*
G01*
X118289264Y-75357882D01*
X118303543Y-75361459D01*
X118317403Y-75366418D01*
X118330710Y-75372712D01*
X118343336Y-75380280D01*
X118355159Y-75389048D01*
X118366066Y-75398934D01*
X118375952Y-75409841D01*
X118384720Y-75421664D01*
X118392288Y-75434290D01*
X118398582Y-75447597D01*
X118403541Y-75461457D01*
X118407118Y-75475736D01*
X118409278Y-75490297D01*
X118410000Y-75505000D01*
X118410000Y-77155000D01*
X118409278Y-77169703D01*
X118407118Y-77184264D01*
X118403541Y-77198543D01*
X118398582Y-77212403D01*
X118392288Y-77225710D01*
X118384720Y-77238336D01*
X118375952Y-77250159D01*
X118366066Y-77261066D01*
X118355159Y-77270952D01*
X118343336Y-77279720D01*
X118330710Y-77287288D01*
X118317403Y-77293582D01*
X118303543Y-77298541D01*
X118289264Y-77302118D01*
X118274703Y-77304278D01*
X118260000Y-77305000D01*
X117960000Y-77305000D01*
X117945297Y-77304278D01*
X117930736Y-77302118D01*
X117916457Y-77298541D01*
X117902597Y-77293582D01*
X117889290Y-77287288D01*
X117876664Y-77279720D01*
X117864841Y-77270952D01*
X117853934Y-77261066D01*
X117844048Y-77250159D01*
X117835280Y-77238336D01*
X117827712Y-77225710D01*
X117821418Y-77212403D01*
X117816459Y-77198543D01*
X117812882Y-77184264D01*
X117810722Y-77169703D01*
X117810000Y-77155000D01*
X117810000Y-75505000D01*
X117810722Y-75490297D01*
X117812882Y-75475736D01*
X117816459Y-75461457D01*
X117821418Y-75447597D01*
X117827712Y-75434290D01*
X117835280Y-75421664D01*
X117844048Y-75409841D01*
X117853934Y-75398934D01*
X117864841Y-75389048D01*
X117876664Y-75380280D01*
X117889290Y-75372712D01*
X117902597Y-75366418D01*
X117916457Y-75361459D01*
X117930736Y-75357882D01*
X117945297Y-75355722D01*
X117960000Y-75355000D01*
X118260000Y-75355000D01*
X118274703Y-75355722D01*
G37*
G36*
X117004703Y-75355722D02*
G01*
X117019264Y-75357882D01*
X117033543Y-75361459D01*
X117047403Y-75366418D01*
X117060710Y-75372712D01*
X117073336Y-75380280D01*
X117085159Y-75389048D01*
X117096066Y-75398934D01*
X117105952Y-75409841D01*
X117114720Y-75421664D01*
X117122288Y-75434290D01*
X117128582Y-75447597D01*
X117133541Y-75461457D01*
X117137118Y-75475736D01*
X117139278Y-75490297D01*
X117140000Y-75505000D01*
X117140000Y-77155000D01*
X117139278Y-77169703D01*
X117137118Y-77184264D01*
X117133541Y-77198543D01*
X117128582Y-77212403D01*
X117122288Y-77225710D01*
X117114720Y-77238336D01*
X117105952Y-77250159D01*
X117096066Y-77261066D01*
X117085159Y-77270952D01*
X117073336Y-77279720D01*
X117060710Y-77287288D01*
X117047403Y-77293582D01*
X117033543Y-77298541D01*
X117019264Y-77302118D01*
X117004703Y-77304278D01*
X116990000Y-77305000D01*
X116690000Y-77305000D01*
X116675297Y-77304278D01*
X116660736Y-77302118D01*
X116646457Y-77298541D01*
X116632597Y-77293582D01*
X116619290Y-77287288D01*
X116606664Y-77279720D01*
X116594841Y-77270952D01*
X116583934Y-77261066D01*
X116574048Y-77250159D01*
X116565280Y-77238336D01*
X116557712Y-77225710D01*
X116551418Y-77212403D01*
X116546459Y-77198543D01*
X116542882Y-77184264D01*
X116540722Y-77169703D01*
X116540000Y-77155000D01*
X116540000Y-75505000D01*
X116540722Y-75490297D01*
X116542882Y-75475736D01*
X116546459Y-75461457D01*
X116551418Y-75447597D01*
X116557712Y-75434290D01*
X116565280Y-75421664D01*
X116574048Y-75409841D01*
X116583934Y-75398934D01*
X116594841Y-75389048D01*
X116606664Y-75380280D01*
X116619290Y-75372712D01*
X116632597Y-75366418D01*
X116646457Y-75361459D01*
X116660736Y-75357882D01*
X116675297Y-75355722D01*
X116690000Y-75355000D01*
X116990000Y-75355000D01*
X117004703Y-75355722D01*
G37*
G36*
X115734703Y-75355722D02*
G01*
X115749264Y-75357882D01*
X115763543Y-75361459D01*
X115777403Y-75366418D01*
X115790710Y-75372712D01*
X115803336Y-75380280D01*
X115815159Y-75389048D01*
X115826066Y-75398934D01*
X115835952Y-75409841D01*
X115844720Y-75421664D01*
X115852288Y-75434290D01*
X115858582Y-75447597D01*
X115863541Y-75461457D01*
X115867118Y-75475736D01*
X115869278Y-75490297D01*
X115870000Y-75505000D01*
X115870000Y-77155000D01*
X115869278Y-77169703D01*
X115867118Y-77184264D01*
X115863541Y-77198543D01*
X115858582Y-77212403D01*
X115852288Y-77225710D01*
X115844720Y-77238336D01*
X115835952Y-77250159D01*
X115826066Y-77261066D01*
X115815159Y-77270952D01*
X115803336Y-77279720D01*
X115790710Y-77287288D01*
X115777403Y-77293582D01*
X115763543Y-77298541D01*
X115749264Y-77302118D01*
X115734703Y-77304278D01*
X115720000Y-77305000D01*
X115420000Y-77305000D01*
X115405297Y-77304278D01*
X115390736Y-77302118D01*
X115376457Y-77298541D01*
X115362597Y-77293582D01*
X115349290Y-77287288D01*
X115336664Y-77279720D01*
X115324841Y-77270952D01*
X115313934Y-77261066D01*
X115304048Y-77250159D01*
X115295280Y-77238336D01*
X115287712Y-77225710D01*
X115281418Y-77212403D01*
X115276459Y-77198543D01*
X115272882Y-77184264D01*
X115270722Y-77169703D01*
X115270000Y-77155000D01*
X115270000Y-75505000D01*
X115270722Y-75490297D01*
X115272882Y-75475736D01*
X115276459Y-75461457D01*
X115281418Y-75447597D01*
X115287712Y-75434290D01*
X115295280Y-75421664D01*
X115304048Y-75409841D01*
X115313934Y-75398934D01*
X115324841Y-75389048D01*
X115336664Y-75380280D01*
X115349290Y-75372712D01*
X115362597Y-75366418D01*
X115376457Y-75361459D01*
X115390736Y-75357882D01*
X115405297Y-75355722D01*
X115420000Y-75355000D01*
X115720000Y-75355000D01*
X115734703Y-75355722D01*
G37*
G36*
X114464703Y-75355722D02*
G01*
X114479264Y-75357882D01*
X114493543Y-75361459D01*
X114507403Y-75366418D01*
X114520710Y-75372712D01*
X114533336Y-75380280D01*
X114545159Y-75389048D01*
X114556066Y-75398934D01*
X114565952Y-75409841D01*
X114574720Y-75421664D01*
X114582288Y-75434290D01*
X114588582Y-75447597D01*
X114593541Y-75461457D01*
X114597118Y-75475736D01*
X114599278Y-75490297D01*
X114600000Y-75505000D01*
X114600000Y-77155000D01*
X114599278Y-77169703D01*
X114597118Y-77184264D01*
X114593541Y-77198543D01*
X114588582Y-77212403D01*
X114582288Y-77225710D01*
X114574720Y-77238336D01*
X114565952Y-77250159D01*
X114556066Y-77261066D01*
X114545159Y-77270952D01*
X114533336Y-77279720D01*
X114520710Y-77287288D01*
X114507403Y-77293582D01*
X114493543Y-77298541D01*
X114479264Y-77302118D01*
X114464703Y-77304278D01*
X114450000Y-77305000D01*
X114150000Y-77305000D01*
X114135297Y-77304278D01*
X114120736Y-77302118D01*
X114106457Y-77298541D01*
X114092597Y-77293582D01*
X114079290Y-77287288D01*
X114066664Y-77279720D01*
X114054841Y-77270952D01*
X114043934Y-77261066D01*
X114034048Y-77250159D01*
X114025280Y-77238336D01*
X114017712Y-77225710D01*
X114011418Y-77212403D01*
X114006459Y-77198543D01*
X114002882Y-77184264D01*
X114000722Y-77169703D01*
X114000000Y-77155000D01*
X114000000Y-75505000D01*
X114000722Y-75490297D01*
X114002882Y-75475736D01*
X114006459Y-75461457D01*
X114011418Y-75447597D01*
X114017712Y-75434290D01*
X114025280Y-75421664D01*
X114034048Y-75409841D01*
X114043934Y-75398934D01*
X114054841Y-75389048D01*
X114066664Y-75380280D01*
X114079290Y-75372712D01*
X114092597Y-75366418D01*
X114106457Y-75361459D01*
X114120736Y-75357882D01*
X114135297Y-75355722D01*
X114150000Y-75355000D01*
X114450000Y-75355000D01*
X114464703Y-75355722D01*
G37*
G36*
X113194703Y-75355722D02*
G01*
X113209264Y-75357882D01*
X113223543Y-75361459D01*
X113237403Y-75366418D01*
X113250710Y-75372712D01*
X113263336Y-75380280D01*
X113275159Y-75389048D01*
X113286066Y-75398934D01*
X113295952Y-75409841D01*
X113304720Y-75421664D01*
X113312288Y-75434290D01*
X113318582Y-75447597D01*
X113323541Y-75461457D01*
X113327118Y-75475736D01*
X113329278Y-75490297D01*
X113330000Y-75505000D01*
X113330000Y-77155000D01*
X113329278Y-77169703D01*
X113327118Y-77184264D01*
X113323541Y-77198543D01*
X113318582Y-77212403D01*
X113312288Y-77225710D01*
X113304720Y-77238336D01*
X113295952Y-77250159D01*
X113286066Y-77261066D01*
X113275159Y-77270952D01*
X113263336Y-77279720D01*
X113250710Y-77287288D01*
X113237403Y-77293582D01*
X113223543Y-77298541D01*
X113209264Y-77302118D01*
X113194703Y-77304278D01*
X113180000Y-77305000D01*
X112880000Y-77305000D01*
X112865297Y-77304278D01*
X112850736Y-77302118D01*
X112836457Y-77298541D01*
X112822597Y-77293582D01*
X112809290Y-77287288D01*
X112796664Y-77279720D01*
X112784841Y-77270952D01*
X112773934Y-77261066D01*
X112764048Y-77250159D01*
X112755280Y-77238336D01*
X112747712Y-77225710D01*
X112741418Y-77212403D01*
X112736459Y-77198543D01*
X112732882Y-77184264D01*
X112730722Y-77169703D01*
X112730000Y-77155000D01*
X112730000Y-75505000D01*
X112730722Y-75490297D01*
X112732882Y-75475736D01*
X112736459Y-75461457D01*
X112741418Y-75447597D01*
X112747712Y-75434290D01*
X112755280Y-75421664D01*
X112764048Y-75409841D01*
X112773934Y-75398934D01*
X112784841Y-75389048D01*
X112796664Y-75380280D01*
X112809290Y-75372712D01*
X112822597Y-75366418D01*
X112836457Y-75361459D01*
X112850736Y-75357882D01*
X112865297Y-75355722D01*
X112880000Y-75355000D01*
X113180000Y-75355000D01*
X113194703Y-75355722D01*
G37*
G36*
X111924703Y-75355722D02*
G01*
X111939264Y-75357882D01*
X111953543Y-75361459D01*
X111967403Y-75366418D01*
X111980710Y-75372712D01*
X111993336Y-75380280D01*
X112005159Y-75389048D01*
X112016066Y-75398934D01*
X112025952Y-75409841D01*
X112034720Y-75421664D01*
X112042288Y-75434290D01*
X112048582Y-75447597D01*
X112053541Y-75461457D01*
X112057118Y-75475736D01*
X112059278Y-75490297D01*
X112060000Y-75505000D01*
X112060000Y-77155000D01*
X112059278Y-77169703D01*
X112057118Y-77184264D01*
X112053541Y-77198543D01*
X112048582Y-77212403D01*
X112042288Y-77225710D01*
X112034720Y-77238336D01*
X112025952Y-77250159D01*
X112016066Y-77261066D01*
X112005159Y-77270952D01*
X111993336Y-77279720D01*
X111980710Y-77287288D01*
X111967403Y-77293582D01*
X111953543Y-77298541D01*
X111939264Y-77302118D01*
X111924703Y-77304278D01*
X111910000Y-77305000D01*
X111610000Y-77305000D01*
X111595297Y-77304278D01*
X111580736Y-77302118D01*
X111566457Y-77298541D01*
X111552597Y-77293582D01*
X111539290Y-77287288D01*
X111526664Y-77279720D01*
X111514841Y-77270952D01*
X111503934Y-77261066D01*
X111494048Y-77250159D01*
X111485280Y-77238336D01*
X111477712Y-77225710D01*
X111471418Y-77212403D01*
X111466459Y-77198543D01*
X111462882Y-77184264D01*
X111460722Y-77169703D01*
X111460000Y-77155000D01*
X111460000Y-75505000D01*
X111460722Y-75490297D01*
X111462882Y-75475736D01*
X111466459Y-75461457D01*
X111471418Y-75447597D01*
X111477712Y-75434290D01*
X111485280Y-75421664D01*
X111494048Y-75409841D01*
X111503934Y-75398934D01*
X111514841Y-75389048D01*
X111526664Y-75380280D01*
X111539290Y-75372712D01*
X111552597Y-75366418D01*
X111566457Y-75361459D01*
X111580736Y-75357882D01*
X111595297Y-75355722D01*
X111610000Y-75355000D01*
X111910000Y-75355000D01*
X111924703Y-75355722D01*
G37*
G36*
X110654703Y-75355722D02*
G01*
X110669264Y-75357882D01*
X110683543Y-75361459D01*
X110697403Y-75366418D01*
X110710710Y-75372712D01*
X110723336Y-75380280D01*
X110735159Y-75389048D01*
X110746066Y-75398934D01*
X110755952Y-75409841D01*
X110764720Y-75421664D01*
X110772288Y-75434290D01*
X110778582Y-75447597D01*
X110783541Y-75461457D01*
X110787118Y-75475736D01*
X110789278Y-75490297D01*
X110790000Y-75505000D01*
X110790000Y-77155000D01*
X110789278Y-77169703D01*
X110787118Y-77184264D01*
X110783541Y-77198543D01*
X110778582Y-77212403D01*
X110772288Y-77225710D01*
X110764720Y-77238336D01*
X110755952Y-77250159D01*
X110746066Y-77261066D01*
X110735159Y-77270952D01*
X110723336Y-77279720D01*
X110710710Y-77287288D01*
X110697403Y-77293582D01*
X110683543Y-77298541D01*
X110669264Y-77302118D01*
X110654703Y-77304278D01*
X110640000Y-77305000D01*
X110340000Y-77305000D01*
X110325297Y-77304278D01*
X110310736Y-77302118D01*
X110296457Y-77298541D01*
X110282597Y-77293582D01*
X110269290Y-77287288D01*
X110256664Y-77279720D01*
X110244841Y-77270952D01*
X110233934Y-77261066D01*
X110224048Y-77250159D01*
X110215280Y-77238336D01*
X110207712Y-77225710D01*
X110201418Y-77212403D01*
X110196459Y-77198543D01*
X110192882Y-77184264D01*
X110190722Y-77169703D01*
X110190000Y-77155000D01*
X110190000Y-75505000D01*
X110190722Y-75490297D01*
X110192882Y-75475736D01*
X110196459Y-75461457D01*
X110201418Y-75447597D01*
X110207712Y-75434290D01*
X110215280Y-75421664D01*
X110224048Y-75409841D01*
X110233934Y-75398934D01*
X110244841Y-75389048D01*
X110256664Y-75380280D01*
X110269290Y-75372712D01*
X110282597Y-75366418D01*
X110296457Y-75361459D01*
X110310736Y-75357882D01*
X110325297Y-75355722D01*
X110340000Y-75355000D01*
X110640000Y-75355000D01*
X110654703Y-75355722D01*
G37*
G36*
X109384703Y-75355722D02*
G01*
X109399264Y-75357882D01*
X109413543Y-75361459D01*
X109427403Y-75366418D01*
X109440710Y-75372712D01*
X109453336Y-75380280D01*
X109465159Y-75389048D01*
X109476066Y-75398934D01*
X109485952Y-75409841D01*
X109494720Y-75421664D01*
X109502288Y-75434290D01*
X109508582Y-75447597D01*
X109513541Y-75461457D01*
X109517118Y-75475736D01*
X109519278Y-75490297D01*
X109520000Y-75505000D01*
X109520000Y-77155000D01*
X109519278Y-77169703D01*
X109517118Y-77184264D01*
X109513541Y-77198543D01*
X109508582Y-77212403D01*
X109502288Y-77225710D01*
X109494720Y-77238336D01*
X109485952Y-77250159D01*
X109476066Y-77261066D01*
X109465159Y-77270952D01*
X109453336Y-77279720D01*
X109440710Y-77287288D01*
X109427403Y-77293582D01*
X109413543Y-77298541D01*
X109399264Y-77302118D01*
X109384703Y-77304278D01*
X109370000Y-77305000D01*
X109070000Y-77305000D01*
X109055297Y-77304278D01*
X109040736Y-77302118D01*
X109026457Y-77298541D01*
X109012597Y-77293582D01*
X108999290Y-77287288D01*
X108986664Y-77279720D01*
X108974841Y-77270952D01*
X108963934Y-77261066D01*
X108954048Y-77250159D01*
X108945280Y-77238336D01*
X108937712Y-77225710D01*
X108931418Y-77212403D01*
X108926459Y-77198543D01*
X108922882Y-77184264D01*
X108920722Y-77169703D01*
X108920000Y-77155000D01*
X108920000Y-75505000D01*
X108920722Y-75490297D01*
X108922882Y-75475736D01*
X108926459Y-75461457D01*
X108931418Y-75447597D01*
X108937712Y-75434290D01*
X108945280Y-75421664D01*
X108954048Y-75409841D01*
X108963934Y-75398934D01*
X108974841Y-75389048D01*
X108986664Y-75380280D01*
X108999290Y-75372712D01*
X109012597Y-75366418D01*
X109026457Y-75361459D01*
X109040736Y-75357882D01*
X109055297Y-75355722D01*
X109070000Y-75355000D01*
X109370000Y-75355000D01*
X109384703Y-75355722D01*
G37*
G36*
X109384703Y-80305722D02*
G01*
X109399264Y-80307882D01*
X109413543Y-80311459D01*
X109427403Y-80316418D01*
X109440710Y-80322712D01*
X109453336Y-80330280D01*
X109465159Y-80339048D01*
X109476066Y-80348934D01*
X109485952Y-80359841D01*
X109494720Y-80371664D01*
X109502288Y-80384290D01*
X109508582Y-80397597D01*
X109513541Y-80411457D01*
X109517118Y-80425736D01*
X109519278Y-80440297D01*
X109520000Y-80455000D01*
X109520000Y-82105000D01*
X109519278Y-82119703D01*
X109517118Y-82134264D01*
X109513541Y-82148543D01*
X109508582Y-82162403D01*
X109502288Y-82175710D01*
X109494720Y-82188336D01*
X109485952Y-82200159D01*
X109476066Y-82211066D01*
X109465159Y-82220952D01*
X109453336Y-82229720D01*
X109440710Y-82237288D01*
X109427403Y-82243582D01*
X109413543Y-82248541D01*
X109399264Y-82252118D01*
X109384703Y-82254278D01*
X109370000Y-82255000D01*
X109070000Y-82255000D01*
X109055297Y-82254278D01*
X109040736Y-82252118D01*
X109026457Y-82248541D01*
X109012597Y-82243582D01*
X108999290Y-82237288D01*
X108986664Y-82229720D01*
X108974841Y-82220952D01*
X108963934Y-82211066D01*
X108954048Y-82200159D01*
X108945280Y-82188336D01*
X108937712Y-82175710D01*
X108931418Y-82162403D01*
X108926459Y-82148543D01*
X108922882Y-82134264D01*
X108920722Y-82119703D01*
X108920000Y-82105000D01*
X108920000Y-80455000D01*
X108920722Y-80440297D01*
X108922882Y-80425736D01*
X108926459Y-80411457D01*
X108931418Y-80397597D01*
X108937712Y-80384290D01*
X108945280Y-80371664D01*
X108954048Y-80359841D01*
X108963934Y-80348934D01*
X108974841Y-80339048D01*
X108986664Y-80330280D01*
X108999290Y-80322712D01*
X109012597Y-80316418D01*
X109026457Y-80311459D01*
X109040736Y-80307882D01*
X109055297Y-80305722D01*
X109070000Y-80305000D01*
X109370000Y-80305000D01*
X109384703Y-80305722D01*
G37*
G36*
X110654703Y-80305722D02*
G01*
X110669264Y-80307882D01*
X110683543Y-80311459D01*
X110697403Y-80316418D01*
X110710710Y-80322712D01*
X110723336Y-80330280D01*
X110735159Y-80339048D01*
X110746066Y-80348934D01*
X110755952Y-80359841D01*
X110764720Y-80371664D01*
X110772288Y-80384290D01*
X110778582Y-80397597D01*
X110783541Y-80411457D01*
X110787118Y-80425736D01*
X110789278Y-80440297D01*
X110790000Y-80455000D01*
X110790000Y-82105000D01*
X110789278Y-82119703D01*
X110787118Y-82134264D01*
X110783541Y-82148543D01*
X110778582Y-82162403D01*
X110772288Y-82175710D01*
X110764720Y-82188336D01*
X110755952Y-82200159D01*
X110746066Y-82211066D01*
X110735159Y-82220952D01*
X110723336Y-82229720D01*
X110710710Y-82237288D01*
X110697403Y-82243582D01*
X110683543Y-82248541D01*
X110669264Y-82252118D01*
X110654703Y-82254278D01*
X110640000Y-82255000D01*
X110340000Y-82255000D01*
X110325297Y-82254278D01*
X110310736Y-82252118D01*
X110296457Y-82248541D01*
X110282597Y-82243582D01*
X110269290Y-82237288D01*
X110256664Y-82229720D01*
X110244841Y-82220952D01*
X110233934Y-82211066D01*
X110224048Y-82200159D01*
X110215280Y-82188336D01*
X110207712Y-82175710D01*
X110201418Y-82162403D01*
X110196459Y-82148543D01*
X110192882Y-82134264D01*
X110190722Y-82119703D01*
X110190000Y-82105000D01*
X110190000Y-80455000D01*
X110190722Y-80440297D01*
X110192882Y-80425736D01*
X110196459Y-80411457D01*
X110201418Y-80397597D01*
X110207712Y-80384290D01*
X110215280Y-80371664D01*
X110224048Y-80359841D01*
X110233934Y-80348934D01*
X110244841Y-80339048D01*
X110256664Y-80330280D01*
X110269290Y-80322712D01*
X110282597Y-80316418D01*
X110296457Y-80311459D01*
X110310736Y-80307882D01*
X110325297Y-80305722D01*
X110340000Y-80305000D01*
X110640000Y-80305000D01*
X110654703Y-80305722D01*
G37*
G36*
X111924703Y-80305722D02*
G01*
X111939264Y-80307882D01*
X111953543Y-80311459D01*
X111967403Y-80316418D01*
X111980710Y-80322712D01*
X111993336Y-80330280D01*
X112005159Y-80339048D01*
X112016066Y-80348934D01*
X112025952Y-80359841D01*
X112034720Y-80371664D01*
X112042288Y-80384290D01*
X112048582Y-80397597D01*
X112053541Y-80411457D01*
X112057118Y-80425736D01*
X112059278Y-80440297D01*
X112060000Y-80455000D01*
X112060000Y-82105000D01*
X112059278Y-82119703D01*
X112057118Y-82134264D01*
X112053541Y-82148543D01*
X112048582Y-82162403D01*
X112042288Y-82175710D01*
X112034720Y-82188336D01*
X112025952Y-82200159D01*
X112016066Y-82211066D01*
X112005159Y-82220952D01*
X111993336Y-82229720D01*
X111980710Y-82237288D01*
X111967403Y-82243582D01*
X111953543Y-82248541D01*
X111939264Y-82252118D01*
X111924703Y-82254278D01*
X111910000Y-82255000D01*
X111610000Y-82255000D01*
X111595297Y-82254278D01*
X111580736Y-82252118D01*
X111566457Y-82248541D01*
X111552597Y-82243582D01*
X111539290Y-82237288D01*
X111526664Y-82229720D01*
X111514841Y-82220952D01*
X111503934Y-82211066D01*
X111494048Y-82200159D01*
X111485280Y-82188336D01*
X111477712Y-82175710D01*
X111471418Y-82162403D01*
X111466459Y-82148543D01*
X111462882Y-82134264D01*
X111460722Y-82119703D01*
X111460000Y-82105000D01*
X111460000Y-80455000D01*
X111460722Y-80440297D01*
X111462882Y-80425736D01*
X111466459Y-80411457D01*
X111471418Y-80397597D01*
X111477712Y-80384290D01*
X111485280Y-80371664D01*
X111494048Y-80359841D01*
X111503934Y-80348934D01*
X111514841Y-80339048D01*
X111526664Y-80330280D01*
X111539290Y-80322712D01*
X111552597Y-80316418D01*
X111566457Y-80311459D01*
X111580736Y-80307882D01*
X111595297Y-80305722D01*
X111610000Y-80305000D01*
X111910000Y-80305000D01*
X111924703Y-80305722D01*
G37*
G36*
X113194703Y-80305722D02*
G01*
X113209264Y-80307882D01*
X113223543Y-80311459D01*
X113237403Y-80316418D01*
X113250710Y-80322712D01*
X113263336Y-80330280D01*
X113275159Y-80339048D01*
X113286066Y-80348934D01*
X113295952Y-80359841D01*
X113304720Y-80371664D01*
X113312288Y-80384290D01*
X113318582Y-80397597D01*
X113323541Y-80411457D01*
X113327118Y-80425736D01*
X113329278Y-80440297D01*
X113330000Y-80455000D01*
X113330000Y-82105000D01*
X113329278Y-82119703D01*
X113327118Y-82134264D01*
X113323541Y-82148543D01*
X113318582Y-82162403D01*
X113312288Y-82175710D01*
X113304720Y-82188336D01*
X113295952Y-82200159D01*
X113286066Y-82211066D01*
X113275159Y-82220952D01*
X113263336Y-82229720D01*
X113250710Y-82237288D01*
X113237403Y-82243582D01*
X113223543Y-82248541D01*
X113209264Y-82252118D01*
X113194703Y-82254278D01*
X113180000Y-82255000D01*
X112880000Y-82255000D01*
X112865297Y-82254278D01*
X112850736Y-82252118D01*
X112836457Y-82248541D01*
X112822597Y-82243582D01*
X112809290Y-82237288D01*
X112796664Y-82229720D01*
X112784841Y-82220952D01*
X112773934Y-82211066D01*
X112764048Y-82200159D01*
X112755280Y-82188336D01*
X112747712Y-82175710D01*
X112741418Y-82162403D01*
X112736459Y-82148543D01*
X112732882Y-82134264D01*
X112730722Y-82119703D01*
X112730000Y-82105000D01*
X112730000Y-80455000D01*
X112730722Y-80440297D01*
X112732882Y-80425736D01*
X112736459Y-80411457D01*
X112741418Y-80397597D01*
X112747712Y-80384290D01*
X112755280Y-80371664D01*
X112764048Y-80359841D01*
X112773934Y-80348934D01*
X112784841Y-80339048D01*
X112796664Y-80330280D01*
X112809290Y-80322712D01*
X112822597Y-80316418D01*
X112836457Y-80311459D01*
X112850736Y-80307882D01*
X112865297Y-80305722D01*
X112880000Y-80305000D01*
X113180000Y-80305000D01*
X113194703Y-80305722D01*
G37*
G36*
X114464703Y-80305722D02*
G01*
X114479264Y-80307882D01*
X114493543Y-80311459D01*
X114507403Y-80316418D01*
X114520710Y-80322712D01*
X114533336Y-80330280D01*
X114545159Y-80339048D01*
X114556066Y-80348934D01*
X114565952Y-80359841D01*
X114574720Y-80371664D01*
X114582288Y-80384290D01*
X114588582Y-80397597D01*
X114593541Y-80411457D01*
X114597118Y-80425736D01*
X114599278Y-80440297D01*
X114600000Y-80455000D01*
X114600000Y-82105000D01*
X114599278Y-82119703D01*
X114597118Y-82134264D01*
X114593541Y-82148543D01*
X114588582Y-82162403D01*
X114582288Y-82175710D01*
X114574720Y-82188336D01*
X114565952Y-82200159D01*
X114556066Y-82211066D01*
X114545159Y-82220952D01*
X114533336Y-82229720D01*
X114520710Y-82237288D01*
X114507403Y-82243582D01*
X114493543Y-82248541D01*
X114479264Y-82252118D01*
X114464703Y-82254278D01*
X114450000Y-82255000D01*
X114150000Y-82255000D01*
X114135297Y-82254278D01*
X114120736Y-82252118D01*
X114106457Y-82248541D01*
X114092597Y-82243582D01*
X114079290Y-82237288D01*
X114066664Y-82229720D01*
X114054841Y-82220952D01*
X114043934Y-82211066D01*
X114034048Y-82200159D01*
X114025280Y-82188336D01*
X114017712Y-82175710D01*
X114011418Y-82162403D01*
X114006459Y-82148543D01*
X114002882Y-82134264D01*
X114000722Y-82119703D01*
X114000000Y-82105000D01*
X114000000Y-80455000D01*
X114000722Y-80440297D01*
X114002882Y-80425736D01*
X114006459Y-80411457D01*
X114011418Y-80397597D01*
X114017712Y-80384290D01*
X114025280Y-80371664D01*
X114034048Y-80359841D01*
X114043934Y-80348934D01*
X114054841Y-80339048D01*
X114066664Y-80330280D01*
X114079290Y-80322712D01*
X114092597Y-80316418D01*
X114106457Y-80311459D01*
X114120736Y-80307882D01*
X114135297Y-80305722D01*
X114150000Y-80305000D01*
X114450000Y-80305000D01*
X114464703Y-80305722D01*
G37*
G36*
X115734703Y-80305722D02*
G01*
X115749264Y-80307882D01*
X115763543Y-80311459D01*
X115777403Y-80316418D01*
X115790710Y-80322712D01*
X115803336Y-80330280D01*
X115815159Y-80339048D01*
X115826066Y-80348934D01*
X115835952Y-80359841D01*
X115844720Y-80371664D01*
X115852288Y-80384290D01*
X115858582Y-80397597D01*
X115863541Y-80411457D01*
X115867118Y-80425736D01*
X115869278Y-80440297D01*
X115870000Y-80455000D01*
X115870000Y-82105000D01*
X115869278Y-82119703D01*
X115867118Y-82134264D01*
X115863541Y-82148543D01*
X115858582Y-82162403D01*
X115852288Y-82175710D01*
X115844720Y-82188336D01*
X115835952Y-82200159D01*
X115826066Y-82211066D01*
X115815159Y-82220952D01*
X115803336Y-82229720D01*
X115790710Y-82237288D01*
X115777403Y-82243582D01*
X115763543Y-82248541D01*
X115749264Y-82252118D01*
X115734703Y-82254278D01*
X115720000Y-82255000D01*
X115420000Y-82255000D01*
X115405297Y-82254278D01*
X115390736Y-82252118D01*
X115376457Y-82248541D01*
X115362597Y-82243582D01*
X115349290Y-82237288D01*
X115336664Y-82229720D01*
X115324841Y-82220952D01*
X115313934Y-82211066D01*
X115304048Y-82200159D01*
X115295280Y-82188336D01*
X115287712Y-82175710D01*
X115281418Y-82162403D01*
X115276459Y-82148543D01*
X115272882Y-82134264D01*
X115270722Y-82119703D01*
X115270000Y-82105000D01*
X115270000Y-80455000D01*
X115270722Y-80440297D01*
X115272882Y-80425736D01*
X115276459Y-80411457D01*
X115281418Y-80397597D01*
X115287712Y-80384290D01*
X115295280Y-80371664D01*
X115304048Y-80359841D01*
X115313934Y-80348934D01*
X115324841Y-80339048D01*
X115336664Y-80330280D01*
X115349290Y-80322712D01*
X115362597Y-80316418D01*
X115376457Y-80311459D01*
X115390736Y-80307882D01*
X115405297Y-80305722D01*
X115420000Y-80305000D01*
X115720000Y-80305000D01*
X115734703Y-80305722D01*
G37*
G36*
X117004703Y-80305722D02*
G01*
X117019264Y-80307882D01*
X117033543Y-80311459D01*
X117047403Y-80316418D01*
X117060710Y-80322712D01*
X117073336Y-80330280D01*
X117085159Y-80339048D01*
X117096066Y-80348934D01*
X117105952Y-80359841D01*
X117114720Y-80371664D01*
X117122288Y-80384290D01*
X117128582Y-80397597D01*
X117133541Y-80411457D01*
X117137118Y-80425736D01*
X117139278Y-80440297D01*
X117140000Y-80455000D01*
X117140000Y-82105000D01*
X117139278Y-82119703D01*
X117137118Y-82134264D01*
X117133541Y-82148543D01*
X117128582Y-82162403D01*
X117122288Y-82175710D01*
X117114720Y-82188336D01*
X117105952Y-82200159D01*
X117096066Y-82211066D01*
X117085159Y-82220952D01*
X117073336Y-82229720D01*
X117060710Y-82237288D01*
X117047403Y-82243582D01*
X117033543Y-82248541D01*
X117019264Y-82252118D01*
X117004703Y-82254278D01*
X116990000Y-82255000D01*
X116690000Y-82255000D01*
X116675297Y-82254278D01*
X116660736Y-82252118D01*
X116646457Y-82248541D01*
X116632597Y-82243582D01*
X116619290Y-82237288D01*
X116606664Y-82229720D01*
X116594841Y-82220952D01*
X116583934Y-82211066D01*
X116574048Y-82200159D01*
X116565280Y-82188336D01*
X116557712Y-82175710D01*
X116551418Y-82162403D01*
X116546459Y-82148543D01*
X116542882Y-82134264D01*
X116540722Y-82119703D01*
X116540000Y-82105000D01*
X116540000Y-80455000D01*
X116540722Y-80440297D01*
X116542882Y-80425736D01*
X116546459Y-80411457D01*
X116551418Y-80397597D01*
X116557712Y-80384290D01*
X116565280Y-80371664D01*
X116574048Y-80359841D01*
X116583934Y-80348934D01*
X116594841Y-80339048D01*
X116606664Y-80330280D01*
X116619290Y-80322712D01*
X116632597Y-80316418D01*
X116646457Y-80311459D01*
X116660736Y-80307882D01*
X116675297Y-80305722D01*
X116690000Y-80305000D01*
X116990000Y-80305000D01*
X117004703Y-80305722D01*
G37*
G36*
X118274703Y-80305722D02*
G01*
X118289264Y-80307882D01*
X118303543Y-80311459D01*
X118317403Y-80316418D01*
X118330710Y-80322712D01*
X118343336Y-80330280D01*
X118355159Y-80339048D01*
X118366066Y-80348934D01*
X118375952Y-80359841D01*
X118384720Y-80371664D01*
X118392288Y-80384290D01*
X118398582Y-80397597D01*
X118403541Y-80411457D01*
X118407118Y-80425736D01*
X118409278Y-80440297D01*
X118410000Y-80455000D01*
X118410000Y-82105000D01*
X118409278Y-82119703D01*
X118407118Y-82134264D01*
X118403541Y-82148543D01*
X118398582Y-82162403D01*
X118392288Y-82175710D01*
X118384720Y-82188336D01*
X118375952Y-82200159D01*
X118366066Y-82211066D01*
X118355159Y-82220952D01*
X118343336Y-82229720D01*
X118330710Y-82237288D01*
X118317403Y-82243582D01*
X118303543Y-82248541D01*
X118289264Y-82252118D01*
X118274703Y-82254278D01*
X118260000Y-82255000D01*
X117960000Y-82255000D01*
X117945297Y-82254278D01*
X117930736Y-82252118D01*
X117916457Y-82248541D01*
X117902597Y-82243582D01*
X117889290Y-82237288D01*
X117876664Y-82229720D01*
X117864841Y-82220952D01*
X117853934Y-82211066D01*
X117844048Y-82200159D01*
X117835280Y-82188336D01*
X117827712Y-82175710D01*
X117821418Y-82162403D01*
X117816459Y-82148543D01*
X117812882Y-82134264D01*
X117810722Y-82119703D01*
X117810000Y-82105000D01*
X117810000Y-80455000D01*
X117810722Y-80440297D01*
X117812882Y-80425736D01*
X117816459Y-80411457D01*
X117821418Y-80397597D01*
X117827712Y-80384290D01*
X117835280Y-80371664D01*
X117844048Y-80359841D01*
X117853934Y-80348934D01*
X117864841Y-80339048D01*
X117876664Y-80330280D01*
X117889290Y-80322712D01*
X117902597Y-80316418D01*
X117916457Y-80311459D01*
X117930736Y-80307882D01*
X117945297Y-80305722D01*
X117960000Y-80305000D01*
X118260000Y-80305000D01*
X118274703Y-80305722D01*
G37*
D19*
X149860000Y-64010000D03*
X146510000Y-60960000D03*
X149860000Y-60960000D03*
X146510000Y-64010000D03*
D20*
X154485000Y-64765000D03*
X154485000Y-60205000D03*
D19*
X134620000Y-67820000D03*
X131270000Y-64770000D03*
X134620000Y-64770000D03*
X131270000Y-67820000D03*
D20*
X139245000Y-68575000D03*
X139245000Y-64015000D03*
M02*
