G04 #@! TF.GenerationSoftware,KiCad,Pcbnew,5.0.2-bee76a0~70~ubuntu18.04.1*
G04 #@! TF.CreationDate,2020-07-16T16:47:02+02:00*
G04 #@! TF.ProjectId,E32CB_R2,45333243-425f-4523-922e-6b696361645f,rev?*
G04 #@! TF.SameCoordinates,Original*
G04 #@! TF.FileFunction,Soldermask,Top*
G04 #@! TF.FilePolarity,Negative*
%FSLAX46Y46*%
G04 Gerber Fmt 4.6, Leading zero omitted, Abs format (unit mm)*
G04 Created by KiCad (PCBNEW 5.0.2-bee76a0~70~ubuntu18.04.1) date Čt 16. července 2020, 16:47:02 CEST*
%MOMM*%
%LPD*%
G01*
G04 APERTURE LIST*
%ADD10C,0.100000*%
G04 APERTURE END LIST*
D10*
G36*
X204089941Y-129146248D02*
X204089943Y-129146249D01*
X204089944Y-129146249D01*
X204645190Y-129376239D01*
X204645191Y-129376240D01*
X205144902Y-129710136D01*
X205569864Y-130135098D01*
X205569866Y-130135101D01*
X205903761Y-130634810D01*
X206133751Y-131190056D01*
X206133752Y-131190059D01*
X206251000Y-131779501D01*
X206251000Y-132380497D01*
X206133751Y-132969944D01*
X205903761Y-133525190D01*
X205903760Y-133525191D01*
X205569864Y-134024902D01*
X205144902Y-134449864D01*
X205144899Y-134449866D01*
X204645190Y-134783761D01*
X204089944Y-135013751D01*
X204089943Y-135013751D01*
X204089941Y-135013752D01*
X203500499Y-135131000D01*
X202899501Y-135131000D01*
X202310059Y-135013752D01*
X202310057Y-135013751D01*
X202310056Y-135013751D01*
X201754810Y-134783761D01*
X201255101Y-134449866D01*
X201255098Y-134449864D01*
X200830136Y-134024902D01*
X200496240Y-133525191D01*
X200496239Y-133525190D01*
X200266249Y-132969944D01*
X200149000Y-132380497D01*
X200149000Y-131779501D01*
X200266248Y-131190059D01*
X200266249Y-131190056D01*
X200496239Y-130634810D01*
X200830134Y-130135101D01*
X200830136Y-130135098D01*
X201255098Y-129710136D01*
X201754809Y-129376240D01*
X201754810Y-129376239D01*
X202310056Y-129146249D01*
X202310057Y-129146249D01*
X202310059Y-129146248D01*
X202899501Y-129029000D01*
X203500499Y-129029000D01*
X204089941Y-129146248D01*
X204089941Y-129146248D01*
G37*
G36*
X102489941Y-129146248D02*
X102489943Y-129146249D01*
X102489944Y-129146249D01*
X103045190Y-129376239D01*
X103045191Y-129376240D01*
X103544902Y-129710136D01*
X103969864Y-130135098D01*
X103969866Y-130135101D01*
X104303761Y-130634810D01*
X104533751Y-131190056D01*
X104533752Y-131190059D01*
X104651000Y-131779501D01*
X104651000Y-132380497D01*
X104533751Y-132969944D01*
X104303761Y-133525190D01*
X104303760Y-133525191D01*
X103969864Y-134024902D01*
X103544902Y-134449864D01*
X103544899Y-134449866D01*
X103045190Y-134783761D01*
X102489944Y-135013751D01*
X102489943Y-135013751D01*
X102489941Y-135013752D01*
X101900499Y-135131000D01*
X101299501Y-135131000D01*
X100710059Y-135013752D01*
X100710057Y-135013751D01*
X100710056Y-135013751D01*
X100154810Y-134783761D01*
X99655101Y-134449866D01*
X99655098Y-134449864D01*
X99230136Y-134024902D01*
X98896240Y-133525191D01*
X98896239Y-133525190D01*
X98666249Y-132969944D01*
X98549000Y-132380497D01*
X98549000Y-131779501D01*
X98666248Y-131190059D01*
X98666249Y-131190056D01*
X98896239Y-130634810D01*
X99230134Y-130135101D01*
X99230136Y-130135098D01*
X99655098Y-129710136D01*
X100154809Y-129376240D01*
X100154810Y-129376239D01*
X100710056Y-129146249D01*
X100710057Y-129146249D01*
X100710059Y-129146248D01*
X101299501Y-129029000D01*
X101900499Y-129029000D01*
X102489941Y-129146248D01*
X102489941Y-129146248D01*
G37*
G36*
X192897012Y-131516028D02*
X188985012Y-131516028D01*
X188985012Y-127604028D01*
X192897012Y-127604028D01*
X192897012Y-131516028D01*
X192897012Y-131516028D01*
G37*
G36*
X187817012Y-131516028D02*
X183905012Y-131516028D01*
X183905012Y-127604028D01*
X187817012Y-127604028D01*
X187817012Y-131516028D01*
X187817012Y-131516028D01*
G37*
G36*
X174992052Y-131500337D02*
X171080052Y-131500337D01*
X171080052Y-127588337D01*
X174992052Y-127588337D01*
X174992052Y-131500337D01*
X174992052Y-131500337D01*
G37*
G36*
X167372052Y-131500337D02*
X163460052Y-131500337D01*
X163460052Y-127588337D01*
X167372052Y-127588337D01*
X167372052Y-131500337D01*
X167372052Y-131500337D01*
G37*
G36*
X180072052Y-131500337D02*
X176160052Y-131500337D01*
X176160052Y-127588337D01*
X180072052Y-127588337D01*
X180072052Y-131500337D01*
X180072052Y-131500337D01*
G37*
G36*
X162292052Y-131500337D02*
X158380052Y-131500337D01*
X158380052Y-127588337D01*
X162292052Y-127588337D01*
X162292052Y-131500337D01*
X162292052Y-131500337D01*
G37*
G36*
X129464000Y-131496000D02*
X125552000Y-131496000D01*
X125552000Y-127584000D01*
X129464000Y-127584000D01*
X129464000Y-131496000D01*
X129464000Y-131496000D01*
G37*
G36*
X124384000Y-131496000D02*
X120472000Y-131496000D01*
X120472000Y-127584000D01*
X124384000Y-127584000D01*
X124384000Y-131496000D01*
X124384000Y-131496000D01*
G37*
G36*
X116764000Y-131496000D02*
X112852000Y-131496000D01*
X112852000Y-127584000D01*
X116764000Y-127584000D01*
X116764000Y-131496000D01*
X116764000Y-131496000D01*
G37*
G36*
X111684000Y-131496000D02*
X107772000Y-131496000D01*
X107772000Y-127584000D01*
X111684000Y-127584000D01*
X111684000Y-131496000D01*
X111684000Y-131496000D01*
G37*
G36*
X149749253Y-131483625D02*
X145837253Y-131483625D01*
X145837253Y-127571625D01*
X149749253Y-127571625D01*
X149749253Y-131483625D01*
X149749253Y-131483625D01*
G37*
G36*
X154829253Y-131483625D02*
X150917253Y-131483625D01*
X150917253Y-127571625D01*
X154829253Y-127571625D01*
X154829253Y-131483625D01*
X154829253Y-131483625D01*
G37*
G36*
X137049253Y-131483625D02*
X133137253Y-131483625D01*
X133137253Y-127571625D01*
X137049253Y-127571625D01*
X137049253Y-131483625D01*
X137049253Y-131483625D01*
G37*
G36*
X142129253Y-131483625D02*
X138217253Y-131483625D01*
X138217253Y-127571625D01*
X142129253Y-127571625D01*
X142129253Y-131483625D01*
X142129253Y-131483625D01*
G37*
G36*
X192897012Y-126516028D02*
X188985012Y-126516028D01*
X188985012Y-122604028D01*
X192897012Y-122604028D01*
X192897012Y-126516028D01*
X192897012Y-126516028D01*
G37*
G36*
X187817012Y-126516028D02*
X183905012Y-126516028D01*
X183905012Y-122604028D01*
X187817012Y-122604028D01*
X187817012Y-126516028D01*
X187817012Y-126516028D01*
G37*
G36*
X162292052Y-126500337D02*
X158380052Y-126500337D01*
X158380052Y-122588337D01*
X162292052Y-122588337D01*
X162292052Y-126500337D01*
X162292052Y-126500337D01*
G37*
G36*
X167372052Y-126500337D02*
X163460052Y-126500337D01*
X163460052Y-122588337D01*
X167372052Y-122588337D01*
X167372052Y-126500337D01*
X167372052Y-126500337D01*
G37*
G36*
X174992052Y-126500337D02*
X171080052Y-126500337D01*
X171080052Y-122588337D01*
X174992052Y-122588337D01*
X174992052Y-126500337D01*
X174992052Y-126500337D01*
G37*
G36*
X180072052Y-126500337D02*
X176160052Y-126500337D01*
X176160052Y-122588337D01*
X180072052Y-122588337D01*
X180072052Y-126500337D01*
X180072052Y-126500337D01*
G37*
G36*
X116764000Y-126496000D02*
X112852000Y-126496000D01*
X112852000Y-122584000D01*
X116764000Y-122584000D01*
X116764000Y-126496000D01*
X116764000Y-126496000D01*
G37*
G36*
X111684000Y-126496000D02*
X107772000Y-126496000D01*
X107772000Y-122584000D01*
X111684000Y-122584000D01*
X111684000Y-126496000D01*
X111684000Y-126496000D01*
G37*
G36*
X124384000Y-126496000D02*
X120472000Y-126496000D01*
X120472000Y-122584000D01*
X124384000Y-122584000D01*
X124384000Y-126496000D01*
X124384000Y-126496000D01*
G37*
G36*
X129464000Y-126496000D02*
X125552000Y-126496000D01*
X125552000Y-122584000D01*
X129464000Y-122584000D01*
X129464000Y-126496000D01*
X129464000Y-126496000D01*
G37*
G36*
X154829253Y-126483625D02*
X150917253Y-126483625D01*
X150917253Y-122571625D01*
X154829253Y-122571625D01*
X154829253Y-126483625D01*
X154829253Y-126483625D01*
G37*
G36*
X149749253Y-126483625D02*
X145837253Y-126483625D01*
X145837253Y-122571625D01*
X149749253Y-122571625D01*
X149749253Y-126483625D01*
X149749253Y-126483625D01*
G37*
G36*
X142129253Y-126483625D02*
X138217253Y-126483625D01*
X138217253Y-122571625D01*
X142129253Y-122571625D01*
X142129253Y-126483625D01*
X142129253Y-126483625D01*
G37*
G36*
X137049253Y-126483625D02*
X133137253Y-126483625D01*
X133137253Y-122571625D01*
X137049253Y-122571625D01*
X137049253Y-126483625D01*
X137049253Y-126483625D01*
G37*
G36*
X201025012Y-121800528D02*
X197113012Y-121800528D01*
X197113012Y-117888528D01*
X201025012Y-117888528D01*
X201025012Y-121800528D01*
X201025012Y-121800528D01*
G37*
G36*
X206105012Y-121800528D02*
X202193012Y-121800528D01*
X202193012Y-117888528D01*
X206105012Y-117888528D01*
X206105012Y-121800528D01*
X206105012Y-121800528D01*
G37*
G36*
X201025012Y-116800528D02*
X197113012Y-116800528D01*
X197113012Y-112888528D01*
X201025012Y-112888528D01*
X201025012Y-116800528D01*
X201025012Y-116800528D01*
G37*
G36*
X206105012Y-116800528D02*
X202193012Y-116800528D01*
X202193012Y-112888528D01*
X206105012Y-112888528D01*
X206105012Y-116800528D01*
X206105012Y-116800528D01*
G37*
G36*
X193752012Y-113541028D02*
X187250012Y-113541028D01*
X187250012Y-107639028D01*
X193752012Y-107639028D01*
X193752012Y-113541028D01*
X193752012Y-113541028D01*
G37*
G36*
X168227052Y-113525337D02*
X161725052Y-113525337D01*
X161725052Y-107623337D01*
X168227052Y-107623337D01*
X168227052Y-113525337D01*
X168227052Y-113525337D01*
G37*
G36*
X180927052Y-113525337D02*
X174425052Y-113525337D01*
X174425052Y-107623337D01*
X180927052Y-107623337D01*
X180927052Y-113525337D01*
X180927052Y-113525337D01*
G37*
G36*
X185352012Y-113521028D02*
X183050012Y-113521028D01*
X183050012Y-112219028D01*
X185352012Y-112219028D01*
X185352012Y-113521028D01*
X185352012Y-113521028D01*
G37*
G36*
X142984253Y-113508625D02*
X136482253Y-113508625D01*
X136482253Y-107606625D01*
X142984253Y-107606625D01*
X142984253Y-113508625D01*
X142984253Y-113508625D01*
G37*
G36*
X155684253Y-113508625D02*
X149182253Y-113508625D01*
X149182253Y-107606625D01*
X155684253Y-107606625D01*
X155684253Y-113508625D01*
X155684253Y-113508625D01*
G37*
G36*
X172527052Y-113505337D02*
X170225052Y-113505337D01*
X170225052Y-112203337D01*
X172527052Y-112203337D01*
X172527052Y-113505337D01*
X172527052Y-113505337D01*
G37*
G36*
X159827052Y-113505337D02*
X157525052Y-113505337D01*
X157525052Y-112203337D01*
X159827052Y-112203337D01*
X159827052Y-113505337D01*
X159827052Y-113505337D01*
G37*
G36*
X147284253Y-113488625D02*
X144982253Y-113488625D01*
X144982253Y-112186625D01*
X147284253Y-112186625D01*
X147284253Y-113488625D01*
X147284253Y-113488625D01*
G37*
G36*
X134584253Y-113488625D02*
X132282253Y-113488625D01*
X132282253Y-112186625D01*
X134584253Y-112186625D01*
X134584253Y-113488625D01*
X134584253Y-113488625D01*
G37*
G36*
X117619000Y-113441000D02*
X111117000Y-113441000D01*
X111117000Y-107539000D01*
X117619000Y-107539000D01*
X117619000Y-113441000D01*
X117619000Y-113441000D01*
G37*
G36*
X130319000Y-113441000D02*
X123817000Y-113441000D01*
X123817000Y-107539000D01*
X130319000Y-107539000D01*
X130319000Y-113441000D01*
X130319000Y-113441000D01*
G37*
G36*
X121919000Y-113421000D02*
X119617000Y-113421000D01*
X119617000Y-112119000D01*
X121919000Y-112119000D01*
X121919000Y-113421000D01*
X121919000Y-113421000D01*
G37*
G36*
X109219000Y-113421000D02*
X106917000Y-113421000D01*
X106917000Y-112119000D01*
X109219000Y-112119000D01*
X109219000Y-113421000D01*
X109219000Y-113421000D01*
G37*
G36*
X185352012Y-108961028D02*
X183050012Y-108961028D01*
X183050012Y-107659028D01*
X185352012Y-107659028D01*
X185352012Y-108961028D01*
X185352012Y-108961028D01*
G37*
G36*
X172527052Y-108945337D02*
X170225052Y-108945337D01*
X170225052Y-107643337D01*
X172527052Y-107643337D01*
X172527052Y-108945337D01*
X172527052Y-108945337D01*
G37*
G36*
X159827052Y-108945337D02*
X157525052Y-108945337D01*
X157525052Y-107643337D01*
X159827052Y-107643337D01*
X159827052Y-108945337D01*
X159827052Y-108945337D01*
G37*
G36*
X147284253Y-108928625D02*
X144982253Y-108928625D01*
X144982253Y-107626625D01*
X147284253Y-107626625D01*
X147284253Y-108928625D01*
X147284253Y-108928625D01*
G37*
G36*
X134584253Y-108928625D02*
X132282253Y-108928625D01*
X132282253Y-107626625D01*
X134584253Y-107626625D01*
X134584253Y-108928625D01*
X134584253Y-108928625D01*
G37*
G36*
X109219000Y-108861000D02*
X106917000Y-108861000D01*
X106917000Y-107559000D01*
X109219000Y-107559000D01*
X109219000Y-108861000D01*
X109219000Y-108861000D01*
G37*
G36*
X121919000Y-108861000D02*
X119617000Y-108861000D01*
X119617000Y-107559000D01*
X121919000Y-107559000D01*
X121919000Y-108861000D01*
X121919000Y-108861000D01*
G37*
G36*
X186516677Y-105051465D02*
X186554364Y-105062898D01*
X186589103Y-105081466D01*
X186619548Y-105106452D01*
X186644534Y-105136897D01*
X186663102Y-105171636D01*
X186674535Y-105209323D01*
X186679000Y-105254661D01*
X186679000Y-106091339D01*
X186674535Y-106136677D01*
X186663102Y-106174364D01*
X186644534Y-106209103D01*
X186619548Y-106239548D01*
X186589103Y-106264534D01*
X186554364Y-106283102D01*
X186516677Y-106294535D01*
X186471339Y-106299000D01*
X185384661Y-106299000D01*
X185339323Y-106294535D01*
X185301636Y-106283102D01*
X185266897Y-106264534D01*
X185236452Y-106239548D01*
X185211466Y-106209103D01*
X185192898Y-106174364D01*
X185181465Y-106136677D01*
X185177000Y-106091339D01*
X185177000Y-105254661D01*
X185181465Y-105209323D01*
X185192898Y-105171636D01*
X185211466Y-105136897D01*
X185236452Y-105106452D01*
X185266897Y-105081466D01*
X185301636Y-105062898D01*
X185339323Y-105051465D01*
X185384661Y-105047000D01*
X186471339Y-105047000D01*
X186516677Y-105051465D01*
X186516677Y-105051465D01*
G37*
G36*
X173816677Y-105051465D02*
X173854364Y-105062898D01*
X173889103Y-105081466D01*
X173919548Y-105106452D01*
X173944534Y-105136897D01*
X173963102Y-105171636D01*
X173974535Y-105209323D01*
X173979000Y-105254661D01*
X173979000Y-106091339D01*
X173974535Y-106136677D01*
X173963102Y-106174364D01*
X173944534Y-106209103D01*
X173919548Y-106239548D01*
X173889103Y-106264534D01*
X173854364Y-106283102D01*
X173816677Y-106294535D01*
X173771339Y-106299000D01*
X172684661Y-106299000D01*
X172639323Y-106294535D01*
X172601636Y-106283102D01*
X172566897Y-106264534D01*
X172536452Y-106239548D01*
X172511466Y-106209103D01*
X172492898Y-106174364D01*
X172481465Y-106136677D01*
X172477000Y-106091339D01*
X172477000Y-105254661D01*
X172481465Y-105209323D01*
X172492898Y-105171636D01*
X172511466Y-105136897D01*
X172536452Y-105106452D01*
X172566897Y-105081466D01*
X172601636Y-105062898D01*
X172639323Y-105051465D01*
X172684661Y-105047000D01*
X173771339Y-105047000D01*
X173816677Y-105051465D01*
X173816677Y-105051465D01*
G37*
G36*
X161116677Y-105051465D02*
X161154364Y-105062898D01*
X161189103Y-105081466D01*
X161219548Y-105106452D01*
X161244534Y-105136897D01*
X161263102Y-105171636D01*
X161274535Y-105209323D01*
X161279000Y-105254661D01*
X161279000Y-106091339D01*
X161274535Y-106136677D01*
X161263102Y-106174364D01*
X161244534Y-106209103D01*
X161219548Y-106239548D01*
X161189103Y-106264534D01*
X161154364Y-106283102D01*
X161116677Y-106294535D01*
X161071339Y-106299000D01*
X159984661Y-106299000D01*
X159939323Y-106294535D01*
X159901636Y-106283102D01*
X159866897Y-106264534D01*
X159836452Y-106239548D01*
X159811466Y-106209103D01*
X159792898Y-106174364D01*
X159781465Y-106136677D01*
X159777000Y-106091339D01*
X159777000Y-105254661D01*
X159781465Y-105209323D01*
X159792898Y-105171636D01*
X159811466Y-105136897D01*
X159836452Y-105106452D01*
X159866897Y-105081466D01*
X159901636Y-105062898D01*
X159939323Y-105051465D01*
X159984661Y-105047000D01*
X161071339Y-105047000D01*
X161116677Y-105051465D01*
X161116677Y-105051465D01*
G37*
G36*
X148416677Y-105051465D02*
X148454364Y-105062898D01*
X148489103Y-105081466D01*
X148519548Y-105106452D01*
X148544534Y-105136897D01*
X148563102Y-105171636D01*
X148574535Y-105209323D01*
X148579000Y-105254661D01*
X148579000Y-106091339D01*
X148574535Y-106136677D01*
X148563102Y-106174364D01*
X148544534Y-106209103D01*
X148519548Y-106239548D01*
X148489103Y-106264534D01*
X148454364Y-106283102D01*
X148416677Y-106294535D01*
X148371339Y-106299000D01*
X147284661Y-106299000D01*
X147239323Y-106294535D01*
X147201636Y-106283102D01*
X147166897Y-106264534D01*
X147136452Y-106239548D01*
X147111466Y-106209103D01*
X147092898Y-106174364D01*
X147081465Y-106136677D01*
X147077000Y-106091339D01*
X147077000Y-105254661D01*
X147081465Y-105209323D01*
X147092898Y-105171636D01*
X147111466Y-105136897D01*
X147136452Y-105106452D01*
X147166897Y-105081466D01*
X147201636Y-105062898D01*
X147239323Y-105051465D01*
X147284661Y-105047000D01*
X148371339Y-105047000D01*
X148416677Y-105051465D01*
X148416677Y-105051465D01*
G37*
G36*
X135716677Y-105051465D02*
X135754364Y-105062898D01*
X135789103Y-105081466D01*
X135819548Y-105106452D01*
X135844534Y-105136897D01*
X135863102Y-105171636D01*
X135874535Y-105209323D01*
X135879000Y-105254661D01*
X135879000Y-106091339D01*
X135874535Y-106136677D01*
X135863102Y-106174364D01*
X135844534Y-106209103D01*
X135819548Y-106239548D01*
X135789103Y-106264534D01*
X135754364Y-106283102D01*
X135716677Y-106294535D01*
X135671339Y-106299000D01*
X134584661Y-106299000D01*
X134539323Y-106294535D01*
X134501636Y-106283102D01*
X134466897Y-106264534D01*
X134436452Y-106239548D01*
X134411466Y-106209103D01*
X134392898Y-106174364D01*
X134381465Y-106136677D01*
X134377000Y-106091339D01*
X134377000Y-105254661D01*
X134381465Y-105209323D01*
X134392898Y-105171636D01*
X134411466Y-105136897D01*
X134436452Y-105106452D01*
X134466897Y-105081466D01*
X134501636Y-105062898D01*
X134539323Y-105051465D01*
X134584661Y-105047000D01*
X135671339Y-105047000D01*
X135716677Y-105051465D01*
X135716677Y-105051465D01*
G37*
G36*
X123016677Y-105051465D02*
X123054364Y-105062898D01*
X123089103Y-105081466D01*
X123119548Y-105106452D01*
X123144534Y-105136897D01*
X123163102Y-105171636D01*
X123174535Y-105209323D01*
X123179000Y-105254661D01*
X123179000Y-106091339D01*
X123174535Y-106136677D01*
X123163102Y-106174364D01*
X123144534Y-106209103D01*
X123119548Y-106239548D01*
X123089103Y-106264534D01*
X123054364Y-106283102D01*
X123016677Y-106294535D01*
X122971339Y-106299000D01*
X121884661Y-106299000D01*
X121839323Y-106294535D01*
X121801636Y-106283102D01*
X121766897Y-106264534D01*
X121736452Y-106239548D01*
X121711466Y-106209103D01*
X121692898Y-106174364D01*
X121681465Y-106136677D01*
X121677000Y-106091339D01*
X121677000Y-105254661D01*
X121681465Y-105209323D01*
X121692898Y-105171636D01*
X121711466Y-105136897D01*
X121736452Y-105106452D01*
X121766897Y-105081466D01*
X121801636Y-105062898D01*
X121839323Y-105051465D01*
X121884661Y-105047000D01*
X122971339Y-105047000D01*
X123016677Y-105051465D01*
X123016677Y-105051465D01*
G37*
G36*
X110316677Y-105051465D02*
X110354364Y-105062898D01*
X110389103Y-105081466D01*
X110419548Y-105106452D01*
X110444534Y-105136897D01*
X110463102Y-105171636D01*
X110474535Y-105209323D01*
X110479000Y-105254661D01*
X110479000Y-106091339D01*
X110474535Y-106136677D01*
X110463102Y-106174364D01*
X110444534Y-106209103D01*
X110419548Y-106239548D01*
X110389103Y-106264534D01*
X110354364Y-106283102D01*
X110316677Y-106294535D01*
X110271339Y-106299000D01*
X109184661Y-106299000D01*
X109139323Y-106294535D01*
X109101636Y-106283102D01*
X109066897Y-106264534D01*
X109036452Y-106239548D01*
X109011466Y-106209103D01*
X108992898Y-106174364D01*
X108981465Y-106136677D01*
X108977000Y-106091339D01*
X108977000Y-105254661D01*
X108981465Y-105209323D01*
X108992898Y-105171636D01*
X109011466Y-105136897D01*
X109036452Y-105106452D01*
X109066897Y-105081466D01*
X109101636Y-105062898D01*
X109139323Y-105051465D01*
X109184661Y-105047000D01*
X110271339Y-105047000D01*
X110316677Y-105051465D01*
X110316677Y-105051465D01*
G37*
G36*
X135716677Y-103001465D02*
X135754364Y-103012898D01*
X135789103Y-103031466D01*
X135819548Y-103056452D01*
X135844534Y-103086897D01*
X135863102Y-103121636D01*
X135874535Y-103159323D01*
X135879000Y-103204661D01*
X135879000Y-104041339D01*
X135874535Y-104086677D01*
X135863102Y-104124364D01*
X135844534Y-104159103D01*
X135819548Y-104189548D01*
X135789103Y-104214534D01*
X135754364Y-104233102D01*
X135716677Y-104244535D01*
X135671339Y-104249000D01*
X134584661Y-104249000D01*
X134539323Y-104244535D01*
X134501636Y-104233102D01*
X134466897Y-104214534D01*
X134436452Y-104189548D01*
X134411466Y-104159103D01*
X134392898Y-104124364D01*
X134381465Y-104086677D01*
X134377000Y-104041339D01*
X134377000Y-103204661D01*
X134381465Y-103159323D01*
X134392898Y-103121636D01*
X134411466Y-103086897D01*
X134436452Y-103056452D01*
X134466897Y-103031466D01*
X134501636Y-103012898D01*
X134539323Y-103001465D01*
X134584661Y-102997000D01*
X135671339Y-102997000D01*
X135716677Y-103001465D01*
X135716677Y-103001465D01*
G37*
G36*
X186516677Y-103001465D02*
X186554364Y-103012898D01*
X186589103Y-103031466D01*
X186619548Y-103056452D01*
X186644534Y-103086897D01*
X186663102Y-103121636D01*
X186674535Y-103159323D01*
X186679000Y-103204661D01*
X186679000Y-104041339D01*
X186674535Y-104086677D01*
X186663102Y-104124364D01*
X186644534Y-104159103D01*
X186619548Y-104189548D01*
X186589103Y-104214534D01*
X186554364Y-104233102D01*
X186516677Y-104244535D01*
X186471339Y-104249000D01*
X185384661Y-104249000D01*
X185339323Y-104244535D01*
X185301636Y-104233102D01*
X185266897Y-104214534D01*
X185236452Y-104189548D01*
X185211466Y-104159103D01*
X185192898Y-104124364D01*
X185181465Y-104086677D01*
X185177000Y-104041339D01*
X185177000Y-103204661D01*
X185181465Y-103159323D01*
X185192898Y-103121636D01*
X185211466Y-103086897D01*
X185236452Y-103056452D01*
X185266897Y-103031466D01*
X185301636Y-103012898D01*
X185339323Y-103001465D01*
X185384661Y-102997000D01*
X186471339Y-102997000D01*
X186516677Y-103001465D01*
X186516677Y-103001465D01*
G37*
G36*
X161116677Y-103001465D02*
X161154364Y-103012898D01*
X161189103Y-103031466D01*
X161219548Y-103056452D01*
X161244534Y-103086897D01*
X161263102Y-103121636D01*
X161274535Y-103159323D01*
X161279000Y-103204661D01*
X161279000Y-104041339D01*
X161274535Y-104086677D01*
X161263102Y-104124364D01*
X161244534Y-104159103D01*
X161219548Y-104189548D01*
X161189103Y-104214534D01*
X161154364Y-104233102D01*
X161116677Y-104244535D01*
X161071339Y-104249000D01*
X159984661Y-104249000D01*
X159939323Y-104244535D01*
X159901636Y-104233102D01*
X159866897Y-104214534D01*
X159836452Y-104189548D01*
X159811466Y-104159103D01*
X159792898Y-104124364D01*
X159781465Y-104086677D01*
X159777000Y-104041339D01*
X159777000Y-103204661D01*
X159781465Y-103159323D01*
X159792898Y-103121636D01*
X159811466Y-103086897D01*
X159836452Y-103056452D01*
X159866897Y-103031466D01*
X159901636Y-103012898D01*
X159939323Y-103001465D01*
X159984661Y-102997000D01*
X161071339Y-102997000D01*
X161116677Y-103001465D01*
X161116677Y-103001465D01*
G37*
G36*
X148416677Y-103001465D02*
X148454364Y-103012898D01*
X148489103Y-103031466D01*
X148519548Y-103056452D01*
X148544534Y-103086897D01*
X148563102Y-103121636D01*
X148574535Y-103159323D01*
X148579000Y-103204661D01*
X148579000Y-104041339D01*
X148574535Y-104086677D01*
X148563102Y-104124364D01*
X148544534Y-104159103D01*
X148519548Y-104189548D01*
X148489103Y-104214534D01*
X148454364Y-104233102D01*
X148416677Y-104244535D01*
X148371339Y-104249000D01*
X147284661Y-104249000D01*
X147239323Y-104244535D01*
X147201636Y-104233102D01*
X147166897Y-104214534D01*
X147136452Y-104189548D01*
X147111466Y-104159103D01*
X147092898Y-104124364D01*
X147081465Y-104086677D01*
X147077000Y-104041339D01*
X147077000Y-103204661D01*
X147081465Y-103159323D01*
X147092898Y-103121636D01*
X147111466Y-103086897D01*
X147136452Y-103056452D01*
X147166897Y-103031466D01*
X147201636Y-103012898D01*
X147239323Y-103001465D01*
X147284661Y-102997000D01*
X148371339Y-102997000D01*
X148416677Y-103001465D01*
X148416677Y-103001465D01*
G37*
G36*
X110316677Y-103001465D02*
X110354364Y-103012898D01*
X110389103Y-103031466D01*
X110419548Y-103056452D01*
X110444534Y-103086897D01*
X110463102Y-103121636D01*
X110474535Y-103159323D01*
X110479000Y-103204661D01*
X110479000Y-104041339D01*
X110474535Y-104086677D01*
X110463102Y-104124364D01*
X110444534Y-104159103D01*
X110419548Y-104189548D01*
X110389103Y-104214534D01*
X110354364Y-104233102D01*
X110316677Y-104244535D01*
X110271339Y-104249000D01*
X109184661Y-104249000D01*
X109139323Y-104244535D01*
X109101636Y-104233102D01*
X109066897Y-104214534D01*
X109036452Y-104189548D01*
X109011466Y-104159103D01*
X108992898Y-104124364D01*
X108981465Y-104086677D01*
X108977000Y-104041339D01*
X108977000Y-103204661D01*
X108981465Y-103159323D01*
X108992898Y-103121636D01*
X109011466Y-103086897D01*
X109036452Y-103056452D01*
X109066897Y-103031466D01*
X109101636Y-103012898D01*
X109139323Y-103001465D01*
X109184661Y-102997000D01*
X110271339Y-102997000D01*
X110316677Y-103001465D01*
X110316677Y-103001465D01*
G37*
G36*
X123016677Y-103001465D02*
X123054364Y-103012898D01*
X123089103Y-103031466D01*
X123119548Y-103056452D01*
X123144534Y-103086897D01*
X123163102Y-103121636D01*
X123174535Y-103159323D01*
X123179000Y-103204661D01*
X123179000Y-104041339D01*
X123174535Y-104086677D01*
X123163102Y-104124364D01*
X123144534Y-104159103D01*
X123119548Y-104189548D01*
X123089103Y-104214534D01*
X123054364Y-104233102D01*
X123016677Y-104244535D01*
X122971339Y-104249000D01*
X121884661Y-104249000D01*
X121839323Y-104244535D01*
X121801636Y-104233102D01*
X121766897Y-104214534D01*
X121736452Y-104189548D01*
X121711466Y-104159103D01*
X121692898Y-104124364D01*
X121681465Y-104086677D01*
X121677000Y-104041339D01*
X121677000Y-103204661D01*
X121681465Y-103159323D01*
X121692898Y-103121636D01*
X121711466Y-103086897D01*
X121736452Y-103056452D01*
X121766897Y-103031466D01*
X121801636Y-103012898D01*
X121839323Y-103001465D01*
X121884661Y-102997000D01*
X122971339Y-102997000D01*
X123016677Y-103001465D01*
X123016677Y-103001465D01*
G37*
G36*
X173816677Y-103001465D02*
X173854364Y-103012898D01*
X173889103Y-103031466D01*
X173919548Y-103056452D01*
X173944534Y-103086897D01*
X173963102Y-103121636D01*
X173974535Y-103159323D01*
X173979000Y-103204661D01*
X173979000Y-104041339D01*
X173974535Y-104086677D01*
X173963102Y-104124364D01*
X173944534Y-104159103D01*
X173919548Y-104189548D01*
X173889103Y-104214534D01*
X173854364Y-104233102D01*
X173816677Y-104244535D01*
X173771339Y-104249000D01*
X172684661Y-104249000D01*
X172639323Y-104244535D01*
X172601636Y-104233102D01*
X172566897Y-104214534D01*
X172536452Y-104189548D01*
X172511466Y-104159103D01*
X172492898Y-104124364D01*
X172481465Y-104086677D01*
X172477000Y-104041339D01*
X172477000Y-103204661D01*
X172481465Y-103159323D01*
X172492898Y-103121636D01*
X172511466Y-103086897D01*
X172536452Y-103056452D01*
X172566897Y-103031466D01*
X172601636Y-103012898D01*
X172639323Y-103001465D01*
X172684661Y-102997000D01*
X173771339Y-102997000D01*
X173816677Y-103001465D01*
X173816677Y-103001465D01*
G37*
G36*
X206960012Y-103825528D02*
X200458012Y-103825528D01*
X200458012Y-97923528D01*
X206960012Y-97923528D01*
X206960012Y-103825528D01*
X206960012Y-103825528D01*
G37*
G36*
X198560012Y-103805528D02*
X196258012Y-103805528D01*
X196258012Y-102503528D01*
X198560012Y-102503528D01*
X198560012Y-103805528D01*
X198560012Y-103805528D01*
G37*
G36*
X107829331Y-98288211D02*
X108157092Y-98423974D01*
X108452073Y-98621074D01*
X108702926Y-98871927D01*
X108900026Y-99166908D01*
X109035789Y-99494669D01*
X109105000Y-99842616D01*
X109105000Y-100197384D01*
X109035789Y-100545331D01*
X108900026Y-100873092D01*
X108702926Y-101168073D01*
X108452073Y-101418926D01*
X108157092Y-101616026D01*
X107829331Y-101751789D01*
X107481384Y-101821000D01*
X107126616Y-101821000D01*
X106778669Y-101751789D01*
X106450908Y-101616026D01*
X106155927Y-101418926D01*
X105905074Y-101168073D01*
X105707974Y-100873092D01*
X105572211Y-100545331D01*
X105503000Y-100197384D01*
X105503000Y-99842616D01*
X105572211Y-99494669D01*
X105707974Y-99166908D01*
X105905074Y-98871927D01*
X106155927Y-98621074D01*
X106450908Y-98423974D01*
X106778669Y-98288211D01*
X107126616Y-98219000D01*
X107481384Y-98219000D01*
X107829331Y-98288211D01*
X107829331Y-98288211D01*
G37*
G36*
X198560012Y-99245528D02*
X196258012Y-99245528D01*
X196258012Y-97943528D01*
X198560012Y-97943528D01*
X198560012Y-99245528D01*
X198560012Y-99245528D01*
G37*
G36*
X196052677Y-95265465D02*
X196090364Y-95276898D01*
X196125103Y-95295466D01*
X196155548Y-95320452D01*
X196180534Y-95350897D01*
X196199102Y-95385636D01*
X196210535Y-95423323D01*
X196215000Y-95468661D01*
X196215000Y-96555339D01*
X196210535Y-96600677D01*
X196199102Y-96638364D01*
X196180534Y-96673103D01*
X196155548Y-96703548D01*
X196125103Y-96728534D01*
X196090364Y-96747102D01*
X196052677Y-96758535D01*
X196007339Y-96763000D01*
X195170661Y-96763000D01*
X195125323Y-96758535D01*
X195087636Y-96747102D01*
X195052897Y-96728534D01*
X195022452Y-96703548D01*
X194997466Y-96673103D01*
X194978898Y-96638364D01*
X194967465Y-96600677D01*
X194963000Y-96555339D01*
X194963000Y-95468661D01*
X194967465Y-95423323D01*
X194978898Y-95385636D01*
X194997466Y-95350897D01*
X195022452Y-95320452D01*
X195052897Y-95295466D01*
X195087636Y-95276898D01*
X195125323Y-95265465D01*
X195170661Y-95261000D01*
X196007339Y-95261000D01*
X196052677Y-95265465D01*
X196052677Y-95265465D01*
G37*
G36*
X194002677Y-95265465D02*
X194040364Y-95276898D01*
X194075103Y-95295466D01*
X194105548Y-95320452D01*
X194130534Y-95350897D01*
X194149102Y-95385636D01*
X194160535Y-95423323D01*
X194165000Y-95468661D01*
X194165000Y-96555339D01*
X194160535Y-96600677D01*
X194149102Y-96638364D01*
X194130534Y-96673103D01*
X194105548Y-96703548D01*
X194075103Y-96728534D01*
X194040364Y-96747102D01*
X194002677Y-96758535D01*
X193957339Y-96763000D01*
X193120661Y-96763000D01*
X193075323Y-96758535D01*
X193037636Y-96747102D01*
X193002897Y-96728534D01*
X192972452Y-96703548D01*
X192947466Y-96673103D01*
X192928898Y-96638364D01*
X192917465Y-96600677D01*
X192913000Y-96555339D01*
X192913000Y-95468661D01*
X192917465Y-95423323D01*
X192928898Y-95385636D01*
X192947466Y-95350897D01*
X192972452Y-95320452D01*
X193002897Y-95295466D01*
X193037636Y-95276898D01*
X193075323Y-95265465D01*
X193120661Y-95261000D01*
X193957339Y-95261000D01*
X194002677Y-95265465D01*
X194002677Y-95265465D01*
G37*
G36*
X110276812Y-94383624D02*
X110440784Y-94451544D01*
X110588354Y-94550147D01*
X110713853Y-94675646D01*
X110812456Y-94823216D01*
X110872520Y-94968223D01*
X110884066Y-94989824D01*
X110899612Y-95008766D01*
X110918554Y-95024312D01*
X110940165Y-95035863D01*
X110963614Y-95042976D01*
X110988000Y-95045378D01*
X111012386Y-95042976D01*
X111035835Y-95035863D01*
X111057446Y-95024312D01*
X111076388Y-95008766D01*
X111091934Y-94989824D01*
X111103485Y-94968213D01*
X111110598Y-94944764D01*
X111113000Y-94920378D01*
X111113000Y-94349000D01*
X112915000Y-94349000D01*
X112915000Y-96151000D01*
X111113000Y-96151000D01*
X111113000Y-95579622D01*
X111110598Y-95555236D01*
X111103485Y-95531787D01*
X111091934Y-95510176D01*
X111076388Y-95491234D01*
X111057446Y-95475688D01*
X111035835Y-95464137D01*
X111012386Y-95457024D01*
X110988000Y-95454622D01*
X110963614Y-95457024D01*
X110940165Y-95464137D01*
X110918554Y-95475688D01*
X110899612Y-95491234D01*
X110884066Y-95510176D01*
X110872520Y-95531777D01*
X110812456Y-95676784D01*
X110713853Y-95824354D01*
X110588354Y-95949853D01*
X110440784Y-96048456D01*
X110276812Y-96116376D01*
X110102741Y-96151000D01*
X109925259Y-96151000D01*
X109751188Y-96116376D01*
X109587216Y-96048456D01*
X109439646Y-95949853D01*
X109314147Y-95824354D01*
X109215544Y-95676784D01*
X109147624Y-95512812D01*
X109113000Y-95338741D01*
X109113000Y-95161259D01*
X109147624Y-94987188D01*
X109215544Y-94823216D01*
X109314147Y-94675646D01*
X109439646Y-94550147D01*
X109587216Y-94451544D01*
X109751188Y-94383624D01*
X109925259Y-94349000D01*
X110102741Y-94349000D01*
X110276812Y-94383624D01*
X110276812Y-94383624D01*
G37*
G36*
X110276812Y-91883624D02*
X110440784Y-91951544D01*
X110588354Y-92050147D01*
X110713853Y-92175646D01*
X110812456Y-92323216D01*
X110880376Y-92487188D01*
X110891404Y-92542633D01*
X110898515Y-92566074D01*
X110910067Y-92587685D01*
X110925612Y-92606627D01*
X110944554Y-92622172D01*
X110966165Y-92633723D01*
X110989614Y-92640836D01*
X111014000Y-92643238D01*
X111038387Y-92640836D01*
X111061836Y-92633723D01*
X111083447Y-92622171D01*
X111102389Y-92606626D01*
X111117934Y-92587684D01*
X111129485Y-92566073D01*
X111136596Y-92542633D01*
X111147624Y-92487188D01*
X111215544Y-92323216D01*
X111314147Y-92175646D01*
X111439646Y-92050147D01*
X111587216Y-91951544D01*
X111751188Y-91883624D01*
X111925259Y-91849000D01*
X112102741Y-91849000D01*
X112276812Y-91883624D01*
X112440784Y-91951544D01*
X112588354Y-92050147D01*
X112713853Y-92175646D01*
X112812456Y-92323216D01*
X112880376Y-92487188D01*
X112915000Y-92661259D01*
X112915000Y-92838741D01*
X112880376Y-93012812D01*
X112812456Y-93176784D01*
X112713853Y-93324354D01*
X112588354Y-93449853D01*
X112440784Y-93548456D01*
X112276812Y-93616376D01*
X112102741Y-93651000D01*
X111925259Y-93651000D01*
X111751188Y-93616376D01*
X111587216Y-93548456D01*
X111439646Y-93449853D01*
X111314147Y-93324354D01*
X111215544Y-93176784D01*
X111147624Y-93012812D01*
X111136596Y-92957367D01*
X111129485Y-92933926D01*
X111117933Y-92912315D01*
X111102388Y-92893373D01*
X111083446Y-92877828D01*
X111061835Y-92866277D01*
X111038386Y-92859164D01*
X111014000Y-92856762D01*
X110989613Y-92859164D01*
X110966164Y-92866277D01*
X110944553Y-92877829D01*
X110925611Y-92893374D01*
X110910066Y-92912316D01*
X110898515Y-92933927D01*
X110891404Y-92957367D01*
X110880376Y-93012812D01*
X110812456Y-93176784D01*
X110713853Y-93324354D01*
X110588354Y-93449853D01*
X110440784Y-93548456D01*
X110276812Y-93616376D01*
X110102741Y-93651000D01*
X109925259Y-93651000D01*
X109751188Y-93616376D01*
X109587216Y-93548456D01*
X109439646Y-93449853D01*
X109314147Y-93324354D01*
X109215544Y-93176784D01*
X109147624Y-93012812D01*
X109113000Y-92838741D01*
X109113000Y-92661259D01*
X109147624Y-92487188D01*
X109215544Y-92323216D01*
X109314147Y-92175646D01*
X109439646Y-92050147D01*
X109587216Y-91951544D01*
X109751188Y-91883624D01*
X109925259Y-91849000D01*
X110102741Y-91849000D01*
X110276812Y-91883624D01*
X110276812Y-91883624D01*
G37*
G36*
X205376000Y-90581000D02*
X198874000Y-90581000D01*
X198874000Y-84679000D01*
X205376000Y-84679000D01*
X205376000Y-90581000D01*
X205376000Y-90581000D01*
G37*
G36*
X196976000Y-90561000D02*
X194674000Y-90561000D01*
X194674000Y-89259000D01*
X196976000Y-89259000D01*
X196976000Y-90561000D01*
X196976000Y-90561000D01*
G37*
G36*
X107829331Y-86248211D02*
X108157092Y-86383974D01*
X108452073Y-86581074D01*
X108702926Y-86831927D01*
X108900026Y-87126908D01*
X109035789Y-87454669D01*
X109105000Y-87802616D01*
X109105000Y-88157384D01*
X109035789Y-88505331D01*
X108900026Y-88833092D01*
X108702926Y-89128073D01*
X108452073Y-89378926D01*
X108157092Y-89576026D01*
X107829331Y-89711789D01*
X107481384Y-89781000D01*
X107126616Y-89781000D01*
X106778669Y-89711789D01*
X106450908Y-89576026D01*
X106155927Y-89378926D01*
X105905074Y-89128073D01*
X105707974Y-88833092D01*
X105572211Y-88505331D01*
X105503000Y-88157384D01*
X105503000Y-87802616D01*
X105572211Y-87454669D01*
X105707974Y-87126908D01*
X105905074Y-86831927D01*
X106155927Y-86581074D01*
X106450908Y-86383974D01*
X106778669Y-86248211D01*
X107126616Y-86179000D01*
X107481384Y-86179000D01*
X107829331Y-86248211D01*
X107829331Y-86248211D01*
G37*
G36*
X196976000Y-86001000D02*
X194674000Y-86001000D01*
X194674000Y-84699000D01*
X196976000Y-84699000D01*
X196976000Y-86001000D01*
X196976000Y-86001000D01*
G37*
G36*
X109526565Y-78419389D02*
X109717834Y-78498615D01*
X109889976Y-78613637D01*
X110036363Y-78760024D01*
X110151385Y-78932166D01*
X110230611Y-79123435D01*
X110271000Y-79326484D01*
X110271000Y-79533516D01*
X110230611Y-79736565D01*
X110151385Y-79927834D01*
X110036363Y-80099976D01*
X109889976Y-80246363D01*
X109717834Y-80361385D01*
X109526565Y-80440611D01*
X109323516Y-80481000D01*
X109116484Y-80481000D01*
X108913435Y-80440611D01*
X108722166Y-80361385D01*
X108550024Y-80246363D01*
X108403637Y-80099976D01*
X108288615Y-79927834D01*
X108209389Y-79736565D01*
X108169000Y-79533516D01*
X108169000Y-79326484D01*
X108209389Y-79123435D01*
X108288615Y-78932166D01*
X108403637Y-78760024D01*
X108550024Y-78613637D01*
X108722166Y-78498615D01*
X108913435Y-78419389D01*
X109116484Y-78379000D01*
X109323516Y-78379000D01*
X109526565Y-78419389D01*
X109526565Y-78419389D01*
G37*
G36*
X103026565Y-78419389D02*
X103217834Y-78498615D01*
X103389976Y-78613637D01*
X103536363Y-78760024D01*
X103651385Y-78932166D01*
X103730611Y-79123435D01*
X103771000Y-79326484D01*
X103771000Y-79533516D01*
X103730611Y-79736565D01*
X103651385Y-79927834D01*
X103536363Y-80099976D01*
X103389976Y-80246363D01*
X103217834Y-80361385D01*
X103026565Y-80440611D01*
X102823516Y-80481000D01*
X102616484Y-80481000D01*
X102413435Y-80440611D01*
X102222166Y-80361385D01*
X102050024Y-80246363D01*
X101903637Y-80099976D01*
X101788615Y-79927834D01*
X101709389Y-79736565D01*
X101669000Y-79533516D01*
X101669000Y-79326484D01*
X101709389Y-79123435D01*
X101788615Y-78932166D01*
X101903637Y-78760024D01*
X102050024Y-78613637D01*
X102222166Y-78498615D01*
X102413435Y-78419389D01*
X102616484Y-78379000D01*
X102823516Y-78379000D01*
X103026565Y-78419389D01*
X103026565Y-78419389D01*
G37*
G36*
X133655000Y-80061000D02*
X132029000Y-80061000D01*
X132029000Y-78435000D01*
X133655000Y-78435000D01*
X133655000Y-80061000D01*
X133655000Y-80061000D01*
G37*
G36*
X205376000Y-78516000D02*
X198874000Y-78516000D01*
X198874000Y-72614000D01*
X205376000Y-72614000D01*
X205376000Y-78516000D01*
X205376000Y-78516000D01*
G37*
G36*
X196976000Y-78496000D02*
X194674000Y-78496000D01*
X194674000Y-77194000D01*
X196976000Y-77194000D01*
X196976000Y-78496000D01*
X196976000Y-78496000D01*
G37*
G36*
X133655000Y-77521000D02*
X132029000Y-77521000D01*
X132029000Y-75895000D01*
X133655000Y-75895000D01*
X133655000Y-77521000D01*
X133655000Y-77521000D01*
G37*
G36*
X103026565Y-73919389D02*
X103217834Y-73998615D01*
X103389976Y-74113637D01*
X103536363Y-74260024D01*
X103651385Y-74432166D01*
X103730611Y-74623435D01*
X103771000Y-74826484D01*
X103771000Y-75033516D01*
X103730611Y-75236565D01*
X103651385Y-75427834D01*
X103536363Y-75599976D01*
X103389976Y-75746363D01*
X103217834Y-75861385D01*
X103026565Y-75940611D01*
X102823516Y-75981000D01*
X102616484Y-75981000D01*
X102413435Y-75940611D01*
X102222166Y-75861385D01*
X102050024Y-75746363D01*
X101903637Y-75599976D01*
X101788615Y-75427834D01*
X101709389Y-75236565D01*
X101669000Y-75033516D01*
X101669000Y-74826484D01*
X101709389Y-74623435D01*
X101788615Y-74432166D01*
X101903637Y-74260024D01*
X102050024Y-74113637D01*
X102222166Y-73998615D01*
X102413435Y-73919389D01*
X102616484Y-73879000D01*
X102823516Y-73879000D01*
X103026565Y-73919389D01*
X103026565Y-73919389D01*
G37*
G36*
X109526565Y-73919389D02*
X109717834Y-73998615D01*
X109889976Y-74113637D01*
X110036363Y-74260024D01*
X110151385Y-74432166D01*
X110230611Y-74623435D01*
X110271000Y-74826484D01*
X110271000Y-75033516D01*
X110230611Y-75236565D01*
X110151385Y-75427834D01*
X110036363Y-75599976D01*
X109889976Y-75746363D01*
X109717834Y-75861385D01*
X109526565Y-75940611D01*
X109323516Y-75981000D01*
X109116484Y-75981000D01*
X108913435Y-75940611D01*
X108722166Y-75861385D01*
X108550024Y-75746363D01*
X108403637Y-75599976D01*
X108288615Y-75427834D01*
X108209389Y-75236565D01*
X108169000Y-75033516D01*
X108169000Y-74826484D01*
X108209389Y-74623435D01*
X108288615Y-74432166D01*
X108403637Y-74260024D01*
X108550024Y-74113637D01*
X108722166Y-73998615D01*
X108913435Y-73919389D01*
X109116484Y-73879000D01*
X109323516Y-73879000D01*
X109526565Y-73919389D01*
X109526565Y-73919389D01*
G37*
G36*
X133655000Y-74981000D02*
X132029000Y-74981000D01*
X132029000Y-73355000D01*
X133655000Y-73355000D01*
X133655000Y-74981000D01*
X133655000Y-74981000D01*
G37*
G36*
X196976000Y-73936000D02*
X194674000Y-73936000D01*
X194674000Y-72634000D01*
X196976000Y-72634000D01*
X196976000Y-73936000D01*
X196976000Y-73936000D01*
G37*
G36*
X133655000Y-72441000D02*
X132029000Y-72441000D01*
X132029000Y-70815000D01*
X133655000Y-70815000D01*
X133655000Y-72441000D01*
X133655000Y-72441000D01*
G37*
G36*
X103026565Y-66989389D02*
X103217834Y-67068615D01*
X103389976Y-67183637D01*
X103536363Y-67330024D01*
X103651385Y-67502166D01*
X103730611Y-67693435D01*
X103771000Y-67896484D01*
X103771000Y-68103516D01*
X103730611Y-68306565D01*
X103651385Y-68497834D01*
X103536363Y-68669976D01*
X103389976Y-68816363D01*
X103217834Y-68931385D01*
X103026565Y-69010611D01*
X102823516Y-69051000D01*
X102616484Y-69051000D01*
X102413435Y-69010611D01*
X102222166Y-68931385D01*
X102050024Y-68816363D01*
X101903637Y-68669976D01*
X101788615Y-68497834D01*
X101709389Y-68306565D01*
X101669000Y-68103516D01*
X101669000Y-67896484D01*
X101709389Y-67693435D01*
X101788615Y-67502166D01*
X101903637Y-67330024D01*
X102050024Y-67183637D01*
X102222166Y-67068615D01*
X102413435Y-66989389D01*
X102616484Y-66949000D01*
X102823516Y-66949000D01*
X103026565Y-66989389D01*
X103026565Y-66989389D01*
G37*
G36*
X109526565Y-66989389D02*
X109717834Y-67068615D01*
X109889976Y-67183637D01*
X110036363Y-67330024D01*
X110151385Y-67502166D01*
X110230611Y-67693435D01*
X110271000Y-67896484D01*
X110271000Y-68103516D01*
X110230611Y-68306565D01*
X110151385Y-68497834D01*
X110036363Y-68669976D01*
X109889976Y-68816363D01*
X109717834Y-68931385D01*
X109526565Y-69010611D01*
X109323516Y-69051000D01*
X109116484Y-69051000D01*
X108913435Y-69010611D01*
X108722166Y-68931385D01*
X108550024Y-68816363D01*
X108403637Y-68669976D01*
X108288615Y-68497834D01*
X108209389Y-68306565D01*
X108169000Y-68103516D01*
X108169000Y-67896484D01*
X108209389Y-67693435D01*
X108288615Y-67502166D01*
X108403637Y-67330024D01*
X108550024Y-67183637D01*
X108722166Y-67068615D01*
X108913435Y-66989389D01*
X109116484Y-66949000D01*
X109323516Y-66949000D01*
X109526565Y-66989389D01*
X109526565Y-66989389D01*
G37*
G36*
X202860925Y-65133941D02*
X202894569Y-65137254D01*
X202980901Y-65163443D01*
X203067234Y-65189632D01*
X203226365Y-65274689D01*
X203365844Y-65389156D01*
X203480311Y-65528635D01*
X203565368Y-65687766D01*
X203591557Y-65774099D01*
X203617746Y-65860431D01*
X203617746Y-65860433D01*
X203635432Y-66040000D01*
X203620656Y-66190018D01*
X203617746Y-66219569D01*
X203591557Y-66305901D01*
X203565368Y-66392234D01*
X203480311Y-66551365D01*
X203365844Y-66690844D01*
X203226365Y-66805311D01*
X203067234Y-66890368D01*
X202980900Y-66916557D01*
X202894569Y-66942746D01*
X202860925Y-66946060D01*
X202759998Y-66956000D01*
X202370002Y-66956000D01*
X202269075Y-66946060D01*
X202235431Y-66942746D01*
X202149100Y-66916557D01*
X202062766Y-66890368D01*
X201903635Y-66805311D01*
X201764156Y-66690844D01*
X201649689Y-66551365D01*
X201564632Y-66392234D01*
X201538443Y-66305901D01*
X201512254Y-66219569D01*
X201509344Y-66190018D01*
X201494568Y-66040000D01*
X201512254Y-65860433D01*
X201512254Y-65860431D01*
X201538443Y-65774099D01*
X201564632Y-65687766D01*
X201649689Y-65528635D01*
X201764156Y-65389156D01*
X201903635Y-65274689D01*
X202062766Y-65189632D01*
X202149099Y-65163443D01*
X202235431Y-65137254D01*
X202269075Y-65133941D01*
X202370002Y-65124000D01*
X202759998Y-65124000D01*
X202860925Y-65133941D01*
X202860925Y-65133941D01*
G37*
G36*
X103026565Y-62489389D02*
X103217834Y-62568615D01*
X103389976Y-62683637D01*
X103536363Y-62830024D01*
X103651385Y-63002166D01*
X103730611Y-63193435D01*
X103771000Y-63396484D01*
X103771000Y-63603516D01*
X103730611Y-63806565D01*
X103651385Y-63997834D01*
X103536363Y-64169976D01*
X103389976Y-64316363D01*
X103217834Y-64431385D01*
X103026565Y-64510611D01*
X102823516Y-64551000D01*
X102616484Y-64551000D01*
X102413435Y-64510611D01*
X102222166Y-64431385D01*
X102050024Y-64316363D01*
X101903637Y-64169976D01*
X101788615Y-63997834D01*
X101709389Y-63806565D01*
X101669000Y-63603516D01*
X101669000Y-63396484D01*
X101709389Y-63193435D01*
X101788615Y-63002166D01*
X101903637Y-62830024D01*
X102050024Y-62683637D01*
X102222166Y-62568615D01*
X102413435Y-62489389D01*
X102616484Y-62449000D01*
X102823516Y-62449000D01*
X103026565Y-62489389D01*
X103026565Y-62489389D01*
G37*
G36*
X109526565Y-62489389D02*
X109717834Y-62568615D01*
X109889976Y-62683637D01*
X110036363Y-62830024D01*
X110151385Y-63002166D01*
X110230611Y-63193435D01*
X110271000Y-63396484D01*
X110271000Y-63603516D01*
X110230611Y-63806565D01*
X110151385Y-63997834D01*
X110036363Y-64169976D01*
X109889976Y-64316363D01*
X109717834Y-64431385D01*
X109526565Y-64510611D01*
X109323516Y-64551000D01*
X109116484Y-64551000D01*
X108913435Y-64510611D01*
X108722166Y-64431385D01*
X108550024Y-64316363D01*
X108403637Y-64169976D01*
X108288615Y-63997834D01*
X108209389Y-63806565D01*
X108169000Y-63603516D01*
X108169000Y-63396484D01*
X108209389Y-63193435D01*
X108288615Y-63002166D01*
X108403637Y-62830024D01*
X108550024Y-62683637D01*
X108722166Y-62568615D01*
X108913435Y-62489389D01*
X109116484Y-62449000D01*
X109323516Y-62449000D01*
X109526565Y-62489389D01*
X109526565Y-62489389D01*
G37*
G36*
X202860925Y-62593940D02*
X202894569Y-62597254D01*
X202980901Y-62623443D01*
X203067234Y-62649632D01*
X203226365Y-62734689D01*
X203365844Y-62849156D01*
X203480311Y-62988635D01*
X203565368Y-63147766D01*
X203585860Y-63215320D01*
X203617746Y-63320431D01*
X203617746Y-63320433D01*
X203635432Y-63500000D01*
X203625236Y-63603516D01*
X203617746Y-63679569D01*
X203591557Y-63765900D01*
X203565368Y-63852234D01*
X203480311Y-64011365D01*
X203365844Y-64150844D01*
X203226365Y-64265311D01*
X203067234Y-64350368D01*
X202980901Y-64376557D01*
X202894569Y-64402746D01*
X202860925Y-64406059D01*
X202759998Y-64416000D01*
X202370002Y-64416000D01*
X202269075Y-64406059D01*
X202235431Y-64402746D01*
X202149100Y-64376557D01*
X202062766Y-64350368D01*
X201903635Y-64265311D01*
X201764156Y-64150844D01*
X201649689Y-64011365D01*
X201564632Y-63852234D01*
X201538443Y-63765900D01*
X201512254Y-63679569D01*
X201504764Y-63603516D01*
X201494568Y-63500000D01*
X201512254Y-63320433D01*
X201512254Y-63320431D01*
X201544140Y-63215320D01*
X201564632Y-63147766D01*
X201649689Y-62988635D01*
X201764156Y-62849156D01*
X201903635Y-62734689D01*
X202062766Y-62649632D01*
X202149099Y-62623443D01*
X202235431Y-62597254D01*
X202269075Y-62593940D01*
X202370002Y-62584000D01*
X202759998Y-62584000D01*
X202860925Y-62593940D01*
X202860925Y-62593940D01*
G37*
G36*
X204900305Y-62922096D02*
X205009680Y-62967400D01*
X205108118Y-63033175D01*
X205191825Y-63116882D01*
X205257600Y-63215320D01*
X205302904Y-63324695D01*
X205326000Y-63440806D01*
X205326000Y-63559194D01*
X205302904Y-63675305D01*
X205257600Y-63784680D01*
X205191825Y-63883118D01*
X205108118Y-63966825D01*
X205009680Y-64032600D01*
X204900305Y-64077904D01*
X204784194Y-64101000D01*
X204665806Y-64101000D01*
X204549695Y-64077904D01*
X204440320Y-64032600D01*
X204341882Y-63966825D01*
X204258175Y-63883118D01*
X204192400Y-63784680D01*
X204147096Y-63675305D01*
X204124000Y-63559194D01*
X204124000Y-63440806D01*
X204147096Y-63324695D01*
X204192400Y-63215320D01*
X204258175Y-63116882D01*
X204341882Y-63033175D01*
X204440320Y-62967400D01*
X204549695Y-62922096D01*
X204665806Y-62899000D01*
X204784194Y-62899000D01*
X204900305Y-62922096D01*
X204900305Y-62922096D01*
G37*
G36*
X202860925Y-60053941D02*
X202894569Y-60057254D01*
X202980900Y-60083443D01*
X203067234Y-60109632D01*
X203226365Y-60194689D01*
X203365844Y-60309156D01*
X203480311Y-60448635D01*
X203565368Y-60607766D01*
X203591557Y-60694100D01*
X203617746Y-60780431D01*
X203617746Y-60780433D01*
X203635432Y-60960000D01*
X203620656Y-61110018D01*
X203617746Y-61139569D01*
X203591557Y-61225901D01*
X203565368Y-61312234D01*
X203480311Y-61471365D01*
X203365844Y-61610844D01*
X203226365Y-61725311D01*
X203067234Y-61810368D01*
X202980901Y-61836557D01*
X202894569Y-61862746D01*
X202860925Y-61866059D01*
X202759998Y-61876000D01*
X202370002Y-61876000D01*
X202269075Y-61866059D01*
X202235431Y-61862746D01*
X202149099Y-61836557D01*
X202062766Y-61810368D01*
X201903635Y-61725311D01*
X201764156Y-61610844D01*
X201649689Y-61471365D01*
X201564632Y-61312234D01*
X201538443Y-61225901D01*
X201512254Y-61139569D01*
X201509344Y-61110018D01*
X201494568Y-60960000D01*
X201512254Y-60780433D01*
X201512254Y-60780431D01*
X201538443Y-60694100D01*
X201564632Y-60607766D01*
X201649689Y-60448635D01*
X201764156Y-60309156D01*
X201903635Y-60194689D01*
X202062766Y-60109632D01*
X202149100Y-60083443D01*
X202235431Y-60057254D01*
X202269075Y-60053941D01*
X202370002Y-60044000D01*
X202759998Y-60044000D01*
X202860925Y-60053941D01*
X202860925Y-60053941D01*
G37*
G36*
X203631000Y-59336000D02*
X201499000Y-59336000D01*
X201499000Y-57504000D01*
X203631000Y-57504000D01*
X203631000Y-59336000D01*
X203631000Y-59336000D01*
G37*
G36*
X102489941Y-47866248D02*
X102489943Y-47866249D01*
X102489944Y-47866249D01*
X103045190Y-48096239D01*
X103045191Y-48096240D01*
X103544902Y-48430136D01*
X103969864Y-48855098D01*
X103969866Y-48855101D01*
X104303761Y-49354810D01*
X104533751Y-49910056D01*
X104533752Y-49910059D01*
X104651000Y-50499501D01*
X104651000Y-51100499D01*
X104619870Y-51257000D01*
X104533751Y-51689944D01*
X104303761Y-52245190D01*
X104303760Y-52245191D01*
X103969864Y-52744902D01*
X103544902Y-53169864D01*
X103544899Y-53169866D01*
X103045190Y-53503761D01*
X102489944Y-53733751D01*
X102489943Y-53733751D01*
X102489941Y-53733752D01*
X101900499Y-53851000D01*
X101299501Y-53851000D01*
X100710059Y-53733752D01*
X100710057Y-53733751D01*
X100710056Y-53733751D01*
X100154810Y-53503761D01*
X99655101Y-53169866D01*
X99655098Y-53169864D01*
X99230136Y-52744902D01*
X98896240Y-52245191D01*
X98896239Y-52245190D01*
X98666249Y-51689944D01*
X98580131Y-51257000D01*
X98549000Y-51100499D01*
X98549000Y-50499501D01*
X98666248Y-49910059D01*
X98666249Y-49910056D01*
X98896239Y-49354810D01*
X99230134Y-48855101D01*
X99230136Y-48855098D01*
X99655098Y-48430136D01*
X100154809Y-48096240D01*
X100154810Y-48096239D01*
X100710056Y-47866249D01*
X100710057Y-47866249D01*
X100710059Y-47866248D01*
X101299501Y-47749000D01*
X101900499Y-47749000D01*
X102489941Y-47866248D01*
X102489941Y-47866248D01*
G37*
G36*
X204089941Y-47866248D02*
X204089943Y-47866249D01*
X204089944Y-47866249D01*
X204645190Y-48096239D01*
X204645191Y-48096240D01*
X205144902Y-48430136D01*
X205569864Y-48855098D01*
X205569866Y-48855101D01*
X205903761Y-49354810D01*
X206133751Y-49910056D01*
X206133752Y-49910059D01*
X206251000Y-50499501D01*
X206251000Y-51100499D01*
X206219870Y-51257000D01*
X206133751Y-51689944D01*
X205903761Y-52245190D01*
X205903760Y-52245191D01*
X205569864Y-52744902D01*
X205144902Y-53169864D01*
X205144899Y-53169866D01*
X204645190Y-53503761D01*
X204089944Y-53733751D01*
X204089943Y-53733751D01*
X204089941Y-53733752D01*
X203500499Y-53851000D01*
X202899501Y-53851000D01*
X202310059Y-53733752D01*
X202310057Y-53733751D01*
X202310056Y-53733751D01*
X201754810Y-53503761D01*
X201255101Y-53169866D01*
X201255098Y-53169864D01*
X200830136Y-52744902D01*
X200496240Y-52245191D01*
X200496239Y-52245190D01*
X200266249Y-51689944D01*
X200180131Y-51257000D01*
X200149000Y-51100499D01*
X200149000Y-50499501D01*
X200266248Y-49910059D01*
X200266249Y-49910056D01*
X200496239Y-49354810D01*
X200830134Y-48855101D01*
X200830136Y-48855098D01*
X201255098Y-48430136D01*
X201754809Y-48096240D01*
X201754810Y-48096239D01*
X202310056Y-47866249D01*
X202310057Y-47866249D01*
X202310059Y-47866248D01*
X202899501Y-47749000D01*
X203500499Y-47749000D01*
X204089941Y-47866248D01*
X204089941Y-47866248D01*
G37*
G36*
X124235073Y-50677354D02*
X124325297Y-50695300D01*
X124430907Y-50739046D01*
X124580261Y-50800910D01*
X124809729Y-50954235D01*
X125004866Y-51149372D01*
X125158191Y-51378840D01*
X125263801Y-51633805D01*
X125317640Y-51904473D01*
X125317640Y-52180449D01*
X125263801Y-52451117D01*
X125158191Y-52706082D01*
X125004866Y-52935550D01*
X124809729Y-53130687D01*
X124580261Y-53284012D01*
X124430907Y-53345876D01*
X124325297Y-53389622D01*
X124235073Y-53407568D01*
X124054628Y-53443461D01*
X123778652Y-53443461D01*
X123598207Y-53407568D01*
X123507983Y-53389622D01*
X123402373Y-53345876D01*
X123253019Y-53284012D01*
X123023551Y-53130687D01*
X122828414Y-52935550D01*
X122675089Y-52706082D01*
X122569479Y-52451117D01*
X122515640Y-52180449D01*
X122515640Y-51904473D01*
X122569479Y-51633805D01*
X122675089Y-51378840D01*
X122828414Y-51149372D01*
X123023551Y-50954235D01*
X123253019Y-50800910D01*
X123402373Y-50739046D01*
X123507983Y-50695300D01*
X123598207Y-50677354D01*
X123778652Y-50641461D01*
X124054628Y-50641461D01*
X124235073Y-50677354D01*
X124235073Y-50677354D01*
G37*
G36*
X115345073Y-50677354D02*
X115435297Y-50695300D01*
X115540907Y-50739046D01*
X115690261Y-50800910D01*
X115919729Y-50954235D01*
X116114866Y-51149372D01*
X116268191Y-51378840D01*
X116373801Y-51633805D01*
X116427640Y-51904473D01*
X116427640Y-52180449D01*
X116373801Y-52451117D01*
X116268191Y-52706082D01*
X116114866Y-52935550D01*
X115919729Y-53130687D01*
X115690261Y-53284012D01*
X115540907Y-53345876D01*
X115435297Y-53389622D01*
X115345073Y-53407568D01*
X115164628Y-53443461D01*
X114888652Y-53443461D01*
X114708207Y-53407568D01*
X114617983Y-53389622D01*
X114512373Y-53345876D01*
X114363019Y-53284012D01*
X114133551Y-53130687D01*
X113938414Y-52935550D01*
X113785089Y-52706082D01*
X113679479Y-52451117D01*
X113625640Y-52180449D01*
X113625640Y-51904473D01*
X113679479Y-51633805D01*
X113785089Y-51378840D01*
X113938414Y-51149372D01*
X114133551Y-50954235D01*
X114363019Y-50800910D01*
X114512373Y-50739046D01*
X114617983Y-50695300D01*
X114708207Y-50677354D01*
X114888652Y-50641461D01*
X115164628Y-50641461D01*
X115345073Y-50677354D01*
X115345073Y-50677354D01*
G37*
G36*
X120425073Y-50677354D02*
X120515297Y-50695300D01*
X120620907Y-50739046D01*
X120770261Y-50800910D01*
X120999729Y-50954235D01*
X121194866Y-51149372D01*
X121348191Y-51378840D01*
X121453801Y-51633805D01*
X121507640Y-51904473D01*
X121507640Y-52180449D01*
X121453801Y-52451117D01*
X121348191Y-52706082D01*
X121194866Y-52935550D01*
X120999729Y-53130687D01*
X120770261Y-53284012D01*
X120620907Y-53345876D01*
X120515297Y-53389622D01*
X120425073Y-53407568D01*
X120244628Y-53443461D01*
X119968652Y-53443461D01*
X119788207Y-53407568D01*
X119697983Y-53389622D01*
X119592373Y-53345876D01*
X119443019Y-53284012D01*
X119213551Y-53130687D01*
X119018414Y-52935550D01*
X118865089Y-52706082D01*
X118759479Y-52451117D01*
X118705640Y-52180449D01*
X118705640Y-51904473D01*
X118759479Y-51633805D01*
X118865089Y-51378840D01*
X119018414Y-51149372D01*
X119213551Y-50954235D01*
X119443019Y-50800910D01*
X119592373Y-50739046D01*
X119697983Y-50695300D01*
X119788207Y-50677354D01*
X119968652Y-50641461D01*
X120244628Y-50641461D01*
X120425073Y-50677354D01*
X120425073Y-50677354D01*
G37*
G36*
X111535073Y-50677354D02*
X111625297Y-50695300D01*
X111730907Y-50739046D01*
X111880261Y-50800910D01*
X112109729Y-50954235D01*
X112304866Y-51149372D01*
X112458191Y-51378840D01*
X112563801Y-51633805D01*
X112617640Y-51904473D01*
X112617640Y-52180449D01*
X112563801Y-52451117D01*
X112458191Y-52706082D01*
X112304866Y-52935550D01*
X112109729Y-53130687D01*
X111880261Y-53284012D01*
X111730907Y-53345876D01*
X111625297Y-53389622D01*
X111535073Y-53407568D01*
X111354628Y-53443461D01*
X111078652Y-53443461D01*
X110898207Y-53407568D01*
X110807983Y-53389622D01*
X110702373Y-53345876D01*
X110553019Y-53284012D01*
X110323551Y-53130687D01*
X110128414Y-52935550D01*
X109975089Y-52706082D01*
X109869479Y-52451117D01*
X109815640Y-52180449D01*
X109815640Y-51904473D01*
X109869479Y-51633805D01*
X109975089Y-51378840D01*
X110128414Y-51149372D01*
X110323551Y-50954235D01*
X110553019Y-50800910D01*
X110702373Y-50739046D01*
X110807983Y-50695300D01*
X110898207Y-50677354D01*
X111078652Y-50641461D01*
X111354628Y-50641461D01*
X111535073Y-50677354D01*
X111535073Y-50677354D01*
G37*
G36*
X154483000Y-52883000D02*
X152857000Y-52883000D01*
X152857000Y-51257000D01*
X154483000Y-51257000D01*
X154483000Y-52883000D01*
X154483000Y-52883000D01*
G37*
G36*
X170993000Y-52883000D02*
X169367000Y-52883000D01*
X169367000Y-51257000D01*
X170993000Y-51257000D01*
X170993000Y-52883000D01*
X170993000Y-52883000D01*
G37*
G36*
X165913000Y-52883000D02*
X164287000Y-52883000D01*
X164287000Y-51257000D01*
X165913000Y-51257000D01*
X165913000Y-52883000D01*
X165913000Y-52883000D01*
G37*
G36*
X179883000Y-52883000D02*
X178257000Y-52883000D01*
X178257000Y-51257000D01*
X179883000Y-51257000D01*
X179883000Y-52883000D01*
X179883000Y-52883000D01*
G37*
G36*
X182423000Y-52883000D02*
X180797000Y-52883000D01*
X180797000Y-51257000D01*
X182423000Y-51257000D01*
X182423000Y-52883000D01*
X182423000Y-52883000D01*
G37*
G36*
X196393000Y-52883000D02*
X194767000Y-52883000D01*
X194767000Y-51257000D01*
X196393000Y-51257000D01*
X196393000Y-52883000D01*
X196393000Y-52883000D01*
G37*
G36*
X184963000Y-52883000D02*
X183337000Y-52883000D01*
X183337000Y-51257000D01*
X184963000Y-51257000D01*
X184963000Y-52883000D01*
X184963000Y-52883000D01*
G37*
G36*
X193853000Y-52883000D02*
X192227000Y-52883000D01*
X192227000Y-51257000D01*
X193853000Y-51257000D01*
X193853000Y-52883000D01*
X193853000Y-52883000D01*
G37*
G36*
X188773000Y-52883000D02*
X187147000Y-52883000D01*
X187147000Y-51257000D01*
X188773000Y-51257000D01*
X188773000Y-52883000D01*
X188773000Y-52883000D01*
G37*
G36*
X191313000Y-52883000D02*
X189687000Y-52883000D01*
X189687000Y-51257000D01*
X191313000Y-51257000D01*
X191313000Y-52883000D01*
X191313000Y-52883000D01*
G37*
G36*
X173533000Y-52883000D02*
X171907000Y-52883000D01*
X171907000Y-51257000D01*
X173533000Y-51257000D01*
X173533000Y-52883000D01*
X173533000Y-52883000D01*
G37*
G36*
X141783000Y-52883000D02*
X140157000Y-52883000D01*
X140157000Y-51257000D01*
X141783000Y-51257000D01*
X141783000Y-52883000D01*
X141783000Y-52883000D01*
G37*
G36*
X144323000Y-52883000D02*
X142697000Y-52883000D01*
X142697000Y-51257000D01*
X144323000Y-51257000D01*
X144323000Y-52883000D01*
X144323000Y-52883000D01*
G37*
G36*
X162103000Y-52883000D02*
X160477000Y-52883000D01*
X160477000Y-51257000D01*
X162103000Y-51257000D01*
X162103000Y-52883000D01*
X162103000Y-52883000D01*
G37*
G36*
X146863000Y-52883000D02*
X145237000Y-52883000D01*
X145237000Y-51257000D01*
X146863000Y-51257000D01*
X146863000Y-52883000D01*
X146863000Y-52883000D01*
G37*
G36*
X159563000Y-52883000D02*
X157937000Y-52883000D01*
X157937000Y-51257000D01*
X159563000Y-51257000D01*
X159563000Y-52883000D01*
X159563000Y-52883000D01*
G37*
G36*
X149403000Y-52883000D02*
X147777000Y-52883000D01*
X147777000Y-51257000D01*
X149403000Y-51257000D01*
X149403000Y-52883000D01*
X149403000Y-52883000D01*
G37*
G36*
X157023000Y-52883000D02*
X155397000Y-52883000D01*
X155397000Y-51257000D01*
X157023000Y-51257000D01*
X157023000Y-52883000D01*
X157023000Y-52883000D01*
G37*
G36*
X168453000Y-52883000D02*
X166827000Y-52883000D01*
X166827000Y-51257000D01*
X168453000Y-51257000D01*
X168453000Y-52883000D01*
X168453000Y-52883000D01*
G37*
G36*
X151943000Y-52883000D02*
X150317000Y-52883000D01*
X150317000Y-51257000D01*
X151943000Y-51257000D01*
X151943000Y-52883000D01*
X151943000Y-52883000D01*
G37*
G36*
X176073000Y-52883000D02*
X174447000Y-52883000D01*
X174447000Y-51257000D01*
X176073000Y-51257000D01*
X176073000Y-52883000D01*
X176073000Y-52883000D01*
G37*
G36*
X165913000Y-50343000D02*
X164287000Y-50343000D01*
X164287000Y-48717000D01*
X165913000Y-48717000D01*
X165913000Y-50343000D01*
X165913000Y-50343000D01*
G37*
G36*
X146863000Y-50343000D02*
X145237000Y-50343000D01*
X145237000Y-48717000D01*
X146863000Y-48717000D01*
X146863000Y-50343000D01*
X146863000Y-50343000D01*
G37*
G36*
X144323000Y-50343000D02*
X142697000Y-50343000D01*
X142697000Y-48717000D01*
X144323000Y-48717000D01*
X144323000Y-50343000D01*
X144323000Y-50343000D01*
G37*
G36*
X130353000Y-50343000D02*
X128727000Y-50343000D01*
X128727000Y-48717000D01*
X130353000Y-48717000D01*
X130353000Y-50343000D01*
X130353000Y-50343000D01*
G37*
G36*
X132893000Y-50343000D02*
X131267000Y-50343000D01*
X131267000Y-48717000D01*
X132893000Y-48717000D01*
X132893000Y-50343000D01*
X132893000Y-50343000D01*
G37*
G36*
X135433000Y-50343000D02*
X133807000Y-50343000D01*
X133807000Y-48717000D01*
X135433000Y-48717000D01*
X135433000Y-50343000D01*
X135433000Y-50343000D01*
G37*
G36*
X137973000Y-50343000D02*
X136347000Y-50343000D01*
X136347000Y-48717000D01*
X137973000Y-48717000D01*
X137973000Y-50343000D01*
X137973000Y-50343000D01*
G37*
G36*
X159563000Y-50343000D02*
X157937000Y-50343000D01*
X157937000Y-48717000D01*
X159563000Y-48717000D01*
X159563000Y-50343000D01*
X159563000Y-50343000D01*
G37*
G36*
X157023000Y-50343000D02*
X155397000Y-50343000D01*
X155397000Y-48717000D01*
X157023000Y-48717000D01*
X157023000Y-50343000D01*
X157023000Y-50343000D01*
G37*
G36*
X154483000Y-50343000D02*
X152857000Y-50343000D01*
X152857000Y-48717000D01*
X154483000Y-48717000D01*
X154483000Y-50343000D01*
X154483000Y-50343000D01*
G37*
G36*
X151943000Y-50343000D02*
X150317000Y-50343000D01*
X150317000Y-48717000D01*
X151943000Y-48717000D01*
X151943000Y-50343000D01*
X151943000Y-50343000D01*
G37*
G36*
X149403000Y-50343000D02*
X147777000Y-50343000D01*
X147777000Y-48717000D01*
X149403000Y-48717000D01*
X149403000Y-50343000D01*
X149403000Y-50343000D01*
G37*
G36*
X141783000Y-50343000D02*
X140157000Y-50343000D01*
X140157000Y-48717000D01*
X141783000Y-48717000D01*
X141783000Y-50343000D01*
X141783000Y-50343000D01*
G37*
G36*
X162103000Y-50343000D02*
X160477000Y-50343000D01*
X160477000Y-48717000D01*
X162103000Y-48717000D01*
X162103000Y-50343000D01*
X162103000Y-50343000D01*
G37*
G36*
X196393000Y-50343000D02*
X194767000Y-50343000D01*
X194767000Y-48717000D01*
X196393000Y-48717000D01*
X196393000Y-50343000D01*
X196393000Y-50343000D01*
G37*
G36*
X193853000Y-50343000D02*
X192227000Y-50343000D01*
X192227000Y-48717000D01*
X193853000Y-48717000D01*
X193853000Y-50343000D01*
X193853000Y-50343000D01*
G37*
G36*
X191313000Y-50343000D02*
X189687000Y-50343000D01*
X189687000Y-48717000D01*
X191313000Y-48717000D01*
X191313000Y-50343000D01*
X191313000Y-50343000D01*
G37*
G36*
X188773000Y-50343000D02*
X187147000Y-50343000D01*
X187147000Y-48717000D01*
X188773000Y-48717000D01*
X188773000Y-50343000D01*
X188773000Y-50343000D01*
G37*
G36*
X184963000Y-50343000D02*
X183337000Y-50343000D01*
X183337000Y-48717000D01*
X184963000Y-48717000D01*
X184963000Y-50343000D01*
X184963000Y-50343000D01*
G37*
G36*
X182423000Y-50343000D02*
X180797000Y-50343000D01*
X180797000Y-48717000D01*
X182423000Y-48717000D01*
X182423000Y-50343000D01*
X182423000Y-50343000D01*
G37*
G36*
X179883000Y-50343000D02*
X178257000Y-50343000D01*
X178257000Y-48717000D01*
X179883000Y-48717000D01*
X179883000Y-50343000D01*
X179883000Y-50343000D01*
G37*
G36*
X176073000Y-50343000D02*
X174447000Y-50343000D01*
X174447000Y-48717000D01*
X176073000Y-48717000D01*
X176073000Y-50343000D01*
X176073000Y-50343000D01*
G37*
G36*
X173533000Y-50343000D02*
X171907000Y-50343000D01*
X171907000Y-48717000D01*
X173533000Y-48717000D01*
X173533000Y-50343000D01*
X173533000Y-50343000D01*
G37*
G36*
X170993000Y-50343000D02*
X169367000Y-50343000D01*
X169367000Y-48717000D01*
X170993000Y-48717000D01*
X170993000Y-50343000D01*
X170993000Y-50343000D01*
G37*
G36*
X168453000Y-50343000D02*
X166827000Y-50343000D01*
X166827000Y-48717000D01*
X168453000Y-48717000D01*
X168453000Y-50343000D01*
X168453000Y-50343000D01*
G37*
M02*
