G04 #@! TF.GenerationSoftware,KiCad,Pcbnew,5.0.2-bee76a0~70~ubuntu18.04.1*
G04 #@! TF.CreationDate,2020-07-16T16:47:02+02:00*
G04 #@! TF.ProjectId,E32CB_R2,45333243-425f-4523-922e-6b696361645f,rev?*
G04 #@! TF.SameCoordinates,Original*
G04 #@! TF.FileFunction,Legend,Top*
G04 #@! TF.FilePolarity,Positive*
%FSLAX46Y46*%
G04 Gerber Fmt 4.6, Leading zero omitted, Abs format (unit mm)*
G04 Created by KiCad (PCBNEW 5.0.2-bee76a0~70~ubuntu18.04.1) date Čt 16. července 2020, 16:47:02 CEST*
%MOMM*%
%LPD*%
G01*
G04 APERTURE LIST*
%ADD10C,0.300000*%
%ADD11C,0.100000*%
%ADD12C,0.150000*%
%ADD13C,0.120000*%
%ADD14C,0.010000*%
%ADD15C,0.304800*%
G04 APERTURE END LIST*
D10*
X166986809Y-53920428D02*
X166924904Y-54106142D01*
X166924904Y-54415666D01*
X166986809Y-54539476D01*
X167048714Y-54601380D01*
X167172523Y-54663285D01*
X167296333Y-54663285D01*
X167420142Y-54601380D01*
X167482047Y-54539476D01*
X167543952Y-54415666D01*
X167605857Y-54168047D01*
X167667761Y-54044238D01*
X167729666Y-53982333D01*
X167853476Y-53920428D01*
X167977285Y-53920428D01*
X168101095Y-53982333D01*
X168163000Y-54044238D01*
X168224904Y-54168047D01*
X168224904Y-54477571D01*
X168163000Y-54663285D01*
X166924904Y-55220428D02*
X168224904Y-55220428D01*
X168224904Y-55529952D01*
X168163000Y-55715666D01*
X168039190Y-55839476D01*
X167915380Y-55901380D01*
X167667761Y-55963285D01*
X167482047Y-55963285D01*
X167234428Y-55901380D01*
X167110619Y-55839476D01*
X166986809Y-55715666D01*
X166924904Y-55529952D01*
X166924904Y-55220428D01*
X167296333Y-56458523D02*
X167296333Y-57077571D01*
X166924904Y-56334714D02*
X168224904Y-56768047D01*
X166924904Y-57201380D01*
X172193809Y-53951380D02*
X172131904Y-54137095D01*
X172131904Y-54446619D01*
X172193809Y-54570428D01*
X172255714Y-54632333D01*
X172379523Y-54694238D01*
X172503333Y-54694238D01*
X172627142Y-54632333D01*
X172689047Y-54570428D01*
X172750952Y-54446619D01*
X172812857Y-54199000D01*
X172874761Y-54075190D01*
X172936666Y-54013285D01*
X173060476Y-53951380D01*
X173184285Y-53951380D01*
X173308095Y-54013285D01*
X173370000Y-54075190D01*
X173431904Y-54199000D01*
X173431904Y-54508523D01*
X173370000Y-54694238D01*
X172255714Y-55994238D02*
X172193809Y-55932333D01*
X172131904Y-55746619D01*
X172131904Y-55622809D01*
X172193809Y-55437095D01*
X172317619Y-55313285D01*
X172441428Y-55251380D01*
X172689047Y-55189476D01*
X172874761Y-55189476D01*
X173122380Y-55251380D01*
X173246190Y-55313285D01*
X173370000Y-55437095D01*
X173431904Y-55622809D01*
X173431904Y-55746619D01*
X173370000Y-55932333D01*
X173308095Y-55994238D01*
X172131904Y-57170428D02*
X172131904Y-56551380D01*
X173431904Y-56551380D01*
X170891904Y-53762476D02*
X170891904Y-54567238D01*
X170396666Y-54133904D01*
X170396666Y-54319619D01*
X170334761Y-54443428D01*
X170272857Y-54505333D01*
X170149047Y-54567238D01*
X169839523Y-54567238D01*
X169715714Y-54505333D01*
X169653809Y-54443428D01*
X169591904Y-54319619D01*
X169591904Y-53948190D01*
X169653809Y-53824380D01*
X169715714Y-53762476D01*
X170891904Y-54938666D02*
X169591904Y-55372000D01*
X170891904Y-55805333D01*
X170891904Y-56114857D02*
X170891904Y-56919619D01*
X170396666Y-56486285D01*
X170396666Y-56672000D01*
X170334761Y-56795809D01*
X170272857Y-56857714D01*
X170149047Y-56919619D01*
X169839523Y-56919619D01*
X169715714Y-56857714D01*
X169653809Y-56795809D01*
X169591904Y-56672000D01*
X169591904Y-56300571D01*
X169653809Y-56176761D01*
X169715714Y-56114857D01*
X165623000Y-54508523D02*
X165684904Y-54384714D01*
X165684904Y-54199000D01*
X165623000Y-54013285D01*
X165499190Y-53889476D01*
X165375380Y-53827571D01*
X165127761Y-53765666D01*
X164942047Y-53765666D01*
X164694428Y-53827571D01*
X164570619Y-53889476D01*
X164446809Y-54013285D01*
X164384904Y-54199000D01*
X164384904Y-54322809D01*
X164446809Y-54508523D01*
X164508714Y-54570428D01*
X164942047Y-54570428D01*
X164942047Y-54322809D01*
X164384904Y-55127571D02*
X165684904Y-55127571D01*
X164384904Y-55870428D01*
X165684904Y-55870428D01*
X164384904Y-56489476D02*
X165684904Y-56489476D01*
X165684904Y-56799000D01*
X165623000Y-56984714D01*
X165499190Y-57108523D01*
X165375380Y-57170428D01*
X165127761Y-57232333D01*
X164942047Y-57232333D01*
X164694428Y-57170428D01*
X164570619Y-57108523D01*
X164446809Y-56984714D01*
X164384904Y-56799000D01*
X164384904Y-56489476D01*
X175910000Y-54508523D02*
X175971904Y-54384714D01*
X175971904Y-54199000D01*
X175910000Y-54013285D01*
X175786190Y-53889476D01*
X175662380Y-53827571D01*
X175414761Y-53765666D01*
X175229047Y-53765666D01*
X174981428Y-53827571D01*
X174857619Y-53889476D01*
X174733809Y-54013285D01*
X174671904Y-54199000D01*
X174671904Y-54322809D01*
X174733809Y-54508523D01*
X174795714Y-54570428D01*
X175229047Y-54570428D01*
X175229047Y-54322809D01*
X174671904Y-55127571D02*
X175971904Y-55127571D01*
X174671904Y-55870428D01*
X175971904Y-55870428D01*
X174671904Y-56489476D02*
X175971904Y-56489476D01*
X175971904Y-56799000D01*
X175910000Y-56984714D01*
X175786190Y-57108523D01*
X175662380Y-57170428D01*
X175414761Y-57232333D01*
X175229047Y-57232333D01*
X174981428Y-57170428D01*
X174857619Y-57108523D01*
X174733809Y-56984714D01*
X174671904Y-56799000D01*
X174671904Y-56489476D01*
X161813000Y-54484904D02*
X161874904Y-54361095D01*
X161874904Y-54175380D01*
X161813000Y-53989666D01*
X161689190Y-53865857D01*
X161565380Y-53803952D01*
X161317761Y-53742047D01*
X161132047Y-53742047D01*
X160884428Y-53803952D01*
X160760619Y-53865857D01*
X160636809Y-53989666D01*
X160574904Y-54175380D01*
X160574904Y-54299190D01*
X160636809Y-54484904D01*
X160698714Y-54546809D01*
X161132047Y-54546809D01*
X161132047Y-54299190D01*
X160574904Y-55103952D02*
X161874904Y-55103952D01*
X161874904Y-55599190D01*
X161813000Y-55723000D01*
X161751095Y-55784904D01*
X161627285Y-55846809D01*
X161441571Y-55846809D01*
X161317761Y-55784904D01*
X161255857Y-55723000D01*
X161193952Y-55599190D01*
X161193952Y-55103952D01*
X160574904Y-56403952D02*
X161874904Y-56403952D01*
X161874904Y-57270619D02*
X161874904Y-57518238D01*
X161813000Y-57642047D01*
X161689190Y-57765857D01*
X161441571Y-57827761D01*
X161008238Y-57827761D01*
X160760619Y-57765857D01*
X160636809Y-57642047D01*
X160574904Y-57518238D01*
X160574904Y-57270619D01*
X160636809Y-57146809D01*
X160760619Y-57023000D01*
X161008238Y-56961095D01*
X161441571Y-56961095D01*
X161689190Y-57023000D01*
X161813000Y-57146809D01*
X161874904Y-57270619D01*
X160574904Y-59065857D02*
X160574904Y-58323000D01*
X160574904Y-58694428D02*
X161874904Y-58694428D01*
X161689190Y-58570619D01*
X161565380Y-58446809D01*
X161503476Y-58323000D01*
X161751095Y-59561095D02*
X161813000Y-59623000D01*
X161874904Y-59746809D01*
X161874904Y-60056333D01*
X161813000Y-60180142D01*
X161751095Y-60242047D01*
X161627285Y-60303952D01*
X161503476Y-60303952D01*
X161317761Y-60242047D01*
X160574904Y-59499190D01*
X160574904Y-60303952D01*
X159273000Y-54484904D02*
X159334904Y-54361095D01*
X159334904Y-54175380D01*
X159273000Y-53989666D01*
X159149190Y-53865857D01*
X159025380Y-53803952D01*
X158777761Y-53742047D01*
X158592047Y-53742047D01*
X158344428Y-53803952D01*
X158220619Y-53865857D01*
X158096809Y-53989666D01*
X158034904Y-54175380D01*
X158034904Y-54299190D01*
X158096809Y-54484904D01*
X158158714Y-54546809D01*
X158592047Y-54546809D01*
X158592047Y-54299190D01*
X158034904Y-55103952D02*
X159334904Y-55103952D01*
X159334904Y-55599190D01*
X159273000Y-55723000D01*
X159211095Y-55784904D01*
X159087285Y-55846809D01*
X158901571Y-55846809D01*
X158777761Y-55784904D01*
X158715857Y-55723000D01*
X158653952Y-55599190D01*
X158653952Y-55103952D01*
X158034904Y-56403952D02*
X159334904Y-56403952D01*
X159334904Y-57270619D02*
X159334904Y-57518238D01*
X159273000Y-57642047D01*
X159149190Y-57765857D01*
X158901571Y-57827761D01*
X158468238Y-57827761D01*
X158220619Y-57765857D01*
X158096809Y-57642047D01*
X158034904Y-57518238D01*
X158034904Y-57270619D01*
X158096809Y-57146809D01*
X158220619Y-57023000D01*
X158468238Y-56961095D01*
X158901571Y-56961095D01*
X159149190Y-57023000D01*
X159273000Y-57146809D01*
X159334904Y-57270619D01*
X159211095Y-58323000D02*
X159273000Y-58384904D01*
X159334904Y-58508714D01*
X159334904Y-58818238D01*
X159273000Y-58942047D01*
X159211095Y-59003952D01*
X159087285Y-59065857D01*
X158963476Y-59065857D01*
X158777761Y-59003952D01*
X158034904Y-58261095D01*
X158034904Y-59065857D01*
X159334904Y-60180142D02*
X159334904Y-59932523D01*
X159273000Y-59808714D01*
X159211095Y-59746809D01*
X159025380Y-59623000D01*
X158777761Y-59561095D01*
X158282523Y-59561095D01*
X158158714Y-59623000D01*
X158096809Y-59684904D01*
X158034904Y-59808714D01*
X158034904Y-60056333D01*
X158096809Y-60180142D01*
X158158714Y-60242047D01*
X158282523Y-60303952D01*
X158592047Y-60303952D01*
X158715857Y-60242047D01*
X158777761Y-60180142D01*
X158839666Y-60056333D01*
X158839666Y-59808714D01*
X158777761Y-59684904D01*
X158715857Y-59623000D01*
X158592047Y-59561095D01*
X156733000Y-54484904D02*
X156794904Y-54361095D01*
X156794904Y-54175380D01*
X156733000Y-53989666D01*
X156609190Y-53865857D01*
X156485380Y-53803952D01*
X156237761Y-53742047D01*
X156052047Y-53742047D01*
X155804428Y-53803952D01*
X155680619Y-53865857D01*
X155556809Y-53989666D01*
X155494904Y-54175380D01*
X155494904Y-54299190D01*
X155556809Y-54484904D01*
X155618714Y-54546809D01*
X156052047Y-54546809D01*
X156052047Y-54299190D01*
X155494904Y-55103952D02*
X156794904Y-55103952D01*
X156794904Y-55599190D01*
X156733000Y-55723000D01*
X156671095Y-55784904D01*
X156547285Y-55846809D01*
X156361571Y-55846809D01*
X156237761Y-55784904D01*
X156175857Y-55723000D01*
X156113952Y-55599190D01*
X156113952Y-55103952D01*
X155494904Y-56403952D02*
X156794904Y-56403952D01*
X156794904Y-57270619D02*
X156794904Y-57518238D01*
X156733000Y-57642047D01*
X156609190Y-57765857D01*
X156361571Y-57827761D01*
X155928238Y-57827761D01*
X155680619Y-57765857D01*
X155556809Y-57642047D01*
X155494904Y-57518238D01*
X155494904Y-57270619D01*
X155556809Y-57146809D01*
X155680619Y-57023000D01*
X155928238Y-56961095D01*
X156361571Y-56961095D01*
X156609190Y-57023000D01*
X156733000Y-57146809D01*
X156794904Y-57270619D01*
X156794904Y-58261095D02*
X156794904Y-59065857D01*
X156299666Y-58632523D01*
X156299666Y-58818238D01*
X156237761Y-58942047D01*
X156175857Y-59003952D01*
X156052047Y-59065857D01*
X155742523Y-59065857D01*
X155618714Y-59003952D01*
X155556809Y-58942047D01*
X155494904Y-58818238D01*
X155494904Y-58446809D01*
X155556809Y-58323000D01*
X155618714Y-58261095D01*
X156794904Y-60242047D02*
X156794904Y-59623000D01*
X156175857Y-59561095D01*
X156237761Y-59623000D01*
X156299666Y-59746809D01*
X156299666Y-60056333D01*
X156237761Y-60180142D01*
X156175857Y-60242047D01*
X156052047Y-60303952D01*
X155742523Y-60303952D01*
X155618714Y-60242047D01*
X155556809Y-60180142D01*
X155494904Y-60056333D01*
X155494904Y-59746809D01*
X155556809Y-59623000D01*
X155618714Y-59561095D01*
X154193000Y-54484904D02*
X154254904Y-54361095D01*
X154254904Y-54175380D01*
X154193000Y-53989666D01*
X154069190Y-53865857D01*
X153945380Y-53803952D01*
X153697761Y-53742047D01*
X153512047Y-53742047D01*
X153264428Y-53803952D01*
X153140619Y-53865857D01*
X153016809Y-53989666D01*
X152954904Y-54175380D01*
X152954904Y-54299190D01*
X153016809Y-54484904D01*
X153078714Y-54546809D01*
X153512047Y-54546809D01*
X153512047Y-54299190D01*
X152954904Y-55103952D02*
X154254904Y-55103952D01*
X154254904Y-55599190D01*
X154193000Y-55723000D01*
X154131095Y-55784904D01*
X154007285Y-55846809D01*
X153821571Y-55846809D01*
X153697761Y-55784904D01*
X153635857Y-55723000D01*
X153573952Y-55599190D01*
X153573952Y-55103952D01*
X152954904Y-56403952D02*
X154254904Y-56403952D01*
X154254904Y-57270619D02*
X154254904Y-57518238D01*
X154193000Y-57642047D01*
X154069190Y-57765857D01*
X153821571Y-57827761D01*
X153388238Y-57827761D01*
X153140619Y-57765857D01*
X153016809Y-57642047D01*
X152954904Y-57518238D01*
X152954904Y-57270619D01*
X153016809Y-57146809D01*
X153140619Y-57023000D01*
X153388238Y-56961095D01*
X153821571Y-56961095D01*
X154069190Y-57023000D01*
X154193000Y-57146809D01*
X154254904Y-57270619D01*
X154254904Y-58261095D02*
X154254904Y-59065857D01*
X153759666Y-58632523D01*
X153759666Y-58818238D01*
X153697761Y-58942047D01*
X153635857Y-59003952D01*
X153512047Y-59065857D01*
X153202523Y-59065857D01*
X153078714Y-59003952D01*
X153016809Y-58942047D01*
X152954904Y-58818238D01*
X152954904Y-58446809D01*
X153016809Y-58323000D01*
X153078714Y-58261095D01*
X153821571Y-60180142D02*
X152954904Y-60180142D01*
X154316809Y-59870619D02*
X153388238Y-59561095D01*
X153388238Y-60365857D01*
X151653000Y-54484904D02*
X151714904Y-54361095D01*
X151714904Y-54175380D01*
X151653000Y-53989666D01*
X151529190Y-53865857D01*
X151405380Y-53803952D01*
X151157761Y-53742047D01*
X150972047Y-53742047D01*
X150724428Y-53803952D01*
X150600619Y-53865857D01*
X150476809Y-53989666D01*
X150414904Y-54175380D01*
X150414904Y-54299190D01*
X150476809Y-54484904D01*
X150538714Y-54546809D01*
X150972047Y-54546809D01*
X150972047Y-54299190D01*
X150414904Y-55103952D02*
X151714904Y-55103952D01*
X151714904Y-55599190D01*
X151653000Y-55723000D01*
X151591095Y-55784904D01*
X151467285Y-55846809D01*
X151281571Y-55846809D01*
X151157761Y-55784904D01*
X151095857Y-55723000D01*
X151033952Y-55599190D01*
X151033952Y-55103952D01*
X150414904Y-56403952D02*
X151714904Y-56403952D01*
X151714904Y-57270619D02*
X151714904Y-57518238D01*
X151653000Y-57642047D01*
X151529190Y-57765857D01*
X151281571Y-57827761D01*
X150848238Y-57827761D01*
X150600619Y-57765857D01*
X150476809Y-57642047D01*
X150414904Y-57518238D01*
X150414904Y-57270619D01*
X150476809Y-57146809D01*
X150600619Y-57023000D01*
X150848238Y-56961095D01*
X151281571Y-56961095D01*
X151529190Y-57023000D01*
X151653000Y-57146809D01*
X151714904Y-57270619D01*
X151714904Y-58261095D02*
X151714904Y-59065857D01*
X151219666Y-58632523D01*
X151219666Y-58818238D01*
X151157761Y-58942047D01*
X151095857Y-59003952D01*
X150972047Y-59065857D01*
X150662523Y-59065857D01*
X150538714Y-59003952D01*
X150476809Y-58942047D01*
X150414904Y-58818238D01*
X150414904Y-58446809D01*
X150476809Y-58323000D01*
X150538714Y-58261095D01*
X150414904Y-59684904D02*
X150414904Y-59932523D01*
X150476809Y-60056333D01*
X150538714Y-60118238D01*
X150724428Y-60242047D01*
X150972047Y-60303952D01*
X151467285Y-60303952D01*
X151591095Y-60242047D01*
X151653000Y-60180142D01*
X151714904Y-60056333D01*
X151714904Y-59808714D01*
X151653000Y-59684904D01*
X151591095Y-59623000D01*
X151467285Y-59561095D01*
X151157761Y-59561095D01*
X151033952Y-59623000D01*
X150972047Y-59684904D01*
X150910142Y-59808714D01*
X150910142Y-60056333D01*
X150972047Y-60180142D01*
X151033952Y-60242047D01*
X151157761Y-60303952D01*
X149113000Y-54484904D02*
X149174904Y-54361095D01*
X149174904Y-54175380D01*
X149113000Y-53989666D01*
X148989190Y-53865857D01*
X148865380Y-53803952D01*
X148617761Y-53742047D01*
X148432047Y-53742047D01*
X148184428Y-53803952D01*
X148060619Y-53865857D01*
X147936809Y-53989666D01*
X147874904Y-54175380D01*
X147874904Y-54299190D01*
X147936809Y-54484904D01*
X147998714Y-54546809D01*
X148432047Y-54546809D01*
X148432047Y-54299190D01*
X147874904Y-55103952D02*
X149174904Y-55103952D01*
X149174904Y-55599190D01*
X149113000Y-55723000D01*
X149051095Y-55784904D01*
X148927285Y-55846809D01*
X148741571Y-55846809D01*
X148617761Y-55784904D01*
X148555857Y-55723000D01*
X148493952Y-55599190D01*
X148493952Y-55103952D01*
X147874904Y-56403952D02*
X149174904Y-56403952D01*
X149174904Y-57270619D02*
X149174904Y-57518238D01*
X149113000Y-57642047D01*
X148989190Y-57765857D01*
X148741571Y-57827761D01*
X148308238Y-57827761D01*
X148060619Y-57765857D01*
X147936809Y-57642047D01*
X147874904Y-57518238D01*
X147874904Y-57270619D01*
X147936809Y-57146809D01*
X148060619Y-57023000D01*
X148308238Y-56961095D01*
X148741571Y-56961095D01*
X148989190Y-57023000D01*
X149113000Y-57146809D01*
X149174904Y-57270619D01*
X149174904Y-58261095D02*
X149174904Y-59065857D01*
X148679666Y-58632523D01*
X148679666Y-58818238D01*
X148617761Y-58942047D01*
X148555857Y-59003952D01*
X148432047Y-59065857D01*
X148122523Y-59065857D01*
X147998714Y-59003952D01*
X147936809Y-58942047D01*
X147874904Y-58818238D01*
X147874904Y-58446809D01*
X147936809Y-58323000D01*
X147998714Y-58261095D01*
X149174904Y-60180142D02*
X149174904Y-59932523D01*
X149113000Y-59808714D01*
X149051095Y-59746809D01*
X148865380Y-59623000D01*
X148617761Y-59561095D01*
X148122523Y-59561095D01*
X147998714Y-59623000D01*
X147936809Y-59684904D01*
X147874904Y-59808714D01*
X147874904Y-60056333D01*
X147936809Y-60180142D01*
X147998714Y-60242047D01*
X148122523Y-60303952D01*
X148432047Y-60303952D01*
X148555857Y-60242047D01*
X148617761Y-60180142D01*
X148679666Y-60056333D01*
X148679666Y-59808714D01*
X148617761Y-59684904D01*
X148555857Y-59623000D01*
X148432047Y-59561095D01*
X146573000Y-54484904D02*
X146634904Y-54361095D01*
X146634904Y-54175380D01*
X146573000Y-53989666D01*
X146449190Y-53865857D01*
X146325380Y-53803952D01*
X146077761Y-53742047D01*
X145892047Y-53742047D01*
X145644428Y-53803952D01*
X145520619Y-53865857D01*
X145396809Y-53989666D01*
X145334904Y-54175380D01*
X145334904Y-54299190D01*
X145396809Y-54484904D01*
X145458714Y-54546809D01*
X145892047Y-54546809D01*
X145892047Y-54299190D01*
X145334904Y-55103952D02*
X146634904Y-55103952D01*
X146634904Y-55599190D01*
X146573000Y-55723000D01*
X146511095Y-55784904D01*
X146387285Y-55846809D01*
X146201571Y-55846809D01*
X146077761Y-55784904D01*
X146015857Y-55723000D01*
X145953952Y-55599190D01*
X145953952Y-55103952D01*
X145334904Y-56403952D02*
X146634904Y-56403952D01*
X146634904Y-57270619D02*
X146634904Y-57518238D01*
X146573000Y-57642047D01*
X146449190Y-57765857D01*
X146201571Y-57827761D01*
X145768238Y-57827761D01*
X145520619Y-57765857D01*
X145396809Y-57642047D01*
X145334904Y-57518238D01*
X145334904Y-57270619D01*
X145396809Y-57146809D01*
X145520619Y-57023000D01*
X145768238Y-56961095D01*
X146201571Y-56961095D01*
X146449190Y-57023000D01*
X146573000Y-57146809D01*
X146634904Y-57270619D01*
X145334904Y-59065857D02*
X145334904Y-58323000D01*
X145334904Y-58694428D02*
X146634904Y-58694428D01*
X146449190Y-58570619D01*
X146325380Y-58446809D01*
X146263476Y-58323000D01*
X146634904Y-60242047D02*
X146634904Y-59623000D01*
X146015857Y-59561095D01*
X146077761Y-59623000D01*
X146139666Y-59746809D01*
X146139666Y-60056333D01*
X146077761Y-60180142D01*
X146015857Y-60242047D01*
X145892047Y-60303952D01*
X145582523Y-60303952D01*
X145458714Y-60242047D01*
X145396809Y-60180142D01*
X145334904Y-60056333D01*
X145334904Y-59746809D01*
X145396809Y-59623000D01*
X145458714Y-59561095D01*
X144033000Y-54468952D02*
X144094904Y-54345142D01*
X144094904Y-54159428D01*
X144033000Y-53973714D01*
X143909190Y-53849904D01*
X143785380Y-53788000D01*
X143537761Y-53726095D01*
X143352047Y-53726095D01*
X143104428Y-53788000D01*
X142980619Y-53849904D01*
X142856809Y-53973714D01*
X142794904Y-54159428D01*
X142794904Y-54283238D01*
X142856809Y-54468952D01*
X142918714Y-54530857D01*
X143352047Y-54530857D01*
X143352047Y-54283238D01*
X142794904Y-55088000D02*
X144094904Y-55088000D01*
X144094904Y-55583238D01*
X144033000Y-55707047D01*
X143971095Y-55768952D01*
X143847285Y-55830857D01*
X143661571Y-55830857D01*
X143537761Y-55768952D01*
X143475857Y-55707047D01*
X143413952Y-55583238D01*
X143413952Y-55088000D01*
X142794904Y-56388000D02*
X144094904Y-56388000D01*
X144094904Y-57254666D02*
X144094904Y-57502285D01*
X144033000Y-57626095D01*
X143909190Y-57749904D01*
X143661571Y-57811809D01*
X143228238Y-57811809D01*
X142980619Y-57749904D01*
X142856809Y-57626095D01*
X142794904Y-57502285D01*
X142794904Y-57254666D01*
X142856809Y-57130857D01*
X142980619Y-57007047D01*
X143228238Y-56945142D01*
X143661571Y-56945142D01*
X143909190Y-57007047D01*
X144033000Y-57130857D01*
X144094904Y-57254666D01*
X143971095Y-58307047D02*
X144033000Y-58368952D01*
X144094904Y-58492761D01*
X144094904Y-58802285D01*
X144033000Y-58926095D01*
X143971095Y-58988000D01*
X143847285Y-59049904D01*
X143723476Y-59049904D01*
X143537761Y-58988000D01*
X142794904Y-58245142D01*
X142794904Y-59049904D01*
X141493000Y-54468952D02*
X141554904Y-54345142D01*
X141554904Y-54159428D01*
X141493000Y-53973714D01*
X141369190Y-53849904D01*
X141245380Y-53788000D01*
X140997761Y-53726095D01*
X140812047Y-53726095D01*
X140564428Y-53788000D01*
X140440619Y-53849904D01*
X140316809Y-53973714D01*
X140254904Y-54159428D01*
X140254904Y-54283238D01*
X140316809Y-54468952D01*
X140378714Y-54530857D01*
X140812047Y-54530857D01*
X140812047Y-54283238D01*
X140254904Y-55088000D02*
X141554904Y-55088000D01*
X141554904Y-55583238D01*
X141493000Y-55707047D01*
X141431095Y-55768952D01*
X141307285Y-55830857D01*
X141121571Y-55830857D01*
X140997761Y-55768952D01*
X140935857Y-55707047D01*
X140873952Y-55583238D01*
X140873952Y-55088000D01*
X140254904Y-56388000D02*
X141554904Y-56388000D01*
X141554904Y-57254666D02*
X141554904Y-57502285D01*
X141493000Y-57626095D01*
X141369190Y-57749904D01*
X141121571Y-57811809D01*
X140688238Y-57811809D01*
X140440619Y-57749904D01*
X140316809Y-57626095D01*
X140254904Y-57502285D01*
X140254904Y-57254666D01*
X140316809Y-57130857D01*
X140440619Y-57007047D01*
X140688238Y-56945142D01*
X141121571Y-56945142D01*
X141369190Y-57007047D01*
X141493000Y-57130857D01*
X141554904Y-57254666D01*
X141554904Y-58988000D02*
X141554904Y-58368952D01*
X140935857Y-58307047D01*
X140997761Y-58368952D01*
X141059666Y-58492761D01*
X141059666Y-58802285D01*
X140997761Y-58926095D01*
X140935857Y-58988000D01*
X140812047Y-59049904D01*
X140502523Y-59049904D01*
X140378714Y-58988000D01*
X140316809Y-58926095D01*
X140254904Y-58802285D01*
X140254904Y-58492761D01*
X140316809Y-58368952D01*
X140378714Y-58307047D01*
X114473904Y-53818952D02*
X115773904Y-53818952D01*
X115773904Y-54314190D01*
X115712000Y-54438000D01*
X115650095Y-54499904D01*
X115526285Y-54561809D01*
X115340571Y-54561809D01*
X115216761Y-54499904D01*
X115154857Y-54438000D01*
X115092952Y-54314190D01*
X115092952Y-53818952D01*
X114473904Y-55304666D02*
X114535809Y-55180857D01*
X114597714Y-55118952D01*
X114721523Y-55057047D01*
X115092952Y-55057047D01*
X115216761Y-55118952D01*
X115278666Y-55180857D01*
X115340571Y-55304666D01*
X115340571Y-55490380D01*
X115278666Y-55614190D01*
X115216761Y-55676095D01*
X115092952Y-55738000D01*
X114721523Y-55738000D01*
X114597714Y-55676095D01*
X114535809Y-55614190D01*
X114473904Y-55490380D01*
X114473904Y-55304666D01*
X115340571Y-56171333D02*
X114473904Y-56418952D01*
X115092952Y-56666571D01*
X114473904Y-56914190D01*
X115340571Y-57161809D01*
X114535809Y-58152285D02*
X114473904Y-58028476D01*
X114473904Y-57780857D01*
X114535809Y-57657047D01*
X114659619Y-57595142D01*
X115154857Y-57595142D01*
X115278666Y-57657047D01*
X115340571Y-57780857D01*
X115340571Y-58028476D01*
X115278666Y-58152285D01*
X115154857Y-58214190D01*
X115031047Y-58214190D01*
X114907238Y-57595142D01*
X114473904Y-58771333D02*
X115340571Y-58771333D01*
X115092952Y-58771333D02*
X115216761Y-58833238D01*
X115278666Y-58895142D01*
X115340571Y-59018952D01*
X115340571Y-59142761D01*
X119553904Y-54505333D02*
X120172952Y-54072000D01*
X119553904Y-53762476D02*
X120853904Y-53762476D01*
X120853904Y-54257714D01*
X120792000Y-54381523D01*
X120730095Y-54443428D01*
X120606285Y-54505333D01*
X120420571Y-54505333D01*
X120296761Y-54443428D01*
X120234857Y-54381523D01*
X120172952Y-54257714D01*
X120172952Y-53762476D01*
X120853904Y-54938666D02*
X119553904Y-55805333D01*
X120853904Y-55805333D02*
X119553904Y-54938666D01*
X119553904Y-56300571D02*
X120853904Y-56300571D01*
X120853904Y-56610095D01*
X120792000Y-56795809D01*
X120668190Y-56919619D01*
X120544380Y-56981523D01*
X120296761Y-57043428D01*
X120111047Y-57043428D01*
X119863428Y-56981523D01*
X119739619Y-56919619D01*
X119615809Y-56795809D01*
X119553904Y-56610095D01*
X119553904Y-56300571D01*
X124663904Y-53731523D02*
X124663904Y-54474380D01*
X123363904Y-54102952D02*
X124663904Y-54102952D01*
X124663904Y-54783904D02*
X123363904Y-55650571D01*
X124663904Y-55650571D02*
X123363904Y-54783904D01*
X123363904Y-56145809D02*
X124663904Y-56145809D01*
X124663904Y-56455333D01*
X124602000Y-56641047D01*
X124478190Y-56764857D01*
X124354380Y-56826761D01*
X124106761Y-56888666D01*
X123921047Y-56888666D01*
X123673428Y-56826761D01*
X123549619Y-56764857D01*
X123425809Y-56641047D01*
X123363904Y-56455333D01*
X123363904Y-56145809D01*
X186477142Y-55198095D02*
X186477142Y-53898095D01*
X186972380Y-53898095D01*
X187096190Y-53960000D01*
X187158095Y-54021904D01*
X187220000Y-54145714D01*
X187220000Y-54331428D01*
X187158095Y-54455238D01*
X187096190Y-54517142D01*
X186972380Y-54579047D01*
X186477142Y-54579047D01*
X188024761Y-53898095D02*
X188272380Y-53898095D01*
X188396190Y-53960000D01*
X188520000Y-54083809D01*
X188581904Y-54331428D01*
X188581904Y-54764761D01*
X188520000Y-55012380D01*
X188396190Y-55136190D01*
X188272380Y-55198095D01*
X188024761Y-55198095D01*
X187900952Y-55136190D01*
X187777142Y-55012380D01*
X187715238Y-54764761D01*
X187715238Y-54331428D01*
X187777142Y-54083809D01*
X187900952Y-53960000D01*
X188024761Y-53898095D01*
X189015238Y-53898095D02*
X189324761Y-55198095D01*
X189572380Y-54269523D01*
X189820000Y-55198095D01*
X190129523Y-53898095D01*
X190624761Y-54517142D02*
X191058095Y-54517142D01*
X191243809Y-55198095D02*
X190624761Y-55198095D01*
X190624761Y-53898095D01*
X191243809Y-53898095D01*
X192543809Y-55198095D02*
X192110476Y-54579047D01*
X191800952Y-55198095D02*
X191800952Y-53898095D01*
X192296190Y-53898095D01*
X192420000Y-53960000D01*
X192481904Y-54021904D01*
X192543809Y-54145714D01*
X192543809Y-54331428D01*
X192481904Y-54455238D01*
X192420000Y-54517142D01*
X192296190Y-54579047D01*
X191800952Y-54579047D01*
X194772380Y-55198095D02*
X194029523Y-55198095D01*
X194400952Y-55198095D02*
X194400952Y-53898095D01*
X194277142Y-54083809D01*
X194153333Y-54207619D01*
X194029523Y-54269523D01*
X195267619Y-54021904D02*
X195329523Y-53960000D01*
X195453333Y-53898095D01*
X195762857Y-53898095D01*
X195886666Y-53960000D01*
X195948571Y-54021904D01*
X196010476Y-54145714D01*
X196010476Y-54269523D01*
X195948571Y-54455238D01*
X195205714Y-55198095D01*
X196010476Y-55198095D01*
X196381904Y-53898095D02*
X196815238Y-55198095D01*
X197248571Y-53898095D01*
X178298095Y-53898095D02*
X178298095Y-54950476D01*
X178360000Y-55074285D01*
X178421904Y-55136190D01*
X178545714Y-55198095D01*
X178793333Y-55198095D01*
X178917142Y-55136190D01*
X178979047Y-55074285D01*
X179040952Y-54950476D01*
X179040952Y-53898095D01*
X179598095Y-55136190D02*
X179783809Y-55198095D01*
X180093333Y-55198095D01*
X180217142Y-55136190D01*
X180279047Y-55074285D01*
X180340952Y-54950476D01*
X180340952Y-54826666D01*
X180279047Y-54702857D01*
X180217142Y-54640952D01*
X180093333Y-54579047D01*
X179845714Y-54517142D01*
X179721904Y-54455238D01*
X179660000Y-54393333D01*
X179598095Y-54269523D01*
X179598095Y-54145714D01*
X179660000Y-54021904D01*
X179721904Y-53960000D01*
X179845714Y-53898095D01*
X180155238Y-53898095D01*
X180340952Y-53960000D01*
X181331428Y-54517142D02*
X181517142Y-54579047D01*
X181579047Y-54640952D01*
X181640952Y-54764761D01*
X181640952Y-54950476D01*
X181579047Y-55074285D01*
X181517142Y-55136190D01*
X181393333Y-55198095D01*
X180898095Y-55198095D01*
X180898095Y-53898095D01*
X181331428Y-53898095D01*
X181455238Y-53960000D01*
X181517142Y-54021904D01*
X181579047Y-54145714D01*
X181579047Y-54269523D01*
X181517142Y-54393333D01*
X181455238Y-54455238D01*
X181331428Y-54517142D01*
X180898095Y-54517142D01*
X183807619Y-53898095D02*
X183188571Y-53898095D01*
X183126666Y-54517142D01*
X183188571Y-54455238D01*
X183312380Y-54393333D01*
X183621904Y-54393333D01*
X183745714Y-54455238D01*
X183807619Y-54517142D01*
X183869523Y-54640952D01*
X183869523Y-54950476D01*
X183807619Y-55074285D01*
X183745714Y-55136190D01*
X183621904Y-55198095D01*
X183312380Y-55198095D01*
X183188571Y-55136190D01*
X183126666Y-55074285D01*
X184240952Y-53898095D02*
X184674285Y-55198095D01*
X185107619Y-53898095D01*
D11*
X135559904Y-78952000D02*
X135455142Y-78899619D01*
X135298000Y-78899619D01*
X135140857Y-78952000D01*
X135036095Y-79056761D01*
X134983714Y-79161523D01*
X134931333Y-79371047D01*
X134931333Y-79528190D01*
X134983714Y-79737714D01*
X135036095Y-79842476D01*
X135140857Y-79947238D01*
X135298000Y-79999619D01*
X135402761Y-79999619D01*
X135559904Y-79947238D01*
X135612285Y-79894857D01*
X135612285Y-79528190D01*
X135402761Y-79528190D01*
X136083714Y-79999619D02*
X136083714Y-78899619D01*
X136712285Y-79999619D01*
X136712285Y-78899619D01*
X137236095Y-79999619D02*
X137236095Y-78899619D01*
X137498000Y-78899619D01*
X137655142Y-78952000D01*
X137759904Y-79056761D01*
X137812285Y-79161523D01*
X137864666Y-79371047D01*
X137864666Y-79528190D01*
X137812285Y-79737714D01*
X137759904Y-79842476D01*
X137655142Y-79947238D01*
X137498000Y-79999619D01*
X137236095Y-79999619D01*
X134782095Y-71025619D02*
X135463047Y-71025619D01*
X135096380Y-71444666D01*
X135253523Y-71444666D01*
X135358285Y-71497047D01*
X135410666Y-71549428D01*
X135463047Y-71654190D01*
X135463047Y-71916095D01*
X135410666Y-72020857D01*
X135358285Y-72073238D01*
X135253523Y-72125619D01*
X134939238Y-72125619D01*
X134834476Y-72073238D01*
X134782095Y-72020857D01*
X135777333Y-71025619D02*
X136144000Y-72125619D01*
X136510666Y-71025619D01*
X136772571Y-71025619D02*
X137453523Y-71025619D01*
X137086857Y-71444666D01*
X137244000Y-71444666D01*
X137348761Y-71497047D01*
X137401142Y-71549428D01*
X137453523Y-71654190D01*
X137453523Y-71916095D01*
X137401142Y-72020857D01*
X137348761Y-72073238D01*
X137244000Y-72125619D01*
X136929714Y-72125619D01*
X136824952Y-72073238D01*
X136772571Y-72020857D01*
X134797904Y-76359619D02*
X135426476Y-76359619D01*
X135112190Y-77459619D02*
X135112190Y-76359619D01*
X135688380Y-76359619D02*
X136421714Y-77459619D01*
X136421714Y-76359619D02*
X135688380Y-77459619D01*
X135452666Y-74665619D02*
X135086000Y-74141809D01*
X134824095Y-74665619D02*
X134824095Y-73565619D01*
X135243142Y-73565619D01*
X135347904Y-73618000D01*
X135400285Y-73670380D01*
X135452666Y-73775142D01*
X135452666Y-73932285D01*
X135400285Y-74037047D01*
X135347904Y-74089428D01*
X135243142Y-74141809D01*
X134824095Y-74141809D01*
X135819333Y-73565619D02*
X136552666Y-74665619D01*
X136552666Y-73565619D02*
X135819333Y-74665619D01*
D10*
X130190000Y-52095523D02*
X130251904Y-51971714D01*
X130251904Y-51786000D01*
X130190000Y-51600285D01*
X130066190Y-51476476D01*
X129942380Y-51414571D01*
X129694761Y-51352666D01*
X129509047Y-51352666D01*
X129261428Y-51414571D01*
X129137619Y-51476476D01*
X129013809Y-51600285D01*
X128951904Y-51786000D01*
X128951904Y-51909809D01*
X129013809Y-52095523D01*
X129075714Y-52157428D01*
X129509047Y-52157428D01*
X129509047Y-51909809D01*
X128951904Y-52714571D02*
X130251904Y-52714571D01*
X128951904Y-53457428D01*
X130251904Y-53457428D01*
X128951904Y-54076476D02*
X130251904Y-54076476D01*
X130251904Y-54386000D01*
X130190000Y-54571714D01*
X130066190Y-54695523D01*
X129942380Y-54757428D01*
X129694761Y-54819333D01*
X129509047Y-54819333D01*
X129261428Y-54757428D01*
X129137619Y-54695523D01*
X129013809Y-54571714D01*
X128951904Y-54386000D01*
X128951904Y-54076476D01*
X137871904Y-52076380D02*
X137871904Y-51457333D01*
X137252857Y-51395428D01*
X137314761Y-51457333D01*
X137376666Y-51581142D01*
X137376666Y-51890666D01*
X137314761Y-52014476D01*
X137252857Y-52076380D01*
X137129047Y-52138285D01*
X136819523Y-52138285D01*
X136695714Y-52076380D01*
X136633809Y-52014476D01*
X136571904Y-51890666D01*
X136571904Y-51581142D01*
X136633809Y-51457333D01*
X136695714Y-51395428D01*
X137871904Y-52509714D02*
X136571904Y-52943047D01*
X137871904Y-53376380D01*
X132791904Y-51333523D02*
X132791904Y-52076380D01*
X131491904Y-51704952D02*
X132791904Y-51704952D01*
X132791904Y-52385904D02*
X131491904Y-53252571D01*
X132791904Y-53252571D02*
X131491904Y-52385904D01*
X134031904Y-52107333D02*
X134650952Y-51674000D01*
X134031904Y-51364476D02*
X135331904Y-51364476D01*
X135331904Y-51859714D01*
X135270000Y-51983523D01*
X135208095Y-52045428D01*
X135084285Y-52107333D01*
X134898571Y-52107333D01*
X134774761Y-52045428D01*
X134712857Y-51983523D01*
X134650952Y-51859714D01*
X134650952Y-51364476D01*
X135331904Y-52540666D02*
X134031904Y-53407333D01*
X135331904Y-53407333D02*
X134031904Y-52540666D01*
D12*
G04 #@! TO.C,J23*
X131572000Y-70358000D02*
X134112000Y-70358000D01*
X134112000Y-70358000D02*
X134112000Y-80518000D01*
X134112000Y-80518000D02*
X131572000Y-80518000D01*
X131572000Y-80518000D02*
X131572000Y-70358000D01*
G04 #@! TO.C,S*
X145293253Y-134527625D02*
X145293253Y-125527625D01*
X150293253Y-125527625D02*
X150293253Y-134527625D01*
X145293253Y-125527625D02*
X145293253Y-119527625D01*
X145793253Y-134027725D02*
X145793253Y-126027725D01*
X146293253Y-123527625D02*
X146293253Y-120527625D01*
X150293253Y-125527625D02*
X150293253Y-119527625D01*
X149793253Y-134027725D02*
X149793253Y-126027725D01*
X149293253Y-123527625D02*
X149293253Y-120527625D01*
X145793253Y-120527625D02*
X145793253Y-117026625D01*
X146293253Y-120027525D02*
X146293253Y-117527625D01*
X146793253Y-126027725D02*
X146793253Y-125527625D01*
X149793253Y-120527625D02*
X149793253Y-117027525D01*
X149293253Y-120027525D02*
X149293253Y-117527625D01*
X148793253Y-126027725D02*
X148793253Y-125527625D01*
X149793253Y-134027725D02*
X145793253Y-134027725D01*
X145793253Y-126027725D02*
X149793253Y-126027725D01*
X149293353Y-123527625D02*
X146293153Y-123527625D01*
X145793253Y-120527625D02*
X149793253Y-120527625D01*
X145793253Y-117027525D02*
X149793253Y-117027525D01*
X149294253Y-120027525D02*
X146292253Y-120027525D01*
X149294253Y-117527625D02*
X146292253Y-117527625D01*
X150293353Y-134527625D02*
X145293153Y-134527625D01*
X150293353Y-125527625D02*
X145293153Y-125527625D01*
X145793253Y-119527625D02*
X145293253Y-119527625D01*
X150293253Y-119527625D02*
X149793253Y-119527625D01*
G04 #@! TO.C,D*
X142673253Y-119527625D02*
X142173253Y-119527625D01*
X138173253Y-119527625D02*
X137673253Y-119527625D01*
X142673353Y-125527625D02*
X137673153Y-125527625D01*
X142673353Y-134527625D02*
X137673153Y-134527625D01*
X141674253Y-117527625D02*
X138672253Y-117527625D01*
X141674253Y-120027525D02*
X138672253Y-120027525D01*
X138173253Y-117027525D02*
X142173253Y-117027525D01*
X138173253Y-120527625D02*
X142173253Y-120527625D01*
X141673353Y-123527625D02*
X138673153Y-123527625D01*
X138173253Y-126027725D02*
X142173253Y-126027725D01*
X142173253Y-134027725D02*
X138173253Y-134027725D01*
X141173253Y-126027725D02*
X141173253Y-125527625D01*
X141673253Y-120027525D02*
X141673253Y-117527625D01*
X142173253Y-120527625D02*
X142173253Y-117027525D01*
X139173253Y-126027725D02*
X139173253Y-125527625D01*
X138673253Y-120027525D02*
X138673253Y-117527625D01*
X138173253Y-120527625D02*
X138173253Y-117026625D01*
X141673253Y-123527625D02*
X141673253Y-120527625D01*
X142173253Y-134027725D02*
X142173253Y-126027725D01*
X142673253Y-125527625D02*
X142673253Y-119527625D01*
X138673253Y-123527625D02*
X138673253Y-120527625D01*
X138173253Y-134027725D02*
X138173253Y-126027725D01*
X137673253Y-125527625D02*
X137673253Y-119527625D01*
X142673253Y-125527625D02*
X142673253Y-134527625D01*
X137673253Y-134527625D02*
X137673253Y-125527625D01*
G04 #@! TO.C,S*
X132593253Y-134527625D02*
X132593253Y-125527625D01*
X137593253Y-125527625D02*
X137593253Y-134527625D01*
X132593253Y-125527625D02*
X132593253Y-119527625D01*
X133093253Y-134027725D02*
X133093253Y-126027725D01*
X133593253Y-123527625D02*
X133593253Y-120527625D01*
X137593253Y-125527625D02*
X137593253Y-119527625D01*
X137093253Y-134027725D02*
X137093253Y-126027725D01*
X136593253Y-123527625D02*
X136593253Y-120527625D01*
X133093253Y-120527625D02*
X133093253Y-117026625D01*
X133593253Y-120027525D02*
X133593253Y-117527625D01*
X134093253Y-126027725D02*
X134093253Y-125527625D01*
X137093253Y-120527625D02*
X137093253Y-117027525D01*
X136593253Y-120027525D02*
X136593253Y-117527625D01*
X136093253Y-126027725D02*
X136093253Y-125527625D01*
X137093253Y-134027725D02*
X133093253Y-134027725D01*
X133093253Y-126027725D02*
X137093253Y-126027725D01*
X136593353Y-123527625D02*
X133593153Y-123527625D01*
X133093253Y-120527625D02*
X137093253Y-120527625D01*
X133093253Y-117027525D02*
X137093253Y-117027525D01*
X136594253Y-120027525D02*
X133592253Y-120027525D01*
X136594253Y-117527625D02*
X133592253Y-117527625D01*
X137593353Y-134527625D02*
X132593153Y-134527625D01*
X137593353Y-125527625D02*
X132593153Y-125527625D01*
X133093253Y-119527625D02*
X132593253Y-119527625D01*
X137593253Y-119527625D02*
X137093253Y-119527625D01*
G04 #@! TO.C,D*
X155373253Y-119527625D02*
X154873253Y-119527625D01*
X150873253Y-119527625D02*
X150373253Y-119527625D01*
X155373353Y-125527625D02*
X150373153Y-125527625D01*
X155373353Y-134527625D02*
X150373153Y-134527625D01*
X154374253Y-117527625D02*
X151372253Y-117527625D01*
X154374253Y-120027525D02*
X151372253Y-120027525D01*
X150873253Y-117027525D02*
X154873253Y-117027525D01*
X150873253Y-120527625D02*
X154873253Y-120527625D01*
X154373353Y-123527625D02*
X151373153Y-123527625D01*
X150873253Y-126027725D02*
X154873253Y-126027725D01*
X154873253Y-134027725D02*
X150873253Y-134027725D01*
X153873253Y-126027725D02*
X153873253Y-125527625D01*
X154373253Y-120027525D02*
X154373253Y-117527625D01*
X154873253Y-120527625D02*
X154873253Y-117027525D01*
X151873253Y-126027725D02*
X151873253Y-125527625D01*
X151373253Y-120027525D02*
X151373253Y-117527625D01*
X150873253Y-120527625D02*
X150873253Y-117026625D01*
X154373253Y-123527625D02*
X154373253Y-120527625D01*
X154873253Y-134027725D02*
X154873253Y-126027725D01*
X155373253Y-125527625D02*
X155373253Y-119527625D01*
X151373253Y-123527625D02*
X151373253Y-120527625D01*
X150873253Y-134027725D02*
X150873253Y-126027725D01*
X150373253Y-125527625D02*
X150373253Y-119527625D01*
X155373253Y-125527625D02*
X155373253Y-134527625D01*
X150373253Y-134527625D02*
X150373253Y-125527625D01*
G04 #@! TO.C,S*
X183361012Y-134560028D02*
X183361012Y-125560028D01*
X188361012Y-125560028D02*
X188361012Y-134560028D01*
X183361012Y-125560028D02*
X183361012Y-119560028D01*
X183861012Y-134060128D02*
X183861012Y-126060128D01*
X184361012Y-123560028D02*
X184361012Y-120560028D01*
X188361012Y-125560028D02*
X188361012Y-119560028D01*
X187861012Y-134060128D02*
X187861012Y-126060128D01*
X187361012Y-123560028D02*
X187361012Y-120560028D01*
X183861012Y-120560028D02*
X183861012Y-117059028D01*
X184361012Y-120059928D02*
X184361012Y-117560028D01*
X184861012Y-126060128D02*
X184861012Y-125560028D01*
X187861012Y-120560028D02*
X187861012Y-117059928D01*
X187361012Y-120059928D02*
X187361012Y-117560028D01*
X186861012Y-126060128D02*
X186861012Y-125560028D01*
X187861012Y-134060128D02*
X183861012Y-134060128D01*
X183861012Y-126060128D02*
X187861012Y-126060128D01*
X187361112Y-123560028D02*
X184360912Y-123560028D01*
X183861012Y-120560028D02*
X187861012Y-120560028D01*
X183861012Y-117059928D02*
X187861012Y-117059928D01*
X187362012Y-120059928D02*
X184360012Y-120059928D01*
X187362012Y-117560028D02*
X184360012Y-117560028D01*
X188361112Y-134560028D02*
X183360912Y-134560028D01*
X188361112Y-125560028D02*
X183360912Y-125560028D01*
X183861012Y-119560028D02*
X183361012Y-119560028D01*
X188361012Y-119560028D02*
X187861012Y-119560028D01*
G04 #@! TO.C,D*
X206649012Y-109844528D02*
X206149012Y-109844528D01*
X202149012Y-109844528D02*
X201649012Y-109844528D01*
X206649112Y-115844528D02*
X201648912Y-115844528D01*
X206649112Y-124844528D02*
X201648912Y-124844528D01*
X205650012Y-107844528D02*
X202648012Y-107844528D01*
X205650012Y-110344428D02*
X202648012Y-110344428D01*
X202149012Y-107344428D02*
X206149012Y-107344428D01*
X202149012Y-110844528D02*
X206149012Y-110844528D01*
X205649112Y-113844528D02*
X202648912Y-113844528D01*
X202149012Y-116344628D02*
X206149012Y-116344628D01*
X206149012Y-124344628D02*
X202149012Y-124344628D01*
X205149012Y-116344628D02*
X205149012Y-115844528D01*
X205649012Y-110344428D02*
X205649012Y-107844528D01*
X206149012Y-110844528D02*
X206149012Y-107344428D01*
X203149012Y-116344628D02*
X203149012Y-115844528D01*
X202649012Y-110344428D02*
X202649012Y-107844528D01*
X202149012Y-110844528D02*
X202149012Y-107343528D01*
X205649012Y-113844528D02*
X205649012Y-110844528D01*
X206149012Y-124344628D02*
X206149012Y-116344628D01*
X206649012Y-115844528D02*
X206649012Y-109844528D01*
X202649012Y-113844528D02*
X202649012Y-110844528D01*
X202149012Y-124344628D02*
X202149012Y-116344628D01*
X201649012Y-115844528D02*
X201649012Y-109844528D01*
X206649012Y-115844528D02*
X206649012Y-124844528D01*
X201649012Y-124844528D02*
X201649012Y-115844528D01*
G04 #@! TO.C,S*
X196569012Y-124844528D02*
X196569012Y-115844528D01*
X201569012Y-115844528D02*
X201569012Y-124844528D01*
X196569012Y-115844528D02*
X196569012Y-109844528D01*
X197069012Y-124344628D02*
X197069012Y-116344628D01*
X197569012Y-113844528D02*
X197569012Y-110844528D01*
X201569012Y-115844528D02*
X201569012Y-109844528D01*
X201069012Y-124344628D02*
X201069012Y-116344628D01*
X200569012Y-113844528D02*
X200569012Y-110844528D01*
X197069012Y-110844528D02*
X197069012Y-107343528D01*
X197569012Y-110344428D02*
X197569012Y-107844528D01*
X198069012Y-116344628D02*
X198069012Y-115844528D01*
X201069012Y-110844528D02*
X201069012Y-107344428D01*
X200569012Y-110344428D02*
X200569012Y-107844528D01*
X200069012Y-116344628D02*
X200069012Y-115844528D01*
X201069012Y-124344628D02*
X197069012Y-124344628D01*
X197069012Y-116344628D02*
X201069012Y-116344628D01*
X200569112Y-113844528D02*
X197568912Y-113844528D01*
X197069012Y-110844528D02*
X201069012Y-110844528D01*
X197069012Y-107344428D02*
X201069012Y-107344428D01*
X200570012Y-110344428D02*
X197568012Y-110344428D01*
X200570012Y-107844528D02*
X197568012Y-107844528D01*
X201569112Y-124844528D02*
X196568912Y-124844528D01*
X201569112Y-115844528D02*
X196568912Y-115844528D01*
X197069012Y-109844528D02*
X196569012Y-109844528D01*
X201569012Y-109844528D02*
X201069012Y-109844528D01*
G04 #@! TO.C,D*
X167916052Y-119544337D02*
X167416052Y-119544337D01*
X163416052Y-119544337D02*
X162916052Y-119544337D01*
X167916152Y-125544337D02*
X162915952Y-125544337D01*
X167916152Y-134544337D02*
X162915952Y-134544337D01*
X166917052Y-117544337D02*
X163915052Y-117544337D01*
X166917052Y-120044237D02*
X163915052Y-120044237D01*
X163416052Y-117044237D02*
X167416052Y-117044237D01*
X163416052Y-120544337D02*
X167416052Y-120544337D01*
X166916152Y-123544337D02*
X163915952Y-123544337D01*
X163416052Y-126044437D02*
X167416052Y-126044437D01*
X167416052Y-134044437D02*
X163416052Y-134044437D01*
X166416052Y-126044437D02*
X166416052Y-125544337D01*
X166916052Y-120044237D02*
X166916052Y-117544337D01*
X167416052Y-120544337D02*
X167416052Y-117044237D01*
X164416052Y-126044437D02*
X164416052Y-125544337D01*
X163916052Y-120044237D02*
X163916052Y-117544337D01*
X163416052Y-120544337D02*
X163416052Y-117043337D01*
X166916052Y-123544337D02*
X166916052Y-120544337D01*
X167416052Y-134044437D02*
X167416052Y-126044437D01*
X167916052Y-125544337D02*
X167916052Y-119544337D01*
X163916052Y-123544337D02*
X163916052Y-120544337D01*
X163416052Y-134044437D02*
X163416052Y-126044437D01*
X162916052Y-125544337D02*
X162916052Y-119544337D01*
X167916052Y-125544337D02*
X167916052Y-134544337D01*
X162916052Y-134544337D02*
X162916052Y-125544337D01*
X175616052Y-134544337D02*
X175616052Y-125544337D01*
X180616052Y-125544337D02*
X180616052Y-134544337D01*
X175616052Y-125544337D02*
X175616052Y-119544337D01*
X176116052Y-134044437D02*
X176116052Y-126044437D01*
X176616052Y-123544337D02*
X176616052Y-120544337D01*
X180616052Y-125544337D02*
X180616052Y-119544337D01*
X180116052Y-134044437D02*
X180116052Y-126044437D01*
X179616052Y-123544337D02*
X179616052Y-120544337D01*
X176116052Y-120544337D02*
X176116052Y-117043337D01*
X176616052Y-120044237D02*
X176616052Y-117544337D01*
X177116052Y-126044437D02*
X177116052Y-125544337D01*
X180116052Y-120544337D02*
X180116052Y-117044237D01*
X179616052Y-120044237D02*
X179616052Y-117544337D01*
X179116052Y-126044437D02*
X179116052Y-125544337D01*
X180116052Y-134044437D02*
X176116052Y-134044437D01*
X176116052Y-126044437D02*
X180116052Y-126044437D01*
X179616152Y-123544337D02*
X176615952Y-123544337D01*
X176116052Y-120544337D02*
X180116052Y-120544337D01*
X176116052Y-117044237D02*
X180116052Y-117044237D01*
X179617052Y-120044237D02*
X176615052Y-120044237D01*
X179617052Y-117544337D02*
X176615052Y-117544337D01*
X180616152Y-134544337D02*
X175615952Y-134544337D01*
X180616152Y-125544337D02*
X175615952Y-125544337D01*
X176116052Y-119544337D02*
X175616052Y-119544337D01*
X180616052Y-119544337D02*
X180116052Y-119544337D01*
G04 #@! TO.C,S*
X175536052Y-119544337D02*
X175036052Y-119544337D01*
X171036052Y-119544337D02*
X170536052Y-119544337D01*
X175536152Y-125544337D02*
X170535952Y-125544337D01*
X175536152Y-134544337D02*
X170535952Y-134544337D01*
X174537052Y-117544337D02*
X171535052Y-117544337D01*
X174537052Y-120044237D02*
X171535052Y-120044237D01*
X171036052Y-117044237D02*
X175036052Y-117044237D01*
X171036052Y-120544337D02*
X175036052Y-120544337D01*
X174536152Y-123544337D02*
X171535952Y-123544337D01*
X171036052Y-126044437D02*
X175036052Y-126044437D01*
X175036052Y-134044437D02*
X171036052Y-134044437D01*
X174036052Y-126044437D02*
X174036052Y-125544337D01*
X174536052Y-120044237D02*
X174536052Y-117544337D01*
X175036052Y-120544337D02*
X175036052Y-117044237D01*
X172036052Y-126044437D02*
X172036052Y-125544337D01*
X171536052Y-120044237D02*
X171536052Y-117544337D01*
X171036052Y-120544337D02*
X171036052Y-117043337D01*
X174536052Y-123544337D02*
X174536052Y-120544337D01*
X175036052Y-134044437D02*
X175036052Y-126044437D01*
X175536052Y-125544337D02*
X175536052Y-119544337D01*
X171536052Y-123544337D02*
X171536052Y-120544337D01*
X171036052Y-134044437D02*
X171036052Y-126044437D01*
X170536052Y-125544337D02*
X170536052Y-119544337D01*
X175536052Y-125544337D02*
X175536052Y-134544337D01*
X170536052Y-134544337D02*
X170536052Y-125544337D01*
G04 #@! TO.C,D*
X188441012Y-134560028D02*
X188441012Y-125560028D01*
X193441012Y-125560028D02*
X193441012Y-134560028D01*
X188441012Y-125560028D02*
X188441012Y-119560028D01*
X188941012Y-134060128D02*
X188941012Y-126060128D01*
X189441012Y-123560028D02*
X189441012Y-120560028D01*
X193441012Y-125560028D02*
X193441012Y-119560028D01*
X192941012Y-134060128D02*
X192941012Y-126060128D01*
X192441012Y-123560028D02*
X192441012Y-120560028D01*
X188941012Y-120560028D02*
X188941012Y-117059028D01*
X189441012Y-120059928D02*
X189441012Y-117560028D01*
X189941012Y-126060128D02*
X189941012Y-125560028D01*
X192941012Y-120560028D02*
X192941012Y-117059928D01*
X192441012Y-120059928D02*
X192441012Y-117560028D01*
X191941012Y-126060128D02*
X191941012Y-125560028D01*
X192941012Y-134060128D02*
X188941012Y-134060128D01*
X188941012Y-126060128D02*
X192941012Y-126060128D01*
X192441112Y-123560028D02*
X189440912Y-123560028D01*
X188941012Y-120560028D02*
X192941012Y-120560028D01*
X188941012Y-117059928D02*
X192941012Y-117059928D01*
X192442012Y-120059928D02*
X189440012Y-120059928D01*
X192442012Y-117560028D02*
X189440012Y-117560028D01*
X193441112Y-134560028D02*
X188440912Y-134560028D01*
X193441112Y-125560028D02*
X188440912Y-125560028D01*
X188941012Y-119560028D02*
X188441012Y-119560028D01*
X193441012Y-119560028D02*
X192941012Y-119560028D01*
G04 #@! TO.C,S*
X162836052Y-119544337D02*
X162336052Y-119544337D01*
X158336052Y-119544337D02*
X157836052Y-119544337D01*
X162836152Y-125544337D02*
X157835952Y-125544337D01*
X162836152Y-134544337D02*
X157835952Y-134544337D01*
X161837052Y-117544337D02*
X158835052Y-117544337D01*
X161837052Y-120044237D02*
X158835052Y-120044237D01*
X158336052Y-117044237D02*
X162336052Y-117044237D01*
X158336052Y-120544337D02*
X162336052Y-120544337D01*
X161836152Y-123544337D02*
X158835952Y-123544337D01*
X158336052Y-126044437D02*
X162336052Y-126044437D01*
X162336052Y-134044437D02*
X158336052Y-134044437D01*
X161336052Y-126044437D02*
X161336052Y-125544337D01*
X161836052Y-120044237D02*
X161836052Y-117544337D01*
X162336052Y-120544337D02*
X162336052Y-117044237D01*
X159336052Y-126044437D02*
X159336052Y-125544337D01*
X158836052Y-120044237D02*
X158836052Y-117544337D01*
X158336052Y-120544337D02*
X158336052Y-117043337D01*
X161836052Y-123544337D02*
X161836052Y-120544337D01*
X162336052Y-134044437D02*
X162336052Y-126044437D01*
X162836052Y-125544337D02*
X162836052Y-119544337D01*
X158836052Y-123544337D02*
X158836052Y-120544337D01*
X158336052Y-134044437D02*
X158336052Y-126044437D01*
X157836052Y-125544337D02*
X157836052Y-119544337D01*
X162836052Y-125544337D02*
X162836052Y-134544337D01*
X157836052Y-134544337D02*
X157836052Y-125544337D01*
D13*
G04 #@! TO.C,BOOT*
X109470000Y-77930000D02*
X109470000Y-76430000D01*
X108220000Y-73930000D02*
X103720000Y-73930000D01*
X102470000Y-76430000D02*
X102470000Y-77930000D01*
X103720000Y-80430000D02*
X108220000Y-80430000D01*
G04 #@! TO.C,RESET*
X103720000Y-69000000D02*
X108220000Y-69000000D01*
X102470000Y-65000000D02*
X102470000Y-66500000D01*
X108220000Y-62500000D02*
X103720000Y-62500000D01*
X109470000Y-66500000D02*
X109470000Y-65000000D01*
G04 #@! TO.C,PWM fan*
X205165000Y-57070000D02*
X205165000Y-62820000D01*
X205115000Y-64170000D02*
X205115000Y-67370000D01*
X205115000Y-67370000D02*
X199165000Y-67370000D01*
X199165000Y-67370000D02*
X199165000Y-57070000D01*
X199165000Y-57070000D02*
X205165000Y-57070000D01*
X199265000Y-58420000D02*
X200275000Y-58420000D01*
X200275000Y-58420000D02*
X200275000Y-63500000D01*
X200275000Y-63500000D02*
X199265000Y-63500000D01*
G04 #@! TO.C,J3*
X109354000Y-100160000D02*
X113614000Y-100160000D01*
X113614000Y-100160000D02*
X113614000Y-87840000D01*
X113614000Y-87840000D02*
X109354000Y-87840000D01*
X105254000Y-100160000D02*
X96894000Y-100160000D01*
X96894000Y-100160000D02*
X96894000Y-87840000D01*
X96894000Y-87840000D02*
X105254000Y-87840000D01*
X113834000Y-95250000D02*
X114334000Y-95750000D01*
X114334000Y-95750000D02*
X114334000Y-94750000D01*
X114334000Y-94750000D02*
X113834000Y-95250000D01*
D12*
G04 #@! TO.C,D*
X117308000Y-119540000D02*
X116808000Y-119540000D01*
X112808000Y-119540000D02*
X112308000Y-119540000D01*
X117308100Y-125540000D02*
X112307900Y-125540000D01*
X117308100Y-134540000D02*
X112307900Y-134540000D01*
X116309000Y-117540000D02*
X113307000Y-117540000D01*
X116309000Y-120039900D02*
X113307000Y-120039900D01*
X112808000Y-117039900D02*
X116808000Y-117039900D01*
X112808000Y-120540000D02*
X116808000Y-120540000D01*
X116308100Y-123540000D02*
X113307900Y-123540000D01*
X112808000Y-126040100D02*
X116808000Y-126040100D01*
X116808000Y-134040100D02*
X112808000Y-134040100D01*
X115808000Y-126040100D02*
X115808000Y-125540000D01*
X116308000Y-120039900D02*
X116308000Y-117540000D01*
X116808000Y-120540000D02*
X116808000Y-117039900D01*
X113808000Y-126040100D02*
X113808000Y-125540000D01*
X113308000Y-120039900D02*
X113308000Y-117540000D01*
X112808000Y-120540000D02*
X112808000Y-117039000D01*
X116308000Y-123540000D02*
X116308000Y-120540000D01*
X116808000Y-134040100D02*
X116808000Y-126040100D01*
X117308000Y-125540000D02*
X117308000Y-119540000D01*
X113308000Y-123540000D02*
X113308000Y-120540000D01*
X112808000Y-134040100D02*
X112808000Y-126040100D01*
X112308000Y-125540000D02*
X112308000Y-119540000D01*
X117308000Y-125540000D02*
X117308000Y-134540000D01*
X112308000Y-134540000D02*
X112308000Y-125540000D01*
G04 #@! TO.C,S*
X107228000Y-134540000D02*
X107228000Y-125540000D01*
X112228000Y-125540000D02*
X112228000Y-134540000D01*
X107228000Y-125540000D02*
X107228000Y-119540000D01*
X107728000Y-134040100D02*
X107728000Y-126040100D01*
X108228000Y-123540000D02*
X108228000Y-120540000D01*
X112228000Y-125540000D02*
X112228000Y-119540000D01*
X111728000Y-134040100D02*
X111728000Y-126040100D01*
X111228000Y-123540000D02*
X111228000Y-120540000D01*
X107728000Y-120540000D02*
X107728000Y-117039000D01*
X108228000Y-120039900D02*
X108228000Y-117540000D01*
X108728000Y-126040100D02*
X108728000Y-125540000D01*
X111728000Y-120540000D02*
X111728000Y-117039900D01*
X111228000Y-120039900D02*
X111228000Y-117540000D01*
X110728000Y-126040100D02*
X110728000Y-125540000D01*
X111728000Y-134040100D02*
X107728000Y-134040100D01*
X107728000Y-126040100D02*
X111728000Y-126040100D01*
X111228100Y-123540000D02*
X108227900Y-123540000D01*
X107728000Y-120540000D02*
X111728000Y-120540000D01*
X107728000Y-117039900D02*
X111728000Y-117039900D01*
X111229000Y-120039900D02*
X108227000Y-120039900D01*
X111229000Y-117540000D02*
X108227000Y-117540000D01*
X112228100Y-134540000D02*
X107227900Y-134540000D01*
X112228100Y-125540000D02*
X107227900Y-125540000D01*
X107728000Y-119540000D02*
X107228000Y-119540000D01*
X112228000Y-119540000D02*
X111728000Y-119540000D01*
G04 #@! TO.C,D*
X130008000Y-119540000D02*
X129508000Y-119540000D01*
X125508000Y-119540000D02*
X125008000Y-119540000D01*
X130008100Y-125540000D02*
X125007900Y-125540000D01*
X130008100Y-134540000D02*
X125007900Y-134540000D01*
X129009000Y-117540000D02*
X126007000Y-117540000D01*
X129009000Y-120039900D02*
X126007000Y-120039900D01*
X125508000Y-117039900D02*
X129508000Y-117039900D01*
X125508000Y-120540000D02*
X129508000Y-120540000D01*
X129008100Y-123540000D02*
X126007900Y-123540000D01*
X125508000Y-126040100D02*
X129508000Y-126040100D01*
X129508000Y-134040100D02*
X125508000Y-134040100D01*
X128508000Y-126040100D02*
X128508000Y-125540000D01*
X129008000Y-120039900D02*
X129008000Y-117540000D01*
X129508000Y-120540000D02*
X129508000Y-117039900D01*
X126508000Y-126040100D02*
X126508000Y-125540000D01*
X126008000Y-120039900D02*
X126008000Y-117540000D01*
X125508000Y-120540000D02*
X125508000Y-117039000D01*
X129008000Y-123540000D02*
X129008000Y-120540000D01*
X129508000Y-134040100D02*
X129508000Y-126040100D01*
X130008000Y-125540000D02*
X130008000Y-119540000D01*
X126008000Y-123540000D02*
X126008000Y-120540000D01*
X125508000Y-134040100D02*
X125508000Y-126040100D01*
X125008000Y-125540000D02*
X125008000Y-119540000D01*
X130008000Y-125540000D02*
X130008000Y-134540000D01*
X125008000Y-134540000D02*
X125008000Y-125540000D01*
G04 #@! TO.C,S*
X119928000Y-134540000D02*
X119928000Y-125540000D01*
X124928000Y-125540000D02*
X124928000Y-134540000D01*
X119928000Y-125540000D02*
X119928000Y-119540000D01*
X120428000Y-134040100D02*
X120428000Y-126040100D01*
X120928000Y-123540000D02*
X120928000Y-120540000D01*
X124928000Y-125540000D02*
X124928000Y-119540000D01*
X124428000Y-134040100D02*
X124428000Y-126040100D01*
X123928000Y-123540000D02*
X123928000Y-120540000D01*
X120428000Y-120540000D02*
X120428000Y-117039000D01*
X120928000Y-120039900D02*
X120928000Y-117540000D01*
X121428000Y-126040100D02*
X121428000Y-125540000D01*
X124428000Y-120540000D02*
X124428000Y-117039900D01*
X123928000Y-120039900D02*
X123928000Y-117540000D01*
X123428000Y-126040100D02*
X123428000Y-125540000D01*
X124428000Y-134040100D02*
X120428000Y-134040100D01*
X120428000Y-126040100D02*
X124428000Y-126040100D01*
X123928100Y-123540000D02*
X120927900Y-123540000D01*
X120428000Y-120540000D02*
X124428000Y-120540000D01*
X120428000Y-117039900D02*
X124428000Y-117039900D01*
X123929000Y-120039900D02*
X120927000Y-120039900D01*
X123929000Y-117540000D02*
X120927000Y-117540000D01*
X124928100Y-134540000D02*
X119927900Y-134540000D01*
X124928100Y-125540000D02*
X119927900Y-125540000D01*
X120428000Y-119540000D02*
X119928000Y-119540000D01*
X124928000Y-119540000D02*
X124428000Y-119540000D01*
G04 #@! TO.C,J5*
X128270000Y-50800000D02*
X128270000Y-48260000D01*
X128270000Y-48260000D02*
X138430000Y-48260000D01*
X138430000Y-48260000D02*
X138430000Y-50800000D01*
X138430000Y-50800000D02*
X128270000Y-50800000D01*
G04 #@! TO.C,J4*
X177800000Y-53340000D02*
X177800000Y-48260000D01*
X177800000Y-48260000D02*
X185420000Y-48260000D01*
X185420000Y-48260000D02*
X185420000Y-53340000D01*
X185420000Y-53340000D02*
X177800000Y-53340000D01*
G04 #@! TO.C,J2*
X186690000Y-53340000D02*
X186690000Y-48260000D01*
X186690000Y-48260000D02*
X196850000Y-48260000D01*
X196850000Y-48260000D02*
X196850000Y-53340000D01*
X196850000Y-53340000D02*
X186690000Y-53340000D01*
G04 #@! TO.C,J6*
X163830000Y-53340000D02*
X163830000Y-48260000D01*
X163830000Y-48260000D02*
X176530000Y-48260000D01*
X176530000Y-48260000D02*
X176530000Y-53340000D01*
X176530000Y-53340000D02*
X163830000Y-53340000D01*
G04 #@! TO.C,J1*
X139700000Y-53340000D02*
X139700000Y-48260000D01*
X139700000Y-48260000D02*
X162560000Y-48260000D01*
X162560000Y-48260000D02*
X162560000Y-53340000D01*
X162560000Y-53340000D02*
X139700000Y-53340000D01*
D13*
G04 #@! TO.C,LF33*
X197555000Y-78745000D02*
X196455000Y-78745000D01*
X197555000Y-79015000D02*
X197555000Y-78745000D01*
X199055000Y-79015000D02*
X197555000Y-79015000D01*
X197555000Y-72385000D02*
X194725000Y-72385000D01*
X197555000Y-72115000D02*
X197555000Y-72385000D01*
X199055000Y-72115000D02*
X197555000Y-72115000D01*
G04 #@! TO.C,Q5*
X161906052Y-107124337D02*
X160406052Y-107124337D01*
X160406052Y-107124337D02*
X160406052Y-107394337D01*
X160406052Y-107394337D02*
X157576052Y-107394337D01*
X161906052Y-114024337D02*
X160406052Y-114024337D01*
X160406052Y-114024337D02*
X160406052Y-113754337D01*
X160406052Y-113754337D02*
X159306052Y-113754337D01*
G04 #@! TO.C,Q4*
X147863253Y-113737625D02*
X146763253Y-113737625D01*
X147863253Y-114007625D02*
X147863253Y-113737625D01*
X149363253Y-114007625D02*
X147863253Y-114007625D01*
X147863253Y-107377625D02*
X145033253Y-107377625D01*
X147863253Y-107107625D02*
X147863253Y-107377625D01*
X149363253Y-107107625D02*
X147863253Y-107107625D01*
G04 #@! TO.C,Q3*
X136663253Y-107107625D02*
X135163253Y-107107625D01*
X135163253Y-107107625D02*
X135163253Y-107377625D01*
X135163253Y-107377625D02*
X132333253Y-107377625D01*
X136663253Y-114007625D02*
X135163253Y-114007625D01*
X135163253Y-114007625D02*
X135163253Y-113737625D01*
X135163253Y-113737625D02*
X134063253Y-113737625D01*
G04 #@! TO.C,Q8*
X199139012Y-104054528D02*
X198039012Y-104054528D01*
X199139012Y-104324528D02*
X199139012Y-104054528D01*
X200639012Y-104324528D02*
X199139012Y-104324528D01*
X199139012Y-97694528D02*
X196309012Y-97694528D01*
X199139012Y-97424528D02*
X199139012Y-97694528D01*
X200639012Y-97424528D02*
X199139012Y-97424528D01*
G04 #@! TO.C,Q7*
X187431012Y-107140028D02*
X185931012Y-107140028D01*
X185931012Y-107140028D02*
X185931012Y-107410028D01*
X185931012Y-107410028D02*
X183101012Y-107410028D01*
X187431012Y-114040028D02*
X185931012Y-114040028D01*
X185931012Y-114040028D02*
X185931012Y-113770028D01*
X185931012Y-113770028D02*
X184831012Y-113770028D01*
G04 #@! TO.C,Q6*
X173106052Y-113754337D02*
X172006052Y-113754337D01*
X173106052Y-114024337D02*
X173106052Y-113754337D01*
X174606052Y-114024337D02*
X173106052Y-114024337D01*
X173106052Y-107394337D02*
X170276052Y-107394337D01*
X173106052Y-107124337D02*
X173106052Y-107394337D01*
X174606052Y-107124337D02*
X173106052Y-107124337D01*
G04 #@! TO.C,LM7808*
X199055000Y-84180000D02*
X197555000Y-84180000D01*
X197555000Y-84180000D02*
X197555000Y-84450000D01*
X197555000Y-84450000D02*
X194725000Y-84450000D01*
X199055000Y-91080000D02*
X197555000Y-91080000D01*
X197555000Y-91080000D02*
X197555000Y-90810000D01*
X197555000Y-90810000D02*
X196455000Y-90810000D01*
G04 #@! TO.C,Q2*
X122498000Y-113670000D02*
X121398000Y-113670000D01*
X122498000Y-113940000D02*
X122498000Y-113670000D01*
X123998000Y-113940000D02*
X122498000Y-113940000D01*
X122498000Y-107310000D02*
X119668000Y-107310000D01*
X122498000Y-107040000D02*
X122498000Y-107310000D01*
X123998000Y-107040000D02*
X122498000Y-107040000D01*
G04 #@! TO.C,Q1*
X111298000Y-107040000D02*
X109798000Y-107040000D01*
X109798000Y-107040000D02*
X109798000Y-107310000D01*
X109798000Y-107310000D02*
X106968000Y-107310000D01*
X111298000Y-113940000D02*
X109798000Y-113940000D01*
X109798000Y-113940000D02*
X109798000Y-113670000D01*
X109798000Y-113670000D02*
X108698000Y-113670000D01*
G04 #@! TO.C,R13*
X109018000Y-104386748D02*
X109018000Y-104909252D01*
X110438000Y-104386748D02*
X110438000Y-104909252D01*
G04 #@! TO.C,R14*
X123138000Y-104386748D02*
X123138000Y-104909252D01*
X121718000Y-104386748D02*
X121718000Y-104909252D01*
G04 #@! TO.C,R15*
X134418000Y-104386748D02*
X134418000Y-104909252D01*
X135838000Y-104386748D02*
X135838000Y-104909252D01*
G04 #@! TO.C,R20*
X194302748Y-95302000D02*
X194825252Y-95302000D01*
X194302748Y-96722000D02*
X194825252Y-96722000D01*
G04 #@! TO.C,R19*
X185218000Y-104386748D02*
X185218000Y-104909252D01*
X186638000Y-104386748D02*
X186638000Y-104909252D01*
G04 #@! TO.C,R18*
X173938000Y-104386748D02*
X173938000Y-104909252D01*
X172518000Y-104386748D02*
X172518000Y-104909252D01*
G04 #@! TO.C,R16*
X147118000Y-104386748D02*
X147118000Y-104909252D01*
X148538000Y-104386748D02*
X148538000Y-104909252D01*
G04 #@! TO.C,R17*
X161238000Y-104386748D02*
X161238000Y-104909252D01*
X159818000Y-104386748D02*
X159818000Y-104909252D01*
D14*
G04 #@! TO.C,G\002A\002A\002A*
G36*
X103331571Y-112562134D02*
X103327286Y-112584957D01*
X103321301Y-112594945D01*
X103310167Y-112596105D01*
X103303317Y-112594961D01*
X103279963Y-112590854D01*
X103251010Y-112586184D01*
X103244908Y-112585252D01*
X103209183Y-112579865D01*
X103214113Y-112543893D01*
X103213196Y-112506991D01*
X103201687Y-112473970D01*
X103181694Y-112450138D01*
X103175269Y-112446051D01*
X103161201Y-112443055D01*
X103132600Y-112440570D01*
X103091860Y-112438714D01*
X103041377Y-112437605D01*
X102997557Y-112437333D01*
X102836133Y-112437333D01*
X102836133Y-112310333D01*
X103328045Y-112310333D01*
X103325506Y-112358288D01*
X103323575Y-112385546D01*
X103319474Y-112400784D01*
X103310199Y-112408899D01*
X103292748Y-112414782D01*
X103290432Y-112415438D01*
X103257897Y-112424633D01*
X103284860Y-112444512D01*
X103314754Y-112476474D01*
X103330709Y-112516638D01*
X103331575Y-112562107D01*
X103331571Y-112562134D01*
X103331571Y-112562134D01*
G37*
X103331571Y-112562134D02*
X103327286Y-112584957D01*
X103321301Y-112594945D01*
X103310167Y-112596105D01*
X103303317Y-112594961D01*
X103279963Y-112590854D01*
X103251010Y-112586184D01*
X103244908Y-112585252D01*
X103209183Y-112579865D01*
X103214113Y-112543893D01*
X103213196Y-112506991D01*
X103201687Y-112473970D01*
X103181694Y-112450138D01*
X103175269Y-112446051D01*
X103161201Y-112443055D01*
X103132600Y-112440570D01*
X103091860Y-112438714D01*
X103041377Y-112437605D01*
X102997557Y-112437333D01*
X102836133Y-112437333D01*
X102836133Y-112310333D01*
X103328045Y-112310333D01*
X103325506Y-112358288D01*
X103323575Y-112385546D01*
X103319474Y-112400784D01*
X103310199Y-112408899D01*
X103292748Y-112414782D01*
X103290432Y-112415438D01*
X103257897Y-112424633D01*
X103284860Y-112444512D01*
X103314754Y-112476474D01*
X103330709Y-112516638D01*
X103331575Y-112562107D01*
X103331571Y-112562134D01*
G36*
X103201756Y-111504889D02*
X103154325Y-111521355D01*
X103108610Y-111536597D01*
X103068738Y-111549284D01*
X103038838Y-111558083D01*
X103029936Y-111560371D01*
X103004731Y-111566588D01*
X102994343Y-111570558D01*
X102997058Y-111573697D01*
X103009700Y-111577080D01*
X103026165Y-111581045D01*
X103055782Y-111588275D01*
X103095267Y-111597962D01*
X103141336Y-111609303D01*
X103179033Y-111618606D01*
X103322967Y-111654167D01*
X103325488Y-111707083D01*
X103326197Y-111736557D01*
X103324271Y-111752764D01*
X103318958Y-111759268D01*
X103314318Y-111760000D01*
X103302200Y-111757606D01*
X103276701Y-111750946D01*
X103240602Y-111740802D01*
X103196685Y-111727955D01*
X103147732Y-111713189D01*
X103146697Y-111712872D01*
X103091124Y-111695862D01*
X103034358Y-111678493D01*
X102981029Y-111662182D01*
X102935770Y-111648347D01*
X102909809Y-111640416D01*
X102826851Y-111615088D01*
X102829376Y-111567970D01*
X102831900Y-111520853D01*
X102946200Y-111479433D01*
X102992948Y-111462792D01*
X103039390Y-111446781D01*
X103080607Y-111433064D01*
X103111686Y-111423301D01*
X103115533Y-111422175D01*
X103143852Y-111413743D01*
X103157662Y-111408376D01*
X103158806Y-111404731D01*
X103149123Y-111401463D01*
X103145167Y-111400534D01*
X103128988Y-111396004D01*
X103099936Y-111387054D01*
X103061176Y-111374691D01*
X103015874Y-111359924D01*
X102975833Y-111346649D01*
X102831900Y-111298567D01*
X102829358Y-111249781D01*
X102829248Y-111218263D01*
X102833240Y-111201293D01*
X102837825Y-111197251D01*
X102865891Y-111187940D01*
X102904270Y-111175543D01*
X102950513Y-111160821D01*
X103002173Y-111144531D01*
X103056800Y-111127433D01*
X103111947Y-111110286D01*
X103165166Y-111093850D01*
X103214008Y-111078883D01*
X103256025Y-111066146D01*
X103288768Y-111056396D01*
X103309791Y-111050394D01*
X103316536Y-111048800D01*
X103322415Y-111052855D01*
X103325454Y-111066836D01*
X103326023Y-111093462D01*
X103325440Y-111113917D01*
X103322967Y-111179034D01*
X103200200Y-111214797D01*
X103152805Y-111228085D01*
X103107058Y-111239987D01*
X103067324Y-111249430D01*
X103037968Y-111255341D01*
X103031273Y-111256337D01*
X103005522Y-111260972D01*
X102996636Y-111266263D01*
X103004564Y-111272121D01*
X103029253Y-111278462D01*
X103046355Y-111281537D01*
X103067610Y-111286407D01*
X103100853Y-111295635D01*
X103142072Y-111308041D01*
X103187254Y-111322444D01*
X103202988Y-111327647D01*
X103322967Y-111367712D01*
X103325454Y-111413931D01*
X103327940Y-111460150D01*
X103201756Y-111504889D01*
X103201756Y-111504889D01*
G37*
X103201756Y-111504889D02*
X103154325Y-111521355D01*
X103108610Y-111536597D01*
X103068738Y-111549284D01*
X103038838Y-111558083D01*
X103029936Y-111560371D01*
X103004731Y-111566588D01*
X102994343Y-111570558D01*
X102997058Y-111573697D01*
X103009700Y-111577080D01*
X103026165Y-111581045D01*
X103055782Y-111588275D01*
X103095267Y-111597962D01*
X103141336Y-111609303D01*
X103179033Y-111618606D01*
X103322967Y-111654167D01*
X103325488Y-111707083D01*
X103326197Y-111736557D01*
X103324271Y-111752764D01*
X103318958Y-111759268D01*
X103314318Y-111760000D01*
X103302200Y-111757606D01*
X103276701Y-111750946D01*
X103240602Y-111740802D01*
X103196685Y-111727955D01*
X103147732Y-111713189D01*
X103146697Y-111712872D01*
X103091124Y-111695862D01*
X103034358Y-111678493D01*
X102981029Y-111662182D01*
X102935770Y-111648347D01*
X102909809Y-111640416D01*
X102826851Y-111615088D01*
X102829376Y-111567970D01*
X102831900Y-111520853D01*
X102946200Y-111479433D01*
X102992948Y-111462792D01*
X103039390Y-111446781D01*
X103080607Y-111433064D01*
X103111686Y-111423301D01*
X103115533Y-111422175D01*
X103143852Y-111413743D01*
X103157662Y-111408376D01*
X103158806Y-111404731D01*
X103149123Y-111401463D01*
X103145167Y-111400534D01*
X103128988Y-111396004D01*
X103099936Y-111387054D01*
X103061176Y-111374691D01*
X103015874Y-111359924D01*
X102975833Y-111346649D01*
X102831900Y-111298567D01*
X102829358Y-111249781D01*
X102829248Y-111218263D01*
X102833240Y-111201293D01*
X102837825Y-111197251D01*
X102865891Y-111187940D01*
X102904270Y-111175543D01*
X102950513Y-111160821D01*
X103002173Y-111144531D01*
X103056800Y-111127433D01*
X103111947Y-111110286D01*
X103165166Y-111093850D01*
X103214008Y-111078883D01*
X103256025Y-111066146D01*
X103288768Y-111056396D01*
X103309791Y-111050394D01*
X103316536Y-111048800D01*
X103322415Y-111052855D01*
X103325454Y-111066836D01*
X103326023Y-111093462D01*
X103325440Y-111113917D01*
X103322967Y-111179034D01*
X103200200Y-111214797D01*
X103152805Y-111228085D01*
X103107058Y-111239987D01*
X103067324Y-111249430D01*
X103037968Y-111255341D01*
X103031273Y-111256337D01*
X103005522Y-111260972D01*
X102996636Y-111266263D01*
X103004564Y-111272121D01*
X103029253Y-111278462D01*
X103046355Y-111281537D01*
X103067610Y-111286407D01*
X103100853Y-111295635D01*
X103142072Y-111308041D01*
X103187254Y-111322444D01*
X103202988Y-111327647D01*
X103322967Y-111367712D01*
X103325454Y-111413931D01*
X103327940Y-111460150D01*
X103201756Y-111504889D01*
G36*
X103285377Y-114071400D02*
X103305850Y-114101568D01*
X103325941Y-114145252D01*
X103333483Y-114195107D01*
X103328583Y-114246055D01*
X103311349Y-114293019D01*
X103301446Y-114308963D01*
X103273919Y-114334553D01*
X103233650Y-114354856D01*
X103184128Y-114369401D01*
X103128847Y-114377720D01*
X103071297Y-114379341D01*
X103014969Y-114373794D01*
X102963354Y-114360609D01*
X102951633Y-114356080D01*
X102909521Y-114330821D01*
X102872000Y-114294282D01*
X102845177Y-114252770D01*
X102833124Y-114215665D01*
X102825355Y-114168055D01*
X102822358Y-114115936D01*
X102824621Y-114065304D01*
X102827999Y-114041767D01*
X102834203Y-114011101D01*
X102840646Y-113982996D01*
X102842980Y-113974033D01*
X102850048Y-113948633D01*
X103176103Y-113946485D01*
X103176103Y-114071400D01*
X103057624Y-114071400D01*
X103006313Y-114071866D01*
X102970166Y-114073366D01*
X102947438Y-114076050D01*
X102936381Y-114080068D01*
X102934874Y-114081983D01*
X102932278Y-114096153D01*
X102930420Y-114120474D01*
X102929935Y-114135875D01*
X102932229Y-114169465D01*
X102941588Y-114193888D01*
X102947622Y-114202517D01*
X102973224Y-114226068D01*
X103007530Y-114240979D01*
X103053283Y-114248184D01*
X103085077Y-114249200D01*
X103139490Y-114246180D01*
X103179361Y-114236530D01*
X103206078Y-114219366D01*
X103221028Y-114193803D01*
X103225600Y-114159649D01*
X103223107Y-114131116D01*
X103213353Y-114110319D01*
X103200851Y-114096149D01*
X103176103Y-114071400D01*
X103176103Y-113946485D01*
X103185991Y-113946419D01*
X103521933Y-113944206D01*
X103521933Y-114071400D01*
X103285377Y-114071400D01*
X103285377Y-114071400D01*
G37*
X103285377Y-114071400D02*
X103305850Y-114101568D01*
X103325941Y-114145252D01*
X103333483Y-114195107D01*
X103328583Y-114246055D01*
X103311349Y-114293019D01*
X103301446Y-114308963D01*
X103273919Y-114334553D01*
X103233650Y-114354856D01*
X103184128Y-114369401D01*
X103128847Y-114377720D01*
X103071297Y-114379341D01*
X103014969Y-114373794D01*
X102963354Y-114360609D01*
X102951633Y-114356080D01*
X102909521Y-114330821D01*
X102872000Y-114294282D01*
X102845177Y-114252770D01*
X102833124Y-114215665D01*
X102825355Y-114168055D01*
X102822358Y-114115936D01*
X102824621Y-114065304D01*
X102827999Y-114041767D01*
X102834203Y-114011101D01*
X102840646Y-113982996D01*
X102842980Y-113974033D01*
X102850048Y-113948633D01*
X103176103Y-113946485D01*
X103176103Y-114071400D01*
X103057624Y-114071400D01*
X103006313Y-114071866D01*
X102970166Y-114073366D01*
X102947438Y-114076050D01*
X102936381Y-114080068D01*
X102934874Y-114081983D01*
X102932278Y-114096153D01*
X102930420Y-114120474D01*
X102929935Y-114135875D01*
X102932229Y-114169465D01*
X102941588Y-114193888D01*
X102947622Y-114202517D01*
X102973224Y-114226068D01*
X103007530Y-114240979D01*
X103053283Y-114248184D01*
X103085077Y-114249200D01*
X103139490Y-114246180D01*
X103179361Y-114236530D01*
X103206078Y-114219366D01*
X103221028Y-114193803D01*
X103225600Y-114159649D01*
X103223107Y-114131116D01*
X103213353Y-114110319D01*
X103200851Y-114096149D01*
X103176103Y-114071400D01*
X103176103Y-113946485D01*
X103185991Y-113946419D01*
X103521933Y-113944206D01*
X103521933Y-114071400D01*
X103285377Y-114071400D01*
G36*
X103183267Y-113580333D02*
X103109101Y-113580336D01*
X103040232Y-113580344D01*
X102978498Y-113580356D01*
X102925736Y-113580371D01*
X102883783Y-113580391D01*
X102854477Y-113580412D01*
X102839655Y-113580436D01*
X102838250Y-113580444D01*
X102834141Y-113572900D01*
X102830665Y-113553516D01*
X102829368Y-113538875D01*
X102828448Y-113513941D01*
X102831433Y-113500860D01*
X102841005Y-113494595D01*
X102854768Y-113491202D01*
X102879052Y-113485057D01*
X102888054Y-113478041D01*
X102882744Y-113466520D01*
X102866075Y-113448843D01*
X102838219Y-113409502D01*
X102822776Y-113361547D01*
X102820426Y-113308575D01*
X102830248Y-113258999D01*
X102850243Y-113221489D01*
X102883047Y-113188025D01*
X102924543Y-113162244D01*
X102951134Y-113152199D01*
X102994063Y-113143810D01*
X103044519Y-113140196D01*
X103044519Y-113267689D01*
X103004151Y-113272817D01*
X102972612Y-113285245D01*
X102955467Y-113297326D01*
X102932638Y-113326438D01*
X102925197Y-113361375D01*
X102933391Y-113400370D01*
X102939156Y-113413029D01*
X102951178Y-113428843D01*
X102970135Y-113440190D01*
X102998406Y-113447658D01*
X103038367Y-113451835D01*
X103092396Y-113453309D01*
X103102115Y-113453333D01*
X103150090Y-113452980D01*
X103183691Y-113450930D01*
X103205476Y-113445695D01*
X103218002Y-113435787D01*
X103223828Y-113419717D01*
X103225512Y-113395998D01*
X103225600Y-113381503D01*
X103221422Y-113340239D01*
X103207752Y-113309832D01*
X103182888Y-113288790D01*
X103145126Y-113275623D01*
X103097237Y-113269161D01*
X103044519Y-113267689D01*
X103044519Y-113140196D01*
X103044813Y-113140174D01*
X103098253Y-113141050D01*
X103149250Y-113146196D01*
X103192673Y-113155370D01*
X103217133Y-113164723D01*
X103258928Y-113189916D01*
X103288781Y-113217770D01*
X103311574Y-113252874D01*
X103312216Y-113254117D01*
X103325255Y-113291182D01*
X103332868Y-113336735D01*
X103334280Y-113382982D01*
X103328869Y-113421583D01*
X103320098Y-113453333D01*
X103521933Y-113453333D01*
X103521933Y-113580333D01*
X103183267Y-113580333D01*
X103183267Y-113580333D01*
G37*
X103183267Y-113580333D02*
X103109101Y-113580336D01*
X103040232Y-113580344D01*
X102978498Y-113580356D01*
X102925736Y-113580371D01*
X102883783Y-113580391D01*
X102854477Y-113580412D01*
X102839655Y-113580436D01*
X102838250Y-113580444D01*
X102834141Y-113572900D01*
X102830665Y-113553516D01*
X102829368Y-113538875D01*
X102828448Y-113513941D01*
X102831433Y-113500860D01*
X102841005Y-113494595D01*
X102854768Y-113491202D01*
X102879052Y-113485057D01*
X102888054Y-113478041D01*
X102882744Y-113466520D01*
X102866075Y-113448843D01*
X102838219Y-113409502D01*
X102822776Y-113361547D01*
X102820426Y-113308575D01*
X102830248Y-113258999D01*
X102850243Y-113221489D01*
X102883047Y-113188025D01*
X102924543Y-113162244D01*
X102951134Y-113152199D01*
X102994063Y-113143810D01*
X103044519Y-113140196D01*
X103044519Y-113267689D01*
X103004151Y-113272817D01*
X102972612Y-113285245D01*
X102955467Y-113297326D01*
X102932638Y-113326438D01*
X102925197Y-113361375D01*
X102933391Y-113400370D01*
X102939156Y-113413029D01*
X102951178Y-113428843D01*
X102970135Y-113440190D01*
X102998406Y-113447658D01*
X103038367Y-113451835D01*
X103092396Y-113453309D01*
X103102115Y-113453333D01*
X103150090Y-113452980D01*
X103183691Y-113450930D01*
X103205476Y-113445695D01*
X103218002Y-113435787D01*
X103223828Y-113419717D01*
X103225512Y-113395998D01*
X103225600Y-113381503D01*
X103221422Y-113340239D01*
X103207752Y-113309832D01*
X103182888Y-113288790D01*
X103145126Y-113275623D01*
X103097237Y-113269161D01*
X103044519Y-113267689D01*
X103044519Y-113140196D01*
X103044813Y-113140174D01*
X103098253Y-113141050D01*
X103149250Y-113146196D01*
X103192673Y-113155370D01*
X103217133Y-113164723D01*
X103258928Y-113189916D01*
X103288781Y-113217770D01*
X103311574Y-113252874D01*
X103312216Y-113254117D01*
X103325255Y-113291182D01*
X103332868Y-113336735D01*
X103334280Y-113382982D01*
X103328869Y-113421583D01*
X103320098Y-113453333D01*
X103521933Y-113453333D01*
X103521933Y-113580333D01*
X103183267Y-113580333D01*
G36*
X103327051Y-112930799D02*
X103315928Y-112969262D01*
X103312514Y-112976370D01*
X103284478Y-113015077D01*
X103247119Y-113042060D01*
X103198902Y-113058062D01*
X103138296Y-113063825D01*
X103131896Y-113063867D01*
X103102464Y-113064023D01*
X103080816Y-113062999D01*
X103065764Y-113058549D01*
X103056117Y-113048432D01*
X103050687Y-113030404D01*
X103048283Y-113002222D01*
X103047718Y-112961643D01*
X103047800Y-112906424D01*
X103047800Y-112756950D01*
X103024517Y-112761625D01*
X102983644Y-112773298D01*
X102955401Y-112790374D01*
X102937769Y-112811772D01*
X102925460Y-112844760D01*
X102920859Y-112886522D01*
X102923998Y-112930741D01*
X102934909Y-112971099D01*
X102936959Y-112975863D01*
X102952746Y-113010625D01*
X102915380Y-113028779D01*
X102892848Y-113039320D01*
X102877235Y-113045869D01*
X102873539Y-113046933D01*
X102867964Y-113039875D01*
X102857934Y-113021504D01*
X102847378Y-112999567D01*
X102832654Y-112955338D01*
X102823742Y-112903268D01*
X102821127Y-112849814D01*
X102825294Y-112801433D01*
X102830798Y-112778876D01*
X102853438Y-112730396D01*
X102886685Y-112692690D01*
X102931950Y-112664693D01*
X102990644Y-112645338D01*
X103013893Y-112640541D01*
X103085577Y-112634100D01*
X103124000Y-112638108D01*
X103124000Y-112765318D01*
X103124000Y-112859559D01*
X103124549Y-112903619D01*
X103126340Y-112932713D01*
X103129591Y-112948779D01*
X103134520Y-112953752D01*
X103134583Y-112953753D01*
X103161892Y-112949506D01*
X103190701Y-112938999D01*
X103213742Y-112925259D01*
X103221117Y-112917720D01*
X103229411Y-112897454D01*
X103233839Y-112870217D01*
X103234067Y-112863150D01*
X103226413Y-112825219D01*
X103205313Y-112794728D01*
X103173563Y-112774988D01*
X103155750Y-112770365D01*
X103124000Y-112765318D01*
X103124000Y-112638108D01*
X103151989Y-112641029D01*
X103211259Y-112660615D01*
X103261517Y-112692142D01*
X103300893Y-112734897D01*
X103313098Y-112754833D01*
X103325385Y-112790084D01*
X103331795Y-112835181D01*
X103332345Y-112884096D01*
X103327051Y-112930799D01*
X103327051Y-112930799D01*
G37*
X103327051Y-112930799D02*
X103315928Y-112969262D01*
X103312514Y-112976370D01*
X103284478Y-113015077D01*
X103247119Y-113042060D01*
X103198902Y-113058062D01*
X103138296Y-113063825D01*
X103131896Y-113063867D01*
X103102464Y-113064023D01*
X103080816Y-113062999D01*
X103065764Y-113058549D01*
X103056117Y-113048432D01*
X103050687Y-113030404D01*
X103048283Y-113002222D01*
X103047718Y-112961643D01*
X103047800Y-112906424D01*
X103047800Y-112756950D01*
X103024517Y-112761625D01*
X102983644Y-112773298D01*
X102955401Y-112790374D01*
X102937769Y-112811772D01*
X102925460Y-112844760D01*
X102920859Y-112886522D01*
X102923998Y-112930741D01*
X102934909Y-112971099D01*
X102936959Y-112975863D01*
X102952746Y-113010625D01*
X102915380Y-113028779D01*
X102892848Y-113039320D01*
X102877235Y-113045869D01*
X102873539Y-113046933D01*
X102867964Y-113039875D01*
X102857934Y-113021504D01*
X102847378Y-112999567D01*
X102832654Y-112955338D01*
X102823742Y-112903268D01*
X102821127Y-112849814D01*
X102825294Y-112801433D01*
X102830798Y-112778876D01*
X102853438Y-112730396D01*
X102886685Y-112692690D01*
X102931950Y-112664693D01*
X102990644Y-112645338D01*
X103013893Y-112640541D01*
X103085577Y-112634100D01*
X103124000Y-112638108D01*
X103124000Y-112765318D01*
X103124000Y-112859559D01*
X103124549Y-112903619D01*
X103126340Y-112932713D01*
X103129591Y-112948779D01*
X103134520Y-112953752D01*
X103134583Y-112953753D01*
X103161892Y-112949506D01*
X103190701Y-112938999D01*
X103213742Y-112925259D01*
X103221117Y-112917720D01*
X103229411Y-112897454D01*
X103233839Y-112870217D01*
X103234067Y-112863150D01*
X103226413Y-112825219D01*
X103205313Y-112794728D01*
X103173563Y-112774988D01*
X103155750Y-112770365D01*
X103124000Y-112765318D01*
X103124000Y-112638108D01*
X103151989Y-112641029D01*
X103211259Y-112660615D01*
X103261517Y-112692142D01*
X103300893Y-112734897D01*
X103313098Y-112754833D01*
X103325385Y-112790084D01*
X103331795Y-112835181D01*
X103332345Y-112884096D01*
X103327051Y-112930799D01*
G36*
X103333561Y-112043717D02*
X103321892Y-112101075D01*
X103297544Y-112147722D01*
X103261453Y-112183013D01*
X103214558Y-112206304D01*
X103157794Y-112216948D01*
X103092099Y-112214302D01*
X103086782Y-112213541D01*
X103047800Y-112207696D01*
X103047800Y-111910184D01*
X103016249Y-111915304D01*
X102976132Y-111928986D01*
X102944040Y-111954048D01*
X102931045Y-111972483D01*
X102924545Y-111996113D01*
X102922553Y-112029912D01*
X102924724Y-112067825D01*
X102930710Y-112103799D01*
X102940165Y-112131781D01*
X102940170Y-112131791D01*
X102948987Y-112150691D01*
X102952731Y-112161633D01*
X102952587Y-112162500D01*
X102944450Y-112167027D01*
X102926078Y-112176561D01*
X102912917Y-112183246D01*
X102890336Y-112194110D01*
X102877623Y-112197443D01*
X102869654Y-112193587D01*
X102863958Y-112186524D01*
X102846743Y-112153307D01*
X102833316Y-112108725D01*
X102824475Y-112058085D01*
X102821020Y-112006689D01*
X102823750Y-111959841D01*
X102827117Y-111942033D01*
X102845670Y-111892212D01*
X102875556Y-111852652D01*
X102918831Y-111820977D01*
X102942072Y-111809188D01*
X102964251Y-111800198D01*
X102986705Y-111794436D01*
X103014119Y-111791227D01*
X103051179Y-111789898D01*
X103077434Y-111789724D01*
X103119936Y-111790050D01*
X103132295Y-111790708D01*
X103132295Y-111912400D01*
X103128657Y-111920439D01*
X103125926Y-111942874D01*
X103124327Y-111977183D01*
X103124000Y-112005533D01*
X103124000Y-112098666D01*
X103149821Y-112098666D01*
X103178429Y-112094164D01*
X103205432Y-112082699D01*
X103224542Y-112067334D01*
X103228807Y-112060187D01*
X103233777Y-112033299D01*
X103232794Y-112000897D01*
X103226531Y-111971510D01*
X103220863Y-111959387D01*
X103205002Y-111944360D01*
X103180021Y-111928949D01*
X103153191Y-111917012D01*
X103132295Y-111912400D01*
X103132295Y-111790708D01*
X103150328Y-111791670D01*
X103173429Y-111795400D01*
X103194056Y-111802055D01*
X103217026Y-111812451D01*
X103219867Y-111813841D01*
X103268672Y-111846320D01*
X103304160Y-111889167D01*
X103326212Y-111942143D01*
X103334709Y-112005006D01*
X103333561Y-112043717D01*
X103333561Y-112043717D01*
G37*
X103333561Y-112043717D02*
X103321892Y-112101075D01*
X103297544Y-112147722D01*
X103261453Y-112183013D01*
X103214558Y-112206304D01*
X103157794Y-112216948D01*
X103092099Y-112214302D01*
X103086782Y-112213541D01*
X103047800Y-112207696D01*
X103047800Y-111910184D01*
X103016249Y-111915304D01*
X102976132Y-111928986D01*
X102944040Y-111954048D01*
X102931045Y-111972483D01*
X102924545Y-111996113D01*
X102922553Y-112029912D01*
X102924724Y-112067825D01*
X102930710Y-112103799D01*
X102940165Y-112131781D01*
X102940170Y-112131791D01*
X102948987Y-112150691D01*
X102952731Y-112161633D01*
X102952587Y-112162500D01*
X102944450Y-112167027D01*
X102926078Y-112176561D01*
X102912917Y-112183246D01*
X102890336Y-112194110D01*
X102877623Y-112197443D01*
X102869654Y-112193587D01*
X102863958Y-112186524D01*
X102846743Y-112153307D01*
X102833316Y-112108725D01*
X102824475Y-112058085D01*
X102821020Y-112006689D01*
X102823750Y-111959841D01*
X102827117Y-111942033D01*
X102845670Y-111892212D01*
X102875556Y-111852652D01*
X102918831Y-111820977D01*
X102942072Y-111809188D01*
X102964251Y-111800198D01*
X102986705Y-111794436D01*
X103014119Y-111791227D01*
X103051179Y-111789898D01*
X103077434Y-111789724D01*
X103119936Y-111790050D01*
X103132295Y-111790708D01*
X103132295Y-111912400D01*
X103128657Y-111920439D01*
X103125926Y-111942874D01*
X103124327Y-111977183D01*
X103124000Y-112005533D01*
X103124000Y-112098666D01*
X103149821Y-112098666D01*
X103178429Y-112094164D01*
X103205432Y-112082699D01*
X103224542Y-112067334D01*
X103228807Y-112060187D01*
X103233777Y-112033299D01*
X103232794Y-112000897D01*
X103226531Y-111971510D01*
X103220863Y-111959387D01*
X103205002Y-111944360D01*
X103180021Y-111928949D01*
X103153191Y-111917012D01*
X103132295Y-111912400D01*
X103132295Y-111790708D01*
X103150328Y-111791670D01*
X103173429Y-111795400D01*
X103194056Y-111802055D01*
X103217026Y-111812451D01*
X103219867Y-111813841D01*
X103268672Y-111846320D01*
X103304160Y-111889167D01*
X103326212Y-111942143D01*
X103334709Y-112005006D01*
X103333561Y-112043717D01*
G36*
X103332256Y-110838635D02*
X103317111Y-110895764D01*
X103288342Y-110942906D01*
X103245894Y-110980168D01*
X103219867Y-110994959D01*
X103196352Y-111005811D01*
X103175704Y-111012833D01*
X103153106Y-111016841D01*
X103123738Y-111018651D01*
X103082785Y-111019078D01*
X103077434Y-111019075D01*
X103018990Y-111017055D01*
X102973196Y-111010245D01*
X102936128Y-110997323D01*
X102903862Y-110976971D01*
X102875676Y-110951200D01*
X102845745Y-110908815D01*
X102826966Y-110856731D01*
X102819965Y-110798506D01*
X102825365Y-110737703D01*
X102832943Y-110707340D01*
X102855029Y-110662069D01*
X102889861Y-110622263D01*
X102933315Y-110591944D01*
X102964467Y-110579157D01*
X103006974Y-110570494D01*
X103057727Y-110566257D01*
X103084069Y-110566360D01*
X103084069Y-110693398D01*
X103081667Y-110693399D01*
X103022559Y-110698106D01*
X102977326Y-110711805D01*
X102946207Y-110734397D01*
X102933441Y-110754299D01*
X102925562Y-110792323D01*
X102932807Y-110831700D01*
X102942848Y-110851728D01*
X102961910Y-110868499D01*
X102993291Y-110881990D01*
X103032509Y-110891029D01*
X103075082Y-110894448D01*
X103101652Y-110893183D01*
X103152133Y-110884440D01*
X103188471Y-110869611D01*
X103212720Y-110847537D01*
X103224854Y-110823725D01*
X103231704Y-110799818D01*
X103231130Y-110781727D01*
X103222538Y-110759958D01*
X103220620Y-110755992D01*
X103200818Y-110726906D01*
X103173205Y-110707565D01*
X103135161Y-110696789D01*
X103084069Y-110693398D01*
X103084069Y-110566360D01*
X103110331Y-110566464D01*
X103158392Y-110571133D01*
X103190659Y-110578543D01*
X103244600Y-110604417D01*
X103286316Y-110641870D01*
X103315399Y-110690351D01*
X103331439Y-110749308D01*
X103333832Y-110771410D01*
X103332256Y-110838635D01*
X103332256Y-110838635D01*
G37*
X103332256Y-110838635D02*
X103317111Y-110895764D01*
X103288342Y-110942906D01*
X103245894Y-110980168D01*
X103219867Y-110994959D01*
X103196352Y-111005811D01*
X103175704Y-111012833D01*
X103153106Y-111016841D01*
X103123738Y-111018651D01*
X103082785Y-111019078D01*
X103077434Y-111019075D01*
X103018990Y-111017055D01*
X102973196Y-111010245D01*
X102936128Y-110997323D01*
X102903862Y-110976971D01*
X102875676Y-110951200D01*
X102845745Y-110908815D01*
X102826966Y-110856731D01*
X102819965Y-110798506D01*
X102825365Y-110737703D01*
X102832943Y-110707340D01*
X102855029Y-110662069D01*
X102889861Y-110622263D01*
X102933315Y-110591944D01*
X102964467Y-110579157D01*
X103006974Y-110570494D01*
X103057727Y-110566257D01*
X103084069Y-110566360D01*
X103084069Y-110693398D01*
X103081667Y-110693399D01*
X103022559Y-110698106D01*
X102977326Y-110711805D01*
X102946207Y-110734397D01*
X102933441Y-110754299D01*
X102925562Y-110792323D01*
X102932807Y-110831700D01*
X102942848Y-110851728D01*
X102961910Y-110868499D01*
X102993291Y-110881990D01*
X103032509Y-110891029D01*
X103075082Y-110894448D01*
X103101652Y-110893183D01*
X103152133Y-110884440D01*
X103188471Y-110869611D01*
X103212720Y-110847537D01*
X103224854Y-110823725D01*
X103231704Y-110799818D01*
X103231130Y-110781727D01*
X103222538Y-110759958D01*
X103220620Y-110755992D01*
X103200818Y-110726906D01*
X103173205Y-110707565D01*
X103135161Y-110696789D01*
X103084069Y-110693398D01*
X103084069Y-110566360D01*
X103110331Y-110566464D01*
X103158392Y-110571133D01*
X103190659Y-110578543D01*
X103244600Y-110604417D01*
X103286316Y-110641870D01*
X103315399Y-110690351D01*
X103331439Y-110749308D01*
X103333832Y-110771410D01*
X103332256Y-110838635D01*
G36*
X103324586Y-114865909D02*
X103320239Y-114874336D01*
X103315283Y-114875733D01*
X103302164Y-114872926D01*
X103275406Y-114865033D01*
X103237249Y-114852843D01*
X103189936Y-114837146D01*
X103135707Y-114818731D01*
X103076803Y-114798390D01*
X103015466Y-114776911D01*
X102953937Y-114755085D01*
X102894458Y-114733702D01*
X102839270Y-114713551D01*
X102790614Y-114695423D01*
X102750731Y-114680107D01*
X102721862Y-114668393D01*
X102706324Y-114661115D01*
X102667457Y-114632080D01*
X102643787Y-114598313D01*
X102633710Y-114557189D01*
X102633095Y-114541300D01*
X102634616Y-114514156D01*
X102638369Y-114493050D01*
X102640841Y-114486882D01*
X102647808Y-114480447D01*
X102660300Y-114479051D01*
X102682777Y-114482573D01*
X102695744Y-114485372D01*
X102722544Y-114492063D01*
X102736683Y-114498678D01*
X102742163Y-114508172D01*
X102743000Y-114520268D01*
X102750601Y-114548491D01*
X102770405Y-114574224D01*
X102797920Y-114592173D01*
X102806500Y-114595111D01*
X102815758Y-114596318D01*
X102828356Y-114595059D01*
X102846044Y-114590715D01*
X102870573Y-114582668D01*
X102903694Y-114570300D01*
X102947157Y-114552993D01*
X103002712Y-114530128D01*
X103068967Y-114502408D01*
X103128604Y-114477468D01*
X103183455Y-114454773D01*
X103231512Y-114435136D01*
X103270763Y-114419368D01*
X103299199Y-114408283D01*
X103314810Y-114402693D01*
X103316946Y-114402180D01*
X103322377Y-114406197D01*
X103325309Y-114420589D01*
X103326025Y-114447779D01*
X103325413Y-114474226D01*
X103322967Y-114546853D01*
X103162100Y-114597894D01*
X103111777Y-114613904D01*
X103066192Y-114628488D01*
X103028109Y-114640754D01*
X103000293Y-114649811D01*
X102985508Y-114654770D01*
X102984703Y-114655061D01*
X102981958Y-114659263D01*
X102993342Y-114665087D01*
X103019814Y-114672908D01*
X103048203Y-114679856D01*
X103091357Y-114690367D01*
X103143015Y-114703611D01*
X103195426Y-114717578D01*
X103225600Y-114725915D01*
X103322967Y-114753304D01*
X103325454Y-114814518D01*
X103326147Y-114847036D01*
X103324586Y-114865909D01*
X103324586Y-114865909D01*
G37*
X103324586Y-114865909D02*
X103320239Y-114874336D01*
X103315283Y-114875733D01*
X103302164Y-114872926D01*
X103275406Y-114865033D01*
X103237249Y-114852843D01*
X103189936Y-114837146D01*
X103135707Y-114818731D01*
X103076803Y-114798390D01*
X103015466Y-114776911D01*
X102953937Y-114755085D01*
X102894458Y-114733702D01*
X102839270Y-114713551D01*
X102790614Y-114695423D01*
X102750731Y-114680107D01*
X102721862Y-114668393D01*
X102706324Y-114661115D01*
X102667457Y-114632080D01*
X102643787Y-114598313D01*
X102633710Y-114557189D01*
X102633095Y-114541300D01*
X102634616Y-114514156D01*
X102638369Y-114493050D01*
X102640841Y-114486882D01*
X102647808Y-114480447D01*
X102660300Y-114479051D01*
X102682777Y-114482573D01*
X102695744Y-114485372D01*
X102722544Y-114492063D01*
X102736683Y-114498678D01*
X102742163Y-114508172D01*
X102743000Y-114520268D01*
X102750601Y-114548491D01*
X102770405Y-114574224D01*
X102797920Y-114592173D01*
X102806500Y-114595111D01*
X102815758Y-114596318D01*
X102828356Y-114595059D01*
X102846044Y-114590715D01*
X102870573Y-114582668D01*
X102903694Y-114570300D01*
X102947157Y-114552993D01*
X103002712Y-114530128D01*
X103068967Y-114502408D01*
X103128604Y-114477468D01*
X103183455Y-114454773D01*
X103231512Y-114435136D01*
X103270763Y-114419368D01*
X103299199Y-114408283D01*
X103314810Y-114402693D01*
X103316946Y-114402180D01*
X103322377Y-114406197D01*
X103325309Y-114420589D01*
X103326025Y-114447779D01*
X103325413Y-114474226D01*
X103322967Y-114546853D01*
X103162100Y-114597894D01*
X103111777Y-114613904D01*
X103066192Y-114628488D01*
X103028109Y-114640754D01*
X103000293Y-114649811D01*
X102985508Y-114654770D01*
X102984703Y-114655061D01*
X102981958Y-114659263D01*
X102993342Y-114665087D01*
X103019814Y-114672908D01*
X103048203Y-114679856D01*
X103091357Y-114690367D01*
X103143015Y-114703611D01*
X103195426Y-114717578D01*
X103225600Y-114725915D01*
X103322967Y-114753304D01*
X103325454Y-114814518D01*
X103326147Y-114847036D01*
X103324586Y-114865909D01*
G36*
X103327264Y-110372331D02*
X103307209Y-110416771D01*
X103291535Y-110436881D01*
X103258264Y-110461010D01*
X103211094Y-110478308D01*
X103151834Y-110488268D01*
X103099547Y-110490618D01*
X103020422Y-110485414D01*
X102954665Y-110469830D01*
X102902249Y-110443844D01*
X102863146Y-110407436D01*
X102837328Y-110360582D01*
X102824768Y-110303262D01*
X102823433Y-110274100D01*
X102824405Y-110241244D01*
X102826946Y-110212903D01*
X102830354Y-110195783D01*
X102837275Y-110176733D01*
X102632934Y-110176733D01*
X102632934Y-110049543D01*
X102977950Y-110051755D01*
X103054650Y-110052246D01*
X103054650Y-110176765D01*
X103008615Y-110176935D01*
X102976602Y-110178182D01*
X102955698Y-110181566D01*
X102942992Y-110188144D01*
X102935572Y-110198976D01*
X102930526Y-110215121D01*
X102928700Y-110222561D01*
X102925924Y-110265561D01*
X102938815Y-110303923D01*
X102952961Y-110322837D01*
X102976610Y-110341365D01*
X103003794Y-110354195D01*
X103004986Y-110354540D01*
X103039045Y-110360465D01*
X103080454Y-110362644D01*
X103122798Y-110361222D01*
X103159664Y-110356341D01*
X103179610Y-110350605D01*
X103207767Y-110330773D01*
X103224795Y-110302243D01*
X103230435Y-110269302D01*
X103224427Y-110236237D01*
X103206511Y-110207335D01*
X103189156Y-110193293D01*
X103175225Y-110186227D01*
X103158538Y-110181471D01*
X103135587Y-110178597D01*
X103102869Y-110177172D01*
X103056876Y-110176766D01*
X103054650Y-110176765D01*
X103054650Y-110052246D01*
X103322967Y-110053967D01*
X103325517Y-110098146D01*
X103326403Y-110124095D01*
X103323817Y-110138002D01*
X103315707Y-110144700D01*
X103304350Y-110148000D01*
X103281114Y-110154745D01*
X103273078Y-110162218D01*
X103278711Y-110173779D01*
X103287957Y-110184012D01*
X103315592Y-110224165D01*
X103331396Y-110271773D01*
X103335306Y-110322580D01*
X103327264Y-110372331D01*
X103327264Y-110372331D01*
G37*
X103327264Y-110372331D02*
X103307209Y-110416771D01*
X103291535Y-110436881D01*
X103258264Y-110461010D01*
X103211094Y-110478308D01*
X103151834Y-110488268D01*
X103099547Y-110490618D01*
X103020422Y-110485414D01*
X102954665Y-110469830D01*
X102902249Y-110443844D01*
X102863146Y-110407436D01*
X102837328Y-110360582D01*
X102824768Y-110303262D01*
X102823433Y-110274100D01*
X102824405Y-110241244D01*
X102826946Y-110212903D01*
X102830354Y-110195783D01*
X102837275Y-110176733D01*
X102632934Y-110176733D01*
X102632934Y-110049543D01*
X102977950Y-110051755D01*
X103054650Y-110052246D01*
X103054650Y-110176765D01*
X103008615Y-110176935D01*
X102976602Y-110178182D01*
X102955698Y-110181566D01*
X102942992Y-110188144D01*
X102935572Y-110198976D01*
X102930526Y-110215121D01*
X102928700Y-110222561D01*
X102925924Y-110265561D01*
X102938815Y-110303923D01*
X102952961Y-110322837D01*
X102976610Y-110341365D01*
X103003794Y-110354195D01*
X103004986Y-110354540D01*
X103039045Y-110360465D01*
X103080454Y-110362644D01*
X103122798Y-110361222D01*
X103159664Y-110356341D01*
X103179610Y-110350605D01*
X103207767Y-110330773D01*
X103224795Y-110302243D01*
X103230435Y-110269302D01*
X103224427Y-110236237D01*
X103206511Y-110207335D01*
X103189156Y-110193293D01*
X103175225Y-110186227D01*
X103158538Y-110181471D01*
X103135587Y-110178597D01*
X103102869Y-110177172D01*
X103056876Y-110176766D01*
X103054650Y-110176765D01*
X103054650Y-110052246D01*
X103322967Y-110053967D01*
X103325517Y-110098146D01*
X103326403Y-110124095D01*
X103323817Y-110138002D01*
X103315707Y-110144700D01*
X103304350Y-110148000D01*
X103281114Y-110154745D01*
X103273078Y-110162218D01*
X103278711Y-110173779D01*
X103287957Y-110184012D01*
X103315592Y-110224165D01*
X103331396Y-110271773D01*
X103335306Y-110322580D01*
X103327264Y-110372331D01*
G36*
X101241515Y-114772708D02*
X101236391Y-114806482D01*
X101235192Y-114811188D01*
X101215853Y-114851411D01*
X101182857Y-114887697D01*
X101139462Y-114916912D01*
X101113167Y-114928529D01*
X101099192Y-114933418D01*
X101085199Y-114937401D01*
X101069295Y-114940592D01*
X101049588Y-114943105D01*
X101024183Y-114945053D01*
X100991190Y-114946549D01*
X100948713Y-114947707D01*
X100894861Y-114948641D01*
X100827741Y-114949464D01*
X100751217Y-114950234D01*
X100440067Y-114953217D01*
X100440067Y-114748733D01*
X100698784Y-114748733D01*
X100782546Y-114748391D01*
X100854341Y-114747387D01*
X100913064Y-114745758D01*
X100957613Y-114743538D01*
X100986883Y-114740763D01*
X100995337Y-114739206D01*
X101030455Y-114725482D01*
X101052798Y-114703806D01*
X101064175Y-114671615D01*
X101066600Y-114638174D01*
X101060916Y-114594429D01*
X101042722Y-114559765D01*
X101010307Y-114531547D01*
X100989672Y-114519762D01*
X100979437Y-114515059D01*
X100967907Y-114511337D01*
X100953081Y-114508483D01*
X100932957Y-114506382D01*
X100905533Y-114504922D01*
X100868808Y-114503987D01*
X100820782Y-114503464D01*
X100759451Y-114503241D01*
X100698369Y-114503200D01*
X100439529Y-114503200D01*
X100441915Y-114403717D01*
X100444300Y-114304233D01*
X100719467Y-114299882D01*
X100811364Y-114298109D01*
X100886533Y-114295961D01*
X100944927Y-114293440D01*
X100986503Y-114290549D01*
X101011216Y-114287289D01*
X101017062Y-114285600D01*
X101045730Y-114265058D01*
X101062038Y-114233794D01*
X101066600Y-114196095D01*
X101060685Y-114150183D01*
X101041644Y-114112945D01*
X101010133Y-114082421D01*
X100979048Y-114058700D01*
X100709557Y-114056246D01*
X100440067Y-114053792D01*
X100440067Y-113859733D01*
X101227467Y-113859733D01*
X101227467Y-114011337D01*
X101195717Y-114020155D01*
X101171517Y-114025964D01*
X101152766Y-114028925D01*
X101150561Y-114029019D01*
X101136632Y-114031333D01*
X101133568Y-114039297D01*
X101141920Y-114054647D01*
X101162240Y-114079118D01*
X101168742Y-114086305D01*
X101199806Y-114122268D01*
X101220407Y-114152678D01*
X101232903Y-114183040D01*
X101239656Y-114218858D01*
X101242698Y-114258780D01*
X101241828Y-114321913D01*
X101231533Y-114372436D01*
X101210875Y-114412395D01*
X101178912Y-114443833D01*
X101149355Y-114461842D01*
X101115707Y-114479008D01*
X101149173Y-114503619D01*
X101189297Y-114542075D01*
X101221335Y-114590373D01*
X101234492Y-114620880D01*
X101240331Y-114649086D01*
X101243462Y-114687879D01*
X101243864Y-114731131D01*
X101241515Y-114772708D01*
X101241515Y-114772708D01*
G37*
X101241515Y-114772708D02*
X101236391Y-114806482D01*
X101235192Y-114811188D01*
X101215853Y-114851411D01*
X101182857Y-114887697D01*
X101139462Y-114916912D01*
X101113167Y-114928529D01*
X101099192Y-114933418D01*
X101085199Y-114937401D01*
X101069295Y-114940592D01*
X101049588Y-114943105D01*
X101024183Y-114945053D01*
X100991190Y-114946549D01*
X100948713Y-114947707D01*
X100894861Y-114948641D01*
X100827741Y-114949464D01*
X100751217Y-114950234D01*
X100440067Y-114953217D01*
X100440067Y-114748733D01*
X100698784Y-114748733D01*
X100782546Y-114748391D01*
X100854341Y-114747387D01*
X100913064Y-114745758D01*
X100957613Y-114743538D01*
X100986883Y-114740763D01*
X100995337Y-114739206D01*
X101030455Y-114725482D01*
X101052798Y-114703806D01*
X101064175Y-114671615D01*
X101066600Y-114638174D01*
X101060916Y-114594429D01*
X101042722Y-114559765D01*
X101010307Y-114531547D01*
X100989672Y-114519762D01*
X100979437Y-114515059D01*
X100967907Y-114511337D01*
X100953081Y-114508483D01*
X100932957Y-114506382D01*
X100905533Y-114504922D01*
X100868808Y-114503987D01*
X100820782Y-114503464D01*
X100759451Y-114503241D01*
X100698369Y-114503200D01*
X100439529Y-114503200D01*
X100441915Y-114403717D01*
X100444300Y-114304233D01*
X100719467Y-114299882D01*
X100811364Y-114298109D01*
X100886533Y-114295961D01*
X100944927Y-114293440D01*
X100986503Y-114290549D01*
X101011216Y-114287289D01*
X101017062Y-114285600D01*
X101045730Y-114265058D01*
X101062038Y-114233794D01*
X101066600Y-114196095D01*
X101060685Y-114150183D01*
X101041644Y-114112945D01*
X101010133Y-114082421D01*
X100979048Y-114058700D01*
X100709557Y-114056246D01*
X100440067Y-114053792D01*
X100440067Y-113859733D01*
X101227467Y-113859733D01*
X101227467Y-114011337D01*
X101195717Y-114020155D01*
X101171517Y-114025964D01*
X101152766Y-114028925D01*
X101150561Y-114029019D01*
X101136632Y-114031333D01*
X101133568Y-114039297D01*
X101141920Y-114054647D01*
X101162240Y-114079118D01*
X101168742Y-114086305D01*
X101199806Y-114122268D01*
X101220407Y-114152678D01*
X101232903Y-114183040D01*
X101239656Y-114218858D01*
X101242698Y-114258780D01*
X101241828Y-114321913D01*
X101231533Y-114372436D01*
X101210875Y-114412395D01*
X101178912Y-114443833D01*
X101149355Y-114461842D01*
X101115707Y-114479008D01*
X101149173Y-114503619D01*
X101189297Y-114542075D01*
X101221335Y-114590373D01*
X101234492Y-114620880D01*
X101240331Y-114649086D01*
X101243462Y-114687879D01*
X101243864Y-114731131D01*
X101241515Y-114772708D01*
G36*
X101236137Y-115957180D02*
X101219774Y-116020698D01*
X101192494Y-116072427D01*
X101154097Y-116112913D01*
X101108933Y-116140627D01*
X101097321Y-116145720D01*
X101085410Y-116149708D01*
X101071122Y-116152702D01*
X101052377Y-116154811D01*
X101027095Y-116156144D01*
X100993198Y-116156812D01*
X100948606Y-116156925D01*
X100891240Y-116156592D01*
X100819070Y-116155922D01*
X100729056Y-116155416D01*
X100654306Y-116155920D01*
X100593174Y-116157527D01*
X100544015Y-116160330D01*
X100505183Y-116164425D01*
X100475035Y-116169904D01*
X100451923Y-116176862D01*
X100451920Y-116176863D01*
X100446204Y-116176774D01*
X100442755Y-116169367D01*
X100441228Y-116151952D01*
X100441277Y-116121834D01*
X100441865Y-116098407D01*
X100444300Y-116015157D01*
X100494519Y-115999887D01*
X100521362Y-115991366D01*
X100540886Y-115984496D01*
X100548189Y-115981167D01*
X100544452Y-115974124D01*
X100531156Y-115959728D01*
X100518612Y-115947878D01*
X100476635Y-115900411D01*
X100449285Y-115846262D01*
X100435633Y-115783379D01*
X100433987Y-115760605D01*
X100433854Y-115714986D01*
X100438445Y-115678469D01*
X100447675Y-115646349D01*
X100473483Y-115596739D01*
X100510376Y-115556922D01*
X100555528Y-115527544D01*
X100606112Y-115509254D01*
X100659304Y-115502699D01*
X100673567Y-115504267D01*
X100673567Y-115714842D01*
X100641404Y-115726158D01*
X100615636Y-115748595D01*
X100601933Y-115775849D01*
X100597813Y-115808829D01*
X100600356Y-115847057D01*
X100608735Y-115880960D01*
X100611577Y-115887500D01*
X100622567Y-115904210D01*
X100639900Y-115925357D01*
X100645944Y-115931950D01*
X100661175Y-115946694D01*
X100675419Y-115954950D01*
X100694347Y-115958583D01*
X100723629Y-115959458D01*
X100729594Y-115959466D01*
X100787200Y-115959466D01*
X100787200Y-115897503D01*
X100783682Y-115840772D01*
X100773684Y-115792020D01*
X100758040Y-115754145D01*
X100739302Y-115731332D01*
X100707681Y-115716086D01*
X100673567Y-115714842D01*
X100673567Y-115504267D01*
X100712277Y-115508526D01*
X100762205Y-115527384D01*
X100806263Y-115559921D01*
X100809681Y-115563374D01*
X100847134Y-115610534D01*
X100874796Y-115665236D01*
X100893306Y-115729526D01*
X100903298Y-115805451D01*
X100905586Y-115871939D01*
X100905733Y-115957978D01*
X100938647Y-115963539D01*
X100981571Y-115964756D01*
X101020108Y-115954634D01*
X101049888Y-115934639D01*
X101059116Y-115923053D01*
X101066711Y-115909215D01*
X101071391Y-115894139D01*
X101073586Y-115873901D01*
X101073726Y-115844575D01*
X101072265Y-115802833D01*
X101066498Y-115731740D01*
X101056021Y-115673421D01*
X101050844Y-115655030D01*
X101042357Y-115627454D01*
X101036736Y-115607322D01*
X101035174Y-115598915D01*
X101035192Y-115598896D01*
X101043521Y-115595954D01*
X101064294Y-115589327D01*
X101093740Y-115580207D01*
X101108681Y-115575649D01*
X101146140Y-115565063D01*
X101170216Y-115560366D01*
X101183265Y-115561205D01*
X101186604Y-115563913D01*
X101195036Y-115583878D01*
X101204642Y-115616690D01*
X101214552Y-115658384D01*
X101223893Y-115704998D01*
X101231793Y-115752569D01*
X101236916Y-115792586D01*
X101241784Y-115881325D01*
X101236137Y-115957180D01*
X101236137Y-115957180D01*
G37*
X101236137Y-115957180D02*
X101219774Y-116020698D01*
X101192494Y-116072427D01*
X101154097Y-116112913D01*
X101108933Y-116140627D01*
X101097321Y-116145720D01*
X101085410Y-116149708D01*
X101071122Y-116152702D01*
X101052377Y-116154811D01*
X101027095Y-116156144D01*
X100993198Y-116156812D01*
X100948606Y-116156925D01*
X100891240Y-116156592D01*
X100819070Y-116155922D01*
X100729056Y-116155416D01*
X100654306Y-116155920D01*
X100593174Y-116157527D01*
X100544015Y-116160330D01*
X100505183Y-116164425D01*
X100475035Y-116169904D01*
X100451923Y-116176862D01*
X100451920Y-116176863D01*
X100446204Y-116176774D01*
X100442755Y-116169367D01*
X100441228Y-116151952D01*
X100441277Y-116121834D01*
X100441865Y-116098407D01*
X100444300Y-116015157D01*
X100494519Y-115999887D01*
X100521362Y-115991366D01*
X100540886Y-115984496D01*
X100548189Y-115981167D01*
X100544452Y-115974124D01*
X100531156Y-115959728D01*
X100518612Y-115947878D01*
X100476635Y-115900411D01*
X100449285Y-115846262D01*
X100435633Y-115783379D01*
X100433987Y-115760605D01*
X100433854Y-115714986D01*
X100438445Y-115678469D01*
X100447675Y-115646349D01*
X100473483Y-115596739D01*
X100510376Y-115556922D01*
X100555528Y-115527544D01*
X100606112Y-115509254D01*
X100659304Y-115502699D01*
X100673567Y-115504267D01*
X100673567Y-115714842D01*
X100641404Y-115726158D01*
X100615636Y-115748595D01*
X100601933Y-115775849D01*
X100597813Y-115808829D01*
X100600356Y-115847057D01*
X100608735Y-115880960D01*
X100611577Y-115887500D01*
X100622567Y-115904210D01*
X100639900Y-115925357D01*
X100645944Y-115931950D01*
X100661175Y-115946694D01*
X100675419Y-115954950D01*
X100694347Y-115958583D01*
X100723629Y-115959458D01*
X100729594Y-115959466D01*
X100787200Y-115959466D01*
X100787200Y-115897503D01*
X100783682Y-115840772D01*
X100773684Y-115792020D01*
X100758040Y-115754145D01*
X100739302Y-115731332D01*
X100707681Y-115716086D01*
X100673567Y-115714842D01*
X100673567Y-115504267D01*
X100712277Y-115508526D01*
X100762205Y-115527384D01*
X100806263Y-115559921D01*
X100809681Y-115563374D01*
X100847134Y-115610534D01*
X100874796Y-115665236D01*
X100893306Y-115729526D01*
X100903298Y-115805451D01*
X100905586Y-115871939D01*
X100905733Y-115957978D01*
X100938647Y-115963539D01*
X100981571Y-115964756D01*
X101020108Y-115954634D01*
X101049888Y-115934639D01*
X101059116Y-115923053D01*
X101066711Y-115909215D01*
X101071391Y-115894139D01*
X101073586Y-115873901D01*
X101073726Y-115844575D01*
X101072265Y-115802833D01*
X101066498Y-115731740D01*
X101056021Y-115673421D01*
X101050844Y-115655030D01*
X101042357Y-115627454D01*
X101036736Y-115607322D01*
X101035174Y-115598915D01*
X101035192Y-115598896D01*
X101043521Y-115595954D01*
X101064294Y-115589327D01*
X101093740Y-115580207D01*
X101108681Y-115575649D01*
X101146140Y-115565063D01*
X101170216Y-115560366D01*
X101183265Y-115561205D01*
X101186604Y-115563913D01*
X101195036Y-115583878D01*
X101204642Y-115616690D01*
X101214552Y-115658384D01*
X101223893Y-115704998D01*
X101231793Y-115752569D01*
X101236916Y-115792586D01*
X101241784Y-115881325D01*
X101236137Y-115957180D01*
G36*
X101354467Y-116535200D02*
X101284266Y-116535585D01*
X101230778Y-116536747D01*
X101193801Y-116538697D01*
X101173132Y-116541442D01*
X101168200Y-116544163D01*
X101173097Y-116555676D01*
X101185492Y-116574525D01*
X101192969Y-116584380D01*
X101223573Y-116636507D01*
X101240178Y-116697573D01*
X101242545Y-116766271D01*
X101231401Y-116835120D01*
X101207628Y-116893508D01*
X101171010Y-116941584D01*
X101121328Y-116979502D01*
X101058363Y-117007410D01*
X100981897Y-117025460D01*
X100891714Y-117033804D01*
X100854933Y-117034461D01*
X100761915Y-117029086D01*
X100681087Y-117012692D01*
X100611509Y-116984943D01*
X100552237Y-116945509D01*
X100521887Y-116916807D01*
X100480574Y-116863077D01*
X100450812Y-116801882D01*
X100432302Y-116731866D01*
X100424743Y-116651673D01*
X100427834Y-116559946D01*
X100432685Y-116514033D01*
X100439554Y-116472231D01*
X100449510Y-116426513D01*
X100457257Y-116397616D01*
X100474421Y-116340466D01*
X100811107Y-116340466D01*
X100811107Y-116536672D01*
X100778733Y-116537056D01*
X100613633Y-116539433D01*
X100603732Y-116577533D01*
X100594215Y-116639470D01*
X100598935Y-116695598D01*
X100604733Y-116715677D01*
X100623840Y-116753495D01*
X100652072Y-116782417D01*
X100691471Y-116803722D01*
X100744083Y-116818690D01*
X100778742Y-116824594D01*
X100843502Y-116829512D01*
X100905154Y-116826234D01*
X100960742Y-116815428D01*
X101007306Y-116797761D01*
X101041891Y-116773901D01*
X101051525Y-116763020D01*
X101069302Y-116726003D01*
X101074447Y-116683176D01*
X101067290Y-116639630D01*
X101048159Y-116600453D01*
X101040388Y-116590602D01*
X101023031Y-116572763D01*
X101004641Y-116559141D01*
X100982759Y-116549233D01*
X100954925Y-116542536D01*
X100918679Y-116538546D01*
X100871560Y-116536759D01*
X100811107Y-116536672D01*
X100811107Y-116340466D01*
X101540734Y-116340466D01*
X101540734Y-116535200D01*
X101354467Y-116535200D01*
X101354467Y-116535200D01*
G37*
X101354467Y-116535200D02*
X101284266Y-116535585D01*
X101230778Y-116536747D01*
X101193801Y-116538697D01*
X101173132Y-116541442D01*
X101168200Y-116544163D01*
X101173097Y-116555676D01*
X101185492Y-116574525D01*
X101192969Y-116584380D01*
X101223573Y-116636507D01*
X101240178Y-116697573D01*
X101242545Y-116766271D01*
X101231401Y-116835120D01*
X101207628Y-116893508D01*
X101171010Y-116941584D01*
X101121328Y-116979502D01*
X101058363Y-117007410D01*
X100981897Y-117025460D01*
X100891714Y-117033804D01*
X100854933Y-117034461D01*
X100761915Y-117029086D01*
X100681087Y-117012692D01*
X100611509Y-116984943D01*
X100552237Y-116945509D01*
X100521887Y-116916807D01*
X100480574Y-116863077D01*
X100450812Y-116801882D01*
X100432302Y-116731866D01*
X100424743Y-116651673D01*
X100427834Y-116559946D01*
X100432685Y-116514033D01*
X100439554Y-116472231D01*
X100449510Y-116426513D01*
X100457257Y-116397616D01*
X100474421Y-116340466D01*
X100811107Y-116340466D01*
X100811107Y-116536672D01*
X100778733Y-116537056D01*
X100613633Y-116539433D01*
X100603732Y-116577533D01*
X100594215Y-116639470D01*
X100598935Y-116695598D01*
X100604733Y-116715677D01*
X100623840Y-116753495D01*
X100652072Y-116782417D01*
X100691471Y-116803722D01*
X100744083Y-116818690D01*
X100778742Y-116824594D01*
X100843502Y-116829512D01*
X100905154Y-116826234D01*
X100960742Y-116815428D01*
X101007306Y-116797761D01*
X101041891Y-116773901D01*
X101051525Y-116763020D01*
X101069302Y-116726003D01*
X101074447Y-116683176D01*
X101067290Y-116639630D01*
X101048159Y-116600453D01*
X101040388Y-116590602D01*
X101023031Y-116572763D01*
X101004641Y-116559141D01*
X100982759Y-116549233D01*
X100954925Y-116542536D01*
X100918679Y-116538546D01*
X100871560Y-116536759D01*
X100811107Y-116536672D01*
X100811107Y-116340466D01*
X101540734Y-116340466D01*
X101540734Y-116535200D01*
X101354467Y-116535200D01*
G36*
X100423133Y-115349866D02*
X100423133Y-115252234D01*
X100423761Y-115205689D01*
X100425762Y-115174328D01*
X100429314Y-115156446D01*
X100433717Y-115150557D01*
X100443811Y-115149892D01*
X100469396Y-115149327D01*
X100509030Y-115148867D01*
X100561270Y-115148517D01*
X100624675Y-115148281D01*
X100697802Y-115148165D01*
X100779208Y-115148173D01*
X100867452Y-115148310D01*
X100961091Y-115148580D01*
X100994633Y-115148706D01*
X101544967Y-115150900D01*
X101547352Y-115250383D01*
X101549738Y-115349866D01*
X100423133Y-115349866D01*
X100423133Y-115349866D01*
G37*
X100423133Y-115349866D02*
X100423133Y-115252234D01*
X100423761Y-115205689D01*
X100425762Y-115174328D01*
X100429314Y-115156446D01*
X100433717Y-115150557D01*
X100443811Y-115149892D01*
X100469396Y-115149327D01*
X100509030Y-115148867D01*
X100561270Y-115148517D01*
X100624675Y-115148281D01*
X100697802Y-115148165D01*
X100779208Y-115148173D01*
X100867452Y-115148310D01*
X100961091Y-115148580D01*
X100994633Y-115148706D01*
X101544967Y-115150900D01*
X101547352Y-115250383D01*
X101549738Y-115349866D01*
X100423133Y-115349866D01*
G36*
X101324767Y-113258600D02*
X99551067Y-113258600D01*
X99551067Y-110693200D01*
X100355400Y-110693200D01*
X100355400Y-111488927D01*
X100355400Y-112454266D01*
X101320740Y-112454266D01*
X101318553Y-111973783D01*
X101316367Y-111493300D01*
X100835883Y-111491113D01*
X100355400Y-111488927D01*
X100355400Y-110693200D01*
X102116467Y-110693200D01*
X102116467Y-112467034D01*
X101324767Y-113258600D01*
X101324767Y-113258600D01*
G37*
X101324767Y-113258600D02*
X99551067Y-113258600D01*
X99551067Y-110693200D01*
X100355400Y-110693200D01*
X100355400Y-111488927D01*
X100355400Y-112454266D01*
X101320740Y-112454266D01*
X101318553Y-111973783D01*
X101316367Y-111493300D01*
X100835883Y-111491113D01*
X100355400Y-111488927D01*
X100355400Y-110693200D01*
X102116467Y-110693200D01*
X102116467Y-112467034D01*
X101324767Y-113258600D01*
G36*
X103145167Y-117640100D02*
X103125331Y-117677286D01*
X103088252Y-117731746D01*
X103040475Y-117779020D01*
X102986693Y-117814601D01*
X102977817Y-117818920D01*
X102925033Y-117843300D01*
X100927447Y-117845504D01*
X100706771Y-117845759D01*
X100502383Y-117846010D01*
X100313638Y-117846240D01*
X100139890Y-117846432D01*
X99980495Y-117846572D01*
X99834806Y-117846643D01*
X99702179Y-117846628D01*
X99581969Y-117846512D01*
X99473529Y-117846279D01*
X99376216Y-117845912D01*
X99289383Y-117845396D01*
X99212385Y-117844715D01*
X99144577Y-117843852D01*
X99085314Y-117842791D01*
X99033950Y-117841517D01*
X98989841Y-117840014D01*
X98952340Y-117838264D01*
X98920803Y-117836253D01*
X98894584Y-117833964D01*
X98873038Y-117831381D01*
X98855520Y-117828488D01*
X98841384Y-117825270D01*
X98829986Y-117821709D01*
X98820679Y-117817790D01*
X98812819Y-117813497D01*
X98805761Y-117808814D01*
X98798858Y-117803724D01*
X98791466Y-117798213D01*
X98782940Y-117792262D01*
X98782769Y-117792149D01*
X98736259Y-117751899D01*
X98698203Y-117699820D01*
X98671462Y-117640066D01*
X98666643Y-117623504D01*
X98665658Y-117618486D01*
X98664723Y-117610968D01*
X98663837Y-117600522D01*
X98663000Y-117586717D01*
X98662210Y-117569125D01*
X98661465Y-117547316D01*
X98660764Y-117520860D01*
X98660107Y-117489329D01*
X98659492Y-117452293D01*
X98658917Y-117409322D01*
X98658382Y-117359987D01*
X98657885Y-117303858D01*
X98657426Y-117240507D01*
X98657002Y-117169504D01*
X98656612Y-117090419D01*
X98656256Y-117002823D01*
X98655932Y-116906286D01*
X98655638Y-116800380D01*
X98655375Y-116684674D01*
X98655139Y-116558740D01*
X98654931Y-116422148D01*
X98654749Y-116274468D01*
X98654591Y-116115271D01*
X98654457Y-115944129D01*
X98654345Y-115760610D01*
X98654254Y-115564286D01*
X98654183Y-115354728D01*
X98654130Y-115131506D01*
X98654095Y-114894190D01*
X98654075Y-114642352D01*
X98654070Y-114375561D01*
X98654079Y-114093389D01*
X98654100Y-113795406D01*
X98654133Y-113481183D01*
X98654157Y-113280104D01*
X98654204Y-112954440D01*
X98654258Y-112645285D01*
X98654321Y-112352219D01*
X98654394Y-112074817D01*
X98654477Y-111812657D01*
X98654574Y-111565317D01*
X98654684Y-111332372D01*
X98654809Y-111113401D01*
X98654951Y-110907980D01*
X98655110Y-110715687D01*
X98655288Y-110536099D01*
X98655486Y-110368792D01*
X98655705Y-110213345D01*
X98655947Y-110069334D01*
X98656213Y-109936336D01*
X98656504Y-109813929D01*
X98656821Y-109701690D01*
X98657166Y-109599195D01*
X98657540Y-109506022D01*
X98657944Y-109421749D01*
X98658380Y-109345952D01*
X98658849Y-109278208D01*
X98659351Y-109218094D01*
X98659889Y-109165189D01*
X98660463Y-109119068D01*
X98661075Y-109079309D01*
X98661727Y-109045490D01*
X98662418Y-109017186D01*
X98663152Y-108993976D01*
X98663928Y-108975437D01*
X98664748Y-108961145D01*
X98665614Y-108950678D01*
X98666526Y-108943614D01*
X98667157Y-108940600D01*
X98690239Y-108882056D01*
X98725383Y-108828773D01*
X98769171Y-108785622D01*
X98782769Y-108775851D01*
X98791322Y-108769892D01*
X98798729Y-108764373D01*
X98805635Y-108759276D01*
X98812685Y-108754585D01*
X98820524Y-108750285D01*
X98829798Y-108746359D01*
X98841152Y-108742792D01*
X98855232Y-108739567D01*
X98872682Y-108736669D01*
X98894148Y-108734080D01*
X98920276Y-108731786D01*
X98951709Y-108729770D01*
X98989095Y-108728016D01*
X99033077Y-108726508D01*
X99084302Y-108725230D01*
X99143414Y-108724165D01*
X99211059Y-108723299D01*
X99287882Y-108722614D01*
X99374529Y-108722096D01*
X99471644Y-108721726D01*
X99579874Y-108721491D01*
X99699862Y-108721373D01*
X99832255Y-108721357D01*
X99977698Y-108721426D01*
X100136836Y-108721564D01*
X100310314Y-108721756D01*
X100498778Y-108721985D01*
X100702873Y-108722236D01*
X100923244Y-108722491D01*
X100927447Y-108722496D01*
X102925033Y-108724700D01*
X102978301Y-108749297D01*
X103031519Y-108781768D01*
X103078551Y-108825572D01*
X103115343Y-108876434D01*
X103131869Y-108911312D01*
X103135911Y-108922719D01*
X103139280Y-108934477D01*
X103142036Y-108948170D01*
X103144241Y-108965379D01*
X103145957Y-108987686D01*
X103147244Y-109016673D01*
X103148164Y-109053923D01*
X103148778Y-109101017D01*
X103149147Y-109159537D01*
X103149332Y-109231066D01*
X103149395Y-109317186D01*
X103149400Y-109364251D01*
X103149400Y-109770333D01*
X102989016Y-109770333D01*
X102986658Y-109373012D01*
X102986090Y-109280665D01*
X102985532Y-109203735D01*
X102984912Y-109140709D01*
X102984157Y-109090071D01*
X102983196Y-109050307D01*
X102981955Y-109019900D01*
X102980364Y-108997338D01*
X102978349Y-108981103D01*
X102975839Y-108969682D01*
X102972761Y-108961560D01*
X102969043Y-108955221D01*
X102966588Y-108951796D01*
X102947073Y-108930479D01*
X102923160Y-108910437D01*
X102920808Y-108908797D01*
X102892740Y-108889695D01*
X100898054Y-108891864D01*
X98903367Y-108894033D01*
X98876894Y-108912916D01*
X98854762Y-108934049D01*
X98837323Y-108959440D01*
X98836677Y-108960763D01*
X98835643Y-108963839D01*
X98834661Y-108968881D01*
X98833731Y-108976320D01*
X98832850Y-108986588D01*
X98832019Y-109000117D01*
X98831235Y-109017338D01*
X98830497Y-109038683D01*
X98829803Y-109064584D01*
X98829153Y-109095472D01*
X98828545Y-109131778D01*
X98827977Y-109173935D01*
X98827448Y-109222373D01*
X98826957Y-109277525D01*
X98826503Y-109339823D01*
X98826083Y-109409697D01*
X98825698Y-109487580D01*
X98825344Y-109573902D01*
X98825021Y-109669096D01*
X98824728Y-109773594D01*
X98824463Y-109887826D01*
X98824225Y-110012225D01*
X98824012Y-110147222D01*
X98823824Y-110293249D01*
X98823657Y-110450737D01*
X98823513Y-110620118D01*
X98823388Y-110801823D01*
X98823282Y-110996285D01*
X98823193Y-111203934D01*
X98823119Y-111425203D01*
X98823060Y-111660523D01*
X98823015Y-111910325D01*
X98822981Y-112175042D01*
X98822957Y-112455104D01*
X98822942Y-112750944D01*
X98822935Y-113062993D01*
X98822933Y-113284000D01*
X98822936Y-113607284D01*
X98822946Y-113914067D01*
X98822963Y-114204779D01*
X98822990Y-114479853D01*
X98823028Y-114739720D01*
X98823078Y-114984812D01*
X98823141Y-115215560D01*
X98823219Y-115432396D01*
X98823314Y-115635752D01*
X98823426Y-115826059D01*
X98823557Y-116003749D01*
X98823709Y-116169253D01*
X98823882Y-116323003D01*
X98824078Y-116465431D01*
X98824299Y-116596968D01*
X98824546Y-116718046D01*
X98824819Y-116829097D01*
X98825122Y-116930551D01*
X98825454Y-117022842D01*
X98825818Y-117106399D01*
X98826215Y-117181656D01*
X98826645Y-117249043D01*
X98827111Y-117308993D01*
X98827614Y-117361936D01*
X98828155Y-117408305D01*
X98828736Y-117448531D01*
X98829358Y-117483045D01*
X98830022Y-117512280D01*
X98830729Y-117536666D01*
X98831482Y-117556636D01*
X98832281Y-117572621D01*
X98833128Y-117585053D01*
X98834025Y-117594363D01*
X98834971Y-117600984D01*
X98835970Y-117605345D01*
X98836677Y-117607237D01*
X98853563Y-117632524D01*
X98875689Y-117654204D01*
X98876894Y-117655083D01*
X98903367Y-117673967D01*
X100898054Y-117676136D01*
X102892740Y-117678305D01*
X102920808Y-117659202D01*
X102944585Y-117639855D01*
X102965049Y-117618212D01*
X102966588Y-117616197D01*
X102984300Y-117592294D01*
X102986499Y-116327147D01*
X102988697Y-115062000D01*
X103149613Y-115062000D01*
X103145167Y-117640100D01*
X103145167Y-117640100D01*
G37*
X103145167Y-117640100D02*
X103125331Y-117677286D01*
X103088252Y-117731746D01*
X103040475Y-117779020D01*
X102986693Y-117814601D01*
X102977817Y-117818920D01*
X102925033Y-117843300D01*
X100927447Y-117845504D01*
X100706771Y-117845759D01*
X100502383Y-117846010D01*
X100313638Y-117846240D01*
X100139890Y-117846432D01*
X99980495Y-117846572D01*
X99834806Y-117846643D01*
X99702179Y-117846628D01*
X99581969Y-117846512D01*
X99473529Y-117846279D01*
X99376216Y-117845912D01*
X99289383Y-117845396D01*
X99212385Y-117844715D01*
X99144577Y-117843852D01*
X99085314Y-117842791D01*
X99033950Y-117841517D01*
X98989841Y-117840014D01*
X98952340Y-117838264D01*
X98920803Y-117836253D01*
X98894584Y-117833964D01*
X98873038Y-117831381D01*
X98855520Y-117828488D01*
X98841384Y-117825270D01*
X98829986Y-117821709D01*
X98820679Y-117817790D01*
X98812819Y-117813497D01*
X98805761Y-117808814D01*
X98798858Y-117803724D01*
X98791466Y-117798213D01*
X98782940Y-117792262D01*
X98782769Y-117792149D01*
X98736259Y-117751899D01*
X98698203Y-117699820D01*
X98671462Y-117640066D01*
X98666643Y-117623504D01*
X98665658Y-117618486D01*
X98664723Y-117610968D01*
X98663837Y-117600522D01*
X98663000Y-117586717D01*
X98662210Y-117569125D01*
X98661465Y-117547316D01*
X98660764Y-117520860D01*
X98660107Y-117489329D01*
X98659492Y-117452293D01*
X98658917Y-117409322D01*
X98658382Y-117359987D01*
X98657885Y-117303858D01*
X98657426Y-117240507D01*
X98657002Y-117169504D01*
X98656612Y-117090419D01*
X98656256Y-117002823D01*
X98655932Y-116906286D01*
X98655638Y-116800380D01*
X98655375Y-116684674D01*
X98655139Y-116558740D01*
X98654931Y-116422148D01*
X98654749Y-116274468D01*
X98654591Y-116115271D01*
X98654457Y-115944129D01*
X98654345Y-115760610D01*
X98654254Y-115564286D01*
X98654183Y-115354728D01*
X98654130Y-115131506D01*
X98654095Y-114894190D01*
X98654075Y-114642352D01*
X98654070Y-114375561D01*
X98654079Y-114093389D01*
X98654100Y-113795406D01*
X98654133Y-113481183D01*
X98654157Y-113280104D01*
X98654204Y-112954440D01*
X98654258Y-112645285D01*
X98654321Y-112352219D01*
X98654394Y-112074817D01*
X98654477Y-111812657D01*
X98654574Y-111565317D01*
X98654684Y-111332372D01*
X98654809Y-111113401D01*
X98654951Y-110907980D01*
X98655110Y-110715687D01*
X98655288Y-110536099D01*
X98655486Y-110368792D01*
X98655705Y-110213345D01*
X98655947Y-110069334D01*
X98656213Y-109936336D01*
X98656504Y-109813929D01*
X98656821Y-109701690D01*
X98657166Y-109599195D01*
X98657540Y-109506022D01*
X98657944Y-109421749D01*
X98658380Y-109345952D01*
X98658849Y-109278208D01*
X98659351Y-109218094D01*
X98659889Y-109165189D01*
X98660463Y-109119068D01*
X98661075Y-109079309D01*
X98661727Y-109045490D01*
X98662418Y-109017186D01*
X98663152Y-108993976D01*
X98663928Y-108975437D01*
X98664748Y-108961145D01*
X98665614Y-108950678D01*
X98666526Y-108943614D01*
X98667157Y-108940600D01*
X98690239Y-108882056D01*
X98725383Y-108828773D01*
X98769171Y-108785622D01*
X98782769Y-108775851D01*
X98791322Y-108769892D01*
X98798729Y-108764373D01*
X98805635Y-108759276D01*
X98812685Y-108754585D01*
X98820524Y-108750285D01*
X98829798Y-108746359D01*
X98841152Y-108742792D01*
X98855232Y-108739567D01*
X98872682Y-108736669D01*
X98894148Y-108734080D01*
X98920276Y-108731786D01*
X98951709Y-108729770D01*
X98989095Y-108728016D01*
X99033077Y-108726508D01*
X99084302Y-108725230D01*
X99143414Y-108724165D01*
X99211059Y-108723299D01*
X99287882Y-108722614D01*
X99374529Y-108722096D01*
X99471644Y-108721726D01*
X99579874Y-108721491D01*
X99699862Y-108721373D01*
X99832255Y-108721357D01*
X99977698Y-108721426D01*
X100136836Y-108721564D01*
X100310314Y-108721756D01*
X100498778Y-108721985D01*
X100702873Y-108722236D01*
X100923244Y-108722491D01*
X100927447Y-108722496D01*
X102925033Y-108724700D01*
X102978301Y-108749297D01*
X103031519Y-108781768D01*
X103078551Y-108825572D01*
X103115343Y-108876434D01*
X103131869Y-108911312D01*
X103135911Y-108922719D01*
X103139280Y-108934477D01*
X103142036Y-108948170D01*
X103144241Y-108965379D01*
X103145957Y-108987686D01*
X103147244Y-109016673D01*
X103148164Y-109053923D01*
X103148778Y-109101017D01*
X103149147Y-109159537D01*
X103149332Y-109231066D01*
X103149395Y-109317186D01*
X103149400Y-109364251D01*
X103149400Y-109770333D01*
X102989016Y-109770333D01*
X102986658Y-109373012D01*
X102986090Y-109280665D01*
X102985532Y-109203735D01*
X102984912Y-109140709D01*
X102984157Y-109090071D01*
X102983196Y-109050307D01*
X102981955Y-109019900D01*
X102980364Y-108997338D01*
X102978349Y-108981103D01*
X102975839Y-108969682D01*
X102972761Y-108961560D01*
X102969043Y-108955221D01*
X102966588Y-108951796D01*
X102947073Y-108930479D01*
X102923160Y-108910437D01*
X102920808Y-108908797D01*
X102892740Y-108889695D01*
X100898054Y-108891864D01*
X98903367Y-108894033D01*
X98876894Y-108912916D01*
X98854762Y-108934049D01*
X98837323Y-108959440D01*
X98836677Y-108960763D01*
X98835643Y-108963839D01*
X98834661Y-108968881D01*
X98833731Y-108976320D01*
X98832850Y-108986588D01*
X98832019Y-109000117D01*
X98831235Y-109017338D01*
X98830497Y-109038683D01*
X98829803Y-109064584D01*
X98829153Y-109095472D01*
X98828545Y-109131778D01*
X98827977Y-109173935D01*
X98827448Y-109222373D01*
X98826957Y-109277525D01*
X98826503Y-109339823D01*
X98826083Y-109409697D01*
X98825698Y-109487580D01*
X98825344Y-109573902D01*
X98825021Y-109669096D01*
X98824728Y-109773594D01*
X98824463Y-109887826D01*
X98824225Y-110012225D01*
X98824012Y-110147222D01*
X98823824Y-110293249D01*
X98823657Y-110450737D01*
X98823513Y-110620118D01*
X98823388Y-110801823D01*
X98823282Y-110996285D01*
X98823193Y-111203934D01*
X98823119Y-111425203D01*
X98823060Y-111660523D01*
X98823015Y-111910325D01*
X98822981Y-112175042D01*
X98822957Y-112455104D01*
X98822942Y-112750944D01*
X98822935Y-113062993D01*
X98822933Y-113284000D01*
X98822936Y-113607284D01*
X98822946Y-113914067D01*
X98822963Y-114204779D01*
X98822990Y-114479853D01*
X98823028Y-114739720D01*
X98823078Y-114984812D01*
X98823141Y-115215560D01*
X98823219Y-115432396D01*
X98823314Y-115635752D01*
X98823426Y-115826059D01*
X98823557Y-116003749D01*
X98823709Y-116169253D01*
X98823882Y-116323003D01*
X98824078Y-116465431D01*
X98824299Y-116596968D01*
X98824546Y-116718046D01*
X98824819Y-116829097D01*
X98825122Y-116930551D01*
X98825454Y-117022842D01*
X98825818Y-117106399D01*
X98826215Y-117181656D01*
X98826645Y-117249043D01*
X98827111Y-117308993D01*
X98827614Y-117361936D01*
X98828155Y-117408305D01*
X98828736Y-117448531D01*
X98829358Y-117483045D01*
X98830022Y-117512280D01*
X98830729Y-117536666D01*
X98831482Y-117556636D01*
X98832281Y-117572621D01*
X98833128Y-117585053D01*
X98834025Y-117594363D01*
X98834971Y-117600984D01*
X98835970Y-117605345D01*
X98836677Y-117607237D01*
X98853563Y-117632524D01*
X98875689Y-117654204D01*
X98876894Y-117655083D01*
X98903367Y-117673967D01*
X100898054Y-117676136D01*
X102892740Y-117678305D01*
X102920808Y-117659202D01*
X102944585Y-117639855D01*
X102965049Y-117618212D01*
X102966588Y-117616197D01*
X102984300Y-117592294D01*
X102986499Y-116327147D01*
X102988697Y-115062000D01*
X103149613Y-115062000D01*
X103145167Y-117640100D01*
G04 #@! TD*
D11*
G04 #@! TO.C,J23*
X132130000Y-78536000D02*
X132130000Y-79960000D01*
X133554000Y-79960000D01*
X133554000Y-78536000D01*
X132130000Y-78536000D01*
X132130000Y-75996000D02*
X132130000Y-77420000D01*
X133554000Y-77420000D01*
X133554000Y-75996000D01*
X132130000Y-75996000D01*
X132130000Y-73456000D02*
X132130000Y-74880000D01*
X133554000Y-74880000D01*
X133554000Y-73456000D01*
X132130000Y-73456000D01*
X132130000Y-70916000D02*
X132130000Y-72340000D01*
X133554000Y-72340000D01*
X133554000Y-70916000D01*
X132130000Y-70916000D01*
G04 #@! TD*
G04 #@! TO.C,S*
X145938253Y-122672625D02*
X145938253Y-126382625D01*
X149648253Y-126382625D01*
X149648253Y-122672625D01*
X145938253Y-122672625D01*
X145938253Y-127672625D02*
X145938253Y-131382625D01*
X149648253Y-131382625D01*
X149648253Y-127672625D01*
X145938253Y-127672625D01*
G04 #@! TD*
G04 #@! TO.C,D*
X138318253Y-127672625D02*
X138318253Y-131382625D01*
X142028253Y-131382625D01*
X142028253Y-127672625D01*
X138318253Y-127672625D01*
X138318253Y-122672625D02*
X138318253Y-126382625D01*
X142028253Y-126382625D01*
X142028253Y-122672625D01*
X138318253Y-122672625D01*
G04 #@! TD*
G04 #@! TO.C,S*
X133238253Y-122672625D02*
X133238253Y-126382625D01*
X136948253Y-126382625D01*
X136948253Y-122672625D01*
X133238253Y-122672625D01*
X133238253Y-127672625D02*
X133238253Y-131382625D01*
X136948253Y-131382625D01*
X136948253Y-127672625D01*
X133238253Y-127672625D01*
G04 #@! TD*
G04 #@! TO.C,D*
X151018253Y-127672625D02*
X151018253Y-131382625D01*
X154728253Y-131382625D01*
X154728253Y-127672625D01*
X151018253Y-127672625D01*
X151018253Y-122672625D02*
X151018253Y-126382625D01*
X154728253Y-126382625D01*
X154728253Y-122672625D01*
X151018253Y-122672625D01*
G04 #@! TD*
G04 #@! TO.C,S*
X184006012Y-122705028D02*
X184006012Y-126415028D01*
X187716012Y-126415028D01*
X187716012Y-122705028D01*
X184006012Y-122705028D01*
X184006012Y-127705028D02*
X184006012Y-131415028D01*
X187716012Y-131415028D01*
X187716012Y-127705028D01*
X184006012Y-127705028D01*
G04 #@! TD*
G04 #@! TO.C,D*
X202294012Y-117989528D02*
X202294012Y-121699528D01*
X206004012Y-121699528D01*
X206004012Y-117989528D01*
X202294012Y-117989528D01*
X202294012Y-112989528D02*
X202294012Y-116699528D01*
X206004012Y-116699528D01*
X206004012Y-112989528D01*
X202294012Y-112989528D01*
G04 #@! TD*
G04 #@! TO.C,S*
X197214012Y-112989528D02*
X197214012Y-116699528D01*
X200924012Y-116699528D01*
X200924012Y-112989528D01*
X197214012Y-112989528D01*
X197214012Y-117989528D02*
X197214012Y-121699528D01*
X200924012Y-121699528D01*
X200924012Y-117989528D01*
X197214012Y-117989528D01*
G04 #@! TD*
G04 #@! TO.C,D*
X163561052Y-127689337D02*
X163561052Y-131399337D01*
X167271052Y-131399337D01*
X167271052Y-127689337D01*
X163561052Y-127689337D01*
X163561052Y-122689337D02*
X163561052Y-126399337D01*
X167271052Y-126399337D01*
X167271052Y-122689337D01*
X163561052Y-122689337D01*
G04 #@! TD*
G04 #@! TO.C,D*
X176261052Y-122689337D02*
X176261052Y-126399337D01*
X179971052Y-126399337D01*
X179971052Y-122689337D01*
X176261052Y-122689337D01*
X176261052Y-127689337D02*
X176261052Y-131399337D01*
X179971052Y-131399337D01*
X179971052Y-127689337D01*
X176261052Y-127689337D01*
G04 #@! TD*
G04 #@! TO.C,S*
X171181052Y-127689337D02*
X171181052Y-131399337D01*
X174891052Y-131399337D01*
X174891052Y-127689337D01*
X171181052Y-127689337D01*
X171181052Y-122689337D02*
X171181052Y-126399337D01*
X174891052Y-126399337D01*
X174891052Y-122689337D01*
X171181052Y-122689337D01*
G04 #@! TD*
G04 #@! TO.C,D*
X189086012Y-122705028D02*
X189086012Y-126415028D01*
X192796012Y-126415028D01*
X192796012Y-122705028D01*
X189086012Y-122705028D01*
X189086012Y-127705028D02*
X189086012Y-131415028D01*
X192796012Y-131415028D01*
X192796012Y-127705028D01*
X189086012Y-127705028D01*
G04 #@! TD*
G04 #@! TO.C,S*
X158481052Y-127689337D02*
X158481052Y-131399337D01*
X162191052Y-131399337D01*
X162191052Y-127689337D01*
X158481052Y-127689337D01*
X158481052Y-122689337D02*
X158481052Y-126399337D01*
X162191052Y-126399337D01*
X162191052Y-122689337D01*
X158481052Y-122689337D01*
G04 #@! TD*
G04 #@! TO.C,D*
X112953000Y-127685000D02*
X112953000Y-131395000D01*
X116663000Y-131395000D01*
X116663000Y-127685000D01*
X112953000Y-127685000D01*
X112953000Y-122685000D02*
X112953000Y-126395000D01*
X116663000Y-126395000D01*
X116663000Y-122685000D01*
X112953000Y-122685000D01*
G04 #@! TD*
G04 #@! TO.C,S*
X107873000Y-122685000D02*
X107873000Y-126395000D01*
X111583000Y-126395000D01*
X111583000Y-122685000D01*
X107873000Y-122685000D01*
X107873000Y-127685000D02*
X107873000Y-131395000D01*
X111583000Y-131395000D01*
X111583000Y-127685000D01*
X107873000Y-127685000D01*
G04 #@! TD*
G04 #@! TO.C,D*
X125653000Y-127685000D02*
X125653000Y-131395000D01*
X129363000Y-131395000D01*
X129363000Y-127685000D01*
X125653000Y-127685000D01*
X125653000Y-122685000D02*
X125653000Y-126395000D01*
X129363000Y-126395000D01*
X129363000Y-122685000D01*
X125653000Y-122685000D01*
G04 #@! TD*
G04 #@! TO.C,S*
X120573000Y-122685000D02*
X120573000Y-126395000D01*
X124283000Y-126395000D01*
X124283000Y-122685000D01*
X120573000Y-122685000D01*
X120573000Y-127685000D02*
X120573000Y-131395000D01*
X124283000Y-131395000D01*
X124283000Y-127685000D01*
X120573000Y-127685000D01*
G04 #@! TD*
G04 #@! TO.C,J5*
X136448000Y-48818000D02*
X136448000Y-50242000D01*
X137872000Y-50242000D01*
X137872000Y-48818000D01*
X136448000Y-48818000D01*
X133908000Y-48818000D02*
X133908000Y-50242000D01*
X135332000Y-50242000D01*
X135332000Y-48818000D01*
X133908000Y-48818000D01*
X131368000Y-48818000D02*
X131368000Y-50242000D01*
X132792000Y-50242000D01*
X132792000Y-48818000D01*
X131368000Y-48818000D01*
X128828000Y-48818000D02*
X128828000Y-50242000D01*
X130252000Y-50242000D01*
X130252000Y-48818000D01*
X128828000Y-48818000D01*
G04 #@! TD*
G04 #@! TO.C,J4*
X178358000Y-51358000D02*
X178358000Y-52782000D01*
X179782000Y-52782000D01*
X179782000Y-51358000D01*
X178358000Y-51358000D01*
X178358000Y-48818000D02*
X178358000Y-50242000D01*
X179782000Y-50242000D01*
X179782000Y-48818000D01*
X178358000Y-48818000D01*
X180898000Y-51358000D02*
X180898000Y-52782000D01*
X182322000Y-52782000D01*
X182322000Y-51358000D01*
X180898000Y-51358000D01*
X180898000Y-48818000D02*
X180898000Y-50242000D01*
X182322000Y-50242000D01*
X182322000Y-48818000D01*
X180898000Y-48818000D01*
X183438000Y-51358000D02*
X183438000Y-52782000D01*
X184862000Y-52782000D01*
X184862000Y-51358000D01*
X183438000Y-51358000D01*
X183438000Y-48818000D02*
X183438000Y-50242000D01*
X184862000Y-50242000D01*
X184862000Y-48818000D01*
X183438000Y-48818000D01*
G04 #@! TD*
G04 #@! TO.C,J2*
X187248000Y-51358000D02*
X187248000Y-52782000D01*
X188672000Y-52782000D01*
X188672000Y-51358000D01*
X187248000Y-51358000D01*
X187248000Y-48818000D02*
X187248000Y-50242000D01*
X188672000Y-50242000D01*
X188672000Y-48818000D01*
X187248000Y-48818000D01*
X189788000Y-51358000D02*
X189788000Y-52782000D01*
X191212000Y-52782000D01*
X191212000Y-51358000D01*
X189788000Y-51358000D01*
X189788000Y-48818000D02*
X189788000Y-50242000D01*
X191212000Y-50242000D01*
X191212000Y-48818000D01*
X189788000Y-48818000D01*
X192328000Y-51358000D02*
X192328000Y-52782000D01*
X193752000Y-52782000D01*
X193752000Y-51358000D01*
X192328000Y-51358000D01*
X192328000Y-48818000D02*
X192328000Y-50242000D01*
X193752000Y-50242000D01*
X193752000Y-48818000D01*
X192328000Y-48818000D01*
X194868000Y-51358000D02*
X194868000Y-52782000D01*
X196292000Y-52782000D01*
X196292000Y-51358000D01*
X194868000Y-51358000D01*
X194868000Y-48818000D02*
X194868000Y-50242000D01*
X196292000Y-50242000D01*
X196292000Y-48818000D01*
X194868000Y-48818000D01*
G04 #@! TD*
G04 #@! TO.C,J6*
X164388000Y-51358000D02*
X164388000Y-52782000D01*
X165812000Y-52782000D01*
X165812000Y-51358000D01*
X164388000Y-51358000D01*
X164388000Y-48818000D02*
X164388000Y-50242000D01*
X165812000Y-50242000D01*
X165812000Y-48818000D01*
X164388000Y-48818000D01*
X166928000Y-51358000D02*
X166928000Y-52782000D01*
X168352000Y-52782000D01*
X168352000Y-51358000D01*
X166928000Y-51358000D01*
X166928000Y-48818000D02*
X166928000Y-50242000D01*
X168352000Y-50242000D01*
X168352000Y-48818000D01*
X166928000Y-48818000D01*
X169468000Y-51358000D02*
X169468000Y-52782000D01*
X170892000Y-52782000D01*
X170892000Y-51358000D01*
X169468000Y-51358000D01*
X169468000Y-48818000D02*
X169468000Y-50242000D01*
X170892000Y-50242000D01*
X170892000Y-48818000D01*
X169468000Y-48818000D01*
X172008000Y-51358000D02*
X172008000Y-52782000D01*
X173432000Y-52782000D01*
X173432000Y-51358000D01*
X172008000Y-51358000D01*
X172008000Y-48818000D02*
X172008000Y-50242000D01*
X173432000Y-50242000D01*
X173432000Y-48818000D01*
X172008000Y-48818000D01*
X174548000Y-51358000D02*
X174548000Y-52782000D01*
X175972000Y-52782000D01*
X175972000Y-51358000D01*
X174548000Y-51358000D01*
X174548000Y-48818000D02*
X174548000Y-50242000D01*
X175972000Y-50242000D01*
X175972000Y-48818000D01*
X174548000Y-48818000D01*
G04 #@! TD*
G04 #@! TO.C,J1*
X140258000Y-51358000D02*
X140258000Y-52782000D01*
X141682000Y-52782000D01*
X141682000Y-51358000D01*
X140258000Y-51358000D01*
X140258000Y-48818000D02*
X140258000Y-50242000D01*
X141682000Y-50242000D01*
X141682000Y-48818000D01*
X140258000Y-48818000D01*
X142798000Y-51358000D02*
X142798000Y-52782000D01*
X144222000Y-52782000D01*
X144222000Y-51358000D01*
X142798000Y-51358000D01*
X142798000Y-48818000D02*
X142798000Y-50242000D01*
X144222000Y-50242000D01*
X144222000Y-48818000D01*
X142798000Y-48818000D01*
X145338000Y-51358000D02*
X145338000Y-52782000D01*
X146762000Y-52782000D01*
X146762000Y-51358000D01*
X145338000Y-51358000D01*
X145338000Y-48818000D02*
X145338000Y-50242000D01*
X146762000Y-50242000D01*
X146762000Y-48818000D01*
X145338000Y-48818000D01*
X147878000Y-51358000D02*
X147878000Y-52782000D01*
X149302000Y-52782000D01*
X149302000Y-51358000D01*
X147878000Y-51358000D01*
X147878000Y-48818000D02*
X147878000Y-50242000D01*
X149302000Y-50242000D01*
X149302000Y-48818000D01*
X147878000Y-48818000D01*
X150418000Y-51358000D02*
X150418000Y-52782000D01*
X151842000Y-52782000D01*
X151842000Y-51358000D01*
X150418000Y-51358000D01*
X150418000Y-48818000D02*
X150418000Y-50242000D01*
X151842000Y-50242000D01*
X151842000Y-48818000D01*
X150418000Y-48818000D01*
X152958000Y-51358000D02*
X152958000Y-52782000D01*
X154382000Y-52782000D01*
X154382000Y-51358000D01*
X152958000Y-51358000D01*
X152958000Y-48818000D02*
X152958000Y-50242000D01*
X154382000Y-50242000D01*
X154382000Y-48818000D01*
X152958000Y-48818000D01*
X155498000Y-51358000D02*
X155498000Y-52782000D01*
X156922000Y-52782000D01*
X156922000Y-51358000D01*
X155498000Y-51358000D01*
X155498000Y-48818000D02*
X155498000Y-50242000D01*
X156922000Y-50242000D01*
X156922000Y-48818000D01*
X155498000Y-48818000D01*
X158038000Y-51358000D02*
X158038000Y-52782000D01*
X159462000Y-52782000D01*
X159462000Y-51358000D01*
X158038000Y-51358000D01*
X158038000Y-48818000D02*
X158038000Y-50242000D01*
X159462000Y-50242000D01*
X159462000Y-48818000D01*
X158038000Y-48818000D01*
X160578000Y-51358000D02*
X160578000Y-52782000D01*
X162002000Y-52782000D01*
X162002000Y-51358000D01*
X160578000Y-51358000D01*
X160578000Y-48818000D02*
X160578000Y-50242000D01*
X162002000Y-50242000D01*
X162002000Y-48818000D01*
X160578000Y-48818000D01*
G04 #@! TD*
G04 #@! TO.C,S*
D15*
X147357824Y-133526482D02*
X147575538Y-133599053D01*
X147938395Y-133599053D01*
X148083538Y-133526482D01*
X148156110Y-133453910D01*
X148228681Y-133308767D01*
X148228681Y-133163625D01*
X148156110Y-133018482D01*
X148083538Y-132945910D01*
X147938395Y-132873339D01*
X147648110Y-132800767D01*
X147502967Y-132728196D01*
X147430395Y-132655625D01*
X147357824Y-132510482D01*
X147357824Y-132365339D01*
X147430395Y-132220196D01*
X147502967Y-132147625D01*
X147648110Y-132075053D01*
X148010967Y-132075053D01*
X148228681Y-132147625D01*
G04 #@! TO.C,D*
X139774110Y-133599053D02*
X139774110Y-132075053D01*
X140136967Y-132075053D01*
X140354681Y-132147625D01*
X140499824Y-132292767D01*
X140572395Y-132437910D01*
X140644967Y-132728196D01*
X140644967Y-132945910D01*
X140572395Y-133236196D01*
X140499824Y-133381339D01*
X140354681Y-133526482D01*
X140136967Y-133599053D01*
X139774110Y-133599053D01*
G04 #@! TO.C,S*
X134657824Y-133526482D02*
X134875538Y-133599053D01*
X135238395Y-133599053D01*
X135383538Y-133526482D01*
X135456110Y-133453910D01*
X135528681Y-133308767D01*
X135528681Y-133163625D01*
X135456110Y-133018482D01*
X135383538Y-132945910D01*
X135238395Y-132873339D01*
X134948110Y-132800767D01*
X134802967Y-132728196D01*
X134730395Y-132655625D01*
X134657824Y-132510482D01*
X134657824Y-132365339D01*
X134730395Y-132220196D01*
X134802967Y-132147625D01*
X134948110Y-132075053D01*
X135310967Y-132075053D01*
X135528681Y-132147625D01*
G04 #@! TO.C,D*
X152474110Y-133599053D02*
X152474110Y-132075053D01*
X152836967Y-132075053D01*
X153054681Y-132147625D01*
X153199824Y-132292767D01*
X153272395Y-132437910D01*
X153344967Y-132728196D01*
X153344967Y-132945910D01*
X153272395Y-133236196D01*
X153199824Y-133381339D01*
X153054681Y-133526482D01*
X152836967Y-133599053D01*
X152474110Y-133599053D01*
G04 #@! TO.C,S*
X185425583Y-133558885D02*
X185643297Y-133631456D01*
X186006154Y-133631456D01*
X186151297Y-133558885D01*
X186223869Y-133486313D01*
X186296440Y-133341170D01*
X186296440Y-133196028D01*
X186223869Y-133050885D01*
X186151297Y-132978313D01*
X186006154Y-132905742D01*
X185715869Y-132833170D01*
X185570726Y-132760599D01*
X185498154Y-132688028D01*
X185425583Y-132542885D01*
X185425583Y-132397742D01*
X185498154Y-132252599D01*
X185570726Y-132180028D01*
X185715869Y-132107456D01*
X186078726Y-132107456D01*
X186296440Y-132180028D01*
G04 #@! TO.C,D*
X203749869Y-123915956D02*
X203749869Y-122391956D01*
X204112726Y-122391956D01*
X204330440Y-122464528D01*
X204475583Y-122609670D01*
X204548154Y-122754813D01*
X204620726Y-123045099D01*
X204620726Y-123262813D01*
X204548154Y-123553099D01*
X204475583Y-123698242D01*
X204330440Y-123843385D01*
X204112726Y-123915956D01*
X203749869Y-123915956D01*
G04 #@! TO.C,S*
X198633583Y-123843385D02*
X198851297Y-123915956D01*
X199214154Y-123915956D01*
X199359297Y-123843385D01*
X199431869Y-123770813D01*
X199504440Y-123625670D01*
X199504440Y-123480528D01*
X199431869Y-123335385D01*
X199359297Y-123262813D01*
X199214154Y-123190242D01*
X198923869Y-123117670D01*
X198778726Y-123045099D01*
X198706154Y-122972528D01*
X198633583Y-122827385D01*
X198633583Y-122682242D01*
X198706154Y-122537099D01*
X198778726Y-122464528D01*
X198923869Y-122391956D01*
X199286726Y-122391956D01*
X199504440Y-122464528D01*
G04 #@! TO.C,D*
X165016909Y-133615765D02*
X165016909Y-132091765D01*
X165379766Y-132091765D01*
X165597480Y-132164337D01*
X165742623Y-132309479D01*
X165815194Y-132454622D01*
X165887766Y-132744908D01*
X165887766Y-132962622D01*
X165815194Y-133252908D01*
X165742623Y-133398051D01*
X165597480Y-133543194D01*
X165379766Y-133615765D01*
X165016909Y-133615765D01*
X177716909Y-133615765D02*
X177716909Y-132091765D01*
X178079766Y-132091765D01*
X178297480Y-132164337D01*
X178442623Y-132309479D01*
X178515194Y-132454622D01*
X178587766Y-132744908D01*
X178587766Y-132962622D01*
X178515194Y-133252908D01*
X178442623Y-133398051D01*
X178297480Y-133543194D01*
X178079766Y-133615765D01*
X177716909Y-133615765D01*
G04 #@! TO.C,S*
X172600623Y-133543194D02*
X172818337Y-133615765D01*
X173181194Y-133615765D01*
X173326337Y-133543194D01*
X173398909Y-133470622D01*
X173471480Y-133325479D01*
X173471480Y-133180337D01*
X173398909Y-133035194D01*
X173326337Y-132962622D01*
X173181194Y-132890051D01*
X172890909Y-132817479D01*
X172745766Y-132744908D01*
X172673194Y-132672337D01*
X172600623Y-132527194D01*
X172600623Y-132382051D01*
X172673194Y-132236908D01*
X172745766Y-132164337D01*
X172890909Y-132091765D01*
X173253766Y-132091765D01*
X173471480Y-132164337D01*
G04 #@! TO.C,D*
X190541869Y-133631456D02*
X190541869Y-132107456D01*
X190904726Y-132107456D01*
X191122440Y-132180028D01*
X191267583Y-132325170D01*
X191340154Y-132470313D01*
X191412726Y-132760599D01*
X191412726Y-132978313D01*
X191340154Y-133268599D01*
X191267583Y-133413742D01*
X191122440Y-133558885D01*
X190904726Y-133631456D01*
X190541869Y-133631456D01*
G04 #@! TO.C,S*
X159900623Y-133543194D02*
X160118337Y-133615765D01*
X160481194Y-133615765D01*
X160626337Y-133543194D01*
X160698909Y-133470622D01*
X160771480Y-133325479D01*
X160771480Y-133180337D01*
X160698909Y-133035194D01*
X160626337Y-132962622D01*
X160481194Y-132890051D01*
X160190909Y-132817479D01*
X160045766Y-132744908D01*
X159973194Y-132672337D01*
X159900623Y-132527194D01*
X159900623Y-132382051D01*
X159973194Y-132236908D01*
X160045766Y-132164337D01*
X160190909Y-132091765D01*
X160553766Y-132091765D01*
X160771480Y-132164337D01*
G04 #@! TO.C,BOOT*
D12*
X100251428Y-76112857D02*
X100203809Y-76255714D01*
X100156190Y-76303333D01*
X100060952Y-76350952D01*
X99918095Y-76350952D01*
X99822857Y-76303333D01*
X99775238Y-76255714D01*
X99727619Y-76160476D01*
X99727619Y-75779523D01*
X100727619Y-75779523D01*
X100727619Y-76112857D01*
X100680000Y-76208095D01*
X100632380Y-76255714D01*
X100537142Y-76303333D01*
X100441904Y-76303333D01*
X100346666Y-76255714D01*
X100299047Y-76208095D01*
X100251428Y-76112857D01*
X100251428Y-75779523D01*
X100727619Y-76970000D02*
X100727619Y-77160476D01*
X100680000Y-77255714D01*
X100584761Y-77350952D01*
X100394285Y-77398571D01*
X100060952Y-77398571D01*
X99870476Y-77350952D01*
X99775238Y-77255714D01*
X99727619Y-77160476D01*
X99727619Y-76970000D01*
X99775238Y-76874761D01*
X99870476Y-76779523D01*
X100060952Y-76731904D01*
X100394285Y-76731904D01*
X100584761Y-76779523D01*
X100680000Y-76874761D01*
X100727619Y-76970000D01*
X100727619Y-78017619D02*
X100727619Y-78208095D01*
X100680000Y-78303333D01*
X100584761Y-78398571D01*
X100394285Y-78446190D01*
X100060952Y-78446190D01*
X99870476Y-78398571D01*
X99775238Y-78303333D01*
X99727619Y-78208095D01*
X99727619Y-78017619D01*
X99775238Y-77922380D01*
X99870476Y-77827142D01*
X100060952Y-77779523D01*
X100394285Y-77779523D01*
X100584761Y-77827142D01*
X100680000Y-77922380D01*
X100727619Y-78017619D01*
X100727619Y-78731904D02*
X100727619Y-79303333D01*
X99727619Y-79017619D02*
X100727619Y-79017619D01*
G04 #@! TO.C,RESET*
X99727619Y-64587619D02*
X100203809Y-64254285D01*
X99727619Y-64016190D02*
X100727619Y-64016190D01*
X100727619Y-64397142D01*
X100680000Y-64492380D01*
X100632380Y-64540000D01*
X100537142Y-64587619D01*
X100394285Y-64587619D01*
X100299047Y-64540000D01*
X100251428Y-64492380D01*
X100203809Y-64397142D01*
X100203809Y-64016190D01*
X100251428Y-65016190D02*
X100251428Y-65349523D01*
X99727619Y-65492380D02*
X99727619Y-65016190D01*
X100727619Y-65016190D01*
X100727619Y-65492380D01*
X99775238Y-65873333D02*
X99727619Y-66016190D01*
X99727619Y-66254285D01*
X99775238Y-66349523D01*
X99822857Y-66397142D01*
X99918095Y-66444761D01*
X100013333Y-66444761D01*
X100108571Y-66397142D01*
X100156190Y-66349523D01*
X100203809Y-66254285D01*
X100251428Y-66063809D01*
X100299047Y-65968571D01*
X100346666Y-65920952D01*
X100441904Y-65873333D01*
X100537142Y-65873333D01*
X100632380Y-65920952D01*
X100680000Y-65968571D01*
X100727619Y-66063809D01*
X100727619Y-66301904D01*
X100680000Y-66444761D01*
X100251428Y-66873333D02*
X100251428Y-67206666D01*
X99727619Y-67349523D02*
X99727619Y-66873333D01*
X100727619Y-66873333D01*
X100727619Y-67349523D01*
X100727619Y-67635238D02*
X100727619Y-68206666D01*
X99727619Y-67920952D02*
X100727619Y-67920952D01*
G04 #@! TO.C,PWM fan*
D10*
X196896904Y-58487952D02*
X198196904Y-58487952D01*
X198196904Y-58983190D01*
X198135000Y-59107000D01*
X198073095Y-59168904D01*
X197949285Y-59230809D01*
X197763571Y-59230809D01*
X197639761Y-59168904D01*
X197577857Y-59107000D01*
X197515952Y-58983190D01*
X197515952Y-58487952D01*
X198196904Y-59664142D02*
X196896904Y-59973666D01*
X197825476Y-60221285D01*
X196896904Y-60468904D01*
X198196904Y-60778428D01*
X196896904Y-61273666D02*
X198196904Y-61273666D01*
X197268333Y-61707000D01*
X198196904Y-62140333D01*
X196896904Y-62140333D01*
X197763571Y-63564142D02*
X197763571Y-64059380D01*
X196896904Y-63749857D02*
X198011190Y-63749857D01*
X198135000Y-63811761D01*
X198196904Y-63935571D01*
X198196904Y-64059380D01*
X196896904Y-65049857D02*
X197577857Y-65049857D01*
X197701666Y-64987952D01*
X197763571Y-64864142D01*
X197763571Y-64616523D01*
X197701666Y-64492714D01*
X196958809Y-65049857D02*
X196896904Y-64926047D01*
X196896904Y-64616523D01*
X196958809Y-64492714D01*
X197082619Y-64430809D01*
X197206428Y-64430809D01*
X197330238Y-64492714D01*
X197392142Y-64616523D01*
X197392142Y-64926047D01*
X197454047Y-65049857D01*
X197763571Y-65668904D02*
X196896904Y-65668904D01*
X197639761Y-65668904D02*
X197701666Y-65730809D01*
X197763571Y-65854619D01*
X197763571Y-66040333D01*
X197701666Y-66164142D01*
X197577857Y-66226047D01*
X196896904Y-66226047D01*
G04 #@! TO.C,D*
D15*
X114408857Y-133611428D02*
X114408857Y-132087428D01*
X114771714Y-132087428D01*
X114989428Y-132160000D01*
X115134571Y-132305142D01*
X115207142Y-132450285D01*
X115279714Y-132740571D01*
X115279714Y-132958285D01*
X115207142Y-133248571D01*
X115134571Y-133393714D01*
X114989428Y-133538857D01*
X114771714Y-133611428D01*
X114408857Y-133611428D01*
G04 #@! TO.C,S*
X109292571Y-133538857D02*
X109510285Y-133611428D01*
X109873142Y-133611428D01*
X110018285Y-133538857D01*
X110090857Y-133466285D01*
X110163428Y-133321142D01*
X110163428Y-133176000D01*
X110090857Y-133030857D01*
X110018285Y-132958285D01*
X109873142Y-132885714D01*
X109582857Y-132813142D01*
X109437714Y-132740571D01*
X109365142Y-132668000D01*
X109292571Y-132522857D01*
X109292571Y-132377714D01*
X109365142Y-132232571D01*
X109437714Y-132160000D01*
X109582857Y-132087428D01*
X109945714Y-132087428D01*
X110163428Y-132160000D01*
G04 #@! TO.C,D*
X127108857Y-133611428D02*
X127108857Y-132087428D01*
X127471714Y-132087428D01*
X127689428Y-132160000D01*
X127834571Y-132305142D01*
X127907142Y-132450285D01*
X127979714Y-132740571D01*
X127979714Y-132958285D01*
X127907142Y-133248571D01*
X127834571Y-133393714D01*
X127689428Y-133538857D01*
X127471714Y-133611428D01*
X127108857Y-133611428D01*
G04 #@! TO.C,S*
X121992571Y-133538857D02*
X122210285Y-133611428D01*
X122573142Y-133611428D01*
X122718285Y-133538857D01*
X122790857Y-133466285D01*
X122863428Y-133321142D01*
X122863428Y-133176000D01*
X122790857Y-133030857D01*
X122718285Y-132958285D01*
X122573142Y-132885714D01*
X122282857Y-132813142D01*
X122137714Y-132740571D01*
X122065142Y-132668000D01*
X121992571Y-132522857D01*
X121992571Y-132377714D01*
X122065142Y-132232571D01*
X122137714Y-132160000D01*
X122282857Y-132087428D01*
X122645714Y-132087428D01*
X122863428Y-132160000D01*
G04 #@! TO.C,LF33*
D12*
X198953571Y-71517380D02*
X198477380Y-71517380D01*
X198477380Y-70517380D01*
X199620238Y-70993571D02*
X199286904Y-70993571D01*
X199286904Y-71517380D02*
X199286904Y-70517380D01*
X199763095Y-70517380D01*
X200048809Y-70517380D02*
X200667857Y-70517380D01*
X200334523Y-70898333D01*
X200477380Y-70898333D01*
X200572619Y-70945952D01*
X200620238Y-70993571D01*
X200667857Y-71088809D01*
X200667857Y-71326904D01*
X200620238Y-71422142D01*
X200572619Y-71469761D01*
X200477380Y-71517380D01*
X200191666Y-71517380D01*
X200096428Y-71469761D01*
X200048809Y-71422142D01*
X201001190Y-70517380D02*
X201620238Y-70517380D01*
X201286904Y-70898333D01*
X201429761Y-70898333D01*
X201525000Y-70945952D01*
X201572619Y-70993571D01*
X201620238Y-71088809D01*
X201620238Y-71326904D01*
X201572619Y-71422142D01*
X201525000Y-71469761D01*
X201429761Y-71517380D01*
X201144047Y-71517380D01*
X201048809Y-71469761D01*
X201001190Y-71422142D01*
G04 #@! TO.C,Q5*
X162780813Y-106621956D02*
X162685575Y-106574337D01*
X162590337Y-106479098D01*
X162447480Y-106336241D01*
X162352242Y-106288622D01*
X162257004Y-106288622D01*
X162304623Y-106526717D02*
X162209385Y-106479098D01*
X162114147Y-106383860D01*
X162066528Y-106193384D01*
X162066528Y-105860051D01*
X162114147Y-105669575D01*
X162209385Y-105574337D01*
X162304623Y-105526717D01*
X162495099Y-105526717D01*
X162590337Y-105574337D01*
X162685575Y-105669575D01*
X162733194Y-105860051D01*
X162733194Y-106193384D01*
X162685575Y-106383860D01*
X162590337Y-106479098D01*
X162495099Y-106526717D01*
X162304623Y-106526717D01*
X163637956Y-105526717D02*
X163161766Y-105526717D01*
X163114147Y-106002908D01*
X163161766Y-105955289D01*
X163257004Y-105907670D01*
X163495099Y-105907670D01*
X163590337Y-105955289D01*
X163637956Y-106002908D01*
X163685575Y-106098146D01*
X163685575Y-106336241D01*
X163637956Y-106431479D01*
X163590337Y-106479098D01*
X163495099Y-106526717D01*
X163257004Y-106526717D01*
X163161766Y-106479098D01*
X163114147Y-106431479D01*
G04 #@! TO.C,Q4*
X150238014Y-106605244D02*
X150142776Y-106557625D01*
X150047538Y-106462386D01*
X149904681Y-106319529D01*
X149809443Y-106271910D01*
X149714205Y-106271910D01*
X149761824Y-106510005D02*
X149666586Y-106462386D01*
X149571348Y-106367148D01*
X149523729Y-106176672D01*
X149523729Y-105843339D01*
X149571348Y-105652863D01*
X149666586Y-105557625D01*
X149761824Y-105510005D01*
X149952300Y-105510005D01*
X150047538Y-105557625D01*
X150142776Y-105652863D01*
X150190395Y-105843339D01*
X150190395Y-106176672D01*
X150142776Y-106367148D01*
X150047538Y-106462386D01*
X149952300Y-106510005D01*
X149761824Y-106510005D01*
X151047538Y-105843339D02*
X151047538Y-106510005D01*
X150809443Y-105462386D02*
X150571348Y-106176672D01*
X151190395Y-106176672D01*
G04 #@! TO.C,Q3*
X137538014Y-106605244D02*
X137442776Y-106557625D01*
X137347538Y-106462386D01*
X137204681Y-106319529D01*
X137109443Y-106271910D01*
X137014205Y-106271910D01*
X137061824Y-106510005D02*
X136966586Y-106462386D01*
X136871348Y-106367148D01*
X136823729Y-106176672D01*
X136823729Y-105843339D01*
X136871348Y-105652863D01*
X136966586Y-105557625D01*
X137061824Y-105510005D01*
X137252300Y-105510005D01*
X137347538Y-105557625D01*
X137442776Y-105652863D01*
X137490395Y-105843339D01*
X137490395Y-106176672D01*
X137442776Y-106367148D01*
X137347538Y-106462386D01*
X137252300Y-106510005D01*
X137061824Y-106510005D01*
X137823729Y-105510005D02*
X138442776Y-105510005D01*
X138109443Y-105890958D01*
X138252300Y-105890958D01*
X138347538Y-105938577D01*
X138395157Y-105986196D01*
X138442776Y-106081434D01*
X138442776Y-106319529D01*
X138395157Y-106414767D01*
X138347538Y-106462386D01*
X138252300Y-106510005D01*
X137966586Y-106510005D01*
X137871348Y-106462386D01*
X137823729Y-106414767D01*
G04 #@! TO.C,Q8*
X201513773Y-96922147D02*
X201418535Y-96874528D01*
X201323297Y-96779289D01*
X201180440Y-96636432D01*
X201085202Y-96588813D01*
X200989964Y-96588813D01*
X201037583Y-96826908D02*
X200942345Y-96779289D01*
X200847107Y-96684051D01*
X200799488Y-96493575D01*
X200799488Y-96160242D01*
X200847107Y-95969766D01*
X200942345Y-95874528D01*
X201037583Y-95826908D01*
X201228059Y-95826908D01*
X201323297Y-95874528D01*
X201418535Y-95969766D01*
X201466154Y-96160242D01*
X201466154Y-96493575D01*
X201418535Y-96684051D01*
X201323297Y-96779289D01*
X201228059Y-96826908D01*
X201037583Y-96826908D01*
X202037583Y-96255480D02*
X201942345Y-96207861D01*
X201894726Y-96160242D01*
X201847107Y-96065004D01*
X201847107Y-96017385D01*
X201894726Y-95922147D01*
X201942345Y-95874528D01*
X202037583Y-95826908D01*
X202228059Y-95826908D01*
X202323297Y-95874528D01*
X202370916Y-95922147D01*
X202418535Y-96017385D01*
X202418535Y-96065004D01*
X202370916Y-96160242D01*
X202323297Y-96207861D01*
X202228059Y-96255480D01*
X202037583Y-96255480D01*
X201942345Y-96303099D01*
X201894726Y-96350718D01*
X201847107Y-96445956D01*
X201847107Y-96636432D01*
X201894726Y-96731670D01*
X201942345Y-96779289D01*
X202037583Y-96826908D01*
X202228059Y-96826908D01*
X202323297Y-96779289D01*
X202370916Y-96731670D01*
X202418535Y-96636432D01*
X202418535Y-96445956D01*
X202370916Y-96350718D01*
X202323297Y-96303099D01*
X202228059Y-96255480D01*
G04 #@! TO.C,Q7*
X188305773Y-106637647D02*
X188210535Y-106590028D01*
X188115297Y-106494789D01*
X187972440Y-106351932D01*
X187877202Y-106304313D01*
X187781964Y-106304313D01*
X187829583Y-106542408D02*
X187734345Y-106494789D01*
X187639107Y-106399551D01*
X187591488Y-106209075D01*
X187591488Y-105875742D01*
X187639107Y-105685266D01*
X187734345Y-105590028D01*
X187829583Y-105542408D01*
X188020059Y-105542408D01*
X188115297Y-105590028D01*
X188210535Y-105685266D01*
X188258154Y-105875742D01*
X188258154Y-106209075D01*
X188210535Y-106399551D01*
X188115297Y-106494789D01*
X188020059Y-106542408D01*
X187829583Y-106542408D01*
X188591488Y-105542408D02*
X189258154Y-105542408D01*
X188829583Y-106542408D01*
G04 #@! TO.C,Q6*
X175480813Y-106621956D02*
X175385575Y-106574337D01*
X175290337Y-106479098D01*
X175147480Y-106336241D01*
X175052242Y-106288622D01*
X174957004Y-106288622D01*
X175004623Y-106526717D02*
X174909385Y-106479098D01*
X174814147Y-106383860D01*
X174766528Y-106193384D01*
X174766528Y-105860051D01*
X174814147Y-105669575D01*
X174909385Y-105574337D01*
X175004623Y-105526717D01*
X175195099Y-105526717D01*
X175290337Y-105574337D01*
X175385575Y-105669575D01*
X175433194Y-105860051D01*
X175433194Y-106193384D01*
X175385575Y-106383860D01*
X175290337Y-106479098D01*
X175195099Y-106526717D01*
X175004623Y-106526717D01*
X176290337Y-105526717D02*
X176099861Y-105526717D01*
X176004623Y-105574337D01*
X175957004Y-105621956D01*
X175861766Y-105764813D01*
X175814147Y-105955289D01*
X175814147Y-106336241D01*
X175861766Y-106431479D01*
X175909385Y-106479098D01*
X176004623Y-106526717D01*
X176195099Y-106526717D01*
X176290337Y-106479098D01*
X176337956Y-106431479D01*
X176385575Y-106336241D01*
X176385575Y-106098146D01*
X176337956Y-106002908D01*
X176290337Y-105955289D01*
X176195099Y-105907670D01*
X176004623Y-105907670D01*
X175909385Y-105955289D01*
X175861766Y-106002908D01*
X175814147Y-106098146D01*
G04 #@! TO.C,LM7808*
X197858333Y-83582380D02*
X197382142Y-83582380D01*
X197382142Y-82582380D01*
X198191666Y-83582380D02*
X198191666Y-82582380D01*
X198525000Y-83296666D01*
X198858333Y-82582380D01*
X198858333Y-83582380D01*
X199239285Y-82582380D02*
X199905952Y-82582380D01*
X199477380Y-83582380D01*
X200429761Y-83010952D02*
X200334523Y-82963333D01*
X200286904Y-82915714D01*
X200239285Y-82820476D01*
X200239285Y-82772857D01*
X200286904Y-82677619D01*
X200334523Y-82630000D01*
X200429761Y-82582380D01*
X200620238Y-82582380D01*
X200715476Y-82630000D01*
X200763095Y-82677619D01*
X200810714Y-82772857D01*
X200810714Y-82820476D01*
X200763095Y-82915714D01*
X200715476Y-82963333D01*
X200620238Y-83010952D01*
X200429761Y-83010952D01*
X200334523Y-83058571D01*
X200286904Y-83106190D01*
X200239285Y-83201428D01*
X200239285Y-83391904D01*
X200286904Y-83487142D01*
X200334523Y-83534761D01*
X200429761Y-83582380D01*
X200620238Y-83582380D01*
X200715476Y-83534761D01*
X200763095Y-83487142D01*
X200810714Y-83391904D01*
X200810714Y-83201428D01*
X200763095Y-83106190D01*
X200715476Y-83058571D01*
X200620238Y-83010952D01*
X201429761Y-82582380D02*
X201525000Y-82582380D01*
X201620238Y-82630000D01*
X201667857Y-82677619D01*
X201715476Y-82772857D01*
X201763095Y-82963333D01*
X201763095Y-83201428D01*
X201715476Y-83391904D01*
X201667857Y-83487142D01*
X201620238Y-83534761D01*
X201525000Y-83582380D01*
X201429761Y-83582380D01*
X201334523Y-83534761D01*
X201286904Y-83487142D01*
X201239285Y-83391904D01*
X201191666Y-83201428D01*
X201191666Y-82963333D01*
X201239285Y-82772857D01*
X201286904Y-82677619D01*
X201334523Y-82630000D01*
X201429761Y-82582380D01*
X202334523Y-83010952D02*
X202239285Y-82963333D01*
X202191666Y-82915714D01*
X202144047Y-82820476D01*
X202144047Y-82772857D01*
X202191666Y-82677619D01*
X202239285Y-82630000D01*
X202334523Y-82582380D01*
X202525000Y-82582380D01*
X202620238Y-82630000D01*
X202667857Y-82677619D01*
X202715476Y-82772857D01*
X202715476Y-82820476D01*
X202667857Y-82915714D01*
X202620238Y-82963333D01*
X202525000Y-83010952D01*
X202334523Y-83010952D01*
X202239285Y-83058571D01*
X202191666Y-83106190D01*
X202144047Y-83201428D01*
X202144047Y-83391904D01*
X202191666Y-83487142D01*
X202239285Y-83534761D01*
X202334523Y-83582380D01*
X202525000Y-83582380D01*
X202620238Y-83534761D01*
X202667857Y-83487142D01*
X202715476Y-83391904D01*
X202715476Y-83201428D01*
X202667857Y-83106190D01*
X202620238Y-83058571D01*
X202525000Y-83010952D01*
G04 #@! TO.C,Q2*
X124872761Y-106537619D02*
X124777523Y-106490000D01*
X124682285Y-106394761D01*
X124539428Y-106251904D01*
X124444190Y-106204285D01*
X124348952Y-106204285D01*
X124396571Y-106442380D02*
X124301333Y-106394761D01*
X124206095Y-106299523D01*
X124158476Y-106109047D01*
X124158476Y-105775714D01*
X124206095Y-105585238D01*
X124301333Y-105490000D01*
X124396571Y-105442380D01*
X124587047Y-105442380D01*
X124682285Y-105490000D01*
X124777523Y-105585238D01*
X124825142Y-105775714D01*
X124825142Y-106109047D01*
X124777523Y-106299523D01*
X124682285Y-106394761D01*
X124587047Y-106442380D01*
X124396571Y-106442380D01*
X125206095Y-105537619D02*
X125253714Y-105490000D01*
X125348952Y-105442380D01*
X125587047Y-105442380D01*
X125682285Y-105490000D01*
X125729904Y-105537619D01*
X125777523Y-105632857D01*
X125777523Y-105728095D01*
X125729904Y-105870952D01*
X125158476Y-106442380D01*
X125777523Y-106442380D01*
G04 #@! TO.C,Q1*
X112172761Y-106537619D02*
X112077523Y-106490000D01*
X111982285Y-106394761D01*
X111839428Y-106251904D01*
X111744190Y-106204285D01*
X111648952Y-106204285D01*
X111696571Y-106442380D02*
X111601333Y-106394761D01*
X111506095Y-106299523D01*
X111458476Y-106109047D01*
X111458476Y-105775714D01*
X111506095Y-105585238D01*
X111601333Y-105490000D01*
X111696571Y-105442380D01*
X111887047Y-105442380D01*
X111982285Y-105490000D01*
X112077523Y-105585238D01*
X112125142Y-105775714D01*
X112125142Y-106109047D01*
X112077523Y-106299523D01*
X111982285Y-106394761D01*
X111887047Y-106442380D01*
X111696571Y-106442380D01*
X113077523Y-106442380D02*
X112506095Y-106442380D01*
X112791809Y-106442380D02*
X112791809Y-105442380D01*
X112696571Y-105585238D01*
X112601333Y-105680476D01*
X112506095Y-105728095D01*
G04 #@! TO.C,R13*
X108656380Y-105290857D02*
X108180190Y-105624190D01*
X108656380Y-105862285D02*
X107656380Y-105862285D01*
X107656380Y-105481333D01*
X107704000Y-105386095D01*
X107751619Y-105338476D01*
X107846857Y-105290857D01*
X107989714Y-105290857D01*
X108084952Y-105338476D01*
X108132571Y-105386095D01*
X108180190Y-105481333D01*
X108180190Y-105862285D01*
X108656380Y-104338476D02*
X108656380Y-104909904D01*
X108656380Y-104624190D02*
X107656380Y-104624190D01*
X107799238Y-104719428D01*
X107894476Y-104814666D01*
X107942095Y-104909904D01*
X107656380Y-104005142D02*
X107656380Y-103386095D01*
X108037333Y-103719428D01*
X108037333Y-103576571D01*
X108084952Y-103481333D01*
X108132571Y-103433714D01*
X108227809Y-103386095D01*
X108465904Y-103386095D01*
X108561142Y-103433714D01*
X108608761Y-103481333D01*
X108656380Y-103576571D01*
X108656380Y-103862285D01*
X108608761Y-103957523D01*
X108561142Y-104005142D01*
G04 #@! TO.C,R14*
X120451619Y-104005142D02*
X120927809Y-103671809D01*
X120451619Y-103433714D02*
X121451619Y-103433714D01*
X121451619Y-103814666D01*
X121404000Y-103909904D01*
X121356380Y-103957523D01*
X121261142Y-104005142D01*
X121118285Y-104005142D01*
X121023047Y-103957523D01*
X120975428Y-103909904D01*
X120927809Y-103814666D01*
X120927809Y-103433714D01*
X120451619Y-104957523D02*
X120451619Y-104386095D01*
X120451619Y-104671809D02*
X121451619Y-104671809D01*
X121308761Y-104576571D01*
X121213523Y-104481333D01*
X121165904Y-104386095D01*
X121118285Y-105814666D02*
X120451619Y-105814666D01*
X121499238Y-105576571D02*
X120784952Y-105338476D01*
X120784952Y-105957523D01*
G04 #@! TO.C,R15*
X133151619Y-104005142D02*
X133627809Y-103671809D01*
X133151619Y-103433714D02*
X134151619Y-103433714D01*
X134151619Y-103814666D01*
X134104000Y-103909904D01*
X134056380Y-103957523D01*
X133961142Y-104005142D01*
X133818285Y-104005142D01*
X133723047Y-103957523D01*
X133675428Y-103909904D01*
X133627809Y-103814666D01*
X133627809Y-103433714D01*
X133151619Y-104957523D02*
X133151619Y-104386095D01*
X133151619Y-104671809D02*
X134151619Y-104671809D01*
X134008761Y-104576571D01*
X133913523Y-104481333D01*
X133865904Y-104386095D01*
X134151619Y-105862285D02*
X134151619Y-105386095D01*
X133675428Y-105338476D01*
X133723047Y-105386095D01*
X133770666Y-105481333D01*
X133770666Y-105719428D01*
X133723047Y-105814666D01*
X133675428Y-105862285D01*
X133580190Y-105909904D01*
X133342095Y-105909904D01*
X133246857Y-105862285D01*
X133199238Y-105814666D01*
X133151619Y-105719428D01*
X133151619Y-105481333D01*
X133199238Y-105386095D01*
X133246857Y-105338476D01*
G04 #@! TO.C,R20*
X193921142Y-94814380D02*
X193587809Y-94338190D01*
X193349714Y-94814380D02*
X193349714Y-93814380D01*
X193730666Y-93814380D01*
X193825904Y-93862000D01*
X193873523Y-93909619D01*
X193921142Y-94004857D01*
X193921142Y-94147714D01*
X193873523Y-94242952D01*
X193825904Y-94290571D01*
X193730666Y-94338190D01*
X193349714Y-94338190D01*
X194302095Y-93909619D02*
X194349714Y-93862000D01*
X194444952Y-93814380D01*
X194683047Y-93814380D01*
X194778285Y-93862000D01*
X194825904Y-93909619D01*
X194873523Y-94004857D01*
X194873523Y-94100095D01*
X194825904Y-94242952D01*
X194254476Y-94814380D01*
X194873523Y-94814380D01*
X195492571Y-93814380D02*
X195587809Y-93814380D01*
X195683047Y-93862000D01*
X195730666Y-93909619D01*
X195778285Y-94004857D01*
X195825904Y-94195333D01*
X195825904Y-94433428D01*
X195778285Y-94623904D01*
X195730666Y-94719142D01*
X195683047Y-94766761D01*
X195587809Y-94814380D01*
X195492571Y-94814380D01*
X195397333Y-94766761D01*
X195349714Y-94719142D01*
X195302095Y-94623904D01*
X195254476Y-94433428D01*
X195254476Y-94195333D01*
X195302095Y-94004857D01*
X195349714Y-93909619D01*
X195397333Y-93862000D01*
X195492571Y-93814380D01*
G04 #@! TO.C,R19*
X183951619Y-104005142D02*
X184427809Y-103671809D01*
X183951619Y-103433714D02*
X184951619Y-103433714D01*
X184951619Y-103814666D01*
X184904000Y-103909904D01*
X184856380Y-103957523D01*
X184761142Y-104005142D01*
X184618285Y-104005142D01*
X184523047Y-103957523D01*
X184475428Y-103909904D01*
X184427809Y-103814666D01*
X184427809Y-103433714D01*
X183951619Y-104957523D02*
X183951619Y-104386095D01*
X183951619Y-104671809D02*
X184951619Y-104671809D01*
X184808761Y-104576571D01*
X184713523Y-104481333D01*
X184665904Y-104386095D01*
X183951619Y-105433714D02*
X183951619Y-105624190D01*
X183999238Y-105719428D01*
X184046857Y-105767047D01*
X184189714Y-105862285D01*
X184380190Y-105909904D01*
X184761142Y-105909904D01*
X184856380Y-105862285D01*
X184904000Y-105814666D01*
X184951619Y-105719428D01*
X184951619Y-105528952D01*
X184904000Y-105433714D01*
X184856380Y-105386095D01*
X184761142Y-105338476D01*
X184523047Y-105338476D01*
X184427809Y-105386095D01*
X184380190Y-105433714D01*
X184332571Y-105528952D01*
X184332571Y-105719428D01*
X184380190Y-105814666D01*
X184427809Y-105862285D01*
X184523047Y-105909904D01*
G04 #@! TO.C,R18*
X171251619Y-104005142D02*
X171727809Y-103671809D01*
X171251619Y-103433714D02*
X172251619Y-103433714D01*
X172251619Y-103814666D01*
X172204000Y-103909904D01*
X172156380Y-103957523D01*
X172061142Y-104005142D01*
X171918285Y-104005142D01*
X171823047Y-103957523D01*
X171775428Y-103909904D01*
X171727809Y-103814666D01*
X171727809Y-103433714D01*
X171251619Y-104957523D02*
X171251619Y-104386095D01*
X171251619Y-104671809D02*
X172251619Y-104671809D01*
X172108761Y-104576571D01*
X172013523Y-104481333D01*
X171965904Y-104386095D01*
X171823047Y-105528952D02*
X171870666Y-105433714D01*
X171918285Y-105386095D01*
X172013523Y-105338476D01*
X172061142Y-105338476D01*
X172156380Y-105386095D01*
X172204000Y-105433714D01*
X172251619Y-105528952D01*
X172251619Y-105719428D01*
X172204000Y-105814666D01*
X172156380Y-105862285D01*
X172061142Y-105909904D01*
X172013523Y-105909904D01*
X171918285Y-105862285D01*
X171870666Y-105814666D01*
X171823047Y-105719428D01*
X171823047Y-105528952D01*
X171775428Y-105433714D01*
X171727809Y-105386095D01*
X171632571Y-105338476D01*
X171442095Y-105338476D01*
X171346857Y-105386095D01*
X171299238Y-105433714D01*
X171251619Y-105528952D01*
X171251619Y-105719428D01*
X171299238Y-105814666D01*
X171346857Y-105862285D01*
X171442095Y-105909904D01*
X171632571Y-105909904D01*
X171727809Y-105862285D01*
X171775428Y-105814666D01*
X171823047Y-105719428D01*
G04 #@! TO.C,R16*
X145851619Y-104005142D02*
X146327809Y-103671809D01*
X145851619Y-103433714D02*
X146851619Y-103433714D01*
X146851619Y-103814666D01*
X146804000Y-103909904D01*
X146756380Y-103957523D01*
X146661142Y-104005142D01*
X146518285Y-104005142D01*
X146423047Y-103957523D01*
X146375428Y-103909904D01*
X146327809Y-103814666D01*
X146327809Y-103433714D01*
X145851619Y-104957523D02*
X145851619Y-104386095D01*
X145851619Y-104671809D02*
X146851619Y-104671809D01*
X146708761Y-104576571D01*
X146613523Y-104481333D01*
X146565904Y-104386095D01*
X146851619Y-105814666D02*
X146851619Y-105624190D01*
X146804000Y-105528952D01*
X146756380Y-105481333D01*
X146613523Y-105386095D01*
X146423047Y-105338476D01*
X146042095Y-105338476D01*
X145946857Y-105386095D01*
X145899238Y-105433714D01*
X145851619Y-105528952D01*
X145851619Y-105719428D01*
X145899238Y-105814666D01*
X145946857Y-105862285D01*
X146042095Y-105909904D01*
X146280190Y-105909904D01*
X146375428Y-105862285D01*
X146423047Y-105814666D01*
X146470666Y-105719428D01*
X146470666Y-105528952D01*
X146423047Y-105433714D01*
X146375428Y-105386095D01*
X146280190Y-105338476D01*
G04 #@! TO.C,R17*
X158551619Y-104005142D02*
X159027809Y-103671809D01*
X158551619Y-103433714D02*
X159551619Y-103433714D01*
X159551619Y-103814666D01*
X159504000Y-103909904D01*
X159456380Y-103957523D01*
X159361142Y-104005142D01*
X159218285Y-104005142D01*
X159123047Y-103957523D01*
X159075428Y-103909904D01*
X159027809Y-103814666D01*
X159027809Y-103433714D01*
X158551619Y-104957523D02*
X158551619Y-104386095D01*
X158551619Y-104671809D02*
X159551619Y-104671809D01*
X159408761Y-104576571D01*
X159313523Y-104481333D01*
X159265904Y-104386095D01*
X159551619Y-105290857D02*
X159551619Y-105957523D01*
X158551619Y-105528952D01*
G04 #@! TD*
M02*
