G04 #@! TF.GenerationSoftware,KiCad,Pcbnew,5.0.2-bee76a0~70~ubuntu18.04.1*
G04 #@! TF.CreationDate,2020-07-22T00:10:31+02:00*
G04 #@! TF.ProjectId,E32CB_R2,45333243-425f-4523-922e-6b696361645f,rev?*
G04 #@! TF.SameCoordinates,Original*
G04 #@! TF.FileFunction,Paste,Top*
G04 #@! TF.FilePolarity,Positive*
%FSLAX46Y46*%
G04 Gerber Fmt 4.6, Leading zero omitted, Abs format (unit mm)*
G04 Created by KiCad (PCBNEW 5.0.2-bee76a0~70~ubuntu18.04.1) date St 22. července 2020, 00:10:31 CEST*
%MOMM*%
%LPD*%
G01*
G04 APERTURE LIST*
%ADD10R,3.050000X2.750000*%
%ADD11R,2.200000X1.200000*%
%ADD12C,0.100000*%
%ADD13C,1.150000*%
G04 APERTURE END LIST*
D10*
G04 #@! TO.C,LF33*
X200450000Y-77090000D03*
X203800000Y-74040000D03*
X200450000Y-74040000D03*
X203800000Y-77090000D03*
D11*
X195825000Y-77845000D03*
X195825000Y-73285000D03*
G04 #@! TD*
G04 #@! TO.C,Q5*
X158676052Y-108294337D03*
X158676052Y-112854337D03*
D10*
X166651052Y-112099337D03*
X163301052Y-109049337D03*
X166651052Y-109049337D03*
X163301052Y-112099337D03*
G04 #@! TD*
G04 #@! TO.C,Q4*
X150758253Y-112082625D03*
X154108253Y-109032625D03*
X150758253Y-109032625D03*
X154108253Y-112082625D03*
D11*
X146133253Y-112837625D03*
X146133253Y-108277625D03*
G04 #@! TD*
G04 #@! TO.C,Q3*
X133433253Y-108277625D03*
X133433253Y-112837625D03*
D10*
X141408253Y-112082625D03*
X138058253Y-109032625D03*
X141408253Y-109032625D03*
X138058253Y-112082625D03*
G04 #@! TD*
G04 #@! TO.C,Q8*
X202034012Y-102399528D03*
X205384012Y-99349528D03*
X202034012Y-99349528D03*
X205384012Y-102399528D03*
D11*
X197409012Y-103154528D03*
X197409012Y-98594528D03*
G04 #@! TD*
G04 #@! TO.C,Q7*
X184201012Y-108310028D03*
X184201012Y-112870028D03*
D10*
X192176012Y-112115028D03*
X188826012Y-109065028D03*
X192176012Y-109065028D03*
X188826012Y-112115028D03*
G04 #@! TD*
G04 #@! TO.C,Q6*
X176001052Y-112099337D03*
X179351052Y-109049337D03*
X176001052Y-109049337D03*
X179351052Y-112099337D03*
D11*
X171376052Y-112854337D03*
X171376052Y-108294337D03*
G04 #@! TD*
G04 #@! TO.C,78M05*
X195825000Y-85350000D03*
X195825000Y-89910000D03*
D10*
X203800000Y-89155000D03*
X200450000Y-86105000D03*
X203800000Y-86105000D03*
X200450000Y-89155000D03*
G04 #@! TD*
G04 #@! TO.C,Q2*
X125393000Y-112015000D03*
X128743000Y-108965000D03*
X125393000Y-108965000D03*
X128743000Y-112015000D03*
D11*
X120768000Y-112770000D03*
X120768000Y-108210000D03*
G04 #@! TD*
G04 #@! TO.C,Q1*
X108068000Y-108210000D03*
X108068000Y-112770000D03*
D10*
X116043000Y-112015000D03*
X112693000Y-108965000D03*
X116043000Y-108965000D03*
X112693000Y-112015000D03*
G04 #@! TD*
D12*
G04 #@! TO.C,R13*
G36*
X110202505Y-105099204D02*
X110226773Y-105102804D01*
X110250572Y-105108765D01*
X110273671Y-105117030D01*
X110295850Y-105127520D01*
X110316893Y-105140132D01*
X110336599Y-105154747D01*
X110354777Y-105171223D01*
X110371253Y-105189401D01*
X110385868Y-105209107D01*
X110398480Y-105230150D01*
X110408970Y-105252329D01*
X110417235Y-105275428D01*
X110423196Y-105299227D01*
X110426796Y-105323495D01*
X110428000Y-105347999D01*
X110428000Y-105998001D01*
X110426796Y-106022505D01*
X110423196Y-106046773D01*
X110417235Y-106070572D01*
X110408970Y-106093671D01*
X110398480Y-106115850D01*
X110385868Y-106136893D01*
X110371253Y-106156599D01*
X110354777Y-106174777D01*
X110336599Y-106191253D01*
X110316893Y-106205868D01*
X110295850Y-106218480D01*
X110273671Y-106228970D01*
X110250572Y-106237235D01*
X110226773Y-106243196D01*
X110202505Y-106246796D01*
X110178001Y-106248000D01*
X109277999Y-106248000D01*
X109253495Y-106246796D01*
X109229227Y-106243196D01*
X109205428Y-106237235D01*
X109182329Y-106228970D01*
X109160150Y-106218480D01*
X109139107Y-106205868D01*
X109119401Y-106191253D01*
X109101223Y-106174777D01*
X109084747Y-106156599D01*
X109070132Y-106136893D01*
X109057520Y-106115850D01*
X109047030Y-106093671D01*
X109038765Y-106070572D01*
X109032804Y-106046773D01*
X109029204Y-106022505D01*
X109028000Y-105998001D01*
X109028000Y-105347999D01*
X109029204Y-105323495D01*
X109032804Y-105299227D01*
X109038765Y-105275428D01*
X109047030Y-105252329D01*
X109057520Y-105230150D01*
X109070132Y-105209107D01*
X109084747Y-105189401D01*
X109101223Y-105171223D01*
X109119401Y-105154747D01*
X109139107Y-105140132D01*
X109160150Y-105127520D01*
X109182329Y-105117030D01*
X109205428Y-105108765D01*
X109229227Y-105102804D01*
X109253495Y-105099204D01*
X109277999Y-105098000D01*
X110178001Y-105098000D01*
X110202505Y-105099204D01*
X110202505Y-105099204D01*
G37*
D13*
X109728000Y-105673000D03*
D12*
G36*
X110202505Y-103049204D02*
X110226773Y-103052804D01*
X110250572Y-103058765D01*
X110273671Y-103067030D01*
X110295850Y-103077520D01*
X110316893Y-103090132D01*
X110336599Y-103104747D01*
X110354777Y-103121223D01*
X110371253Y-103139401D01*
X110385868Y-103159107D01*
X110398480Y-103180150D01*
X110408970Y-103202329D01*
X110417235Y-103225428D01*
X110423196Y-103249227D01*
X110426796Y-103273495D01*
X110428000Y-103297999D01*
X110428000Y-103948001D01*
X110426796Y-103972505D01*
X110423196Y-103996773D01*
X110417235Y-104020572D01*
X110408970Y-104043671D01*
X110398480Y-104065850D01*
X110385868Y-104086893D01*
X110371253Y-104106599D01*
X110354777Y-104124777D01*
X110336599Y-104141253D01*
X110316893Y-104155868D01*
X110295850Y-104168480D01*
X110273671Y-104178970D01*
X110250572Y-104187235D01*
X110226773Y-104193196D01*
X110202505Y-104196796D01*
X110178001Y-104198000D01*
X109277999Y-104198000D01*
X109253495Y-104196796D01*
X109229227Y-104193196D01*
X109205428Y-104187235D01*
X109182329Y-104178970D01*
X109160150Y-104168480D01*
X109139107Y-104155868D01*
X109119401Y-104141253D01*
X109101223Y-104124777D01*
X109084747Y-104106599D01*
X109070132Y-104086893D01*
X109057520Y-104065850D01*
X109047030Y-104043671D01*
X109038765Y-104020572D01*
X109032804Y-103996773D01*
X109029204Y-103972505D01*
X109028000Y-103948001D01*
X109028000Y-103297999D01*
X109029204Y-103273495D01*
X109032804Y-103249227D01*
X109038765Y-103225428D01*
X109047030Y-103202329D01*
X109057520Y-103180150D01*
X109070132Y-103159107D01*
X109084747Y-103139401D01*
X109101223Y-103121223D01*
X109119401Y-103104747D01*
X109139107Y-103090132D01*
X109160150Y-103077520D01*
X109182329Y-103067030D01*
X109205428Y-103058765D01*
X109229227Y-103052804D01*
X109253495Y-103049204D01*
X109277999Y-103048000D01*
X110178001Y-103048000D01*
X110202505Y-103049204D01*
X110202505Y-103049204D01*
G37*
D13*
X109728000Y-103623000D03*
G04 #@! TD*
D12*
G04 #@! TO.C,R14*
G36*
X122902505Y-103049204D02*
X122926773Y-103052804D01*
X122950572Y-103058765D01*
X122973671Y-103067030D01*
X122995850Y-103077520D01*
X123016893Y-103090132D01*
X123036599Y-103104747D01*
X123054777Y-103121223D01*
X123071253Y-103139401D01*
X123085868Y-103159107D01*
X123098480Y-103180150D01*
X123108970Y-103202329D01*
X123117235Y-103225428D01*
X123123196Y-103249227D01*
X123126796Y-103273495D01*
X123128000Y-103297999D01*
X123128000Y-103948001D01*
X123126796Y-103972505D01*
X123123196Y-103996773D01*
X123117235Y-104020572D01*
X123108970Y-104043671D01*
X123098480Y-104065850D01*
X123085868Y-104086893D01*
X123071253Y-104106599D01*
X123054777Y-104124777D01*
X123036599Y-104141253D01*
X123016893Y-104155868D01*
X122995850Y-104168480D01*
X122973671Y-104178970D01*
X122950572Y-104187235D01*
X122926773Y-104193196D01*
X122902505Y-104196796D01*
X122878001Y-104198000D01*
X121977999Y-104198000D01*
X121953495Y-104196796D01*
X121929227Y-104193196D01*
X121905428Y-104187235D01*
X121882329Y-104178970D01*
X121860150Y-104168480D01*
X121839107Y-104155868D01*
X121819401Y-104141253D01*
X121801223Y-104124777D01*
X121784747Y-104106599D01*
X121770132Y-104086893D01*
X121757520Y-104065850D01*
X121747030Y-104043671D01*
X121738765Y-104020572D01*
X121732804Y-103996773D01*
X121729204Y-103972505D01*
X121728000Y-103948001D01*
X121728000Y-103297999D01*
X121729204Y-103273495D01*
X121732804Y-103249227D01*
X121738765Y-103225428D01*
X121747030Y-103202329D01*
X121757520Y-103180150D01*
X121770132Y-103159107D01*
X121784747Y-103139401D01*
X121801223Y-103121223D01*
X121819401Y-103104747D01*
X121839107Y-103090132D01*
X121860150Y-103077520D01*
X121882329Y-103067030D01*
X121905428Y-103058765D01*
X121929227Y-103052804D01*
X121953495Y-103049204D01*
X121977999Y-103048000D01*
X122878001Y-103048000D01*
X122902505Y-103049204D01*
X122902505Y-103049204D01*
G37*
D13*
X122428000Y-103623000D03*
D12*
G36*
X122902505Y-105099204D02*
X122926773Y-105102804D01*
X122950572Y-105108765D01*
X122973671Y-105117030D01*
X122995850Y-105127520D01*
X123016893Y-105140132D01*
X123036599Y-105154747D01*
X123054777Y-105171223D01*
X123071253Y-105189401D01*
X123085868Y-105209107D01*
X123098480Y-105230150D01*
X123108970Y-105252329D01*
X123117235Y-105275428D01*
X123123196Y-105299227D01*
X123126796Y-105323495D01*
X123128000Y-105347999D01*
X123128000Y-105998001D01*
X123126796Y-106022505D01*
X123123196Y-106046773D01*
X123117235Y-106070572D01*
X123108970Y-106093671D01*
X123098480Y-106115850D01*
X123085868Y-106136893D01*
X123071253Y-106156599D01*
X123054777Y-106174777D01*
X123036599Y-106191253D01*
X123016893Y-106205868D01*
X122995850Y-106218480D01*
X122973671Y-106228970D01*
X122950572Y-106237235D01*
X122926773Y-106243196D01*
X122902505Y-106246796D01*
X122878001Y-106248000D01*
X121977999Y-106248000D01*
X121953495Y-106246796D01*
X121929227Y-106243196D01*
X121905428Y-106237235D01*
X121882329Y-106228970D01*
X121860150Y-106218480D01*
X121839107Y-106205868D01*
X121819401Y-106191253D01*
X121801223Y-106174777D01*
X121784747Y-106156599D01*
X121770132Y-106136893D01*
X121757520Y-106115850D01*
X121747030Y-106093671D01*
X121738765Y-106070572D01*
X121732804Y-106046773D01*
X121729204Y-106022505D01*
X121728000Y-105998001D01*
X121728000Y-105347999D01*
X121729204Y-105323495D01*
X121732804Y-105299227D01*
X121738765Y-105275428D01*
X121747030Y-105252329D01*
X121757520Y-105230150D01*
X121770132Y-105209107D01*
X121784747Y-105189401D01*
X121801223Y-105171223D01*
X121819401Y-105154747D01*
X121839107Y-105140132D01*
X121860150Y-105127520D01*
X121882329Y-105117030D01*
X121905428Y-105108765D01*
X121929227Y-105102804D01*
X121953495Y-105099204D01*
X121977999Y-105098000D01*
X122878001Y-105098000D01*
X122902505Y-105099204D01*
X122902505Y-105099204D01*
G37*
D13*
X122428000Y-105673000D03*
G04 #@! TD*
D12*
G04 #@! TO.C,R15*
G36*
X135602505Y-105099204D02*
X135626773Y-105102804D01*
X135650572Y-105108765D01*
X135673671Y-105117030D01*
X135695850Y-105127520D01*
X135716893Y-105140132D01*
X135736599Y-105154747D01*
X135754777Y-105171223D01*
X135771253Y-105189401D01*
X135785868Y-105209107D01*
X135798480Y-105230150D01*
X135808970Y-105252329D01*
X135817235Y-105275428D01*
X135823196Y-105299227D01*
X135826796Y-105323495D01*
X135828000Y-105347999D01*
X135828000Y-105998001D01*
X135826796Y-106022505D01*
X135823196Y-106046773D01*
X135817235Y-106070572D01*
X135808970Y-106093671D01*
X135798480Y-106115850D01*
X135785868Y-106136893D01*
X135771253Y-106156599D01*
X135754777Y-106174777D01*
X135736599Y-106191253D01*
X135716893Y-106205868D01*
X135695850Y-106218480D01*
X135673671Y-106228970D01*
X135650572Y-106237235D01*
X135626773Y-106243196D01*
X135602505Y-106246796D01*
X135578001Y-106248000D01*
X134677999Y-106248000D01*
X134653495Y-106246796D01*
X134629227Y-106243196D01*
X134605428Y-106237235D01*
X134582329Y-106228970D01*
X134560150Y-106218480D01*
X134539107Y-106205868D01*
X134519401Y-106191253D01*
X134501223Y-106174777D01*
X134484747Y-106156599D01*
X134470132Y-106136893D01*
X134457520Y-106115850D01*
X134447030Y-106093671D01*
X134438765Y-106070572D01*
X134432804Y-106046773D01*
X134429204Y-106022505D01*
X134428000Y-105998001D01*
X134428000Y-105347999D01*
X134429204Y-105323495D01*
X134432804Y-105299227D01*
X134438765Y-105275428D01*
X134447030Y-105252329D01*
X134457520Y-105230150D01*
X134470132Y-105209107D01*
X134484747Y-105189401D01*
X134501223Y-105171223D01*
X134519401Y-105154747D01*
X134539107Y-105140132D01*
X134560150Y-105127520D01*
X134582329Y-105117030D01*
X134605428Y-105108765D01*
X134629227Y-105102804D01*
X134653495Y-105099204D01*
X134677999Y-105098000D01*
X135578001Y-105098000D01*
X135602505Y-105099204D01*
X135602505Y-105099204D01*
G37*
D13*
X135128000Y-105673000D03*
D12*
G36*
X135602505Y-103049204D02*
X135626773Y-103052804D01*
X135650572Y-103058765D01*
X135673671Y-103067030D01*
X135695850Y-103077520D01*
X135716893Y-103090132D01*
X135736599Y-103104747D01*
X135754777Y-103121223D01*
X135771253Y-103139401D01*
X135785868Y-103159107D01*
X135798480Y-103180150D01*
X135808970Y-103202329D01*
X135817235Y-103225428D01*
X135823196Y-103249227D01*
X135826796Y-103273495D01*
X135828000Y-103297999D01*
X135828000Y-103948001D01*
X135826796Y-103972505D01*
X135823196Y-103996773D01*
X135817235Y-104020572D01*
X135808970Y-104043671D01*
X135798480Y-104065850D01*
X135785868Y-104086893D01*
X135771253Y-104106599D01*
X135754777Y-104124777D01*
X135736599Y-104141253D01*
X135716893Y-104155868D01*
X135695850Y-104168480D01*
X135673671Y-104178970D01*
X135650572Y-104187235D01*
X135626773Y-104193196D01*
X135602505Y-104196796D01*
X135578001Y-104198000D01*
X134677999Y-104198000D01*
X134653495Y-104196796D01*
X134629227Y-104193196D01*
X134605428Y-104187235D01*
X134582329Y-104178970D01*
X134560150Y-104168480D01*
X134539107Y-104155868D01*
X134519401Y-104141253D01*
X134501223Y-104124777D01*
X134484747Y-104106599D01*
X134470132Y-104086893D01*
X134457520Y-104065850D01*
X134447030Y-104043671D01*
X134438765Y-104020572D01*
X134432804Y-103996773D01*
X134429204Y-103972505D01*
X134428000Y-103948001D01*
X134428000Y-103297999D01*
X134429204Y-103273495D01*
X134432804Y-103249227D01*
X134438765Y-103225428D01*
X134447030Y-103202329D01*
X134457520Y-103180150D01*
X134470132Y-103159107D01*
X134484747Y-103139401D01*
X134501223Y-103121223D01*
X134519401Y-103104747D01*
X134539107Y-103090132D01*
X134560150Y-103077520D01*
X134582329Y-103067030D01*
X134605428Y-103058765D01*
X134629227Y-103052804D01*
X134653495Y-103049204D01*
X134677999Y-103048000D01*
X135578001Y-103048000D01*
X135602505Y-103049204D01*
X135602505Y-103049204D01*
G37*
D13*
X135128000Y-103623000D03*
G04 #@! TD*
D12*
G04 #@! TO.C,R20*
G36*
X193888505Y-95313204D02*
X193912773Y-95316804D01*
X193936572Y-95322765D01*
X193959671Y-95331030D01*
X193981850Y-95341520D01*
X194002893Y-95354132D01*
X194022599Y-95368747D01*
X194040777Y-95385223D01*
X194057253Y-95403401D01*
X194071868Y-95423107D01*
X194084480Y-95444150D01*
X194094970Y-95466329D01*
X194103235Y-95489428D01*
X194109196Y-95513227D01*
X194112796Y-95537495D01*
X194114000Y-95561999D01*
X194114000Y-96462001D01*
X194112796Y-96486505D01*
X194109196Y-96510773D01*
X194103235Y-96534572D01*
X194094970Y-96557671D01*
X194084480Y-96579850D01*
X194071868Y-96600893D01*
X194057253Y-96620599D01*
X194040777Y-96638777D01*
X194022599Y-96655253D01*
X194002893Y-96669868D01*
X193981850Y-96682480D01*
X193959671Y-96692970D01*
X193936572Y-96701235D01*
X193912773Y-96707196D01*
X193888505Y-96710796D01*
X193864001Y-96712000D01*
X193213999Y-96712000D01*
X193189495Y-96710796D01*
X193165227Y-96707196D01*
X193141428Y-96701235D01*
X193118329Y-96692970D01*
X193096150Y-96682480D01*
X193075107Y-96669868D01*
X193055401Y-96655253D01*
X193037223Y-96638777D01*
X193020747Y-96620599D01*
X193006132Y-96600893D01*
X192993520Y-96579850D01*
X192983030Y-96557671D01*
X192974765Y-96534572D01*
X192968804Y-96510773D01*
X192965204Y-96486505D01*
X192964000Y-96462001D01*
X192964000Y-95561999D01*
X192965204Y-95537495D01*
X192968804Y-95513227D01*
X192974765Y-95489428D01*
X192983030Y-95466329D01*
X192993520Y-95444150D01*
X193006132Y-95423107D01*
X193020747Y-95403401D01*
X193037223Y-95385223D01*
X193055401Y-95368747D01*
X193075107Y-95354132D01*
X193096150Y-95341520D01*
X193118329Y-95331030D01*
X193141428Y-95322765D01*
X193165227Y-95316804D01*
X193189495Y-95313204D01*
X193213999Y-95312000D01*
X193864001Y-95312000D01*
X193888505Y-95313204D01*
X193888505Y-95313204D01*
G37*
D13*
X193539000Y-96012000D03*
D12*
G36*
X195938505Y-95313204D02*
X195962773Y-95316804D01*
X195986572Y-95322765D01*
X196009671Y-95331030D01*
X196031850Y-95341520D01*
X196052893Y-95354132D01*
X196072599Y-95368747D01*
X196090777Y-95385223D01*
X196107253Y-95403401D01*
X196121868Y-95423107D01*
X196134480Y-95444150D01*
X196144970Y-95466329D01*
X196153235Y-95489428D01*
X196159196Y-95513227D01*
X196162796Y-95537495D01*
X196164000Y-95561999D01*
X196164000Y-96462001D01*
X196162796Y-96486505D01*
X196159196Y-96510773D01*
X196153235Y-96534572D01*
X196144970Y-96557671D01*
X196134480Y-96579850D01*
X196121868Y-96600893D01*
X196107253Y-96620599D01*
X196090777Y-96638777D01*
X196072599Y-96655253D01*
X196052893Y-96669868D01*
X196031850Y-96682480D01*
X196009671Y-96692970D01*
X195986572Y-96701235D01*
X195962773Y-96707196D01*
X195938505Y-96710796D01*
X195914001Y-96712000D01*
X195263999Y-96712000D01*
X195239495Y-96710796D01*
X195215227Y-96707196D01*
X195191428Y-96701235D01*
X195168329Y-96692970D01*
X195146150Y-96682480D01*
X195125107Y-96669868D01*
X195105401Y-96655253D01*
X195087223Y-96638777D01*
X195070747Y-96620599D01*
X195056132Y-96600893D01*
X195043520Y-96579850D01*
X195033030Y-96557671D01*
X195024765Y-96534572D01*
X195018804Y-96510773D01*
X195015204Y-96486505D01*
X195014000Y-96462001D01*
X195014000Y-95561999D01*
X195015204Y-95537495D01*
X195018804Y-95513227D01*
X195024765Y-95489428D01*
X195033030Y-95466329D01*
X195043520Y-95444150D01*
X195056132Y-95423107D01*
X195070747Y-95403401D01*
X195087223Y-95385223D01*
X195105401Y-95368747D01*
X195125107Y-95354132D01*
X195146150Y-95341520D01*
X195168329Y-95331030D01*
X195191428Y-95322765D01*
X195215227Y-95316804D01*
X195239495Y-95313204D01*
X195263999Y-95312000D01*
X195914001Y-95312000D01*
X195938505Y-95313204D01*
X195938505Y-95313204D01*
G37*
D13*
X195589000Y-96012000D03*
G04 #@! TD*
D12*
G04 #@! TO.C,R19*
G36*
X186402505Y-105099204D02*
X186426773Y-105102804D01*
X186450572Y-105108765D01*
X186473671Y-105117030D01*
X186495850Y-105127520D01*
X186516893Y-105140132D01*
X186536599Y-105154747D01*
X186554777Y-105171223D01*
X186571253Y-105189401D01*
X186585868Y-105209107D01*
X186598480Y-105230150D01*
X186608970Y-105252329D01*
X186617235Y-105275428D01*
X186623196Y-105299227D01*
X186626796Y-105323495D01*
X186628000Y-105347999D01*
X186628000Y-105998001D01*
X186626796Y-106022505D01*
X186623196Y-106046773D01*
X186617235Y-106070572D01*
X186608970Y-106093671D01*
X186598480Y-106115850D01*
X186585868Y-106136893D01*
X186571253Y-106156599D01*
X186554777Y-106174777D01*
X186536599Y-106191253D01*
X186516893Y-106205868D01*
X186495850Y-106218480D01*
X186473671Y-106228970D01*
X186450572Y-106237235D01*
X186426773Y-106243196D01*
X186402505Y-106246796D01*
X186378001Y-106248000D01*
X185477999Y-106248000D01*
X185453495Y-106246796D01*
X185429227Y-106243196D01*
X185405428Y-106237235D01*
X185382329Y-106228970D01*
X185360150Y-106218480D01*
X185339107Y-106205868D01*
X185319401Y-106191253D01*
X185301223Y-106174777D01*
X185284747Y-106156599D01*
X185270132Y-106136893D01*
X185257520Y-106115850D01*
X185247030Y-106093671D01*
X185238765Y-106070572D01*
X185232804Y-106046773D01*
X185229204Y-106022505D01*
X185228000Y-105998001D01*
X185228000Y-105347999D01*
X185229204Y-105323495D01*
X185232804Y-105299227D01*
X185238765Y-105275428D01*
X185247030Y-105252329D01*
X185257520Y-105230150D01*
X185270132Y-105209107D01*
X185284747Y-105189401D01*
X185301223Y-105171223D01*
X185319401Y-105154747D01*
X185339107Y-105140132D01*
X185360150Y-105127520D01*
X185382329Y-105117030D01*
X185405428Y-105108765D01*
X185429227Y-105102804D01*
X185453495Y-105099204D01*
X185477999Y-105098000D01*
X186378001Y-105098000D01*
X186402505Y-105099204D01*
X186402505Y-105099204D01*
G37*
D13*
X185928000Y-105673000D03*
D12*
G36*
X186402505Y-103049204D02*
X186426773Y-103052804D01*
X186450572Y-103058765D01*
X186473671Y-103067030D01*
X186495850Y-103077520D01*
X186516893Y-103090132D01*
X186536599Y-103104747D01*
X186554777Y-103121223D01*
X186571253Y-103139401D01*
X186585868Y-103159107D01*
X186598480Y-103180150D01*
X186608970Y-103202329D01*
X186617235Y-103225428D01*
X186623196Y-103249227D01*
X186626796Y-103273495D01*
X186628000Y-103297999D01*
X186628000Y-103948001D01*
X186626796Y-103972505D01*
X186623196Y-103996773D01*
X186617235Y-104020572D01*
X186608970Y-104043671D01*
X186598480Y-104065850D01*
X186585868Y-104086893D01*
X186571253Y-104106599D01*
X186554777Y-104124777D01*
X186536599Y-104141253D01*
X186516893Y-104155868D01*
X186495850Y-104168480D01*
X186473671Y-104178970D01*
X186450572Y-104187235D01*
X186426773Y-104193196D01*
X186402505Y-104196796D01*
X186378001Y-104198000D01*
X185477999Y-104198000D01*
X185453495Y-104196796D01*
X185429227Y-104193196D01*
X185405428Y-104187235D01*
X185382329Y-104178970D01*
X185360150Y-104168480D01*
X185339107Y-104155868D01*
X185319401Y-104141253D01*
X185301223Y-104124777D01*
X185284747Y-104106599D01*
X185270132Y-104086893D01*
X185257520Y-104065850D01*
X185247030Y-104043671D01*
X185238765Y-104020572D01*
X185232804Y-103996773D01*
X185229204Y-103972505D01*
X185228000Y-103948001D01*
X185228000Y-103297999D01*
X185229204Y-103273495D01*
X185232804Y-103249227D01*
X185238765Y-103225428D01*
X185247030Y-103202329D01*
X185257520Y-103180150D01*
X185270132Y-103159107D01*
X185284747Y-103139401D01*
X185301223Y-103121223D01*
X185319401Y-103104747D01*
X185339107Y-103090132D01*
X185360150Y-103077520D01*
X185382329Y-103067030D01*
X185405428Y-103058765D01*
X185429227Y-103052804D01*
X185453495Y-103049204D01*
X185477999Y-103048000D01*
X186378001Y-103048000D01*
X186402505Y-103049204D01*
X186402505Y-103049204D01*
G37*
D13*
X185928000Y-103623000D03*
G04 #@! TD*
D12*
G04 #@! TO.C,R18*
G36*
X173702505Y-103049204D02*
X173726773Y-103052804D01*
X173750572Y-103058765D01*
X173773671Y-103067030D01*
X173795850Y-103077520D01*
X173816893Y-103090132D01*
X173836599Y-103104747D01*
X173854777Y-103121223D01*
X173871253Y-103139401D01*
X173885868Y-103159107D01*
X173898480Y-103180150D01*
X173908970Y-103202329D01*
X173917235Y-103225428D01*
X173923196Y-103249227D01*
X173926796Y-103273495D01*
X173928000Y-103297999D01*
X173928000Y-103948001D01*
X173926796Y-103972505D01*
X173923196Y-103996773D01*
X173917235Y-104020572D01*
X173908970Y-104043671D01*
X173898480Y-104065850D01*
X173885868Y-104086893D01*
X173871253Y-104106599D01*
X173854777Y-104124777D01*
X173836599Y-104141253D01*
X173816893Y-104155868D01*
X173795850Y-104168480D01*
X173773671Y-104178970D01*
X173750572Y-104187235D01*
X173726773Y-104193196D01*
X173702505Y-104196796D01*
X173678001Y-104198000D01*
X172777999Y-104198000D01*
X172753495Y-104196796D01*
X172729227Y-104193196D01*
X172705428Y-104187235D01*
X172682329Y-104178970D01*
X172660150Y-104168480D01*
X172639107Y-104155868D01*
X172619401Y-104141253D01*
X172601223Y-104124777D01*
X172584747Y-104106599D01*
X172570132Y-104086893D01*
X172557520Y-104065850D01*
X172547030Y-104043671D01*
X172538765Y-104020572D01*
X172532804Y-103996773D01*
X172529204Y-103972505D01*
X172528000Y-103948001D01*
X172528000Y-103297999D01*
X172529204Y-103273495D01*
X172532804Y-103249227D01*
X172538765Y-103225428D01*
X172547030Y-103202329D01*
X172557520Y-103180150D01*
X172570132Y-103159107D01*
X172584747Y-103139401D01*
X172601223Y-103121223D01*
X172619401Y-103104747D01*
X172639107Y-103090132D01*
X172660150Y-103077520D01*
X172682329Y-103067030D01*
X172705428Y-103058765D01*
X172729227Y-103052804D01*
X172753495Y-103049204D01*
X172777999Y-103048000D01*
X173678001Y-103048000D01*
X173702505Y-103049204D01*
X173702505Y-103049204D01*
G37*
D13*
X173228000Y-103623000D03*
D12*
G36*
X173702505Y-105099204D02*
X173726773Y-105102804D01*
X173750572Y-105108765D01*
X173773671Y-105117030D01*
X173795850Y-105127520D01*
X173816893Y-105140132D01*
X173836599Y-105154747D01*
X173854777Y-105171223D01*
X173871253Y-105189401D01*
X173885868Y-105209107D01*
X173898480Y-105230150D01*
X173908970Y-105252329D01*
X173917235Y-105275428D01*
X173923196Y-105299227D01*
X173926796Y-105323495D01*
X173928000Y-105347999D01*
X173928000Y-105998001D01*
X173926796Y-106022505D01*
X173923196Y-106046773D01*
X173917235Y-106070572D01*
X173908970Y-106093671D01*
X173898480Y-106115850D01*
X173885868Y-106136893D01*
X173871253Y-106156599D01*
X173854777Y-106174777D01*
X173836599Y-106191253D01*
X173816893Y-106205868D01*
X173795850Y-106218480D01*
X173773671Y-106228970D01*
X173750572Y-106237235D01*
X173726773Y-106243196D01*
X173702505Y-106246796D01*
X173678001Y-106248000D01*
X172777999Y-106248000D01*
X172753495Y-106246796D01*
X172729227Y-106243196D01*
X172705428Y-106237235D01*
X172682329Y-106228970D01*
X172660150Y-106218480D01*
X172639107Y-106205868D01*
X172619401Y-106191253D01*
X172601223Y-106174777D01*
X172584747Y-106156599D01*
X172570132Y-106136893D01*
X172557520Y-106115850D01*
X172547030Y-106093671D01*
X172538765Y-106070572D01*
X172532804Y-106046773D01*
X172529204Y-106022505D01*
X172528000Y-105998001D01*
X172528000Y-105347999D01*
X172529204Y-105323495D01*
X172532804Y-105299227D01*
X172538765Y-105275428D01*
X172547030Y-105252329D01*
X172557520Y-105230150D01*
X172570132Y-105209107D01*
X172584747Y-105189401D01*
X172601223Y-105171223D01*
X172619401Y-105154747D01*
X172639107Y-105140132D01*
X172660150Y-105127520D01*
X172682329Y-105117030D01*
X172705428Y-105108765D01*
X172729227Y-105102804D01*
X172753495Y-105099204D01*
X172777999Y-105098000D01*
X173678001Y-105098000D01*
X173702505Y-105099204D01*
X173702505Y-105099204D01*
G37*
D13*
X173228000Y-105673000D03*
G04 #@! TD*
D12*
G04 #@! TO.C,R16*
G36*
X148302505Y-105099204D02*
X148326773Y-105102804D01*
X148350572Y-105108765D01*
X148373671Y-105117030D01*
X148395850Y-105127520D01*
X148416893Y-105140132D01*
X148436599Y-105154747D01*
X148454777Y-105171223D01*
X148471253Y-105189401D01*
X148485868Y-105209107D01*
X148498480Y-105230150D01*
X148508970Y-105252329D01*
X148517235Y-105275428D01*
X148523196Y-105299227D01*
X148526796Y-105323495D01*
X148528000Y-105347999D01*
X148528000Y-105998001D01*
X148526796Y-106022505D01*
X148523196Y-106046773D01*
X148517235Y-106070572D01*
X148508970Y-106093671D01*
X148498480Y-106115850D01*
X148485868Y-106136893D01*
X148471253Y-106156599D01*
X148454777Y-106174777D01*
X148436599Y-106191253D01*
X148416893Y-106205868D01*
X148395850Y-106218480D01*
X148373671Y-106228970D01*
X148350572Y-106237235D01*
X148326773Y-106243196D01*
X148302505Y-106246796D01*
X148278001Y-106248000D01*
X147377999Y-106248000D01*
X147353495Y-106246796D01*
X147329227Y-106243196D01*
X147305428Y-106237235D01*
X147282329Y-106228970D01*
X147260150Y-106218480D01*
X147239107Y-106205868D01*
X147219401Y-106191253D01*
X147201223Y-106174777D01*
X147184747Y-106156599D01*
X147170132Y-106136893D01*
X147157520Y-106115850D01*
X147147030Y-106093671D01*
X147138765Y-106070572D01*
X147132804Y-106046773D01*
X147129204Y-106022505D01*
X147128000Y-105998001D01*
X147128000Y-105347999D01*
X147129204Y-105323495D01*
X147132804Y-105299227D01*
X147138765Y-105275428D01*
X147147030Y-105252329D01*
X147157520Y-105230150D01*
X147170132Y-105209107D01*
X147184747Y-105189401D01*
X147201223Y-105171223D01*
X147219401Y-105154747D01*
X147239107Y-105140132D01*
X147260150Y-105127520D01*
X147282329Y-105117030D01*
X147305428Y-105108765D01*
X147329227Y-105102804D01*
X147353495Y-105099204D01*
X147377999Y-105098000D01*
X148278001Y-105098000D01*
X148302505Y-105099204D01*
X148302505Y-105099204D01*
G37*
D13*
X147828000Y-105673000D03*
D12*
G36*
X148302505Y-103049204D02*
X148326773Y-103052804D01*
X148350572Y-103058765D01*
X148373671Y-103067030D01*
X148395850Y-103077520D01*
X148416893Y-103090132D01*
X148436599Y-103104747D01*
X148454777Y-103121223D01*
X148471253Y-103139401D01*
X148485868Y-103159107D01*
X148498480Y-103180150D01*
X148508970Y-103202329D01*
X148517235Y-103225428D01*
X148523196Y-103249227D01*
X148526796Y-103273495D01*
X148528000Y-103297999D01*
X148528000Y-103948001D01*
X148526796Y-103972505D01*
X148523196Y-103996773D01*
X148517235Y-104020572D01*
X148508970Y-104043671D01*
X148498480Y-104065850D01*
X148485868Y-104086893D01*
X148471253Y-104106599D01*
X148454777Y-104124777D01*
X148436599Y-104141253D01*
X148416893Y-104155868D01*
X148395850Y-104168480D01*
X148373671Y-104178970D01*
X148350572Y-104187235D01*
X148326773Y-104193196D01*
X148302505Y-104196796D01*
X148278001Y-104198000D01*
X147377999Y-104198000D01*
X147353495Y-104196796D01*
X147329227Y-104193196D01*
X147305428Y-104187235D01*
X147282329Y-104178970D01*
X147260150Y-104168480D01*
X147239107Y-104155868D01*
X147219401Y-104141253D01*
X147201223Y-104124777D01*
X147184747Y-104106599D01*
X147170132Y-104086893D01*
X147157520Y-104065850D01*
X147147030Y-104043671D01*
X147138765Y-104020572D01*
X147132804Y-103996773D01*
X147129204Y-103972505D01*
X147128000Y-103948001D01*
X147128000Y-103297999D01*
X147129204Y-103273495D01*
X147132804Y-103249227D01*
X147138765Y-103225428D01*
X147147030Y-103202329D01*
X147157520Y-103180150D01*
X147170132Y-103159107D01*
X147184747Y-103139401D01*
X147201223Y-103121223D01*
X147219401Y-103104747D01*
X147239107Y-103090132D01*
X147260150Y-103077520D01*
X147282329Y-103067030D01*
X147305428Y-103058765D01*
X147329227Y-103052804D01*
X147353495Y-103049204D01*
X147377999Y-103048000D01*
X148278001Y-103048000D01*
X148302505Y-103049204D01*
X148302505Y-103049204D01*
G37*
D13*
X147828000Y-103623000D03*
G04 #@! TD*
D12*
G04 #@! TO.C,R17*
G36*
X161002505Y-103049204D02*
X161026773Y-103052804D01*
X161050572Y-103058765D01*
X161073671Y-103067030D01*
X161095850Y-103077520D01*
X161116893Y-103090132D01*
X161136599Y-103104747D01*
X161154777Y-103121223D01*
X161171253Y-103139401D01*
X161185868Y-103159107D01*
X161198480Y-103180150D01*
X161208970Y-103202329D01*
X161217235Y-103225428D01*
X161223196Y-103249227D01*
X161226796Y-103273495D01*
X161228000Y-103297999D01*
X161228000Y-103948001D01*
X161226796Y-103972505D01*
X161223196Y-103996773D01*
X161217235Y-104020572D01*
X161208970Y-104043671D01*
X161198480Y-104065850D01*
X161185868Y-104086893D01*
X161171253Y-104106599D01*
X161154777Y-104124777D01*
X161136599Y-104141253D01*
X161116893Y-104155868D01*
X161095850Y-104168480D01*
X161073671Y-104178970D01*
X161050572Y-104187235D01*
X161026773Y-104193196D01*
X161002505Y-104196796D01*
X160978001Y-104198000D01*
X160077999Y-104198000D01*
X160053495Y-104196796D01*
X160029227Y-104193196D01*
X160005428Y-104187235D01*
X159982329Y-104178970D01*
X159960150Y-104168480D01*
X159939107Y-104155868D01*
X159919401Y-104141253D01*
X159901223Y-104124777D01*
X159884747Y-104106599D01*
X159870132Y-104086893D01*
X159857520Y-104065850D01*
X159847030Y-104043671D01*
X159838765Y-104020572D01*
X159832804Y-103996773D01*
X159829204Y-103972505D01*
X159828000Y-103948001D01*
X159828000Y-103297999D01*
X159829204Y-103273495D01*
X159832804Y-103249227D01*
X159838765Y-103225428D01*
X159847030Y-103202329D01*
X159857520Y-103180150D01*
X159870132Y-103159107D01*
X159884747Y-103139401D01*
X159901223Y-103121223D01*
X159919401Y-103104747D01*
X159939107Y-103090132D01*
X159960150Y-103077520D01*
X159982329Y-103067030D01*
X160005428Y-103058765D01*
X160029227Y-103052804D01*
X160053495Y-103049204D01*
X160077999Y-103048000D01*
X160978001Y-103048000D01*
X161002505Y-103049204D01*
X161002505Y-103049204D01*
G37*
D13*
X160528000Y-103623000D03*
D12*
G36*
X161002505Y-105099204D02*
X161026773Y-105102804D01*
X161050572Y-105108765D01*
X161073671Y-105117030D01*
X161095850Y-105127520D01*
X161116893Y-105140132D01*
X161136599Y-105154747D01*
X161154777Y-105171223D01*
X161171253Y-105189401D01*
X161185868Y-105209107D01*
X161198480Y-105230150D01*
X161208970Y-105252329D01*
X161217235Y-105275428D01*
X161223196Y-105299227D01*
X161226796Y-105323495D01*
X161228000Y-105347999D01*
X161228000Y-105998001D01*
X161226796Y-106022505D01*
X161223196Y-106046773D01*
X161217235Y-106070572D01*
X161208970Y-106093671D01*
X161198480Y-106115850D01*
X161185868Y-106136893D01*
X161171253Y-106156599D01*
X161154777Y-106174777D01*
X161136599Y-106191253D01*
X161116893Y-106205868D01*
X161095850Y-106218480D01*
X161073671Y-106228970D01*
X161050572Y-106237235D01*
X161026773Y-106243196D01*
X161002505Y-106246796D01*
X160978001Y-106248000D01*
X160077999Y-106248000D01*
X160053495Y-106246796D01*
X160029227Y-106243196D01*
X160005428Y-106237235D01*
X159982329Y-106228970D01*
X159960150Y-106218480D01*
X159939107Y-106205868D01*
X159919401Y-106191253D01*
X159901223Y-106174777D01*
X159884747Y-106156599D01*
X159870132Y-106136893D01*
X159857520Y-106115850D01*
X159847030Y-106093671D01*
X159838765Y-106070572D01*
X159832804Y-106046773D01*
X159829204Y-106022505D01*
X159828000Y-105998001D01*
X159828000Y-105347999D01*
X159829204Y-105323495D01*
X159832804Y-105299227D01*
X159838765Y-105275428D01*
X159847030Y-105252329D01*
X159857520Y-105230150D01*
X159870132Y-105209107D01*
X159884747Y-105189401D01*
X159901223Y-105171223D01*
X159919401Y-105154747D01*
X159939107Y-105140132D01*
X159960150Y-105127520D01*
X159982329Y-105117030D01*
X160005428Y-105108765D01*
X160029227Y-105102804D01*
X160053495Y-105099204D01*
X160077999Y-105098000D01*
X160978001Y-105098000D01*
X161002505Y-105099204D01*
X161002505Y-105099204D01*
G37*
D13*
X160528000Y-105673000D03*
G04 #@! TD*
M02*
