G04 #@! TF.GenerationSoftware,KiCad,Pcbnew,5.0.2-bee76a0~70~ubuntu18.04.1*
G04 #@! TF.CreationDate,2020-04-28T14:19:17+02:00*
G04 #@! TF.ProjectId,E32CB_R2,45333243-425f-4523-922e-6b696361645f,rev?*
G04 #@! TF.SameCoordinates,Original*
G04 #@! TF.FileFunction,Copper,L1,Top*
G04 #@! TF.FilePolarity,Positive*
%FSLAX46Y46*%
G04 Gerber Fmt 4.6, Leading zero omitted, Abs format (unit mm)*
G04 Created by KiCad (PCBNEW 5.0.2-bee76a0~70~ubuntu18.04.1) date Út 28. dubna 2020, 14:19:17 CEST*
%MOMM*%
%LPD*%
G01*
G04 APERTURE LIST*
G04 #@! TA.AperFunction,ComponentPad*
%ADD10C,2.000000*%
G04 #@! TD*
G04 #@! TA.AperFunction,ComponentPad*
%ADD11R,1.730000X2.030000*%
G04 #@! TD*
G04 #@! TA.AperFunction,ComponentPad*
%ADD12O,1.730000X2.030000*%
G04 #@! TD*
G04 #@! TA.AperFunction,ComponentPad*
%ADD13R,1.700000X1.700000*%
G04 #@! TD*
G04 #@! TA.AperFunction,ComponentPad*
%ADD14C,1.700000*%
G04 #@! TD*
G04 #@! TA.AperFunction,ComponentPad*
%ADD15C,3.500000*%
G04 #@! TD*
G04 #@! TA.AperFunction,ComponentPad*
%ADD16R,3.810000X3.810000*%
G04 #@! TD*
G04 #@! TA.AperFunction,ComponentPad*
%ADD17C,6.000000*%
G04 #@! TD*
G04 #@! TA.AperFunction,ComponentPad*
%ADD18R,1.524000X1.524000*%
G04 #@! TD*
G04 #@! TA.AperFunction,SMDPad,CuDef*
%ADD19R,5.800000X6.400000*%
G04 #@! TD*
G04 #@! TA.AperFunction,SMDPad,CuDef*
%ADD20R,1.200000X2.200000*%
G04 #@! TD*
G04 #@! TA.AperFunction,SMDPad,CuDef*
%ADD21R,2.200000X1.200000*%
G04 #@! TD*
G04 #@! TA.AperFunction,SMDPad,CuDef*
%ADD22R,6.400000X5.800000*%
G04 #@! TD*
G04 #@! TA.AperFunction,ViaPad*
%ADD23C,0.800000*%
G04 #@! TD*
G04 #@! TA.AperFunction,ViaPad*
%ADD24C,1.000000*%
G04 #@! TD*
G04 #@! TA.AperFunction,Conductor*
%ADD25C,0.300000*%
G04 #@! TD*
G04 #@! TA.AperFunction,Conductor*
%ADD26C,0.250000*%
G04 #@! TD*
G04 #@! TA.AperFunction,Conductor*
%ADD27C,0.500000*%
G04 #@! TD*
G04 #@! TA.AperFunction,Conductor*
%ADD28C,3.700000*%
G04 #@! TD*
G04 #@! TA.AperFunction,Conductor*
%ADD29C,1.000000*%
G04 #@! TD*
G04 APERTURE END LIST*
D10*
G04 #@! TO.P,FLASH,2*
G04 #@! TO.N,GND*
X106957000Y-63826000D03*
G04 #@! TO.P,FLASH,1*
G04 #@! TO.N,/IO_0*
X106957000Y-68326000D03*
G04 #@! TO.P,FLASH,2*
G04 #@! TO.N,GND*
X100457000Y-63826000D03*
G04 #@! TO.P,FLASH,1*
G04 #@! TO.N,/IO_0*
X100457000Y-68326000D03*
G04 #@! TD*
G04 #@! TO.P,RESET,1*
G04 #@! TO.N,/EN*
X106957000Y-73406000D03*
G04 #@! TO.P,RESET,2*
G04 #@! TO.N,GND*
X106957000Y-77906000D03*
G04 #@! TO.P,RESET,1*
G04 #@! TO.N,/EN*
X100457000Y-73406000D03*
G04 #@! TO.P,RESET,2*
G04 #@! TO.N,GND*
X100457000Y-77906000D03*
G04 #@! TD*
D11*
G04 #@! TO.P,fan_1,1*
G04 #@! TO.N,GND*
X194564000Y-51816000D03*
D12*
G04 #@! TO.P,fan_1,2*
G04 #@! TO.N,+12V*
X192024000Y-51816000D03*
G04 #@! TO.P,fan_1,3*
G04 #@! TO.N,Net-(fan_1-Pad3)*
X189484000Y-51816000D03*
G04 #@! TO.P,fan_1,4*
G04 #@! TO.N,/fan1*
X186944000Y-51816000D03*
G04 #@! TD*
D13*
G04 #@! TO.P,J3,1*
G04 #@! TO.N,Net-(C3-Pad1)*
X112268000Y-92456000D03*
D14*
G04 #@! TO.P,J3,2*
G04 #@! TO.N,/USB_N*
X112268000Y-89956000D03*
G04 #@! TO.P,J3,3*
G04 #@! TO.N,/USB_P*
X110268000Y-89956000D03*
G04 #@! TO.P,J3,4*
G04 #@! TO.N,GND*
X110268000Y-92456000D03*
D15*
G04 #@! TO.P,J3,5*
X107558000Y-97226000D03*
X107558000Y-85186000D03*
G04 #@! TD*
D16*
G04 #@! TO.P,J14,1*
G04 #@! TO.N,Net-(J14-Pad1)*
X162560000Y-126007000D03*
X162560000Y-131007000D03*
G04 #@! TD*
G04 #@! TO.P,J7,1*
G04 #@! TO.N,Net-(J7-Pad1)*
X114046000Y-130800000D03*
X114046000Y-125800000D03*
G04 #@! TD*
G04 #@! TO.P,J8,1*
G04 #@! TO.N,Net-(J8-Pad1)*
X119126000Y-125800000D03*
X119126000Y-130800000D03*
G04 #@! TD*
G04 #@! TO.P,J9,1*
G04 #@! TO.N,Net-(J9-Pad1)*
X126238000Y-130800000D03*
X126238000Y-125800000D03*
G04 #@! TD*
G04 #@! TO.P,J10,1*
G04 #@! TO.N,Net-(J10-Pad1)*
X131318000Y-125800000D03*
X131318000Y-130800000D03*
G04 #@! TD*
G04 #@! TO.P,J11,1*
G04 #@! TO.N,Net-(J11-Pad1)*
X145288000Y-131007000D03*
X145288000Y-126007000D03*
G04 #@! TD*
G04 #@! TO.P,J12,1*
G04 #@! TO.N,Net-(J12-Pad1)*
X150368000Y-126007000D03*
X150368000Y-131007000D03*
G04 #@! TD*
G04 #@! TO.P,J13,1*
G04 #@! TO.N,Net-(J13-Pad1)*
X157480000Y-131007000D03*
X157480000Y-126007000D03*
G04 #@! TD*
G04 #@! TO.P,J16,1*
G04 #@! TO.N,Net-(J16-Pad1)*
X181356000Y-126040000D03*
X181356000Y-131040000D03*
G04 #@! TD*
G04 #@! TO.P,J17,1*
G04 #@! TO.N,Net-(J17-Pad1)*
X188468000Y-131040000D03*
X188468000Y-126040000D03*
G04 #@! TD*
G04 #@! TO.P,J18,1*
G04 #@! TO.N,Net-(J18-Pad1)*
X193548000Y-126040000D03*
X193548000Y-131040000D03*
G04 #@! TD*
G04 #@! TO.P,J19,1*
G04 #@! TO.N,Net-(J19-Pad1)*
X202296000Y-96012000D03*
X197296000Y-96012000D03*
G04 #@! TD*
G04 #@! TO.P,J21,1*
G04 #@! TO.N,Net-(J21-Pad1)*
X197240000Y-83820000D03*
X202240000Y-83820000D03*
G04 #@! TD*
G04 #@! TO.P,J22,1*
G04 #@! TO.N,Net-(J22-Pad1)*
X202240000Y-78740000D03*
X197240000Y-78740000D03*
G04 #@! TD*
G04 #@! TO.P,J15,1*
G04 #@! TO.N,Net-(J15-Pad1)*
X176276000Y-126040000D03*
X176276000Y-131040000D03*
G04 #@! TD*
G04 #@! TO.P,J20,1*
G04 #@! TO.N,Net-(J20-Pad1)*
X202296000Y-90932000D03*
X197296000Y-90932000D03*
G04 #@! TD*
D17*
G04 #@! TO.P,H1,1*
G04 #@! TO.N,GND*
X101600000Y-132080000D03*
G04 #@! TD*
G04 #@! TO.P,H2,1*
G04 #@! TO.N,GND*
X101600000Y-50800000D03*
G04 #@! TD*
G04 #@! TO.P,H3,1*
G04 #@! TO.N,GND*
X203200000Y-132080000D03*
G04 #@! TD*
G04 #@! TO.P,H4,1*
G04 #@! TO.N,GND*
X203200000Y-50800000D03*
G04 #@! TD*
D18*
G04 #@! TO.P,J5,4*
G04 #@! TO.N,/display_Vin*
X179324000Y-56896000D03*
G04 #@! TO.P,J5,3*
G04 #@! TO.N,/U2_RXD*
X179324000Y-54356000D03*
G04 #@! TO.P,J5,2*
G04 #@! TO.N,/U2_TXD*
X179324000Y-51816000D03*
G04 #@! TO.P,J5,1*
G04 #@! TO.N,GND*
X179324000Y-49276000D03*
G04 #@! TD*
G04 #@! TO.P,J4,1*
G04 #@! TO.N,GND*
X174244000Y-49276000D03*
G04 #@! TO.P,J4,2*
X174244000Y-51816000D03*
G04 #@! TO.P,J4,3*
G04 #@! TO.N,+5V*
X171704000Y-49276000D03*
G04 #@! TO.P,J4,4*
X171704000Y-51816000D03*
G04 #@! TO.P,J4,5*
G04 #@! TO.N,GND*
X169164000Y-49276000D03*
G04 #@! TO.P,J4,6*
X169164000Y-51816000D03*
G04 #@! TD*
G04 #@! TO.P,J2,1*
G04 #@! TO.N,GND*
X203200000Y-68580000D03*
G04 #@! TO.P,J2,2*
X200660000Y-68580000D03*
G04 #@! TO.P,J2,3*
G04 #@! TO.N,+12V*
X203200000Y-66040000D03*
G04 #@! TO.P,J2,4*
X200660000Y-66040000D03*
G04 #@! TO.P,J2,5*
X203200000Y-63500000D03*
G04 #@! TO.P,J2,6*
X200660000Y-63500000D03*
G04 #@! TO.P,J2,7*
G04 #@! TO.N,GND*
X203200000Y-60960000D03*
G04 #@! TO.P,J2,8*
X200660000Y-60960000D03*
G04 #@! TD*
G04 #@! TO.P,J6,1*
G04 #@! TO.N,GND*
X154432000Y-51816000D03*
G04 #@! TO.P,J6,2*
X154432000Y-49276000D03*
G04 #@! TO.P,J6,3*
G04 #@! TO.N,/I2C_SDA*
X156972000Y-51816000D03*
G04 #@! TO.P,J6,4*
X156972000Y-49276000D03*
G04 #@! TO.P,J6,5*
G04 #@! TO.N,+3V3*
X159512000Y-51816000D03*
G04 #@! TO.P,J6,6*
X159512000Y-49276000D03*
G04 #@! TO.P,J6,7*
G04 #@! TO.N,/I2C_SCL*
X162052000Y-51816000D03*
G04 #@! TO.P,J6,8*
X162052000Y-49276000D03*
G04 #@! TO.P,J6,9*
G04 #@! TO.N,GND*
X164592000Y-51816000D03*
G04 #@! TO.P,J6,10*
X164592000Y-49276000D03*
G04 #@! TD*
G04 #@! TO.P,J1,1*
G04 #@! TO.N,/gpio5*
X129540000Y-51816000D03*
G04 #@! TO.P,J1,2*
X129540000Y-49276000D03*
G04 #@! TO.P,J1,3*
G04 #@! TO.N,/gpio2*
X132080000Y-51816000D03*
G04 #@! TO.P,J1,4*
X132080000Y-49276000D03*
G04 #@! TO.P,J1,5*
G04 #@! TO.N,/gpio15*
X134620000Y-51816000D03*
G04 #@! TO.P,J1,6*
X134620000Y-49276000D03*
G04 #@! TO.P,J1,7*
G04 #@! TO.N,/gpi36*
X137160000Y-51816000D03*
G04 #@! TO.P,J1,8*
X137160000Y-49276000D03*
G04 #@! TO.P,J1,9*
G04 #@! TO.N,/gpi39*
X139700000Y-51816000D03*
G04 #@! TO.P,J1,10*
X139700000Y-49276000D03*
G04 #@! TO.P,J1,11*
G04 #@! TO.N,/gpi34*
X142240000Y-51816000D03*
G04 #@! TO.P,J1,12*
X142240000Y-49276000D03*
G04 #@! TO.P,J1,13*
G04 #@! TO.N,/gpi35*
X144780000Y-51816000D03*
G04 #@! TO.P,J1,14*
X144780000Y-49276000D03*
G04 #@! TO.P,J1,15*
G04 #@! TO.N,/gpio26*
X147320000Y-51816000D03*
G04 #@! TO.P,J1,16*
X147320000Y-49276000D03*
G04 #@! TO.P,J1,17*
G04 #@! TO.N,/gpio12*
X149860000Y-51816000D03*
G04 #@! TO.P,J1,18*
X149860000Y-49276000D03*
G04 #@! TD*
D19*
G04 #@! TO.P,Q7,2*
G04 #@! TO.N,Net-(J15-Pad1)*
X179584000Y-109152000D03*
D20*
G04 #@! TO.P,Q7,3*
G04 #@! TO.N,Net-(J16-Pad1)*
X181864000Y-115452000D03*
G04 #@! TO.P,Q7,1*
G04 #@! TO.N,Net-(Q7-Pad1)*
X177304000Y-115452000D03*
G04 #@! TD*
D21*
G04 #@! TO.P,Q10,1*
G04 #@! TO.N,Net-(Q10-Pad1)*
X187080000Y-82544000D03*
G04 #@! TO.P,Q10,3*
G04 #@! TO.N,Net-(J22-Pad1)*
X187080000Y-77984000D03*
D22*
G04 #@! TO.P,Q10,2*
G04 #@! TO.N,Net-(J21-Pad1)*
X180780000Y-80264000D03*
G04 #@! TD*
G04 #@! TO.P,Q9,2*
G04 #@! TO.N,Net-(J19-Pad1)*
X180697000Y-92965000D03*
D21*
G04 #@! TO.P,Q9,3*
G04 #@! TO.N,Net-(J20-Pad1)*
X186997000Y-90685000D03*
G04 #@! TO.P,Q9,1*
G04 #@! TO.N,Net-(Q9-Pad1)*
X186997000Y-95245000D03*
G04 #@! TD*
D20*
G04 #@! TO.P,Q8,1*
G04 #@! TO.N,Net-(Q8-Pad1)*
X189744000Y-115520000D03*
G04 #@! TO.P,Q8,3*
G04 #@! TO.N,Net-(J18-Pad1)*
X194304000Y-115520000D03*
D19*
G04 #@! TO.P,Q8,2*
G04 #@! TO.N,Net-(J17-Pad1)*
X192024000Y-109220000D03*
G04 #@! TD*
D20*
G04 #@! TO.P,Q6,1*
G04 #@! TO.N,Net-(Q6-Pad1)*
X159010000Y-115647000D03*
G04 #@! TO.P,Q6,3*
G04 #@! TO.N,Net-(J14-Pad1)*
X163570000Y-115647000D03*
D19*
G04 #@! TO.P,Q6,2*
G04 #@! TO.N,Net-(J13-Pad1)*
X161290000Y-109347000D03*
G04 #@! TD*
G04 #@! TO.P,Q3,2*
G04 #@! TO.N,Net-(J7-Pad1)*
X117349000Y-109069000D03*
D20*
G04 #@! TO.P,Q3,3*
G04 #@! TO.N,Net-(J8-Pad1)*
X119629000Y-115369000D03*
G04 #@! TO.P,Q3,1*
G04 #@! TO.N,Net-(Q3-Pad1)*
X115069000Y-115369000D03*
G04 #@! TD*
G04 #@! TO.P,Q4,1*
G04 #@! TO.N,Net-(Q4-Pad1)*
X127768000Y-115452000D03*
G04 #@! TO.P,Q4,3*
G04 #@! TO.N,Net-(J10-Pad1)*
X132328000Y-115452000D03*
D19*
G04 #@! TO.P,Q4,2*
G04 #@! TO.N,Net-(J9-Pad1)*
X130048000Y-109152000D03*
G04 #@! TD*
G04 #@! TO.P,Q5,2*
G04 #@! TO.N,Net-(J11-Pad1)*
X148589000Y-109196000D03*
D20*
G04 #@! TO.P,Q5,3*
G04 #@! TO.N,Net-(J12-Pad1)*
X150869000Y-115496000D03*
G04 #@! TO.P,Q5,1*
G04 #@! TO.N,Net-(Q5-Pad1)*
X146309000Y-115496000D03*
G04 #@! TD*
D23*
G04 #@! TO.N,Net-(Q10-Pad1)*
X190240000Y-82544000D03*
G04 #@! TO.N,/Q4*
X156845000Y-70866000D03*
X150368000Y-89916000D03*
G04 #@! TO.N,Net-(Q5-Pad1)*
X146558000Y-117983000D03*
G04 #@! TO.N,+3V3*
X116775000Y-73090000D03*
X118618000Y-81915000D03*
D24*
X140970000Y-70104000D03*
G04 #@! TO.N,Net-(J22-Pad1)*
X192024000Y-78740000D03*
X194564000Y-78740000D03*
X187960000Y-79756000D03*
D23*
G04 #@! TO.N,GND*
X121920000Y-75946000D03*
X131826000Y-77216000D03*
X136906000Y-80772000D03*
X137922000Y-84836000D03*
X140208000Y-97536000D03*
X142748000Y-93980000D03*
X170688000Y-97790000D03*
X164084000Y-87376000D03*
X165100000Y-64770000D03*
X167640000Y-63754000D03*
X162052000Y-69088000D03*
X186182000Y-55118000D03*
X130048000Y-65278000D03*
X155702000Y-99060000D03*
X151892000Y-71120000D03*
X150622000Y-81788000D03*
X176149000Y-80772000D03*
X124460000Y-83566000D03*
D24*
G04 #@! TO.N,Net-(J20-Pad1)*
X194564000Y-90932000D03*
X187244000Y-90932000D03*
X192024000Y-90932000D03*
G04 #@! TO.N,Net-(J18-Pad1)*
X193548000Y-122936000D03*
X193548000Y-120396000D03*
X193548000Y-116276000D03*
G04 #@! TO.N,Net-(J16-Pad1)*
X181356000Y-122936000D03*
X181356000Y-120396000D03*
X181356000Y-115960000D03*
D23*
G04 #@! TO.N,Net-(Q9-Pad1)*
X190500000Y-94996000D03*
G04 #@! TO.N,Net-(Q8-Pad1)*
X189744000Y-118110000D03*
G04 #@! TO.N,Net-(Q7-Pad1)*
X177304000Y-117856000D03*
G04 #@! TO.N,/s_LED*
X150495000Y-63627000D03*
X122047000Y-62103000D03*
D24*
G04 #@! TO.N,Net-(J14-Pad1)*
X162560000Y-123063000D03*
X162560000Y-120523000D03*
X162560000Y-116657000D03*
G04 #@! TO.N,Net-(J12-Pad1)*
X150368000Y-123063000D03*
X150368000Y-120015000D03*
X150368000Y-115997000D03*
D23*
G04 #@! TO.N,/Q3*
X156718000Y-72517000D03*
X152400000Y-88900000D03*
G04 #@! TO.N,Net-(Q6-Pad1)*
X159258000Y-117983000D03*
G04 #@! TO.N,/I2C_SDA*
X147955000Y-82169000D03*
X156210000Y-60579000D03*
G04 #@! TO.N,/IO_0*
X124587000Y-73533000D03*
X156718000Y-82423000D03*
G04 #@! TO.N,Net-(Q3-Pad1)*
X115316000Y-117856000D03*
G04 #@! TO.N,/Q1*
X141605000Y-74168000D03*
X139954000Y-91059000D03*
G04 #@! TO.N,/Q2*
X142748000Y-75184000D03*
X141859000Y-91059000D03*
G04 #@! TO.N,Net-(Q4-Pad1)*
X128016000Y-117856000D03*
G04 #@! TO.N,/EN*
X144145000Y-69342000D03*
X116078000Y-66040000D03*
D24*
G04 #@! TO.N,Net-(J10-Pad1)*
X131318000Y-122936000D03*
X131318000Y-120396000D03*
X131318000Y-116462000D03*
D23*
G04 #@! TO.N,/I2C_SCL*
X144399000Y-82169000D03*
X162687000Y-57785000D03*
D24*
G04 #@! TO.N,Net-(J8-Pad1)*
X119126000Y-122936000D03*
X119126000Y-120396000D03*
X119126000Y-115872000D03*
D23*
G04 #@! TO.N,/U2_RXD*
X155575000Y-82423000D03*
X162052000Y-63373000D03*
G04 #@! TO.N,/U2_TXD*
X154305000Y-82423000D03*
X161163000Y-62738000D03*
G04 #@! TO.N,/fan1*
X160909000Y-61214000D03*
X144653000Y-86106000D03*
D24*
G04 #@! TO.N,Net-(J11-Pad1)*
X143510000Y-123317000D03*
X143510000Y-119507000D03*
X143510000Y-115443000D03*
X143661000Y-109196000D03*
G04 #@! TO.N,Net-(J9-Pad1)*
X124528000Y-109152000D03*
X124460000Y-115824000D03*
X124460000Y-120904000D03*
X124460000Y-118364000D03*
G04 #@! TO.N,Net-(J7-Pad1)*
X111760000Y-122909000D03*
X111760000Y-119380000D03*
X112041000Y-115824000D03*
X111911000Y-109069000D03*
G04 #@! TO.N,Net-(J13-Pad1)*
X156210000Y-109347000D03*
X156210000Y-115443000D03*
X156210000Y-118491000D03*
X156210000Y-123317000D03*
G04 #@! TO.N,Net-(J17-Pad1)*
X186690000Y-123190000D03*
X186690000Y-119380000D03*
X186690000Y-115824000D03*
X186690000Y-109220000D03*
G04 #@! TO.N,Net-(J19-Pad1)*
X194056000Y-98044000D03*
X189992000Y-99060000D03*
X185421998Y-99060000D03*
X180697000Y-98703000D03*
G04 #@! TO.N,Net-(J21-Pad1)*
X194056000Y-86360000D03*
X189992000Y-86360000D03*
X185505998Y-86360000D03*
X180780000Y-85920000D03*
G04 #@! TO.N,Net-(J15-Pad1)*
X173990000Y-123190000D03*
X173990000Y-119380000D03*
X173990000Y-115824000D03*
X174244000Y-109152000D03*
D23*
G04 #@! TO.N,+5V*
X116205000Y-101727000D03*
X115062000Y-101727000D03*
G04 #@! TD*
D25*
G04 #@! TO.N,Net-(Q10-Pad1)*
X187080000Y-82544000D02*
X190240000Y-82544000D01*
X190240000Y-82544000D02*
X190240000Y-82544000D01*
D26*
G04 #@! TO.N,/Q4*
X150368000Y-89916000D02*
X150368000Y-89916000D01*
X150933685Y-89916000D02*
X150368000Y-89916000D01*
X152527000Y-89916000D02*
X150933685Y-89916000D01*
X158115000Y-84328000D02*
X152527000Y-89916000D01*
X158115000Y-72771000D02*
X158115000Y-84328000D01*
X156845000Y-70866000D02*
X156845000Y-71501000D01*
X156845000Y-71501000D02*
X158115000Y-72771000D01*
D25*
G04 #@! TO.N,Net-(Q5-Pad1)*
X146309000Y-116896000D02*
X146558000Y-117145000D01*
X146309000Y-115496000D02*
X146309000Y-116896000D01*
X146558000Y-117145000D02*
X146558000Y-117983000D01*
X146558000Y-117983000D02*
X146558000Y-117983000D01*
X146558000Y-117983000D02*
X146558000Y-117983000D01*
D27*
G04 #@! TO.N,+3V3*
X159512000Y-49276000D02*
X159512000Y-51816000D01*
X118618000Y-81915000D02*
X118618000Y-74933000D01*
X116775000Y-73090000D02*
X118616500Y-73090000D01*
X118618000Y-74933000D02*
X118618000Y-73088500D01*
X118616500Y-73090000D02*
X118618000Y-73088500D01*
X154305000Y-62357000D02*
X154305000Y-59817000D01*
X159512000Y-54610000D02*
X159512000Y-51816000D01*
X118618000Y-73088500D02*
X120332500Y-71374000D01*
X154305000Y-59817000D02*
X159512000Y-54610000D01*
X145288000Y-71374000D02*
X154305000Y-62357000D01*
X140970000Y-70104000D02*
X140970000Y-71374000D01*
X120332500Y-71374000D02*
X140970000Y-71374000D01*
X140970000Y-71374000D02*
X145288000Y-71374000D01*
D28*
G04 #@! TO.N,Net-(J22-Pad1)*
X187836000Y-78740000D02*
X187836000Y-78740000D01*
X202240000Y-78740000D02*
X194564000Y-78740000D01*
X192024000Y-78740000D02*
X187836000Y-78740000D01*
X194564000Y-78740000D02*
X192024000Y-78740000D01*
X187836000Y-78740000D02*
X187080000Y-77984000D01*
G04 #@! TO.N,Net-(J20-Pad1)*
X187244000Y-90932000D02*
X187244000Y-90932000D01*
X202296000Y-90932000D02*
X194564000Y-90932000D01*
X194564000Y-90932000D02*
X187244000Y-90932000D01*
X187244000Y-90932000D02*
X186997000Y-90685000D01*
G04 #@! TO.N,Net-(J18-Pad1)*
X193548000Y-116276000D02*
X193548000Y-116276000D01*
X193548000Y-131040000D02*
X193548000Y-122936000D01*
X193548000Y-122936000D02*
X193548000Y-116276000D01*
X193548000Y-116276000D02*
X194304000Y-115520000D01*
G04 #@! TO.N,Net-(J16-Pad1)*
X181356000Y-115960000D02*
X181356000Y-115960000D01*
X181356000Y-131040000D02*
X181356000Y-122936000D01*
X181356000Y-122936000D02*
X181356000Y-115960000D01*
X181356000Y-115960000D02*
X181864000Y-115452000D01*
D25*
G04 #@! TO.N,Net-(Q9-Pad1)*
X188397000Y-95245000D02*
X188646000Y-94996000D01*
X186997000Y-95245000D02*
X188397000Y-95245000D01*
X188646000Y-94996000D02*
X190500000Y-94996000D01*
X190500000Y-94996000D02*
X190500000Y-94996000D01*
G04 #@! TO.N,Net-(Q8-Pad1)*
X189744000Y-115520000D02*
X189744000Y-118110000D01*
X189744000Y-118116000D02*
X189744000Y-118116000D01*
X189744000Y-118110000D02*
X189744000Y-118116000D01*
G04 #@! TO.N,Net-(Q7-Pad1)*
X177304000Y-115452000D02*
X177304000Y-117856000D01*
X177304000Y-117856000D02*
X177304000Y-117868000D01*
X177304000Y-117856000D02*
X177304000Y-117856000D01*
D26*
G04 #@! TO.N,/s_LED*
X148971000Y-62103000D02*
X150495000Y-63627000D01*
X122047000Y-62103000D02*
X148971000Y-62103000D01*
D28*
G04 #@! TO.N,Net-(J14-Pad1)*
X162560000Y-116657000D02*
X162560000Y-116657000D01*
X162560000Y-131007000D02*
X162560000Y-123063000D01*
X162560000Y-123063000D02*
X162560000Y-116657000D01*
X162560000Y-116657000D02*
X163570000Y-115647000D01*
G04 #@! TO.N,Net-(J12-Pad1)*
X150368000Y-115997000D02*
X150368000Y-115997000D01*
X150368000Y-131007000D02*
X150368000Y-123063000D01*
X150368000Y-123063000D02*
X150368000Y-115997000D01*
X150368000Y-115997000D02*
X150869000Y-115496000D01*
D26*
G04 #@! TO.N,/Q3*
X152400000Y-88900000D02*
X152400000Y-88900000D01*
X152654000Y-88900000D02*
X152400000Y-88900000D01*
X157607000Y-83947000D02*
X152654000Y-88900000D01*
X156718000Y-72517000D02*
X157607000Y-73406000D01*
X157607000Y-73406000D02*
X157607000Y-83947000D01*
D25*
G04 #@! TO.N,Net-(Q6-Pad1)*
X159010000Y-117047000D02*
X159258000Y-117295000D01*
X159010000Y-115647000D02*
X159010000Y-117047000D01*
X159258000Y-117295000D02*
X159258000Y-117983000D01*
X159258000Y-117983000D02*
X159258000Y-117983000D01*
X159258000Y-117983000D02*
X159258000Y-117983000D01*
D26*
G04 #@! TO.N,/I2C_SDA*
X156210000Y-60579000D02*
X156210000Y-60579000D01*
X147955000Y-82169000D02*
X147955000Y-70739000D01*
X156210000Y-62484000D02*
X156210000Y-60579000D01*
X147955000Y-70739000D02*
X156210000Y-62484000D01*
G04 #@! TO.N,/IO_0*
X156718000Y-82423000D02*
X156718000Y-82423000D01*
X156718000Y-84074000D02*
X156718000Y-82423000D01*
X124841000Y-73279000D02*
X142240000Y-73279000D01*
X142240000Y-73279000D02*
X143637000Y-74676000D01*
X153924000Y-86868000D02*
X156718000Y-84074000D01*
X124587000Y-73533000D02*
X124841000Y-73279000D01*
X144341998Y-86868000D02*
X153924000Y-86868000D01*
X143637000Y-74676000D02*
X143637000Y-86163002D01*
X143637000Y-86163002D02*
X144341998Y-86868000D01*
D25*
G04 #@! TO.N,Net-(Q3-Pad1)*
X115069000Y-116769000D02*
X115316000Y-117016000D01*
X115069000Y-115369000D02*
X115069000Y-116769000D01*
X115316000Y-117016000D02*
X115316000Y-117856000D01*
X115316000Y-117856000D02*
X115316000Y-117856000D01*
X115316000Y-117856000D02*
X115316000Y-117856000D01*
D26*
G04 #@! TO.N,/Q1*
X141605000Y-89408000D02*
X139954000Y-91059000D01*
X141605000Y-74168000D02*
X141605000Y-89408000D01*
G04 #@! TO.N,/Q2*
X142748000Y-90170000D02*
X141859000Y-91059000D01*
X142748000Y-75184000D02*
X142748000Y-90170000D01*
D25*
G04 #@! TO.N,Net-(Q4-Pad1)*
X127768000Y-116852000D02*
X128016000Y-117100000D01*
X127768000Y-115452000D02*
X127768000Y-116852000D01*
X128016000Y-117100000D02*
X128016000Y-117856000D01*
X128016000Y-117856000D02*
X128016000Y-117856000D01*
X128016000Y-117856000D02*
X128016000Y-117856000D01*
D26*
G04 #@! TO.N,/EN*
X116078000Y-66040000D02*
X118872000Y-68834000D01*
X143637000Y-68834000D02*
X144145000Y-69342000D01*
X118872000Y-68834000D02*
X143637000Y-68834000D01*
D28*
G04 #@! TO.N,Net-(J10-Pad1)*
X131318000Y-116462000D02*
X131318000Y-116462000D01*
X131318000Y-130800000D02*
X131318000Y-122936000D01*
X131318000Y-121920000D02*
X131318000Y-120396000D01*
X131318000Y-116462000D02*
X132328000Y-115452000D01*
X131318000Y-122936000D02*
X131318000Y-121920000D01*
X131318000Y-120396000D02*
X131318000Y-116462000D01*
X131318000Y-116462000D02*
X131318000Y-116462000D01*
D26*
G04 #@! TO.N,/I2C_SCL*
X162687000Y-57785000D02*
X162687000Y-57785000D01*
X144399000Y-73533000D02*
X144399000Y-82169000D01*
X155194000Y-62738000D02*
X144399000Y-73533000D01*
X162687000Y-57785000D02*
X157480000Y-57785000D01*
X155194000Y-60071000D02*
X155194000Y-62738000D01*
X157480000Y-57785000D02*
X155194000Y-60071000D01*
D28*
G04 #@! TO.N,Net-(J8-Pad1)*
X119126000Y-115872000D02*
X119126000Y-115872000D01*
X119126000Y-130800000D02*
X119126000Y-122936000D01*
X119126000Y-122936000D02*
X119126000Y-115872000D01*
X119126000Y-115872000D02*
X119629000Y-115369000D01*
D25*
G04 #@! TO.N,/U2_RXD*
X162052000Y-63373000D02*
X162052000Y-63373000D01*
D26*
X155575000Y-69850000D02*
X162052000Y-63373000D01*
X155575000Y-82423000D02*
X155575000Y-69850000D01*
G04 #@! TO.N,/U2_TXD*
X154305000Y-82423000D02*
X154305000Y-81857315D01*
X154305000Y-81857315D02*
X154305000Y-69596000D01*
X154305000Y-69596000D02*
X161163000Y-62738000D01*
D25*
X161163000Y-62738000D02*
X161163000Y-62738000D01*
D26*
G04 #@! TO.N,/fan1*
X160909000Y-61849000D02*
X160909000Y-61214000D01*
X153416000Y-69342000D02*
X160909000Y-61849000D01*
X144653000Y-86106000D02*
X151003000Y-86106000D01*
X153416000Y-83693000D02*
X153416000Y-69342000D01*
X151003000Y-86106000D02*
X153416000Y-83693000D01*
D28*
G04 #@! TO.N,Net-(J11-Pad1)*
X145288000Y-131007000D02*
X145288000Y-126007000D01*
X145288000Y-126007000D02*
X143510000Y-123317000D01*
X145288000Y-125095000D02*
X143510000Y-123317000D01*
X147218998Y-109196000D02*
X148589000Y-109196000D01*
X143510000Y-123317000D02*
X143510000Y-119507000D01*
X143510000Y-112904998D02*
X147218998Y-109196000D01*
X148589000Y-109196000D02*
X143661000Y-109196000D01*
X143510000Y-109347000D02*
X143510000Y-112904998D01*
X143661000Y-109196000D02*
X143510000Y-109347000D01*
X143510000Y-123317000D02*
X145288000Y-125095000D01*
X143510000Y-119507000D02*
X143510000Y-112904998D01*
X143661000Y-109196000D02*
X143661000Y-109196000D01*
G04 #@! TO.N,Net-(J9-Pad1)*
X126238000Y-125195000D02*
X124460000Y-123417000D01*
X126238000Y-130800000D02*
X126238000Y-125195000D01*
X128677998Y-109152000D02*
X130048000Y-109152000D01*
X124460000Y-123417000D02*
X124460000Y-120904000D01*
X124460000Y-113369998D02*
X128677998Y-109152000D01*
X130048000Y-109152000D02*
X124528000Y-109152000D01*
X124460000Y-109220000D02*
X124460000Y-113369998D01*
X124528000Y-109152000D02*
X124460000Y-109220000D01*
X124528000Y-109152000D02*
X124528000Y-109152000D01*
X124460000Y-115824000D02*
X124460000Y-113369998D01*
X124460000Y-120904000D02*
X124460000Y-115824000D01*
G04 #@! TO.N,Net-(J7-Pad1)*
X114046000Y-125195000D02*
X111760000Y-122909000D01*
X114046000Y-130800000D02*
X114046000Y-125195000D01*
X115978998Y-109069000D02*
X117349000Y-109069000D01*
X111760000Y-122909000D02*
X111760000Y-119380000D01*
X111760000Y-113287998D02*
X115978998Y-109069000D01*
X117349000Y-109069000D02*
X111911000Y-109069000D01*
X111760000Y-109220000D02*
X111760000Y-113287998D01*
X111911000Y-109069000D02*
X111760000Y-109220000D01*
X111760000Y-122909000D02*
X111760000Y-122909000D01*
X111760000Y-119380000D02*
X111760000Y-113287998D01*
X111911000Y-109069000D02*
X111911000Y-109069000D01*
G04 #@! TO.N,Net-(J13-Pad1)*
X157480000Y-131007000D02*
X157480000Y-126007000D01*
X157480000Y-126007000D02*
X156210000Y-123317000D01*
X157480000Y-124587000D02*
X156210000Y-123317000D01*
X159919998Y-109347000D02*
X161290000Y-109347000D01*
X156210000Y-123317000D02*
X156210000Y-118491000D01*
X156210000Y-113056998D02*
X159919998Y-109347000D01*
X161290000Y-109347000D02*
X156210000Y-109347000D01*
X156210000Y-109347000D02*
X156210000Y-113056998D01*
X156210000Y-109347000D02*
X156210000Y-109347000D01*
X156210000Y-115443000D02*
X156210000Y-113056998D01*
X156210000Y-118491000D02*
X156210000Y-115443000D01*
X156210000Y-123317000D02*
X157480000Y-124587000D01*
G04 #@! TO.N,Net-(J17-Pad1)*
X188468000Y-131040000D02*
X188468000Y-126040000D01*
X188468000Y-126040000D02*
X186690000Y-123190000D01*
X188468000Y-124968000D02*
X186690000Y-123190000D01*
X190653998Y-109220000D02*
X192024000Y-109220000D01*
X186690000Y-123190000D02*
X186690000Y-119380000D01*
X186690000Y-113183998D02*
X190653998Y-109220000D01*
X192024000Y-109220000D02*
X186690000Y-109220000D01*
X186690000Y-109220000D02*
X186690000Y-113183998D01*
X186690000Y-123190000D02*
X188468000Y-124968000D01*
X186690000Y-119380000D02*
X186690000Y-113183998D01*
X186690000Y-109220000D02*
X186690000Y-109220000D01*
G04 #@! TO.N,Net-(J19-Pad1)*
X202296000Y-96012000D02*
X197296000Y-96012000D01*
X197296000Y-96012000D02*
X194056000Y-98044000D01*
X196088000Y-96012000D02*
X193040000Y-99060000D01*
X180697000Y-94335002D02*
X180697000Y-92965000D01*
X193040000Y-99060000D02*
X189992000Y-99060000D01*
X185421998Y-99060000D02*
X185421998Y-99060000D01*
X180697000Y-92965000D02*
X180697000Y-98703000D01*
X181054000Y-99060000D02*
X185421998Y-99060000D01*
X180697000Y-98703000D02*
X181054000Y-99060000D01*
X194056000Y-98044000D02*
X196088000Y-96012000D01*
X189992000Y-99060000D02*
X185421998Y-99060000D01*
X185421998Y-99060000D02*
X180697000Y-94335002D01*
X180697000Y-98703000D02*
X180697000Y-98703000D01*
G04 #@! TO.N,Net-(J21-Pad1)*
X202240000Y-83820000D02*
X197240000Y-83820000D01*
X194310000Y-86360000D02*
X194056000Y-86360000D01*
X185505998Y-86360000D02*
X185505998Y-86360000D01*
X196850000Y-83820000D02*
X194310000Y-86360000D01*
X180780000Y-81634002D02*
X180780000Y-80264000D01*
X197240000Y-83820000D02*
X196850000Y-83820000D01*
X180780000Y-80264000D02*
X180780000Y-85920000D01*
X181220000Y-86360000D02*
X185505998Y-86360000D01*
X180780000Y-85920000D02*
X181220000Y-86360000D01*
X194056000Y-86360000D02*
X185505998Y-86360000D01*
X185505998Y-86360000D02*
X180780000Y-81634002D01*
X180780000Y-85920000D02*
X180780000Y-85920000D01*
G04 #@! TO.N,Net-(J15-Pad1)*
X176276000Y-131040000D02*
X176276000Y-126040000D01*
X176276000Y-126040000D02*
X173990000Y-123190000D01*
X176276000Y-125476000D02*
X173990000Y-123190000D01*
X178213998Y-109152000D02*
X179584000Y-109152000D01*
X173990000Y-123190000D02*
X173990000Y-119380000D01*
X173990000Y-113375998D02*
X178213998Y-109152000D01*
X179584000Y-109152000D02*
X174244000Y-109152000D01*
X173990000Y-109220000D02*
X173990000Y-113375998D01*
X174058000Y-109152000D02*
X173990000Y-109220000D01*
X173990000Y-123190000D02*
X176276000Y-125476000D01*
X173990000Y-119380000D02*
X173990000Y-113375998D01*
X174244000Y-109152000D02*
X174058000Y-109152000D01*
D29*
G04 #@! TO.N,+5V*
X171704000Y-73279000D02*
X171704000Y-49276000D01*
X115062000Y-101727000D02*
X143256000Y-101727000D01*
X143256000Y-101727000D02*
X171704000Y-73279000D01*
G04 #@! TD*
D26*
G04 #@! TO.N,GND*
G36*
X207526000Y-136406000D02*
X97274000Y-136406000D01*
X97274000Y-109220000D01*
X109440431Y-109220000D01*
X109485000Y-109444063D01*
X109485001Y-113063931D01*
X109440431Y-113287998D01*
X109485001Y-113512066D01*
X109485000Y-119155937D01*
X109485000Y-122684937D01*
X109440431Y-122909000D01*
X109616998Y-123796661D01*
X110020014Y-124399817D01*
X110119817Y-124549183D01*
X110309771Y-124676106D01*
X111707674Y-126074010D01*
X111707674Y-127705000D01*
X111740659Y-127870827D01*
X111771001Y-127916236D01*
X111771000Y-128683764D01*
X111740659Y-128729173D01*
X111707674Y-128895000D01*
X111707674Y-132705000D01*
X111740659Y-132870827D01*
X111834592Y-133011408D01*
X111975173Y-133105341D01*
X112141000Y-133138326D01*
X115951000Y-133138326D01*
X116116827Y-133105341D01*
X116257408Y-133011408D01*
X116351341Y-132870827D01*
X116384326Y-132705000D01*
X116384326Y-128895000D01*
X116351341Y-128729173D01*
X116321000Y-128683764D01*
X116321000Y-127916236D01*
X116351341Y-127870827D01*
X116384326Y-127705000D01*
X116384326Y-123895000D01*
X116787674Y-123895000D01*
X116787674Y-127705000D01*
X116820659Y-127870827D01*
X116851000Y-127916236D01*
X116851000Y-128683764D01*
X116820659Y-128729173D01*
X116787674Y-128895000D01*
X116787674Y-132705000D01*
X116820659Y-132870827D01*
X116914592Y-133011408D01*
X117055173Y-133105341D01*
X117221000Y-133138326D01*
X121031000Y-133138326D01*
X121196827Y-133105341D01*
X121337408Y-133011408D01*
X121431341Y-132870827D01*
X121464326Y-132705000D01*
X121464326Y-128895000D01*
X121431341Y-128729173D01*
X121401000Y-128683764D01*
X121401000Y-127916236D01*
X121431341Y-127870827D01*
X121464326Y-127705000D01*
X121464326Y-123895000D01*
X121431341Y-123729173D01*
X121401000Y-123683764D01*
X121401000Y-116811904D01*
X121772002Y-116256660D01*
X121948568Y-115369001D01*
X121772002Y-114481341D01*
X121269182Y-113728818D01*
X120516659Y-113225998D01*
X119628999Y-113049432D01*
X118741340Y-113225998D01*
X118178769Y-113601896D01*
X117675772Y-114104893D01*
X117485817Y-114231817D01*
X116982998Y-114984339D01*
X116806431Y-115872000D01*
X116851001Y-116096068D01*
X116851000Y-123160062D01*
X116851001Y-123160067D01*
X116851001Y-123683763D01*
X116820659Y-123729173D01*
X116787674Y-123895000D01*
X116384326Y-123895000D01*
X116351341Y-123729173D01*
X116257408Y-123588592D01*
X116116827Y-123494659D01*
X115951000Y-123461674D01*
X115546785Y-123461674D01*
X115496231Y-123427895D01*
X114035000Y-121966665D01*
X114035000Y-114230333D01*
X114045442Y-114219891D01*
X114035674Y-114269000D01*
X114035674Y-116469000D01*
X114068659Y-116634827D01*
X114162592Y-116775408D01*
X114303173Y-116869341D01*
X114469000Y-116902326D01*
X114509257Y-116902326D01*
X114527363Y-116993352D01*
X114622372Y-117135544D01*
X114622374Y-117135546D01*
X114654450Y-117183551D01*
X114702455Y-117215627D01*
X114741000Y-117254172D01*
X114741000Y-117264274D01*
X114616599Y-117388675D01*
X114491000Y-117691897D01*
X114491000Y-118020103D01*
X114616599Y-118323325D01*
X114848675Y-118555401D01*
X115151897Y-118681000D01*
X115480103Y-118681000D01*
X115783325Y-118555401D01*
X116015401Y-118323325D01*
X116141000Y-118020103D01*
X116141000Y-117691897D01*
X116015401Y-117388675D01*
X115891000Y-117264274D01*
X115891000Y-117072624D01*
X115902263Y-117016000D01*
X115891000Y-116959376D01*
X115891000Y-116959372D01*
X115868603Y-116846773D01*
X115975408Y-116775408D01*
X116069341Y-116634827D01*
X116102326Y-116469000D01*
X116102326Y-114269000D01*
X116069341Y-114103173D01*
X115975408Y-113962592D01*
X115834827Y-113868659D01*
X115669000Y-113835674D01*
X114469000Y-113835674D01*
X114419891Y-113845442D01*
X115563008Y-112702326D01*
X120249000Y-112702326D01*
X120414827Y-112669341D01*
X120555408Y-112575408D01*
X120649341Y-112434827D01*
X120682326Y-112269000D01*
X120682326Y-109220000D01*
X122140431Y-109220000D01*
X122185000Y-109444063D01*
X122185001Y-113145931D01*
X122140431Y-113369998D01*
X122185000Y-113594061D01*
X122185000Y-116048062D01*
X122185001Y-116048067D01*
X122185000Y-120679937D01*
X122185000Y-123192937D01*
X122140431Y-123417000D01*
X122221321Y-123823660D01*
X122316998Y-124304660D01*
X122819817Y-125057183D01*
X123009771Y-125184106D01*
X123899674Y-126074010D01*
X123899674Y-127705000D01*
X123932659Y-127870827D01*
X123963001Y-127916236D01*
X123963000Y-128683764D01*
X123932659Y-128729173D01*
X123899674Y-128895000D01*
X123899674Y-132705000D01*
X123932659Y-132870827D01*
X124026592Y-133011408D01*
X124167173Y-133105341D01*
X124333000Y-133138326D01*
X128143000Y-133138326D01*
X128308827Y-133105341D01*
X128449408Y-133011408D01*
X128543341Y-132870827D01*
X128576326Y-132705000D01*
X128576326Y-128895000D01*
X128543341Y-128729173D01*
X128513000Y-128683764D01*
X128513000Y-127916236D01*
X128543341Y-127870827D01*
X128576326Y-127705000D01*
X128576326Y-123895000D01*
X128979674Y-123895000D01*
X128979674Y-127705000D01*
X129012659Y-127870827D01*
X129043000Y-127916236D01*
X129043000Y-128683764D01*
X129012659Y-128729173D01*
X128979674Y-128895000D01*
X128979674Y-132705000D01*
X129012659Y-132870827D01*
X129106592Y-133011408D01*
X129247173Y-133105341D01*
X129413000Y-133138326D01*
X133223000Y-133138326D01*
X133388827Y-133105341D01*
X133529408Y-133011408D01*
X133623341Y-132870827D01*
X133656326Y-132705000D01*
X133656326Y-128895000D01*
X133623341Y-128729173D01*
X133593000Y-128683764D01*
X133593000Y-127916236D01*
X133623341Y-127870827D01*
X133656326Y-127705000D01*
X133656326Y-123895000D01*
X133623341Y-123729173D01*
X133593000Y-123683764D01*
X133593000Y-117404335D01*
X134095104Y-116902231D01*
X134471002Y-116339660D01*
X134647569Y-115452000D01*
X134471002Y-114564340D01*
X133968183Y-113811817D01*
X133215660Y-113308998D01*
X132328000Y-113132431D01*
X131440340Y-113308998D01*
X130877769Y-113684896D01*
X129867772Y-114694893D01*
X129677817Y-114821817D01*
X129174998Y-115574339D01*
X128998431Y-116462000D01*
X129043001Y-116686068D01*
X129043000Y-120171936D01*
X129043000Y-123160062D01*
X129043001Y-123160067D01*
X129043001Y-123683763D01*
X129012659Y-123729173D01*
X128979674Y-123895000D01*
X128576326Y-123895000D01*
X128543341Y-123729173D01*
X128449408Y-123588592D01*
X128308827Y-123494659D01*
X128143000Y-123461674D01*
X127738785Y-123461674D01*
X127688231Y-123427895D01*
X126735000Y-122474665D01*
X126735000Y-116553639D01*
X126767659Y-116717827D01*
X126861592Y-116858408D01*
X127002173Y-116952341D01*
X127168000Y-116985326D01*
X127208257Y-116985326D01*
X127226363Y-117076352D01*
X127321372Y-117218544D01*
X127321374Y-117218546D01*
X127353450Y-117266551D01*
X127401455Y-117298627D01*
X127404051Y-117301223D01*
X127316599Y-117388675D01*
X127191000Y-117691897D01*
X127191000Y-118020103D01*
X127316599Y-118323325D01*
X127548675Y-118555401D01*
X127851897Y-118681000D01*
X128180103Y-118681000D01*
X128483325Y-118555401D01*
X128715401Y-118323325D01*
X128841000Y-118020103D01*
X128841000Y-117691897D01*
X128715401Y-117388675D01*
X128591000Y-117264274D01*
X128591000Y-117156623D01*
X128602263Y-117100000D01*
X128591000Y-117043376D01*
X128591000Y-117043372D01*
X128568310Y-116929301D01*
X128674408Y-116858408D01*
X128768341Y-116717827D01*
X128801326Y-116552000D01*
X128801326Y-114352000D01*
X128768341Y-114186173D01*
X128674408Y-114045592D01*
X128533827Y-113951659D01*
X128368000Y-113918674D01*
X127168000Y-113918674D01*
X127118891Y-113928442D01*
X128262008Y-112785326D01*
X132948000Y-112785326D01*
X133113827Y-112752341D01*
X133254408Y-112658408D01*
X133348341Y-112517827D01*
X133381326Y-112352000D01*
X133381326Y-109347000D01*
X141190431Y-109347000D01*
X141235000Y-109571063D01*
X141235000Y-112680935D01*
X141190431Y-112904998D01*
X141235001Y-113129066D01*
X141235000Y-119731062D01*
X141235001Y-119731066D01*
X141235000Y-123092937D01*
X141190431Y-123317000D01*
X141233880Y-123535433D01*
X141232766Y-123758138D01*
X141321307Y-123974956D01*
X141366998Y-124204660D01*
X141615218Y-124576147D01*
X142949674Y-126595096D01*
X142949674Y-127912000D01*
X142982659Y-128077827D01*
X143013001Y-128123236D01*
X143013000Y-128890764D01*
X142982659Y-128936173D01*
X142949674Y-129102000D01*
X142949674Y-132912000D01*
X142982659Y-133077827D01*
X143076592Y-133218408D01*
X143217173Y-133312341D01*
X143383000Y-133345326D01*
X147193000Y-133345326D01*
X147358827Y-133312341D01*
X147499408Y-133218408D01*
X147593341Y-133077827D01*
X147626326Y-132912000D01*
X147626326Y-129102000D01*
X147593341Y-128936173D01*
X147563000Y-128890764D01*
X147563000Y-128123236D01*
X147593341Y-128077827D01*
X147626326Y-127912000D01*
X147626326Y-124102000D01*
X148029674Y-124102000D01*
X148029674Y-127912000D01*
X148062659Y-128077827D01*
X148093000Y-128123236D01*
X148093000Y-128890764D01*
X148062659Y-128936173D01*
X148029674Y-129102000D01*
X148029674Y-132912000D01*
X148062659Y-133077827D01*
X148156592Y-133218408D01*
X148297173Y-133312341D01*
X148463000Y-133345326D01*
X152273000Y-133345326D01*
X152438827Y-133312341D01*
X152579408Y-133218408D01*
X152673341Y-133077827D01*
X152706326Y-132912000D01*
X152706326Y-129102000D01*
X152673341Y-128936173D01*
X152643000Y-128890764D01*
X152643000Y-128123236D01*
X152673341Y-128077827D01*
X152706326Y-127912000D01*
X152706326Y-124102000D01*
X152673341Y-123936173D01*
X152643000Y-123890764D01*
X152643000Y-116935910D01*
X153012002Y-116383660D01*
X153188569Y-115496000D01*
X153012002Y-114608340D01*
X152509182Y-113855818D01*
X151756660Y-113352998D01*
X150869000Y-113176431D01*
X149981340Y-113352998D01*
X149418769Y-113728896D01*
X148917772Y-114229893D01*
X148727817Y-114356817D01*
X148224998Y-115109339D01*
X148048431Y-115997000D01*
X148093001Y-116221068D01*
X148093000Y-123287062D01*
X148093001Y-123287067D01*
X148093001Y-123890763D01*
X148062659Y-123936173D01*
X148029674Y-124102000D01*
X147626326Y-124102000D01*
X147593341Y-123936173D01*
X147499408Y-123795592D01*
X147358827Y-123701659D01*
X147193000Y-123668674D01*
X147071077Y-123668674D01*
X147055104Y-123644768D01*
X145785000Y-122374665D01*
X145785000Y-118272642D01*
X145858599Y-118450325D01*
X146090675Y-118682401D01*
X146393897Y-118808000D01*
X146722103Y-118808000D01*
X147025325Y-118682401D01*
X147257401Y-118450325D01*
X147383000Y-118147103D01*
X147383000Y-117818897D01*
X147257401Y-117515675D01*
X147133000Y-117391274D01*
X147133000Y-117201623D01*
X147144263Y-117144999D01*
X147133000Y-117088373D01*
X147133000Y-117088372D01*
X147110017Y-116972828D01*
X147215408Y-116902408D01*
X147309341Y-116761827D01*
X147342326Y-116596000D01*
X147342326Y-114396000D01*
X147309341Y-114230173D01*
X147215408Y-114089592D01*
X147074827Y-113995659D01*
X146909000Y-113962674D01*
X145785000Y-113962674D01*
X145785000Y-113847333D01*
X146803007Y-112829326D01*
X151489000Y-112829326D01*
X151654827Y-112796341D01*
X151795408Y-112702408D01*
X151889341Y-112561827D01*
X151922326Y-112396000D01*
X151922326Y-109347000D01*
X153890431Y-109347000D01*
X153935000Y-109571064D01*
X153935001Y-112832931D01*
X153890431Y-113056998D01*
X153935000Y-113281061D01*
X153935000Y-118715062D01*
X153935001Y-118715067D01*
X153935000Y-123092937D01*
X153890431Y-123317000D01*
X153901545Y-123372874D01*
X153893148Y-123429213D01*
X153989452Y-123814813D01*
X154016474Y-123950660D01*
X154066998Y-124204660D01*
X154224735Y-124440731D01*
X155141674Y-126382909D01*
X155141674Y-127912000D01*
X155174659Y-128077827D01*
X155205001Y-128123236D01*
X155205000Y-128890764D01*
X155174659Y-128936173D01*
X155141674Y-129102000D01*
X155141674Y-132912000D01*
X155174659Y-133077827D01*
X155268592Y-133218408D01*
X155409173Y-133312341D01*
X155575000Y-133345326D01*
X159385000Y-133345326D01*
X159550827Y-133312341D01*
X159691408Y-133218408D01*
X159785341Y-133077827D01*
X159818326Y-132912000D01*
X159818326Y-129102000D01*
X159785341Y-128936173D01*
X159755000Y-128890764D01*
X159755000Y-128123236D01*
X159785341Y-128077827D01*
X159818326Y-127912000D01*
X159818326Y-124102000D01*
X160221674Y-124102000D01*
X160221674Y-127912000D01*
X160254659Y-128077827D01*
X160285000Y-128123236D01*
X160285000Y-128890764D01*
X160254659Y-128936173D01*
X160221674Y-129102000D01*
X160221674Y-132912000D01*
X160254659Y-133077827D01*
X160348592Y-133218408D01*
X160489173Y-133312341D01*
X160655000Y-133345326D01*
X164465000Y-133345326D01*
X164630827Y-133312341D01*
X164771408Y-133218408D01*
X164865341Y-133077827D01*
X164898326Y-132912000D01*
X164898326Y-129102000D01*
X164865341Y-128936173D01*
X164835000Y-128890764D01*
X164835000Y-128123236D01*
X164865341Y-128077827D01*
X164898326Y-127912000D01*
X164898326Y-124102000D01*
X164865341Y-123936173D01*
X164835000Y-123890764D01*
X164835000Y-117599335D01*
X165337104Y-117097231D01*
X165713002Y-116534660D01*
X165889569Y-115647000D01*
X165713002Y-114759340D01*
X165210183Y-114006817D01*
X164457660Y-113503998D01*
X163570000Y-113327431D01*
X162682340Y-113503998D01*
X162119769Y-113879896D01*
X161109772Y-114889893D01*
X160919817Y-115016817D01*
X160416998Y-115769339D01*
X160240431Y-116657000D01*
X160285001Y-116881068D01*
X160285000Y-123287062D01*
X160285001Y-123287067D01*
X160285001Y-123890763D01*
X160254659Y-123936173D01*
X160221674Y-124102000D01*
X159818326Y-124102000D01*
X159785341Y-123936173D01*
X159691408Y-123795592D01*
X159634597Y-123757632D01*
X159623002Y-123699339D01*
X159247104Y-123136769D01*
X158485000Y-122374665D01*
X158485000Y-118272642D01*
X158558599Y-118450325D01*
X158790675Y-118682401D01*
X159093897Y-118808000D01*
X159422103Y-118808000D01*
X159725325Y-118682401D01*
X159957401Y-118450325D01*
X160083000Y-118147103D01*
X160083000Y-117818897D01*
X159957401Y-117515675D01*
X159833000Y-117391274D01*
X159833000Y-117351623D01*
X159844263Y-117295000D01*
X159833000Y-117238376D01*
X159833000Y-117238372D01*
X159810310Y-117124301D01*
X159916408Y-117053408D01*
X160010341Y-116912827D01*
X160043326Y-116747000D01*
X160043326Y-114547000D01*
X160010341Y-114381173D01*
X159916408Y-114240592D01*
X159775827Y-114146659D01*
X159610000Y-114113674D01*
X158485000Y-114113674D01*
X158485000Y-113999333D01*
X159504007Y-112980326D01*
X164190000Y-112980326D01*
X164355827Y-112947341D01*
X164496408Y-112853408D01*
X164590341Y-112712827D01*
X164623326Y-112547000D01*
X164623326Y-109220000D01*
X171670431Y-109220000D01*
X171715000Y-109444063D01*
X171715001Y-113151931D01*
X171670431Y-113375998D01*
X171715001Y-113600066D01*
X171715000Y-119604062D01*
X171715001Y-119604066D01*
X171715000Y-122839509D01*
X171684292Y-122936804D01*
X171695417Y-123064389D01*
X171670431Y-123190000D01*
X171734419Y-123511687D01*
X171762909Y-123838432D01*
X171822013Y-123952050D01*
X171846998Y-124077660D01*
X172029220Y-124350376D01*
X172075153Y-124438674D01*
X172153409Y-124536238D01*
X172349817Y-124830183D01*
X172434651Y-124886867D01*
X173937674Y-126760716D01*
X173937674Y-127945000D01*
X173970659Y-128110827D01*
X174001001Y-128156236D01*
X174001000Y-128923764D01*
X173970659Y-128969173D01*
X173937674Y-129135000D01*
X173937674Y-132945000D01*
X173970659Y-133110827D01*
X174064592Y-133251408D01*
X174205173Y-133345341D01*
X174371000Y-133378326D01*
X178181000Y-133378326D01*
X178346827Y-133345341D01*
X178487408Y-133251408D01*
X178581341Y-133110827D01*
X178614326Y-132945000D01*
X178614326Y-129135000D01*
X178581341Y-128969173D01*
X178551000Y-128923764D01*
X178551000Y-128156236D01*
X178581341Y-128110827D01*
X178614326Y-127945000D01*
X178614326Y-124135000D01*
X179017674Y-124135000D01*
X179017674Y-127945000D01*
X179050659Y-128110827D01*
X179081000Y-128156236D01*
X179081000Y-128923764D01*
X179050659Y-128969173D01*
X179017674Y-129135000D01*
X179017674Y-132945000D01*
X179050659Y-133110827D01*
X179144592Y-133251408D01*
X179285173Y-133345341D01*
X179451000Y-133378326D01*
X183261000Y-133378326D01*
X183426827Y-133345341D01*
X183567408Y-133251408D01*
X183661341Y-133110827D01*
X183694326Y-132945000D01*
X183694326Y-129135000D01*
X183661341Y-128969173D01*
X183631000Y-128923764D01*
X183631000Y-128156236D01*
X183661341Y-128110827D01*
X183694326Y-127945000D01*
X183694326Y-124135000D01*
X183661341Y-123969173D01*
X183631000Y-123923764D01*
X183631000Y-116902335D01*
X183631104Y-116902231D01*
X184007002Y-116339660D01*
X184183568Y-115452001D01*
X184007002Y-114564341D01*
X183504182Y-113811818D01*
X182751659Y-113308998D01*
X181863999Y-113132432D01*
X180976340Y-113308998D01*
X180413769Y-113684896D01*
X179905772Y-114192893D01*
X179715817Y-114319817D01*
X179212998Y-115072339D01*
X179036431Y-115960000D01*
X179081001Y-116184068D01*
X179081000Y-123160062D01*
X179081001Y-123160067D01*
X179081001Y-123923763D01*
X179050659Y-123969173D01*
X179017674Y-124135000D01*
X178614326Y-124135000D01*
X178581341Y-123969173D01*
X178487408Y-123828592D01*
X178346827Y-123734659D01*
X178181000Y-123701674D01*
X177719010Y-123701674D01*
X176265000Y-122247665D01*
X176265000Y-114318333D01*
X176280442Y-114302891D01*
X176270674Y-114352000D01*
X176270674Y-116552000D01*
X176303659Y-116717827D01*
X176397592Y-116858408D01*
X176538173Y-116952341D01*
X176704000Y-116985326D01*
X176729001Y-116985326D01*
X176729001Y-117264273D01*
X176604599Y-117388675D01*
X176479000Y-117691897D01*
X176479000Y-118020103D01*
X176604599Y-118323325D01*
X176836675Y-118555401D01*
X177139897Y-118681000D01*
X177468103Y-118681000D01*
X177771325Y-118555401D01*
X178003401Y-118323325D01*
X178129000Y-118020103D01*
X178129000Y-117691897D01*
X178003401Y-117388675D01*
X177879000Y-117264274D01*
X177879000Y-116985326D01*
X177904000Y-116985326D01*
X178069827Y-116952341D01*
X178210408Y-116858408D01*
X178304341Y-116717827D01*
X178337326Y-116552000D01*
X178337326Y-114352000D01*
X178304341Y-114186173D01*
X178210408Y-114045592D01*
X178069827Y-113951659D01*
X177904000Y-113918674D01*
X176704000Y-113918674D01*
X176654891Y-113928442D01*
X177798008Y-112785326D01*
X182484000Y-112785326D01*
X182649827Y-112752341D01*
X182790408Y-112658408D01*
X182884341Y-112517827D01*
X182917326Y-112352000D01*
X182917326Y-109220000D01*
X184370431Y-109220000D01*
X184415000Y-109444064D01*
X184415001Y-112959931D01*
X184370431Y-113183998D01*
X184415001Y-113408066D01*
X184415000Y-119604062D01*
X184415001Y-119604066D01*
X184415000Y-122965937D01*
X184370431Y-123190000D01*
X184407984Y-123378790D01*
X184401966Y-123571176D01*
X184495431Y-123818413D01*
X184499918Y-123840971D01*
X184546998Y-124077660D01*
X184778647Y-124424348D01*
X186129674Y-126589943D01*
X186129674Y-127945000D01*
X186162659Y-128110827D01*
X186193001Y-128156236D01*
X186193000Y-128923764D01*
X186162659Y-128969173D01*
X186129674Y-129135000D01*
X186129674Y-132945000D01*
X186162659Y-133110827D01*
X186256592Y-133251408D01*
X186397173Y-133345341D01*
X186563000Y-133378326D01*
X190373000Y-133378326D01*
X190538827Y-133345341D01*
X190679408Y-133251408D01*
X190773341Y-133110827D01*
X190806326Y-132945000D01*
X190806326Y-129135000D01*
X190773341Y-128969173D01*
X190743000Y-128923764D01*
X190743000Y-128156236D01*
X190773341Y-128110827D01*
X190806326Y-127945000D01*
X190806326Y-124135000D01*
X191209674Y-124135000D01*
X191209674Y-127945000D01*
X191242659Y-128110827D01*
X191273000Y-128156236D01*
X191273000Y-128923764D01*
X191242659Y-128969173D01*
X191209674Y-129135000D01*
X191209674Y-132945000D01*
X191242659Y-133110827D01*
X191336592Y-133251408D01*
X191477173Y-133345341D01*
X191643000Y-133378326D01*
X195453000Y-133378326D01*
X195618827Y-133345341D01*
X195759408Y-133251408D01*
X195853341Y-133110827D01*
X195886326Y-132945000D01*
X195886326Y-129135000D01*
X195853341Y-128969173D01*
X195823000Y-128923764D01*
X195823000Y-128156236D01*
X195853341Y-128110827D01*
X195886326Y-127945000D01*
X195886326Y-124135000D01*
X195853341Y-123969173D01*
X195823000Y-123923764D01*
X195823000Y-117218335D01*
X196071104Y-116970231D01*
X196447002Y-116407660D01*
X196623568Y-115520001D01*
X196447002Y-114632341D01*
X195944182Y-113879818D01*
X195191659Y-113376998D01*
X194303999Y-113200432D01*
X193416340Y-113376998D01*
X192853769Y-113752896D01*
X192097772Y-114508893D01*
X191907817Y-114635817D01*
X191404998Y-115388339D01*
X191228431Y-116276000D01*
X191273001Y-116500068D01*
X191273000Y-123160062D01*
X191273001Y-123160067D01*
X191273001Y-123923763D01*
X191242659Y-123969173D01*
X191209674Y-124135000D01*
X190806326Y-124135000D01*
X190773341Y-123969173D01*
X190679408Y-123828592D01*
X190538827Y-123734659D01*
X190373000Y-123701674D01*
X190357986Y-123701674D01*
X190235104Y-123517768D01*
X188965000Y-122247665D01*
X188965000Y-118385157D01*
X189044599Y-118577325D01*
X189276675Y-118809401D01*
X189579897Y-118935000D01*
X189908103Y-118935000D01*
X190211325Y-118809401D01*
X190443401Y-118577325D01*
X190569000Y-118274103D01*
X190569000Y-117945897D01*
X190443401Y-117642675D01*
X190319000Y-117518274D01*
X190319000Y-117053326D01*
X190344000Y-117053326D01*
X190509827Y-117020341D01*
X190650408Y-116926408D01*
X190744341Y-116785827D01*
X190777326Y-116620000D01*
X190777326Y-114420000D01*
X190744341Y-114254173D01*
X190650408Y-114113592D01*
X190509827Y-114019659D01*
X190344000Y-113986674D01*
X189144000Y-113986674D01*
X189094891Y-113996442D01*
X190238007Y-112853326D01*
X194924000Y-112853326D01*
X195089827Y-112820341D01*
X195230408Y-112726408D01*
X195324341Y-112585827D01*
X195357326Y-112420000D01*
X195357326Y-106020000D01*
X195324341Y-105854173D01*
X195230408Y-105713592D01*
X195089827Y-105619659D01*
X194924000Y-105586674D01*
X189124000Y-105586674D01*
X188958173Y-105619659D01*
X188817592Y-105713592D01*
X188723659Y-105854173D01*
X188690674Y-106020000D01*
X188690674Y-106945000D01*
X186914063Y-106945000D01*
X186690000Y-106900431D01*
X186465937Y-106945000D01*
X185802339Y-107076998D01*
X185049817Y-107579817D01*
X184546998Y-108332339D01*
X184370431Y-109220000D01*
X182917326Y-109220000D01*
X182917326Y-105952000D01*
X182884341Y-105786173D01*
X182790408Y-105645592D01*
X182649827Y-105551659D01*
X182484000Y-105518674D01*
X176684000Y-105518674D01*
X176518173Y-105551659D01*
X176377592Y-105645592D01*
X176283659Y-105786173D01*
X176250674Y-105952000D01*
X176250674Y-106877000D01*
X174282063Y-106877000D01*
X174058000Y-106832431D01*
X173833937Y-106877000D01*
X173170339Y-107008998D01*
X172417817Y-107511817D01*
X172390580Y-107552580D01*
X172349817Y-107579817D01*
X171947892Y-108181341D01*
X171846998Y-108332340D01*
X171670431Y-109220000D01*
X164623326Y-109220000D01*
X164623326Y-106147000D01*
X164590341Y-105981173D01*
X164496408Y-105840592D01*
X164355827Y-105746659D01*
X164190000Y-105713674D01*
X158390000Y-105713674D01*
X158224173Y-105746659D01*
X158083592Y-105840592D01*
X157989659Y-105981173D01*
X157956674Y-106147000D01*
X157956674Y-107072000D01*
X156434063Y-107072000D01*
X156210000Y-107027431D01*
X155985937Y-107072000D01*
X155322339Y-107203998D01*
X154569817Y-107706817D01*
X154066998Y-108459339D01*
X153890431Y-109347000D01*
X151922326Y-109347000D01*
X151922326Y-105996000D01*
X151889341Y-105830173D01*
X151795408Y-105689592D01*
X151654827Y-105595659D01*
X151489000Y-105562674D01*
X145689000Y-105562674D01*
X145523173Y-105595659D01*
X145382592Y-105689592D01*
X145288659Y-105830173D01*
X145255674Y-105996000D01*
X145255674Y-106921000D01*
X143885058Y-106921000D01*
X143660999Y-106876432D01*
X143436940Y-106921000D01*
X143436937Y-106921000D01*
X142773339Y-107052998D01*
X142020817Y-107555817D01*
X141960335Y-107646335D01*
X141869817Y-107706817D01*
X141467892Y-108308341D01*
X141366998Y-108459340D01*
X141190431Y-109347000D01*
X133381326Y-109347000D01*
X133381326Y-105952000D01*
X133348341Y-105786173D01*
X133254408Y-105645592D01*
X133113827Y-105551659D01*
X132948000Y-105518674D01*
X127148000Y-105518674D01*
X126982173Y-105551659D01*
X126841592Y-105645592D01*
X126747659Y-105786173D01*
X126714674Y-105952000D01*
X126714674Y-106877000D01*
X124752063Y-106877000D01*
X124528000Y-106832431D01*
X124303937Y-106877000D01*
X123640339Y-107008998D01*
X122887817Y-107511817D01*
X122860580Y-107552580D01*
X122819817Y-107579817D01*
X122417892Y-108181341D01*
X122316998Y-108332340D01*
X122140431Y-109220000D01*
X120682326Y-109220000D01*
X120682326Y-105869000D01*
X120649341Y-105703173D01*
X120555408Y-105562592D01*
X120414827Y-105468659D01*
X120249000Y-105435674D01*
X114449000Y-105435674D01*
X114283173Y-105468659D01*
X114142592Y-105562592D01*
X114048659Y-105703173D01*
X114015674Y-105869000D01*
X114015674Y-106794000D01*
X112135058Y-106794000D01*
X111910999Y-106749432D01*
X111686940Y-106794000D01*
X111686937Y-106794000D01*
X111023339Y-106925998D01*
X110270817Y-107428817D01*
X110210335Y-107519335D01*
X110119817Y-107579817D01*
X109717892Y-108181341D01*
X109616998Y-108332340D01*
X109440431Y-109220000D01*
X97274000Y-109220000D01*
X97274000Y-101727000D01*
X114118879Y-101727000D01*
X114190670Y-102087917D01*
X114395113Y-102393887D01*
X114701083Y-102598330D01*
X114970900Y-102652000D01*
X143164904Y-102652000D01*
X143256000Y-102670120D01*
X143347096Y-102652000D01*
X143347100Y-102652000D01*
X143616917Y-102598330D01*
X143922887Y-102393887D01*
X143974492Y-102316655D01*
X156226147Y-90065000D01*
X177063674Y-90065000D01*
X177063674Y-95865000D01*
X177096659Y-96030827D01*
X177190592Y-96171408D01*
X177331173Y-96265341D01*
X177497000Y-96298326D01*
X178422001Y-96298326D01*
X178422001Y-98478932D01*
X178377431Y-98703000D01*
X178553998Y-99590661D01*
X179056817Y-100343183D01*
X179246772Y-100470107D01*
X179286893Y-100510228D01*
X179413817Y-100700183D01*
X180166339Y-101203002D01*
X180829937Y-101335000D01*
X180829940Y-101335000D01*
X181053999Y-101379568D01*
X181278058Y-101335000D01*
X185197938Y-101335000D01*
X185421997Y-101379568D01*
X185646056Y-101335000D01*
X192815937Y-101335000D01*
X193040000Y-101379569D01*
X193264063Y-101335000D01*
X193927661Y-101203002D01*
X194680183Y-100700183D01*
X194807106Y-100510229D01*
X195482725Y-99834610D01*
X197849400Y-98350326D01*
X199201000Y-98350326D01*
X199366827Y-98317341D01*
X199412236Y-98287000D01*
X200179764Y-98287000D01*
X200225173Y-98317341D01*
X200391000Y-98350326D01*
X204201000Y-98350326D01*
X204366827Y-98317341D01*
X204507408Y-98223408D01*
X204601341Y-98082827D01*
X204634326Y-97917000D01*
X204634326Y-94107000D01*
X204601341Y-93941173D01*
X204507408Y-93800592D01*
X204366827Y-93706659D01*
X204201000Y-93673674D01*
X200391000Y-93673674D01*
X200225173Y-93706659D01*
X200179764Y-93737000D01*
X199412236Y-93737000D01*
X199366827Y-93706659D01*
X199201000Y-93673674D01*
X195391000Y-93673674D01*
X195225173Y-93706659D01*
X195084592Y-93800592D01*
X194990659Y-93941173D01*
X194975076Y-94019514D01*
X194637768Y-94244896D01*
X192470534Y-96412131D01*
X192165389Y-96700131D01*
X192151447Y-96731218D01*
X192097665Y-96785000D01*
X186364334Y-96785000D01*
X185847891Y-96268558D01*
X185897000Y-96278326D01*
X188097000Y-96278326D01*
X188262827Y-96245341D01*
X188403408Y-96151408D01*
X188497341Y-96010827D01*
X188530326Y-95845000D01*
X188530326Y-95804744D01*
X188621354Y-95786637D01*
X188811551Y-95659551D01*
X188843629Y-95611543D01*
X188884172Y-95571000D01*
X189908274Y-95571000D01*
X190032675Y-95695401D01*
X190335897Y-95821000D01*
X190664103Y-95821000D01*
X190967325Y-95695401D01*
X191199401Y-95463325D01*
X191325000Y-95160103D01*
X191325000Y-94831897D01*
X191199401Y-94528675D01*
X190967325Y-94296599D01*
X190664103Y-94171000D01*
X190335897Y-94171000D01*
X190032675Y-94296599D01*
X189908274Y-94421000D01*
X188702623Y-94421000D01*
X188645999Y-94409737D01*
X188589375Y-94421000D01*
X188589372Y-94421000D01*
X188473828Y-94443983D01*
X188403408Y-94338592D01*
X188262827Y-94244659D01*
X188097000Y-94211674D01*
X185897000Y-94211674D01*
X185731173Y-94244659D01*
X185590592Y-94338592D01*
X185496659Y-94479173D01*
X185463674Y-94645000D01*
X185463674Y-95845000D01*
X185473442Y-95894109D01*
X184330326Y-94750993D01*
X184330326Y-90065000D01*
X184297341Y-89899173D01*
X184203408Y-89758592D01*
X184062827Y-89664659D01*
X183897000Y-89631674D01*
X177497000Y-89631674D01*
X177331173Y-89664659D01*
X177190592Y-89758592D01*
X177096659Y-89899173D01*
X177063674Y-90065000D01*
X156226147Y-90065000D01*
X168927147Y-77364000D01*
X177146674Y-77364000D01*
X177146674Y-83164000D01*
X177179659Y-83329827D01*
X177273592Y-83470408D01*
X177414173Y-83564341D01*
X177580000Y-83597326D01*
X178505001Y-83597326D01*
X178505001Y-85695932D01*
X178460431Y-85920000D01*
X178636998Y-86807661D01*
X179139817Y-87560183D01*
X179329772Y-87687107D01*
X179452893Y-87810228D01*
X179579817Y-88000183D01*
X180332339Y-88503002D01*
X180995937Y-88635000D01*
X181220000Y-88679569D01*
X181444063Y-88635000D01*
X185281938Y-88635000D01*
X185505997Y-88679568D01*
X185730056Y-88635000D01*
X185970153Y-88635000D01*
X185356818Y-89044818D01*
X184853998Y-89797340D01*
X184677431Y-90685000D01*
X184853998Y-91572660D01*
X185229896Y-92135231D01*
X185476893Y-92382228D01*
X185603817Y-92572183D01*
X186356339Y-93075002D01*
X187019937Y-93207000D01*
X187244000Y-93251569D01*
X187468063Y-93207000D01*
X195179764Y-93207000D01*
X195225173Y-93237341D01*
X195391000Y-93270326D01*
X199201000Y-93270326D01*
X199366827Y-93237341D01*
X199412236Y-93207000D01*
X200179764Y-93207000D01*
X200225173Y-93237341D01*
X200391000Y-93270326D01*
X204201000Y-93270326D01*
X204366827Y-93237341D01*
X204507408Y-93143408D01*
X204601341Y-93002827D01*
X204634326Y-92837000D01*
X204634326Y-89027000D01*
X204601341Y-88861173D01*
X204507408Y-88720592D01*
X204366827Y-88626659D01*
X204201000Y-88593674D01*
X200391000Y-88593674D01*
X200225173Y-88626659D01*
X200179764Y-88657000D01*
X199412236Y-88657000D01*
X199366827Y-88626659D01*
X199201000Y-88593674D01*
X195391000Y-88593674D01*
X195225173Y-88626659D01*
X195179764Y-88657000D01*
X194423462Y-88657000D01*
X194534063Y-88635000D01*
X195197661Y-88503002D01*
X195950183Y-88000183D01*
X196077106Y-87810229D01*
X197729010Y-86158326D01*
X199145000Y-86158326D01*
X199310827Y-86125341D01*
X199356236Y-86095000D01*
X200123764Y-86095000D01*
X200169173Y-86125341D01*
X200335000Y-86158326D01*
X204145000Y-86158326D01*
X204310827Y-86125341D01*
X204451408Y-86031408D01*
X204545341Y-85890827D01*
X204578326Y-85725000D01*
X204578326Y-81915000D01*
X204545341Y-81749173D01*
X204451408Y-81608592D01*
X204310827Y-81514659D01*
X204145000Y-81481674D01*
X200335000Y-81481674D01*
X200169173Y-81514659D01*
X200123764Y-81545000D01*
X199356236Y-81545000D01*
X199310827Y-81514659D01*
X199145000Y-81481674D01*
X195335000Y-81481674D01*
X195169173Y-81514659D01*
X195028592Y-81608592D01*
X194934659Y-81749173D01*
X194901674Y-81915000D01*
X194901674Y-82550990D01*
X193367665Y-84085000D01*
X186448334Y-84085000D01*
X185930891Y-83567558D01*
X185980000Y-83577326D01*
X188180000Y-83577326D01*
X188345827Y-83544341D01*
X188486408Y-83450408D01*
X188580341Y-83309827D01*
X188613326Y-83144000D01*
X188613326Y-83119000D01*
X189648274Y-83119000D01*
X189772675Y-83243401D01*
X190075897Y-83369000D01*
X190404103Y-83369000D01*
X190707325Y-83243401D01*
X190939401Y-83011325D01*
X191065000Y-82708103D01*
X191065000Y-82379897D01*
X190939401Y-82076675D01*
X190707325Y-81844599D01*
X190404103Y-81719000D01*
X190075897Y-81719000D01*
X189772675Y-81844599D01*
X189648274Y-81969000D01*
X188613326Y-81969000D01*
X188613326Y-81944000D01*
X188580341Y-81778173D01*
X188486408Y-81637592D01*
X188345827Y-81543659D01*
X188180000Y-81510674D01*
X185980000Y-81510674D01*
X185814173Y-81543659D01*
X185673592Y-81637592D01*
X185579659Y-81778173D01*
X185546674Y-81944000D01*
X185546674Y-83144000D01*
X185556442Y-83193109D01*
X184413326Y-82049993D01*
X184413326Y-77984000D01*
X184760431Y-77984000D01*
X184936998Y-78871660D01*
X185312896Y-79434231D01*
X186068893Y-80190228D01*
X186195817Y-80380183D01*
X186948339Y-80883002D01*
X187611937Y-81015000D01*
X187611940Y-81015000D01*
X187835999Y-81059568D01*
X188060058Y-81015000D01*
X195123764Y-81015000D01*
X195169173Y-81045341D01*
X195335000Y-81078326D01*
X199145000Y-81078326D01*
X199310827Y-81045341D01*
X199356236Y-81015000D01*
X200123764Y-81015000D01*
X200169173Y-81045341D01*
X200335000Y-81078326D01*
X204145000Y-81078326D01*
X204310827Y-81045341D01*
X204451408Y-80951408D01*
X204545341Y-80810827D01*
X204578326Y-80645000D01*
X204578326Y-76835000D01*
X204545341Y-76669173D01*
X204451408Y-76528592D01*
X204310827Y-76434659D01*
X204145000Y-76401674D01*
X200335000Y-76401674D01*
X200169173Y-76434659D01*
X200123764Y-76465000D01*
X199356236Y-76465000D01*
X199310827Y-76434659D01*
X199145000Y-76401674D01*
X195335000Y-76401674D01*
X195169173Y-76434659D01*
X195123764Y-76465000D01*
X188778335Y-76465000D01*
X188530231Y-76216896D01*
X187967660Y-75840998D01*
X187080000Y-75664431D01*
X186192340Y-75840998D01*
X185439818Y-76343818D01*
X184936998Y-77096340D01*
X184760431Y-77984000D01*
X184413326Y-77984000D01*
X184413326Y-77364000D01*
X184380341Y-77198173D01*
X184286408Y-77057592D01*
X184145827Y-76963659D01*
X183980000Y-76930674D01*
X177580000Y-76930674D01*
X177414173Y-76963659D01*
X177273592Y-77057592D01*
X177179659Y-77198173D01*
X177146674Y-77364000D01*
X168927147Y-77364000D01*
X172293656Y-73997491D01*
X172370887Y-73945887D01*
X172575330Y-73639917D01*
X172629000Y-73370100D01*
X172629000Y-73370096D01*
X172647120Y-73279001D01*
X172629000Y-73187906D01*
X172629000Y-68867250D01*
X199265000Y-68867250D01*
X199265000Y-69467912D01*
X199361369Y-69700566D01*
X199539435Y-69878632D01*
X199772089Y-69975000D01*
X200372750Y-69975000D01*
X200531000Y-69816750D01*
X200531000Y-68709000D01*
X200789000Y-68709000D01*
X200789000Y-69816750D01*
X200947250Y-69975000D01*
X201547911Y-69975000D01*
X201780565Y-69878632D01*
X201930000Y-69729197D01*
X202079435Y-69878632D01*
X202312089Y-69975000D01*
X202912750Y-69975000D01*
X203071000Y-69816750D01*
X203071000Y-68709000D01*
X203329000Y-68709000D01*
X203329000Y-69816750D01*
X203487250Y-69975000D01*
X204087911Y-69975000D01*
X204320565Y-69878632D01*
X204498631Y-69700566D01*
X204595000Y-69467912D01*
X204595000Y-68867250D01*
X204436750Y-68709000D01*
X203329000Y-68709000D01*
X203071000Y-68709000D01*
X201963250Y-68709000D01*
X201930000Y-68742250D01*
X201896750Y-68709000D01*
X200789000Y-68709000D01*
X200531000Y-68709000D01*
X199423250Y-68709000D01*
X199265000Y-68867250D01*
X172629000Y-68867250D01*
X172629000Y-67692088D01*
X199265000Y-67692088D01*
X199265000Y-68292750D01*
X199423250Y-68451000D01*
X200531000Y-68451000D01*
X200531000Y-68431000D01*
X200789000Y-68431000D01*
X200789000Y-68451000D01*
X201896750Y-68451000D01*
X201930000Y-68417750D01*
X201963250Y-68451000D01*
X203071000Y-68451000D01*
X203071000Y-68431000D01*
X203329000Y-68431000D01*
X203329000Y-68451000D01*
X204436750Y-68451000D01*
X204595000Y-68292750D01*
X204595000Y-67692088D01*
X204498631Y-67459434D01*
X204320565Y-67281368D01*
X204128573Y-67201843D01*
X204268408Y-67108408D01*
X204362341Y-66967827D01*
X204395326Y-66802000D01*
X204395326Y-65278000D01*
X204362341Y-65112173D01*
X204268408Y-64971592D01*
X204127827Y-64877659D01*
X203962000Y-64844674D01*
X202438000Y-64844674D01*
X202272173Y-64877659D01*
X202131592Y-64971592D01*
X202037659Y-65112173D01*
X202004674Y-65278000D01*
X202004674Y-66802000D01*
X202037659Y-66967827D01*
X202131592Y-67108408D01*
X202271427Y-67201843D01*
X202079435Y-67281368D01*
X201930000Y-67430803D01*
X201780565Y-67281368D01*
X201588573Y-67201843D01*
X201728408Y-67108408D01*
X201822341Y-66967827D01*
X201855326Y-66802000D01*
X201855326Y-65278000D01*
X201822341Y-65112173D01*
X201728408Y-64971592D01*
X201587827Y-64877659D01*
X201422000Y-64844674D01*
X199898000Y-64844674D01*
X199732173Y-64877659D01*
X199591592Y-64971592D01*
X199497659Y-65112173D01*
X199464674Y-65278000D01*
X199464674Y-66802000D01*
X199497659Y-66967827D01*
X199591592Y-67108408D01*
X199731427Y-67201843D01*
X199539435Y-67281368D01*
X199361369Y-67459434D01*
X199265000Y-67692088D01*
X172629000Y-67692088D01*
X172629000Y-61247250D01*
X199265000Y-61247250D01*
X199265000Y-61847912D01*
X199361369Y-62080566D01*
X199539435Y-62258632D01*
X199731427Y-62338157D01*
X199591592Y-62431592D01*
X199497659Y-62572173D01*
X199464674Y-62738000D01*
X199464674Y-64262000D01*
X199497659Y-64427827D01*
X199591592Y-64568408D01*
X199732173Y-64662341D01*
X199898000Y-64695326D01*
X201422000Y-64695326D01*
X201587827Y-64662341D01*
X201728408Y-64568408D01*
X201822341Y-64427827D01*
X201855326Y-64262000D01*
X201855326Y-62738000D01*
X201822341Y-62572173D01*
X201728408Y-62431592D01*
X201588573Y-62338157D01*
X201780565Y-62258632D01*
X201930000Y-62109197D01*
X202079435Y-62258632D01*
X202271427Y-62338157D01*
X202131592Y-62431592D01*
X202037659Y-62572173D01*
X202004674Y-62738000D01*
X202004674Y-64262000D01*
X202037659Y-64427827D01*
X202131592Y-64568408D01*
X202272173Y-64662341D01*
X202438000Y-64695326D01*
X203962000Y-64695326D01*
X204127827Y-64662341D01*
X204268408Y-64568408D01*
X204362341Y-64427827D01*
X204395326Y-64262000D01*
X204395326Y-62738000D01*
X204362341Y-62572173D01*
X204268408Y-62431592D01*
X204128573Y-62338157D01*
X204320565Y-62258632D01*
X204498631Y-62080566D01*
X204595000Y-61847912D01*
X204595000Y-61247250D01*
X204436750Y-61089000D01*
X203329000Y-61089000D01*
X203329000Y-61109000D01*
X203071000Y-61109000D01*
X203071000Y-61089000D01*
X201963250Y-61089000D01*
X201930000Y-61122250D01*
X201896750Y-61089000D01*
X200789000Y-61089000D01*
X200789000Y-61109000D01*
X200531000Y-61109000D01*
X200531000Y-61089000D01*
X199423250Y-61089000D01*
X199265000Y-61247250D01*
X172629000Y-61247250D01*
X172629000Y-60072088D01*
X199265000Y-60072088D01*
X199265000Y-60672750D01*
X199423250Y-60831000D01*
X200531000Y-60831000D01*
X200531000Y-59723250D01*
X200789000Y-59723250D01*
X200789000Y-60831000D01*
X201896750Y-60831000D01*
X201930000Y-60797750D01*
X201963250Y-60831000D01*
X203071000Y-60831000D01*
X203071000Y-59723250D01*
X203329000Y-59723250D01*
X203329000Y-60831000D01*
X204436750Y-60831000D01*
X204595000Y-60672750D01*
X204595000Y-60072088D01*
X204498631Y-59839434D01*
X204320565Y-59661368D01*
X204087911Y-59565000D01*
X203487250Y-59565000D01*
X203329000Y-59723250D01*
X203071000Y-59723250D01*
X202912750Y-59565000D01*
X202312089Y-59565000D01*
X202079435Y-59661368D01*
X201930000Y-59810803D01*
X201780565Y-59661368D01*
X201547911Y-59565000D01*
X200947250Y-59565000D01*
X200789000Y-59723250D01*
X200531000Y-59723250D01*
X200372750Y-59565000D01*
X199772089Y-59565000D01*
X199539435Y-59661368D01*
X199361369Y-59839434D01*
X199265000Y-60072088D01*
X172629000Y-60072088D01*
X172629000Y-56134000D01*
X178128674Y-56134000D01*
X178128674Y-57658000D01*
X178161659Y-57823827D01*
X178255592Y-57964408D01*
X178396173Y-58058341D01*
X178562000Y-58091326D01*
X180086000Y-58091326D01*
X180251827Y-58058341D01*
X180392408Y-57964408D01*
X180486341Y-57823827D01*
X180519326Y-57658000D01*
X180519326Y-56134000D01*
X180486341Y-55968173D01*
X180392408Y-55827592D01*
X180251827Y-55733659D01*
X180086000Y-55700674D01*
X178562000Y-55700674D01*
X178396173Y-55733659D01*
X178255592Y-55827592D01*
X178161659Y-55968173D01*
X178128674Y-56134000D01*
X172629000Y-56134000D01*
X172629000Y-53594000D01*
X178128674Y-53594000D01*
X178128674Y-55118000D01*
X178161659Y-55283827D01*
X178255592Y-55424408D01*
X178396173Y-55518341D01*
X178562000Y-55551326D01*
X180086000Y-55551326D01*
X180251827Y-55518341D01*
X180392408Y-55424408D01*
X180486341Y-55283827D01*
X180519326Y-55118000D01*
X180519326Y-53594000D01*
X180486341Y-53428173D01*
X180392408Y-53287592D01*
X180251827Y-53193659D01*
X180086000Y-53160674D01*
X178562000Y-53160674D01*
X178396173Y-53193659D01*
X178255592Y-53287592D01*
X178161659Y-53428173D01*
X178128674Y-53594000D01*
X172629000Y-53594000D01*
X172629000Y-52978903D01*
X172631827Y-52978341D01*
X172772408Y-52884408D01*
X172865843Y-52744573D01*
X172945368Y-52936565D01*
X173123434Y-53114631D01*
X173356088Y-53211000D01*
X173956750Y-53211000D01*
X174115000Y-53052750D01*
X174115000Y-51945000D01*
X174373000Y-51945000D01*
X174373000Y-53052750D01*
X174531250Y-53211000D01*
X175131912Y-53211000D01*
X175364566Y-53114631D01*
X175542632Y-52936565D01*
X175639000Y-52703911D01*
X175639000Y-52103250D01*
X175480750Y-51945000D01*
X174373000Y-51945000D01*
X174115000Y-51945000D01*
X174095000Y-51945000D01*
X174095000Y-51687000D01*
X174115000Y-51687000D01*
X174115000Y-50579250D01*
X174081750Y-50546000D01*
X174115000Y-50512750D01*
X174115000Y-49405000D01*
X174373000Y-49405000D01*
X174373000Y-50512750D01*
X174406250Y-50546000D01*
X174373000Y-50579250D01*
X174373000Y-51687000D01*
X175480750Y-51687000D01*
X175639000Y-51528750D01*
X175639000Y-50928089D01*
X175542632Y-50695435D01*
X175393197Y-50546000D01*
X175542632Y-50396565D01*
X175639000Y-50163911D01*
X175639000Y-49563250D01*
X177929000Y-49563250D01*
X177929000Y-50163912D01*
X178025369Y-50396566D01*
X178203435Y-50574632D01*
X178395427Y-50654157D01*
X178255592Y-50747592D01*
X178161659Y-50888173D01*
X178128674Y-51054000D01*
X178128674Y-52578000D01*
X178161659Y-52743827D01*
X178255592Y-52884408D01*
X178396173Y-52978341D01*
X178562000Y-53011326D01*
X180086000Y-53011326D01*
X180251827Y-52978341D01*
X180392408Y-52884408D01*
X180486341Y-52743827D01*
X180519326Y-52578000D01*
X180519326Y-51538949D01*
X185654000Y-51538949D01*
X185654000Y-52093050D01*
X185728847Y-52469332D01*
X186013962Y-52896038D01*
X186440667Y-53181153D01*
X186944000Y-53281272D01*
X187447332Y-53181153D01*
X187874038Y-52896038D01*
X188159153Y-52469333D01*
X188214000Y-52193597D01*
X188268847Y-52469332D01*
X188553962Y-52896038D01*
X188932627Y-53149054D01*
X188931707Y-53149435D01*
X188657435Y-53423707D01*
X188509000Y-53782061D01*
X188509000Y-54169939D01*
X188657435Y-54528293D01*
X188931707Y-54802565D01*
X189290061Y-54951000D01*
X189677939Y-54951000D01*
X190036293Y-54802565D01*
X190310565Y-54528293D01*
X190459000Y-54169939D01*
X190459000Y-53782061D01*
X190310565Y-53423707D01*
X190036293Y-53149435D01*
X190035372Y-53149054D01*
X190414038Y-52896038D01*
X190699153Y-52469333D01*
X190754000Y-52193597D01*
X190808847Y-52469332D01*
X191093962Y-52896038D01*
X191520667Y-53181153D01*
X192024000Y-53281272D01*
X192527332Y-53181153D01*
X192954038Y-52896038D01*
X193066000Y-52728475D01*
X193066000Y-52956911D01*
X193162368Y-53189565D01*
X193340434Y-53367631D01*
X193573088Y-53464000D01*
X194276750Y-53464000D01*
X194435000Y-53305750D01*
X194435000Y-51945000D01*
X194693000Y-51945000D01*
X194693000Y-53305750D01*
X194851250Y-53464000D01*
X195554912Y-53464000D01*
X195787566Y-53367631D01*
X195965632Y-53189565D01*
X196062000Y-52956911D01*
X196062000Y-52103250D01*
X195903750Y-51945000D01*
X194693000Y-51945000D01*
X194435000Y-51945000D01*
X194415000Y-51945000D01*
X194415000Y-51687000D01*
X194435000Y-51687000D01*
X194435000Y-50326250D01*
X194693000Y-50326250D01*
X194693000Y-51687000D01*
X195903750Y-51687000D01*
X196062000Y-51528750D01*
X196062000Y-50675089D01*
X195965632Y-50442435D01*
X195787566Y-50264369D01*
X195554912Y-50168000D01*
X194851250Y-50168000D01*
X194693000Y-50326250D01*
X194435000Y-50326250D01*
X194276750Y-50168000D01*
X193573088Y-50168000D01*
X193340434Y-50264369D01*
X193162368Y-50442435D01*
X193066000Y-50675089D01*
X193066000Y-50903525D01*
X192954038Y-50735962D01*
X192527333Y-50450847D01*
X192024000Y-50350728D01*
X191520668Y-50450847D01*
X191093963Y-50735962D01*
X190808847Y-51162667D01*
X190754000Y-51438403D01*
X190699153Y-51162668D01*
X190414038Y-50735962D01*
X189987333Y-50450847D01*
X189484000Y-50350728D01*
X188980668Y-50450847D01*
X188553963Y-50735962D01*
X188268847Y-51162667D01*
X188214000Y-51438403D01*
X188159153Y-51162668D01*
X187874038Y-50735962D01*
X187447333Y-50450847D01*
X186944000Y-50350728D01*
X186440668Y-50450847D01*
X186013963Y-50735962D01*
X185728847Y-51162667D01*
X185654000Y-51538949D01*
X180519326Y-51538949D01*
X180519326Y-51054000D01*
X180486341Y-50888173D01*
X180392408Y-50747592D01*
X180252573Y-50654157D01*
X180444565Y-50574632D01*
X180622631Y-50396566D01*
X180719000Y-50163912D01*
X180719000Y-49563250D01*
X180560750Y-49405000D01*
X179453000Y-49405000D01*
X179453000Y-49425000D01*
X179195000Y-49425000D01*
X179195000Y-49405000D01*
X178087250Y-49405000D01*
X177929000Y-49563250D01*
X175639000Y-49563250D01*
X175480750Y-49405000D01*
X174373000Y-49405000D01*
X174115000Y-49405000D01*
X174095000Y-49405000D01*
X174095000Y-49147000D01*
X174115000Y-49147000D01*
X174115000Y-48039250D01*
X174373000Y-48039250D01*
X174373000Y-49147000D01*
X175480750Y-49147000D01*
X175639000Y-48988750D01*
X175639000Y-48388089D01*
X175639000Y-48388088D01*
X177929000Y-48388088D01*
X177929000Y-48988750D01*
X178087250Y-49147000D01*
X179195000Y-49147000D01*
X179195000Y-48039250D01*
X179453000Y-48039250D01*
X179453000Y-49147000D01*
X180560750Y-49147000D01*
X180719000Y-48988750D01*
X180719000Y-48388088D01*
X180622631Y-48155434D01*
X180444565Y-47977368D01*
X180211911Y-47881000D01*
X179611250Y-47881000D01*
X179453000Y-48039250D01*
X179195000Y-48039250D01*
X179036750Y-47881000D01*
X178436089Y-47881000D01*
X178203435Y-47977368D01*
X178025369Y-48155434D01*
X177929000Y-48388088D01*
X175639000Y-48388088D01*
X175542632Y-48155435D01*
X175364566Y-47977369D01*
X175131912Y-47881000D01*
X174531250Y-47881000D01*
X174373000Y-48039250D01*
X174115000Y-48039250D01*
X173956750Y-47881000D01*
X173356088Y-47881000D01*
X173123434Y-47977369D01*
X172945368Y-48155435D01*
X172865843Y-48347427D01*
X172772408Y-48207592D01*
X172631827Y-48113659D01*
X172466000Y-48080674D01*
X170942000Y-48080674D01*
X170776173Y-48113659D01*
X170635592Y-48207592D01*
X170542157Y-48347427D01*
X170462632Y-48155435D01*
X170284566Y-47977369D01*
X170051912Y-47881000D01*
X169451250Y-47881000D01*
X169293000Y-48039250D01*
X169293000Y-49147000D01*
X169313000Y-49147000D01*
X169313000Y-49405000D01*
X169293000Y-49405000D01*
X169293000Y-50512750D01*
X169326250Y-50546000D01*
X169293000Y-50579250D01*
X169293000Y-51687000D01*
X169313000Y-51687000D01*
X169313000Y-51945000D01*
X169293000Y-51945000D01*
X169293000Y-53052750D01*
X169451250Y-53211000D01*
X170051912Y-53211000D01*
X170284566Y-53114631D01*
X170462632Y-52936565D01*
X170542157Y-52744573D01*
X170635592Y-52884408D01*
X170776173Y-52978341D01*
X170779001Y-52978903D01*
X170779000Y-72895853D01*
X142872853Y-100802000D01*
X114970900Y-100802000D01*
X114701083Y-100855670D01*
X114395113Y-101060113D01*
X114190670Y-101366083D01*
X114118879Y-101727000D01*
X97274000Y-101727000D01*
X97274000Y-98920772D01*
X106045661Y-98920772D01*
X106236243Y-99264709D01*
X107117036Y-99615336D01*
X108064962Y-99602208D01*
X108879757Y-99264709D01*
X109070339Y-98920772D01*
X107558000Y-97408434D01*
X106045661Y-98920772D01*
X97274000Y-98920772D01*
X97274000Y-96785036D01*
X105168664Y-96785036D01*
X105181792Y-97732962D01*
X105519291Y-98547757D01*
X105863228Y-98738339D01*
X107375566Y-97226000D01*
X107740434Y-97226000D01*
X109252772Y-98738339D01*
X109596709Y-98547757D01*
X109947336Y-97666964D01*
X109934208Y-96719038D01*
X109596709Y-95904243D01*
X109252772Y-95713661D01*
X107740434Y-97226000D01*
X107375566Y-97226000D01*
X105863228Y-95713661D01*
X105519291Y-95904243D01*
X105168664Y-96785036D01*
X97274000Y-96785036D01*
X97274000Y-95531228D01*
X106045661Y-95531228D01*
X107558000Y-97043566D01*
X109070339Y-95531228D01*
X108879757Y-95187291D01*
X107998964Y-94836664D01*
X107051038Y-94849792D01*
X106236243Y-95187291D01*
X106045661Y-95531228D01*
X97274000Y-95531228D01*
X97274000Y-92229741D01*
X108772970Y-92229741D01*
X108800188Y-92819087D01*
X108973358Y-93237159D01*
X109223855Y-93317711D01*
X110085566Y-92456000D01*
X109223855Y-91594289D01*
X108973358Y-91674841D01*
X108772970Y-92229741D01*
X97274000Y-92229741D01*
X97274000Y-89702387D01*
X108993000Y-89702387D01*
X108993000Y-90209613D01*
X109187107Y-90678230D01*
X109545770Y-91036893D01*
X109666549Y-91086921D01*
X109486841Y-91161358D01*
X109406289Y-91411855D01*
X110268000Y-92273566D01*
X110282142Y-92259424D01*
X110464576Y-92441858D01*
X110450434Y-92456000D01*
X110464576Y-92470142D01*
X110282142Y-92652576D01*
X110268000Y-92638434D01*
X109406289Y-93500145D01*
X109486841Y-93750642D01*
X110041741Y-93951030D01*
X110631087Y-93923812D01*
X111049159Y-93750642D01*
X111099453Y-93594240D01*
X111111592Y-93612408D01*
X111252173Y-93706341D01*
X111418000Y-93739326D01*
X113118000Y-93739326D01*
X113283827Y-93706341D01*
X113424408Y-93612408D01*
X113518341Y-93471827D01*
X113551326Y-93306000D01*
X113551326Y-91606000D01*
X113518341Y-91440173D01*
X113424408Y-91299592D01*
X113283827Y-91205659D01*
X113118000Y-91172674D01*
X112662425Y-91172674D01*
X112990230Y-91036893D01*
X113348893Y-90678230D01*
X113543000Y-90209613D01*
X113543000Y-89702387D01*
X113348893Y-89233770D01*
X112990230Y-88875107D01*
X112521613Y-88681000D01*
X112014387Y-88681000D01*
X111545770Y-88875107D01*
X111268000Y-89152877D01*
X110990230Y-88875107D01*
X110521613Y-88681000D01*
X110014387Y-88681000D01*
X109545770Y-88875107D01*
X109187107Y-89233770D01*
X108993000Y-89702387D01*
X97274000Y-89702387D01*
X97274000Y-86880772D01*
X106045661Y-86880772D01*
X106236243Y-87224709D01*
X107117036Y-87575336D01*
X108064962Y-87562208D01*
X108879757Y-87224709D01*
X109070339Y-86880772D01*
X107558000Y-85368434D01*
X106045661Y-86880772D01*
X97274000Y-86880772D01*
X97274000Y-84745036D01*
X105168664Y-84745036D01*
X105181792Y-85692962D01*
X105519291Y-86507757D01*
X105863228Y-86698339D01*
X107375566Y-85186000D01*
X107740434Y-85186000D01*
X109252772Y-86698339D01*
X109596709Y-86507757D01*
X109947336Y-85626964D01*
X109934208Y-84679038D01*
X109596709Y-83864243D01*
X109252772Y-83673661D01*
X107740434Y-85186000D01*
X107375566Y-85186000D01*
X105863228Y-83673661D01*
X105519291Y-83864243D01*
X105168664Y-84745036D01*
X97274000Y-84745036D01*
X97274000Y-83491228D01*
X106045661Y-83491228D01*
X107558000Y-85003566D01*
X109070339Y-83491228D01*
X108879757Y-83147291D01*
X107998964Y-82796664D01*
X107051038Y-82809792D01*
X106236243Y-83147291D01*
X106045661Y-83491228D01*
X97274000Y-83491228D01*
X97274000Y-79058733D01*
X99486701Y-79058733D01*
X99585647Y-79324782D01*
X100194920Y-79550236D01*
X100844091Y-79525369D01*
X101328353Y-79324782D01*
X101427299Y-79058733D01*
X105986701Y-79058733D01*
X106085647Y-79324782D01*
X106694920Y-79550236D01*
X107344091Y-79525369D01*
X107828353Y-79324782D01*
X107927299Y-79058733D01*
X106957000Y-78088434D01*
X105986701Y-79058733D01*
X101427299Y-79058733D01*
X100457000Y-78088434D01*
X99486701Y-79058733D01*
X97274000Y-79058733D01*
X97274000Y-77643920D01*
X98812764Y-77643920D01*
X98837631Y-78293091D01*
X99038218Y-78777353D01*
X99304267Y-78876299D01*
X100274566Y-77906000D01*
X100639434Y-77906000D01*
X101609733Y-78876299D01*
X101875782Y-78777353D01*
X102101236Y-78168080D01*
X102081158Y-77643920D01*
X105312764Y-77643920D01*
X105337631Y-78293091D01*
X105538218Y-78777353D01*
X105804267Y-78876299D01*
X106774566Y-77906000D01*
X107139434Y-77906000D01*
X108109733Y-78876299D01*
X108375782Y-78777353D01*
X108601236Y-78168080D01*
X108576369Y-77518909D01*
X108375782Y-77034647D01*
X108109733Y-76935701D01*
X107139434Y-77906000D01*
X106774566Y-77906000D01*
X105804267Y-76935701D01*
X105538218Y-77034647D01*
X105312764Y-77643920D01*
X102081158Y-77643920D01*
X102076369Y-77518909D01*
X101875782Y-77034647D01*
X101609733Y-76935701D01*
X100639434Y-77906000D01*
X100274566Y-77906000D01*
X99304267Y-76935701D01*
X99038218Y-77034647D01*
X98812764Y-77643920D01*
X97274000Y-77643920D01*
X97274000Y-76753267D01*
X99486701Y-76753267D01*
X100457000Y-77723566D01*
X101427299Y-76753267D01*
X105986701Y-76753267D01*
X106957000Y-77723566D01*
X107927299Y-76753267D01*
X107828353Y-76487218D01*
X107219080Y-76261764D01*
X106569909Y-76286631D01*
X106085647Y-76487218D01*
X105986701Y-76753267D01*
X101427299Y-76753267D01*
X101328353Y-76487218D01*
X100719080Y-76261764D01*
X100069909Y-76286631D01*
X99585647Y-76487218D01*
X99486701Y-76753267D01*
X97274000Y-76753267D01*
X97274000Y-73122550D01*
X99032000Y-73122550D01*
X99032000Y-73689450D01*
X99248944Y-74213197D01*
X99649803Y-74614056D01*
X100173550Y-74831000D01*
X100740450Y-74831000D01*
X101264197Y-74614056D01*
X101665056Y-74213197D01*
X101882000Y-73689450D01*
X101882000Y-73122550D01*
X105532000Y-73122550D01*
X105532000Y-73689450D01*
X105748944Y-74213197D01*
X106149803Y-74614056D01*
X106673550Y-74831000D01*
X107240450Y-74831000D01*
X107764197Y-74614056D01*
X108165056Y-74213197D01*
X108382000Y-73689450D01*
X108382000Y-73122550D01*
X108165056Y-72598803D01*
X107764197Y-72197944D01*
X107240450Y-71981000D01*
X106673550Y-71981000D01*
X106149803Y-72197944D01*
X105748944Y-72598803D01*
X105532000Y-73122550D01*
X101882000Y-73122550D01*
X101665056Y-72598803D01*
X101264197Y-72197944D01*
X100740450Y-71981000D01*
X100173550Y-71981000D01*
X99649803Y-72197944D01*
X99248944Y-72598803D01*
X99032000Y-73122550D01*
X97274000Y-73122550D01*
X97274000Y-68042550D01*
X99032000Y-68042550D01*
X99032000Y-68609450D01*
X99248944Y-69133197D01*
X99649803Y-69534056D01*
X100173550Y-69751000D01*
X100740450Y-69751000D01*
X101264197Y-69534056D01*
X101665056Y-69133197D01*
X101882000Y-68609450D01*
X101882000Y-68042550D01*
X105532000Y-68042550D01*
X105532000Y-68609450D01*
X105748944Y-69133197D01*
X106149803Y-69534056D01*
X106673550Y-69751000D01*
X107240450Y-69751000D01*
X107764197Y-69534056D01*
X108165056Y-69133197D01*
X108382000Y-68609450D01*
X108382000Y-68042550D01*
X108165056Y-67518803D01*
X107764197Y-67117944D01*
X107240450Y-66901000D01*
X106673550Y-66901000D01*
X106149803Y-67117944D01*
X105748944Y-67518803D01*
X105532000Y-68042550D01*
X101882000Y-68042550D01*
X101665056Y-67518803D01*
X101264197Y-67117944D01*
X100740450Y-66901000D01*
X100173550Y-66901000D01*
X99649803Y-67117944D01*
X99248944Y-67518803D01*
X99032000Y-68042550D01*
X97274000Y-68042550D01*
X97274000Y-65875897D01*
X115253000Y-65875897D01*
X115253000Y-66204103D01*
X115378599Y-66507325D01*
X115610675Y-66739401D01*
X115913897Y-66865000D01*
X116125184Y-66865000D01*
X118444786Y-69184603D01*
X118475472Y-69230528D01*
X118657401Y-69352089D01*
X118817830Y-69384000D01*
X118817831Y-69384000D01*
X118872000Y-69394775D01*
X118926169Y-69384000D01*
X140381852Y-69384000D01*
X140185823Y-69580029D01*
X140045000Y-69920006D01*
X140045000Y-70287994D01*
X140185823Y-70627971D01*
X140256852Y-70699000D01*
X120398979Y-70699000D01*
X120332499Y-70685776D01*
X120266019Y-70699000D01*
X120069128Y-70738164D01*
X119845852Y-70887352D01*
X119808194Y-70943711D01*
X118336907Y-72415000D01*
X117266726Y-72415000D01*
X117242325Y-72390599D01*
X116939103Y-72265000D01*
X116610897Y-72265000D01*
X116307675Y-72390599D01*
X116075599Y-72622675D01*
X115950000Y-72925897D01*
X115950000Y-73254103D01*
X116075599Y-73557325D01*
X116307675Y-73789401D01*
X116610897Y-73915000D01*
X116939103Y-73915000D01*
X117242325Y-73789401D01*
X117266726Y-73765000D01*
X117943001Y-73765000D01*
X117943000Y-74999480D01*
X117943001Y-74999485D01*
X117943000Y-81423274D01*
X117918599Y-81447675D01*
X117793000Y-81750897D01*
X117793000Y-82079103D01*
X117918599Y-82382325D01*
X118150675Y-82614401D01*
X118453897Y-82740000D01*
X118782103Y-82740000D01*
X119085325Y-82614401D01*
X119317401Y-82382325D01*
X119443000Y-82079103D01*
X119443000Y-81750897D01*
X119317401Y-81447675D01*
X119293000Y-81423274D01*
X119293000Y-73368093D01*
X120612095Y-72049000D01*
X140903519Y-72049000D01*
X140970000Y-72062224D01*
X141036481Y-72049000D01*
X145105184Y-72049000D01*
X144048400Y-73105784D01*
X144002472Y-73136472D01*
X143880911Y-73318402D01*
X143870628Y-73370099D01*
X143838225Y-73533000D01*
X143849000Y-73587169D01*
X143849000Y-74110182D01*
X142667216Y-72928400D01*
X142636528Y-72882472D01*
X142454599Y-72760911D01*
X142294170Y-72729000D01*
X142294169Y-72729000D01*
X142240000Y-72718225D01*
X142185831Y-72729000D01*
X124895168Y-72729000D01*
X124840999Y-72718225D01*
X124796944Y-72726988D01*
X124751103Y-72708000D01*
X124422897Y-72708000D01*
X124119675Y-72833599D01*
X123887599Y-73065675D01*
X123762000Y-73368897D01*
X123762000Y-73697103D01*
X123887599Y-74000325D01*
X124119675Y-74232401D01*
X124422897Y-74358000D01*
X124751103Y-74358000D01*
X125054325Y-74232401D01*
X125286401Y-74000325D01*
X125357366Y-73829000D01*
X140852445Y-73829000D01*
X140780000Y-74003897D01*
X140780000Y-74332103D01*
X140905599Y-74635325D01*
X141055000Y-74784726D01*
X141055001Y-89180182D01*
X140001184Y-90234000D01*
X139789897Y-90234000D01*
X139486675Y-90359599D01*
X139254599Y-90591675D01*
X139129000Y-90894897D01*
X139129000Y-91223103D01*
X139254599Y-91526325D01*
X139486675Y-91758401D01*
X139789897Y-91884000D01*
X140118103Y-91884000D01*
X140421325Y-91758401D01*
X140653401Y-91526325D01*
X140779000Y-91223103D01*
X140779000Y-91011816D01*
X141131638Y-90659178D01*
X141034000Y-90894897D01*
X141034000Y-91223103D01*
X141159599Y-91526325D01*
X141391675Y-91758401D01*
X141694897Y-91884000D01*
X142023103Y-91884000D01*
X142326325Y-91758401D01*
X142558401Y-91526325D01*
X142684000Y-91223103D01*
X142684000Y-91011816D01*
X143098603Y-90597214D01*
X143144528Y-90566528D01*
X143266089Y-90384599D01*
X143298000Y-90224170D01*
X143298000Y-90224169D01*
X143308775Y-90170000D01*
X143298000Y-90115831D01*
X143298000Y-86601818D01*
X143914784Y-87218602D01*
X143945470Y-87264528D01*
X144127399Y-87386089D01*
X144287828Y-87418000D01*
X144287829Y-87418000D01*
X144341998Y-87428775D01*
X144396167Y-87418000D01*
X153358184Y-87418000D01*
X152661034Y-88115150D01*
X152564103Y-88075000D01*
X152235897Y-88075000D01*
X151932675Y-88200599D01*
X151700599Y-88432675D01*
X151575000Y-88735897D01*
X151575000Y-89064103D01*
X151700050Y-89366000D01*
X150984726Y-89366000D01*
X150835325Y-89216599D01*
X150532103Y-89091000D01*
X150203897Y-89091000D01*
X149900675Y-89216599D01*
X149668599Y-89448675D01*
X149543000Y-89751897D01*
X149543000Y-90080103D01*
X149668599Y-90383325D01*
X149900675Y-90615401D01*
X150203897Y-90741000D01*
X150532103Y-90741000D01*
X150835325Y-90615401D01*
X150984726Y-90466000D01*
X152472831Y-90466000D01*
X152527000Y-90476775D01*
X152581169Y-90466000D01*
X152581170Y-90466000D01*
X152741599Y-90434089D01*
X152923528Y-90312528D01*
X152954216Y-90266600D01*
X158465606Y-84755212D01*
X158511528Y-84724528D01*
X158633089Y-84542599D01*
X158665000Y-84382170D01*
X158675775Y-84328001D01*
X158665000Y-84273832D01*
X158665000Y-72825168D01*
X158675775Y-72770999D01*
X158663244Y-72708000D01*
X158633089Y-72556401D01*
X158511528Y-72374472D01*
X158465603Y-72343786D01*
X157499771Y-71377955D01*
X157544401Y-71333325D01*
X157670000Y-71030103D01*
X157670000Y-70701897D01*
X157544401Y-70398675D01*
X157312325Y-70166599D01*
X157009103Y-70041000D01*
X156680897Y-70041000D01*
X156377675Y-70166599D01*
X156145599Y-70398675D01*
X156125000Y-70448405D01*
X156125000Y-70077816D01*
X162004817Y-64198000D01*
X162216103Y-64198000D01*
X162519325Y-64072401D01*
X162751401Y-63840325D01*
X162877000Y-63537103D01*
X162877000Y-63208897D01*
X162751401Y-62905675D01*
X162519325Y-62673599D01*
X162216103Y-62548000D01*
X161977273Y-62548000D01*
X161862401Y-62270675D01*
X161630325Y-62038599D01*
X161447154Y-61962727D01*
X161459000Y-61903170D01*
X161459000Y-61903169D01*
X161469775Y-61849001D01*
X161464955Y-61824771D01*
X161608401Y-61681325D01*
X161734000Y-61378103D01*
X161734000Y-61049897D01*
X161608401Y-60746675D01*
X161376325Y-60514599D01*
X161073103Y-60389000D01*
X160744897Y-60389000D01*
X160441675Y-60514599D01*
X160209599Y-60746675D01*
X160084000Y-61049897D01*
X160084000Y-61378103D01*
X160209599Y-61681325D01*
X160254229Y-61725955D01*
X153065398Y-68914786D01*
X153019473Y-68945472D01*
X152988788Y-68991396D01*
X152897912Y-69127401D01*
X152855225Y-69342000D01*
X152866001Y-69396174D01*
X152866000Y-83465183D01*
X150775184Y-85556000D01*
X145269726Y-85556000D01*
X145120325Y-85406599D01*
X144817103Y-85281000D01*
X144488897Y-85281000D01*
X144187000Y-85406050D01*
X144187000Y-82974160D01*
X144234897Y-82994000D01*
X144563103Y-82994000D01*
X144866325Y-82868401D01*
X145098401Y-82636325D01*
X145224000Y-82333103D01*
X145224000Y-82004897D01*
X145098401Y-81701675D01*
X144949000Y-81552274D01*
X144949000Y-73760816D01*
X147405001Y-71304816D01*
X147405000Y-81552274D01*
X147255599Y-81701675D01*
X147130000Y-82004897D01*
X147130000Y-82333103D01*
X147255599Y-82636325D01*
X147487675Y-82868401D01*
X147790897Y-82994000D01*
X148119103Y-82994000D01*
X148422325Y-82868401D01*
X148654401Y-82636325D01*
X148780000Y-82333103D01*
X148780000Y-82004897D01*
X148654401Y-81701675D01*
X148505000Y-81552274D01*
X148505000Y-70966816D01*
X156560603Y-62911214D01*
X156606528Y-62880528D01*
X156728089Y-62698599D01*
X156760000Y-62538170D01*
X156760000Y-62538169D01*
X156770775Y-62484000D01*
X156760000Y-62429831D01*
X156760000Y-61195726D01*
X156909401Y-61046325D01*
X157035000Y-60743103D01*
X157035000Y-60414897D01*
X156909401Y-60111675D01*
X156677325Y-59879599D01*
X156374103Y-59754000D01*
X156288816Y-59754000D01*
X157707817Y-58335000D01*
X162070274Y-58335000D01*
X162219675Y-58484401D01*
X162522897Y-58610000D01*
X162851103Y-58610000D01*
X163154325Y-58484401D01*
X163386401Y-58252325D01*
X163512000Y-57949103D01*
X163512000Y-57620897D01*
X163386401Y-57317675D01*
X163154325Y-57085599D01*
X162851103Y-56960000D01*
X162522897Y-56960000D01*
X162219675Y-57085599D01*
X162070274Y-57235000D01*
X157841594Y-57235000D01*
X159942289Y-55134305D01*
X159998647Y-55096648D01*
X160147836Y-54873372D01*
X160187000Y-54676481D01*
X160187000Y-54676480D01*
X160200224Y-54610001D01*
X160187000Y-54543520D01*
X160187000Y-53011326D01*
X160274000Y-53011326D01*
X160439827Y-52978341D01*
X160580408Y-52884408D01*
X160674341Y-52743827D01*
X160707326Y-52578000D01*
X160707326Y-51054000D01*
X160674341Y-50888173D01*
X160580408Y-50747592D01*
X160439827Y-50653659D01*
X160274000Y-50620674D01*
X160187000Y-50620674D01*
X160187000Y-50471326D01*
X160274000Y-50471326D01*
X160439827Y-50438341D01*
X160580408Y-50344408D01*
X160674341Y-50203827D01*
X160707326Y-50038000D01*
X160707326Y-48514000D01*
X160856674Y-48514000D01*
X160856674Y-50038000D01*
X160889659Y-50203827D01*
X160983592Y-50344408D01*
X161124173Y-50438341D01*
X161290000Y-50471326D01*
X162814000Y-50471326D01*
X162979827Y-50438341D01*
X163120408Y-50344408D01*
X163213843Y-50204573D01*
X163293368Y-50396565D01*
X163442803Y-50546000D01*
X163293368Y-50695435D01*
X163213843Y-50887427D01*
X163120408Y-50747592D01*
X162979827Y-50653659D01*
X162814000Y-50620674D01*
X161290000Y-50620674D01*
X161124173Y-50653659D01*
X160983592Y-50747592D01*
X160889659Y-50888173D01*
X160856674Y-51054000D01*
X160856674Y-52578000D01*
X160889659Y-52743827D01*
X160983592Y-52884408D01*
X161124173Y-52978341D01*
X161290000Y-53011326D01*
X162814000Y-53011326D01*
X162979827Y-52978341D01*
X163120408Y-52884408D01*
X163213843Y-52744573D01*
X163293368Y-52936565D01*
X163471434Y-53114631D01*
X163704088Y-53211000D01*
X164304750Y-53211000D01*
X164463000Y-53052750D01*
X164463000Y-51945000D01*
X164721000Y-51945000D01*
X164721000Y-53052750D01*
X164879250Y-53211000D01*
X165479912Y-53211000D01*
X165712566Y-53114631D01*
X165890632Y-52936565D01*
X165987000Y-52703911D01*
X165987000Y-52103250D01*
X167769000Y-52103250D01*
X167769000Y-52703911D01*
X167865368Y-52936565D01*
X168043434Y-53114631D01*
X168276088Y-53211000D01*
X168876750Y-53211000D01*
X169035000Y-53052750D01*
X169035000Y-51945000D01*
X167927250Y-51945000D01*
X167769000Y-52103250D01*
X165987000Y-52103250D01*
X165828750Y-51945000D01*
X164721000Y-51945000D01*
X164463000Y-51945000D01*
X164443000Y-51945000D01*
X164443000Y-51687000D01*
X164463000Y-51687000D01*
X164463000Y-50579250D01*
X164429750Y-50546000D01*
X164463000Y-50512750D01*
X164463000Y-49405000D01*
X164721000Y-49405000D01*
X164721000Y-50512750D01*
X164754250Y-50546000D01*
X164721000Y-50579250D01*
X164721000Y-51687000D01*
X165828750Y-51687000D01*
X165987000Y-51528750D01*
X165987000Y-50928089D01*
X165890632Y-50695435D01*
X165741197Y-50546000D01*
X165890632Y-50396565D01*
X165987000Y-50163911D01*
X165987000Y-49563250D01*
X167769000Y-49563250D01*
X167769000Y-50163911D01*
X167865368Y-50396565D01*
X168014803Y-50546000D01*
X167865368Y-50695435D01*
X167769000Y-50928089D01*
X167769000Y-51528750D01*
X167927250Y-51687000D01*
X169035000Y-51687000D01*
X169035000Y-50579250D01*
X169001750Y-50546000D01*
X169035000Y-50512750D01*
X169035000Y-49405000D01*
X167927250Y-49405000D01*
X167769000Y-49563250D01*
X165987000Y-49563250D01*
X165828750Y-49405000D01*
X164721000Y-49405000D01*
X164463000Y-49405000D01*
X164443000Y-49405000D01*
X164443000Y-49147000D01*
X164463000Y-49147000D01*
X164463000Y-48039250D01*
X164721000Y-48039250D01*
X164721000Y-49147000D01*
X165828750Y-49147000D01*
X165987000Y-48988750D01*
X165987000Y-48388089D01*
X167769000Y-48388089D01*
X167769000Y-48988750D01*
X167927250Y-49147000D01*
X169035000Y-49147000D01*
X169035000Y-48039250D01*
X168876750Y-47881000D01*
X168276088Y-47881000D01*
X168043434Y-47977369D01*
X167865368Y-48155435D01*
X167769000Y-48388089D01*
X165987000Y-48388089D01*
X165890632Y-48155435D01*
X165712566Y-47977369D01*
X165479912Y-47881000D01*
X164879250Y-47881000D01*
X164721000Y-48039250D01*
X164463000Y-48039250D01*
X164304750Y-47881000D01*
X163704088Y-47881000D01*
X163471434Y-47977369D01*
X163293368Y-48155435D01*
X163213843Y-48347427D01*
X163120408Y-48207592D01*
X162979827Y-48113659D01*
X162814000Y-48080674D01*
X161290000Y-48080674D01*
X161124173Y-48113659D01*
X160983592Y-48207592D01*
X160889659Y-48348173D01*
X160856674Y-48514000D01*
X160707326Y-48514000D01*
X160674341Y-48348173D01*
X160580408Y-48207592D01*
X160439827Y-48113659D01*
X160274000Y-48080674D01*
X158750000Y-48080674D01*
X158584173Y-48113659D01*
X158443592Y-48207592D01*
X158349659Y-48348173D01*
X158316674Y-48514000D01*
X158316674Y-50038000D01*
X158349659Y-50203827D01*
X158443592Y-50344408D01*
X158584173Y-50438341D01*
X158750000Y-50471326D01*
X158837000Y-50471326D01*
X158837001Y-50620674D01*
X158750000Y-50620674D01*
X158584173Y-50653659D01*
X158443592Y-50747592D01*
X158349659Y-50888173D01*
X158316674Y-51054000D01*
X158316674Y-52578000D01*
X158349659Y-52743827D01*
X158443592Y-52884408D01*
X158584173Y-52978341D01*
X158750000Y-53011326D01*
X158837001Y-53011326D01*
X158837000Y-54330406D01*
X153874714Y-59292693D01*
X153818353Y-59330352D01*
X153780694Y-59386713D01*
X153669164Y-59553629D01*
X153616776Y-59817000D01*
X153630001Y-59883486D01*
X153630000Y-62077406D01*
X145008407Y-70699000D01*
X141683148Y-70699000D01*
X141754177Y-70627971D01*
X141895000Y-70287994D01*
X141895000Y-69920006D01*
X141754177Y-69580029D01*
X141558148Y-69384000D01*
X143320000Y-69384000D01*
X143320000Y-69506103D01*
X143445599Y-69809325D01*
X143677675Y-70041401D01*
X143980897Y-70167000D01*
X144309103Y-70167000D01*
X144612325Y-70041401D01*
X144844401Y-69809325D01*
X144970000Y-69506103D01*
X144970000Y-69177897D01*
X144844401Y-68874675D01*
X144612325Y-68642599D01*
X144309103Y-68517000D01*
X144097816Y-68517000D01*
X144064216Y-68483399D01*
X144033528Y-68437472D01*
X143851599Y-68315911D01*
X143691170Y-68284000D01*
X143691169Y-68284000D01*
X143637000Y-68273225D01*
X143582831Y-68284000D01*
X119099817Y-68284000D01*
X116903000Y-66087184D01*
X116903000Y-65875897D01*
X116777401Y-65572675D01*
X116545325Y-65340599D01*
X116242103Y-65215000D01*
X115913897Y-65215000D01*
X115610675Y-65340599D01*
X115378599Y-65572675D01*
X115253000Y-65875897D01*
X97274000Y-65875897D01*
X97274000Y-64978733D01*
X99486701Y-64978733D01*
X99585647Y-65244782D01*
X100194920Y-65470236D01*
X100844091Y-65445369D01*
X101328353Y-65244782D01*
X101427299Y-64978733D01*
X105986701Y-64978733D01*
X106085647Y-65244782D01*
X106694920Y-65470236D01*
X107344091Y-65445369D01*
X107828353Y-65244782D01*
X107927299Y-64978733D01*
X106957000Y-64008434D01*
X105986701Y-64978733D01*
X101427299Y-64978733D01*
X100457000Y-64008434D01*
X99486701Y-64978733D01*
X97274000Y-64978733D01*
X97274000Y-63563920D01*
X98812764Y-63563920D01*
X98837631Y-64213091D01*
X99038218Y-64697353D01*
X99304267Y-64796299D01*
X100274566Y-63826000D01*
X100639434Y-63826000D01*
X101609733Y-64796299D01*
X101875782Y-64697353D01*
X102101236Y-64088080D01*
X102081158Y-63563920D01*
X105312764Y-63563920D01*
X105337631Y-64213091D01*
X105538218Y-64697353D01*
X105804267Y-64796299D01*
X106774566Y-63826000D01*
X107139434Y-63826000D01*
X108109733Y-64796299D01*
X108375782Y-64697353D01*
X108601236Y-64088080D01*
X108576369Y-63438909D01*
X108375782Y-62954647D01*
X108109733Y-62855701D01*
X107139434Y-63826000D01*
X106774566Y-63826000D01*
X105804267Y-62855701D01*
X105538218Y-62954647D01*
X105312764Y-63563920D01*
X102081158Y-63563920D01*
X102076369Y-63438909D01*
X101875782Y-62954647D01*
X101609733Y-62855701D01*
X100639434Y-63826000D01*
X100274566Y-63826000D01*
X99304267Y-62855701D01*
X99038218Y-62954647D01*
X98812764Y-63563920D01*
X97274000Y-63563920D01*
X97274000Y-62673267D01*
X99486701Y-62673267D01*
X100457000Y-63643566D01*
X101427299Y-62673267D01*
X105986701Y-62673267D01*
X106957000Y-63643566D01*
X107927299Y-62673267D01*
X107828353Y-62407218D01*
X107219080Y-62181764D01*
X106569909Y-62206631D01*
X106085647Y-62407218D01*
X105986701Y-62673267D01*
X101427299Y-62673267D01*
X101328353Y-62407218D01*
X100719080Y-62181764D01*
X100069909Y-62206631D01*
X99585647Y-62407218D01*
X99486701Y-62673267D01*
X97274000Y-62673267D01*
X97274000Y-61938897D01*
X121222000Y-61938897D01*
X121222000Y-62267103D01*
X121347599Y-62570325D01*
X121579675Y-62802401D01*
X121882897Y-62928000D01*
X122211103Y-62928000D01*
X122514325Y-62802401D01*
X122663726Y-62653000D01*
X148743184Y-62653000D01*
X149670000Y-63579817D01*
X149670000Y-63791103D01*
X149795599Y-64094325D01*
X150027675Y-64326401D01*
X150330897Y-64452000D01*
X150659103Y-64452000D01*
X150962325Y-64326401D01*
X151194401Y-64094325D01*
X151320000Y-63791103D01*
X151320000Y-63462897D01*
X151194401Y-63159675D01*
X150962325Y-62927599D01*
X150659103Y-62802000D01*
X150447817Y-62802000D01*
X149398216Y-61752400D01*
X149367528Y-61706472D01*
X149185599Y-61584911D01*
X149025170Y-61553000D01*
X149025169Y-61553000D01*
X148971000Y-61542225D01*
X148916831Y-61553000D01*
X122663726Y-61553000D01*
X122514325Y-61403599D01*
X122211103Y-61278000D01*
X121882897Y-61278000D01*
X121579675Y-61403599D01*
X121347599Y-61635675D01*
X121222000Y-61938897D01*
X97274000Y-61938897D01*
X97274000Y-52478931D01*
X107445000Y-52478931D01*
X107445000Y-53185069D01*
X107715228Y-53837457D01*
X108214543Y-54336772D01*
X108866931Y-54607000D01*
X109573069Y-54607000D01*
X110225457Y-54336772D01*
X110724772Y-53837457D01*
X110995000Y-53185069D01*
X110995000Y-52478931D01*
X111562495Y-52478931D01*
X111562495Y-53185069D01*
X111832723Y-53837457D01*
X112332038Y-54336772D01*
X112984426Y-54607000D01*
X113690564Y-54607000D01*
X114342952Y-54336772D01*
X114842267Y-53837457D01*
X115112495Y-53185069D01*
X115112495Y-52478931D01*
X117097000Y-52478931D01*
X117097000Y-53185069D01*
X117367228Y-53837457D01*
X117866543Y-54336772D01*
X118518931Y-54607000D01*
X119225069Y-54607000D01*
X119877457Y-54336772D01*
X120376772Y-53837457D01*
X120647000Y-53185069D01*
X120647000Y-52478931D01*
X121161000Y-52478931D01*
X121161000Y-53185069D01*
X121431228Y-53837457D01*
X121930543Y-54336772D01*
X122582931Y-54607000D01*
X123289069Y-54607000D01*
X123941457Y-54336772D01*
X124440772Y-53837457D01*
X124711000Y-53185069D01*
X124711000Y-52478931D01*
X124440772Y-51826543D01*
X123941457Y-51327228D01*
X123289069Y-51057000D01*
X122582931Y-51057000D01*
X121930543Y-51327228D01*
X121431228Y-51826543D01*
X121161000Y-52478931D01*
X120647000Y-52478931D01*
X120376772Y-51826543D01*
X119877457Y-51327228D01*
X119225069Y-51057000D01*
X118518931Y-51057000D01*
X117866543Y-51327228D01*
X117367228Y-51826543D01*
X117097000Y-52478931D01*
X115112495Y-52478931D01*
X114842267Y-51826543D01*
X114342952Y-51327228D01*
X113690564Y-51057000D01*
X112984426Y-51057000D01*
X112332038Y-51327228D01*
X111832723Y-51826543D01*
X111562495Y-52478931D01*
X110995000Y-52478931D01*
X110724772Y-51826543D01*
X110225457Y-51327228D01*
X109573069Y-51057000D01*
X108866931Y-51057000D01*
X108214543Y-51327228D01*
X107715228Y-51826543D01*
X107445000Y-52478931D01*
X97274000Y-52478931D01*
X97274000Y-51054000D01*
X128344674Y-51054000D01*
X128344674Y-52578000D01*
X128377659Y-52743827D01*
X128471592Y-52884408D01*
X128612173Y-52978341D01*
X128778000Y-53011326D01*
X130302000Y-53011326D01*
X130467827Y-52978341D01*
X130608408Y-52884408D01*
X130702341Y-52743827D01*
X130735326Y-52578000D01*
X130735326Y-51054000D01*
X130884674Y-51054000D01*
X130884674Y-52578000D01*
X130917659Y-52743827D01*
X131011592Y-52884408D01*
X131152173Y-52978341D01*
X131318000Y-53011326D01*
X132842000Y-53011326D01*
X133007827Y-52978341D01*
X133148408Y-52884408D01*
X133242341Y-52743827D01*
X133275326Y-52578000D01*
X133275326Y-51054000D01*
X133424674Y-51054000D01*
X133424674Y-52578000D01*
X133457659Y-52743827D01*
X133551592Y-52884408D01*
X133692173Y-52978341D01*
X133858000Y-53011326D01*
X135382000Y-53011326D01*
X135547827Y-52978341D01*
X135688408Y-52884408D01*
X135782341Y-52743827D01*
X135815326Y-52578000D01*
X135815326Y-51054000D01*
X135964674Y-51054000D01*
X135964674Y-52578000D01*
X135997659Y-52743827D01*
X136091592Y-52884408D01*
X136232173Y-52978341D01*
X136398000Y-53011326D01*
X137922000Y-53011326D01*
X138087827Y-52978341D01*
X138228408Y-52884408D01*
X138322341Y-52743827D01*
X138355326Y-52578000D01*
X138355326Y-51054000D01*
X138504674Y-51054000D01*
X138504674Y-52578000D01*
X138537659Y-52743827D01*
X138631592Y-52884408D01*
X138772173Y-52978341D01*
X138938000Y-53011326D01*
X140462000Y-53011326D01*
X140627827Y-52978341D01*
X140768408Y-52884408D01*
X140862341Y-52743827D01*
X140895326Y-52578000D01*
X140895326Y-51054000D01*
X141044674Y-51054000D01*
X141044674Y-52578000D01*
X141077659Y-52743827D01*
X141171592Y-52884408D01*
X141312173Y-52978341D01*
X141478000Y-53011326D01*
X143002000Y-53011326D01*
X143167827Y-52978341D01*
X143308408Y-52884408D01*
X143402341Y-52743827D01*
X143435326Y-52578000D01*
X143435326Y-51054000D01*
X143584674Y-51054000D01*
X143584674Y-52578000D01*
X143617659Y-52743827D01*
X143711592Y-52884408D01*
X143852173Y-52978341D01*
X144018000Y-53011326D01*
X145542000Y-53011326D01*
X145707827Y-52978341D01*
X145848408Y-52884408D01*
X145942341Y-52743827D01*
X145975326Y-52578000D01*
X145975326Y-51054000D01*
X146124674Y-51054000D01*
X146124674Y-52578000D01*
X146157659Y-52743827D01*
X146251592Y-52884408D01*
X146392173Y-52978341D01*
X146558000Y-53011326D01*
X148082000Y-53011326D01*
X148247827Y-52978341D01*
X148388408Y-52884408D01*
X148482341Y-52743827D01*
X148515326Y-52578000D01*
X148515326Y-51054000D01*
X148664674Y-51054000D01*
X148664674Y-52578000D01*
X148697659Y-52743827D01*
X148791592Y-52884408D01*
X148932173Y-52978341D01*
X149098000Y-53011326D01*
X150622000Y-53011326D01*
X150787827Y-52978341D01*
X150928408Y-52884408D01*
X151022341Y-52743827D01*
X151055326Y-52578000D01*
X151055326Y-52103250D01*
X153037000Y-52103250D01*
X153037000Y-52703911D01*
X153133368Y-52936565D01*
X153311434Y-53114631D01*
X153544088Y-53211000D01*
X154144750Y-53211000D01*
X154303000Y-53052750D01*
X154303000Y-51945000D01*
X153195250Y-51945000D01*
X153037000Y-52103250D01*
X151055326Y-52103250D01*
X151055326Y-51054000D01*
X151022341Y-50888173D01*
X150928408Y-50747592D01*
X150787827Y-50653659D01*
X150622000Y-50620674D01*
X149098000Y-50620674D01*
X148932173Y-50653659D01*
X148791592Y-50747592D01*
X148697659Y-50888173D01*
X148664674Y-51054000D01*
X148515326Y-51054000D01*
X148482341Y-50888173D01*
X148388408Y-50747592D01*
X148247827Y-50653659D01*
X148082000Y-50620674D01*
X146558000Y-50620674D01*
X146392173Y-50653659D01*
X146251592Y-50747592D01*
X146157659Y-50888173D01*
X146124674Y-51054000D01*
X145975326Y-51054000D01*
X145942341Y-50888173D01*
X145848408Y-50747592D01*
X145707827Y-50653659D01*
X145542000Y-50620674D01*
X144018000Y-50620674D01*
X143852173Y-50653659D01*
X143711592Y-50747592D01*
X143617659Y-50888173D01*
X143584674Y-51054000D01*
X143435326Y-51054000D01*
X143402341Y-50888173D01*
X143308408Y-50747592D01*
X143167827Y-50653659D01*
X143002000Y-50620674D01*
X141478000Y-50620674D01*
X141312173Y-50653659D01*
X141171592Y-50747592D01*
X141077659Y-50888173D01*
X141044674Y-51054000D01*
X140895326Y-51054000D01*
X140862341Y-50888173D01*
X140768408Y-50747592D01*
X140627827Y-50653659D01*
X140462000Y-50620674D01*
X138938000Y-50620674D01*
X138772173Y-50653659D01*
X138631592Y-50747592D01*
X138537659Y-50888173D01*
X138504674Y-51054000D01*
X138355326Y-51054000D01*
X138322341Y-50888173D01*
X138228408Y-50747592D01*
X138087827Y-50653659D01*
X137922000Y-50620674D01*
X136398000Y-50620674D01*
X136232173Y-50653659D01*
X136091592Y-50747592D01*
X135997659Y-50888173D01*
X135964674Y-51054000D01*
X135815326Y-51054000D01*
X135782341Y-50888173D01*
X135688408Y-50747592D01*
X135547827Y-50653659D01*
X135382000Y-50620674D01*
X133858000Y-50620674D01*
X133692173Y-50653659D01*
X133551592Y-50747592D01*
X133457659Y-50888173D01*
X133424674Y-51054000D01*
X133275326Y-51054000D01*
X133242341Y-50888173D01*
X133148408Y-50747592D01*
X133007827Y-50653659D01*
X132842000Y-50620674D01*
X131318000Y-50620674D01*
X131152173Y-50653659D01*
X131011592Y-50747592D01*
X130917659Y-50888173D01*
X130884674Y-51054000D01*
X130735326Y-51054000D01*
X130702341Y-50888173D01*
X130608408Y-50747592D01*
X130467827Y-50653659D01*
X130302000Y-50620674D01*
X128778000Y-50620674D01*
X128612173Y-50653659D01*
X128471592Y-50747592D01*
X128377659Y-50888173D01*
X128344674Y-51054000D01*
X97274000Y-51054000D01*
X97274000Y-48514000D01*
X128344674Y-48514000D01*
X128344674Y-50038000D01*
X128377659Y-50203827D01*
X128471592Y-50344408D01*
X128612173Y-50438341D01*
X128778000Y-50471326D01*
X130302000Y-50471326D01*
X130467827Y-50438341D01*
X130608408Y-50344408D01*
X130702341Y-50203827D01*
X130735326Y-50038000D01*
X130735326Y-48514000D01*
X130884674Y-48514000D01*
X130884674Y-50038000D01*
X130917659Y-50203827D01*
X131011592Y-50344408D01*
X131152173Y-50438341D01*
X131318000Y-50471326D01*
X132842000Y-50471326D01*
X133007827Y-50438341D01*
X133148408Y-50344408D01*
X133242341Y-50203827D01*
X133275326Y-50038000D01*
X133275326Y-48514000D01*
X133424674Y-48514000D01*
X133424674Y-50038000D01*
X133457659Y-50203827D01*
X133551592Y-50344408D01*
X133692173Y-50438341D01*
X133858000Y-50471326D01*
X135382000Y-50471326D01*
X135547827Y-50438341D01*
X135688408Y-50344408D01*
X135782341Y-50203827D01*
X135815326Y-50038000D01*
X135815326Y-48514000D01*
X135964674Y-48514000D01*
X135964674Y-50038000D01*
X135997659Y-50203827D01*
X136091592Y-50344408D01*
X136232173Y-50438341D01*
X136398000Y-50471326D01*
X137922000Y-50471326D01*
X138087827Y-50438341D01*
X138228408Y-50344408D01*
X138322341Y-50203827D01*
X138355326Y-50038000D01*
X138355326Y-48514000D01*
X138504674Y-48514000D01*
X138504674Y-50038000D01*
X138537659Y-50203827D01*
X138631592Y-50344408D01*
X138772173Y-50438341D01*
X138938000Y-50471326D01*
X140462000Y-50471326D01*
X140627827Y-50438341D01*
X140768408Y-50344408D01*
X140862341Y-50203827D01*
X140895326Y-50038000D01*
X140895326Y-48514000D01*
X141044674Y-48514000D01*
X141044674Y-50038000D01*
X141077659Y-50203827D01*
X141171592Y-50344408D01*
X141312173Y-50438341D01*
X141478000Y-50471326D01*
X143002000Y-50471326D01*
X143167827Y-50438341D01*
X143308408Y-50344408D01*
X143402341Y-50203827D01*
X143435326Y-50038000D01*
X143435326Y-48514000D01*
X143584674Y-48514000D01*
X143584674Y-50038000D01*
X143617659Y-50203827D01*
X143711592Y-50344408D01*
X143852173Y-50438341D01*
X144018000Y-50471326D01*
X145542000Y-50471326D01*
X145707827Y-50438341D01*
X145848408Y-50344408D01*
X145942341Y-50203827D01*
X145975326Y-50038000D01*
X145975326Y-48514000D01*
X146124674Y-48514000D01*
X146124674Y-50038000D01*
X146157659Y-50203827D01*
X146251592Y-50344408D01*
X146392173Y-50438341D01*
X146558000Y-50471326D01*
X148082000Y-50471326D01*
X148247827Y-50438341D01*
X148388408Y-50344408D01*
X148482341Y-50203827D01*
X148515326Y-50038000D01*
X148515326Y-48514000D01*
X148664674Y-48514000D01*
X148664674Y-50038000D01*
X148697659Y-50203827D01*
X148791592Y-50344408D01*
X148932173Y-50438341D01*
X149098000Y-50471326D01*
X150622000Y-50471326D01*
X150787827Y-50438341D01*
X150928408Y-50344408D01*
X151022341Y-50203827D01*
X151055326Y-50038000D01*
X151055326Y-49563250D01*
X153037000Y-49563250D01*
X153037000Y-50163911D01*
X153133368Y-50396565D01*
X153282803Y-50546000D01*
X153133368Y-50695435D01*
X153037000Y-50928089D01*
X153037000Y-51528750D01*
X153195250Y-51687000D01*
X154303000Y-51687000D01*
X154303000Y-50579250D01*
X154269750Y-50546000D01*
X154303000Y-50512750D01*
X154303000Y-49405000D01*
X153195250Y-49405000D01*
X153037000Y-49563250D01*
X151055326Y-49563250D01*
X151055326Y-48514000D01*
X151030281Y-48388089D01*
X153037000Y-48388089D01*
X153037000Y-48988750D01*
X153195250Y-49147000D01*
X154303000Y-49147000D01*
X154303000Y-48039250D01*
X154561000Y-48039250D01*
X154561000Y-49147000D01*
X154581000Y-49147000D01*
X154581000Y-49405000D01*
X154561000Y-49405000D01*
X154561000Y-50512750D01*
X154594250Y-50546000D01*
X154561000Y-50579250D01*
X154561000Y-51687000D01*
X154581000Y-51687000D01*
X154581000Y-51945000D01*
X154561000Y-51945000D01*
X154561000Y-53052750D01*
X154719250Y-53211000D01*
X155319912Y-53211000D01*
X155552566Y-53114631D01*
X155730632Y-52936565D01*
X155810157Y-52744573D01*
X155903592Y-52884408D01*
X156044173Y-52978341D01*
X156210000Y-53011326D01*
X157734000Y-53011326D01*
X157899827Y-52978341D01*
X158040408Y-52884408D01*
X158134341Y-52743827D01*
X158167326Y-52578000D01*
X158167326Y-51054000D01*
X158134341Y-50888173D01*
X158040408Y-50747592D01*
X157899827Y-50653659D01*
X157734000Y-50620674D01*
X156210000Y-50620674D01*
X156044173Y-50653659D01*
X155903592Y-50747592D01*
X155810157Y-50887427D01*
X155730632Y-50695435D01*
X155581197Y-50546000D01*
X155730632Y-50396565D01*
X155810157Y-50204573D01*
X155903592Y-50344408D01*
X156044173Y-50438341D01*
X156210000Y-50471326D01*
X157734000Y-50471326D01*
X157899827Y-50438341D01*
X158040408Y-50344408D01*
X158134341Y-50203827D01*
X158167326Y-50038000D01*
X158167326Y-48514000D01*
X158134341Y-48348173D01*
X158040408Y-48207592D01*
X157899827Y-48113659D01*
X157734000Y-48080674D01*
X156210000Y-48080674D01*
X156044173Y-48113659D01*
X155903592Y-48207592D01*
X155810157Y-48347427D01*
X155730632Y-48155435D01*
X155552566Y-47977369D01*
X155319912Y-47881000D01*
X154719250Y-47881000D01*
X154561000Y-48039250D01*
X154303000Y-48039250D01*
X154144750Y-47881000D01*
X153544088Y-47881000D01*
X153311434Y-47977369D01*
X153133368Y-48155435D01*
X153037000Y-48388089D01*
X151030281Y-48388089D01*
X151022341Y-48348173D01*
X150928408Y-48207592D01*
X150787827Y-48113659D01*
X150622000Y-48080674D01*
X149098000Y-48080674D01*
X148932173Y-48113659D01*
X148791592Y-48207592D01*
X148697659Y-48348173D01*
X148664674Y-48514000D01*
X148515326Y-48514000D01*
X148482341Y-48348173D01*
X148388408Y-48207592D01*
X148247827Y-48113659D01*
X148082000Y-48080674D01*
X146558000Y-48080674D01*
X146392173Y-48113659D01*
X146251592Y-48207592D01*
X146157659Y-48348173D01*
X146124674Y-48514000D01*
X145975326Y-48514000D01*
X145942341Y-48348173D01*
X145848408Y-48207592D01*
X145707827Y-48113659D01*
X145542000Y-48080674D01*
X144018000Y-48080674D01*
X143852173Y-48113659D01*
X143711592Y-48207592D01*
X143617659Y-48348173D01*
X143584674Y-48514000D01*
X143435326Y-48514000D01*
X143402341Y-48348173D01*
X143308408Y-48207592D01*
X143167827Y-48113659D01*
X143002000Y-48080674D01*
X141478000Y-48080674D01*
X141312173Y-48113659D01*
X141171592Y-48207592D01*
X141077659Y-48348173D01*
X141044674Y-48514000D01*
X140895326Y-48514000D01*
X140862341Y-48348173D01*
X140768408Y-48207592D01*
X140627827Y-48113659D01*
X140462000Y-48080674D01*
X138938000Y-48080674D01*
X138772173Y-48113659D01*
X138631592Y-48207592D01*
X138537659Y-48348173D01*
X138504674Y-48514000D01*
X138355326Y-48514000D01*
X138322341Y-48348173D01*
X138228408Y-48207592D01*
X138087827Y-48113659D01*
X137922000Y-48080674D01*
X136398000Y-48080674D01*
X136232173Y-48113659D01*
X136091592Y-48207592D01*
X135997659Y-48348173D01*
X135964674Y-48514000D01*
X135815326Y-48514000D01*
X135782341Y-48348173D01*
X135688408Y-48207592D01*
X135547827Y-48113659D01*
X135382000Y-48080674D01*
X133858000Y-48080674D01*
X133692173Y-48113659D01*
X133551592Y-48207592D01*
X133457659Y-48348173D01*
X133424674Y-48514000D01*
X133275326Y-48514000D01*
X133242341Y-48348173D01*
X133148408Y-48207592D01*
X133007827Y-48113659D01*
X132842000Y-48080674D01*
X131318000Y-48080674D01*
X131152173Y-48113659D01*
X131011592Y-48207592D01*
X130917659Y-48348173D01*
X130884674Y-48514000D01*
X130735326Y-48514000D01*
X130702341Y-48348173D01*
X130608408Y-48207592D01*
X130467827Y-48113659D01*
X130302000Y-48080674D01*
X128778000Y-48080674D01*
X128612173Y-48113659D01*
X128471592Y-48207592D01*
X128377659Y-48348173D01*
X128344674Y-48514000D01*
X97274000Y-48514000D01*
X97274000Y-46474000D01*
X207526001Y-46474000D01*
X207526000Y-136406000D01*
X207526000Y-136406000D01*
G37*
X207526000Y-136406000D02*
X97274000Y-136406000D01*
X97274000Y-109220000D01*
X109440431Y-109220000D01*
X109485000Y-109444063D01*
X109485001Y-113063931D01*
X109440431Y-113287998D01*
X109485001Y-113512066D01*
X109485000Y-119155937D01*
X109485000Y-122684937D01*
X109440431Y-122909000D01*
X109616998Y-123796661D01*
X110020014Y-124399817D01*
X110119817Y-124549183D01*
X110309771Y-124676106D01*
X111707674Y-126074010D01*
X111707674Y-127705000D01*
X111740659Y-127870827D01*
X111771001Y-127916236D01*
X111771000Y-128683764D01*
X111740659Y-128729173D01*
X111707674Y-128895000D01*
X111707674Y-132705000D01*
X111740659Y-132870827D01*
X111834592Y-133011408D01*
X111975173Y-133105341D01*
X112141000Y-133138326D01*
X115951000Y-133138326D01*
X116116827Y-133105341D01*
X116257408Y-133011408D01*
X116351341Y-132870827D01*
X116384326Y-132705000D01*
X116384326Y-128895000D01*
X116351341Y-128729173D01*
X116321000Y-128683764D01*
X116321000Y-127916236D01*
X116351341Y-127870827D01*
X116384326Y-127705000D01*
X116384326Y-123895000D01*
X116787674Y-123895000D01*
X116787674Y-127705000D01*
X116820659Y-127870827D01*
X116851000Y-127916236D01*
X116851000Y-128683764D01*
X116820659Y-128729173D01*
X116787674Y-128895000D01*
X116787674Y-132705000D01*
X116820659Y-132870827D01*
X116914592Y-133011408D01*
X117055173Y-133105341D01*
X117221000Y-133138326D01*
X121031000Y-133138326D01*
X121196827Y-133105341D01*
X121337408Y-133011408D01*
X121431341Y-132870827D01*
X121464326Y-132705000D01*
X121464326Y-128895000D01*
X121431341Y-128729173D01*
X121401000Y-128683764D01*
X121401000Y-127916236D01*
X121431341Y-127870827D01*
X121464326Y-127705000D01*
X121464326Y-123895000D01*
X121431341Y-123729173D01*
X121401000Y-123683764D01*
X121401000Y-116811904D01*
X121772002Y-116256660D01*
X121948568Y-115369001D01*
X121772002Y-114481341D01*
X121269182Y-113728818D01*
X120516659Y-113225998D01*
X119628999Y-113049432D01*
X118741340Y-113225998D01*
X118178769Y-113601896D01*
X117675772Y-114104893D01*
X117485817Y-114231817D01*
X116982998Y-114984339D01*
X116806431Y-115872000D01*
X116851001Y-116096068D01*
X116851000Y-123160062D01*
X116851001Y-123160067D01*
X116851001Y-123683763D01*
X116820659Y-123729173D01*
X116787674Y-123895000D01*
X116384326Y-123895000D01*
X116351341Y-123729173D01*
X116257408Y-123588592D01*
X116116827Y-123494659D01*
X115951000Y-123461674D01*
X115546785Y-123461674D01*
X115496231Y-123427895D01*
X114035000Y-121966665D01*
X114035000Y-114230333D01*
X114045442Y-114219891D01*
X114035674Y-114269000D01*
X114035674Y-116469000D01*
X114068659Y-116634827D01*
X114162592Y-116775408D01*
X114303173Y-116869341D01*
X114469000Y-116902326D01*
X114509257Y-116902326D01*
X114527363Y-116993352D01*
X114622372Y-117135544D01*
X114622374Y-117135546D01*
X114654450Y-117183551D01*
X114702455Y-117215627D01*
X114741000Y-117254172D01*
X114741000Y-117264274D01*
X114616599Y-117388675D01*
X114491000Y-117691897D01*
X114491000Y-118020103D01*
X114616599Y-118323325D01*
X114848675Y-118555401D01*
X115151897Y-118681000D01*
X115480103Y-118681000D01*
X115783325Y-118555401D01*
X116015401Y-118323325D01*
X116141000Y-118020103D01*
X116141000Y-117691897D01*
X116015401Y-117388675D01*
X115891000Y-117264274D01*
X115891000Y-117072624D01*
X115902263Y-117016000D01*
X115891000Y-116959376D01*
X115891000Y-116959372D01*
X115868603Y-116846773D01*
X115975408Y-116775408D01*
X116069341Y-116634827D01*
X116102326Y-116469000D01*
X116102326Y-114269000D01*
X116069341Y-114103173D01*
X115975408Y-113962592D01*
X115834827Y-113868659D01*
X115669000Y-113835674D01*
X114469000Y-113835674D01*
X114419891Y-113845442D01*
X115563008Y-112702326D01*
X120249000Y-112702326D01*
X120414827Y-112669341D01*
X120555408Y-112575408D01*
X120649341Y-112434827D01*
X120682326Y-112269000D01*
X120682326Y-109220000D01*
X122140431Y-109220000D01*
X122185000Y-109444063D01*
X122185001Y-113145931D01*
X122140431Y-113369998D01*
X122185000Y-113594061D01*
X122185000Y-116048062D01*
X122185001Y-116048067D01*
X122185000Y-120679937D01*
X122185000Y-123192937D01*
X122140431Y-123417000D01*
X122221321Y-123823660D01*
X122316998Y-124304660D01*
X122819817Y-125057183D01*
X123009771Y-125184106D01*
X123899674Y-126074010D01*
X123899674Y-127705000D01*
X123932659Y-127870827D01*
X123963001Y-127916236D01*
X123963000Y-128683764D01*
X123932659Y-128729173D01*
X123899674Y-128895000D01*
X123899674Y-132705000D01*
X123932659Y-132870827D01*
X124026592Y-133011408D01*
X124167173Y-133105341D01*
X124333000Y-133138326D01*
X128143000Y-133138326D01*
X128308827Y-133105341D01*
X128449408Y-133011408D01*
X128543341Y-132870827D01*
X128576326Y-132705000D01*
X128576326Y-128895000D01*
X128543341Y-128729173D01*
X128513000Y-128683764D01*
X128513000Y-127916236D01*
X128543341Y-127870827D01*
X128576326Y-127705000D01*
X128576326Y-123895000D01*
X128979674Y-123895000D01*
X128979674Y-127705000D01*
X129012659Y-127870827D01*
X129043000Y-127916236D01*
X129043000Y-128683764D01*
X129012659Y-128729173D01*
X128979674Y-128895000D01*
X128979674Y-132705000D01*
X129012659Y-132870827D01*
X129106592Y-133011408D01*
X129247173Y-133105341D01*
X129413000Y-133138326D01*
X133223000Y-133138326D01*
X133388827Y-133105341D01*
X133529408Y-133011408D01*
X133623341Y-132870827D01*
X133656326Y-132705000D01*
X133656326Y-128895000D01*
X133623341Y-128729173D01*
X133593000Y-128683764D01*
X133593000Y-127916236D01*
X133623341Y-127870827D01*
X133656326Y-127705000D01*
X133656326Y-123895000D01*
X133623341Y-123729173D01*
X133593000Y-123683764D01*
X133593000Y-117404335D01*
X134095104Y-116902231D01*
X134471002Y-116339660D01*
X134647569Y-115452000D01*
X134471002Y-114564340D01*
X133968183Y-113811817D01*
X133215660Y-113308998D01*
X132328000Y-113132431D01*
X131440340Y-113308998D01*
X130877769Y-113684896D01*
X129867772Y-114694893D01*
X129677817Y-114821817D01*
X129174998Y-115574339D01*
X128998431Y-116462000D01*
X129043001Y-116686068D01*
X129043000Y-120171936D01*
X129043000Y-123160062D01*
X129043001Y-123160067D01*
X129043001Y-123683763D01*
X129012659Y-123729173D01*
X128979674Y-123895000D01*
X128576326Y-123895000D01*
X128543341Y-123729173D01*
X128449408Y-123588592D01*
X128308827Y-123494659D01*
X128143000Y-123461674D01*
X127738785Y-123461674D01*
X127688231Y-123427895D01*
X126735000Y-122474665D01*
X126735000Y-116553639D01*
X126767659Y-116717827D01*
X126861592Y-116858408D01*
X127002173Y-116952341D01*
X127168000Y-116985326D01*
X127208257Y-116985326D01*
X127226363Y-117076352D01*
X127321372Y-117218544D01*
X127321374Y-117218546D01*
X127353450Y-117266551D01*
X127401455Y-117298627D01*
X127404051Y-117301223D01*
X127316599Y-117388675D01*
X127191000Y-117691897D01*
X127191000Y-118020103D01*
X127316599Y-118323325D01*
X127548675Y-118555401D01*
X127851897Y-118681000D01*
X128180103Y-118681000D01*
X128483325Y-118555401D01*
X128715401Y-118323325D01*
X128841000Y-118020103D01*
X128841000Y-117691897D01*
X128715401Y-117388675D01*
X128591000Y-117264274D01*
X128591000Y-117156623D01*
X128602263Y-117100000D01*
X128591000Y-117043376D01*
X128591000Y-117043372D01*
X128568310Y-116929301D01*
X128674408Y-116858408D01*
X128768341Y-116717827D01*
X128801326Y-116552000D01*
X128801326Y-114352000D01*
X128768341Y-114186173D01*
X128674408Y-114045592D01*
X128533827Y-113951659D01*
X128368000Y-113918674D01*
X127168000Y-113918674D01*
X127118891Y-113928442D01*
X128262008Y-112785326D01*
X132948000Y-112785326D01*
X133113827Y-112752341D01*
X133254408Y-112658408D01*
X133348341Y-112517827D01*
X133381326Y-112352000D01*
X133381326Y-109347000D01*
X141190431Y-109347000D01*
X141235000Y-109571063D01*
X141235000Y-112680935D01*
X141190431Y-112904998D01*
X141235001Y-113129066D01*
X141235000Y-119731062D01*
X141235001Y-119731066D01*
X141235000Y-123092937D01*
X141190431Y-123317000D01*
X141233880Y-123535433D01*
X141232766Y-123758138D01*
X141321307Y-123974956D01*
X141366998Y-124204660D01*
X141615218Y-124576147D01*
X142949674Y-126595096D01*
X142949674Y-127912000D01*
X142982659Y-128077827D01*
X143013001Y-128123236D01*
X143013000Y-128890764D01*
X142982659Y-128936173D01*
X142949674Y-129102000D01*
X142949674Y-132912000D01*
X142982659Y-133077827D01*
X143076592Y-133218408D01*
X143217173Y-133312341D01*
X143383000Y-133345326D01*
X147193000Y-133345326D01*
X147358827Y-133312341D01*
X147499408Y-133218408D01*
X147593341Y-133077827D01*
X147626326Y-132912000D01*
X147626326Y-129102000D01*
X147593341Y-128936173D01*
X147563000Y-128890764D01*
X147563000Y-128123236D01*
X147593341Y-128077827D01*
X147626326Y-127912000D01*
X147626326Y-124102000D01*
X148029674Y-124102000D01*
X148029674Y-127912000D01*
X148062659Y-128077827D01*
X148093000Y-128123236D01*
X148093000Y-128890764D01*
X148062659Y-128936173D01*
X148029674Y-129102000D01*
X148029674Y-132912000D01*
X148062659Y-133077827D01*
X148156592Y-133218408D01*
X148297173Y-133312341D01*
X148463000Y-133345326D01*
X152273000Y-133345326D01*
X152438827Y-133312341D01*
X152579408Y-133218408D01*
X152673341Y-133077827D01*
X152706326Y-132912000D01*
X152706326Y-129102000D01*
X152673341Y-128936173D01*
X152643000Y-128890764D01*
X152643000Y-128123236D01*
X152673341Y-128077827D01*
X152706326Y-127912000D01*
X152706326Y-124102000D01*
X152673341Y-123936173D01*
X152643000Y-123890764D01*
X152643000Y-116935910D01*
X153012002Y-116383660D01*
X153188569Y-115496000D01*
X153012002Y-114608340D01*
X152509182Y-113855818D01*
X151756660Y-113352998D01*
X150869000Y-113176431D01*
X149981340Y-113352998D01*
X149418769Y-113728896D01*
X148917772Y-114229893D01*
X148727817Y-114356817D01*
X148224998Y-115109339D01*
X148048431Y-115997000D01*
X148093001Y-116221068D01*
X148093000Y-123287062D01*
X148093001Y-123287067D01*
X148093001Y-123890763D01*
X148062659Y-123936173D01*
X148029674Y-124102000D01*
X147626326Y-124102000D01*
X147593341Y-123936173D01*
X147499408Y-123795592D01*
X147358827Y-123701659D01*
X147193000Y-123668674D01*
X147071077Y-123668674D01*
X147055104Y-123644768D01*
X145785000Y-122374665D01*
X145785000Y-118272642D01*
X145858599Y-118450325D01*
X146090675Y-118682401D01*
X146393897Y-118808000D01*
X146722103Y-118808000D01*
X147025325Y-118682401D01*
X147257401Y-118450325D01*
X147383000Y-118147103D01*
X147383000Y-117818897D01*
X147257401Y-117515675D01*
X147133000Y-117391274D01*
X147133000Y-117201623D01*
X147144263Y-117144999D01*
X147133000Y-117088373D01*
X147133000Y-117088372D01*
X147110017Y-116972828D01*
X147215408Y-116902408D01*
X147309341Y-116761827D01*
X147342326Y-116596000D01*
X147342326Y-114396000D01*
X147309341Y-114230173D01*
X147215408Y-114089592D01*
X147074827Y-113995659D01*
X146909000Y-113962674D01*
X145785000Y-113962674D01*
X145785000Y-113847333D01*
X146803007Y-112829326D01*
X151489000Y-112829326D01*
X151654827Y-112796341D01*
X151795408Y-112702408D01*
X151889341Y-112561827D01*
X151922326Y-112396000D01*
X151922326Y-109347000D01*
X153890431Y-109347000D01*
X153935000Y-109571064D01*
X153935001Y-112832931D01*
X153890431Y-113056998D01*
X153935000Y-113281061D01*
X153935000Y-118715062D01*
X153935001Y-118715067D01*
X153935000Y-123092937D01*
X153890431Y-123317000D01*
X153901545Y-123372874D01*
X153893148Y-123429213D01*
X153989452Y-123814813D01*
X154016474Y-123950660D01*
X154066998Y-124204660D01*
X154224735Y-124440731D01*
X155141674Y-126382909D01*
X155141674Y-127912000D01*
X155174659Y-128077827D01*
X155205001Y-128123236D01*
X155205000Y-128890764D01*
X155174659Y-128936173D01*
X155141674Y-129102000D01*
X155141674Y-132912000D01*
X155174659Y-133077827D01*
X155268592Y-133218408D01*
X155409173Y-133312341D01*
X155575000Y-133345326D01*
X159385000Y-133345326D01*
X159550827Y-133312341D01*
X159691408Y-133218408D01*
X159785341Y-133077827D01*
X159818326Y-132912000D01*
X159818326Y-129102000D01*
X159785341Y-128936173D01*
X159755000Y-128890764D01*
X159755000Y-128123236D01*
X159785341Y-128077827D01*
X159818326Y-127912000D01*
X159818326Y-124102000D01*
X160221674Y-124102000D01*
X160221674Y-127912000D01*
X160254659Y-128077827D01*
X160285000Y-128123236D01*
X160285000Y-128890764D01*
X160254659Y-128936173D01*
X160221674Y-129102000D01*
X160221674Y-132912000D01*
X160254659Y-133077827D01*
X160348592Y-133218408D01*
X160489173Y-133312341D01*
X160655000Y-133345326D01*
X164465000Y-133345326D01*
X164630827Y-133312341D01*
X164771408Y-133218408D01*
X164865341Y-133077827D01*
X164898326Y-132912000D01*
X164898326Y-129102000D01*
X164865341Y-128936173D01*
X164835000Y-128890764D01*
X164835000Y-128123236D01*
X164865341Y-128077827D01*
X164898326Y-127912000D01*
X164898326Y-124102000D01*
X164865341Y-123936173D01*
X164835000Y-123890764D01*
X164835000Y-117599335D01*
X165337104Y-117097231D01*
X165713002Y-116534660D01*
X165889569Y-115647000D01*
X165713002Y-114759340D01*
X165210183Y-114006817D01*
X164457660Y-113503998D01*
X163570000Y-113327431D01*
X162682340Y-113503998D01*
X162119769Y-113879896D01*
X161109772Y-114889893D01*
X160919817Y-115016817D01*
X160416998Y-115769339D01*
X160240431Y-116657000D01*
X160285001Y-116881068D01*
X160285000Y-123287062D01*
X160285001Y-123287067D01*
X160285001Y-123890763D01*
X160254659Y-123936173D01*
X160221674Y-124102000D01*
X159818326Y-124102000D01*
X159785341Y-123936173D01*
X159691408Y-123795592D01*
X159634597Y-123757632D01*
X159623002Y-123699339D01*
X159247104Y-123136769D01*
X158485000Y-122374665D01*
X158485000Y-118272642D01*
X158558599Y-118450325D01*
X158790675Y-118682401D01*
X159093897Y-118808000D01*
X159422103Y-118808000D01*
X159725325Y-118682401D01*
X159957401Y-118450325D01*
X160083000Y-118147103D01*
X160083000Y-117818897D01*
X159957401Y-117515675D01*
X159833000Y-117391274D01*
X159833000Y-117351623D01*
X159844263Y-117295000D01*
X159833000Y-117238376D01*
X159833000Y-117238372D01*
X159810310Y-117124301D01*
X159916408Y-117053408D01*
X160010341Y-116912827D01*
X160043326Y-116747000D01*
X160043326Y-114547000D01*
X160010341Y-114381173D01*
X159916408Y-114240592D01*
X159775827Y-114146659D01*
X159610000Y-114113674D01*
X158485000Y-114113674D01*
X158485000Y-113999333D01*
X159504007Y-112980326D01*
X164190000Y-112980326D01*
X164355827Y-112947341D01*
X164496408Y-112853408D01*
X164590341Y-112712827D01*
X164623326Y-112547000D01*
X164623326Y-109220000D01*
X171670431Y-109220000D01*
X171715000Y-109444063D01*
X171715001Y-113151931D01*
X171670431Y-113375998D01*
X171715001Y-113600066D01*
X171715000Y-119604062D01*
X171715001Y-119604066D01*
X171715000Y-122839509D01*
X171684292Y-122936804D01*
X171695417Y-123064389D01*
X171670431Y-123190000D01*
X171734419Y-123511687D01*
X171762909Y-123838432D01*
X171822013Y-123952050D01*
X171846998Y-124077660D01*
X172029220Y-124350376D01*
X172075153Y-124438674D01*
X172153409Y-124536238D01*
X172349817Y-124830183D01*
X172434651Y-124886867D01*
X173937674Y-126760716D01*
X173937674Y-127945000D01*
X173970659Y-128110827D01*
X174001001Y-128156236D01*
X174001000Y-128923764D01*
X173970659Y-128969173D01*
X173937674Y-129135000D01*
X173937674Y-132945000D01*
X173970659Y-133110827D01*
X174064592Y-133251408D01*
X174205173Y-133345341D01*
X174371000Y-133378326D01*
X178181000Y-133378326D01*
X178346827Y-133345341D01*
X178487408Y-133251408D01*
X178581341Y-133110827D01*
X178614326Y-132945000D01*
X178614326Y-129135000D01*
X178581341Y-128969173D01*
X178551000Y-128923764D01*
X178551000Y-128156236D01*
X178581341Y-128110827D01*
X178614326Y-127945000D01*
X178614326Y-124135000D01*
X179017674Y-124135000D01*
X179017674Y-127945000D01*
X179050659Y-128110827D01*
X179081000Y-128156236D01*
X179081000Y-128923764D01*
X179050659Y-128969173D01*
X179017674Y-129135000D01*
X179017674Y-132945000D01*
X179050659Y-133110827D01*
X179144592Y-133251408D01*
X179285173Y-133345341D01*
X179451000Y-133378326D01*
X183261000Y-133378326D01*
X183426827Y-133345341D01*
X183567408Y-133251408D01*
X183661341Y-133110827D01*
X183694326Y-132945000D01*
X183694326Y-129135000D01*
X183661341Y-128969173D01*
X183631000Y-128923764D01*
X183631000Y-128156236D01*
X183661341Y-128110827D01*
X183694326Y-127945000D01*
X183694326Y-124135000D01*
X183661341Y-123969173D01*
X183631000Y-123923764D01*
X183631000Y-116902335D01*
X183631104Y-116902231D01*
X184007002Y-116339660D01*
X184183568Y-115452001D01*
X184007002Y-114564341D01*
X183504182Y-113811818D01*
X182751659Y-113308998D01*
X181863999Y-113132432D01*
X180976340Y-113308998D01*
X180413769Y-113684896D01*
X179905772Y-114192893D01*
X179715817Y-114319817D01*
X179212998Y-115072339D01*
X179036431Y-115960000D01*
X179081001Y-116184068D01*
X179081000Y-123160062D01*
X179081001Y-123160067D01*
X179081001Y-123923763D01*
X179050659Y-123969173D01*
X179017674Y-124135000D01*
X178614326Y-124135000D01*
X178581341Y-123969173D01*
X178487408Y-123828592D01*
X178346827Y-123734659D01*
X178181000Y-123701674D01*
X177719010Y-123701674D01*
X176265000Y-122247665D01*
X176265000Y-114318333D01*
X176280442Y-114302891D01*
X176270674Y-114352000D01*
X176270674Y-116552000D01*
X176303659Y-116717827D01*
X176397592Y-116858408D01*
X176538173Y-116952341D01*
X176704000Y-116985326D01*
X176729001Y-116985326D01*
X176729001Y-117264273D01*
X176604599Y-117388675D01*
X176479000Y-117691897D01*
X176479000Y-118020103D01*
X176604599Y-118323325D01*
X176836675Y-118555401D01*
X177139897Y-118681000D01*
X177468103Y-118681000D01*
X177771325Y-118555401D01*
X178003401Y-118323325D01*
X178129000Y-118020103D01*
X178129000Y-117691897D01*
X178003401Y-117388675D01*
X177879000Y-117264274D01*
X177879000Y-116985326D01*
X177904000Y-116985326D01*
X178069827Y-116952341D01*
X178210408Y-116858408D01*
X178304341Y-116717827D01*
X178337326Y-116552000D01*
X178337326Y-114352000D01*
X178304341Y-114186173D01*
X178210408Y-114045592D01*
X178069827Y-113951659D01*
X177904000Y-113918674D01*
X176704000Y-113918674D01*
X176654891Y-113928442D01*
X177798008Y-112785326D01*
X182484000Y-112785326D01*
X182649827Y-112752341D01*
X182790408Y-112658408D01*
X182884341Y-112517827D01*
X182917326Y-112352000D01*
X182917326Y-109220000D01*
X184370431Y-109220000D01*
X184415000Y-109444064D01*
X184415001Y-112959931D01*
X184370431Y-113183998D01*
X184415001Y-113408066D01*
X184415000Y-119604062D01*
X184415001Y-119604066D01*
X184415000Y-122965937D01*
X184370431Y-123190000D01*
X184407984Y-123378790D01*
X184401966Y-123571176D01*
X184495431Y-123818413D01*
X184499918Y-123840971D01*
X184546998Y-124077660D01*
X184778647Y-124424348D01*
X186129674Y-126589943D01*
X186129674Y-127945000D01*
X186162659Y-128110827D01*
X186193001Y-128156236D01*
X186193000Y-128923764D01*
X186162659Y-128969173D01*
X186129674Y-129135000D01*
X186129674Y-132945000D01*
X186162659Y-133110827D01*
X186256592Y-133251408D01*
X186397173Y-133345341D01*
X186563000Y-133378326D01*
X190373000Y-133378326D01*
X190538827Y-133345341D01*
X190679408Y-133251408D01*
X190773341Y-133110827D01*
X190806326Y-132945000D01*
X190806326Y-129135000D01*
X190773341Y-128969173D01*
X190743000Y-128923764D01*
X190743000Y-128156236D01*
X190773341Y-128110827D01*
X190806326Y-127945000D01*
X190806326Y-124135000D01*
X191209674Y-124135000D01*
X191209674Y-127945000D01*
X191242659Y-128110827D01*
X191273000Y-128156236D01*
X191273000Y-128923764D01*
X191242659Y-128969173D01*
X191209674Y-129135000D01*
X191209674Y-132945000D01*
X191242659Y-133110827D01*
X191336592Y-133251408D01*
X191477173Y-133345341D01*
X191643000Y-133378326D01*
X195453000Y-133378326D01*
X195618827Y-133345341D01*
X195759408Y-133251408D01*
X195853341Y-133110827D01*
X195886326Y-132945000D01*
X195886326Y-129135000D01*
X195853341Y-128969173D01*
X195823000Y-128923764D01*
X195823000Y-128156236D01*
X195853341Y-128110827D01*
X195886326Y-127945000D01*
X195886326Y-124135000D01*
X195853341Y-123969173D01*
X195823000Y-123923764D01*
X195823000Y-117218335D01*
X196071104Y-116970231D01*
X196447002Y-116407660D01*
X196623568Y-115520001D01*
X196447002Y-114632341D01*
X195944182Y-113879818D01*
X195191659Y-113376998D01*
X194303999Y-113200432D01*
X193416340Y-113376998D01*
X192853769Y-113752896D01*
X192097772Y-114508893D01*
X191907817Y-114635817D01*
X191404998Y-115388339D01*
X191228431Y-116276000D01*
X191273001Y-116500068D01*
X191273000Y-123160062D01*
X191273001Y-123160067D01*
X191273001Y-123923763D01*
X191242659Y-123969173D01*
X191209674Y-124135000D01*
X190806326Y-124135000D01*
X190773341Y-123969173D01*
X190679408Y-123828592D01*
X190538827Y-123734659D01*
X190373000Y-123701674D01*
X190357986Y-123701674D01*
X190235104Y-123517768D01*
X188965000Y-122247665D01*
X188965000Y-118385157D01*
X189044599Y-118577325D01*
X189276675Y-118809401D01*
X189579897Y-118935000D01*
X189908103Y-118935000D01*
X190211325Y-118809401D01*
X190443401Y-118577325D01*
X190569000Y-118274103D01*
X190569000Y-117945897D01*
X190443401Y-117642675D01*
X190319000Y-117518274D01*
X190319000Y-117053326D01*
X190344000Y-117053326D01*
X190509827Y-117020341D01*
X190650408Y-116926408D01*
X190744341Y-116785827D01*
X190777326Y-116620000D01*
X190777326Y-114420000D01*
X190744341Y-114254173D01*
X190650408Y-114113592D01*
X190509827Y-114019659D01*
X190344000Y-113986674D01*
X189144000Y-113986674D01*
X189094891Y-113996442D01*
X190238007Y-112853326D01*
X194924000Y-112853326D01*
X195089827Y-112820341D01*
X195230408Y-112726408D01*
X195324341Y-112585827D01*
X195357326Y-112420000D01*
X195357326Y-106020000D01*
X195324341Y-105854173D01*
X195230408Y-105713592D01*
X195089827Y-105619659D01*
X194924000Y-105586674D01*
X189124000Y-105586674D01*
X188958173Y-105619659D01*
X188817592Y-105713592D01*
X188723659Y-105854173D01*
X188690674Y-106020000D01*
X188690674Y-106945000D01*
X186914063Y-106945000D01*
X186690000Y-106900431D01*
X186465937Y-106945000D01*
X185802339Y-107076998D01*
X185049817Y-107579817D01*
X184546998Y-108332339D01*
X184370431Y-109220000D01*
X182917326Y-109220000D01*
X182917326Y-105952000D01*
X182884341Y-105786173D01*
X182790408Y-105645592D01*
X182649827Y-105551659D01*
X182484000Y-105518674D01*
X176684000Y-105518674D01*
X176518173Y-105551659D01*
X176377592Y-105645592D01*
X176283659Y-105786173D01*
X176250674Y-105952000D01*
X176250674Y-106877000D01*
X174282063Y-106877000D01*
X174058000Y-106832431D01*
X173833937Y-106877000D01*
X173170339Y-107008998D01*
X172417817Y-107511817D01*
X172390580Y-107552580D01*
X172349817Y-107579817D01*
X171947892Y-108181341D01*
X171846998Y-108332340D01*
X171670431Y-109220000D01*
X164623326Y-109220000D01*
X164623326Y-106147000D01*
X164590341Y-105981173D01*
X164496408Y-105840592D01*
X164355827Y-105746659D01*
X164190000Y-105713674D01*
X158390000Y-105713674D01*
X158224173Y-105746659D01*
X158083592Y-105840592D01*
X157989659Y-105981173D01*
X157956674Y-106147000D01*
X157956674Y-107072000D01*
X156434063Y-107072000D01*
X156210000Y-107027431D01*
X155985937Y-107072000D01*
X155322339Y-107203998D01*
X154569817Y-107706817D01*
X154066998Y-108459339D01*
X153890431Y-109347000D01*
X151922326Y-109347000D01*
X151922326Y-105996000D01*
X151889341Y-105830173D01*
X151795408Y-105689592D01*
X151654827Y-105595659D01*
X151489000Y-105562674D01*
X145689000Y-105562674D01*
X145523173Y-105595659D01*
X145382592Y-105689592D01*
X145288659Y-105830173D01*
X145255674Y-105996000D01*
X145255674Y-106921000D01*
X143885058Y-106921000D01*
X143660999Y-106876432D01*
X143436940Y-106921000D01*
X143436937Y-106921000D01*
X142773339Y-107052998D01*
X142020817Y-107555817D01*
X141960335Y-107646335D01*
X141869817Y-107706817D01*
X141467892Y-108308341D01*
X141366998Y-108459340D01*
X141190431Y-109347000D01*
X133381326Y-109347000D01*
X133381326Y-105952000D01*
X133348341Y-105786173D01*
X133254408Y-105645592D01*
X133113827Y-105551659D01*
X132948000Y-105518674D01*
X127148000Y-105518674D01*
X126982173Y-105551659D01*
X126841592Y-105645592D01*
X126747659Y-105786173D01*
X126714674Y-105952000D01*
X126714674Y-106877000D01*
X124752063Y-106877000D01*
X124528000Y-106832431D01*
X124303937Y-106877000D01*
X123640339Y-107008998D01*
X122887817Y-107511817D01*
X122860580Y-107552580D01*
X122819817Y-107579817D01*
X122417892Y-108181341D01*
X122316998Y-108332340D01*
X122140431Y-109220000D01*
X120682326Y-109220000D01*
X120682326Y-105869000D01*
X120649341Y-105703173D01*
X120555408Y-105562592D01*
X120414827Y-105468659D01*
X120249000Y-105435674D01*
X114449000Y-105435674D01*
X114283173Y-105468659D01*
X114142592Y-105562592D01*
X114048659Y-105703173D01*
X114015674Y-105869000D01*
X114015674Y-106794000D01*
X112135058Y-106794000D01*
X111910999Y-106749432D01*
X111686940Y-106794000D01*
X111686937Y-106794000D01*
X111023339Y-106925998D01*
X110270817Y-107428817D01*
X110210335Y-107519335D01*
X110119817Y-107579817D01*
X109717892Y-108181341D01*
X109616998Y-108332340D01*
X109440431Y-109220000D01*
X97274000Y-109220000D01*
X97274000Y-101727000D01*
X114118879Y-101727000D01*
X114190670Y-102087917D01*
X114395113Y-102393887D01*
X114701083Y-102598330D01*
X114970900Y-102652000D01*
X143164904Y-102652000D01*
X143256000Y-102670120D01*
X143347096Y-102652000D01*
X143347100Y-102652000D01*
X143616917Y-102598330D01*
X143922887Y-102393887D01*
X143974492Y-102316655D01*
X156226147Y-90065000D01*
X177063674Y-90065000D01*
X177063674Y-95865000D01*
X177096659Y-96030827D01*
X177190592Y-96171408D01*
X177331173Y-96265341D01*
X177497000Y-96298326D01*
X178422001Y-96298326D01*
X178422001Y-98478932D01*
X178377431Y-98703000D01*
X178553998Y-99590661D01*
X179056817Y-100343183D01*
X179246772Y-100470107D01*
X179286893Y-100510228D01*
X179413817Y-100700183D01*
X180166339Y-101203002D01*
X180829937Y-101335000D01*
X180829940Y-101335000D01*
X181053999Y-101379568D01*
X181278058Y-101335000D01*
X185197938Y-101335000D01*
X185421997Y-101379568D01*
X185646056Y-101335000D01*
X192815937Y-101335000D01*
X193040000Y-101379569D01*
X193264063Y-101335000D01*
X193927661Y-101203002D01*
X194680183Y-100700183D01*
X194807106Y-100510229D01*
X195482725Y-99834610D01*
X197849400Y-98350326D01*
X199201000Y-98350326D01*
X199366827Y-98317341D01*
X199412236Y-98287000D01*
X200179764Y-98287000D01*
X200225173Y-98317341D01*
X200391000Y-98350326D01*
X204201000Y-98350326D01*
X204366827Y-98317341D01*
X204507408Y-98223408D01*
X204601341Y-98082827D01*
X204634326Y-97917000D01*
X204634326Y-94107000D01*
X204601341Y-93941173D01*
X204507408Y-93800592D01*
X204366827Y-93706659D01*
X204201000Y-93673674D01*
X200391000Y-93673674D01*
X200225173Y-93706659D01*
X200179764Y-93737000D01*
X199412236Y-93737000D01*
X199366827Y-93706659D01*
X199201000Y-93673674D01*
X195391000Y-93673674D01*
X195225173Y-93706659D01*
X195084592Y-93800592D01*
X194990659Y-93941173D01*
X194975076Y-94019514D01*
X194637768Y-94244896D01*
X192470534Y-96412131D01*
X192165389Y-96700131D01*
X192151447Y-96731218D01*
X192097665Y-96785000D01*
X186364334Y-96785000D01*
X185847891Y-96268558D01*
X185897000Y-96278326D01*
X188097000Y-96278326D01*
X188262827Y-96245341D01*
X188403408Y-96151408D01*
X188497341Y-96010827D01*
X188530326Y-95845000D01*
X188530326Y-95804744D01*
X188621354Y-95786637D01*
X188811551Y-95659551D01*
X188843629Y-95611543D01*
X188884172Y-95571000D01*
X189908274Y-95571000D01*
X190032675Y-95695401D01*
X190335897Y-95821000D01*
X190664103Y-95821000D01*
X190967325Y-95695401D01*
X191199401Y-95463325D01*
X191325000Y-95160103D01*
X191325000Y-94831897D01*
X191199401Y-94528675D01*
X190967325Y-94296599D01*
X190664103Y-94171000D01*
X190335897Y-94171000D01*
X190032675Y-94296599D01*
X189908274Y-94421000D01*
X188702623Y-94421000D01*
X188645999Y-94409737D01*
X188589375Y-94421000D01*
X188589372Y-94421000D01*
X188473828Y-94443983D01*
X188403408Y-94338592D01*
X188262827Y-94244659D01*
X188097000Y-94211674D01*
X185897000Y-94211674D01*
X185731173Y-94244659D01*
X185590592Y-94338592D01*
X185496659Y-94479173D01*
X185463674Y-94645000D01*
X185463674Y-95845000D01*
X185473442Y-95894109D01*
X184330326Y-94750993D01*
X184330326Y-90065000D01*
X184297341Y-89899173D01*
X184203408Y-89758592D01*
X184062827Y-89664659D01*
X183897000Y-89631674D01*
X177497000Y-89631674D01*
X177331173Y-89664659D01*
X177190592Y-89758592D01*
X177096659Y-89899173D01*
X177063674Y-90065000D01*
X156226147Y-90065000D01*
X168927147Y-77364000D01*
X177146674Y-77364000D01*
X177146674Y-83164000D01*
X177179659Y-83329827D01*
X177273592Y-83470408D01*
X177414173Y-83564341D01*
X177580000Y-83597326D01*
X178505001Y-83597326D01*
X178505001Y-85695932D01*
X178460431Y-85920000D01*
X178636998Y-86807661D01*
X179139817Y-87560183D01*
X179329772Y-87687107D01*
X179452893Y-87810228D01*
X179579817Y-88000183D01*
X180332339Y-88503002D01*
X180995937Y-88635000D01*
X181220000Y-88679569D01*
X181444063Y-88635000D01*
X185281938Y-88635000D01*
X185505997Y-88679568D01*
X185730056Y-88635000D01*
X185970153Y-88635000D01*
X185356818Y-89044818D01*
X184853998Y-89797340D01*
X184677431Y-90685000D01*
X184853998Y-91572660D01*
X185229896Y-92135231D01*
X185476893Y-92382228D01*
X185603817Y-92572183D01*
X186356339Y-93075002D01*
X187019937Y-93207000D01*
X187244000Y-93251569D01*
X187468063Y-93207000D01*
X195179764Y-93207000D01*
X195225173Y-93237341D01*
X195391000Y-93270326D01*
X199201000Y-93270326D01*
X199366827Y-93237341D01*
X199412236Y-93207000D01*
X200179764Y-93207000D01*
X200225173Y-93237341D01*
X200391000Y-93270326D01*
X204201000Y-93270326D01*
X204366827Y-93237341D01*
X204507408Y-93143408D01*
X204601341Y-93002827D01*
X204634326Y-92837000D01*
X204634326Y-89027000D01*
X204601341Y-88861173D01*
X204507408Y-88720592D01*
X204366827Y-88626659D01*
X204201000Y-88593674D01*
X200391000Y-88593674D01*
X200225173Y-88626659D01*
X200179764Y-88657000D01*
X199412236Y-88657000D01*
X199366827Y-88626659D01*
X199201000Y-88593674D01*
X195391000Y-88593674D01*
X195225173Y-88626659D01*
X195179764Y-88657000D01*
X194423462Y-88657000D01*
X194534063Y-88635000D01*
X195197661Y-88503002D01*
X195950183Y-88000183D01*
X196077106Y-87810229D01*
X197729010Y-86158326D01*
X199145000Y-86158326D01*
X199310827Y-86125341D01*
X199356236Y-86095000D01*
X200123764Y-86095000D01*
X200169173Y-86125341D01*
X200335000Y-86158326D01*
X204145000Y-86158326D01*
X204310827Y-86125341D01*
X204451408Y-86031408D01*
X204545341Y-85890827D01*
X204578326Y-85725000D01*
X204578326Y-81915000D01*
X204545341Y-81749173D01*
X204451408Y-81608592D01*
X204310827Y-81514659D01*
X204145000Y-81481674D01*
X200335000Y-81481674D01*
X200169173Y-81514659D01*
X200123764Y-81545000D01*
X199356236Y-81545000D01*
X199310827Y-81514659D01*
X199145000Y-81481674D01*
X195335000Y-81481674D01*
X195169173Y-81514659D01*
X195028592Y-81608592D01*
X194934659Y-81749173D01*
X194901674Y-81915000D01*
X194901674Y-82550990D01*
X193367665Y-84085000D01*
X186448334Y-84085000D01*
X185930891Y-83567558D01*
X185980000Y-83577326D01*
X188180000Y-83577326D01*
X188345827Y-83544341D01*
X188486408Y-83450408D01*
X188580341Y-83309827D01*
X188613326Y-83144000D01*
X188613326Y-83119000D01*
X189648274Y-83119000D01*
X189772675Y-83243401D01*
X190075897Y-83369000D01*
X190404103Y-83369000D01*
X190707325Y-83243401D01*
X190939401Y-83011325D01*
X191065000Y-82708103D01*
X191065000Y-82379897D01*
X190939401Y-82076675D01*
X190707325Y-81844599D01*
X190404103Y-81719000D01*
X190075897Y-81719000D01*
X189772675Y-81844599D01*
X189648274Y-81969000D01*
X188613326Y-81969000D01*
X188613326Y-81944000D01*
X188580341Y-81778173D01*
X188486408Y-81637592D01*
X188345827Y-81543659D01*
X188180000Y-81510674D01*
X185980000Y-81510674D01*
X185814173Y-81543659D01*
X185673592Y-81637592D01*
X185579659Y-81778173D01*
X185546674Y-81944000D01*
X185546674Y-83144000D01*
X185556442Y-83193109D01*
X184413326Y-82049993D01*
X184413326Y-77984000D01*
X184760431Y-77984000D01*
X184936998Y-78871660D01*
X185312896Y-79434231D01*
X186068893Y-80190228D01*
X186195817Y-80380183D01*
X186948339Y-80883002D01*
X187611937Y-81015000D01*
X187611940Y-81015000D01*
X187835999Y-81059568D01*
X188060058Y-81015000D01*
X195123764Y-81015000D01*
X195169173Y-81045341D01*
X195335000Y-81078326D01*
X199145000Y-81078326D01*
X199310827Y-81045341D01*
X199356236Y-81015000D01*
X200123764Y-81015000D01*
X200169173Y-81045341D01*
X200335000Y-81078326D01*
X204145000Y-81078326D01*
X204310827Y-81045341D01*
X204451408Y-80951408D01*
X204545341Y-80810827D01*
X204578326Y-80645000D01*
X204578326Y-76835000D01*
X204545341Y-76669173D01*
X204451408Y-76528592D01*
X204310827Y-76434659D01*
X204145000Y-76401674D01*
X200335000Y-76401674D01*
X200169173Y-76434659D01*
X200123764Y-76465000D01*
X199356236Y-76465000D01*
X199310827Y-76434659D01*
X199145000Y-76401674D01*
X195335000Y-76401674D01*
X195169173Y-76434659D01*
X195123764Y-76465000D01*
X188778335Y-76465000D01*
X188530231Y-76216896D01*
X187967660Y-75840998D01*
X187080000Y-75664431D01*
X186192340Y-75840998D01*
X185439818Y-76343818D01*
X184936998Y-77096340D01*
X184760431Y-77984000D01*
X184413326Y-77984000D01*
X184413326Y-77364000D01*
X184380341Y-77198173D01*
X184286408Y-77057592D01*
X184145827Y-76963659D01*
X183980000Y-76930674D01*
X177580000Y-76930674D01*
X177414173Y-76963659D01*
X177273592Y-77057592D01*
X177179659Y-77198173D01*
X177146674Y-77364000D01*
X168927147Y-77364000D01*
X172293656Y-73997491D01*
X172370887Y-73945887D01*
X172575330Y-73639917D01*
X172629000Y-73370100D01*
X172629000Y-73370096D01*
X172647120Y-73279001D01*
X172629000Y-73187906D01*
X172629000Y-68867250D01*
X199265000Y-68867250D01*
X199265000Y-69467912D01*
X199361369Y-69700566D01*
X199539435Y-69878632D01*
X199772089Y-69975000D01*
X200372750Y-69975000D01*
X200531000Y-69816750D01*
X200531000Y-68709000D01*
X200789000Y-68709000D01*
X200789000Y-69816750D01*
X200947250Y-69975000D01*
X201547911Y-69975000D01*
X201780565Y-69878632D01*
X201930000Y-69729197D01*
X202079435Y-69878632D01*
X202312089Y-69975000D01*
X202912750Y-69975000D01*
X203071000Y-69816750D01*
X203071000Y-68709000D01*
X203329000Y-68709000D01*
X203329000Y-69816750D01*
X203487250Y-69975000D01*
X204087911Y-69975000D01*
X204320565Y-69878632D01*
X204498631Y-69700566D01*
X204595000Y-69467912D01*
X204595000Y-68867250D01*
X204436750Y-68709000D01*
X203329000Y-68709000D01*
X203071000Y-68709000D01*
X201963250Y-68709000D01*
X201930000Y-68742250D01*
X201896750Y-68709000D01*
X200789000Y-68709000D01*
X200531000Y-68709000D01*
X199423250Y-68709000D01*
X199265000Y-68867250D01*
X172629000Y-68867250D01*
X172629000Y-67692088D01*
X199265000Y-67692088D01*
X199265000Y-68292750D01*
X199423250Y-68451000D01*
X200531000Y-68451000D01*
X200531000Y-68431000D01*
X200789000Y-68431000D01*
X200789000Y-68451000D01*
X201896750Y-68451000D01*
X201930000Y-68417750D01*
X201963250Y-68451000D01*
X203071000Y-68451000D01*
X203071000Y-68431000D01*
X203329000Y-68431000D01*
X203329000Y-68451000D01*
X204436750Y-68451000D01*
X204595000Y-68292750D01*
X204595000Y-67692088D01*
X204498631Y-67459434D01*
X204320565Y-67281368D01*
X204128573Y-67201843D01*
X204268408Y-67108408D01*
X204362341Y-66967827D01*
X204395326Y-66802000D01*
X204395326Y-65278000D01*
X204362341Y-65112173D01*
X204268408Y-64971592D01*
X204127827Y-64877659D01*
X203962000Y-64844674D01*
X202438000Y-64844674D01*
X202272173Y-64877659D01*
X202131592Y-64971592D01*
X202037659Y-65112173D01*
X202004674Y-65278000D01*
X202004674Y-66802000D01*
X202037659Y-66967827D01*
X202131592Y-67108408D01*
X202271427Y-67201843D01*
X202079435Y-67281368D01*
X201930000Y-67430803D01*
X201780565Y-67281368D01*
X201588573Y-67201843D01*
X201728408Y-67108408D01*
X201822341Y-66967827D01*
X201855326Y-66802000D01*
X201855326Y-65278000D01*
X201822341Y-65112173D01*
X201728408Y-64971592D01*
X201587827Y-64877659D01*
X201422000Y-64844674D01*
X199898000Y-64844674D01*
X199732173Y-64877659D01*
X199591592Y-64971592D01*
X199497659Y-65112173D01*
X199464674Y-65278000D01*
X199464674Y-66802000D01*
X199497659Y-66967827D01*
X199591592Y-67108408D01*
X199731427Y-67201843D01*
X199539435Y-67281368D01*
X199361369Y-67459434D01*
X199265000Y-67692088D01*
X172629000Y-67692088D01*
X172629000Y-61247250D01*
X199265000Y-61247250D01*
X199265000Y-61847912D01*
X199361369Y-62080566D01*
X199539435Y-62258632D01*
X199731427Y-62338157D01*
X199591592Y-62431592D01*
X199497659Y-62572173D01*
X199464674Y-62738000D01*
X199464674Y-64262000D01*
X199497659Y-64427827D01*
X199591592Y-64568408D01*
X199732173Y-64662341D01*
X199898000Y-64695326D01*
X201422000Y-64695326D01*
X201587827Y-64662341D01*
X201728408Y-64568408D01*
X201822341Y-64427827D01*
X201855326Y-64262000D01*
X201855326Y-62738000D01*
X201822341Y-62572173D01*
X201728408Y-62431592D01*
X201588573Y-62338157D01*
X201780565Y-62258632D01*
X201930000Y-62109197D01*
X202079435Y-62258632D01*
X202271427Y-62338157D01*
X202131592Y-62431592D01*
X202037659Y-62572173D01*
X202004674Y-62738000D01*
X202004674Y-64262000D01*
X202037659Y-64427827D01*
X202131592Y-64568408D01*
X202272173Y-64662341D01*
X202438000Y-64695326D01*
X203962000Y-64695326D01*
X204127827Y-64662341D01*
X204268408Y-64568408D01*
X204362341Y-64427827D01*
X204395326Y-64262000D01*
X204395326Y-62738000D01*
X204362341Y-62572173D01*
X204268408Y-62431592D01*
X204128573Y-62338157D01*
X204320565Y-62258632D01*
X204498631Y-62080566D01*
X204595000Y-61847912D01*
X204595000Y-61247250D01*
X204436750Y-61089000D01*
X203329000Y-61089000D01*
X203329000Y-61109000D01*
X203071000Y-61109000D01*
X203071000Y-61089000D01*
X201963250Y-61089000D01*
X201930000Y-61122250D01*
X201896750Y-61089000D01*
X200789000Y-61089000D01*
X200789000Y-61109000D01*
X200531000Y-61109000D01*
X200531000Y-61089000D01*
X199423250Y-61089000D01*
X199265000Y-61247250D01*
X172629000Y-61247250D01*
X172629000Y-60072088D01*
X199265000Y-60072088D01*
X199265000Y-60672750D01*
X199423250Y-60831000D01*
X200531000Y-60831000D01*
X200531000Y-59723250D01*
X200789000Y-59723250D01*
X200789000Y-60831000D01*
X201896750Y-60831000D01*
X201930000Y-60797750D01*
X201963250Y-60831000D01*
X203071000Y-60831000D01*
X203071000Y-59723250D01*
X203329000Y-59723250D01*
X203329000Y-60831000D01*
X204436750Y-60831000D01*
X204595000Y-60672750D01*
X204595000Y-60072088D01*
X204498631Y-59839434D01*
X204320565Y-59661368D01*
X204087911Y-59565000D01*
X203487250Y-59565000D01*
X203329000Y-59723250D01*
X203071000Y-59723250D01*
X202912750Y-59565000D01*
X202312089Y-59565000D01*
X202079435Y-59661368D01*
X201930000Y-59810803D01*
X201780565Y-59661368D01*
X201547911Y-59565000D01*
X200947250Y-59565000D01*
X200789000Y-59723250D01*
X200531000Y-59723250D01*
X200372750Y-59565000D01*
X199772089Y-59565000D01*
X199539435Y-59661368D01*
X199361369Y-59839434D01*
X199265000Y-60072088D01*
X172629000Y-60072088D01*
X172629000Y-56134000D01*
X178128674Y-56134000D01*
X178128674Y-57658000D01*
X178161659Y-57823827D01*
X178255592Y-57964408D01*
X178396173Y-58058341D01*
X178562000Y-58091326D01*
X180086000Y-58091326D01*
X180251827Y-58058341D01*
X180392408Y-57964408D01*
X180486341Y-57823827D01*
X180519326Y-57658000D01*
X180519326Y-56134000D01*
X180486341Y-55968173D01*
X180392408Y-55827592D01*
X180251827Y-55733659D01*
X180086000Y-55700674D01*
X178562000Y-55700674D01*
X178396173Y-55733659D01*
X178255592Y-55827592D01*
X178161659Y-55968173D01*
X178128674Y-56134000D01*
X172629000Y-56134000D01*
X172629000Y-53594000D01*
X178128674Y-53594000D01*
X178128674Y-55118000D01*
X178161659Y-55283827D01*
X178255592Y-55424408D01*
X178396173Y-55518341D01*
X178562000Y-55551326D01*
X180086000Y-55551326D01*
X180251827Y-55518341D01*
X180392408Y-55424408D01*
X180486341Y-55283827D01*
X180519326Y-55118000D01*
X180519326Y-53594000D01*
X180486341Y-53428173D01*
X180392408Y-53287592D01*
X180251827Y-53193659D01*
X180086000Y-53160674D01*
X178562000Y-53160674D01*
X178396173Y-53193659D01*
X178255592Y-53287592D01*
X178161659Y-53428173D01*
X178128674Y-53594000D01*
X172629000Y-53594000D01*
X172629000Y-52978903D01*
X172631827Y-52978341D01*
X172772408Y-52884408D01*
X172865843Y-52744573D01*
X172945368Y-52936565D01*
X173123434Y-53114631D01*
X173356088Y-53211000D01*
X173956750Y-53211000D01*
X174115000Y-53052750D01*
X174115000Y-51945000D01*
X174373000Y-51945000D01*
X174373000Y-53052750D01*
X174531250Y-53211000D01*
X175131912Y-53211000D01*
X175364566Y-53114631D01*
X175542632Y-52936565D01*
X175639000Y-52703911D01*
X175639000Y-52103250D01*
X175480750Y-51945000D01*
X174373000Y-51945000D01*
X174115000Y-51945000D01*
X174095000Y-51945000D01*
X174095000Y-51687000D01*
X174115000Y-51687000D01*
X174115000Y-50579250D01*
X174081750Y-50546000D01*
X174115000Y-50512750D01*
X174115000Y-49405000D01*
X174373000Y-49405000D01*
X174373000Y-50512750D01*
X174406250Y-50546000D01*
X174373000Y-50579250D01*
X174373000Y-51687000D01*
X175480750Y-51687000D01*
X175639000Y-51528750D01*
X175639000Y-50928089D01*
X175542632Y-50695435D01*
X175393197Y-50546000D01*
X175542632Y-50396565D01*
X175639000Y-50163911D01*
X175639000Y-49563250D01*
X177929000Y-49563250D01*
X177929000Y-50163912D01*
X178025369Y-50396566D01*
X178203435Y-50574632D01*
X178395427Y-50654157D01*
X178255592Y-50747592D01*
X178161659Y-50888173D01*
X178128674Y-51054000D01*
X178128674Y-52578000D01*
X178161659Y-52743827D01*
X178255592Y-52884408D01*
X178396173Y-52978341D01*
X178562000Y-53011326D01*
X180086000Y-53011326D01*
X180251827Y-52978341D01*
X180392408Y-52884408D01*
X180486341Y-52743827D01*
X180519326Y-52578000D01*
X180519326Y-51538949D01*
X185654000Y-51538949D01*
X185654000Y-52093050D01*
X185728847Y-52469332D01*
X186013962Y-52896038D01*
X186440667Y-53181153D01*
X186944000Y-53281272D01*
X187447332Y-53181153D01*
X187874038Y-52896038D01*
X188159153Y-52469333D01*
X188214000Y-52193597D01*
X188268847Y-52469332D01*
X188553962Y-52896038D01*
X188932627Y-53149054D01*
X188931707Y-53149435D01*
X188657435Y-53423707D01*
X188509000Y-53782061D01*
X188509000Y-54169939D01*
X188657435Y-54528293D01*
X188931707Y-54802565D01*
X189290061Y-54951000D01*
X189677939Y-54951000D01*
X190036293Y-54802565D01*
X190310565Y-54528293D01*
X190459000Y-54169939D01*
X190459000Y-53782061D01*
X190310565Y-53423707D01*
X190036293Y-53149435D01*
X190035372Y-53149054D01*
X190414038Y-52896038D01*
X190699153Y-52469333D01*
X190754000Y-52193597D01*
X190808847Y-52469332D01*
X191093962Y-52896038D01*
X191520667Y-53181153D01*
X192024000Y-53281272D01*
X192527332Y-53181153D01*
X192954038Y-52896038D01*
X193066000Y-52728475D01*
X193066000Y-52956911D01*
X193162368Y-53189565D01*
X193340434Y-53367631D01*
X193573088Y-53464000D01*
X194276750Y-53464000D01*
X194435000Y-53305750D01*
X194435000Y-51945000D01*
X194693000Y-51945000D01*
X194693000Y-53305750D01*
X194851250Y-53464000D01*
X195554912Y-53464000D01*
X195787566Y-53367631D01*
X195965632Y-53189565D01*
X196062000Y-52956911D01*
X196062000Y-52103250D01*
X195903750Y-51945000D01*
X194693000Y-51945000D01*
X194435000Y-51945000D01*
X194415000Y-51945000D01*
X194415000Y-51687000D01*
X194435000Y-51687000D01*
X194435000Y-50326250D01*
X194693000Y-50326250D01*
X194693000Y-51687000D01*
X195903750Y-51687000D01*
X196062000Y-51528750D01*
X196062000Y-50675089D01*
X195965632Y-50442435D01*
X195787566Y-50264369D01*
X195554912Y-50168000D01*
X194851250Y-50168000D01*
X194693000Y-50326250D01*
X194435000Y-50326250D01*
X194276750Y-50168000D01*
X193573088Y-50168000D01*
X193340434Y-50264369D01*
X193162368Y-50442435D01*
X193066000Y-50675089D01*
X193066000Y-50903525D01*
X192954038Y-50735962D01*
X192527333Y-50450847D01*
X192024000Y-50350728D01*
X191520668Y-50450847D01*
X191093963Y-50735962D01*
X190808847Y-51162667D01*
X190754000Y-51438403D01*
X190699153Y-51162668D01*
X190414038Y-50735962D01*
X189987333Y-50450847D01*
X189484000Y-50350728D01*
X188980668Y-50450847D01*
X188553963Y-50735962D01*
X188268847Y-51162667D01*
X188214000Y-51438403D01*
X188159153Y-51162668D01*
X187874038Y-50735962D01*
X187447333Y-50450847D01*
X186944000Y-50350728D01*
X186440668Y-50450847D01*
X186013963Y-50735962D01*
X185728847Y-51162667D01*
X185654000Y-51538949D01*
X180519326Y-51538949D01*
X180519326Y-51054000D01*
X180486341Y-50888173D01*
X180392408Y-50747592D01*
X180252573Y-50654157D01*
X180444565Y-50574632D01*
X180622631Y-50396566D01*
X180719000Y-50163912D01*
X180719000Y-49563250D01*
X180560750Y-49405000D01*
X179453000Y-49405000D01*
X179453000Y-49425000D01*
X179195000Y-49425000D01*
X179195000Y-49405000D01*
X178087250Y-49405000D01*
X177929000Y-49563250D01*
X175639000Y-49563250D01*
X175480750Y-49405000D01*
X174373000Y-49405000D01*
X174115000Y-49405000D01*
X174095000Y-49405000D01*
X174095000Y-49147000D01*
X174115000Y-49147000D01*
X174115000Y-48039250D01*
X174373000Y-48039250D01*
X174373000Y-49147000D01*
X175480750Y-49147000D01*
X175639000Y-48988750D01*
X175639000Y-48388089D01*
X175639000Y-48388088D01*
X177929000Y-48388088D01*
X177929000Y-48988750D01*
X178087250Y-49147000D01*
X179195000Y-49147000D01*
X179195000Y-48039250D01*
X179453000Y-48039250D01*
X179453000Y-49147000D01*
X180560750Y-49147000D01*
X180719000Y-48988750D01*
X180719000Y-48388088D01*
X180622631Y-48155434D01*
X180444565Y-47977368D01*
X180211911Y-47881000D01*
X179611250Y-47881000D01*
X179453000Y-48039250D01*
X179195000Y-48039250D01*
X179036750Y-47881000D01*
X178436089Y-47881000D01*
X178203435Y-47977368D01*
X178025369Y-48155434D01*
X177929000Y-48388088D01*
X175639000Y-48388088D01*
X175542632Y-48155435D01*
X175364566Y-47977369D01*
X175131912Y-47881000D01*
X174531250Y-47881000D01*
X174373000Y-48039250D01*
X174115000Y-48039250D01*
X173956750Y-47881000D01*
X173356088Y-47881000D01*
X173123434Y-47977369D01*
X172945368Y-48155435D01*
X172865843Y-48347427D01*
X172772408Y-48207592D01*
X172631827Y-48113659D01*
X172466000Y-48080674D01*
X170942000Y-48080674D01*
X170776173Y-48113659D01*
X170635592Y-48207592D01*
X170542157Y-48347427D01*
X170462632Y-48155435D01*
X170284566Y-47977369D01*
X170051912Y-47881000D01*
X169451250Y-47881000D01*
X169293000Y-48039250D01*
X169293000Y-49147000D01*
X169313000Y-49147000D01*
X169313000Y-49405000D01*
X169293000Y-49405000D01*
X169293000Y-50512750D01*
X169326250Y-50546000D01*
X169293000Y-50579250D01*
X169293000Y-51687000D01*
X169313000Y-51687000D01*
X169313000Y-51945000D01*
X169293000Y-51945000D01*
X169293000Y-53052750D01*
X169451250Y-53211000D01*
X170051912Y-53211000D01*
X170284566Y-53114631D01*
X170462632Y-52936565D01*
X170542157Y-52744573D01*
X170635592Y-52884408D01*
X170776173Y-52978341D01*
X170779001Y-52978903D01*
X170779000Y-72895853D01*
X142872853Y-100802000D01*
X114970900Y-100802000D01*
X114701083Y-100855670D01*
X114395113Y-101060113D01*
X114190670Y-101366083D01*
X114118879Y-101727000D01*
X97274000Y-101727000D01*
X97274000Y-98920772D01*
X106045661Y-98920772D01*
X106236243Y-99264709D01*
X107117036Y-99615336D01*
X108064962Y-99602208D01*
X108879757Y-99264709D01*
X109070339Y-98920772D01*
X107558000Y-97408434D01*
X106045661Y-98920772D01*
X97274000Y-98920772D01*
X97274000Y-96785036D01*
X105168664Y-96785036D01*
X105181792Y-97732962D01*
X105519291Y-98547757D01*
X105863228Y-98738339D01*
X107375566Y-97226000D01*
X107740434Y-97226000D01*
X109252772Y-98738339D01*
X109596709Y-98547757D01*
X109947336Y-97666964D01*
X109934208Y-96719038D01*
X109596709Y-95904243D01*
X109252772Y-95713661D01*
X107740434Y-97226000D01*
X107375566Y-97226000D01*
X105863228Y-95713661D01*
X105519291Y-95904243D01*
X105168664Y-96785036D01*
X97274000Y-96785036D01*
X97274000Y-95531228D01*
X106045661Y-95531228D01*
X107558000Y-97043566D01*
X109070339Y-95531228D01*
X108879757Y-95187291D01*
X107998964Y-94836664D01*
X107051038Y-94849792D01*
X106236243Y-95187291D01*
X106045661Y-95531228D01*
X97274000Y-95531228D01*
X97274000Y-92229741D01*
X108772970Y-92229741D01*
X108800188Y-92819087D01*
X108973358Y-93237159D01*
X109223855Y-93317711D01*
X110085566Y-92456000D01*
X109223855Y-91594289D01*
X108973358Y-91674841D01*
X108772970Y-92229741D01*
X97274000Y-92229741D01*
X97274000Y-89702387D01*
X108993000Y-89702387D01*
X108993000Y-90209613D01*
X109187107Y-90678230D01*
X109545770Y-91036893D01*
X109666549Y-91086921D01*
X109486841Y-91161358D01*
X109406289Y-91411855D01*
X110268000Y-92273566D01*
X110282142Y-92259424D01*
X110464576Y-92441858D01*
X110450434Y-92456000D01*
X110464576Y-92470142D01*
X110282142Y-92652576D01*
X110268000Y-92638434D01*
X109406289Y-93500145D01*
X109486841Y-93750642D01*
X110041741Y-93951030D01*
X110631087Y-93923812D01*
X111049159Y-93750642D01*
X111099453Y-93594240D01*
X111111592Y-93612408D01*
X111252173Y-93706341D01*
X111418000Y-93739326D01*
X113118000Y-93739326D01*
X113283827Y-93706341D01*
X113424408Y-93612408D01*
X113518341Y-93471827D01*
X113551326Y-93306000D01*
X113551326Y-91606000D01*
X113518341Y-91440173D01*
X113424408Y-91299592D01*
X113283827Y-91205659D01*
X113118000Y-91172674D01*
X112662425Y-91172674D01*
X112990230Y-91036893D01*
X113348893Y-90678230D01*
X113543000Y-90209613D01*
X113543000Y-89702387D01*
X113348893Y-89233770D01*
X112990230Y-88875107D01*
X112521613Y-88681000D01*
X112014387Y-88681000D01*
X111545770Y-88875107D01*
X111268000Y-89152877D01*
X110990230Y-88875107D01*
X110521613Y-88681000D01*
X110014387Y-88681000D01*
X109545770Y-88875107D01*
X109187107Y-89233770D01*
X108993000Y-89702387D01*
X97274000Y-89702387D01*
X97274000Y-86880772D01*
X106045661Y-86880772D01*
X106236243Y-87224709D01*
X107117036Y-87575336D01*
X108064962Y-87562208D01*
X108879757Y-87224709D01*
X109070339Y-86880772D01*
X107558000Y-85368434D01*
X106045661Y-86880772D01*
X97274000Y-86880772D01*
X97274000Y-84745036D01*
X105168664Y-84745036D01*
X105181792Y-85692962D01*
X105519291Y-86507757D01*
X105863228Y-86698339D01*
X107375566Y-85186000D01*
X107740434Y-85186000D01*
X109252772Y-86698339D01*
X109596709Y-86507757D01*
X109947336Y-85626964D01*
X109934208Y-84679038D01*
X109596709Y-83864243D01*
X109252772Y-83673661D01*
X107740434Y-85186000D01*
X107375566Y-85186000D01*
X105863228Y-83673661D01*
X105519291Y-83864243D01*
X105168664Y-84745036D01*
X97274000Y-84745036D01*
X97274000Y-83491228D01*
X106045661Y-83491228D01*
X107558000Y-85003566D01*
X109070339Y-83491228D01*
X108879757Y-83147291D01*
X107998964Y-82796664D01*
X107051038Y-82809792D01*
X106236243Y-83147291D01*
X106045661Y-83491228D01*
X97274000Y-83491228D01*
X97274000Y-79058733D01*
X99486701Y-79058733D01*
X99585647Y-79324782D01*
X100194920Y-79550236D01*
X100844091Y-79525369D01*
X101328353Y-79324782D01*
X101427299Y-79058733D01*
X105986701Y-79058733D01*
X106085647Y-79324782D01*
X106694920Y-79550236D01*
X107344091Y-79525369D01*
X107828353Y-79324782D01*
X107927299Y-79058733D01*
X106957000Y-78088434D01*
X105986701Y-79058733D01*
X101427299Y-79058733D01*
X100457000Y-78088434D01*
X99486701Y-79058733D01*
X97274000Y-79058733D01*
X97274000Y-77643920D01*
X98812764Y-77643920D01*
X98837631Y-78293091D01*
X99038218Y-78777353D01*
X99304267Y-78876299D01*
X100274566Y-77906000D01*
X100639434Y-77906000D01*
X101609733Y-78876299D01*
X101875782Y-78777353D01*
X102101236Y-78168080D01*
X102081158Y-77643920D01*
X105312764Y-77643920D01*
X105337631Y-78293091D01*
X105538218Y-78777353D01*
X105804267Y-78876299D01*
X106774566Y-77906000D01*
X107139434Y-77906000D01*
X108109733Y-78876299D01*
X108375782Y-78777353D01*
X108601236Y-78168080D01*
X108576369Y-77518909D01*
X108375782Y-77034647D01*
X108109733Y-76935701D01*
X107139434Y-77906000D01*
X106774566Y-77906000D01*
X105804267Y-76935701D01*
X105538218Y-77034647D01*
X105312764Y-77643920D01*
X102081158Y-77643920D01*
X102076369Y-77518909D01*
X101875782Y-77034647D01*
X101609733Y-76935701D01*
X100639434Y-77906000D01*
X100274566Y-77906000D01*
X99304267Y-76935701D01*
X99038218Y-77034647D01*
X98812764Y-77643920D01*
X97274000Y-77643920D01*
X97274000Y-76753267D01*
X99486701Y-76753267D01*
X100457000Y-77723566D01*
X101427299Y-76753267D01*
X105986701Y-76753267D01*
X106957000Y-77723566D01*
X107927299Y-76753267D01*
X107828353Y-76487218D01*
X107219080Y-76261764D01*
X106569909Y-76286631D01*
X106085647Y-76487218D01*
X105986701Y-76753267D01*
X101427299Y-76753267D01*
X101328353Y-76487218D01*
X100719080Y-76261764D01*
X100069909Y-76286631D01*
X99585647Y-76487218D01*
X99486701Y-76753267D01*
X97274000Y-76753267D01*
X97274000Y-73122550D01*
X99032000Y-73122550D01*
X99032000Y-73689450D01*
X99248944Y-74213197D01*
X99649803Y-74614056D01*
X100173550Y-74831000D01*
X100740450Y-74831000D01*
X101264197Y-74614056D01*
X101665056Y-74213197D01*
X101882000Y-73689450D01*
X101882000Y-73122550D01*
X105532000Y-73122550D01*
X105532000Y-73689450D01*
X105748944Y-74213197D01*
X106149803Y-74614056D01*
X106673550Y-74831000D01*
X107240450Y-74831000D01*
X107764197Y-74614056D01*
X108165056Y-74213197D01*
X108382000Y-73689450D01*
X108382000Y-73122550D01*
X108165056Y-72598803D01*
X107764197Y-72197944D01*
X107240450Y-71981000D01*
X106673550Y-71981000D01*
X106149803Y-72197944D01*
X105748944Y-72598803D01*
X105532000Y-73122550D01*
X101882000Y-73122550D01*
X101665056Y-72598803D01*
X101264197Y-72197944D01*
X100740450Y-71981000D01*
X100173550Y-71981000D01*
X99649803Y-72197944D01*
X99248944Y-72598803D01*
X99032000Y-73122550D01*
X97274000Y-73122550D01*
X97274000Y-68042550D01*
X99032000Y-68042550D01*
X99032000Y-68609450D01*
X99248944Y-69133197D01*
X99649803Y-69534056D01*
X100173550Y-69751000D01*
X100740450Y-69751000D01*
X101264197Y-69534056D01*
X101665056Y-69133197D01*
X101882000Y-68609450D01*
X101882000Y-68042550D01*
X105532000Y-68042550D01*
X105532000Y-68609450D01*
X105748944Y-69133197D01*
X106149803Y-69534056D01*
X106673550Y-69751000D01*
X107240450Y-69751000D01*
X107764197Y-69534056D01*
X108165056Y-69133197D01*
X108382000Y-68609450D01*
X108382000Y-68042550D01*
X108165056Y-67518803D01*
X107764197Y-67117944D01*
X107240450Y-66901000D01*
X106673550Y-66901000D01*
X106149803Y-67117944D01*
X105748944Y-67518803D01*
X105532000Y-68042550D01*
X101882000Y-68042550D01*
X101665056Y-67518803D01*
X101264197Y-67117944D01*
X100740450Y-66901000D01*
X100173550Y-66901000D01*
X99649803Y-67117944D01*
X99248944Y-67518803D01*
X99032000Y-68042550D01*
X97274000Y-68042550D01*
X97274000Y-65875897D01*
X115253000Y-65875897D01*
X115253000Y-66204103D01*
X115378599Y-66507325D01*
X115610675Y-66739401D01*
X115913897Y-66865000D01*
X116125184Y-66865000D01*
X118444786Y-69184603D01*
X118475472Y-69230528D01*
X118657401Y-69352089D01*
X118817830Y-69384000D01*
X118817831Y-69384000D01*
X118872000Y-69394775D01*
X118926169Y-69384000D01*
X140381852Y-69384000D01*
X140185823Y-69580029D01*
X140045000Y-69920006D01*
X140045000Y-70287994D01*
X140185823Y-70627971D01*
X140256852Y-70699000D01*
X120398979Y-70699000D01*
X120332499Y-70685776D01*
X120266019Y-70699000D01*
X120069128Y-70738164D01*
X119845852Y-70887352D01*
X119808194Y-70943711D01*
X118336907Y-72415000D01*
X117266726Y-72415000D01*
X117242325Y-72390599D01*
X116939103Y-72265000D01*
X116610897Y-72265000D01*
X116307675Y-72390599D01*
X116075599Y-72622675D01*
X115950000Y-72925897D01*
X115950000Y-73254103D01*
X116075599Y-73557325D01*
X116307675Y-73789401D01*
X116610897Y-73915000D01*
X116939103Y-73915000D01*
X117242325Y-73789401D01*
X117266726Y-73765000D01*
X117943001Y-73765000D01*
X117943000Y-74999480D01*
X117943001Y-74999485D01*
X117943000Y-81423274D01*
X117918599Y-81447675D01*
X117793000Y-81750897D01*
X117793000Y-82079103D01*
X117918599Y-82382325D01*
X118150675Y-82614401D01*
X118453897Y-82740000D01*
X118782103Y-82740000D01*
X119085325Y-82614401D01*
X119317401Y-82382325D01*
X119443000Y-82079103D01*
X119443000Y-81750897D01*
X119317401Y-81447675D01*
X119293000Y-81423274D01*
X119293000Y-73368093D01*
X120612095Y-72049000D01*
X140903519Y-72049000D01*
X140970000Y-72062224D01*
X141036481Y-72049000D01*
X145105184Y-72049000D01*
X144048400Y-73105784D01*
X144002472Y-73136472D01*
X143880911Y-73318402D01*
X143870628Y-73370099D01*
X143838225Y-73533000D01*
X143849000Y-73587169D01*
X143849000Y-74110182D01*
X142667216Y-72928400D01*
X142636528Y-72882472D01*
X142454599Y-72760911D01*
X142294170Y-72729000D01*
X142294169Y-72729000D01*
X142240000Y-72718225D01*
X142185831Y-72729000D01*
X124895168Y-72729000D01*
X124840999Y-72718225D01*
X124796944Y-72726988D01*
X124751103Y-72708000D01*
X124422897Y-72708000D01*
X124119675Y-72833599D01*
X123887599Y-73065675D01*
X123762000Y-73368897D01*
X123762000Y-73697103D01*
X123887599Y-74000325D01*
X124119675Y-74232401D01*
X124422897Y-74358000D01*
X124751103Y-74358000D01*
X125054325Y-74232401D01*
X125286401Y-74000325D01*
X125357366Y-73829000D01*
X140852445Y-73829000D01*
X140780000Y-74003897D01*
X140780000Y-74332103D01*
X140905599Y-74635325D01*
X141055000Y-74784726D01*
X141055001Y-89180182D01*
X140001184Y-90234000D01*
X139789897Y-90234000D01*
X139486675Y-90359599D01*
X139254599Y-90591675D01*
X139129000Y-90894897D01*
X139129000Y-91223103D01*
X139254599Y-91526325D01*
X139486675Y-91758401D01*
X139789897Y-91884000D01*
X140118103Y-91884000D01*
X140421325Y-91758401D01*
X140653401Y-91526325D01*
X140779000Y-91223103D01*
X140779000Y-91011816D01*
X141131638Y-90659178D01*
X141034000Y-90894897D01*
X141034000Y-91223103D01*
X141159599Y-91526325D01*
X141391675Y-91758401D01*
X141694897Y-91884000D01*
X142023103Y-91884000D01*
X142326325Y-91758401D01*
X142558401Y-91526325D01*
X142684000Y-91223103D01*
X142684000Y-91011816D01*
X143098603Y-90597214D01*
X143144528Y-90566528D01*
X143266089Y-90384599D01*
X143298000Y-90224170D01*
X143298000Y-90224169D01*
X143308775Y-90170000D01*
X143298000Y-90115831D01*
X143298000Y-86601818D01*
X143914784Y-87218602D01*
X143945470Y-87264528D01*
X144127399Y-87386089D01*
X144287828Y-87418000D01*
X144287829Y-87418000D01*
X144341998Y-87428775D01*
X144396167Y-87418000D01*
X153358184Y-87418000D01*
X152661034Y-88115150D01*
X152564103Y-88075000D01*
X152235897Y-88075000D01*
X151932675Y-88200599D01*
X151700599Y-88432675D01*
X151575000Y-88735897D01*
X151575000Y-89064103D01*
X151700050Y-89366000D01*
X150984726Y-89366000D01*
X150835325Y-89216599D01*
X150532103Y-89091000D01*
X150203897Y-89091000D01*
X149900675Y-89216599D01*
X149668599Y-89448675D01*
X149543000Y-89751897D01*
X149543000Y-90080103D01*
X149668599Y-90383325D01*
X149900675Y-90615401D01*
X150203897Y-90741000D01*
X150532103Y-90741000D01*
X150835325Y-90615401D01*
X150984726Y-90466000D01*
X152472831Y-90466000D01*
X152527000Y-90476775D01*
X152581169Y-90466000D01*
X152581170Y-90466000D01*
X152741599Y-90434089D01*
X152923528Y-90312528D01*
X152954216Y-90266600D01*
X158465606Y-84755212D01*
X158511528Y-84724528D01*
X158633089Y-84542599D01*
X158665000Y-84382170D01*
X158675775Y-84328001D01*
X158665000Y-84273832D01*
X158665000Y-72825168D01*
X158675775Y-72770999D01*
X158663244Y-72708000D01*
X158633089Y-72556401D01*
X158511528Y-72374472D01*
X158465603Y-72343786D01*
X157499771Y-71377955D01*
X157544401Y-71333325D01*
X157670000Y-71030103D01*
X157670000Y-70701897D01*
X157544401Y-70398675D01*
X157312325Y-70166599D01*
X157009103Y-70041000D01*
X156680897Y-70041000D01*
X156377675Y-70166599D01*
X156145599Y-70398675D01*
X156125000Y-70448405D01*
X156125000Y-70077816D01*
X162004817Y-64198000D01*
X162216103Y-64198000D01*
X162519325Y-64072401D01*
X162751401Y-63840325D01*
X162877000Y-63537103D01*
X162877000Y-63208897D01*
X162751401Y-62905675D01*
X162519325Y-62673599D01*
X162216103Y-62548000D01*
X161977273Y-62548000D01*
X161862401Y-62270675D01*
X161630325Y-62038599D01*
X161447154Y-61962727D01*
X161459000Y-61903170D01*
X161459000Y-61903169D01*
X161469775Y-61849001D01*
X161464955Y-61824771D01*
X161608401Y-61681325D01*
X161734000Y-61378103D01*
X161734000Y-61049897D01*
X161608401Y-60746675D01*
X161376325Y-60514599D01*
X161073103Y-60389000D01*
X160744897Y-60389000D01*
X160441675Y-60514599D01*
X160209599Y-60746675D01*
X160084000Y-61049897D01*
X160084000Y-61378103D01*
X160209599Y-61681325D01*
X160254229Y-61725955D01*
X153065398Y-68914786D01*
X153019473Y-68945472D01*
X152988788Y-68991396D01*
X152897912Y-69127401D01*
X152855225Y-69342000D01*
X152866001Y-69396174D01*
X152866000Y-83465183D01*
X150775184Y-85556000D01*
X145269726Y-85556000D01*
X145120325Y-85406599D01*
X144817103Y-85281000D01*
X144488897Y-85281000D01*
X144187000Y-85406050D01*
X144187000Y-82974160D01*
X144234897Y-82994000D01*
X144563103Y-82994000D01*
X144866325Y-82868401D01*
X145098401Y-82636325D01*
X145224000Y-82333103D01*
X145224000Y-82004897D01*
X145098401Y-81701675D01*
X144949000Y-81552274D01*
X144949000Y-73760816D01*
X147405001Y-71304816D01*
X147405000Y-81552274D01*
X147255599Y-81701675D01*
X147130000Y-82004897D01*
X147130000Y-82333103D01*
X147255599Y-82636325D01*
X147487675Y-82868401D01*
X147790897Y-82994000D01*
X148119103Y-82994000D01*
X148422325Y-82868401D01*
X148654401Y-82636325D01*
X148780000Y-82333103D01*
X148780000Y-82004897D01*
X148654401Y-81701675D01*
X148505000Y-81552274D01*
X148505000Y-70966816D01*
X156560603Y-62911214D01*
X156606528Y-62880528D01*
X156728089Y-62698599D01*
X156760000Y-62538170D01*
X156760000Y-62538169D01*
X156770775Y-62484000D01*
X156760000Y-62429831D01*
X156760000Y-61195726D01*
X156909401Y-61046325D01*
X157035000Y-60743103D01*
X157035000Y-60414897D01*
X156909401Y-60111675D01*
X156677325Y-59879599D01*
X156374103Y-59754000D01*
X156288816Y-59754000D01*
X157707817Y-58335000D01*
X162070274Y-58335000D01*
X162219675Y-58484401D01*
X162522897Y-58610000D01*
X162851103Y-58610000D01*
X163154325Y-58484401D01*
X163386401Y-58252325D01*
X163512000Y-57949103D01*
X163512000Y-57620897D01*
X163386401Y-57317675D01*
X163154325Y-57085599D01*
X162851103Y-56960000D01*
X162522897Y-56960000D01*
X162219675Y-57085599D01*
X162070274Y-57235000D01*
X157841594Y-57235000D01*
X159942289Y-55134305D01*
X159998647Y-55096648D01*
X160147836Y-54873372D01*
X160187000Y-54676481D01*
X160187000Y-54676480D01*
X160200224Y-54610001D01*
X160187000Y-54543520D01*
X160187000Y-53011326D01*
X160274000Y-53011326D01*
X160439827Y-52978341D01*
X160580408Y-52884408D01*
X160674341Y-52743827D01*
X160707326Y-52578000D01*
X160707326Y-51054000D01*
X160674341Y-50888173D01*
X160580408Y-50747592D01*
X160439827Y-50653659D01*
X160274000Y-50620674D01*
X160187000Y-50620674D01*
X160187000Y-50471326D01*
X160274000Y-50471326D01*
X160439827Y-50438341D01*
X160580408Y-50344408D01*
X160674341Y-50203827D01*
X160707326Y-50038000D01*
X160707326Y-48514000D01*
X160856674Y-48514000D01*
X160856674Y-50038000D01*
X160889659Y-50203827D01*
X160983592Y-50344408D01*
X161124173Y-50438341D01*
X161290000Y-50471326D01*
X162814000Y-50471326D01*
X162979827Y-50438341D01*
X163120408Y-50344408D01*
X163213843Y-50204573D01*
X163293368Y-50396565D01*
X163442803Y-50546000D01*
X163293368Y-50695435D01*
X163213843Y-50887427D01*
X163120408Y-50747592D01*
X162979827Y-50653659D01*
X162814000Y-50620674D01*
X161290000Y-50620674D01*
X161124173Y-50653659D01*
X160983592Y-50747592D01*
X160889659Y-50888173D01*
X160856674Y-51054000D01*
X160856674Y-52578000D01*
X160889659Y-52743827D01*
X160983592Y-52884408D01*
X161124173Y-52978341D01*
X161290000Y-53011326D01*
X162814000Y-53011326D01*
X162979827Y-52978341D01*
X163120408Y-52884408D01*
X163213843Y-52744573D01*
X163293368Y-52936565D01*
X163471434Y-53114631D01*
X163704088Y-53211000D01*
X164304750Y-53211000D01*
X164463000Y-53052750D01*
X164463000Y-51945000D01*
X164721000Y-51945000D01*
X164721000Y-53052750D01*
X164879250Y-53211000D01*
X165479912Y-53211000D01*
X165712566Y-53114631D01*
X165890632Y-52936565D01*
X165987000Y-52703911D01*
X165987000Y-52103250D01*
X167769000Y-52103250D01*
X167769000Y-52703911D01*
X167865368Y-52936565D01*
X168043434Y-53114631D01*
X168276088Y-53211000D01*
X168876750Y-53211000D01*
X169035000Y-53052750D01*
X169035000Y-51945000D01*
X167927250Y-51945000D01*
X167769000Y-52103250D01*
X165987000Y-52103250D01*
X165828750Y-51945000D01*
X164721000Y-51945000D01*
X164463000Y-51945000D01*
X164443000Y-51945000D01*
X164443000Y-51687000D01*
X164463000Y-51687000D01*
X164463000Y-50579250D01*
X164429750Y-50546000D01*
X164463000Y-50512750D01*
X164463000Y-49405000D01*
X164721000Y-49405000D01*
X164721000Y-50512750D01*
X164754250Y-50546000D01*
X164721000Y-50579250D01*
X164721000Y-51687000D01*
X165828750Y-51687000D01*
X165987000Y-51528750D01*
X165987000Y-50928089D01*
X165890632Y-50695435D01*
X165741197Y-50546000D01*
X165890632Y-50396565D01*
X165987000Y-50163911D01*
X165987000Y-49563250D01*
X167769000Y-49563250D01*
X167769000Y-50163911D01*
X167865368Y-50396565D01*
X168014803Y-50546000D01*
X167865368Y-50695435D01*
X167769000Y-50928089D01*
X167769000Y-51528750D01*
X167927250Y-51687000D01*
X169035000Y-51687000D01*
X169035000Y-50579250D01*
X169001750Y-50546000D01*
X169035000Y-50512750D01*
X169035000Y-49405000D01*
X167927250Y-49405000D01*
X167769000Y-49563250D01*
X165987000Y-49563250D01*
X165828750Y-49405000D01*
X164721000Y-49405000D01*
X164463000Y-49405000D01*
X164443000Y-49405000D01*
X164443000Y-49147000D01*
X164463000Y-49147000D01*
X164463000Y-48039250D01*
X164721000Y-48039250D01*
X164721000Y-49147000D01*
X165828750Y-49147000D01*
X165987000Y-48988750D01*
X165987000Y-48388089D01*
X167769000Y-48388089D01*
X167769000Y-48988750D01*
X167927250Y-49147000D01*
X169035000Y-49147000D01*
X169035000Y-48039250D01*
X168876750Y-47881000D01*
X168276088Y-47881000D01*
X168043434Y-47977369D01*
X167865368Y-48155435D01*
X167769000Y-48388089D01*
X165987000Y-48388089D01*
X165890632Y-48155435D01*
X165712566Y-47977369D01*
X165479912Y-47881000D01*
X164879250Y-47881000D01*
X164721000Y-48039250D01*
X164463000Y-48039250D01*
X164304750Y-47881000D01*
X163704088Y-47881000D01*
X163471434Y-47977369D01*
X163293368Y-48155435D01*
X163213843Y-48347427D01*
X163120408Y-48207592D01*
X162979827Y-48113659D01*
X162814000Y-48080674D01*
X161290000Y-48080674D01*
X161124173Y-48113659D01*
X160983592Y-48207592D01*
X160889659Y-48348173D01*
X160856674Y-48514000D01*
X160707326Y-48514000D01*
X160674341Y-48348173D01*
X160580408Y-48207592D01*
X160439827Y-48113659D01*
X160274000Y-48080674D01*
X158750000Y-48080674D01*
X158584173Y-48113659D01*
X158443592Y-48207592D01*
X158349659Y-48348173D01*
X158316674Y-48514000D01*
X158316674Y-50038000D01*
X158349659Y-50203827D01*
X158443592Y-50344408D01*
X158584173Y-50438341D01*
X158750000Y-50471326D01*
X158837000Y-50471326D01*
X158837001Y-50620674D01*
X158750000Y-50620674D01*
X158584173Y-50653659D01*
X158443592Y-50747592D01*
X158349659Y-50888173D01*
X158316674Y-51054000D01*
X158316674Y-52578000D01*
X158349659Y-52743827D01*
X158443592Y-52884408D01*
X158584173Y-52978341D01*
X158750000Y-53011326D01*
X158837001Y-53011326D01*
X158837000Y-54330406D01*
X153874714Y-59292693D01*
X153818353Y-59330352D01*
X153780694Y-59386713D01*
X153669164Y-59553629D01*
X153616776Y-59817000D01*
X153630001Y-59883486D01*
X153630000Y-62077406D01*
X145008407Y-70699000D01*
X141683148Y-70699000D01*
X141754177Y-70627971D01*
X141895000Y-70287994D01*
X141895000Y-69920006D01*
X141754177Y-69580029D01*
X141558148Y-69384000D01*
X143320000Y-69384000D01*
X143320000Y-69506103D01*
X143445599Y-69809325D01*
X143677675Y-70041401D01*
X143980897Y-70167000D01*
X144309103Y-70167000D01*
X144612325Y-70041401D01*
X144844401Y-69809325D01*
X144970000Y-69506103D01*
X144970000Y-69177897D01*
X144844401Y-68874675D01*
X144612325Y-68642599D01*
X144309103Y-68517000D01*
X144097816Y-68517000D01*
X144064216Y-68483399D01*
X144033528Y-68437472D01*
X143851599Y-68315911D01*
X143691170Y-68284000D01*
X143691169Y-68284000D01*
X143637000Y-68273225D01*
X143582831Y-68284000D01*
X119099817Y-68284000D01*
X116903000Y-66087184D01*
X116903000Y-65875897D01*
X116777401Y-65572675D01*
X116545325Y-65340599D01*
X116242103Y-65215000D01*
X115913897Y-65215000D01*
X115610675Y-65340599D01*
X115378599Y-65572675D01*
X115253000Y-65875897D01*
X97274000Y-65875897D01*
X97274000Y-64978733D01*
X99486701Y-64978733D01*
X99585647Y-65244782D01*
X100194920Y-65470236D01*
X100844091Y-65445369D01*
X101328353Y-65244782D01*
X101427299Y-64978733D01*
X105986701Y-64978733D01*
X106085647Y-65244782D01*
X106694920Y-65470236D01*
X107344091Y-65445369D01*
X107828353Y-65244782D01*
X107927299Y-64978733D01*
X106957000Y-64008434D01*
X105986701Y-64978733D01*
X101427299Y-64978733D01*
X100457000Y-64008434D01*
X99486701Y-64978733D01*
X97274000Y-64978733D01*
X97274000Y-63563920D01*
X98812764Y-63563920D01*
X98837631Y-64213091D01*
X99038218Y-64697353D01*
X99304267Y-64796299D01*
X100274566Y-63826000D01*
X100639434Y-63826000D01*
X101609733Y-64796299D01*
X101875782Y-64697353D01*
X102101236Y-64088080D01*
X102081158Y-63563920D01*
X105312764Y-63563920D01*
X105337631Y-64213091D01*
X105538218Y-64697353D01*
X105804267Y-64796299D01*
X106774566Y-63826000D01*
X107139434Y-63826000D01*
X108109733Y-64796299D01*
X108375782Y-64697353D01*
X108601236Y-64088080D01*
X108576369Y-63438909D01*
X108375782Y-62954647D01*
X108109733Y-62855701D01*
X107139434Y-63826000D01*
X106774566Y-63826000D01*
X105804267Y-62855701D01*
X105538218Y-62954647D01*
X105312764Y-63563920D01*
X102081158Y-63563920D01*
X102076369Y-63438909D01*
X101875782Y-62954647D01*
X101609733Y-62855701D01*
X100639434Y-63826000D01*
X100274566Y-63826000D01*
X99304267Y-62855701D01*
X99038218Y-62954647D01*
X98812764Y-63563920D01*
X97274000Y-63563920D01*
X97274000Y-62673267D01*
X99486701Y-62673267D01*
X100457000Y-63643566D01*
X101427299Y-62673267D01*
X105986701Y-62673267D01*
X106957000Y-63643566D01*
X107927299Y-62673267D01*
X107828353Y-62407218D01*
X107219080Y-62181764D01*
X106569909Y-62206631D01*
X106085647Y-62407218D01*
X105986701Y-62673267D01*
X101427299Y-62673267D01*
X101328353Y-62407218D01*
X100719080Y-62181764D01*
X100069909Y-62206631D01*
X99585647Y-62407218D01*
X99486701Y-62673267D01*
X97274000Y-62673267D01*
X97274000Y-61938897D01*
X121222000Y-61938897D01*
X121222000Y-62267103D01*
X121347599Y-62570325D01*
X121579675Y-62802401D01*
X121882897Y-62928000D01*
X122211103Y-62928000D01*
X122514325Y-62802401D01*
X122663726Y-62653000D01*
X148743184Y-62653000D01*
X149670000Y-63579817D01*
X149670000Y-63791103D01*
X149795599Y-64094325D01*
X150027675Y-64326401D01*
X150330897Y-64452000D01*
X150659103Y-64452000D01*
X150962325Y-64326401D01*
X151194401Y-64094325D01*
X151320000Y-63791103D01*
X151320000Y-63462897D01*
X151194401Y-63159675D01*
X150962325Y-62927599D01*
X150659103Y-62802000D01*
X150447817Y-62802000D01*
X149398216Y-61752400D01*
X149367528Y-61706472D01*
X149185599Y-61584911D01*
X149025170Y-61553000D01*
X149025169Y-61553000D01*
X148971000Y-61542225D01*
X148916831Y-61553000D01*
X122663726Y-61553000D01*
X122514325Y-61403599D01*
X122211103Y-61278000D01*
X121882897Y-61278000D01*
X121579675Y-61403599D01*
X121347599Y-61635675D01*
X121222000Y-61938897D01*
X97274000Y-61938897D01*
X97274000Y-52478931D01*
X107445000Y-52478931D01*
X107445000Y-53185069D01*
X107715228Y-53837457D01*
X108214543Y-54336772D01*
X108866931Y-54607000D01*
X109573069Y-54607000D01*
X110225457Y-54336772D01*
X110724772Y-53837457D01*
X110995000Y-53185069D01*
X110995000Y-52478931D01*
X111562495Y-52478931D01*
X111562495Y-53185069D01*
X111832723Y-53837457D01*
X112332038Y-54336772D01*
X112984426Y-54607000D01*
X113690564Y-54607000D01*
X114342952Y-54336772D01*
X114842267Y-53837457D01*
X115112495Y-53185069D01*
X115112495Y-52478931D01*
X117097000Y-52478931D01*
X117097000Y-53185069D01*
X117367228Y-53837457D01*
X117866543Y-54336772D01*
X118518931Y-54607000D01*
X119225069Y-54607000D01*
X119877457Y-54336772D01*
X120376772Y-53837457D01*
X120647000Y-53185069D01*
X120647000Y-52478931D01*
X121161000Y-52478931D01*
X121161000Y-53185069D01*
X121431228Y-53837457D01*
X121930543Y-54336772D01*
X122582931Y-54607000D01*
X123289069Y-54607000D01*
X123941457Y-54336772D01*
X124440772Y-53837457D01*
X124711000Y-53185069D01*
X124711000Y-52478931D01*
X124440772Y-51826543D01*
X123941457Y-51327228D01*
X123289069Y-51057000D01*
X122582931Y-51057000D01*
X121930543Y-51327228D01*
X121431228Y-51826543D01*
X121161000Y-52478931D01*
X120647000Y-52478931D01*
X120376772Y-51826543D01*
X119877457Y-51327228D01*
X119225069Y-51057000D01*
X118518931Y-51057000D01*
X117866543Y-51327228D01*
X117367228Y-51826543D01*
X117097000Y-52478931D01*
X115112495Y-52478931D01*
X114842267Y-51826543D01*
X114342952Y-51327228D01*
X113690564Y-51057000D01*
X112984426Y-51057000D01*
X112332038Y-51327228D01*
X111832723Y-51826543D01*
X111562495Y-52478931D01*
X110995000Y-52478931D01*
X110724772Y-51826543D01*
X110225457Y-51327228D01*
X109573069Y-51057000D01*
X108866931Y-51057000D01*
X108214543Y-51327228D01*
X107715228Y-51826543D01*
X107445000Y-52478931D01*
X97274000Y-52478931D01*
X97274000Y-51054000D01*
X128344674Y-51054000D01*
X128344674Y-52578000D01*
X128377659Y-52743827D01*
X128471592Y-52884408D01*
X128612173Y-52978341D01*
X128778000Y-53011326D01*
X130302000Y-53011326D01*
X130467827Y-52978341D01*
X130608408Y-52884408D01*
X130702341Y-52743827D01*
X130735326Y-52578000D01*
X130735326Y-51054000D01*
X130884674Y-51054000D01*
X130884674Y-52578000D01*
X130917659Y-52743827D01*
X131011592Y-52884408D01*
X131152173Y-52978341D01*
X131318000Y-53011326D01*
X132842000Y-53011326D01*
X133007827Y-52978341D01*
X133148408Y-52884408D01*
X133242341Y-52743827D01*
X133275326Y-52578000D01*
X133275326Y-51054000D01*
X133424674Y-51054000D01*
X133424674Y-52578000D01*
X133457659Y-52743827D01*
X133551592Y-52884408D01*
X133692173Y-52978341D01*
X133858000Y-53011326D01*
X135382000Y-53011326D01*
X135547827Y-52978341D01*
X135688408Y-52884408D01*
X135782341Y-52743827D01*
X135815326Y-52578000D01*
X135815326Y-51054000D01*
X135964674Y-51054000D01*
X135964674Y-52578000D01*
X135997659Y-52743827D01*
X136091592Y-52884408D01*
X136232173Y-52978341D01*
X136398000Y-53011326D01*
X137922000Y-53011326D01*
X138087827Y-52978341D01*
X138228408Y-52884408D01*
X138322341Y-52743827D01*
X138355326Y-52578000D01*
X138355326Y-51054000D01*
X138504674Y-51054000D01*
X138504674Y-52578000D01*
X138537659Y-52743827D01*
X138631592Y-52884408D01*
X138772173Y-52978341D01*
X138938000Y-53011326D01*
X140462000Y-53011326D01*
X140627827Y-52978341D01*
X140768408Y-52884408D01*
X140862341Y-52743827D01*
X140895326Y-52578000D01*
X140895326Y-51054000D01*
X141044674Y-51054000D01*
X141044674Y-52578000D01*
X141077659Y-52743827D01*
X141171592Y-52884408D01*
X141312173Y-52978341D01*
X141478000Y-53011326D01*
X143002000Y-53011326D01*
X143167827Y-52978341D01*
X143308408Y-52884408D01*
X143402341Y-52743827D01*
X143435326Y-52578000D01*
X143435326Y-51054000D01*
X143584674Y-51054000D01*
X143584674Y-52578000D01*
X143617659Y-52743827D01*
X143711592Y-52884408D01*
X143852173Y-52978341D01*
X144018000Y-53011326D01*
X145542000Y-53011326D01*
X145707827Y-52978341D01*
X145848408Y-52884408D01*
X145942341Y-52743827D01*
X145975326Y-52578000D01*
X145975326Y-51054000D01*
X146124674Y-51054000D01*
X146124674Y-52578000D01*
X146157659Y-52743827D01*
X146251592Y-52884408D01*
X146392173Y-52978341D01*
X146558000Y-53011326D01*
X148082000Y-53011326D01*
X148247827Y-52978341D01*
X148388408Y-52884408D01*
X148482341Y-52743827D01*
X148515326Y-52578000D01*
X148515326Y-51054000D01*
X148664674Y-51054000D01*
X148664674Y-52578000D01*
X148697659Y-52743827D01*
X148791592Y-52884408D01*
X148932173Y-52978341D01*
X149098000Y-53011326D01*
X150622000Y-53011326D01*
X150787827Y-52978341D01*
X150928408Y-52884408D01*
X151022341Y-52743827D01*
X151055326Y-52578000D01*
X151055326Y-52103250D01*
X153037000Y-52103250D01*
X153037000Y-52703911D01*
X153133368Y-52936565D01*
X153311434Y-53114631D01*
X153544088Y-53211000D01*
X154144750Y-53211000D01*
X154303000Y-53052750D01*
X154303000Y-51945000D01*
X153195250Y-51945000D01*
X153037000Y-52103250D01*
X151055326Y-52103250D01*
X151055326Y-51054000D01*
X151022341Y-50888173D01*
X150928408Y-50747592D01*
X150787827Y-50653659D01*
X150622000Y-50620674D01*
X149098000Y-50620674D01*
X148932173Y-50653659D01*
X148791592Y-50747592D01*
X148697659Y-50888173D01*
X148664674Y-51054000D01*
X148515326Y-51054000D01*
X148482341Y-50888173D01*
X148388408Y-50747592D01*
X148247827Y-50653659D01*
X148082000Y-50620674D01*
X146558000Y-50620674D01*
X146392173Y-50653659D01*
X146251592Y-50747592D01*
X146157659Y-50888173D01*
X146124674Y-51054000D01*
X145975326Y-51054000D01*
X145942341Y-50888173D01*
X145848408Y-50747592D01*
X145707827Y-50653659D01*
X145542000Y-50620674D01*
X144018000Y-50620674D01*
X143852173Y-50653659D01*
X143711592Y-50747592D01*
X143617659Y-50888173D01*
X143584674Y-51054000D01*
X143435326Y-51054000D01*
X143402341Y-50888173D01*
X143308408Y-50747592D01*
X143167827Y-50653659D01*
X143002000Y-50620674D01*
X141478000Y-50620674D01*
X141312173Y-50653659D01*
X141171592Y-50747592D01*
X141077659Y-50888173D01*
X141044674Y-51054000D01*
X140895326Y-51054000D01*
X140862341Y-50888173D01*
X140768408Y-50747592D01*
X140627827Y-50653659D01*
X140462000Y-50620674D01*
X138938000Y-50620674D01*
X138772173Y-50653659D01*
X138631592Y-50747592D01*
X138537659Y-50888173D01*
X138504674Y-51054000D01*
X138355326Y-51054000D01*
X138322341Y-50888173D01*
X138228408Y-50747592D01*
X138087827Y-50653659D01*
X137922000Y-50620674D01*
X136398000Y-50620674D01*
X136232173Y-50653659D01*
X136091592Y-50747592D01*
X135997659Y-50888173D01*
X135964674Y-51054000D01*
X135815326Y-51054000D01*
X135782341Y-50888173D01*
X135688408Y-50747592D01*
X135547827Y-50653659D01*
X135382000Y-50620674D01*
X133858000Y-50620674D01*
X133692173Y-50653659D01*
X133551592Y-50747592D01*
X133457659Y-50888173D01*
X133424674Y-51054000D01*
X133275326Y-51054000D01*
X133242341Y-50888173D01*
X133148408Y-50747592D01*
X133007827Y-50653659D01*
X132842000Y-50620674D01*
X131318000Y-50620674D01*
X131152173Y-50653659D01*
X131011592Y-50747592D01*
X130917659Y-50888173D01*
X130884674Y-51054000D01*
X130735326Y-51054000D01*
X130702341Y-50888173D01*
X130608408Y-50747592D01*
X130467827Y-50653659D01*
X130302000Y-50620674D01*
X128778000Y-50620674D01*
X128612173Y-50653659D01*
X128471592Y-50747592D01*
X128377659Y-50888173D01*
X128344674Y-51054000D01*
X97274000Y-51054000D01*
X97274000Y-48514000D01*
X128344674Y-48514000D01*
X128344674Y-50038000D01*
X128377659Y-50203827D01*
X128471592Y-50344408D01*
X128612173Y-50438341D01*
X128778000Y-50471326D01*
X130302000Y-50471326D01*
X130467827Y-50438341D01*
X130608408Y-50344408D01*
X130702341Y-50203827D01*
X130735326Y-50038000D01*
X130735326Y-48514000D01*
X130884674Y-48514000D01*
X130884674Y-50038000D01*
X130917659Y-50203827D01*
X131011592Y-50344408D01*
X131152173Y-50438341D01*
X131318000Y-50471326D01*
X132842000Y-50471326D01*
X133007827Y-50438341D01*
X133148408Y-50344408D01*
X133242341Y-50203827D01*
X133275326Y-50038000D01*
X133275326Y-48514000D01*
X133424674Y-48514000D01*
X133424674Y-50038000D01*
X133457659Y-50203827D01*
X133551592Y-50344408D01*
X133692173Y-50438341D01*
X133858000Y-50471326D01*
X135382000Y-50471326D01*
X135547827Y-50438341D01*
X135688408Y-50344408D01*
X135782341Y-50203827D01*
X135815326Y-50038000D01*
X135815326Y-48514000D01*
X135964674Y-48514000D01*
X135964674Y-50038000D01*
X135997659Y-50203827D01*
X136091592Y-50344408D01*
X136232173Y-50438341D01*
X136398000Y-50471326D01*
X137922000Y-50471326D01*
X138087827Y-50438341D01*
X138228408Y-50344408D01*
X138322341Y-50203827D01*
X138355326Y-50038000D01*
X138355326Y-48514000D01*
X138504674Y-48514000D01*
X138504674Y-50038000D01*
X138537659Y-50203827D01*
X138631592Y-50344408D01*
X138772173Y-50438341D01*
X138938000Y-50471326D01*
X140462000Y-50471326D01*
X140627827Y-50438341D01*
X140768408Y-50344408D01*
X140862341Y-50203827D01*
X140895326Y-50038000D01*
X140895326Y-48514000D01*
X141044674Y-48514000D01*
X141044674Y-50038000D01*
X141077659Y-50203827D01*
X141171592Y-50344408D01*
X141312173Y-50438341D01*
X141478000Y-50471326D01*
X143002000Y-50471326D01*
X143167827Y-50438341D01*
X143308408Y-50344408D01*
X143402341Y-50203827D01*
X143435326Y-50038000D01*
X143435326Y-48514000D01*
X143584674Y-48514000D01*
X143584674Y-50038000D01*
X143617659Y-50203827D01*
X143711592Y-50344408D01*
X143852173Y-50438341D01*
X144018000Y-50471326D01*
X145542000Y-50471326D01*
X145707827Y-50438341D01*
X145848408Y-50344408D01*
X145942341Y-50203827D01*
X145975326Y-50038000D01*
X145975326Y-48514000D01*
X146124674Y-48514000D01*
X146124674Y-50038000D01*
X146157659Y-50203827D01*
X146251592Y-50344408D01*
X146392173Y-50438341D01*
X146558000Y-50471326D01*
X148082000Y-50471326D01*
X148247827Y-50438341D01*
X148388408Y-50344408D01*
X148482341Y-50203827D01*
X148515326Y-50038000D01*
X148515326Y-48514000D01*
X148664674Y-48514000D01*
X148664674Y-50038000D01*
X148697659Y-50203827D01*
X148791592Y-50344408D01*
X148932173Y-50438341D01*
X149098000Y-50471326D01*
X150622000Y-50471326D01*
X150787827Y-50438341D01*
X150928408Y-50344408D01*
X151022341Y-50203827D01*
X151055326Y-50038000D01*
X151055326Y-49563250D01*
X153037000Y-49563250D01*
X153037000Y-50163911D01*
X153133368Y-50396565D01*
X153282803Y-50546000D01*
X153133368Y-50695435D01*
X153037000Y-50928089D01*
X153037000Y-51528750D01*
X153195250Y-51687000D01*
X154303000Y-51687000D01*
X154303000Y-50579250D01*
X154269750Y-50546000D01*
X154303000Y-50512750D01*
X154303000Y-49405000D01*
X153195250Y-49405000D01*
X153037000Y-49563250D01*
X151055326Y-49563250D01*
X151055326Y-48514000D01*
X151030281Y-48388089D01*
X153037000Y-48388089D01*
X153037000Y-48988750D01*
X153195250Y-49147000D01*
X154303000Y-49147000D01*
X154303000Y-48039250D01*
X154561000Y-48039250D01*
X154561000Y-49147000D01*
X154581000Y-49147000D01*
X154581000Y-49405000D01*
X154561000Y-49405000D01*
X154561000Y-50512750D01*
X154594250Y-50546000D01*
X154561000Y-50579250D01*
X154561000Y-51687000D01*
X154581000Y-51687000D01*
X154581000Y-51945000D01*
X154561000Y-51945000D01*
X154561000Y-53052750D01*
X154719250Y-53211000D01*
X155319912Y-53211000D01*
X155552566Y-53114631D01*
X155730632Y-52936565D01*
X155810157Y-52744573D01*
X155903592Y-52884408D01*
X156044173Y-52978341D01*
X156210000Y-53011326D01*
X157734000Y-53011326D01*
X157899827Y-52978341D01*
X158040408Y-52884408D01*
X158134341Y-52743827D01*
X158167326Y-52578000D01*
X158167326Y-51054000D01*
X158134341Y-50888173D01*
X158040408Y-50747592D01*
X157899827Y-50653659D01*
X157734000Y-50620674D01*
X156210000Y-50620674D01*
X156044173Y-50653659D01*
X155903592Y-50747592D01*
X155810157Y-50887427D01*
X155730632Y-50695435D01*
X155581197Y-50546000D01*
X155730632Y-50396565D01*
X155810157Y-50204573D01*
X155903592Y-50344408D01*
X156044173Y-50438341D01*
X156210000Y-50471326D01*
X157734000Y-50471326D01*
X157899827Y-50438341D01*
X158040408Y-50344408D01*
X158134341Y-50203827D01*
X158167326Y-50038000D01*
X158167326Y-48514000D01*
X158134341Y-48348173D01*
X158040408Y-48207592D01*
X157899827Y-48113659D01*
X157734000Y-48080674D01*
X156210000Y-48080674D01*
X156044173Y-48113659D01*
X155903592Y-48207592D01*
X155810157Y-48347427D01*
X155730632Y-48155435D01*
X155552566Y-47977369D01*
X155319912Y-47881000D01*
X154719250Y-47881000D01*
X154561000Y-48039250D01*
X154303000Y-48039250D01*
X154144750Y-47881000D01*
X153544088Y-47881000D01*
X153311434Y-47977369D01*
X153133368Y-48155435D01*
X153037000Y-48388089D01*
X151030281Y-48388089D01*
X151022341Y-48348173D01*
X150928408Y-48207592D01*
X150787827Y-48113659D01*
X150622000Y-48080674D01*
X149098000Y-48080674D01*
X148932173Y-48113659D01*
X148791592Y-48207592D01*
X148697659Y-48348173D01*
X148664674Y-48514000D01*
X148515326Y-48514000D01*
X148482341Y-48348173D01*
X148388408Y-48207592D01*
X148247827Y-48113659D01*
X148082000Y-48080674D01*
X146558000Y-48080674D01*
X146392173Y-48113659D01*
X146251592Y-48207592D01*
X146157659Y-48348173D01*
X146124674Y-48514000D01*
X145975326Y-48514000D01*
X145942341Y-48348173D01*
X145848408Y-48207592D01*
X145707827Y-48113659D01*
X145542000Y-48080674D01*
X144018000Y-48080674D01*
X143852173Y-48113659D01*
X143711592Y-48207592D01*
X143617659Y-48348173D01*
X143584674Y-48514000D01*
X143435326Y-48514000D01*
X143402341Y-48348173D01*
X143308408Y-48207592D01*
X143167827Y-48113659D01*
X143002000Y-48080674D01*
X141478000Y-48080674D01*
X141312173Y-48113659D01*
X141171592Y-48207592D01*
X141077659Y-48348173D01*
X141044674Y-48514000D01*
X140895326Y-48514000D01*
X140862341Y-48348173D01*
X140768408Y-48207592D01*
X140627827Y-48113659D01*
X140462000Y-48080674D01*
X138938000Y-48080674D01*
X138772173Y-48113659D01*
X138631592Y-48207592D01*
X138537659Y-48348173D01*
X138504674Y-48514000D01*
X138355326Y-48514000D01*
X138322341Y-48348173D01*
X138228408Y-48207592D01*
X138087827Y-48113659D01*
X137922000Y-48080674D01*
X136398000Y-48080674D01*
X136232173Y-48113659D01*
X136091592Y-48207592D01*
X135997659Y-48348173D01*
X135964674Y-48514000D01*
X135815326Y-48514000D01*
X135782341Y-48348173D01*
X135688408Y-48207592D01*
X135547827Y-48113659D01*
X135382000Y-48080674D01*
X133858000Y-48080674D01*
X133692173Y-48113659D01*
X133551592Y-48207592D01*
X133457659Y-48348173D01*
X133424674Y-48514000D01*
X133275326Y-48514000D01*
X133242341Y-48348173D01*
X133148408Y-48207592D01*
X133007827Y-48113659D01*
X132842000Y-48080674D01*
X131318000Y-48080674D01*
X131152173Y-48113659D01*
X131011592Y-48207592D01*
X130917659Y-48348173D01*
X130884674Y-48514000D01*
X130735326Y-48514000D01*
X130702341Y-48348173D01*
X130608408Y-48207592D01*
X130467827Y-48113659D01*
X130302000Y-48080674D01*
X128778000Y-48080674D01*
X128612173Y-48113659D01*
X128471592Y-48207592D01*
X128377659Y-48348173D01*
X128344674Y-48514000D01*
X97274000Y-48514000D01*
X97274000Y-46474000D01*
X207526001Y-46474000D01*
X207526000Y-136406000D01*
G04 #@! TD*
M02*
