G04 #@! TF.GenerationSoftware,KiCad,Pcbnew,5.0.2-bee76a0~70~ubuntu18.04.1*
G04 #@! TF.CreationDate,2020-07-22T00:10:31+02:00*
G04 #@! TF.ProjectId,E32CB_R2,45333243-425f-4523-922e-6b696361645f,rev?*
G04 #@! TF.SameCoordinates,Original*
G04 #@! TF.FileFunction,Paste,Bot*
G04 #@! TF.FilePolarity,Positive*
%FSLAX46Y46*%
G04 Gerber Fmt 4.6, Leading zero omitted, Abs format (unit mm)*
G04 Created by KiCad (PCBNEW 5.0.2-bee76a0~70~ubuntu18.04.1) date St 22. července 2020, 00:10:31 CEST*
%MOMM*%
%LPD*%
G01*
G04 APERTURE LIST*
%ADD10R,5.000000X5.000000*%
%ADD11R,0.900000X2.000000*%
%ADD12R,2.000000X0.900000*%
%ADD13C,0.100000*%
%ADD14C,1.150000*%
%ADD15R,7.875000X2.000000*%
%ADD16R,2.700000X3.500000*%
%ADD17C,1.300000*%
%ADD18R,1.500000X1.050000*%
%ADD19C,0.600000*%
%ADD20R,0.800000X0.900000*%
%ADD21R,0.900000X0.800000*%
G04 APERTURE END LIST*
D10*
G04 #@! TO.C,U1*
X163075000Y-74565000D03*
D11*
X155575000Y-67065000D03*
X156845000Y-67065000D03*
X158115000Y-67065000D03*
X159385000Y-67065000D03*
X160655000Y-67065000D03*
X161925000Y-67065000D03*
X163195000Y-67065000D03*
X164465000Y-67065000D03*
X165735000Y-67065000D03*
X167005000Y-67065000D03*
X168275000Y-67065000D03*
X169545000Y-67065000D03*
X170815000Y-67065000D03*
X172085000Y-67065000D03*
D12*
X173085000Y-69850000D03*
X173085000Y-71120000D03*
X173085000Y-72390000D03*
X173085000Y-73660000D03*
X173085000Y-74930000D03*
X173085000Y-76200000D03*
X173085000Y-77470000D03*
X173085000Y-78740000D03*
X173085000Y-80010000D03*
X173085000Y-81280000D03*
D11*
X172085000Y-84065000D03*
X170815000Y-84065000D03*
X169545000Y-84065000D03*
X168275000Y-84065000D03*
X167005000Y-84065000D03*
X165735000Y-84065000D03*
X164465000Y-84065000D03*
X163195000Y-84065000D03*
X161925000Y-84065000D03*
X160655000Y-84065000D03*
X159385000Y-84065000D03*
X158115000Y-84065000D03*
X156845000Y-84065000D03*
X155575000Y-84065000D03*
G04 #@! TD*
D13*
G04 #@! TO.C,C1*
G36*
X131168505Y-92265204D02*
X131192773Y-92268804D01*
X131216572Y-92274765D01*
X131239671Y-92283030D01*
X131261850Y-92293520D01*
X131282893Y-92306132D01*
X131302599Y-92320747D01*
X131320777Y-92337223D01*
X131337253Y-92355401D01*
X131351868Y-92375107D01*
X131364480Y-92396150D01*
X131374970Y-92418329D01*
X131383235Y-92441428D01*
X131389196Y-92465227D01*
X131392796Y-92489495D01*
X131394000Y-92513999D01*
X131394000Y-93414001D01*
X131392796Y-93438505D01*
X131389196Y-93462773D01*
X131383235Y-93486572D01*
X131374970Y-93509671D01*
X131364480Y-93531850D01*
X131351868Y-93552893D01*
X131337253Y-93572599D01*
X131320777Y-93590777D01*
X131302599Y-93607253D01*
X131282893Y-93621868D01*
X131261850Y-93634480D01*
X131239671Y-93644970D01*
X131216572Y-93653235D01*
X131192773Y-93659196D01*
X131168505Y-93662796D01*
X131144001Y-93664000D01*
X130493999Y-93664000D01*
X130469495Y-93662796D01*
X130445227Y-93659196D01*
X130421428Y-93653235D01*
X130398329Y-93644970D01*
X130376150Y-93634480D01*
X130355107Y-93621868D01*
X130335401Y-93607253D01*
X130317223Y-93590777D01*
X130300747Y-93572599D01*
X130286132Y-93552893D01*
X130273520Y-93531850D01*
X130263030Y-93509671D01*
X130254765Y-93486572D01*
X130248804Y-93462773D01*
X130245204Y-93438505D01*
X130244000Y-93414001D01*
X130244000Y-92513999D01*
X130245204Y-92489495D01*
X130248804Y-92465227D01*
X130254765Y-92441428D01*
X130263030Y-92418329D01*
X130273520Y-92396150D01*
X130286132Y-92375107D01*
X130300747Y-92355401D01*
X130317223Y-92337223D01*
X130335401Y-92320747D01*
X130355107Y-92306132D01*
X130376150Y-92293520D01*
X130398329Y-92283030D01*
X130421428Y-92274765D01*
X130445227Y-92268804D01*
X130469495Y-92265204D01*
X130493999Y-92264000D01*
X131144001Y-92264000D01*
X131168505Y-92265204D01*
X131168505Y-92265204D01*
G37*
D14*
X130819000Y-92964000D03*
D13*
G36*
X129118505Y-92265204D02*
X129142773Y-92268804D01*
X129166572Y-92274765D01*
X129189671Y-92283030D01*
X129211850Y-92293520D01*
X129232893Y-92306132D01*
X129252599Y-92320747D01*
X129270777Y-92337223D01*
X129287253Y-92355401D01*
X129301868Y-92375107D01*
X129314480Y-92396150D01*
X129324970Y-92418329D01*
X129333235Y-92441428D01*
X129339196Y-92465227D01*
X129342796Y-92489495D01*
X129344000Y-92513999D01*
X129344000Y-93414001D01*
X129342796Y-93438505D01*
X129339196Y-93462773D01*
X129333235Y-93486572D01*
X129324970Y-93509671D01*
X129314480Y-93531850D01*
X129301868Y-93552893D01*
X129287253Y-93572599D01*
X129270777Y-93590777D01*
X129252599Y-93607253D01*
X129232893Y-93621868D01*
X129211850Y-93634480D01*
X129189671Y-93644970D01*
X129166572Y-93653235D01*
X129142773Y-93659196D01*
X129118505Y-93662796D01*
X129094001Y-93664000D01*
X128443999Y-93664000D01*
X128419495Y-93662796D01*
X128395227Y-93659196D01*
X128371428Y-93653235D01*
X128348329Y-93644970D01*
X128326150Y-93634480D01*
X128305107Y-93621868D01*
X128285401Y-93607253D01*
X128267223Y-93590777D01*
X128250747Y-93572599D01*
X128236132Y-93552893D01*
X128223520Y-93531850D01*
X128213030Y-93509671D01*
X128204765Y-93486572D01*
X128198804Y-93462773D01*
X128195204Y-93438505D01*
X128194000Y-93414001D01*
X128194000Y-92513999D01*
X128195204Y-92489495D01*
X128198804Y-92465227D01*
X128204765Y-92441428D01*
X128213030Y-92418329D01*
X128223520Y-92396150D01*
X128236132Y-92375107D01*
X128250747Y-92355401D01*
X128267223Y-92337223D01*
X128285401Y-92320747D01*
X128305107Y-92306132D01*
X128326150Y-92293520D01*
X128348329Y-92283030D01*
X128371428Y-92274765D01*
X128395227Y-92268804D01*
X128419495Y-92265204D01*
X128443999Y-92264000D01*
X129094001Y-92264000D01*
X129118505Y-92265204D01*
X129118505Y-92265204D01*
G37*
D14*
X128769000Y-92964000D03*
G04 #@! TD*
D13*
G04 #@! TO.C,C2*
G36*
X127104505Y-92265204D02*
X127128773Y-92268804D01*
X127152572Y-92274765D01*
X127175671Y-92283030D01*
X127197850Y-92293520D01*
X127218893Y-92306132D01*
X127238599Y-92320747D01*
X127256777Y-92337223D01*
X127273253Y-92355401D01*
X127287868Y-92375107D01*
X127300480Y-92396150D01*
X127310970Y-92418329D01*
X127319235Y-92441428D01*
X127325196Y-92465227D01*
X127328796Y-92489495D01*
X127330000Y-92513999D01*
X127330000Y-93414001D01*
X127328796Y-93438505D01*
X127325196Y-93462773D01*
X127319235Y-93486572D01*
X127310970Y-93509671D01*
X127300480Y-93531850D01*
X127287868Y-93552893D01*
X127273253Y-93572599D01*
X127256777Y-93590777D01*
X127238599Y-93607253D01*
X127218893Y-93621868D01*
X127197850Y-93634480D01*
X127175671Y-93644970D01*
X127152572Y-93653235D01*
X127128773Y-93659196D01*
X127104505Y-93662796D01*
X127080001Y-93664000D01*
X126429999Y-93664000D01*
X126405495Y-93662796D01*
X126381227Y-93659196D01*
X126357428Y-93653235D01*
X126334329Y-93644970D01*
X126312150Y-93634480D01*
X126291107Y-93621868D01*
X126271401Y-93607253D01*
X126253223Y-93590777D01*
X126236747Y-93572599D01*
X126222132Y-93552893D01*
X126209520Y-93531850D01*
X126199030Y-93509671D01*
X126190765Y-93486572D01*
X126184804Y-93462773D01*
X126181204Y-93438505D01*
X126180000Y-93414001D01*
X126180000Y-92513999D01*
X126181204Y-92489495D01*
X126184804Y-92465227D01*
X126190765Y-92441428D01*
X126199030Y-92418329D01*
X126209520Y-92396150D01*
X126222132Y-92375107D01*
X126236747Y-92355401D01*
X126253223Y-92337223D01*
X126271401Y-92320747D01*
X126291107Y-92306132D01*
X126312150Y-92293520D01*
X126334329Y-92283030D01*
X126357428Y-92274765D01*
X126381227Y-92268804D01*
X126405495Y-92265204D01*
X126429999Y-92264000D01*
X127080001Y-92264000D01*
X127104505Y-92265204D01*
X127104505Y-92265204D01*
G37*
D14*
X126755000Y-92964000D03*
D13*
G36*
X125054505Y-92265204D02*
X125078773Y-92268804D01*
X125102572Y-92274765D01*
X125125671Y-92283030D01*
X125147850Y-92293520D01*
X125168893Y-92306132D01*
X125188599Y-92320747D01*
X125206777Y-92337223D01*
X125223253Y-92355401D01*
X125237868Y-92375107D01*
X125250480Y-92396150D01*
X125260970Y-92418329D01*
X125269235Y-92441428D01*
X125275196Y-92465227D01*
X125278796Y-92489495D01*
X125280000Y-92513999D01*
X125280000Y-93414001D01*
X125278796Y-93438505D01*
X125275196Y-93462773D01*
X125269235Y-93486572D01*
X125260970Y-93509671D01*
X125250480Y-93531850D01*
X125237868Y-93552893D01*
X125223253Y-93572599D01*
X125206777Y-93590777D01*
X125188599Y-93607253D01*
X125168893Y-93621868D01*
X125147850Y-93634480D01*
X125125671Y-93644970D01*
X125102572Y-93653235D01*
X125078773Y-93659196D01*
X125054505Y-93662796D01*
X125030001Y-93664000D01*
X124379999Y-93664000D01*
X124355495Y-93662796D01*
X124331227Y-93659196D01*
X124307428Y-93653235D01*
X124284329Y-93644970D01*
X124262150Y-93634480D01*
X124241107Y-93621868D01*
X124221401Y-93607253D01*
X124203223Y-93590777D01*
X124186747Y-93572599D01*
X124172132Y-93552893D01*
X124159520Y-93531850D01*
X124149030Y-93509671D01*
X124140765Y-93486572D01*
X124134804Y-93462773D01*
X124131204Y-93438505D01*
X124130000Y-93414001D01*
X124130000Y-92513999D01*
X124131204Y-92489495D01*
X124134804Y-92465227D01*
X124140765Y-92441428D01*
X124149030Y-92418329D01*
X124159520Y-92396150D01*
X124172132Y-92375107D01*
X124186747Y-92355401D01*
X124203223Y-92337223D01*
X124221401Y-92320747D01*
X124241107Y-92306132D01*
X124262150Y-92293520D01*
X124284329Y-92283030D01*
X124307428Y-92274765D01*
X124331227Y-92268804D01*
X124355495Y-92265204D01*
X124379999Y-92264000D01*
X125030001Y-92264000D01*
X125054505Y-92265204D01*
X125054505Y-92265204D01*
G37*
D14*
X124705000Y-92964000D03*
G04 #@! TD*
D13*
G04 #@! TO.C,C3*
G36*
X114894505Y-94551204D02*
X114918773Y-94554804D01*
X114942572Y-94560765D01*
X114965671Y-94569030D01*
X114987850Y-94579520D01*
X115008893Y-94592132D01*
X115028599Y-94606747D01*
X115046777Y-94623223D01*
X115063253Y-94641401D01*
X115077868Y-94661107D01*
X115090480Y-94682150D01*
X115100970Y-94704329D01*
X115109235Y-94727428D01*
X115115196Y-94751227D01*
X115118796Y-94775495D01*
X115120000Y-94799999D01*
X115120000Y-95700001D01*
X115118796Y-95724505D01*
X115115196Y-95748773D01*
X115109235Y-95772572D01*
X115100970Y-95795671D01*
X115090480Y-95817850D01*
X115077868Y-95838893D01*
X115063253Y-95858599D01*
X115046777Y-95876777D01*
X115028599Y-95893253D01*
X115008893Y-95907868D01*
X114987850Y-95920480D01*
X114965671Y-95930970D01*
X114942572Y-95939235D01*
X114918773Y-95945196D01*
X114894505Y-95948796D01*
X114870001Y-95950000D01*
X114219999Y-95950000D01*
X114195495Y-95948796D01*
X114171227Y-95945196D01*
X114147428Y-95939235D01*
X114124329Y-95930970D01*
X114102150Y-95920480D01*
X114081107Y-95907868D01*
X114061401Y-95893253D01*
X114043223Y-95876777D01*
X114026747Y-95858599D01*
X114012132Y-95838893D01*
X113999520Y-95817850D01*
X113989030Y-95795671D01*
X113980765Y-95772572D01*
X113974804Y-95748773D01*
X113971204Y-95724505D01*
X113970000Y-95700001D01*
X113970000Y-94799999D01*
X113971204Y-94775495D01*
X113974804Y-94751227D01*
X113980765Y-94727428D01*
X113989030Y-94704329D01*
X113999520Y-94682150D01*
X114012132Y-94661107D01*
X114026747Y-94641401D01*
X114043223Y-94623223D01*
X114061401Y-94606747D01*
X114081107Y-94592132D01*
X114102150Y-94579520D01*
X114124329Y-94569030D01*
X114147428Y-94560765D01*
X114171227Y-94554804D01*
X114195495Y-94551204D01*
X114219999Y-94550000D01*
X114870001Y-94550000D01*
X114894505Y-94551204D01*
X114894505Y-94551204D01*
G37*
D14*
X114545000Y-95250000D03*
D13*
G36*
X116944505Y-94551204D02*
X116968773Y-94554804D01*
X116992572Y-94560765D01*
X117015671Y-94569030D01*
X117037850Y-94579520D01*
X117058893Y-94592132D01*
X117078599Y-94606747D01*
X117096777Y-94623223D01*
X117113253Y-94641401D01*
X117127868Y-94661107D01*
X117140480Y-94682150D01*
X117150970Y-94704329D01*
X117159235Y-94727428D01*
X117165196Y-94751227D01*
X117168796Y-94775495D01*
X117170000Y-94799999D01*
X117170000Y-95700001D01*
X117168796Y-95724505D01*
X117165196Y-95748773D01*
X117159235Y-95772572D01*
X117150970Y-95795671D01*
X117140480Y-95817850D01*
X117127868Y-95838893D01*
X117113253Y-95858599D01*
X117096777Y-95876777D01*
X117078599Y-95893253D01*
X117058893Y-95907868D01*
X117037850Y-95920480D01*
X117015671Y-95930970D01*
X116992572Y-95939235D01*
X116968773Y-95945196D01*
X116944505Y-95948796D01*
X116920001Y-95950000D01*
X116269999Y-95950000D01*
X116245495Y-95948796D01*
X116221227Y-95945196D01*
X116197428Y-95939235D01*
X116174329Y-95930970D01*
X116152150Y-95920480D01*
X116131107Y-95907868D01*
X116111401Y-95893253D01*
X116093223Y-95876777D01*
X116076747Y-95858599D01*
X116062132Y-95838893D01*
X116049520Y-95817850D01*
X116039030Y-95795671D01*
X116030765Y-95772572D01*
X116024804Y-95748773D01*
X116021204Y-95724505D01*
X116020000Y-95700001D01*
X116020000Y-94799999D01*
X116021204Y-94775495D01*
X116024804Y-94751227D01*
X116030765Y-94727428D01*
X116039030Y-94704329D01*
X116049520Y-94682150D01*
X116062132Y-94661107D01*
X116076747Y-94641401D01*
X116093223Y-94623223D01*
X116111401Y-94606747D01*
X116131107Y-94592132D01*
X116152150Y-94579520D01*
X116174329Y-94569030D01*
X116197428Y-94560765D01*
X116221227Y-94554804D01*
X116245495Y-94551204D01*
X116269999Y-94550000D01*
X116920001Y-94550000D01*
X116944505Y-94551204D01*
X116944505Y-94551204D01*
G37*
D14*
X116595000Y-95250000D03*
G04 #@! TD*
D13*
G04 #@! TO.C,C4*
G36*
X155153505Y-63436204D02*
X155177773Y-63439804D01*
X155201572Y-63445765D01*
X155224671Y-63454030D01*
X155246850Y-63464520D01*
X155267893Y-63477132D01*
X155287599Y-63491747D01*
X155305777Y-63508223D01*
X155322253Y-63526401D01*
X155336868Y-63546107D01*
X155349480Y-63567150D01*
X155359970Y-63589329D01*
X155368235Y-63612428D01*
X155374196Y-63636227D01*
X155377796Y-63660495D01*
X155379000Y-63684999D01*
X155379000Y-64585001D01*
X155377796Y-64609505D01*
X155374196Y-64633773D01*
X155368235Y-64657572D01*
X155359970Y-64680671D01*
X155349480Y-64702850D01*
X155336868Y-64723893D01*
X155322253Y-64743599D01*
X155305777Y-64761777D01*
X155287599Y-64778253D01*
X155267893Y-64792868D01*
X155246850Y-64805480D01*
X155224671Y-64815970D01*
X155201572Y-64824235D01*
X155177773Y-64830196D01*
X155153505Y-64833796D01*
X155129001Y-64835000D01*
X154478999Y-64835000D01*
X154454495Y-64833796D01*
X154430227Y-64830196D01*
X154406428Y-64824235D01*
X154383329Y-64815970D01*
X154361150Y-64805480D01*
X154340107Y-64792868D01*
X154320401Y-64778253D01*
X154302223Y-64761777D01*
X154285747Y-64743599D01*
X154271132Y-64723893D01*
X154258520Y-64702850D01*
X154248030Y-64680671D01*
X154239765Y-64657572D01*
X154233804Y-64633773D01*
X154230204Y-64609505D01*
X154229000Y-64585001D01*
X154229000Y-63684999D01*
X154230204Y-63660495D01*
X154233804Y-63636227D01*
X154239765Y-63612428D01*
X154248030Y-63589329D01*
X154258520Y-63567150D01*
X154271132Y-63546107D01*
X154285747Y-63526401D01*
X154302223Y-63508223D01*
X154320401Y-63491747D01*
X154340107Y-63477132D01*
X154361150Y-63464520D01*
X154383329Y-63454030D01*
X154406428Y-63445765D01*
X154430227Y-63439804D01*
X154454495Y-63436204D01*
X154478999Y-63435000D01*
X155129001Y-63435000D01*
X155153505Y-63436204D01*
X155153505Y-63436204D01*
G37*
D14*
X154804000Y-64135000D03*
D13*
G36*
X157203505Y-63436204D02*
X157227773Y-63439804D01*
X157251572Y-63445765D01*
X157274671Y-63454030D01*
X157296850Y-63464520D01*
X157317893Y-63477132D01*
X157337599Y-63491747D01*
X157355777Y-63508223D01*
X157372253Y-63526401D01*
X157386868Y-63546107D01*
X157399480Y-63567150D01*
X157409970Y-63589329D01*
X157418235Y-63612428D01*
X157424196Y-63636227D01*
X157427796Y-63660495D01*
X157429000Y-63684999D01*
X157429000Y-64585001D01*
X157427796Y-64609505D01*
X157424196Y-64633773D01*
X157418235Y-64657572D01*
X157409970Y-64680671D01*
X157399480Y-64702850D01*
X157386868Y-64723893D01*
X157372253Y-64743599D01*
X157355777Y-64761777D01*
X157337599Y-64778253D01*
X157317893Y-64792868D01*
X157296850Y-64805480D01*
X157274671Y-64815970D01*
X157251572Y-64824235D01*
X157227773Y-64830196D01*
X157203505Y-64833796D01*
X157179001Y-64835000D01*
X156528999Y-64835000D01*
X156504495Y-64833796D01*
X156480227Y-64830196D01*
X156456428Y-64824235D01*
X156433329Y-64815970D01*
X156411150Y-64805480D01*
X156390107Y-64792868D01*
X156370401Y-64778253D01*
X156352223Y-64761777D01*
X156335747Y-64743599D01*
X156321132Y-64723893D01*
X156308520Y-64702850D01*
X156298030Y-64680671D01*
X156289765Y-64657572D01*
X156283804Y-64633773D01*
X156280204Y-64609505D01*
X156279000Y-64585001D01*
X156279000Y-63684999D01*
X156280204Y-63660495D01*
X156283804Y-63636227D01*
X156289765Y-63612428D01*
X156298030Y-63589329D01*
X156308520Y-63567150D01*
X156321132Y-63546107D01*
X156335747Y-63526401D01*
X156352223Y-63508223D01*
X156370401Y-63491747D01*
X156390107Y-63477132D01*
X156411150Y-63464520D01*
X156433329Y-63454030D01*
X156456428Y-63445765D01*
X156480227Y-63439804D01*
X156504495Y-63436204D01*
X156528999Y-63435000D01*
X157179001Y-63435000D01*
X157203505Y-63436204D01*
X157203505Y-63436204D01*
G37*
D14*
X156854000Y-64135000D03*
G04 #@! TD*
D13*
G04 #@! TO.C,C5*
G36*
X157203505Y-61150204D02*
X157227773Y-61153804D01*
X157251572Y-61159765D01*
X157274671Y-61168030D01*
X157296850Y-61178520D01*
X157317893Y-61191132D01*
X157337599Y-61205747D01*
X157355777Y-61222223D01*
X157372253Y-61240401D01*
X157386868Y-61260107D01*
X157399480Y-61281150D01*
X157409970Y-61303329D01*
X157418235Y-61326428D01*
X157424196Y-61350227D01*
X157427796Y-61374495D01*
X157429000Y-61398999D01*
X157429000Y-62299001D01*
X157427796Y-62323505D01*
X157424196Y-62347773D01*
X157418235Y-62371572D01*
X157409970Y-62394671D01*
X157399480Y-62416850D01*
X157386868Y-62437893D01*
X157372253Y-62457599D01*
X157355777Y-62475777D01*
X157337599Y-62492253D01*
X157317893Y-62506868D01*
X157296850Y-62519480D01*
X157274671Y-62529970D01*
X157251572Y-62538235D01*
X157227773Y-62544196D01*
X157203505Y-62547796D01*
X157179001Y-62549000D01*
X156528999Y-62549000D01*
X156504495Y-62547796D01*
X156480227Y-62544196D01*
X156456428Y-62538235D01*
X156433329Y-62529970D01*
X156411150Y-62519480D01*
X156390107Y-62506868D01*
X156370401Y-62492253D01*
X156352223Y-62475777D01*
X156335747Y-62457599D01*
X156321132Y-62437893D01*
X156308520Y-62416850D01*
X156298030Y-62394671D01*
X156289765Y-62371572D01*
X156283804Y-62347773D01*
X156280204Y-62323505D01*
X156279000Y-62299001D01*
X156279000Y-61398999D01*
X156280204Y-61374495D01*
X156283804Y-61350227D01*
X156289765Y-61326428D01*
X156298030Y-61303329D01*
X156308520Y-61281150D01*
X156321132Y-61260107D01*
X156335747Y-61240401D01*
X156352223Y-61222223D01*
X156370401Y-61205747D01*
X156390107Y-61191132D01*
X156411150Y-61178520D01*
X156433329Y-61168030D01*
X156456428Y-61159765D01*
X156480227Y-61153804D01*
X156504495Y-61150204D01*
X156528999Y-61149000D01*
X157179001Y-61149000D01*
X157203505Y-61150204D01*
X157203505Y-61150204D01*
G37*
D14*
X156854000Y-61849000D03*
D13*
G36*
X155153505Y-61150204D02*
X155177773Y-61153804D01*
X155201572Y-61159765D01*
X155224671Y-61168030D01*
X155246850Y-61178520D01*
X155267893Y-61191132D01*
X155287599Y-61205747D01*
X155305777Y-61222223D01*
X155322253Y-61240401D01*
X155336868Y-61260107D01*
X155349480Y-61281150D01*
X155359970Y-61303329D01*
X155368235Y-61326428D01*
X155374196Y-61350227D01*
X155377796Y-61374495D01*
X155379000Y-61398999D01*
X155379000Y-62299001D01*
X155377796Y-62323505D01*
X155374196Y-62347773D01*
X155368235Y-62371572D01*
X155359970Y-62394671D01*
X155349480Y-62416850D01*
X155336868Y-62437893D01*
X155322253Y-62457599D01*
X155305777Y-62475777D01*
X155287599Y-62492253D01*
X155267893Y-62506868D01*
X155246850Y-62519480D01*
X155224671Y-62529970D01*
X155201572Y-62538235D01*
X155177773Y-62544196D01*
X155153505Y-62547796D01*
X155129001Y-62549000D01*
X154478999Y-62549000D01*
X154454495Y-62547796D01*
X154430227Y-62544196D01*
X154406428Y-62538235D01*
X154383329Y-62529970D01*
X154361150Y-62519480D01*
X154340107Y-62506868D01*
X154320401Y-62492253D01*
X154302223Y-62475777D01*
X154285747Y-62457599D01*
X154271132Y-62437893D01*
X154258520Y-62416850D01*
X154248030Y-62394671D01*
X154239765Y-62371572D01*
X154233804Y-62347773D01*
X154230204Y-62323505D01*
X154229000Y-62299001D01*
X154229000Y-61398999D01*
X154230204Y-61374495D01*
X154233804Y-61350227D01*
X154239765Y-61326428D01*
X154248030Y-61303329D01*
X154258520Y-61281150D01*
X154271132Y-61260107D01*
X154285747Y-61240401D01*
X154302223Y-61222223D01*
X154320401Y-61205747D01*
X154340107Y-61191132D01*
X154361150Y-61178520D01*
X154383329Y-61168030D01*
X154406428Y-61159765D01*
X154430227Y-61153804D01*
X154454495Y-61150204D01*
X154478999Y-61149000D01*
X155129001Y-61149000D01*
X155153505Y-61150204D01*
X155153505Y-61150204D01*
G37*
D14*
X154804000Y-61849000D03*
G04 #@! TD*
D13*
G04 #@! TO.C,C6*
G36*
X199494505Y-83756204D02*
X199518773Y-83759804D01*
X199542572Y-83765765D01*
X199565671Y-83774030D01*
X199587850Y-83784520D01*
X199608893Y-83797132D01*
X199628599Y-83811747D01*
X199646777Y-83828223D01*
X199663253Y-83846401D01*
X199677868Y-83866107D01*
X199690480Y-83887150D01*
X199700970Y-83909329D01*
X199709235Y-83932428D01*
X199715196Y-83956227D01*
X199718796Y-83980495D01*
X199720000Y-84004999D01*
X199720000Y-84905001D01*
X199718796Y-84929505D01*
X199715196Y-84953773D01*
X199709235Y-84977572D01*
X199700970Y-85000671D01*
X199690480Y-85022850D01*
X199677868Y-85043893D01*
X199663253Y-85063599D01*
X199646777Y-85081777D01*
X199628599Y-85098253D01*
X199608893Y-85112868D01*
X199587850Y-85125480D01*
X199565671Y-85135970D01*
X199542572Y-85144235D01*
X199518773Y-85150196D01*
X199494505Y-85153796D01*
X199470001Y-85155000D01*
X198819999Y-85155000D01*
X198795495Y-85153796D01*
X198771227Y-85150196D01*
X198747428Y-85144235D01*
X198724329Y-85135970D01*
X198702150Y-85125480D01*
X198681107Y-85112868D01*
X198661401Y-85098253D01*
X198643223Y-85081777D01*
X198626747Y-85063599D01*
X198612132Y-85043893D01*
X198599520Y-85022850D01*
X198589030Y-85000671D01*
X198580765Y-84977572D01*
X198574804Y-84953773D01*
X198571204Y-84929505D01*
X198570000Y-84905001D01*
X198570000Y-84004999D01*
X198571204Y-83980495D01*
X198574804Y-83956227D01*
X198580765Y-83932428D01*
X198589030Y-83909329D01*
X198599520Y-83887150D01*
X198612132Y-83866107D01*
X198626747Y-83846401D01*
X198643223Y-83828223D01*
X198661401Y-83811747D01*
X198681107Y-83797132D01*
X198702150Y-83784520D01*
X198724329Y-83774030D01*
X198747428Y-83765765D01*
X198771227Y-83759804D01*
X198795495Y-83756204D01*
X198819999Y-83755000D01*
X199470001Y-83755000D01*
X199494505Y-83756204D01*
X199494505Y-83756204D01*
G37*
D14*
X199145000Y-84455000D03*
D13*
G36*
X197444505Y-83756204D02*
X197468773Y-83759804D01*
X197492572Y-83765765D01*
X197515671Y-83774030D01*
X197537850Y-83784520D01*
X197558893Y-83797132D01*
X197578599Y-83811747D01*
X197596777Y-83828223D01*
X197613253Y-83846401D01*
X197627868Y-83866107D01*
X197640480Y-83887150D01*
X197650970Y-83909329D01*
X197659235Y-83932428D01*
X197665196Y-83956227D01*
X197668796Y-83980495D01*
X197670000Y-84004999D01*
X197670000Y-84905001D01*
X197668796Y-84929505D01*
X197665196Y-84953773D01*
X197659235Y-84977572D01*
X197650970Y-85000671D01*
X197640480Y-85022850D01*
X197627868Y-85043893D01*
X197613253Y-85063599D01*
X197596777Y-85081777D01*
X197578599Y-85098253D01*
X197558893Y-85112868D01*
X197537850Y-85125480D01*
X197515671Y-85135970D01*
X197492572Y-85144235D01*
X197468773Y-85150196D01*
X197444505Y-85153796D01*
X197420001Y-85155000D01*
X196769999Y-85155000D01*
X196745495Y-85153796D01*
X196721227Y-85150196D01*
X196697428Y-85144235D01*
X196674329Y-85135970D01*
X196652150Y-85125480D01*
X196631107Y-85112868D01*
X196611401Y-85098253D01*
X196593223Y-85081777D01*
X196576747Y-85063599D01*
X196562132Y-85043893D01*
X196549520Y-85022850D01*
X196539030Y-85000671D01*
X196530765Y-84977572D01*
X196524804Y-84953773D01*
X196521204Y-84929505D01*
X196520000Y-84905001D01*
X196520000Y-84004999D01*
X196521204Y-83980495D01*
X196524804Y-83956227D01*
X196530765Y-83932428D01*
X196539030Y-83909329D01*
X196549520Y-83887150D01*
X196562132Y-83866107D01*
X196576747Y-83846401D01*
X196593223Y-83828223D01*
X196611401Y-83811747D01*
X196631107Y-83797132D01*
X196652150Y-83784520D01*
X196674329Y-83774030D01*
X196697428Y-83765765D01*
X196721227Y-83759804D01*
X196745495Y-83756204D01*
X196769999Y-83755000D01*
X197420001Y-83755000D01*
X197444505Y-83756204D01*
X197444505Y-83756204D01*
G37*
D14*
X197095000Y-84455000D03*
G04 #@! TD*
D13*
G04 #@! TO.C,C7*
G36*
X197444505Y-86296204D02*
X197468773Y-86299804D01*
X197492572Y-86305765D01*
X197515671Y-86314030D01*
X197537850Y-86324520D01*
X197558893Y-86337132D01*
X197578599Y-86351747D01*
X197596777Y-86368223D01*
X197613253Y-86386401D01*
X197627868Y-86406107D01*
X197640480Y-86427150D01*
X197650970Y-86449329D01*
X197659235Y-86472428D01*
X197665196Y-86496227D01*
X197668796Y-86520495D01*
X197670000Y-86544999D01*
X197670000Y-87445001D01*
X197668796Y-87469505D01*
X197665196Y-87493773D01*
X197659235Y-87517572D01*
X197650970Y-87540671D01*
X197640480Y-87562850D01*
X197627868Y-87583893D01*
X197613253Y-87603599D01*
X197596777Y-87621777D01*
X197578599Y-87638253D01*
X197558893Y-87652868D01*
X197537850Y-87665480D01*
X197515671Y-87675970D01*
X197492572Y-87684235D01*
X197468773Y-87690196D01*
X197444505Y-87693796D01*
X197420001Y-87695000D01*
X196769999Y-87695000D01*
X196745495Y-87693796D01*
X196721227Y-87690196D01*
X196697428Y-87684235D01*
X196674329Y-87675970D01*
X196652150Y-87665480D01*
X196631107Y-87652868D01*
X196611401Y-87638253D01*
X196593223Y-87621777D01*
X196576747Y-87603599D01*
X196562132Y-87583893D01*
X196549520Y-87562850D01*
X196539030Y-87540671D01*
X196530765Y-87517572D01*
X196524804Y-87493773D01*
X196521204Y-87469505D01*
X196520000Y-87445001D01*
X196520000Y-86544999D01*
X196521204Y-86520495D01*
X196524804Y-86496227D01*
X196530765Y-86472428D01*
X196539030Y-86449329D01*
X196549520Y-86427150D01*
X196562132Y-86406107D01*
X196576747Y-86386401D01*
X196593223Y-86368223D01*
X196611401Y-86351747D01*
X196631107Y-86337132D01*
X196652150Y-86324520D01*
X196674329Y-86314030D01*
X196697428Y-86305765D01*
X196721227Y-86299804D01*
X196745495Y-86296204D01*
X196769999Y-86295000D01*
X197420001Y-86295000D01*
X197444505Y-86296204D01*
X197444505Y-86296204D01*
G37*
D14*
X197095000Y-86995000D03*
D13*
G36*
X199494505Y-86296204D02*
X199518773Y-86299804D01*
X199542572Y-86305765D01*
X199565671Y-86314030D01*
X199587850Y-86324520D01*
X199608893Y-86337132D01*
X199628599Y-86351747D01*
X199646777Y-86368223D01*
X199663253Y-86386401D01*
X199677868Y-86406107D01*
X199690480Y-86427150D01*
X199700970Y-86449329D01*
X199709235Y-86472428D01*
X199715196Y-86496227D01*
X199718796Y-86520495D01*
X199720000Y-86544999D01*
X199720000Y-87445001D01*
X199718796Y-87469505D01*
X199715196Y-87493773D01*
X199709235Y-87517572D01*
X199700970Y-87540671D01*
X199690480Y-87562850D01*
X199677868Y-87583893D01*
X199663253Y-87603599D01*
X199646777Y-87621777D01*
X199628599Y-87638253D01*
X199608893Y-87652868D01*
X199587850Y-87665480D01*
X199565671Y-87675970D01*
X199542572Y-87684235D01*
X199518773Y-87690196D01*
X199494505Y-87693796D01*
X199470001Y-87695000D01*
X198819999Y-87695000D01*
X198795495Y-87693796D01*
X198771227Y-87690196D01*
X198747428Y-87684235D01*
X198724329Y-87675970D01*
X198702150Y-87665480D01*
X198681107Y-87652868D01*
X198661401Y-87638253D01*
X198643223Y-87621777D01*
X198626747Y-87603599D01*
X198612132Y-87583893D01*
X198599520Y-87562850D01*
X198589030Y-87540671D01*
X198580765Y-87517572D01*
X198574804Y-87493773D01*
X198571204Y-87469505D01*
X198570000Y-87445001D01*
X198570000Y-86544999D01*
X198571204Y-86520495D01*
X198574804Y-86496227D01*
X198580765Y-86472428D01*
X198589030Y-86449329D01*
X198599520Y-86427150D01*
X198612132Y-86406107D01*
X198626747Y-86386401D01*
X198643223Y-86368223D01*
X198661401Y-86351747D01*
X198681107Y-86337132D01*
X198702150Y-86324520D01*
X198724329Y-86314030D01*
X198747428Y-86305765D01*
X198771227Y-86299804D01*
X198795495Y-86296204D01*
X198819999Y-86295000D01*
X199470001Y-86295000D01*
X199494505Y-86296204D01*
X199494505Y-86296204D01*
G37*
D14*
X199145000Y-86995000D03*
G04 #@! TD*
D13*
G04 #@! TO.C,C8*
G36*
X199494505Y-76136204D02*
X199518773Y-76139804D01*
X199542572Y-76145765D01*
X199565671Y-76154030D01*
X199587850Y-76164520D01*
X199608893Y-76177132D01*
X199628599Y-76191747D01*
X199646777Y-76208223D01*
X199663253Y-76226401D01*
X199677868Y-76246107D01*
X199690480Y-76267150D01*
X199700970Y-76289329D01*
X199709235Y-76312428D01*
X199715196Y-76336227D01*
X199718796Y-76360495D01*
X199720000Y-76384999D01*
X199720000Y-77285001D01*
X199718796Y-77309505D01*
X199715196Y-77333773D01*
X199709235Y-77357572D01*
X199700970Y-77380671D01*
X199690480Y-77402850D01*
X199677868Y-77423893D01*
X199663253Y-77443599D01*
X199646777Y-77461777D01*
X199628599Y-77478253D01*
X199608893Y-77492868D01*
X199587850Y-77505480D01*
X199565671Y-77515970D01*
X199542572Y-77524235D01*
X199518773Y-77530196D01*
X199494505Y-77533796D01*
X199470001Y-77535000D01*
X198819999Y-77535000D01*
X198795495Y-77533796D01*
X198771227Y-77530196D01*
X198747428Y-77524235D01*
X198724329Y-77515970D01*
X198702150Y-77505480D01*
X198681107Y-77492868D01*
X198661401Y-77478253D01*
X198643223Y-77461777D01*
X198626747Y-77443599D01*
X198612132Y-77423893D01*
X198599520Y-77402850D01*
X198589030Y-77380671D01*
X198580765Y-77357572D01*
X198574804Y-77333773D01*
X198571204Y-77309505D01*
X198570000Y-77285001D01*
X198570000Y-76384999D01*
X198571204Y-76360495D01*
X198574804Y-76336227D01*
X198580765Y-76312428D01*
X198589030Y-76289329D01*
X198599520Y-76267150D01*
X198612132Y-76246107D01*
X198626747Y-76226401D01*
X198643223Y-76208223D01*
X198661401Y-76191747D01*
X198681107Y-76177132D01*
X198702150Y-76164520D01*
X198724329Y-76154030D01*
X198747428Y-76145765D01*
X198771227Y-76139804D01*
X198795495Y-76136204D01*
X198819999Y-76135000D01*
X199470001Y-76135000D01*
X199494505Y-76136204D01*
X199494505Y-76136204D01*
G37*
D14*
X199145000Y-76835000D03*
D13*
G36*
X197444505Y-76136204D02*
X197468773Y-76139804D01*
X197492572Y-76145765D01*
X197515671Y-76154030D01*
X197537850Y-76164520D01*
X197558893Y-76177132D01*
X197578599Y-76191747D01*
X197596777Y-76208223D01*
X197613253Y-76226401D01*
X197627868Y-76246107D01*
X197640480Y-76267150D01*
X197650970Y-76289329D01*
X197659235Y-76312428D01*
X197665196Y-76336227D01*
X197668796Y-76360495D01*
X197670000Y-76384999D01*
X197670000Y-77285001D01*
X197668796Y-77309505D01*
X197665196Y-77333773D01*
X197659235Y-77357572D01*
X197650970Y-77380671D01*
X197640480Y-77402850D01*
X197627868Y-77423893D01*
X197613253Y-77443599D01*
X197596777Y-77461777D01*
X197578599Y-77478253D01*
X197558893Y-77492868D01*
X197537850Y-77505480D01*
X197515671Y-77515970D01*
X197492572Y-77524235D01*
X197468773Y-77530196D01*
X197444505Y-77533796D01*
X197420001Y-77535000D01*
X196769999Y-77535000D01*
X196745495Y-77533796D01*
X196721227Y-77530196D01*
X196697428Y-77524235D01*
X196674329Y-77515970D01*
X196652150Y-77505480D01*
X196631107Y-77492868D01*
X196611401Y-77478253D01*
X196593223Y-77461777D01*
X196576747Y-77443599D01*
X196562132Y-77423893D01*
X196549520Y-77402850D01*
X196539030Y-77380671D01*
X196530765Y-77357572D01*
X196524804Y-77333773D01*
X196521204Y-77309505D01*
X196520000Y-77285001D01*
X196520000Y-76384999D01*
X196521204Y-76360495D01*
X196524804Y-76336227D01*
X196530765Y-76312428D01*
X196539030Y-76289329D01*
X196549520Y-76267150D01*
X196562132Y-76246107D01*
X196576747Y-76226401D01*
X196593223Y-76208223D01*
X196611401Y-76191747D01*
X196631107Y-76177132D01*
X196652150Y-76164520D01*
X196674329Y-76154030D01*
X196697428Y-76145765D01*
X196721227Y-76139804D01*
X196745495Y-76136204D01*
X196769999Y-76135000D01*
X197420001Y-76135000D01*
X197444505Y-76136204D01*
X197444505Y-76136204D01*
G37*
D14*
X197095000Y-76835000D03*
G04 #@! TD*
D13*
G04 #@! TO.C,C9*
G36*
X197444505Y-78676204D02*
X197468773Y-78679804D01*
X197492572Y-78685765D01*
X197515671Y-78694030D01*
X197537850Y-78704520D01*
X197558893Y-78717132D01*
X197578599Y-78731747D01*
X197596777Y-78748223D01*
X197613253Y-78766401D01*
X197627868Y-78786107D01*
X197640480Y-78807150D01*
X197650970Y-78829329D01*
X197659235Y-78852428D01*
X197665196Y-78876227D01*
X197668796Y-78900495D01*
X197670000Y-78924999D01*
X197670000Y-79825001D01*
X197668796Y-79849505D01*
X197665196Y-79873773D01*
X197659235Y-79897572D01*
X197650970Y-79920671D01*
X197640480Y-79942850D01*
X197627868Y-79963893D01*
X197613253Y-79983599D01*
X197596777Y-80001777D01*
X197578599Y-80018253D01*
X197558893Y-80032868D01*
X197537850Y-80045480D01*
X197515671Y-80055970D01*
X197492572Y-80064235D01*
X197468773Y-80070196D01*
X197444505Y-80073796D01*
X197420001Y-80075000D01*
X196769999Y-80075000D01*
X196745495Y-80073796D01*
X196721227Y-80070196D01*
X196697428Y-80064235D01*
X196674329Y-80055970D01*
X196652150Y-80045480D01*
X196631107Y-80032868D01*
X196611401Y-80018253D01*
X196593223Y-80001777D01*
X196576747Y-79983599D01*
X196562132Y-79963893D01*
X196549520Y-79942850D01*
X196539030Y-79920671D01*
X196530765Y-79897572D01*
X196524804Y-79873773D01*
X196521204Y-79849505D01*
X196520000Y-79825001D01*
X196520000Y-78924999D01*
X196521204Y-78900495D01*
X196524804Y-78876227D01*
X196530765Y-78852428D01*
X196539030Y-78829329D01*
X196549520Y-78807150D01*
X196562132Y-78786107D01*
X196576747Y-78766401D01*
X196593223Y-78748223D01*
X196611401Y-78731747D01*
X196631107Y-78717132D01*
X196652150Y-78704520D01*
X196674329Y-78694030D01*
X196697428Y-78685765D01*
X196721227Y-78679804D01*
X196745495Y-78676204D01*
X196769999Y-78675000D01*
X197420001Y-78675000D01*
X197444505Y-78676204D01*
X197444505Y-78676204D01*
G37*
D14*
X197095000Y-79375000D03*
D13*
G36*
X199494505Y-78676204D02*
X199518773Y-78679804D01*
X199542572Y-78685765D01*
X199565671Y-78694030D01*
X199587850Y-78704520D01*
X199608893Y-78717132D01*
X199628599Y-78731747D01*
X199646777Y-78748223D01*
X199663253Y-78766401D01*
X199677868Y-78786107D01*
X199690480Y-78807150D01*
X199700970Y-78829329D01*
X199709235Y-78852428D01*
X199715196Y-78876227D01*
X199718796Y-78900495D01*
X199720000Y-78924999D01*
X199720000Y-79825001D01*
X199718796Y-79849505D01*
X199715196Y-79873773D01*
X199709235Y-79897572D01*
X199700970Y-79920671D01*
X199690480Y-79942850D01*
X199677868Y-79963893D01*
X199663253Y-79983599D01*
X199646777Y-80001777D01*
X199628599Y-80018253D01*
X199608893Y-80032868D01*
X199587850Y-80045480D01*
X199565671Y-80055970D01*
X199542572Y-80064235D01*
X199518773Y-80070196D01*
X199494505Y-80073796D01*
X199470001Y-80075000D01*
X198819999Y-80075000D01*
X198795495Y-80073796D01*
X198771227Y-80070196D01*
X198747428Y-80064235D01*
X198724329Y-80055970D01*
X198702150Y-80045480D01*
X198681107Y-80032868D01*
X198661401Y-80018253D01*
X198643223Y-80001777D01*
X198626747Y-79983599D01*
X198612132Y-79963893D01*
X198599520Y-79942850D01*
X198589030Y-79920671D01*
X198580765Y-79897572D01*
X198574804Y-79873773D01*
X198571204Y-79849505D01*
X198570000Y-79825001D01*
X198570000Y-78924999D01*
X198571204Y-78900495D01*
X198574804Y-78876227D01*
X198580765Y-78852428D01*
X198589030Y-78829329D01*
X198599520Y-78807150D01*
X198612132Y-78786107D01*
X198626747Y-78766401D01*
X198643223Y-78748223D01*
X198661401Y-78731747D01*
X198681107Y-78717132D01*
X198702150Y-78704520D01*
X198724329Y-78694030D01*
X198747428Y-78685765D01*
X198771227Y-78679804D01*
X198795495Y-78676204D01*
X198819999Y-78675000D01*
X199470001Y-78675000D01*
X199494505Y-78676204D01*
X199494505Y-78676204D01*
G37*
D14*
X199145000Y-79375000D03*
G04 #@! TD*
D15*
G04 #@! TO.C,X1*
X133699500Y-89154000D03*
X121824500Y-89154000D03*
G04 #@! TD*
D16*
G04 #@! TO.C,D3*
X191135000Y-71980000D03*
X191135000Y-65180000D03*
G04 #@! TD*
G04 #@! TO.C,D2*
X196215000Y-65180000D03*
X196215000Y-71980000D03*
G04 #@! TD*
G04 #@! TO.C,D1*
X186055000Y-65180000D03*
X186055000Y-71980000D03*
G04 #@! TD*
D13*
G04 #@! TO.C,F1*
G36*
X112499504Y-97361204D02*
X112523773Y-97364804D01*
X112547571Y-97370765D01*
X112570671Y-97379030D01*
X112592849Y-97389520D01*
X112613893Y-97402133D01*
X112633598Y-97416747D01*
X112651777Y-97433223D01*
X112668253Y-97451402D01*
X112682867Y-97471107D01*
X112695480Y-97492151D01*
X112705970Y-97514329D01*
X112714235Y-97537429D01*
X112720196Y-97561227D01*
X112723796Y-97585496D01*
X112725000Y-97610000D01*
X112725000Y-100510000D01*
X112723796Y-100534504D01*
X112720196Y-100558773D01*
X112714235Y-100582571D01*
X112705970Y-100605671D01*
X112695480Y-100627849D01*
X112682867Y-100648893D01*
X112668253Y-100668598D01*
X112651777Y-100686777D01*
X112633598Y-100703253D01*
X112613893Y-100717867D01*
X112592849Y-100730480D01*
X112570671Y-100740970D01*
X112547571Y-100749235D01*
X112523773Y-100755196D01*
X112499504Y-100758796D01*
X112475000Y-100760000D01*
X111675000Y-100760000D01*
X111650496Y-100758796D01*
X111626227Y-100755196D01*
X111602429Y-100749235D01*
X111579329Y-100740970D01*
X111557151Y-100730480D01*
X111536107Y-100717867D01*
X111516402Y-100703253D01*
X111498223Y-100686777D01*
X111481747Y-100668598D01*
X111467133Y-100648893D01*
X111454520Y-100627849D01*
X111444030Y-100605671D01*
X111435765Y-100582571D01*
X111429804Y-100558773D01*
X111426204Y-100534504D01*
X111425000Y-100510000D01*
X111425000Y-97610000D01*
X111426204Y-97585496D01*
X111429804Y-97561227D01*
X111435765Y-97537429D01*
X111444030Y-97514329D01*
X111454520Y-97492151D01*
X111467133Y-97471107D01*
X111481747Y-97451402D01*
X111498223Y-97433223D01*
X111516402Y-97416747D01*
X111536107Y-97402133D01*
X111557151Y-97389520D01*
X111579329Y-97379030D01*
X111602429Y-97370765D01*
X111626227Y-97364804D01*
X111650496Y-97361204D01*
X111675000Y-97360000D01*
X112475000Y-97360000D01*
X112499504Y-97361204D01*
X112499504Y-97361204D01*
G37*
D17*
X112075000Y-99060000D03*
D13*
G36*
X116949504Y-97361204D02*
X116973773Y-97364804D01*
X116997571Y-97370765D01*
X117020671Y-97379030D01*
X117042849Y-97389520D01*
X117063893Y-97402133D01*
X117083598Y-97416747D01*
X117101777Y-97433223D01*
X117118253Y-97451402D01*
X117132867Y-97471107D01*
X117145480Y-97492151D01*
X117155970Y-97514329D01*
X117164235Y-97537429D01*
X117170196Y-97561227D01*
X117173796Y-97585496D01*
X117175000Y-97610000D01*
X117175000Y-100510000D01*
X117173796Y-100534504D01*
X117170196Y-100558773D01*
X117164235Y-100582571D01*
X117155970Y-100605671D01*
X117145480Y-100627849D01*
X117132867Y-100648893D01*
X117118253Y-100668598D01*
X117101777Y-100686777D01*
X117083598Y-100703253D01*
X117063893Y-100717867D01*
X117042849Y-100730480D01*
X117020671Y-100740970D01*
X116997571Y-100749235D01*
X116973773Y-100755196D01*
X116949504Y-100758796D01*
X116925000Y-100760000D01*
X116125000Y-100760000D01*
X116100496Y-100758796D01*
X116076227Y-100755196D01*
X116052429Y-100749235D01*
X116029329Y-100740970D01*
X116007151Y-100730480D01*
X115986107Y-100717867D01*
X115966402Y-100703253D01*
X115948223Y-100686777D01*
X115931747Y-100668598D01*
X115917133Y-100648893D01*
X115904520Y-100627849D01*
X115894030Y-100605671D01*
X115885765Y-100582571D01*
X115879804Y-100558773D01*
X115876204Y-100534504D01*
X115875000Y-100510000D01*
X115875000Y-97610000D01*
X115876204Y-97585496D01*
X115879804Y-97561227D01*
X115885765Y-97537429D01*
X115894030Y-97514329D01*
X115904520Y-97492151D01*
X115917133Y-97471107D01*
X115931747Y-97451402D01*
X115948223Y-97433223D01*
X115966402Y-97416747D01*
X115986107Y-97402133D01*
X116007151Y-97389520D01*
X116029329Y-97379030D01*
X116052429Y-97370765D01*
X116076227Y-97364804D01*
X116100496Y-97361204D01*
X116125000Y-97360000D01*
X116925000Y-97360000D01*
X116949504Y-97361204D01*
X116949504Y-97361204D01*
G37*
D17*
X116525000Y-99060000D03*
G04 #@! TD*
D18*
G04 #@! TO.C,LED2*
X123916640Y-50042461D03*
X123916640Y-54042461D03*
G04 #@! TD*
G04 #@! TO.C,LED3*
X115026640Y-54042461D03*
X115026640Y-50042461D03*
G04 #@! TD*
G04 #@! TO.C,LED1*
X120106640Y-50042461D03*
X120106640Y-54042461D03*
G04 #@! TD*
G04 #@! TO.C,LED4*
X111216640Y-54042461D03*
X111216640Y-50042461D03*
G04 #@! TD*
D13*
G04 #@! TO.C,CH340G1*
G36*
X124218703Y-73995722D02*
X124233264Y-73997882D01*
X124247543Y-74001459D01*
X124261403Y-74006418D01*
X124274710Y-74012712D01*
X124287336Y-74020280D01*
X124299159Y-74029048D01*
X124310066Y-74038934D01*
X124319952Y-74049841D01*
X124328720Y-74061664D01*
X124336288Y-74074290D01*
X124342582Y-74087597D01*
X124347541Y-74101457D01*
X124351118Y-74115736D01*
X124353278Y-74130297D01*
X124354000Y-74145000D01*
X124354000Y-74445000D01*
X124353278Y-74459703D01*
X124351118Y-74474264D01*
X124347541Y-74488543D01*
X124342582Y-74502403D01*
X124336288Y-74515710D01*
X124328720Y-74528336D01*
X124319952Y-74540159D01*
X124310066Y-74551066D01*
X124299159Y-74560952D01*
X124287336Y-74569720D01*
X124274710Y-74577288D01*
X124261403Y-74583582D01*
X124247543Y-74588541D01*
X124233264Y-74592118D01*
X124218703Y-74594278D01*
X124204000Y-74595000D01*
X122554000Y-74595000D01*
X122539297Y-74594278D01*
X122524736Y-74592118D01*
X122510457Y-74588541D01*
X122496597Y-74583582D01*
X122483290Y-74577288D01*
X122470664Y-74569720D01*
X122458841Y-74560952D01*
X122447934Y-74551066D01*
X122438048Y-74540159D01*
X122429280Y-74528336D01*
X122421712Y-74515710D01*
X122415418Y-74502403D01*
X122410459Y-74488543D01*
X122406882Y-74474264D01*
X122404722Y-74459703D01*
X122404000Y-74445000D01*
X122404000Y-74145000D01*
X122404722Y-74130297D01*
X122406882Y-74115736D01*
X122410459Y-74101457D01*
X122415418Y-74087597D01*
X122421712Y-74074290D01*
X122429280Y-74061664D01*
X122438048Y-74049841D01*
X122447934Y-74038934D01*
X122458841Y-74029048D01*
X122470664Y-74020280D01*
X122483290Y-74012712D01*
X122496597Y-74006418D01*
X122510457Y-74001459D01*
X122524736Y-73997882D01*
X122539297Y-73995722D01*
X122554000Y-73995000D01*
X124204000Y-73995000D01*
X124218703Y-73995722D01*
X124218703Y-73995722D01*
G37*
D19*
X123379000Y-74295000D03*
D13*
G36*
X124218703Y-75265722D02*
X124233264Y-75267882D01*
X124247543Y-75271459D01*
X124261403Y-75276418D01*
X124274710Y-75282712D01*
X124287336Y-75290280D01*
X124299159Y-75299048D01*
X124310066Y-75308934D01*
X124319952Y-75319841D01*
X124328720Y-75331664D01*
X124336288Y-75344290D01*
X124342582Y-75357597D01*
X124347541Y-75371457D01*
X124351118Y-75385736D01*
X124353278Y-75400297D01*
X124354000Y-75415000D01*
X124354000Y-75715000D01*
X124353278Y-75729703D01*
X124351118Y-75744264D01*
X124347541Y-75758543D01*
X124342582Y-75772403D01*
X124336288Y-75785710D01*
X124328720Y-75798336D01*
X124319952Y-75810159D01*
X124310066Y-75821066D01*
X124299159Y-75830952D01*
X124287336Y-75839720D01*
X124274710Y-75847288D01*
X124261403Y-75853582D01*
X124247543Y-75858541D01*
X124233264Y-75862118D01*
X124218703Y-75864278D01*
X124204000Y-75865000D01*
X122554000Y-75865000D01*
X122539297Y-75864278D01*
X122524736Y-75862118D01*
X122510457Y-75858541D01*
X122496597Y-75853582D01*
X122483290Y-75847288D01*
X122470664Y-75839720D01*
X122458841Y-75830952D01*
X122447934Y-75821066D01*
X122438048Y-75810159D01*
X122429280Y-75798336D01*
X122421712Y-75785710D01*
X122415418Y-75772403D01*
X122410459Y-75758543D01*
X122406882Y-75744264D01*
X122404722Y-75729703D01*
X122404000Y-75715000D01*
X122404000Y-75415000D01*
X122404722Y-75400297D01*
X122406882Y-75385736D01*
X122410459Y-75371457D01*
X122415418Y-75357597D01*
X122421712Y-75344290D01*
X122429280Y-75331664D01*
X122438048Y-75319841D01*
X122447934Y-75308934D01*
X122458841Y-75299048D01*
X122470664Y-75290280D01*
X122483290Y-75282712D01*
X122496597Y-75276418D01*
X122510457Y-75271459D01*
X122524736Y-75267882D01*
X122539297Y-75265722D01*
X122554000Y-75265000D01*
X124204000Y-75265000D01*
X124218703Y-75265722D01*
X124218703Y-75265722D01*
G37*
D19*
X123379000Y-75565000D03*
D13*
G36*
X124218703Y-76535722D02*
X124233264Y-76537882D01*
X124247543Y-76541459D01*
X124261403Y-76546418D01*
X124274710Y-76552712D01*
X124287336Y-76560280D01*
X124299159Y-76569048D01*
X124310066Y-76578934D01*
X124319952Y-76589841D01*
X124328720Y-76601664D01*
X124336288Y-76614290D01*
X124342582Y-76627597D01*
X124347541Y-76641457D01*
X124351118Y-76655736D01*
X124353278Y-76670297D01*
X124354000Y-76685000D01*
X124354000Y-76985000D01*
X124353278Y-76999703D01*
X124351118Y-77014264D01*
X124347541Y-77028543D01*
X124342582Y-77042403D01*
X124336288Y-77055710D01*
X124328720Y-77068336D01*
X124319952Y-77080159D01*
X124310066Y-77091066D01*
X124299159Y-77100952D01*
X124287336Y-77109720D01*
X124274710Y-77117288D01*
X124261403Y-77123582D01*
X124247543Y-77128541D01*
X124233264Y-77132118D01*
X124218703Y-77134278D01*
X124204000Y-77135000D01*
X122554000Y-77135000D01*
X122539297Y-77134278D01*
X122524736Y-77132118D01*
X122510457Y-77128541D01*
X122496597Y-77123582D01*
X122483290Y-77117288D01*
X122470664Y-77109720D01*
X122458841Y-77100952D01*
X122447934Y-77091066D01*
X122438048Y-77080159D01*
X122429280Y-77068336D01*
X122421712Y-77055710D01*
X122415418Y-77042403D01*
X122410459Y-77028543D01*
X122406882Y-77014264D01*
X122404722Y-76999703D01*
X122404000Y-76985000D01*
X122404000Y-76685000D01*
X122404722Y-76670297D01*
X122406882Y-76655736D01*
X122410459Y-76641457D01*
X122415418Y-76627597D01*
X122421712Y-76614290D01*
X122429280Y-76601664D01*
X122438048Y-76589841D01*
X122447934Y-76578934D01*
X122458841Y-76569048D01*
X122470664Y-76560280D01*
X122483290Y-76552712D01*
X122496597Y-76546418D01*
X122510457Y-76541459D01*
X122524736Y-76537882D01*
X122539297Y-76535722D01*
X122554000Y-76535000D01*
X124204000Y-76535000D01*
X124218703Y-76535722D01*
X124218703Y-76535722D01*
G37*
D19*
X123379000Y-76835000D03*
D13*
G36*
X124218703Y-77805722D02*
X124233264Y-77807882D01*
X124247543Y-77811459D01*
X124261403Y-77816418D01*
X124274710Y-77822712D01*
X124287336Y-77830280D01*
X124299159Y-77839048D01*
X124310066Y-77848934D01*
X124319952Y-77859841D01*
X124328720Y-77871664D01*
X124336288Y-77884290D01*
X124342582Y-77897597D01*
X124347541Y-77911457D01*
X124351118Y-77925736D01*
X124353278Y-77940297D01*
X124354000Y-77955000D01*
X124354000Y-78255000D01*
X124353278Y-78269703D01*
X124351118Y-78284264D01*
X124347541Y-78298543D01*
X124342582Y-78312403D01*
X124336288Y-78325710D01*
X124328720Y-78338336D01*
X124319952Y-78350159D01*
X124310066Y-78361066D01*
X124299159Y-78370952D01*
X124287336Y-78379720D01*
X124274710Y-78387288D01*
X124261403Y-78393582D01*
X124247543Y-78398541D01*
X124233264Y-78402118D01*
X124218703Y-78404278D01*
X124204000Y-78405000D01*
X122554000Y-78405000D01*
X122539297Y-78404278D01*
X122524736Y-78402118D01*
X122510457Y-78398541D01*
X122496597Y-78393582D01*
X122483290Y-78387288D01*
X122470664Y-78379720D01*
X122458841Y-78370952D01*
X122447934Y-78361066D01*
X122438048Y-78350159D01*
X122429280Y-78338336D01*
X122421712Y-78325710D01*
X122415418Y-78312403D01*
X122410459Y-78298543D01*
X122406882Y-78284264D01*
X122404722Y-78269703D01*
X122404000Y-78255000D01*
X122404000Y-77955000D01*
X122404722Y-77940297D01*
X122406882Y-77925736D01*
X122410459Y-77911457D01*
X122415418Y-77897597D01*
X122421712Y-77884290D01*
X122429280Y-77871664D01*
X122438048Y-77859841D01*
X122447934Y-77848934D01*
X122458841Y-77839048D01*
X122470664Y-77830280D01*
X122483290Y-77822712D01*
X122496597Y-77816418D01*
X122510457Y-77811459D01*
X122524736Y-77807882D01*
X122539297Y-77805722D01*
X122554000Y-77805000D01*
X124204000Y-77805000D01*
X124218703Y-77805722D01*
X124218703Y-77805722D01*
G37*
D19*
X123379000Y-78105000D03*
D13*
G36*
X124218703Y-79075722D02*
X124233264Y-79077882D01*
X124247543Y-79081459D01*
X124261403Y-79086418D01*
X124274710Y-79092712D01*
X124287336Y-79100280D01*
X124299159Y-79109048D01*
X124310066Y-79118934D01*
X124319952Y-79129841D01*
X124328720Y-79141664D01*
X124336288Y-79154290D01*
X124342582Y-79167597D01*
X124347541Y-79181457D01*
X124351118Y-79195736D01*
X124353278Y-79210297D01*
X124354000Y-79225000D01*
X124354000Y-79525000D01*
X124353278Y-79539703D01*
X124351118Y-79554264D01*
X124347541Y-79568543D01*
X124342582Y-79582403D01*
X124336288Y-79595710D01*
X124328720Y-79608336D01*
X124319952Y-79620159D01*
X124310066Y-79631066D01*
X124299159Y-79640952D01*
X124287336Y-79649720D01*
X124274710Y-79657288D01*
X124261403Y-79663582D01*
X124247543Y-79668541D01*
X124233264Y-79672118D01*
X124218703Y-79674278D01*
X124204000Y-79675000D01*
X122554000Y-79675000D01*
X122539297Y-79674278D01*
X122524736Y-79672118D01*
X122510457Y-79668541D01*
X122496597Y-79663582D01*
X122483290Y-79657288D01*
X122470664Y-79649720D01*
X122458841Y-79640952D01*
X122447934Y-79631066D01*
X122438048Y-79620159D01*
X122429280Y-79608336D01*
X122421712Y-79595710D01*
X122415418Y-79582403D01*
X122410459Y-79568543D01*
X122406882Y-79554264D01*
X122404722Y-79539703D01*
X122404000Y-79525000D01*
X122404000Y-79225000D01*
X122404722Y-79210297D01*
X122406882Y-79195736D01*
X122410459Y-79181457D01*
X122415418Y-79167597D01*
X122421712Y-79154290D01*
X122429280Y-79141664D01*
X122438048Y-79129841D01*
X122447934Y-79118934D01*
X122458841Y-79109048D01*
X122470664Y-79100280D01*
X122483290Y-79092712D01*
X122496597Y-79086418D01*
X122510457Y-79081459D01*
X122524736Y-79077882D01*
X122539297Y-79075722D01*
X122554000Y-79075000D01*
X124204000Y-79075000D01*
X124218703Y-79075722D01*
X124218703Y-79075722D01*
G37*
D19*
X123379000Y-79375000D03*
D13*
G36*
X124218703Y-80345722D02*
X124233264Y-80347882D01*
X124247543Y-80351459D01*
X124261403Y-80356418D01*
X124274710Y-80362712D01*
X124287336Y-80370280D01*
X124299159Y-80379048D01*
X124310066Y-80388934D01*
X124319952Y-80399841D01*
X124328720Y-80411664D01*
X124336288Y-80424290D01*
X124342582Y-80437597D01*
X124347541Y-80451457D01*
X124351118Y-80465736D01*
X124353278Y-80480297D01*
X124354000Y-80495000D01*
X124354000Y-80795000D01*
X124353278Y-80809703D01*
X124351118Y-80824264D01*
X124347541Y-80838543D01*
X124342582Y-80852403D01*
X124336288Y-80865710D01*
X124328720Y-80878336D01*
X124319952Y-80890159D01*
X124310066Y-80901066D01*
X124299159Y-80910952D01*
X124287336Y-80919720D01*
X124274710Y-80927288D01*
X124261403Y-80933582D01*
X124247543Y-80938541D01*
X124233264Y-80942118D01*
X124218703Y-80944278D01*
X124204000Y-80945000D01*
X122554000Y-80945000D01*
X122539297Y-80944278D01*
X122524736Y-80942118D01*
X122510457Y-80938541D01*
X122496597Y-80933582D01*
X122483290Y-80927288D01*
X122470664Y-80919720D01*
X122458841Y-80910952D01*
X122447934Y-80901066D01*
X122438048Y-80890159D01*
X122429280Y-80878336D01*
X122421712Y-80865710D01*
X122415418Y-80852403D01*
X122410459Y-80838543D01*
X122406882Y-80824264D01*
X122404722Y-80809703D01*
X122404000Y-80795000D01*
X122404000Y-80495000D01*
X122404722Y-80480297D01*
X122406882Y-80465736D01*
X122410459Y-80451457D01*
X122415418Y-80437597D01*
X122421712Y-80424290D01*
X122429280Y-80411664D01*
X122438048Y-80399841D01*
X122447934Y-80388934D01*
X122458841Y-80379048D01*
X122470664Y-80370280D01*
X122483290Y-80362712D01*
X122496597Y-80356418D01*
X122510457Y-80351459D01*
X122524736Y-80347882D01*
X122539297Y-80345722D01*
X122554000Y-80345000D01*
X124204000Y-80345000D01*
X124218703Y-80345722D01*
X124218703Y-80345722D01*
G37*
D19*
X123379000Y-80645000D03*
D13*
G36*
X124218703Y-81615722D02*
X124233264Y-81617882D01*
X124247543Y-81621459D01*
X124261403Y-81626418D01*
X124274710Y-81632712D01*
X124287336Y-81640280D01*
X124299159Y-81649048D01*
X124310066Y-81658934D01*
X124319952Y-81669841D01*
X124328720Y-81681664D01*
X124336288Y-81694290D01*
X124342582Y-81707597D01*
X124347541Y-81721457D01*
X124351118Y-81735736D01*
X124353278Y-81750297D01*
X124354000Y-81765000D01*
X124354000Y-82065000D01*
X124353278Y-82079703D01*
X124351118Y-82094264D01*
X124347541Y-82108543D01*
X124342582Y-82122403D01*
X124336288Y-82135710D01*
X124328720Y-82148336D01*
X124319952Y-82160159D01*
X124310066Y-82171066D01*
X124299159Y-82180952D01*
X124287336Y-82189720D01*
X124274710Y-82197288D01*
X124261403Y-82203582D01*
X124247543Y-82208541D01*
X124233264Y-82212118D01*
X124218703Y-82214278D01*
X124204000Y-82215000D01*
X122554000Y-82215000D01*
X122539297Y-82214278D01*
X122524736Y-82212118D01*
X122510457Y-82208541D01*
X122496597Y-82203582D01*
X122483290Y-82197288D01*
X122470664Y-82189720D01*
X122458841Y-82180952D01*
X122447934Y-82171066D01*
X122438048Y-82160159D01*
X122429280Y-82148336D01*
X122421712Y-82135710D01*
X122415418Y-82122403D01*
X122410459Y-82108543D01*
X122406882Y-82094264D01*
X122404722Y-82079703D01*
X122404000Y-82065000D01*
X122404000Y-81765000D01*
X122404722Y-81750297D01*
X122406882Y-81735736D01*
X122410459Y-81721457D01*
X122415418Y-81707597D01*
X122421712Y-81694290D01*
X122429280Y-81681664D01*
X122438048Y-81669841D01*
X122447934Y-81658934D01*
X122458841Y-81649048D01*
X122470664Y-81640280D01*
X122483290Y-81632712D01*
X122496597Y-81626418D01*
X122510457Y-81621459D01*
X122524736Y-81617882D01*
X122539297Y-81615722D01*
X122554000Y-81615000D01*
X124204000Y-81615000D01*
X124218703Y-81615722D01*
X124218703Y-81615722D01*
G37*
D19*
X123379000Y-81915000D03*
D13*
G36*
X124218703Y-82885722D02*
X124233264Y-82887882D01*
X124247543Y-82891459D01*
X124261403Y-82896418D01*
X124274710Y-82902712D01*
X124287336Y-82910280D01*
X124299159Y-82919048D01*
X124310066Y-82928934D01*
X124319952Y-82939841D01*
X124328720Y-82951664D01*
X124336288Y-82964290D01*
X124342582Y-82977597D01*
X124347541Y-82991457D01*
X124351118Y-83005736D01*
X124353278Y-83020297D01*
X124354000Y-83035000D01*
X124354000Y-83335000D01*
X124353278Y-83349703D01*
X124351118Y-83364264D01*
X124347541Y-83378543D01*
X124342582Y-83392403D01*
X124336288Y-83405710D01*
X124328720Y-83418336D01*
X124319952Y-83430159D01*
X124310066Y-83441066D01*
X124299159Y-83450952D01*
X124287336Y-83459720D01*
X124274710Y-83467288D01*
X124261403Y-83473582D01*
X124247543Y-83478541D01*
X124233264Y-83482118D01*
X124218703Y-83484278D01*
X124204000Y-83485000D01*
X122554000Y-83485000D01*
X122539297Y-83484278D01*
X122524736Y-83482118D01*
X122510457Y-83478541D01*
X122496597Y-83473582D01*
X122483290Y-83467288D01*
X122470664Y-83459720D01*
X122458841Y-83450952D01*
X122447934Y-83441066D01*
X122438048Y-83430159D01*
X122429280Y-83418336D01*
X122421712Y-83405710D01*
X122415418Y-83392403D01*
X122410459Y-83378543D01*
X122406882Y-83364264D01*
X122404722Y-83349703D01*
X122404000Y-83335000D01*
X122404000Y-83035000D01*
X122404722Y-83020297D01*
X122406882Y-83005736D01*
X122410459Y-82991457D01*
X122415418Y-82977597D01*
X122421712Y-82964290D01*
X122429280Y-82951664D01*
X122438048Y-82939841D01*
X122447934Y-82928934D01*
X122458841Y-82919048D01*
X122470664Y-82910280D01*
X122483290Y-82902712D01*
X122496597Y-82896418D01*
X122510457Y-82891459D01*
X122524736Y-82887882D01*
X122539297Y-82885722D01*
X122554000Y-82885000D01*
X124204000Y-82885000D01*
X124218703Y-82885722D01*
X124218703Y-82885722D01*
G37*
D19*
X123379000Y-83185000D03*
D13*
G36*
X119268703Y-82885722D02*
X119283264Y-82887882D01*
X119297543Y-82891459D01*
X119311403Y-82896418D01*
X119324710Y-82902712D01*
X119337336Y-82910280D01*
X119349159Y-82919048D01*
X119360066Y-82928934D01*
X119369952Y-82939841D01*
X119378720Y-82951664D01*
X119386288Y-82964290D01*
X119392582Y-82977597D01*
X119397541Y-82991457D01*
X119401118Y-83005736D01*
X119403278Y-83020297D01*
X119404000Y-83035000D01*
X119404000Y-83335000D01*
X119403278Y-83349703D01*
X119401118Y-83364264D01*
X119397541Y-83378543D01*
X119392582Y-83392403D01*
X119386288Y-83405710D01*
X119378720Y-83418336D01*
X119369952Y-83430159D01*
X119360066Y-83441066D01*
X119349159Y-83450952D01*
X119337336Y-83459720D01*
X119324710Y-83467288D01*
X119311403Y-83473582D01*
X119297543Y-83478541D01*
X119283264Y-83482118D01*
X119268703Y-83484278D01*
X119254000Y-83485000D01*
X117604000Y-83485000D01*
X117589297Y-83484278D01*
X117574736Y-83482118D01*
X117560457Y-83478541D01*
X117546597Y-83473582D01*
X117533290Y-83467288D01*
X117520664Y-83459720D01*
X117508841Y-83450952D01*
X117497934Y-83441066D01*
X117488048Y-83430159D01*
X117479280Y-83418336D01*
X117471712Y-83405710D01*
X117465418Y-83392403D01*
X117460459Y-83378543D01*
X117456882Y-83364264D01*
X117454722Y-83349703D01*
X117454000Y-83335000D01*
X117454000Y-83035000D01*
X117454722Y-83020297D01*
X117456882Y-83005736D01*
X117460459Y-82991457D01*
X117465418Y-82977597D01*
X117471712Y-82964290D01*
X117479280Y-82951664D01*
X117488048Y-82939841D01*
X117497934Y-82928934D01*
X117508841Y-82919048D01*
X117520664Y-82910280D01*
X117533290Y-82902712D01*
X117546597Y-82896418D01*
X117560457Y-82891459D01*
X117574736Y-82887882D01*
X117589297Y-82885722D01*
X117604000Y-82885000D01*
X119254000Y-82885000D01*
X119268703Y-82885722D01*
X119268703Y-82885722D01*
G37*
D19*
X118429000Y-83185000D03*
D13*
G36*
X119268703Y-81615722D02*
X119283264Y-81617882D01*
X119297543Y-81621459D01*
X119311403Y-81626418D01*
X119324710Y-81632712D01*
X119337336Y-81640280D01*
X119349159Y-81649048D01*
X119360066Y-81658934D01*
X119369952Y-81669841D01*
X119378720Y-81681664D01*
X119386288Y-81694290D01*
X119392582Y-81707597D01*
X119397541Y-81721457D01*
X119401118Y-81735736D01*
X119403278Y-81750297D01*
X119404000Y-81765000D01*
X119404000Y-82065000D01*
X119403278Y-82079703D01*
X119401118Y-82094264D01*
X119397541Y-82108543D01*
X119392582Y-82122403D01*
X119386288Y-82135710D01*
X119378720Y-82148336D01*
X119369952Y-82160159D01*
X119360066Y-82171066D01*
X119349159Y-82180952D01*
X119337336Y-82189720D01*
X119324710Y-82197288D01*
X119311403Y-82203582D01*
X119297543Y-82208541D01*
X119283264Y-82212118D01*
X119268703Y-82214278D01*
X119254000Y-82215000D01*
X117604000Y-82215000D01*
X117589297Y-82214278D01*
X117574736Y-82212118D01*
X117560457Y-82208541D01*
X117546597Y-82203582D01*
X117533290Y-82197288D01*
X117520664Y-82189720D01*
X117508841Y-82180952D01*
X117497934Y-82171066D01*
X117488048Y-82160159D01*
X117479280Y-82148336D01*
X117471712Y-82135710D01*
X117465418Y-82122403D01*
X117460459Y-82108543D01*
X117456882Y-82094264D01*
X117454722Y-82079703D01*
X117454000Y-82065000D01*
X117454000Y-81765000D01*
X117454722Y-81750297D01*
X117456882Y-81735736D01*
X117460459Y-81721457D01*
X117465418Y-81707597D01*
X117471712Y-81694290D01*
X117479280Y-81681664D01*
X117488048Y-81669841D01*
X117497934Y-81658934D01*
X117508841Y-81649048D01*
X117520664Y-81640280D01*
X117533290Y-81632712D01*
X117546597Y-81626418D01*
X117560457Y-81621459D01*
X117574736Y-81617882D01*
X117589297Y-81615722D01*
X117604000Y-81615000D01*
X119254000Y-81615000D01*
X119268703Y-81615722D01*
X119268703Y-81615722D01*
G37*
D19*
X118429000Y-81915000D03*
D13*
G36*
X119268703Y-80345722D02*
X119283264Y-80347882D01*
X119297543Y-80351459D01*
X119311403Y-80356418D01*
X119324710Y-80362712D01*
X119337336Y-80370280D01*
X119349159Y-80379048D01*
X119360066Y-80388934D01*
X119369952Y-80399841D01*
X119378720Y-80411664D01*
X119386288Y-80424290D01*
X119392582Y-80437597D01*
X119397541Y-80451457D01*
X119401118Y-80465736D01*
X119403278Y-80480297D01*
X119404000Y-80495000D01*
X119404000Y-80795000D01*
X119403278Y-80809703D01*
X119401118Y-80824264D01*
X119397541Y-80838543D01*
X119392582Y-80852403D01*
X119386288Y-80865710D01*
X119378720Y-80878336D01*
X119369952Y-80890159D01*
X119360066Y-80901066D01*
X119349159Y-80910952D01*
X119337336Y-80919720D01*
X119324710Y-80927288D01*
X119311403Y-80933582D01*
X119297543Y-80938541D01*
X119283264Y-80942118D01*
X119268703Y-80944278D01*
X119254000Y-80945000D01*
X117604000Y-80945000D01*
X117589297Y-80944278D01*
X117574736Y-80942118D01*
X117560457Y-80938541D01*
X117546597Y-80933582D01*
X117533290Y-80927288D01*
X117520664Y-80919720D01*
X117508841Y-80910952D01*
X117497934Y-80901066D01*
X117488048Y-80890159D01*
X117479280Y-80878336D01*
X117471712Y-80865710D01*
X117465418Y-80852403D01*
X117460459Y-80838543D01*
X117456882Y-80824264D01*
X117454722Y-80809703D01*
X117454000Y-80795000D01*
X117454000Y-80495000D01*
X117454722Y-80480297D01*
X117456882Y-80465736D01*
X117460459Y-80451457D01*
X117465418Y-80437597D01*
X117471712Y-80424290D01*
X117479280Y-80411664D01*
X117488048Y-80399841D01*
X117497934Y-80388934D01*
X117508841Y-80379048D01*
X117520664Y-80370280D01*
X117533290Y-80362712D01*
X117546597Y-80356418D01*
X117560457Y-80351459D01*
X117574736Y-80347882D01*
X117589297Y-80345722D01*
X117604000Y-80345000D01*
X119254000Y-80345000D01*
X119268703Y-80345722D01*
X119268703Y-80345722D01*
G37*
D19*
X118429000Y-80645000D03*
D13*
G36*
X119268703Y-79075722D02*
X119283264Y-79077882D01*
X119297543Y-79081459D01*
X119311403Y-79086418D01*
X119324710Y-79092712D01*
X119337336Y-79100280D01*
X119349159Y-79109048D01*
X119360066Y-79118934D01*
X119369952Y-79129841D01*
X119378720Y-79141664D01*
X119386288Y-79154290D01*
X119392582Y-79167597D01*
X119397541Y-79181457D01*
X119401118Y-79195736D01*
X119403278Y-79210297D01*
X119404000Y-79225000D01*
X119404000Y-79525000D01*
X119403278Y-79539703D01*
X119401118Y-79554264D01*
X119397541Y-79568543D01*
X119392582Y-79582403D01*
X119386288Y-79595710D01*
X119378720Y-79608336D01*
X119369952Y-79620159D01*
X119360066Y-79631066D01*
X119349159Y-79640952D01*
X119337336Y-79649720D01*
X119324710Y-79657288D01*
X119311403Y-79663582D01*
X119297543Y-79668541D01*
X119283264Y-79672118D01*
X119268703Y-79674278D01*
X119254000Y-79675000D01*
X117604000Y-79675000D01*
X117589297Y-79674278D01*
X117574736Y-79672118D01*
X117560457Y-79668541D01*
X117546597Y-79663582D01*
X117533290Y-79657288D01*
X117520664Y-79649720D01*
X117508841Y-79640952D01*
X117497934Y-79631066D01*
X117488048Y-79620159D01*
X117479280Y-79608336D01*
X117471712Y-79595710D01*
X117465418Y-79582403D01*
X117460459Y-79568543D01*
X117456882Y-79554264D01*
X117454722Y-79539703D01*
X117454000Y-79525000D01*
X117454000Y-79225000D01*
X117454722Y-79210297D01*
X117456882Y-79195736D01*
X117460459Y-79181457D01*
X117465418Y-79167597D01*
X117471712Y-79154290D01*
X117479280Y-79141664D01*
X117488048Y-79129841D01*
X117497934Y-79118934D01*
X117508841Y-79109048D01*
X117520664Y-79100280D01*
X117533290Y-79092712D01*
X117546597Y-79086418D01*
X117560457Y-79081459D01*
X117574736Y-79077882D01*
X117589297Y-79075722D01*
X117604000Y-79075000D01*
X119254000Y-79075000D01*
X119268703Y-79075722D01*
X119268703Y-79075722D01*
G37*
D19*
X118429000Y-79375000D03*
D13*
G36*
X119268703Y-77805722D02*
X119283264Y-77807882D01*
X119297543Y-77811459D01*
X119311403Y-77816418D01*
X119324710Y-77822712D01*
X119337336Y-77830280D01*
X119349159Y-77839048D01*
X119360066Y-77848934D01*
X119369952Y-77859841D01*
X119378720Y-77871664D01*
X119386288Y-77884290D01*
X119392582Y-77897597D01*
X119397541Y-77911457D01*
X119401118Y-77925736D01*
X119403278Y-77940297D01*
X119404000Y-77955000D01*
X119404000Y-78255000D01*
X119403278Y-78269703D01*
X119401118Y-78284264D01*
X119397541Y-78298543D01*
X119392582Y-78312403D01*
X119386288Y-78325710D01*
X119378720Y-78338336D01*
X119369952Y-78350159D01*
X119360066Y-78361066D01*
X119349159Y-78370952D01*
X119337336Y-78379720D01*
X119324710Y-78387288D01*
X119311403Y-78393582D01*
X119297543Y-78398541D01*
X119283264Y-78402118D01*
X119268703Y-78404278D01*
X119254000Y-78405000D01*
X117604000Y-78405000D01*
X117589297Y-78404278D01*
X117574736Y-78402118D01*
X117560457Y-78398541D01*
X117546597Y-78393582D01*
X117533290Y-78387288D01*
X117520664Y-78379720D01*
X117508841Y-78370952D01*
X117497934Y-78361066D01*
X117488048Y-78350159D01*
X117479280Y-78338336D01*
X117471712Y-78325710D01*
X117465418Y-78312403D01*
X117460459Y-78298543D01*
X117456882Y-78284264D01*
X117454722Y-78269703D01*
X117454000Y-78255000D01*
X117454000Y-77955000D01*
X117454722Y-77940297D01*
X117456882Y-77925736D01*
X117460459Y-77911457D01*
X117465418Y-77897597D01*
X117471712Y-77884290D01*
X117479280Y-77871664D01*
X117488048Y-77859841D01*
X117497934Y-77848934D01*
X117508841Y-77839048D01*
X117520664Y-77830280D01*
X117533290Y-77822712D01*
X117546597Y-77816418D01*
X117560457Y-77811459D01*
X117574736Y-77807882D01*
X117589297Y-77805722D01*
X117604000Y-77805000D01*
X119254000Y-77805000D01*
X119268703Y-77805722D01*
X119268703Y-77805722D01*
G37*
D19*
X118429000Y-78105000D03*
D13*
G36*
X119268703Y-76535722D02*
X119283264Y-76537882D01*
X119297543Y-76541459D01*
X119311403Y-76546418D01*
X119324710Y-76552712D01*
X119337336Y-76560280D01*
X119349159Y-76569048D01*
X119360066Y-76578934D01*
X119369952Y-76589841D01*
X119378720Y-76601664D01*
X119386288Y-76614290D01*
X119392582Y-76627597D01*
X119397541Y-76641457D01*
X119401118Y-76655736D01*
X119403278Y-76670297D01*
X119404000Y-76685000D01*
X119404000Y-76985000D01*
X119403278Y-76999703D01*
X119401118Y-77014264D01*
X119397541Y-77028543D01*
X119392582Y-77042403D01*
X119386288Y-77055710D01*
X119378720Y-77068336D01*
X119369952Y-77080159D01*
X119360066Y-77091066D01*
X119349159Y-77100952D01*
X119337336Y-77109720D01*
X119324710Y-77117288D01*
X119311403Y-77123582D01*
X119297543Y-77128541D01*
X119283264Y-77132118D01*
X119268703Y-77134278D01*
X119254000Y-77135000D01*
X117604000Y-77135000D01*
X117589297Y-77134278D01*
X117574736Y-77132118D01*
X117560457Y-77128541D01*
X117546597Y-77123582D01*
X117533290Y-77117288D01*
X117520664Y-77109720D01*
X117508841Y-77100952D01*
X117497934Y-77091066D01*
X117488048Y-77080159D01*
X117479280Y-77068336D01*
X117471712Y-77055710D01*
X117465418Y-77042403D01*
X117460459Y-77028543D01*
X117456882Y-77014264D01*
X117454722Y-76999703D01*
X117454000Y-76985000D01*
X117454000Y-76685000D01*
X117454722Y-76670297D01*
X117456882Y-76655736D01*
X117460459Y-76641457D01*
X117465418Y-76627597D01*
X117471712Y-76614290D01*
X117479280Y-76601664D01*
X117488048Y-76589841D01*
X117497934Y-76578934D01*
X117508841Y-76569048D01*
X117520664Y-76560280D01*
X117533290Y-76552712D01*
X117546597Y-76546418D01*
X117560457Y-76541459D01*
X117574736Y-76537882D01*
X117589297Y-76535722D01*
X117604000Y-76535000D01*
X119254000Y-76535000D01*
X119268703Y-76535722D01*
X119268703Y-76535722D01*
G37*
D19*
X118429000Y-76835000D03*
D13*
G36*
X119268703Y-75265722D02*
X119283264Y-75267882D01*
X119297543Y-75271459D01*
X119311403Y-75276418D01*
X119324710Y-75282712D01*
X119337336Y-75290280D01*
X119349159Y-75299048D01*
X119360066Y-75308934D01*
X119369952Y-75319841D01*
X119378720Y-75331664D01*
X119386288Y-75344290D01*
X119392582Y-75357597D01*
X119397541Y-75371457D01*
X119401118Y-75385736D01*
X119403278Y-75400297D01*
X119404000Y-75415000D01*
X119404000Y-75715000D01*
X119403278Y-75729703D01*
X119401118Y-75744264D01*
X119397541Y-75758543D01*
X119392582Y-75772403D01*
X119386288Y-75785710D01*
X119378720Y-75798336D01*
X119369952Y-75810159D01*
X119360066Y-75821066D01*
X119349159Y-75830952D01*
X119337336Y-75839720D01*
X119324710Y-75847288D01*
X119311403Y-75853582D01*
X119297543Y-75858541D01*
X119283264Y-75862118D01*
X119268703Y-75864278D01*
X119254000Y-75865000D01*
X117604000Y-75865000D01*
X117589297Y-75864278D01*
X117574736Y-75862118D01*
X117560457Y-75858541D01*
X117546597Y-75853582D01*
X117533290Y-75847288D01*
X117520664Y-75839720D01*
X117508841Y-75830952D01*
X117497934Y-75821066D01*
X117488048Y-75810159D01*
X117479280Y-75798336D01*
X117471712Y-75785710D01*
X117465418Y-75772403D01*
X117460459Y-75758543D01*
X117456882Y-75744264D01*
X117454722Y-75729703D01*
X117454000Y-75715000D01*
X117454000Y-75415000D01*
X117454722Y-75400297D01*
X117456882Y-75385736D01*
X117460459Y-75371457D01*
X117465418Y-75357597D01*
X117471712Y-75344290D01*
X117479280Y-75331664D01*
X117488048Y-75319841D01*
X117497934Y-75308934D01*
X117508841Y-75299048D01*
X117520664Y-75290280D01*
X117533290Y-75282712D01*
X117546597Y-75276418D01*
X117560457Y-75271459D01*
X117574736Y-75267882D01*
X117589297Y-75265722D01*
X117604000Y-75265000D01*
X119254000Y-75265000D01*
X119268703Y-75265722D01*
X119268703Y-75265722D01*
G37*
D19*
X118429000Y-75565000D03*
D13*
G36*
X119268703Y-73995722D02*
X119283264Y-73997882D01*
X119297543Y-74001459D01*
X119311403Y-74006418D01*
X119324710Y-74012712D01*
X119337336Y-74020280D01*
X119349159Y-74029048D01*
X119360066Y-74038934D01*
X119369952Y-74049841D01*
X119378720Y-74061664D01*
X119386288Y-74074290D01*
X119392582Y-74087597D01*
X119397541Y-74101457D01*
X119401118Y-74115736D01*
X119403278Y-74130297D01*
X119404000Y-74145000D01*
X119404000Y-74445000D01*
X119403278Y-74459703D01*
X119401118Y-74474264D01*
X119397541Y-74488543D01*
X119392582Y-74502403D01*
X119386288Y-74515710D01*
X119378720Y-74528336D01*
X119369952Y-74540159D01*
X119360066Y-74551066D01*
X119349159Y-74560952D01*
X119337336Y-74569720D01*
X119324710Y-74577288D01*
X119311403Y-74583582D01*
X119297543Y-74588541D01*
X119283264Y-74592118D01*
X119268703Y-74594278D01*
X119254000Y-74595000D01*
X117604000Y-74595000D01*
X117589297Y-74594278D01*
X117574736Y-74592118D01*
X117560457Y-74588541D01*
X117546597Y-74583582D01*
X117533290Y-74577288D01*
X117520664Y-74569720D01*
X117508841Y-74560952D01*
X117497934Y-74551066D01*
X117488048Y-74540159D01*
X117479280Y-74528336D01*
X117471712Y-74515710D01*
X117465418Y-74502403D01*
X117460459Y-74488543D01*
X117456882Y-74474264D01*
X117454722Y-74459703D01*
X117454000Y-74445000D01*
X117454000Y-74145000D01*
X117454722Y-74130297D01*
X117456882Y-74115736D01*
X117460459Y-74101457D01*
X117465418Y-74087597D01*
X117471712Y-74074290D01*
X117479280Y-74061664D01*
X117488048Y-74049841D01*
X117497934Y-74038934D01*
X117508841Y-74029048D01*
X117520664Y-74020280D01*
X117533290Y-74012712D01*
X117546597Y-74006418D01*
X117560457Y-74001459D01*
X117574736Y-73997882D01*
X117589297Y-73995722D01*
X117604000Y-73995000D01*
X119254000Y-73995000D01*
X119268703Y-73995722D01*
X119268703Y-73995722D01*
G37*
D19*
X118429000Y-74295000D03*
G04 #@! TD*
D20*
G04 #@! TO.C,QD8*
X182372000Y-100949000D03*
X183322000Y-98949000D03*
X181422000Y-98949000D03*
G04 #@! TD*
G04 #@! TO.C,QD7*
X176342000Y-99076000D03*
X178242000Y-99076000D03*
X177292000Y-101076000D03*
G04 #@! TD*
G04 #@! TO.C,QD6*
X172212000Y-101076000D03*
X173162000Y-99076000D03*
X171262000Y-99076000D03*
G04 #@! TD*
G04 #@! TO.C,QD5*
X145354000Y-99076000D03*
X147254000Y-99076000D03*
X146304000Y-101076000D03*
G04 #@! TD*
G04 #@! TO.C,QD3*
X136144000Y-101076000D03*
X137094000Y-99076000D03*
X135194000Y-99076000D03*
G04 #@! TD*
G04 #@! TO.C,QD2*
X130114000Y-99076000D03*
X132014000Y-99076000D03*
X131064000Y-101076000D03*
G04 #@! TD*
G04 #@! TO.C,QD1*
X125984000Y-101076000D03*
X126934000Y-99076000D03*
X125034000Y-99076000D03*
G04 #@! TD*
D21*
G04 #@! TO.C,T2*
X118126000Y-69530000D03*
X118126000Y-67630000D03*
X120126000Y-68580000D03*
G04 #@! TD*
G04 #@! TO.C,T1*
X122444000Y-68580000D03*
X124444000Y-69530000D03*
X124444000Y-67630000D03*
G04 #@! TD*
D20*
G04 #@! TO.C,QD4*
X140274000Y-99076000D03*
X142174000Y-99076000D03*
X141224000Y-101076000D03*
G04 #@! TD*
D13*
G04 #@! TO.C,R10*
G36*
X116552505Y-70047204D02*
X116576773Y-70050804D01*
X116600572Y-70056765D01*
X116623671Y-70065030D01*
X116645850Y-70075520D01*
X116666893Y-70088132D01*
X116686599Y-70102747D01*
X116704777Y-70119223D01*
X116721253Y-70137401D01*
X116735868Y-70157107D01*
X116748480Y-70178150D01*
X116758970Y-70200329D01*
X116767235Y-70223428D01*
X116773196Y-70247227D01*
X116776796Y-70271495D01*
X116778000Y-70295999D01*
X116778000Y-70946001D01*
X116776796Y-70970505D01*
X116773196Y-70994773D01*
X116767235Y-71018572D01*
X116758970Y-71041671D01*
X116748480Y-71063850D01*
X116735868Y-71084893D01*
X116721253Y-71104599D01*
X116704777Y-71122777D01*
X116686599Y-71139253D01*
X116666893Y-71153868D01*
X116645850Y-71166480D01*
X116623671Y-71176970D01*
X116600572Y-71185235D01*
X116576773Y-71191196D01*
X116552505Y-71194796D01*
X116528001Y-71196000D01*
X115627999Y-71196000D01*
X115603495Y-71194796D01*
X115579227Y-71191196D01*
X115555428Y-71185235D01*
X115532329Y-71176970D01*
X115510150Y-71166480D01*
X115489107Y-71153868D01*
X115469401Y-71139253D01*
X115451223Y-71122777D01*
X115434747Y-71104599D01*
X115420132Y-71084893D01*
X115407520Y-71063850D01*
X115397030Y-71041671D01*
X115388765Y-71018572D01*
X115382804Y-70994773D01*
X115379204Y-70970505D01*
X115378000Y-70946001D01*
X115378000Y-70295999D01*
X115379204Y-70271495D01*
X115382804Y-70247227D01*
X115388765Y-70223428D01*
X115397030Y-70200329D01*
X115407520Y-70178150D01*
X115420132Y-70157107D01*
X115434747Y-70137401D01*
X115451223Y-70119223D01*
X115469401Y-70102747D01*
X115489107Y-70088132D01*
X115510150Y-70075520D01*
X115532329Y-70065030D01*
X115555428Y-70056765D01*
X115579227Y-70050804D01*
X115603495Y-70047204D01*
X115627999Y-70046000D01*
X116528001Y-70046000D01*
X116552505Y-70047204D01*
X116552505Y-70047204D01*
G37*
D14*
X116078000Y-70621000D03*
D13*
G36*
X116552505Y-67997204D02*
X116576773Y-68000804D01*
X116600572Y-68006765D01*
X116623671Y-68015030D01*
X116645850Y-68025520D01*
X116666893Y-68038132D01*
X116686599Y-68052747D01*
X116704777Y-68069223D01*
X116721253Y-68087401D01*
X116735868Y-68107107D01*
X116748480Y-68128150D01*
X116758970Y-68150329D01*
X116767235Y-68173428D01*
X116773196Y-68197227D01*
X116776796Y-68221495D01*
X116778000Y-68245999D01*
X116778000Y-68896001D01*
X116776796Y-68920505D01*
X116773196Y-68944773D01*
X116767235Y-68968572D01*
X116758970Y-68991671D01*
X116748480Y-69013850D01*
X116735868Y-69034893D01*
X116721253Y-69054599D01*
X116704777Y-69072777D01*
X116686599Y-69089253D01*
X116666893Y-69103868D01*
X116645850Y-69116480D01*
X116623671Y-69126970D01*
X116600572Y-69135235D01*
X116576773Y-69141196D01*
X116552505Y-69144796D01*
X116528001Y-69146000D01*
X115627999Y-69146000D01*
X115603495Y-69144796D01*
X115579227Y-69141196D01*
X115555428Y-69135235D01*
X115532329Y-69126970D01*
X115510150Y-69116480D01*
X115489107Y-69103868D01*
X115469401Y-69089253D01*
X115451223Y-69072777D01*
X115434747Y-69054599D01*
X115420132Y-69034893D01*
X115407520Y-69013850D01*
X115397030Y-68991671D01*
X115388765Y-68968572D01*
X115382804Y-68944773D01*
X115379204Y-68920505D01*
X115378000Y-68896001D01*
X115378000Y-68245999D01*
X115379204Y-68221495D01*
X115382804Y-68197227D01*
X115388765Y-68173428D01*
X115397030Y-68150329D01*
X115407520Y-68128150D01*
X115420132Y-68107107D01*
X115434747Y-68087401D01*
X115451223Y-68069223D01*
X115469401Y-68052747D01*
X115489107Y-68038132D01*
X115510150Y-68025520D01*
X115532329Y-68015030D01*
X115555428Y-68006765D01*
X115579227Y-68000804D01*
X115603495Y-67997204D01*
X115627999Y-67996000D01*
X116528001Y-67996000D01*
X116552505Y-67997204D01*
X116552505Y-67997204D01*
G37*
D14*
X116078000Y-68571000D03*
G04 #@! TD*
D13*
G04 #@! TO.C,R6*
G36*
X171536505Y-53911204D02*
X171560773Y-53914804D01*
X171584572Y-53920765D01*
X171607671Y-53929030D01*
X171629850Y-53939520D01*
X171650893Y-53952132D01*
X171670599Y-53966747D01*
X171688777Y-53983223D01*
X171705253Y-54001401D01*
X171719868Y-54021107D01*
X171732480Y-54042150D01*
X171742970Y-54064329D01*
X171751235Y-54087428D01*
X171757196Y-54111227D01*
X171760796Y-54135495D01*
X171762000Y-54159999D01*
X171762000Y-55060001D01*
X171760796Y-55084505D01*
X171757196Y-55108773D01*
X171751235Y-55132572D01*
X171742970Y-55155671D01*
X171732480Y-55177850D01*
X171719868Y-55198893D01*
X171705253Y-55218599D01*
X171688777Y-55236777D01*
X171670599Y-55253253D01*
X171650893Y-55267868D01*
X171629850Y-55280480D01*
X171607671Y-55290970D01*
X171584572Y-55299235D01*
X171560773Y-55305196D01*
X171536505Y-55308796D01*
X171512001Y-55310000D01*
X170861999Y-55310000D01*
X170837495Y-55308796D01*
X170813227Y-55305196D01*
X170789428Y-55299235D01*
X170766329Y-55290970D01*
X170744150Y-55280480D01*
X170723107Y-55267868D01*
X170703401Y-55253253D01*
X170685223Y-55236777D01*
X170668747Y-55218599D01*
X170654132Y-55198893D01*
X170641520Y-55177850D01*
X170631030Y-55155671D01*
X170622765Y-55132572D01*
X170616804Y-55108773D01*
X170613204Y-55084505D01*
X170612000Y-55060001D01*
X170612000Y-54159999D01*
X170613204Y-54135495D01*
X170616804Y-54111227D01*
X170622765Y-54087428D01*
X170631030Y-54064329D01*
X170641520Y-54042150D01*
X170654132Y-54021107D01*
X170668747Y-54001401D01*
X170685223Y-53983223D01*
X170703401Y-53966747D01*
X170723107Y-53952132D01*
X170744150Y-53939520D01*
X170766329Y-53929030D01*
X170789428Y-53920765D01*
X170813227Y-53914804D01*
X170837495Y-53911204D01*
X170861999Y-53910000D01*
X171512001Y-53910000D01*
X171536505Y-53911204D01*
X171536505Y-53911204D01*
G37*
D14*
X171187000Y-54610000D03*
D13*
G36*
X173586505Y-53911204D02*
X173610773Y-53914804D01*
X173634572Y-53920765D01*
X173657671Y-53929030D01*
X173679850Y-53939520D01*
X173700893Y-53952132D01*
X173720599Y-53966747D01*
X173738777Y-53983223D01*
X173755253Y-54001401D01*
X173769868Y-54021107D01*
X173782480Y-54042150D01*
X173792970Y-54064329D01*
X173801235Y-54087428D01*
X173807196Y-54111227D01*
X173810796Y-54135495D01*
X173812000Y-54159999D01*
X173812000Y-55060001D01*
X173810796Y-55084505D01*
X173807196Y-55108773D01*
X173801235Y-55132572D01*
X173792970Y-55155671D01*
X173782480Y-55177850D01*
X173769868Y-55198893D01*
X173755253Y-55218599D01*
X173738777Y-55236777D01*
X173720599Y-55253253D01*
X173700893Y-55267868D01*
X173679850Y-55280480D01*
X173657671Y-55290970D01*
X173634572Y-55299235D01*
X173610773Y-55305196D01*
X173586505Y-55308796D01*
X173562001Y-55310000D01*
X172911999Y-55310000D01*
X172887495Y-55308796D01*
X172863227Y-55305196D01*
X172839428Y-55299235D01*
X172816329Y-55290970D01*
X172794150Y-55280480D01*
X172773107Y-55267868D01*
X172753401Y-55253253D01*
X172735223Y-55236777D01*
X172718747Y-55218599D01*
X172704132Y-55198893D01*
X172691520Y-55177850D01*
X172681030Y-55155671D01*
X172672765Y-55132572D01*
X172666804Y-55108773D01*
X172663204Y-55084505D01*
X172662000Y-55060001D01*
X172662000Y-54159999D01*
X172663204Y-54135495D01*
X172666804Y-54111227D01*
X172672765Y-54087428D01*
X172681030Y-54064329D01*
X172691520Y-54042150D01*
X172704132Y-54021107D01*
X172718747Y-54001401D01*
X172735223Y-53983223D01*
X172753401Y-53966747D01*
X172773107Y-53952132D01*
X172794150Y-53939520D01*
X172816329Y-53929030D01*
X172839428Y-53920765D01*
X172863227Y-53914804D01*
X172887495Y-53911204D01*
X172911999Y-53910000D01*
X173562001Y-53910000D01*
X173586505Y-53911204D01*
X173586505Y-53911204D01*
G37*
D14*
X173237000Y-54610000D03*
G04 #@! TD*
D13*
G04 #@! TO.C,R7*
G36*
X126959505Y-73596204D02*
X126983773Y-73599804D01*
X127007572Y-73605765D01*
X127030671Y-73614030D01*
X127052850Y-73624520D01*
X127073893Y-73637132D01*
X127093599Y-73651747D01*
X127111777Y-73668223D01*
X127128253Y-73686401D01*
X127142868Y-73706107D01*
X127155480Y-73727150D01*
X127165970Y-73749329D01*
X127174235Y-73772428D01*
X127180196Y-73796227D01*
X127183796Y-73820495D01*
X127185000Y-73844999D01*
X127185000Y-74745001D01*
X127183796Y-74769505D01*
X127180196Y-74793773D01*
X127174235Y-74817572D01*
X127165970Y-74840671D01*
X127155480Y-74862850D01*
X127142868Y-74883893D01*
X127128253Y-74903599D01*
X127111777Y-74921777D01*
X127093599Y-74938253D01*
X127073893Y-74952868D01*
X127052850Y-74965480D01*
X127030671Y-74975970D01*
X127007572Y-74984235D01*
X126983773Y-74990196D01*
X126959505Y-74993796D01*
X126935001Y-74995000D01*
X126284999Y-74995000D01*
X126260495Y-74993796D01*
X126236227Y-74990196D01*
X126212428Y-74984235D01*
X126189329Y-74975970D01*
X126167150Y-74965480D01*
X126146107Y-74952868D01*
X126126401Y-74938253D01*
X126108223Y-74921777D01*
X126091747Y-74903599D01*
X126077132Y-74883893D01*
X126064520Y-74862850D01*
X126054030Y-74840671D01*
X126045765Y-74817572D01*
X126039804Y-74793773D01*
X126036204Y-74769505D01*
X126035000Y-74745001D01*
X126035000Y-73844999D01*
X126036204Y-73820495D01*
X126039804Y-73796227D01*
X126045765Y-73772428D01*
X126054030Y-73749329D01*
X126064520Y-73727150D01*
X126077132Y-73706107D01*
X126091747Y-73686401D01*
X126108223Y-73668223D01*
X126126401Y-73651747D01*
X126146107Y-73637132D01*
X126167150Y-73624520D01*
X126189329Y-73614030D01*
X126212428Y-73605765D01*
X126236227Y-73599804D01*
X126260495Y-73596204D01*
X126284999Y-73595000D01*
X126935001Y-73595000D01*
X126959505Y-73596204D01*
X126959505Y-73596204D01*
G37*
D14*
X126610000Y-74295000D03*
D13*
G36*
X129009505Y-73596204D02*
X129033773Y-73599804D01*
X129057572Y-73605765D01*
X129080671Y-73614030D01*
X129102850Y-73624520D01*
X129123893Y-73637132D01*
X129143599Y-73651747D01*
X129161777Y-73668223D01*
X129178253Y-73686401D01*
X129192868Y-73706107D01*
X129205480Y-73727150D01*
X129215970Y-73749329D01*
X129224235Y-73772428D01*
X129230196Y-73796227D01*
X129233796Y-73820495D01*
X129235000Y-73844999D01*
X129235000Y-74745001D01*
X129233796Y-74769505D01*
X129230196Y-74793773D01*
X129224235Y-74817572D01*
X129215970Y-74840671D01*
X129205480Y-74862850D01*
X129192868Y-74883893D01*
X129178253Y-74903599D01*
X129161777Y-74921777D01*
X129143599Y-74938253D01*
X129123893Y-74952868D01*
X129102850Y-74965480D01*
X129080671Y-74975970D01*
X129057572Y-74984235D01*
X129033773Y-74990196D01*
X129009505Y-74993796D01*
X128985001Y-74995000D01*
X128334999Y-74995000D01*
X128310495Y-74993796D01*
X128286227Y-74990196D01*
X128262428Y-74984235D01*
X128239329Y-74975970D01*
X128217150Y-74965480D01*
X128196107Y-74952868D01*
X128176401Y-74938253D01*
X128158223Y-74921777D01*
X128141747Y-74903599D01*
X128127132Y-74883893D01*
X128114520Y-74862850D01*
X128104030Y-74840671D01*
X128095765Y-74817572D01*
X128089804Y-74793773D01*
X128086204Y-74769505D01*
X128085000Y-74745001D01*
X128085000Y-73844999D01*
X128086204Y-73820495D01*
X128089804Y-73796227D01*
X128095765Y-73772428D01*
X128104030Y-73749329D01*
X128114520Y-73727150D01*
X128127132Y-73706107D01*
X128141747Y-73686401D01*
X128158223Y-73668223D01*
X128176401Y-73651747D01*
X128196107Y-73637132D01*
X128217150Y-73624520D01*
X128239329Y-73614030D01*
X128262428Y-73605765D01*
X128286227Y-73599804D01*
X128310495Y-73596204D01*
X128334999Y-73595000D01*
X128985001Y-73595000D01*
X129009505Y-73596204D01*
X129009505Y-73596204D01*
G37*
D14*
X128660000Y-74295000D03*
G04 #@! TD*
D13*
G04 #@! TO.C,R8*
G36*
X129009505Y-75628204D02*
X129033773Y-75631804D01*
X129057572Y-75637765D01*
X129080671Y-75646030D01*
X129102850Y-75656520D01*
X129123893Y-75669132D01*
X129143599Y-75683747D01*
X129161777Y-75700223D01*
X129178253Y-75718401D01*
X129192868Y-75738107D01*
X129205480Y-75759150D01*
X129215970Y-75781329D01*
X129224235Y-75804428D01*
X129230196Y-75828227D01*
X129233796Y-75852495D01*
X129235000Y-75876999D01*
X129235000Y-76777001D01*
X129233796Y-76801505D01*
X129230196Y-76825773D01*
X129224235Y-76849572D01*
X129215970Y-76872671D01*
X129205480Y-76894850D01*
X129192868Y-76915893D01*
X129178253Y-76935599D01*
X129161777Y-76953777D01*
X129143599Y-76970253D01*
X129123893Y-76984868D01*
X129102850Y-76997480D01*
X129080671Y-77007970D01*
X129057572Y-77016235D01*
X129033773Y-77022196D01*
X129009505Y-77025796D01*
X128985001Y-77027000D01*
X128334999Y-77027000D01*
X128310495Y-77025796D01*
X128286227Y-77022196D01*
X128262428Y-77016235D01*
X128239329Y-77007970D01*
X128217150Y-76997480D01*
X128196107Y-76984868D01*
X128176401Y-76970253D01*
X128158223Y-76953777D01*
X128141747Y-76935599D01*
X128127132Y-76915893D01*
X128114520Y-76894850D01*
X128104030Y-76872671D01*
X128095765Y-76849572D01*
X128089804Y-76825773D01*
X128086204Y-76801505D01*
X128085000Y-76777001D01*
X128085000Y-75876999D01*
X128086204Y-75852495D01*
X128089804Y-75828227D01*
X128095765Y-75804428D01*
X128104030Y-75781329D01*
X128114520Y-75759150D01*
X128127132Y-75738107D01*
X128141747Y-75718401D01*
X128158223Y-75700223D01*
X128176401Y-75683747D01*
X128196107Y-75669132D01*
X128217150Y-75656520D01*
X128239329Y-75646030D01*
X128262428Y-75637765D01*
X128286227Y-75631804D01*
X128310495Y-75628204D01*
X128334999Y-75627000D01*
X128985001Y-75627000D01*
X129009505Y-75628204D01*
X129009505Y-75628204D01*
G37*
D14*
X128660000Y-76327000D03*
D13*
G36*
X126959505Y-75628204D02*
X126983773Y-75631804D01*
X127007572Y-75637765D01*
X127030671Y-75646030D01*
X127052850Y-75656520D01*
X127073893Y-75669132D01*
X127093599Y-75683747D01*
X127111777Y-75700223D01*
X127128253Y-75718401D01*
X127142868Y-75738107D01*
X127155480Y-75759150D01*
X127165970Y-75781329D01*
X127174235Y-75804428D01*
X127180196Y-75828227D01*
X127183796Y-75852495D01*
X127185000Y-75876999D01*
X127185000Y-76777001D01*
X127183796Y-76801505D01*
X127180196Y-76825773D01*
X127174235Y-76849572D01*
X127165970Y-76872671D01*
X127155480Y-76894850D01*
X127142868Y-76915893D01*
X127128253Y-76935599D01*
X127111777Y-76953777D01*
X127093599Y-76970253D01*
X127073893Y-76984868D01*
X127052850Y-76997480D01*
X127030671Y-77007970D01*
X127007572Y-77016235D01*
X126983773Y-77022196D01*
X126959505Y-77025796D01*
X126935001Y-77027000D01*
X126284999Y-77027000D01*
X126260495Y-77025796D01*
X126236227Y-77022196D01*
X126212428Y-77016235D01*
X126189329Y-77007970D01*
X126167150Y-76997480D01*
X126146107Y-76984868D01*
X126126401Y-76970253D01*
X126108223Y-76953777D01*
X126091747Y-76935599D01*
X126077132Y-76915893D01*
X126064520Y-76894850D01*
X126054030Y-76872671D01*
X126045765Y-76849572D01*
X126039804Y-76825773D01*
X126036204Y-76801505D01*
X126035000Y-76777001D01*
X126035000Y-75876999D01*
X126036204Y-75852495D01*
X126039804Y-75828227D01*
X126045765Y-75804428D01*
X126054030Y-75781329D01*
X126064520Y-75759150D01*
X126077132Y-75738107D01*
X126091747Y-75718401D01*
X126108223Y-75700223D01*
X126126401Y-75683747D01*
X126146107Y-75669132D01*
X126167150Y-75656520D01*
X126189329Y-75646030D01*
X126212428Y-75637765D01*
X126236227Y-75631804D01*
X126260495Y-75628204D01*
X126284999Y-75627000D01*
X126935001Y-75627000D01*
X126959505Y-75628204D01*
X126959505Y-75628204D01*
G37*
D14*
X126610000Y-76327000D03*
G04 #@! TD*
D13*
G04 #@! TO.C,R4*
G36*
X112869505Y-58236204D02*
X112893773Y-58239804D01*
X112917572Y-58245765D01*
X112940671Y-58254030D01*
X112962850Y-58264520D01*
X112983893Y-58277132D01*
X113003599Y-58291747D01*
X113021777Y-58308223D01*
X113038253Y-58326401D01*
X113052868Y-58346107D01*
X113065480Y-58367150D01*
X113075970Y-58389329D01*
X113084235Y-58412428D01*
X113090196Y-58436227D01*
X113093796Y-58460495D01*
X113095000Y-58484999D01*
X113095000Y-59135001D01*
X113093796Y-59159505D01*
X113090196Y-59183773D01*
X113084235Y-59207572D01*
X113075970Y-59230671D01*
X113065480Y-59252850D01*
X113052868Y-59273893D01*
X113038253Y-59293599D01*
X113021777Y-59311777D01*
X113003599Y-59328253D01*
X112983893Y-59342868D01*
X112962850Y-59355480D01*
X112940671Y-59365970D01*
X112917572Y-59374235D01*
X112893773Y-59380196D01*
X112869505Y-59383796D01*
X112845001Y-59385000D01*
X111944999Y-59385000D01*
X111920495Y-59383796D01*
X111896227Y-59380196D01*
X111872428Y-59374235D01*
X111849329Y-59365970D01*
X111827150Y-59355480D01*
X111806107Y-59342868D01*
X111786401Y-59328253D01*
X111768223Y-59311777D01*
X111751747Y-59293599D01*
X111737132Y-59273893D01*
X111724520Y-59252850D01*
X111714030Y-59230671D01*
X111705765Y-59207572D01*
X111699804Y-59183773D01*
X111696204Y-59159505D01*
X111695000Y-59135001D01*
X111695000Y-58484999D01*
X111696204Y-58460495D01*
X111699804Y-58436227D01*
X111705765Y-58412428D01*
X111714030Y-58389329D01*
X111724520Y-58367150D01*
X111737132Y-58346107D01*
X111751747Y-58326401D01*
X111768223Y-58308223D01*
X111786401Y-58291747D01*
X111806107Y-58277132D01*
X111827150Y-58264520D01*
X111849329Y-58254030D01*
X111872428Y-58245765D01*
X111896227Y-58239804D01*
X111920495Y-58236204D01*
X111944999Y-58235000D01*
X112845001Y-58235000D01*
X112869505Y-58236204D01*
X112869505Y-58236204D01*
G37*
D14*
X112395000Y-58810000D03*
D13*
G36*
X112869505Y-56186204D02*
X112893773Y-56189804D01*
X112917572Y-56195765D01*
X112940671Y-56204030D01*
X112962850Y-56214520D01*
X112983893Y-56227132D01*
X113003599Y-56241747D01*
X113021777Y-56258223D01*
X113038253Y-56276401D01*
X113052868Y-56296107D01*
X113065480Y-56317150D01*
X113075970Y-56339329D01*
X113084235Y-56362428D01*
X113090196Y-56386227D01*
X113093796Y-56410495D01*
X113095000Y-56434999D01*
X113095000Y-57085001D01*
X113093796Y-57109505D01*
X113090196Y-57133773D01*
X113084235Y-57157572D01*
X113075970Y-57180671D01*
X113065480Y-57202850D01*
X113052868Y-57223893D01*
X113038253Y-57243599D01*
X113021777Y-57261777D01*
X113003599Y-57278253D01*
X112983893Y-57292868D01*
X112962850Y-57305480D01*
X112940671Y-57315970D01*
X112917572Y-57324235D01*
X112893773Y-57330196D01*
X112869505Y-57333796D01*
X112845001Y-57335000D01*
X111944999Y-57335000D01*
X111920495Y-57333796D01*
X111896227Y-57330196D01*
X111872428Y-57324235D01*
X111849329Y-57315970D01*
X111827150Y-57305480D01*
X111806107Y-57292868D01*
X111786401Y-57278253D01*
X111768223Y-57261777D01*
X111751747Y-57243599D01*
X111737132Y-57223893D01*
X111724520Y-57202850D01*
X111714030Y-57180671D01*
X111705765Y-57157572D01*
X111699804Y-57133773D01*
X111696204Y-57109505D01*
X111695000Y-57085001D01*
X111695000Y-56434999D01*
X111696204Y-56410495D01*
X111699804Y-56386227D01*
X111705765Y-56362428D01*
X111714030Y-56339329D01*
X111724520Y-56317150D01*
X111737132Y-56296107D01*
X111751747Y-56276401D01*
X111768223Y-56258223D01*
X111786401Y-56241747D01*
X111806107Y-56227132D01*
X111827150Y-56214520D01*
X111849329Y-56204030D01*
X111872428Y-56195765D01*
X111896227Y-56189804D01*
X111920495Y-56186204D01*
X111944999Y-56185000D01*
X112845001Y-56185000D01*
X112869505Y-56186204D01*
X112869505Y-56186204D01*
G37*
D14*
X112395000Y-56760000D03*
G04 #@! TD*
D13*
G04 #@! TO.C,R3*
G36*
X115536505Y-56186204D02*
X115560773Y-56189804D01*
X115584572Y-56195765D01*
X115607671Y-56204030D01*
X115629850Y-56214520D01*
X115650893Y-56227132D01*
X115670599Y-56241747D01*
X115688777Y-56258223D01*
X115705253Y-56276401D01*
X115719868Y-56296107D01*
X115732480Y-56317150D01*
X115742970Y-56339329D01*
X115751235Y-56362428D01*
X115757196Y-56386227D01*
X115760796Y-56410495D01*
X115762000Y-56434999D01*
X115762000Y-57085001D01*
X115760796Y-57109505D01*
X115757196Y-57133773D01*
X115751235Y-57157572D01*
X115742970Y-57180671D01*
X115732480Y-57202850D01*
X115719868Y-57223893D01*
X115705253Y-57243599D01*
X115688777Y-57261777D01*
X115670599Y-57278253D01*
X115650893Y-57292868D01*
X115629850Y-57305480D01*
X115607671Y-57315970D01*
X115584572Y-57324235D01*
X115560773Y-57330196D01*
X115536505Y-57333796D01*
X115512001Y-57335000D01*
X114611999Y-57335000D01*
X114587495Y-57333796D01*
X114563227Y-57330196D01*
X114539428Y-57324235D01*
X114516329Y-57315970D01*
X114494150Y-57305480D01*
X114473107Y-57292868D01*
X114453401Y-57278253D01*
X114435223Y-57261777D01*
X114418747Y-57243599D01*
X114404132Y-57223893D01*
X114391520Y-57202850D01*
X114381030Y-57180671D01*
X114372765Y-57157572D01*
X114366804Y-57133773D01*
X114363204Y-57109505D01*
X114362000Y-57085001D01*
X114362000Y-56434999D01*
X114363204Y-56410495D01*
X114366804Y-56386227D01*
X114372765Y-56362428D01*
X114381030Y-56339329D01*
X114391520Y-56317150D01*
X114404132Y-56296107D01*
X114418747Y-56276401D01*
X114435223Y-56258223D01*
X114453401Y-56241747D01*
X114473107Y-56227132D01*
X114494150Y-56214520D01*
X114516329Y-56204030D01*
X114539428Y-56195765D01*
X114563227Y-56189804D01*
X114587495Y-56186204D01*
X114611999Y-56185000D01*
X115512001Y-56185000D01*
X115536505Y-56186204D01*
X115536505Y-56186204D01*
G37*
D14*
X115062000Y-56760000D03*
D13*
G36*
X115536505Y-58236204D02*
X115560773Y-58239804D01*
X115584572Y-58245765D01*
X115607671Y-58254030D01*
X115629850Y-58264520D01*
X115650893Y-58277132D01*
X115670599Y-58291747D01*
X115688777Y-58308223D01*
X115705253Y-58326401D01*
X115719868Y-58346107D01*
X115732480Y-58367150D01*
X115742970Y-58389329D01*
X115751235Y-58412428D01*
X115757196Y-58436227D01*
X115760796Y-58460495D01*
X115762000Y-58484999D01*
X115762000Y-59135001D01*
X115760796Y-59159505D01*
X115757196Y-59183773D01*
X115751235Y-59207572D01*
X115742970Y-59230671D01*
X115732480Y-59252850D01*
X115719868Y-59273893D01*
X115705253Y-59293599D01*
X115688777Y-59311777D01*
X115670599Y-59328253D01*
X115650893Y-59342868D01*
X115629850Y-59355480D01*
X115607671Y-59365970D01*
X115584572Y-59374235D01*
X115560773Y-59380196D01*
X115536505Y-59383796D01*
X115512001Y-59385000D01*
X114611999Y-59385000D01*
X114587495Y-59383796D01*
X114563227Y-59380196D01*
X114539428Y-59374235D01*
X114516329Y-59365970D01*
X114494150Y-59355480D01*
X114473107Y-59342868D01*
X114453401Y-59328253D01*
X114435223Y-59311777D01*
X114418747Y-59293599D01*
X114404132Y-59273893D01*
X114391520Y-59252850D01*
X114381030Y-59230671D01*
X114372765Y-59207572D01*
X114366804Y-59183773D01*
X114363204Y-59159505D01*
X114362000Y-59135001D01*
X114362000Y-58484999D01*
X114363204Y-58460495D01*
X114366804Y-58436227D01*
X114372765Y-58412428D01*
X114381030Y-58389329D01*
X114391520Y-58367150D01*
X114404132Y-58346107D01*
X114418747Y-58326401D01*
X114435223Y-58308223D01*
X114453401Y-58291747D01*
X114473107Y-58277132D01*
X114494150Y-58264520D01*
X114516329Y-58254030D01*
X114539428Y-58245765D01*
X114563227Y-58239804D01*
X114587495Y-58236204D01*
X114611999Y-58235000D01*
X115512001Y-58235000D01*
X115536505Y-58236204D01*
X115536505Y-58236204D01*
G37*
D14*
X115062000Y-58810000D03*
G04 #@! TD*
D13*
G04 #@! TO.C,R2*
G36*
X124426505Y-58236204D02*
X124450773Y-58239804D01*
X124474572Y-58245765D01*
X124497671Y-58254030D01*
X124519850Y-58264520D01*
X124540893Y-58277132D01*
X124560599Y-58291747D01*
X124578777Y-58308223D01*
X124595253Y-58326401D01*
X124609868Y-58346107D01*
X124622480Y-58367150D01*
X124632970Y-58389329D01*
X124641235Y-58412428D01*
X124647196Y-58436227D01*
X124650796Y-58460495D01*
X124652000Y-58484999D01*
X124652000Y-59135001D01*
X124650796Y-59159505D01*
X124647196Y-59183773D01*
X124641235Y-59207572D01*
X124632970Y-59230671D01*
X124622480Y-59252850D01*
X124609868Y-59273893D01*
X124595253Y-59293599D01*
X124578777Y-59311777D01*
X124560599Y-59328253D01*
X124540893Y-59342868D01*
X124519850Y-59355480D01*
X124497671Y-59365970D01*
X124474572Y-59374235D01*
X124450773Y-59380196D01*
X124426505Y-59383796D01*
X124402001Y-59385000D01*
X123501999Y-59385000D01*
X123477495Y-59383796D01*
X123453227Y-59380196D01*
X123429428Y-59374235D01*
X123406329Y-59365970D01*
X123384150Y-59355480D01*
X123363107Y-59342868D01*
X123343401Y-59328253D01*
X123325223Y-59311777D01*
X123308747Y-59293599D01*
X123294132Y-59273893D01*
X123281520Y-59252850D01*
X123271030Y-59230671D01*
X123262765Y-59207572D01*
X123256804Y-59183773D01*
X123253204Y-59159505D01*
X123252000Y-59135001D01*
X123252000Y-58484999D01*
X123253204Y-58460495D01*
X123256804Y-58436227D01*
X123262765Y-58412428D01*
X123271030Y-58389329D01*
X123281520Y-58367150D01*
X123294132Y-58346107D01*
X123308747Y-58326401D01*
X123325223Y-58308223D01*
X123343401Y-58291747D01*
X123363107Y-58277132D01*
X123384150Y-58264520D01*
X123406329Y-58254030D01*
X123429428Y-58245765D01*
X123453227Y-58239804D01*
X123477495Y-58236204D01*
X123501999Y-58235000D01*
X124402001Y-58235000D01*
X124426505Y-58236204D01*
X124426505Y-58236204D01*
G37*
D14*
X123952000Y-58810000D03*
D13*
G36*
X124426505Y-56186204D02*
X124450773Y-56189804D01*
X124474572Y-56195765D01*
X124497671Y-56204030D01*
X124519850Y-56214520D01*
X124540893Y-56227132D01*
X124560599Y-56241747D01*
X124578777Y-56258223D01*
X124595253Y-56276401D01*
X124609868Y-56296107D01*
X124622480Y-56317150D01*
X124632970Y-56339329D01*
X124641235Y-56362428D01*
X124647196Y-56386227D01*
X124650796Y-56410495D01*
X124652000Y-56434999D01*
X124652000Y-57085001D01*
X124650796Y-57109505D01*
X124647196Y-57133773D01*
X124641235Y-57157572D01*
X124632970Y-57180671D01*
X124622480Y-57202850D01*
X124609868Y-57223893D01*
X124595253Y-57243599D01*
X124578777Y-57261777D01*
X124560599Y-57278253D01*
X124540893Y-57292868D01*
X124519850Y-57305480D01*
X124497671Y-57315970D01*
X124474572Y-57324235D01*
X124450773Y-57330196D01*
X124426505Y-57333796D01*
X124402001Y-57335000D01*
X123501999Y-57335000D01*
X123477495Y-57333796D01*
X123453227Y-57330196D01*
X123429428Y-57324235D01*
X123406329Y-57315970D01*
X123384150Y-57305480D01*
X123363107Y-57292868D01*
X123343401Y-57278253D01*
X123325223Y-57261777D01*
X123308747Y-57243599D01*
X123294132Y-57223893D01*
X123281520Y-57202850D01*
X123271030Y-57180671D01*
X123262765Y-57157572D01*
X123256804Y-57133773D01*
X123253204Y-57109505D01*
X123252000Y-57085001D01*
X123252000Y-56434999D01*
X123253204Y-56410495D01*
X123256804Y-56386227D01*
X123262765Y-56362428D01*
X123271030Y-56339329D01*
X123281520Y-56317150D01*
X123294132Y-56296107D01*
X123308747Y-56276401D01*
X123325223Y-56258223D01*
X123343401Y-56241747D01*
X123363107Y-56227132D01*
X123384150Y-56214520D01*
X123406329Y-56204030D01*
X123429428Y-56195765D01*
X123453227Y-56189804D01*
X123477495Y-56186204D01*
X123501999Y-56185000D01*
X124402001Y-56185000D01*
X124426505Y-56186204D01*
X124426505Y-56186204D01*
G37*
D14*
X123952000Y-56760000D03*
G04 #@! TD*
D13*
G04 #@! TO.C,R9*
G36*
X127220505Y-67997204D02*
X127244773Y-68000804D01*
X127268572Y-68006765D01*
X127291671Y-68015030D01*
X127313850Y-68025520D01*
X127334893Y-68038132D01*
X127354599Y-68052747D01*
X127372777Y-68069223D01*
X127389253Y-68087401D01*
X127403868Y-68107107D01*
X127416480Y-68128150D01*
X127426970Y-68150329D01*
X127435235Y-68173428D01*
X127441196Y-68197227D01*
X127444796Y-68221495D01*
X127446000Y-68245999D01*
X127446000Y-68896001D01*
X127444796Y-68920505D01*
X127441196Y-68944773D01*
X127435235Y-68968572D01*
X127426970Y-68991671D01*
X127416480Y-69013850D01*
X127403868Y-69034893D01*
X127389253Y-69054599D01*
X127372777Y-69072777D01*
X127354599Y-69089253D01*
X127334893Y-69103868D01*
X127313850Y-69116480D01*
X127291671Y-69126970D01*
X127268572Y-69135235D01*
X127244773Y-69141196D01*
X127220505Y-69144796D01*
X127196001Y-69146000D01*
X126295999Y-69146000D01*
X126271495Y-69144796D01*
X126247227Y-69141196D01*
X126223428Y-69135235D01*
X126200329Y-69126970D01*
X126178150Y-69116480D01*
X126157107Y-69103868D01*
X126137401Y-69089253D01*
X126119223Y-69072777D01*
X126102747Y-69054599D01*
X126088132Y-69034893D01*
X126075520Y-69013850D01*
X126065030Y-68991671D01*
X126056765Y-68968572D01*
X126050804Y-68944773D01*
X126047204Y-68920505D01*
X126046000Y-68896001D01*
X126046000Y-68245999D01*
X126047204Y-68221495D01*
X126050804Y-68197227D01*
X126056765Y-68173428D01*
X126065030Y-68150329D01*
X126075520Y-68128150D01*
X126088132Y-68107107D01*
X126102747Y-68087401D01*
X126119223Y-68069223D01*
X126137401Y-68052747D01*
X126157107Y-68038132D01*
X126178150Y-68025520D01*
X126200329Y-68015030D01*
X126223428Y-68006765D01*
X126247227Y-68000804D01*
X126271495Y-67997204D01*
X126295999Y-67996000D01*
X127196001Y-67996000D01*
X127220505Y-67997204D01*
X127220505Y-67997204D01*
G37*
D14*
X126746000Y-68571000D03*
D13*
G36*
X127220505Y-70047204D02*
X127244773Y-70050804D01*
X127268572Y-70056765D01*
X127291671Y-70065030D01*
X127313850Y-70075520D01*
X127334893Y-70088132D01*
X127354599Y-70102747D01*
X127372777Y-70119223D01*
X127389253Y-70137401D01*
X127403868Y-70157107D01*
X127416480Y-70178150D01*
X127426970Y-70200329D01*
X127435235Y-70223428D01*
X127441196Y-70247227D01*
X127444796Y-70271495D01*
X127446000Y-70295999D01*
X127446000Y-70946001D01*
X127444796Y-70970505D01*
X127441196Y-70994773D01*
X127435235Y-71018572D01*
X127426970Y-71041671D01*
X127416480Y-71063850D01*
X127403868Y-71084893D01*
X127389253Y-71104599D01*
X127372777Y-71122777D01*
X127354599Y-71139253D01*
X127334893Y-71153868D01*
X127313850Y-71166480D01*
X127291671Y-71176970D01*
X127268572Y-71185235D01*
X127244773Y-71191196D01*
X127220505Y-71194796D01*
X127196001Y-71196000D01*
X126295999Y-71196000D01*
X126271495Y-71194796D01*
X126247227Y-71191196D01*
X126223428Y-71185235D01*
X126200329Y-71176970D01*
X126178150Y-71166480D01*
X126157107Y-71153868D01*
X126137401Y-71139253D01*
X126119223Y-71122777D01*
X126102747Y-71104599D01*
X126088132Y-71084893D01*
X126075520Y-71063850D01*
X126065030Y-71041671D01*
X126056765Y-71018572D01*
X126050804Y-70994773D01*
X126047204Y-70970505D01*
X126046000Y-70946001D01*
X126046000Y-70295999D01*
X126047204Y-70271495D01*
X126050804Y-70247227D01*
X126056765Y-70223428D01*
X126065030Y-70200329D01*
X126075520Y-70178150D01*
X126088132Y-70157107D01*
X126102747Y-70137401D01*
X126119223Y-70119223D01*
X126137401Y-70102747D01*
X126157107Y-70088132D01*
X126178150Y-70075520D01*
X126200329Y-70065030D01*
X126223428Y-70056765D01*
X126247227Y-70050804D01*
X126271495Y-70047204D01*
X126295999Y-70046000D01*
X127196001Y-70046000D01*
X127220505Y-70047204D01*
X127220505Y-70047204D01*
G37*
D14*
X126746000Y-70621000D03*
G04 #@! TD*
D13*
G04 #@! TO.C,R1*
G36*
X120616505Y-58236204D02*
X120640773Y-58239804D01*
X120664572Y-58245765D01*
X120687671Y-58254030D01*
X120709850Y-58264520D01*
X120730893Y-58277132D01*
X120750599Y-58291747D01*
X120768777Y-58308223D01*
X120785253Y-58326401D01*
X120799868Y-58346107D01*
X120812480Y-58367150D01*
X120822970Y-58389329D01*
X120831235Y-58412428D01*
X120837196Y-58436227D01*
X120840796Y-58460495D01*
X120842000Y-58484999D01*
X120842000Y-59135001D01*
X120840796Y-59159505D01*
X120837196Y-59183773D01*
X120831235Y-59207572D01*
X120822970Y-59230671D01*
X120812480Y-59252850D01*
X120799868Y-59273893D01*
X120785253Y-59293599D01*
X120768777Y-59311777D01*
X120750599Y-59328253D01*
X120730893Y-59342868D01*
X120709850Y-59355480D01*
X120687671Y-59365970D01*
X120664572Y-59374235D01*
X120640773Y-59380196D01*
X120616505Y-59383796D01*
X120592001Y-59385000D01*
X119691999Y-59385000D01*
X119667495Y-59383796D01*
X119643227Y-59380196D01*
X119619428Y-59374235D01*
X119596329Y-59365970D01*
X119574150Y-59355480D01*
X119553107Y-59342868D01*
X119533401Y-59328253D01*
X119515223Y-59311777D01*
X119498747Y-59293599D01*
X119484132Y-59273893D01*
X119471520Y-59252850D01*
X119461030Y-59230671D01*
X119452765Y-59207572D01*
X119446804Y-59183773D01*
X119443204Y-59159505D01*
X119442000Y-59135001D01*
X119442000Y-58484999D01*
X119443204Y-58460495D01*
X119446804Y-58436227D01*
X119452765Y-58412428D01*
X119461030Y-58389329D01*
X119471520Y-58367150D01*
X119484132Y-58346107D01*
X119498747Y-58326401D01*
X119515223Y-58308223D01*
X119533401Y-58291747D01*
X119553107Y-58277132D01*
X119574150Y-58264520D01*
X119596329Y-58254030D01*
X119619428Y-58245765D01*
X119643227Y-58239804D01*
X119667495Y-58236204D01*
X119691999Y-58235000D01*
X120592001Y-58235000D01*
X120616505Y-58236204D01*
X120616505Y-58236204D01*
G37*
D14*
X120142000Y-58810000D03*
D13*
G36*
X120616505Y-56186204D02*
X120640773Y-56189804D01*
X120664572Y-56195765D01*
X120687671Y-56204030D01*
X120709850Y-56214520D01*
X120730893Y-56227132D01*
X120750599Y-56241747D01*
X120768777Y-56258223D01*
X120785253Y-56276401D01*
X120799868Y-56296107D01*
X120812480Y-56317150D01*
X120822970Y-56339329D01*
X120831235Y-56362428D01*
X120837196Y-56386227D01*
X120840796Y-56410495D01*
X120842000Y-56434999D01*
X120842000Y-57085001D01*
X120840796Y-57109505D01*
X120837196Y-57133773D01*
X120831235Y-57157572D01*
X120822970Y-57180671D01*
X120812480Y-57202850D01*
X120799868Y-57223893D01*
X120785253Y-57243599D01*
X120768777Y-57261777D01*
X120750599Y-57278253D01*
X120730893Y-57292868D01*
X120709850Y-57305480D01*
X120687671Y-57315970D01*
X120664572Y-57324235D01*
X120640773Y-57330196D01*
X120616505Y-57333796D01*
X120592001Y-57335000D01*
X119691999Y-57335000D01*
X119667495Y-57333796D01*
X119643227Y-57330196D01*
X119619428Y-57324235D01*
X119596329Y-57315970D01*
X119574150Y-57305480D01*
X119553107Y-57292868D01*
X119533401Y-57278253D01*
X119515223Y-57261777D01*
X119498747Y-57243599D01*
X119484132Y-57223893D01*
X119471520Y-57202850D01*
X119461030Y-57180671D01*
X119452765Y-57157572D01*
X119446804Y-57133773D01*
X119443204Y-57109505D01*
X119442000Y-57085001D01*
X119442000Y-56434999D01*
X119443204Y-56410495D01*
X119446804Y-56386227D01*
X119452765Y-56362428D01*
X119461030Y-56339329D01*
X119471520Y-56317150D01*
X119484132Y-56296107D01*
X119498747Y-56276401D01*
X119515223Y-56258223D01*
X119533401Y-56241747D01*
X119553107Y-56227132D01*
X119574150Y-56214520D01*
X119596329Y-56204030D01*
X119619428Y-56195765D01*
X119643227Y-56189804D01*
X119667495Y-56186204D01*
X119691999Y-56185000D01*
X120592001Y-56185000D01*
X120616505Y-56186204D01*
X120616505Y-56186204D01*
G37*
D14*
X120142000Y-56760000D03*
G04 #@! TD*
D13*
G04 #@! TO.C,R12*
G36*
X127220505Y-63171204D02*
X127244773Y-63174804D01*
X127268572Y-63180765D01*
X127291671Y-63189030D01*
X127313850Y-63199520D01*
X127334893Y-63212132D01*
X127354599Y-63226747D01*
X127372777Y-63243223D01*
X127389253Y-63261401D01*
X127403868Y-63281107D01*
X127416480Y-63302150D01*
X127426970Y-63324329D01*
X127435235Y-63347428D01*
X127441196Y-63371227D01*
X127444796Y-63395495D01*
X127446000Y-63419999D01*
X127446000Y-64070001D01*
X127444796Y-64094505D01*
X127441196Y-64118773D01*
X127435235Y-64142572D01*
X127426970Y-64165671D01*
X127416480Y-64187850D01*
X127403868Y-64208893D01*
X127389253Y-64228599D01*
X127372777Y-64246777D01*
X127354599Y-64263253D01*
X127334893Y-64277868D01*
X127313850Y-64290480D01*
X127291671Y-64300970D01*
X127268572Y-64309235D01*
X127244773Y-64315196D01*
X127220505Y-64318796D01*
X127196001Y-64320000D01*
X126295999Y-64320000D01*
X126271495Y-64318796D01*
X126247227Y-64315196D01*
X126223428Y-64309235D01*
X126200329Y-64300970D01*
X126178150Y-64290480D01*
X126157107Y-64277868D01*
X126137401Y-64263253D01*
X126119223Y-64246777D01*
X126102747Y-64228599D01*
X126088132Y-64208893D01*
X126075520Y-64187850D01*
X126065030Y-64165671D01*
X126056765Y-64142572D01*
X126050804Y-64118773D01*
X126047204Y-64094505D01*
X126046000Y-64070001D01*
X126046000Y-63419999D01*
X126047204Y-63395495D01*
X126050804Y-63371227D01*
X126056765Y-63347428D01*
X126065030Y-63324329D01*
X126075520Y-63302150D01*
X126088132Y-63281107D01*
X126102747Y-63261401D01*
X126119223Y-63243223D01*
X126137401Y-63226747D01*
X126157107Y-63212132D01*
X126178150Y-63199520D01*
X126200329Y-63189030D01*
X126223428Y-63180765D01*
X126247227Y-63174804D01*
X126271495Y-63171204D01*
X126295999Y-63170000D01*
X127196001Y-63170000D01*
X127220505Y-63171204D01*
X127220505Y-63171204D01*
G37*
D14*
X126746000Y-63745000D03*
D13*
G36*
X127220505Y-65221204D02*
X127244773Y-65224804D01*
X127268572Y-65230765D01*
X127291671Y-65239030D01*
X127313850Y-65249520D01*
X127334893Y-65262132D01*
X127354599Y-65276747D01*
X127372777Y-65293223D01*
X127389253Y-65311401D01*
X127403868Y-65331107D01*
X127416480Y-65352150D01*
X127426970Y-65374329D01*
X127435235Y-65397428D01*
X127441196Y-65421227D01*
X127444796Y-65445495D01*
X127446000Y-65469999D01*
X127446000Y-66120001D01*
X127444796Y-66144505D01*
X127441196Y-66168773D01*
X127435235Y-66192572D01*
X127426970Y-66215671D01*
X127416480Y-66237850D01*
X127403868Y-66258893D01*
X127389253Y-66278599D01*
X127372777Y-66296777D01*
X127354599Y-66313253D01*
X127334893Y-66327868D01*
X127313850Y-66340480D01*
X127291671Y-66350970D01*
X127268572Y-66359235D01*
X127244773Y-66365196D01*
X127220505Y-66368796D01*
X127196001Y-66370000D01*
X126295999Y-66370000D01*
X126271495Y-66368796D01*
X126247227Y-66365196D01*
X126223428Y-66359235D01*
X126200329Y-66350970D01*
X126178150Y-66340480D01*
X126157107Y-66327868D01*
X126137401Y-66313253D01*
X126119223Y-66296777D01*
X126102747Y-66278599D01*
X126088132Y-66258893D01*
X126075520Y-66237850D01*
X126065030Y-66215671D01*
X126056765Y-66192572D01*
X126050804Y-66168773D01*
X126047204Y-66144505D01*
X126046000Y-66120001D01*
X126046000Y-65469999D01*
X126047204Y-65445495D01*
X126050804Y-65421227D01*
X126056765Y-65397428D01*
X126065030Y-65374329D01*
X126075520Y-65352150D01*
X126088132Y-65331107D01*
X126102747Y-65311401D01*
X126119223Y-65293223D01*
X126137401Y-65276747D01*
X126157107Y-65262132D01*
X126178150Y-65249520D01*
X126200329Y-65239030D01*
X126223428Y-65230765D01*
X126247227Y-65224804D01*
X126271495Y-65221204D01*
X126295999Y-65220000D01*
X127196001Y-65220000D01*
X127220505Y-65221204D01*
X127220505Y-65221204D01*
G37*
D14*
X126746000Y-65795000D03*
G04 #@! TD*
D13*
G04 #@! TO.C,R11*
G36*
X124426505Y-64459204D02*
X124450773Y-64462804D01*
X124474572Y-64468765D01*
X124497671Y-64477030D01*
X124519850Y-64487520D01*
X124540893Y-64500132D01*
X124560599Y-64514747D01*
X124578777Y-64531223D01*
X124595253Y-64549401D01*
X124609868Y-64569107D01*
X124622480Y-64590150D01*
X124632970Y-64612329D01*
X124641235Y-64635428D01*
X124647196Y-64659227D01*
X124650796Y-64683495D01*
X124652000Y-64707999D01*
X124652000Y-65358001D01*
X124650796Y-65382505D01*
X124647196Y-65406773D01*
X124641235Y-65430572D01*
X124632970Y-65453671D01*
X124622480Y-65475850D01*
X124609868Y-65496893D01*
X124595253Y-65516599D01*
X124578777Y-65534777D01*
X124560599Y-65551253D01*
X124540893Y-65565868D01*
X124519850Y-65578480D01*
X124497671Y-65588970D01*
X124474572Y-65597235D01*
X124450773Y-65603196D01*
X124426505Y-65606796D01*
X124402001Y-65608000D01*
X123501999Y-65608000D01*
X123477495Y-65606796D01*
X123453227Y-65603196D01*
X123429428Y-65597235D01*
X123406329Y-65588970D01*
X123384150Y-65578480D01*
X123363107Y-65565868D01*
X123343401Y-65551253D01*
X123325223Y-65534777D01*
X123308747Y-65516599D01*
X123294132Y-65496893D01*
X123281520Y-65475850D01*
X123271030Y-65453671D01*
X123262765Y-65430572D01*
X123256804Y-65406773D01*
X123253204Y-65382505D01*
X123252000Y-65358001D01*
X123252000Y-64707999D01*
X123253204Y-64683495D01*
X123256804Y-64659227D01*
X123262765Y-64635428D01*
X123271030Y-64612329D01*
X123281520Y-64590150D01*
X123294132Y-64569107D01*
X123308747Y-64549401D01*
X123325223Y-64531223D01*
X123343401Y-64514747D01*
X123363107Y-64500132D01*
X123384150Y-64487520D01*
X123406329Y-64477030D01*
X123429428Y-64468765D01*
X123453227Y-64462804D01*
X123477495Y-64459204D01*
X123501999Y-64458000D01*
X124402001Y-64458000D01*
X124426505Y-64459204D01*
X124426505Y-64459204D01*
G37*
D14*
X123952000Y-65033000D03*
D13*
G36*
X124426505Y-62409204D02*
X124450773Y-62412804D01*
X124474572Y-62418765D01*
X124497671Y-62427030D01*
X124519850Y-62437520D01*
X124540893Y-62450132D01*
X124560599Y-62464747D01*
X124578777Y-62481223D01*
X124595253Y-62499401D01*
X124609868Y-62519107D01*
X124622480Y-62540150D01*
X124632970Y-62562329D01*
X124641235Y-62585428D01*
X124647196Y-62609227D01*
X124650796Y-62633495D01*
X124652000Y-62657999D01*
X124652000Y-63308001D01*
X124650796Y-63332505D01*
X124647196Y-63356773D01*
X124641235Y-63380572D01*
X124632970Y-63403671D01*
X124622480Y-63425850D01*
X124609868Y-63446893D01*
X124595253Y-63466599D01*
X124578777Y-63484777D01*
X124560599Y-63501253D01*
X124540893Y-63515868D01*
X124519850Y-63528480D01*
X124497671Y-63538970D01*
X124474572Y-63547235D01*
X124450773Y-63553196D01*
X124426505Y-63556796D01*
X124402001Y-63558000D01*
X123501999Y-63558000D01*
X123477495Y-63556796D01*
X123453227Y-63553196D01*
X123429428Y-63547235D01*
X123406329Y-63538970D01*
X123384150Y-63528480D01*
X123363107Y-63515868D01*
X123343401Y-63501253D01*
X123325223Y-63484777D01*
X123308747Y-63466599D01*
X123294132Y-63446893D01*
X123281520Y-63425850D01*
X123271030Y-63403671D01*
X123262765Y-63380572D01*
X123256804Y-63356773D01*
X123253204Y-63332505D01*
X123252000Y-63308001D01*
X123252000Y-62657999D01*
X123253204Y-62633495D01*
X123256804Y-62609227D01*
X123262765Y-62585428D01*
X123271030Y-62562329D01*
X123281520Y-62540150D01*
X123294132Y-62519107D01*
X123308747Y-62499401D01*
X123325223Y-62481223D01*
X123343401Y-62464747D01*
X123363107Y-62450132D01*
X123384150Y-62437520D01*
X123406329Y-62427030D01*
X123429428Y-62418765D01*
X123453227Y-62412804D01*
X123477495Y-62409204D01*
X123501999Y-62408000D01*
X124402001Y-62408000D01*
X124426505Y-62409204D01*
X124426505Y-62409204D01*
G37*
D14*
X123952000Y-62983000D03*
G04 #@! TD*
D13*
G04 #@! TO.C,R5*
G36*
X169522505Y-53911204D02*
X169546773Y-53914804D01*
X169570572Y-53920765D01*
X169593671Y-53929030D01*
X169615850Y-53939520D01*
X169636893Y-53952132D01*
X169656599Y-53966747D01*
X169674777Y-53983223D01*
X169691253Y-54001401D01*
X169705868Y-54021107D01*
X169718480Y-54042150D01*
X169728970Y-54064329D01*
X169737235Y-54087428D01*
X169743196Y-54111227D01*
X169746796Y-54135495D01*
X169748000Y-54159999D01*
X169748000Y-55060001D01*
X169746796Y-55084505D01*
X169743196Y-55108773D01*
X169737235Y-55132572D01*
X169728970Y-55155671D01*
X169718480Y-55177850D01*
X169705868Y-55198893D01*
X169691253Y-55218599D01*
X169674777Y-55236777D01*
X169656599Y-55253253D01*
X169636893Y-55267868D01*
X169615850Y-55280480D01*
X169593671Y-55290970D01*
X169570572Y-55299235D01*
X169546773Y-55305196D01*
X169522505Y-55308796D01*
X169498001Y-55310000D01*
X168847999Y-55310000D01*
X168823495Y-55308796D01*
X168799227Y-55305196D01*
X168775428Y-55299235D01*
X168752329Y-55290970D01*
X168730150Y-55280480D01*
X168709107Y-55267868D01*
X168689401Y-55253253D01*
X168671223Y-55236777D01*
X168654747Y-55218599D01*
X168640132Y-55198893D01*
X168627520Y-55177850D01*
X168617030Y-55155671D01*
X168608765Y-55132572D01*
X168602804Y-55108773D01*
X168599204Y-55084505D01*
X168598000Y-55060001D01*
X168598000Y-54159999D01*
X168599204Y-54135495D01*
X168602804Y-54111227D01*
X168608765Y-54087428D01*
X168617030Y-54064329D01*
X168627520Y-54042150D01*
X168640132Y-54021107D01*
X168654747Y-54001401D01*
X168671223Y-53983223D01*
X168689401Y-53966747D01*
X168709107Y-53952132D01*
X168730150Y-53939520D01*
X168752329Y-53929030D01*
X168775428Y-53920765D01*
X168799227Y-53914804D01*
X168823495Y-53911204D01*
X168847999Y-53910000D01*
X169498001Y-53910000D01*
X169522505Y-53911204D01*
X169522505Y-53911204D01*
G37*
D14*
X169173000Y-54610000D03*
D13*
G36*
X167472505Y-53911204D02*
X167496773Y-53914804D01*
X167520572Y-53920765D01*
X167543671Y-53929030D01*
X167565850Y-53939520D01*
X167586893Y-53952132D01*
X167606599Y-53966747D01*
X167624777Y-53983223D01*
X167641253Y-54001401D01*
X167655868Y-54021107D01*
X167668480Y-54042150D01*
X167678970Y-54064329D01*
X167687235Y-54087428D01*
X167693196Y-54111227D01*
X167696796Y-54135495D01*
X167698000Y-54159999D01*
X167698000Y-55060001D01*
X167696796Y-55084505D01*
X167693196Y-55108773D01*
X167687235Y-55132572D01*
X167678970Y-55155671D01*
X167668480Y-55177850D01*
X167655868Y-55198893D01*
X167641253Y-55218599D01*
X167624777Y-55236777D01*
X167606599Y-55253253D01*
X167586893Y-55267868D01*
X167565850Y-55280480D01*
X167543671Y-55290970D01*
X167520572Y-55299235D01*
X167496773Y-55305196D01*
X167472505Y-55308796D01*
X167448001Y-55310000D01*
X166797999Y-55310000D01*
X166773495Y-55308796D01*
X166749227Y-55305196D01*
X166725428Y-55299235D01*
X166702329Y-55290970D01*
X166680150Y-55280480D01*
X166659107Y-55267868D01*
X166639401Y-55253253D01*
X166621223Y-55236777D01*
X166604747Y-55218599D01*
X166590132Y-55198893D01*
X166577520Y-55177850D01*
X166567030Y-55155671D01*
X166558765Y-55132572D01*
X166552804Y-55108773D01*
X166549204Y-55084505D01*
X166548000Y-55060001D01*
X166548000Y-54159999D01*
X166549204Y-54135495D01*
X166552804Y-54111227D01*
X166558765Y-54087428D01*
X166567030Y-54064329D01*
X166577520Y-54042150D01*
X166590132Y-54021107D01*
X166604747Y-54001401D01*
X166621223Y-53983223D01*
X166639401Y-53966747D01*
X166659107Y-53952132D01*
X166680150Y-53939520D01*
X166702329Y-53929030D01*
X166725428Y-53920765D01*
X166749227Y-53914804D01*
X166773495Y-53911204D01*
X166797999Y-53910000D01*
X167448001Y-53910000D01*
X167472505Y-53911204D01*
X167472505Y-53911204D01*
G37*
D14*
X167123000Y-54610000D03*
G04 #@! TD*
M02*
