G04 #@! TF.GenerationSoftware,KiCad,Pcbnew,5.1.5-52549c5~84~ubuntu18.04.1*
G04 #@! TF.CreationDate,2020-01-10T07:44:24+01:00*
G04 #@! TF.ProjectId,E32CB_R2,45333243-425f-4523-922e-6b696361645f,rev?*
G04 #@! TF.SameCoordinates,Original*
G04 #@! TF.FileFunction,Paste,Top*
G04 #@! TF.FilePolarity,Positive*
%FSLAX46Y46*%
G04 Gerber Fmt 4.6, Leading zero omitted, Abs format (unit mm)*
G04 Created by KiCad (PCBNEW 5.1.5-52549c5~84~ubuntu18.04.1) date 2020-01-10 07:44:24*
%MOMM*%
%LPD*%
G04 APERTURE LIST*
%ADD10R,3.050000X2.750000*%
%ADD11R,2.200000X1.200000*%
G04 APERTURE END LIST*
D10*
X192230000Y-109730000D03*
X195580000Y-106680000D03*
X192230000Y-106680000D03*
X195580000Y-109730000D03*
D11*
X187605000Y-110485000D03*
X187605000Y-105925000D03*
D10*
X179530000Y-109730000D03*
X182880000Y-106680000D03*
X179530000Y-106680000D03*
X182880000Y-109730000D03*
D11*
X174905000Y-110485000D03*
X174905000Y-105925000D03*
D10*
X166830000Y-109730000D03*
X170180000Y-106680000D03*
X166830000Y-106680000D03*
X170180000Y-109730000D03*
D11*
X162205000Y-110485000D03*
X162205000Y-105925000D03*
D10*
X154130000Y-109730000D03*
X157480000Y-106680000D03*
X154130000Y-106680000D03*
X157480000Y-109730000D03*
D11*
X149505000Y-110485000D03*
X149505000Y-105925000D03*
D10*
X141430000Y-109730000D03*
X144780000Y-106680000D03*
X141430000Y-106680000D03*
X144780000Y-109730000D03*
D11*
X136805000Y-110485000D03*
X136805000Y-105925000D03*
D10*
X128730000Y-109730000D03*
X132080000Y-106680000D03*
X128730000Y-106680000D03*
X132080000Y-109730000D03*
D11*
X124105000Y-110485000D03*
X124105000Y-105925000D03*
D10*
X116030000Y-109730000D03*
X119380000Y-106680000D03*
X116030000Y-106680000D03*
X119380000Y-109730000D03*
D11*
X111405000Y-110485000D03*
X111405000Y-105925000D03*
D10*
X103330000Y-109730000D03*
X106680000Y-106680000D03*
X103330000Y-106680000D03*
X106680000Y-109730000D03*
D11*
X98705000Y-110485000D03*
X98705000Y-105925000D03*
M02*
