M48
;DRILL file {KiCad 5.0.2-bee76a0~70~ubuntu18.04.1} date Pá 17. července 2020, 19:22:54 CEST
;FORMAT={-:-/ absolute / inch / decimal}
FMAT,2
INCH,TZ
T1C0.0157
T2C0.0350
T3C0.0362
T4C0.0402
T5C0.0433
T6C0.0512
T7C0.0917
T8C0.1181
%
G90
G05
T1
X4.2Y-4.1702
X4.2546Y-4.375
X4.2546Y-4.6
X4.5Y-4.
X4.52Y-4.2
X4.52Y-4.55
X4.52Y-4.65
X4.7Y-4.
X4.7Y-4.1702
X4.72Y-2.45
X4.7546Y-4.3904
X4.7546Y-4.6
X4.78Y-3.02
X4.78Y-3.93
X5.02Y-4.2
X5.02Y-4.55
X5.02Y-4.65
X5.05Y-2.45
X5.1Y-2.5
X5.14Y-2.515
X5.2Y-4.1742
X5.2533Y-4.393
X5.2533Y-4.6027
X5.38Y-2.87
X5.5186Y-4.2027
X5.5186Y-4.5527
X5.5186Y-4.6527
X5.66Y-2.62
X5.7Y-4.1742
X5.735Y-2.7
X5.7533Y-4.393
X5.7533Y-4.6027
X5.775Y-2.7
X5.81Y-3.12
X5.87Y-3.99
X5.94Y-2.735
X5.955Y-3.055
X5.96Y-2.775
X5.97Y-2.92
X6.0186Y-4.2027
X6.0186Y-4.5277
X6.0186Y-4.6277
X6.03Y-3.055
X6.04Y-2.33
X6.07Y-2.76
X6.075Y-3.1
X6.115Y-2.87
X6.115Y-3.145
X6.115Y-3.195
X6.1429Y-2.715
X6.16Y-2.91
X6.175Y-3.205
X6.2Y-4.181
X6.21Y-2.96
X6.225Y-3.23
X6.2471Y-4.3937
X6.2471Y-4.6033
X6.25Y-3.
X6.29Y-2.88
X6.29Y-3.005
X6.37Y-3.07
X6.375Y-3.23
X6.485Y-3.115
X6.5124Y-4.2033
X6.5124Y-4.5533
X6.5124Y-4.6533
X6.525Y-3.225
X6.59Y-3.005
X6.625Y-3.38
X6.67Y-2.86
X6.675Y-3.23
X6.7Y-4.181
X6.7471Y-4.3937
X6.7471Y-4.6033
X6.775Y-3.73
X6.785Y-3.585
X6.84Y-3.27
X6.84Y-3.33
X6.89Y-2.62
X6.89Y-4.02
X6.96Y-2.74
X6.965Y-2.69
X7.Y-3.82
X7.0124Y-4.2033
X7.0124Y-4.5533
X7.0124Y-4.6533
X7.04Y-2.72
X7.195Y-2.785
X7.2Y-4.1767
X7.252Y-4.3943
X7.252Y-4.6039
X7.41Y-3.
X7.47Y-3.94
X7.5174Y-4.2039
X7.5174Y-4.5539
X7.5174Y-4.6539
X7.575Y-3.025
X7.6Y-4.02
X7.625Y-3.125
X7.725Y-3.25
X7.75Y-3.6
X7.772Y-4.0118
X7.772Y-4.2214
X8.0374Y-3.8214
X8.0374Y-4.1714
X8.0374Y-4.2714
T2
X5.55Y-1.95
X5.55Y-2.05
X5.65Y-1.95
X5.65Y-2.05
X5.75Y-1.95
X5.75Y-2.05
X5.85Y-1.95
X5.85Y-2.05
X5.95Y-1.95
X5.95Y-2.05
X6.05Y-1.95
X6.05Y-2.05
X6.15Y-1.95
X6.15Y-2.05
X6.25Y-1.95
X6.25Y-2.05
X6.35Y-1.95
X6.35Y-2.05
X5.23Y-2.82
X5.23Y-2.92
X5.23Y-3.02
X5.23Y-3.12
X7.4Y-1.95
X7.4Y-2.05
X7.5Y-1.95
X7.5Y-2.05
X7.6Y-1.95
X7.6Y-2.05
X7.7Y-1.95
X7.7Y-2.05
X6.5Y-1.95
X6.5Y-2.05
X6.6Y-1.95
X6.6Y-2.05
X6.7Y-1.95
X6.7Y-2.05
X6.8Y-1.95
X6.8Y-2.05
X6.9Y-1.95
X6.9Y-2.05
X5.1Y-1.95
X5.2Y-1.95
X5.3Y-1.95
X5.4Y-1.95
X7.05Y-1.95
X7.05Y-2.05
X7.15Y-1.95
X7.15Y-2.05
X7.25Y-1.95
X7.25Y-2.05
T3
X4.3313Y-3.6516
X4.3313Y-3.75
X4.41Y-3.6516
X4.41Y-3.75
T4
X7.975Y-2.3
X7.975Y-2.4
X7.975Y-2.5
X7.975Y-2.6
T5
X4.0441Y-2.5
X4.0441Y-2.6772
X4.3Y-2.5
X4.3Y-2.6772
X4.0441Y-2.95
X4.0441Y-3.1272
X4.3Y-2.95
X4.3Y-3.1272
T6
X5.02Y-4.9031
X5.02Y-5.1
X5.8186Y-4.9027
X5.8186Y-5.0995
X4.52Y-4.9031
X4.52Y-5.1
X4.32Y-4.9031
X4.32Y-5.1
X6.8124Y-4.9033
X6.8124Y-5.1002
X5.5186Y-4.9027
X5.5186Y-5.0995
X7.0124Y-4.9033
X7.0124Y-5.1002
X6.5124Y-4.9033
X6.5124Y-5.1002
X5.3186Y-4.9027
X5.3186Y-5.0995
X4.82Y-4.9031
X4.82Y-5.1
X7.5174Y-4.9039
X7.5174Y-5.1008
X8.0374Y-4.5214
X8.0374Y-4.7183
X7.3174Y-4.9039
X7.3174Y-5.1008
X7.8374Y-4.5214
X7.8374Y-4.7183
X6.3124Y-4.9033
X6.3124Y-5.1002
X6.0186Y-4.9027
X6.0186Y-5.0995
T7
X4.2246Y-3.4638
X4.2246Y-3.9378
T8
X4.Y-5.2
X8.Y-2.
X4.Y-2.
X8.Y-5.2
T0
M30
