G04 #@! TF.GenerationSoftware,KiCad,Pcbnew,5.0.2-bee76a0~70~ubuntu18.04.1*
G04 #@! TF.CreationDate,2020-04-28T14:54:47+02:00*
G04 #@! TF.ProjectId,E32CB_R2,45333243-425f-4523-922e-6b696361645f,rev?*
G04 #@! TF.SameCoordinates,Original*
G04 #@! TF.FileFunction,Legend,Top*
G04 #@! TF.FilePolarity,Positive*
%FSLAX46Y46*%
G04 Gerber Fmt 4.6, Leading zero omitted, Abs format (unit mm)*
G04 Created by KiCad (PCBNEW 5.0.2-bee76a0~70~ubuntu18.04.1) date Út 28. dubna 2020, 14:54:47 CEST*
%MOMM*%
%LPD*%
G01*
G04 APERTURE LIST*
%ADD10C,0.300000*%
%ADD11C,0.120000*%
%ADD12C,0.150000*%
%ADD13C,0.010000*%
%ADD14C,0.100000*%
%ADD15C,0.304800*%
G04 APERTURE END LIST*
D10*
X102794571Y-104347476D02*
X102794571Y-105180809D01*
X101485047Y-105537952D02*
X101485047Y-104347476D01*
X103985047Y-104347476D01*
X103985047Y-105537952D01*
X103985047Y-106371285D02*
X103985047Y-107918904D01*
X103032666Y-107085571D01*
X103032666Y-107442714D01*
X102913619Y-107680809D01*
X102794571Y-107799857D01*
X102556476Y-107918904D01*
X101961238Y-107918904D01*
X101723142Y-107799857D01*
X101604095Y-107680809D01*
X101485047Y-107442714D01*
X101485047Y-106728428D01*
X101604095Y-106490333D01*
X101723142Y-106371285D01*
X103746952Y-108871285D02*
X103866000Y-108990333D01*
X103985047Y-109228428D01*
X103985047Y-109823666D01*
X103866000Y-110061761D01*
X103746952Y-110180809D01*
X103508857Y-110299857D01*
X103270761Y-110299857D01*
X102913619Y-110180809D01*
X101485047Y-108752238D01*
X101485047Y-110299857D01*
X101723142Y-112799857D02*
X101604095Y-112680809D01*
X101485047Y-112323666D01*
X101485047Y-112085571D01*
X101604095Y-111728428D01*
X101842190Y-111490333D01*
X102080285Y-111371285D01*
X102556476Y-111252238D01*
X102913619Y-111252238D01*
X103389809Y-111371285D01*
X103627904Y-111490333D01*
X103866000Y-111728428D01*
X103985047Y-112085571D01*
X103985047Y-112323666D01*
X103866000Y-112680809D01*
X103746952Y-112799857D01*
X102794571Y-114704619D02*
X102675523Y-115061761D01*
X102556476Y-115180809D01*
X102318380Y-115299857D01*
X101961238Y-115299857D01*
X101723142Y-115180809D01*
X101604095Y-115061761D01*
X101485047Y-114823666D01*
X101485047Y-113871285D01*
X103985047Y-113871285D01*
X103985047Y-114704619D01*
X103866000Y-114942714D01*
X103746952Y-115061761D01*
X103508857Y-115180809D01*
X103270761Y-115180809D01*
X103032666Y-115061761D01*
X102913619Y-114942714D01*
X102794571Y-114704619D01*
X102794571Y-113871285D01*
X101246952Y-115776047D02*
X101246952Y-117680809D01*
X101485047Y-119704619D02*
X102675523Y-118871285D01*
X101485047Y-118276047D02*
X103985047Y-118276047D01*
X103985047Y-119228428D01*
X103866000Y-119466523D01*
X103746952Y-119585571D01*
X103508857Y-119704619D01*
X103151714Y-119704619D01*
X102913619Y-119585571D01*
X102794571Y-119466523D01*
X102675523Y-119228428D01*
X102675523Y-118276047D01*
X103746952Y-120657000D02*
X103866000Y-120776047D01*
X103985047Y-121014142D01*
X103985047Y-121609380D01*
X103866000Y-121847476D01*
X103746952Y-121966523D01*
X103508857Y-122085571D01*
X103270761Y-122085571D01*
X102913619Y-121966523D01*
X101485047Y-120537952D01*
X101485047Y-122085571D01*
X150510000Y-54230904D02*
X150571904Y-54107095D01*
X150571904Y-53921380D01*
X150510000Y-53735666D01*
X150386190Y-53611857D01*
X150262380Y-53549952D01*
X150014761Y-53488047D01*
X149829047Y-53488047D01*
X149581428Y-53549952D01*
X149457619Y-53611857D01*
X149333809Y-53735666D01*
X149271904Y-53921380D01*
X149271904Y-54045190D01*
X149333809Y-54230904D01*
X149395714Y-54292809D01*
X149829047Y-54292809D01*
X149829047Y-54045190D01*
X149271904Y-54849952D02*
X150571904Y-54849952D01*
X150571904Y-55345190D01*
X150510000Y-55469000D01*
X150448095Y-55530904D01*
X150324285Y-55592809D01*
X150138571Y-55592809D01*
X150014761Y-55530904D01*
X149952857Y-55469000D01*
X149890952Y-55345190D01*
X149890952Y-54849952D01*
X149271904Y-56149952D02*
X150571904Y-56149952D01*
X150571904Y-57016619D02*
X150571904Y-57264238D01*
X150510000Y-57388047D01*
X150386190Y-57511857D01*
X150138571Y-57573761D01*
X149705238Y-57573761D01*
X149457619Y-57511857D01*
X149333809Y-57388047D01*
X149271904Y-57264238D01*
X149271904Y-57016619D01*
X149333809Y-56892809D01*
X149457619Y-56769000D01*
X149705238Y-56707095D01*
X150138571Y-56707095D01*
X150386190Y-56769000D01*
X150510000Y-56892809D01*
X150571904Y-57016619D01*
X149271904Y-58811857D02*
X149271904Y-58069000D01*
X149271904Y-58440428D02*
X150571904Y-58440428D01*
X150386190Y-58316619D01*
X150262380Y-58192809D01*
X150200476Y-58069000D01*
X150448095Y-59307095D02*
X150510000Y-59369000D01*
X150571904Y-59492809D01*
X150571904Y-59802333D01*
X150510000Y-59926142D01*
X150448095Y-59988047D01*
X150324285Y-60049952D01*
X150200476Y-60049952D01*
X150014761Y-59988047D01*
X149271904Y-59245190D01*
X149271904Y-60049952D01*
X147970000Y-54230904D02*
X148031904Y-54107095D01*
X148031904Y-53921380D01*
X147970000Y-53735666D01*
X147846190Y-53611857D01*
X147722380Y-53549952D01*
X147474761Y-53488047D01*
X147289047Y-53488047D01*
X147041428Y-53549952D01*
X146917619Y-53611857D01*
X146793809Y-53735666D01*
X146731904Y-53921380D01*
X146731904Y-54045190D01*
X146793809Y-54230904D01*
X146855714Y-54292809D01*
X147289047Y-54292809D01*
X147289047Y-54045190D01*
X146731904Y-54849952D02*
X148031904Y-54849952D01*
X148031904Y-55345190D01*
X147970000Y-55469000D01*
X147908095Y-55530904D01*
X147784285Y-55592809D01*
X147598571Y-55592809D01*
X147474761Y-55530904D01*
X147412857Y-55469000D01*
X147350952Y-55345190D01*
X147350952Y-54849952D01*
X146731904Y-56149952D02*
X148031904Y-56149952D01*
X148031904Y-57016619D02*
X148031904Y-57264238D01*
X147970000Y-57388047D01*
X147846190Y-57511857D01*
X147598571Y-57573761D01*
X147165238Y-57573761D01*
X146917619Y-57511857D01*
X146793809Y-57388047D01*
X146731904Y-57264238D01*
X146731904Y-57016619D01*
X146793809Y-56892809D01*
X146917619Y-56769000D01*
X147165238Y-56707095D01*
X147598571Y-56707095D01*
X147846190Y-56769000D01*
X147970000Y-56892809D01*
X148031904Y-57016619D01*
X147908095Y-58069000D02*
X147970000Y-58130904D01*
X148031904Y-58254714D01*
X148031904Y-58564238D01*
X147970000Y-58688047D01*
X147908095Y-58749952D01*
X147784285Y-58811857D01*
X147660476Y-58811857D01*
X147474761Y-58749952D01*
X146731904Y-58007095D01*
X146731904Y-58811857D01*
X148031904Y-59926142D02*
X148031904Y-59678523D01*
X147970000Y-59554714D01*
X147908095Y-59492809D01*
X147722380Y-59369000D01*
X147474761Y-59307095D01*
X146979523Y-59307095D01*
X146855714Y-59369000D01*
X146793809Y-59430904D01*
X146731904Y-59554714D01*
X146731904Y-59802333D01*
X146793809Y-59926142D01*
X146855714Y-59988047D01*
X146979523Y-60049952D01*
X147289047Y-60049952D01*
X147412857Y-59988047D01*
X147474761Y-59926142D01*
X147536666Y-59802333D01*
X147536666Y-59554714D01*
X147474761Y-59430904D01*
X147412857Y-59369000D01*
X147289047Y-59307095D01*
X145430000Y-54230904D02*
X145491904Y-54107095D01*
X145491904Y-53921380D01*
X145430000Y-53735666D01*
X145306190Y-53611857D01*
X145182380Y-53549952D01*
X144934761Y-53488047D01*
X144749047Y-53488047D01*
X144501428Y-53549952D01*
X144377619Y-53611857D01*
X144253809Y-53735666D01*
X144191904Y-53921380D01*
X144191904Y-54045190D01*
X144253809Y-54230904D01*
X144315714Y-54292809D01*
X144749047Y-54292809D01*
X144749047Y-54045190D01*
X144191904Y-54849952D02*
X145491904Y-54849952D01*
X145491904Y-55345190D01*
X145430000Y-55469000D01*
X145368095Y-55530904D01*
X145244285Y-55592809D01*
X145058571Y-55592809D01*
X144934761Y-55530904D01*
X144872857Y-55469000D01*
X144810952Y-55345190D01*
X144810952Y-54849952D01*
X144191904Y-56149952D02*
X145491904Y-56149952D01*
X145491904Y-57016619D02*
X145491904Y-57264238D01*
X145430000Y-57388047D01*
X145306190Y-57511857D01*
X145058571Y-57573761D01*
X144625238Y-57573761D01*
X144377619Y-57511857D01*
X144253809Y-57388047D01*
X144191904Y-57264238D01*
X144191904Y-57016619D01*
X144253809Y-56892809D01*
X144377619Y-56769000D01*
X144625238Y-56707095D01*
X145058571Y-56707095D01*
X145306190Y-56769000D01*
X145430000Y-56892809D01*
X145491904Y-57016619D01*
X145491904Y-58007095D02*
X145491904Y-58811857D01*
X144996666Y-58378523D01*
X144996666Y-58564238D01*
X144934761Y-58688047D01*
X144872857Y-58749952D01*
X144749047Y-58811857D01*
X144439523Y-58811857D01*
X144315714Y-58749952D01*
X144253809Y-58688047D01*
X144191904Y-58564238D01*
X144191904Y-58192809D01*
X144253809Y-58069000D01*
X144315714Y-58007095D01*
X145491904Y-59988047D02*
X145491904Y-59369000D01*
X144872857Y-59307095D01*
X144934761Y-59369000D01*
X144996666Y-59492809D01*
X144996666Y-59802333D01*
X144934761Y-59926142D01*
X144872857Y-59988047D01*
X144749047Y-60049952D01*
X144439523Y-60049952D01*
X144315714Y-59988047D01*
X144253809Y-59926142D01*
X144191904Y-59802333D01*
X144191904Y-59492809D01*
X144253809Y-59369000D01*
X144315714Y-59307095D01*
X142890000Y-54230904D02*
X142951904Y-54107095D01*
X142951904Y-53921380D01*
X142890000Y-53735666D01*
X142766190Y-53611857D01*
X142642380Y-53549952D01*
X142394761Y-53488047D01*
X142209047Y-53488047D01*
X141961428Y-53549952D01*
X141837619Y-53611857D01*
X141713809Y-53735666D01*
X141651904Y-53921380D01*
X141651904Y-54045190D01*
X141713809Y-54230904D01*
X141775714Y-54292809D01*
X142209047Y-54292809D01*
X142209047Y-54045190D01*
X141651904Y-54849952D02*
X142951904Y-54849952D01*
X142951904Y-55345190D01*
X142890000Y-55469000D01*
X142828095Y-55530904D01*
X142704285Y-55592809D01*
X142518571Y-55592809D01*
X142394761Y-55530904D01*
X142332857Y-55469000D01*
X142270952Y-55345190D01*
X142270952Y-54849952D01*
X141651904Y-56149952D02*
X142951904Y-56149952D01*
X142951904Y-57016619D02*
X142951904Y-57264238D01*
X142890000Y-57388047D01*
X142766190Y-57511857D01*
X142518571Y-57573761D01*
X142085238Y-57573761D01*
X141837619Y-57511857D01*
X141713809Y-57388047D01*
X141651904Y-57264238D01*
X141651904Y-57016619D01*
X141713809Y-56892809D01*
X141837619Y-56769000D01*
X142085238Y-56707095D01*
X142518571Y-56707095D01*
X142766190Y-56769000D01*
X142890000Y-56892809D01*
X142951904Y-57016619D01*
X142951904Y-58007095D02*
X142951904Y-58811857D01*
X142456666Y-58378523D01*
X142456666Y-58564238D01*
X142394761Y-58688047D01*
X142332857Y-58749952D01*
X142209047Y-58811857D01*
X141899523Y-58811857D01*
X141775714Y-58749952D01*
X141713809Y-58688047D01*
X141651904Y-58564238D01*
X141651904Y-58192809D01*
X141713809Y-58069000D01*
X141775714Y-58007095D01*
X142518571Y-59926142D02*
X141651904Y-59926142D01*
X143013809Y-59616619D02*
X142085238Y-59307095D01*
X142085238Y-60111857D01*
X140350000Y-54230904D02*
X140411904Y-54107095D01*
X140411904Y-53921380D01*
X140350000Y-53735666D01*
X140226190Y-53611857D01*
X140102380Y-53549952D01*
X139854761Y-53488047D01*
X139669047Y-53488047D01*
X139421428Y-53549952D01*
X139297619Y-53611857D01*
X139173809Y-53735666D01*
X139111904Y-53921380D01*
X139111904Y-54045190D01*
X139173809Y-54230904D01*
X139235714Y-54292809D01*
X139669047Y-54292809D01*
X139669047Y-54045190D01*
X139111904Y-54849952D02*
X140411904Y-54849952D01*
X140411904Y-55345190D01*
X140350000Y-55469000D01*
X140288095Y-55530904D01*
X140164285Y-55592809D01*
X139978571Y-55592809D01*
X139854761Y-55530904D01*
X139792857Y-55469000D01*
X139730952Y-55345190D01*
X139730952Y-54849952D01*
X139111904Y-56149952D02*
X140411904Y-56149952D01*
X140411904Y-57016619D02*
X140411904Y-57264238D01*
X140350000Y-57388047D01*
X140226190Y-57511857D01*
X139978571Y-57573761D01*
X139545238Y-57573761D01*
X139297619Y-57511857D01*
X139173809Y-57388047D01*
X139111904Y-57264238D01*
X139111904Y-57016619D01*
X139173809Y-56892809D01*
X139297619Y-56769000D01*
X139545238Y-56707095D01*
X139978571Y-56707095D01*
X140226190Y-56769000D01*
X140350000Y-56892809D01*
X140411904Y-57016619D01*
X140411904Y-58007095D02*
X140411904Y-58811857D01*
X139916666Y-58378523D01*
X139916666Y-58564238D01*
X139854761Y-58688047D01*
X139792857Y-58749952D01*
X139669047Y-58811857D01*
X139359523Y-58811857D01*
X139235714Y-58749952D01*
X139173809Y-58688047D01*
X139111904Y-58564238D01*
X139111904Y-58192809D01*
X139173809Y-58069000D01*
X139235714Y-58007095D01*
X139111904Y-59430904D02*
X139111904Y-59678523D01*
X139173809Y-59802333D01*
X139235714Y-59864238D01*
X139421428Y-59988047D01*
X139669047Y-60049952D01*
X140164285Y-60049952D01*
X140288095Y-59988047D01*
X140350000Y-59926142D01*
X140411904Y-59802333D01*
X140411904Y-59554714D01*
X140350000Y-59430904D01*
X140288095Y-59369000D01*
X140164285Y-59307095D01*
X139854761Y-59307095D01*
X139730952Y-59369000D01*
X139669047Y-59430904D01*
X139607142Y-59554714D01*
X139607142Y-59802333D01*
X139669047Y-59926142D01*
X139730952Y-59988047D01*
X139854761Y-60049952D01*
X137810000Y-54230904D02*
X137871904Y-54107095D01*
X137871904Y-53921380D01*
X137810000Y-53735666D01*
X137686190Y-53611857D01*
X137562380Y-53549952D01*
X137314761Y-53488047D01*
X137129047Y-53488047D01*
X136881428Y-53549952D01*
X136757619Y-53611857D01*
X136633809Y-53735666D01*
X136571904Y-53921380D01*
X136571904Y-54045190D01*
X136633809Y-54230904D01*
X136695714Y-54292809D01*
X137129047Y-54292809D01*
X137129047Y-54045190D01*
X136571904Y-54849952D02*
X137871904Y-54849952D01*
X137871904Y-55345190D01*
X137810000Y-55469000D01*
X137748095Y-55530904D01*
X137624285Y-55592809D01*
X137438571Y-55592809D01*
X137314761Y-55530904D01*
X137252857Y-55469000D01*
X137190952Y-55345190D01*
X137190952Y-54849952D01*
X136571904Y-56149952D02*
X137871904Y-56149952D01*
X137871904Y-57016619D02*
X137871904Y-57264238D01*
X137810000Y-57388047D01*
X137686190Y-57511857D01*
X137438571Y-57573761D01*
X137005238Y-57573761D01*
X136757619Y-57511857D01*
X136633809Y-57388047D01*
X136571904Y-57264238D01*
X136571904Y-57016619D01*
X136633809Y-56892809D01*
X136757619Y-56769000D01*
X137005238Y-56707095D01*
X137438571Y-56707095D01*
X137686190Y-56769000D01*
X137810000Y-56892809D01*
X137871904Y-57016619D01*
X137871904Y-58007095D02*
X137871904Y-58811857D01*
X137376666Y-58378523D01*
X137376666Y-58564238D01*
X137314761Y-58688047D01*
X137252857Y-58749952D01*
X137129047Y-58811857D01*
X136819523Y-58811857D01*
X136695714Y-58749952D01*
X136633809Y-58688047D01*
X136571904Y-58564238D01*
X136571904Y-58192809D01*
X136633809Y-58069000D01*
X136695714Y-58007095D01*
X137871904Y-59926142D02*
X137871904Y-59678523D01*
X137810000Y-59554714D01*
X137748095Y-59492809D01*
X137562380Y-59369000D01*
X137314761Y-59307095D01*
X136819523Y-59307095D01*
X136695714Y-59369000D01*
X136633809Y-59430904D01*
X136571904Y-59554714D01*
X136571904Y-59802333D01*
X136633809Y-59926142D01*
X136695714Y-59988047D01*
X136819523Y-60049952D01*
X137129047Y-60049952D01*
X137252857Y-59988047D01*
X137314761Y-59926142D01*
X137376666Y-59802333D01*
X137376666Y-59554714D01*
X137314761Y-59430904D01*
X137252857Y-59369000D01*
X137129047Y-59307095D01*
X135270000Y-54230904D02*
X135331904Y-54107095D01*
X135331904Y-53921380D01*
X135270000Y-53735666D01*
X135146190Y-53611857D01*
X135022380Y-53549952D01*
X134774761Y-53488047D01*
X134589047Y-53488047D01*
X134341428Y-53549952D01*
X134217619Y-53611857D01*
X134093809Y-53735666D01*
X134031904Y-53921380D01*
X134031904Y-54045190D01*
X134093809Y-54230904D01*
X134155714Y-54292809D01*
X134589047Y-54292809D01*
X134589047Y-54045190D01*
X134031904Y-54849952D02*
X135331904Y-54849952D01*
X135331904Y-55345190D01*
X135270000Y-55469000D01*
X135208095Y-55530904D01*
X135084285Y-55592809D01*
X134898571Y-55592809D01*
X134774761Y-55530904D01*
X134712857Y-55469000D01*
X134650952Y-55345190D01*
X134650952Y-54849952D01*
X134031904Y-56149952D02*
X135331904Y-56149952D01*
X135331904Y-57016619D02*
X135331904Y-57264238D01*
X135270000Y-57388047D01*
X135146190Y-57511857D01*
X134898571Y-57573761D01*
X134465238Y-57573761D01*
X134217619Y-57511857D01*
X134093809Y-57388047D01*
X134031904Y-57264238D01*
X134031904Y-57016619D01*
X134093809Y-56892809D01*
X134217619Y-56769000D01*
X134465238Y-56707095D01*
X134898571Y-56707095D01*
X135146190Y-56769000D01*
X135270000Y-56892809D01*
X135331904Y-57016619D01*
X134031904Y-58811857D02*
X134031904Y-58069000D01*
X134031904Y-58440428D02*
X135331904Y-58440428D01*
X135146190Y-58316619D01*
X135022380Y-58192809D01*
X134960476Y-58069000D01*
X135331904Y-59988047D02*
X135331904Y-59369000D01*
X134712857Y-59307095D01*
X134774761Y-59369000D01*
X134836666Y-59492809D01*
X134836666Y-59802333D01*
X134774761Y-59926142D01*
X134712857Y-59988047D01*
X134589047Y-60049952D01*
X134279523Y-60049952D01*
X134155714Y-59988047D01*
X134093809Y-59926142D01*
X134031904Y-59802333D01*
X134031904Y-59492809D01*
X134093809Y-59369000D01*
X134155714Y-59307095D01*
X132730000Y-54214952D02*
X132791904Y-54091142D01*
X132791904Y-53905428D01*
X132730000Y-53719714D01*
X132606190Y-53595904D01*
X132482380Y-53534000D01*
X132234761Y-53472095D01*
X132049047Y-53472095D01*
X131801428Y-53534000D01*
X131677619Y-53595904D01*
X131553809Y-53719714D01*
X131491904Y-53905428D01*
X131491904Y-54029238D01*
X131553809Y-54214952D01*
X131615714Y-54276857D01*
X132049047Y-54276857D01*
X132049047Y-54029238D01*
X131491904Y-54834000D02*
X132791904Y-54834000D01*
X132791904Y-55329238D01*
X132730000Y-55453047D01*
X132668095Y-55514952D01*
X132544285Y-55576857D01*
X132358571Y-55576857D01*
X132234761Y-55514952D01*
X132172857Y-55453047D01*
X132110952Y-55329238D01*
X132110952Y-54834000D01*
X131491904Y-56134000D02*
X132791904Y-56134000D01*
X132791904Y-57000666D02*
X132791904Y-57248285D01*
X132730000Y-57372095D01*
X132606190Y-57495904D01*
X132358571Y-57557809D01*
X131925238Y-57557809D01*
X131677619Y-57495904D01*
X131553809Y-57372095D01*
X131491904Y-57248285D01*
X131491904Y-57000666D01*
X131553809Y-56876857D01*
X131677619Y-56753047D01*
X131925238Y-56691142D01*
X132358571Y-56691142D01*
X132606190Y-56753047D01*
X132730000Y-56876857D01*
X132791904Y-57000666D01*
X132668095Y-58053047D02*
X132730000Y-58114952D01*
X132791904Y-58238761D01*
X132791904Y-58548285D01*
X132730000Y-58672095D01*
X132668095Y-58734000D01*
X132544285Y-58795904D01*
X132420476Y-58795904D01*
X132234761Y-58734000D01*
X131491904Y-57991142D01*
X131491904Y-58795904D01*
X129936000Y-54214952D02*
X129997904Y-54091142D01*
X129997904Y-53905428D01*
X129936000Y-53719714D01*
X129812190Y-53595904D01*
X129688380Y-53534000D01*
X129440761Y-53472095D01*
X129255047Y-53472095D01*
X129007428Y-53534000D01*
X128883619Y-53595904D01*
X128759809Y-53719714D01*
X128697904Y-53905428D01*
X128697904Y-54029238D01*
X128759809Y-54214952D01*
X128821714Y-54276857D01*
X129255047Y-54276857D01*
X129255047Y-54029238D01*
X128697904Y-54834000D02*
X129997904Y-54834000D01*
X129997904Y-55329238D01*
X129936000Y-55453047D01*
X129874095Y-55514952D01*
X129750285Y-55576857D01*
X129564571Y-55576857D01*
X129440761Y-55514952D01*
X129378857Y-55453047D01*
X129316952Y-55329238D01*
X129316952Y-54834000D01*
X128697904Y-56134000D02*
X129997904Y-56134000D01*
X129997904Y-57000666D02*
X129997904Y-57248285D01*
X129936000Y-57372095D01*
X129812190Y-57495904D01*
X129564571Y-57557809D01*
X129131238Y-57557809D01*
X128883619Y-57495904D01*
X128759809Y-57372095D01*
X128697904Y-57248285D01*
X128697904Y-57000666D01*
X128759809Y-56876857D01*
X128883619Y-56753047D01*
X129131238Y-56691142D01*
X129564571Y-56691142D01*
X129812190Y-56753047D01*
X129936000Y-56876857D01*
X129997904Y-57000666D01*
X129997904Y-58734000D02*
X129997904Y-58114952D01*
X129378857Y-58053047D01*
X129440761Y-58114952D01*
X129502666Y-58238761D01*
X129502666Y-58548285D01*
X129440761Y-58672095D01*
X129378857Y-58734000D01*
X129255047Y-58795904D01*
X128945523Y-58795904D01*
X128821714Y-58734000D01*
X128759809Y-58672095D01*
X128697904Y-58548285D01*
X128697904Y-58238761D01*
X128759809Y-58114952D01*
X128821714Y-58053047D01*
X155082000Y-54127523D02*
X155143904Y-54003714D01*
X155143904Y-53818000D01*
X155082000Y-53632285D01*
X154958190Y-53508476D01*
X154834380Y-53446571D01*
X154586761Y-53384666D01*
X154401047Y-53384666D01*
X154153428Y-53446571D01*
X154029619Y-53508476D01*
X153905809Y-53632285D01*
X153843904Y-53818000D01*
X153843904Y-53941809D01*
X153905809Y-54127523D01*
X153967714Y-54189428D01*
X154401047Y-54189428D01*
X154401047Y-53941809D01*
X153843904Y-54746571D02*
X155143904Y-54746571D01*
X153843904Y-55489428D01*
X155143904Y-55489428D01*
X153843904Y-56108476D02*
X155143904Y-56108476D01*
X155143904Y-56418000D01*
X155082000Y-56603714D01*
X154958190Y-56727523D01*
X154834380Y-56789428D01*
X154586761Y-56851333D01*
X154401047Y-56851333D01*
X154153428Y-56789428D01*
X154029619Y-56727523D01*
X153905809Y-56603714D01*
X153843904Y-56418000D01*
X153843904Y-56108476D01*
X156445809Y-53539428D02*
X156383904Y-53725142D01*
X156383904Y-54034666D01*
X156445809Y-54158476D01*
X156507714Y-54220380D01*
X156631523Y-54282285D01*
X156755333Y-54282285D01*
X156879142Y-54220380D01*
X156941047Y-54158476D01*
X157002952Y-54034666D01*
X157064857Y-53787047D01*
X157126761Y-53663238D01*
X157188666Y-53601333D01*
X157312476Y-53539428D01*
X157436285Y-53539428D01*
X157560095Y-53601333D01*
X157622000Y-53663238D01*
X157683904Y-53787047D01*
X157683904Y-54096571D01*
X157622000Y-54282285D01*
X156383904Y-54839428D02*
X157683904Y-54839428D01*
X157683904Y-55148952D01*
X157622000Y-55334666D01*
X157498190Y-55458476D01*
X157374380Y-55520380D01*
X157126761Y-55582285D01*
X156941047Y-55582285D01*
X156693428Y-55520380D01*
X156569619Y-55458476D01*
X156445809Y-55334666D01*
X156383904Y-55148952D01*
X156383904Y-54839428D01*
X156755333Y-56077523D02*
X156755333Y-56696571D01*
X156383904Y-55953714D02*
X157683904Y-56387047D01*
X156383904Y-56820380D01*
X161525809Y-53570380D02*
X161463904Y-53756095D01*
X161463904Y-54065619D01*
X161525809Y-54189428D01*
X161587714Y-54251333D01*
X161711523Y-54313238D01*
X161835333Y-54313238D01*
X161959142Y-54251333D01*
X162021047Y-54189428D01*
X162082952Y-54065619D01*
X162144857Y-53818000D01*
X162206761Y-53694190D01*
X162268666Y-53632285D01*
X162392476Y-53570380D01*
X162516285Y-53570380D01*
X162640095Y-53632285D01*
X162702000Y-53694190D01*
X162763904Y-53818000D01*
X162763904Y-54127523D01*
X162702000Y-54313238D01*
X161587714Y-55613238D02*
X161525809Y-55551333D01*
X161463904Y-55365619D01*
X161463904Y-55241809D01*
X161525809Y-55056095D01*
X161649619Y-54932285D01*
X161773428Y-54870380D01*
X162021047Y-54808476D01*
X162206761Y-54808476D01*
X162454380Y-54870380D01*
X162578190Y-54932285D01*
X162702000Y-55056095D01*
X162763904Y-55241809D01*
X162763904Y-55365619D01*
X162702000Y-55551333D01*
X162640095Y-55613238D01*
X161463904Y-56789428D02*
X161463904Y-56170380D01*
X162763904Y-56170380D01*
X165242000Y-54127523D02*
X165303904Y-54003714D01*
X165303904Y-53818000D01*
X165242000Y-53632285D01*
X165118190Y-53508476D01*
X164994380Y-53446571D01*
X164746761Y-53384666D01*
X164561047Y-53384666D01*
X164313428Y-53446571D01*
X164189619Y-53508476D01*
X164065809Y-53632285D01*
X164003904Y-53818000D01*
X164003904Y-53941809D01*
X164065809Y-54127523D01*
X164127714Y-54189428D01*
X164561047Y-54189428D01*
X164561047Y-53941809D01*
X164003904Y-54746571D02*
X165303904Y-54746571D01*
X164003904Y-55489428D01*
X165303904Y-55489428D01*
X164003904Y-56108476D02*
X165303904Y-56108476D01*
X165303904Y-56418000D01*
X165242000Y-56603714D01*
X165118190Y-56727523D01*
X164994380Y-56789428D01*
X164746761Y-56851333D01*
X164561047Y-56851333D01*
X164313428Y-56789428D01*
X164189619Y-56727523D01*
X164065809Y-56603714D01*
X164003904Y-56418000D01*
X164003904Y-56108476D01*
X160223904Y-53508476D02*
X160223904Y-54313238D01*
X159728666Y-53879904D01*
X159728666Y-54065619D01*
X159666761Y-54189428D01*
X159604857Y-54251333D01*
X159481047Y-54313238D01*
X159171523Y-54313238D01*
X159047714Y-54251333D01*
X158985809Y-54189428D01*
X158923904Y-54065619D01*
X158923904Y-53694190D01*
X158985809Y-53570380D01*
X159047714Y-53508476D01*
X160223904Y-54684666D02*
X158923904Y-55118000D01*
X160223904Y-55551333D01*
X160223904Y-55860857D02*
X160223904Y-56665619D01*
X159728666Y-56232285D01*
X159728666Y-56418000D01*
X159666761Y-56541809D01*
X159604857Y-56603714D01*
X159481047Y-56665619D01*
X159171523Y-56665619D01*
X159047714Y-56603714D01*
X158985809Y-56541809D01*
X158923904Y-56418000D01*
X158923904Y-56046571D01*
X158985809Y-55922761D01*
X159047714Y-55860857D01*
X109931904Y-54654666D02*
X108631904Y-54964190D01*
X109560476Y-55211809D01*
X108631904Y-55459428D01*
X109931904Y-55768952D01*
X108631904Y-56264190D02*
X109498571Y-56264190D01*
X109931904Y-56264190D02*
X109870000Y-56202285D01*
X109808095Y-56264190D01*
X109870000Y-56326095D01*
X109931904Y-56264190D01*
X109808095Y-56264190D01*
X109312857Y-57316571D02*
X109312857Y-56883238D01*
X108631904Y-56883238D02*
X109931904Y-56883238D01*
X109931904Y-57502285D01*
X108631904Y-57997523D02*
X109498571Y-57997523D01*
X109931904Y-57997523D02*
X109870000Y-57935619D01*
X109808095Y-57997523D01*
X109870000Y-58059428D01*
X109931904Y-57997523D01*
X109808095Y-57997523D01*
X112695904Y-54834952D02*
X113995904Y-54834952D01*
X113995904Y-55330190D01*
X113934000Y-55454000D01*
X113872095Y-55515904D01*
X113748285Y-55577809D01*
X113562571Y-55577809D01*
X113438761Y-55515904D01*
X113376857Y-55454000D01*
X113314952Y-55330190D01*
X113314952Y-54834952D01*
X112695904Y-56320666D02*
X112757809Y-56196857D01*
X112819714Y-56134952D01*
X112943523Y-56073047D01*
X113314952Y-56073047D01*
X113438761Y-56134952D01*
X113500666Y-56196857D01*
X113562571Y-56320666D01*
X113562571Y-56506380D01*
X113500666Y-56630190D01*
X113438761Y-56692095D01*
X113314952Y-56754000D01*
X112943523Y-56754000D01*
X112819714Y-56692095D01*
X112757809Y-56630190D01*
X112695904Y-56506380D01*
X112695904Y-56320666D01*
X113562571Y-57187333D02*
X112695904Y-57434952D01*
X113314952Y-57682571D01*
X112695904Y-57930190D01*
X113562571Y-58177809D01*
X112757809Y-59168285D02*
X112695904Y-59044476D01*
X112695904Y-58796857D01*
X112757809Y-58673047D01*
X112881619Y-58611142D01*
X113376857Y-58611142D01*
X113500666Y-58673047D01*
X113562571Y-58796857D01*
X113562571Y-59044476D01*
X113500666Y-59168285D01*
X113376857Y-59230190D01*
X113253047Y-59230190D01*
X113129238Y-58611142D01*
X112695904Y-59787333D02*
X113562571Y-59787333D01*
X113314952Y-59787333D02*
X113438761Y-59849238D01*
X113500666Y-59911142D01*
X113562571Y-60034952D01*
X113562571Y-60158761D01*
X118283904Y-55521333D02*
X118902952Y-55088000D01*
X118283904Y-54778476D02*
X119583904Y-54778476D01*
X119583904Y-55273714D01*
X119522000Y-55397523D01*
X119460095Y-55459428D01*
X119336285Y-55521333D01*
X119150571Y-55521333D01*
X119026761Y-55459428D01*
X118964857Y-55397523D01*
X118902952Y-55273714D01*
X118902952Y-54778476D01*
X119583904Y-55954666D02*
X118283904Y-56821333D01*
X119583904Y-56821333D02*
X118283904Y-55954666D01*
X118283904Y-57316571D02*
X119583904Y-57316571D01*
X119583904Y-57626095D01*
X119522000Y-57811809D01*
X119398190Y-57935619D01*
X119274380Y-57997523D01*
X119026761Y-58059428D01*
X118841047Y-58059428D01*
X118593428Y-57997523D01*
X118469619Y-57935619D01*
X118345809Y-57811809D01*
X118283904Y-57626095D01*
X118283904Y-57316571D01*
X123647904Y-54747523D02*
X123647904Y-55490380D01*
X122347904Y-55118952D02*
X123647904Y-55118952D01*
X123647904Y-55799904D02*
X122347904Y-56666571D01*
X123647904Y-56666571D02*
X122347904Y-55799904D01*
X122347904Y-57161809D02*
X123647904Y-57161809D01*
X123647904Y-57471333D01*
X123586000Y-57657047D01*
X123462190Y-57780857D01*
X123338380Y-57842761D01*
X123090761Y-57904666D01*
X122905047Y-57904666D01*
X122657428Y-57842761D01*
X122533619Y-57780857D01*
X122409809Y-57657047D01*
X122347904Y-57471333D01*
X122347904Y-57161809D01*
X197277904Y-59477142D02*
X198577904Y-59477142D01*
X198577904Y-59972380D01*
X198516000Y-60096190D01*
X198454095Y-60158095D01*
X198330285Y-60220000D01*
X198144571Y-60220000D01*
X198020761Y-60158095D01*
X197958857Y-60096190D01*
X197896952Y-59972380D01*
X197896952Y-59477142D01*
X198577904Y-61024761D02*
X198577904Y-61272380D01*
X198516000Y-61396190D01*
X198392190Y-61520000D01*
X198144571Y-61581904D01*
X197711238Y-61581904D01*
X197463619Y-61520000D01*
X197339809Y-61396190D01*
X197277904Y-61272380D01*
X197277904Y-61024761D01*
X197339809Y-60900952D01*
X197463619Y-60777142D01*
X197711238Y-60715238D01*
X198144571Y-60715238D01*
X198392190Y-60777142D01*
X198516000Y-60900952D01*
X198577904Y-61024761D01*
X198577904Y-62015238D02*
X197277904Y-62324761D01*
X198206476Y-62572380D01*
X197277904Y-62820000D01*
X198577904Y-63129523D01*
X197958857Y-63624761D02*
X197958857Y-64058095D01*
X197277904Y-64243809D02*
X197277904Y-63624761D01*
X198577904Y-63624761D01*
X198577904Y-64243809D01*
X197277904Y-65543809D02*
X197896952Y-65110476D01*
X197277904Y-64800952D02*
X198577904Y-64800952D01*
X198577904Y-65296190D01*
X198516000Y-65420000D01*
X198454095Y-65481904D01*
X198330285Y-65543809D01*
X198144571Y-65543809D01*
X198020761Y-65481904D01*
X197958857Y-65420000D01*
X197896952Y-65296190D01*
X197896952Y-64800952D01*
X197277904Y-67772380D02*
X197277904Y-67029523D01*
X197277904Y-67400952D02*
X198577904Y-67400952D01*
X198392190Y-67277142D01*
X198268380Y-67153333D01*
X198206476Y-67029523D01*
X198454095Y-68267619D02*
X198516000Y-68329523D01*
X198577904Y-68453333D01*
X198577904Y-68762857D01*
X198516000Y-68886666D01*
X198454095Y-68948571D01*
X198330285Y-69010476D01*
X198206476Y-69010476D01*
X198020761Y-68948571D01*
X197277904Y-68205714D01*
X197277904Y-69010476D01*
X198577904Y-69381904D02*
X197277904Y-69815238D01*
X198577904Y-70248571D01*
X168392095Y-53644095D02*
X168392095Y-54696476D01*
X168454000Y-54820285D01*
X168515904Y-54882190D01*
X168639714Y-54944095D01*
X168887333Y-54944095D01*
X169011142Y-54882190D01*
X169073047Y-54820285D01*
X169134952Y-54696476D01*
X169134952Y-53644095D01*
X169692095Y-54882190D02*
X169877809Y-54944095D01*
X170187333Y-54944095D01*
X170311142Y-54882190D01*
X170373047Y-54820285D01*
X170434952Y-54696476D01*
X170434952Y-54572666D01*
X170373047Y-54448857D01*
X170311142Y-54386952D01*
X170187333Y-54325047D01*
X169939714Y-54263142D01*
X169815904Y-54201238D01*
X169754000Y-54139333D01*
X169692095Y-54015523D01*
X169692095Y-53891714D01*
X169754000Y-53767904D01*
X169815904Y-53706000D01*
X169939714Y-53644095D01*
X170249238Y-53644095D01*
X170434952Y-53706000D01*
X171425428Y-54263142D02*
X171611142Y-54325047D01*
X171673047Y-54386952D01*
X171734952Y-54510761D01*
X171734952Y-54696476D01*
X171673047Y-54820285D01*
X171611142Y-54882190D01*
X171487333Y-54944095D01*
X170992095Y-54944095D01*
X170992095Y-53644095D01*
X171425428Y-53644095D01*
X171549238Y-53706000D01*
X171611142Y-53767904D01*
X171673047Y-53891714D01*
X171673047Y-54015523D01*
X171611142Y-54139333D01*
X171549238Y-54201238D01*
X171425428Y-54263142D01*
X170992095Y-54263142D01*
X173901619Y-53644095D02*
X173282571Y-53644095D01*
X173220666Y-54263142D01*
X173282571Y-54201238D01*
X173406380Y-54139333D01*
X173715904Y-54139333D01*
X173839714Y-54201238D01*
X173901619Y-54263142D01*
X173963523Y-54386952D01*
X173963523Y-54696476D01*
X173901619Y-54820285D01*
X173839714Y-54882190D01*
X173715904Y-54944095D01*
X173406380Y-54944095D01*
X173282571Y-54882190D01*
X173220666Y-54820285D01*
X174334952Y-53644095D02*
X174768285Y-54944095D01*
X175201619Y-53644095D01*
X181239523Y-51104095D02*
X181982380Y-51104095D01*
X181610952Y-52404095D02*
X181610952Y-51104095D01*
X182291904Y-51104095D02*
X183158571Y-52404095D01*
X183158571Y-51104095D02*
X182291904Y-52404095D01*
X183653809Y-52404095D02*
X183653809Y-51104095D01*
X183963333Y-51104095D01*
X184149047Y-51166000D01*
X184272857Y-51289809D01*
X184334761Y-51413619D01*
X184396666Y-51661238D01*
X184396666Y-51846952D01*
X184334761Y-52094571D01*
X184272857Y-52218380D01*
X184149047Y-52342190D01*
X183963333Y-52404095D01*
X183653809Y-52404095D01*
X181870380Y-56184095D02*
X181251333Y-56184095D01*
X181189428Y-56803142D01*
X181251333Y-56741238D01*
X181375142Y-56679333D01*
X181684666Y-56679333D01*
X181808476Y-56741238D01*
X181870380Y-56803142D01*
X181932285Y-56926952D01*
X181932285Y-57236476D01*
X181870380Y-57360285D01*
X181808476Y-57422190D01*
X181684666Y-57484095D01*
X181375142Y-57484095D01*
X181251333Y-57422190D01*
X181189428Y-57360285D01*
X182303714Y-56184095D02*
X182737047Y-57484095D01*
X183170380Y-56184095D01*
X181889523Y-48626000D02*
X181765714Y-48564095D01*
X181580000Y-48564095D01*
X181394285Y-48626000D01*
X181270476Y-48749809D01*
X181208571Y-48873619D01*
X181146666Y-49121238D01*
X181146666Y-49306952D01*
X181208571Y-49554571D01*
X181270476Y-49678380D01*
X181394285Y-49802190D01*
X181580000Y-49864095D01*
X181703809Y-49864095D01*
X181889523Y-49802190D01*
X181951428Y-49740285D01*
X181951428Y-49306952D01*
X181703809Y-49306952D01*
X182508571Y-49864095D02*
X182508571Y-48564095D01*
X183251428Y-49864095D01*
X183251428Y-48564095D01*
X183870476Y-49864095D02*
X183870476Y-48564095D01*
X184180000Y-48564095D01*
X184365714Y-48626000D01*
X184489523Y-48749809D01*
X184551428Y-48873619D01*
X184613333Y-49121238D01*
X184613333Y-49306952D01*
X184551428Y-49554571D01*
X184489523Y-49678380D01*
X184365714Y-49802190D01*
X184180000Y-49864095D01*
X183870476Y-49864095D01*
X182013333Y-54944095D02*
X181580000Y-54325047D01*
X181270476Y-54944095D02*
X181270476Y-53644095D01*
X181765714Y-53644095D01*
X181889523Y-53706000D01*
X181951428Y-53767904D01*
X182013333Y-53891714D01*
X182013333Y-54077428D01*
X181951428Y-54201238D01*
X181889523Y-54263142D01*
X181765714Y-54325047D01*
X181270476Y-54325047D01*
X182446666Y-53644095D02*
X183313333Y-54944095D01*
X183313333Y-53644095D02*
X182446666Y-54944095D01*
X183808571Y-54944095D02*
X183808571Y-53644095D01*
X184118095Y-53644095D01*
X184303809Y-53706000D01*
X184427619Y-53829809D01*
X184489523Y-53953619D01*
X184551428Y-54201238D01*
X184551428Y-54386952D01*
X184489523Y-54634571D01*
X184427619Y-54758380D01*
X184303809Y-54882190D01*
X184118095Y-54944095D01*
X183808571Y-54944095D01*
D11*
G04 #@! TO.C,FLASH*
X105957000Y-62826000D02*
X101457000Y-62826000D01*
X107207000Y-66826000D02*
X107207000Y-65326000D01*
X101457000Y-69326000D02*
X105957000Y-69326000D01*
X100207000Y-65326000D02*
X100207000Y-66826000D01*
G04 #@! TO.C,RESET*
X107207000Y-76406000D02*
X107207000Y-74906000D01*
X105957000Y-72406000D02*
X101457000Y-72406000D01*
X100207000Y-74906000D02*
X100207000Y-76406000D01*
X101457000Y-78906000D02*
X105957000Y-78906000D01*
G04 #@! TO.C,fan_1*
X195914000Y-54416000D02*
X190164000Y-54416000D01*
X188814000Y-54366000D02*
X185614000Y-54366000D01*
X185614000Y-54366000D02*
X185614000Y-48416000D01*
X185614000Y-48416000D02*
X195914000Y-48416000D01*
X195914000Y-48416000D02*
X195914000Y-54416000D01*
X194564000Y-48516000D02*
X194564000Y-49526000D01*
X194564000Y-49526000D02*
X189484000Y-49526000D01*
X189484000Y-49526000D02*
X189484000Y-48516000D01*
G04 #@! TO.C,J3*
X109608000Y-97366000D02*
X113868000Y-97366000D01*
X113868000Y-97366000D02*
X113868000Y-85046000D01*
X113868000Y-85046000D02*
X109608000Y-85046000D01*
X105508000Y-97366000D02*
X97148000Y-97366000D01*
X97148000Y-97366000D02*
X97148000Y-85046000D01*
X97148000Y-85046000D02*
X105508000Y-85046000D01*
X114088000Y-92456000D02*
X114588000Y-92956000D01*
X114588000Y-92956000D02*
X114588000Y-91956000D01*
X114588000Y-91956000D02*
X114088000Y-92456000D01*
D12*
G04 #@! TO.C,J14*
X160060000Y-136007000D02*
X160060000Y-127007000D01*
X165060000Y-127007000D02*
X165060000Y-136007000D01*
X160060000Y-127007000D02*
X160060000Y-121007000D01*
X160560000Y-135507100D02*
X160560000Y-127507100D01*
X161060000Y-125007000D02*
X161060000Y-122007000D01*
X165060000Y-127007000D02*
X165060000Y-121007000D01*
X164560000Y-135507100D02*
X164560000Y-127507100D01*
X164060000Y-125007000D02*
X164060000Y-122007000D01*
X160560000Y-122007000D02*
X160560000Y-118506000D01*
X161060000Y-121506900D02*
X161060000Y-119007000D01*
X161560000Y-127507100D02*
X161560000Y-127007000D01*
X164560000Y-122007000D02*
X164560000Y-118506900D01*
X164060000Y-121506900D02*
X164060000Y-119007000D01*
X163560000Y-127507100D02*
X163560000Y-127007000D01*
X164560000Y-135507100D02*
X160560000Y-135507100D01*
X160560000Y-127507100D02*
X164560000Y-127507100D01*
X164060100Y-125007000D02*
X161059900Y-125007000D01*
X160560000Y-122007000D02*
X164560000Y-122007000D01*
X160560000Y-118506900D02*
X164560000Y-118506900D01*
X164061000Y-121506900D02*
X161059000Y-121506900D01*
X164061000Y-119007000D02*
X161059000Y-119007000D01*
X165060100Y-136007000D02*
X160059900Y-136007000D01*
X165060100Y-127007000D02*
X160059900Y-127007000D01*
X160560000Y-121007000D02*
X160060000Y-121007000D01*
X165060000Y-121007000D02*
X164560000Y-121007000D01*
G04 #@! TO.C,J7*
X116546000Y-120800000D02*
X116046000Y-120800000D01*
X112046000Y-120800000D02*
X111546000Y-120800000D01*
X116546100Y-126800000D02*
X111545900Y-126800000D01*
X116546100Y-135800000D02*
X111545900Y-135800000D01*
X115547000Y-118800000D02*
X112545000Y-118800000D01*
X115547000Y-121299900D02*
X112545000Y-121299900D01*
X112046000Y-118299900D02*
X116046000Y-118299900D01*
X112046000Y-121800000D02*
X116046000Y-121800000D01*
X115546100Y-124800000D02*
X112545900Y-124800000D01*
X112046000Y-127300100D02*
X116046000Y-127300100D01*
X116046000Y-135300100D02*
X112046000Y-135300100D01*
X115046000Y-127300100D02*
X115046000Y-126800000D01*
X115546000Y-121299900D02*
X115546000Y-118800000D01*
X116046000Y-121800000D02*
X116046000Y-118299900D01*
X113046000Y-127300100D02*
X113046000Y-126800000D01*
X112546000Y-121299900D02*
X112546000Y-118800000D01*
X112046000Y-121800000D02*
X112046000Y-118299000D01*
X115546000Y-124800000D02*
X115546000Y-121800000D01*
X116046000Y-135300100D02*
X116046000Y-127300100D01*
X116546000Y-126800000D02*
X116546000Y-120800000D01*
X112546000Y-124800000D02*
X112546000Y-121800000D01*
X112046000Y-135300100D02*
X112046000Y-127300100D01*
X111546000Y-126800000D02*
X111546000Y-120800000D01*
X116546000Y-126800000D02*
X116546000Y-135800000D01*
X111546000Y-135800000D02*
X111546000Y-126800000D01*
G04 #@! TO.C,J8*
X116626000Y-135800000D02*
X116626000Y-126800000D01*
X121626000Y-126800000D02*
X121626000Y-135800000D01*
X116626000Y-126800000D02*
X116626000Y-120800000D01*
X117126000Y-135300100D02*
X117126000Y-127300100D01*
X117626000Y-124800000D02*
X117626000Y-121800000D01*
X121626000Y-126800000D02*
X121626000Y-120800000D01*
X121126000Y-135300100D02*
X121126000Y-127300100D01*
X120626000Y-124800000D02*
X120626000Y-121800000D01*
X117126000Y-121800000D02*
X117126000Y-118299000D01*
X117626000Y-121299900D02*
X117626000Y-118800000D01*
X118126000Y-127300100D02*
X118126000Y-126800000D01*
X121126000Y-121800000D02*
X121126000Y-118299900D01*
X120626000Y-121299900D02*
X120626000Y-118800000D01*
X120126000Y-127300100D02*
X120126000Y-126800000D01*
X121126000Y-135300100D02*
X117126000Y-135300100D01*
X117126000Y-127300100D02*
X121126000Y-127300100D01*
X120626100Y-124800000D02*
X117625900Y-124800000D01*
X117126000Y-121800000D02*
X121126000Y-121800000D01*
X117126000Y-118299900D02*
X121126000Y-118299900D01*
X120627000Y-121299900D02*
X117625000Y-121299900D01*
X120627000Y-118800000D02*
X117625000Y-118800000D01*
X121626100Y-135800000D02*
X116625900Y-135800000D01*
X121626100Y-126800000D02*
X116625900Y-126800000D01*
X117126000Y-120800000D02*
X116626000Y-120800000D01*
X121626000Y-120800000D02*
X121126000Y-120800000D01*
G04 #@! TO.C,J9*
X128738000Y-120800000D02*
X128238000Y-120800000D01*
X124238000Y-120800000D02*
X123738000Y-120800000D01*
X128738100Y-126800000D02*
X123737900Y-126800000D01*
X128738100Y-135800000D02*
X123737900Y-135800000D01*
X127739000Y-118800000D02*
X124737000Y-118800000D01*
X127739000Y-121299900D02*
X124737000Y-121299900D01*
X124238000Y-118299900D02*
X128238000Y-118299900D01*
X124238000Y-121800000D02*
X128238000Y-121800000D01*
X127738100Y-124800000D02*
X124737900Y-124800000D01*
X124238000Y-127300100D02*
X128238000Y-127300100D01*
X128238000Y-135300100D02*
X124238000Y-135300100D01*
X127238000Y-127300100D02*
X127238000Y-126800000D01*
X127738000Y-121299900D02*
X127738000Y-118800000D01*
X128238000Y-121800000D02*
X128238000Y-118299900D01*
X125238000Y-127300100D02*
X125238000Y-126800000D01*
X124738000Y-121299900D02*
X124738000Y-118800000D01*
X124238000Y-121800000D02*
X124238000Y-118299000D01*
X127738000Y-124800000D02*
X127738000Y-121800000D01*
X128238000Y-135300100D02*
X128238000Y-127300100D01*
X128738000Y-126800000D02*
X128738000Y-120800000D01*
X124738000Y-124800000D02*
X124738000Y-121800000D01*
X124238000Y-135300100D02*
X124238000Y-127300100D01*
X123738000Y-126800000D02*
X123738000Y-120800000D01*
X128738000Y-126800000D02*
X128738000Y-135800000D01*
X123738000Y-135800000D02*
X123738000Y-126800000D01*
G04 #@! TO.C,J10*
X128818000Y-135800000D02*
X128818000Y-126800000D01*
X133818000Y-126800000D02*
X133818000Y-135800000D01*
X128818000Y-126800000D02*
X128818000Y-120800000D01*
X129318000Y-135300100D02*
X129318000Y-127300100D01*
X129818000Y-124800000D02*
X129818000Y-121800000D01*
X133818000Y-126800000D02*
X133818000Y-120800000D01*
X133318000Y-135300100D02*
X133318000Y-127300100D01*
X132818000Y-124800000D02*
X132818000Y-121800000D01*
X129318000Y-121800000D02*
X129318000Y-118299000D01*
X129818000Y-121299900D02*
X129818000Y-118800000D01*
X130318000Y-127300100D02*
X130318000Y-126800000D01*
X133318000Y-121800000D02*
X133318000Y-118299900D01*
X132818000Y-121299900D02*
X132818000Y-118800000D01*
X132318000Y-127300100D02*
X132318000Y-126800000D01*
X133318000Y-135300100D02*
X129318000Y-135300100D01*
X129318000Y-127300100D02*
X133318000Y-127300100D01*
X132818100Y-124800000D02*
X129817900Y-124800000D01*
X129318000Y-121800000D02*
X133318000Y-121800000D01*
X129318000Y-118299900D02*
X133318000Y-118299900D01*
X132819000Y-121299900D02*
X129817000Y-121299900D01*
X132819000Y-118800000D02*
X129817000Y-118800000D01*
X133818100Y-135800000D02*
X128817900Y-135800000D01*
X133818100Y-126800000D02*
X128817900Y-126800000D01*
X129318000Y-120800000D02*
X128818000Y-120800000D01*
X133818000Y-120800000D02*
X133318000Y-120800000D01*
G04 #@! TO.C,J11*
X147788000Y-121007000D02*
X147288000Y-121007000D01*
X143288000Y-121007000D02*
X142788000Y-121007000D01*
X147788100Y-127007000D02*
X142787900Y-127007000D01*
X147788100Y-136007000D02*
X142787900Y-136007000D01*
X146789000Y-119007000D02*
X143787000Y-119007000D01*
X146789000Y-121506900D02*
X143787000Y-121506900D01*
X143288000Y-118506900D02*
X147288000Y-118506900D01*
X143288000Y-122007000D02*
X147288000Y-122007000D01*
X146788100Y-125007000D02*
X143787900Y-125007000D01*
X143288000Y-127507100D02*
X147288000Y-127507100D01*
X147288000Y-135507100D02*
X143288000Y-135507100D01*
X146288000Y-127507100D02*
X146288000Y-127007000D01*
X146788000Y-121506900D02*
X146788000Y-119007000D01*
X147288000Y-122007000D02*
X147288000Y-118506900D01*
X144288000Y-127507100D02*
X144288000Y-127007000D01*
X143788000Y-121506900D02*
X143788000Y-119007000D01*
X143288000Y-122007000D02*
X143288000Y-118506000D01*
X146788000Y-125007000D02*
X146788000Y-122007000D01*
X147288000Y-135507100D02*
X147288000Y-127507100D01*
X147788000Y-127007000D02*
X147788000Y-121007000D01*
X143788000Y-125007000D02*
X143788000Y-122007000D01*
X143288000Y-135507100D02*
X143288000Y-127507100D01*
X142788000Y-127007000D02*
X142788000Y-121007000D01*
X147788000Y-127007000D02*
X147788000Y-136007000D01*
X142788000Y-136007000D02*
X142788000Y-127007000D01*
G04 #@! TO.C,J12*
X147868000Y-136007000D02*
X147868000Y-127007000D01*
X152868000Y-127007000D02*
X152868000Y-136007000D01*
X147868000Y-127007000D02*
X147868000Y-121007000D01*
X148368000Y-135507100D02*
X148368000Y-127507100D01*
X148868000Y-125007000D02*
X148868000Y-122007000D01*
X152868000Y-127007000D02*
X152868000Y-121007000D01*
X152368000Y-135507100D02*
X152368000Y-127507100D01*
X151868000Y-125007000D02*
X151868000Y-122007000D01*
X148368000Y-122007000D02*
X148368000Y-118506000D01*
X148868000Y-121506900D02*
X148868000Y-119007000D01*
X149368000Y-127507100D02*
X149368000Y-127007000D01*
X152368000Y-122007000D02*
X152368000Y-118506900D01*
X151868000Y-121506900D02*
X151868000Y-119007000D01*
X151368000Y-127507100D02*
X151368000Y-127007000D01*
X152368000Y-135507100D02*
X148368000Y-135507100D01*
X148368000Y-127507100D02*
X152368000Y-127507100D01*
X151868100Y-125007000D02*
X148867900Y-125007000D01*
X148368000Y-122007000D02*
X152368000Y-122007000D01*
X148368000Y-118506900D02*
X152368000Y-118506900D01*
X151869000Y-121506900D02*
X148867000Y-121506900D01*
X151869000Y-119007000D02*
X148867000Y-119007000D01*
X152868100Y-136007000D02*
X147867900Y-136007000D01*
X152868100Y-127007000D02*
X147867900Y-127007000D01*
X148368000Y-121007000D02*
X147868000Y-121007000D01*
X152868000Y-121007000D02*
X152368000Y-121007000D01*
G04 #@! TO.C,J13*
X159980000Y-121007000D02*
X159480000Y-121007000D01*
X155480000Y-121007000D02*
X154980000Y-121007000D01*
X159980100Y-127007000D02*
X154979900Y-127007000D01*
X159980100Y-136007000D02*
X154979900Y-136007000D01*
X158981000Y-119007000D02*
X155979000Y-119007000D01*
X158981000Y-121506900D02*
X155979000Y-121506900D01*
X155480000Y-118506900D02*
X159480000Y-118506900D01*
X155480000Y-122007000D02*
X159480000Y-122007000D01*
X158980100Y-125007000D02*
X155979900Y-125007000D01*
X155480000Y-127507100D02*
X159480000Y-127507100D01*
X159480000Y-135507100D02*
X155480000Y-135507100D01*
X158480000Y-127507100D02*
X158480000Y-127007000D01*
X158980000Y-121506900D02*
X158980000Y-119007000D01*
X159480000Y-122007000D02*
X159480000Y-118506900D01*
X156480000Y-127507100D02*
X156480000Y-127007000D01*
X155980000Y-121506900D02*
X155980000Y-119007000D01*
X155480000Y-122007000D02*
X155480000Y-118506000D01*
X158980000Y-125007000D02*
X158980000Y-122007000D01*
X159480000Y-135507100D02*
X159480000Y-127507100D01*
X159980000Y-127007000D02*
X159980000Y-121007000D01*
X155980000Y-125007000D02*
X155980000Y-122007000D01*
X155480000Y-135507100D02*
X155480000Y-127507100D01*
X154980000Y-127007000D02*
X154980000Y-121007000D01*
X159980000Y-127007000D02*
X159980000Y-136007000D01*
X154980000Y-136007000D02*
X154980000Y-127007000D01*
G04 #@! TO.C,J16*
X178856000Y-136040000D02*
X178856000Y-127040000D01*
X183856000Y-127040000D02*
X183856000Y-136040000D01*
X178856000Y-127040000D02*
X178856000Y-121040000D01*
X179356000Y-135540100D02*
X179356000Y-127540100D01*
X179856000Y-125040000D02*
X179856000Y-122040000D01*
X183856000Y-127040000D02*
X183856000Y-121040000D01*
X183356000Y-135540100D02*
X183356000Y-127540100D01*
X182856000Y-125040000D02*
X182856000Y-122040000D01*
X179356000Y-122040000D02*
X179356000Y-118539000D01*
X179856000Y-121539900D02*
X179856000Y-119040000D01*
X180356000Y-127540100D02*
X180356000Y-127040000D01*
X183356000Y-122040000D02*
X183356000Y-118539900D01*
X182856000Y-121539900D02*
X182856000Y-119040000D01*
X182356000Y-127540100D02*
X182356000Y-127040000D01*
X183356000Y-135540100D02*
X179356000Y-135540100D01*
X179356000Y-127540100D02*
X183356000Y-127540100D01*
X182856100Y-125040000D02*
X179855900Y-125040000D01*
X179356000Y-122040000D02*
X183356000Y-122040000D01*
X179356000Y-118539900D02*
X183356000Y-118539900D01*
X182857000Y-121539900D02*
X179855000Y-121539900D01*
X182857000Y-119040000D02*
X179855000Y-119040000D01*
X183856100Y-136040000D02*
X178855900Y-136040000D01*
X183856100Y-127040000D02*
X178855900Y-127040000D01*
X179356000Y-121040000D02*
X178856000Y-121040000D01*
X183856000Y-121040000D02*
X183356000Y-121040000D01*
G04 #@! TO.C,J17*
X190968000Y-121040000D02*
X190468000Y-121040000D01*
X186468000Y-121040000D02*
X185968000Y-121040000D01*
X190968100Y-127040000D02*
X185967900Y-127040000D01*
X190968100Y-136040000D02*
X185967900Y-136040000D01*
X189969000Y-119040000D02*
X186967000Y-119040000D01*
X189969000Y-121539900D02*
X186967000Y-121539900D01*
X186468000Y-118539900D02*
X190468000Y-118539900D01*
X186468000Y-122040000D02*
X190468000Y-122040000D01*
X189968100Y-125040000D02*
X186967900Y-125040000D01*
X186468000Y-127540100D02*
X190468000Y-127540100D01*
X190468000Y-135540100D02*
X186468000Y-135540100D01*
X189468000Y-127540100D02*
X189468000Y-127040000D01*
X189968000Y-121539900D02*
X189968000Y-119040000D01*
X190468000Y-122040000D02*
X190468000Y-118539900D01*
X187468000Y-127540100D02*
X187468000Y-127040000D01*
X186968000Y-121539900D02*
X186968000Y-119040000D01*
X186468000Y-122040000D02*
X186468000Y-118539000D01*
X189968000Y-125040000D02*
X189968000Y-122040000D01*
X190468000Y-135540100D02*
X190468000Y-127540100D01*
X190968000Y-127040000D02*
X190968000Y-121040000D01*
X186968000Y-125040000D02*
X186968000Y-122040000D01*
X186468000Y-135540100D02*
X186468000Y-127540100D01*
X185968000Y-127040000D02*
X185968000Y-121040000D01*
X190968000Y-127040000D02*
X190968000Y-136040000D01*
X185968000Y-136040000D02*
X185968000Y-127040000D01*
G04 #@! TO.C,J18*
X191048000Y-136040000D02*
X191048000Y-127040000D01*
X196048000Y-127040000D02*
X196048000Y-136040000D01*
X191048000Y-127040000D02*
X191048000Y-121040000D01*
X191548000Y-135540100D02*
X191548000Y-127540100D01*
X192048000Y-125040000D02*
X192048000Y-122040000D01*
X196048000Y-127040000D02*
X196048000Y-121040000D01*
X195548000Y-135540100D02*
X195548000Y-127540100D01*
X195048000Y-125040000D02*
X195048000Y-122040000D01*
X191548000Y-122040000D02*
X191548000Y-118539000D01*
X192048000Y-121539900D02*
X192048000Y-119040000D01*
X192548000Y-127540100D02*
X192548000Y-127040000D01*
X195548000Y-122040000D02*
X195548000Y-118539900D01*
X195048000Y-121539900D02*
X195048000Y-119040000D01*
X194548000Y-127540100D02*
X194548000Y-127040000D01*
X195548000Y-135540100D02*
X191548000Y-135540100D01*
X191548000Y-127540100D02*
X195548000Y-127540100D01*
X195048100Y-125040000D02*
X192047900Y-125040000D01*
X191548000Y-122040000D02*
X195548000Y-122040000D01*
X191548000Y-118539900D02*
X195548000Y-118539900D01*
X195049000Y-121539900D02*
X192047000Y-121539900D01*
X195049000Y-119040000D02*
X192047000Y-119040000D01*
X196048100Y-136040000D02*
X191047900Y-136040000D01*
X196048100Y-127040000D02*
X191047900Y-127040000D01*
X191548000Y-121040000D02*
X191048000Y-121040000D01*
X196048000Y-121040000D02*
X195548000Y-121040000D01*
G04 #@! TO.C,J19*
X192296000Y-93512000D02*
X192296000Y-94012000D01*
X192296000Y-98012000D02*
X192296000Y-98512000D01*
X198296000Y-93511900D02*
X198296000Y-98512100D01*
X207296000Y-93511900D02*
X207296000Y-98512100D01*
X190296000Y-94511000D02*
X190296000Y-97513000D01*
X192795900Y-94511000D02*
X192795900Y-97513000D01*
X189795900Y-98012000D02*
X189795900Y-94012000D01*
X193296000Y-98012000D02*
X193296000Y-94012000D01*
X196296000Y-94511900D02*
X196296000Y-97512100D01*
X198796100Y-98012000D02*
X198796100Y-94012000D01*
X206796100Y-94012000D02*
X206796100Y-98012000D01*
X198796100Y-95012000D02*
X198296000Y-95012000D01*
X192795900Y-94512000D02*
X190296000Y-94512000D01*
X193296000Y-94012000D02*
X189795900Y-94012000D01*
X198796100Y-97012000D02*
X198296000Y-97012000D01*
X192795900Y-97512000D02*
X190296000Y-97512000D01*
X193296000Y-98012000D02*
X189795000Y-98012000D01*
X196296000Y-94512000D02*
X193296000Y-94512000D01*
X206796100Y-94012000D02*
X198796100Y-94012000D01*
X198296000Y-93512000D02*
X192296000Y-93512000D01*
X196296000Y-97512000D02*
X193296000Y-97512000D01*
X206796100Y-98012000D02*
X198796100Y-98012000D01*
X198296000Y-98512000D02*
X192296000Y-98512000D01*
X198296000Y-93512000D02*
X207296000Y-93512000D01*
X207296000Y-98512000D02*
X198296000Y-98512000D01*
G04 #@! TO.C,J21*
X207240000Y-86320000D02*
X198240000Y-86320000D01*
X198240000Y-81320000D02*
X207240000Y-81320000D01*
X198240000Y-86320000D02*
X192240000Y-86320000D01*
X206740100Y-85820000D02*
X198740100Y-85820000D01*
X196240000Y-85320000D02*
X193240000Y-85320000D01*
X198240000Y-81320000D02*
X192240000Y-81320000D01*
X206740100Y-81820000D02*
X198740100Y-81820000D01*
X196240000Y-82320000D02*
X193240000Y-82320000D01*
X193240000Y-85820000D02*
X189739000Y-85820000D01*
X192739900Y-85320000D02*
X190240000Y-85320000D01*
X198740100Y-84820000D02*
X198240000Y-84820000D01*
X193240000Y-81820000D02*
X189739900Y-81820000D01*
X192739900Y-82320000D02*
X190240000Y-82320000D01*
X198740100Y-82820000D02*
X198240000Y-82820000D01*
X206740100Y-81820000D02*
X206740100Y-85820000D01*
X198740100Y-85820000D02*
X198740100Y-81820000D01*
X196240000Y-82319900D02*
X196240000Y-85320100D01*
X193240000Y-85820000D02*
X193240000Y-81820000D01*
X189739900Y-85820000D02*
X189739900Y-81820000D01*
X192739900Y-82319000D02*
X192739900Y-85321000D01*
X190240000Y-82319000D02*
X190240000Y-85321000D01*
X207240000Y-81319900D02*
X207240000Y-86320100D01*
X198240000Y-81319900D02*
X198240000Y-86320100D01*
X192240000Y-85820000D02*
X192240000Y-86320000D01*
X192240000Y-81320000D02*
X192240000Y-81820000D01*
G04 #@! TO.C,J22*
X192240000Y-76240000D02*
X192240000Y-76740000D01*
X192240000Y-80740000D02*
X192240000Y-81240000D01*
X198240000Y-76239900D02*
X198240000Y-81240100D01*
X207240000Y-76239900D02*
X207240000Y-81240100D01*
X190240000Y-77239000D02*
X190240000Y-80241000D01*
X192739900Y-77239000D02*
X192739900Y-80241000D01*
X189739900Y-80740000D02*
X189739900Y-76740000D01*
X193240000Y-80740000D02*
X193240000Y-76740000D01*
X196240000Y-77239900D02*
X196240000Y-80240100D01*
X198740100Y-80740000D02*
X198740100Y-76740000D01*
X206740100Y-76740000D02*
X206740100Y-80740000D01*
X198740100Y-77740000D02*
X198240000Y-77740000D01*
X192739900Y-77240000D02*
X190240000Y-77240000D01*
X193240000Y-76740000D02*
X189739900Y-76740000D01*
X198740100Y-79740000D02*
X198240000Y-79740000D01*
X192739900Y-80240000D02*
X190240000Y-80240000D01*
X193240000Y-80740000D02*
X189739000Y-80740000D01*
X196240000Y-77240000D02*
X193240000Y-77240000D01*
X206740100Y-76740000D02*
X198740100Y-76740000D01*
X198240000Y-76240000D02*
X192240000Y-76240000D01*
X196240000Y-80240000D02*
X193240000Y-80240000D01*
X206740100Y-80740000D02*
X198740100Y-80740000D01*
X198240000Y-81240000D02*
X192240000Y-81240000D01*
X198240000Y-76240000D02*
X207240000Y-76240000D01*
X207240000Y-81240000D02*
X198240000Y-81240000D01*
G04 #@! TO.C,J15*
X173776000Y-136040000D02*
X173776000Y-127040000D01*
X178776000Y-127040000D02*
X178776000Y-136040000D01*
X173776000Y-127040000D02*
X173776000Y-121040000D01*
X174276000Y-135540100D02*
X174276000Y-127540100D01*
X174776000Y-125040000D02*
X174776000Y-122040000D01*
X178776000Y-127040000D02*
X178776000Y-121040000D01*
X178276000Y-135540100D02*
X178276000Y-127540100D01*
X177776000Y-125040000D02*
X177776000Y-122040000D01*
X174276000Y-122040000D02*
X174276000Y-118539000D01*
X174776000Y-121539900D02*
X174776000Y-119040000D01*
X175276000Y-127540100D02*
X175276000Y-127040000D01*
X178276000Y-122040000D02*
X178276000Y-118539900D01*
X177776000Y-121539900D02*
X177776000Y-119040000D01*
X177276000Y-127540100D02*
X177276000Y-127040000D01*
X178276000Y-135540100D02*
X174276000Y-135540100D01*
X174276000Y-127540100D02*
X178276000Y-127540100D01*
X177776100Y-125040000D02*
X174775900Y-125040000D01*
X174276000Y-122040000D02*
X178276000Y-122040000D01*
X174276000Y-118539900D02*
X178276000Y-118539900D01*
X177777000Y-121539900D02*
X174775000Y-121539900D01*
X177777000Y-119040000D02*
X174775000Y-119040000D01*
X178776100Y-136040000D02*
X173775900Y-136040000D01*
X178776100Y-127040000D02*
X173775900Y-127040000D01*
X174276000Y-121040000D02*
X173776000Y-121040000D01*
X178776000Y-121040000D02*
X178276000Y-121040000D01*
G04 #@! TO.C,J20*
X192296000Y-88432000D02*
X192296000Y-88932000D01*
X192296000Y-92932000D02*
X192296000Y-93432000D01*
X198296000Y-88431900D02*
X198296000Y-93432100D01*
X207296000Y-88431900D02*
X207296000Y-93432100D01*
X190296000Y-89431000D02*
X190296000Y-92433000D01*
X192795900Y-89431000D02*
X192795900Y-92433000D01*
X189795900Y-92932000D02*
X189795900Y-88932000D01*
X193296000Y-92932000D02*
X193296000Y-88932000D01*
X196296000Y-89431900D02*
X196296000Y-92432100D01*
X198796100Y-92932000D02*
X198796100Y-88932000D01*
X206796100Y-88932000D02*
X206796100Y-92932000D01*
X198796100Y-89932000D02*
X198296000Y-89932000D01*
X192795900Y-89432000D02*
X190296000Y-89432000D01*
X193296000Y-88932000D02*
X189795900Y-88932000D01*
X198796100Y-91932000D02*
X198296000Y-91932000D01*
X192795900Y-92432000D02*
X190296000Y-92432000D01*
X193296000Y-92932000D02*
X189795000Y-92932000D01*
X196296000Y-89432000D02*
X193296000Y-89432000D01*
X206796100Y-88932000D02*
X198796100Y-88932000D01*
X198296000Y-88432000D02*
X192296000Y-88432000D01*
X196296000Y-92432000D02*
X193296000Y-92432000D01*
X206796100Y-92932000D02*
X198796100Y-92932000D01*
X198296000Y-93432000D02*
X192296000Y-93432000D01*
X198296000Y-88432000D02*
X207296000Y-88432000D01*
X207296000Y-93432000D02*
X198296000Y-93432000D01*
G04 #@! TO.C,J5*
X178054000Y-48006000D02*
X180594000Y-48006000D01*
X180594000Y-48006000D02*
X180594000Y-58166000D01*
X180594000Y-58166000D02*
X178054000Y-58166000D01*
X178054000Y-58166000D02*
X178054000Y-48006000D01*
G04 #@! TO.C,J4*
X175514000Y-48006000D02*
X175514000Y-53086000D01*
X175514000Y-53086000D02*
X167894000Y-53086000D01*
X167894000Y-53086000D02*
X167894000Y-48006000D01*
X167894000Y-48006000D02*
X175514000Y-48006000D01*
G04 #@! TO.C,J2*
X204470000Y-69850000D02*
X199390000Y-69850000D01*
X199390000Y-69850000D02*
X199390000Y-59690000D01*
X199390000Y-59690000D02*
X204470000Y-59690000D01*
X204470000Y-59690000D02*
X204470000Y-69850000D01*
G04 #@! TO.C,J6*
X153162000Y-53086000D02*
X153162000Y-48006000D01*
X153162000Y-48006000D02*
X165862000Y-48006000D01*
X165862000Y-48006000D02*
X165862000Y-53086000D01*
X165862000Y-53086000D02*
X153162000Y-53086000D01*
G04 #@! TO.C,J1*
X128270000Y-53086000D02*
X128270000Y-48006000D01*
X128270000Y-48006000D02*
X151130000Y-48006000D01*
X151130000Y-48006000D02*
X151130000Y-53086000D01*
X151130000Y-53086000D02*
X128270000Y-53086000D01*
D11*
G04 #@! TO.C,Q7*
X182764000Y-113722000D02*
X182764000Y-114822000D01*
X183034000Y-113722000D02*
X182764000Y-113722000D01*
X183034000Y-112222000D02*
X183034000Y-113722000D01*
X176404000Y-113722000D02*
X176404000Y-116552000D01*
X176134000Y-113722000D02*
X176404000Y-113722000D01*
X176134000Y-112222000D02*
X176134000Y-113722000D01*
G04 #@! TO.C,Q10*
X183850000Y-83714000D02*
X185350000Y-83714000D01*
X185350000Y-83714000D02*
X185350000Y-83444000D01*
X185350000Y-83444000D02*
X188180000Y-83444000D01*
X183850000Y-76814000D02*
X185350000Y-76814000D01*
X185350000Y-76814000D02*
X185350000Y-77084000D01*
X185350000Y-77084000D02*
X186450000Y-77084000D01*
G04 #@! TO.C,Q9*
X185267000Y-89785000D02*
X186367000Y-89785000D01*
X185267000Y-89515000D02*
X185267000Y-89785000D01*
X183767000Y-89515000D02*
X185267000Y-89515000D01*
X185267000Y-96145000D02*
X188097000Y-96145000D01*
X185267000Y-96415000D02*
X185267000Y-96145000D01*
X183767000Y-96415000D02*
X185267000Y-96415000D01*
G04 #@! TO.C,Q8*
X188574000Y-112290000D02*
X188574000Y-113790000D01*
X188574000Y-113790000D02*
X188844000Y-113790000D01*
X188844000Y-113790000D02*
X188844000Y-116620000D01*
X195474000Y-112290000D02*
X195474000Y-113790000D01*
X195474000Y-113790000D02*
X195204000Y-113790000D01*
X195204000Y-113790000D02*
X195204000Y-114890000D01*
G04 #@! TO.C,Q6*
X157840000Y-112417000D02*
X157840000Y-113917000D01*
X157840000Y-113917000D02*
X158110000Y-113917000D01*
X158110000Y-113917000D02*
X158110000Y-116747000D01*
X164740000Y-112417000D02*
X164740000Y-113917000D01*
X164740000Y-113917000D02*
X164470000Y-113917000D01*
X164470000Y-113917000D02*
X164470000Y-115017000D01*
G04 #@! TO.C,Q3*
X120529000Y-113639000D02*
X120529000Y-114739000D01*
X120799000Y-113639000D02*
X120529000Y-113639000D01*
X120799000Y-112139000D02*
X120799000Y-113639000D01*
X114169000Y-113639000D02*
X114169000Y-116469000D01*
X113899000Y-113639000D02*
X114169000Y-113639000D01*
X113899000Y-112139000D02*
X113899000Y-113639000D01*
G04 #@! TO.C,Q4*
X126598000Y-112222000D02*
X126598000Y-113722000D01*
X126598000Y-113722000D02*
X126868000Y-113722000D01*
X126868000Y-113722000D02*
X126868000Y-116552000D01*
X133498000Y-112222000D02*
X133498000Y-113722000D01*
X133498000Y-113722000D02*
X133228000Y-113722000D01*
X133228000Y-113722000D02*
X133228000Y-114822000D01*
G04 #@! TO.C,Q5*
X151769000Y-113766000D02*
X151769000Y-114866000D01*
X152039000Y-113766000D02*
X151769000Y-113766000D01*
X152039000Y-112266000D02*
X152039000Y-113766000D01*
X145409000Y-113766000D02*
X145409000Y-116596000D01*
X145139000Y-113766000D02*
X145409000Y-113766000D01*
X145139000Y-112266000D02*
X145139000Y-113766000D01*
D13*
G04 #@! TO.C,G\002A\002A\002A*
G36*
X204677571Y-109768134D02*
X204673286Y-109790957D01*
X204667301Y-109800945D01*
X204656167Y-109802105D01*
X204649317Y-109800961D01*
X204625963Y-109796854D01*
X204597010Y-109792184D01*
X204590908Y-109791252D01*
X204555183Y-109785865D01*
X204560113Y-109749893D01*
X204559196Y-109712991D01*
X204547687Y-109679970D01*
X204527694Y-109656138D01*
X204521269Y-109652051D01*
X204507201Y-109649055D01*
X204478600Y-109646570D01*
X204437860Y-109644714D01*
X204387377Y-109643605D01*
X204343557Y-109643333D01*
X204182133Y-109643333D01*
X204182133Y-109516333D01*
X204674045Y-109516333D01*
X204671506Y-109564288D01*
X204669575Y-109591546D01*
X204665474Y-109606784D01*
X204656199Y-109614899D01*
X204638748Y-109620782D01*
X204636432Y-109621438D01*
X204603897Y-109630633D01*
X204630860Y-109650512D01*
X204660754Y-109682474D01*
X204676709Y-109722638D01*
X204677575Y-109768107D01*
X204677571Y-109768134D01*
X204677571Y-109768134D01*
G37*
X204677571Y-109768134D02*
X204673286Y-109790957D01*
X204667301Y-109800945D01*
X204656167Y-109802105D01*
X204649317Y-109800961D01*
X204625963Y-109796854D01*
X204597010Y-109792184D01*
X204590908Y-109791252D01*
X204555183Y-109785865D01*
X204560113Y-109749893D01*
X204559196Y-109712991D01*
X204547687Y-109679970D01*
X204527694Y-109656138D01*
X204521269Y-109652051D01*
X204507201Y-109649055D01*
X204478600Y-109646570D01*
X204437860Y-109644714D01*
X204387377Y-109643605D01*
X204343557Y-109643333D01*
X204182133Y-109643333D01*
X204182133Y-109516333D01*
X204674045Y-109516333D01*
X204671506Y-109564288D01*
X204669575Y-109591546D01*
X204665474Y-109606784D01*
X204656199Y-109614899D01*
X204638748Y-109620782D01*
X204636432Y-109621438D01*
X204603897Y-109630633D01*
X204630860Y-109650512D01*
X204660754Y-109682474D01*
X204676709Y-109722638D01*
X204677575Y-109768107D01*
X204677571Y-109768134D01*
G36*
X204547756Y-108710889D02*
X204500325Y-108727355D01*
X204454610Y-108742597D01*
X204414738Y-108755284D01*
X204384838Y-108764083D01*
X204375936Y-108766371D01*
X204350731Y-108772588D01*
X204340343Y-108776558D01*
X204343058Y-108779697D01*
X204355700Y-108783080D01*
X204372165Y-108787045D01*
X204401782Y-108794275D01*
X204441267Y-108803962D01*
X204487336Y-108815303D01*
X204525033Y-108824606D01*
X204668967Y-108860167D01*
X204671488Y-108913083D01*
X204672197Y-108942557D01*
X204670271Y-108958764D01*
X204664958Y-108965268D01*
X204660318Y-108966000D01*
X204648200Y-108963606D01*
X204622701Y-108956946D01*
X204586602Y-108946802D01*
X204542685Y-108933955D01*
X204493732Y-108919189D01*
X204492697Y-108918872D01*
X204437124Y-108901862D01*
X204380358Y-108884493D01*
X204327029Y-108868182D01*
X204281770Y-108854347D01*
X204255809Y-108846416D01*
X204172851Y-108821088D01*
X204175376Y-108773970D01*
X204177900Y-108726853D01*
X204292200Y-108685433D01*
X204338948Y-108668792D01*
X204385390Y-108652781D01*
X204426607Y-108639064D01*
X204457686Y-108629301D01*
X204461533Y-108628175D01*
X204489852Y-108619743D01*
X204503662Y-108614376D01*
X204504806Y-108610731D01*
X204495123Y-108607463D01*
X204491167Y-108606534D01*
X204474988Y-108602004D01*
X204445936Y-108593054D01*
X204407176Y-108580691D01*
X204361874Y-108565924D01*
X204321833Y-108552649D01*
X204177900Y-108504567D01*
X204175358Y-108455781D01*
X204175248Y-108424263D01*
X204179240Y-108407293D01*
X204183825Y-108403251D01*
X204211891Y-108393940D01*
X204250270Y-108381543D01*
X204296513Y-108366821D01*
X204348173Y-108350531D01*
X204402800Y-108333433D01*
X204457947Y-108316286D01*
X204511166Y-108299850D01*
X204560008Y-108284883D01*
X204602025Y-108272146D01*
X204634768Y-108262396D01*
X204655791Y-108256394D01*
X204662536Y-108254800D01*
X204668415Y-108258855D01*
X204671454Y-108272836D01*
X204672023Y-108299462D01*
X204671440Y-108319917D01*
X204668967Y-108385034D01*
X204546200Y-108420797D01*
X204498805Y-108434085D01*
X204453058Y-108445987D01*
X204413324Y-108455430D01*
X204383968Y-108461341D01*
X204377273Y-108462337D01*
X204351522Y-108466972D01*
X204342636Y-108472263D01*
X204350564Y-108478121D01*
X204375253Y-108484462D01*
X204392355Y-108487537D01*
X204413610Y-108492407D01*
X204446853Y-108501635D01*
X204488072Y-108514041D01*
X204533254Y-108528444D01*
X204548988Y-108533647D01*
X204668967Y-108573712D01*
X204671454Y-108619931D01*
X204673940Y-108666150D01*
X204547756Y-108710889D01*
X204547756Y-108710889D01*
G37*
X204547756Y-108710889D02*
X204500325Y-108727355D01*
X204454610Y-108742597D01*
X204414738Y-108755284D01*
X204384838Y-108764083D01*
X204375936Y-108766371D01*
X204350731Y-108772588D01*
X204340343Y-108776558D01*
X204343058Y-108779697D01*
X204355700Y-108783080D01*
X204372165Y-108787045D01*
X204401782Y-108794275D01*
X204441267Y-108803962D01*
X204487336Y-108815303D01*
X204525033Y-108824606D01*
X204668967Y-108860167D01*
X204671488Y-108913083D01*
X204672197Y-108942557D01*
X204670271Y-108958764D01*
X204664958Y-108965268D01*
X204660318Y-108966000D01*
X204648200Y-108963606D01*
X204622701Y-108956946D01*
X204586602Y-108946802D01*
X204542685Y-108933955D01*
X204493732Y-108919189D01*
X204492697Y-108918872D01*
X204437124Y-108901862D01*
X204380358Y-108884493D01*
X204327029Y-108868182D01*
X204281770Y-108854347D01*
X204255809Y-108846416D01*
X204172851Y-108821088D01*
X204175376Y-108773970D01*
X204177900Y-108726853D01*
X204292200Y-108685433D01*
X204338948Y-108668792D01*
X204385390Y-108652781D01*
X204426607Y-108639064D01*
X204457686Y-108629301D01*
X204461533Y-108628175D01*
X204489852Y-108619743D01*
X204503662Y-108614376D01*
X204504806Y-108610731D01*
X204495123Y-108607463D01*
X204491167Y-108606534D01*
X204474988Y-108602004D01*
X204445936Y-108593054D01*
X204407176Y-108580691D01*
X204361874Y-108565924D01*
X204321833Y-108552649D01*
X204177900Y-108504567D01*
X204175358Y-108455781D01*
X204175248Y-108424263D01*
X204179240Y-108407293D01*
X204183825Y-108403251D01*
X204211891Y-108393940D01*
X204250270Y-108381543D01*
X204296513Y-108366821D01*
X204348173Y-108350531D01*
X204402800Y-108333433D01*
X204457947Y-108316286D01*
X204511166Y-108299850D01*
X204560008Y-108284883D01*
X204602025Y-108272146D01*
X204634768Y-108262396D01*
X204655791Y-108256394D01*
X204662536Y-108254800D01*
X204668415Y-108258855D01*
X204671454Y-108272836D01*
X204672023Y-108299462D01*
X204671440Y-108319917D01*
X204668967Y-108385034D01*
X204546200Y-108420797D01*
X204498805Y-108434085D01*
X204453058Y-108445987D01*
X204413324Y-108455430D01*
X204383968Y-108461341D01*
X204377273Y-108462337D01*
X204351522Y-108466972D01*
X204342636Y-108472263D01*
X204350564Y-108478121D01*
X204375253Y-108484462D01*
X204392355Y-108487537D01*
X204413610Y-108492407D01*
X204446853Y-108501635D01*
X204488072Y-108514041D01*
X204533254Y-108528444D01*
X204548988Y-108533647D01*
X204668967Y-108573712D01*
X204671454Y-108619931D01*
X204673940Y-108666150D01*
X204547756Y-108710889D01*
G36*
X204631377Y-111277400D02*
X204651850Y-111307568D01*
X204671941Y-111351252D01*
X204679483Y-111401107D01*
X204674583Y-111452055D01*
X204657349Y-111499019D01*
X204647446Y-111514963D01*
X204619919Y-111540553D01*
X204579650Y-111560856D01*
X204530128Y-111575401D01*
X204474847Y-111583720D01*
X204417297Y-111585341D01*
X204360969Y-111579794D01*
X204309354Y-111566609D01*
X204297633Y-111562080D01*
X204255521Y-111536821D01*
X204218000Y-111500282D01*
X204191177Y-111458770D01*
X204179124Y-111421665D01*
X204171355Y-111374055D01*
X204168358Y-111321936D01*
X204170621Y-111271304D01*
X204173999Y-111247767D01*
X204180203Y-111217101D01*
X204186646Y-111188996D01*
X204188980Y-111180033D01*
X204196048Y-111154633D01*
X204522103Y-111152485D01*
X204522103Y-111277400D01*
X204403624Y-111277400D01*
X204352313Y-111277866D01*
X204316166Y-111279366D01*
X204293438Y-111282050D01*
X204282381Y-111286068D01*
X204280874Y-111287983D01*
X204278278Y-111302153D01*
X204276420Y-111326474D01*
X204275935Y-111341875D01*
X204278229Y-111375465D01*
X204287588Y-111399888D01*
X204293622Y-111408517D01*
X204319224Y-111432068D01*
X204353530Y-111446979D01*
X204399283Y-111454184D01*
X204431077Y-111455200D01*
X204485490Y-111452180D01*
X204525361Y-111442530D01*
X204552078Y-111425366D01*
X204567028Y-111399803D01*
X204571600Y-111365649D01*
X204569107Y-111337116D01*
X204559353Y-111316319D01*
X204546851Y-111302149D01*
X204522103Y-111277400D01*
X204522103Y-111152485D01*
X204531991Y-111152419D01*
X204867933Y-111150206D01*
X204867933Y-111277400D01*
X204631377Y-111277400D01*
X204631377Y-111277400D01*
G37*
X204631377Y-111277400D02*
X204651850Y-111307568D01*
X204671941Y-111351252D01*
X204679483Y-111401107D01*
X204674583Y-111452055D01*
X204657349Y-111499019D01*
X204647446Y-111514963D01*
X204619919Y-111540553D01*
X204579650Y-111560856D01*
X204530128Y-111575401D01*
X204474847Y-111583720D01*
X204417297Y-111585341D01*
X204360969Y-111579794D01*
X204309354Y-111566609D01*
X204297633Y-111562080D01*
X204255521Y-111536821D01*
X204218000Y-111500282D01*
X204191177Y-111458770D01*
X204179124Y-111421665D01*
X204171355Y-111374055D01*
X204168358Y-111321936D01*
X204170621Y-111271304D01*
X204173999Y-111247767D01*
X204180203Y-111217101D01*
X204186646Y-111188996D01*
X204188980Y-111180033D01*
X204196048Y-111154633D01*
X204522103Y-111152485D01*
X204522103Y-111277400D01*
X204403624Y-111277400D01*
X204352313Y-111277866D01*
X204316166Y-111279366D01*
X204293438Y-111282050D01*
X204282381Y-111286068D01*
X204280874Y-111287983D01*
X204278278Y-111302153D01*
X204276420Y-111326474D01*
X204275935Y-111341875D01*
X204278229Y-111375465D01*
X204287588Y-111399888D01*
X204293622Y-111408517D01*
X204319224Y-111432068D01*
X204353530Y-111446979D01*
X204399283Y-111454184D01*
X204431077Y-111455200D01*
X204485490Y-111452180D01*
X204525361Y-111442530D01*
X204552078Y-111425366D01*
X204567028Y-111399803D01*
X204571600Y-111365649D01*
X204569107Y-111337116D01*
X204559353Y-111316319D01*
X204546851Y-111302149D01*
X204522103Y-111277400D01*
X204522103Y-111152485D01*
X204531991Y-111152419D01*
X204867933Y-111150206D01*
X204867933Y-111277400D01*
X204631377Y-111277400D01*
G36*
X204529267Y-110786333D02*
X204455101Y-110786336D01*
X204386232Y-110786344D01*
X204324498Y-110786356D01*
X204271736Y-110786371D01*
X204229783Y-110786391D01*
X204200477Y-110786412D01*
X204185655Y-110786436D01*
X204184250Y-110786444D01*
X204180141Y-110778900D01*
X204176665Y-110759516D01*
X204175368Y-110744875D01*
X204174448Y-110719941D01*
X204177433Y-110706860D01*
X204187005Y-110700595D01*
X204200768Y-110697202D01*
X204225052Y-110691057D01*
X204234054Y-110684041D01*
X204228744Y-110672520D01*
X204212075Y-110654843D01*
X204184219Y-110615502D01*
X204168776Y-110567547D01*
X204166426Y-110514575D01*
X204176248Y-110464999D01*
X204196243Y-110427489D01*
X204229047Y-110394025D01*
X204270543Y-110368244D01*
X204297134Y-110358199D01*
X204340063Y-110349810D01*
X204390519Y-110346196D01*
X204390519Y-110473689D01*
X204350151Y-110478817D01*
X204318612Y-110491245D01*
X204301467Y-110503326D01*
X204278638Y-110532438D01*
X204271197Y-110567375D01*
X204279391Y-110606370D01*
X204285156Y-110619029D01*
X204297178Y-110634843D01*
X204316135Y-110646190D01*
X204344406Y-110653658D01*
X204384367Y-110657835D01*
X204438396Y-110659309D01*
X204448115Y-110659333D01*
X204496090Y-110658980D01*
X204529691Y-110656930D01*
X204551476Y-110651695D01*
X204564002Y-110641787D01*
X204569828Y-110625717D01*
X204571512Y-110601998D01*
X204571600Y-110587503D01*
X204567422Y-110546239D01*
X204553752Y-110515832D01*
X204528888Y-110494790D01*
X204491126Y-110481623D01*
X204443237Y-110475161D01*
X204390519Y-110473689D01*
X204390519Y-110346196D01*
X204390813Y-110346174D01*
X204444253Y-110347050D01*
X204495250Y-110352196D01*
X204538673Y-110361370D01*
X204563133Y-110370723D01*
X204604928Y-110395916D01*
X204634781Y-110423770D01*
X204657574Y-110458874D01*
X204658216Y-110460117D01*
X204671255Y-110497182D01*
X204678868Y-110542735D01*
X204680280Y-110588982D01*
X204674869Y-110627583D01*
X204666098Y-110659333D01*
X204867933Y-110659333D01*
X204867933Y-110786333D01*
X204529267Y-110786333D01*
X204529267Y-110786333D01*
G37*
X204529267Y-110786333D02*
X204455101Y-110786336D01*
X204386232Y-110786344D01*
X204324498Y-110786356D01*
X204271736Y-110786371D01*
X204229783Y-110786391D01*
X204200477Y-110786412D01*
X204185655Y-110786436D01*
X204184250Y-110786444D01*
X204180141Y-110778900D01*
X204176665Y-110759516D01*
X204175368Y-110744875D01*
X204174448Y-110719941D01*
X204177433Y-110706860D01*
X204187005Y-110700595D01*
X204200768Y-110697202D01*
X204225052Y-110691057D01*
X204234054Y-110684041D01*
X204228744Y-110672520D01*
X204212075Y-110654843D01*
X204184219Y-110615502D01*
X204168776Y-110567547D01*
X204166426Y-110514575D01*
X204176248Y-110464999D01*
X204196243Y-110427489D01*
X204229047Y-110394025D01*
X204270543Y-110368244D01*
X204297134Y-110358199D01*
X204340063Y-110349810D01*
X204390519Y-110346196D01*
X204390519Y-110473689D01*
X204350151Y-110478817D01*
X204318612Y-110491245D01*
X204301467Y-110503326D01*
X204278638Y-110532438D01*
X204271197Y-110567375D01*
X204279391Y-110606370D01*
X204285156Y-110619029D01*
X204297178Y-110634843D01*
X204316135Y-110646190D01*
X204344406Y-110653658D01*
X204384367Y-110657835D01*
X204438396Y-110659309D01*
X204448115Y-110659333D01*
X204496090Y-110658980D01*
X204529691Y-110656930D01*
X204551476Y-110651695D01*
X204564002Y-110641787D01*
X204569828Y-110625717D01*
X204571512Y-110601998D01*
X204571600Y-110587503D01*
X204567422Y-110546239D01*
X204553752Y-110515832D01*
X204528888Y-110494790D01*
X204491126Y-110481623D01*
X204443237Y-110475161D01*
X204390519Y-110473689D01*
X204390519Y-110346196D01*
X204390813Y-110346174D01*
X204444253Y-110347050D01*
X204495250Y-110352196D01*
X204538673Y-110361370D01*
X204563133Y-110370723D01*
X204604928Y-110395916D01*
X204634781Y-110423770D01*
X204657574Y-110458874D01*
X204658216Y-110460117D01*
X204671255Y-110497182D01*
X204678868Y-110542735D01*
X204680280Y-110588982D01*
X204674869Y-110627583D01*
X204666098Y-110659333D01*
X204867933Y-110659333D01*
X204867933Y-110786333D01*
X204529267Y-110786333D01*
G36*
X204673051Y-110136799D02*
X204661928Y-110175262D01*
X204658514Y-110182370D01*
X204630478Y-110221077D01*
X204593119Y-110248060D01*
X204544902Y-110264062D01*
X204484296Y-110269825D01*
X204477896Y-110269867D01*
X204448464Y-110270023D01*
X204426816Y-110268999D01*
X204411764Y-110264549D01*
X204402117Y-110254432D01*
X204396687Y-110236404D01*
X204394283Y-110208222D01*
X204393718Y-110167643D01*
X204393800Y-110112424D01*
X204393800Y-109962950D01*
X204370517Y-109967625D01*
X204329644Y-109979298D01*
X204301401Y-109996374D01*
X204283769Y-110017772D01*
X204271460Y-110050760D01*
X204266859Y-110092522D01*
X204269998Y-110136741D01*
X204280909Y-110177099D01*
X204282959Y-110181863D01*
X204298746Y-110216625D01*
X204261380Y-110234779D01*
X204238848Y-110245320D01*
X204223235Y-110251869D01*
X204219539Y-110252933D01*
X204213964Y-110245875D01*
X204203934Y-110227504D01*
X204193378Y-110205567D01*
X204178654Y-110161338D01*
X204169742Y-110109268D01*
X204167127Y-110055814D01*
X204171294Y-110007433D01*
X204176798Y-109984876D01*
X204199438Y-109936396D01*
X204232685Y-109898690D01*
X204277950Y-109870693D01*
X204336644Y-109851338D01*
X204359893Y-109846541D01*
X204431577Y-109840100D01*
X204470000Y-109844108D01*
X204470000Y-109971318D01*
X204470000Y-110065559D01*
X204470549Y-110109619D01*
X204472340Y-110138713D01*
X204475591Y-110154779D01*
X204480520Y-110159752D01*
X204480583Y-110159753D01*
X204507892Y-110155506D01*
X204536701Y-110144999D01*
X204559742Y-110131259D01*
X204567117Y-110123720D01*
X204575411Y-110103454D01*
X204579839Y-110076217D01*
X204580067Y-110069150D01*
X204572413Y-110031219D01*
X204551313Y-110000728D01*
X204519563Y-109980988D01*
X204501750Y-109976365D01*
X204470000Y-109971318D01*
X204470000Y-109844108D01*
X204497989Y-109847029D01*
X204557259Y-109866615D01*
X204607517Y-109898142D01*
X204646893Y-109940897D01*
X204659098Y-109960833D01*
X204671385Y-109996084D01*
X204677795Y-110041181D01*
X204678345Y-110090096D01*
X204673051Y-110136799D01*
X204673051Y-110136799D01*
G37*
X204673051Y-110136799D02*
X204661928Y-110175262D01*
X204658514Y-110182370D01*
X204630478Y-110221077D01*
X204593119Y-110248060D01*
X204544902Y-110264062D01*
X204484296Y-110269825D01*
X204477896Y-110269867D01*
X204448464Y-110270023D01*
X204426816Y-110268999D01*
X204411764Y-110264549D01*
X204402117Y-110254432D01*
X204396687Y-110236404D01*
X204394283Y-110208222D01*
X204393718Y-110167643D01*
X204393800Y-110112424D01*
X204393800Y-109962950D01*
X204370517Y-109967625D01*
X204329644Y-109979298D01*
X204301401Y-109996374D01*
X204283769Y-110017772D01*
X204271460Y-110050760D01*
X204266859Y-110092522D01*
X204269998Y-110136741D01*
X204280909Y-110177099D01*
X204282959Y-110181863D01*
X204298746Y-110216625D01*
X204261380Y-110234779D01*
X204238848Y-110245320D01*
X204223235Y-110251869D01*
X204219539Y-110252933D01*
X204213964Y-110245875D01*
X204203934Y-110227504D01*
X204193378Y-110205567D01*
X204178654Y-110161338D01*
X204169742Y-110109268D01*
X204167127Y-110055814D01*
X204171294Y-110007433D01*
X204176798Y-109984876D01*
X204199438Y-109936396D01*
X204232685Y-109898690D01*
X204277950Y-109870693D01*
X204336644Y-109851338D01*
X204359893Y-109846541D01*
X204431577Y-109840100D01*
X204470000Y-109844108D01*
X204470000Y-109971318D01*
X204470000Y-110065559D01*
X204470549Y-110109619D01*
X204472340Y-110138713D01*
X204475591Y-110154779D01*
X204480520Y-110159752D01*
X204480583Y-110159753D01*
X204507892Y-110155506D01*
X204536701Y-110144999D01*
X204559742Y-110131259D01*
X204567117Y-110123720D01*
X204575411Y-110103454D01*
X204579839Y-110076217D01*
X204580067Y-110069150D01*
X204572413Y-110031219D01*
X204551313Y-110000728D01*
X204519563Y-109980988D01*
X204501750Y-109976365D01*
X204470000Y-109971318D01*
X204470000Y-109844108D01*
X204497989Y-109847029D01*
X204557259Y-109866615D01*
X204607517Y-109898142D01*
X204646893Y-109940897D01*
X204659098Y-109960833D01*
X204671385Y-109996084D01*
X204677795Y-110041181D01*
X204678345Y-110090096D01*
X204673051Y-110136799D01*
G36*
X204679561Y-109249717D02*
X204667892Y-109307075D01*
X204643544Y-109353722D01*
X204607453Y-109389013D01*
X204560558Y-109412304D01*
X204503794Y-109422948D01*
X204438099Y-109420302D01*
X204432782Y-109419541D01*
X204393800Y-109413696D01*
X204393800Y-109116184D01*
X204362249Y-109121304D01*
X204322132Y-109134986D01*
X204290040Y-109160048D01*
X204277045Y-109178483D01*
X204270545Y-109202113D01*
X204268553Y-109235912D01*
X204270724Y-109273825D01*
X204276710Y-109309799D01*
X204286165Y-109337781D01*
X204286170Y-109337791D01*
X204294987Y-109356691D01*
X204298731Y-109367633D01*
X204298587Y-109368500D01*
X204290450Y-109373027D01*
X204272078Y-109382561D01*
X204258917Y-109389246D01*
X204236336Y-109400110D01*
X204223623Y-109403443D01*
X204215654Y-109399587D01*
X204209958Y-109392524D01*
X204192743Y-109359307D01*
X204179316Y-109314725D01*
X204170475Y-109264085D01*
X204167020Y-109212689D01*
X204169750Y-109165841D01*
X204173117Y-109148033D01*
X204191670Y-109098212D01*
X204221556Y-109058652D01*
X204264831Y-109026977D01*
X204288072Y-109015188D01*
X204310251Y-109006198D01*
X204332705Y-109000436D01*
X204360119Y-108997227D01*
X204397179Y-108995898D01*
X204423434Y-108995724D01*
X204465936Y-108996050D01*
X204478295Y-108996708D01*
X204478295Y-109118400D01*
X204474657Y-109126439D01*
X204471926Y-109148874D01*
X204470327Y-109183183D01*
X204470000Y-109211533D01*
X204470000Y-109304666D01*
X204495821Y-109304666D01*
X204524429Y-109300164D01*
X204551432Y-109288699D01*
X204570542Y-109273334D01*
X204574807Y-109266187D01*
X204579777Y-109239299D01*
X204578794Y-109206897D01*
X204572531Y-109177510D01*
X204566863Y-109165387D01*
X204551002Y-109150360D01*
X204526021Y-109134949D01*
X204499191Y-109123012D01*
X204478295Y-109118400D01*
X204478295Y-108996708D01*
X204496328Y-108997670D01*
X204519429Y-109001400D01*
X204540056Y-109008055D01*
X204563026Y-109018451D01*
X204565867Y-109019841D01*
X204614672Y-109052320D01*
X204650160Y-109095167D01*
X204672212Y-109148143D01*
X204680709Y-109211006D01*
X204679561Y-109249717D01*
X204679561Y-109249717D01*
G37*
X204679561Y-109249717D02*
X204667892Y-109307075D01*
X204643544Y-109353722D01*
X204607453Y-109389013D01*
X204560558Y-109412304D01*
X204503794Y-109422948D01*
X204438099Y-109420302D01*
X204432782Y-109419541D01*
X204393800Y-109413696D01*
X204393800Y-109116184D01*
X204362249Y-109121304D01*
X204322132Y-109134986D01*
X204290040Y-109160048D01*
X204277045Y-109178483D01*
X204270545Y-109202113D01*
X204268553Y-109235912D01*
X204270724Y-109273825D01*
X204276710Y-109309799D01*
X204286165Y-109337781D01*
X204286170Y-109337791D01*
X204294987Y-109356691D01*
X204298731Y-109367633D01*
X204298587Y-109368500D01*
X204290450Y-109373027D01*
X204272078Y-109382561D01*
X204258917Y-109389246D01*
X204236336Y-109400110D01*
X204223623Y-109403443D01*
X204215654Y-109399587D01*
X204209958Y-109392524D01*
X204192743Y-109359307D01*
X204179316Y-109314725D01*
X204170475Y-109264085D01*
X204167020Y-109212689D01*
X204169750Y-109165841D01*
X204173117Y-109148033D01*
X204191670Y-109098212D01*
X204221556Y-109058652D01*
X204264831Y-109026977D01*
X204288072Y-109015188D01*
X204310251Y-109006198D01*
X204332705Y-109000436D01*
X204360119Y-108997227D01*
X204397179Y-108995898D01*
X204423434Y-108995724D01*
X204465936Y-108996050D01*
X204478295Y-108996708D01*
X204478295Y-109118400D01*
X204474657Y-109126439D01*
X204471926Y-109148874D01*
X204470327Y-109183183D01*
X204470000Y-109211533D01*
X204470000Y-109304666D01*
X204495821Y-109304666D01*
X204524429Y-109300164D01*
X204551432Y-109288699D01*
X204570542Y-109273334D01*
X204574807Y-109266187D01*
X204579777Y-109239299D01*
X204578794Y-109206897D01*
X204572531Y-109177510D01*
X204566863Y-109165387D01*
X204551002Y-109150360D01*
X204526021Y-109134949D01*
X204499191Y-109123012D01*
X204478295Y-109118400D01*
X204478295Y-108996708D01*
X204496328Y-108997670D01*
X204519429Y-109001400D01*
X204540056Y-109008055D01*
X204563026Y-109018451D01*
X204565867Y-109019841D01*
X204614672Y-109052320D01*
X204650160Y-109095167D01*
X204672212Y-109148143D01*
X204680709Y-109211006D01*
X204679561Y-109249717D01*
G36*
X204678256Y-108044635D02*
X204663111Y-108101764D01*
X204634342Y-108148906D01*
X204591894Y-108186168D01*
X204565867Y-108200959D01*
X204542352Y-108211811D01*
X204521704Y-108218833D01*
X204499106Y-108222841D01*
X204469738Y-108224651D01*
X204428785Y-108225078D01*
X204423434Y-108225075D01*
X204364990Y-108223055D01*
X204319196Y-108216245D01*
X204282128Y-108203323D01*
X204249862Y-108182971D01*
X204221676Y-108157200D01*
X204191745Y-108114815D01*
X204172966Y-108062731D01*
X204165965Y-108004506D01*
X204171365Y-107943703D01*
X204178943Y-107913340D01*
X204201029Y-107868069D01*
X204235861Y-107828263D01*
X204279315Y-107797944D01*
X204310467Y-107785157D01*
X204352974Y-107776494D01*
X204403727Y-107772257D01*
X204430069Y-107772360D01*
X204430069Y-107899398D01*
X204427667Y-107899399D01*
X204368559Y-107904106D01*
X204323326Y-107917805D01*
X204292207Y-107940397D01*
X204279441Y-107960299D01*
X204271562Y-107998323D01*
X204278807Y-108037700D01*
X204288848Y-108057728D01*
X204307910Y-108074499D01*
X204339291Y-108087990D01*
X204378509Y-108097029D01*
X204421082Y-108100448D01*
X204447652Y-108099183D01*
X204498133Y-108090440D01*
X204534471Y-108075611D01*
X204558720Y-108053537D01*
X204570854Y-108029725D01*
X204577704Y-108005818D01*
X204577130Y-107987727D01*
X204568538Y-107965958D01*
X204566620Y-107961992D01*
X204546818Y-107932906D01*
X204519205Y-107913565D01*
X204481161Y-107902789D01*
X204430069Y-107899398D01*
X204430069Y-107772360D01*
X204456331Y-107772464D01*
X204504392Y-107777133D01*
X204536659Y-107784543D01*
X204590600Y-107810417D01*
X204632316Y-107847870D01*
X204661399Y-107896351D01*
X204677439Y-107955308D01*
X204679832Y-107977410D01*
X204678256Y-108044635D01*
X204678256Y-108044635D01*
G37*
X204678256Y-108044635D02*
X204663111Y-108101764D01*
X204634342Y-108148906D01*
X204591894Y-108186168D01*
X204565867Y-108200959D01*
X204542352Y-108211811D01*
X204521704Y-108218833D01*
X204499106Y-108222841D01*
X204469738Y-108224651D01*
X204428785Y-108225078D01*
X204423434Y-108225075D01*
X204364990Y-108223055D01*
X204319196Y-108216245D01*
X204282128Y-108203323D01*
X204249862Y-108182971D01*
X204221676Y-108157200D01*
X204191745Y-108114815D01*
X204172966Y-108062731D01*
X204165965Y-108004506D01*
X204171365Y-107943703D01*
X204178943Y-107913340D01*
X204201029Y-107868069D01*
X204235861Y-107828263D01*
X204279315Y-107797944D01*
X204310467Y-107785157D01*
X204352974Y-107776494D01*
X204403727Y-107772257D01*
X204430069Y-107772360D01*
X204430069Y-107899398D01*
X204427667Y-107899399D01*
X204368559Y-107904106D01*
X204323326Y-107917805D01*
X204292207Y-107940397D01*
X204279441Y-107960299D01*
X204271562Y-107998323D01*
X204278807Y-108037700D01*
X204288848Y-108057728D01*
X204307910Y-108074499D01*
X204339291Y-108087990D01*
X204378509Y-108097029D01*
X204421082Y-108100448D01*
X204447652Y-108099183D01*
X204498133Y-108090440D01*
X204534471Y-108075611D01*
X204558720Y-108053537D01*
X204570854Y-108029725D01*
X204577704Y-108005818D01*
X204577130Y-107987727D01*
X204568538Y-107965958D01*
X204566620Y-107961992D01*
X204546818Y-107932906D01*
X204519205Y-107913565D01*
X204481161Y-107902789D01*
X204430069Y-107899398D01*
X204430069Y-107772360D01*
X204456331Y-107772464D01*
X204504392Y-107777133D01*
X204536659Y-107784543D01*
X204590600Y-107810417D01*
X204632316Y-107847870D01*
X204661399Y-107896351D01*
X204677439Y-107955308D01*
X204679832Y-107977410D01*
X204678256Y-108044635D01*
G36*
X204670586Y-112071909D02*
X204666239Y-112080336D01*
X204661283Y-112081733D01*
X204648164Y-112078926D01*
X204621406Y-112071033D01*
X204583249Y-112058843D01*
X204535936Y-112043146D01*
X204481707Y-112024731D01*
X204422803Y-112004390D01*
X204361466Y-111982911D01*
X204299937Y-111961085D01*
X204240458Y-111939702D01*
X204185270Y-111919551D01*
X204136614Y-111901423D01*
X204096731Y-111886107D01*
X204067862Y-111874393D01*
X204052324Y-111867115D01*
X204013457Y-111838080D01*
X203989787Y-111804313D01*
X203979710Y-111763189D01*
X203979095Y-111747300D01*
X203980616Y-111720156D01*
X203984369Y-111699050D01*
X203986841Y-111692882D01*
X203993808Y-111686447D01*
X204006300Y-111685051D01*
X204028777Y-111688573D01*
X204041744Y-111691372D01*
X204068544Y-111698063D01*
X204082683Y-111704678D01*
X204088163Y-111714172D01*
X204089000Y-111726268D01*
X204096601Y-111754491D01*
X204116405Y-111780224D01*
X204143920Y-111798173D01*
X204152500Y-111801111D01*
X204161758Y-111802318D01*
X204174356Y-111801059D01*
X204192044Y-111796715D01*
X204216573Y-111788668D01*
X204249694Y-111776300D01*
X204293157Y-111758993D01*
X204348712Y-111736128D01*
X204414967Y-111708408D01*
X204474604Y-111683468D01*
X204529455Y-111660773D01*
X204577512Y-111641136D01*
X204616763Y-111625368D01*
X204645199Y-111614283D01*
X204660810Y-111608693D01*
X204662946Y-111608180D01*
X204668377Y-111612197D01*
X204671309Y-111626589D01*
X204672025Y-111653779D01*
X204671413Y-111680226D01*
X204668967Y-111752853D01*
X204508100Y-111803894D01*
X204457777Y-111819904D01*
X204412192Y-111834488D01*
X204374109Y-111846754D01*
X204346293Y-111855811D01*
X204331508Y-111860770D01*
X204330703Y-111861061D01*
X204327958Y-111865263D01*
X204339342Y-111871087D01*
X204365814Y-111878908D01*
X204394203Y-111885856D01*
X204437357Y-111896367D01*
X204489015Y-111909611D01*
X204541426Y-111923578D01*
X204571600Y-111931915D01*
X204668967Y-111959304D01*
X204671454Y-112020518D01*
X204672147Y-112053036D01*
X204670586Y-112071909D01*
X204670586Y-112071909D01*
G37*
X204670586Y-112071909D02*
X204666239Y-112080336D01*
X204661283Y-112081733D01*
X204648164Y-112078926D01*
X204621406Y-112071033D01*
X204583249Y-112058843D01*
X204535936Y-112043146D01*
X204481707Y-112024731D01*
X204422803Y-112004390D01*
X204361466Y-111982911D01*
X204299937Y-111961085D01*
X204240458Y-111939702D01*
X204185270Y-111919551D01*
X204136614Y-111901423D01*
X204096731Y-111886107D01*
X204067862Y-111874393D01*
X204052324Y-111867115D01*
X204013457Y-111838080D01*
X203989787Y-111804313D01*
X203979710Y-111763189D01*
X203979095Y-111747300D01*
X203980616Y-111720156D01*
X203984369Y-111699050D01*
X203986841Y-111692882D01*
X203993808Y-111686447D01*
X204006300Y-111685051D01*
X204028777Y-111688573D01*
X204041744Y-111691372D01*
X204068544Y-111698063D01*
X204082683Y-111704678D01*
X204088163Y-111714172D01*
X204089000Y-111726268D01*
X204096601Y-111754491D01*
X204116405Y-111780224D01*
X204143920Y-111798173D01*
X204152500Y-111801111D01*
X204161758Y-111802318D01*
X204174356Y-111801059D01*
X204192044Y-111796715D01*
X204216573Y-111788668D01*
X204249694Y-111776300D01*
X204293157Y-111758993D01*
X204348712Y-111736128D01*
X204414967Y-111708408D01*
X204474604Y-111683468D01*
X204529455Y-111660773D01*
X204577512Y-111641136D01*
X204616763Y-111625368D01*
X204645199Y-111614283D01*
X204660810Y-111608693D01*
X204662946Y-111608180D01*
X204668377Y-111612197D01*
X204671309Y-111626589D01*
X204672025Y-111653779D01*
X204671413Y-111680226D01*
X204668967Y-111752853D01*
X204508100Y-111803894D01*
X204457777Y-111819904D01*
X204412192Y-111834488D01*
X204374109Y-111846754D01*
X204346293Y-111855811D01*
X204331508Y-111860770D01*
X204330703Y-111861061D01*
X204327958Y-111865263D01*
X204339342Y-111871087D01*
X204365814Y-111878908D01*
X204394203Y-111885856D01*
X204437357Y-111896367D01*
X204489015Y-111909611D01*
X204541426Y-111923578D01*
X204571600Y-111931915D01*
X204668967Y-111959304D01*
X204671454Y-112020518D01*
X204672147Y-112053036D01*
X204670586Y-112071909D01*
G36*
X204673264Y-107578331D02*
X204653209Y-107622771D01*
X204637535Y-107642881D01*
X204604264Y-107667010D01*
X204557094Y-107684308D01*
X204497834Y-107694268D01*
X204445547Y-107696618D01*
X204366422Y-107691414D01*
X204300665Y-107675830D01*
X204248249Y-107649844D01*
X204209146Y-107613436D01*
X204183328Y-107566582D01*
X204170768Y-107509262D01*
X204169433Y-107480100D01*
X204170405Y-107447244D01*
X204172946Y-107418903D01*
X204176354Y-107401783D01*
X204183275Y-107382733D01*
X203978934Y-107382733D01*
X203978934Y-107255543D01*
X204323950Y-107257755D01*
X204400650Y-107258246D01*
X204400650Y-107382765D01*
X204354615Y-107382935D01*
X204322602Y-107384182D01*
X204301698Y-107387566D01*
X204288992Y-107394144D01*
X204281572Y-107404976D01*
X204276526Y-107421121D01*
X204274700Y-107428561D01*
X204271924Y-107471561D01*
X204284815Y-107509923D01*
X204298961Y-107528837D01*
X204322610Y-107547365D01*
X204349794Y-107560195D01*
X204350986Y-107560540D01*
X204385045Y-107566465D01*
X204426454Y-107568644D01*
X204468798Y-107567222D01*
X204505664Y-107562341D01*
X204525610Y-107556605D01*
X204553767Y-107536773D01*
X204570795Y-107508243D01*
X204576435Y-107475302D01*
X204570427Y-107442237D01*
X204552511Y-107413335D01*
X204535156Y-107399293D01*
X204521225Y-107392227D01*
X204504538Y-107387471D01*
X204481587Y-107384597D01*
X204448869Y-107383172D01*
X204402876Y-107382766D01*
X204400650Y-107382765D01*
X204400650Y-107258246D01*
X204668967Y-107259967D01*
X204671517Y-107304146D01*
X204672403Y-107330095D01*
X204669817Y-107344002D01*
X204661707Y-107350700D01*
X204650350Y-107354000D01*
X204627114Y-107360745D01*
X204619078Y-107368218D01*
X204624711Y-107379779D01*
X204633957Y-107390012D01*
X204661592Y-107430165D01*
X204677396Y-107477773D01*
X204681306Y-107528580D01*
X204673264Y-107578331D01*
X204673264Y-107578331D01*
G37*
X204673264Y-107578331D02*
X204653209Y-107622771D01*
X204637535Y-107642881D01*
X204604264Y-107667010D01*
X204557094Y-107684308D01*
X204497834Y-107694268D01*
X204445547Y-107696618D01*
X204366422Y-107691414D01*
X204300665Y-107675830D01*
X204248249Y-107649844D01*
X204209146Y-107613436D01*
X204183328Y-107566582D01*
X204170768Y-107509262D01*
X204169433Y-107480100D01*
X204170405Y-107447244D01*
X204172946Y-107418903D01*
X204176354Y-107401783D01*
X204183275Y-107382733D01*
X203978934Y-107382733D01*
X203978934Y-107255543D01*
X204323950Y-107257755D01*
X204400650Y-107258246D01*
X204400650Y-107382765D01*
X204354615Y-107382935D01*
X204322602Y-107384182D01*
X204301698Y-107387566D01*
X204288992Y-107394144D01*
X204281572Y-107404976D01*
X204276526Y-107421121D01*
X204274700Y-107428561D01*
X204271924Y-107471561D01*
X204284815Y-107509923D01*
X204298961Y-107528837D01*
X204322610Y-107547365D01*
X204349794Y-107560195D01*
X204350986Y-107560540D01*
X204385045Y-107566465D01*
X204426454Y-107568644D01*
X204468798Y-107567222D01*
X204505664Y-107562341D01*
X204525610Y-107556605D01*
X204553767Y-107536773D01*
X204570795Y-107508243D01*
X204576435Y-107475302D01*
X204570427Y-107442237D01*
X204552511Y-107413335D01*
X204535156Y-107399293D01*
X204521225Y-107392227D01*
X204504538Y-107387471D01*
X204481587Y-107384597D01*
X204448869Y-107383172D01*
X204402876Y-107382766D01*
X204400650Y-107382765D01*
X204400650Y-107258246D01*
X204668967Y-107259967D01*
X204671517Y-107304146D01*
X204672403Y-107330095D01*
X204669817Y-107344002D01*
X204661707Y-107350700D01*
X204650350Y-107354000D01*
X204627114Y-107360745D01*
X204619078Y-107368218D01*
X204624711Y-107379779D01*
X204633957Y-107390012D01*
X204661592Y-107430165D01*
X204677396Y-107477773D01*
X204681306Y-107528580D01*
X204673264Y-107578331D01*
G36*
X202587515Y-111978708D02*
X202582391Y-112012482D01*
X202581192Y-112017188D01*
X202561853Y-112057411D01*
X202528857Y-112093697D01*
X202485462Y-112122912D01*
X202459167Y-112134529D01*
X202445192Y-112139418D01*
X202431199Y-112143401D01*
X202415295Y-112146592D01*
X202395588Y-112149105D01*
X202370183Y-112151053D01*
X202337190Y-112152549D01*
X202294713Y-112153707D01*
X202240861Y-112154641D01*
X202173741Y-112155464D01*
X202097217Y-112156234D01*
X201786067Y-112159217D01*
X201786067Y-111954733D01*
X202044784Y-111954733D01*
X202128546Y-111954391D01*
X202200341Y-111953387D01*
X202259064Y-111951758D01*
X202303613Y-111949538D01*
X202332883Y-111946763D01*
X202341337Y-111945206D01*
X202376455Y-111931482D01*
X202398798Y-111909806D01*
X202410175Y-111877615D01*
X202412600Y-111844174D01*
X202406916Y-111800429D01*
X202388722Y-111765765D01*
X202356307Y-111737547D01*
X202335672Y-111725762D01*
X202325437Y-111721059D01*
X202313907Y-111717337D01*
X202299081Y-111714483D01*
X202278957Y-111712382D01*
X202251533Y-111710922D01*
X202214808Y-111709987D01*
X202166782Y-111709464D01*
X202105451Y-111709241D01*
X202044369Y-111709200D01*
X201785529Y-111709200D01*
X201787915Y-111609717D01*
X201790300Y-111510233D01*
X202065467Y-111505882D01*
X202157364Y-111504109D01*
X202232533Y-111501961D01*
X202290927Y-111499440D01*
X202332503Y-111496549D01*
X202357216Y-111493289D01*
X202363062Y-111491600D01*
X202391730Y-111471058D01*
X202408038Y-111439794D01*
X202412600Y-111402095D01*
X202406685Y-111356183D01*
X202387644Y-111318945D01*
X202356133Y-111288421D01*
X202325048Y-111264700D01*
X202055557Y-111262246D01*
X201786067Y-111259792D01*
X201786067Y-111065733D01*
X202573467Y-111065733D01*
X202573467Y-111217337D01*
X202541717Y-111226155D01*
X202517517Y-111231964D01*
X202498766Y-111234925D01*
X202496561Y-111235019D01*
X202482632Y-111237333D01*
X202479568Y-111245297D01*
X202487920Y-111260647D01*
X202508240Y-111285118D01*
X202514742Y-111292305D01*
X202545806Y-111328268D01*
X202566407Y-111358678D01*
X202578903Y-111389040D01*
X202585656Y-111424858D01*
X202588698Y-111464780D01*
X202587828Y-111527913D01*
X202577533Y-111578436D01*
X202556875Y-111618395D01*
X202524912Y-111649833D01*
X202495355Y-111667842D01*
X202461707Y-111685008D01*
X202495173Y-111709619D01*
X202535297Y-111748075D01*
X202567335Y-111796373D01*
X202580492Y-111826880D01*
X202586331Y-111855086D01*
X202589462Y-111893879D01*
X202589864Y-111937131D01*
X202587515Y-111978708D01*
X202587515Y-111978708D01*
G37*
X202587515Y-111978708D02*
X202582391Y-112012482D01*
X202581192Y-112017188D01*
X202561853Y-112057411D01*
X202528857Y-112093697D01*
X202485462Y-112122912D01*
X202459167Y-112134529D01*
X202445192Y-112139418D01*
X202431199Y-112143401D01*
X202415295Y-112146592D01*
X202395588Y-112149105D01*
X202370183Y-112151053D01*
X202337190Y-112152549D01*
X202294713Y-112153707D01*
X202240861Y-112154641D01*
X202173741Y-112155464D01*
X202097217Y-112156234D01*
X201786067Y-112159217D01*
X201786067Y-111954733D01*
X202044784Y-111954733D01*
X202128546Y-111954391D01*
X202200341Y-111953387D01*
X202259064Y-111951758D01*
X202303613Y-111949538D01*
X202332883Y-111946763D01*
X202341337Y-111945206D01*
X202376455Y-111931482D01*
X202398798Y-111909806D01*
X202410175Y-111877615D01*
X202412600Y-111844174D01*
X202406916Y-111800429D01*
X202388722Y-111765765D01*
X202356307Y-111737547D01*
X202335672Y-111725762D01*
X202325437Y-111721059D01*
X202313907Y-111717337D01*
X202299081Y-111714483D01*
X202278957Y-111712382D01*
X202251533Y-111710922D01*
X202214808Y-111709987D01*
X202166782Y-111709464D01*
X202105451Y-111709241D01*
X202044369Y-111709200D01*
X201785529Y-111709200D01*
X201787915Y-111609717D01*
X201790300Y-111510233D01*
X202065467Y-111505882D01*
X202157364Y-111504109D01*
X202232533Y-111501961D01*
X202290927Y-111499440D01*
X202332503Y-111496549D01*
X202357216Y-111493289D01*
X202363062Y-111491600D01*
X202391730Y-111471058D01*
X202408038Y-111439794D01*
X202412600Y-111402095D01*
X202406685Y-111356183D01*
X202387644Y-111318945D01*
X202356133Y-111288421D01*
X202325048Y-111264700D01*
X202055557Y-111262246D01*
X201786067Y-111259792D01*
X201786067Y-111065733D01*
X202573467Y-111065733D01*
X202573467Y-111217337D01*
X202541717Y-111226155D01*
X202517517Y-111231964D01*
X202498766Y-111234925D01*
X202496561Y-111235019D01*
X202482632Y-111237333D01*
X202479568Y-111245297D01*
X202487920Y-111260647D01*
X202508240Y-111285118D01*
X202514742Y-111292305D01*
X202545806Y-111328268D01*
X202566407Y-111358678D01*
X202578903Y-111389040D01*
X202585656Y-111424858D01*
X202588698Y-111464780D01*
X202587828Y-111527913D01*
X202577533Y-111578436D01*
X202556875Y-111618395D01*
X202524912Y-111649833D01*
X202495355Y-111667842D01*
X202461707Y-111685008D01*
X202495173Y-111709619D01*
X202535297Y-111748075D01*
X202567335Y-111796373D01*
X202580492Y-111826880D01*
X202586331Y-111855086D01*
X202589462Y-111893879D01*
X202589864Y-111937131D01*
X202587515Y-111978708D01*
G36*
X202582137Y-113163180D02*
X202565774Y-113226698D01*
X202538494Y-113278427D01*
X202500097Y-113318913D01*
X202454933Y-113346627D01*
X202443321Y-113351720D01*
X202431410Y-113355708D01*
X202417122Y-113358702D01*
X202398377Y-113360811D01*
X202373095Y-113362144D01*
X202339198Y-113362812D01*
X202294606Y-113362925D01*
X202237240Y-113362592D01*
X202165070Y-113361922D01*
X202075056Y-113361416D01*
X202000306Y-113361920D01*
X201939174Y-113363527D01*
X201890015Y-113366330D01*
X201851183Y-113370425D01*
X201821035Y-113375904D01*
X201797923Y-113382862D01*
X201797920Y-113382863D01*
X201792204Y-113382774D01*
X201788755Y-113375367D01*
X201787228Y-113357952D01*
X201787277Y-113327834D01*
X201787865Y-113304407D01*
X201790300Y-113221157D01*
X201840519Y-113205887D01*
X201867362Y-113197366D01*
X201886886Y-113190496D01*
X201894189Y-113187167D01*
X201890452Y-113180124D01*
X201877156Y-113165728D01*
X201864612Y-113153878D01*
X201822635Y-113106411D01*
X201795285Y-113052262D01*
X201781633Y-112989379D01*
X201779987Y-112966605D01*
X201779854Y-112920986D01*
X201784445Y-112884469D01*
X201793675Y-112852349D01*
X201819483Y-112802739D01*
X201856376Y-112762922D01*
X201901528Y-112733544D01*
X201952112Y-112715254D01*
X202005304Y-112708699D01*
X202019567Y-112710267D01*
X202019567Y-112920842D01*
X201987404Y-112932158D01*
X201961636Y-112954595D01*
X201947933Y-112981849D01*
X201943813Y-113014829D01*
X201946356Y-113053057D01*
X201954735Y-113086960D01*
X201957577Y-113093500D01*
X201968567Y-113110210D01*
X201985900Y-113131357D01*
X201991944Y-113137950D01*
X202007175Y-113152694D01*
X202021419Y-113160950D01*
X202040347Y-113164583D01*
X202069629Y-113165458D01*
X202075594Y-113165466D01*
X202133200Y-113165466D01*
X202133200Y-113103503D01*
X202129682Y-113046772D01*
X202119684Y-112998020D01*
X202104040Y-112960145D01*
X202085302Y-112937332D01*
X202053681Y-112922086D01*
X202019567Y-112920842D01*
X202019567Y-112710267D01*
X202058277Y-112714526D01*
X202108205Y-112733384D01*
X202152263Y-112765921D01*
X202155681Y-112769374D01*
X202193134Y-112816534D01*
X202220796Y-112871236D01*
X202239306Y-112935526D01*
X202249298Y-113011451D01*
X202251586Y-113077939D01*
X202251733Y-113163978D01*
X202284647Y-113169539D01*
X202327571Y-113170756D01*
X202366108Y-113160634D01*
X202395888Y-113140639D01*
X202405116Y-113129053D01*
X202412711Y-113115215D01*
X202417391Y-113100139D01*
X202419586Y-113079901D01*
X202419726Y-113050575D01*
X202418265Y-113008833D01*
X202412498Y-112937740D01*
X202402021Y-112879421D01*
X202396844Y-112861030D01*
X202388357Y-112833454D01*
X202382736Y-112813322D01*
X202381174Y-112804915D01*
X202381192Y-112804896D01*
X202389521Y-112801954D01*
X202410294Y-112795327D01*
X202439740Y-112786207D01*
X202454681Y-112781649D01*
X202492140Y-112771063D01*
X202516216Y-112766366D01*
X202529265Y-112767205D01*
X202532604Y-112769913D01*
X202541036Y-112789878D01*
X202550642Y-112822690D01*
X202560552Y-112864384D01*
X202569893Y-112910998D01*
X202577793Y-112958569D01*
X202582916Y-112998586D01*
X202587784Y-113087325D01*
X202582137Y-113163180D01*
X202582137Y-113163180D01*
G37*
X202582137Y-113163180D02*
X202565774Y-113226698D01*
X202538494Y-113278427D01*
X202500097Y-113318913D01*
X202454933Y-113346627D01*
X202443321Y-113351720D01*
X202431410Y-113355708D01*
X202417122Y-113358702D01*
X202398377Y-113360811D01*
X202373095Y-113362144D01*
X202339198Y-113362812D01*
X202294606Y-113362925D01*
X202237240Y-113362592D01*
X202165070Y-113361922D01*
X202075056Y-113361416D01*
X202000306Y-113361920D01*
X201939174Y-113363527D01*
X201890015Y-113366330D01*
X201851183Y-113370425D01*
X201821035Y-113375904D01*
X201797923Y-113382862D01*
X201797920Y-113382863D01*
X201792204Y-113382774D01*
X201788755Y-113375367D01*
X201787228Y-113357952D01*
X201787277Y-113327834D01*
X201787865Y-113304407D01*
X201790300Y-113221157D01*
X201840519Y-113205887D01*
X201867362Y-113197366D01*
X201886886Y-113190496D01*
X201894189Y-113187167D01*
X201890452Y-113180124D01*
X201877156Y-113165728D01*
X201864612Y-113153878D01*
X201822635Y-113106411D01*
X201795285Y-113052262D01*
X201781633Y-112989379D01*
X201779987Y-112966605D01*
X201779854Y-112920986D01*
X201784445Y-112884469D01*
X201793675Y-112852349D01*
X201819483Y-112802739D01*
X201856376Y-112762922D01*
X201901528Y-112733544D01*
X201952112Y-112715254D01*
X202005304Y-112708699D01*
X202019567Y-112710267D01*
X202019567Y-112920842D01*
X201987404Y-112932158D01*
X201961636Y-112954595D01*
X201947933Y-112981849D01*
X201943813Y-113014829D01*
X201946356Y-113053057D01*
X201954735Y-113086960D01*
X201957577Y-113093500D01*
X201968567Y-113110210D01*
X201985900Y-113131357D01*
X201991944Y-113137950D01*
X202007175Y-113152694D01*
X202021419Y-113160950D01*
X202040347Y-113164583D01*
X202069629Y-113165458D01*
X202075594Y-113165466D01*
X202133200Y-113165466D01*
X202133200Y-113103503D01*
X202129682Y-113046772D01*
X202119684Y-112998020D01*
X202104040Y-112960145D01*
X202085302Y-112937332D01*
X202053681Y-112922086D01*
X202019567Y-112920842D01*
X202019567Y-112710267D01*
X202058277Y-112714526D01*
X202108205Y-112733384D01*
X202152263Y-112765921D01*
X202155681Y-112769374D01*
X202193134Y-112816534D01*
X202220796Y-112871236D01*
X202239306Y-112935526D01*
X202249298Y-113011451D01*
X202251586Y-113077939D01*
X202251733Y-113163978D01*
X202284647Y-113169539D01*
X202327571Y-113170756D01*
X202366108Y-113160634D01*
X202395888Y-113140639D01*
X202405116Y-113129053D01*
X202412711Y-113115215D01*
X202417391Y-113100139D01*
X202419586Y-113079901D01*
X202419726Y-113050575D01*
X202418265Y-113008833D01*
X202412498Y-112937740D01*
X202402021Y-112879421D01*
X202396844Y-112861030D01*
X202388357Y-112833454D01*
X202382736Y-112813322D01*
X202381174Y-112804915D01*
X202381192Y-112804896D01*
X202389521Y-112801954D01*
X202410294Y-112795327D01*
X202439740Y-112786207D01*
X202454681Y-112781649D01*
X202492140Y-112771063D01*
X202516216Y-112766366D01*
X202529265Y-112767205D01*
X202532604Y-112769913D01*
X202541036Y-112789878D01*
X202550642Y-112822690D01*
X202560552Y-112864384D01*
X202569893Y-112910998D01*
X202577793Y-112958569D01*
X202582916Y-112998586D01*
X202587784Y-113087325D01*
X202582137Y-113163180D01*
G36*
X202700467Y-113741200D02*
X202630266Y-113741585D01*
X202576778Y-113742747D01*
X202539801Y-113744697D01*
X202519132Y-113747442D01*
X202514200Y-113750163D01*
X202519097Y-113761676D01*
X202531492Y-113780525D01*
X202538969Y-113790380D01*
X202569573Y-113842507D01*
X202586178Y-113903573D01*
X202588545Y-113972271D01*
X202577401Y-114041120D01*
X202553628Y-114099508D01*
X202517010Y-114147584D01*
X202467328Y-114185502D01*
X202404363Y-114213410D01*
X202327897Y-114231460D01*
X202237714Y-114239804D01*
X202200933Y-114240461D01*
X202107915Y-114235086D01*
X202027087Y-114218692D01*
X201957509Y-114190943D01*
X201898237Y-114151509D01*
X201867887Y-114122807D01*
X201826574Y-114069077D01*
X201796812Y-114007882D01*
X201778302Y-113937866D01*
X201770743Y-113857673D01*
X201773834Y-113765946D01*
X201778685Y-113720033D01*
X201785554Y-113678231D01*
X201795510Y-113632513D01*
X201803257Y-113603616D01*
X201820421Y-113546466D01*
X202157107Y-113546466D01*
X202157107Y-113742672D01*
X202124733Y-113743056D01*
X201959633Y-113745433D01*
X201949732Y-113783533D01*
X201940215Y-113845470D01*
X201944935Y-113901598D01*
X201950733Y-113921677D01*
X201969840Y-113959495D01*
X201998072Y-113988417D01*
X202037471Y-114009722D01*
X202090083Y-114024690D01*
X202124742Y-114030594D01*
X202189502Y-114035512D01*
X202251154Y-114032234D01*
X202306742Y-114021428D01*
X202353306Y-114003761D01*
X202387891Y-113979901D01*
X202397525Y-113969020D01*
X202415302Y-113932003D01*
X202420447Y-113889176D01*
X202413290Y-113845630D01*
X202394159Y-113806453D01*
X202386388Y-113796602D01*
X202369031Y-113778763D01*
X202350641Y-113765141D01*
X202328759Y-113755233D01*
X202300925Y-113748536D01*
X202264679Y-113744546D01*
X202217560Y-113742759D01*
X202157107Y-113742672D01*
X202157107Y-113546466D01*
X202886734Y-113546466D01*
X202886734Y-113741200D01*
X202700467Y-113741200D01*
X202700467Y-113741200D01*
G37*
X202700467Y-113741200D02*
X202630266Y-113741585D01*
X202576778Y-113742747D01*
X202539801Y-113744697D01*
X202519132Y-113747442D01*
X202514200Y-113750163D01*
X202519097Y-113761676D01*
X202531492Y-113780525D01*
X202538969Y-113790380D01*
X202569573Y-113842507D01*
X202586178Y-113903573D01*
X202588545Y-113972271D01*
X202577401Y-114041120D01*
X202553628Y-114099508D01*
X202517010Y-114147584D01*
X202467328Y-114185502D01*
X202404363Y-114213410D01*
X202327897Y-114231460D01*
X202237714Y-114239804D01*
X202200933Y-114240461D01*
X202107915Y-114235086D01*
X202027087Y-114218692D01*
X201957509Y-114190943D01*
X201898237Y-114151509D01*
X201867887Y-114122807D01*
X201826574Y-114069077D01*
X201796812Y-114007882D01*
X201778302Y-113937866D01*
X201770743Y-113857673D01*
X201773834Y-113765946D01*
X201778685Y-113720033D01*
X201785554Y-113678231D01*
X201795510Y-113632513D01*
X201803257Y-113603616D01*
X201820421Y-113546466D01*
X202157107Y-113546466D01*
X202157107Y-113742672D01*
X202124733Y-113743056D01*
X201959633Y-113745433D01*
X201949732Y-113783533D01*
X201940215Y-113845470D01*
X201944935Y-113901598D01*
X201950733Y-113921677D01*
X201969840Y-113959495D01*
X201998072Y-113988417D01*
X202037471Y-114009722D01*
X202090083Y-114024690D01*
X202124742Y-114030594D01*
X202189502Y-114035512D01*
X202251154Y-114032234D01*
X202306742Y-114021428D01*
X202353306Y-114003761D01*
X202387891Y-113979901D01*
X202397525Y-113969020D01*
X202415302Y-113932003D01*
X202420447Y-113889176D01*
X202413290Y-113845630D01*
X202394159Y-113806453D01*
X202386388Y-113796602D01*
X202369031Y-113778763D01*
X202350641Y-113765141D01*
X202328759Y-113755233D01*
X202300925Y-113748536D01*
X202264679Y-113744546D01*
X202217560Y-113742759D01*
X202157107Y-113742672D01*
X202157107Y-113546466D01*
X202886734Y-113546466D01*
X202886734Y-113741200D01*
X202700467Y-113741200D01*
G36*
X201769133Y-112555866D02*
X201769133Y-112458234D01*
X201769761Y-112411689D01*
X201771762Y-112380328D01*
X201775314Y-112362446D01*
X201779717Y-112356557D01*
X201789811Y-112355892D01*
X201815396Y-112355327D01*
X201855030Y-112354867D01*
X201907270Y-112354517D01*
X201970675Y-112354281D01*
X202043802Y-112354165D01*
X202125208Y-112354173D01*
X202213452Y-112354310D01*
X202307091Y-112354580D01*
X202340633Y-112354706D01*
X202890967Y-112356900D01*
X202893352Y-112456383D01*
X202895738Y-112555866D01*
X201769133Y-112555866D01*
X201769133Y-112555866D01*
G37*
X201769133Y-112555866D02*
X201769133Y-112458234D01*
X201769761Y-112411689D01*
X201771762Y-112380328D01*
X201775314Y-112362446D01*
X201779717Y-112356557D01*
X201789811Y-112355892D01*
X201815396Y-112355327D01*
X201855030Y-112354867D01*
X201907270Y-112354517D01*
X201970675Y-112354281D01*
X202043802Y-112354165D01*
X202125208Y-112354173D01*
X202213452Y-112354310D01*
X202307091Y-112354580D01*
X202340633Y-112354706D01*
X202890967Y-112356900D01*
X202893352Y-112456383D01*
X202895738Y-112555866D01*
X201769133Y-112555866D01*
G36*
X202670767Y-110464600D02*
X200897067Y-110464600D01*
X200897067Y-107899200D01*
X201701400Y-107899200D01*
X201701400Y-108694927D01*
X201701400Y-109660266D01*
X202666740Y-109660266D01*
X202664553Y-109179783D01*
X202662367Y-108699300D01*
X202181883Y-108697113D01*
X201701400Y-108694927D01*
X201701400Y-107899200D01*
X203462467Y-107899200D01*
X203462467Y-109673034D01*
X202670767Y-110464600D01*
X202670767Y-110464600D01*
G37*
X202670767Y-110464600D02*
X200897067Y-110464600D01*
X200897067Y-107899200D01*
X201701400Y-107899200D01*
X201701400Y-108694927D01*
X201701400Y-109660266D01*
X202666740Y-109660266D01*
X202664553Y-109179783D01*
X202662367Y-108699300D01*
X202181883Y-108697113D01*
X201701400Y-108694927D01*
X201701400Y-107899200D01*
X203462467Y-107899200D01*
X203462467Y-109673034D01*
X202670767Y-110464600D01*
G36*
X204491167Y-114846100D02*
X204471331Y-114883286D01*
X204434252Y-114937746D01*
X204386475Y-114985020D01*
X204332693Y-115020601D01*
X204323817Y-115024920D01*
X204271033Y-115049300D01*
X202273447Y-115051504D01*
X202052771Y-115051759D01*
X201848383Y-115052010D01*
X201659638Y-115052240D01*
X201485890Y-115052432D01*
X201326495Y-115052572D01*
X201180806Y-115052643D01*
X201048179Y-115052628D01*
X200927969Y-115052512D01*
X200819529Y-115052279D01*
X200722216Y-115051912D01*
X200635383Y-115051396D01*
X200558385Y-115050715D01*
X200490577Y-115049852D01*
X200431314Y-115048791D01*
X200379950Y-115047517D01*
X200335841Y-115046014D01*
X200298340Y-115044264D01*
X200266803Y-115042253D01*
X200240584Y-115039964D01*
X200219038Y-115037381D01*
X200201520Y-115034488D01*
X200187384Y-115031270D01*
X200175986Y-115027709D01*
X200166679Y-115023790D01*
X200158819Y-115019497D01*
X200151761Y-115014814D01*
X200144858Y-115009724D01*
X200137466Y-115004213D01*
X200128940Y-114998262D01*
X200128769Y-114998149D01*
X200082259Y-114957899D01*
X200044203Y-114905820D01*
X200017462Y-114846066D01*
X200012643Y-114829504D01*
X200011658Y-114824486D01*
X200010723Y-114816968D01*
X200009837Y-114806522D01*
X200009000Y-114792717D01*
X200008210Y-114775125D01*
X200007465Y-114753316D01*
X200006764Y-114726860D01*
X200006107Y-114695329D01*
X200005492Y-114658293D01*
X200004917Y-114615322D01*
X200004382Y-114565987D01*
X200003885Y-114509858D01*
X200003426Y-114446507D01*
X200003002Y-114375504D01*
X200002612Y-114296419D01*
X200002256Y-114208823D01*
X200001932Y-114112286D01*
X200001638Y-114006380D01*
X200001375Y-113890674D01*
X200001139Y-113764740D01*
X200000931Y-113628148D01*
X200000749Y-113480468D01*
X200000591Y-113321271D01*
X200000457Y-113150129D01*
X200000345Y-112966610D01*
X200000254Y-112770286D01*
X200000183Y-112560728D01*
X200000130Y-112337506D01*
X200000095Y-112100190D01*
X200000075Y-111848352D01*
X200000070Y-111581561D01*
X200000079Y-111299389D01*
X200000100Y-111001406D01*
X200000133Y-110687183D01*
X200000157Y-110486104D01*
X200000204Y-110160440D01*
X200000258Y-109851285D01*
X200000321Y-109558219D01*
X200000394Y-109280817D01*
X200000477Y-109018657D01*
X200000574Y-108771317D01*
X200000684Y-108538372D01*
X200000809Y-108319401D01*
X200000951Y-108113980D01*
X200001110Y-107921687D01*
X200001288Y-107742099D01*
X200001486Y-107574792D01*
X200001705Y-107419345D01*
X200001947Y-107275334D01*
X200002213Y-107142336D01*
X200002504Y-107019929D01*
X200002821Y-106907690D01*
X200003166Y-106805195D01*
X200003540Y-106712022D01*
X200003944Y-106627749D01*
X200004380Y-106551952D01*
X200004849Y-106484208D01*
X200005351Y-106424094D01*
X200005889Y-106371189D01*
X200006463Y-106325068D01*
X200007075Y-106285309D01*
X200007727Y-106251490D01*
X200008418Y-106223186D01*
X200009152Y-106199976D01*
X200009928Y-106181437D01*
X200010748Y-106167145D01*
X200011614Y-106156678D01*
X200012526Y-106149614D01*
X200013157Y-106146600D01*
X200036239Y-106088056D01*
X200071383Y-106034773D01*
X200115171Y-105991622D01*
X200128769Y-105981851D01*
X200137322Y-105975892D01*
X200144729Y-105970373D01*
X200151635Y-105965276D01*
X200158685Y-105960585D01*
X200166524Y-105956285D01*
X200175798Y-105952359D01*
X200187152Y-105948792D01*
X200201232Y-105945567D01*
X200218682Y-105942669D01*
X200240148Y-105940080D01*
X200266276Y-105937786D01*
X200297709Y-105935770D01*
X200335095Y-105934016D01*
X200379077Y-105932508D01*
X200430302Y-105931230D01*
X200489414Y-105930165D01*
X200557059Y-105929299D01*
X200633882Y-105928614D01*
X200720529Y-105928096D01*
X200817644Y-105927726D01*
X200925874Y-105927491D01*
X201045862Y-105927373D01*
X201178255Y-105927357D01*
X201323698Y-105927426D01*
X201482836Y-105927564D01*
X201656314Y-105927756D01*
X201844778Y-105927985D01*
X202048873Y-105928236D01*
X202269244Y-105928491D01*
X202273447Y-105928496D01*
X204271033Y-105930700D01*
X204324301Y-105955297D01*
X204377519Y-105987768D01*
X204424551Y-106031572D01*
X204461343Y-106082434D01*
X204477869Y-106117312D01*
X204481911Y-106128719D01*
X204485280Y-106140477D01*
X204488036Y-106154170D01*
X204490241Y-106171379D01*
X204491957Y-106193686D01*
X204493244Y-106222673D01*
X204494164Y-106259923D01*
X204494778Y-106307017D01*
X204495147Y-106365537D01*
X204495332Y-106437066D01*
X204495395Y-106523186D01*
X204495400Y-106570251D01*
X204495400Y-106976333D01*
X204335016Y-106976333D01*
X204332658Y-106579012D01*
X204332090Y-106486665D01*
X204331532Y-106409735D01*
X204330912Y-106346709D01*
X204330157Y-106296071D01*
X204329196Y-106256307D01*
X204327955Y-106225900D01*
X204326364Y-106203338D01*
X204324349Y-106187103D01*
X204321839Y-106175682D01*
X204318761Y-106167560D01*
X204315043Y-106161221D01*
X204312588Y-106157796D01*
X204293073Y-106136479D01*
X204269160Y-106116437D01*
X204266808Y-106114797D01*
X204238740Y-106095695D01*
X202244054Y-106097864D01*
X200249367Y-106100033D01*
X200222894Y-106118916D01*
X200200762Y-106140049D01*
X200183323Y-106165440D01*
X200182677Y-106166763D01*
X200181643Y-106169839D01*
X200180661Y-106174881D01*
X200179731Y-106182320D01*
X200178850Y-106192588D01*
X200178019Y-106206117D01*
X200177235Y-106223338D01*
X200176497Y-106244683D01*
X200175803Y-106270584D01*
X200175153Y-106301472D01*
X200174545Y-106337778D01*
X200173977Y-106379935D01*
X200173448Y-106428373D01*
X200172957Y-106483525D01*
X200172503Y-106545823D01*
X200172083Y-106615697D01*
X200171698Y-106693580D01*
X200171344Y-106779902D01*
X200171021Y-106875096D01*
X200170728Y-106979594D01*
X200170463Y-107093826D01*
X200170225Y-107218225D01*
X200170012Y-107353222D01*
X200169824Y-107499249D01*
X200169657Y-107656737D01*
X200169513Y-107826118D01*
X200169388Y-108007823D01*
X200169282Y-108202285D01*
X200169193Y-108409934D01*
X200169119Y-108631203D01*
X200169060Y-108866523D01*
X200169015Y-109116325D01*
X200168981Y-109381042D01*
X200168957Y-109661104D01*
X200168942Y-109956944D01*
X200168935Y-110268993D01*
X200168933Y-110490000D01*
X200168936Y-110813284D01*
X200168946Y-111120067D01*
X200168963Y-111410779D01*
X200168990Y-111685853D01*
X200169028Y-111945720D01*
X200169078Y-112190812D01*
X200169141Y-112421560D01*
X200169219Y-112638396D01*
X200169314Y-112841752D01*
X200169426Y-113032059D01*
X200169557Y-113209749D01*
X200169709Y-113375253D01*
X200169882Y-113529003D01*
X200170078Y-113671431D01*
X200170299Y-113802968D01*
X200170546Y-113924046D01*
X200170819Y-114035097D01*
X200171122Y-114136551D01*
X200171454Y-114228842D01*
X200171818Y-114312399D01*
X200172215Y-114387656D01*
X200172645Y-114455043D01*
X200173111Y-114514993D01*
X200173614Y-114567936D01*
X200174155Y-114614305D01*
X200174736Y-114654531D01*
X200175358Y-114689045D01*
X200176022Y-114718280D01*
X200176729Y-114742666D01*
X200177482Y-114762636D01*
X200178281Y-114778621D01*
X200179128Y-114791053D01*
X200180025Y-114800363D01*
X200180971Y-114806984D01*
X200181970Y-114811345D01*
X200182677Y-114813237D01*
X200199563Y-114838524D01*
X200221689Y-114860204D01*
X200222894Y-114861083D01*
X200249367Y-114879967D01*
X202244054Y-114882136D01*
X204238740Y-114884305D01*
X204266808Y-114865202D01*
X204290585Y-114845855D01*
X204311049Y-114824212D01*
X204312588Y-114822197D01*
X204330300Y-114798294D01*
X204332499Y-113533147D01*
X204334697Y-112268000D01*
X204495613Y-112268000D01*
X204491167Y-114846100D01*
X204491167Y-114846100D01*
G37*
X204491167Y-114846100D02*
X204471331Y-114883286D01*
X204434252Y-114937746D01*
X204386475Y-114985020D01*
X204332693Y-115020601D01*
X204323817Y-115024920D01*
X204271033Y-115049300D01*
X202273447Y-115051504D01*
X202052771Y-115051759D01*
X201848383Y-115052010D01*
X201659638Y-115052240D01*
X201485890Y-115052432D01*
X201326495Y-115052572D01*
X201180806Y-115052643D01*
X201048179Y-115052628D01*
X200927969Y-115052512D01*
X200819529Y-115052279D01*
X200722216Y-115051912D01*
X200635383Y-115051396D01*
X200558385Y-115050715D01*
X200490577Y-115049852D01*
X200431314Y-115048791D01*
X200379950Y-115047517D01*
X200335841Y-115046014D01*
X200298340Y-115044264D01*
X200266803Y-115042253D01*
X200240584Y-115039964D01*
X200219038Y-115037381D01*
X200201520Y-115034488D01*
X200187384Y-115031270D01*
X200175986Y-115027709D01*
X200166679Y-115023790D01*
X200158819Y-115019497D01*
X200151761Y-115014814D01*
X200144858Y-115009724D01*
X200137466Y-115004213D01*
X200128940Y-114998262D01*
X200128769Y-114998149D01*
X200082259Y-114957899D01*
X200044203Y-114905820D01*
X200017462Y-114846066D01*
X200012643Y-114829504D01*
X200011658Y-114824486D01*
X200010723Y-114816968D01*
X200009837Y-114806522D01*
X200009000Y-114792717D01*
X200008210Y-114775125D01*
X200007465Y-114753316D01*
X200006764Y-114726860D01*
X200006107Y-114695329D01*
X200005492Y-114658293D01*
X200004917Y-114615322D01*
X200004382Y-114565987D01*
X200003885Y-114509858D01*
X200003426Y-114446507D01*
X200003002Y-114375504D01*
X200002612Y-114296419D01*
X200002256Y-114208823D01*
X200001932Y-114112286D01*
X200001638Y-114006380D01*
X200001375Y-113890674D01*
X200001139Y-113764740D01*
X200000931Y-113628148D01*
X200000749Y-113480468D01*
X200000591Y-113321271D01*
X200000457Y-113150129D01*
X200000345Y-112966610D01*
X200000254Y-112770286D01*
X200000183Y-112560728D01*
X200000130Y-112337506D01*
X200000095Y-112100190D01*
X200000075Y-111848352D01*
X200000070Y-111581561D01*
X200000079Y-111299389D01*
X200000100Y-111001406D01*
X200000133Y-110687183D01*
X200000157Y-110486104D01*
X200000204Y-110160440D01*
X200000258Y-109851285D01*
X200000321Y-109558219D01*
X200000394Y-109280817D01*
X200000477Y-109018657D01*
X200000574Y-108771317D01*
X200000684Y-108538372D01*
X200000809Y-108319401D01*
X200000951Y-108113980D01*
X200001110Y-107921687D01*
X200001288Y-107742099D01*
X200001486Y-107574792D01*
X200001705Y-107419345D01*
X200001947Y-107275334D01*
X200002213Y-107142336D01*
X200002504Y-107019929D01*
X200002821Y-106907690D01*
X200003166Y-106805195D01*
X200003540Y-106712022D01*
X200003944Y-106627749D01*
X200004380Y-106551952D01*
X200004849Y-106484208D01*
X200005351Y-106424094D01*
X200005889Y-106371189D01*
X200006463Y-106325068D01*
X200007075Y-106285309D01*
X200007727Y-106251490D01*
X200008418Y-106223186D01*
X200009152Y-106199976D01*
X200009928Y-106181437D01*
X200010748Y-106167145D01*
X200011614Y-106156678D01*
X200012526Y-106149614D01*
X200013157Y-106146600D01*
X200036239Y-106088056D01*
X200071383Y-106034773D01*
X200115171Y-105991622D01*
X200128769Y-105981851D01*
X200137322Y-105975892D01*
X200144729Y-105970373D01*
X200151635Y-105965276D01*
X200158685Y-105960585D01*
X200166524Y-105956285D01*
X200175798Y-105952359D01*
X200187152Y-105948792D01*
X200201232Y-105945567D01*
X200218682Y-105942669D01*
X200240148Y-105940080D01*
X200266276Y-105937786D01*
X200297709Y-105935770D01*
X200335095Y-105934016D01*
X200379077Y-105932508D01*
X200430302Y-105931230D01*
X200489414Y-105930165D01*
X200557059Y-105929299D01*
X200633882Y-105928614D01*
X200720529Y-105928096D01*
X200817644Y-105927726D01*
X200925874Y-105927491D01*
X201045862Y-105927373D01*
X201178255Y-105927357D01*
X201323698Y-105927426D01*
X201482836Y-105927564D01*
X201656314Y-105927756D01*
X201844778Y-105927985D01*
X202048873Y-105928236D01*
X202269244Y-105928491D01*
X202273447Y-105928496D01*
X204271033Y-105930700D01*
X204324301Y-105955297D01*
X204377519Y-105987768D01*
X204424551Y-106031572D01*
X204461343Y-106082434D01*
X204477869Y-106117312D01*
X204481911Y-106128719D01*
X204485280Y-106140477D01*
X204488036Y-106154170D01*
X204490241Y-106171379D01*
X204491957Y-106193686D01*
X204493244Y-106222673D01*
X204494164Y-106259923D01*
X204494778Y-106307017D01*
X204495147Y-106365537D01*
X204495332Y-106437066D01*
X204495395Y-106523186D01*
X204495400Y-106570251D01*
X204495400Y-106976333D01*
X204335016Y-106976333D01*
X204332658Y-106579012D01*
X204332090Y-106486665D01*
X204331532Y-106409735D01*
X204330912Y-106346709D01*
X204330157Y-106296071D01*
X204329196Y-106256307D01*
X204327955Y-106225900D01*
X204326364Y-106203338D01*
X204324349Y-106187103D01*
X204321839Y-106175682D01*
X204318761Y-106167560D01*
X204315043Y-106161221D01*
X204312588Y-106157796D01*
X204293073Y-106136479D01*
X204269160Y-106116437D01*
X204266808Y-106114797D01*
X204238740Y-106095695D01*
X202244054Y-106097864D01*
X200249367Y-106100033D01*
X200222894Y-106118916D01*
X200200762Y-106140049D01*
X200183323Y-106165440D01*
X200182677Y-106166763D01*
X200181643Y-106169839D01*
X200180661Y-106174881D01*
X200179731Y-106182320D01*
X200178850Y-106192588D01*
X200178019Y-106206117D01*
X200177235Y-106223338D01*
X200176497Y-106244683D01*
X200175803Y-106270584D01*
X200175153Y-106301472D01*
X200174545Y-106337778D01*
X200173977Y-106379935D01*
X200173448Y-106428373D01*
X200172957Y-106483525D01*
X200172503Y-106545823D01*
X200172083Y-106615697D01*
X200171698Y-106693580D01*
X200171344Y-106779902D01*
X200171021Y-106875096D01*
X200170728Y-106979594D01*
X200170463Y-107093826D01*
X200170225Y-107218225D01*
X200170012Y-107353222D01*
X200169824Y-107499249D01*
X200169657Y-107656737D01*
X200169513Y-107826118D01*
X200169388Y-108007823D01*
X200169282Y-108202285D01*
X200169193Y-108409934D01*
X200169119Y-108631203D01*
X200169060Y-108866523D01*
X200169015Y-109116325D01*
X200168981Y-109381042D01*
X200168957Y-109661104D01*
X200168942Y-109956944D01*
X200168935Y-110268993D01*
X200168933Y-110490000D01*
X200168936Y-110813284D01*
X200168946Y-111120067D01*
X200168963Y-111410779D01*
X200168990Y-111685853D01*
X200169028Y-111945720D01*
X200169078Y-112190812D01*
X200169141Y-112421560D01*
X200169219Y-112638396D01*
X200169314Y-112841752D01*
X200169426Y-113032059D01*
X200169557Y-113209749D01*
X200169709Y-113375253D01*
X200169882Y-113529003D01*
X200170078Y-113671431D01*
X200170299Y-113802968D01*
X200170546Y-113924046D01*
X200170819Y-114035097D01*
X200171122Y-114136551D01*
X200171454Y-114228842D01*
X200171818Y-114312399D01*
X200172215Y-114387656D01*
X200172645Y-114455043D01*
X200173111Y-114514993D01*
X200173614Y-114567936D01*
X200174155Y-114614305D01*
X200174736Y-114654531D01*
X200175358Y-114689045D01*
X200176022Y-114718280D01*
X200176729Y-114742666D01*
X200177482Y-114762636D01*
X200178281Y-114778621D01*
X200179128Y-114791053D01*
X200180025Y-114800363D01*
X200180971Y-114806984D01*
X200181970Y-114811345D01*
X200182677Y-114813237D01*
X200199563Y-114838524D01*
X200221689Y-114860204D01*
X200222894Y-114861083D01*
X200249367Y-114879967D01*
X202244054Y-114882136D01*
X204238740Y-114884305D01*
X204266808Y-114865202D01*
X204290585Y-114845855D01*
X204311049Y-114824212D01*
X204312588Y-114822197D01*
X204330300Y-114798294D01*
X204332499Y-113533147D01*
X204334697Y-112268000D01*
X204495613Y-112268000D01*
X204491167Y-114846100D01*
G04 #@! TD*
D14*
G04 #@! TO.C,J14*
X160705000Y-124152000D02*
X160705000Y-127862000D01*
X164415000Y-127862000D01*
X164415000Y-124152000D01*
X160705000Y-124152000D01*
X160705000Y-129152000D02*
X160705000Y-132862000D01*
X164415000Y-132862000D01*
X164415000Y-129152000D01*
X160705000Y-129152000D01*
G04 #@! TD*
G04 #@! TO.C,J7*
X112191000Y-128945000D02*
X112191000Y-132655000D01*
X115901000Y-132655000D01*
X115901000Y-128945000D01*
X112191000Y-128945000D01*
X112191000Y-123945000D02*
X112191000Y-127655000D01*
X115901000Y-127655000D01*
X115901000Y-123945000D01*
X112191000Y-123945000D01*
G04 #@! TD*
G04 #@! TO.C,J8*
X117271000Y-123945000D02*
X117271000Y-127655000D01*
X120981000Y-127655000D01*
X120981000Y-123945000D01*
X117271000Y-123945000D01*
X117271000Y-128945000D02*
X117271000Y-132655000D01*
X120981000Y-132655000D01*
X120981000Y-128945000D01*
X117271000Y-128945000D01*
G04 #@! TD*
G04 #@! TO.C,J9*
X124383000Y-128945000D02*
X124383000Y-132655000D01*
X128093000Y-132655000D01*
X128093000Y-128945000D01*
X124383000Y-128945000D01*
X124383000Y-123945000D02*
X124383000Y-127655000D01*
X128093000Y-127655000D01*
X128093000Y-123945000D01*
X124383000Y-123945000D01*
G04 #@! TD*
G04 #@! TO.C,J10*
X129463000Y-123945000D02*
X129463000Y-127655000D01*
X133173000Y-127655000D01*
X133173000Y-123945000D01*
X129463000Y-123945000D01*
X129463000Y-128945000D02*
X129463000Y-132655000D01*
X133173000Y-132655000D01*
X133173000Y-128945000D01*
X129463000Y-128945000D01*
G04 #@! TD*
G04 #@! TO.C,J11*
X143433000Y-129152000D02*
X143433000Y-132862000D01*
X147143000Y-132862000D01*
X147143000Y-129152000D01*
X143433000Y-129152000D01*
X143433000Y-124152000D02*
X143433000Y-127862000D01*
X147143000Y-127862000D01*
X147143000Y-124152000D01*
X143433000Y-124152000D01*
G04 #@! TD*
G04 #@! TO.C,J12*
X148513000Y-124152000D02*
X148513000Y-127862000D01*
X152223000Y-127862000D01*
X152223000Y-124152000D01*
X148513000Y-124152000D01*
X148513000Y-129152000D02*
X148513000Y-132862000D01*
X152223000Y-132862000D01*
X152223000Y-129152000D01*
X148513000Y-129152000D01*
G04 #@! TD*
G04 #@! TO.C,J13*
X155625000Y-129152000D02*
X155625000Y-132862000D01*
X159335000Y-132862000D01*
X159335000Y-129152000D01*
X155625000Y-129152000D01*
X155625000Y-124152000D02*
X155625000Y-127862000D01*
X159335000Y-127862000D01*
X159335000Y-124152000D01*
X155625000Y-124152000D01*
G04 #@! TD*
G04 #@! TO.C,J16*
X179501000Y-124185000D02*
X179501000Y-127895000D01*
X183211000Y-127895000D01*
X183211000Y-124185000D01*
X179501000Y-124185000D01*
X179501000Y-129185000D02*
X179501000Y-132895000D01*
X183211000Y-132895000D01*
X183211000Y-129185000D01*
X179501000Y-129185000D01*
G04 #@! TD*
G04 #@! TO.C,J17*
X186613000Y-129185000D02*
X186613000Y-132895000D01*
X190323000Y-132895000D01*
X190323000Y-129185000D01*
X186613000Y-129185000D01*
X186613000Y-124185000D02*
X186613000Y-127895000D01*
X190323000Y-127895000D01*
X190323000Y-124185000D01*
X186613000Y-124185000D01*
G04 #@! TD*
G04 #@! TO.C,J18*
X191693000Y-124185000D02*
X191693000Y-127895000D01*
X195403000Y-127895000D01*
X195403000Y-124185000D01*
X191693000Y-124185000D01*
X191693000Y-129185000D02*
X191693000Y-132895000D01*
X195403000Y-132895000D01*
X195403000Y-129185000D01*
X191693000Y-129185000D01*
G04 #@! TD*
G04 #@! TO.C,J19*
X200441000Y-94157000D02*
X200441000Y-97867000D01*
X204151000Y-97867000D01*
X204151000Y-94157000D01*
X200441000Y-94157000D01*
X195441000Y-94157000D02*
X195441000Y-97867000D01*
X199151000Y-97867000D01*
X199151000Y-94157000D01*
X195441000Y-94157000D01*
G04 #@! TD*
G04 #@! TO.C,J21*
X195385000Y-81965000D02*
X195385000Y-85675000D01*
X199095000Y-85675000D01*
X199095000Y-81965000D01*
X195385000Y-81965000D01*
X200385000Y-81965000D02*
X200385000Y-85675000D01*
X204095000Y-85675000D01*
X204095000Y-81965000D01*
X200385000Y-81965000D01*
G04 #@! TD*
G04 #@! TO.C,J22*
X200385000Y-76885000D02*
X200385000Y-80595000D01*
X204095000Y-80595000D01*
X204095000Y-76885000D01*
X200385000Y-76885000D01*
X195385000Y-76885000D02*
X195385000Y-80595000D01*
X199095000Y-80595000D01*
X199095000Y-76885000D01*
X195385000Y-76885000D01*
G04 #@! TD*
G04 #@! TO.C,J15*
X174421000Y-124185000D02*
X174421000Y-127895000D01*
X178131000Y-127895000D01*
X178131000Y-124185000D01*
X174421000Y-124185000D01*
X174421000Y-129185000D02*
X174421000Y-132895000D01*
X178131000Y-132895000D01*
X178131000Y-129185000D01*
X174421000Y-129185000D01*
G04 #@! TD*
G04 #@! TO.C,J20*
X200441000Y-89077000D02*
X200441000Y-92787000D01*
X204151000Y-92787000D01*
X204151000Y-89077000D01*
X200441000Y-89077000D01*
X195441000Y-89077000D02*
X195441000Y-92787000D01*
X199151000Y-92787000D01*
X199151000Y-89077000D01*
X195441000Y-89077000D01*
G04 #@! TD*
G04 #@! TO.C,J5*
X178612000Y-56184000D02*
X178612000Y-57608000D01*
X180036000Y-57608000D01*
X180036000Y-56184000D01*
X178612000Y-56184000D01*
X178612000Y-53644000D02*
X178612000Y-55068000D01*
X180036000Y-55068000D01*
X180036000Y-53644000D01*
X178612000Y-53644000D01*
X178612000Y-51104000D02*
X178612000Y-52528000D01*
X180036000Y-52528000D01*
X180036000Y-51104000D01*
X178612000Y-51104000D01*
X178612000Y-48564000D02*
X178612000Y-49988000D01*
X180036000Y-49988000D01*
X180036000Y-48564000D01*
X178612000Y-48564000D01*
G04 #@! TD*
G04 #@! TO.C,J4*
X173532000Y-48564000D02*
X173532000Y-49988000D01*
X174956000Y-49988000D01*
X174956000Y-48564000D01*
X173532000Y-48564000D01*
X173532000Y-51104000D02*
X173532000Y-52528000D01*
X174956000Y-52528000D01*
X174956000Y-51104000D01*
X173532000Y-51104000D01*
X170992000Y-48564000D02*
X170992000Y-49988000D01*
X172416000Y-49988000D01*
X172416000Y-48564000D01*
X170992000Y-48564000D01*
X170992000Y-51104000D02*
X170992000Y-52528000D01*
X172416000Y-52528000D01*
X172416000Y-51104000D01*
X170992000Y-51104000D01*
X168452000Y-48564000D02*
X168452000Y-49988000D01*
X169876000Y-49988000D01*
X169876000Y-48564000D01*
X168452000Y-48564000D01*
X168452000Y-51104000D02*
X168452000Y-52528000D01*
X169876000Y-52528000D01*
X169876000Y-51104000D01*
X168452000Y-51104000D01*
G04 #@! TD*
G04 #@! TO.C,J2*
X202488000Y-67868000D02*
X202488000Y-69292000D01*
X203912000Y-69292000D01*
X203912000Y-67868000D01*
X202488000Y-67868000D01*
X199948000Y-67868000D02*
X199948000Y-69292000D01*
X201372000Y-69292000D01*
X201372000Y-67868000D01*
X199948000Y-67868000D01*
X202488000Y-65328000D02*
X202488000Y-66752000D01*
X203912000Y-66752000D01*
X203912000Y-65328000D01*
X202488000Y-65328000D01*
X199948000Y-65328000D02*
X199948000Y-66752000D01*
X201372000Y-66752000D01*
X201372000Y-65328000D01*
X199948000Y-65328000D01*
X202488000Y-62788000D02*
X202488000Y-64212000D01*
X203912000Y-64212000D01*
X203912000Y-62788000D01*
X202488000Y-62788000D01*
X199948000Y-62788000D02*
X199948000Y-64212000D01*
X201372000Y-64212000D01*
X201372000Y-62788000D01*
X199948000Y-62788000D01*
X202488000Y-60248000D02*
X202488000Y-61672000D01*
X203912000Y-61672000D01*
X203912000Y-60248000D01*
X202488000Y-60248000D01*
X199948000Y-60248000D02*
X199948000Y-61672000D01*
X201372000Y-61672000D01*
X201372000Y-60248000D01*
X199948000Y-60248000D01*
G04 #@! TD*
G04 #@! TO.C,J6*
X153720000Y-51104000D02*
X153720000Y-52528000D01*
X155144000Y-52528000D01*
X155144000Y-51104000D01*
X153720000Y-51104000D01*
X153720000Y-48564000D02*
X153720000Y-49988000D01*
X155144000Y-49988000D01*
X155144000Y-48564000D01*
X153720000Y-48564000D01*
X156260000Y-51104000D02*
X156260000Y-52528000D01*
X157684000Y-52528000D01*
X157684000Y-51104000D01*
X156260000Y-51104000D01*
X156260000Y-48564000D02*
X156260000Y-49988000D01*
X157684000Y-49988000D01*
X157684000Y-48564000D01*
X156260000Y-48564000D01*
X158800000Y-51104000D02*
X158800000Y-52528000D01*
X160224000Y-52528000D01*
X160224000Y-51104000D01*
X158800000Y-51104000D01*
X158800000Y-48564000D02*
X158800000Y-49988000D01*
X160224000Y-49988000D01*
X160224000Y-48564000D01*
X158800000Y-48564000D01*
X161340000Y-51104000D02*
X161340000Y-52528000D01*
X162764000Y-52528000D01*
X162764000Y-51104000D01*
X161340000Y-51104000D01*
X161340000Y-48564000D02*
X161340000Y-49988000D01*
X162764000Y-49988000D01*
X162764000Y-48564000D01*
X161340000Y-48564000D01*
X163880000Y-51104000D02*
X163880000Y-52528000D01*
X165304000Y-52528000D01*
X165304000Y-51104000D01*
X163880000Y-51104000D01*
X163880000Y-48564000D02*
X163880000Y-49988000D01*
X165304000Y-49988000D01*
X165304000Y-48564000D01*
X163880000Y-48564000D01*
G04 #@! TD*
G04 #@! TO.C,J1*
X128828000Y-51104000D02*
X128828000Y-52528000D01*
X130252000Y-52528000D01*
X130252000Y-51104000D01*
X128828000Y-51104000D01*
X128828000Y-48564000D02*
X128828000Y-49988000D01*
X130252000Y-49988000D01*
X130252000Y-48564000D01*
X128828000Y-48564000D01*
X131368000Y-51104000D02*
X131368000Y-52528000D01*
X132792000Y-52528000D01*
X132792000Y-51104000D01*
X131368000Y-51104000D01*
X131368000Y-48564000D02*
X131368000Y-49988000D01*
X132792000Y-49988000D01*
X132792000Y-48564000D01*
X131368000Y-48564000D01*
X133908000Y-51104000D02*
X133908000Y-52528000D01*
X135332000Y-52528000D01*
X135332000Y-51104000D01*
X133908000Y-51104000D01*
X133908000Y-48564000D02*
X133908000Y-49988000D01*
X135332000Y-49988000D01*
X135332000Y-48564000D01*
X133908000Y-48564000D01*
X136448000Y-51104000D02*
X136448000Y-52528000D01*
X137872000Y-52528000D01*
X137872000Y-51104000D01*
X136448000Y-51104000D01*
X136448000Y-48564000D02*
X136448000Y-49988000D01*
X137872000Y-49988000D01*
X137872000Y-48564000D01*
X136448000Y-48564000D01*
X138988000Y-51104000D02*
X138988000Y-52528000D01*
X140412000Y-52528000D01*
X140412000Y-51104000D01*
X138988000Y-51104000D01*
X138988000Y-48564000D02*
X138988000Y-49988000D01*
X140412000Y-49988000D01*
X140412000Y-48564000D01*
X138988000Y-48564000D01*
X141528000Y-51104000D02*
X141528000Y-52528000D01*
X142952000Y-52528000D01*
X142952000Y-51104000D01*
X141528000Y-51104000D01*
X141528000Y-48564000D02*
X141528000Y-49988000D01*
X142952000Y-49988000D01*
X142952000Y-48564000D01*
X141528000Y-48564000D01*
X144068000Y-51104000D02*
X144068000Y-52528000D01*
X145492000Y-52528000D01*
X145492000Y-51104000D01*
X144068000Y-51104000D01*
X144068000Y-48564000D02*
X144068000Y-49988000D01*
X145492000Y-49988000D01*
X145492000Y-48564000D01*
X144068000Y-48564000D01*
X146608000Y-51104000D02*
X146608000Y-52528000D01*
X148032000Y-52528000D01*
X148032000Y-51104000D01*
X146608000Y-51104000D01*
X146608000Y-48564000D02*
X146608000Y-49988000D01*
X148032000Y-49988000D01*
X148032000Y-48564000D01*
X146608000Y-48564000D01*
X149148000Y-51104000D02*
X149148000Y-52528000D01*
X150572000Y-52528000D01*
X150572000Y-51104000D01*
X149148000Y-51104000D01*
X149148000Y-48564000D02*
X149148000Y-49988000D01*
X150572000Y-49988000D01*
X150572000Y-48564000D01*
X149148000Y-48564000D01*
G04 #@! TD*
G04 #@! TO.C,FLASH*
D10*
X109820857Y-63588380D02*
X109820857Y-63155047D01*
X109139904Y-63155047D02*
X110439904Y-63155047D01*
X110439904Y-63774095D01*
X109139904Y-64888380D02*
X109139904Y-64269333D01*
X110439904Y-64269333D01*
X109511333Y-65259809D02*
X109511333Y-65878857D01*
X109139904Y-65136000D02*
X110439904Y-65569333D01*
X109139904Y-66002666D01*
X109201809Y-66374095D02*
X109139904Y-66559809D01*
X109139904Y-66869333D01*
X109201809Y-66993142D01*
X109263714Y-67055047D01*
X109387523Y-67116952D01*
X109511333Y-67116952D01*
X109635142Y-67055047D01*
X109697047Y-66993142D01*
X109758952Y-66869333D01*
X109820857Y-66621714D01*
X109882761Y-66497904D01*
X109944666Y-66436000D01*
X110068476Y-66374095D01*
X110192285Y-66374095D01*
X110316095Y-66436000D01*
X110378000Y-66497904D01*
X110439904Y-66621714D01*
X110439904Y-66931238D01*
X110378000Y-67116952D01*
X109139904Y-67674095D02*
X110439904Y-67674095D01*
X109820857Y-67674095D02*
X109820857Y-68416952D01*
X109139904Y-68416952D02*
X110439904Y-68416952D01*
G04 #@! TO.C,RESET*
X109139904Y-73549904D02*
X109758952Y-73116571D01*
X109139904Y-72807047D02*
X110439904Y-72807047D01*
X110439904Y-73302285D01*
X110378000Y-73426095D01*
X110316095Y-73488000D01*
X110192285Y-73549904D01*
X110006571Y-73549904D01*
X109882761Y-73488000D01*
X109820857Y-73426095D01*
X109758952Y-73302285D01*
X109758952Y-72807047D01*
X109820857Y-74107047D02*
X109820857Y-74540380D01*
X109139904Y-74726095D02*
X109139904Y-74107047D01*
X110439904Y-74107047D01*
X110439904Y-74726095D01*
X109201809Y-75221333D02*
X109139904Y-75407047D01*
X109139904Y-75716571D01*
X109201809Y-75840380D01*
X109263714Y-75902285D01*
X109387523Y-75964190D01*
X109511333Y-75964190D01*
X109635142Y-75902285D01*
X109697047Y-75840380D01*
X109758952Y-75716571D01*
X109820857Y-75468952D01*
X109882761Y-75345142D01*
X109944666Y-75283238D01*
X110068476Y-75221333D01*
X110192285Y-75221333D01*
X110316095Y-75283238D01*
X110378000Y-75345142D01*
X110439904Y-75468952D01*
X110439904Y-75778476D01*
X110378000Y-75964190D01*
X109820857Y-76521333D02*
X109820857Y-76954666D01*
X109139904Y-77140380D02*
X109139904Y-76521333D01*
X110439904Y-76521333D01*
X110439904Y-77140380D01*
X110439904Y-77511809D02*
X110439904Y-78254666D01*
X109139904Y-77883238D02*
X110439904Y-77883238D01*
G04 #@! TO.C,J14*
D15*
X161326285Y-133554428D02*
X161326285Y-134643000D01*
X161253714Y-134860714D01*
X161108571Y-135005857D01*
X160890857Y-135078428D01*
X160745714Y-135078428D01*
X162850285Y-135078428D02*
X161979428Y-135078428D01*
X162414857Y-135078428D02*
X162414857Y-133554428D01*
X162269714Y-133772142D01*
X162124571Y-133917285D01*
X161979428Y-133989857D01*
X164156571Y-134062428D02*
X164156571Y-135078428D01*
X163793714Y-133481857D02*
X163430857Y-134570428D01*
X164374285Y-134570428D01*
G04 #@! TO.C,J7*
X113538000Y-133347428D02*
X113538000Y-134436000D01*
X113465428Y-134653714D01*
X113320285Y-134798857D01*
X113102571Y-134871428D01*
X112957428Y-134871428D01*
X114118571Y-133347428D02*
X115134571Y-133347428D01*
X114481428Y-134871428D01*
G04 #@! TO.C,J8*
X118618000Y-133347428D02*
X118618000Y-134436000D01*
X118545428Y-134653714D01*
X118400285Y-134798857D01*
X118182571Y-134871428D01*
X118037428Y-134871428D01*
X119561428Y-134000571D02*
X119416285Y-133928000D01*
X119343714Y-133855428D01*
X119271142Y-133710285D01*
X119271142Y-133637714D01*
X119343714Y-133492571D01*
X119416285Y-133420000D01*
X119561428Y-133347428D01*
X119851714Y-133347428D01*
X119996857Y-133420000D01*
X120069428Y-133492571D01*
X120142000Y-133637714D01*
X120142000Y-133710285D01*
X120069428Y-133855428D01*
X119996857Y-133928000D01*
X119851714Y-134000571D01*
X119561428Y-134000571D01*
X119416285Y-134073142D01*
X119343714Y-134145714D01*
X119271142Y-134290857D01*
X119271142Y-134581142D01*
X119343714Y-134726285D01*
X119416285Y-134798857D01*
X119561428Y-134871428D01*
X119851714Y-134871428D01*
X119996857Y-134798857D01*
X120069428Y-134726285D01*
X120142000Y-134581142D01*
X120142000Y-134290857D01*
X120069428Y-134145714D01*
X119996857Y-134073142D01*
X119851714Y-134000571D01*
G04 #@! TO.C,J9*
X125730000Y-133347428D02*
X125730000Y-134436000D01*
X125657428Y-134653714D01*
X125512285Y-134798857D01*
X125294571Y-134871428D01*
X125149428Y-134871428D01*
X126528285Y-134871428D02*
X126818571Y-134871428D01*
X126963714Y-134798857D01*
X127036285Y-134726285D01*
X127181428Y-134508571D01*
X127254000Y-134218285D01*
X127254000Y-133637714D01*
X127181428Y-133492571D01*
X127108857Y-133420000D01*
X126963714Y-133347428D01*
X126673428Y-133347428D01*
X126528285Y-133420000D01*
X126455714Y-133492571D01*
X126383142Y-133637714D01*
X126383142Y-134000571D01*
X126455714Y-134145714D01*
X126528285Y-134218285D01*
X126673428Y-134290857D01*
X126963714Y-134290857D01*
X127108857Y-134218285D01*
X127181428Y-134145714D01*
X127254000Y-134000571D01*
G04 #@! TO.C,J10*
X130084285Y-133347428D02*
X130084285Y-134436000D01*
X130011714Y-134653714D01*
X129866571Y-134798857D01*
X129648857Y-134871428D01*
X129503714Y-134871428D01*
X131608285Y-134871428D02*
X130737428Y-134871428D01*
X131172857Y-134871428D02*
X131172857Y-133347428D01*
X131027714Y-133565142D01*
X130882571Y-133710285D01*
X130737428Y-133782857D01*
X132551714Y-133347428D02*
X132696857Y-133347428D01*
X132842000Y-133420000D01*
X132914571Y-133492571D01*
X132987142Y-133637714D01*
X133059714Y-133928000D01*
X133059714Y-134290857D01*
X132987142Y-134581142D01*
X132914571Y-134726285D01*
X132842000Y-134798857D01*
X132696857Y-134871428D01*
X132551714Y-134871428D01*
X132406571Y-134798857D01*
X132334000Y-134726285D01*
X132261428Y-134581142D01*
X132188857Y-134290857D01*
X132188857Y-133928000D01*
X132261428Y-133637714D01*
X132334000Y-133492571D01*
X132406571Y-133420000D01*
X132551714Y-133347428D01*
G04 #@! TO.C,J11*
X144054285Y-133554428D02*
X144054285Y-134643000D01*
X143981714Y-134860714D01*
X143836571Y-135005857D01*
X143618857Y-135078428D01*
X143473714Y-135078428D01*
X145578285Y-135078428D02*
X144707428Y-135078428D01*
X145142857Y-135078428D02*
X145142857Y-133554428D01*
X144997714Y-133772142D01*
X144852571Y-133917285D01*
X144707428Y-133989857D01*
X147029714Y-135078428D02*
X146158857Y-135078428D01*
X146594285Y-135078428D02*
X146594285Y-133554428D01*
X146449142Y-133772142D01*
X146304000Y-133917285D01*
X146158857Y-133989857D01*
G04 #@! TO.C,J12*
X149134285Y-133554428D02*
X149134285Y-134643000D01*
X149061714Y-134860714D01*
X148916571Y-135005857D01*
X148698857Y-135078428D01*
X148553714Y-135078428D01*
X150658285Y-135078428D02*
X149787428Y-135078428D01*
X150222857Y-135078428D02*
X150222857Y-133554428D01*
X150077714Y-133772142D01*
X149932571Y-133917285D01*
X149787428Y-133989857D01*
X151238857Y-133699571D02*
X151311428Y-133627000D01*
X151456571Y-133554428D01*
X151819428Y-133554428D01*
X151964571Y-133627000D01*
X152037142Y-133699571D01*
X152109714Y-133844714D01*
X152109714Y-133989857D01*
X152037142Y-134207571D01*
X151166285Y-135078428D01*
X152109714Y-135078428D01*
G04 #@! TO.C,J13*
X156246285Y-133554428D02*
X156246285Y-134643000D01*
X156173714Y-134860714D01*
X156028571Y-135005857D01*
X155810857Y-135078428D01*
X155665714Y-135078428D01*
X157770285Y-135078428D02*
X156899428Y-135078428D01*
X157334857Y-135078428D02*
X157334857Y-133554428D01*
X157189714Y-133772142D01*
X157044571Y-133917285D01*
X156899428Y-133989857D01*
X158278285Y-133554428D02*
X159221714Y-133554428D01*
X158713714Y-134135000D01*
X158931428Y-134135000D01*
X159076571Y-134207571D01*
X159149142Y-134280142D01*
X159221714Y-134425285D01*
X159221714Y-134788142D01*
X159149142Y-134933285D01*
X159076571Y-135005857D01*
X158931428Y-135078428D01*
X158496000Y-135078428D01*
X158350857Y-135005857D01*
X158278285Y-134933285D01*
G04 #@! TO.C,J16*
X180122285Y-133587428D02*
X180122285Y-134676000D01*
X180049714Y-134893714D01*
X179904571Y-135038857D01*
X179686857Y-135111428D01*
X179541714Y-135111428D01*
X181646285Y-135111428D02*
X180775428Y-135111428D01*
X181210857Y-135111428D02*
X181210857Y-133587428D01*
X181065714Y-133805142D01*
X180920571Y-133950285D01*
X180775428Y-134022857D01*
X182952571Y-133587428D02*
X182662285Y-133587428D01*
X182517142Y-133660000D01*
X182444571Y-133732571D01*
X182299428Y-133950285D01*
X182226857Y-134240571D01*
X182226857Y-134821142D01*
X182299428Y-134966285D01*
X182372000Y-135038857D01*
X182517142Y-135111428D01*
X182807428Y-135111428D01*
X182952571Y-135038857D01*
X183025142Y-134966285D01*
X183097714Y-134821142D01*
X183097714Y-134458285D01*
X183025142Y-134313142D01*
X182952571Y-134240571D01*
X182807428Y-134168000D01*
X182517142Y-134168000D01*
X182372000Y-134240571D01*
X182299428Y-134313142D01*
X182226857Y-134458285D01*
G04 #@! TO.C,J17*
X187234285Y-133587428D02*
X187234285Y-134676000D01*
X187161714Y-134893714D01*
X187016571Y-135038857D01*
X186798857Y-135111428D01*
X186653714Y-135111428D01*
X188758285Y-135111428D02*
X187887428Y-135111428D01*
X188322857Y-135111428D02*
X188322857Y-133587428D01*
X188177714Y-133805142D01*
X188032571Y-133950285D01*
X187887428Y-134022857D01*
X189266285Y-133587428D02*
X190282285Y-133587428D01*
X189629142Y-135111428D01*
G04 #@! TO.C,J18*
X192314285Y-133587428D02*
X192314285Y-134676000D01*
X192241714Y-134893714D01*
X192096571Y-135038857D01*
X191878857Y-135111428D01*
X191733714Y-135111428D01*
X193838285Y-135111428D02*
X192967428Y-135111428D01*
X193402857Y-135111428D02*
X193402857Y-133587428D01*
X193257714Y-133805142D01*
X193112571Y-133950285D01*
X192967428Y-134022857D01*
X194709142Y-134240571D02*
X194564000Y-134168000D01*
X194491428Y-134095428D01*
X194418857Y-133950285D01*
X194418857Y-133877714D01*
X194491428Y-133732571D01*
X194564000Y-133660000D01*
X194709142Y-133587428D01*
X194999428Y-133587428D01*
X195144571Y-133660000D01*
X195217142Y-133732571D01*
X195289714Y-133877714D01*
X195289714Y-133950285D01*
X195217142Y-134095428D01*
X195144571Y-134168000D01*
X194999428Y-134240571D01*
X194709142Y-134240571D01*
X194564000Y-134313142D01*
X194491428Y-134385714D01*
X194418857Y-134530857D01*
X194418857Y-134821142D01*
X194491428Y-134966285D01*
X194564000Y-135038857D01*
X194709142Y-135111428D01*
X194999428Y-135111428D01*
X195144571Y-135038857D01*
X195217142Y-134966285D01*
X195289714Y-134821142D01*
X195289714Y-134530857D01*
X195217142Y-134385714D01*
X195144571Y-134313142D01*
X194999428Y-134240571D01*
G04 #@! TO.C,J19*
X204843428Y-97245714D02*
X205932000Y-97245714D01*
X206149714Y-97318285D01*
X206294857Y-97463428D01*
X206367428Y-97681142D01*
X206367428Y-97826285D01*
X206367428Y-95721714D02*
X206367428Y-96592571D01*
X206367428Y-96157142D02*
X204843428Y-96157142D01*
X205061142Y-96302285D01*
X205206285Y-96447428D01*
X205278857Y-96592571D01*
X206367428Y-94996000D02*
X206367428Y-94705714D01*
X206294857Y-94560571D01*
X206222285Y-94488000D01*
X206004571Y-94342857D01*
X205714285Y-94270285D01*
X205133714Y-94270285D01*
X204988571Y-94342857D01*
X204916000Y-94415428D01*
X204843428Y-94560571D01*
X204843428Y-94850857D01*
X204916000Y-94996000D01*
X204988571Y-95068571D01*
X205133714Y-95141142D01*
X205496571Y-95141142D01*
X205641714Y-95068571D01*
X205714285Y-94996000D01*
X205786857Y-94850857D01*
X205786857Y-94560571D01*
X205714285Y-94415428D01*
X205641714Y-94342857D01*
X205496571Y-94270285D01*
G04 #@! TO.C,J21*
X204787428Y-85053714D02*
X205876000Y-85053714D01*
X206093714Y-85126285D01*
X206238857Y-85271428D01*
X206311428Y-85489142D01*
X206311428Y-85634285D01*
X204932571Y-84400571D02*
X204860000Y-84328000D01*
X204787428Y-84182857D01*
X204787428Y-83820000D01*
X204860000Y-83674857D01*
X204932571Y-83602285D01*
X205077714Y-83529714D01*
X205222857Y-83529714D01*
X205440571Y-83602285D01*
X206311428Y-84473142D01*
X206311428Y-83529714D01*
X206311428Y-82078285D02*
X206311428Y-82949142D01*
X206311428Y-82513714D02*
X204787428Y-82513714D01*
X205005142Y-82658857D01*
X205150285Y-82804000D01*
X205222857Y-82949142D01*
G04 #@! TO.C,J22*
X204787428Y-79973714D02*
X205876000Y-79973714D01*
X206093714Y-80046285D01*
X206238857Y-80191428D01*
X206311428Y-80409142D01*
X206311428Y-80554285D01*
X204932571Y-79320571D02*
X204860000Y-79248000D01*
X204787428Y-79102857D01*
X204787428Y-78740000D01*
X204860000Y-78594857D01*
X204932571Y-78522285D01*
X205077714Y-78449714D01*
X205222857Y-78449714D01*
X205440571Y-78522285D01*
X206311428Y-79393142D01*
X206311428Y-78449714D01*
X204932571Y-77869142D02*
X204860000Y-77796571D01*
X204787428Y-77651428D01*
X204787428Y-77288571D01*
X204860000Y-77143428D01*
X204932571Y-77070857D01*
X205077714Y-76998285D01*
X205222857Y-76998285D01*
X205440571Y-77070857D01*
X206311428Y-77941714D01*
X206311428Y-76998285D01*
G04 #@! TO.C,J15*
X175042285Y-133587428D02*
X175042285Y-134676000D01*
X174969714Y-134893714D01*
X174824571Y-135038857D01*
X174606857Y-135111428D01*
X174461714Y-135111428D01*
X176566285Y-135111428D02*
X175695428Y-135111428D01*
X176130857Y-135111428D02*
X176130857Y-133587428D01*
X175985714Y-133805142D01*
X175840571Y-133950285D01*
X175695428Y-134022857D01*
X177945142Y-133587428D02*
X177219428Y-133587428D01*
X177146857Y-134313142D01*
X177219428Y-134240571D01*
X177364571Y-134168000D01*
X177727428Y-134168000D01*
X177872571Y-134240571D01*
X177945142Y-134313142D01*
X178017714Y-134458285D01*
X178017714Y-134821142D01*
X177945142Y-134966285D01*
X177872571Y-135038857D01*
X177727428Y-135111428D01*
X177364571Y-135111428D01*
X177219428Y-135038857D01*
X177146857Y-134966285D01*
G04 #@! TO.C,J20*
X204843428Y-92165714D02*
X205932000Y-92165714D01*
X206149714Y-92238285D01*
X206294857Y-92383428D01*
X206367428Y-92601142D01*
X206367428Y-92746285D01*
X204988571Y-91512571D02*
X204916000Y-91440000D01*
X204843428Y-91294857D01*
X204843428Y-90932000D01*
X204916000Y-90786857D01*
X204988571Y-90714285D01*
X205133714Y-90641714D01*
X205278857Y-90641714D01*
X205496571Y-90714285D01*
X206367428Y-91585142D01*
X206367428Y-90641714D01*
X204843428Y-89698285D02*
X204843428Y-89553142D01*
X204916000Y-89408000D01*
X204988571Y-89335428D01*
X205133714Y-89262857D01*
X205424000Y-89190285D01*
X205786857Y-89190285D01*
X206077142Y-89262857D01*
X206222285Y-89335428D01*
X206294857Y-89408000D01*
X206367428Y-89553142D01*
X206367428Y-89698285D01*
X206294857Y-89843428D01*
X206222285Y-89916000D01*
X206077142Y-89988571D01*
X205786857Y-90061142D01*
X205424000Y-90061142D01*
X205133714Y-89988571D01*
X204988571Y-89916000D01*
X204916000Y-89843428D01*
X204843428Y-89698285D01*
G04 #@! TO.C,Q7*
D12*
X175631619Y-111347238D02*
X175584000Y-111442476D01*
X175488761Y-111537714D01*
X175345904Y-111680571D01*
X175298285Y-111775809D01*
X175298285Y-111871047D01*
X175536380Y-111823428D02*
X175488761Y-111918666D01*
X175393523Y-112013904D01*
X175203047Y-112061523D01*
X174869714Y-112061523D01*
X174679238Y-112013904D01*
X174584000Y-111918666D01*
X174536380Y-111823428D01*
X174536380Y-111632952D01*
X174584000Y-111537714D01*
X174679238Y-111442476D01*
X174869714Y-111394857D01*
X175203047Y-111394857D01*
X175393523Y-111442476D01*
X175488761Y-111537714D01*
X175536380Y-111632952D01*
X175536380Y-111823428D01*
X174536380Y-111061523D02*
X174536380Y-110394857D01*
X175536380Y-110823428D01*
G04 #@! TO.C,Q10*
X182308571Y-85311619D02*
X182213333Y-85264000D01*
X182118095Y-85168761D01*
X181975238Y-85025904D01*
X181880000Y-84978285D01*
X181784761Y-84978285D01*
X181832380Y-85216380D02*
X181737142Y-85168761D01*
X181641904Y-85073523D01*
X181594285Y-84883047D01*
X181594285Y-84549714D01*
X181641904Y-84359238D01*
X181737142Y-84264000D01*
X181832380Y-84216380D01*
X182022857Y-84216380D01*
X182118095Y-84264000D01*
X182213333Y-84359238D01*
X182260952Y-84549714D01*
X182260952Y-84883047D01*
X182213333Y-85073523D01*
X182118095Y-85168761D01*
X182022857Y-85216380D01*
X181832380Y-85216380D01*
X183213333Y-85216380D02*
X182641904Y-85216380D01*
X182927619Y-85216380D02*
X182927619Y-84216380D01*
X182832380Y-84359238D01*
X182737142Y-84454476D01*
X182641904Y-84502095D01*
X183832380Y-84216380D02*
X183927619Y-84216380D01*
X184022857Y-84264000D01*
X184070476Y-84311619D01*
X184118095Y-84406857D01*
X184165714Y-84597333D01*
X184165714Y-84835428D01*
X184118095Y-85025904D01*
X184070476Y-85121142D01*
X184022857Y-85168761D01*
X183927619Y-85216380D01*
X183832380Y-85216380D01*
X183737142Y-85168761D01*
X183689523Y-85121142D01*
X183641904Y-85025904D01*
X183594285Y-84835428D01*
X183594285Y-84597333D01*
X183641904Y-84406857D01*
X183689523Y-84311619D01*
X183737142Y-84264000D01*
X183832380Y-84216380D01*
G04 #@! TO.C,Q9*
X182701761Y-98012619D02*
X182606523Y-97965000D01*
X182511285Y-97869761D01*
X182368428Y-97726904D01*
X182273190Y-97679285D01*
X182177952Y-97679285D01*
X182225571Y-97917380D02*
X182130333Y-97869761D01*
X182035095Y-97774523D01*
X181987476Y-97584047D01*
X181987476Y-97250714D01*
X182035095Y-97060238D01*
X182130333Y-96965000D01*
X182225571Y-96917380D01*
X182416047Y-96917380D01*
X182511285Y-96965000D01*
X182606523Y-97060238D01*
X182654142Y-97250714D01*
X182654142Y-97584047D01*
X182606523Y-97774523D01*
X182511285Y-97869761D01*
X182416047Y-97917380D01*
X182225571Y-97917380D01*
X183130333Y-97917380D02*
X183320809Y-97917380D01*
X183416047Y-97869761D01*
X183463666Y-97822142D01*
X183558904Y-97679285D01*
X183606523Y-97488809D01*
X183606523Y-97107857D01*
X183558904Y-97012619D01*
X183511285Y-96965000D01*
X183416047Y-96917380D01*
X183225571Y-96917380D01*
X183130333Y-96965000D01*
X183082714Y-97012619D01*
X183035095Y-97107857D01*
X183035095Y-97345952D01*
X183082714Y-97441190D01*
X183130333Y-97488809D01*
X183225571Y-97536428D01*
X183416047Y-97536428D01*
X183511285Y-97488809D01*
X183558904Y-97441190D01*
X183606523Y-97345952D01*
G04 #@! TO.C,Q8*
X188071619Y-111415238D02*
X188024000Y-111510476D01*
X187928761Y-111605714D01*
X187785904Y-111748571D01*
X187738285Y-111843809D01*
X187738285Y-111939047D01*
X187976380Y-111891428D02*
X187928761Y-111986666D01*
X187833523Y-112081904D01*
X187643047Y-112129523D01*
X187309714Y-112129523D01*
X187119238Y-112081904D01*
X187024000Y-111986666D01*
X186976380Y-111891428D01*
X186976380Y-111700952D01*
X187024000Y-111605714D01*
X187119238Y-111510476D01*
X187309714Y-111462857D01*
X187643047Y-111462857D01*
X187833523Y-111510476D01*
X187928761Y-111605714D01*
X187976380Y-111700952D01*
X187976380Y-111891428D01*
X187404952Y-110891428D02*
X187357333Y-110986666D01*
X187309714Y-111034285D01*
X187214476Y-111081904D01*
X187166857Y-111081904D01*
X187071619Y-111034285D01*
X187024000Y-110986666D01*
X186976380Y-110891428D01*
X186976380Y-110700952D01*
X187024000Y-110605714D01*
X187071619Y-110558095D01*
X187166857Y-110510476D01*
X187214476Y-110510476D01*
X187309714Y-110558095D01*
X187357333Y-110605714D01*
X187404952Y-110700952D01*
X187404952Y-110891428D01*
X187452571Y-110986666D01*
X187500190Y-111034285D01*
X187595428Y-111081904D01*
X187785904Y-111081904D01*
X187881142Y-111034285D01*
X187928761Y-110986666D01*
X187976380Y-110891428D01*
X187976380Y-110700952D01*
X187928761Y-110605714D01*
X187881142Y-110558095D01*
X187785904Y-110510476D01*
X187595428Y-110510476D01*
X187500190Y-110558095D01*
X187452571Y-110605714D01*
X187404952Y-110700952D01*
G04 #@! TO.C,Q6*
X157337619Y-111542238D02*
X157290000Y-111637476D01*
X157194761Y-111732714D01*
X157051904Y-111875571D01*
X157004285Y-111970809D01*
X157004285Y-112066047D01*
X157242380Y-112018428D02*
X157194761Y-112113666D01*
X157099523Y-112208904D01*
X156909047Y-112256523D01*
X156575714Y-112256523D01*
X156385238Y-112208904D01*
X156290000Y-112113666D01*
X156242380Y-112018428D01*
X156242380Y-111827952D01*
X156290000Y-111732714D01*
X156385238Y-111637476D01*
X156575714Y-111589857D01*
X156909047Y-111589857D01*
X157099523Y-111637476D01*
X157194761Y-111732714D01*
X157242380Y-111827952D01*
X157242380Y-112018428D01*
X156242380Y-110732714D02*
X156242380Y-110923190D01*
X156290000Y-111018428D01*
X156337619Y-111066047D01*
X156480476Y-111161285D01*
X156670952Y-111208904D01*
X157051904Y-111208904D01*
X157147142Y-111161285D01*
X157194761Y-111113666D01*
X157242380Y-111018428D01*
X157242380Y-110827952D01*
X157194761Y-110732714D01*
X157147142Y-110685095D01*
X157051904Y-110637476D01*
X156813809Y-110637476D01*
X156718571Y-110685095D01*
X156670952Y-110732714D01*
X156623333Y-110827952D01*
X156623333Y-111018428D01*
X156670952Y-111113666D01*
X156718571Y-111161285D01*
X156813809Y-111208904D01*
G04 #@! TO.C,Q3*
X113396619Y-111264238D02*
X113349000Y-111359476D01*
X113253761Y-111454714D01*
X113110904Y-111597571D01*
X113063285Y-111692809D01*
X113063285Y-111788047D01*
X113301380Y-111740428D02*
X113253761Y-111835666D01*
X113158523Y-111930904D01*
X112968047Y-111978523D01*
X112634714Y-111978523D01*
X112444238Y-111930904D01*
X112349000Y-111835666D01*
X112301380Y-111740428D01*
X112301380Y-111549952D01*
X112349000Y-111454714D01*
X112444238Y-111359476D01*
X112634714Y-111311857D01*
X112968047Y-111311857D01*
X113158523Y-111359476D01*
X113253761Y-111454714D01*
X113301380Y-111549952D01*
X113301380Y-111740428D01*
X112301380Y-110978523D02*
X112301380Y-110359476D01*
X112682333Y-110692809D01*
X112682333Y-110549952D01*
X112729952Y-110454714D01*
X112777571Y-110407095D01*
X112872809Y-110359476D01*
X113110904Y-110359476D01*
X113206142Y-110407095D01*
X113253761Y-110454714D01*
X113301380Y-110549952D01*
X113301380Y-110835666D01*
X113253761Y-110930904D01*
X113206142Y-110978523D01*
G04 #@! TO.C,Q4*
X126095619Y-111347238D02*
X126048000Y-111442476D01*
X125952761Y-111537714D01*
X125809904Y-111680571D01*
X125762285Y-111775809D01*
X125762285Y-111871047D01*
X126000380Y-111823428D02*
X125952761Y-111918666D01*
X125857523Y-112013904D01*
X125667047Y-112061523D01*
X125333714Y-112061523D01*
X125143238Y-112013904D01*
X125048000Y-111918666D01*
X125000380Y-111823428D01*
X125000380Y-111632952D01*
X125048000Y-111537714D01*
X125143238Y-111442476D01*
X125333714Y-111394857D01*
X125667047Y-111394857D01*
X125857523Y-111442476D01*
X125952761Y-111537714D01*
X126000380Y-111632952D01*
X126000380Y-111823428D01*
X125333714Y-110537714D02*
X126000380Y-110537714D01*
X124952761Y-110775809D02*
X125667047Y-111013904D01*
X125667047Y-110394857D01*
G04 #@! TO.C,Q5*
X144636619Y-111391238D02*
X144589000Y-111486476D01*
X144493761Y-111581714D01*
X144350904Y-111724571D01*
X144303285Y-111819809D01*
X144303285Y-111915047D01*
X144541380Y-111867428D02*
X144493761Y-111962666D01*
X144398523Y-112057904D01*
X144208047Y-112105523D01*
X143874714Y-112105523D01*
X143684238Y-112057904D01*
X143589000Y-111962666D01*
X143541380Y-111867428D01*
X143541380Y-111676952D01*
X143589000Y-111581714D01*
X143684238Y-111486476D01*
X143874714Y-111438857D01*
X144208047Y-111438857D01*
X144398523Y-111486476D01*
X144493761Y-111581714D01*
X144541380Y-111676952D01*
X144541380Y-111867428D01*
X143541380Y-110534095D02*
X143541380Y-111010285D01*
X144017571Y-111057904D01*
X143969952Y-111010285D01*
X143922333Y-110915047D01*
X143922333Y-110676952D01*
X143969952Y-110581714D01*
X144017571Y-110534095D01*
X144112809Y-110486476D01*
X144350904Y-110486476D01*
X144446142Y-110534095D01*
X144493761Y-110581714D01*
X144541380Y-110676952D01*
X144541380Y-110915047D01*
X144493761Y-111010285D01*
X144446142Y-111057904D01*
G04 #@! TD*
M02*
