M48
; DRILL file {KiCad 5.1.5-52549c5~84~ubuntu18.04.1} date Út 14. ledna 2020, 22:50:25 CET
; FORMAT={-:-/ absolute / inch / decimal}
; #@! TF.CreationDate,2020-01-14T22:50:25+01:00
; #@! TF.GenerationSoftware,Kicad,Pcbnew,5.1.5-52549c5~84~ubuntu18.04.1
FMAT,2
INCH
T1C0.0157
T2C0.0236
T3C0.0350
T4C0.0362
T5C0.0402
T6C0.0433
T7C0.0512
T8C0.0917
T9C0.1181
T10C0.0433
T11C0.1063
%
G90
G05
T1
X3.875Y-4.075
X3.886Y-4.414
X3.886Y-4.464
X3.886Y-4.514
X3.8927Y-4.5573
X4.0Y-2.2
X4.05Y-2.35
X4.13Y-3.09
X4.1341Y-4.4159
X4.15Y-4.45
X4.175Y-4.475
X4.1969Y-2.6969
X4.2Y-4.5
X4.4Y-4.4
X4.4Y-4.45
X4.4Y-4.5
X4.4Y-4.55
X4.45Y-3.875
X4.6Y-4.4
X4.6Y-4.45
X4.6Y-4.5
X4.6Y-4.55
X4.7Y-2.75
X4.7Y-3.35
X4.875Y-4.05
X4.886Y-4.414
X4.886Y-4.464
X4.8927Y-4.5573
X4.9Y-2.7
X4.9Y-2.9
X4.9427Y-4.6073
X5.05Y-3.35
X5.1341Y-4.4159
X5.175Y-4.475
X5.2Y-4.55
X5.2Y-4.6
X5.375Y-4.05
X5.4Y-4.4
X5.4Y-4.45
X5.4Y-4.5
X5.4Y-4.55
X5.43Y-3.01
X5.45Y-2.8
X5.4821Y-2.7679
X5.56Y-2.9
X5.6Y-4.4
X5.6Y-4.45
X5.6Y-4.5
X5.6Y-4.55
X5.64Y-3.12
X5.886Y-4.414
X5.886Y-4.464
X5.9Y-4.5
X5.95Y-4.55
X6.0Y-3.45
X6.05Y-2.65
X6.0821Y-2.6179
X6.1341Y-4.4159
X6.175Y-4.475
X6.2Y-4.55
X6.2Y-4.6
X6.33Y-3.84
X6.4Y-3.45
X6.4Y-4.4
X6.4Y-4.45
X6.4Y-4.5
X6.4Y-4.55
X6.44Y-2.69
X6.45Y-3.07
X6.54Y-2.65
X6.56Y-3.44
X6.6Y-3.4
X6.6Y-4.4
X6.6Y-4.45
X6.6Y-4.5
X6.6Y-4.55
X6.64Y-2.66
X6.85Y-3.54
X6.875Y-4.05
X6.886Y-4.414
X6.9Y-4.45
X6.95Y-4.5
X6.975Y-4.525
X7.0Y-3.52
X7.05Y-3.52
X7.1Y-2.67
X7.15Y-4.4
X7.2Y-2.6
X7.2Y-4.45
X7.2Y-4.5
X7.2Y-4.55
X7.25Y-2.67
X7.375Y-4.05
X7.4Y-4.4
X7.4Y-4.45
X7.4Y-4.5
X7.4Y-4.55
X7.42Y-3.87
X7.4677Y-2.9377
X7.5Y-3.52
X7.6Y-4.4
X7.6Y-4.45
X7.6Y-4.5
X7.6Y-4.55
X7.66Y-3.03
X7.66Y-3.17
T2
X3.886Y-4.264
X4.15Y-4.1
X4.4Y-4.25
X4.6Y-4.1
X4.9Y-4.3
X5.15Y-4.1
X5.4Y-4.25
X5.6Y-4.1
X5.886Y-4.314
X6.15Y-4.1
X6.4Y-4.25
X6.6Y-4.1
X6.9Y-4.3
X7.15Y-4.1
X7.4Y-4.25
X7.6Y-4.1
T3
X8.05Y-3.6
X8.05Y-3.7
X8.05Y-3.8
X8.05Y-3.9
X5.8Y-2.0
X5.8Y-2.1
X5.9Y-2.0
X5.9Y-2.1
X6.0Y-2.0
X6.0Y-2.1
X6.1Y-2.0
X6.1Y-2.1
X7.95Y-2.4
X7.95Y-2.5
X7.95Y-2.6
X7.95Y-2.7
X7.95Y-2.8
X8.05Y-2.4
X8.05Y-2.5
X8.05Y-2.6
X8.05Y-2.7
X8.05Y-2.8
X7.95Y-3.0
X7.95Y-3.1
X7.95Y-3.2
X7.95Y-3.3
X7.95Y-3.4
X8.05Y-3.0
X8.05Y-3.1
X8.05Y-3.2
X8.05Y-3.3
X8.05Y-3.4
T4
X3.95Y-3.5016
X3.95Y-3.6
X4.0287Y-3.5016
X4.0287Y-3.6
T5
X6.9Y-2.1
X7.0Y-2.1
X7.1Y-2.1
X7.2Y-2.1
X6.4Y-2.1
X6.5Y-2.1
X6.6Y-2.1
X6.7Y-2.1
X7.4Y-2.1
X7.5Y-2.1
X7.6Y-2.1
X7.7Y-2.1
T6
X3.6Y-2.3228
X3.6Y-2.5
X3.8559Y-2.3228
X3.8559Y-2.5
X3.6Y-2.8228
X3.6Y-3.0
X3.8559Y-2.8228
X3.8559Y-3.0
T7
X5.2Y-4.9
X5.2Y-5.0969
X7.0Y-4.9031
X7.0Y-5.1
X6.2Y-4.9031
X6.2Y-5.1
X4.4Y-4.9
X4.4Y-5.0969
X7.4Y-4.9031
X7.4Y-5.1
X6.0Y-4.9031
X6.0Y-5.1
X4.2Y-4.9
X4.2Y-5.0969
X5.0Y-4.9
X5.0Y-5.0969
X5.6Y-4.9
X5.6Y-5.0969
X6.6Y-4.9031
X6.6Y-5.1
X4.6Y-4.9
X4.6Y-5.0969
X4.0Y-4.9031
X4.0Y-5.1
X6.4Y-4.9
X6.4Y-5.0969
X7.6Y-4.9031
X7.6Y-5.1
X5.4Y-4.9031
X5.4Y-5.1
X7.2Y-4.9
X7.2Y-5.0969
T8
X3.8433Y-3.3138
X3.8433Y-3.7878
T9
X8.0Y-5.2
X3.6Y-2.0
X3.6Y-5.2
X8.0Y-2.0
T10
X7.5Y-2.185
X7.0Y-2.185
X6.5Y-2.185
T11
X4.695Y-2.2487
X4.35Y-2.2487
X4.2Y-2.2487
X4.855Y-2.2487
T0
M30
