G04 #@! TF.GenerationSoftware,KiCad,Pcbnew,5.0.2-bee76a0~70~ubuntu18.04.1*
G04 #@! TF.CreationDate,2020-04-28T14:19:17+02:00*
G04 #@! TF.ProjectId,E32CB_R2,45333243-425f-4523-922e-6b696361645f,rev?*
G04 #@! TF.SameCoordinates,Original*
G04 #@! TF.FileFunction,Legend,Top*
G04 #@! TF.FilePolarity,Positive*
%FSLAX46Y46*%
G04 Gerber Fmt 4.6, Leading zero omitted, Abs format (unit mm)*
G04 Created by KiCad (PCBNEW 5.0.2-bee76a0~70~ubuntu18.04.1) date Út 28. dubna 2020, 14:19:17 CEST*
%MOMM*%
%LPD*%
G01*
G04 APERTURE LIST*
%ADD10C,0.300000*%
%ADD11C,0.120000*%
%ADD12C,0.150000*%
%ADD13C,0.100000*%
%ADD14C,0.304800*%
G04 APERTURE END LIST*
D10*
X102794571Y-104347476D02*
X102794571Y-105180809D01*
X101485047Y-105537952D02*
X101485047Y-104347476D01*
X103985047Y-104347476D01*
X103985047Y-105537952D01*
X103985047Y-106371285D02*
X103985047Y-107918904D01*
X103032666Y-107085571D01*
X103032666Y-107442714D01*
X102913619Y-107680809D01*
X102794571Y-107799857D01*
X102556476Y-107918904D01*
X101961238Y-107918904D01*
X101723142Y-107799857D01*
X101604095Y-107680809D01*
X101485047Y-107442714D01*
X101485047Y-106728428D01*
X101604095Y-106490333D01*
X101723142Y-106371285D01*
X103746952Y-108871285D02*
X103866000Y-108990333D01*
X103985047Y-109228428D01*
X103985047Y-109823666D01*
X103866000Y-110061761D01*
X103746952Y-110180809D01*
X103508857Y-110299857D01*
X103270761Y-110299857D01*
X102913619Y-110180809D01*
X101485047Y-108752238D01*
X101485047Y-110299857D01*
X101723142Y-112799857D02*
X101604095Y-112680809D01*
X101485047Y-112323666D01*
X101485047Y-112085571D01*
X101604095Y-111728428D01*
X101842190Y-111490333D01*
X102080285Y-111371285D01*
X102556476Y-111252238D01*
X102913619Y-111252238D01*
X103389809Y-111371285D01*
X103627904Y-111490333D01*
X103866000Y-111728428D01*
X103985047Y-112085571D01*
X103985047Y-112323666D01*
X103866000Y-112680809D01*
X103746952Y-112799857D01*
X102794571Y-114704619D02*
X102675523Y-115061761D01*
X102556476Y-115180809D01*
X102318380Y-115299857D01*
X101961238Y-115299857D01*
X101723142Y-115180809D01*
X101604095Y-115061761D01*
X101485047Y-114823666D01*
X101485047Y-113871285D01*
X103985047Y-113871285D01*
X103985047Y-114704619D01*
X103866000Y-114942714D01*
X103746952Y-115061761D01*
X103508857Y-115180809D01*
X103270761Y-115180809D01*
X103032666Y-115061761D01*
X102913619Y-114942714D01*
X102794571Y-114704619D01*
X102794571Y-113871285D01*
X101246952Y-115776047D02*
X101246952Y-117680809D01*
X101485047Y-119704619D02*
X102675523Y-118871285D01*
X101485047Y-118276047D02*
X103985047Y-118276047D01*
X103985047Y-119228428D01*
X103866000Y-119466523D01*
X103746952Y-119585571D01*
X103508857Y-119704619D01*
X103151714Y-119704619D01*
X102913619Y-119585571D01*
X102794571Y-119466523D01*
X102675523Y-119228428D01*
X102675523Y-118276047D01*
X103746952Y-120657000D02*
X103866000Y-120776047D01*
X103985047Y-121014142D01*
X103985047Y-121609380D01*
X103866000Y-121847476D01*
X103746952Y-121966523D01*
X103508857Y-122085571D01*
X103270761Y-122085571D01*
X102913619Y-121966523D01*
X101485047Y-120537952D01*
X101485047Y-122085571D01*
X150510000Y-54230904D02*
X150571904Y-54107095D01*
X150571904Y-53921380D01*
X150510000Y-53735666D01*
X150386190Y-53611857D01*
X150262380Y-53549952D01*
X150014761Y-53488047D01*
X149829047Y-53488047D01*
X149581428Y-53549952D01*
X149457619Y-53611857D01*
X149333809Y-53735666D01*
X149271904Y-53921380D01*
X149271904Y-54045190D01*
X149333809Y-54230904D01*
X149395714Y-54292809D01*
X149829047Y-54292809D01*
X149829047Y-54045190D01*
X149271904Y-54849952D02*
X150571904Y-54849952D01*
X150571904Y-55345190D01*
X150510000Y-55469000D01*
X150448095Y-55530904D01*
X150324285Y-55592809D01*
X150138571Y-55592809D01*
X150014761Y-55530904D01*
X149952857Y-55469000D01*
X149890952Y-55345190D01*
X149890952Y-54849952D01*
X149271904Y-56149952D02*
X150571904Y-56149952D01*
X150571904Y-57016619D02*
X150571904Y-57264238D01*
X150510000Y-57388047D01*
X150386190Y-57511857D01*
X150138571Y-57573761D01*
X149705238Y-57573761D01*
X149457619Y-57511857D01*
X149333809Y-57388047D01*
X149271904Y-57264238D01*
X149271904Y-57016619D01*
X149333809Y-56892809D01*
X149457619Y-56769000D01*
X149705238Y-56707095D01*
X150138571Y-56707095D01*
X150386190Y-56769000D01*
X150510000Y-56892809D01*
X150571904Y-57016619D01*
X149271904Y-58811857D02*
X149271904Y-58069000D01*
X149271904Y-58440428D02*
X150571904Y-58440428D01*
X150386190Y-58316619D01*
X150262380Y-58192809D01*
X150200476Y-58069000D01*
X150448095Y-59307095D02*
X150510000Y-59369000D01*
X150571904Y-59492809D01*
X150571904Y-59802333D01*
X150510000Y-59926142D01*
X150448095Y-59988047D01*
X150324285Y-60049952D01*
X150200476Y-60049952D01*
X150014761Y-59988047D01*
X149271904Y-59245190D01*
X149271904Y-60049952D01*
X147970000Y-54230904D02*
X148031904Y-54107095D01*
X148031904Y-53921380D01*
X147970000Y-53735666D01*
X147846190Y-53611857D01*
X147722380Y-53549952D01*
X147474761Y-53488047D01*
X147289047Y-53488047D01*
X147041428Y-53549952D01*
X146917619Y-53611857D01*
X146793809Y-53735666D01*
X146731904Y-53921380D01*
X146731904Y-54045190D01*
X146793809Y-54230904D01*
X146855714Y-54292809D01*
X147289047Y-54292809D01*
X147289047Y-54045190D01*
X146731904Y-54849952D02*
X148031904Y-54849952D01*
X148031904Y-55345190D01*
X147970000Y-55469000D01*
X147908095Y-55530904D01*
X147784285Y-55592809D01*
X147598571Y-55592809D01*
X147474761Y-55530904D01*
X147412857Y-55469000D01*
X147350952Y-55345190D01*
X147350952Y-54849952D01*
X146731904Y-56149952D02*
X148031904Y-56149952D01*
X148031904Y-57016619D02*
X148031904Y-57264238D01*
X147970000Y-57388047D01*
X147846190Y-57511857D01*
X147598571Y-57573761D01*
X147165238Y-57573761D01*
X146917619Y-57511857D01*
X146793809Y-57388047D01*
X146731904Y-57264238D01*
X146731904Y-57016619D01*
X146793809Y-56892809D01*
X146917619Y-56769000D01*
X147165238Y-56707095D01*
X147598571Y-56707095D01*
X147846190Y-56769000D01*
X147970000Y-56892809D01*
X148031904Y-57016619D01*
X147908095Y-58069000D02*
X147970000Y-58130904D01*
X148031904Y-58254714D01*
X148031904Y-58564238D01*
X147970000Y-58688047D01*
X147908095Y-58749952D01*
X147784285Y-58811857D01*
X147660476Y-58811857D01*
X147474761Y-58749952D01*
X146731904Y-58007095D01*
X146731904Y-58811857D01*
X148031904Y-59926142D02*
X148031904Y-59678523D01*
X147970000Y-59554714D01*
X147908095Y-59492809D01*
X147722380Y-59369000D01*
X147474761Y-59307095D01*
X146979523Y-59307095D01*
X146855714Y-59369000D01*
X146793809Y-59430904D01*
X146731904Y-59554714D01*
X146731904Y-59802333D01*
X146793809Y-59926142D01*
X146855714Y-59988047D01*
X146979523Y-60049952D01*
X147289047Y-60049952D01*
X147412857Y-59988047D01*
X147474761Y-59926142D01*
X147536666Y-59802333D01*
X147536666Y-59554714D01*
X147474761Y-59430904D01*
X147412857Y-59369000D01*
X147289047Y-59307095D01*
X145430000Y-54230904D02*
X145491904Y-54107095D01*
X145491904Y-53921380D01*
X145430000Y-53735666D01*
X145306190Y-53611857D01*
X145182380Y-53549952D01*
X144934761Y-53488047D01*
X144749047Y-53488047D01*
X144501428Y-53549952D01*
X144377619Y-53611857D01*
X144253809Y-53735666D01*
X144191904Y-53921380D01*
X144191904Y-54045190D01*
X144253809Y-54230904D01*
X144315714Y-54292809D01*
X144749047Y-54292809D01*
X144749047Y-54045190D01*
X144191904Y-54849952D02*
X145491904Y-54849952D01*
X145491904Y-55345190D01*
X145430000Y-55469000D01*
X145368095Y-55530904D01*
X145244285Y-55592809D01*
X145058571Y-55592809D01*
X144934761Y-55530904D01*
X144872857Y-55469000D01*
X144810952Y-55345190D01*
X144810952Y-54849952D01*
X144191904Y-56149952D02*
X145491904Y-56149952D01*
X145491904Y-57016619D02*
X145491904Y-57264238D01*
X145430000Y-57388047D01*
X145306190Y-57511857D01*
X145058571Y-57573761D01*
X144625238Y-57573761D01*
X144377619Y-57511857D01*
X144253809Y-57388047D01*
X144191904Y-57264238D01*
X144191904Y-57016619D01*
X144253809Y-56892809D01*
X144377619Y-56769000D01*
X144625238Y-56707095D01*
X145058571Y-56707095D01*
X145306190Y-56769000D01*
X145430000Y-56892809D01*
X145491904Y-57016619D01*
X145491904Y-58007095D02*
X145491904Y-58811857D01*
X144996666Y-58378523D01*
X144996666Y-58564238D01*
X144934761Y-58688047D01*
X144872857Y-58749952D01*
X144749047Y-58811857D01*
X144439523Y-58811857D01*
X144315714Y-58749952D01*
X144253809Y-58688047D01*
X144191904Y-58564238D01*
X144191904Y-58192809D01*
X144253809Y-58069000D01*
X144315714Y-58007095D01*
X145491904Y-59988047D02*
X145491904Y-59369000D01*
X144872857Y-59307095D01*
X144934761Y-59369000D01*
X144996666Y-59492809D01*
X144996666Y-59802333D01*
X144934761Y-59926142D01*
X144872857Y-59988047D01*
X144749047Y-60049952D01*
X144439523Y-60049952D01*
X144315714Y-59988047D01*
X144253809Y-59926142D01*
X144191904Y-59802333D01*
X144191904Y-59492809D01*
X144253809Y-59369000D01*
X144315714Y-59307095D01*
X142890000Y-54230904D02*
X142951904Y-54107095D01*
X142951904Y-53921380D01*
X142890000Y-53735666D01*
X142766190Y-53611857D01*
X142642380Y-53549952D01*
X142394761Y-53488047D01*
X142209047Y-53488047D01*
X141961428Y-53549952D01*
X141837619Y-53611857D01*
X141713809Y-53735666D01*
X141651904Y-53921380D01*
X141651904Y-54045190D01*
X141713809Y-54230904D01*
X141775714Y-54292809D01*
X142209047Y-54292809D01*
X142209047Y-54045190D01*
X141651904Y-54849952D02*
X142951904Y-54849952D01*
X142951904Y-55345190D01*
X142890000Y-55469000D01*
X142828095Y-55530904D01*
X142704285Y-55592809D01*
X142518571Y-55592809D01*
X142394761Y-55530904D01*
X142332857Y-55469000D01*
X142270952Y-55345190D01*
X142270952Y-54849952D01*
X141651904Y-56149952D02*
X142951904Y-56149952D01*
X142951904Y-57016619D02*
X142951904Y-57264238D01*
X142890000Y-57388047D01*
X142766190Y-57511857D01*
X142518571Y-57573761D01*
X142085238Y-57573761D01*
X141837619Y-57511857D01*
X141713809Y-57388047D01*
X141651904Y-57264238D01*
X141651904Y-57016619D01*
X141713809Y-56892809D01*
X141837619Y-56769000D01*
X142085238Y-56707095D01*
X142518571Y-56707095D01*
X142766190Y-56769000D01*
X142890000Y-56892809D01*
X142951904Y-57016619D01*
X142951904Y-58007095D02*
X142951904Y-58811857D01*
X142456666Y-58378523D01*
X142456666Y-58564238D01*
X142394761Y-58688047D01*
X142332857Y-58749952D01*
X142209047Y-58811857D01*
X141899523Y-58811857D01*
X141775714Y-58749952D01*
X141713809Y-58688047D01*
X141651904Y-58564238D01*
X141651904Y-58192809D01*
X141713809Y-58069000D01*
X141775714Y-58007095D01*
X142518571Y-59926142D02*
X141651904Y-59926142D01*
X143013809Y-59616619D02*
X142085238Y-59307095D01*
X142085238Y-60111857D01*
X140350000Y-54230904D02*
X140411904Y-54107095D01*
X140411904Y-53921380D01*
X140350000Y-53735666D01*
X140226190Y-53611857D01*
X140102380Y-53549952D01*
X139854761Y-53488047D01*
X139669047Y-53488047D01*
X139421428Y-53549952D01*
X139297619Y-53611857D01*
X139173809Y-53735666D01*
X139111904Y-53921380D01*
X139111904Y-54045190D01*
X139173809Y-54230904D01*
X139235714Y-54292809D01*
X139669047Y-54292809D01*
X139669047Y-54045190D01*
X139111904Y-54849952D02*
X140411904Y-54849952D01*
X140411904Y-55345190D01*
X140350000Y-55469000D01*
X140288095Y-55530904D01*
X140164285Y-55592809D01*
X139978571Y-55592809D01*
X139854761Y-55530904D01*
X139792857Y-55469000D01*
X139730952Y-55345190D01*
X139730952Y-54849952D01*
X139111904Y-56149952D02*
X140411904Y-56149952D01*
X140411904Y-57016619D02*
X140411904Y-57264238D01*
X140350000Y-57388047D01*
X140226190Y-57511857D01*
X139978571Y-57573761D01*
X139545238Y-57573761D01*
X139297619Y-57511857D01*
X139173809Y-57388047D01*
X139111904Y-57264238D01*
X139111904Y-57016619D01*
X139173809Y-56892809D01*
X139297619Y-56769000D01*
X139545238Y-56707095D01*
X139978571Y-56707095D01*
X140226190Y-56769000D01*
X140350000Y-56892809D01*
X140411904Y-57016619D01*
X140411904Y-58007095D02*
X140411904Y-58811857D01*
X139916666Y-58378523D01*
X139916666Y-58564238D01*
X139854761Y-58688047D01*
X139792857Y-58749952D01*
X139669047Y-58811857D01*
X139359523Y-58811857D01*
X139235714Y-58749952D01*
X139173809Y-58688047D01*
X139111904Y-58564238D01*
X139111904Y-58192809D01*
X139173809Y-58069000D01*
X139235714Y-58007095D01*
X139111904Y-59430904D02*
X139111904Y-59678523D01*
X139173809Y-59802333D01*
X139235714Y-59864238D01*
X139421428Y-59988047D01*
X139669047Y-60049952D01*
X140164285Y-60049952D01*
X140288095Y-59988047D01*
X140350000Y-59926142D01*
X140411904Y-59802333D01*
X140411904Y-59554714D01*
X140350000Y-59430904D01*
X140288095Y-59369000D01*
X140164285Y-59307095D01*
X139854761Y-59307095D01*
X139730952Y-59369000D01*
X139669047Y-59430904D01*
X139607142Y-59554714D01*
X139607142Y-59802333D01*
X139669047Y-59926142D01*
X139730952Y-59988047D01*
X139854761Y-60049952D01*
X137810000Y-54230904D02*
X137871904Y-54107095D01*
X137871904Y-53921380D01*
X137810000Y-53735666D01*
X137686190Y-53611857D01*
X137562380Y-53549952D01*
X137314761Y-53488047D01*
X137129047Y-53488047D01*
X136881428Y-53549952D01*
X136757619Y-53611857D01*
X136633809Y-53735666D01*
X136571904Y-53921380D01*
X136571904Y-54045190D01*
X136633809Y-54230904D01*
X136695714Y-54292809D01*
X137129047Y-54292809D01*
X137129047Y-54045190D01*
X136571904Y-54849952D02*
X137871904Y-54849952D01*
X137871904Y-55345190D01*
X137810000Y-55469000D01*
X137748095Y-55530904D01*
X137624285Y-55592809D01*
X137438571Y-55592809D01*
X137314761Y-55530904D01*
X137252857Y-55469000D01*
X137190952Y-55345190D01*
X137190952Y-54849952D01*
X136571904Y-56149952D02*
X137871904Y-56149952D01*
X137871904Y-57016619D02*
X137871904Y-57264238D01*
X137810000Y-57388047D01*
X137686190Y-57511857D01*
X137438571Y-57573761D01*
X137005238Y-57573761D01*
X136757619Y-57511857D01*
X136633809Y-57388047D01*
X136571904Y-57264238D01*
X136571904Y-57016619D01*
X136633809Y-56892809D01*
X136757619Y-56769000D01*
X137005238Y-56707095D01*
X137438571Y-56707095D01*
X137686190Y-56769000D01*
X137810000Y-56892809D01*
X137871904Y-57016619D01*
X137871904Y-58007095D02*
X137871904Y-58811857D01*
X137376666Y-58378523D01*
X137376666Y-58564238D01*
X137314761Y-58688047D01*
X137252857Y-58749952D01*
X137129047Y-58811857D01*
X136819523Y-58811857D01*
X136695714Y-58749952D01*
X136633809Y-58688047D01*
X136571904Y-58564238D01*
X136571904Y-58192809D01*
X136633809Y-58069000D01*
X136695714Y-58007095D01*
X137871904Y-59926142D02*
X137871904Y-59678523D01*
X137810000Y-59554714D01*
X137748095Y-59492809D01*
X137562380Y-59369000D01*
X137314761Y-59307095D01*
X136819523Y-59307095D01*
X136695714Y-59369000D01*
X136633809Y-59430904D01*
X136571904Y-59554714D01*
X136571904Y-59802333D01*
X136633809Y-59926142D01*
X136695714Y-59988047D01*
X136819523Y-60049952D01*
X137129047Y-60049952D01*
X137252857Y-59988047D01*
X137314761Y-59926142D01*
X137376666Y-59802333D01*
X137376666Y-59554714D01*
X137314761Y-59430904D01*
X137252857Y-59369000D01*
X137129047Y-59307095D01*
X135270000Y-54230904D02*
X135331904Y-54107095D01*
X135331904Y-53921380D01*
X135270000Y-53735666D01*
X135146190Y-53611857D01*
X135022380Y-53549952D01*
X134774761Y-53488047D01*
X134589047Y-53488047D01*
X134341428Y-53549952D01*
X134217619Y-53611857D01*
X134093809Y-53735666D01*
X134031904Y-53921380D01*
X134031904Y-54045190D01*
X134093809Y-54230904D01*
X134155714Y-54292809D01*
X134589047Y-54292809D01*
X134589047Y-54045190D01*
X134031904Y-54849952D02*
X135331904Y-54849952D01*
X135331904Y-55345190D01*
X135270000Y-55469000D01*
X135208095Y-55530904D01*
X135084285Y-55592809D01*
X134898571Y-55592809D01*
X134774761Y-55530904D01*
X134712857Y-55469000D01*
X134650952Y-55345190D01*
X134650952Y-54849952D01*
X134031904Y-56149952D02*
X135331904Y-56149952D01*
X135331904Y-57016619D02*
X135331904Y-57264238D01*
X135270000Y-57388047D01*
X135146190Y-57511857D01*
X134898571Y-57573761D01*
X134465238Y-57573761D01*
X134217619Y-57511857D01*
X134093809Y-57388047D01*
X134031904Y-57264238D01*
X134031904Y-57016619D01*
X134093809Y-56892809D01*
X134217619Y-56769000D01*
X134465238Y-56707095D01*
X134898571Y-56707095D01*
X135146190Y-56769000D01*
X135270000Y-56892809D01*
X135331904Y-57016619D01*
X134031904Y-58811857D02*
X134031904Y-58069000D01*
X134031904Y-58440428D02*
X135331904Y-58440428D01*
X135146190Y-58316619D01*
X135022380Y-58192809D01*
X134960476Y-58069000D01*
X135331904Y-59988047D02*
X135331904Y-59369000D01*
X134712857Y-59307095D01*
X134774761Y-59369000D01*
X134836666Y-59492809D01*
X134836666Y-59802333D01*
X134774761Y-59926142D01*
X134712857Y-59988047D01*
X134589047Y-60049952D01*
X134279523Y-60049952D01*
X134155714Y-59988047D01*
X134093809Y-59926142D01*
X134031904Y-59802333D01*
X134031904Y-59492809D01*
X134093809Y-59369000D01*
X134155714Y-59307095D01*
X132730000Y-54214952D02*
X132791904Y-54091142D01*
X132791904Y-53905428D01*
X132730000Y-53719714D01*
X132606190Y-53595904D01*
X132482380Y-53534000D01*
X132234761Y-53472095D01*
X132049047Y-53472095D01*
X131801428Y-53534000D01*
X131677619Y-53595904D01*
X131553809Y-53719714D01*
X131491904Y-53905428D01*
X131491904Y-54029238D01*
X131553809Y-54214952D01*
X131615714Y-54276857D01*
X132049047Y-54276857D01*
X132049047Y-54029238D01*
X131491904Y-54834000D02*
X132791904Y-54834000D01*
X132791904Y-55329238D01*
X132730000Y-55453047D01*
X132668095Y-55514952D01*
X132544285Y-55576857D01*
X132358571Y-55576857D01*
X132234761Y-55514952D01*
X132172857Y-55453047D01*
X132110952Y-55329238D01*
X132110952Y-54834000D01*
X131491904Y-56134000D02*
X132791904Y-56134000D01*
X132791904Y-57000666D02*
X132791904Y-57248285D01*
X132730000Y-57372095D01*
X132606190Y-57495904D01*
X132358571Y-57557809D01*
X131925238Y-57557809D01*
X131677619Y-57495904D01*
X131553809Y-57372095D01*
X131491904Y-57248285D01*
X131491904Y-57000666D01*
X131553809Y-56876857D01*
X131677619Y-56753047D01*
X131925238Y-56691142D01*
X132358571Y-56691142D01*
X132606190Y-56753047D01*
X132730000Y-56876857D01*
X132791904Y-57000666D01*
X132668095Y-58053047D02*
X132730000Y-58114952D01*
X132791904Y-58238761D01*
X132791904Y-58548285D01*
X132730000Y-58672095D01*
X132668095Y-58734000D01*
X132544285Y-58795904D01*
X132420476Y-58795904D01*
X132234761Y-58734000D01*
X131491904Y-57991142D01*
X131491904Y-58795904D01*
X129936000Y-54214952D02*
X129997904Y-54091142D01*
X129997904Y-53905428D01*
X129936000Y-53719714D01*
X129812190Y-53595904D01*
X129688380Y-53534000D01*
X129440761Y-53472095D01*
X129255047Y-53472095D01*
X129007428Y-53534000D01*
X128883619Y-53595904D01*
X128759809Y-53719714D01*
X128697904Y-53905428D01*
X128697904Y-54029238D01*
X128759809Y-54214952D01*
X128821714Y-54276857D01*
X129255047Y-54276857D01*
X129255047Y-54029238D01*
X128697904Y-54834000D02*
X129997904Y-54834000D01*
X129997904Y-55329238D01*
X129936000Y-55453047D01*
X129874095Y-55514952D01*
X129750285Y-55576857D01*
X129564571Y-55576857D01*
X129440761Y-55514952D01*
X129378857Y-55453047D01*
X129316952Y-55329238D01*
X129316952Y-54834000D01*
X128697904Y-56134000D02*
X129997904Y-56134000D01*
X129997904Y-57000666D02*
X129997904Y-57248285D01*
X129936000Y-57372095D01*
X129812190Y-57495904D01*
X129564571Y-57557809D01*
X129131238Y-57557809D01*
X128883619Y-57495904D01*
X128759809Y-57372095D01*
X128697904Y-57248285D01*
X128697904Y-57000666D01*
X128759809Y-56876857D01*
X128883619Y-56753047D01*
X129131238Y-56691142D01*
X129564571Y-56691142D01*
X129812190Y-56753047D01*
X129936000Y-56876857D01*
X129997904Y-57000666D01*
X129997904Y-58734000D02*
X129997904Y-58114952D01*
X129378857Y-58053047D01*
X129440761Y-58114952D01*
X129502666Y-58238761D01*
X129502666Y-58548285D01*
X129440761Y-58672095D01*
X129378857Y-58734000D01*
X129255047Y-58795904D01*
X128945523Y-58795904D01*
X128821714Y-58734000D01*
X128759809Y-58672095D01*
X128697904Y-58548285D01*
X128697904Y-58238761D01*
X128759809Y-58114952D01*
X128821714Y-58053047D01*
X155082000Y-54127523D02*
X155143904Y-54003714D01*
X155143904Y-53818000D01*
X155082000Y-53632285D01*
X154958190Y-53508476D01*
X154834380Y-53446571D01*
X154586761Y-53384666D01*
X154401047Y-53384666D01*
X154153428Y-53446571D01*
X154029619Y-53508476D01*
X153905809Y-53632285D01*
X153843904Y-53818000D01*
X153843904Y-53941809D01*
X153905809Y-54127523D01*
X153967714Y-54189428D01*
X154401047Y-54189428D01*
X154401047Y-53941809D01*
X153843904Y-54746571D02*
X155143904Y-54746571D01*
X153843904Y-55489428D01*
X155143904Y-55489428D01*
X153843904Y-56108476D02*
X155143904Y-56108476D01*
X155143904Y-56418000D01*
X155082000Y-56603714D01*
X154958190Y-56727523D01*
X154834380Y-56789428D01*
X154586761Y-56851333D01*
X154401047Y-56851333D01*
X154153428Y-56789428D01*
X154029619Y-56727523D01*
X153905809Y-56603714D01*
X153843904Y-56418000D01*
X153843904Y-56108476D01*
X156445809Y-53539428D02*
X156383904Y-53725142D01*
X156383904Y-54034666D01*
X156445809Y-54158476D01*
X156507714Y-54220380D01*
X156631523Y-54282285D01*
X156755333Y-54282285D01*
X156879142Y-54220380D01*
X156941047Y-54158476D01*
X157002952Y-54034666D01*
X157064857Y-53787047D01*
X157126761Y-53663238D01*
X157188666Y-53601333D01*
X157312476Y-53539428D01*
X157436285Y-53539428D01*
X157560095Y-53601333D01*
X157622000Y-53663238D01*
X157683904Y-53787047D01*
X157683904Y-54096571D01*
X157622000Y-54282285D01*
X156383904Y-54839428D02*
X157683904Y-54839428D01*
X157683904Y-55148952D01*
X157622000Y-55334666D01*
X157498190Y-55458476D01*
X157374380Y-55520380D01*
X157126761Y-55582285D01*
X156941047Y-55582285D01*
X156693428Y-55520380D01*
X156569619Y-55458476D01*
X156445809Y-55334666D01*
X156383904Y-55148952D01*
X156383904Y-54839428D01*
X156755333Y-56077523D02*
X156755333Y-56696571D01*
X156383904Y-55953714D02*
X157683904Y-56387047D01*
X156383904Y-56820380D01*
X161525809Y-53570380D02*
X161463904Y-53756095D01*
X161463904Y-54065619D01*
X161525809Y-54189428D01*
X161587714Y-54251333D01*
X161711523Y-54313238D01*
X161835333Y-54313238D01*
X161959142Y-54251333D01*
X162021047Y-54189428D01*
X162082952Y-54065619D01*
X162144857Y-53818000D01*
X162206761Y-53694190D01*
X162268666Y-53632285D01*
X162392476Y-53570380D01*
X162516285Y-53570380D01*
X162640095Y-53632285D01*
X162702000Y-53694190D01*
X162763904Y-53818000D01*
X162763904Y-54127523D01*
X162702000Y-54313238D01*
X161587714Y-55613238D02*
X161525809Y-55551333D01*
X161463904Y-55365619D01*
X161463904Y-55241809D01*
X161525809Y-55056095D01*
X161649619Y-54932285D01*
X161773428Y-54870380D01*
X162021047Y-54808476D01*
X162206761Y-54808476D01*
X162454380Y-54870380D01*
X162578190Y-54932285D01*
X162702000Y-55056095D01*
X162763904Y-55241809D01*
X162763904Y-55365619D01*
X162702000Y-55551333D01*
X162640095Y-55613238D01*
X161463904Y-56789428D02*
X161463904Y-56170380D01*
X162763904Y-56170380D01*
X165242000Y-54127523D02*
X165303904Y-54003714D01*
X165303904Y-53818000D01*
X165242000Y-53632285D01*
X165118190Y-53508476D01*
X164994380Y-53446571D01*
X164746761Y-53384666D01*
X164561047Y-53384666D01*
X164313428Y-53446571D01*
X164189619Y-53508476D01*
X164065809Y-53632285D01*
X164003904Y-53818000D01*
X164003904Y-53941809D01*
X164065809Y-54127523D01*
X164127714Y-54189428D01*
X164561047Y-54189428D01*
X164561047Y-53941809D01*
X164003904Y-54746571D02*
X165303904Y-54746571D01*
X164003904Y-55489428D01*
X165303904Y-55489428D01*
X164003904Y-56108476D02*
X165303904Y-56108476D01*
X165303904Y-56418000D01*
X165242000Y-56603714D01*
X165118190Y-56727523D01*
X164994380Y-56789428D01*
X164746761Y-56851333D01*
X164561047Y-56851333D01*
X164313428Y-56789428D01*
X164189619Y-56727523D01*
X164065809Y-56603714D01*
X164003904Y-56418000D01*
X164003904Y-56108476D01*
X160223904Y-53508476D02*
X160223904Y-54313238D01*
X159728666Y-53879904D01*
X159728666Y-54065619D01*
X159666761Y-54189428D01*
X159604857Y-54251333D01*
X159481047Y-54313238D01*
X159171523Y-54313238D01*
X159047714Y-54251333D01*
X158985809Y-54189428D01*
X158923904Y-54065619D01*
X158923904Y-53694190D01*
X158985809Y-53570380D01*
X159047714Y-53508476D01*
X160223904Y-54684666D02*
X158923904Y-55118000D01*
X160223904Y-55551333D01*
X160223904Y-55860857D02*
X160223904Y-56665619D01*
X159728666Y-56232285D01*
X159728666Y-56418000D01*
X159666761Y-56541809D01*
X159604857Y-56603714D01*
X159481047Y-56665619D01*
X159171523Y-56665619D01*
X159047714Y-56603714D01*
X158985809Y-56541809D01*
X158923904Y-56418000D01*
X158923904Y-56046571D01*
X158985809Y-55922761D01*
X159047714Y-55860857D01*
X109931904Y-54654666D02*
X108631904Y-54964190D01*
X109560476Y-55211809D01*
X108631904Y-55459428D01*
X109931904Y-55768952D01*
X108631904Y-56264190D02*
X109498571Y-56264190D01*
X109931904Y-56264190D02*
X109870000Y-56202285D01*
X109808095Y-56264190D01*
X109870000Y-56326095D01*
X109931904Y-56264190D01*
X109808095Y-56264190D01*
X109312857Y-57316571D02*
X109312857Y-56883238D01*
X108631904Y-56883238D02*
X109931904Y-56883238D01*
X109931904Y-57502285D01*
X108631904Y-57997523D02*
X109498571Y-57997523D01*
X109931904Y-57997523D02*
X109870000Y-57935619D01*
X109808095Y-57997523D01*
X109870000Y-58059428D01*
X109931904Y-57997523D01*
X109808095Y-57997523D01*
X112695904Y-54834952D02*
X113995904Y-54834952D01*
X113995904Y-55330190D01*
X113934000Y-55454000D01*
X113872095Y-55515904D01*
X113748285Y-55577809D01*
X113562571Y-55577809D01*
X113438761Y-55515904D01*
X113376857Y-55454000D01*
X113314952Y-55330190D01*
X113314952Y-54834952D01*
X112695904Y-56320666D02*
X112757809Y-56196857D01*
X112819714Y-56134952D01*
X112943523Y-56073047D01*
X113314952Y-56073047D01*
X113438761Y-56134952D01*
X113500666Y-56196857D01*
X113562571Y-56320666D01*
X113562571Y-56506380D01*
X113500666Y-56630190D01*
X113438761Y-56692095D01*
X113314952Y-56754000D01*
X112943523Y-56754000D01*
X112819714Y-56692095D01*
X112757809Y-56630190D01*
X112695904Y-56506380D01*
X112695904Y-56320666D01*
X113562571Y-57187333D02*
X112695904Y-57434952D01*
X113314952Y-57682571D01*
X112695904Y-57930190D01*
X113562571Y-58177809D01*
X112757809Y-59168285D02*
X112695904Y-59044476D01*
X112695904Y-58796857D01*
X112757809Y-58673047D01*
X112881619Y-58611142D01*
X113376857Y-58611142D01*
X113500666Y-58673047D01*
X113562571Y-58796857D01*
X113562571Y-59044476D01*
X113500666Y-59168285D01*
X113376857Y-59230190D01*
X113253047Y-59230190D01*
X113129238Y-58611142D01*
X112695904Y-59787333D02*
X113562571Y-59787333D01*
X113314952Y-59787333D02*
X113438761Y-59849238D01*
X113500666Y-59911142D01*
X113562571Y-60034952D01*
X113562571Y-60158761D01*
X118283904Y-55521333D02*
X118902952Y-55088000D01*
X118283904Y-54778476D02*
X119583904Y-54778476D01*
X119583904Y-55273714D01*
X119522000Y-55397523D01*
X119460095Y-55459428D01*
X119336285Y-55521333D01*
X119150571Y-55521333D01*
X119026761Y-55459428D01*
X118964857Y-55397523D01*
X118902952Y-55273714D01*
X118902952Y-54778476D01*
X119583904Y-55954666D02*
X118283904Y-56821333D01*
X119583904Y-56821333D02*
X118283904Y-55954666D01*
X118283904Y-57316571D02*
X119583904Y-57316571D01*
X119583904Y-57626095D01*
X119522000Y-57811809D01*
X119398190Y-57935619D01*
X119274380Y-57997523D01*
X119026761Y-58059428D01*
X118841047Y-58059428D01*
X118593428Y-57997523D01*
X118469619Y-57935619D01*
X118345809Y-57811809D01*
X118283904Y-57626095D01*
X118283904Y-57316571D01*
X123647904Y-54747523D02*
X123647904Y-55490380D01*
X122347904Y-55118952D02*
X123647904Y-55118952D01*
X123647904Y-55799904D02*
X122347904Y-56666571D01*
X123647904Y-56666571D02*
X122347904Y-55799904D01*
X122347904Y-57161809D02*
X123647904Y-57161809D01*
X123647904Y-57471333D01*
X123586000Y-57657047D01*
X123462190Y-57780857D01*
X123338380Y-57842761D01*
X123090761Y-57904666D01*
X122905047Y-57904666D01*
X122657428Y-57842761D01*
X122533619Y-57780857D01*
X122409809Y-57657047D01*
X122347904Y-57471333D01*
X122347904Y-57161809D01*
X197277904Y-59477142D02*
X198577904Y-59477142D01*
X198577904Y-59972380D01*
X198516000Y-60096190D01*
X198454095Y-60158095D01*
X198330285Y-60220000D01*
X198144571Y-60220000D01*
X198020761Y-60158095D01*
X197958857Y-60096190D01*
X197896952Y-59972380D01*
X197896952Y-59477142D01*
X198577904Y-61024761D02*
X198577904Y-61272380D01*
X198516000Y-61396190D01*
X198392190Y-61520000D01*
X198144571Y-61581904D01*
X197711238Y-61581904D01*
X197463619Y-61520000D01*
X197339809Y-61396190D01*
X197277904Y-61272380D01*
X197277904Y-61024761D01*
X197339809Y-60900952D01*
X197463619Y-60777142D01*
X197711238Y-60715238D01*
X198144571Y-60715238D01*
X198392190Y-60777142D01*
X198516000Y-60900952D01*
X198577904Y-61024761D01*
X198577904Y-62015238D02*
X197277904Y-62324761D01*
X198206476Y-62572380D01*
X197277904Y-62820000D01*
X198577904Y-63129523D01*
X197958857Y-63624761D02*
X197958857Y-64058095D01*
X197277904Y-64243809D02*
X197277904Y-63624761D01*
X198577904Y-63624761D01*
X198577904Y-64243809D01*
X197277904Y-65543809D02*
X197896952Y-65110476D01*
X197277904Y-64800952D02*
X198577904Y-64800952D01*
X198577904Y-65296190D01*
X198516000Y-65420000D01*
X198454095Y-65481904D01*
X198330285Y-65543809D01*
X198144571Y-65543809D01*
X198020761Y-65481904D01*
X197958857Y-65420000D01*
X197896952Y-65296190D01*
X197896952Y-64800952D01*
X197277904Y-67772380D02*
X197277904Y-67029523D01*
X197277904Y-67400952D02*
X198577904Y-67400952D01*
X198392190Y-67277142D01*
X198268380Y-67153333D01*
X198206476Y-67029523D01*
X198454095Y-68267619D02*
X198516000Y-68329523D01*
X198577904Y-68453333D01*
X198577904Y-68762857D01*
X198516000Y-68886666D01*
X198454095Y-68948571D01*
X198330285Y-69010476D01*
X198206476Y-69010476D01*
X198020761Y-68948571D01*
X197277904Y-68205714D01*
X197277904Y-69010476D01*
X198577904Y-69381904D02*
X197277904Y-69815238D01*
X198577904Y-70248571D01*
X168392095Y-53644095D02*
X168392095Y-54696476D01*
X168454000Y-54820285D01*
X168515904Y-54882190D01*
X168639714Y-54944095D01*
X168887333Y-54944095D01*
X169011142Y-54882190D01*
X169073047Y-54820285D01*
X169134952Y-54696476D01*
X169134952Y-53644095D01*
X169692095Y-54882190D02*
X169877809Y-54944095D01*
X170187333Y-54944095D01*
X170311142Y-54882190D01*
X170373047Y-54820285D01*
X170434952Y-54696476D01*
X170434952Y-54572666D01*
X170373047Y-54448857D01*
X170311142Y-54386952D01*
X170187333Y-54325047D01*
X169939714Y-54263142D01*
X169815904Y-54201238D01*
X169754000Y-54139333D01*
X169692095Y-54015523D01*
X169692095Y-53891714D01*
X169754000Y-53767904D01*
X169815904Y-53706000D01*
X169939714Y-53644095D01*
X170249238Y-53644095D01*
X170434952Y-53706000D01*
X171425428Y-54263142D02*
X171611142Y-54325047D01*
X171673047Y-54386952D01*
X171734952Y-54510761D01*
X171734952Y-54696476D01*
X171673047Y-54820285D01*
X171611142Y-54882190D01*
X171487333Y-54944095D01*
X170992095Y-54944095D01*
X170992095Y-53644095D01*
X171425428Y-53644095D01*
X171549238Y-53706000D01*
X171611142Y-53767904D01*
X171673047Y-53891714D01*
X171673047Y-54015523D01*
X171611142Y-54139333D01*
X171549238Y-54201238D01*
X171425428Y-54263142D01*
X170992095Y-54263142D01*
X173901619Y-53644095D02*
X173282571Y-53644095D01*
X173220666Y-54263142D01*
X173282571Y-54201238D01*
X173406380Y-54139333D01*
X173715904Y-54139333D01*
X173839714Y-54201238D01*
X173901619Y-54263142D01*
X173963523Y-54386952D01*
X173963523Y-54696476D01*
X173901619Y-54820285D01*
X173839714Y-54882190D01*
X173715904Y-54944095D01*
X173406380Y-54944095D01*
X173282571Y-54882190D01*
X173220666Y-54820285D01*
X174334952Y-53644095D02*
X174768285Y-54944095D01*
X175201619Y-53644095D01*
X181239523Y-51104095D02*
X181982380Y-51104095D01*
X181610952Y-52404095D02*
X181610952Y-51104095D01*
X182291904Y-51104095D02*
X183158571Y-52404095D01*
X183158571Y-51104095D02*
X182291904Y-52404095D01*
X183653809Y-52404095D02*
X183653809Y-51104095D01*
X183963333Y-51104095D01*
X184149047Y-51166000D01*
X184272857Y-51289809D01*
X184334761Y-51413619D01*
X184396666Y-51661238D01*
X184396666Y-51846952D01*
X184334761Y-52094571D01*
X184272857Y-52218380D01*
X184149047Y-52342190D01*
X183963333Y-52404095D01*
X183653809Y-52404095D01*
X181870380Y-56184095D02*
X181251333Y-56184095D01*
X181189428Y-56803142D01*
X181251333Y-56741238D01*
X181375142Y-56679333D01*
X181684666Y-56679333D01*
X181808476Y-56741238D01*
X181870380Y-56803142D01*
X181932285Y-56926952D01*
X181932285Y-57236476D01*
X181870380Y-57360285D01*
X181808476Y-57422190D01*
X181684666Y-57484095D01*
X181375142Y-57484095D01*
X181251333Y-57422190D01*
X181189428Y-57360285D01*
X182303714Y-56184095D02*
X182737047Y-57484095D01*
X183170380Y-56184095D01*
X181889523Y-48626000D02*
X181765714Y-48564095D01*
X181580000Y-48564095D01*
X181394285Y-48626000D01*
X181270476Y-48749809D01*
X181208571Y-48873619D01*
X181146666Y-49121238D01*
X181146666Y-49306952D01*
X181208571Y-49554571D01*
X181270476Y-49678380D01*
X181394285Y-49802190D01*
X181580000Y-49864095D01*
X181703809Y-49864095D01*
X181889523Y-49802190D01*
X181951428Y-49740285D01*
X181951428Y-49306952D01*
X181703809Y-49306952D01*
X182508571Y-49864095D02*
X182508571Y-48564095D01*
X183251428Y-49864095D01*
X183251428Y-48564095D01*
X183870476Y-49864095D02*
X183870476Y-48564095D01*
X184180000Y-48564095D01*
X184365714Y-48626000D01*
X184489523Y-48749809D01*
X184551428Y-48873619D01*
X184613333Y-49121238D01*
X184613333Y-49306952D01*
X184551428Y-49554571D01*
X184489523Y-49678380D01*
X184365714Y-49802190D01*
X184180000Y-49864095D01*
X183870476Y-49864095D01*
X182013333Y-54944095D02*
X181580000Y-54325047D01*
X181270476Y-54944095D02*
X181270476Y-53644095D01*
X181765714Y-53644095D01*
X181889523Y-53706000D01*
X181951428Y-53767904D01*
X182013333Y-53891714D01*
X182013333Y-54077428D01*
X181951428Y-54201238D01*
X181889523Y-54263142D01*
X181765714Y-54325047D01*
X181270476Y-54325047D01*
X182446666Y-53644095D02*
X183313333Y-54944095D01*
X183313333Y-53644095D02*
X182446666Y-54944095D01*
X183808571Y-54944095D02*
X183808571Y-53644095D01*
X184118095Y-53644095D01*
X184303809Y-53706000D01*
X184427619Y-53829809D01*
X184489523Y-53953619D01*
X184551428Y-54201238D01*
X184551428Y-54386952D01*
X184489523Y-54634571D01*
X184427619Y-54758380D01*
X184303809Y-54882190D01*
X184118095Y-54944095D01*
X183808571Y-54944095D01*
D11*
G04 #@! TO.C,FLASH*
X105957000Y-62826000D02*
X101457000Y-62826000D01*
X107207000Y-66826000D02*
X107207000Y-65326000D01*
X101457000Y-69326000D02*
X105957000Y-69326000D01*
X100207000Y-65326000D02*
X100207000Y-66826000D01*
G04 #@! TO.C,RESET*
X107207000Y-76406000D02*
X107207000Y-74906000D01*
X105957000Y-72406000D02*
X101457000Y-72406000D01*
X100207000Y-74906000D02*
X100207000Y-76406000D01*
X101457000Y-78906000D02*
X105957000Y-78906000D01*
G04 #@! TO.C,fan_1*
X195914000Y-54416000D02*
X190164000Y-54416000D01*
X188814000Y-54366000D02*
X185614000Y-54366000D01*
X185614000Y-54366000D02*
X185614000Y-48416000D01*
X185614000Y-48416000D02*
X195914000Y-48416000D01*
X195914000Y-48416000D02*
X195914000Y-54416000D01*
X194564000Y-48516000D02*
X194564000Y-49526000D01*
X194564000Y-49526000D02*
X189484000Y-49526000D01*
X189484000Y-49526000D02*
X189484000Y-48516000D01*
G04 #@! TO.C,J3*
X109608000Y-97366000D02*
X113868000Y-97366000D01*
X113868000Y-97366000D02*
X113868000Y-85046000D01*
X113868000Y-85046000D02*
X109608000Y-85046000D01*
X105508000Y-97366000D02*
X97148000Y-97366000D01*
X97148000Y-97366000D02*
X97148000Y-85046000D01*
X97148000Y-85046000D02*
X105508000Y-85046000D01*
X114088000Y-92456000D02*
X114588000Y-92956000D01*
X114588000Y-92956000D02*
X114588000Y-91956000D01*
X114588000Y-91956000D02*
X114088000Y-92456000D01*
D12*
G04 #@! TO.C,J14*
X160060000Y-136007000D02*
X160060000Y-127007000D01*
X165060000Y-127007000D02*
X165060000Y-136007000D01*
X160060000Y-127007000D02*
X160060000Y-121007000D01*
X160560000Y-135507100D02*
X160560000Y-127507100D01*
X161060000Y-125007000D02*
X161060000Y-122007000D01*
X165060000Y-127007000D02*
X165060000Y-121007000D01*
X164560000Y-135507100D02*
X164560000Y-127507100D01*
X164060000Y-125007000D02*
X164060000Y-122007000D01*
X160560000Y-122007000D02*
X160560000Y-118506000D01*
X161060000Y-121506900D02*
X161060000Y-119007000D01*
X161560000Y-127507100D02*
X161560000Y-127007000D01*
X164560000Y-122007000D02*
X164560000Y-118506900D01*
X164060000Y-121506900D02*
X164060000Y-119007000D01*
X163560000Y-127507100D02*
X163560000Y-127007000D01*
X164560000Y-135507100D02*
X160560000Y-135507100D01*
X160560000Y-127507100D02*
X164560000Y-127507100D01*
X164060100Y-125007000D02*
X161059900Y-125007000D01*
X160560000Y-122007000D02*
X164560000Y-122007000D01*
X160560000Y-118506900D02*
X164560000Y-118506900D01*
X164061000Y-121506900D02*
X161059000Y-121506900D01*
X164061000Y-119007000D02*
X161059000Y-119007000D01*
X165060100Y-136007000D02*
X160059900Y-136007000D01*
X165060100Y-127007000D02*
X160059900Y-127007000D01*
X160560000Y-121007000D02*
X160060000Y-121007000D01*
X165060000Y-121007000D02*
X164560000Y-121007000D01*
G04 #@! TO.C,J7*
X116546000Y-120800000D02*
X116046000Y-120800000D01*
X112046000Y-120800000D02*
X111546000Y-120800000D01*
X116546100Y-126800000D02*
X111545900Y-126800000D01*
X116546100Y-135800000D02*
X111545900Y-135800000D01*
X115547000Y-118800000D02*
X112545000Y-118800000D01*
X115547000Y-121299900D02*
X112545000Y-121299900D01*
X112046000Y-118299900D02*
X116046000Y-118299900D01*
X112046000Y-121800000D02*
X116046000Y-121800000D01*
X115546100Y-124800000D02*
X112545900Y-124800000D01*
X112046000Y-127300100D02*
X116046000Y-127300100D01*
X116046000Y-135300100D02*
X112046000Y-135300100D01*
X115046000Y-127300100D02*
X115046000Y-126800000D01*
X115546000Y-121299900D02*
X115546000Y-118800000D01*
X116046000Y-121800000D02*
X116046000Y-118299900D01*
X113046000Y-127300100D02*
X113046000Y-126800000D01*
X112546000Y-121299900D02*
X112546000Y-118800000D01*
X112046000Y-121800000D02*
X112046000Y-118299000D01*
X115546000Y-124800000D02*
X115546000Y-121800000D01*
X116046000Y-135300100D02*
X116046000Y-127300100D01*
X116546000Y-126800000D02*
X116546000Y-120800000D01*
X112546000Y-124800000D02*
X112546000Y-121800000D01*
X112046000Y-135300100D02*
X112046000Y-127300100D01*
X111546000Y-126800000D02*
X111546000Y-120800000D01*
X116546000Y-126800000D02*
X116546000Y-135800000D01*
X111546000Y-135800000D02*
X111546000Y-126800000D01*
G04 #@! TO.C,J8*
X116626000Y-135800000D02*
X116626000Y-126800000D01*
X121626000Y-126800000D02*
X121626000Y-135800000D01*
X116626000Y-126800000D02*
X116626000Y-120800000D01*
X117126000Y-135300100D02*
X117126000Y-127300100D01*
X117626000Y-124800000D02*
X117626000Y-121800000D01*
X121626000Y-126800000D02*
X121626000Y-120800000D01*
X121126000Y-135300100D02*
X121126000Y-127300100D01*
X120626000Y-124800000D02*
X120626000Y-121800000D01*
X117126000Y-121800000D02*
X117126000Y-118299000D01*
X117626000Y-121299900D02*
X117626000Y-118800000D01*
X118126000Y-127300100D02*
X118126000Y-126800000D01*
X121126000Y-121800000D02*
X121126000Y-118299900D01*
X120626000Y-121299900D02*
X120626000Y-118800000D01*
X120126000Y-127300100D02*
X120126000Y-126800000D01*
X121126000Y-135300100D02*
X117126000Y-135300100D01*
X117126000Y-127300100D02*
X121126000Y-127300100D01*
X120626100Y-124800000D02*
X117625900Y-124800000D01*
X117126000Y-121800000D02*
X121126000Y-121800000D01*
X117126000Y-118299900D02*
X121126000Y-118299900D01*
X120627000Y-121299900D02*
X117625000Y-121299900D01*
X120627000Y-118800000D02*
X117625000Y-118800000D01*
X121626100Y-135800000D02*
X116625900Y-135800000D01*
X121626100Y-126800000D02*
X116625900Y-126800000D01*
X117126000Y-120800000D02*
X116626000Y-120800000D01*
X121626000Y-120800000D02*
X121126000Y-120800000D01*
G04 #@! TO.C,J9*
X128738000Y-120800000D02*
X128238000Y-120800000D01*
X124238000Y-120800000D02*
X123738000Y-120800000D01*
X128738100Y-126800000D02*
X123737900Y-126800000D01*
X128738100Y-135800000D02*
X123737900Y-135800000D01*
X127739000Y-118800000D02*
X124737000Y-118800000D01*
X127739000Y-121299900D02*
X124737000Y-121299900D01*
X124238000Y-118299900D02*
X128238000Y-118299900D01*
X124238000Y-121800000D02*
X128238000Y-121800000D01*
X127738100Y-124800000D02*
X124737900Y-124800000D01*
X124238000Y-127300100D02*
X128238000Y-127300100D01*
X128238000Y-135300100D02*
X124238000Y-135300100D01*
X127238000Y-127300100D02*
X127238000Y-126800000D01*
X127738000Y-121299900D02*
X127738000Y-118800000D01*
X128238000Y-121800000D02*
X128238000Y-118299900D01*
X125238000Y-127300100D02*
X125238000Y-126800000D01*
X124738000Y-121299900D02*
X124738000Y-118800000D01*
X124238000Y-121800000D02*
X124238000Y-118299000D01*
X127738000Y-124800000D02*
X127738000Y-121800000D01*
X128238000Y-135300100D02*
X128238000Y-127300100D01*
X128738000Y-126800000D02*
X128738000Y-120800000D01*
X124738000Y-124800000D02*
X124738000Y-121800000D01*
X124238000Y-135300100D02*
X124238000Y-127300100D01*
X123738000Y-126800000D02*
X123738000Y-120800000D01*
X128738000Y-126800000D02*
X128738000Y-135800000D01*
X123738000Y-135800000D02*
X123738000Y-126800000D01*
G04 #@! TO.C,J10*
X128818000Y-135800000D02*
X128818000Y-126800000D01*
X133818000Y-126800000D02*
X133818000Y-135800000D01*
X128818000Y-126800000D02*
X128818000Y-120800000D01*
X129318000Y-135300100D02*
X129318000Y-127300100D01*
X129818000Y-124800000D02*
X129818000Y-121800000D01*
X133818000Y-126800000D02*
X133818000Y-120800000D01*
X133318000Y-135300100D02*
X133318000Y-127300100D01*
X132818000Y-124800000D02*
X132818000Y-121800000D01*
X129318000Y-121800000D02*
X129318000Y-118299000D01*
X129818000Y-121299900D02*
X129818000Y-118800000D01*
X130318000Y-127300100D02*
X130318000Y-126800000D01*
X133318000Y-121800000D02*
X133318000Y-118299900D01*
X132818000Y-121299900D02*
X132818000Y-118800000D01*
X132318000Y-127300100D02*
X132318000Y-126800000D01*
X133318000Y-135300100D02*
X129318000Y-135300100D01*
X129318000Y-127300100D02*
X133318000Y-127300100D01*
X132818100Y-124800000D02*
X129817900Y-124800000D01*
X129318000Y-121800000D02*
X133318000Y-121800000D01*
X129318000Y-118299900D02*
X133318000Y-118299900D01*
X132819000Y-121299900D02*
X129817000Y-121299900D01*
X132819000Y-118800000D02*
X129817000Y-118800000D01*
X133818100Y-135800000D02*
X128817900Y-135800000D01*
X133818100Y-126800000D02*
X128817900Y-126800000D01*
X129318000Y-120800000D02*
X128818000Y-120800000D01*
X133818000Y-120800000D02*
X133318000Y-120800000D01*
G04 #@! TO.C,J11*
X147788000Y-121007000D02*
X147288000Y-121007000D01*
X143288000Y-121007000D02*
X142788000Y-121007000D01*
X147788100Y-127007000D02*
X142787900Y-127007000D01*
X147788100Y-136007000D02*
X142787900Y-136007000D01*
X146789000Y-119007000D02*
X143787000Y-119007000D01*
X146789000Y-121506900D02*
X143787000Y-121506900D01*
X143288000Y-118506900D02*
X147288000Y-118506900D01*
X143288000Y-122007000D02*
X147288000Y-122007000D01*
X146788100Y-125007000D02*
X143787900Y-125007000D01*
X143288000Y-127507100D02*
X147288000Y-127507100D01*
X147288000Y-135507100D02*
X143288000Y-135507100D01*
X146288000Y-127507100D02*
X146288000Y-127007000D01*
X146788000Y-121506900D02*
X146788000Y-119007000D01*
X147288000Y-122007000D02*
X147288000Y-118506900D01*
X144288000Y-127507100D02*
X144288000Y-127007000D01*
X143788000Y-121506900D02*
X143788000Y-119007000D01*
X143288000Y-122007000D02*
X143288000Y-118506000D01*
X146788000Y-125007000D02*
X146788000Y-122007000D01*
X147288000Y-135507100D02*
X147288000Y-127507100D01*
X147788000Y-127007000D02*
X147788000Y-121007000D01*
X143788000Y-125007000D02*
X143788000Y-122007000D01*
X143288000Y-135507100D02*
X143288000Y-127507100D01*
X142788000Y-127007000D02*
X142788000Y-121007000D01*
X147788000Y-127007000D02*
X147788000Y-136007000D01*
X142788000Y-136007000D02*
X142788000Y-127007000D01*
G04 #@! TO.C,J12*
X147868000Y-136007000D02*
X147868000Y-127007000D01*
X152868000Y-127007000D02*
X152868000Y-136007000D01*
X147868000Y-127007000D02*
X147868000Y-121007000D01*
X148368000Y-135507100D02*
X148368000Y-127507100D01*
X148868000Y-125007000D02*
X148868000Y-122007000D01*
X152868000Y-127007000D02*
X152868000Y-121007000D01*
X152368000Y-135507100D02*
X152368000Y-127507100D01*
X151868000Y-125007000D02*
X151868000Y-122007000D01*
X148368000Y-122007000D02*
X148368000Y-118506000D01*
X148868000Y-121506900D02*
X148868000Y-119007000D01*
X149368000Y-127507100D02*
X149368000Y-127007000D01*
X152368000Y-122007000D02*
X152368000Y-118506900D01*
X151868000Y-121506900D02*
X151868000Y-119007000D01*
X151368000Y-127507100D02*
X151368000Y-127007000D01*
X152368000Y-135507100D02*
X148368000Y-135507100D01*
X148368000Y-127507100D02*
X152368000Y-127507100D01*
X151868100Y-125007000D02*
X148867900Y-125007000D01*
X148368000Y-122007000D02*
X152368000Y-122007000D01*
X148368000Y-118506900D02*
X152368000Y-118506900D01*
X151869000Y-121506900D02*
X148867000Y-121506900D01*
X151869000Y-119007000D02*
X148867000Y-119007000D01*
X152868100Y-136007000D02*
X147867900Y-136007000D01*
X152868100Y-127007000D02*
X147867900Y-127007000D01*
X148368000Y-121007000D02*
X147868000Y-121007000D01*
X152868000Y-121007000D02*
X152368000Y-121007000D01*
G04 #@! TO.C,J13*
X159980000Y-121007000D02*
X159480000Y-121007000D01*
X155480000Y-121007000D02*
X154980000Y-121007000D01*
X159980100Y-127007000D02*
X154979900Y-127007000D01*
X159980100Y-136007000D02*
X154979900Y-136007000D01*
X158981000Y-119007000D02*
X155979000Y-119007000D01*
X158981000Y-121506900D02*
X155979000Y-121506900D01*
X155480000Y-118506900D02*
X159480000Y-118506900D01*
X155480000Y-122007000D02*
X159480000Y-122007000D01*
X158980100Y-125007000D02*
X155979900Y-125007000D01*
X155480000Y-127507100D02*
X159480000Y-127507100D01*
X159480000Y-135507100D02*
X155480000Y-135507100D01*
X158480000Y-127507100D02*
X158480000Y-127007000D01*
X158980000Y-121506900D02*
X158980000Y-119007000D01*
X159480000Y-122007000D02*
X159480000Y-118506900D01*
X156480000Y-127507100D02*
X156480000Y-127007000D01*
X155980000Y-121506900D02*
X155980000Y-119007000D01*
X155480000Y-122007000D02*
X155480000Y-118506000D01*
X158980000Y-125007000D02*
X158980000Y-122007000D01*
X159480000Y-135507100D02*
X159480000Y-127507100D01*
X159980000Y-127007000D02*
X159980000Y-121007000D01*
X155980000Y-125007000D02*
X155980000Y-122007000D01*
X155480000Y-135507100D02*
X155480000Y-127507100D01*
X154980000Y-127007000D02*
X154980000Y-121007000D01*
X159980000Y-127007000D02*
X159980000Y-136007000D01*
X154980000Y-136007000D02*
X154980000Y-127007000D01*
G04 #@! TO.C,J16*
X178856000Y-136040000D02*
X178856000Y-127040000D01*
X183856000Y-127040000D02*
X183856000Y-136040000D01*
X178856000Y-127040000D02*
X178856000Y-121040000D01*
X179356000Y-135540100D02*
X179356000Y-127540100D01*
X179856000Y-125040000D02*
X179856000Y-122040000D01*
X183856000Y-127040000D02*
X183856000Y-121040000D01*
X183356000Y-135540100D02*
X183356000Y-127540100D01*
X182856000Y-125040000D02*
X182856000Y-122040000D01*
X179356000Y-122040000D02*
X179356000Y-118539000D01*
X179856000Y-121539900D02*
X179856000Y-119040000D01*
X180356000Y-127540100D02*
X180356000Y-127040000D01*
X183356000Y-122040000D02*
X183356000Y-118539900D01*
X182856000Y-121539900D02*
X182856000Y-119040000D01*
X182356000Y-127540100D02*
X182356000Y-127040000D01*
X183356000Y-135540100D02*
X179356000Y-135540100D01*
X179356000Y-127540100D02*
X183356000Y-127540100D01*
X182856100Y-125040000D02*
X179855900Y-125040000D01*
X179356000Y-122040000D02*
X183356000Y-122040000D01*
X179356000Y-118539900D02*
X183356000Y-118539900D01*
X182857000Y-121539900D02*
X179855000Y-121539900D01*
X182857000Y-119040000D02*
X179855000Y-119040000D01*
X183856100Y-136040000D02*
X178855900Y-136040000D01*
X183856100Y-127040000D02*
X178855900Y-127040000D01*
X179356000Y-121040000D02*
X178856000Y-121040000D01*
X183856000Y-121040000D02*
X183356000Y-121040000D01*
G04 #@! TO.C,J17*
X190968000Y-121040000D02*
X190468000Y-121040000D01*
X186468000Y-121040000D02*
X185968000Y-121040000D01*
X190968100Y-127040000D02*
X185967900Y-127040000D01*
X190968100Y-136040000D02*
X185967900Y-136040000D01*
X189969000Y-119040000D02*
X186967000Y-119040000D01*
X189969000Y-121539900D02*
X186967000Y-121539900D01*
X186468000Y-118539900D02*
X190468000Y-118539900D01*
X186468000Y-122040000D02*
X190468000Y-122040000D01*
X189968100Y-125040000D02*
X186967900Y-125040000D01*
X186468000Y-127540100D02*
X190468000Y-127540100D01*
X190468000Y-135540100D02*
X186468000Y-135540100D01*
X189468000Y-127540100D02*
X189468000Y-127040000D01*
X189968000Y-121539900D02*
X189968000Y-119040000D01*
X190468000Y-122040000D02*
X190468000Y-118539900D01*
X187468000Y-127540100D02*
X187468000Y-127040000D01*
X186968000Y-121539900D02*
X186968000Y-119040000D01*
X186468000Y-122040000D02*
X186468000Y-118539000D01*
X189968000Y-125040000D02*
X189968000Y-122040000D01*
X190468000Y-135540100D02*
X190468000Y-127540100D01*
X190968000Y-127040000D02*
X190968000Y-121040000D01*
X186968000Y-125040000D02*
X186968000Y-122040000D01*
X186468000Y-135540100D02*
X186468000Y-127540100D01*
X185968000Y-127040000D02*
X185968000Y-121040000D01*
X190968000Y-127040000D02*
X190968000Y-136040000D01*
X185968000Y-136040000D02*
X185968000Y-127040000D01*
G04 #@! TO.C,J18*
X191048000Y-136040000D02*
X191048000Y-127040000D01*
X196048000Y-127040000D02*
X196048000Y-136040000D01*
X191048000Y-127040000D02*
X191048000Y-121040000D01*
X191548000Y-135540100D02*
X191548000Y-127540100D01*
X192048000Y-125040000D02*
X192048000Y-122040000D01*
X196048000Y-127040000D02*
X196048000Y-121040000D01*
X195548000Y-135540100D02*
X195548000Y-127540100D01*
X195048000Y-125040000D02*
X195048000Y-122040000D01*
X191548000Y-122040000D02*
X191548000Y-118539000D01*
X192048000Y-121539900D02*
X192048000Y-119040000D01*
X192548000Y-127540100D02*
X192548000Y-127040000D01*
X195548000Y-122040000D02*
X195548000Y-118539900D01*
X195048000Y-121539900D02*
X195048000Y-119040000D01*
X194548000Y-127540100D02*
X194548000Y-127040000D01*
X195548000Y-135540100D02*
X191548000Y-135540100D01*
X191548000Y-127540100D02*
X195548000Y-127540100D01*
X195048100Y-125040000D02*
X192047900Y-125040000D01*
X191548000Y-122040000D02*
X195548000Y-122040000D01*
X191548000Y-118539900D02*
X195548000Y-118539900D01*
X195049000Y-121539900D02*
X192047000Y-121539900D01*
X195049000Y-119040000D02*
X192047000Y-119040000D01*
X196048100Y-136040000D02*
X191047900Y-136040000D01*
X196048100Y-127040000D02*
X191047900Y-127040000D01*
X191548000Y-121040000D02*
X191048000Y-121040000D01*
X196048000Y-121040000D02*
X195548000Y-121040000D01*
G04 #@! TO.C,J19*
X192296000Y-93512000D02*
X192296000Y-94012000D01*
X192296000Y-98012000D02*
X192296000Y-98512000D01*
X198296000Y-93511900D02*
X198296000Y-98512100D01*
X207296000Y-93511900D02*
X207296000Y-98512100D01*
X190296000Y-94511000D02*
X190296000Y-97513000D01*
X192795900Y-94511000D02*
X192795900Y-97513000D01*
X189795900Y-98012000D02*
X189795900Y-94012000D01*
X193296000Y-98012000D02*
X193296000Y-94012000D01*
X196296000Y-94511900D02*
X196296000Y-97512100D01*
X198796100Y-98012000D02*
X198796100Y-94012000D01*
X206796100Y-94012000D02*
X206796100Y-98012000D01*
X198796100Y-95012000D02*
X198296000Y-95012000D01*
X192795900Y-94512000D02*
X190296000Y-94512000D01*
X193296000Y-94012000D02*
X189795900Y-94012000D01*
X198796100Y-97012000D02*
X198296000Y-97012000D01*
X192795900Y-97512000D02*
X190296000Y-97512000D01*
X193296000Y-98012000D02*
X189795000Y-98012000D01*
X196296000Y-94512000D02*
X193296000Y-94512000D01*
X206796100Y-94012000D02*
X198796100Y-94012000D01*
X198296000Y-93512000D02*
X192296000Y-93512000D01*
X196296000Y-97512000D02*
X193296000Y-97512000D01*
X206796100Y-98012000D02*
X198796100Y-98012000D01*
X198296000Y-98512000D02*
X192296000Y-98512000D01*
X198296000Y-93512000D02*
X207296000Y-93512000D01*
X207296000Y-98512000D02*
X198296000Y-98512000D01*
G04 #@! TO.C,J21*
X207240000Y-86320000D02*
X198240000Y-86320000D01*
X198240000Y-81320000D02*
X207240000Y-81320000D01*
X198240000Y-86320000D02*
X192240000Y-86320000D01*
X206740100Y-85820000D02*
X198740100Y-85820000D01*
X196240000Y-85320000D02*
X193240000Y-85320000D01*
X198240000Y-81320000D02*
X192240000Y-81320000D01*
X206740100Y-81820000D02*
X198740100Y-81820000D01*
X196240000Y-82320000D02*
X193240000Y-82320000D01*
X193240000Y-85820000D02*
X189739000Y-85820000D01*
X192739900Y-85320000D02*
X190240000Y-85320000D01*
X198740100Y-84820000D02*
X198240000Y-84820000D01*
X193240000Y-81820000D02*
X189739900Y-81820000D01*
X192739900Y-82320000D02*
X190240000Y-82320000D01*
X198740100Y-82820000D02*
X198240000Y-82820000D01*
X206740100Y-81820000D02*
X206740100Y-85820000D01*
X198740100Y-85820000D02*
X198740100Y-81820000D01*
X196240000Y-82319900D02*
X196240000Y-85320100D01*
X193240000Y-85820000D02*
X193240000Y-81820000D01*
X189739900Y-85820000D02*
X189739900Y-81820000D01*
X192739900Y-82319000D02*
X192739900Y-85321000D01*
X190240000Y-82319000D02*
X190240000Y-85321000D01*
X207240000Y-81319900D02*
X207240000Y-86320100D01*
X198240000Y-81319900D02*
X198240000Y-86320100D01*
X192240000Y-85820000D02*
X192240000Y-86320000D01*
X192240000Y-81320000D02*
X192240000Y-81820000D01*
G04 #@! TO.C,J22*
X192240000Y-76240000D02*
X192240000Y-76740000D01*
X192240000Y-80740000D02*
X192240000Y-81240000D01*
X198240000Y-76239900D02*
X198240000Y-81240100D01*
X207240000Y-76239900D02*
X207240000Y-81240100D01*
X190240000Y-77239000D02*
X190240000Y-80241000D01*
X192739900Y-77239000D02*
X192739900Y-80241000D01*
X189739900Y-80740000D02*
X189739900Y-76740000D01*
X193240000Y-80740000D02*
X193240000Y-76740000D01*
X196240000Y-77239900D02*
X196240000Y-80240100D01*
X198740100Y-80740000D02*
X198740100Y-76740000D01*
X206740100Y-76740000D02*
X206740100Y-80740000D01*
X198740100Y-77740000D02*
X198240000Y-77740000D01*
X192739900Y-77240000D02*
X190240000Y-77240000D01*
X193240000Y-76740000D02*
X189739900Y-76740000D01*
X198740100Y-79740000D02*
X198240000Y-79740000D01*
X192739900Y-80240000D02*
X190240000Y-80240000D01*
X193240000Y-80740000D02*
X189739000Y-80740000D01*
X196240000Y-77240000D02*
X193240000Y-77240000D01*
X206740100Y-76740000D02*
X198740100Y-76740000D01*
X198240000Y-76240000D02*
X192240000Y-76240000D01*
X196240000Y-80240000D02*
X193240000Y-80240000D01*
X206740100Y-80740000D02*
X198740100Y-80740000D01*
X198240000Y-81240000D02*
X192240000Y-81240000D01*
X198240000Y-76240000D02*
X207240000Y-76240000D01*
X207240000Y-81240000D02*
X198240000Y-81240000D01*
G04 #@! TO.C,J15*
X173776000Y-136040000D02*
X173776000Y-127040000D01*
X178776000Y-127040000D02*
X178776000Y-136040000D01*
X173776000Y-127040000D02*
X173776000Y-121040000D01*
X174276000Y-135540100D02*
X174276000Y-127540100D01*
X174776000Y-125040000D02*
X174776000Y-122040000D01*
X178776000Y-127040000D02*
X178776000Y-121040000D01*
X178276000Y-135540100D02*
X178276000Y-127540100D01*
X177776000Y-125040000D02*
X177776000Y-122040000D01*
X174276000Y-122040000D02*
X174276000Y-118539000D01*
X174776000Y-121539900D02*
X174776000Y-119040000D01*
X175276000Y-127540100D02*
X175276000Y-127040000D01*
X178276000Y-122040000D02*
X178276000Y-118539900D01*
X177776000Y-121539900D02*
X177776000Y-119040000D01*
X177276000Y-127540100D02*
X177276000Y-127040000D01*
X178276000Y-135540100D02*
X174276000Y-135540100D01*
X174276000Y-127540100D02*
X178276000Y-127540100D01*
X177776100Y-125040000D02*
X174775900Y-125040000D01*
X174276000Y-122040000D02*
X178276000Y-122040000D01*
X174276000Y-118539900D02*
X178276000Y-118539900D01*
X177777000Y-121539900D02*
X174775000Y-121539900D01*
X177777000Y-119040000D02*
X174775000Y-119040000D01*
X178776100Y-136040000D02*
X173775900Y-136040000D01*
X178776100Y-127040000D02*
X173775900Y-127040000D01*
X174276000Y-121040000D02*
X173776000Y-121040000D01*
X178776000Y-121040000D02*
X178276000Y-121040000D01*
G04 #@! TO.C,J20*
X192296000Y-88432000D02*
X192296000Y-88932000D01*
X192296000Y-92932000D02*
X192296000Y-93432000D01*
X198296000Y-88431900D02*
X198296000Y-93432100D01*
X207296000Y-88431900D02*
X207296000Y-93432100D01*
X190296000Y-89431000D02*
X190296000Y-92433000D01*
X192795900Y-89431000D02*
X192795900Y-92433000D01*
X189795900Y-92932000D02*
X189795900Y-88932000D01*
X193296000Y-92932000D02*
X193296000Y-88932000D01*
X196296000Y-89431900D02*
X196296000Y-92432100D01*
X198796100Y-92932000D02*
X198796100Y-88932000D01*
X206796100Y-88932000D02*
X206796100Y-92932000D01*
X198796100Y-89932000D02*
X198296000Y-89932000D01*
X192795900Y-89432000D02*
X190296000Y-89432000D01*
X193296000Y-88932000D02*
X189795900Y-88932000D01*
X198796100Y-91932000D02*
X198296000Y-91932000D01*
X192795900Y-92432000D02*
X190296000Y-92432000D01*
X193296000Y-92932000D02*
X189795000Y-92932000D01*
X196296000Y-89432000D02*
X193296000Y-89432000D01*
X206796100Y-88932000D02*
X198796100Y-88932000D01*
X198296000Y-88432000D02*
X192296000Y-88432000D01*
X196296000Y-92432000D02*
X193296000Y-92432000D01*
X206796100Y-92932000D02*
X198796100Y-92932000D01*
X198296000Y-93432000D02*
X192296000Y-93432000D01*
X198296000Y-88432000D02*
X207296000Y-88432000D01*
X207296000Y-93432000D02*
X198296000Y-93432000D01*
G04 #@! TO.C,J5*
X178054000Y-48006000D02*
X180594000Y-48006000D01*
X180594000Y-48006000D02*
X180594000Y-58166000D01*
X180594000Y-58166000D02*
X178054000Y-58166000D01*
X178054000Y-58166000D02*
X178054000Y-48006000D01*
G04 #@! TO.C,J4*
X175514000Y-48006000D02*
X175514000Y-53086000D01*
X175514000Y-53086000D02*
X167894000Y-53086000D01*
X167894000Y-53086000D02*
X167894000Y-48006000D01*
X167894000Y-48006000D02*
X175514000Y-48006000D01*
G04 #@! TO.C,J2*
X204470000Y-69850000D02*
X199390000Y-69850000D01*
X199390000Y-69850000D02*
X199390000Y-59690000D01*
X199390000Y-59690000D02*
X204470000Y-59690000D01*
X204470000Y-59690000D02*
X204470000Y-69850000D01*
G04 #@! TO.C,J6*
X153162000Y-53086000D02*
X153162000Y-48006000D01*
X153162000Y-48006000D02*
X165862000Y-48006000D01*
X165862000Y-48006000D02*
X165862000Y-53086000D01*
X165862000Y-53086000D02*
X153162000Y-53086000D01*
G04 #@! TO.C,J1*
X128270000Y-53086000D02*
X128270000Y-48006000D01*
X128270000Y-48006000D02*
X151130000Y-48006000D01*
X151130000Y-48006000D02*
X151130000Y-53086000D01*
X151130000Y-53086000D02*
X128270000Y-53086000D01*
D11*
G04 #@! TO.C,Q7*
X182764000Y-113722000D02*
X182764000Y-114822000D01*
X183034000Y-113722000D02*
X182764000Y-113722000D01*
X183034000Y-112222000D02*
X183034000Y-113722000D01*
X176404000Y-113722000D02*
X176404000Y-116552000D01*
X176134000Y-113722000D02*
X176404000Y-113722000D01*
X176134000Y-112222000D02*
X176134000Y-113722000D01*
G04 #@! TO.C,Q10*
X183850000Y-83714000D02*
X185350000Y-83714000D01*
X185350000Y-83714000D02*
X185350000Y-83444000D01*
X185350000Y-83444000D02*
X188180000Y-83444000D01*
X183850000Y-76814000D02*
X185350000Y-76814000D01*
X185350000Y-76814000D02*
X185350000Y-77084000D01*
X185350000Y-77084000D02*
X186450000Y-77084000D01*
G04 #@! TO.C,Q9*
X185267000Y-89785000D02*
X186367000Y-89785000D01*
X185267000Y-89515000D02*
X185267000Y-89785000D01*
X183767000Y-89515000D02*
X185267000Y-89515000D01*
X185267000Y-96145000D02*
X188097000Y-96145000D01*
X185267000Y-96415000D02*
X185267000Y-96145000D01*
X183767000Y-96415000D02*
X185267000Y-96415000D01*
G04 #@! TO.C,Q8*
X188574000Y-112290000D02*
X188574000Y-113790000D01*
X188574000Y-113790000D02*
X188844000Y-113790000D01*
X188844000Y-113790000D02*
X188844000Y-116620000D01*
X195474000Y-112290000D02*
X195474000Y-113790000D01*
X195474000Y-113790000D02*
X195204000Y-113790000D01*
X195204000Y-113790000D02*
X195204000Y-114890000D01*
G04 #@! TO.C,Q6*
X157840000Y-112417000D02*
X157840000Y-113917000D01*
X157840000Y-113917000D02*
X158110000Y-113917000D01*
X158110000Y-113917000D02*
X158110000Y-116747000D01*
X164740000Y-112417000D02*
X164740000Y-113917000D01*
X164740000Y-113917000D02*
X164470000Y-113917000D01*
X164470000Y-113917000D02*
X164470000Y-115017000D01*
G04 #@! TO.C,Q3*
X120529000Y-113639000D02*
X120529000Y-114739000D01*
X120799000Y-113639000D02*
X120529000Y-113639000D01*
X120799000Y-112139000D02*
X120799000Y-113639000D01*
X114169000Y-113639000D02*
X114169000Y-116469000D01*
X113899000Y-113639000D02*
X114169000Y-113639000D01*
X113899000Y-112139000D02*
X113899000Y-113639000D01*
G04 #@! TO.C,Q4*
X126598000Y-112222000D02*
X126598000Y-113722000D01*
X126598000Y-113722000D02*
X126868000Y-113722000D01*
X126868000Y-113722000D02*
X126868000Y-116552000D01*
X133498000Y-112222000D02*
X133498000Y-113722000D01*
X133498000Y-113722000D02*
X133228000Y-113722000D01*
X133228000Y-113722000D02*
X133228000Y-114822000D01*
G04 #@! TO.C,Q5*
X151769000Y-113766000D02*
X151769000Y-114866000D01*
X152039000Y-113766000D02*
X151769000Y-113766000D01*
X152039000Y-112266000D02*
X152039000Y-113766000D01*
X145409000Y-113766000D02*
X145409000Y-116596000D01*
X145139000Y-113766000D02*
X145409000Y-113766000D01*
X145139000Y-112266000D02*
X145139000Y-113766000D01*
G04 #@! TD*
D13*
G04 #@! TO.C,J14*
X160705000Y-124152000D02*
X160705000Y-127862000D01*
X164415000Y-127862000D01*
X164415000Y-124152000D01*
X160705000Y-124152000D01*
X160705000Y-129152000D02*
X160705000Y-132862000D01*
X164415000Y-132862000D01*
X164415000Y-129152000D01*
X160705000Y-129152000D01*
G04 #@! TD*
G04 #@! TO.C,J7*
X112191000Y-128945000D02*
X112191000Y-132655000D01*
X115901000Y-132655000D01*
X115901000Y-128945000D01*
X112191000Y-128945000D01*
X112191000Y-123945000D02*
X112191000Y-127655000D01*
X115901000Y-127655000D01*
X115901000Y-123945000D01*
X112191000Y-123945000D01*
G04 #@! TD*
G04 #@! TO.C,J8*
X117271000Y-123945000D02*
X117271000Y-127655000D01*
X120981000Y-127655000D01*
X120981000Y-123945000D01*
X117271000Y-123945000D01*
X117271000Y-128945000D02*
X117271000Y-132655000D01*
X120981000Y-132655000D01*
X120981000Y-128945000D01*
X117271000Y-128945000D01*
G04 #@! TD*
G04 #@! TO.C,J9*
X124383000Y-128945000D02*
X124383000Y-132655000D01*
X128093000Y-132655000D01*
X128093000Y-128945000D01*
X124383000Y-128945000D01*
X124383000Y-123945000D02*
X124383000Y-127655000D01*
X128093000Y-127655000D01*
X128093000Y-123945000D01*
X124383000Y-123945000D01*
G04 #@! TD*
G04 #@! TO.C,J10*
X129463000Y-123945000D02*
X129463000Y-127655000D01*
X133173000Y-127655000D01*
X133173000Y-123945000D01*
X129463000Y-123945000D01*
X129463000Y-128945000D02*
X129463000Y-132655000D01*
X133173000Y-132655000D01*
X133173000Y-128945000D01*
X129463000Y-128945000D01*
G04 #@! TD*
G04 #@! TO.C,J11*
X143433000Y-129152000D02*
X143433000Y-132862000D01*
X147143000Y-132862000D01*
X147143000Y-129152000D01*
X143433000Y-129152000D01*
X143433000Y-124152000D02*
X143433000Y-127862000D01*
X147143000Y-127862000D01*
X147143000Y-124152000D01*
X143433000Y-124152000D01*
G04 #@! TD*
G04 #@! TO.C,J12*
X148513000Y-124152000D02*
X148513000Y-127862000D01*
X152223000Y-127862000D01*
X152223000Y-124152000D01*
X148513000Y-124152000D01*
X148513000Y-129152000D02*
X148513000Y-132862000D01*
X152223000Y-132862000D01*
X152223000Y-129152000D01*
X148513000Y-129152000D01*
G04 #@! TD*
G04 #@! TO.C,J13*
X155625000Y-129152000D02*
X155625000Y-132862000D01*
X159335000Y-132862000D01*
X159335000Y-129152000D01*
X155625000Y-129152000D01*
X155625000Y-124152000D02*
X155625000Y-127862000D01*
X159335000Y-127862000D01*
X159335000Y-124152000D01*
X155625000Y-124152000D01*
G04 #@! TD*
G04 #@! TO.C,J16*
X179501000Y-124185000D02*
X179501000Y-127895000D01*
X183211000Y-127895000D01*
X183211000Y-124185000D01*
X179501000Y-124185000D01*
X179501000Y-129185000D02*
X179501000Y-132895000D01*
X183211000Y-132895000D01*
X183211000Y-129185000D01*
X179501000Y-129185000D01*
G04 #@! TD*
G04 #@! TO.C,J17*
X186613000Y-129185000D02*
X186613000Y-132895000D01*
X190323000Y-132895000D01*
X190323000Y-129185000D01*
X186613000Y-129185000D01*
X186613000Y-124185000D02*
X186613000Y-127895000D01*
X190323000Y-127895000D01*
X190323000Y-124185000D01*
X186613000Y-124185000D01*
G04 #@! TD*
G04 #@! TO.C,J18*
X191693000Y-124185000D02*
X191693000Y-127895000D01*
X195403000Y-127895000D01*
X195403000Y-124185000D01*
X191693000Y-124185000D01*
X191693000Y-129185000D02*
X191693000Y-132895000D01*
X195403000Y-132895000D01*
X195403000Y-129185000D01*
X191693000Y-129185000D01*
G04 #@! TD*
G04 #@! TO.C,J19*
X200441000Y-94157000D02*
X200441000Y-97867000D01*
X204151000Y-97867000D01*
X204151000Y-94157000D01*
X200441000Y-94157000D01*
X195441000Y-94157000D02*
X195441000Y-97867000D01*
X199151000Y-97867000D01*
X199151000Y-94157000D01*
X195441000Y-94157000D01*
G04 #@! TD*
G04 #@! TO.C,J21*
X195385000Y-81965000D02*
X195385000Y-85675000D01*
X199095000Y-85675000D01*
X199095000Y-81965000D01*
X195385000Y-81965000D01*
X200385000Y-81965000D02*
X200385000Y-85675000D01*
X204095000Y-85675000D01*
X204095000Y-81965000D01*
X200385000Y-81965000D01*
G04 #@! TD*
G04 #@! TO.C,J22*
X200385000Y-76885000D02*
X200385000Y-80595000D01*
X204095000Y-80595000D01*
X204095000Y-76885000D01*
X200385000Y-76885000D01*
X195385000Y-76885000D02*
X195385000Y-80595000D01*
X199095000Y-80595000D01*
X199095000Y-76885000D01*
X195385000Y-76885000D01*
G04 #@! TD*
G04 #@! TO.C,J15*
X174421000Y-124185000D02*
X174421000Y-127895000D01*
X178131000Y-127895000D01*
X178131000Y-124185000D01*
X174421000Y-124185000D01*
X174421000Y-129185000D02*
X174421000Y-132895000D01*
X178131000Y-132895000D01*
X178131000Y-129185000D01*
X174421000Y-129185000D01*
G04 #@! TD*
G04 #@! TO.C,J20*
X200441000Y-89077000D02*
X200441000Y-92787000D01*
X204151000Y-92787000D01*
X204151000Y-89077000D01*
X200441000Y-89077000D01*
X195441000Y-89077000D02*
X195441000Y-92787000D01*
X199151000Y-92787000D01*
X199151000Y-89077000D01*
X195441000Y-89077000D01*
G04 #@! TD*
G04 #@! TO.C,J5*
X178612000Y-56184000D02*
X178612000Y-57608000D01*
X180036000Y-57608000D01*
X180036000Y-56184000D01*
X178612000Y-56184000D01*
X178612000Y-53644000D02*
X178612000Y-55068000D01*
X180036000Y-55068000D01*
X180036000Y-53644000D01*
X178612000Y-53644000D01*
X178612000Y-51104000D02*
X178612000Y-52528000D01*
X180036000Y-52528000D01*
X180036000Y-51104000D01*
X178612000Y-51104000D01*
X178612000Y-48564000D02*
X178612000Y-49988000D01*
X180036000Y-49988000D01*
X180036000Y-48564000D01*
X178612000Y-48564000D01*
G04 #@! TD*
G04 #@! TO.C,J4*
X173532000Y-48564000D02*
X173532000Y-49988000D01*
X174956000Y-49988000D01*
X174956000Y-48564000D01*
X173532000Y-48564000D01*
X173532000Y-51104000D02*
X173532000Y-52528000D01*
X174956000Y-52528000D01*
X174956000Y-51104000D01*
X173532000Y-51104000D01*
X170992000Y-48564000D02*
X170992000Y-49988000D01*
X172416000Y-49988000D01*
X172416000Y-48564000D01*
X170992000Y-48564000D01*
X170992000Y-51104000D02*
X170992000Y-52528000D01*
X172416000Y-52528000D01*
X172416000Y-51104000D01*
X170992000Y-51104000D01*
X168452000Y-48564000D02*
X168452000Y-49988000D01*
X169876000Y-49988000D01*
X169876000Y-48564000D01*
X168452000Y-48564000D01*
X168452000Y-51104000D02*
X168452000Y-52528000D01*
X169876000Y-52528000D01*
X169876000Y-51104000D01*
X168452000Y-51104000D01*
G04 #@! TD*
G04 #@! TO.C,J2*
X202488000Y-67868000D02*
X202488000Y-69292000D01*
X203912000Y-69292000D01*
X203912000Y-67868000D01*
X202488000Y-67868000D01*
X199948000Y-67868000D02*
X199948000Y-69292000D01*
X201372000Y-69292000D01*
X201372000Y-67868000D01*
X199948000Y-67868000D01*
X202488000Y-65328000D02*
X202488000Y-66752000D01*
X203912000Y-66752000D01*
X203912000Y-65328000D01*
X202488000Y-65328000D01*
X199948000Y-65328000D02*
X199948000Y-66752000D01*
X201372000Y-66752000D01*
X201372000Y-65328000D01*
X199948000Y-65328000D01*
X202488000Y-62788000D02*
X202488000Y-64212000D01*
X203912000Y-64212000D01*
X203912000Y-62788000D01*
X202488000Y-62788000D01*
X199948000Y-62788000D02*
X199948000Y-64212000D01*
X201372000Y-64212000D01*
X201372000Y-62788000D01*
X199948000Y-62788000D01*
X202488000Y-60248000D02*
X202488000Y-61672000D01*
X203912000Y-61672000D01*
X203912000Y-60248000D01*
X202488000Y-60248000D01*
X199948000Y-60248000D02*
X199948000Y-61672000D01*
X201372000Y-61672000D01*
X201372000Y-60248000D01*
X199948000Y-60248000D01*
G04 #@! TD*
G04 #@! TO.C,J6*
X153720000Y-51104000D02*
X153720000Y-52528000D01*
X155144000Y-52528000D01*
X155144000Y-51104000D01*
X153720000Y-51104000D01*
X153720000Y-48564000D02*
X153720000Y-49988000D01*
X155144000Y-49988000D01*
X155144000Y-48564000D01*
X153720000Y-48564000D01*
X156260000Y-51104000D02*
X156260000Y-52528000D01*
X157684000Y-52528000D01*
X157684000Y-51104000D01*
X156260000Y-51104000D01*
X156260000Y-48564000D02*
X156260000Y-49988000D01*
X157684000Y-49988000D01*
X157684000Y-48564000D01*
X156260000Y-48564000D01*
X158800000Y-51104000D02*
X158800000Y-52528000D01*
X160224000Y-52528000D01*
X160224000Y-51104000D01*
X158800000Y-51104000D01*
X158800000Y-48564000D02*
X158800000Y-49988000D01*
X160224000Y-49988000D01*
X160224000Y-48564000D01*
X158800000Y-48564000D01*
X161340000Y-51104000D02*
X161340000Y-52528000D01*
X162764000Y-52528000D01*
X162764000Y-51104000D01*
X161340000Y-51104000D01*
X161340000Y-48564000D02*
X161340000Y-49988000D01*
X162764000Y-49988000D01*
X162764000Y-48564000D01*
X161340000Y-48564000D01*
X163880000Y-51104000D02*
X163880000Y-52528000D01*
X165304000Y-52528000D01*
X165304000Y-51104000D01*
X163880000Y-51104000D01*
X163880000Y-48564000D02*
X163880000Y-49988000D01*
X165304000Y-49988000D01*
X165304000Y-48564000D01*
X163880000Y-48564000D01*
G04 #@! TD*
G04 #@! TO.C,J1*
X128828000Y-51104000D02*
X128828000Y-52528000D01*
X130252000Y-52528000D01*
X130252000Y-51104000D01*
X128828000Y-51104000D01*
X128828000Y-48564000D02*
X128828000Y-49988000D01*
X130252000Y-49988000D01*
X130252000Y-48564000D01*
X128828000Y-48564000D01*
X131368000Y-51104000D02*
X131368000Y-52528000D01*
X132792000Y-52528000D01*
X132792000Y-51104000D01*
X131368000Y-51104000D01*
X131368000Y-48564000D02*
X131368000Y-49988000D01*
X132792000Y-49988000D01*
X132792000Y-48564000D01*
X131368000Y-48564000D01*
X133908000Y-51104000D02*
X133908000Y-52528000D01*
X135332000Y-52528000D01*
X135332000Y-51104000D01*
X133908000Y-51104000D01*
X133908000Y-48564000D02*
X133908000Y-49988000D01*
X135332000Y-49988000D01*
X135332000Y-48564000D01*
X133908000Y-48564000D01*
X136448000Y-51104000D02*
X136448000Y-52528000D01*
X137872000Y-52528000D01*
X137872000Y-51104000D01*
X136448000Y-51104000D01*
X136448000Y-48564000D02*
X136448000Y-49988000D01*
X137872000Y-49988000D01*
X137872000Y-48564000D01*
X136448000Y-48564000D01*
X138988000Y-51104000D02*
X138988000Y-52528000D01*
X140412000Y-52528000D01*
X140412000Y-51104000D01*
X138988000Y-51104000D01*
X138988000Y-48564000D02*
X138988000Y-49988000D01*
X140412000Y-49988000D01*
X140412000Y-48564000D01*
X138988000Y-48564000D01*
X141528000Y-51104000D02*
X141528000Y-52528000D01*
X142952000Y-52528000D01*
X142952000Y-51104000D01*
X141528000Y-51104000D01*
X141528000Y-48564000D02*
X141528000Y-49988000D01*
X142952000Y-49988000D01*
X142952000Y-48564000D01*
X141528000Y-48564000D01*
X144068000Y-51104000D02*
X144068000Y-52528000D01*
X145492000Y-52528000D01*
X145492000Y-51104000D01*
X144068000Y-51104000D01*
X144068000Y-48564000D02*
X144068000Y-49988000D01*
X145492000Y-49988000D01*
X145492000Y-48564000D01*
X144068000Y-48564000D01*
X146608000Y-51104000D02*
X146608000Y-52528000D01*
X148032000Y-52528000D01*
X148032000Y-51104000D01*
X146608000Y-51104000D01*
X146608000Y-48564000D02*
X146608000Y-49988000D01*
X148032000Y-49988000D01*
X148032000Y-48564000D01*
X146608000Y-48564000D01*
X149148000Y-51104000D02*
X149148000Y-52528000D01*
X150572000Y-52528000D01*
X150572000Y-51104000D01*
X149148000Y-51104000D01*
X149148000Y-48564000D02*
X149148000Y-49988000D01*
X150572000Y-49988000D01*
X150572000Y-48564000D01*
X149148000Y-48564000D01*
G04 #@! TD*
G04 #@! TO.C,FLASH*
D10*
X109820857Y-63588380D02*
X109820857Y-63155047D01*
X109139904Y-63155047D02*
X110439904Y-63155047D01*
X110439904Y-63774095D01*
X109139904Y-64888380D02*
X109139904Y-64269333D01*
X110439904Y-64269333D01*
X109511333Y-65259809D02*
X109511333Y-65878857D01*
X109139904Y-65136000D02*
X110439904Y-65569333D01*
X109139904Y-66002666D01*
X109201809Y-66374095D02*
X109139904Y-66559809D01*
X109139904Y-66869333D01*
X109201809Y-66993142D01*
X109263714Y-67055047D01*
X109387523Y-67116952D01*
X109511333Y-67116952D01*
X109635142Y-67055047D01*
X109697047Y-66993142D01*
X109758952Y-66869333D01*
X109820857Y-66621714D01*
X109882761Y-66497904D01*
X109944666Y-66436000D01*
X110068476Y-66374095D01*
X110192285Y-66374095D01*
X110316095Y-66436000D01*
X110378000Y-66497904D01*
X110439904Y-66621714D01*
X110439904Y-66931238D01*
X110378000Y-67116952D01*
X109139904Y-67674095D02*
X110439904Y-67674095D01*
X109820857Y-67674095D02*
X109820857Y-68416952D01*
X109139904Y-68416952D02*
X110439904Y-68416952D01*
G04 #@! TO.C,RESET*
X109139904Y-73549904D02*
X109758952Y-73116571D01*
X109139904Y-72807047D02*
X110439904Y-72807047D01*
X110439904Y-73302285D01*
X110378000Y-73426095D01*
X110316095Y-73488000D01*
X110192285Y-73549904D01*
X110006571Y-73549904D01*
X109882761Y-73488000D01*
X109820857Y-73426095D01*
X109758952Y-73302285D01*
X109758952Y-72807047D01*
X109820857Y-74107047D02*
X109820857Y-74540380D01*
X109139904Y-74726095D02*
X109139904Y-74107047D01*
X110439904Y-74107047D01*
X110439904Y-74726095D01*
X109201809Y-75221333D02*
X109139904Y-75407047D01*
X109139904Y-75716571D01*
X109201809Y-75840380D01*
X109263714Y-75902285D01*
X109387523Y-75964190D01*
X109511333Y-75964190D01*
X109635142Y-75902285D01*
X109697047Y-75840380D01*
X109758952Y-75716571D01*
X109820857Y-75468952D01*
X109882761Y-75345142D01*
X109944666Y-75283238D01*
X110068476Y-75221333D01*
X110192285Y-75221333D01*
X110316095Y-75283238D01*
X110378000Y-75345142D01*
X110439904Y-75468952D01*
X110439904Y-75778476D01*
X110378000Y-75964190D01*
X109820857Y-76521333D02*
X109820857Y-76954666D01*
X109139904Y-77140380D02*
X109139904Y-76521333D01*
X110439904Y-76521333D01*
X110439904Y-77140380D01*
X110439904Y-77511809D02*
X110439904Y-78254666D01*
X109139904Y-77883238D02*
X110439904Y-77883238D01*
G04 #@! TO.C,J14*
D14*
X161326285Y-133554428D02*
X161326285Y-134643000D01*
X161253714Y-134860714D01*
X161108571Y-135005857D01*
X160890857Y-135078428D01*
X160745714Y-135078428D01*
X162850285Y-135078428D02*
X161979428Y-135078428D01*
X162414857Y-135078428D02*
X162414857Y-133554428D01*
X162269714Y-133772142D01*
X162124571Y-133917285D01*
X161979428Y-133989857D01*
X164156571Y-134062428D02*
X164156571Y-135078428D01*
X163793714Y-133481857D02*
X163430857Y-134570428D01*
X164374285Y-134570428D01*
G04 #@! TO.C,J7*
X113538000Y-133347428D02*
X113538000Y-134436000D01*
X113465428Y-134653714D01*
X113320285Y-134798857D01*
X113102571Y-134871428D01*
X112957428Y-134871428D01*
X114118571Y-133347428D02*
X115134571Y-133347428D01*
X114481428Y-134871428D01*
G04 #@! TO.C,J8*
X118618000Y-133347428D02*
X118618000Y-134436000D01*
X118545428Y-134653714D01*
X118400285Y-134798857D01*
X118182571Y-134871428D01*
X118037428Y-134871428D01*
X119561428Y-134000571D02*
X119416285Y-133928000D01*
X119343714Y-133855428D01*
X119271142Y-133710285D01*
X119271142Y-133637714D01*
X119343714Y-133492571D01*
X119416285Y-133420000D01*
X119561428Y-133347428D01*
X119851714Y-133347428D01*
X119996857Y-133420000D01*
X120069428Y-133492571D01*
X120142000Y-133637714D01*
X120142000Y-133710285D01*
X120069428Y-133855428D01*
X119996857Y-133928000D01*
X119851714Y-134000571D01*
X119561428Y-134000571D01*
X119416285Y-134073142D01*
X119343714Y-134145714D01*
X119271142Y-134290857D01*
X119271142Y-134581142D01*
X119343714Y-134726285D01*
X119416285Y-134798857D01*
X119561428Y-134871428D01*
X119851714Y-134871428D01*
X119996857Y-134798857D01*
X120069428Y-134726285D01*
X120142000Y-134581142D01*
X120142000Y-134290857D01*
X120069428Y-134145714D01*
X119996857Y-134073142D01*
X119851714Y-134000571D01*
G04 #@! TO.C,J9*
X125730000Y-133347428D02*
X125730000Y-134436000D01*
X125657428Y-134653714D01*
X125512285Y-134798857D01*
X125294571Y-134871428D01*
X125149428Y-134871428D01*
X126528285Y-134871428D02*
X126818571Y-134871428D01*
X126963714Y-134798857D01*
X127036285Y-134726285D01*
X127181428Y-134508571D01*
X127254000Y-134218285D01*
X127254000Y-133637714D01*
X127181428Y-133492571D01*
X127108857Y-133420000D01*
X126963714Y-133347428D01*
X126673428Y-133347428D01*
X126528285Y-133420000D01*
X126455714Y-133492571D01*
X126383142Y-133637714D01*
X126383142Y-134000571D01*
X126455714Y-134145714D01*
X126528285Y-134218285D01*
X126673428Y-134290857D01*
X126963714Y-134290857D01*
X127108857Y-134218285D01*
X127181428Y-134145714D01*
X127254000Y-134000571D01*
G04 #@! TO.C,J10*
X130084285Y-133347428D02*
X130084285Y-134436000D01*
X130011714Y-134653714D01*
X129866571Y-134798857D01*
X129648857Y-134871428D01*
X129503714Y-134871428D01*
X131608285Y-134871428D02*
X130737428Y-134871428D01*
X131172857Y-134871428D02*
X131172857Y-133347428D01*
X131027714Y-133565142D01*
X130882571Y-133710285D01*
X130737428Y-133782857D01*
X132551714Y-133347428D02*
X132696857Y-133347428D01*
X132842000Y-133420000D01*
X132914571Y-133492571D01*
X132987142Y-133637714D01*
X133059714Y-133928000D01*
X133059714Y-134290857D01*
X132987142Y-134581142D01*
X132914571Y-134726285D01*
X132842000Y-134798857D01*
X132696857Y-134871428D01*
X132551714Y-134871428D01*
X132406571Y-134798857D01*
X132334000Y-134726285D01*
X132261428Y-134581142D01*
X132188857Y-134290857D01*
X132188857Y-133928000D01*
X132261428Y-133637714D01*
X132334000Y-133492571D01*
X132406571Y-133420000D01*
X132551714Y-133347428D01*
G04 #@! TO.C,J11*
X144054285Y-133554428D02*
X144054285Y-134643000D01*
X143981714Y-134860714D01*
X143836571Y-135005857D01*
X143618857Y-135078428D01*
X143473714Y-135078428D01*
X145578285Y-135078428D02*
X144707428Y-135078428D01*
X145142857Y-135078428D02*
X145142857Y-133554428D01*
X144997714Y-133772142D01*
X144852571Y-133917285D01*
X144707428Y-133989857D01*
X147029714Y-135078428D02*
X146158857Y-135078428D01*
X146594285Y-135078428D02*
X146594285Y-133554428D01*
X146449142Y-133772142D01*
X146304000Y-133917285D01*
X146158857Y-133989857D01*
G04 #@! TO.C,J12*
X149134285Y-133554428D02*
X149134285Y-134643000D01*
X149061714Y-134860714D01*
X148916571Y-135005857D01*
X148698857Y-135078428D01*
X148553714Y-135078428D01*
X150658285Y-135078428D02*
X149787428Y-135078428D01*
X150222857Y-135078428D02*
X150222857Y-133554428D01*
X150077714Y-133772142D01*
X149932571Y-133917285D01*
X149787428Y-133989857D01*
X151238857Y-133699571D02*
X151311428Y-133627000D01*
X151456571Y-133554428D01*
X151819428Y-133554428D01*
X151964571Y-133627000D01*
X152037142Y-133699571D01*
X152109714Y-133844714D01*
X152109714Y-133989857D01*
X152037142Y-134207571D01*
X151166285Y-135078428D01*
X152109714Y-135078428D01*
G04 #@! TO.C,J13*
X156246285Y-133554428D02*
X156246285Y-134643000D01*
X156173714Y-134860714D01*
X156028571Y-135005857D01*
X155810857Y-135078428D01*
X155665714Y-135078428D01*
X157770285Y-135078428D02*
X156899428Y-135078428D01*
X157334857Y-135078428D02*
X157334857Y-133554428D01*
X157189714Y-133772142D01*
X157044571Y-133917285D01*
X156899428Y-133989857D01*
X158278285Y-133554428D02*
X159221714Y-133554428D01*
X158713714Y-134135000D01*
X158931428Y-134135000D01*
X159076571Y-134207571D01*
X159149142Y-134280142D01*
X159221714Y-134425285D01*
X159221714Y-134788142D01*
X159149142Y-134933285D01*
X159076571Y-135005857D01*
X158931428Y-135078428D01*
X158496000Y-135078428D01*
X158350857Y-135005857D01*
X158278285Y-134933285D01*
G04 #@! TO.C,J16*
X180122285Y-133587428D02*
X180122285Y-134676000D01*
X180049714Y-134893714D01*
X179904571Y-135038857D01*
X179686857Y-135111428D01*
X179541714Y-135111428D01*
X181646285Y-135111428D02*
X180775428Y-135111428D01*
X181210857Y-135111428D02*
X181210857Y-133587428D01*
X181065714Y-133805142D01*
X180920571Y-133950285D01*
X180775428Y-134022857D01*
X182952571Y-133587428D02*
X182662285Y-133587428D01*
X182517142Y-133660000D01*
X182444571Y-133732571D01*
X182299428Y-133950285D01*
X182226857Y-134240571D01*
X182226857Y-134821142D01*
X182299428Y-134966285D01*
X182372000Y-135038857D01*
X182517142Y-135111428D01*
X182807428Y-135111428D01*
X182952571Y-135038857D01*
X183025142Y-134966285D01*
X183097714Y-134821142D01*
X183097714Y-134458285D01*
X183025142Y-134313142D01*
X182952571Y-134240571D01*
X182807428Y-134168000D01*
X182517142Y-134168000D01*
X182372000Y-134240571D01*
X182299428Y-134313142D01*
X182226857Y-134458285D01*
G04 #@! TO.C,J17*
X187234285Y-133587428D02*
X187234285Y-134676000D01*
X187161714Y-134893714D01*
X187016571Y-135038857D01*
X186798857Y-135111428D01*
X186653714Y-135111428D01*
X188758285Y-135111428D02*
X187887428Y-135111428D01*
X188322857Y-135111428D02*
X188322857Y-133587428D01*
X188177714Y-133805142D01*
X188032571Y-133950285D01*
X187887428Y-134022857D01*
X189266285Y-133587428D02*
X190282285Y-133587428D01*
X189629142Y-135111428D01*
G04 #@! TO.C,J18*
X192314285Y-133587428D02*
X192314285Y-134676000D01*
X192241714Y-134893714D01*
X192096571Y-135038857D01*
X191878857Y-135111428D01*
X191733714Y-135111428D01*
X193838285Y-135111428D02*
X192967428Y-135111428D01*
X193402857Y-135111428D02*
X193402857Y-133587428D01*
X193257714Y-133805142D01*
X193112571Y-133950285D01*
X192967428Y-134022857D01*
X194709142Y-134240571D02*
X194564000Y-134168000D01*
X194491428Y-134095428D01*
X194418857Y-133950285D01*
X194418857Y-133877714D01*
X194491428Y-133732571D01*
X194564000Y-133660000D01*
X194709142Y-133587428D01*
X194999428Y-133587428D01*
X195144571Y-133660000D01*
X195217142Y-133732571D01*
X195289714Y-133877714D01*
X195289714Y-133950285D01*
X195217142Y-134095428D01*
X195144571Y-134168000D01*
X194999428Y-134240571D01*
X194709142Y-134240571D01*
X194564000Y-134313142D01*
X194491428Y-134385714D01*
X194418857Y-134530857D01*
X194418857Y-134821142D01*
X194491428Y-134966285D01*
X194564000Y-135038857D01*
X194709142Y-135111428D01*
X194999428Y-135111428D01*
X195144571Y-135038857D01*
X195217142Y-134966285D01*
X195289714Y-134821142D01*
X195289714Y-134530857D01*
X195217142Y-134385714D01*
X195144571Y-134313142D01*
X194999428Y-134240571D01*
G04 #@! TO.C,J19*
X204843428Y-97245714D02*
X205932000Y-97245714D01*
X206149714Y-97318285D01*
X206294857Y-97463428D01*
X206367428Y-97681142D01*
X206367428Y-97826285D01*
X206367428Y-95721714D02*
X206367428Y-96592571D01*
X206367428Y-96157142D02*
X204843428Y-96157142D01*
X205061142Y-96302285D01*
X205206285Y-96447428D01*
X205278857Y-96592571D01*
X206367428Y-94996000D02*
X206367428Y-94705714D01*
X206294857Y-94560571D01*
X206222285Y-94488000D01*
X206004571Y-94342857D01*
X205714285Y-94270285D01*
X205133714Y-94270285D01*
X204988571Y-94342857D01*
X204916000Y-94415428D01*
X204843428Y-94560571D01*
X204843428Y-94850857D01*
X204916000Y-94996000D01*
X204988571Y-95068571D01*
X205133714Y-95141142D01*
X205496571Y-95141142D01*
X205641714Y-95068571D01*
X205714285Y-94996000D01*
X205786857Y-94850857D01*
X205786857Y-94560571D01*
X205714285Y-94415428D01*
X205641714Y-94342857D01*
X205496571Y-94270285D01*
G04 #@! TO.C,J21*
X204787428Y-85053714D02*
X205876000Y-85053714D01*
X206093714Y-85126285D01*
X206238857Y-85271428D01*
X206311428Y-85489142D01*
X206311428Y-85634285D01*
X204932571Y-84400571D02*
X204860000Y-84328000D01*
X204787428Y-84182857D01*
X204787428Y-83820000D01*
X204860000Y-83674857D01*
X204932571Y-83602285D01*
X205077714Y-83529714D01*
X205222857Y-83529714D01*
X205440571Y-83602285D01*
X206311428Y-84473142D01*
X206311428Y-83529714D01*
X206311428Y-82078285D02*
X206311428Y-82949142D01*
X206311428Y-82513714D02*
X204787428Y-82513714D01*
X205005142Y-82658857D01*
X205150285Y-82804000D01*
X205222857Y-82949142D01*
G04 #@! TO.C,J22*
X204787428Y-79973714D02*
X205876000Y-79973714D01*
X206093714Y-80046285D01*
X206238857Y-80191428D01*
X206311428Y-80409142D01*
X206311428Y-80554285D01*
X204932571Y-79320571D02*
X204860000Y-79248000D01*
X204787428Y-79102857D01*
X204787428Y-78740000D01*
X204860000Y-78594857D01*
X204932571Y-78522285D01*
X205077714Y-78449714D01*
X205222857Y-78449714D01*
X205440571Y-78522285D01*
X206311428Y-79393142D01*
X206311428Y-78449714D01*
X204932571Y-77869142D02*
X204860000Y-77796571D01*
X204787428Y-77651428D01*
X204787428Y-77288571D01*
X204860000Y-77143428D01*
X204932571Y-77070857D01*
X205077714Y-76998285D01*
X205222857Y-76998285D01*
X205440571Y-77070857D01*
X206311428Y-77941714D01*
X206311428Y-76998285D01*
G04 #@! TO.C,J15*
X175042285Y-133587428D02*
X175042285Y-134676000D01*
X174969714Y-134893714D01*
X174824571Y-135038857D01*
X174606857Y-135111428D01*
X174461714Y-135111428D01*
X176566285Y-135111428D02*
X175695428Y-135111428D01*
X176130857Y-135111428D02*
X176130857Y-133587428D01*
X175985714Y-133805142D01*
X175840571Y-133950285D01*
X175695428Y-134022857D01*
X177945142Y-133587428D02*
X177219428Y-133587428D01*
X177146857Y-134313142D01*
X177219428Y-134240571D01*
X177364571Y-134168000D01*
X177727428Y-134168000D01*
X177872571Y-134240571D01*
X177945142Y-134313142D01*
X178017714Y-134458285D01*
X178017714Y-134821142D01*
X177945142Y-134966285D01*
X177872571Y-135038857D01*
X177727428Y-135111428D01*
X177364571Y-135111428D01*
X177219428Y-135038857D01*
X177146857Y-134966285D01*
G04 #@! TO.C,J20*
X204843428Y-92165714D02*
X205932000Y-92165714D01*
X206149714Y-92238285D01*
X206294857Y-92383428D01*
X206367428Y-92601142D01*
X206367428Y-92746285D01*
X204988571Y-91512571D02*
X204916000Y-91440000D01*
X204843428Y-91294857D01*
X204843428Y-90932000D01*
X204916000Y-90786857D01*
X204988571Y-90714285D01*
X205133714Y-90641714D01*
X205278857Y-90641714D01*
X205496571Y-90714285D01*
X206367428Y-91585142D01*
X206367428Y-90641714D01*
X204843428Y-89698285D02*
X204843428Y-89553142D01*
X204916000Y-89408000D01*
X204988571Y-89335428D01*
X205133714Y-89262857D01*
X205424000Y-89190285D01*
X205786857Y-89190285D01*
X206077142Y-89262857D01*
X206222285Y-89335428D01*
X206294857Y-89408000D01*
X206367428Y-89553142D01*
X206367428Y-89698285D01*
X206294857Y-89843428D01*
X206222285Y-89916000D01*
X206077142Y-89988571D01*
X205786857Y-90061142D01*
X205424000Y-90061142D01*
X205133714Y-89988571D01*
X204988571Y-89916000D01*
X204916000Y-89843428D01*
X204843428Y-89698285D01*
G04 #@! TO.C,Q7*
D12*
X175631619Y-111347238D02*
X175584000Y-111442476D01*
X175488761Y-111537714D01*
X175345904Y-111680571D01*
X175298285Y-111775809D01*
X175298285Y-111871047D01*
X175536380Y-111823428D02*
X175488761Y-111918666D01*
X175393523Y-112013904D01*
X175203047Y-112061523D01*
X174869714Y-112061523D01*
X174679238Y-112013904D01*
X174584000Y-111918666D01*
X174536380Y-111823428D01*
X174536380Y-111632952D01*
X174584000Y-111537714D01*
X174679238Y-111442476D01*
X174869714Y-111394857D01*
X175203047Y-111394857D01*
X175393523Y-111442476D01*
X175488761Y-111537714D01*
X175536380Y-111632952D01*
X175536380Y-111823428D01*
X174536380Y-111061523D02*
X174536380Y-110394857D01*
X175536380Y-110823428D01*
G04 #@! TO.C,Q10*
X182308571Y-85311619D02*
X182213333Y-85264000D01*
X182118095Y-85168761D01*
X181975238Y-85025904D01*
X181880000Y-84978285D01*
X181784761Y-84978285D01*
X181832380Y-85216380D02*
X181737142Y-85168761D01*
X181641904Y-85073523D01*
X181594285Y-84883047D01*
X181594285Y-84549714D01*
X181641904Y-84359238D01*
X181737142Y-84264000D01*
X181832380Y-84216380D01*
X182022857Y-84216380D01*
X182118095Y-84264000D01*
X182213333Y-84359238D01*
X182260952Y-84549714D01*
X182260952Y-84883047D01*
X182213333Y-85073523D01*
X182118095Y-85168761D01*
X182022857Y-85216380D01*
X181832380Y-85216380D01*
X183213333Y-85216380D02*
X182641904Y-85216380D01*
X182927619Y-85216380D02*
X182927619Y-84216380D01*
X182832380Y-84359238D01*
X182737142Y-84454476D01*
X182641904Y-84502095D01*
X183832380Y-84216380D02*
X183927619Y-84216380D01*
X184022857Y-84264000D01*
X184070476Y-84311619D01*
X184118095Y-84406857D01*
X184165714Y-84597333D01*
X184165714Y-84835428D01*
X184118095Y-85025904D01*
X184070476Y-85121142D01*
X184022857Y-85168761D01*
X183927619Y-85216380D01*
X183832380Y-85216380D01*
X183737142Y-85168761D01*
X183689523Y-85121142D01*
X183641904Y-85025904D01*
X183594285Y-84835428D01*
X183594285Y-84597333D01*
X183641904Y-84406857D01*
X183689523Y-84311619D01*
X183737142Y-84264000D01*
X183832380Y-84216380D01*
G04 #@! TO.C,Q9*
X182701761Y-98012619D02*
X182606523Y-97965000D01*
X182511285Y-97869761D01*
X182368428Y-97726904D01*
X182273190Y-97679285D01*
X182177952Y-97679285D01*
X182225571Y-97917380D02*
X182130333Y-97869761D01*
X182035095Y-97774523D01*
X181987476Y-97584047D01*
X181987476Y-97250714D01*
X182035095Y-97060238D01*
X182130333Y-96965000D01*
X182225571Y-96917380D01*
X182416047Y-96917380D01*
X182511285Y-96965000D01*
X182606523Y-97060238D01*
X182654142Y-97250714D01*
X182654142Y-97584047D01*
X182606523Y-97774523D01*
X182511285Y-97869761D01*
X182416047Y-97917380D01*
X182225571Y-97917380D01*
X183130333Y-97917380D02*
X183320809Y-97917380D01*
X183416047Y-97869761D01*
X183463666Y-97822142D01*
X183558904Y-97679285D01*
X183606523Y-97488809D01*
X183606523Y-97107857D01*
X183558904Y-97012619D01*
X183511285Y-96965000D01*
X183416047Y-96917380D01*
X183225571Y-96917380D01*
X183130333Y-96965000D01*
X183082714Y-97012619D01*
X183035095Y-97107857D01*
X183035095Y-97345952D01*
X183082714Y-97441190D01*
X183130333Y-97488809D01*
X183225571Y-97536428D01*
X183416047Y-97536428D01*
X183511285Y-97488809D01*
X183558904Y-97441190D01*
X183606523Y-97345952D01*
G04 #@! TO.C,Q8*
X188071619Y-111415238D02*
X188024000Y-111510476D01*
X187928761Y-111605714D01*
X187785904Y-111748571D01*
X187738285Y-111843809D01*
X187738285Y-111939047D01*
X187976380Y-111891428D02*
X187928761Y-111986666D01*
X187833523Y-112081904D01*
X187643047Y-112129523D01*
X187309714Y-112129523D01*
X187119238Y-112081904D01*
X187024000Y-111986666D01*
X186976380Y-111891428D01*
X186976380Y-111700952D01*
X187024000Y-111605714D01*
X187119238Y-111510476D01*
X187309714Y-111462857D01*
X187643047Y-111462857D01*
X187833523Y-111510476D01*
X187928761Y-111605714D01*
X187976380Y-111700952D01*
X187976380Y-111891428D01*
X187404952Y-110891428D02*
X187357333Y-110986666D01*
X187309714Y-111034285D01*
X187214476Y-111081904D01*
X187166857Y-111081904D01*
X187071619Y-111034285D01*
X187024000Y-110986666D01*
X186976380Y-110891428D01*
X186976380Y-110700952D01*
X187024000Y-110605714D01*
X187071619Y-110558095D01*
X187166857Y-110510476D01*
X187214476Y-110510476D01*
X187309714Y-110558095D01*
X187357333Y-110605714D01*
X187404952Y-110700952D01*
X187404952Y-110891428D01*
X187452571Y-110986666D01*
X187500190Y-111034285D01*
X187595428Y-111081904D01*
X187785904Y-111081904D01*
X187881142Y-111034285D01*
X187928761Y-110986666D01*
X187976380Y-110891428D01*
X187976380Y-110700952D01*
X187928761Y-110605714D01*
X187881142Y-110558095D01*
X187785904Y-110510476D01*
X187595428Y-110510476D01*
X187500190Y-110558095D01*
X187452571Y-110605714D01*
X187404952Y-110700952D01*
G04 #@! TO.C,Q6*
X157337619Y-111542238D02*
X157290000Y-111637476D01*
X157194761Y-111732714D01*
X157051904Y-111875571D01*
X157004285Y-111970809D01*
X157004285Y-112066047D01*
X157242380Y-112018428D02*
X157194761Y-112113666D01*
X157099523Y-112208904D01*
X156909047Y-112256523D01*
X156575714Y-112256523D01*
X156385238Y-112208904D01*
X156290000Y-112113666D01*
X156242380Y-112018428D01*
X156242380Y-111827952D01*
X156290000Y-111732714D01*
X156385238Y-111637476D01*
X156575714Y-111589857D01*
X156909047Y-111589857D01*
X157099523Y-111637476D01*
X157194761Y-111732714D01*
X157242380Y-111827952D01*
X157242380Y-112018428D01*
X156242380Y-110732714D02*
X156242380Y-110923190D01*
X156290000Y-111018428D01*
X156337619Y-111066047D01*
X156480476Y-111161285D01*
X156670952Y-111208904D01*
X157051904Y-111208904D01*
X157147142Y-111161285D01*
X157194761Y-111113666D01*
X157242380Y-111018428D01*
X157242380Y-110827952D01*
X157194761Y-110732714D01*
X157147142Y-110685095D01*
X157051904Y-110637476D01*
X156813809Y-110637476D01*
X156718571Y-110685095D01*
X156670952Y-110732714D01*
X156623333Y-110827952D01*
X156623333Y-111018428D01*
X156670952Y-111113666D01*
X156718571Y-111161285D01*
X156813809Y-111208904D01*
G04 #@! TO.C,Q3*
X113396619Y-111264238D02*
X113349000Y-111359476D01*
X113253761Y-111454714D01*
X113110904Y-111597571D01*
X113063285Y-111692809D01*
X113063285Y-111788047D01*
X113301380Y-111740428D02*
X113253761Y-111835666D01*
X113158523Y-111930904D01*
X112968047Y-111978523D01*
X112634714Y-111978523D01*
X112444238Y-111930904D01*
X112349000Y-111835666D01*
X112301380Y-111740428D01*
X112301380Y-111549952D01*
X112349000Y-111454714D01*
X112444238Y-111359476D01*
X112634714Y-111311857D01*
X112968047Y-111311857D01*
X113158523Y-111359476D01*
X113253761Y-111454714D01*
X113301380Y-111549952D01*
X113301380Y-111740428D01*
X112301380Y-110978523D02*
X112301380Y-110359476D01*
X112682333Y-110692809D01*
X112682333Y-110549952D01*
X112729952Y-110454714D01*
X112777571Y-110407095D01*
X112872809Y-110359476D01*
X113110904Y-110359476D01*
X113206142Y-110407095D01*
X113253761Y-110454714D01*
X113301380Y-110549952D01*
X113301380Y-110835666D01*
X113253761Y-110930904D01*
X113206142Y-110978523D01*
G04 #@! TO.C,Q4*
X126095619Y-111347238D02*
X126048000Y-111442476D01*
X125952761Y-111537714D01*
X125809904Y-111680571D01*
X125762285Y-111775809D01*
X125762285Y-111871047D01*
X126000380Y-111823428D02*
X125952761Y-111918666D01*
X125857523Y-112013904D01*
X125667047Y-112061523D01*
X125333714Y-112061523D01*
X125143238Y-112013904D01*
X125048000Y-111918666D01*
X125000380Y-111823428D01*
X125000380Y-111632952D01*
X125048000Y-111537714D01*
X125143238Y-111442476D01*
X125333714Y-111394857D01*
X125667047Y-111394857D01*
X125857523Y-111442476D01*
X125952761Y-111537714D01*
X126000380Y-111632952D01*
X126000380Y-111823428D01*
X125333714Y-110537714D02*
X126000380Y-110537714D01*
X124952761Y-110775809D02*
X125667047Y-111013904D01*
X125667047Y-110394857D01*
G04 #@! TO.C,Q5*
X144636619Y-111391238D02*
X144589000Y-111486476D01*
X144493761Y-111581714D01*
X144350904Y-111724571D01*
X144303285Y-111819809D01*
X144303285Y-111915047D01*
X144541380Y-111867428D02*
X144493761Y-111962666D01*
X144398523Y-112057904D01*
X144208047Y-112105523D01*
X143874714Y-112105523D01*
X143684238Y-112057904D01*
X143589000Y-111962666D01*
X143541380Y-111867428D01*
X143541380Y-111676952D01*
X143589000Y-111581714D01*
X143684238Y-111486476D01*
X143874714Y-111438857D01*
X144208047Y-111438857D01*
X144398523Y-111486476D01*
X144493761Y-111581714D01*
X144541380Y-111676952D01*
X144541380Y-111867428D01*
X143541380Y-110534095D02*
X143541380Y-111010285D01*
X144017571Y-111057904D01*
X143969952Y-111010285D01*
X143922333Y-110915047D01*
X143922333Y-110676952D01*
X143969952Y-110581714D01*
X144017571Y-110534095D01*
X144112809Y-110486476D01*
X144350904Y-110486476D01*
X144446142Y-110534095D01*
X144493761Y-110581714D01*
X144541380Y-110676952D01*
X144541380Y-110915047D01*
X144493761Y-111010285D01*
X144446142Y-111057904D01*
G04 #@! TD*
M02*
