G04 #@! TF.GenerationSoftware,KiCad,Pcbnew,5.1.5-52549c5~84~ubuntu18.04.1*
G04 #@! TF.CreationDate,2020-01-09T22:54:15+01:00*
G04 #@! TF.ProjectId,E32CB_R2,45333243-425f-4523-922e-6b696361645f,rev?*
G04 #@! TF.SameCoordinates,Original*
G04 #@! TF.FileFunction,Legend,Top*
G04 #@! TF.FilePolarity,Positive*
%FSLAX46Y46*%
G04 Gerber Fmt 4.6, Leading zero omitted, Abs format (unit mm)*
G04 Created by KiCad (PCBNEW 5.1.5-52549c5~84~ubuntu18.04.1) date 2020-01-09 22:54:15*
%MOMM*%
%LPD*%
G04 APERTURE LIST*
%ADD10C,0.300000*%
%ADD11C,0.120000*%
%ADD12C,0.010000*%
%ADD13C,0.150000*%
%ADD14C,0.050000*%
%ADD15C,0.304800*%
G04 APERTURE END LIST*
D10*
X123969523Y-89364285D02*
X123907619Y-89426190D01*
X123721904Y-89488095D01*
X123598095Y-89488095D01*
X123412380Y-89426190D01*
X123288571Y-89302380D01*
X123226666Y-89178571D01*
X123164761Y-88930952D01*
X123164761Y-88745238D01*
X123226666Y-88497619D01*
X123288571Y-88373809D01*
X123412380Y-88250000D01*
X123598095Y-88188095D01*
X123721904Y-88188095D01*
X123907619Y-88250000D01*
X123969523Y-88311904D01*
X124712380Y-89488095D02*
X124588571Y-89426190D01*
X124526666Y-89364285D01*
X124464761Y-89240476D01*
X124464761Y-88869047D01*
X124526666Y-88745238D01*
X124588571Y-88683333D01*
X124712380Y-88621428D01*
X124898095Y-88621428D01*
X125021904Y-88683333D01*
X125083809Y-88745238D01*
X125145714Y-88869047D01*
X125145714Y-89240476D01*
X125083809Y-89364285D01*
X125021904Y-89426190D01*
X124898095Y-89488095D01*
X124712380Y-89488095D01*
X125702857Y-89488095D02*
X125702857Y-88621428D01*
X125702857Y-88745238D02*
X125764761Y-88683333D01*
X125888571Y-88621428D01*
X126074285Y-88621428D01*
X126198095Y-88683333D01*
X126260000Y-88807142D01*
X126260000Y-89488095D01*
X126260000Y-88807142D02*
X126321904Y-88683333D01*
X126445714Y-88621428D01*
X126631428Y-88621428D01*
X126755238Y-88683333D01*
X126817142Y-88807142D01*
X126817142Y-89488095D01*
X127436190Y-88621428D02*
X127436190Y-89921428D01*
X127436190Y-88683333D02*
X127560000Y-88621428D01*
X127807619Y-88621428D01*
X127931428Y-88683333D01*
X127993333Y-88745238D01*
X128055238Y-88869047D01*
X128055238Y-89240476D01*
X127993333Y-89364285D01*
X127931428Y-89426190D01*
X127807619Y-89488095D01*
X127560000Y-89488095D01*
X127436190Y-89426190D01*
X129169523Y-89488095D02*
X129169523Y-88807142D01*
X129107619Y-88683333D01*
X128983809Y-88621428D01*
X128736190Y-88621428D01*
X128612380Y-88683333D01*
X129169523Y-89426190D02*
X129045714Y-89488095D01*
X128736190Y-89488095D01*
X128612380Y-89426190D01*
X128550476Y-89302380D01*
X128550476Y-89178571D01*
X128612380Y-89054761D01*
X128736190Y-88992857D01*
X129045714Y-88992857D01*
X129169523Y-88930952D01*
X129602857Y-88621428D02*
X130098095Y-88621428D01*
X129788571Y-88188095D02*
X129788571Y-89302380D01*
X129850476Y-89426190D01*
X129974285Y-89488095D01*
X130098095Y-89488095D01*
X130531428Y-89488095D02*
X130531428Y-88621428D01*
X130531428Y-88188095D02*
X130469523Y-88250000D01*
X130531428Y-88311904D01*
X130593333Y-88250000D01*
X130531428Y-88188095D01*
X130531428Y-88311904D01*
X131150476Y-89488095D02*
X131150476Y-88188095D01*
X131150476Y-88683333D02*
X131274285Y-88621428D01*
X131521904Y-88621428D01*
X131645714Y-88683333D01*
X131707619Y-88745238D01*
X131769523Y-88869047D01*
X131769523Y-89240476D01*
X131707619Y-89364285D01*
X131645714Y-89426190D01*
X131521904Y-89488095D01*
X131274285Y-89488095D01*
X131150476Y-89426190D01*
X132512380Y-89488095D02*
X132388571Y-89426190D01*
X132326666Y-89302380D01*
X132326666Y-88188095D01*
X133502857Y-89426190D02*
X133379047Y-89488095D01*
X133131428Y-89488095D01*
X133007619Y-89426190D01*
X132945714Y-89302380D01*
X132945714Y-88807142D01*
X133007619Y-88683333D01*
X133131428Y-88621428D01*
X133379047Y-88621428D01*
X133502857Y-88683333D01*
X133564761Y-88807142D01*
X133564761Y-88930952D01*
X132945714Y-89054761D01*
X134988571Y-88621428D02*
X135236190Y-89488095D01*
X135483809Y-88869047D01*
X135731428Y-89488095D01*
X135979047Y-88621428D01*
X136474285Y-89488095D02*
X136474285Y-88621428D01*
X136474285Y-88188095D02*
X136412380Y-88250000D01*
X136474285Y-88311904D01*
X136536190Y-88250000D01*
X136474285Y-88188095D01*
X136474285Y-88311904D01*
X136907619Y-88621428D02*
X137402857Y-88621428D01*
X137093333Y-88188095D02*
X137093333Y-89302380D01*
X137155238Y-89426190D01*
X137279047Y-89488095D01*
X137402857Y-89488095D01*
X137836190Y-89488095D02*
X137836190Y-88188095D01*
X138393333Y-89488095D02*
X138393333Y-88807142D01*
X138331428Y-88683333D01*
X138207619Y-88621428D01*
X138021904Y-88621428D01*
X137898095Y-88683333D01*
X137836190Y-88745238D01*
X92151904Y-105447619D02*
X90851904Y-105880952D01*
X92151904Y-106314285D01*
X90851904Y-106747619D02*
X91718571Y-106747619D01*
X92151904Y-106747619D02*
X92090000Y-106685714D01*
X92028095Y-106747619D01*
X92090000Y-106809523D01*
X92151904Y-106747619D01*
X92028095Y-106747619D01*
X90851904Y-107552380D02*
X90913809Y-107428571D01*
X91037619Y-107366666D01*
X92151904Y-107366666D01*
X90913809Y-108542857D02*
X90851904Y-108419047D01*
X90851904Y-108171428D01*
X90913809Y-108047619D01*
X91037619Y-107985714D01*
X91532857Y-107985714D01*
X91656666Y-108047619D01*
X91718571Y-108171428D01*
X91718571Y-108419047D01*
X91656666Y-108542857D01*
X91532857Y-108604761D01*
X91409047Y-108604761D01*
X91285238Y-107985714D01*
X92213809Y-108419047D02*
X92028095Y-108233333D01*
X90851904Y-109161904D02*
X91718571Y-109161904D01*
X91594761Y-109161904D02*
X91656666Y-109223809D01*
X91718571Y-109347619D01*
X91718571Y-109533333D01*
X91656666Y-109657142D01*
X91532857Y-109719047D01*
X90851904Y-109719047D01*
X91532857Y-109719047D02*
X91656666Y-109780952D01*
X91718571Y-109904761D01*
X91718571Y-110090476D01*
X91656666Y-110214285D01*
X91532857Y-110276190D01*
X90851904Y-110276190D01*
X90851904Y-112628571D02*
X91470952Y-112195238D01*
X90851904Y-111885714D02*
X92151904Y-111885714D01*
X92151904Y-112380952D01*
X92090000Y-112504761D01*
X92028095Y-112566666D01*
X91904285Y-112628571D01*
X91718571Y-112628571D01*
X91594761Y-112566666D01*
X91532857Y-112504761D01*
X91470952Y-112380952D01*
X91470952Y-111885714D01*
X90851904Y-113742857D02*
X91532857Y-113742857D01*
X91656666Y-113680952D01*
X91718571Y-113557142D01*
X91718571Y-113309523D01*
X91656666Y-113185714D01*
X90913809Y-113742857D02*
X90851904Y-113619047D01*
X90851904Y-113309523D01*
X90913809Y-113185714D01*
X91037619Y-113123809D01*
X91161428Y-113123809D01*
X91285238Y-113185714D01*
X91347142Y-113309523D01*
X91347142Y-113619047D01*
X91409047Y-113742857D01*
X90913809Y-114300000D02*
X90851904Y-114423809D01*
X90851904Y-114671428D01*
X90913809Y-114795238D01*
X91037619Y-114857142D01*
X91099523Y-114857142D01*
X91223333Y-114795238D01*
X91285238Y-114671428D01*
X91285238Y-114485714D01*
X91347142Y-114361904D01*
X91470952Y-114300000D01*
X91532857Y-114300000D01*
X91656666Y-114361904D01*
X91718571Y-114485714D01*
X91718571Y-114671428D01*
X91656666Y-114795238D01*
X92213809Y-114300000D02*
X92028095Y-114547619D01*
X92213809Y-114795238D01*
X90851904Y-115414285D02*
X92151904Y-115414285D01*
X91347142Y-115538095D02*
X90851904Y-115909523D01*
X91718571Y-115909523D02*
X91223333Y-115414285D01*
X90851904Y-117023809D02*
X91532857Y-117023809D01*
X91656666Y-116961904D01*
X91718571Y-116838095D01*
X91718571Y-116590476D01*
X91656666Y-116466666D01*
X90913809Y-117023809D02*
X90851904Y-116900000D01*
X90851904Y-116590476D01*
X90913809Y-116466666D01*
X91037619Y-116404761D01*
X91161428Y-116404761D01*
X91285238Y-116466666D01*
X91347142Y-116590476D01*
X91347142Y-116900000D01*
X91409047Y-117023809D01*
X92028095Y-118571428D02*
X92090000Y-118633333D01*
X92151904Y-118757142D01*
X92151904Y-119066666D01*
X92090000Y-119190476D01*
X92028095Y-119252380D01*
X91904285Y-119314285D01*
X91780476Y-119314285D01*
X91594761Y-119252380D01*
X90851904Y-118509523D01*
X90851904Y-119314285D01*
X92151904Y-120119047D02*
X92151904Y-120242857D01*
X92090000Y-120366666D01*
X92028095Y-120428571D01*
X91904285Y-120490476D01*
X91656666Y-120552380D01*
X91347142Y-120552380D01*
X91099523Y-120490476D01*
X90975714Y-120428571D01*
X90913809Y-120366666D01*
X90851904Y-120242857D01*
X90851904Y-120119047D01*
X90913809Y-119995238D01*
X90975714Y-119933333D01*
X91099523Y-119871428D01*
X91347142Y-119809523D01*
X91656666Y-119809523D01*
X91904285Y-119871428D01*
X92028095Y-119933333D01*
X92090000Y-119995238D01*
X92151904Y-120119047D01*
X92028095Y-121047619D02*
X92090000Y-121109523D01*
X92151904Y-121233333D01*
X92151904Y-121542857D01*
X92090000Y-121666666D01*
X92028095Y-121728571D01*
X91904285Y-121790476D01*
X91780476Y-121790476D01*
X91594761Y-121728571D01*
X90851904Y-120985714D01*
X90851904Y-121790476D01*
X92151904Y-122595238D02*
X92151904Y-122719047D01*
X92090000Y-122842857D01*
X92028095Y-122904761D01*
X91904285Y-122966666D01*
X91656666Y-123028571D01*
X91347142Y-123028571D01*
X91099523Y-122966666D01*
X90975714Y-122904761D01*
X90913809Y-122842857D01*
X90851904Y-122719047D01*
X90851904Y-122595238D01*
X90913809Y-122471428D01*
X90975714Y-122409523D01*
X91099523Y-122347619D01*
X91347142Y-122285714D01*
X91656666Y-122285714D01*
X91904285Y-122347619D01*
X92028095Y-122409523D01*
X92090000Y-122471428D01*
X92151904Y-122595238D01*
D11*
X95250000Y-114300000D02*
X95250000Y-101600000D01*
X199390000Y-114300000D02*
X95250000Y-114300000D01*
X199390000Y-101600000D02*
X199390000Y-114300000D01*
X95250000Y-101600000D02*
X199390000Y-101600000D01*
D10*
X106474285Y-50692857D02*
X106974285Y-50692857D01*
X107188571Y-51478571D02*
X106474285Y-51478571D01*
X106474285Y-49978571D01*
X107188571Y-49978571D01*
X107688571Y-49978571D02*
X108617142Y-49978571D01*
X108117142Y-50550000D01*
X108331428Y-50550000D01*
X108474285Y-50621428D01*
X108545714Y-50692857D01*
X108617142Y-50835714D01*
X108617142Y-51192857D01*
X108545714Y-51335714D01*
X108474285Y-51407142D01*
X108331428Y-51478571D01*
X107902857Y-51478571D01*
X107760000Y-51407142D01*
X107688571Y-51335714D01*
X109188571Y-50121428D02*
X109260000Y-50050000D01*
X109402857Y-49978571D01*
X109760000Y-49978571D01*
X109902857Y-50050000D01*
X109974285Y-50121428D01*
X110045714Y-50264285D01*
X110045714Y-50407142D01*
X109974285Y-50621428D01*
X109117142Y-51478571D01*
X110045714Y-51478571D01*
X111545714Y-51335714D02*
X111474285Y-51407142D01*
X111260000Y-51478571D01*
X111117142Y-51478571D01*
X110902857Y-51407142D01*
X110760000Y-51264285D01*
X110688571Y-51121428D01*
X110617142Y-50835714D01*
X110617142Y-50621428D01*
X110688571Y-50335714D01*
X110760000Y-50192857D01*
X110902857Y-50050000D01*
X111117142Y-49978571D01*
X111260000Y-49978571D01*
X111474285Y-50050000D01*
X111545714Y-50121428D01*
X112688571Y-50692857D02*
X112902857Y-50764285D01*
X112974285Y-50835714D01*
X113045714Y-50978571D01*
X113045714Y-51192857D01*
X112974285Y-51335714D01*
X112902857Y-51407142D01*
X112760000Y-51478571D01*
X112188571Y-51478571D01*
X112188571Y-49978571D01*
X112688571Y-49978571D01*
X112831428Y-50050000D01*
X112902857Y-50121428D01*
X112974285Y-50264285D01*
X112974285Y-50407142D01*
X112902857Y-50550000D01*
X112831428Y-50621428D01*
X112688571Y-50692857D01*
X112188571Y-50692857D01*
X113331428Y-51621428D02*
X114474285Y-51621428D01*
X115688571Y-51478571D02*
X115188571Y-50764285D01*
X114831428Y-51478571D02*
X114831428Y-49978571D01*
X115402857Y-49978571D01*
X115545714Y-50050000D01*
X115617142Y-50121428D01*
X115688571Y-50264285D01*
X115688571Y-50478571D01*
X115617142Y-50621428D01*
X115545714Y-50692857D01*
X115402857Y-50764285D01*
X114831428Y-50764285D01*
X116260000Y-50121428D02*
X116331428Y-50050000D01*
X116474285Y-49978571D01*
X116831428Y-49978571D01*
X116974285Y-50050000D01*
X117045714Y-50121428D01*
X117117142Y-50264285D01*
X117117142Y-50407142D01*
X117045714Y-50621428D01*
X116188571Y-51478571D01*
X117117142Y-51478571D01*
X145465714Y-56468095D02*
X145465714Y-55168095D01*
X145960952Y-55168095D01*
X146084761Y-55230000D01*
X146146666Y-55291904D01*
X146208571Y-55415714D01*
X146208571Y-55601428D01*
X146146666Y-55725238D01*
X146084761Y-55787142D01*
X145960952Y-55849047D01*
X145465714Y-55849047D01*
X146951428Y-56468095D02*
X146827619Y-56406190D01*
X146765714Y-56344285D01*
X146703809Y-56220476D01*
X146703809Y-55849047D01*
X146765714Y-55725238D01*
X146827619Y-55663333D01*
X146951428Y-55601428D01*
X147137142Y-55601428D01*
X147260952Y-55663333D01*
X147322857Y-55725238D01*
X147384761Y-55849047D01*
X147384761Y-56220476D01*
X147322857Y-56344285D01*
X147260952Y-56406190D01*
X147137142Y-56468095D01*
X146951428Y-56468095D01*
X147818095Y-55601428D02*
X148065714Y-56468095D01*
X148313333Y-55849047D01*
X148560952Y-56468095D01*
X148808571Y-55601428D01*
X149799047Y-56406190D02*
X149675238Y-56468095D01*
X149427619Y-56468095D01*
X149303809Y-56406190D01*
X149241904Y-56282380D01*
X149241904Y-55787142D01*
X149303809Y-55663333D01*
X149427619Y-55601428D01*
X149675238Y-55601428D01*
X149799047Y-55663333D01*
X149860952Y-55787142D01*
X149860952Y-55910952D01*
X149241904Y-56034761D01*
X150418095Y-56468095D02*
X150418095Y-55601428D01*
X150418095Y-55849047D02*
X150480000Y-55725238D01*
X150541904Y-55663333D01*
X150665714Y-55601428D01*
X150789523Y-55601428D01*
X152213333Y-55972857D02*
X153203809Y-55972857D01*
X152708571Y-56468095D02*
X152708571Y-55477619D01*
X154503809Y-56468095D02*
X153760952Y-56468095D01*
X154132380Y-56468095D02*
X154132380Y-55168095D01*
X154008571Y-55353809D01*
X153884761Y-55477619D01*
X153760952Y-55539523D01*
X154999047Y-55291904D02*
X155060952Y-55230000D01*
X155184761Y-55168095D01*
X155494285Y-55168095D01*
X155618095Y-55230000D01*
X155680000Y-55291904D01*
X155741904Y-55415714D01*
X155741904Y-55539523D01*
X155680000Y-55725238D01*
X154937142Y-56468095D01*
X155741904Y-56468095D01*
X156113333Y-55168095D02*
X156546666Y-56468095D01*
X156980000Y-55168095D01*
X196541428Y-84346190D02*
X196727142Y-84408095D01*
X197036666Y-84408095D01*
X197160476Y-84346190D01*
X197222380Y-84284285D01*
X197284285Y-84160476D01*
X197284285Y-84036666D01*
X197222380Y-83912857D01*
X197160476Y-83850952D01*
X197036666Y-83789047D01*
X196789047Y-83727142D01*
X196665238Y-83665238D01*
X196603333Y-83603333D01*
X196541428Y-83479523D01*
X196541428Y-83355714D01*
X196603333Y-83231904D01*
X196665238Y-83170000D01*
X196789047Y-83108095D01*
X197098571Y-83108095D01*
X197284285Y-83170000D01*
X197841428Y-84408095D02*
X197841428Y-83108095D01*
X198150952Y-83108095D01*
X198336666Y-83170000D01*
X198460476Y-83293809D01*
X198522380Y-83417619D01*
X198584285Y-83665238D01*
X198584285Y-83850952D01*
X198522380Y-84098571D01*
X198460476Y-84222380D01*
X198336666Y-84346190D01*
X198150952Y-84408095D01*
X197841428Y-84408095D01*
X199079523Y-84036666D02*
X199698571Y-84036666D01*
X198955714Y-84408095D02*
X199389047Y-83108095D01*
X199822380Y-84408095D01*
X196572380Y-79266190D02*
X196758095Y-79328095D01*
X197067619Y-79328095D01*
X197191428Y-79266190D01*
X197253333Y-79204285D01*
X197315238Y-79080476D01*
X197315238Y-78956666D01*
X197253333Y-78832857D01*
X197191428Y-78770952D01*
X197067619Y-78709047D01*
X196820000Y-78647142D01*
X196696190Y-78585238D01*
X196634285Y-78523333D01*
X196572380Y-78399523D01*
X196572380Y-78275714D01*
X196634285Y-78151904D01*
X196696190Y-78090000D01*
X196820000Y-78028095D01*
X197129523Y-78028095D01*
X197315238Y-78090000D01*
X198615238Y-79204285D02*
X198553333Y-79266190D01*
X198367619Y-79328095D01*
X198243809Y-79328095D01*
X198058095Y-79266190D01*
X197934285Y-79142380D01*
X197872380Y-79018571D01*
X197810476Y-78770952D01*
X197810476Y-78585238D01*
X197872380Y-78337619D01*
X197934285Y-78213809D01*
X198058095Y-78090000D01*
X198243809Y-78028095D01*
X198367619Y-78028095D01*
X198553333Y-78090000D01*
X198615238Y-78151904D01*
X199791428Y-79328095D02*
X199172380Y-79328095D01*
X199172380Y-78028095D01*
X199019523Y-95808095D02*
X199762380Y-95808095D01*
X199390952Y-97108095D02*
X199390952Y-95808095D01*
X200071904Y-95808095D02*
X200938571Y-97108095D01*
X200938571Y-95808095D02*
X200071904Y-97108095D01*
X201433809Y-97108095D02*
X201433809Y-95808095D01*
X201743333Y-95808095D01*
X201929047Y-95870000D01*
X202052857Y-95993809D01*
X202114761Y-96117619D01*
X202176666Y-96365238D01*
X202176666Y-96550952D01*
X202114761Y-96798571D01*
X202052857Y-96922380D01*
X201929047Y-97046190D01*
X201743333Y-97108095D01*
X201433809Y-97108095D01*
X199793333Y-94568095D02*
X199360000Y-93949047D01*
X199050476Y-94568095D02*
X199050476Y-93268095D01*
X199545714Y-93268095D01*
X199669523Y-93330000D01*
X199731428Y-93391904D01*
X199793333Y-93515714D01*
X199793333Y-93701428D01*
X199731428Y-93825238D01*
X199669523Y-93887142D01*
X199545714Y-93949047D01*
X199050476Y-93949047D01*
X200226666Y-93268095D02*
X201093333Y-94568095D01*
X201093333Y-93268095D02*
X200226666Y-94568095D01*
X201588571Y-94568095D02*
X201588571Y-93268095D01*
X201898095Y-93268095D01*
X202083809Y-93330000D01*
X202207619Y-93453809D01*
X202269523Y-93577619D01*
X202331428Y-93825238D01*
X202331428Y-94010952D01*
X202269523Y-94258571D01*
X202207619Y-94382380D01*
X202083809Y-94506190D01*
X201898095Y-94568095D01*
X201588571Y-94568095D01*
X201047380Y-90728095D02*
X200428333Y-90728095D01*
X200366428Y-91347142D01*
X200428333Y-91285238D01*
X200552142Y-91223333D01*
X200861666Y-91223333D01*
X200985476Y-91285238D01*
X201047380Y-91347142D01*
X201109285Y-91470952D01*
X201109285Y-91780476D01*
X201047380Y-91904285D01*
X200985476Y-91966190D01*
X200861666Y-92028095D01*
X200552142Y-92028095D01*
X200428333Y-91966190D01*
X200366428Y-91904285D01*
X201480714Y-90728095D02*
X201914047Y-92028095D01*
X202347380Y-90728095D01*
X196510476Y-80568095D02*
X197315238Y-80568095D01*
X196881904Y-81063333D01*
X197067619Y-81063333D01*
X197191428Y-81125238D01*
X197253333Y-81187142D01*
X197315238Y-81310952D01*
X197315238Y-81620476D01*
X197253333Y-81744285D01*
X197191428Y-81806190D01*
X197067619Y-81868095D01*
X196696190Y-81868095D01*
X196572380Y-81806190D01*
X196510476Y-81744285D01*
X197686666Y-80568095D02*
X198120000Y-81868095D01*
X198553333Y-80568095D01*
X198862857Y-80568095D02*
X199667619Y-80568095D01*
X199234285Y-81063333D01*
X199420000Y-81063333D01*
X199543809Y-81125238D01*
X199605714Y-81187142D01*
X199667619Y-81310952D01*
X199667619Y-81620476D01*
X199605714Y-81744285D01*
X199543809Y-81806190D01*
X199420000Y-81868095D01*
X199048571Y-81868095D01*
X198924761Y-81806190D01*
X198862857Y-81744285D01*
X199669523Y-98410000D02*
X199545714Y-98348095D01*
X199360000Y-98348095D01*
X199174285Y-98410000D01*
X199050476Y-98533809D01*
X198988571Y-98657619D01*
X198926666Y-98905238D01*
X198926666Y-99090952D01*
X198988571Y-99338571D01*
X199050476Y-99462380D01*
X199174285Y-99586190D01*
X199360000Y-99648095D01*
X199483809Y-99648095D01*
X199669523Y-99586190D01*
X199731428Y-99524285D01*
X199731428Y-99090952D01*
X199483809Y-99090952D01*
X200288571Y-99648095D02*
X200288571Y-98348095D01*
X201031428Y-99648095D01*
X201031428Y-98348095D01*
X201650476Y-99648095D02*
X201650476Y-98348095D01*
X201960000Y-98348095D01*
X202145714Y-98410000D01*
X202269523Y-98533809D01*
X202331428Y-98657619D01*
X202393333Y-98905238D01*
X202393333Y-99090952D01*
X202331428Y-99338571D01*
X202269523Y-99462380D01*
X202145714Y-99586190D01*
X201960000Y-99648095D01*
X201650476Y-99648095D01*
X197129523Y-85710000D02*
X197005714Y-85648095D01*
X196820000Y-85648095D01*
X196634285Y-85710000D01*
X196510476Y-85833809D01*
X196448571Y-85957619D01*
X196386666Y-86205238D01*
X196386666Y-86390952D01*
X196448571Y-86638571D01*
X196510476Y-86762380D01*
X196634285Y-86886190D01*
X196820000Y-86948095D01*
X196943809Y-86948095D01*
X197129523Y-86886190D01*
X197191428Y-86824285D01*
X197191428Y-86390952D01*
X196943809Y-86390952D01*
X197748571Y-86948095D02*
X197748571Y-85648095D01*
X198491428Y-86948095D01*
X198491428Y-85648095D01*
X199110476Y-86948095D02*
X199110476Y-85648095D01*
X199420000Y-85648095D01*
X199605714Y-85710000D01*
X199729523Y-85833809D01*
X199791428Y-85957619D01*
X199853333Y-86205238D01*
X199853333Y-86390952D01*
X199791428Y-86638571D01*
X199729523Y-86762380D01*
X199605714Y-86886190D01*
X199420000Y-86948095D01*
X199110476Y-86948095D01*
X197129523Y-75550000D02*
X197005714Y-75488095D01*
X196820000Y-75488095D01*
X196634285Y-75550000D01*
X196510476Y-75673809D01*
X196448571Y-75797619D01*
X196386666Y-76045238D01*
X196386666Y-76230952D01*
X196448571Y-76478571D01*
X196510476Y-76602380D01*
X196634285Y-76726190D01*
X196820000Y-76788095D01*
X196943809Y-76788095D01*
X197129523Y-76726190D01*
X197191428Y-76664285D01*
X197191428Y-76230952D01*
X196943809Y-76230952D01*
X197748571Y-76788095D02*
X197748571Y-75488095D01*
X198491428Y-76788095D01*
X198491428Y-75488095D01*
X199110476Y-76788095D02*
X199110476Y-75488095D01*
X199420000Y-75488095D01*
X199605714Y-75550000D01*
X199729523Y-75673809D01*
X199791428Y-75797619D01*
X199853333Y-76045238D01*
X199853333Y-76230952D01*
X199791428Y-76478571D01*
X199729523Y-76602380D01*
X199605714Y-76726190D01*
X199420000Y-76788095D01*
X199110476Y-76788095D01*
X197129523Y-70470000D02*
X197005714Y-70408095D01*
X196820000Y-70408095D01*
X196634285Y-70470000D01*
X196510476Y-70593809D01*
X196448571Y-70717619D01*
X196386666Y-70965238D01*
X196386666Y-71150952D01*
X196448571Y-71398571D01*
X196510476Y-71522380D01*
X196634285Y-71646190D01*
X196820000Y-71708095D01*
X196943809Y-71708095D01*
X197129523Y-71646190D01*
X197191428Y-71584285D01*
X197191428Y-71150952D01*
X196943809Y-71150952D01*
X197748571Y-71708095D02*
X197748571Y-70408095D01*
X198491428Y-71708095D01*
X198491428Y-70408095D01*
X199110476Y-71708095D02*
X199110476Y-70408095D01*
X199420000Y-70408095D01*
X199605714Y-70470000D01*
X199729523Y-70593809D01*
X199791428Y-70717619D01*
X199853333Y-70965238D01*
X199853333Y-71150952D01*
X199791428Y-71398571D01*
X199729523Y-71522380D01*
X199605714Y-71646190D01*
X199420000Y-71708095D01*
X199110476Y-71708095D01*
X197129523Y-60310000D02*
X197005714Y-60248095D01*
X196820000Y-60248095D01*
X196634285Y-60310000D01*
X196510476Y-60433809D01*
X196448571Y-60557619D01*
X196386666Y-60805238D01*
X196386666Y-60990952D01*
X196448571Y-61238571D01*
X196510476Y-61362380D01*
X196634285Y-61486190D01*
X196820000Y-61548095D01*
X196943809Y-61548095D01*
X197129523Y-61486190D01*
X197191428Y-61424285D01*
X197191428Y-60990952D01*
X196943809Y-60990952D01*
X197748571Y-61548095D02*
X197748571Y-60248095D01*
X198491428Y-61548095D01*
X198491428Y-60248095D01*
X199110476Y-61548095D02*
X199110476Y-60248095D01*
X199420000Y-60248095D01*
X199605714Y-60310000D01*
X199729523Y-60433809D01*
X199791428Y-60557619D01*
X199853333Y-60805238D01*
X199853333Y-60990952D01*
X199791428Y-61238571D01*
X199729523Y-61362380D01*
X199605714Y-61486190D01*
X199420000Y-61548095D01*
X199110476Y-61548095D01*
X197098571Y-69168095D02*
X197098571Y-67868095D01*
X197408095Y-67868095D01*
X197593809Y-67930000D01*
X197717619Y-68053809D01*
X197779523Y-68177619D01*
X197841428Y-68425238D01*
X197841428Y-68610952D01*
X197779523Y-68858571D01*
X197717619Y-68982380D01*
X197593809Y-69106190D01*
X197408095Y-69168095D01*
X197098571Y-69168095D01*
X199265238Y-69291904D02*
X199141428Y-69230000D01*
X199017619Y-69106190D01*
X198831904Y-68920476D01*
X198708095Y-68858571D01*
X198584285Y-68858571D01*
X198646190Y-69168095D02*
X198522380Y-69106190D01*
X198398571Y-68982380D01*
X198336666Y-68734761D01*
X198336666Y-68301428D01*
X198398571Y-68053809D01*
X198522380Y-67930000D01*
X198646190Y-67868095D01*
X198893809Y-67868095D01*
X199017619Y-67930000D01*
X199141428Y-68053809D01*
X199203333Y-68301428D01*
X199203333Y-68734761D01*
X199141428Y-68982380D01*
X199017619Y-69106190D01*
X198893809Y-69168095D01*
X198646190Y-69168095D01*
X197098571Y-64088095D02*
X197098571Y-62788095D01*
X197408095Y-62788095D01*
X197593809Y-62850000D01*
X197717619Y-62973809D01*
X197779523Y-63097619D01*
X197841428Y-63345238D01*
X197841428Y-63530952D01*
X197779523Y-63778571D01*
X197717619Y-63902380D01*
X197593809Y-64026190D01*
X197408095Y-64088095D01*
X197098571Y-64088095D01*
X199265238Y-64211904D02*
X199141428Y-64150000D01*
X199017619Y-64026190D01*
X198831904Y-63840476D01*
X198708095Y-63778571D01*
X198584285Y-63778571D01*
X198646190Y-64088095D02*
X198522380Y-64026190D01*
X198398571Y-63902380D01*
X198336666Y-63654761D01*
X198336666Y-63221428D01*
X198398571Y-62973809D01*
X198522380Y-62850000D01*
X198646190Y-62788095D01*
X198893809Y-62788095D01*
X199017619Y-62850000D01*
X199141428Y-62973809D01*
X199203333Y-63221428D01*
X199203333Y-63654761D01*
X199141428Y-63902380D01*
X199017619Y-64026190D01*
X198893809Y-64088095D01*
X198646190Y-64088095D01*
X196510476Y-65328095D02*
X197315238Y-65328095D01*
X196881904Y-65823333D01*
X197067619Y-65823333D01*
X197191428Y-65885238D01*
X197253333Y-65947142D01*
X197315238Y-66070952D01*
X197315238Y-66380476D01*
X197253333Y-66504285D01*
X197191428Y-66566190D01*
X197067619Y-66628095D01*
X196696190Y-66628095D01*
X196572380Y-66566190D01*
X196510476Y-66504285D01*
X197686666Y-65328095D02*
X198120000Y-66628095D01*
X198553333Y-65328095D01*
X198862857Y-65328095D02*
X199667619Y-65328095D01*
X199234285Y-65823333D01*
X199420000Y-65823333D01*
X199543809Y-65885238D01*
X199605714Y-65947142D01*
X199667619Y-66070952D01*
X199667619Y-66380476D01*
X199605714Y-66504285D01*
X199543809Y-66566190D01*
X199420000Y-66628095D01*
X199048571Y-66628095D01*
X198924761Y-66566190D01*
X198862857Y-66504285D01*
D12*
G36*
X132084764Y-92781286D02*
G01*
X132134485Y-92788616D01*
X132199378Y-92806150D01*
X132255249Y-92829564D01*
X132303648Y-92860126D01*
X132346127Y-92899105D01*
X132384235Y-92947768D01*
X132419523Y-93007385D01*
X132431889Y-93031885D01*
X132452538Y-93074362D01*
X132478324Y-93036643D01*
X132526543Y-92974896D01*
X132581825Y-92919491D01*
X132642170Y-92871994D01*
X132705578Y-92833974D01*
X132770052Y-92806995D01*
X132772150Y-92806319D01*
X132814743Y-92794275D01*
X132856628Y-92786030D01*
X132901549Y-92781100D01*
X132953253Y-92779003D01*
X132984875Y-92778875D01*
X133068470Y-92782274D01*
X133141855Y-92791731D01*
X133206161Y-92807593D01*
X133262522Y-92830209D01*
X133312070Y-92859924D01*
X133349186Y-92890562D01*
X133391322Y-92938469D01*
X133427725Y-92996989D01*
X133457939Y-93065180D01*
X133481507Y-93142103D01*
X133490229Y-93181358D01*
X133494461Y-93203279D01*
X133498220Y-93224189D01*
X133501538Y-93244962D01*
X133504447Y-93266471D01*
X133506979Y-93289592D01*
X133509168Y-93315197D01*
X133511045Y-93344160D01*
X133512643Y-93377354D01*
X133513993Y-93415655D01*
X133515129Y-93459935D01*
X133516082Y-93511068D01*
X133516886Y-93569928D01*
X133517572Y-93637390D01*
X133518173Y-93714325D01*
X133518720Y-93801609D01*
X133519248Y-93900115D01*
X133519617Y-93975237D01*
X133522572Y-94589600D01*
X133065367Y-94589600D01*
X133062570Y-94032387D01*
X133062048Y-93933216D01*
X133061527Y-93845884D01*
X133060989Y-93769527D01*
X133060415Y-93703284D01*
X133059787Y-93646293D01*
X133059085Y-93597691D01*
X133058291Y-93556617D01*
X133057387Y-93522209D01*
X133056353Y-93493605D01*
X133055171Y-93469942D01*
X133053823Y-93450358D01*
X133052289Y-93433992D01*
X133050551Y-93419982D01*
X133049095Y-93410454D01*
X133037065Y-93350143D01*
X133022838Y-93301992D01*
X133006296Y-93265634D01*
X132997064Y-93251691D01*
X132966130Y-93221363D01*
X132926532Y-93199177D01*
X132879627Y-93185468D01*
X132826771Y-93180572D01*
X132769318Y-93184824D01*
X132744969Y-93189243D01*
X132689674Y-93207196D01*
X132640410Y-93236201D01*
X132597459Y-93275987D01*
X132561102Y-93326281D01*
X132531621Y-93386812D01*
X132526586Y-93400092D01*
X132511800Y-93440827D01*
X132511800Y-94589600D01*
X132055270Y-94589600D01*
X132052887Y-94006987D01*
X132052476Y-93907747D01*
X132052090Y-93820365D01*
X132051709Y-93743998D01*
X132051310Y-93677804D01*
X132050872Y-93620940D01*
X132050375Y-93572566D01*
X132049796Y-93531837D01*
X132049115Y-93497913D01*
X132048309Y-93469950D01*
X132047357Y-93447107D01*
X132046238Y-93428541D01*
X132044931Y-93413410D01*
X132043414Y-93400871D01*
X132041666Y-93390083D01*
X132039665Y-93380203D01*
X132037389Y-93370388D01*
X132036624Y-93367225D01*
X132021212Y-93313907D01*
X132003160Y-93271783D01*
X131981478Y-93239455D01*
X131955178Y-93215523D01*
X131923270Y-93198589D01*
X131915255Y-93195614D01*
X131865150Y-93184045D01*
X131810156Y-93181342D01*
X131754235Y-93187263D01*
X131701348Y-93201564D01*
X131681191Y-93209920D01*
X131646471Y-93231145D01*
X131610897Y-93261919D01*
X131577034Y-93299557D01*
X131547450Y-93341377D01*
X131535487Y-93362215D01*
X131508500Y-93413182D01*
X131508500Y-94589600D01*
X131051300Y-94589600D01*
X131051300Y-92824102D01*
X131230053Y-92825788D01*
X131408807Y-92827475D01*
X131434841Y-92941266D01*
X131443468Y-92977502D01*
X131451665Y-93009227D01*
X131458862Y-93034448D01*
X131464493Y-93051170D01*
X131467906Y-93057381D01*
X131474776Y-93053816D01*
X131487240Y-93042318D01*
X131503121Y-93024997D01*
X131511074Y-93015534D01*
X131556798Y-92965203D01*
X131608244Y-92918180D01*
X131662880Y-92876338D01*
X131718174Y-92841549D01*
X131771594Y-92815686D01*
X131790878Y-92808587D01*
X131841815Y-92795199D01*
X131900608Y-92785546D01*
X131963321Y-92779857D01*
X132026019Y-92778361D01*
X132084764Y-92781286D01*
G37*
X132084764Y-92781286D02*
X132134485Y-92788616D01*
X132199378Y-92806150D01*
X132255249Y-92829564D01*
X132303648Y-92860126D01*
X132346127Y-92899105D01*
X132384235Y-92947768D01*
X132419523Y-93007385D01*
X132431889Y-93031885D01*
X132452538Y-93074362D01*
X132478324Y-93036643D01*
X132526543Y-92974896D01*
X132581825Y-92919491D01*
X132642170Y-92871994D01*
X132705578Y-92833974D01*
X132770052Y-92806995D01*
X132772150Y-92806319D01*
X132814743Y-92794275D01*
X132856628Y-92786030D01*
X132901549Y-92781100D01*
X132953253Y-92779003D01*
X132984875Y-92778875D01*
X133068470Y-92782274D01*
X133141855Y-92791731D01*
X133206161Y-92807593D01*
X133262522Y-92830209D01*
X133312070Y-92859924D01*
X133349186Y-92890562D01*
X133391322Y-92938469D01*
X133427725Y-92996989D01*
X133457939Y-93065180D01*
X133481507Y-93142103D01*
X133490229Y-93181358D01*
X133494461Y-93203279D01*
X133498220Y-93224189D01*
X133501538Y-93244962D01*
X133504447Y-93266471D01*
X133506979Y-93289592D01*
X133509168Y-93315197D01*
X133511045Y-93344160D01*
X133512643Y-93377354D01*
X133513993Y-93415655D01*
X133515129Y-93459935D01*
X133516082Y-93511068D01*
X133516886Y-93569928D01*
X133517572Y-93637390D01*
X133518173Y-93714325D01*
X133518720Y-93801609D01*
X133519248Y-93900115D01*
X133519617Y-93975237D01*
X133522572Y-94589600D01*
X133065367Y-94589600D01*
X133062570Y-94032387D01*
X133062048Y-93933216D01*
X133061527Y-93845884D01*
X133060989Y-93769527D01*
X133060415Y-93703284D01*
X133059787Y-93646293D01*
X133059085Y-93597691D01*
X133058291Y-93556617D01*
X133057387Y-93522209D01*
X133056353Y-93493605D01*
X133055171Y-93469942D01*
X133053823Y-93450358D01*
X133052289Y-93433992D01*
X133050551Y-93419982D01*
X133049095Y-93410454D01*
X133037065Y-93350143D01*
X133022838Y-93301992D01*
X133006296Y-93265634D01*
X132997064Y-93251691D01*
X132966130Y-93221363D01*
X132926532Y-93199177D01*
X132879627Y-93185468D01*
X132826771Y-93180572D01*
X132769318Y-93184824D01*
X132744969Y-93189243D01*
X132689674Y-93207196D01*
X132640410Y-93236201D01*
X132597459Y-93275987D01*
X132561102Y-93326281D01*
X132531621Y-93386812D01*
X132526586Y-93400092D01*
X132511800Y-93440827D01*
X132511800Y-94589600D01*
X132055270Y-94589600D01*
X132052887Y-94006987D01*
X132052476Y-93907747D01*
X132052090Y-93820365D01*
X132051709Y-93743998D01*
X132051310Y-93677804D01*
X132050872Y-93620940D01*
X132050375Y-93572566D01*
X132049796Y-93531837D01*
X132049115Y-93497913D01*
X132048309Y-93469950D01*
X132047357Y-93447107D01*
X132046238Y-93428541D01*
X132044931Y-93413410D01*
X132043414Y-93400871D01*
X132041666Y-93390083D01*
X132039665Y-93380203D01*
X132037389Y-93370388D01*
X132036624Y-93367225D01*
X132021212Y-93313907D01*
X132003160Y-93271783D01*
X131981478Y-93239455D01*
X131955178Y-93215523D01*
X131923270Y-93198589D01*
X131915255Y-93195614D01*
X131865150Y-93184045D01*
X131810156Y-93181342D01*
X131754235Y-93187263D01*
X131701348Y-93201564D01*
X131681191Y-93209920D01*
X131646471Y-93231145D01*
X131610897Y-93261919D01*
X131577034Y-93299557D01*
X131547450Y-93341377D01*
X131535487Y-93362215D01*
X131508500Y-93413182D01*
X131508500Y-94589600D01*
X131051300Y-94589600D01*
X131051300Y-92824102D01*
X131230053Y-92825788D01*
X131408807Y-92827475D01*
X131434841Y-92941266D01*
X131443468Y-92977502D01*
X131451665Y-93009227D01*
X131458862Y-93034448D01*
X131464493Y-93051170D01*
X131467906Y-93057381D01*
X131474776Y-93053816D01*
X131487240Y-93042318D01*
X131503121Y-93024997D01*
X131511074Y-93015534D01*
X131556798Y-92965203D01*
X131608244Y-92918180D01*
X131662880Y-92876338D01*
X131718174Y-92841549D01*
X131771594Y-92815686D01*
X131790878Y-92808587D01*
X131841815Y-92795199D01*
X131900608Y-92785546D01*
X131963321Y-92779857D01*
X132026019Y-92778361D01*
X132084764Y-92781286D01*
G36*
X135690372Y-92795601D02*
G01*
X135755586Y-92800769D01*
X135813615Y-92809343D01*
X135866203Y-92821565D01*
X135915090Y-92837679D01*
X135951099Y-92852793D01*
X136015506Y-92887309D01*
X136070554Y-92927920D01*
X136116830Y-92975485D01*
X136154923Y-93030867D01*
X136185421Y-93094926D01*
X136208910Y-93168522D01*
X136225980Y-93252518D01*
X136226537Y-93256100D01*
X136229421Y-93283634D01*
X136231481Y-93322269D01*
X136232728Y-93370435D01*
X136233169Y-93426559D01*
X136232815Y-93489070D01*
X136231674Y-93556396D01*
X136229755Y-93626966D01*
X136227069Y-93699210D01*
X136223623Y-93771554D01*
X136223513Y-93773625D01*
X136217477Y-93909477D01*
X136214575Y-94033495D01*
X136214831Y-94146155D01*
X136218267Y-94247937D01*
X136224908Y-94339319D01*
X136234777Y-94420777D01*
X136247897Y-94492792D01*
X136261318Y-94545894D01*
X136275871Y-94595950D01*
X135903468Y-94595950D01*
X135886718Y-94540387D01*
X135870604Y-94487123D01*
X135857633Y-94444810D01*
X135847361Y-94412212D01*
X135839347Y-94388098D01*
X135833150Y-94371233D01*
X135828328Y-94360384D01*
X135824439Y-94354316D01*
X135821042Y-94351796D01*
X135819076Y-94351475D01*
X135811105Y-94356182D01*
X135797731Y-94368825D01*
X135781176Y-94387183D01*
X135771372Y-94399100D01*
X135713460Y-94462362D01*
X135649123Y-94515149D01*
X135579086Y-94557037D01*
X135504076Y-94587600D01*
X135424820Y-94606416D01*
X135413750Y-94608044D01*
X135366712Y-94613289D01*
X135318783Y-94616574D01*
X135274866Y-94617638D01*
X135248650Y-94616891D01*
X135161559Y-94606234D01*
X135081714Y-94585389D01*
X135009409Y-94554576D01*
X134944937Y-94514016D01*
X134888592Y-94463929D01*
X134840669Y-94404534D01*
X134801461Y-94336054D01*
X134771394Y-94259126D01*
X134765676Y-94239508D01*
X134761623Y-94221073D01*
X134758958Y-94200992D01*
X134757404Y-94176437D01*
X134756686Y-94144579D01*
X134756525Y-94107000D01*
X134757167Y-94055651D01*
X134758355Y-94034409D01*
X135223312Y-94034409D01*
X135228517Y-94087578D01*
X135243984Y-94134136D01*
X135269223Y-94173341D01*
X135303739Y-94204446D01*
X135347040Y-94226708D01*
X135351551Y-94228321D01*
X135385988Y-94236270D01*
X135428359Y-94240005D01*
X135474622Y-94239535D01*
X135520733Y-94234867D01*
X135555633Y-94227903D01*
X135584001Y-94219324D01*
X135611978Y-94208693D01*
X135633603Y-94198282D01*
X135633953Y-94198077D01*
X135659686Y-94180342D01*
X135689289Y-94155876D01*
X135719065Y-94128114D01*
X135745317Y-94100493D01*
X135763549Y-94077626D01*
X135782050Y-94050736D01*
X135782050Y-93816770D01*
X135716962Y-93812584D01*
X135667023Y-93811239D01*
X135610640Y-93812798D01*
X135552258Y-93816920D01*
X135496325Y-93823264D01*
X135447286Y-93831490D01*
X135435106Y-93834152D01*
X135373856Y-93852700D01*
X135322398Y-93877283D01*
X135281180Y-93907478D01*
X135250651Y-93942859D01*
X135231260Y-93983003D01*
X135223455Y-94027485D01*
X135223312Y-94034409D01*
X134758355Y-94034409D01*
X134759504Y-94013868D01*
X134764147Y-93978563D01*
X134771707Y-93946648D01*
X134782797Y-93915035D01*
X134798029Y-93880636D01*
X134803712Y-93868875D01*
X134840196Y-93808722D01*
X134887916Y-93753795D01*
X134946361Y-93704481D01*
X135015026Y-93661165D01*
X135093403Y-93624235D01*
X135153350Y-93602527D01*
X135217151Y-93583709D01*
X135281187Y-93568605D01*
X135347737Y-93556904D01*
X135419080Y-93548294D01*
X135497494Y-93542465D01*
X135585258Y-93539106D01*
X135623300Y-93538387D01*
X135778875Y-93536176D01*
X135784558Y-93477100D01*
X135786905Y-93419177D01*
X135782997Y-93363883D01*
X135773274Y-93313584D01*
X135758178Y-93270646D01*
X135740300Y-93240166D01*
X135719202Y-93220208D01*
X135688787Y-93201576D01*
X135652433Y-93185908D01*
X135613516Y-93174845D01*
X135600827Y-93172505D01*
X135572228Y-93169710D01*
X135533939Y-93168444D01*
X135488865Y-93168606D01*
X135439911Y-93170098D01*
X135389982Y-93172820D01*
X135341984Y-93176671D01*
X135298822Y-93181554D01*
X135286750Y-93183280D01*
X135234335Y-93192290D01*
X135179453Y-93203567D01*
X135125472Y-93216292D01*
X135075761Y-93229647D01*
X135033690Y-93242811D01*
X135017228Y-93248811D01*
X134969407Y-93267380D01*
X134921357Y-93117277D01*
X134907765Y-93074830D01*
X134895170Y-93035524D01*
X134884183Y-93001259D01*
X134875413Y-92973938D01*
X134869470Y-92955463D01*
X134867303Y-92948764D01*
X134863079Y-92935302D01*
X134861300Y-92928623D01*
X134861300Y-92928608D01*
X134866948Y-92925028D01*
X134882317Y-92918391D01*
X134905042Y-92909544D01*
X134932759Y-92899336D01*
X134963103Y-92888613D01*
X134993710Y-92878223D01*
X135022215Y-92869015D01*
X135046255Y-92861835D01*
X135051800Y-92860320D01*
X135139940Y-92838692D01*
X135224341Y-92821926D01*
X135308690Y-92809516D01*
X135396669Y-92800957D01*
X135491965Y-92795742D01*
X135531415Y-92794518D01*
X135616229Y-92793598D01*
X135690372Y-92795601D01*
G37*
X135690372Y-92795601D02*
X135755586Y-92800769D01*
X135813615Y-92809343D01*
X135866203Y-92821565D01*
X135915090Y-92837679D01*
X135951099Y-92852793D01*
X136015506Y-92887309D01*
X136070554Y-92927920D01*
X136116830Y-92975485D01*
X136154923Y-93030867D01*
X136185421Y-93094926D01*
X136208910Y-93168522D01*
X136225980Y-93252518D01*
X136226537Y-93256100D01*
X136229421Y-93283634D01*
X136231481Y-93322269D01*
X136232728Y-93370435D01*
X136233169Y-93426559D01*
X136232815Y-93489070D01*
X136231674Y-93556396D01*
X136229755Y-93626966D01*
X136227069Y-93699210D01*
X136223623Y-93771554D01*
X136223513Y-93773625D01*
X136217477Y-93909477D01*
X136214575Y-94033495D01*
X136214831Y-94146155D01*
X136218267Y-94247937D01*
X136224908Y-94339319D01*
X136234777Y-94420777D01*
X136247897Y-94492792D01*
X136261318Y-94545894D01*
X136275871Y-94595950D01*
X135903468Y-94595950D01*
X135886718Y-94540387D01*
X135870604Y-94487123D01*
X135857633Y-94444810D01*
X135847361Y-94412212D01*
X135839347Y-94388098D01*
X135833150Y-94371233D01*
X135828328Y-94360384D01*
X135824439Y-94354316D01*
X135821042Y-94351796D01*
X135819076Y-94351475D01*
X135811105Y-94356182D01*
X135797731Y-94368825D01*
X135781176Y-94387183D01*
X135771372Y-94399100D01*
X135713460Y-94462362D01*
X135649123Y-94515149D01*
X135579086Y-94557037D01*
X135504076Y-94587600D01*
X135424820Y-94606416D01*
X135413750Y-94608044D01*
X135366712Y-94613289D01*
X135318783Y-94616574D01*
X135274866Y-94617638D01*
X135248650Y-94616891D01*
X135161559Y-94606234D01*
X135081714Y-94585389D01*
X135009409Y-94554576D01*
X134944937Y-94514016D01*
X134888592Y-94463929D01*
X134840669Y-94404534D01*
X134801461Y-94336054D01*
X134771394Y-94259126D01*
X134765676Y-94239508D01*
X134761623Y-94221073D01*
X134758958Y-94200992D01*
X134757404Y-94176437D01*
X134756686Y-94144579D01*
X134756525Y-94107000D01*
X134757167Y-94055651D01*
X134758355Y-94034409D01*
X135223312Y-94034409D01*
X135228517Y-94087578D01*
X135243984Y-94134136D01*
X135269223Y-94173341D01*
X135303739Y-94204446D01*
X135347040Y-94226708D01*
X135351551Y-94228321D01*
X135385988Y-94236270D01*
X135428359Y-94240005D01*
X135474622Y-94239535D01*
X135520733Y-94234867D01*
X135555633Y-94227903D01*
X135584001Y-94219324D01*
X135611978Y-94208693D01*
X135633603Y-94198282D01*
X135633953Y-94198077D01*
X135659686Y-94180342D01*
X135689289Y-94155876D01*
X135719065Y-94128114D01*
X135745317Y-94100493D01*
X135763549Y-94077626D01*
X135782050Y-94050736D01*
X135782050Y-93816770D01*
X135716962Y-93812584D01*
X135667023Y-93811239D01*
X135610640Y-93812798D01*
X135552258Y-93816920D01*
X135496325Y-93823264D01*
X135447286Y-93831490D01*
X135435106Y-93834152D01*
X135373856Y-93852700D01*
X135322398Y-93877283D01*
X135281180Y-93907478D01*
X135250651Y-93942859D01*
X135231260Y-93983003D01*
X135223455Y-94027485D01*
X135223312Y-94034409D01*
X134758355Y-94034409D01*
X134759504Y-94013868D01*
X134764147Y-93978563D01*
X134771707Y-93946648D01*
X134782797Y-93915035D01*
X134798029Y-93880636D01*
X134803712Y-93868875D01*
X134840196Y-93808722D01*
X134887916Y-93753795D01*
X134946361Y-93704481D01*
X135015026Y-93661165D01*
X135093403Y-93624235D01*
X135153350Y-93602527D01*
X135217151Y-93583709D01*
X135281187Y-93568605D01*
X135347737Y-93556904D01*
X135419080Y-93548294D01*
X135497494Y-93542465D01*
X135585258Y-93539106D01*
X135623300Y-93538387D01*
X135778875Y-93536176D01*
X135784558Y-93477100D01*
X135786905Y-93419177D01*
X135782997Y-93363883D01*
X135773274Y-93313584D01*
X135758178Y-93270646D01*
X135740300Y-93240166D01*
X135719202Y-93220208D01*
X135688787Y-93201576D01*
X135652433Y-93185908D01*
X135613516Y-93174845D01*
X135600827Y-93172505D01*
X135572228Y-93169710D01*
X135533939Y-93168444D01*
X135488865Y-93168606D01*
X135439911Y-93170098D01*
X135389982Y-93172820D01*
X135341984Y-93176671D01*
X135298822Y-93181554D01*
X135286750Y-93183280D01*
X135234335Y-93192290D01*
X135179453Y-93203567D01*
X135125472Y-93216292D01*
X135075761Y-93229647D01*
X135033690Y-93242811D01*
X135017228Y-93248811D01*
X134969407Y-93267380D01*
X134921357Y-93117277D01*
X134907765Y-93074830D01*
X134895170Y-93035524D01*
X134884183Y-93001259D01*
X134875413Y-92973938D01*
X134869470Y-92955463D01*
X134867303Y-92948764D01*
X134863079Y-92935302D01*
X134861300Y-92928623D01*
X134861300Y-92928608D01*
X134866948Y-92925028D01*
X134882317Y-92918391D01*
X134905042Y-92909544D01*
X134932759Y-92899336D01*
X134963103Y-92888613D01*
X134993710Y-92878223D01*
X135022215Y-92869015D01*
X135046255Y-92861835D01*
X135051800Y-92860320D01*
X135139940Y-92838692D01*
X135224341Y-92821926D01*
X135308690Y-92809516D01*
X135396669Y-92800957D01*
X135491965Y-92795742D01*
X135531415Y-92794518D01*
X135616229Y-92793598D01*
X135690372Y-92795601D01*
G36*
X134410450Y-94627700D02*
G01*
X133959600Y-94627700D01*
X133959600Y-92106750D01*
X134410450Y-92106750D01*
X134410450Y-94627700D01*
G37*
X134410450Y-94627700D02*
X133959600Y-94627700D01*
X133959600Y-92106750D01*
X134410450Y-92106750D01*
X134410450Y-94627700D01*
G36*
X137083800Y-92544900D02*
G01*
X137083856Y-92617127D01*
X137084020Y-92685495D01*
X137084282Y-92748962D01*
X137084632Y-92806492D01*
X137085061Y-92857045D01*
X137085558Y-92899582D01*
X137086116Y-92933066D01*
X137086723Y-92956457D01*
X137087370Y-92968717D01*
X137087713Y-92970350D01*
X137093875Y-92966326D01*
X137106794Y-92955631D01*
X137124011Y-92940330D01*
X137129477Y-92935307D01*
X137191301Y-92886313D01*
X137261875Y-92845841D01*
X137341719Y-92813608D01*
X137372725Y-92803998D01*
X137391951Y-92798818D01*
X137409978Y-92795021D01*
X137429294Y-92792403D01*
X137452384Y-92790756D01*
X137481735Y-92789876D01*
X137519834Y-92789556D01*
X137547350Y-92789547D01*
X137596449Y-92789910D01*
X137635073Y-92790954D01*
X137665436Y-92792824D01*
X137689752Y-92795668D01*
X137710232Y-92799631D01*
X137713956Y-92800543D01*
X137796183Y-92826703D01*
X137870280Y-92861597D01*
X137936417Y-92905462D01*
X137994761Y-92958536D01*
X138045483Y-93021055D01*
X138088751Y-93093255D01*
X138124734Y-93175374D01*
X138153602Y-93267648D01*
X138175523Y-93370314D01*
X138188789Y-93465650D01*
X138191854Y-93503193D01*
X138194038Y-93549758D01*
X138195341Y-93602206D01*
X138195762Y-93657400D01*
X138195301Y-93712202D01*
X138193955Y-93763473D01*
X138191724Y-93808077D01*
X138188915Y-93840300D01*
X138170619Y-93956348D01*
X138143742Y-94063092D01*
X138108205Y-94160665D01*
X138063927Y-94249200D01*
X138010828Y-94328828D01*
X137948826Y-94399681D01*
X137877843Y-94461893D01*
X137797798Y-94515596D01*
X137769600Y-94531356D01*
X137686821Y-94568949D01*
X137595761Y-94597712D01*
X137496014Y-94617754D01*
X137411490Y-94627438D01*
X137372848Y-94630284D01*
X137339168Y-94631998D01*
X137306520Y-94632624D01*
X137270973Y-94632206D01*
X137228595Y-94630789D01*
X137204450Y-94629757D01*
X137130265Y-94624821D01*
X137053104Y-94616731D01*
X136975225Y-94605911D01*
X136898889Y-94592786D01*
X136826353Y-94577780D01*
X136759879Y-94561317D01*
X136701725Y-94543822D01*
X136656762Y-94526857D01*
X136626600Y-94513851D01*
X136626600Y-93663139D01*
X137083773Y-93663139D01*
X137083778Y-93735098D01*
X137083800Y-93809010D01*
X137083800Y-94196351D01*
X137112255Y-94208548D01*
X137156462Y-94224728D01*
X137202874Y-94235790D01*
X137254296Y-94242146D01*
X137313533Y-94244211D01*
X137350500Y-94243665D01*
X137393251Y-94241668D01*
X137426197Y-94238219D01*
X137452189Y-94232952D01*
X137465105Y-94228953D01*
X137507798Y-94211969D01*
X137542108Y-94193402D01*
X137572312Y-94170664D01*
X137591949Y-94152244D01*
X137632839Y-94102501D01*
X137666176Y-94043004D01*
X137688918Y-93983175D01*
X137698799Y-93949560D01*
X137706541Y-93918470D01*
X137712389Y-93887634D01*
X137716591Y-93854778D01*
X137719390Y-93817631D01*
X137721034Y-93773919D01*
X137721767Y-93721371D01*
X137721870Y-93678375D01*
X137721715Y-93626882D01*
X137721239Y-93585938D01*
X137720306Y-93553395D01*
X137718785Y-93527103D01*
X137716540Y-93504912D01*
X137713440Y-93484674D01*
X137709349Y-93464240D01*
X137708258Y-93459300D01*
X137689247Y-93389209D01*
X137665932Y-93330338D01*
X137637836Y-93281798D01*
X137604486Y-93242700D01*
X137582516Y-93223975D01*
X137542871Y-93198779D01*
X137501138Y-93182470D01*
X137454012Y-93174033D01*
X137414000Y-93172261D01*
X137348046Y-93176353D01*
X137290580Y-93189228D01*
X137240346Y-93211525D01*
X137196089Y-93243879D01*
X137156554Y-93286929D01*
X137138568Y-93312056D01*
X137127681Y-93328243D01*
X137118338Y-93342325D01*
X137110419Y-93355369D01*
X137103808Y-93368439D01*
X137098387Y-93382601D01*
X137094039Y-93398923D01*
X137090646Y-93418468D01*
X137088091Y-93442304D01*
X137086257Y-93471496D01*
X137085025Y-93507109D01*
X137084279Y-93550211D01*
X137083901Y-93601865D01*
X137083773Y-93663139D01*
X136626600Y-93663139D01*
X136626600Y-92119450D01*
X137083800Y-92119450D01*
X137083800Y-92544900D01*
G37*
X137083800Y-92544900D02*
X137083856Y-92617127D01*
X137084020Y-92685495D01*
X137084282Y-92748962D01*
X137084632Y-92806492D01*
X137085061Y-92857045D01*
X137085558Y-92899582D01*
X137086116Y-92933066D01*
X137086723Y-92956457D01*
X137087370Y-92968717D01*
X137087713Y-92970350D01*
X137093875Y-92966326D01*
X137106794Y-92955631D01*
X137124011Y-92940330D01*
X137129477Y-92935307D01*
X137191301Y-92886313D01*
X137261875Y-92845841D01*
X137341719Y-92813608D01*
X137372725Y-92803998D01*
X137391951Y-92798818D01*
X137409978Y-92795021D01*
X137429294Y-92792403D01*
X137452384Y-92790756D01*
X137481735Y-92789876D01*
X137519834Y-92789556D01*
X137547350Y-92789547D01*
X137596449Y-92789910D01*
X137635073Y-92790954D01*
X137665436Y-92792824D01*
X137689752Y-92795668D01*
X137710232Y-92799631D01*
X137713956Y-92800543D01*
X137796183Y-92826703D01*
X137870280Y-92861597D01*
X137936417Y-92905462D01*
X137994761Y-92958536D01*
X138045483Y-93021055D01*
X138088751Y-93093255D01*
X138124734Y-93175374D01*
X138153602Y-93267648D01*
X138175523Y-93370314D01*
X138188789Y-93465650D01*
X138191854Y-93503193D01*
X138194038Y-93549758D01*
X138195341Y-93602206D01*
X138195762Y-93657400D01*
X138195301Y-93712202D01*
X138193955Y-93763473D01*
X138191724Y-93808077D01*
X138188915Y-93840300D01*
X138170619Y-93956348D01*
X138143742Y-94063092D01*
X138108205Y-94160665D01*
X138063927Y-94249200D01*
X138010828Y-94328828D01*
X137948826Y-94399681D01*
X137877843Y-94461893D01*
X137797798Y-94515596D01*
X137769600Y-94531356D01*
X137686821Y-94568949D01*
X137595761Y-94597712D01*
X137496014Y-94617754D01*
X137411490Y-94627438D01*
X137372848Y-94630284D01*
X137339168Y-94631998D01*
X137306520Y-94632624D01*
X137270973Y-94632206D01*
X137228595Y-94630789D01*
X137204450Y-94629757D01*
X137130265Y-94624821D01*
X137053104Y-94616731D01*
X136975225Y-94605911D01*
X136898889Y-94592786D01*
X136826353Y-94577780D01*
X136759879Y-94561317D01*
X136701725Y-94543822D01*
X136656762Y-94526857D01*
X136626600Y-94513851D01*
X136626600Y-93663139D01*
X137083773Y-93663139D01*
X137083778Y-93735098D01*
X137083800Y-93809010D01*
X137083800Y-94196351D01*
X137112255Y-94208548D01*
X137156462Y-94224728D01*
X137202874Y-94235790D01*
X137254296Y-94242146D01*
X137313533Y-94244211D01*
X137350500Y-94243665D01*
X137393251Y-94241668D01*
X137426197Y-94238219D01*
X137452189Y-94232952D01*
X137465105Y-94228953D01*
X137507798Y-94211969D01*
X137542108Y-94193402D01*
X137572312Y-94170664D01*
X137591949Y-94152244D01*
X137632839Y-94102501D01*
X137666176Y-94043004D01*
X137688918Y-93983175D01*
X137698799Y-93949560D01*
X137706541Y-93918470D01*
X137712389Y-93887634D01*
X137716591Y-93854778D01*
X137719390Y-93817631D01*
X137721034Y-93773919D01*
X137721767Y-93721371D01*
X137721870Y-93678375D01*
X137721715Y-93626882D01*
X137721239Y-93585938D01*
X137720306Y-93553395D01*
X137718785Y-93527103D01*
X137716540Y-93504912D01*
X137713440Y-93484674D01*
X137709349Y-93464240D01*
X137708258Y-93459300D01*
X137689247Y-93389209D01*
X137665932Y-93330338D01*
X137637836Y-93281798D01*
X137604486Y-93242700D01*
X137582516Y-93223975D01*
X137542871Y-93198779D01*
X137501138Y-93182470D01*
X137454012Y-93174033D01*
X137414000Y-93172261D01*
X137348046Y-93176353D01*
X137290580Y-93189228D01*
X137240346Y-93211525D01*
X137196089Y-93243879D01*
X137156554Y-93286929D01*
X137138568Y-93312056D01*
X137127681Y-93328243D01*
X137118338Y-93342325D01*
X137110419Y-93355369D01*
X137103808Y-93368439D01*
X137098387Y-93382601D01*
X137094039Y-93398923D01*
X137090646Y-93418468D01*
X137088091Y-93442304D01*
X137086257Y-93471496D01*
X137085025Y-93507109D01*
X137084279Y-93550211D01*
X137083901Y-93601865D01*
X137083773Y-93663139D01*
X136626600Y-93663139D01*
X136626600Y-92119450D01*
X137083800Y-92119450D01*
X137083800Y-92544900D01*
G36*
X128820871Y-91714646D02*
G01*
X129705100Y-92598892D01*
X129705100Y-96589850D01*
X123945650Y-96589850D01*
X123945650Y-92627450D01*
X125742700Y-92627450D01*
X125742700Y-94792800D01*
X127908050Y-94792800D01*
X127908050Y-92627450D01*
X125742700Y-92627450D01*
X123945650Y-92627450D01*
X123945650Y-90830400D01*
X125941146Y-90830400D01*
X127936642Y-90830399D01*
X128820871Y-91714646D01*
G37*
X128820871Y-91714646D02*
X129705100Y-92598892D01*
X129705100Y-96589850D01*
X123945650Y-96589850D01*
X123945650Y-92627450D01*
X125742700Y-92627450D01*
X125742700Y-94792800D01*
X127908050Y-94792800D01*
X127908050Y-92627450D01*
X125742700Y-92627450D01*
X123945650Y-92627450D01*
X123945650Y-90830400D01*
X125941146Y-90830400D01*
X127936642Y-90830399D01*
X128820871Y-91714646D01*
G36*
X139577097Y-52870733D02*
G01*
X138899267Y-52870733D01*
X138899267Y-52192903D01*
X139577097Y-52192903D01*
X139577097Y-52870733D01*
G37*
X139577097Y-52870733D02*
X138899267Y-52870733D01*
X138899267Y-52192903D01*
X139577097Y-52192903D01*
X139577097Y-52870733D01*
G36*
X132880733Y-52870733D02*
G01*
X132202903Y-52870733D01*
X132202903Y-52192903D01*
X132880733Y-52192903D01*
X132880733Y-52870733D01*
G37*
X132880733Y-52870733D02*
X132202903Y-52870733D01*
X132202903Y-52192903D01*
X132880733Y-52192903D01*
X132880733Y-52870733D01*
G36*
X138683255Y-58673255D02*
G01*
X138452346Y-58673255D01*
X138452346Y-58442346D01*
X138683255Y-58442346D01*
X138683255Y-58673255D01*
G37*
X138683255Y-58673255D02*
X138452346Y-58673255D01*
X138452346Y-58442346D01*
X138683255Y-58442346D01*
X138683255Y-58673255D01*
G36*
X132880733Y-59567097D02*
G01*
X132202903Y-59567097D01*
X132202903Y-58889267D01*
X132880733Y-58889267D01*
X132880733Y-59567097D01*
G37*
X132880733Y-59567097D02*
X132202903Y-59567097D01*
X132202903Y-58889267D01*
X132880733Y-58889267D01*
X132880733Y-59567097D01*
G36*
X135338798Y-51976892D02*
G01*
X135107889Y-51976892D01*
X135107889Y-51745982D01*
X135338798Y-51745982D01*
X135338798Y-51976892D01*
G37*
X135338798Y-51976892D02*
X135107889Y-51976892D01*
X135107889Y-51745982D01*
X135338798Y-51745982D01*
X135338798Y-51976892D01*
G36*
X138236334Y-52423812D02*
G01*
X137781965Y-52423812D01*
X137781965Y-52192903D01*
X138236334Y-52192903D01*
X138236334Y-52423812D01*
G37*
X138236334Y-52423812D02*
X137781965Y-52423812D01*
X137781965Y-52192903D01*
X138236334Y-52192903D01*
X138236334Y-52423812D01*
G36*
X140024018Y-53317654D02*
G01*
X138452346Y-53317654D01*
X138452346Y-51976892D01*
X138683255Y-51976892D01*
X138683255Y-53086745D01*
X139793109Y-53086745D01*
X139793109Y-51976892D01*
X138683255Y-51976892D01*
X138452346Y-51976892D01*
X138452346Y-51745982D01*
X140024018Y-51745982D01*
X140024018Y-53317654D01*
G37*
X140024018Y-53317654D02*
X138452346Y-53317654D01*
X138452346Y-51976892D01*
X138683255Y-51976892D01*
X138683255Y-53086745D01*
X139793109Y-53086745D01*
X139793109Y-51976892D01*
X138683255Y-51976892D01*
X138452346Y-51976892D01*
X138452346Y-51745982D01*
X140024018Y-51745982D01*
X140024018Y-53317654D01*
G36*
X133327654Y-53317654D02*
G01*
X131755982Y-53317654D01*
X131755982Y-51976892D01*
X131986892Y-51976892D01*
X131986892Y-53086745D01*
X133096745Y-53086745D01*
X133096745Y-51976892D01*
X131986892Y-51976892D01*
X131755982Y-51976892D01*
X131755982Y-51745982D01*
X133327654Y-51745982D01*
X133327654Y-53317654D01*
G37*
X133327654Y-53317654D02*
X131755982Y-53317654D01*
X131755982Y-51976892D01*
X131986892Y-51976892D01*
X131986892Y-53086745D01*
X133096745Y-53086745D01*
X133096745Y-51976892D01*
X131986892Y-51976892D01*
X131755982Y-51976892D01*
X131755982Y-51745982D01*
X133327654Y-51745982D01*
X133327654Y-53317654D01*
G36*
X132210352Y-55328798D02*
G01*
X131979443Y-55328798D01*
X131979443Y-55097889D01*
X132210352Y-55097889D01*
X132210352Y-55328798D01*
G37*
X132210352Y-55328798D02*
X131979443Y-55328798D01*
X131979443Y-55097889D01*
X132210352Y-55097889D01*
X132210352Y-55328798D01*
G36*
X140024018Y-55991730D02*
G01*
X139793109Y-55991730D01*
X139793109Y-55544809D01*
X140024018Y-55544809D01*
X140024018Y-55991730D01*
G37*
X140024018Y-55991730D02*
X139793109Y-55991730D01*
X139793109Y-55544809D01*
X140024018Y-55544809D01*
X140024018Y-55991730D01*
G36*
X132880733Y-56215191D02*
G01*
X132649824Y-56215191D01*
X132649824Y-55984282D01*
X132880733Y-55984282D01*
X132880733Y-56215191D01*
G37*
X132880733Y-56215191D02*
X132649824Y-56215191D01*
X132649824Y-55984282D01*
X132880733Y-55984282D01*
X132880733Y-56215191D01*
G36*
X132433812Y-55991730D02*
G01*
X132210352Y-55991730D01*
X132210352Y-56207742D01*
X132433812Y-56207742D01*
X132433812Y-56431202D01*
X132880733Y-56431202D01*
X132880733Y-56662111D01*
X131979443Y-56662111D01*
X131979443Y-55984282D01*
X132202903Y-55984282D01*
X132202903Y-55775719D01*
X131979443Y-55775719D01*
X131979443Y-55544809D01*
X132433812Y-55544809D01*
X132433812Y-55991730D01*
G37*
X132433812Y-55991730D02*
X132210352Y-55991730D01*
X132210352Y-56207742D01*
X132433812Y-56207742D01*
X132433812Y-56431202D01*
X132880733Y-56431202D01*
X132880733Y-56662111D01*
X131979443Y-56662111D01*
X131979443Y-55984282D01*
X132202903Y-55984282D01*
X132202903Y-55775719D01*
X131979443Y-55775719D01*
X131979443Y-55544809D01*
X132433812Y-55544809D01*
X132433812Y-55991730D01*
G36*
X133327654Y-56885572D02*
G01*
X133096745Y-56885572D01*
X133096745Y-56654663D01*
X133327654Y-56654663D01*
X133327654Y-56885572D01*
G37*
X133327654Y-56885572D02*
X133096745Y-56885572D01*
X133096745Y-56654663D01*
X133327654Y-56654663D01*
X133327654Y-56885572D01*
G36*
X140024018Y-60014018D02*
G01*
X139793109Y-60014018D01*
X139793109Y-59783109D01*
X140024018Y-59783109D01*
X140024018Y-60014018D01*
G37*
X140024018Y-60014018D02*
X139793109Y-60014018D01*
X139793109Y-59783109D01*
X140024018Y-59783109D01*
X140024018Y-60014018D01*
G36*
X134668416Y-51969443D02*
G01*
X134891877Y-51969443D01*
X134891877Y-52416364D01*
X135107889Y-52416364D01*
X135107889Y-52192903D01*
X135338798Y-52192903D01*
X135338798Y-52416364D01*
X135785719Y-52416364D01*
X135785719Y-52639824D01*
X135994282Y-52639824D01*
X135994282Y-52416364D01*
X136441202Y-52416364D01*
X136441202Y-52200352D01*
X136217742Y-52200352D01*
X136217742Y-51976892D01*
X135994282Y-51976892D01*
X135994282Y-51745982D01*
X136225191Y-51745982D01*
X136225191Y-51969443D01*
X136448651Y-51969443D01*
X136448651Y-52192903D01*
X136888123Y-52192903D01*
X136888123Y-51976892D01*
X136664663Y-51976892D01*
X136664663Y-51745982D01*
X137119032Y-51745982D01*
X137119032Y-52200352D01*
X136895572Y-52200352D01*
X136895572Y-52416364D01*
X137335044Y-52416364D01*
X137335044Y-51745982D01*
X137789414Y-51745982D01*
X137789414Y-51976892D01*
X137565953Y-51976892D01*
X137565953Y-52639824D01*
X137789414Y-52639824D01*
X137789414Y-53310205D01*
X138005425Y-53310205D01*
X138005425Y-52639824D01*
X138236334Y-52639824D01*
X138236334Y-53980587D01*
X138452346Y-53980587D01*
X138452346Y-53533666D01*
X138906716Y-53533666D01*
X138906716Y-54211496D01*
X138236334Y-54211496D01*
X138236334Y-54434956D01*
X138005425Y-54434956D01*
X138005425Y-54211496D01*
X137789414Y-54211496D01*
X137789414Y-54434956D01*
X137558504Y-54434956D01*
X137558504Y-54204047D01*
X137781965Y-54204047D01*
X137781965Y-53988035D01*
X138012874Y-53988035D01*
X138012874Y-54204047D01*
X138228886Y-54204047D01*
X138228886Y-53988035D01*
X138012874Y-53988035D01*
X137781965Y-53988035D01*
X137781965Y-53980587D01*
X138005425Y-53980587D01*
X138005425Y-53541114D01*
X137565953Y-53541114D01*
X137565953Y-53988035D01*
X137119032Y-53988035D01*
X137119032Y-54204047D01*
X137342493Y-54204047D01*
X137342493Y-54874428D01*
X137565953Y-54874428D01*
X137565953Y-55097889D01*
X137781965Y-55097889D01*
X137781965Y-54650968D01*
X138452346Y-54650968D01*
X138452346Y-54427507D01*
X138906716Y-54427507D01*
X138906716Y-54874428D01*
X139346188Y-54874428D01*
X139346188Y-54658416D01*
X139122727Y-54658416D01*
X139122727Y-54211496D01*
X139353636Y-54211496D01*
X139353636Y-54650968D01*
X139569648Y-54650968D01*
X139569648Y-54211496D01*
X139353636Y-54211496D01*
X139122727Y-54211496D01*
X139122727Y-53980587D01*
X139346188Y-53980587D01*
X139346188Y-53764575D01*
X139122727Y-53764575D01*
X139122727Y-53533666D01*
X139353636Y-53533666D01*
X139353636Y-53757126D01*
X139577097Y-53757126D01*
X139577097Y-54204047D01*
X139793109Y-54204047D01*
X139793109Y-53757126D01*
X140024018Y-53757126D01*
X140024018Y-54211496D01*
X139800557Y-54211496D01*
X139800557Y-54427507D01*
X140024018Y-54427507D01*
X140024018Y-55328798D01*
X139793109Y-55328798D01*
X139793109Y-54658416D01*
X139577097Y-54658416D01*
X139577097Y-55105337D01*
X139353636Y-55105337D01*
X139353636Y-55328798D01*
X139122727Y-55328798D01*
X139122727Y-55105337D01*
X138899267Y-55105337D01*
X138899267Y-54881877D01*
X138236334Y-54881877D01*
X138236334Y-55097889D01*
X138683255Y-55097889D01*
X138683255Y-55321349D01*
X138906716Y-55321349D01*
X138906716Y-55552258D01*
X138452346Y-55552258D01*
X138452346Y-55328798D01*
X138228886Y-55328798D01*
X138228886Y-55105337D01*
X138012874Y-55105337D01*
X138012874Y-55544809D01*
X138236334Y-55544809D01*
X138236334Y-55768270D01*
X138459795Y-55768270D01*
X138459795Y-55984282D01*
X138899267Y-55984282D01*
X138899267Y-55768270D01*
X139130176Y-55768270D01*
X139130176Y-55984282D01*
X139353636Y-55984282D01*
X139353636Y-56431202D01*
X139569648Y-56431202D01*
X139569648Y-56207742D01*
X139800557Y-56207742D01*
X139800557Y-56431202D01*
X140024018Y-56431202D01*
X140024018Y-57779414D01*
X139793109Y-57779414D01*
X139793109Y-57332493D01*
X139122727Y-57332493D01*
X139122727Y-56885572D01*
X139353636Y-56885572D01*
X139353636Y-57101584D01*
X139569648Y-57101584D01*
X139569648Y-56885572D01*
X139353636Y-56885572D01*
X139122727Y-56885572D01*
X138906716Y-56885572D01*
X138906716Y-57548504D01*
X139130176Y-57548504D01*
X139130176Y-57771965D01*
X139346188Y-57771965D01*
X139346188Y-57548504D01*
X139577097Y-57548504D01*
X139577097Y-57779414D01*
X139353636Y-57779414D01*
X139353636Y-58442346D01*
X139793109Y-58442346D01*
X139793109Y-57995425D01*
X140024018Y-57995425D01*
X140024018Y-59567097D01*
X139569648Y-59567097D01*
X139569648Y-59343636D01*
X139130176Y-59343636D01*
X139130176Y-59559648D01*
X139353636Y-59559648D01*
X139353636Y-60014018D01*
X139122727Y-60014018D01*
X139122727Y-59567097D01*
X138906716Y-59567097D01*
X138906716Y-59790557D01*
X138683255Y-59790557D01*
X138683255Y-60014018D01*
X138452346Y-60014018D01*
X138452346Y-59790557D01*
X138236334Y-59790557D01*
X138236334Y-60014018D01*
X138005425Y-60014018D01*
X138005425Y-59790557D01*
X137558504Y-59790557D01*
X137558504Y-59343636D01*
X137789414Y-59343636D01*
X137789414Y-59559648D01*
X138005425Y-59559648D01*
X138005425Y-59343636D01*
X137789414Y-59343636D01*
X137558504Y-59343636D01*
X137558504Y-59336188D01*
X137781965Y-59336188D01*
X137781965Y-59120176D01*
X138012874Y-59120176D01*
X138012874Y-59336188D01*
X138236334Y-59336188D01*
X138236334Y-59559648D01*
X138459795Y-59559648D01*
X138459795Y-59783109D01*
X138675807Y-59783109D01*
X138675807Y-59559648D01*
X138899267Y-59559648D01*
X138899267Y-59120176D01*
X138012874Y-59120176D01*
X137781965Y-59120176D01*
X137781965Y-58896716D01*
X139130176Y-58896716D01*
X139130176Y-59112727D01*
X139569648Y-59112727D01*
X139569648Y-58889267D01*
X139793109Y-58889267D01*
X139793109Y-58673255D01*
X139353636Y-58673255D01*
X139353636Y-58896716D01*
X139130176Y-58896716D01*
X137781965Y-58896716D01*
X137781965Y-58673255D01*
X137558504Y-58673255D01*
X137558504Y-58449795D01*
X137789414Y-58449795D01*
X137789414Y-58665807D01*
X138005425Y-58665807D01*
X138005425Y-58449795D01*
X137789414Y-58449795D01*
X137558504Y-58449795D01*
X137558504Y-58442346D01*
X137781965Y-58442346D01*
X137781965Y-58226334D01*
X138236334Y-58226334D01*
X138236334Y-58889267D01*
X138899267Y-58889267D01*
X138899267Y-58226334D01*
X138236334Y-58226334D01*
X137781965Y-58226334D01*
X137781965Y-58002874D01*
X137558504Y-58002874D01*
X137558504Y-57779414D01*
X138012874Y-57779414D01*
X138012874Y-57995425D01*
X138228886Y-57995425D01*
X138228886Y-57779414D01*
X138012874Y-57779414D01*
X137558504Y-57779414D01*
X137558504Y-57771965D01*
X137781965Y-57771965D01*
X137781965Y-57555953D01*
X138683255Y-57555953D01*
X138683255Y-57771965D01*
X138899267Y-57771965D01*
X138899267Y-57555953D01*
X138683255Y-57555953D01*
X137781965Y-57555953D01*
X137781965Y-57332493D01*
X138012874Y-57332493D01*
X138012874Y-57548504D01*
X138228886Y-57548504D01*
X138228886Y-57332493D01*
X138012874Y-57332493D01*
X137781965Y-57332493D01*
X137558504Y-57332493D01*
X137558504Y-57109032D01*
X137789414Y-57109032D01*
X137789414Y-57325044D01*
X138005425Y-57325044D01*
X138005425Y-57109032D01*
X138236334Y-57109032D01*
X138236334Y-57325044D01*
X138452346Y-57325044D01*
X138452346Y-57109032D01*
X138236334Y-57109032D01*
X138005425Y-57109032D01*
X137789414Y-57109032D01*
X137558504Y-57109032D01*
X137558504Y-56885572D01*
X138012874Y-56885572D01*
X138012874Y-57101584D01*
X138228886Y-57101584D01*
X138228886Y-56885572D01*
X138459795Y-56885572D01*
X138459795Y-57101584D01*
X138675807Y-57101584D01*
X138675807Y-56885572D01*
X138459795Y-56885572D01*
X138228886Y-56885572D01*
X138012874Y-56885572D01*
X137558504Y-56885572D01*
X137342493Y-56885572D01*
X137342493Y-57555953D01*
X137119032Y-57555953D01*
X137119032Y-57779414D01*
X136888123Y-57779414D01*
X136888123Y-57555953D01*
X136672111Y-57555953D01*
X136672111Y-57779414D01*
X136441202Y-57779414D01*
X136441202Y-57548504D01*
X136664663Y-57548504D01*
X136664663Y-57325044D01*
X137111584Y-57325044D01*
X137111584Y-56885572D01*
X136888123Y-56885572D01*
X136888123Y-56215191D01*
X136664663Y-56215191D01*
X136664663Y-55991730D01*
X136448651Y-55991730D01*
X136448651Y-56215191D01*
X136225191Y-56215191D01*
X136225191Y-56431202D01*
X136672111Y-56431202D01*
X136672111Y-56662111D01*
X136448651Y-56662111D01*
X136448651Y-56885572D01*
X136225191Y-56885572D01*
X136225191Y-57101584D01*
X136448651Y-57101584D01*
X136448651Y-57332493D01*
X136225191Y-57332493D01*
X136225191Y-58218886D01*
X136664663Y-58218886D01*
X136664663Y-57995425D01*
X136895572Y-57995425D01*
X136895572Y-58218886D01*
X137342493Y-58218886D01*
X137342493Y-58449795D01*
X137119032Y-58449795D01*
X137119032Y-58673255D01*
X136888123Y-58673255D01*
X136888123Y-58226334D01*
X136672111Y-58226334D01*
X136672111Y-58449795D01*
X136217742Y-58449795D01*
X136217742Y-58226334D01*
X136001730Y-58226334D01*
X136001730Y-58449795D01*
X135554809Y-58449795D01*
X135554809Y-58002874D01*
X135331349Y-58002874D01*
X135331349Y-57779414D01*
X135562258Y-57779414D01*
X135562258Y-57995425D01*
X135778270Y-57995425D01*
X135778270Y-57779414D01*
X135562258Y-57779414D01*
X135331349Y-57779414D01*
X135115337Y-57779414D01*
X135115337Y-58226334D01*
X134660968Y-58226334D01*
X134660968Y-57771965D01*
X135107889Y-57771965D01*
X135107889Y-57555953D01*
X135785719Y-57555953D01*
X135785719Y-57771965D01*
X135994282Y-57771965D01*
X135994282Y-57555953D01*
X135785719Y-57555953D01*
X135107889Y-57555953D01*
X134884428Y-57555953D01*
X134884428Y-57332493D01*
X135338798Y-57332493D01*
X135338798Y-57548504D01*
X135778270Y-57548504D01*
X135778270Y-57325044D01*
X135994282Y-57325044D01*
X135994282Y-56885572D01*
X135562258Y-56885572D01*
X135562258Y-57332493D01*
X135338798Y-57332493D01*
X134884428Y-57332493D01*
X134668416Y-57332493D01*
X134668416Y-57555953D01*
X134444956Y-57555953D01*
X134444956Y-58002874D01*
X134214047Y-58002874D01*
X134214047Y-57555953D01*
X133774575Y-57555953D01*
X133774575Y-57995425D01*
X133998035Y-57995425D01*
X133998035Y-58226334D01*
X133774575Y-58226334D01*
X133774575Y-58449795D01*
X133543666Y-58449795D01*
X133543666Y-58226334D01*
X132873285Y-58226334D01*
X132873285Y-58002874D01*
X132657273Y-58002874D01*
X132657273Y-58226334D01*
X132426364Y-58226334D01*
X132426364Y-57995425D01*
X132649824Y-57995425D01*
X132649824Y-57779414D01*
X132880733Y-57779414D01*
X132880733Y-57995425D01*
X133543666Y-57995425D01*
X133543666Y-57779414D01*
X132880733Y-57779414D01*
X132649824Y-57779414D01*
X132210352Y-57779414D01*
X132210352Y-58226334D01*
X131979443Y-58226334D01*
X131979443Y-57771965D01*
X132202903Y-57771965D01*
X132202903Y-57332493D01*
X131979443Y-57332493D01*
X131979443Y-56878123D01*
X132210352Y-56878123D01*
X132210352Y-57101584D01*
X132649824Y-57101584D01*
X132649824Y-56878123D01*
X132880733Y-56878123D01*
X132880733Y-57332493D01*
X132657273Y-57332493D01*
X132657273Y-57548504D01*
X133320205Y-57548504D01*
X133320205Y-57332493D01*
X133551114Y-57332493D01*
X133551114Y-57548504D01*
X133767126Y-57548504D01*
X133767126Y-57332493D01*
X133551114Y-57332493D01*
X133320205Y-57332493D01*
X133096745Y-57332493D01*
X133096745Y-57109032D01*
X133774575Y-57109032D01*
X133774575Y-57325044D01*
X133990587Y-57325044D01*
X133990587Y-57109032D01*
X133774575Y-57109032D01*
X133096745Y-57109032D01*
X133096745Y-57101584D01*
X133543666Y-57101584D01*
X133543666Y-56438651D01*
X133774575Y-56438651D01*
X133774575Y-56654663D01*
X134221496Y-56654663D01*
X134221496Y-57101584D01*
X134884428Y-57101584D01*
X134884428Y-56878123D01*
X135331349Y-56878123D01*
X135331349Y-56662111D01*
X134668416Y-56662111D01*
X134668416Y-56885572D01*
X134437507Y-56885572D01*
X134437507Y-56654663D01*
X134660968Y-56654663D01*
X134660968Y-56438651D01*
X135785719Y-56438651D01*
X135785719Y-56654663D01*
X136217742Y-56654663D01*
X136217742Y-56438651D01*
X135785719Y-56438651D01*
X134660968Y-56438651D01*
X134437507Y-56438651D01*
X134437507Y-56215191D01*
X134221496Y-56215191D01*
X134221496Y-56438651D01*
X133774575Y-56438651D01*
X133543666Y-56438651D01*
X133543666Y-56215191D01*
X133327654Y-56215191D01*
X133327654Y-56438651D01*
X133096745Y-56438651D01*
X133096745Y-56207742D01*
X133320205Y-56207742D01*
X133320205Y-55991730D01*
X133096745Y-55991730D01*
X133096745Y-55775719D01*
X133551114Y-55775719D01*
X133551114Y-56207742D01*
X134214047Y-56207742D01*
X134214047Y-55991730D01*
X134444956Y-55991730D01*
X134444956Y-56207742D01*
X134668416Y-56207742D01*
X134668416Y-56431202D01*
X134884428Y-56431202D01*
X134884428Y-56207742D01*
X135338798Y-56207742D01*
X135338798Y-56431202D01*
X135554809Y-56431202D01*
X135554809Y-55768270D01*
X136001730Y-55768270D01*
X136001730Y-55991730D01*
X135785719Y-55991730D01*
X135785719Y-56207742D01*
X136217344Y-56207742D01*
X136221466Y-55988006D01*
X136331334Y-55985945D01*
X136441202Y-55983883D01*
X136441202Y-55775719D01*
X136672111Y-55775719D01*
X136672111Y-55984282D01*
X136888123Y-55984282D01*
X136888123Y-55775719D01*
X136672111Y-55775719D01*
X136441202Y-55775719D01*
X136441202Y-55768270D01*
X136664663Y-55768270D01*
X136664663Y-55552258D01*
X136895572Y-55552258D01*
X136895572Y-55768270D01*
X137119032Y-55768270D01*
X137119032Y-55991730D01*
X136895572Y-55991730D01*
X136895572Y-56207742D01*
X137342493Y-56207742D01*
X137342493Y-56431202D01*
X137565953Y-56431202D01*
X137565953Y-56878123D01*
X137781965Y-56878123D01*
X137781965Y-56438651D01*
X138012874Y-56438651D01*
X138012874Y-56654663D01*
X138236334Y-56654663D01*
X138236334Y-56878123D01*
X138452346Y-56878123D01*
X138452346Y-56215191D01*
X138683255Y-56215191D01*
X138683255Y-56431202D01*
X138906716Y-56431202D01*
X138906716Y-56654663D01*
X139122727Y-56654663D01*
X139122727Y-56438651D01*
X139577097Y-56438651D01*
X139577097Y-56878123D01*
X139793109Y-56878123D01*
X139793109Y-56438651D01*
X139577097Y-56438651D01*
X139122727Y-56438651D01*
X139122727Y-56215191D01*
X138683255Y-56215191D01*
X138452346Y-56215191D01*
X138236334Y-56215191D01*
X138236334Y-56438651D01*
X138012874Y-56438651D01*
X137781965Y-56438651D01*
X137781965Y-56431202D01*
X138005425Y-56431202D01*
X138005425Y-56207742D01*
X138228886Y-56207742D01*
X138228886Y-55991730D01*
X137789414Y-55991730D01*
X137789414Y-56215191D01*
X137558504Y-56215191D01*
X137558504Y-55984282D01*
X137781965Y-55984282D01*
X137781965Y-55775719D01*
X137335044Y-55775719D01*
X137335044Y-55552258D01*
X136895572Y-55552258D01*
X136664663Y-55552258D01*
X136441202Y-55552258D01*
X136441202Y-55321349D01*
X136664663Y-55321349D01*
X136664663Y-55105337D01*
X136895572Y-55105337D01*
X136895572Y-55321349D01*
X137111584Y-55321349D01*
X137111584Y-55105337D01*
X137342493Y-55105337D01*
X137342493Y-55544809D01*
X137781965Y-55544809D01*
X137781965Y-55328798D01*
X137558504Y-55328798D01*
X137558504Y-55105337D01*
X137342493Y-55105337D01*
X137111584Y-55105337D01*
X136895572Y-55105337D01*
X136664663Y-55105337D01*
X136225191Y-55105337D01*
X136225191Y-55552258D01*
X135331349Y-55552258D01*
X135331349Y-55105337D01*
X135115337Y-55105337D01*
X135115337Y-55991730D01*
X134884428Y-55991730D01*
X134884428Y-55775719D01*
X134668416Y-55775719D01*
X134668416Y-55991730D01*
X134444956Y-55991730D01*
X134214047Y-55991730D01*
X134214047Y-55768270D01*
X134437507Y-55768270D01*
X134437507Y-55552258D01*
X133774575Y-55552258D01*
X133774575Y-55775719D01*
X133551114Y-55775719D01*
X133096745Y-55775719D01*
X132649824Y-55775719D01*
X132649824Y-55552258D01*
X133104194Y-55552258D01*
X133104194Y-55768270D01*
X133543666Y-55768270D01*
X133543666Y-55552258D01*
X133104194Y-55552258D01*
X132649824Y-55552258D01*
X132649824Y-55328798D01*
X132426364Y-55328798D01*
X132426364Y-54881877D01*
X131979443Y-54881877D01*
X131979443Y-54650968D01*
X132433812Y-54650968D01*
X132433812Y-54874428D01*
X132657273Y-54874428D01*
X132657273Y-55321349D01*
X132873285Y-55321349D01*
X132873285Y-54658416D01*
X133104194Y-54658416D01*
X133104194Y-54874428D01*
X133327654Y-54874428D01*
X133327654Y-55105337D01*
X133104194Y-55105337D01*
X133104194Y-55321349D01*
X133767126Y-55321349D01*
X133767126Y-55105337D01*
X133998035Y-55105337D01*
X133998035Y-55321349D01*
X134444956Y-55321349D01*
X134444956Y-55544809D01*
X134660968Y-55544809D01*
X134660968Y-55321349D01*
X134884428Y-55321349D01*
X134884428Y-55105337D01*
X134660968Y-55105337D01*
X134660968Y-54881877D01*
X134444956Y-54881877D01*
X134444956Y-55105337D01*
X133998035Y-55105337D01*
X133767126Y-55105337D01*
X133767126Y-55097889D01*
X133990587Y-55097889D01*
X133990587Y-54881877D01*
X133543666Y-54881877D01*
X133543666Y-54434956D01*
X133774575Y-54434956D01*
X133774575Y-54650968D01*
X133990587Y-54650968D01*
X133990587Y-54434956D01*
X133774575Y-54434956D01*
X133543666Y-54434956D01*
X133327654Y-54434956D01*
X133327654Y-54658416D01*
X133104194Y-54658416D01*
X132873285Y-54658416D01*
X132873285Y-54650968D01*
X133096745Y-54650968D01*
X133096745Y-54427507D01*
X133320205Y-54427507D01*
X133320205Y-54211496D01*
X132657273Y-54211496D01*
X132657273Y-54434956D01*
X132202903Y-54434956D01*
X132202903Y-54204047D01*
X132649824Y-54204047D01*
X132649824Y-53988035D01*
X132202903Y-53988035D01*
X132202903Y-53764575D01*
X131979443Y-53764575D01*
X131979443Y-53533666D01*
X132433812Y-53533666D01*
X132433812Y-53757126D01*
X133096745Y-53757126D01*
X133096745Y-53533666D01*
X133327654Y-53533666D01*
X133327654Y-53764575D01*
X133104194Y-53764575D01*
X133104194Y-53980587D01*
X133327654Y-53980587D01*
X133327654Y-54204047D01*
X133998035Y-54204047D01*
X133998035Y-54427507D01*
X134221496Y-54427507D01*
X134221496Y-54874428D01*
X134437507Y-54874428D01*
X134437507Y-54658416D01*
X134668416Y-54658416D01*
X134668416Y-54874428D01*
X134891877Y-54874428D01*
X134891877Y-55097889D01*
X135107889Y-55097889D01*
X135107889Y-54881877D01*
X135338798Y-54881877D01*
X135338798Y-55097889D01*
X135562258Y-55097889D01*
X135562258Y-55321349D01*
X135994282Y-55321349D01*
X135994282Y-55105337D01*
X135778270Y-55105337D01*
X135778270Y-54881877D01*
X135338798Y-54881877D01*
X135107889Y-54881877D01*
X135107889Y-54874428D01*
X135331349Y-54874428D01*
X135331349Y-54658416D01*
X135107889Y-54658416D01*
X135107889Y-54211496D01*
X135338798Y-54211496D01*
X135338798Y-54650968D01*
X135554809Y-54650968D01*
X135554809Y-54211496D01*
X135785719Y-54211496D01*
X135785719Y-54650968D01*
X136001730Y-54650968D01*
X136001730Y-55097889D01*
X136217742Y-55097889D01*
X136217742Y-54650968D01*
X136448651Y-54650968D01*
X136448651Y-54874428D01*
X136888123Y-54874428D01*
X136888123Y-54650968D01*
X137111584Y-54650968D01*
X137111584Y-54211496D01*
X136895572Y-54211496D01*
X136895572Y-54434956D01*
X136664663Y-54434956D01*
X136664663Y-54211496D01*
X136448651Y-54211496D01*
X136448651Y-54434956D01*
X135994282Y-54434956D01*
X135994282Y-54211496D01*
X135785719Y-54211496D01*
X135554809Y-54211496D01*
X135338798Y-54211496D01*
X135107889Y-54211496D01*
X134891877Y-54211496D01*
X134891877Y-54658416D01*
X134668416Y-54658416D01*
X134437507Y-54658416D01*
X134437507Y-54650968D01*
X134660968Y-54650968D01*
X134660968Y-54434956D01*
X134437507Y-54434956D01*
X134437507Y-53988035D01*
X135115337Y-53988035D01*
X135115337Y-54204047D01*
X135331349Y-54204047D01*
X135331349Y-53988035D01*
X135115337Y-53988035D01*
X134437507Y-53988035D01*
X134214047Y-53988035D01*
X134214047Y-53764575D01*
X134444956Y-53764575D01*
X134444956Y-53980587D01*
X135107889Y-53980587D01*
X135107889Y-53764575D01*
X134884428Y-53764575D01*
X134884428Y-53541114D01*
X134668416Y-53541114D01*
X134668416Y-53764575D01*
X134444956Y-53764575D01*
X134214047Y-53764575D01*
X134214047Y-53533666D01*
X134437507Y-53533666D01*
X134437507Y-53317654D01*
X134891877Y-53317654D01*
X134891877Y-53533666D01*
X135115337Y-53533666D01*
X135115337Y-53757126D01*
X135562258Y-53757126D01*
X135562258Y-54204047D01*
X135778270Y-54204047D01*
X135778270Y-53757126D01*
X135994282Y-53757126D01*
X135994282Y-53317654D01*
X135785719Y-53317654D01*
X135785719Y-53541114D01*
X135331349Y-53541114D01*
X135331349Y-52870733D01*
X135562258Y-52870733D01*
X135562258Y-53310205D01*
X135778270Y-53310205D01*
X135778270Y-53086745D01*
X136001730Y-53086745D01*
X136001730Y-53310205D01*
X136217742Y-53310205D01*
X136217742Y-53086745D01*
X136448651Y-53086745D01*
X136448651Y-53317654D01*
X136225191Y-53317654D01*
X136225191Y-53533666D01*
X136448651Y-53533666D01*
X136448651Y-53764575D01*
X136001730Y-53764575D01*
X136001730Y-54204047D01*
X136441202Y-54204047D01*
X136441202Y-53980587D01*
X136672111Y-53980587D01*
X136672111Y-54204047D01*
X136888123Y-54204047D01*
X136888123Y-53757126D01*
X137111584Y-53757126D01*
X137111584Y-53541114D01*
X136664663Y-53541114D01*
X136664663Y-52870733D01*
X135562258Y-52870733D01*
X135331349Y-52870733D01*
X135331349Y-52647273D01*
X136672111Y-52647273D01*
X136672111Y-52863285D01*
X136895572Y-52863285D01*
X136895572Y-53310205D01*
X137111584Y-53310205D01*
X137111584Y-52870733D01*
X137342493Y-52870733D01*
X137342493Y-53533666D01*
X137558504Y-53533666D01*
X137558504Y-52870733D01*
X137342493Y-52870733D01*
X137111584Y-52870733D01*
X137111584Y-52863285D01*
X137335044Y-52863285D01*
X137335044Y-52647273D01*
X136672111Y-52647273D01*
X135331349Y-52647273D01*
X135331349Y-52423812D01*
X135115337Y-52423812D01*
X135115337Y-53317654D01*
X134891877Y-53317654D01*
X134437507Y-53317654D01*
X134437507Y-53094194D01*
X134221496Y-53094194D01*
X134221496Y-53317654D01*
X133998035Y-53317654D01*
X133998035Y-53988035D01*
X133543666Y-53988035D01*
X133543666Y-53757126D01*
X133767126Y-53757126D01*
X133767126Y-53541114D01*
X133543666Y-53541114D01*
X133543666Y-53094194D01*
X133774575Y-53094194D01*
X133774575Y-53310205D01*
X133990587Y-53310205D01*
X133990587Y-53094194D01*
X133774575Y-53094194D01*
X133543666Y-53094194D01*
X133543666Y-52870733D01*
X134444956Y-52870733D01*
X134444956Y-53086745D01*
X134668416Y-53086745D01*
X134668416Y-53310205D01*
X134884428Y-53310205D01*
X134884428Y-52647273D01*
X134668416Y-52647273D01*
X134668416Y-52870733D01*
X134444956Y-52870733D01*
X133543666Y-52870733D01*
X133543666Y-52863285D01*
X133767126Y-52863285D01*
X133767126Y-52647273D01*
X133998035Y-52647273D01*
X133998035Y-52863285D01*
X134437507Y-52863285D01*
X134437507Y-52423812D01*
X134221496Y-52423812D01*
X134221496Y-52647273D01*
X133998035Y-52647273D01*
X133767126Y-52647273D01*
X133543666Y-52647273D01*
X133543666Y-52416364D01*
X134214047Y-52416364D01*
X134214047Y-52200352D01*
X134444956Y-52200352D01*
X134444956Y-52416364D01*
X134660968Y-52416364D01*
X134660968Y-52200352D01*
X134444956Y-52200352D01*
X134214047Y-52200352D01*
X134214047Y-51745982D01*
X134668416Y-51745982D01*
X134668416Y-51969443D01*
G37*
X134668416Y-51969443D02*
X134891877Y-51969443D01*
X134891877Y-52416364D01*
X135107889Y-52416364D01*
X135107889Y-52192903D01*
X135338798Y-52192903D01*
X135338798Y-52416364D01*
X135785719Y-52416364D01*
X135785719Y-52639824D01*
X135994282Y-52639824D01*
X135994282Y-52416364D01*
X136441202Y-52416364D01*
X136441202Y-52200352D01*
X136217742Y-52200352D01*
X136217742Y-51976892D01*
X135994282Y-51976892D01*
X135994282Y-51745982D01*
X136225191Y-51745982D01*
X136225191Y-51969443D01*
X136448651Y-51969443D01*
X136448651Y-52192903D01*
X136888123Y-52192903D01*
X136888123Y-51976892D01*
X136664663Y-51976892D01*
X136664663Y-51745982D01*
X137119032Y-51745982D01*
X137119032Y-52200352D01*
X136895572Y-52200352D01*
X136895572Y-52416364D01*
X137335044Y-52416364D01*
X137335044Y-51745982D01*
X137789414Y-51745982D01*
X137789414Y-51976892D01*
X137565953Y-51976892D01*
X137565953Y-52639824D01*
X137789414Y-52639824D01*
X137789414Y-53310205D01*
X138005425Y-53310205D01*
X138005425Y-52639824D01*
X138236334Y-52639824D01*
X138236334Y-53980587D01*
X138452346Y-53980587D01*
X138452346Y-53533666D01*
X138906716Y-53533666D01*
X138906716Y-54211496D01*
X138236334Y-54211496D01*
X138236334Y-54434956D01*
X138005425Y-54434956D01*
X138005425Y-54211496D01*
X137789414Y-54211496D01*
X137789414Y-54434956D01*
X137558504Y-54434956D01*
X137558504Y-54204047D01*
X137781965Y-54204047D01*
X137781965Y-53988035D01*
X138012874Y-53988035D01*
X138012874Y-54204047D01*
X138228886Y-54204047D01*
X138228886Y-53988035D01*
X138012874Y-53988035D01*
X137781965Y-53988035D01*
X137781965Y-53980587D01*
X138005425Y-53980587D01*
X138005425Y-53541114D01*
X137565953Y-53541114D01*
X137565953Y-53988035D01*
X137119032Y-53988035D01*
X137119032Y-54204047D01*
X137342493Y-54204047D01*
X137342493Y-54874428D01*
X137565953Y-54874428D01*
X137565953Y-55097889D01*
X137781965Y-55097889D01*
X137781965Y-54650968D01*
X138452346Y-54650968D01*
X138452346Y-54427507D01*
X138906716Y-54427507D01*
X138906716Y-54874428D01*
X139346188Y-54874428D01*
X139346188Y-54658416D01*
X139122727Y-54658416D01*
X139122727Y-54211496D01*
X139353636Y-54211496D01*
X139353636Y-54650968D01*
X139569648Y-54650968D01*
X139569648Y-54211496D01*
X139353636Y-54211496D01*
X139122727Y-54211496D01*
X139122727Y-53980587D01*
X139346188Y-53980587D01*
X139346188Y-53764575D01*
X139122727Y-53764575D01*
X139122727Y-53533666D01*
X139353636Y-53533666D01*
X139353636Y-53757126D01*
X139577097Y-53757126D01*
X139577097Y-54204047D01*
X139793109Y-54204047D01*
X139793109Y-53757126D01*
X140024018Y-53757126D01*
X140024018Y-54211496D01*
X139800557Y-54211496D01*
X139800557Y-54427507D01*
X140024018Y-54427507D01*
X140024018Y-55328798D01*
X139793109Y-55328798D01*
X139793109Y-54658416D01*
X139577097Y-54658416D01*
X139577097Y-55105337D01*
X139353636Y-55105337D01*
X139353636Y-55328798D01*
X139122727Y-55328798D01*
X139122727Y-55105337D01*
X138899267Y-55105337D01*
X138899267Y-54881877D01*
X138236334Y-54881877D01*
X138236334Y-55097889D01*
X138683255Y-55097889D01*
X138683255Y-55321349D01*
X138906716Y-55321349D01*
X138906716Y-55552258D01*
X138452346Y-55552258D01*
X138452346Y-55328798D01*
X138228886Y-55328798D01*
X138228886Y-55105337D01*
X138012874Y-55105337D01*
X138012874Y-55544809D01*
X138236334Y-55544809D01*
X138236334Y-55768270D01*
X138459795Y-55768270D01*
X138459795Y-55984282D01*
X138899267Y-55984282D01*
X138899267Y-55768270D01*
X139130176Y-55768270D01*
X139130176Y-55984282D01*
X139353636Y-55984282D01*
X139353636Y-56431202D01*
X139569648Y-56431202D01*
X139569648Y-56207742D01*
X139800557Y-56207742D01*
X139800557Y-56431202D01*
X140024018Y-56431202D01*
X140024018Y-57779414D01*
X139793109Y-57779414D01*
X139793109Y-57332493D01*
X139122727Y-57332493D01*
X139122727Y-56885572D01*
X139353636Y-56885572D01*
X139353636Y-57101584D01*
X139569648Y-57101584D01*
X139569648Y-56885572D01*
X139353636Y-56885572D01*
X139122727Y-56885572D01*
X138906716Y-56885572D01*
X138906716Y-57548504D01*
X139130176Y-57548504D01*
X139130176Y-57771965D01*
X139346188Y-57771965D01*
X139346188Y-57548504D01*
X139577097Y-57548504D01*
X139577097Y-57779414D01*
X139353636Y-57779414D01*
X139353636Y-58442346D01*
X139793109Y-58442346D01*
X139793109Y-57995425D01*
X140024018Y-57995425D01*
X140024018Y-59567097D01*
X139569648Y-59567097D01*
X139569648Y-59343636D01*
X139130176Y-59343636D01*
X139130176Y-59559648D01*
X139353636Y-59559648D01*
X139353636Y-60014018D01*
X139122727Y-60014018D01*
X139122727Y-59567097D01*
X138906716Y-59567097D01*
X138906716Y-59790557D01*
X138683255Y-59790557D01*
X138683255Y-60014018D01*
X138452346Y-60014018D01*
X138452346Y-59790557D01*
X138236334Y-59790557D01*
X138236334Y-60014018D01*
X138005425Y-60014018D01*
X138005425Y-59790557D01*
X137558504Y-59790557D01*
X137558504Y-59343636D01*
X137789414Y-59343636D01*
X137789414Y-59559648D01*
X138005425Y-59559648D01*
X138005425Y-59343636D01*
X137789414Y-59343636D01*
X137558504Y-59343636D01*
X137558504Y-59336188D01*
X137781965Y-59336188D01*
X137781965Y-59120176D01*
X138012874Y-59120176D01*
X138012874Y-59336188D01*
X138236334Y-59336188D01*
X138236334Y-59559648D01*
X138459795Y-59559648D01*
X138459795Y-59783109D01*
X138675807Y-59783109D01*
X138675807Y-59559648D01*
X138899267Y-59559648D01*
X138899267Y-59120176D01*
X138012874Y-59120176D01*
X137781965Y-59120176D01*
X137781965Y-58896716D01*
X139130176Y-58896716D01*
X139130176Y-59112727D01*
X139569648Y-59112727D01*
X139569648Y-58889267D01*
X139793109Y-58889267D01*
X139793109Y-58673255D01*
X139353636Y-58673255D01*
X139353636Y-58896716D01*
X139130176Y-58896716D01*
X137781965Y-58896716D01*
X137781965Y-58673255D01*
X137558504Y-58673255D01*
X137558504Y-58449795D01*
X137789414Y-58449795D01*
X137789414Y-58665807D01*
X138005425Y-58665807D01*
X138005425Y-58449795D01*
X137789414Y-58449795D01*
X137558504Y-58449795D01*
X137558504Y-58442346D01*
X137781965Y-58442346D01*
X137781965Y-58226334D01*
X138236334Y-58226334D01*
X138236334Y-58889267D01*
X138899267Y-58889267D01*
X138899267Y-58226334D01*
X138236334Y-58226334D01*
X137781965Y-58226334D01*
X137781965Y-58002874D01*
X137558504Y-58002874D01*
X137558504Y-57779414D01*
X138012874Y-57779414D01*
X138012874Y-57995425D01*
X138228886Y-57995425D01*
X138228886Y-57779414D01*
X138012874Y-57779414D01*
X137558504Y-57779414D01*
X137558504Y-57771965D01*
X137781965Y-57771965D01*
X137781965Y-57555953D01*
X138683255Y-57555953D01*
X138683255Y-57771965D01*
X138899267Y-57771965D01*
X138899267Y-57555953D01*
X138683255Y-57555953D01*
X137781965Y-57555953D01*
X137781965Y-57332493D01*
X138012874Y-57332493D01*
X138012874Y-57548504D01*
X138228886Y-57548504D01*
X138228886Y-57332493D01*
X138012874Y-57332493D01*
X137781965Y-57332493D01*
X137558504Y-57332493D01*
X137558504Y-57109032D01*
X137789414Y-57109032D01*
X137789414Y-57325044D01*
X138005425Y-57325044D01*
X138005425Y-57109032D01*
X138236334Y-57109032D01*
X138236334Y-57325044D01*
X138452346Y-57325044D01*
X138452346Y-57109032D01*
X138236334Y-57109032D01*
X138005425Y-57109032D01*
X137789414Y-57109032D01*
X137558504Y-57109032D01*
X137558504Y-56885572D01*
X138012874Y-56885572D01*
X138012874Y-57101584D01*
X138228886Y-57101584D01*
X138228886Y-56885572D01*
X138459795Y-56885572D01*
X138459795Y-57101584D01*
X138675807Y-57101584D01*
X138675807Y-56885572D01*
X138459795Y-56885572D01*
X138228886Y-56885572D01*
X138012874Y-56885572D01*
X137558504Y-56885572D01*
X137342493Y-56885572D01*
X137342493Y-57555953D01*
X137119032Y-57555953D01*
X137119032Y-57779414D01*
X136888123Y-57779414D01*
X136888123Y-57555953D01*
X136672111Y-57555953D01*
X136672111Y-57779414D01*
X136441202Y-57779414D01*
X136441202Y-57548504D01*
X136664663Y-57548504D01*
X136664663Y-57325044D01*
X137111584Y-57325044D01*
X137111584Y-56885572D01*
X136888123Y-56885572D01*
X136888123Y-56215191D01*
X136664663Y-56215191D01*
X136664663Y-55991730D01*
X136448651Y-55991730D01*
X136448651Y-56215191D01*
X136225191Y-56215191D01*
X136225191Y-56431202D01*
X136672111Y-56431202D01*
X136672111Y-56662111D01*
X136448651Y-56662111D01*
X136448651Y-56885572D01*
X136225191Y-56885572D01*
X136225191Y-57101584D01*
X136448651Y-57101584D01*
X136448651Y-57332493D01*
X136225191Y-57332493D01*
X136225191Y-58218886D01*
X136664663Y-58218886D01*
X136664663Y-57995425D01*
X136895572Y-57995425D01*
X136895572Y-58218886D01*
X137342493Y-58218886D01*
X137342493Y-58449795D01*
X137119032Y-58449795D01*
X137119032Y-58673255D01*
X136888123Y-58673255D01*
X136888123Y-58226334D01*
X136672111Y-58226334D01*
X136672111Y-58449795D01*
X136217742Y-58449795D01*
X136217742Y-58226334D01*
X136001730Y-58226334D01*
X136001730Y-58449795D01*
X135554809Y-58449795D01*
X135554809Y-58002874D01*
X135331349Y-58002874D01*
X135331349Y-57779414D01*
X135562258Y-57779414D01*
X135562258Y-57995425D01*
X135778270Y-57995425D01*
X135778270Y-57779414D01*
X135562258Y-57779414D01*
X135331349Y-57779414D01*
X135115337Y-57779414D01*
X135115337Y-58226334D01*
X134660968Y-58226334D01*
X134660968Y-57771965D01*
X135107889Y-57771965D01*
X135107889Y-57555953D01*
X135785719Y-57555953D01*
X135785719Y-57771965D01*
X135994282Y-57771965D01*
X135994282Y-57555953D01*
X135785719Y-57555953D01*
X135107889Y-57555953D01*
X134884428Y-57555953D01*
X134884428Y-57332493D01*
X135338798Y-57332493D01*
X135338798Y-57548504D01*
X135778270Y-57548504D01*
X135778270Y-57325044D01*
X135994282Y-57325044D01*
X135994282Y-56885572D01*
X135562258Y-56885572D01*
X135562258Y-57332493D01*
X135338798Y-57332493D01*
X134884428Y-57332493D01*
X134668416Y-57332493D01*
X134668416Y-57555953D01*
X134444956Y-57555953D01*
X134444956Y-58002874D01*
X134214047Y-58002874D01*
X134214047Y-57555953D01*
X133774575Y-57555953D01*
X133774575Y-57995425D01*
X133998035Y-57995425D01*
X133998035Y-58226334D01*
X133774575Y-58226334D01*
X133774575Y-58449795D01*
X133543666Y-58449795D01*
X133543666Y-58226334D01*
X132873285Y-58226334D01*
X132873285Y-58002874D01*
X132657273Y-58002874D01*
X132657273Y-58226334D01*
X132426364Y-58226334D01*
X132426364Y-57995425D01*
X132649824Y-57995425D01*
X132649824Y-57779414D01*
X132880733Y-57779414D01*
X132880733Y-57995425D01*
X133543666Y-57995425D01*
X133543666Y-57779414D01*
X132880733Y-57779414D01*
X132649824Y-57779414D01*
X132210352Y-57779414D01*
X132210352Y-58226334D01*
X131979443Y-58226334D01*
X131979443Y-57771965D01*
X132202903Y-57771965D01*
X132202903Y-57332493D01*
X131979443Y-57332493D01*
X131979443Y-56878123D01*
X132210352Y-56878123D01*
X132210352Y-57101584D01*
X132649824Y-57101584D01*
X132649824Y-56878123D01*
X132880733Y-56878123D01*
X132880733Y-57332493D01*
X132657273Y-57332493D01*
X132657273Y-57548504D01*
X133320205Y-57548504D01*
X133320205Y-57332493D01*
X133551114Y-57332493D01*
X133551114Y-57548504D01*
X133767126Y-57548504D01*
X133767126Y-57332493D01*
X133551114Y-57332493D01*
X133320205Y-57332493D01*
X133096745Y-57332493D01*
X133096745Y-57109032D01*
X133774575Y-57109032D01*
X133774575Y-57325044D01*
X133990587Y-57325044D01*
X133990587Y-57109032D01*
X133774575Y-57109032D01*
X133096745Y-57109032D01*
X133096745Y-57101584D01*
X133543666Y-57101584D01*
X133543666Y-56438651D01*
X133774575Y-56438651D01*
X133774575Y-56654663D01*
X134221496Y-56654663D01*
X134221496Y-57101584D01*
X134884428Y-57101584D01*
X134884428Y-56878123D01*
X135331349Y-56878123D01*
X135331349Y-56662111D01*
X134668416Y-56662111D01*
X134668416Y-56885572D01*
X134437507Y-56885572D01*
X134437507Y-56654663D01*
X134660968Y-56654663D01*
X134660968Y-56438651D01*
X135785719Y-56438651D01*
X135785719Y-56654663D01*
X136217742Y-56654663D01*
X136217742Y-56438651D01*
X135785719Y-56438651D01*
X134660968Y-56438651D01*
X134437507Y-56438651D01*
X134437507Y-56215191D01*
X134221496Y-56215191D01*
X134221496Y-56438651D01*
X133774575Y-56438651D01*
X133543666Y-56438651D01*
X133543666Y-56215191D01*
X133327654Y-56215191D01*
X133327654Y-56438651D01*
X133096745Y-56438651D01*
X133096745Y-56207742D01*
X133320205Y-56207742D01*
X133320205Y-55991730D01*
X133096745Y-55991730D01*
X133096745Y-55775719D01*
X133551114Y-55775719D01*
X133551114Y-56207742D01*
X134214047Y-56207742D01*
X134214047Y-55991730D01*
X134444956Y-55991730D01*
X134444956Y-56207742D01*
X134668416Y-56207742D01*
X134668416Y-56431202D01*
X134884428Y-56431202D01*
X134884428Y-56207742D01*
X135338798Y-56207742D01*
X135338798Y-56431202D01*
X135554809Y-56431202D01*
X135554809Y-55768270D01*
X136001730Y-55768270D01*
X136001730Y-55991730D01*
X135785719Y-55991730D01*
X135785719Y-56207742D01*
X136217344Y-56207742D01*
X136221466Y-55988006D01*
X136331334Y-55985945D01*
X136441202Y-55983883D01*
X136441202Y-55775719D01*
X136672111Y-55775719D01*
X136672111Y-55984282D01*
X136888123Y-55984282D01*
X136888123Y-55775719D01*
X136672111Y-55775719D01*
X136441202Y-55775719D01*
X136441202Y-55768270D01*
X136664663Y-55768270D01*
X136664663Y-55552258D01*
X136895572Y-55552258D01*
X136895572Y-55768270D01*
X137119032Y-55768270D01*
X137119032Y-55991730D01*
X136895572Y-55991730D01*
X136895572Y-56207742D01*
X137342493Y-56207742D01*
X137342493Y-56431202D01*
X137565953Y-56431202D01*
X137565953Y-56878123D01*
X137781965Y-56878123D01*
X137781965Y-56438651D01*
X138012874Y-56438651D01*
X138012874Y-56654663D01*
X138236334Y-56654663D01*
X138236334Y-56878123D01*
X138452346Y-56878123D01*
X138452346Y-56215191D01*
X138683255Y-56215191D01*
X138683255Y-56431202D01*
X138906716Y-56431202D01*
X138906716Y-56654663D01*
X139122727Y-56654663D01*
X139122727Y-56438651D01*
X139577097Y-56438651D01*
X139577097Y-56878123D01*
X139793109Y-56878123D01*
X139793109Y-56438651D01*
X139577097Y-56438651D01*
X139122727Y-56438651D01*
X139122727Y-56215191D01*
X138683255Y-56215191D01*
X138452346Y-56215191D01*
X138236334Y-56215191D01*
X138236334Y-56438651D01*
X138012874Y-56438651D01*
X137781965Y-56438651D01*
X137781965Y-56431202D01*
X138005425Y-56431202D01*
X138005425Y-56207742D01*
X138228886Y-56207742D01*
X138228886Y-55991730D01*
X137789414Y-55991730D01*
X137789414Y-56215191D01*
X137558504Y-56215191D01*
X137558504Y-55984282D01*
X137781965Y-55984282D01*
X137781965Y-55775719D01*
X137335044Y-55775719D01*
X137335044Y-55552258D01*
X136895572Y-55552258D01*
X136664663Y-55552258D01*
X136441202Y-55552258D01*
X136441202Y-55321349D01*
X136664663Y-55321349D01*
X136664663Y-55105337D01*
X136895572Y-55105337D01*
X136895572Y-55321349D01*
X137111584Y-55321349D01*
X137111584Y-55105337D01*
X137342493Y-55105337D01*
X137342493Y-55544809D01*
X137781965Y-55544809D01*
X137781965Y-55328798D01*
X137558504Y-55328798D01*
X137558504Y-55105337D01*
X137342493Y-55105337D01*
X137111584Y-55105337D01*
X136895572Y-55105337D01*
X136664663Y-55105337D01*
X136225191Y-55105337D01*
X136225191Y-55552258D01*
X135331349Y-55552258D01*
X135331349Y-55105337D01*
X135115337Y-55105337D01*
X135115337Y-55991730D01*
X134884428Y-55991730D01*
X134884428Y-55775719D01*
X134668416Y-55775719D01*
X134668416Y-55991730D01*
X134444956Y-55991730D01*
X134214047Y-55991730D01*
X134214047Y-55768270D01*
X134437507Y-55768270D01*
X134437507Y-55552258D01*
X133774575Y-55552258D01*
X133774575Y-55775719D01*
X133551114Y-55775719D01*
X133096745Y-55775719D01*
X132649824Y-55775719D01*
X132649824Y-55552258D01*
X133104194Y-55552258D01*
X133104194Y-55768270D01*
X133543666Y-55768270D01*
X133543666Y-55552258D01*
X133104194Y-55552258D01*
X132649824Y-55552258D01*
X132649824Y-55328798D01*
X132426364Y-55328798D01*
X132426364Y-54881877D01*
X131979443Y-54881877D01*
X131979443Y-54650968D01*
X132433812Y-54650968D01*
X132433812Y-54874428D01*
X132657273Y-54874428D01*
X132657273Y-55321349D01*
X132873285Y-55321349D01*
X132873285Y-54658416D01*
X133104194Y-54658416D01*
X133104194Y-54874428D01*
X133327654Y-54874428D01*
X133327654Y-55105337D01*
X133104194Y-55105337D01*
X133104194Y-55321349D01*
X133767126Y-55321349D01*
X133767126Y-55105337D01*
X133998035Y-55105337D01*
X133998035Y-55321349D01*
X134444956Y-55321349D01*
X134444956Y-55544809D01*
X134660968Y-55544809D01*
X134660968Y-55321349D01*
X134884428Y-55321349D01*
X134884428Y-55105337D01*
X134660968Y-55105337D01*
X134660968Y-54881877D01*
X134444956Y-54881877D01*
X134444956Y-55105337D01*
X133998035Y-55105337D01*
X133767126Y-55105337D01*
X133767126Y-55097889D01*
X133990587Y-55097889D01*
X133990587Y-54881877D01*
X133543666Y-54881877D01*
X133543666Y-54434956D01*
X133774575Y-54434956D01*
X133774575Y-54650968D01*
X133990587Y-54650968D01*
X133990587Y-54434956D01*
X133774575Y-54434956D01*
X133543666Y-54434956D01*
X133327654Y-54434956D01*
X133327654Y-54658416D01*
X133104194Y-54658416D01*
X132873285Y-54658416D01*
X132873285Y-54650968D01*
X133096745Y-54650968D01*
X133096745Y-54427507D01*
X133320205Y-54427507D01*
X133320205Y-54211496D01*
X132657273Y-54211496D01*
X132657273Y-54434956D01*
X132202903Y-54434956D01*
X132202903Y-54204047D01*
X132649824Y-54204047D01*
X132649824Y-53988035D01*
X132202903Y-53988035D01*
X132202903Y-53764575D01*
X131979443Y-53764575D01*
X131979443Y-53533666D01*
X132433812Y-53533666D01*
X132433812Y-53757126D01*
X133096745Y-53757126D01*
X133096745Y-53533666D01*
X133327654Y-53533666D01*
X133327654Y-53764575D01*
X133104194Y-53764575D01*
X133104194Y-53980587D01*
X133327654Y-53980587D01*
X133327654Y-54204047D01*
X133998035Y-54204047D01*
X133998035Y-54427507D01*
X134221496Y-54427507D01*
X134221496Y-54874428D01*
X134437507Y-54874428D01*
X134437507Y-54658416D01*
X134668416Y-54658416D01*
X134668416Y-54874428D01*
X134891877Y-54874428D01*
X134891877Y-55097889D01*
X135107889Y-55097889D01*
X135107889Y-54881877D01*
X135338798Y-54881877D01*
X135338798Y-55097889D01*
X135562258Y-55097889D01*
X135562258Y-55321349D01*
X135994282Y-55321349D01*
X135994282Y-55105337D01*
X135778270Y-55105337D01*
X135778270Y-54881877D01*
X135338798Y-54881877D01*
X135107889Y-54881877D01*
X135107889Y-54874428D01*
X135331349Y-54874428D01*
X135331349Y-54658416D01*
X135107889Y-54658416D01*
X135107889Y-54211496D01*
X135338798Y-54211496D01*
X135338798Y-54650968D01*
X135554809Y-54650968D01*
X135554809Y-54211496D01*
X135785719Y-54211496D01*
X135785719Y-54650968D01*
X136001730Y-54650968D01*
X136001730Y-55097889D01*
X136217742Y-55097889D01*
X136217742Y-54650968D01*
X136448651Y-54650968D01*
X136448651Y-54874428D01*
X136888123Y-54874428D01*
X136888123Y-54650968D01*
X137111584Y-54650968D01*
X137111584Y-54211496D01*
X136895572Y-54211496D01*
X136895572Y-54434956D01*
X136664663Y-54434956D01*
X136664663Y-54211496D01*
X136448651Y-54211496D01*
X136448651Y-54434956D01*
X135994282Y-54434956D01*
X135994282Y-54211496D01*
X135785719Y-54211496D01*
X135554809Y-54211496D01*
X135338798Y-54211496D01*
X135107889Y-54211496D01*
X134891877Y-54211496D01*
X134891877Y-54658416D01*
X134668416Y-54658416D01*
X134437507Y-54658416D01*
X134437507Y-54650968D01*
X134660968Y-54650968D01*
X134660968Y-54434956D01*
X134437507Y-54434956D01*
X134437507Y-53988035D01*
X135115337Y-53988035D01*
X135115337Y-54204047D01*
X135331349Y-54204047D01*
X135331349Y-53988035D01*
X135115337Y-53988035D01*
X134437507Y-53988035D01*
X134214047Y-53988035D01*
X134214047Y-53764575D01*
X134444956Y-53764575D01*
X134444956Y-53980587D01*
X135107889Y-53980587D01*
X135107889Y-53764575D01*
X134884428Y-53764575D01*
X134884428Y-53541114D01*
X134668416Y-53541114D01*
X134668416Y-53764575D01*
X134444956Y-53764575D01*
X134214047Y-53764575D01*
X134214047Y-53533666D01*
X134437507Y-53533666D01*
X134437507Y-53317654D01*
X134891877Y-53317654D01*
X134891877Y-53533666D01*
X135115337Y-53533666D01*
X135115337Y-53757126D01*
X135562258Y-53757126D01*
X135562258Y-54204047D01*
X135778270Y-54204047D01*
X135778270Y-53757126D01*
X135994282Y-53757126D01*
X135994282Y-53317654D01*
X135785719Y-53317654D01*
X135785719Y-53541114D01*
X135331349Y-53541114D01*
X135331349Y-52870733D01*
X135562258Y-52870733D01*
X135562258Y-53310205D01*
X135778270Y-53310205D01*
X135778270Y-53086745D01*
X136001730Y-53086745D01*
X136001730Y-53310205D01*
X136217742Y-53310205D01*
X136217742Y-53086745D01*
X136448651Y-53086745D01*
X136448651Y-53317654D01*
X136225191Y-53317654D01*
X136225191Y-53533666D01*
X136448651Y-53533666D01*
X136448651Y-53764575D01*
X136001730Y-53764575D01*
X136001730Y-54204047D01*
X136441202Y-54204047D01*
X136441202Y-53980587D01*
X136672111Y-53980587D01*
X136672111Y-54204047D01*
X136888123Y-54204047D01*
X136888123Y-53757126D01*
X137111584Y-53757126D01*
X137111584Y-53541114D01*
X136664663Y-53541114D01*
X136664663Y-52870733D01*
X135562258Y-52870733D01*
X135331349Y-52870733D01*
X135331349Y-52647273D01*
X136672111Y-52647273D01*
X136672111Y-52863285D01*
X136895572Y-52863285D01*
X136895572Y-53310205D01*
X137111584Y-53310205D01*
X137111584Y-52870733D01*
X137342493Y-52870733D01*
X137342493Y-53533666D01*
X137558504Y-53533666D01*
X137558504Y-52870733D01*
X137342493Y-52870733D01*
X137111584Y-52870733D01*
X137111584Y-52863285D01*
X137335044Y-52863285D01*
X137335044Y-52647273D01*
X136672111Y-52647273D01*
X135331349Y-52647273D01*
X135331349Y-52423812D01*
X135115337Y-52423812D01*
X135115337Y-53317654D01*
X134891877Y-53317654D01*
X134437507Y-53317654D01*
X134437507Y-53094194D01*
X134221496Y-53094194D01*
X134221496Y-53317654D01*
X133998035Y-53317654D01*
X133998035Y-53988035D01*
X133543666Y-53988035D01*
X133543666Y-53757126D01*
X133767126Y-53757126D01*
X133767126Y-53541114D01*
X133543666Y-53541114D01*
X133543666Y-53094194D01*
X133774575Y-53094194D01*
X133774575Y-53310205D01*
X133990587Y-53310205D01*
X133990587Y-53094194D01*
X133774575Y-53094194D01*
X133543666Y-53094194D01*
X133543666Y-52870733D01*
X134444956Y-52870733D01*
X134444956Y-53086745D01*
X134668416Y-53086745D01*
X134668416Y-53310205D01*
X134884428Y-53310205D01*
X134884428Y-52647273D01*
X134668416Y-52647273D01*
X134668416Y-52870733D01*
X134444956Y-52870733D01*
X133543666Y-52870733D01*
X133543666Y-52863285D01*
X133767126Y-52863285D01*
X133767126Y-52647273D01*
X133998035Y-52647273D01*
X133998035Y-52863285D01*
X134437507Y-52863285D01*
X134437507Y-52423812D01*
X134221496Y-52423812D01*
X134221496Y-52647273D01*
X133998035Y-52647273D01*
X133767126Y-52647273D01*
X133543666Y-52647273D01*
X133543666Y-52416364D01*
X134214047Y-52416364D01*
X134214047Y-52200352D01*
X134444956Y-52200352D01*
X134444956Y-52416364D01*
X134660968Y-52416364D01*
X134660968Y-52200352D01*
X134444956Y-52200352D01*
X134214047Y-52200352D01*
X134214047Y-51745982D01*
X134668416Y-51745982D01*
X134668416Y-51969443D01*
G36*
X136672111Y-59559648D02*
G01*
X136888123Y-59559648D01*
X136888123Y-59112727D01*
X137119032Y-59112727D01*
X137119032Y-59559648D01*
X137342493Y-59559648D01*
X137342493Y-60014018D01*
X137111584Y-60014018D01*
X137111584Y-59567097D01*
X136895572Y-59567097D01*
X136895572Y-59790557D01*
X136664663Y-59790557D01*
X136664663Y-59567097D01*
X136441202Y-59567097D01*
X136441202Y-58665807D01*
X136672111Y-58665807D01*
X136672111Y-59559648D01*
G37*
X136672111Y-59559648D02*
X136888123Y-59559648D01*
X136888123Y-59112727D01*
X137119032Y-59112727D01*
X137119032Y-59559648D01*
X137342493Y-59559648D01*
X137342493Y-60014018D01*
X137111584Y-60014018D01*
X137111584Y-59567097D01*
X136895572Y-59567097D01*
X136895572Y-59790557D01*
X136664663Y-59790557D01*
X136664663Y-59567097D01*
X136441202Y-59567097D01*
X136441202Y-58665807D01*
X136672111Y-58665807D01*
X136672111Y-59559648D01*
G36*
X136448651Y-60014018D02*
G01*
X135994282Y-60014018D01*
X135994282Y-59783109D01*
X136448651Y-59783109D01*
X136448651Y-60014018D01*
G37*
X136448651Y-60014018D02*
X135994282Y-60014018D01*
X135994282Y-59783109D01*
X136448651Y-59783109D01*
X136448651Y-60014018D01*
G36*
X134444956Y-58665807D02*
G01*
X134660968Y-58665807D01*
X134660968Y-58442346D01*
X135338798Y-58442346D01*
X135338798Y-58889267D01*
X135994282Y-58889267D01*
X135994282Y-58665807D01*
X136225191Y-58665807D01*
X136225191Y-58896716D01*
X136001730Y-58896716D01*
X136001730Y-59336188D01*
X136225191Y-59336188D01*
X136225191Y-59567097D01*
X135994282Y-59567097D01*
X135994282Y-59343636D01*
X135785719Y-59343636D01*
X135785719Y-60014018D01*
X135107889Y-60014018D01*
X135107889Y-59790557D01*
X134668416Y-59790557D01*
X134668416Y-60014018D01*
X134437507Y-60014018D01*
X134437507Y-59790557D01*
X134214047Y-59790557D01*
X134214047Y-59567097D01*
X135115337Y-59567097D01*
X135115337Y-59783109D01*
X135554809Y-59783109D01*
X135554809Y-59567097D01*
X135115337Y-59567097D01*
X134214047Y-59567097D01*
X133998035Y-59567097D01*
X133998035Y-59790557D01*
X133543666Y-59790557D01*
X133543666Y-59343636D01*
X134444956Y-59343636D01*
X134444956Y-59559648D01*
X134884428Y-59559648D01*
X134884428Y-59343636D01*
X134444956Y-59343636D01*
X133543666Y-59343636D01*
X133543666Y-59336188D01*
X133767126Y-59336188D01*
X133767126Y-59120176D01*
X134221496Y-59120176D01*
X134221496Y-59336188D01*
X134437507Y-59336188D01*
X134437507Y-59120176D01*
X134221496Y-59120176D01*
X133767126Y-59120176D01*
X133767126Y-58889267D01*
X133998035Y-58889267D01*
X133998035Y-59112727D01*
X134214047Y-59112727D01*
X134214047Y-58673255D01*
X134668416Y-58673255D01*
X134668416Y-59112727D01*
X135115337Y-59112727D01*
X135115337Y-59336188D01*
X135778270Y-59336188D01*
X135778270Y-59120176D01*
X135331349Y-59120176D01*
X135331349Y-58896716D01*
X135107889Y-58896716D01*
X135107889Y-58673255D01*
X134668416Y-58673255D01*
X134214047Y-58673255D01*
X133990587Y-58673255D01*
X133990587Y-58442346D01*
X134444956Y-58442346D01*
X134444956Y-58665807D01*
G37*
X134444956Y-58665807D02*
X134660968Y-58665807D01*
X134660968Y-58442346D01*
X135338798Y-58442346D01*
X135338798Y-58889267D01*
X135994282Y-58889267D01*
X135994282Y-58665807D01*
X136225191Y-58665807D01*
X136225191Y-58896716D01*
X136001730Y-58896716D01*
X136001730Y-59336188D01*
X136225191Y-59336188D01*
X136225191Y-59567097D01*
X135994282Y-59567097D01*
X135994282Y-59343636D01*
X135785719Y-59343636D01*
X135785719Y-60014018D01*
X135107889Y-60014018D01*
X135107889Y-59790557D01*
X134668416Y-59790557D01*
X134668416Y-60014018D01*
X134437507Y-60014018D01*
X134437507Y-59790557D01*
X134214047Y-59790557D01*
X134214047Y-59567097D01*
X135115337Y-59567097D01*
X135115337Y-59783109D01*
X135554809Y-59783109D01*
X135554809Y-59567097D01*
X135115337Y-59567097D01*
X134214047Y-59567097D01*
X133998035Y-59567097D01*
X133998035Y-59790557D01*
X133543666Y-59790557D01*
X133543666Y-59343636D01*
X134444956Y-59343636D01*
X134444956Y-59559648D01*
X134884428Y-59559648D01*
X134884428Y-59343636D01*
X134444956Y-59343636D01*
X133543666Y-59343636D01*
X133543666Y-59336188D01*
X133767126Y-59336188D01*
X133767126Y-59120176D01*
X134221496Y-59120176D01*
X134221496Y-59336188D01*
X134437507Y-59336188D01*
X134437507Y-59120176D01*
X134221496Y-59120176D01*
X133767126Y-59120176D01*
X133767126Y-58889267D01*
X133998035Y-58889267D01*
X133998035Y-59112727D01*
X134214047Y-59112727D01*
X134214047Y-58673255D01*
X134668416Y-58673255D01*
X134668416Y-59112727D01*
X135115337Y-59112727D01*
X135115337Y-59336188D01*
X135778270Y-59336188D01*
X135778270Y-59120176D01*
X135331349Y-59120176D01*
X135331349Y-58896716D01*
X135107889Y-58896716D01*
X135107889Y-58673255D01*
X134668416Y-58673255D01*
X134214047Y-58673255D01*
X133990587Y-58673255D01*
X133990587Y-58442346D01*
X134444956Y-58442346D01*
X134444956Y-58665807D01*
G36*
X133327654Y-60014018D02*
G01*
X131755982Y-60014018D01*
X131755982Y-58673255D01*
X131986892Y-58673255D01*
X131986892Y-59783109D01*
X133096745Y-59783109D01*
X133096745Y-58673255D01*
X131986892Y-58673255D01*
X131755982Y-58673255D01*
X131755982Y-58442346D01*
X133327654Y-58442346D01*
X133327654Y-60014018D01*
G37*
X133327654Y-60014018D02*
X131755982Y-60014018D01*
X131755982Y-58673255D01*
X131986892Y-58673255D01*
X131986892Y-59783109D01*
X133096745Y-59783109D01*
X133096745Y-58673255D01*
X131986892Y-58673255D01*
X131755982Y-58673255D01*
X131755982Y-58442346D01*
X133327654Y-58442346D01*
X133327654Y-60014018D01*
G36*
X100519815Y-50405517D02*
G01*
X100605476Y-50455594D01*
X100674902Y-50531855D01*
X100687418Y-50552295D01*
X100724672Y-50650827D01*
X100731633Y-50753827D01*
X100710207Y-50853607D01*
X100662297Y-50942480D01*
X100589810Y-51012759D01*
X100570223Y-51025273D01*
X100487646Y-51060389D01*
X100397257Y-51077812D01*
X100314031Y-51075187D01*
X100290005Y-51069304D01*
X100189556Y-51020550D01*
X100111950Y-50949310D01*
X100059556Y-50861527D01*
X100034745Y-50763147D01*
X100039886Y-50660114D01*
X100077351Y-50558373D01*
X100082593Y-50549135D01*
X100148886Y-50467761D01*
X100232457Y-50412748D01*
X100326603Y-50384059D01*
X100424624Y-50381661D01*
X100519815Y-50405517D01*
G37*
X100519815Y-50405517D02*
X100605476Y-50455594D01*
X100674902Y-50531855D01*
X100687418Y-50552295D01*
X100724672Y-50650827D01*
X100731633Y-50753827D01*
X100710207Y-50853607D01*
X100662297Y-50942480D01*
X100589810Y-51012759D01*
X100570223Y-51025273D01*
X100487646Y-51060389D01*
X100397257Y-51077812D01*
X100314031Y-51075187D01*
X100290005Y-51069304D01*
X100189556Y-51020550D01*
X100111950Y-50949310D01*
X100059556Y-50861527D01*
X100034745Y-50763147D01*
X100039886Y-50660114D01*
X100077351Y-50558373D01*
X100082593Y-50549135D01*
X100148886Y-50467761D01*
X100232457Y-50412748D01*
X100326603Y-50384059D01*
X100424624Y-50381661D01*
X100519815Y-50405517D01*
G36*
X102920944Y-49422484D02*
G01*
X103003486Y-49488910D01*
X103060543Y-49574990D01*
X103090250Y-49673513D01*
X103090747Y-49777267D01*
X103060169Y-49879040D01*
X103045857Y-49906076D01*
X102985289Y-49981958D01*
X102920944Y-50031037D01*
X102843169Y-50075563D01*
X101671549Y-50086319D01*
X101671549Y-50440441D01*
X102843169Y-50451197D01*
X102920944Y-50495723D01*
X103003242Y-50561375D01*
X103059181Y-50644566D01*
X103088728Y-50738613D01*
X103091853Y-50836832D01*
X103068521Y-50932542D01*
X103018702Y-51019058D01*
X102942364Y-51089698D01*
X102923854Y-51101367D01*
X102843169Y-51148803D01*
X101671549Y-51159559D01*
X101671549Y-51442131D01*
X102843169Y-51452887D01*
X102920944Y-51497413D01*
X103003242Y-51563065D01*
X103059181Y-51646256D01*
X103088728Y-51740303D01*
X103091853Y-51838522D01*
X103068521Y-51934232D01*
X103018702Y-52020748D01*
X102942364Y-52091389D01*
X102923854Y-52103057D01*
X102843169Y-52150493D01*
X102056127Y-52153784D01*
X101890013Y-52154138D01*
X101733620Y-52153818D01*
X101590864Y-52152880D01*
X101465659Y-52151377D01*
X101361921Y-52149367D01*
X101283566Y-52146904D01*
X101234508Y-52144042D01*
X101220145Y-52141983D01*
X101118725Y-52093607D01*
X101038127Y-52019689D01*
X101009037Y-51976975D01*
X100965000Y-51900070D01*
X100965000Y-49628380D01*
X101012436Y-49547695D01*
X101072926Y-49471929D01*
X101137647Y-49422484D01*
X101215422Y-49377958D01*
X102843169Y-49377958D01*
X102920944Y-49422484D01*
G37*
X102920944Y-49422484D02*
X103003486Y-49488910D01*
X103060543Y-49574990D01*
X103090250Y-49673513D01*
X103090747Y-49777267D01*
X103060169Y-49879040D01*
X103045857Y-49906076D01*
X102985289Y-49981958D01*
X102920944Y-50031037D01*
X102843169Y-50075563D01*
X101671549Y-50086319D01*
X101671549Y-50440441D01*
X102843169Y-50451197D01*
X102920944Y-50495723D01*
X103003242Y-50561375D01*
X103059181Y-50644566D01*
X103088728Y-50738613D01*
X103091853Y-50836832D01*
X103068521Y-50932542D01*
X103018702Y-51019058D01*
X102942364Y-51089698D01*
X102923854Y-51101367D01*
X102843169Y-51148803D01*
X101671549Y-51159559D01*
X101671549Y-51442131D01*
X102843169Y-51452887D01*
X102920944Y-51497413D01*
X103003242Y-51563065D01*
X103059181Y-51646256D01*
X103088728Y-51740303D01*
X103091853Y-51838522D01*
X103068521Y-51934232D01*
X103018702Y-52020748D01*
X102942364Y-52091389D01*
X102923854Y-52103057D01*
X102843169Y-52150493D01*
X102056127Y-52153784D01*
X101890013Y-52154138D01*
X101733620Y-52153818D01*
X101590864Y-52152880D01*
X101465659Y-52151377D01*
X101361921Y-52149367D01*
X101283566Y-52146904D01*
X101234508Y-52144042D01*
X101220145Y-52141983D01*
X101118725Y-52093607D01*
X101038127Y-52019689D01*
X101009037Y-51976975D01*
X100965000Y-51900070D01*
X100965000Y-49628380D01*
X101012436Y-49547695D01*
X101072926Y-49471929D01*
X101137647Y-49422484D01*
X101215422Y-49377958D01*
X102843169Y-49377958D01*
X102920944Y-49422484D01*
G36*
X103922634Y-48349244D02*
G01*
X103997063Y-48408397D01*
X104047845Y-48474455D01*
X104095282Y-48555141D01*
X104095282Y-51971620D01*
X104047845Y-52052305D01*
X103981195Y-52133967D01*
X103897327Y-52189103D01*
X103802926Y-52217745D01*
X103704674Y-52219925D01*
X103609254Y-52195676D01*
X103523350Y-52145028D01*
X103453644Y-52068015D01*
X103442202Y-52049395D01*
X103397676Y-51971620D01*
X103392804Y-50491444D01*
X103387931Y-49011267D01*
X99812068Y-49011267D01*
X99807196Y-50491444D01*
X99802324Y-51971620D01*
X99757798Y-52049395D01*
X99696706Y-52124322D01*
X99614377Y-52181319D01*
X99520423Y-52216410D01*
X99424456Y-52225614D01*
X99359864Y-52214092D01*
X99257289Y-52164387D01*
X99176732Y-52089850D01*
X99148755Y-52048524D01*
X99104718Y-51971620D01*
X99104718Y-48555141D01*
X99152154Y-48474455D01*
X99212644Y-48398690D01*
X99277366Y-48349244D01*
X99355141Y-48304718D01*
X103844859Y-48304718D01*
X103922634Y-48349244D01*
G37*
X103922634Y-48349244D02*
X103997063Y-48408397D01*
X104047845Y-48474455D01*
X104095282Y-48555141D01*
X104095282Y-51971620D01*
X104047845Y-52052305D01*
X103981195Y-52133967D01*
X103897327Y-52189103D01*
X103802926Y-52217745D01*
X103704674Y-52219925D01*
X103609254Y-52195676D01*
X103523350Y-52145028D01*
X103453644Y-52068015D01*
X103442202Y-52049395D01*
X103397676Y-51971620D01*
X103392804Y-50491444D01*
X103387931Y-49011267D01*
X99812068Y-49011267D01*
X99807196Y-50491444D01*
X99802324Y-51971620D01*
X99757798Y-52049395D01*
X99696706Y-52124322D01*
X99614377Y-52181319D01*
X99520423Y-52216410D01*
X99424456Y-52225614D01*
X99359864Y-52214092D01*
X99257289Y-52164387D01*
X99176732Y-52089850D01*
X99148755Y-52048524D01*
X99104718Y-51971620D01*
X99104718Y-48555141D01*
X99152154Y-48474455D01*
X99212644Y-48398690D01*
X99277366Y-48349244D01*
X99355141Y-48304718D01*
X103844859Y-48304718D01*
X103922634Y-48349244D01*
G36*
X103922634Y-52642202D02*
G01*
X104004615Y-52707694D01*
X104060384Y-52790821D01*
X104089941Y-52884872D01*
X104093287Y-52983135D01*
X104070421Y-53078899D01*
X104021343Y-53165453D01*
X103946053Y-53236085D01*
X103922634Y-53250755D01*
X103844859Y-53295282D01*
X101626831Y-53298357D01*
X101347241Y-53298625D01*
X101077062Y-53298654D01*
X100818507Y-53298453D01*
X100573790Y-53298034D01*
X100345127Y-53297410D01*
X100134730Y-53296591D01*
X99944815Y-53295588D01*
X99777596Y-53294415D01*
X99635287Y-53293081D01*
X99520102Y-53291599D01*
X99434256Y-53289980D01*
X99379962Y-53288235D01*
X99359864Y-53286555D01*
X99259175Y-53238882D01*
X99179051Y-53165653D01*
X99149276Y-53121764D01*
X99111655Y-53021852D01*
X99105452Y-52917890D01*
X99128687Y-52817292D01*
X99179379Y-52727471D01*
X99255549Y-52655842D01*
X99277366Y-52642202D01*
X99355141Y-52597676D01*
X103844859Y-52597676D01*
X103922634Y-52642202D01*
G37*
X103922634Y-52642202D02*
X104004615Y-52707694D01*
X104060384Y-52790821D01*
X104089941Y-52884872D01*
X104093287Y-52983135D01*
X104070421Y-53078899D01*
X104021343Y-53165453D01*
X103946053Y-53236085D01*
X103922634Y-53250755D01*
X103844859Y-53295282D01*
X101626831Y-53298357D01*
X101347241Y-53298625D01*
X101077062Y-53298654D01*
X100818507Y-53298453D01*
X100573790Y-53298034D01*
X100345127Y-53297410D01*
X100134730Y-53296591D01*
X99944815Y-53295588D01*
X99777596Y-53294415D01*
X99635287Y-53293081D01*
X99520102Y-53291599D01*
X99434256Y-53289980D01*
X99379962Y-53288235D01*
X99359864Y-53286555D01*
X99259175Y-53238882D01*
X99179051Y-53165653D01*
X99149276Y-53121764D01*
X99111655Y-53021852D01*
X99105452Y-52917890D01*
X99128687Y-52817292D01*
X99179379Y-52727471D01*
X99255549Y-52655842D01*
X99277366Y-52642202D01*
X99355141Y-52597676D01*
X103844859Y-52597676D01*
X103922634Y-52642202D01*
G36*
X164589262Y-72082069D02*
G01*
X164931903Y-72282375D01*
X165209608Y-72587421D01*
X165259671Y-72669181D01*
X165408687Y-73063307D01*
X165436533Y-73475307D01*
X165350827Y-73874428D01*
X165159190Y-74229921D01*
X164869240Y-74511036D01*
X164790891Y-74561093D01*
X164460585Y-74701558D01*
X164099030Y-74771248D01*
X163766123Y-74760750D01*
X163670019Y-74737215D01*
X163268226Y-74542201D01*
X162957801Y-74257239D01*
X162748224Y-73906108D01*
X162648979Y-73512587D01*
X162669546Y-73100455D01*
X162819406Y-72693491D01*
X162840374Y-72656540D01*
X163105543Y-72331045D01*
X163439827Y-72110991D01*
X163816414Y-71996237D01*
X164208496Y-71986643D01*
X164589262Y-72082069D01*
G37*
X164589262Y-72082069D02*
X164931903Y-72282375D01*
X165209608Y-72587421D01*
X165259671Y-72669181D01*
X165408687Y-73063307D01*
X165436533Y-73475307D01*
X165350827Y-73874428D01*
X165159190Y-74229921D01*
X164869240Y-74511036D01*
X164790891Y-74561093D01*
X164460585Y-74701558D01*
X164099030Y-74771248D01*
X163766123Y-74760750D01*
X163670019Y-74737215D01*
X163268226Y-74542201D01*
X162957801Y-74257239D01*
X162748224Y-73906108D01*
X162648979Y-73512587D01*
X162669546Y-73100455D01*
X162819406Y-72693491D01*
X162840374Y-72656540D01*
X163105543Y-72331045D01*
X163439827Y-72110991D01*
X163816414Y-71996237D01*
X164208496Y-71986643D01*
X164589262Y-72082069D01*
G36*
X174193776Y-68149935D02*
G01*
X174523946Y-68415639D01*
X174752171Y-68759961D01*
X174871002Y-69154052D01*
X174872988Y-69569067D01*
X174750677Y-69976160D01*
X174693429Y-70084305D01*
X174451158Y-70387833D01*
X174193776Y-70584149D01*
X173882676Y-70762253D01*
X171539437Y-70783766D01*
X169196197Y-70805278D01*
X169196197Y-72221764D01*
X171539437Y-72243276D01*
X173882676Y-72264789D01*
X174193776Y-72442893D01*
X174522969Y-72705500D01*
X174746724Y-73038263D01*
X174864914Y-73414451D01*
X174877411Y-73807330D01*
X174784086Y-74190168D01*
X174584810Y-74536234D01*
X174279455Y-74818794D01*
X174205417Y-74865467D01*
X173882676Y-75055211D01*
X171539437Y-75076723D01*
X169196197Y-75098236D01*
X169196197Y-76228525D01*
X171539437Y-76250037D01*
X173882676Y-76271549D01*
X174193776Y-76449653D01*
X174522969Y-76712261D01*
X174746724Y-77045024D01*
X174864914Y-77421211D01*
X174877411Y-77814090D01*
X174784086Y-78196929D01*
X174584810Y-78542994D01*
X174279455Y-78825555D01*
X174205417Y-78872227D01*
X173882676Y-79061972D01*
X170734507Y-79075138D01*
X170070052Y-79076554D01*
X169444481Y-79075274D01*
X168873455Y-79071520D01*
X168372636Y-79065510D01*
X167957684Y-79057468D01*
X167644263Y-79047615D01*
X167448033Y-79036170D01*
X167390582Y-79027932D01*
X166984902Y-78834429D01*
X166662509Y-78538755D01*
X166546148Y-78367901D01*
X166370000Y-78060282D01*
X166370000Y-68973521D01*
X166559745Y-68650780D01*
X166801704Y-68347717D01*
X167060590Y-68149935D01*
X167371690Y-67971831D01*
X173882676Y-67971831D01*
X174193776Y-68149935D01*
G37*
X174193776Y-68149935D02*
X174523946Y-68415639D01*
X174752171Y-68759961D01*
X174871002Y-69154052D01*
X174872988Y-69569067D01*
X174750677Y-69976160D01*
X174693429Y-70084305D01*
X174451158Y-70387833D01*
X174193776Y-70584149D01*
X173882676Y-70762253D01*
X171539437Y-70783766D01*
X169196197Y-70805278D01*
X169196197Y-72221764D01*
X171539437Y-72243276D01*
X173882676Y-72264789D01*
X174193776Y-72442893D01*
X174522969Y-72705500D01*
X174746724Y-73038263D01*
X174864914Y-73414451D01*
X174877411Y-73807330D01*
X174784086Y-74190168D01*
X174584810Y-74536234D01*
X174279455Y-74818794D01*
X174205417Y-74865467D01*
X173882676Y-75055211D01*
X171539437Y-75076723D01*
X169196197Y-75098236D01*
X169196197Y-76228525D01*
X171539437Y-76250037D01*
X173882676Y-76271549D01*
X174193776Y-76449653D01*
X174522969Y-76712261D01*
X174746724Y-77045024D01*
X174864914Y-77421211D01*
X174877411Y-77814090D01*
X174784086Y-78196929D01*
X174584810Y-78542994D01*
X174279455Y-78825555D01*
X174205417Y-78872227D01*
X173882676Y-79061972D01*
X170734507Y-79075138D01*
X170070052Y-79076554D01*
X169444481Y-79075274D01*
X168873455Y-79071520D01*
X168372636Y-79065510D01*
X167957684Y-79057468D01*
X167644263Y-79047615D01*
X167448033Y-79036170D01*
X167390582Y-79027932D01*
X166984902Y-78834429D01*
X166662509Y-78538755D01*
X166546148Y-78367901D01*
X166370000Y-78060282D01*
X166370000Y-68973521D01*
X166559745Y-68650780D01*
X166801704Y-68347717D01*
X167060590Y-68149935D01*
X167371690Y-67971831D01*
X173882676Y-67971831D01*
X174193776Y-68149935D01*
G36*
X178200537Y-63856977D02*
G01*
X178498252Y-64093589D01*
X178701382Y-64357822D01*
X178891127Y-64680563D01*
X178891127Y-78346479D01*
X178701382Y-78669220D01*
X178434779Y-78995869D01*
X178099309Y-79216414D01*
X177721704Y-79330982D01*
X177328696Y-79339702D01*
X176947017Y-79242704D01*
X176603399Y-79040114D01*
X176324576Y-78732062D01*
X176278808Y-78657579D01*
X176100704Y-78346479D01*
X176081215Y-72425775D01*
X176061726Y-66505070D01*
X161758274Y-66505070D01*
X161738785Y-72425775D01*
X161719296Y-78346479D01*
X161541191Y-78657579D01*
X161296826Y-78957287D01*
X160967510Y-79185278D01*
X160591693Y-79325639D01*
X160207826Y-79362457D01*
X159949455Y-79316370D01*
X159539155Y-79117549D01*
X159216929Y-78819399D01*
X159105021Y-78654098D01*
X158928873Y-78346479D01*
X158928873Y-64680563D01*
X159118618Y-64357822D01*
X159360577Y-64054759D01*
X159619463Y-63856977D01*
X159930563Y-63678873D01*
X177889437Y-63678873D01*
X178200537Y-63856977D01*
G37*
X178200537Y-63856977D02*
X178498252Y-64093589D01*
X178701382Y-64357822D01*
X178891127Y-64680563D01*
X178891127Y-78346479D01*
X178701382Y-78669220D01*
X178434779Y-78995869D01*
X178099309Y-79216414D01*
X177721704Y-79330982D01*
X177328696Y-79339702D01*
X176947017Y-79242704D01*
X176603399Y-79040114D01*
X176324576Y-78732062D01*
X176278808Y-78657579D01*
X176100704Y-78346479D01*
X176081215Y-72425775D01*
X176061726Y-66505070D01*
X161758274Y-66505070D01*
X161738785Y-72425775D01*
X161719296Y-78346479D01*
X161541191Y-78657579D01*
X161296826Y-78957287D01*
X160967510Y-79185278D01*
X160591693Y-79325639D01*
X160207826Y-79362457D01*
X159949455Y-79316370D01*
X159539155Y-79117549D01*
X159216929Y-78819399D01*
X159105021Y-78654098D01*
X158928873Y-78346479D01*
X158928873Y-64680563D01*
X159118618Y-64357822D01*
X159360577Y-64054759D01*
X159619463Y-63856977D01*
X159930563Y-63678873D01*
X177889437Y-63678873D01*
X178200537Y-63856977D01*
G36*
X178200537Y-81028808D02*
G01*
X178528460Y-81290775D01*
X178751536Y-81623284D01*
X178869765Y-81999488D01*
X178883148Y-82392541D01*
X178791683Y-82775598D01*
X178595371Y-83121813D01*
X178294213Y-83404339D01*
X178200537Y-83463022D01*
X177889437Y-83641127D01*
X169017324Y-83653427D01*
X167898965Y-83654502D01*
X166818248Y-83654615D01*
X165784027Y-83653812D01*
X164805161Y-83652138D01*
X163890507Y-83649639D01*
X163048922Y-83646363D01*
X162289262Y-83642354D01*
X161620385Y-83637659D01*
X161051149Y-83632325D01*
X160590409Y-83626396D01*
X160247023Y-83619920D01*
X160029849Y-83612942D01*
X159949455Y-83606221D01*
X159546699Y-83415527D01*
X159226203Y-83122613D01*
X159107105Y-82947056D01*
X158956620Y-82547408D01*
X158931808Y-82131560D01*
X159024747Y-81729167D01*
X159227516Y-81369885D01*
X159532195Y-81083370D01*
X159619463Y-81028808D01*
X159930563Y-80850704D01*
X177889437Y-80850704D01*
X178200537Y-81028808D01*
G37*
X178200537Y-81028808D02*
X178528460Y-81290775D01*
X178751536Y-81623284D01*
X178869765Y-81999488D01*
X178883148Y-82392541D01*
X178791683Y-82775598D01*
X178595371Y-83121813D01*
X178294213Y-83404339D01*
X178200537Y-83463022D01*
X177889437Y-83641127D01*
X169017324Y-83653427D01*
X167898965Y-83654502D01*
X166818248Y-83654615D01*
X165784027Y-83653812D01*
X164805161Y-83652138D01*
X163890507Y-83649639D01*
X163048922Y-83646363D01*
X162289262Y-83642354D01*
X161620385Y-83637659D01*
X161051149Y-83632325D01*
X160590409Y-83626396D01*
X160247023Y-83619920D01*
X160029849Y-83612942D01*
X159949455Y-83606221D01*
X159546699Y-83415527D01*
X159226203Y-83122613D01*
X159107105Y-82947056D01*
X158956620Y-82547408D01*
X158931808Y-82131560D01*
X159024747Y-81729167D01*
X159227516Y-81369885D01*
X159532195Y-81083370D01*
X159619463Y-81028808D01*
X159930563Y-80850704D01*
X177889437Y-80850704D01*
X178200537Y-81028808D01*
D11*
X98190000Y-62000000D02*
X98190000Y-60500000D01*
X96940000Y-58000000D02*
X92440000Y-58000000D01*
X91190000Y-60500000D02*
X91190000Y-62000000D01*
X92440000Y-64500000D02*
X96940000Y-64500000D01*
X189335000Y-111385000D02*
X188235000Y-111385000D01*
X189335000Y-111655000D02*
X189335000Y-111385000D01*
X190835000Y-111655000D02*
X189335000Y-111655000D01*
X189335000Y-105025000D02*
X186505000Y-105025000D01*
X189335000Y-104755000D02*
X189335000Y-105025000D01*
X190835000Y-104755000D02*
X189335000Y-104755000D01*
X176635000Y-111385000D02*
X175535000Y-111385000D01*
X176635000Y-111655000D02*
X176635000Y-111385000D01*
X178135000Y-111655000D02*
X176635000Y-111655000D01*
X176635000Y-105025000D02*
X173805000Y-105025000D01*
X176635000Y-104755000D02*
X176635000Y-105025000D01*
X178135000Y-104755000D02*
X176635000Y-104755000D01*
X163935000Y-111385000D02*
X162835000Y-111385000D01*
X163935000Y-111655000D02*
X163935000Y-111385000D01*
X165435000Y-111655000D02*
X163935000Y-111655000D01*
X163935000Y-105025000D02*
X161105000Y-105025000D01*
X163935000Y-104755000D02*
X163935000Y-105025000D01*
X165435000Y-104755000D02*
X163935000Y-104755000D01*
X151235000Y-111385000D02*
X150135000Y-111385000D01*
X151235000Y-111655000D02*
X151235000Y-111385000D01*
X152735000Y-111655000D02*
X151235000Y-111655000D01*
X151235000Y-105025000D02*
X148405000Y-105025000D01*
X151235000Y-104755000D02*
X151235000Y-105025000D01*
X152735000Y-104755000D02*
X151235000Y-104755000D01*
X138535000Y-111385000D02*
X137435000Y-111385000D01*
X138535000Y-111655000D02*
X138535000Y-111385000D01*
X140035000Y-111655000D02*
X138535000Y-111655000D01*
X138535000Y-105025000D02*
X135705000Y-105025000D01*
X138535000Y-104755000D02*
X138535000Y-105025000D01*
X140035000Y-104755000D02*
X138535000Y-104755000D01*
X125835000Y-111385000D02*
X124735000Y-111385000D01*
X125835000Y-111655000D02*
X125835000Y-111385000D01*
X127335000Y-111655000D02*
X125835000Y-111655000D01*
X125835000Y-105025000D02*
X123005000Y-105025000D01*
X125835000Y-104755000D02*
X125835000Y-105025000D01*
X127335000Y-104755000D02*
X125835000Y-104755000D01*
X113135000Y-111385000D02*
X112035000Y-111385000D01*
X113135000Y-111655000D02*
X113135000Y-111385000D01*
X114635000Y-111655000D02*
X113135000Y-111655000D01*
X113135000Y-105025000D02*
X110305000Y-105025000D01*
X113135000Y-104755000D02*
X113135000Y-105025000D01*
X114635000Y-104755000D02*
X113135000Y-104755000D01*
X100435000Y-111385000D02*
X99335000Y-111385000D01*
X100435000Y-111655000D02*
X100435000Y-111385000D01*
X101935000Y-111655000D02*
X100435000Y-111655000D01*
X100435000Y-105025000D02*
X97605000Y-105025000D01*
X100435000Y-104755000D02*
X100435000Y-105025000D01*
X101935000Y-104755000D02*
X100435000Y-104755000D01*
X98190000Y-74700000D02*
X98190000Y-73200000D01*
X96940000Y-70700000D02*
X92440000Y-70700000D01*
X91190000Y-73200000D02*
X91190000Y-74700000D01*
X92440000Y-77200000D02*
X96940000Y-77200000D01*
X104650000Y-90940000D02*
X104150000Y-91440000D01*
X104650000Y-91940000D02*
X104650000Y-90940000D01*
X104150000Y-91440000D02*
X104650000Y-91940000D01*
X87210000Y-84030000D02*
X95570000Y-84030000D01*
X87210000Y-96350000D02*
X87210000Y-84030000D01*
X95570000Y-96350000D02*
X87210000Y-96350000D01*
X103930000Y-84030000D02*
X99670000Y-84030000D01*
X103930000Y-96350000D02*
X103930000Y-84030000D01*
X99670000Y-96350000D02*
X103930000Y-96350000D01*
D13*
X205740000Y-74930000D02*
X205740000Y-87630000D01*
X200660000Y-74930000D02*
X205740000Y-74930000D01*
X200660000Y-87630000D02*
X200660000Y-74930000D01*
X205740000Y-87630000D02*
X200660000Y-87630000D01*
X205740000Y-59690000D02*
X205740000Y-72390000D01*
X200660000Y-59690000D02*
X205740000Y-59690000D01*
X200660000Y-72390000D02*
X200660000Y-59690000D01*
X205740000Y-72390000D02*
X200660000Y-72390000D01*
X156210000Y-54610000D02*
X146050000Y-54610000D01*
X156210000Y-49530000D02*
X156210000Y-54610000D01*
X146050000Y-49530000D02*
X156210000Y-49530000D01*
X146050000Y-54610000D02*
X146050000Y-49530000D01*
X205740000Y-90170000D02*
X205740000Y-100330000D01*
X203200000Y-90170000D02*
X205740000Y-90170000D01*
X203200000Y-100330000D02*
X203200000Y-90170000D01*
X205740000Y-100330000D02*
X203200000Y-100330000D01*
X190540000Y-134540000D02*
X190540000Y-125540000D01*
X195540000Y-125540000D02*
X195540000Y-134540000D01*
X190540000Y-125540000D02*
X190540000Y-119540000D01*
X191040000Y-134040100D02*
X191040000Y-126040100D01*
X191540000Y-123540000D02*
X191540000Y-120540000D01*
X195540000Y-125540000D02*
X195540000Y-119540000D01*
X195040000Y-134040100D02*
X195040000Y-126040100D01*
X194540000Y-123540000D02*
X194540000Y-120540000D01*
X191040000Y-120540000D02*
X191040000Y-117039000D01*
X191540000Y-120039900D02*
X191540000Y-117540000D01*
X192040000Y-126040100D02*
X192040000Y-125540000D01*
X195040000Y-120540000D02*
X195040000Y-117039900D01*
X194540000Y-120039900D02*
X194540000Y-117540000D01*
X194040000Y-126040100D02*
X194040000Y-125540000D01*
X195040000Y-134040100D02*
X191040000Y-134040100D01*
X191040000Y-126040100D02*
X195040000Y-126040100D01*
X194540100Y-123540000D02*
X191539900Y-123540000D01*
X191040000Y-120540000D02*
X195040000Y-120540000D01*
X191040000Y-117039900D02*
X195040000Y-117039900D01*
X194541000Y-120039900D02*
X191539000Y-120039900D01*
X194541000Y-117540000D02*
X191539000Y-117540000D01*
X195540100Y-134540000D02*
X190539900Y-134540000D01*
X195540100Y-125540000D02*
X190539900Y-125540000D01*
X191040000Y-119540000D02*
X190540000Y-119540000D01*
X195540000Y-119540000D02*
X195040000Y-119540000D01*
X185460000Y-134540000D02*
X185460000Y-125540000D01*
X190460000Y-125540000D02*
X190460000Y-134540000D01*
X185460000Y-125540000D02*
X185460000Y-119540000D01*
X185960000Y-134040100D02*
X185960000Y-126040100D01*
X186460000Y-123540000D02*
X186460000Y-120540000D01*
X190460000Y-125540000D02*
X190460000Y-119540000D01*
X189960000Y-134040100D02*
X189960000Y-126040100D01*
X189460000Y-123540000D02*
X189460000Y-120540000D01*
X185960000Y-120540000D02*
X185960000Y-117039000D01*
X186460000Y-120039900D02*
X186460000Y-117540000D01*
X186960000Y-126040100D02*
X186960000Y-125540000D01*
X189960000Y-120540000D02*
X189960000Y-117039900D01*
X189460000Y-120039900D02*
X189460000Y-117540000D01*
X188960000Y-126040100D02*
X188960000Y-125540000D01*
X189960000Y-134040100D02*
X185960000Y-134040100D01*
X185960000Y-126040100D02*
X189960000Y-126040100D01*
X189460100Y-123540000D02*
X186459900Y-123540000D01*
X185960000Y-120540000D02*
X189960000Y-120540000D01*
X185960000Y-117039900D02*
X189960000Y-117039900D01*
X189461000Y-120039900D02*
X186459000Y-120039900D01*
X189461000Y-117540000D02*
X186459000Y-117540000D01*
X190460100Y-134540000D02*
X185459900Y-134540000D01*
X190460100Y-125540000D02*
X185459900Y-125540000D01*
X185960000Y-119540000D02*
X185460000Y-119540000D01*
X190460000Y-119540000D02*
X189960000Y-119540000D01*
X180380000Y-134460000D02*
X180380000Y-125460000D01*
X185380000Y-125460000D02*
X185380000Y-134460000D01*
X180380000Y-125460000D02*
X180380000Y-119460000D01*
X180880000Y-133960100D02*
X180880000Y-125960100D01*
X181380000Y-123460000D02*
X181380000Y-120460000D01*
X185380000Y-125460000D02*
X185380000Y-119460000D01*
X184880000Y-133960100D02*
X184880000Y-125960100D01*
X184380000Y-123460000D02*
X184380000Y-120460000D01*
X180880000Y-120460000D02*
X180880000Y-116959000D01*
X181380000Y-119959900D02*
X181380000Y-117460000D01*
X181880000Y-125960100D02*
X181880000Y-125460000D01*
X184880000Y-120460000D02*
X184880000Y-116959900D01*
X184380000Y-119959900D02*
X184380000Y-117460000D01*
X183880000Y-125960100D02*
X183880000Y-125460000D01*
X184880000Y-133960100D02*
X180880000Y-133960100D01*
X180880000Y-125960100D02*
X184880000Y-125960100D01*
X184380100Y-123460000D02*
X181379900Y-123460000D01*
X180880000Y-120460000D02*
X184880000Y-120460000D01*
X180880000Y-116959900D02*
X184880000Y-116959900D01*
X184381000Y-119959900D02*
X181379000Y-119959900D01*
X184381000Y-117460000D02*
X181379000Y-117460000D01*
X185380100Y-134460000D02*
X180379900Y-134460000D01*
X185380100Y-125460000D02*
X180379900Y-125460000D01*
X180880000Y-119460000D02*
X180380000Y-119460000D01*
X185380000Y-119460000D02*
X184880000Y-119460000D01*
X175300000Y-134540000D02*
X175300000Y-125540000D01*
X180300000Y-125540000D02*
X180300000Y-134540000D01*
X175300000Y-125540000D02*
X175300000Y-119540000D01*
X175800000Y-134040100D02*
X175800000Y-126040100D01*
X176300000Y-123540000D02*
X176300000Y-120540000D01*
X180300000Y-125540000D02*
X180300000Y-119540000D01*
X179800000Y-134040100D02*
X179800000Y-126040100D01*
X179300000Y-123540000D02*
X179300000Y-120540000D01*
X175800000Y-120540000D02*
X175800000Y-117039000D01*
X176300000Y-120039900D02*
X176300000Y-117540000D01*
X176800000Y-126040100D02*
X176800000Y-125540000D01*
X179800000Y-120540000D02*
X179800000Y-117039900D01*
X179300000Y-120039900D02*
X179300000Y-117540000D01*
X178800000Y-126040100D02*
X178800000Y-125540000D01*
X179800000Y-134040100D02*
X175800000Y-134040100D01*
X175800000Y-126040100D02*
X179800000Y-126040100D01*
X179300100Y-123540000D02*
X176299900Y-123540000D01*
X175800000Y-120540000D02*
X179800000Y-120540000D01*
X175800000Y-117039900D02*
X179800000Y-117039900D01*
X179301000Y-120039900D02*
X176299000Y-120039900D01*
X179301000Y-117540000D02*
X176299000Y-117540000D01*
X180300100Y-134540000D02*
X175299900Y-134540000D01*
X180300100Y-125540000D02*
X175299900Y-125540000D01*
X175800000Y-119540000D02*
X175300000Y-119540000D01*
X180300000Y-119540000D02*
X179800000Y-119540000D01*
X165140000Y-134540000D02*
X165140000Y-125540000D01*
X170140000Y-125540000D02*
X170140000Y-134540000D01*
X165140000Y-125540000D02*
X165140000Y-119540000D01*
X165640000Y-134040100D02*
X165640000Y-126040100D01*
X166140000Y-123540000D02*
X166140000Y-120540000D01*
X170140000Y-125540000D02*
X170140000Y-119540000D01*
X169640000Y-134040100D02*
X169640000Y-126040100D01*
X169140000Y-123540000D02*
X169140000Y-120540000D01*
X165640000Y-120540000D02*
X165640000Y-117039000D01*
X166140000Y-120039900D02*
X166140000Y-117540000D01*
X166640000Y-126040100D02*
X166640000Y-125540000D01*
X169640000Y-120540000D02*
X169640000Y-117039900D01*
X169140000Y-120039900D02*
X169140000Y-117540000D01*
X168640000Y-126040100D02*
X168640000Y-125540000D01*
X169640000Y-134040100D02*
X165640000Y-134040100D01*
X165640000Y-126040100D02*
X169640000Y-126040100D01*
X169140100Y-123540000D02*
X166139900Y-123540000D01*
X165640000Y-120540000D02*
X169640000Y-120540000D01*
X165640000Y-117039900D02*
X169640000Y-117039900D01*
X169141000Y-120039900D02*
X166139000Y-120039900D01*
X169141000Y-117540000D02*
X166139000Y-117540000D01*
X170140100Y-134540000D02*
X165139900Y-134540000D01*
X170140100Y-125540000D02*
X165139900Y-125540000D01*
X165640000Y-119540000D02*
X165140000Y-119540000D01*
X170140000Y-119540000D02*
X169640000Y-119540000D01*
X160060000Y-134460000D02*
X160060000Y-125460000D01*
X165060000Y-125460000D02*
X165060000Y-134460000D01*
X160060000Y-125460000D02*
X160060000Y-119460000D01*
X160560000Y-133960100D02*
X160560000Y-125960100D01*
X161060000Y-123460000D02*
X161060000Y-120460000D01*
X165060000Y-125460000D02*
X165060000Y-119460000D01*
X164560000Y-133960100D02*
X164560000Y-125960100D01*
X164060000Y-123460000D02*
X164060000Y-120460000D01*
X160560000Y-120460000D02*
X160560000Y-116959000D01*
X161060000Y-119959900D02*
X161060000Y-117460000D01*
X161560000Y-125960100D02*
X161560000Y-125460000D01*
X164560000Y-120460000D02*
X164560000Y-116959900D01*
X164060000Y-119959900D02*
X164060000Y-117460000D01*
X163560000Y-125960100D02*
X163560000Y-125460000D01*
X164560000Y-133960100D02*
X160560000Y-133960100D01*
X160560000Y-125960100D02*
X164560000Y-125960100D01*
X164060100Y-123460000D02*
X161059900Y-123460000D01*
X160560000Y-120460000D02*
X164560000Y-120460000D01*
X160560000Y-116959900D02*
X164560000Y-116959900D01*
X164061000Y-119959900D02*
X161059000Y-119959900D01*
X164061000Y-117460000D02*
X161059000Y-117460000D01*
X165060100Y-134460000D02*
X160059900Y-134460000D01*
X165060100Y-125460000D02*
X160059900Y-125460000D01*
X160560000Y-119460000D02*
X160060000Y-119460000D01*
X165060000Y-119460000D02*
X164560000Y-119460000D01*
X154980000Y-134540000D02*
X154980000Y-125540000D01*
X159980000Y-125540000D02*
X159980000Y-134540000D01*
X154980000Y-125540000D02*
X154980000Y-119540000D01*
X155480000Y-134040100D02*
X155480000Y-126040100D01*
X155980000Y-123540000D02*
X155980000Y-120540000D01*
X159980000Y-125540000D02*
X159980000Y-119540000D01*
X159480000Y-134040100D02*
X159480000Y-126040100D01*
X158980000Y-123540000D02*
X158980000Y-120540000D01*
X155480000Y-120540000D02*
X155480000Y-117039000D01*
X155980000Y-120039900D02*
X155980000Y-117540000D01*
X156480000Y-126040100D02*
X156480000Y-125540000D01*
X159480000Y-120540000D02*
X159480000Y-117039900D01*
X158980000Y-120039900D02*
X158980000Y-117540000D01*
X158480000Y-126040100D02*
X158480000Y-125540000D01*
X159480000Y-134040100D02*
X155480000Y-134040100D01*
X155480000Y-126040100D02*
X159480000Y-126040100D01*
X158980100Y-123540000D02*
X155979900Y-123540000D01*
X155480000Y-120540000D02*
X159480000Y-120540000D01*
X155480000Y-117039900D02*
X159480000Y-117039900D01*
X158981000Y-120039900D02*
X155979000Y-120039900D01*
X158981000Y-117540000D02*
X155979000Y-117540000D01*
X159980100Y-134540000D02*
X154979900Y-134540000D01*
X159980100Y-125540000D02*
X154979900Y-125540000D01*
X155480000Y-119540000D02*
X154980000Y-119540000D01*
X159980000Y-119540000D02*
X159480000Y-119540000D01*
X149900000Y-134540000D02*
X149900000Y-125540000D01*
X154900000Y-125540000D02*
X154900000Y-134540000D01*
X149900000Y-125540000D02*
X149900000Y-119540000D01*
X150400000Y-134040100D02*
X150400000Y-126040100D01*
X150900000Y-123540000D02*
X150900000Y-120540000D01*
X154900000Y-125540000D02*
X154900000Y-119540000D01*
X154400000Y-134040100D02*
X154400000Y-126040100D01*
X153900000Y-123540000D02*
X153900000Y-120540000D01*
X150400000Y-120540000D02*
X150400000Y-117039000D01*
X150900000Y-120039900D02*
X150900000Y-117540000D01*
X151400000Y-126040100D02*
X151400000Y-125540000D01*
X154400000Y-120540000D02*
X154400000Y-117039900D01*
X153900000Y-120039900D02*
X153900000Y-117540000D01*
X153400000Y-126040100D02*
X153400000Y-125540000D01*
X154400000Y-134040100D02*
X150400000Y-134040100D01*
X150400000Y-126040100D02*
X154400000Y-126040100D01*
X153900100Y-123540000D02*
X150899900Y-123540000D01*
X150400000Y-120540000D02*
X154400000Y-120540000D01*
X150400000Y-117039900D02*
X154400000Y-117039900D01*
X153901000Y-120039900D02*
X150899000Y-120039900D01*
X153901000Y-117540000D02*
X150899000Y-117540000D01*
X154900100Y-134540000D02*
X149899900Y-134540000D01*
X154900100Y-125540000D02*
X149899900Y-125540000D01*
X150400000Y-119540000D02*
X149900000Y-119540000D01*
X154900000Y-119540000D02*
X154400000Y-119540000D01*
X139740000Y-134460000D02*
X139740000Y-125460000D01*
X144740000Y-125460000D02*
X144740000Y-134460000D01*
X139740000Y-125460000D02*
X139740000Y-119460000D01*
X140240000Y-133960100D02*
X140240000Y-125960100D01*
X140740000Y-123460000D02*
X140740000Y-120460000D01*
X144740000Y-125460000D02*
X144740000Y-119460000D01*
X144240000Y-133960100D02*
X144240000Y-125960100D01*
X143740000Y-123460000D02*
X143740000Y-120460000D01*
X140240000Y-120460000D02*
X140240000Y-116959000D01*
X140740000Y-119959900D02*
X140740000Y-117460000D01*
X141240000Y-125960100D02*
X141240000Y-125460000D01*
X144240000Y-120460000D02*
X144240000Y-116959900D01*
X143740000Y-119959900D02*
X143740000Y-117460000D01*
X143240000Y-125960100D02*
X143240000Y-125460000D01*
X144240000Y-133960100D02*
X140240000Y-133960100D01*
X140240000Y-125960100D02*
X144240000Y-125960100D01*
X143740100Y-123460000D02*
X140739900Y-123460000D01*
X140240000Y-120460000D02*
X144240000Y-120460000D01*
X140240000Y-116959900D02*
X144240000Y-116959900D01*
X143741000Y-119959900D02*
X140739000Y-119959900D01*
X143741000Y-117460000D02*
X140739000Y-117460000D01*
X144740100Y-134460000D02*
X139739900Y-134460000D01*
X144740100Y-125460000D02*
X139739900Y-125460000D01*
X140240000Y-119460000D02*
X139740000Y-119460000D01*
X144740000Y-119460000D02*
X144240000Y-119460000D01*
X134660000Y-134540000D02*
X134660000Y-125540000D01*
X139660000Y-125540000D02*
X139660000Y-134540000D01*
X134660000Y-125540000D02*
X134660000Y-119540000D01*
X135160000Y-134040100D02*
X135160000Y-126040100D01*
X135660000Y-123540000D02*
X135660000Y-120540000D01*
X139660000Y-125540000D02*
X139660000Y-119540000D01*
X139160000Y-134040100D02*
X139160000Y-126040100D01*
X138660000Y-123540000D02*
X138660000Y-120540000D01*
X135160000Y-120540000D02*
X135160000Y-117039000D01*
X135660000Y-120039900D02*
X135660000Y-117540000D01*
X136160000Y-126040100D02*
X136160000Y-125540000D01*
X139160000Y-120540000D02*
X139160000Y-117039900D01*
X138660000Y-120039900D02*
X138660000Y-117540000D01*
X138160000Y-126040100D02*
X138160000Y-125540000D01*
X139160000Y-134040100D02*
X135160000Y-134040100D01*
X135160000Y-126040100D02*
X139160000Y-126040100D01*
X138660100Y-123540000D02*
X135659900Y-123540000D01*
X135160000Y-120540000D02*
X139160000Y-120540000D01*
X135160000Y-117039900D02*
X139160000Y-117039900D01*
X138661000Y-120039900D02*
X135659000Y-120039900D01*
X138661000Y-117540000D02*
X135659000Y-117540000D01*
X139660100Y-134540000D02*
X134659900Y-134540000D01*
X139660100Y-125540000D02*
X134659900Y-125540000D01*
X135160000Y-119540000D02*
X134660000Y-119540000D01*
X139660000Y-119540000D02*
X139160000Y-119540000D01*
X129580000Y-134460000D02*
X129580000Y-125460000D01*
X134580000Y-125460000D02*
X134580000Y-134460000D01*
X129580000Y-125460000D02*
X129580000Y-119460000D01*
X130080000Y-133960100D02*
X130080000Y-125960100D01*
X130580000Y-123460000D02*
X130580000Y-120460000D01*
X134580000Y-125460000D02*
X134580000Y-119460000D01*
X134080000Y-133960100D02*
X134080000Y-125960100D01*
X133580000Y-123460000D02*
X133580000Y-120460000D01*
X130080000Y-120460000D02*
X130080000Y-116959000D01*
X130580000Y-119959900D02*
X130580000Y-117460000D01*
X131080000Y-125960100D02*
X131080000Y-125460000D01*
X134080000Y-120460000D02*
X134080000Y-116959900D01*
X133580000Y-119959900D02*
X133580000Y-117460000D01*
X133080000Y-125960100D02*
X133080000Y-125460000D01*
X134080000Y-133960100D02*
X130080000Y-133960100D01*
X130080000Y-125960100D02*
X134080000Y-125960100D01*
X133580100Y-123460000D02*
X130579900Y-123460000D01*
X130080000Y-120460000D02*
X134080000Y-120460000D01*
X130080000Y-116959900D02*
X134080000Y-116959900D01*
X133581000Y-119959900D02*
X130579000Y-119959900D01*
X133581000Y-117460000D02*
X130579000Y-117460000D01*
X134580100Y-134460000D02*
X129579900Y-134460000D01*
X134580100Y-125460000D02*
X129579900Y-125460000D01*
X130080000Y-119460000D02*
X129580000Y-119460000D01*
X134580000Y-119460000D02*
X134080000Y-119460000D01*
X124500000Y-134460000D02*
X124500000Y-125460000D01*
X129500000Y-125460000D02*
X129500000Y-134460000D01*
X124500000Y-125460000D02*
X124500000Y-119460000D01*
X125000000Y-133960100D02*
X125000000Y-125960100D01*
X125500000Y-123460000D02*
X125500000Y-120460000D01*
X129500000Y-125460000D02*
X129500000Y-119460000D01*
X129000000Y-133960100D02*
X129000000Y-125960100D01*
X128500000Y-123460000D02*
X128500000Y-120460000D01*
X125000000Y-120460000D02*
X125000000Y-116959000D01*
X125500000Y-119959900D02*
X125500000Y-117460000D01*
X126000000Y-125960100D02*
X126000000Y-125460000D01*
X129000000Y-120460000D02*
X129000000Y-116959900D01*
X128500000Y-119959900D02*
X128500000Y-117460000D01*
X128000000Y-125960100D02*
X128000000Y-125460000D01*
X129000000Y-133960100D02*
X125000000Y-133960100D01*
X125000000Y-125960100D02*
X129000000Y-125960100D01*
X128500100Y-123460000D02*
X125499900Y-123460000D01*
X125000000Y-120460000D02*
X129000000Y-120460000D01*
X125000000Y-116959900D02*
X129000000Y-116959900D01*
X128501000Y-119959900D02*
X125499000Y-119959900D01*
X128501000Y-117460000D02*
X125499000Y-117460000D01*
X129500100Y-134460000D02*
X124499900Y-134460000D01*
X129500100Y-125460000D02*
X124499900Y-125460000D01*
X125000000Y-119460000D02*
X124500000Y-119460000D01*
X129500000Y-119460000D02*
X129000000Y-119460000D01*
X114340000Y-134460000D02*
X114340000Y-125460000D01*
X119340000Y-125460000D02*
X119340000Y-134460000D01*
X114340000Y-125460000D02*
X114340000Y-119460000D01*
X114840000Y-133960100D02*
X114840000Y-125960100D01*
X115340000Y-123460000D02*
X115340000Y-120460000D01*
X119340000Y-125460000D02*
X119340000Y-119460000D01*
X118840000Y-133960100D02*
X118840000Y-125960100D01*
X118340000Y-123460000D02*
X118340000Y-120460000D01*
X114840000Y-120460000D02*
X114840000Y-116959000D01*
X115340000Y-119959900D02*
X115340000Y-117460000D01*
X115840000Y-125960100D02*
X115840000Y-125460000D01*
X118840000Y-120460000D02*
X118840000Y-116959900D01*
X118340000Y-119959900D02*
X118340000Y-117460000D01*
X117840000Y-125960100D02*
X117840000Y-125460000D01*
X118840000Y-133960100D02*
X114840000Y-133960100D01*
X114840000Y-125960100D02*
X118840000Y-125960100D01*
X118340100Y-123460000D02*
X115339900Y-123460000D01*
X114840000Y-120460000D02*
X118840000Y-120460000D01*
X114840000Y-116959900D02*
X118840000Y-116959900D01*
X118341000Y-119959900D02*
X115339000Y-119959900D01*
X118341000Y-117460000D02*
X115339000Y-117460000D01*
X119340100Y-134460000D02*
X114339900Y-134460000D01*
X119340100Y-125460000D02*
X114339900Y-125460000D01*
X114840000Y-119460000D02*
X114340000Y-119460000D01*
X119340000Y-119460000D02*
X118840000Y-119460000D01*
X109260000Y-134460000D02*
X109260000Y-125460000D01*
X114260000Y-125460000D02*
X114260000Y-134460000D01*
X109260000Y-125460000D02*
X109260000Y-119460000D01*
X109760000Y-133960100D02*
X109760000Y-125960100D01*
X110260000Y-123460000D02*
X110260000Y-120460000D01*
X114260000Y-125460000D02*
X114260000Y-119460000D01*
X113760000Y-133960100D02*
X113760000Y-125960100D01*
X113260000Y-123460000D02*
X113260000Y-120460000D01*
X109760000Y-120460000D02*
X109760000Y-116959000D01*
X110260000Y-119959900D02*
X110260000Y-117460000D01*
X110760000Y-125960100D02*
X110760000Y-125460000D01*
X113760000Y-120460000D02*
X113760000Y-116959900D01*
X113260000Y-119959900D02*
X113260000Y-117460000D01*
X112760000Y-125960100D02*
X112760000Y-125460000D01*
X113760000Y-133960100D02*
X109760000Y-133960100D01*
X109760000Y-125960100D02*
X113760000Y-125960100D01*
X113260100Y-123460000D02*
X110259900Y-123460000D01*
X109760000Y-120460000D02*
X113760000Y-120460000D01*
X109760000Y-116959900D02*
X113760000Y-116959900D01*
X113261000Y-119959900D02*
X110259000Y-119959900D01*
X113261000Y-117460000D02*
X110259000Y-117460000D01*
X114260100Y-134460000D02*
X109259900Y-134460000D01*
X114260100Y-125460000D02*
X109259900Y-125460000D01*
X109760000Y-119460000D02*
X109260000Y-119460000D01*
X114260000Y-119460000D02*
X113760000Y-119460000D01*
X104180000Y-134460000D02*
X104180000Y-125460000D01*
X109180000Y-125460000D02*
X109180000Y-134460000D01*
X104180000Y-125460000D02*
X104180000Y-119460000D01*
X104680000Y-133960100D02*
X104680000Y-125960100D01*
X105180000Y-123460000D02*
X105180000Y-120460000D01*
X109180000Y-125460000D02*
X109180000Y-119460000D01*
X108680000Y-133960100D02*
X108680000Y-125960100D01*
X108180000Y-123460000D02*
X108180000Y-120460000D01*
X104680000Y-120460000D02*
X104680000Y-116959000D01*
X105180000Y-119959900D02*
X105180000Y-117460000D01*
X105680000Y-125960100D02*
X105680000Y-125460000D01*
X108680000Y-120460000D02*
X108680000Y-116959900D01*
X108180000Y-119959900D02*
X108180000Y-117460000D01*
X107680000Y-125960100D02*
X107680000Y-125460000D01*
X108680000Y-133960100D02*
X104680000Y-133960100D01*
X104680000Y-125960100D02*
X108680000Y-125960100D01*
X108180100Y-123460000D02*
X105179900Y-123460000D01*
X104680000Y-120460000D02*
X108680000Y-120460000D01*
X104680000Y-116959900D02*
X108680000Y-116959900D01*
X108181000Y-119959900D02*
X105179000Y-119959900D01*
X108181000Y-117460000D02*
X105179000Y-117460000D01*
X109180100Y-134460000D02*
X104179900Y-134460000D01*
X109180100Y-125460000D02*
X104179900Y-125460000D01*
X104680000Y-119460000D02*
X104180000Y-119460000D01*
X109180000Y-119460000D02*
X108680000Y-119460000D01*
X99100000Y-134540000D02*
X99100000Y-125540000D01*
X104100000Y-125540000D02*
X104100000Y-134540000D01*
X99100000Y-125540000D02*
X99100000Y-119540000D01*
X99600000Y-134040100D02*
X99600000Y-126040100D01*
X100100000Y-123540000D02*
X100100000Y-120540000D01*
X104100000Y-125540000D02*
X104100000Y-119540000D01*
X103600000Y-134040100D02*
X103600000Y-126040100D01*
X103100000Y-123540000D02*
X103100000Y-120540000D01*
X99600000Y-120540000D02*
X99600000Y-117039000D01*
X100100000Y-120039900D02*
X100100000Y-117540000D01*
X100600000Y-126040100D02*
X100600000Y-125540000D01*
X103600000Y-120540000D02*
X103600000Y-117039900D01*
X103100000Y-120039900D02*
X103100000Y-117540000D01*
X102600000Y-126040100D02*
X102600000Y-125540000D01*
X103600000Y-134040100D02*
X99600000Y-134040100D01*
X99600000Y-126040100D02*
X103600000Y-126040100D01*
X103100100Y-123540000D02*
X100099900Y-123540000D01*
X99600000Y-120540000D02*
X103600000Y-120540000D01*
X99600000Y-117039900D02*
X103600000Y-117039900D01*
X103101000Y-120039900D02*
X100099000Y-120039900D01*
X103101000Y-117540000D02*
X100099000Y-117540000D01*
X104100100Y-134540000D02*
X99099900Y-134540000D01*
X104100100Y-125540000D02*
X99099900Y-125540000D01*
X99600000Y-119540000D02*
X99100000Y-119540000D01*
X104100000Y-119540000D02*
X103600000Y-119540000D01*
D11*
X190500000Y-51050000D02*
X190500000Y-50040000D01*
X195580000Y-51050000D02*
X190500000Y-51050000D01*
X195580000Y-50040000D02*
X195580000Y-51050000D01*
X196930000Y-49940000D02*
X196930000Y-55940000D01*
X186630000Y-49940000D02*
X196930000Y-49940000D01*
X186630000Y-55890000D02*
X186630000Y-49940000D01*
X189830000Y-55890000D02*
X186630000Y-55890000D01*
X196930000Y-55940000D02*
X191180000Y-55940000D01*
X177800000Y-51050000D02*
X177800000Y-50040000D01*
X182880000Y-51050000D02*
X177800000Y-51050000D01*
X182880000Y-50040000D02*
X182880000Y-51050000D01*
X184230000Y-49940000D02*
X184230000Y-55940000D01*
X173930000Y-49940000D02*
X184230000Y-49940000D01*
X173930000Y-55890000D02*
X173930000Y-49940000D01*
X177130000Y-55890000D02*
X173930000Y-55890000D01*
X184230000Y-55940000D02*
X178480000Y-55940000D01*
X165100000Y-51050000D02*
X165100000Y-50040000D01*
X170180000Y-51050000D02*
X165100000Y-51050000D01*
X170180000Y-50040000D02*
X170180000Y-51050000D01*
X171530000Y-49940000D02*
X171530000Y-55940000D01*
X161230000Y-49940000D02*
X171530000Y-49940000D01*
X161230000Y-55890000D02*
X161230000Y-49940000D01*
X164430000Y-55890000D02*
X161230000Y-55890000D01*
X171530000Y-55940000D02*
X165780000Y-55940000D01*
D10*
X119964904Y-58811523D02*
X119964904Y-59554380D01*
X118664904Y-59182952D02*
X119964904Y-59182952D01*
X119964904Y-59863904D02*
X118664904Y-60730571D01*
X119964904Y-60730571D02*
X118664904Y-59863904D01*
X118664904Y-61225809D02*
X119964904Y-61225809D01*
X119964904Y-61535333D01*
X119903000Y-61721047D01*
X119779190Y-61844857D01*
X119655380Y-61906761D01*
X119407761Y-61968666D01*
X119222047Y-61968666D01*
X118974428Y-61906761D01*
X118850619Y-61844857D01*
X118726809Y-61721047D01*
X118664904Y-61535333D01*
X118664904Y-61225809D01*
X106153809Y-58936285D02*
X106091904Y-59122000D01*
X106091904Y-59431523D01*
X106153809Y-59555333D01*
X106215714Y-59617238D01*
X106339523Y-59679142D01*
X106463333Y-59679142D01*
X106587142Y-59617238D01*
X106649047Y-59555333D01*
X106710952Y-59431523D01*
X106772857Y-59183904D01*
X106834761Y-59060095D01*
X106896666Y-58998190D01*
X107020476Y-58936285D01*
X107144285Y-58936285D01*
X107268095Y-58998190D01*
X107330000Y-59060095D01*
X107391904Y-59183904D01*
X107391904Y-59493428D01*
X107330000Y-59679142D01*
X106091904Y-60236285D02*
X106958571Y-60236285D01*
X107391904Y-60236285D02*
X107330000Y-60174380D01*
X107268095Y-60236285D01*
X107330000Y-60298190D01*
X107391904Y-60236285D01*
X107268095Y-60236285D01*
X106958571Y-61412476D02*
X105906190Y-61412476D01*
X105782380Y-61350571D01*
X105720476Y-61288666D01*
X105658571Y-61164857D01*
X105658571Y-60979142D01*
X105720476Y-60855333D01*
X106153809Y-61412476D02*
X106091904Y-61288666D01*
X106091904Y-61041047D01*
X106153809Y-60917238D01*
X106215714Y-60855333D01*
X106339523Y-60793428D01*
X106710952Y-60793428D01*
X106834761Y-60855333D01*
X106896666Y-60917238D01*
X106958571Y-61041047D01*
X106958571Y-61288666D01*
X106896666Y-61412476D01*
X106958571Y-62031523D02*
X106091904Y-62031523D01*
X106834761Y-62031523D02*
X106896666Y-62093428D01*
X106958571Y-62217238D01*
X106958571Y-62402952D01*
X106896666Y-62526761D01*
X106772857Y-62588666D01*
X106091904Y-62588666D01*
X106091904Y-63764857D02*
X106772857Y-63764857D01*
X106896666Y-63702952D01*
X106958571Y-63579142D01*
X106958571Y-63331523D01*
X106896666Y-63207714D01*
X106153809Y-63764857D02*
X106091904Y-63641047D01*
X106091904Y-63331523D01*
X106153809Y-63207714D01*
X106277619Y-63145809D01*
X106401428Y-63145809D01*
X106525238Y-63207714D01*
X106587142Y-63331523D01*
X106587142Y-63641047D01*
X106649047Y-63764857D01*
X106091904Y-64569619D02*
X106153809Y-64445809D01*
X106277619Y-64383904D01*
X107391904Y-64383904D01*
X122728904Y-59585333D02*
X123347952Y-59152000D01*
X122728904Y-58842476D02*
X124028904Y-58842476D01*
X124028904Y-59337714D01*
X123967000Y-59461523D01*
X123905095Y-59523428D01*
X123781285Y-59585333D01*
X123595571Y-59585333D01*
X123471761Y-59523428D01*
X123409857Y-59461523D01*
X123347952Y-59337714D01*
X123347952Y-58842476D01*
X124028904Y-60018666D02*
X122728904Y-60885333D01*
X124028904Y-60885333D02*
X122728904Y-60018666D01*
X122728904Y-61380571D02*
X124028904Y-61380571D01*
X124028904Y-61690095D01*
X123967000Y-61875809D01*
X123843190Y-61999619D01*
X123719380Y-62061523D01*
X123471761Y-62123428D01*
X123286047Y-62123428D01*
X123038428Y-62061523D01*
X122914619Y-61999619D01*
X122790809Y-61875809D01*
X122728904Y-61690095D01*
X122728904Y-61380571D01*
X92801904Y-56976095D02*
X92368571Y-56357047D01*
X92059047Y-56976095D02*
X92059047Y-55676095D01*
X92554285Y-55676095D01*
X92678095Y-55738000D01*
X92740000Y-55799904D01*
X92801904Y-55923714D01*
X92801904Y-56109428D01*
X92740000Y-56233238D01*
X92678095Y-56295142D01*
X92554285Y-56357047D01*
X92059047Y-56357047D01*
X93359047Y-56295142D02*
X93792380Y-56295142D01*
X93978095Y-56976095D02*
X93359047Y-56976095D01*
X93359047Y-55676095D01*
X93978095Y-55676095D01*
X94473333Y-56914190D02*
X94659047Y-56976095D01*
X94968571Y-56976095D01*
X95092380Y-56914190D01*
X95154285Y-56852285D01*
X95216190Y-56728476D01*
X95216190Y-56604666D01*
X95154285Y-56480857D01*
X95092380Y-56418952D01*
X94968571Y-56357047D01*
X94720952Y-56295142D01*
X94597142Y-56233238D01*
X94535238Y-56171333D01*
X94473333Y-56047523D01*
X94473333Y-55923714D01*
X94535238Y-55799904D01*
X94597142Y-55738000D01*
X94720952Y-55676095D01*
X95030476Y-55676095D01*
X95216190Y-55738000D01*
X95773333Y-56295142D02*
X96206666Y-56295142D01*
X96392380Y-56976095D02*
X95773333Y-56976095D01*
X95773333Y-55676095D01*
X96392380Y-55676095D01*
X96763809Y-55676095D02*
X97506666Y-55676095D01*
X97135238Y-56976095D02*
X97135238Y-55676095D01*
D13*
X188658571Y-104252619D02*
X188563333Y-104205000D01*
X188468095Y-104109761D01*
X188325238Y-103966904D01*
X188230000Y-103919285D01*
X188134761Y-103919285D01*
X188182380Y-104157380D02*
X188087142Y-104109761D01*
X187991904Y-104014523D01*
X187944285Y-103824047D01*
X187944285Y-103490714D01*
X187991904Y-103300238D01*
X188087142Y-103205000D01*
X188182380Y-103157380D01*
X188372857Y-103157380D01*
X188468095Y-103205000D01*
X188563333Y-103300238D01*
X188610952Y-103490714D01*
X188610952Y-103824047D01*
X188563333Y-104014523D01*
X188468095Y-104109761D01*
X188372857Y-104157380D01*
X188182380Y-104157380D01*
X189563333Y-104157380D02*
X188991904Y-104157380D01*
X189277619Y-104157380D02*
X189277619Y-103157380D01*
X189182380Y-103300238D01*
X189087142Y-103395476D01*
X188991904Y-103443095D01*
X190182380Y-103157380D02*
X190277619Y-103157380D01*
X190372857Y-103205000D01*
X190420476Y-103252619D01*
X190468095Y-103347857D01*
X190515714Y-103538333D01*
X190515714Y-103776428D01*
X190468095Y-103966904D01*
X190420476Y-104062142D01*
X190372857Y-104109761D01*
X190277619Y-104157380D01*
X190182380Y-104157380D01*
X190087142Y-104109761D01*
X190039523Y-104062142D01*
X189991904Y-103966904D01*
X189944285Y-103776428D01*
X189944285Y-103538333D01*
X189991904Y-103347857D01*
X190039523Y-103252619D01*
X190087142Y-103205000D01*
X190182380Y-103157380D01*
X177704761Y-104252619D02*
X177609523Y-104205000D01*
X177514285Y-104109761D01*
X177371428Y-103966904D01*
X177276190Y-103919285D01*
X177180952Y-103919285D01*
X177228571Y-104157380D02*
X177133333Y-104109761D01*
X177038095Y-104014523D01*
X176990476Y-103824047D01*
X176990476Y-103490714D01*
X177038095Y-103300238D01*
X177133333Y-103205000D01*
X177228571Y-103157380D01*
X177419047Y-103157380D01*
X177514285Y-103205000D01*
X177609523Y-103300238D01*
X177657142Y-103490714D01*
X177657142Y-103824047D01*
X177609523Y-104014523D01*
X177514285Y-104109761D01*
X177419047Y-104157380D01*
X177228571Y-104157380D01*
X178133333Y-104157380D02*
X178323809Y-104157380D01*
X178419047Y-104109761D01*
X178466666Y-104062142D01*
X178561904Y-103919285D01*
X178609523Y-103728809D01*
X178609523Y-103347857D01*
X178561904Y-103252619D01*
X178514285Y-103205000D01*
X178419047Y-103157380D01*
X178228571Y-103157380D01*
X178133333Y-103205000D01*
X178085714Y-103252619D01*
X178038095Y-103347857D01*
X178038095Y-103585952D01*
X178085714Y-103681190D01*
X178133333Y-103728809D01*
X178228571Y-103776428D01*
X178419047Y-103776428D01*
X178514285Y-103728809D01*
X178561904Y-103681190D01*
X178609523Y-103585952D01*
X163734761Y-104252619D02*
X163639523Y-104205000D01*
X163544285Y-104109761D01*
X163401428Y-103966904D01*
X163306190Y-103919285D01*
X163210952Y-103919285D01*
X163258571Y-104157380D02*
X163163333Y-104109761D01*
X163068095Y-104014523D01*
X163020476Y-103824047D01*
X163020476Y-103490714D01*
X163068095Y-103300238D01*
X163163333Y-103205000D01*
X163258571Y-103157380D01*
X163449047Y-103157380D01*
X163544285Y-103205000D01*
X163639523Y-103300238D01*
X163687142Y-103490714D01*
X163687142Y-103824047D01*
X163639523Y-104014523D01*
X163544285Y-104109761D01*
X163449047Y-104157380D01*
X163258571Y-104157380D01*
X164258571Y-103585952D02*
X164163333Y-103538333D01*
X164115714Y-103490714D01*
X164068095Y-103395476D01*
X164068095Y-103347857D01*
X164115714Y-103252619D01*
X164163333Y-103205000D01*
X164258571Y-103157380D01*
X164449047Y-103157380D01*
X164544285Y-103205000D01*
X164591904Y-103252619D01*
X164639523Y-103347857D01*
X164639523Y-103395476D01*
X164591904Y-103490714D01*
X164544285Y-103538333D01*
X164449047Y-103585952D01*
X164258571Y-103585952D01*
X164163333Y-103633571D01*
X164115714Y-103681190D01*
X164068095Y-103776428D01*
X164068095Y-103966904D01*
X164115714Y-104062142D01*
X164163333Y-104109761D01*
X164258571Y-104157380D01*
X164449047Y-104157380D01*
X164544285Y-104109761D01*
X164591904Y-104062142D01*
X164639523Y-103966904D01*
X164639523Y-103776428D01*
X164591904Y-103681190D01*
X164544285Y-103633571D01*
X164449047Y-103585952D01*
X152304761Y-104252619D02*
X152209523Y-104205000D01*
X152114285Y-104109761D01*
X151971428Y-103966904D01*
X151876190Y-103919285D01*
X151780952Y-103919285D01*
X151828571Y-104157380D02*
X151733333Y-104109761D01*
X151638095Y-104014523D01*
X151590476Y-103824047D01*
X151590476Y-103490714D01*
X151638095Y-103300238D01*
X151733333Y-103205000D01*
X151828571Y-103157380D01*
X152019047Y-103157380D01*
X152114285Y-103205000D01*
X152209523Y-103300238D01*
X152257142Y-103490714D01*
X152257142Y-103824047D01*
X152209523Y-104014523D01*
X152114285Y-104109761D01*
X152019047Y-104157380D01*
X151828571Y-104157380D01*
X152590476Y-103157380D02*
X153257142Y-103157380D01*
X152828571Y-104157380D01*
X138334761Y-104252619D02*
X138239523Y-104205000D01*
X138144285Y-104109761D01*
X138001428Y-103966904D01*
X137906190Y-103919285D01*
X137810952Y-103919285D01*
X137858571Y-104157380D02*
X137763333Y-104109761D01*
X137668095Y-104014523D01*
X137620476Y-103824047D01*
X137620476Y-103490714D01*
X137668095Y-103300238D01*
X137763333Y-103205000D01*
X137858571Y-103157380D01*
X138049047Y-103157380D01*
X138144285Y-103205000D01*
X138239523Y-103300238D01*
X138287142Y-103490714D01*
X138287142Y-103824047D01*
X138239523Y-104014523D01*
X138144285Y-104109761D01*
X138049047Y-104157380D01*
X137858571Y-104157380D01*
X139144285Y-103157380D02*
X138953809Y-103157380D01*
X138858571Y-103205000D01*
X138810952Y-103252619D01*
X138715714Y-103395476D01*
X138668095Y-103585952D01*
X138668095Y-103966904D01*
X138715714Y-104062142D01*
X138763333Y-104109761D01*
X138858571Y-104157380D01*
X139049047Y-104157380D01*
X139144285Y-104109761D01*
X139191904Y-104062142D01*
X139239523Y-103966904D01*
X139239523Y-103728809D01*
X139191904Y-103633571D01*
X139144285Y-103585952D01*
X139049047Y-103538333D01*
X138858571Y-103538333D01*
X138763333Y-103585952D01*
X138715714Y-103633571D01*
X138668095Y-103728809D01*
X126904761Y-104252619D02*
X126809523Y-104205000D01*
X126714285Y-104109761D01*
X126571428Y-103966904D01*
X126476190Y-103919285D01*
X126380952Y-103919285D01*
X126428571Y-104157380D02*
X126333333Y-104109761D01*
X126238095Y-104014523D01*
X126190476Y-103824047D01*
X126190476Y-103490714D01*
X126238095Y-103300238D01*
X126333333Y-103205000D01*
X126428571Y-103157380D01*
X126619047Y-103157380D01*
X126714285Y-103205000D01*
X126809523Y-103300238D01*
X126857142Y-103490714D01*
X126857142Y-103824047D01*
X126809523Y-104014523D01*
X126714285Y-104109761D01*
X126619047Y-104157380D01*
X126428571Y-104157380D01*
X127761904Y-103157380D02*
X127285714Y-103157380D01*
X127238095Y-103633571D01*
X127285714Y-103585952D01*
X127380952Y-103538333D01*
X127619047Y-103538333D01*
X127714285Y-103585952D01*
X127761904Y-103633571D01*
X127809523Y-103728809D01*
X127809523Y-103966904D01*
X127761904Y-104062142D01*
X127714285Y-104109761D01*
X127619047Y-104157380D01*
X127380952Y-104157380D01*
X127285714Y-104109761D01*
X127238095Y-104062142D01*
X112934761Y-104252619D02*
X112839523Y-104205000D01*
X112744285Y-104109761D01*
X112601428Y-103966904D01*
X112506190Y-103919285D01*
X112410952Y-103919285D01*
X112458571Y-104157380D02*
X112363333Y-104109761D01*
X112268095Y-104014523D01*
X112220476Y-103824047D01*
X112220476Y-103490714D01*
X112268095Y-103300238D01*
X112363333Y-103205000D01*
X112458571Y-103157380D01*
X112649047Y-103157380D01*
X112744285Y-103205000D01*
X112839523Y-103300238D01*
X112887142Y-103490714D01*
X112887142Y-103824047D01*
X112839523Y-104014523D01*
X112744285Y-104109761D01*
X112649047Y-104157380D01*
X112458571Y-104157380D01*
X113744285Y-103490714D02*
X113744285Y-104157380D01*
X113506190Y-103109761D02*
X113268095Y-103824047D01*
X113887142Y-103824047D01*
X100234761Y-104252619D02*
X100139523Y-104205000D01*
X100044285Y-104109761D01*
X99901428Y-103966904D01*
X99806190Y-103919285D01*
X99710952Y-103919285D01*
X99758571Y-104157380D02*
X99663333Y-104109761D01*
X99568095Y-104014523D01*
X99520476Y-103824047D01*
X99520476Y-103490714D01*
X99568095Y-103300238D01*
X99663333Y-103205000D01*
X99758571Y-103157380D01*
X99949047Y-103157380D01*
X100044285Y-103205000D01*
X100139523Y-103300238D01*
X100187142Y-103490714D01*
X100187142Y-103824047D01*
X100139523Y-104014523D01*
X100044285Y-104109761D01*
X99949047Y-104157380D01*
X99758571Y-104157380D01*
X100520476Y-103157380D02*
X101139523Y-103157380D01*
X100806190Y-103538333D01*
X100949047Y-103538333D01*
X101044285Y-103585952D01*
X101091904Y-103633571D01*
X101139523Y-103728809D01*
X101139523Y-103966904D01*
X101091904Y-104062142D01*
X101044285Y-104109761D01*
X100949047Y-104157380D01*
X100663333Y-104157380D01*
X100568095Y-104109761D01*
X100520476Y-104062142D01*
D10*
X109901904Y-58898952D02*
X111201904Y-58898952D01*
X111201904Y-59394190D01*
X111140000Y-59518000D01*
X111078095Y-59579904D01*
X110954285Y-59641809D01*
X110768571Y-59641809D01*
X110644761Y-59579904D01*
X110582857Y-59518000D01*
X110520952Y-59394190D01*
X110520952Y-58898952D01*
X109901904Y-60384666D02*
X109963809Y-60260857D01*
X110025714Y-60198952D01*
X110149523Y-60137047D01*
X110520952Y-60137047D01*
X110644761Y-60198952D01*
X110706666Y-60260857D01*
X110768571Y-60384666D01*
X110768571Y-60570380D01*
X110706666Y-60694190D01*
X110644761Y-60756095D01*
X110520952Y-60818000D01*
X110149523Y-60818000D01*
X110025714Y-60756095D01*
X109963809Y-60694190D01*
X109901904Y-60570380D01*
X109901904Y-60384666D01*
X110768571Y-61251333D02*
X109901904Y-61498952D01*
X110520952Y-61746571D01*
X109901904Y-61994190D01*
X110768571Y-62241809D01*
X109963809Y-63232285D02*
X109901904Y-63108476D01*
X109901904Y-62860857D01*
X109963809Y-62737047D01*
X110087619Y-62675142D01*
X110582857Y-62675142D01*
X110706666Y-62737047D01*
X110768571Y-62860857D01*
X110768571Y-63108476D01*
X110706666Y-63232285D01*
X110582857Y-63294190D01*
X110459047Y-63294190D01*
X110335238Y-62675142D01*
X109901904Y-63851333D02*
X110768571Y-63851333D01*
X110520952Y-63851333D02*
X110644761Y-63913238D01*
X110706666Y-63975142D01*
X110768571Y-64098952D01*
X110768571Y-64222761D01*
X92337619Y-69676095D02*
X92337619Y-68376095D01*
X92770952Y-69304666D01*
X93204285Y-68376095D01*
X93204285Y-69676095D01*
X94070952Y-68376095D02*
X94318571Y-68376095D01*
X94442380Y-68438000D01*
X94566190Y-68561809D01*
X94628095Y-68809428D01*
X94628095Y-69242761D01*
X94566190Y-69490380D01*
X94442380Y-69614190D01*
X94318571Y-69676095D01*
X94070952Y-69676095D01*
X93947142Y-69614190D01*
X93823333Y-69490380D01*
X93761428Y-69242761D01*
X93761428Y-68809428D01*
X93823333Y-68561809D01*
X93947142Y-68438000D01*
X94070952Y-68376095D01*
X95185238Y-69676095D02*
X95185238Y-68376095D01*
X95494761Y-68376095D01*
X95680476Y-68438000D01*
X95804285Y-68561809D01*
X95866190Y-68685619D01*
X95928095Y-68933238D01*
X95928095Y-69118952D01*
X95866190Y-69366571D01*
X95804285Y-69490380D01*
X95680476Y-69614190D01*
X95494761Y-69676095D01*
X95185238Y-69676095D01*
X96485238Y-68995142D02*
X96918571Y-68995142D01*
X97104285Y-69676095D02*
X96485238Y-69676095D01*
X96485238Y-68376095D01*
X97104285Y-68376095D01*
X106121904Y-84209285D02*
X105069523Y-84209285D01*
X104945714Y-84271190D01*
X104883809Y-84333095D01*
X104821904Y-84456904D01*
X104821904Y-84704523D01*
X104883809Y-84828333D01*
X104945714Y-84890238D01*
X105069523Y-84952142D01*
X106121904Y-84952142D01*
X104883809Y-85509285D02*
X104821904Y-85695000D01*
X104821904Y-86004523D01*
X104883809Y-86128333D01*
X104945714Y-86190238D01*
X105069523Y-86252142D01*
X105193333Y-86252142D01*
X105317142Y-86190238D01*
X105379047Y-86128333D01*
X105440952Y-86004523D01*
X105502857Y-85756904D01*
X105564761Y-85633095D01*
X105626666Y-85571190D01*
X105750476Y-85509285D01*
X105874285Y-85509285D01*
X105998095Y-85571190D01*
X106060000Y-85633095D01*
X106121904Y-85756904D01*
X106121904Y-86066428D01*
X106060000Y-86252142D01*
X105502857Y-87242619D02*
X105440952Y-87428333D01*
X105379047Y-87490238D01*
X105255238Y-87552142D01*
X105069523Y-87552142D01*
X104945714Y-87490238D01*
X104883809Y-87428333D01*
X104821904Y-87304523D01*
X104821904Y-86809285D01*
X106121904Y-86809285D01*
X106121904Y-87242619D01*
X106060000Y-87366428D01*
X105998095Y-87428333D01*
X105874285Y-87490238D01*
X105750476Y-87490238D01*
X105626666Y-87428333D01*
X105564761Y-87366428D01*
X105502857Y-87242619D01*
X105502857Y-86809285D01*
X104698095Y-87799761D02*
X104698095Y-88790238D01*
X105502857Y-89533095D02*
X105440952Y-89718809D01*
X105379047Y-89780714D01*
X105255238Y-89842619D01*
X105069523Y-89842619D01*
X104945714Y-89780714D01*
X104883809Y-89718809D01*
X104821904Y-89595000D01*
X104821904Y-89099761D01*
X106121904Y-89099761D01*
X106121904Y-89533095D01*
X106060000Y-89656904D01*
X105998095Y-89718809D01*
X105874285Y-89780714D01*
X105750476Y-89780714D01*
X105626666Y-89718809D01*
X105564761Y-89656904D01*
X105502857Y-89533095D01*
X105502857Y-89099761D01*
D14*
X147546190Y-54848142D02*
X147546190Y-55133857D01*
X147546190Y-54991000D02*
X147046190Y-54991000D01*
X147117619Y-55038619D01*
X147165238Y-55086238D01*
X147189047Y-55133857D01*
D15*
X191806285Y-132087428D02*
X191806285Y-133176000D01*
X191733714Y-133393714D01*
X191588571Y-133538857D01*
X191370857Y-133611428D01*
X191225714Y-133611428D01*
X193330285Y-133611428D02*
X192459428Y-133611428D01*
X192894857Y-133611428D02*
X192894857Y-132087428D01*
X192749714Y-132305142D01*
X192604571Y-132450285D01*
X192459428Y-132522857D01*
X194636571Y-132087428D02*
X194346285Y-132087428D01*
X194201142Y-132160000D01*
X194128571Y-132232571D01*
X193983428Y-132450285D01*
X193910857Y-132740571D01*
X193910857Y-133321142D01*
X193983428Y-133466285D01*
X194056000Y-133538857D01*
X194201142Y-133611428D01*
X194491428Y-133611428D01*
X194636571Y-133538857D01*
X194709142Y-133466285D01*
X194781714Y-133321142D01*
X194781714Y-132958285D01*
X194709142Y-132813142D01*
X194636571Y-132740571D01*
X194491428Y-132668000D01*
X194201142Y-132668000D01*
X194056000Y-132740571D01*
X193983428Y-132813142D01*
X193910857Y-132958285D01*
X186726285Y-132087428D02*
X186726285Y-133176000D01*
X186653714Y-133393714D01*
X186508571Y-133538857D01*
X186290857Y-133611428D01*
X186145714Y-133611428D01*
X188250285Y-133611428D02*
X187379428Y-133611428D01*
X187814857Y-133611428D02*
X187814857Y-132087428D01*
X187669714Y-132305142D01*
X187524571Y-132450285D01*
X187379428Y-132522857D01*
X189629142Y-132087428D02*
X188903428Y-132087428D01*
X188830857Y-132813142D01*
X188903428Y-132740571D01*
X189048571Y-132668000D01*
X189411428Y-132668000D01*
X189556571Y-132740571D01*
X189629142Y-132813142D01*
X189701714Y-132958285D01*
X189701714Y-133321142D01*
X189629142Y-133466285D01*
X189556571Y-133538857D01*
X189411428Y-133611428D01*
X189048571Y-133611428D01*
X188903428Y-133538857D01*
X188830857Y-133466285D01*
X181646285Y-132007428D02*
X181646285Y-133096000D01*
X181573714Y-133313714D01*
X181428571Y-133458857D01*
X181210857Y-133531428D01*
X181065714Y-133531428D01*
X183170285Y-133531428D02*
X182299428Y-133531428D01*
X182734857Y-133531428D02*
X182734857Y-132007428D01*
X182589714Y-132225142D01*
X182444571Y-132370285D01*
X182299428Y-132442857D01*
X184476571Y-132515428D02*
X184476571Y-133531428D01*
X184113714Y-131934857D02*
X183750857Y-133023428D01*
X184694285Y-133023428D01*
X176566285Y-132087428D02*
X176566285Y-133176000D01*
X176493714Y-133393714D01*
X176348571Y-133538857D01*
X176130857Y-133611428D01*
X175985714Y-133611428D01*
X178090285Y-133611428D02*
X177219428Y-133611428D01*
X177654857Y-133611428D02*
X177654857Y-132087428D01*
X177509714Y-132305142D01*
X177364571Y-132450285D01*
X177219428Y-132522857D01*
X178598285Y-132087428D02*
X179541714Y-132087428D01*
X179033714Y-132668000D01*
X179251428Y-132668000D01*
X179396571Y-132740571D01*
X179469142Y-132813142D01*
X179541714Y-132958285D01*
X179541714Y-133321142D01*
X179469142Y-133466285D01*
X179396571Y-133538857D01*
X179251428Y-133611428D01*
X178816000Y-133611428D01*
X178670857Y-133538857D01*
X178598285Y-133466285D01*
X166406285Y-132087428D02*
X166406285Y-133176000D01*
X166333714Y-133393714D01*
X166188571Y-133538857D01*
X165970857Y-133611428D01*
X165825714Y-133611428D01*
X167930285Y-133611428D02*
X167059428Y-133611428D01*
X167494857Y-133611428D02*
X167494857Y-132087428D01*
X167349714Y-132305142D01*
X167204571Y-132450285D01*
X167059428Y-132522857D01*
X168510857Y-132232571D02*
X168583428Y-132160000D01*
X168728571Y-132087428D01*
X169091428Y-132087428D01*
X169236571Y-132160000D01*
X169309142Y-132232571D01*
X169381714Y-132377714D01*
X169381714Y-132522857D01*
X169309142Y-132740571D01*
X168438285Y-133611428D01*
X169381714Y-133611428D01*
X161326285Y-132007428D02*
X161326285Y-133096000D01*
X161253714Y-133313714D01*
X161108571Y-133458857D01*
X160890857Y-133531428D01*
X160745714Y-133531428D01*
X162850285Y-133531428D02*
X161979428Y-133531428D01*
X162414857Y-133531428D02*
X162414857Y-132007428D01*
X162269714Y-132225142D01*
X162124571Y-132370285D01*
X161979428Y-132442857D01*
X164301714Y-133531428D02*
X163430857Y-133531428D01*
X163866285Y-133531428D02*
X163866285Y-132007428D01*
X163721142Y-132225142D01*
X163576000Y-132370285D01*
X163430857Y-132442857D01*
X156246285Y-132087428D02*
X156246285Y-133176000D01*
X156173714Y-133393714D01*
X156028571Y-133538857D01*
X155810857Y-133611428D01*
X155665714Y-133611428D01*
X157770285Y-133611428D02*
X156899428Y-133611428D01*
X157334857Y-133611428D02*
X157334857Y-132087428D01*
X157189714Y-132305142D01*
X157044571Y-132450285D01*
X156899428Y-132522857D01*
X158713714Y-132087428D02*
X158858857Y-132087428D01*
X159004000Y-132160000D01*
X159076571Y-132232571D01*
X159149142Y-132377714D01*
X159221714Y-132668000D01*
X159221714Y-133030857D01*
X159149142Y-133321142D01*
X159076571Y-133466285D01*
X159004000Y-133538857D01*
X158858857Y-133611428D01*
X158713714Y-133611428D01*
X158568571Y-133538857D01*
X158496000Y-133466285D01*
X158423428Y-133321142D01*
X158350857Y-133030857D01*
X158350857Y-132668000D01*
X158423428Y-132377714D01*
X158496000Y-132232571D01*
X158568571Y-132160000D01*
X158713714Y-132087428D01*
X151892000Y-132087428D02*
X151892000Y-133176000D01*
X151819428Y-133393714D01*
X151674285Y-133538857D01*
X151456571Y-133611428D01*
X151311428Y-133611428D01*
X152690285Y-133611428D02*
X152980571Y-133611428D01*
X153125714Y-133538857D01*
X153198285Y-133466285D01*
X153343428Y-133248571D01*
X153416000Y-132958285D01*
X153416000Y-132377714D01*
X153343428Y-132232571D01*
X153270857Y-132160000D01*
X153125714Y-132087428D01*
X152835428Y-132087428D01*
X152690285Y-132160000D01*
X152617714Y-132232571D01*
X152545142Y-132377714D01*
X152545142Y-132740571D01*
X152617714Y-132885714D01*
X152690285Y-132958285D01*
X152835428Y-133030857D01*
X153125714Y-133030857D01*
X153270857Y-132958285D01*
X153343428Y-132885714D01*
X153416000Y-132740571D01*
X141732000Y-132007428D02*
X141732000Y-133096000D01*
X141659428Y-133313714D01*
X141514285Y-133458857D01*
X141296571Y-133531428D01*
X141151428Y-133531428D01*
X142675428Y-132660571D02*
X142530285Y-132588000D01*
X142457714Y-132515428D01*
X142385142Y-132370285D01*
X142385142Y-132297714D01*
X142457714Y-132152571D01*
X142530285Y-132080000D01*
X142675428Y-132007428D01*
X142965714Y-132007428D01*
X143110857Y-132080000D01*
X143183428Y-132152571D01*
X143256000Y-132297714D01*
X143256000Y-132370285D01*
X143183428Y-132515428D01*
X143110857Y-132588000D01*
X142965714Y-132660571D01*
X142675428Y-132660571D01*
X142530285Y-132733142D01*
X142457714Y-132805714D01*
X142385142Y-132950857D01*
X142385142Y-133241142D01*
X142457714Y-133386285D01*
X142530285Y-133458857D01*
X142675428Y-133531428D01*
X142965714Y-133531428D01*
X143110857Y-133458857D01*
X143183428Y-133386285D01*
X143256000Y-133241142D01*
X143256000Y-132950857D01*
X143183428Y-132805714D01*
X143110857Y-132733142D01*
X142965714Y-132660571D01*
X136652000Y-132087428D02*
X136652000Y-133176000D01*
X136579428Y-133393714D01*
X136434285Y-133538857D01*
X136216571Y-133611428D01*
X136071428Y-133611428D01*
X137232571Y-132087428D02*
X138248571Y-132087428D01*
X137595428Y-133611428D01*
X131572000Y-132007428D02*
X131572000Y-133096000D01*
X131499428Y-133313714D01*
X131354285Y-133458857D01*
X131136571Y-133531428D01*
X130991428Y-133531428D01*
X132950857Y-132007428D02*
X132660571Y-132007428D01*
X132515428Y-132080000D01*
X132442857Y-132152571D01*
X132297714Y-132370285D01*
X132225142Y-132660571D01*
X132225142Y-133241142D01*
X132297714Y-133386285D01*
X132370285Y-133458857D01*
X132515428Y-133531428D01*
X132805714Y-133531428D01*
X132950857Y-133458857D01*
X133023428Y-133386285D01*
X133096000Y-133241142D01*
X133096000Y-132878285D01*
X133023428Y-132733142D01*
X132950857Y-132660571D01*
X132805714Y-132588000D01*
X132515428Y-132588000D01*
X132370285Y-132660571D01*
X132297714Y-132733142D01*
X132225142Y-132878285D01*
X126492000Y-132007428D02*
X126492000Y-133096000D01*
X126419428Y-133313714D01*
X126274285Y-133458857D01*
X126056571Y-133531428D01*
X125911428Y-133531428D01*
X127943428Y-132007428D02*
X127217714Y-132007428D01*
X127145142Y-132733142D01*
X127217714Y-132660571D01*
X127362857Y-132588000D01*
X127725714Y-132588000D01*
X127870857Y-132660571D01*
X127943428Y-132733142D01*
X128016000Y-132878285D01*
X128016000Y-133241142D01*
X127943428Y-133386285D01*
X127870857Y-133458857D01*
X127725714Y-133531428D01*
X127362857Y-133531428D01*
X127217714Y-133458857D01*
X127145142Y-133386285D01*
X116332000Y-132007428D02*
X116332000Y-133096000D01*
X116259428Y-133313714D01*
X116114285Y-133458857D01*
X115896571Y-133531428D01*
X115751428Y-133531428D01*
X117710857Y-132515428D02*
X117710857Y-133531428D01*
X117348000Y-131934857D02*
X116985142Y-133023428D01*
X117928571Y-133023428D01*
X111252000Y-132007428D02*
X111252000Y-133096000D01*
X111179428Y-133313714D01*
X111034285Y-133458857D01*
X110816571Y-133531428D01*
X110671428Y-133531428D01*
X111832571Y-132007428D02*
X112776000Y-132007428D01*
X112268000Y-132588000D01*
X112485714Y-132588000D01*
X112630857Y-132660571D01*
X112703428Y-132733142D01*
X112776000Y-132878285D01*
X112776000Y-133241142D01*
X112703428Y-133386285D01*
X112630857Y-133458857D01*
X112485714Y-133531428D01*
X112050285Y-133531428D01*
X111905142Y-133458857D01*
X111832571Y-133386285D01*
X106172000Y-132007428D02*
X106172000Y-133096000D01*
X106099428Y-133313714D01*
X105954285Y-133458857D01*
X105736571Y-133531428D01*
X105591428Y-133531428D01*
X106825142Y-132152571D02*
X106897714Y-132080000D01*
X107042857Y-132007428D01*
X107405714Y-132007428D01*
X107550857Y-132080000D01*
X107623428Y-132152571D01*
X107696000Y-132297714D01*
X107696000Y-132442857D01*
X107623428Y-132660571D01*
X106752571Y-133531428D01*
X107696000Y-133531428D01*
X101092000Y-132087428D02*
X101092000Y-133176000D01*
X101019428Y-133393714D01*
X100874285Y-133538857D01*
X100656571Y-133611428D01*
X100511428Y-133611428D01*
X102616000Y-133611428D02*
X101745142Y-133611428D01*
X102180571Y-133611428D02*
X102180571Y-132087428D01*
X102035428Y-132305142D01*
X101890285Y-132450285D01*
X101745142Y-132522857D01*
D10*
X188977904Y-57125428D02*
X189473142Y-57125428D01*
X189163619Y-57992095D02*
X189163619Y-56877809D01*
X189225523Y-56754000D01*
X189349333Y-56692095D01*
X189473142Y-56692095D01*
X190463619Y-57992095D02*
X190463619Y-57311142D01*
X190401714Y-57187333D01*
X190277904Y-57125428D01*
X190030285Y-57125428D01*
X189906476Y-57187333D01*
X190463619Y-57930190D02*
X190339809Y-57992095D01*
X190030285Y-57992095D01*
X189906476Y-57930190D01*
X189844571Y-57806380D01*
X189844571Y-57682571D01*
X189906476Y-57558761D01*
X190030285Y-57496857D01*
X190339809Y-57496857D01*
X190463619Y-57434952D01*
X191082666Y-57125428D02*
X191082666Y-57992095D01*
X191082666Y-57249238D02*
X191144571Y-57187333D01*
X191268380Y-57125428D01*
X191454095Y-57125428D01*
X191577904Y-57187333D01*
X191639809Y-57311142D01*
X191639809Y-57992095D01*
X191949333Y-58115904D02*
X192939809Y-58115904D01*
X193125523Y-56692095D02*
X193930285Y-56692095D01*
X193496952Y-57187333D01*
X193682666Y-57187333D01*
X193806476Y-57249238D01*
X193868380Y-57311142D01*
X193930285Y-57434952D01*
X193930285Y-57744476D01*
X193868380Y-57868285D01*
X193806476Y-57930190D01*
X193682666Y-57992095D01*
X193311238Y-57992095D01*
X193187428Y-57930190D01*
X193125523Y-57868285D01*
X176277904Y-57125428D02*
X176773142Y-57125428D01*
X176463619Y-57992095D02*
X176463619Y-56877809D01*
X176525523Y-56754000D01*
X176649333Y-56692095D01*
X176773142Y-56692095D01*
X177763619Y-57992095D02*
X177763619Y-57311142D01*
X177701714Y-57187333D01*
X177577904Y-57125428D01*
X177330285Y-57125428D01*
X177206476Y-57187333D01*
X177763619Y-57930190D02*
X177639809Y-57992095D01*
X177330285Y-57992095D01*
X177206476Y-57930190D01*
X177144571Y-57806380D01*
X177144571Y-57682571D01*
X177206476Y-57558761D01*
X177330285Y-57496857D01*
X177639809Y-57496857D01*
X177763619Y-57434952D01*
X178382666Y-57125428D02*
X178382666Y-57992095D01*
X178382666Y-57249238D02*
X178444571Y-57187333D01*
X178568380Y-57125428D01*
X178754095Y-57125428D01*
X178877904Y-57187333D01*
X178939809Y-57311142D01*
X178939809Y-57992095D01*
X179249333Y-58115904D02*
X180239809Y-58115904D01*
X180487428Y-56815904D02*
X180549333Y-56754000D01*
X180673142Y-56692095D01*
X180982666Y-56692095D01*
X181106476Y-56754000D01*
X181168380Y-56815904D01*
X181230285Y-56939714D01*
X181230285Y-57063523D01*
X181168380Y-57249238D01*
X180425523Y-57992095D01*
X181230285Y-57992095D01*
X163577904Y-57125428D02*
X164073142Y-57125428D01*
X163763619Y-57992095D02*
X163763619Y-56877809D01*
X163825523Y-56754000D01*
X163949333Y-56692095D01*
X164073142Y-56692095D01*
X165063619Y-57992095D02*
X165063619Y-57311142D01*
X165001714Y-57187333D01*
X164877904Y-57125428D01*
X164630285Y-57125428D01*
X164506476Y-57187333D01*
X165063619Y-57930190D02*
X164939809Y-57992095D01*
X164630285Y-57992095D01*
X164506476Y-57930190D01*
X164444571Y-57806380D01*
X164444571Y-57682571D01*
X164506476Y-57558761D01*
X164630285Y-57496857D01*
X164939809Y-57496857D01*
X165063619Y-57434952D01*
X165682666Y-57125428D02*
X165682666Y-57992095D01*
X165682666Y-57249238D02*
X165744571Y-57187333D01*
X165868380Y-57125428D01*
X166054095Y-57125428D01*
X166177904Y-57187333D01*
X166239809Y-57311142D01*
X166239809Y-57992095D01*
X166549333Y-58115904D02*
X167539809Y-58115904D01*
X168530285Y-57992095D02*
X167787428Y-57992095D01*
X168158857Y-57992095D02*
X168158857Y-56692095D01*
X168035047Y-56877809D01*
X167911238Y-57001619D01*
X167787428Y-57063523D01*
M02*
