G04 #@! TF.GenerationSoftware,KiCad,Pcbnew,5.1.5-52549c5~84~ubuntu18.04.1*
G04 #@! TF.CreationDate,2020-01-09T22:54:15+01:00*
G04 #@! TF.ProjectId,E32CB_R2,45333243-425f-4523-922e-6b696361645f,rev?*
G04 #@! TF.SameCoordinates,Original*
G04 #@! TF.FileFunction,Soldermask,Top*
G04 #@! TF.FilePolarity,Negative*
%FSLAX46Y46*%
G04 Gerber Fmt 4.6, Leading zero omitted, Abs format (unit mm)*
G04 Created by KiCad (PCBNEW 5.1.5-52549c5~84~ubuntu18.04.1) date 2020-01-09 22:54:15*
%MOMM*%
%LPD*%
G04 APERTURE LIST*
%ADD10C,0.100000*%
G04 APERTURE END LIST*
D10*
G36*
X204089943Y-129146248D02*
G01*
X204645189Y-129376238D01*
X204645190Y-129376239D01*
X205144899Y-129710134D01*
X205569866Y-130135101D01*
X205569867Y-130135103D01*
X205903762Y-130634811D01*
X206133752Y-131190057D01*
X206251000Y-131779501D01*
X206251000Y-132380499D01*
X206133752Y-132969943D01*
X205903762Y-133525189D01*
X205903761Y-133525190D01*
X205569866Y-134024899D01*
X205144899Y-134449866D01*
X204893347Y-134617948D01*
X204645189Y-134783762D01*
X204089943Y-135013752D01*
X203500499Y-135131000D01*
X202899501Y-135131000D01*
X202310057Y-135013752D01*
X201754811Y-134783762D01*
X201506653Y-134617948D01*
X201255101Y-134449866D01*
X200830134Y-134024899D01*
X200496239Y-133525190D01*
X200496238Y-133525189D01*
X200266248Y-132969943D01*
X200149000Y-132380499D01*
X200149000Y-131779501D01*
X200266248Y-131190057D01*
X200496238Y-130634811D01*
X200830133Y-130135103D01*
X200830134Y-130135101D01*
X201255101Y-129710134D01*
X201754810Y-129376239D01*
X201754811Y-129376238D01*
X202310057Y-129146248D01*
X202899501Y-129029000D01*
X203500499Y-129029000D01*
X204089943Y-129146248D01*
G37*
G36*
X92329943Y-129146248D02*
G01*
X92885189Y-129376238D01*
X92885190Y-129376239D01*
X93384899Y-129710134D01*
X93809866Y-130135101D01*
X93809867Y-130135103D01*
X94143762Y-130634811D01*
X94373752Y-131190057D01*
X94491000Y-131779501D01*
X94491000Y-132380499D01*
X94373752Y-132969943D01*
X94143762Y-133525189D01*
X94143761Y-133525190D01*
X93809866Y-134024899D01*
X93384899Y-134449866D01*
X93133347Y-134617948D01*
X92885189Y-134783762D01*
X92329943Y-135013752D01*
X91740499Y-135131000D01*
X91139501Y-135131000D01*
X90550057Y-135013752D01*
X89994811Y-134783762D01*
X89746653Y-134617948D01*
X89495101Y-134449866D01*
X89070134Y-134024899D01*
X88736239Y-133525190D01*
X88736238Y-133525189D01*
X88506248Y-132969943D01*
X88389000Y-132380499D01*
X88389000Y-131779501D01*
X88506248Y-131190057D01*
X88736238Y-130634811D01*
X89070133Y-130135103D01*
X89070134Y-130135101D01*
X89495101Y-129710134D01*
X89994810Y-129376239D01*
X89994811Y-129376238D01*
X90550057Y-129146248D01*
X91139501Y-129029000D01*
X91740499Y-129029000D01*
X92329943Y-129146248D01*
G37*
G36*
X189916000Y-131496000D02*
G01*
X186004000Y-131496000D01*
X186004000Y-127584000D01*
X189916000Y-127584000D01*
X189916000Y-131496000D01*
G37*
G36*
X194996000Y-131496000D02*
G01*
X191084000Y-131496000D01*
X191084000Y-127584000D01*
X194996000Y-127584000D01*
X194996000Y-131496000D01*
G37*
G36*
X103556000Y-131496000D02*
G01*
X99644000Y-131496000D01*
X99644000Y-127584000D01*
X103556000Y-127584000D01*
X103556000Y-131496000D01*
G37*
G36*
X179756000Y-131496000D02*
G01*
X175844000Y-131496000D01*
X175844000Y-127584000D01*
X179756000Y-127584000D01*
X179756000Y-131496000D01*
G37*
G36*
X169596000Y-131496000D02*
G01*
X165684000Y-131496000D01*
X165684000Y-127584000D01*
X169596000Y-127584000D01*
X169596000Y-131496000D01*
G37*
G36*
X159436000Y-131496000D02*
G01*
X155524000Y-131496000D01*
X155524000Y-127584000D01*
X159436000Y-127584000D01*
X159436000Y-131496000D01*
G37*
G36*
X139116000Y-131496000D02*
G01*
X135204000Y-131496000D01*
X135204000Y-127584000D01*
X139116000Y-127584000D01*
X139116000Y-131496000D01*
G37*
G36*
X154356000Y-131496000D02*
G01*
X150444000Y-131496000D01*
X150444000Y-127584000D01*
X154356000Y-127584000D01*
X154356000Y-131496000D01*
G37*
G36*
X184836000Y-131416000D02*
G01*
X180924000Y-131416000D01*
X180924000Y-127504000D01*
X184836000Y-127504000D01*
X184836000Y-131416000D01*
G37*
G36*
X108636000Y-131416000D02*
G01*
X104724000Y-131416000D01*
X104724000Y-127504000D01*
X108636000Y-127504000D01*
X108636000Y-131416000D01*
G37*
G36*
X118796000Y-131416000D02*
G01*
X114884000Y-131416000D01*
X114884000Y-127504000D01*
X118796000Y-127504000D01*
X118796000Y-131416000D01*
G37*
G36*
X164516000Y-131416000D02*
G01*
X160604000Y-131416000D01*
X160604000Y-127504000D01*
X164516000Y-127504000D01*
X164516000Y-131416000D01*
G37*
G36*
X128956000Y-131416000D02*
G01*
X125044000Y-131416000D01*
X125044000Y-127504000D01*
X128956000Y-127504000D01*
X128956000Y-131416000D01*
G37*
G36*
X113716000Y-131416000D02*
G01*
X109804000Y-131416000D01*
X109804000Y-127504000D01*
X113716000Y-127504000D01*
X113716000Y-131416000D01*
G37*
G36*
X144196000Y-131416000D02*
G01*
X140284000Y-131416000D01*
X140284000Y-127504000D01*
X144196000Y-127504000D01*
X144196000Y-131416000D01*
G37*
G36*
X134036000Y-131416000D02*
G01*
X130124000Y-131416000D01*
X130124000Y-127504000D01*
X134036000Y-127504000D01*
X134036000Y-131416000D01*
G37*
G36*
X169596000Y-126496000D02*
G01*
X165684000Y-126496000D01*
X165684000Y-122584000D01*
X169596000Y-122584000D01*
X169596000Y-126496000D01*
G37*
G36*
X194996000Y-126496000D02*
G01*
X191084000Y-126496000D01*
X191084000Y-122584000D01*
X194996000Y-122584000D01*
X194996000Y-126496000D01*
G37*
G36*
X179756000Y-126496000D02*
G01*
X175844000Y-126496000D01*
X175844000Y-122584000D01*
X179756000Y-122584000D01*
X179756000Y-126496000D01*
G37*
G36*
X159436000Y-126496000D02*
G01*
X155524000Y-126496000D01*
X155524000Y-122584000D01*
X159436000Y-122584000D01*
X159436000Y-126496000D01*
G37*
G36*
X189916000Y-126496000D02*
G01*
X186004000Y-126496000D01*
X186004000Y-122584000D01*
X189916000Y-122584000D01*
X189916000Y-126496000D01*
G37*
G36*
X154356000Y-126496000D02*
G01*
X150444000Y-126496000D01*
X150444000Y-122584000D01*
X154356000Y-122584000D01*
X154356000Y-126496000D01*
G37*
G36*
X139116000Y-126496000D02*
G01*
X135204000Y-126496000D01*
X135204000Y-122584000D01*
X139116000Y-122584000D01*
X139116000Y-126496000D01*
G37*
G36*
X103556000Y-126496000D02*
G01*
X99644000Y-126496000D01*
X99644000Y-122584000D01*
X103556000Y-122584000D01*
X103556000Y-126496000D01*
G37*
G36*
X113716000Y-126416000D02*
G01*
X109804000Y-126416000D01*
X109804000Y-122504000D01*
X113716000Y-122504000D01*
X113716000Y-126416000D01*
G37*
G36*
X118796000Y-126416000D02*
G01*
X114884000Y-126416000D01*
X114884000Y-122504000D01*
X118796000Y-122504000D01*
X118796000Y-126416000D01*
G37*
G36*
X128956000Y-126416000D02*
G01*
X125044000Y-126416000D01*
X125044000Y-122504000D01*
X128956000Y-122504000D01*
X128956000Y-126416000D01*
G37*
G36*
X108636000Y-126416000D02*
G01*
X104724000Y-126416000D01*
X104724000Y-122504000D01*
X108636000Y-122504000D01*
X108636000Y-126416000D01*
G37*
G36*
X184836000Y-126416000D02*
G01*
X180924000Y-126416000D01*
X180924000Y-122504000D01*
X184836000Y-122504000D01*
X184836000Y-126416000D01*
G37*
G36*
X134036000Y-126416000D02*
G01*
X130124000Y-126416000D01*
X130124000Y-122504000D01*
X134036000Y-122504000D01*
X134036000Y-126416000D01*
G37*
G36*
X164516000Y-126416000D02*
G01*
X160604000Y-126416000D01*
X160604000Y-122504000D01*
X164516000Y-122504000D01*
X164516000Y-126416000D01*
G37*
G36*
X144196000Y-126416000D02*
G01*
X140284000Y-126416000D01*
X140284000Y-122504000D01*
X144196000Y-122504000D01*
X144196000Y-126416000D01*
G37*
G36*
X197156000Y-111156000D02*
G01*
X190654000Y-111156000D01*
X190654000Y-105254000D01*
X197156000Y-105254000D01*
X197156000Y-111156000D01*
G37*
G36*
X146356000Y-111156000D02*
G01*
X139854000Y-111156000D01*
X139854000Y-105254000D01*
X146356000Y-105254000D01*
X146356000Y-111156000D01*
G37*
G36*
X184456000Y-111156000D02*
G01*
X177954000Y-111156000D01*
X177954000Y-105254000D01*
X184456000Y-105254000D01*
X184456000Y-111156000D01*
G37*
G36*
X171756000Y-111156000D02*
G01*
X165254000Y-111156000D01*
X165254000Y-105254000D01*
X171756000Y-105254000D01*
X171756000Y-111156000D01*
G37*
G36*
X159056000Y-111156000D02*
G01*
X152554000Y-111156000D01*
X152554000Y-105254000D01*
X159056000Y-105254000D01*
X159056000Y-111156000D01*
G37*
G36*
X133656000Y-111156000D02*
G01*
X127154000Y-111156000D01*
X127154000Y-105254000D01*
X133656000Y-105254000D01*
X133656000Y-111156000D01*
G37*
G36*
X120956000Y-111156000D02*
G01*
X114454000Y-111156000D01*
X114454000Y-105254000D01*
X120956000Y-105254000D01*
X120956000Y-111156000D01*
G37*
G36*
X108256000Y-111156000D02*
G01*
X101754000Y-111156000D01*
X101754000Y-105254000D01*
X108256000Y-105254000D01*
X108256000Y-111156000D01*
G37*
G36*
X125256000Y-111136000D02*
G01*
X122954000Y-111136000D01*
X122954000Y-109834000D01*
X125256000Y-109834000D01*
X125256000Y-111136000D01*
G37*
G36*
X112556000Y-111136000D02*
G01*
X110254000Y-111136000D01*
X110254000Y-109834000D01*
X112556000Y-109834000D01*
X112556000Y-111136000D01*
G37*
G36*
X99856000Y-111136000D02*
G01*
X97554000Y-111136000D01*
X97554000Y-109834000D01*
X99856000Y-109834000D01*
X99856000Y-111136000D01*
G37*
G36*
X137956000Y-111136000D02*
G01*
X135654000Y-111136000D01*
X135654000Y-109834000D01*
X137956000Y-109834000D01*
X137956000Y-111136000D01*
G37*
G36*
X150656000Y-111136000D02*
G01*
X148354000Y-111136000D01*
X148354000Y-109834000D01*
X150656000Y-109834000D01*
X150656000Y-111136000D01*
G37*
G36*
X163356000Y-111136000D02*
G01*
X161054000Y-111136000D01*
X161054000Y-109834000D01*
X163356000Y-109834000D01*
X163356000Y-111136000D01*
G37*
G36*
X188756000Y-111136000D02*
G01*
X186454000Y-111136000D01*
X186454000Y-109834000D01*
X188756000Y-109834000D01*
X188756000Y-111136000D01*
G37*
G36*
X176056000Y-111136000D02*
G01*
X173754000Y-111136000D01*
X173754000Y-109834000D01*
X176056000Y-109834000D01*
X176056000Y-111136000D01*
G37*
G36*
X125256000Y-106576000D02*
G01*
X122954000Y-106576000D01*
X122954000Y-105274000D01*
X125256000Y-105274000D01*
X125256000Y-106576000D01*
G37*
G36*
X188756000Y-106576000D02*
G01*
X186454000Y-106576000D01*
X186454000Y-105274000D01*
X188756000Y-105274000D01*
X188756000Y-106576000D01*
G37*
G36*
X176056000Y-106576000D02*
G01*
X173754000Y-106576000D01*
X173754000Y-105274000D01*
X176056000Y-105274000D01*
X176056000Y-106576000D01*
G37*
G36*
X163356000Y-106576000D02*
G01*
X161054000Y-106576000D01*
X161054000Y-105274000D01*
X163356000Y-105274000D01*
X163356000Y-106576000D01*
G37*
G36*
X150656000Y-106576000D02*
G01*
X148354000Y-106576000D01*
X148354000Y-105274000D01*
X150656000Y-105274000D01*
X150656000Y-106576000D01*
G37*
G36*
X137956000Y-106576000D02*
G01*
X135654000Y-106576000D01*
X135654000Y-105274000D01*
X137956000Y-105274000D01*
X137956000Y-106576000D01*
G37*
G36*
X99856000Y-106576000D02*
G01*
X97554000Y-106576000D01*
X97554000Y-105274000D01*
X99856000Y-105274000D01*
X99856000Y-106576000D01*
G37*
G36*
X112556000Y-106576000D02*
G01*
X110254000Y-106576000D01*
X110254000Y-105274000D01*
X112556000Y-105274000D01*
X112556000Y-106576000D01*
G37*
G36*
X205283000Y-99873000D02*
G01*
X203657000Y-99873000D01*
X203657000Y-98247000D01*
X205283000Y-98247000D01*
X205283000Y-99873000D01*
G37*
G36*
X98145331Y-94478211D02*
G01*
X98473092Y-94613974D01*
X98768070Y-94811072D01*
X99018928Y-95061930D01*
X99216026Y-95356908D01*
X99351789Y-95684669D01*
X99421000Y-96032616D01*
X99421000Y-96387384D01*
X99351789Y-96735331D01*
X99216026Y-97063092D01*
X99018928Y-97358070D01*
X98768070Y-97608928D01*
X98473092Y-97806026D01*
X98145331Y-97941789D01*
X97797384Y-98011000D01*
X97442616Y-98011000D01*
X97094669Y-97941789D01*
X96766908Y-97806026D01*
X96471930Y-97608928D01*
X96221072Y-97358070D01*
X96023974Y-97063092D01*
X95888211Y-96735331D01*
X95819000Y-96387384D01*
X95819000Y-96032616D01*
X95888211Y-95684669D01*
X96023974Y-95356908D01*
X96221072Y-95061930D01*
X96471930Y-94811072D01*
X96766908Y-94613974D01*
X97094669Y-94478211D01*
X97442616Y-94409000D01*
X97797384Y-94409000D01*
X98145331Y-94478211D01*
G37*
G36*
X205283000Y-97333000D02*
G01*
X203657000Y-97333000D01*
X203657000Y-95707000D01*
X205283000Y-95707000D01*
X205283000Y-97333000D01*
G37*
G36*
X205283000Y-94793000D02*
G01*
X203657000Y-94793000D01*
X203657000Y-93167000D01*
X205283000Y-93167000D01*
X205283000Y-94793000D01*
G37*
G36*
X100443512Y-90543927D02*
G01*
X100592812Y-90573624D01*
X100756784Y-90641544D01*
X100904354Y-90740147D01*
X101029853Y-90865646D01*
X101128456Y-91013216D01*
X101188523Y-91158229D01*
X101200068Y-91179829D01*
X101215613Y-91198771D01*
X101234555Y-91214316D01*
X101256166Y-91225867D01*
X101279615Y-91232980D01*
X101304001Y-91235382D01*
X101328387Y-91232980D01*
X101351836Y-91225867D01*
X101373447Y-91214316D01*
X101392389Y-91198771D01*
X101407934Y-91179829D01*
X101419485Y-91158218D01*
X101426598Y-91134769D01*
X101429000Y-91110383D01*
X101429000Y-90539000D01*
X103231000Y-90539000D01*
X103231000Y-92341000D01*
X101429000Y-92341000D01*
X101429000Y-91769617D01*
X101426598Y-91745231D01*
X101419485Y-91721782D01*
X101407934Y-91700171D01*
X101392389Y-91681229D01*
X101373447Y-91665684D01*
X101351836Y-91654133D01*
X101328387Y-91647020D01*
X101304001Y-91644618D01*
X101279615Y-91647020D01*
X101256166Y-91654133D01*
X101234555Y-91665684D01*
X101215613Y-91681229D01*
X101200068Y-91700171D01*
X101188523Y-91721771D01*
X101128456Y-91866784D01*
X101029853Y-92014354D01*
X100904354Y-92139853D01*
X100756784Y-92238456D01*
X100592812Y-92306376D01*
X100443512Y-92336073D01*
X100418742Y-92341000D01*
X100241258Y-92341000D01*
X100216488Y-92336073D01*
X100067188Y-92306376D01*
X99903216Y-92238456D01*
X99755646Y-92139853D01*
X99630147Y-92014354D01*
X99531544Y-91866784D01*
X99463624Y-91702812D01*
X99429000Y-91528741D01*
X99429000Y-91351259D01*
X99463624Y-91177188D01*
X99531544Y-91013216D01*
X99630147Y-90865646D01*
X99755646Y-90740147D01*
X99903216Y-90641544D01*
X100067188Y-90573624D01*
X100216488Y-90543927D01*
X100241258Y-90539000D01*
X100418742Y-90539000D01*
X100443512Y-90543927D01*
G37*
G36*
X205283000Y-92253000D02*
G01*
X203657000Y-92253000D01*
X203657000Y-90627000D01*
X205283000Y-90627000D01*
X205283000Y-92253000D01*
G37*
G36*
X100443512Y-88043927D02*
G01*
X100592812Y-88073624D01*
X100756784Y-88141544D01*
X100904354Y-88240147D01*
X101029853Y-88365646D01*
X101128456Y-88513216D01*
X101196376Y-88677188D01*
X101207405Y-88732638D01*
X101214516Y-88756078D01*
X101226067Y-88777689D01*
X101241613Y-88796631D01*
X101260555Y-88812176D01*
X101282165Y-88823727D01*
X101305614Y-88830840D01*
X101330000Y-88833242D01*
X101354387Y-88830840D01*
X101377835Y-88823727D01*
X101399446Y-88812176D01*
X101418388Y-88796630D01*
X101433933Y-88777688D01*
X101445484Y-88756078D01*
X101452595Y-88732638D01*
X101463624Y-88677188D01*
X101531544Y-88513216D01*
X101630147Y-88365646D01*
X101755646Y-88240147D01*
X101903216Y-88141544D01*
X102067188Y-88073624D01*
X102216488Y-88043927D01*
X102241258Y-88039000D01*
X102418742Y-88039000D01*
X102443512Y-88043927D01*
X102592812Y-88073624D01*
X102756784Y-88141544D01*
X102904354Y-88240147D01*
X103029853Y-88365646D01*
X103128456Y-88513216D01*
X103196376Y-88677188D01*
X103231000Y-88851259D01*
X103231000Y-89028741D01*
X103196376Y-89202812D01*
X103128456Y-89366784D01*
X103029853Y-89514354D01*
X102904354Y-89639853D01*
X102756784Y-89738456D01*
X102592812Y-89806376D01*
X102443512Y-89836073D01*
X102418742Y-89841000D01*
X102241258Y-89841000D01*
X102216488Y-89836073D01*
X102067188Y-89806376D01*
X101903216Y-89738456D01*
X101755646Y-89639853D01*
X101630147Y-89514354D01*
X101531544Y-89366784D01*
X101463624Y-89202812D01*
X101452595Y-89147362D01*
X101445484Y-89123922D01*
X101433933Y-89102311D01*
X101418387Y-89083369D01*
X101399445Y-89067824D01*
X101377835Y-89056273D01*
X101354386Y-89049160D01*
X101330000Y-89046758D01*
X101305613Y-89049160D01*
X101282165Y-89056273D01*
X101260554Y-89067824D01*
X101241612Y-89083370D01*
X101226067Y-89102312D01*
X101214516Y-89123922D01*
X101207405Y-89147362D01*
X101196376Y-89202812D01*
X101128456Y-89366784D01*
X101029853Y-89514354D01*
X100904354Y-89639853D01*
X100756784Y-89738456D01*
X100592812Y-89806376D01*
X100443512Y-89836073D01*
X100418742Y-89841000D01*
X100241258Y-89841000D01*
X100216488Y-89836073D01*
X100067188Y-89806376D01*
X99903216Y-89738456D01*
X99755646Y-89639853D01*
X99630147Y-89514354D01*
X99531544Y-89366784D01*
X99463624Y-89202812D01*
X99429000Y-89028741D01*
X99429000Y-88851259D01*
X99463624Y-88677188D01*
X99531544Y-88513216D01*
X99630147Y-88365646D01*
X99755646Y-88240147D01*
X99903216Y-88141544D01*
X100067188Y-88073624D01*
X100216488Y-88043927D01*
X100241258Y-88039000D01*
X100418742Y-88039000D01*
X100443512Y-88043927D01*
G37*
G36*
X205283000Y-87173000D02*
G01*
X203657000Y-87173000D01*
X203657000Y-85547000D01*
X205283000Y-85547000D01*
X205283000Y-87173000D01*
G37*
G36*
X202743000Y-87173000D02*
G01*
X201117000Y-87173000D01*
X201117000Y-85547000D01*
X202743000Y-85547000D01*
X202743000Y-87173000D01*
G37*
G36*
X98145331Y-82438211D02*
G01*
X98473092Y-82573974D01*
X98768070Y-82771072D01*
X99018928Y-83021930D01*
X99216026Y-83316908D01*
X99351789Y-83644669D01*
X99421000Y-83992616D01*
X99421000Y-84347384D01*
X99351789Y-84695331D01*
X99216026Y-85023092D01*
X99018928Y-85318070D01*
X98768070Y-85568928D01*
X98473092Y-85766026D01*
X98145331Y-85901789D01*
X97797384Y-85971000D01*
X97442616Y-85971000D01*
X97094669Y-85901789D01*
X96766908Y-85766026D01*
X96471930Y-85568928D01*
X96221072Y-85318070D01*
X96023974Y-85023092D01*
X95888211Y-84695331D01*
X95819000Y-84347384D01*
X95819000Y-83992616D01*
X95888211Y-83644669D01*
X96023974Y-83316908D01*
X96221072Y-83021930D01*
X96471930Y-82771072D01*
X96766908Y-82573974D01*
X97094669Y-82438211D01*
X97442616Y-82369000D01*
X97797384Y-82369000D01*
X98145331Y-82438211D01*
G37*
G36*
X205283000Y-84633000D02*
G01*
X203657000Y-84633000D01*
X203657000Y-83007000D01*
X205283000Y-83007000D01*
X205283000Y-84633000D01*
G37*
G36*
X202743000Y-84633000D02*
G01*
X201117000Y-84633000D01*
X201117000Y-83007000D01*
X202743000Y-83007000D01*
X202743000Y-84633000D01*
G37*
G36*
X205283000Y-82093000D02*
G01*
X203657000Y-82093000D01*
X203657000Y-80467000D01*
X205283000Y-80467000D01*
X205283000Y-82093000D01*
G37*
G36*
X202743000Y-82093000D02*
G01*
X201117000Y-82093000D01*
X201117000Y-80467000D01*
X202743000Y-80467000D01*
X202743000Y-82093000D01*
G37*
G36*
X202743000Y-79553000D02*
G01*
X201117000Y-79553000D01*
X201117000Y-77927000D01*
X202743000Y-77927000D01*
X202743000Y-79553000D01*
G37*
G36*
X205283000Y-79553000D02*
G01*
X203657000Y-79553000D01*
X203657000Y-77927000D01*
X205283000Y-77927000D01*
X205283000Y-79553000D01*
G37*
G36*
X91746564Y-75189389D02*
G01*
X91937833Y-75268615D01*
X91937835Y-75268616D01*
X92109973Y-75383635D01*
X92256365Y-75530027D01*
X92371385Y-75702167D01*
X92450611Y-75893436D01*
X92491000Y-76096484D01*
X92491000Y-76303516D01*
X92450611Y-76506564D01*
X92371385Y-76697833D01*
X92371384Y-76697835D01*
X92256365Y-76869973D01*
X92109973Y-77016365D01*
X91937835Y-77131384D01*
X91937834Y-77131385D01*
X91937833Y-77131385D01*
X91746564Y-77210611D01*
X91543516Y-77251000D01*
X91336484Y-77251000D01*
X91133436Y-77210611D01*
X90942167Y-77131385D01*
X90942166Y-77131385D01*
X90942165Y-77131384D01*
X90770027Y-77016365D01*
X90623635Y-76869973D01*
X90508616Y-76697835D01*
X90508615Y-76697833D01*
X90429389Y-76506564D01*
X90389000Y-76303516D01*
X90389000Y-76096484D01*
X90429389Y-75893436D01*
X90508615Y-75702167D01*
X90623635Y-75530027D01*
X90770027Y-75383635D01*
X90942165Y-75268616D01*
X90942167Y-75268615D01*
X91133436Y-75189389D01*
X91336484Y-75149000D01*
X91543516Y-75149000D01*
X91746564Y-75189389D01*
G37*
G36*
X98246564Y-75189389D02*
G01*
X98437833Y-75268615D01*
X98437835Y-75268616D01*
X98609973Y-75383635D01*
X98756365Y-75530027D01*
X98871385Y-75702167D01*
X98950611Y-75893436D01*
X98991000Y-76096484D01*
X98991000Y-76303516D01*
X98950611Y-76506564D01*
X98871385Y-76697833D01*
X98871384Y-76697835D01*
X98756365Y-76869973D01*
X98609973Y-77016365D01*
X98437835Y-77131384D01*
X98437834Y-77131385D01*
X98437833Y-77131385D01*
X98246564Y-77210611D01*
X98043516Y-77251000D01*
X97836484Y-77251000D01*
X97633436Y-77210611D01*
X97442167Y-77131385D01*
X97442166Y-77131385D01*
X97442165Y-77131384D01*
X97270027Y-77016365D01*
X97123635Y-76869973D01*
X97008616Y-76697835D01*
X97008615Y-76697833D01*
X96929389Y-76506564D01*
X96889000Y-76303516D01*
X96889000Y-76096484D01*
X96929389Y-75893436D01*
X97008615Y-75702167D01*
X97123635Y-75530027D01*
X97270027Y-75383635D01*
X97442165Y-75268616D01*
X97442167Y-75268615D01*
X97633436Y-75189389D01*
X97836484Y-75149000D01*
X98043516Y-75149000D01*
X98246564Y-75189389D01*
G37*
G36*
X205283000Y-77013000D02*
G01*
X203657000Y-77013000D01*
X203657000Y-75387000D01*
X205283000Y-75387000D01*
X205283000Y-77013000D01*
G37*
G36*
X202743000Y-77013000D02*
G01*
X201117000Y-77013000D01*
X201117000Y-75387000D01*
X202743000Y-75387000D01*
X202743000Y-77013000D01*
G37*
G36*
X98246564Y-70689389D02*
G01*
X98437833Y-70768615D01*
X98437835Y-70768616D01*
X98609973Y-70883635D01*
X98756365Y-71030027D01*
X98871385Y-71202167D01*
X98950611Y-71393436D01*
X98991000Y-71596484D01*
X98991000Y-71803516D01*
X98950611Y-72006564D01*
X98871385Y-72197833D01*
X98871384Y-72197835D01*
X98756365Y-72369973D01*
X98609973Y-72516365D01*
X98437835Y-72631384D01*
X98437834Y-72631385D01*
X98437833Y-72631385D01*
X98246564Y-72710611D01*
X98043516Y-72751000D01*
X97836484Y-72751000D01*
X97633436Y-72710611D01*
X97442167Y-72631385D01*
X97442166Y-72631385D01*
X97442165Y-72631384D01*
X97270027Y-72516365D01*
X97123635Y-72369973D01*
X97008616Y-72197835D01*
X97008615Y-72197833D01*
X96929389Y-72006564D01*
X96889000Y-71803516D01*
X96889000Y-71596484D01*
X96929389Y-71393436D01*
X97008615Y-71202167D01*
X97123635Y-71030027D01*
X97270027Y-70883635D01*
X97442165Y-70768616D01*
X97442167Y-70768615D01*
X97633436Y-70689389D01*
X97836484Y-70649000D01*
X98043516Y-70649000D01*
X98246564Y-70689389D01*
G37*
G36*
X91746564Y-70689389D02*
G01*
X91937833Y-70768615D01*
X91937835Y-70768616D01*
X92109973Y-70883635D01*
X92256365Y-71030027D01*
X92371385Y-71202167D01*
X92450611Y-71393436D01*
X92491000Y-71596484D01*
X92491000Y-71803516D01*
X92450611Y-72006564D01*
X92371385Y-72197833D01*
X92371384Y-72197835D01*
X92256365Y-72369973D01*
X92109973Y-72516365D01*
X91937835Y-72631384D01*
X91937834Y-72631385D01*
X91937833Y-72631385D01*
X91746564Y-72710611D01*
X91543516Y-72751000D01*
X91336484Y-72751000D01*
X91133436Y-72710611D01*
X90942167Y-72631385D01*
X90942166Y-72631385D01*
X90942165Y-72631384D01*
X90770027Y-72516365D01*
X90623635Y-72369973D01*
X90508616Y-72197835D01*
X90508615Y-72197833D01*
X90429389Y-72006564D01*
X90389000Y-71803516D01*
X90389000Y-71596484D01*
X90429389Y-71393436D01*
X90508615Y-71202167D01*
X90623635Y-71030027D01*
X90770027Y-70883635D01*
X90942165Y-70768616D01*
X90942167Y-70768615D01*
X91133436Y-70689389D01*
X91336484Y-70649000D01*
X91543516Y-70649000D01*
X91746564Y-70689389D01*
G37*
G36*
X205283000Y-71933000D02*
G01*
X203657000Y-71933000D01*
X203657000Y-70307000D01*
X205283000Y-70307000D01*
X205283000Y-71933000D01*
G37*
G36*
X202743000Y-71933000D02*
G01*
X201117000Y-71933000D01*
X201117000Y-70307000D01*
X202743000Y-70307000D01*
X202743000Y-71933000D01*
G37*
G36*
X205283000Y-69393000D02*
G01*
X203657000Y-69393000D01*
X203657000Y-67767000D01*
X205283000Y-67767000D01*
X205283000Y-69393000D01*
G37*
G36*
X202743000Y-69393000D02*
G01*
X201117000Y-69393000D01*
X201117000Y-67767000D01*
X202743000Y-67767000D01*
X202743000Y-69393000D01*
G37*
G36*
X202743000Y-66853000D02*
G01*
X201117000Y-66853000D01*
X201117000Y-65227000D01*
X202743000Y-65227000D01*
X202743000Y-66853000D01*
G37*
G36*
X205283000Y-66853000D02*
G01*
X203657000Y-66853000D01*
X203657000Y-65227000D01*
X205283000Y-65227000D01*
X205283000Y-66853000D01*
G37*
G36*
X91746564Y-62489389D02*
G01*
X91937833Y-62568615D01*
X91937835Y-62568616D01*
X92109973Y-62683635D01*
X92256365Y-62830027D01*
X92371385Y-63002167D01*
X92450611Y-63193436D01*
X92491000Y-63396484D01*
X92491000Y-63603516D01*
X92450611Y-63806564D01*
X92371385Y-63997833D01*
X92371384Y-63997835D01*
X92256365Y-64169973D01*
X92109973Y-64316365D01*
X91937835Y-64431384D01*
X91937834Y-64431385D01*
X91937833Y-64431385D01*
X91746564Y-64510611D01*
X91543516Y-64551000D01*
X91336484Y-64551000D01*
X91133436Y-64510611D01*
X90942167Y-64431385D01*
X90942166Y-64431385D01*
X90942165Y-64431384D01*
X90770027Y-64316365D01*
X90623635Y-64169973D01*
X90508616Y-63997835D01*
X90508615Y-63997833D01*
X90429389Y-63806564D01*
X90389000Y-63603516D01*
X90389000Y-63396484D01*
X90429389Y-63193436D01*
X90508615Y-63002167D01*
X90623635Y-62830027D01*
X90770027Y-62683635D01*
X90942165Y-62568616D01*
X90942167Y-62568615D01*
X91133436Y-62489389D01*
X91336484Y-62449000D01*
X91543516Y-62449000D01*
X91746564Y-62489389D01*
G37*
G36*
X98246564Y-62489389D02*
G01*
X98437833Y-62568615D01*
X98437835Y-62568616D01*
X98609973Y-62683635D01*
X98756365Y-62830027D01*
X98871385Y-63002167D01*
X98950611Y-63193436D01*
X98991000Y-63396484D01*
X98991000Y-63603516D01*
X98950611Y-63806564D01*
X98871385Y-63997833D01*
X98871384Y-63997835D01*
X98756365Y-64169973D01*
X98609973Y-64316365D01*
X98437835Y-64431384D01*
X98437834Y-64431385D01*
X98437833Y-64431385D01*
X98246564Y-64510611D01*
X98043516Y-64551000D01*
X97836484Y-64551000D01*
X97633436Y-64510611D01*
X97442167Y-64431385D01*
X97442166Y-64431385D01*
X97442165Y-64431384D01*
X97270027Y-64316365D01*
X97123635Y-64169973D01*
X97008616Y-63997835D01*
X97008615Y-63997833D01*
X96929389Y-63806564D01*
X96889000Y-63603516D01*
X96889000Y-63396484D01*
X96929389Y-63193436D01*
X97008615Y-63002167D01*
X97123635Y-62830027D01*
X97270027Y-62683635D01*
X97442165Y-62568616D01*
X97442167Y-62568615D01*
X97633436Y-62489389D01*
X97836484Y-62449000D01*
X98043516Y-62449000D01*
X98246564Y-62489389D01*
G37*
G36*
X202743000Y-64313000D02*
G01*
X201117000Y-64313000D01*
X201117000Y-62687000D01*
X202743000Y-62687000D01*
X202743000Y-64313000D01*
G37*
G36*
X205283000Y-64313000D02*
G01*
X203657000Y-64313000D01*
X203657000Y-62687000D01*
X205283000Y-62687000D01*
X205283000Y-64313000D01*
G37*
G36*
X205283000Y-61773000D02*
G01*
X203657000Y-61773000D01*
X203657000Y-60147000D01*
X205283000Y-60147000D01*
X205283000Y-61773000D01*
G37*
G36*
X202743000Y-61773000D02*
G01*
X201117000Y-61773000D01*
X201117000Y-60147000D01*
X202743000Y-60147000D01*
X202743000Y-61773000D01*
G37*
G36*
X91746564Y-57989389D02*
G01*
X91937833Y-58068615D01*
X91937835Y-58068616D01*
X92109973Y-58183635D01*
X92256365Y-58330027D01*
X92346659Y-58465161D01*
X92371385Y-58502167D01*
X92450611Y-58693436D01*
X92491000Y-58896484D01*
X92491000Y-59103516D01*
X92450611Y-59306564D01*
X92371385Y-59497833D01*
X92371384Y-59497835D01*
X92256365Y-59669973D01*
X92109973Y-59816365D01*
X91937835Y-59931384D01*
X91937834Y-59931385D01*
X91937833Y-59931385D01*
X91746564Y-60010611D01*
X91543516Y-60051000D01*
X91336484Y-60051000D01*
X91133436Y-60010611D01*
X90942167Y-59931385D01*
X90942166Y-59931385D01*
X90942165Y-59931384D01*
X90770027Y-59816365D01*
X90623635Y-59669973D01*
X90508616Y-59497835D01*
X90508615Y-59497833D01*
X90429389Y-59306564D01*
X90389000Y-59103516D01*
X90389000Y-58896484D01*
X90429389Y-58693436D01*
X90508615Y-58502167D01*
X90533342Y-58465161D01*
X90623635Y-58330027D01*
X90770027Y-58183635D01*
X90942165Y-58068616D01*
X90942167Y-58068615D01*
X91133436Y-57989389D01*
X91336484Y-57949000D01*
X91543516Y-57949000D01*
X91746564Y-57989389D01*
G37*
G36*
X98246564Y-57989389D02*
G01*
X98437833Y-58068615D01*
X98437835Y-58068616D01*
X98609973Y-58183635D01*
X98756365Y-58330027D01*
X98846659Y-58465161D01*
X98871385Y-58502167D01*
X98950611Y-58693436D01*
X98991000Y-58896484D01*
X98991000Y-59103516D01*
X98950611Y-59306564D01*
X98871385Y-59497833D01*
X98871384Y-59497835D01*
X98756365Y-59669973D01*
X98609973Y-59816365D01*
X98437835Y-59931384D01*
X98437834Y-59931385D01*
X98437833Y-59931385D01*
X98246564Y-60010611D01*
X98043516Y-60051000D01*
X97836484Y-60051000D01*
X97633436Y-60010611D01*
X97442167Y-59931385D01*
X97442166Y-59931385D01*
X97442165Y-59931384D01*
X97270027Y-59816365D01*
X97123635Y-59669973D01*
X97008616Y-59497835D01*
X97008615Y-59497833D01*
X96929389Y-59306564D01*
X96889000Y-59103516D01*
X96889000Y-58896484D01*
X96929389Y-58693436D01*
X97008615Y-58502167D01*
X97033342Y-58465161D01*
X97123635Y-58330027D01*
X97270027Y-58183635D01*
X97442165Y-58068616D01*
X97442167Y-58068615D01*
X97633436Y-57989389D01*
X97836484Y-57949000D01*
X98043516Y-57949000D01*
X98246564Y-57989389D01*
G37*
G36*
X123635433Y-55752893D02*
G01*
X123725657Y-55770839D01*
X123831267Y-55814585D01*
X123980621Y-55876449D01*
X123980622Y-55876450D01*
X124210086Y-56029772D01*
X124405228Y-56224914D01*
X124507675Y-56378237D01*
X124558551Y-56454379D01*
X124664161Y-56709344D01*
X124718000Y-56980012D01*
X124718000Y-57255988D01*
X124664161Y-57526656D01*
X124558551Y-57781621D01*
X124558550Y-57781622D01*
X124405228Y-58011086D01*
X124210086Y-58206228D01*
X124056763Y-58308675D01*
X123980621Y-58359551D01*
X123831267Y-58421415D01*
X123725657Y-58465161D01*
X123635433Y-58483107D01*
X123454988Y-58519000D01*
X123179012Y-58519000D01*
X122998567Y-58483107D01*
X122908343Y-58465161D01*
X122802733Y-58421415D01*
X122653379Y-58359551D01*
X122577237Y-58308675D01*
X122423914Y-58206228D01*
X122228772Y-58011086D01*
X122075450Y-57781622D01*
X122075449Y-57781621D01*
X121969839Y-57526656D01*
X121916000Y-57255988D01*
X121916000Y-56980012D01*
X121969839Y-56709344D01*
X122075449Y-56454379D01*
X122126325Y-56378237D01*
X122228772Y-56224914D01*
X122423914Y-56029772D01*
X122653378Y-55876450D01*
X122653379Y-55876449D01*
X122802733Y-55814585D01*
X122908343Y-55770839D01*
X122998567Y-55752893D01*
X123179012Y-55717000D01*
X123454988Y-55717000D01*
X123635433Y-55752893D01*
G37*
G36*
X106998433Y-55752893D02*
G01*
X107088657Y-55770839D01*
X107194267Y-55814585D01*
X107343621Y-55876449D01*
X107343622Y-55876450D01*
X107573086Y-56029772D01*
X107768228Y-56224914D01*
X107870675Y-56378237D01*
X107921551Y-56454379D01*
X108027161Y-56709344D01*
X108081000Y-56980012D01*
X108081000Y-57255988D01*
X108027161Y-57526656D01*
X107921551Y-57781621D01*
X107921550Y-57781622D01*
X107768228Y-58011086D01*
X107573086Y-58206228D01*
X107419763Y-58308675D01*
X107343621Y-58359551D01*
X107194267Y-58421415D01*
X107088657Y-58465161D01*
X106998433Y-58483107D01*
X106817988Y-58519000D01*
X106542012Y-58519000D01*
X106361567Y-58483107D01*
X106271343Y-58465161D01*
X106165733Y-58421415D01*
X106016379Y-58359551D01*
X105940237Y-58308675D01*
X105786914Y-58206228D01*
X105591772Y-58011086D01*
X105438450Y-57781622D01*
X105438449Y-57781621D01*
X105332839Y-57526656D01*
X105279000Y-57255988D01*
X105279000Y-56980012D01*
X105332839Y-56709344D01*
X105438449Y-56454379D01*
X105489325Y-56378237D01*
X105591772Y-56224914D01*
X105786914Y-56029772D01*
X106016378Y-55876450D01*
X106016379Y-55876449D01*
X106165733Y-55814585D01*
X106271343Y-55770839D01*
X106361567Y-55752893D01*
X106542012Y-55717000D01*
X106817988Y-55717000D01*
X106998433Y-55752893D01*
G37*
G36*
X119571433Y-55752893D02*
G01*
X119661657Y-55770839D01*
X119767267Y-55814585D01*
X119916621Y-55876449D01*
X119916622Y-55876450D01*
X120146086Y-56029772D01*
X120341228Y-56224914D01*
X120443675Y-56378237D01*
X120494551Y-56454379D01*
X120600161Y-56709344D01*
X120654000Y-56980012D01*
X120654000Y-57255988D01*
X120600161Y-57526656D01*
X120494551Y-57781621D01*
X120494550Y-57781622D01*
X120341228Y-58011086D01*
X120146086Y-58206228D01*
X119992763Y-58308675D01*
X119916621Y-58359551D01*
X119767267Y-58421415D01*
X119661657Y-58465161D01*
X119571433Y-58483107D01*
X119390988Y-58519000D01*
X119115012Y-58519000D01*
X118934567Y-58483107D01*
X118844343Y-58465161D01*
X118738733Y-58421415D01*
X118589379Y-58359551D01*
X118513237Y-58308675D01*
X118359914Y-58206228D01*
X118164772Y-58011086D01*
X118011450Y-57781622D01*
X118011449Y-57781621D01*
X117905839Y-57526656D01*
X117852000Y-57255988D01*
X117852000Y-56980012D01*
X117905839Y-56709344D01*
X118011449Y-56454379D01*
X118062325Y-56378237D01*
X118164772Y-56224914D01*
X118359914Y-56029772D01*
X118589378Y-55876450D01*
X118589379Y-55876449D01*
X118738733Y-55814585D01*
X118844343Y-55770839D01*
X118934567Y-55752893D01*
X119115012Y-55717000D01*
X119390988Y-55717000D01*
X119571433Y-55752893D01*
G37*
G36*
X110808433Y-55752893D02*
G01*
X110898657Y-55770839D01*
X111004267Y-55814585D01*
X111153621Y-55876449D01*
X111153622Y-55876450D01*
X111383086Y-56029772D01*
X111578228Y-56224914D01*
X111680675Y-56378237D01*
X111731551Y-56454379D01*
X111837161Y-56709344D01*
X111891000Y-56980012D01*
X111891000Y-57255988D01*
X111837161Y-57526656D01*
X111731551Y-57781621D01*
X111731550Y-57781622D01*
X111578228Y-58011086D01*
X111383086Y-58206228D01*
X111229763Y-58308675D01*
X111153621Y-58359551D01*
X111004267Y-58421415D01*
X110898657Y-58465161D01*
X110808433Y-58483107D01*
X110627988Y-58519000D01*
X110352012Y-58519000D01*
X110171567Y-58483107D01*
X110081343Y-58465161D01*
X109975733Y-58421415D01*
X109826379Y-58359551D01*
X109750237Y-58308675D01*
X109596914Y-58206228D01*
X109401772Y-58011086D01*
X109248450Y-57781622D01*
X109248449Y-57781621D01*
X109142839Y-57526656D01*
X109089000Y-57255988D01*
X109089000Y-56980012D01*
X109142839Y-56709344D01*
X109248449Y-56454379D01*
X109299325Y-56378237D01*
X109401772Y-56224914D01*
X109596914Y-56029772D01*
X109826378Y-55876450D01*
X109826379Y-55876449D01*
X109975733Y-55814585D01*
X110081343Y-55770839D01*
X110171567Y-55752893D01*
X110352012Y-55717000D01*
X110627988Y-55717000D01*
X110808433Y-55752893D01*
G37*
G36*
X190636601Y-54914397D02*
G01*
X190675305Y-54922096D01*
X190707340Y-54935365D01*
X190784680Y-54967400D01*
X190883115Y-55033173D01*
X190966827Y-55116885D01*
X191032600Y-55215320D01*
X191077904Y-55324696D01*
X191101000Y-55440805D01*
X191101000Y-55559195D01*
X191077904Y-55675304D01*
X191032600Y-55784680D01*
X190966827Y-55883115D01*
X190883115Y-55966827D01*
X190784680Y-56032600D01*
X190707340Y-56064635D01*
X190675305Y-56077904D01*
X190636601Y-56085603D01*
X190559195Y-56101000D01*
X190440805Y-56101000D01*
X190363399Y-56085603D01*
X190324695Y-56077904D01*
X190292660Y-56064635D01*
X190215320Y-56032600D01*
X190116885Y-55966827D01*
X190033173Y-55883115D01*
X189967400Y-55784680D01*
X189922096Y-55675304D01*
X189899000Y-55559195D01*
X189899000Y-55440805D01*
X189922096Y-55324696D01*
X189967400Y-55215320D01*
X190033173Y-55116885D01*
X190116885Y-55033173D01*
X190215320Y-54967400D01*
X190292660Y-54935365D01*
X190324695Y-54922096D01*
X190363399Y-54914397D01*
X190440805Y-54899000D01*
X190559195Y-54899000D01*
X190636601Y-54914397D01*
G37*
G36*
X177936601Y-54914397D02*
G01*
X177975305Y-54922096D01*
X178007340Y-54935365D01*
X178084680Y-54967400D01*
X178183115Y-55033173D01*
X178266827Y-55116885D01*
X178332600Y-55215320D01*
X178377904Y-55324696D01*
X178401000Y-55440805D01*
X178401000Y-55559195D01*
X178377904Y-55675304D01*
X178332600Y-55784680D01*
X178266827Y-55883115D01*
X178183115Y-55966827D01*
X178084680Y-56032600D01*
X178007340Y-56064635D01*
X177975305Y-56077904D01*
X177936601Y-56085603D01*
X177859195Y-56101000D01*
X177740805Y-56101000D01*
X177663399Y-56085603D01*
X177624695Y-56077904D01*
X177592660Y-56064635D01*
X177515320Y-56032600D01*
X177416885Y-55966827D01*
X177333173Y-55883115D01*
X177267400Y-55784680D01*
X177222096Y-55675304D01*
X177199000Y-55559195D01*
X177199000Y-55440805D01*
X177222096Y-55324696D01*
X177267400Y-55215320D01*
X177333173Y-55116885D01*
X177416885Y-55033173D01*
X177515320Y-54967400D01*
X177592660Y-54935365D01*
X177624695Y-54922096D01*
X177663399Y-54914397D01*
X177740805Y-54899000D01*
X177859195Y-54899000D01*
X177936601Y-54914397D01*
G37*
G36*
X165236601Y-54914397D02*
G01*
X165275305Y-54922096D01*
X165307340Y-54935365D01*
X165384680Y-54967400D01*
X165483115Y-55033173D01*
X165566827Y-55116885D01*
X165632600Y-55215320D01*
X165677904Y-55324696D01*
X165701000Y-55440805D01*
X165701000Y-55559195D01*
X165677904Y-55675304D01*
X165632600Y-55784680D01*
X165566827Y-55883115D01*
X165483115Y-55966827D01*
X165384680Y-56032600D01*
X165307340Y-56064635D01*
X165275305Y-56077904D01*
X165236601Y-56085603D01*
X165159195Y-56101000D01*
X165040805Y-56101000D01*
X164963399Y-56085603D01*
X164924695Y-56077904D01*
X164892660Y-56064635D01*
X164815320Y-56032600D01*
X164716885Y-55966827D01*
X164633173Y-55883115D01*
X164567400Y-55784680D01*
X164522096Y-55675304D01*
X164499000Y-55559195D01*
X164499000Y-55440805D01*
X164522096Y-55324696D01*
X164567400Y-55215320D01*
X164633173Y-55116885D01*
X164716885Y-55033173D01*
X164815320Y-54967400D01*
X164892660Y-54935365D01*
X164924695Y-54922096D01*
X164963399Y-54914397D01*
X165040805Y-54899000D01*
X165159195Y-54899000D01*
X165236601Y-54914397D01*
G37*
G36*
X162723468Y-52285668D02*
G01*
X162739568Y-52287254D01*
X162825900Y-52313443D01*
X162912234Y-52339632D01*
X163071365Y-52424689D01*
X163210844Y-52539156D01*
X163325311Y-52678635D01*
X163410368Y-52837766D01*
X163445287Y-52952878D01*
X163462746Y-53010432D01*
X163462746Y-53010434D01*
X163476000Y-53145003D01*
X163476000Y-53534998D01*
X163462746Y-53669567D01*
X163410368Y-53842234D01*
X163325311Y-54001365D01*
X163210844Y-54140844D01*
X163071364Y-54255311D01*
X162912233Y-54340368D01*
X162739567Y-54392746D01*
X162723467Y-54394332D01*
X162560000Y-54410432D01*
X162396532Y-54394332D01*
X162380432Y-54392746D01*
X162207766Y-54340368D01*
X162048635Y-54255311D01*
X161909156Y-54140844D01*
X161794689Y-54001364D01*
X161709632Y-53842233D01*
X161676724Y-53733751D01*
X161657254Y-53669567D01*
X161655361Y-53650342D01*
X161644000Y-53534997D01*
X161644000Y-53145002D01*
X161657254Y-53010433D01*
X161709632Y-52837766D01*
X161794689Y-52678635D01*
X161909157Y-52539156D01*
X162048636Y-52424689D01*
X162207767Y-52339632D01*
X162294101Y-52313443D01*
X162380433Y-52287254D01*
X162396533Y-52285668D01*
X162560000Y-52269568D01*
X162723468Y-52285668D01*
G37*
G36*
X167803468Y-52285668D02*
G01*
X167819568Y-52287254D01*
X167905900Y-52313443D01*
X167992234Y-52339632D01*
X168151365Y-52424689D01*
X168290844Y-52539156D01*
X168405311Y-52678635D01*
X168490368Y-52837766D01*
X168525287Y-52952878D01*
X168542746Y-53010432D01*
X168542746Y-53010434D01*
X168556000Y-53145003D01*
X168556000Y-53534998D01*
X168542746Y-53669567D01*
X168490368Y-53842234D01*
X168405311Y-54001365D01*
X168290844Y-54140844D01*
X168151364Y-54255311D01*
X167992233Y-54340368D01*
X167819567Y-54392746D01*
X167803467Y-54394332D01*
X167640000Y-54410432D01*
X167476532Y-54394332D01*
X167460432Y-54392746D01*
X167287766Y-54340368D01*
X167128635Y-54255311D01*
X166989156Y-54140844D01*
X166874689Y-54001364D01*
X166789632Y-53842233D01*
X166756724Y-53733751D01*
X166737254Y-53669567D01*
X166735361Y-53650342D01*
X166724000Y-53534997D01*
X166724000Y-53145002D01*
X166737254Y-53010433D01*
X166789632Y-52837766D01*
X166874689Y-52678635D01*
X166989157Y-52539156D01*
X167128636Y-52424689D01*
X167287767Y-52339632D01*
X167374101Y-52313443D01*
X167460433Y-52287254D01*
X167476533Y-52285668D01*
X167640000Y-52269568D01*
X167803468Y-52285668D01*
G37*
G36*
X165263468Y-52285668D02*
G01*
X165279568Y-52287254D01*
X165365900Y-52313443D01*
X165452234Y-52339632D01*
X165611365Y-52424689D01*
X165750844Y-52539156D01*
X165865311Y-52678635D01*
X165950368Y-52837766D01*
X165985287Y-52952878D01*
X166002746Y-53010432D01*
X166002746Y-53010434D01*
X166016000Y-53145003D01*
X166016000Y-53534998D01*
X166002746Y-53669567D01*
X165950368Y-53842234D01*
X165865311Y-54001365D01*
X165750844Y-54140844D01*
X165611364Y-54255311D01*
X165452233Y-54340368D01*
X165279567Y-54392746D01*
X165263467Y-54394332D01*
X165100000Y-54410432D01*
X164936532Y-54394332D01*
X164920432Y-54392746D01*
X164747766Y-54340368D01*
X164588635Y-54255311D01*
X164449156Y-54140844D01*
X164334689Y-54001364D01*
X164249632Y-53842233D01*
X164216724Y-53733751D01*
X164197254Y-53669567D01*
X164195361Y-53650342D01*
X164184000Y-53534997D01*
X164184000Y-53145002D01*
X164197254Y-53010433D01*
X164249632Y-52837766D01*
X164334689Y-52678635D01*
X164449157Y-52539156D01*
X164588636Y-52424689D01*
X164747767Y-52339632D01*
X164834101Y-52313443D01*
X164920433Y-52287254D01*
X164936533Y-52285668D01*
X165100000Y-52269568D01*
X165263468Y-52285668D01*
G37*
G36*
X180503468Y-52285668D02*
G01*
X180519568Y-52287254D01*
X180605900Y-52313443D01*
X180692234Y-52339632D01*
X180851365Y-52424689D01*
X180990844Y-52539156D01*
X181105311Y-52678635D01*
X181190368Y-52837766D01*
X181225287Y-52952878D01*
X181242746Y-53010432D01*
X181242746Y-53010434D01*
X181256000Y-53145003D01*
X181256000Y-53534998D01*
X181242746Y-53669567D01*
X181190368Y-53842234D01*
X181105311Y-54001365D01*
X180990844Y-54140844D01*
X180851364Y-54255311D01*
X180692233Y-54340368D01*
X180519567Y-54392746D01*
X180503467Y-54394332D01*
X180340000Y-54410432D01*
X180176532Y-54394332D01*
X180160432Y-54392746D01*
X179987766Y-54340368D01*
X179828635Y-54255311D01*
X179689156Y-54140844D01*
X179574689Y-54001364D01*
X179489632Y-53842233D01*
X179456724Y-53733751D01*
X179437254Y-53669567D01*
X179435361Y-53650342D01*
X179424000Y-53534997D01*
X179424000Y-53145002D01*
X179437254Y-53010433D01*
X179489632Y-52837766D01*
X179574689Y-52678635D01*
X179689157Y-52539156D01*
X179828636Y-52424689D01*
X179987767Y-52339632D01*
X180074101Y-52313443D01*
X180160433Y-52287254D01*
X180176533Y-52285668D01*
X180340000Y-52269568D01*
X180503468Y-52285668D01*
G37*
G36*
X175423468Y-52285668D02*
G01*
X175439568Y-52287254D01*
X175525900Y-52313443D01*
X175612234Y-52339632D01*
X175771365Y-52424689D01*
X175910844Y-52539156D01*
X176025311Y-52678635D01*
X176110368Y-52837766D01*
X176145287Y-52952878D01*
X176162746Y-53010432D01*
X176162746Y-53010434D01*
X176176000Y-53145003D01*
X176176000Y-53534998D01*
X176162746Y-53669567D01*
X176110368Y-53842234D01*
X176025311Y-54001365D01*
X175910844Y-54140844D01*
X175771364Y-54255311D01*
X175612233Y-54340368D01*
X175439567Y-54392746D01*
X175423467Y-54394332D01*
X175260000Y-54410432D01*
X175096532Y-54394332D01*
X175080432Y-54392746D01*
X174907766Y-54340368D01*
X174748635Y-54255311D01*
X174609156Y-54140844D01*
X174494689Y-54001364D01*
X174409632Y-53842233D01*
X174376724Y-53733751D01*
X174357254Y-53669567D01*
X174355361Y-53650342D01*
X174344000Y-53534997D01*
X174344000Y-53145002D01*
X174357254Y-53010433D01*
X174409632Y-52837766D01*
X174494689Y-52678635D01*
X174609157Y-52539156D01*
X174748636Y-52424689D01*
X174907767Y-52339632D01*
X174994101Y-52313443D01*
X175080433Y-52287254D01*
X175096533Y-52285668D01*
X175260000Y-52269568D01*
X175423468Y-52285668D01*
G37*
G36*
X193203468Y-52285668D02*
G01*
X193219568Y-52287254D01*
X193305900Y-52313443D01*
X193392234Y-52339632D01*
X193551365Y-52424689D01*
X193690844Y-52539156D01*
X193805311Y-52678635D01*
X193890368Y-52837766D01*
X193925287Y-52952878D01*
X193942746Y-53010432D01*
X193942746Y-53010434D01*
X193956000Y-53145003D01*
X193956000Y-53534998D01*
X193942746Y-53669567D01*
X193890368Y-53842234D01*
X193805311Y-54001365D01*
X193690844Y-54140844D01*
X193551364Y-54255311D01*
X193392233Y-54340368D01*
X193219567Y-54392746D01*
X193203467Y-54394332D01*
X193040000Y-54410432D01*
X192876532Y-54394332D01*
X192860432Y-54392746D01*
X192687766Y-54340368D01*
X192528635Y-54255311D01*
X192389156Y-54140844D01*
X192274689Y-54001364D01*
X192189632Y-53842233D01*
X192156724Y-53733751D01*
X192137254Y-53669567D01*
X192135361Y-53650342D01*
X192124000Y-53534997D01*
X192124000Y-53145002D01*
X192137254Y-53010433D01*
X192189632Y-52837766D01*
X192274689Y-52678635D01*
X192389157Y-52539156D01*
X192528636Y-52424689D01*
X192687767Y-52339632D01*
X192774101Y-52313443D01*
X192860433Y-52287254D01*
X192876533Y-52285668D01*
X193040000Y-52269568D01*
X193203468Y-52285668D01*
G37*
G36*
X190663468Y-52285668D02*
G01*
X190679568Y-52287254D01*
X190765900Y-52313443D01*
X190852234Y-52339632D01*
X191011365Y-52424689D01*
X191150844Y-52539156D01*
X191265311Y-52678635D01*
X191350368Y-52837766D01*
X191385287Y-52952878D01*
X191402746Y-53010432D01*
X191402746Y-53010434D01*
X191416000Y-53145003D01*
X191416000Y-53534998D01*
X191402746Y-53669567D01*
X191350368Y-53842234D01*
X191265311Y-54001365D01*
X191150844Y-54140844D01*
X191011364Y-54255311D01*
X190852233Y-54340368D01*
X190679567Y-54392746D01*
X190663467Y-54394332D01*
X190500000Y-54410432D01*
X190336532Y-54394332D01*
X190320432Y-54392746D01*
X190147766Y-54340368D01*
X189988635Y-54255311D01*
X189849156Y-54140844D01*
X189734689Y-54001364D01*
X189649632Y-53842233D01*
X189616724Y-53733751D01*
X189597254Y-53669567D01*
X189595361Y-53650342D01*
X189584000Y-53534997D01*
X189584000Y-53145002D01*
X189597254Y-53010433D01*
X189649632Y-52837766D01*
X189734689Y-52678635D01*
X189849157Y-52539156D01*
X189988636Y-52424689D01*
X190147767Y-52339632D01*
X190234101Y-52313443D01*
X190320433Y-52287254D01*
X190336533Y-52285668D01*
X190500000Y-52269568D01*
X190663468Y-52285668D01*
G37*
G36*
X188123468Y-52285668D02*
G01*
X188139568Y-52287254D01*
X188225900Y-52313443D01*
X188312234Y-52339632D01*
X188471365Y-52424689D01*
X188610844Y-52539156D01*
X188725311Y-52678635D01*
X188810368Y-52837766D01*
X188845287Y-52952878D01*
X188862746Y-53010432D01*
X188862746Y-53010434D01*
X188876000Y-53145003D01*
X188876000Y-53534998D01*
X188862746Y-53669567D01*
X188810368Y-53842234D01*
X188725311Y-54001365D01*
X188610844Y-54140844D01*
X188471364Y-54255311D01*
X188312233Y-54340368D01*
X188139567Y-54392746D01*
X188123467Y-54394332D01*
X187960000Y-54410432D01*
X187796532Y-54394332D01*
X187780432Y-54392746D01*
X187607766Y-54340368D01*
X187448635Y-54255311D01*
X187309156Y-54140844D01*
X187194689Y-54001364D01*
X187109632Y-53842233D01*
X187076724Y-53733751D01*
X187057254Y-53669567D01*
X187055361Y-53650342D01*
X187044000Y-53534997D01*
X187044000Y-53145002D01*
X187057254Y-53010433D01*
X187109632Y-52837766D01*
X187194689Y-52678635D01*
X187309157Y-52539156D01*
X187448636Y-52424689D01*
X187607767Y-52339632D01*
X187694101Y-52313443D01*
X187780433Y-52287254D01*
X187796533Y-52285668D01*
X187960000Y-52269568D01*
X188123468Y-52285668D01*
G37*
G36*
X177963468Y-52285668D02*
G01*
X177979568Y-52287254D01*
X178065900Y-52313443D01*
X178152234Y-52339632D01*
X178311365Y-52424689D01*
X178450844Y-52539156D01*
X178565311Y-52678635D01*
X178650368Y-52837766D01*
X178685287Y-52952878D01*
X178702746Y-53010432D01*
X178702746Y-53010434D01*
X178716000Y-53145003D01*
X178716000Y-53534998D01*
X178702746Y-53669567D01*
X178650368Y-53842234D01*
X178565311Y-54001365D01*
X178450844Y-54140844D01*
X178311364Y-54255311D01*
X178152233Y-54340368D01*
X177979567Y-54392746D01*
X177963467Y-54394332D01*
X177800000Y-54410432D01*
X177636532Y-54394332D01*
X177620432Y-54392746D01*
X177447766Y-54340368D01*
X177288635Y-54255311D01*
X177149156Y-54140844D01*
X177034689Y-54001364D01*
X176949632Y-53842233D01*
X176916724Y-53733751D01*
X176897254Y-53669567D01*
X176895361Y-53650342D01*
X176884000Y-53534997D01*
X176884000Y-53145002D01*
X176897254Y-53010433D01*
X176949632Y-52837766D01*
X177034689Y-52678635D01*
X177149157Y-52539156D01*
X177288636Y-52424689D01*
X177447767Y-52339632D01*
X177534101Y-52313443D01*
X177620433Y-52287254D01*
X177636533Y-52285668D01*
X177800000Y-52269568D01*
X177963468Y-52285668D01*
G37*
G36*
X183796000Y-54406000D02*
G01*
X181964000Y-54406000D01*
X181964000Y-52274000D01*
X183796000Y-52274000D01*
X183796000Y-54406000D01*
G37*
G36*
X196496000Y-54406000D02*
G01*
X194664000Y-54406000D01*
X194664000Y-52274000D01*
X196496000Y-52274000D01*
X196496000Y-54406000D01*
G37*
G36*
X171096000Y-54406000D02*
G01*
X169264000Y-54406000D01*
X169264000Y-52274000D01*
X171096000Y-52274000D01*
X171096000Y-54406000D01*
G37*
G36*
X153213000Y-54153000D02*
G01*
X151587000Y-54153000D01*
X151587000Y-52527000D01*
X153213000Y-52527000D01*
X153213000Y-54153000D01*
G37*
G36*
X148133000Y-54153000D02*
G01*
X146507000Y-54153000D01*
X146507000Y-52527000D01*
X148133000Y-52527000D01*
X148133000Y-54153000D01*
G37*
G36*
X155753000Y-54153000D02*
G01*
X154127000Y-54153000D01*
X154127000Y-52527000D01*
X155753000Y-52527000D01*
X155753000Y-54153000D01*
G37*
G36*
X150673000Y-54153000D02*
G01*
X149047000Y-54153000D01*
X149047000Y-52527000D01*
X150673000Y-52527000D01*
X150673000Y-54153000D01*
G37*
G36*
X204089943Y-47866248D02*
G01*
X204645189Y-48096238D01*
X204645190Y-48096239D01*
X205144899Y-48430134D01*
X205569866Y-48855101D01*
X205569867Y-48855103D01*
X205903762Y-49354811D01*
X206133752Y-49910057D01*
X206251000Y-50499501D01*
X206251000Y-51100499D01*
X206133752Y-51689943D01*
X205903762Y-52245189D01*
X205884511Y-52274000D01*
X205569866Y-52744899D01*
X205144899Y-53169866D01*
X204893347Y-53337948D01*
X204645189Y-53503762D01*
X204089943Y-53733752D01*
X203500499Y-53851000D01*
X202899501Y-53851000D01*
X202310057Y-53733752D01*
X201754811Y-53503762D01*
X201506653Y-53337948D01*
X201255101Y-53169866D01*
X200830134Y-52744899D01*
X200515489Y-52274000D01*
X200496238Y-52245189D01*
X200266248Y-51689943D01*
X200149000Y-51100499D01*
X200149000Y-50499501D01*
X200266248Y-49910057D01*
X200496238Y-49354811D01*
X200830133Y-48855103D01*
X200830134Y-48855101D01*
X201255101Y-48430134D01*
X201754810Y-48096239D01*
X201754811Y-48096238D01*
X202310057Y-47866248D01*
X202899501Y-47749000D01*
X203500499Y-47749000D01*
X204089943Y-47866248D01*
G37*
G36*
X92329943Y-47866248D02*
G01*
X92885189Y-48096238D01*
X92885190Y-48096239D01*
X93384899Y-48430134D01*
X93809866Y-48855101D01*
X93809867Y-48855103D01*
X94143762Y-49354811D01*
X94373752Y-49910057D01*
X94491000Y-50499501D01*
X94491000Y-51100499D01*
X94373752Y-51689943D01*
X94143762Y-52245189D01*
X94124511Y-52274000D01*
X93809866Y-52744899D01*
X93384899Y-53169866D01*
X93133347Y-53337948D01*
X92885189Y-53503762D01*
X92329943Y-53733752D01*
X91740499Y-53851000D01*
X91139501Y-53851000D01*
X90550057Y-53733752D01*
X89994811Y-53503762D01*
X89746653Y-53337948D01*
X89495101Y-53169866D01*
X89070134Y-52744899D01*
X88755489Y-52274000D01*
X88736238Y-52245189D01*
X88506248Y-51689943D01*
X88389000Y-51100499D01*
X88389000Y-50499501D01*
X88506248Y-49910057D01*
X88736238Y-49354811D01*
X89070133Y-48855103D01*
X89070134Y-48855101D01*
X89495101Y-48430134D01*
X89994810Y-48096239D01*
X89994811Y-48096238D01*
X90550057Y-47866248D01*
X91139501Y-47749000D01*
X91740499Y-47749000D01*
X92329943Y-47866248D01*
G37*
G36*
X150673000Y-51613000D02*
G01*
X149047000Y-51613000D01*
X149047000Y-49987000D01*
X150673000Y-49987000D01*
X150673000Y-51613000D01*
G37*
G36*
X155753000Y-51613000D02*
G01*
X154127000Y-51613000D01*
X154127000Y-49987000D01*
X155753000Y-49987000D01*
X155753000Y-51613000D01*
G37*
G36*
X153213000Y-51613000D02*
G01*
X151587000Y-51613000D01*
X151587000Y-49987000D01*
X153213000Y-49987000D01*
X153213000Y-51613000D01*
G37*
G36*
X148133000Y-51613000D02*
G01*
X146507000Y-51613000D01*
X146507000Y-49987000D01*
X148133000Y-49987000D01*
X148133000Y-51613000D01*
G37*
M02*
