G04 #@! TF.GenerationSoftware,KiCad,Pcbnew,5.1.5-52549c5~84~ubuntu18.04.1*
G04 #@! TF.CreationDate,2020-01-05T00:06:13+01:00*
G04 #@! TF.ProjectId,PCB,5043422e-6b69-4636-9164-5f7063625858,rev?*
G04 #@! TF.SameCoordinates,Original*
G04 #@! TF.FileFunction,Paste,Top*
G04 #@! TF.FilePolarity,Positive*
%FSLAX46Y46*%
G04 Gerber Fmt 4.6, Leading zero omitted, Abs format (unit mm)*
G04 Created by KiCad (PCBNEW 5.1.5-52549c5~84~ubuntu18.04.1) date 2020-01-05 00:06:13*
%MOMM*%
%LPD*%
G04 APERTURE LIST*
%ADD10R,3.050000X2.750000*%
%ADD11R,2.200000X1.200000*%
%ADD12C,0.100000*%
G04 APERTURE END LIST*
D10*
X192230000Y-109730000D03*
X195580000Y-106680000D03*
X192230000Y-106680000D03*
X195580000Y-109730000D03*
D11*
X187605000Y-110485000D03*
X187605000Y-105925000D03*
D10*
X179530000Y-109730000D03*
X182880000Y-106680000D03*
X179530000Y-106680000D03*
X182880000Y-109730000D03*
D11*
X174905000Y-110485000D03*
X174905000Y-105925000D03*
D10*
X166830000Y-109730000D03*
X170180000Y-106680000D03*
X166830000Y-106680000D03*
X170180000Y-109730000D03*
D11*
X162205000Y-110485000D03*
X162205000Y-105925000D03*
D10*
X154130000Y-109730000D03*
X157480000Y-106680000D03*
X154130000Y-106680000D03*
X157480000Y-109730000D03*
D11*
X149505000Y-110485000D03*
X149505000Y-105925000D03*
D10*
X141430000Y-109730000D03*
X144780000Y-106680000D03*
X141430000Y-106680000D03*
X144780000Y-109730000D03*
D11*
X136805000Y-110485000D03*
X136805000Y-105925000D03*
D10*
X128730000Y-109730000D03*
X132080000Y-106680000D03*
X128730000Y-106680000D03*
X132080000Y-109730000D03*
D11*
X124105000Y-110485000D03*
X124105000Y-105925000D03*
D10*
X116030000Y-109730000D03*
X119380000Y-106680000D03*
X116030000Y-106680000D03*
X119380000Y-109730000D03*
D11*
X111405000Y-110485000D03*
X111405000Y-105925000D03*
D10*
X103330000Y-109730000D03*
X106680000Y-106680000D03*
X103330000Y-106680000D03*
X106680000Y-109730000D03*
D11*
X98705000Y-110485000D03*
X98705000Y-105925000D03*
D12*
G36*
X147894504Y-62731204D02*
G01*
X147918773Y-62734804D01*
X147942571Y-62740765D01*
X147965671Y-62749030D01*
X147987849Y-62759520D01*
X148008893Y-62772133D01*
X148028598Y-62786747D01*
X148046777Y-62803223D01*
X148063253Y-62821402D01*
X148077867Y-62841107D01*
X148090480Y-62862151D01*
X148100970Y-62884329D01*
X148109235Y-62907429D01*
X148115196Y-62931227D01*
X148118796Y-62955496D01*
X148120000Y-62980000D01*
X148120000Y-65080000D01*
X148118796Y-65104504D01*
X148115196Y-65128773D01*
X148109235Y-65152571D01*
X148100970Y-65175671D01*
X148090480Y-65197849D01*
X148077867Y-65218893D01*
X148063253Y-65238598D01*
X148046777Y-65256777D01*
X148028598Y-65273253D01*
X148008893Y-65287867D01*
X147987849Y-65300480D01*
X147965671Y-65310970D01*
X147942571Y-65319235D01*
X147918773Y-65325196D01*
X147894504Y-65328796D01*
X147870000Y-65330000D01*
X146770000Y-65330000D01*
X146745496Y-65328796D01*
X146721227Y-65325196D01*
X146697429Y-65319235D01*
X146674329Y-65310970D01*
X146652151Y-65300480D01*
X146631107Y-65287867D01*
X146611402Y-65273253D01*
X146593223Y-65256777D01*
X146576747Y-65238598D01*
X146562133Y-65218893D01*
X146549520Y-65197849D01*
X146539030Y-65175671D01*
X146530765Y-65152571D01*
X146524804Y-65128773D01*
X146521204Y-65104504D01*
X146520000Y-65080000D01*
X146520000Y-62980000D01*
X146521204Y-62955496D01*
X146524804Y-62931227D01*
X146530765Y-62907429D01*
X146539030Y-62884329D01*
X146549520Y-62862151D01*
X146562133Y-62841107D01*
X146576747Y-62821402D01*
X146593223Y-62803223D01*
X146611402Y-62786747D01*
X146631107Y-62772133D01*
X146652151Y-62759520D01*
X146674329Y-62749030D01*
X146697429Y-62740765D01*
X146721227Y-62734804D01*
X146745496Y-62731204D01*
X146770000Y-62730000D01*
X147870000Y-62730000D01*
X147894504Y-62731204D01*
G37*
G36*
X147894504Y-59131204D02*
G01*
X147918773Y-59134804D01*
X147942571Y-59140765D01*
X147965671Y-59149030D01*
X147987849Y-59159520D01*
X148008893Y-59172133D01*
X148028598Y-59186747D01*
X148046777Y-59203223D01*
X148063253Y-59221402D01*
X148077867Y-59241107D01*
X148090480Y-59262151D01*
X148100970Y-59284329D01*
X148109235Y-59307429D01*
X148115196Y-59331227D01*
X148118796Y-59355496D01*
X148120000Y-59380000D01*
X148120000Y-61480000D01*
X148118796Y-61504504D01*
X148115196Y-61528773D01*
X148109235Y-61552571D01*
X148100970Y-61575671D01*
X148090480Y-61597849D01*
X148077867Y-61618893D01*
X148063253Y-61638598D01*
X148046777Y-61656777D01*
X148028598Y-61673253D01*
X148008893Y-61687867D01*
X147987849Y-61700480D01*
X147965671Y-61710970D01*
X147942571Y-61719235D01*
X147918773Y-61725196D01*
X147894504Y-61728796D01*
X147870000Y-61730000D01*
X146770000Y-61730000D01*
X146745496Y-61728796D01*
X146721227Y-61725196D01*
X146697429Y-61719235D01*
X146674329Y-61710970D01*
X146652151Y-61700480D01*
X146631107Y-61687867D01*
X146611402Y-61673253D01*
X146593223Y-61656777D01*
X146576747Y-61638598D01*
X146562133Y-61618893D01*
X146549520Y-61597849D01*
X146539030Y-61575671D01*
X146530765Y-61552571D01*
X146524804Y-61528773D01*
X146521204Y-61504504D01*
X146520000Y-61480000D01*
X146520000Y-59380000D01*
X146521204Y-59355496D01*
X146524804Y-59331227D01*
X146530765Y-59307429D01*
X146539030Y-59284329D01*
X146549520Y-59262151D01*
X146562133Y-59241107D01*
X146576747Y-59221402D01*
X146593223Y-59203223D01*
X146611402Y-59186747D01*
X146631107Y-59172133D01*
X146652151Y-59159520D01*
X146674329Y-59149030D01*
X146697429Y-59140765D01*
X146721227Y-59134804D01*
X146745496Y-59131204D01*
X146770000Y-59130000D01*
X147870000Y-59130000D01*
X147894504Y-59131204D01*
G37*
M02*
