<?xml version="1.0" encoding="UTF-8" standalone="no"?>
<svg
   xmlns:dc="http://purl.org/dc/elements/1.1/"
   xmlns:cc="http://creativecommons.org/ns#"
   xmlns:rdf="http://www.w3.org/1999/02/22-rdf-syntax-ns#"
   xmlns:svg="http://www.w3.org/2000/svg"
   xmlns="http://www.w3.org/2000/svg"
   xmlns:sodipodi="http://sodipodi.sourceforge.net/DTD/sodipodi-0.dtd"
   xmlns:inkscape="http://www.inkscape.org/namespaces/inkscape"
   width="110"
   height="110"
   viewBox="0 0 110 110"
   version="1.1"
   id="svg4"
   sodipodi:docname="logo_circle.svg"
   style="fill:none"
   inkscape:version="0.92.4 (unknown)">
  <metadata
     id="metadata10">
    <rdf:RDF>
      <cc:Work
         rdf:about="">
        <dc:format>image/svg+xml</dc:format>
        <dc:type
           rdf:resource="http://purl.org/dc/dcmitype/StillImage" />
        <dc:title></dc:title>
      </cc:Work>
    </rdf:RDF>
  </metadata>
  <defs
     id="defs8" />
  <sodipodi:namedview
     pagecolor="#ffffff"
     bordercolor="#666666"
     borderopacity="1"
     objecttolerance="10"
     gridtolerance="10"
     guidetolerance="10"
     inkscape:pageopacity="0"
     inkscape:pageshadow="2"
     inkscape:window-width="1600"
     inkscape:window-height="845"
     id="namedview6"
     showgrid="false"
     inkscape:zoom="3.3714286"
     inkscape:cx="63.596286"
     inkscape:cy="36.693277"
     inkscape:window-x="0"
     inkscape:window-y="0"
     inkscape:window-maximized="1"
     inkscape:current-layer="svg4"
     fit-margin-top="0"
     fit-margin-left="0"
     fit-margin-right="0"
     fit-margin-bottom="0" />
  <path
     d="m 20,25 c 0,-2.76142 2.23858,-5 5,-5 h 60 c 2.7614,0 5,2.23858 5,5 v 45 c 0,2.7614 -2.2386,5 -5,5 -2.7614,0 -5,-2.2386 -5,-5 V 30 H 30 v 40 c 0,2.7614 -2.23857,5 -5,5 -2.76142,0 -4.999998,-2.2386 -4.999998,-5 z m 23,29 c 0,2.7614 -2.2386,5 -5,5 -2.7614,0 -5,-2.2386 -5,-5 0,-2.7614 2.2386,-5 5,-5 2.7614,0 5,2.2386 5,5 z M 20,85 c 0,-2.7614 2.23858,-5 5,-5 h 60 c 2.7614,0 5,2.2386 5,5 0,2.7614 -2.2386,5 -5,5 H 25 c -2.76142,0 -5,-2.2386 -5,-5 z M 46,55 V 40 c 0,-2.7614 2.2386,-5 5,-5 h 20 c 2.7614,0 5,2.2386 5,5 0,2.7614 -2.2386,5 -5,5 H 56 v 5 h 15 c 2.7614,0 5,2.2386 5,5 0,2.7614 -2.2386,5 -5,5 H 56 v 4 h 15 c 2.7614,0 5,2.2386 5,5 0,2.7614 -2.2386,5 -5,5 H 51 c -2.7614,0 -5,-2.2386 -5,-5 z"
     id="path2"
     inkscape:connector-curvature="0"
     style="clip-rule:evenodd;fill:#000000;fill-rule:evenodd" />
  <circle
     id="path3710"
     cx="55"
     cy="55"
     r="54.035206"
     style="fill:none;stroke:#000000;stroke-width:1.92958844;stroke-miterlimit:4;stroke-dasharray:none;stroke-dashoffset:0;stroke-opacity:1" />
</svg>
