G04 #@! TF.GenerationSoftware,KiCad,Pcbnew,5.0.2-bee76a0~70~ubuntu18.04.1*
G04 #@! TF.CreationDate,2020-07-16T17:13:30+02:00*
G04 #@! TF.ProjectId,MCPB_R1,4d435042-5f52-4312-9e6b-696361645f70,rev?*
G04 #@! TF.SameCoordinates,Original*
G04 #@! TF.FileFunction,Copper,L2,Bot*
G04 #@! TF.FilePolarity,Positive*
%FSLAX46Y46*%
G04 Gerber Fmt 4.6, Leading zero omitted, Abs format (unit mm)*
G04 Created by KiCad (PCBNEW 5.0.2-bee76a0~70~ubuntu18.04.1) date Čt 16. července 2020, 17:13:30 CEST*
%MOMM*%
%LPD*%
G01*
G04 APERTURE LIST*
G04 #@! TA.AperFunction,SMDPad,CuDef*
%ADD10R,1.450000X0.450000*%
G04 #@! TD*
G04 #@! TA.AperFunction,Conductor*
%ADD11C,0.100000*%
G04 #@! TD*
G04 #@! TA.AperFunction,SMDPad,CuDef*
%ADD12C,1.150000*%
G04 #@! TD*
G04 #@! TA.AperFunction,ComponentPad*
%ADD13C,6.000000*%
G04 #@! TD*
G04 #@! TA.AperFunction,ComponentPad*
%ADD14R,1.524000X1.524000*%
G04 #@! TD*
G04 #@! TA.AperFunction,ViaPad*
%ADD15C,0.800000*%
G04 #@! TD*
G04 #@! TA.AperFunction,Conductor*
%ADD16C,0.254000*%
G04 #@! TD*
G04 APERTURE END LIST*
D10*
G04 #@! TO.P,U1,8*
G04 #@! TO.N,+3V3*
X155702000Y-102504000D03*
G04 #@! TO.P,U1,7*
G04 #@! TO.N,Net-(J2-Pad2)*
X155702000Y-101854000D03*
G04 #@! TO.P,U1,6*
G04 #@! TO.N,Net-(J3-Pad2)*
X155702000Y-101204000D03*
G04 #@! TO.P,U1,5*
G04 #@! TO.N,Net-(J4-Pad2)*
X155702000Y-100554000D03*
G04 #@! TO.P,U1,4*
G04 #@! TO.N,GND*
X151302000Y-100554000D03*
G04 #@! TO.P,U1,3*
G04 #@! TO.N,Net-(U1-Pad3)*
X151302000Y-101204000D03*
G04 #@! TO.P,U1,2*
G04 #@! TO.N,/scl*
X151302000Y-101854000D03*
G04 #@! TO.P,U1,1*
G04 #@! TO.N,/sda*
X151302000Y-102504000D03*
G04 #@! TD*
D11*
G04 #@! TO.N,/scl*
G04 #@! TO.C,R2*
G36*
X147794505Y-101008204D02*
X147818773Y-101011804D01*
X147842572Y-101017765D01*
X147865671Y-101026030D01*
X147887850Y-101036520D01*
X147908893Y-101049132D01*
X147928599Y-101063747D01*
X147946777Y-101080223D01*
X147963253Y-101098401D01*
X147977868Y-101118107D01*
X147990480Y-101139150D01*
X148000970Y-101161329D01*
X148009235Y-101184428D01*
X148015196Y-101208227D01*
X148018796Y-101232495D01*
X148020000Y-101256999D01*
X148020000Y-101907001D01*
X148018796Y-101931505D01*
X148015196Y-101955773D01*
X148009235Y-101979572D01*
X148000970Y-102002671D01*
X147990480Y-102024850D01*
X147977868Y-102045893D01*
X147963253Y-102065599D01*
X147946777Y-102083777D01*
X147928599Y-102100253D01*
X147908893Y-102114868D01*
X147887850Y-102127480D01*
X147865671Y-102137970D01*
X147842572Y-102146235D01*
X147818773Y-102152196D01*
X147794505Y-102155796D01*
X147770001Y-102157000D01*
X146869999Y-102157000D01*
X146845495Y-102155796D01*
X146821227Y-102152196D01*
X146797428Y-102146235D01*
X146774329Y-102137970D01*
X146752150Y-102127480D01*
X146731107Y-102114868D01*
X146711401Y-102100253D01*
X146693223Y-102083777D01*
X146676747Y-102065599D01*
X146662132Y-102045893D01*
X146649520Y-102024850D01*
X146639030Y-102002671D01*
X146630765Y-101979572D01*
X146624804Y-101955773D01*
X146621204Y-101931505D01*
X146620000Y-101907001D01*
X146620000Y-101256999D01*
X146621204Y-101232495D01*
X146624804Y-101208227D01*
X146630765Y-101184428D01*
X146639030Y-101161329D01*
X146649520Y-101139150D01*
X146662132Y-101118107D01*
X146676747Y-101098401D01*
X146693223Y-101080223D01*
X146711401Y-101063747D01*
X146731107Y-101049132D01*
X146752150Y-101036520D01*
X146774329Y-101026030D01*
X146797428Y-101017765D01*
X146821227Y-101011804D01*
X146845495Y-101008204D01*
X146869999Y-101007000D01*
X147770001Y-101007000D01*
X147794505Y-101008204D01*
X147794505Y-101008204D01*
G37*
D12*
G04 #@! TD*
G04 #@! TO.P,R2,2*
G04 #@! TO.N,/scl*
X147320000Y-101582000D03*
D11*
G04 #@! TO.N,+3V3*
G04 #@! TO.C,R2*
G36*
X147794505Y-103058204D02*
X147818773Y-103061804D01*
X147842572Y-103067765D01*
X147865671Y-103076030D01*
X147887850Y-103086520D01*
X147908893Y-103099132D01*
X147928599Y-103113747D01*
X147946777Y-103130223D01*
X147963253Y-103148401D01*
X147977868Y-103168107D01*
X147990480Y-103189150D01*
X148000970Y-103211329D01*
X148009235Y-103234428D01*
X148015196Y-103258227D01*
X148018796Y-103282495D01*
X148020000Y-103306999D01*
X148020000Y-103957001D01*
X148018796Y-103981505D01*
X148015196Y-104005773D01*
X148009235Y-104029572D01*
X148000970Y-104052671D01*
X147990480Y-104074850D01*
X147977868Y-104095893D01*
X147963253Y-104115599D01*
X147946777Y-104133777D01*
X147928599Y-104150253D01*
X147908893Y-104164868D01*
X147887850Y-104177480D01*
X147865671Y-104187970D01*
X147842572Y-104196235D01*
X147818773Y-104202196D01*
X147794505Y-104205796D01*
X147770001Y-104207000D01*
X146869999Y-104207000D01*
X146845495Y-104205796D01*
X146821227Y-104202196D01*
X146797428Y-104196235D01*
X146774329Y-104187970D01*
X146752150Y-104177480D01*
X146731107Y-104164868D01*
X146711401Y-104150253D01*
X146693223Y-104133777D01*
X146676747Y-104115599D01*
X146662132Y-104095893D01*
X146649520Y-104074850D01*
X146639030Y-104052671D01*
X146630765Y-104029572D01*
X146624804Y-104005773D01*
X146621204Y-103981505D01*
X146620000Y-103957001D01*
X146620000Y-103306999D01*
X146621204Y-103282495D01*
X146624804Y-103258227D01*
X146630765Y-103234428D01*
X146639030Y-103211329D01*
X146649520Y-103189150D01*
X146662132Y-103168107D01*
X146676747Y-103148401D01*
X146693223Y-103130223D01*
X146711401Y-103113747D01*
X146731107Y-103099132D01*
X146752150Y-103086520D01*
X146774329Y-103076030D01*
X146797428Y-103067765D01*
X146821227Y-103061804D01*
X146845495Y-103058204D01*
X146869999Y-103057000D01*
X147770001Y-103057000D01*
X147794505Y-103058204D01*
X147794505Y-103058204D01*
G37*
D12*
G04 #@! TD*
G04 #@! TO.P,R2,1*
G04 #@! TO.N,+3V3*
X147320000Y-103632000D03*
D11*
G04 #@! TO.N,/sda*
G04 #@! TO.C,R1*
G36*
X145508505Y-102024204D02*
X145532773Y-102027804D01*
X145556572Y-102033765D01*
X145579671Y-102042030D01*
X145601850Y-102052520D01*
X145622893Y-102065132D01*
X145642599Y-102079747D01*
X145660777Y-102096223D01*
X145677253Y-102114401D01*
X145691868Y-102134107D01*
X145704480Y-102155150D01*
X145714970Y-102177329D01*
X145723235Y-102200428D01*
X145729196Y-102224227D01*
X145732796Y-102248495D01*
X145734000Y-102272999D01*
X145734000Y-102923001D01*
X145732796Y-102947505D01*
X145729196Y-102971773D01*
X145723235Y-102995572D01*
X145714970Y-103018671D01*
X145704480Y-103040850D01*
X145691868Y-103061893D01*
X145677253Y-103081599D01*
X145660777Y-103099777D01*
X145642599Y-103116253D01*
X145622893Y-103130868D01*
X145601850Y-103143480D01*
X145579671Y-103153970D01*
X145556572Y-103162235D01*
X145532773Y-103168196D01*
X145508505Y-103171796D01*
X145484001Y-103173000D01*
X144583999Y-103173000D01*
X144559495Y-103171796D01*
X144535227Y-103168196D01*
X144511428Y-103162235D01*
X144488329Y-103153970D01*
X144466150Y-103143480D01*
X144445107Y-103130868D01*
X144425401Y-103116253D01*
X144407223Y-103099777D01*
X144390747Y-103081599D01*
X144376132Y-103061893D01*
X144363520Y-103040850D01*
X144353030Y-103018671D01*
X144344765Y-102995572D01*
X144338804Y-102971773D01*
X144335204Y-102947505D01*
X144334000Y-102923001D01*
X144334000Y-102272999D01*
X144335204Y-102248495D01*
X144338804Y-102224227D01*
X144344765Y-102200428D01*
X144353030Y-102177329D01*
X144363520Y-102155150D01*
X144376132Y-102134107D01*
X144390747Y-102114401D01*
X144407223Y-102096223D01*
X144425401Y-102079747D01*
X144445107Y-102065132D01*
X144466150Y-102052520D01*
X144488329Y-102042030D01*
X144511428Y-102033765D01*
X144535227Y-102027804D01*
X144559495Y-102024204D01*
X144583999Y-102023000D01*
X145484001Y-102023000D01*
X145508505Y-102024204D01*
X145508505Y-102024204D01*
G37*
D12*
G04 #@! TD*
G04 #@! TO.P,R1,2*
G04 #@! TO.N,/sda*
X145034000Y-102598000D03*
D11*
G04 #@! TO.N,+3V3*
G04 #@! TO.C,R1*
G36*
X145508505Y-104074204D02*
X145532773Y-104077804D01*
X145556572Y-104083765D01*
X145579671Y-104092030D01*
X145601850Y-104102520D01*
X145622893Y-104115132D01*
X145642599Y-104129747D01*
X145660777Y-104146223D01*
X145677253Y-104164401D01*
X145691868Y-104184107D01*
X145704480Y-104205150D01*
X145714970Y-104227329D01*
X145723235Y-104250428D01*
X145729196Y-104274227D01*
X145732796Y-104298495D01*
X145734000Y-104322999D01*
X145734000Y-104973001D01*
X145732796Y-104997505D01*
X145729196Y-105021773D01*
X145723235Y-105045572D01*
X145714970Y-105068671D01*
X145704480Y-105090850D01*
X145691868Y-105111893D01*
X145677253Y-105131599D01*
X145660777Y-105149777D01*
X145642599Y-105166253D01*
X145622893Y-105180868D01*
X145601850Y-105193480D01*
X145579671Y-105203970D01*
X145556572Y-105212235D01*
X145532773Y-105218196D01*
X145508505Y-105221796D01*
X145484001Y-105223000D01*
X144583999Y-105223000D01*
X144559495Y-105221796D01*
X144535227Y-105218196D01*
X144511428Y-105212235D01*
X144488329Y-105203970D01*
X144466150Y-105193480D01*
X144445107Y-105180868D01*
X144425401Y-105166253D01*
X144407223Y-105149777D01*
X144390747Y-105131599D01*
X144376132Y-105111893D01*
X144363520Y-105090850D01*
X144353030Y-105068671D01*
X144344765Y-105045572D01*
X144338804Y-105021773D01*
X144335204Y-104997505D01*
X144334000Y-104973001D01*
X144334000Y-104322999D01*
X144335204Y-104298495D01*
X144338804Y-104274227D01*
X144344765Y-104250428D01*
X144353030Y-104227329D01*
X144363520Y-104205150D01*
X144376132Y-104184107D01*
X144390747Y-104164401D01*
X144407223Y-104146223D01*
X144425401Y-104129747D01*
X144445107Y-104115132D01*
X144466150Y-104102520D01*
X144488329Y-104092030D01*
X144511428Y-104083765D01*
X144535227Y-104077804D01*
X144559495Y-104074204D01*
X144583999Y-104073000D01*
X145484001Y-104073000D01*
X145508505Y-104074204D01*
X145508505Y-104074204D01*
G37*
D12*
G04 #@! TD*
G04 #@! TO.P,R1,1*
G04 #@! TO.N,+3V3*
X145034000Y-104648000D03*
D13*
G04 #@! TO.P,M2,1*
G04 #@! TO.N,GND*
X162560000Y-101600000D03*
G04 #@! TD*
G04 #@! TO.P,M1,1*
G04 #@! TO.N,GND*
X121920000Y-101600000D03*
G04 #@! TD*
D14*
G04 #@! TO.P,J1,10*
G04 #@! TO.N,GND*
X139065000Y-99822000D03*
G04 #@! TO.P,J1,9*
X139065000Y-102362000D03*
G04 #@! TO.P,J1,8*
G04 #@! TO.N,/sda*
X136525000Y-99822000D03*
G04 #@! TO.P,J1,7*
X136525000Y-102362000D03*
G04 #@! TO.P,J1,6*
G04 #@! TO.N,+3V3*
X133985000Y-99822000D03*
G04 #@! TO.P,J1,5*
X133985000Y-102362000D03*
G04 #@! TO.P,J1,4*
G04 #@! TO.N,/scl*
X131445000Y-99822000D03*
G04 #@! TO.P,J1,3*
X131445000Y-102362000D03*
G04 #@! TO.P,J1,2*
G04 #@! TO.N,GND*
X128905000Y-99822000D03*
G04 #@! TO.P,J1,1*
X128905000Y-102362000D03*
G04 #@! TD*
D15*
G04 #@! TO.N,Net-(J2-Pad2)*
X151384000Y-98298000D03*
G04 #@! TO.N,Net-(J3-Pad2)*
X152908000Y-98298000D03*
G04 #@! TO.N,Net-(J4-Pad2)*
X154432000Y-98298000D03*
G04 #@! TD*
D16*
G04 #@! TO.N,/sda*
X151208000Y-102598000D02*
X151302000Y-102504000D01*
X145034000Y-102598000D02*
X151208000Y-102598000D01*
X136525000Y-101934602D02*
X136525000Y-102362000D01*
X136525000Y-99822000D02*
X136525000Y-101934602D01*
X136525000Y-103378000D02*
X137033000Y-103886000D01*
X136525000Y-102362000D02*
X136525000Y-103378000D01*
X144334000Y-102598000D02*
X145034000Y-102598000D01*
X137033000Y-103886000D02*
X143046000Y-103886000D01*
X143046000Y-103886000D02*
X144334000Y-102598000D01*
G04 #@! TO.N,+3V3*
X155702000Y-102983000D02*
X155702000Y-102504000D01*
X147320000Y-103632000D02*
X155053000Y-103632000D01*
X155053000Y-103632000D02*
X155702000Y-102983000D01*
X147320000Y-104207000D02*
X147320000Y-103632000D01*
X145034000Y-104648000D02*
X146879000Y-104648000D01*
X146879000Y-104648000D02*
X147320000Y-104207000D01*
X133985000Y-99822000D02*
X133985000Y-102362000D01*
X144334000Y-104648000D02*
X145034000Y-104648000D01*
X135255000Y-104648000D02*
X144334000Y-104648000D01*
X133985000Y-102362000D02*
X133985000Y-103378000D01*
X133985000Y-103378000D02*
X135255000Y-104648000D01*
G04 #@! TO.N,/scl*
X150323000Y-101854000D02*
X151302000Y-101854000D01*
X148292000Y-101854000D02*
X150323000Y-101854000D01*
X147320000Y-101582000D02*
X148020000Y-101582000D01*
X148020000Y-101582000D02*
X148292000Y-101854000D01*
X131445000Y-102362000D02*
X131445000Y-99441000D01*
X131445000Y-99441000D02*
X132334000Y-98552000D01*
X147320000Y-101007000D02*
X147320000Y-101582000D01*
X132334000Y-98552000D02*
X144865000Y-98552000D01*
X144865000Y-98552000D02*
X147320000Y-101007000D01*
G04 #@! TO.N,Net-(J2-Pad2)*
X155702000Y-101854000D02*
X154178000Y-101854000D01*
X154178000Y-101854000D02*
X152908000Y-100584000D01*
X152908000Y-100584000D02*
X152908000Y-100076000D01*
X152908000Y-100076000D02*
X152908000Y-99822000D01*
X152908000Y-99822000D02*
X151384000Y-98298000D01*
X151384000Y-98298000D02*
X151384000Y-98298000D01*
G04 #@! TO.N,Net-(J3-Pad2)*
X155702000Y-101204000D02*
X154290000Y-101204000D01*
X154290000Y-101204000D02*
X153416000Y-100330000D01*
X153416000Y-100330000D02*
X153416000Y-98806000D01*
X153416000Y-98806000D02*
X152908000Y-98298000D01*
X152908000Y-98298000D02*
X152908000Y-98298000D01*
G04 #@! TO.N,Net-(J4-Pad2)*
X154723000Y-100554000D02*
X154432000Y-100263000D01*
X155702000Y-100554000D02*
X154723000Y-100554000D01*
X154432000Y-100263000D02*
X154432000Y-98298000D01*
X154432000Y-98298000D02*
X154432000Y-98298000D01*
G04 #@! TD*
G04 #@! TO.N,GND*
G36*
X166934001Y-105974000D02*
X117546000Y-105974000D01*
X117546000Y-102647750D01*
X127508000Y-102647750D01*
X127508000Y-103186542D01*
X127532403Y-103309223D01*
X127580270Y-103424785D01*
X127649763Y-103528789D01*
X127738211Y-103617237D01*
X127842215Y-103686730D01*
X127957777Y-103734597D01*
X128080458Y-103759000D01*
X128619250Y-103759000D01*
X128778000Y-103600250D01*
X128778000Y-102489000D01*
X127666750Y-102489000D01*
X127508000Y-102647750D01*
X117546000Y-102647750D01*
X117546000Y-100107750D01*
X127508000Y-100107750D01*
X127508000Y-100646542D01*
X127532403Y-100769223D01*
X127580270Y-100884785D01*
X127649763Y-100988789D01*
X127738211Y-101077237D01*
X127760305Y-101092000D01*
X127738211Y-101106763D01*
X127649763Y-101195211D01*
X127580270Y-101299215D01*
X127532403Y-101414777D01*
X127508000Y-101537458D01*
X127508000Y-102076250D01*
X127666750Y-102235000D01*
X128778000Y-102235000D01*
X128778000Y-101123750D01*
X128746250Y-101092000D01*
X128778000Y-101060250D01*
X128778000Y-99949000D01*
X127666750Y-99949000D01*
X127508000Y-100107750D01*
X117546000Y-100107750D01*
X117546000Y-98997458D01*
X127508000Y-98997458D01*
X127508000Y-99536250D01*
X127666750Y-99695000D01*
X128778000Y-99695000D01*
X128778000Y-98583750D01*
X129032000Y-98583750D01*
X129032000Y-99695000D01*
X129052000Y-99695000D01*
X129052000Y-99949000D01*
X129032000Y-99949000D01*
X129032000Y-101060250D01*
X129063750Y-101092000D01*
X129032000Y-101123750D01*
X129032000Y-102235000D01*
X129052000Y-102235000D01*
X129052000Y-102489000D01*
X129032000Y-102489000D01*
X129032000Y-103600250D01*
X129190750Y-103759000D01*
X129729542Y-103759000D01*
X129852223Y-103734597D01*
X129967785Y-103686730D01*
X130071789Y-103617237D01*
X130160237Y-103528789D01*
X130229730Y-103424785D01*
X130277597Y-103309223D01*
X130283687Y-103278609D01*
X130286595Y-103288196D01*
X130326245Y-103362376D01*
X130379605Y-103427395D01*
X130444624Y-103480755D01*
X130518804Y-103520405D01*
X130599293Y-103544822D01*
X130683000Y-103553066D01*
X132207000Y-103553066D01*
X132290707Y-103544822D01*
X132371196Y-103520405D01*
X132445376Y-103480755D01*
X132510395Y-103427395D01*
X132563755Y-103362376D01*
X132603405Y-103288196D01*
X132627822Y-103207707D01*
X132636066Y-103124000D01*
X132636066Y-101600000D01*
X132627822Y-101516293D01*
X132603405Y-101435804D01*
X132563755Y-101361624D01*
X132510395Y-101296605D01*
X132445376Y-101243245D01*
X132371196Y-101203595D01*
X132290707Y-101179178D01*
X132207000Y-101170934D01*
X131999000Y-101170934D01*
X131999000Y-101013066D01*
X132207000Y-101013066D01*
X132290707Y-101004822D01*
X132371196Y-100980405D01*
X132445376Y-100940755D01*
X132510395Y-100887395D01*
X132563755Y-100822376D01*
X132603405Y-100748196D01*
X132627822Y-100667707D01*
X132636066Y-100584000D01*
X132636066Y-99106000D01*
X132793934Y-99106000D01*
X132793934Y-100584000D01*
X132802178Y-100667707D01*
X132826595Y-100748196D01*
X132866245Y-100822376D01*
X132919605Y-100887395D01*
X132984624Y-100940755D01*
X133058804Y-100980405D01*
X133139293Y-101004822D01*
X133223000Y-101013066D01*
X133431000Y-101013066D01*
X133431001Y-101170934D01*
X133223000Y-101170934D01*
X133139293Y-101179178D01*
X133058804Y-101203595D01*
X132984624Y-101243245D01*
X132919605Y-101296605D01*
X132866245Y-101361624D01*
X132826595Y-101435804D01*
X132802178Y-101516293D01*
X132793934Y-101600000D01*
X132793934Y-103124000D01*
X132802178Y-103207707D01*
X132826595Y-103288196D01*
X132866245Y-103362376D01*
X132919605Y-103427395D01*
X132984624Y-103480755D01*
X133058804Y-103520405D01*
X133139293Y-103544822D01*
X133223000Y-103553066D01*
X133459178Y-103553066D01*
X133466356Y-103576725D01*
X133470696Y-103591032D01*
X133522138Y-103687275D01*
X133591369Y-103771632D01*
X133612505Y-103788979D01*
X134844021Y-105020495D01*
X134861368Y-105041632D01*
X134945725Y-105110863D01*
X135041968Y-105162305D01*
X135146397Y-105193984D01*
X135227788Y-105202000D01*
X135227797Y-105202000D01*
X135254999Y-105204679D01*
X135282201Y-105202000D01*
X143947261Y-105202000D01*
X143956625Y-105232868D01*
X144019377Y-105350269D01*
X144103828Y-105453172D01*
X144206731Y-105537623D01*
X144324132Y-105600375D01*
X144451520Y-105639018D01*
X144583999Y-105652066D01*
X145484001Y-105652066D01*
X145616480Y-105639018D01*
X145743868Y-105600375D01*
X145861269Y-105537623D01*
X145964172Y-105453172D01*
X146048623Y-105350269D01*
X146111375Y-105232868D01*
X146120739Y-105202000D01*
X146851796Y-105202000D01*
X146879000Y-105204679D01*
X146906204Y-105202000D01*
X146906212Y-105202000D01*
X146987603Y-105193984D01*
X147092032Y-105162305D01*
X147188275Y-105110863D01*
X147272632Y-105041632D01*
X147289983Y-105020490D01*
X147674408Y-104636066D01*
X147770001Y-104636066D01*
X147902480Y-104623018D01*
X148029868Y-104584375D01*
X148147269Y-104521623D01*
X148250172Y-104437172D01*
X148334623Y-104334269D01*
X148397375Y-104216868D01*
X148406739Y-104186000D01*
X155025796Y-104186000D01*
X155053000Y-104188679D01*
X155080204Y-104186000D01*
X155080212Y-104186000D01*
X155161603Y-104177984D01*
X155266032Y-104146305D01*
X155362275Y-104094863D01*
X155446632Y-104025632D01*
X155463983Y-104004490D01*
X156074500Y-103393975D01*
X156095632Y-103376632D01*
X156112974Y-103355501D01*
X156112979Y-103355496D01*
X156164863Y-103292275D01*
X156216305Y-103196032D01*
X156227822Y-103158066D01*
X156427000Y-103158066D01*
X156510707Y-103149822D01*
X156591196Y-103125405D01*
X156665376Y-103085755D01*
X156730395Y-103032395D01*
X156783755Y-102967376D01*
X156823405Y-102893196D01*
X156847822Y-102812707D01*
X156856066Y-102729000D01*
X156856066Y-102279000D01*
X156847822Y-102195293D01*
X156842879Y-102179000D01*
X156847822Y-102162707D01*
X156856066Y-102079000D01*
X156856066Y-101629000D01*
X156847822Y-101545293D01*
X156842879Y-101529000D01*
X156847822Y-101512707D01*
X156856066Y-101429000D01*
X156856066Y-100979000D01*
X156847822Y-100895293D01*
X156842879Y-100879000D01*
X156847822Y-100862707D01*
X156856066Y-100779000D01*
X156856066Y-100329000D01*
X156847822Y-100245293D01*
X156823405Y-100164804D01*
X156783755Y-100090624D01*
X156730395Y-100025605D01*
X156665376Y-99972245D01*
X156591196Y-99932595D01*
X156510707Y-99908178D01*
X156427000Y-99899934D01*
X154986000Y-99899934D01*
X154986000Y-98913553D01*
X155074372Y-98825181D01*
X155164877Y-98689731D01*
X155227218Y-98539227D01*
X155259000Y-98379452D01*
X155259000Y-98216548D01*
X155227218Y-98056773D01*
X155164877Y-97906269D01*
X155074372Y-97770819D01*
X154959181Y-97655628D01*
X154823731Y-97565123D01*
X154673227Y-97502782D01*
X154513452Y-97471000D01*
X154350548Y-97471000D01*
X154190773Y-97502782D01*
X154040269Y-97565123D01*
X153904819Y-97655628D01*
X153789628Y-97770819D01*
X153699123Y-97906269D01*
X153670000Y-97976578D01*
X153640877Y-97906269D01*
X153550372Y-97770819D01*
X153435181Y-97655628D01*
X153299731Y-97565123D01*
X153149227Y-97502782D01*
X152989452Y-97471000D01*
X152826548Y-97471000D01*
X152666773Y-97502782D01*
X152516269Y-97565123D01*
X152380819Y-97655628D01*
X152265628Y-97770819D01*
X152175123Y-97906269D01*
X152146000Y-97976578D01*
X152116877Y-97906269D01*
X152026372Y-97770819D01*
X151911181Y-97655628D01*
X151775731Y-97565123D01*
X151625227Y-97502782D01*
X151465452Y-97471000D01*
X151302548Y-97471000D01*
X151142773Y-97502782D01*
X150992269Y-97565123D01*
X150856819Y-97655628D01*
X150741628Y-97770819D01*
X150651123Y-97906269D01*
X150588782Y-98056773D01*
X150557000Y-98216548D01*
X150557000Y-98379452D01*
X150588782Y-98539227D01*
X150651123Y-98689731D01*
X150741628Y-98825181D01*
X150856819Y-98940372D01*
X150992269Y-99030877D01*
X151142773Y-99093218D01*
X151302548Y-99125000D01*
X151427527Y-99125000D01*
X151996526Y-99694000D01*
X151587750Y-99694000D01*
X151429000Y-99852750D01*
X151429000Y-100441500D01*
X151449000Y-100441500D01*
X151449000Y-100549934D01*
X150577000Y-100549934D01*
X150493293Y-100558178D01*
X150412804Y-100582595D01*
X150338624Y-100622245D01*
X150284699Y-100666500D01*
X150100750Y-100666500D01*
X149942000Y-100825250D01*
X149942000Y-100841542D01*
X149966403Y-100964223D01*
X150014270Y-101079785D01*
X150083763Y-101183789D01*
X150147934Y-101247960D01*
X150147934Y-101300000D01*
X148521473Y-101300000D01*
X148445853Y-101224380D01*
X148436018Y-101124520D01*
X148397375Y-100997132D01*
X148334623Y-100879731D01*
X148250172Y-100776828D01*
X148147269Y-100692377D01*
X148029868Y-100629625D01*
X147902480Y-100590982D01*
X147770001Y-100577934D01*
X147674408Y-100577934D01*
X147362932Y-100266458D01*
X149942000Y-100266458D01*
X149942000Y-100282750D01*
X150100750Y-100441500D01*
X151175000Y-100441500D01*
X151175000Y-99852750D01*
X151016250Y-99694000D01*
X150514458Y-99694000D01*
X150391777Y-99718403D01*
X150276215Y-99766270D01*
X150172211Y-99835763D01*
X150083763Y-99924211D01*
X150014270Y-100028215D01*
X149966403Y-100143777D01*
X149942000Y-100266458D01*
X147362932Y-100266458D01*
X145275983Y-98179510D01*
X145258632Y-98158368D01*
X145174275Y-98089137D01*
X145078032Y-98037695D01*
X144973603Y-98006016D01*
X144892212Y-97998000D01*
X144892204Y-97998000D01*
X144865000Y-97995321D01*
X144837796Y-97998000D01*
X132361204Y-97998000D01*
X132334000Y-97995321D01*
X132306796Y-97998000D01*
X132306788Y-97998000D01*
X132234765Y-98005093D01*
X132225396Y-98006016D01*
X132120967Y-98037695D01*
X132024725Y-98089137D01*
X131961504Y-98141021D01*
X131961499Y-98141026D01*
X131940368Y-98158368D01*
X131923026Y-98179500D01*
X131471592Y-98630934D01*
X130683000Y-98630934D01*
X130599293Y-98639178D01*
X130518804Y-98663595D01*
X130444624Y-98703245D01*
X130379605Y-98756605D01*
X130326245Y-98821624D01*
X130286595Y-98895804D01*
X130283687Y-98905391D01*
X130277597Y-98874777D01*
X130229730Y-98759215D01*
X130160237Y-98655211D01*
X130071789Y-98566763D01*
X129967785Y-98497270D01*
X129852223Y-98449403D01*
X129729542Y-98425000D01*
X129190750Y-98425000D01*
X129032000Y-98583750D01*
X128778000Y-98583750D01*
X128619250Y-98425000D01*
X128080458Y-98425000D01*
X127957777Y-98449403D01*
X127842215Y-98497270D01*
X127738211Y-98566763D01*
X127649763Y-98655211D01*
X127580270Y-98759215D01*
X127532403Y-98874777D01*
X127508000Y-98997458D01*
X117546000Y-98997458D01*
X117546000Y-97226000D01*
X166934000Y-97226000D01*
X166934001Y-105974000D01*
X166934001Y-105974000D01*
G37*
X166934001Y-105974000D02*
X117546000Y-105974000D01*
X117546000Y-102647750D01*
X127508000Y-102647750D01*
X127508000Y-103186542D01*
X127532403Y-103309223D01*
X127580270Y-103424785D01*
X127649763Y-103528789D01*
X127738211Y-103617237D01*
X127842215Y-103686730D01*
X127957777Y-103734597D01*
X128080458Y-103759000D01*
X128619250Y-103759000D01*
X128778000Y-103600250D01*
X128778000Y-102489000D01*
X127666750Y-102489000D01*
X127508000Y-102647750D01*
X117546000Y-102647750D01*
X117546000Y-100107750D01*
X127508000Y-100107750D01*
X127508000Y-100646542D01*
X127532403Y-100769223D01*
X127580270Y-100884785D01*
X127649763Y-100988789D01*
X127738211Y-101077237D01*
X127760305Y-101092000D01*
X127738211Y-101106763D01*
X127649763Y-101195211D01*
X127580270Y-101299215D01*
X127532403Y-101414777D01*
X127508000Y-101537458D01*
X127508000Y-102076250D01*
X127666750Y-102235000D01*
X128778000Y-102235000D01*
X128778000Y-101123750D01*
X128746250Y-101092000D01*
X128778000Y-101060250D01*
X128778000Y-99949000D01*
X127666750Y-99949000D01*
X127508000Y-100107750D01*
X117546000Y-100107750D01*
X117546000Y-98997458D01*
X127508000Y-98997458D01*
X127508000Y-99536250D01*
X127666750Y-99695000D01*
X128778000Y-99695000D01*
X128778000Y-98583750D01*
X129032000Y-98583750D01*
X129032000Y-99695000D01*
X129052000Y-99695000D01*
X129052000Y-99949000D01*
X129032000Y-99949000D01*
X129032000Y-101060250D01*
X129063750Y-101092000D01*
X129032000Y-101123750D01*
X129032000Y-102235000D01*
X129052000Y-102235000D01*
X129052000Y-102489000D01*
X129032000Y-102489000D01*
X129032000Y-103600250D01*
X129190750Y-103759000D01*
X129729542Y-103759000D01*
X129852223Y-103734597D01*
X129967785Y-103686730D01*
X130071789Y-103617237D01*
X130160237Y-103528789D01*
X130229730Y-103424785D01*
X130277597Y-103309223D01*
X130283687Y-103278609D01*
X130286595Y-103288196D01*
X130326245Y-103362376D01*
X130379605Y-103427395D01*
X130444624Y-103480755D01*
X130518804Y-103520405D01*
X130599293Y-103544822D01*
X130683000Y-103553066D01*
X132207000Y-103553066D01*
X132290707Y-103544822D01*
X132371196Y-103520405D01*
X132445376Y-103480755D01*
X132510395Y-103427395D01*
X132563755Y-103362376D01*
X132603405Y-103288196D01*
X132627822Y-103207707D01*
X132636066Y-103124000D01*
X132636066Y-101600000D01*
X132627822Y-101516293D01*
X132603405Y-101435804D01*
X132563755Y-101361624D01*
X132510395Y-101296605D01*
X132445376Y-101243245D01*
X132371196Y-101203595D01*
X132290707Y-101179178D01*
X132207000Y-101170934D01*
X131999000Y-101170934D01*
X131999000Y-101013066D01*
X132207000Y-101013066D01*
X132290707Y-101004822D01*
X132371196Y-100980405D01*
X132445376Y-100940755D01*
X132510395Y-100887395D01*
X132563755Y-100822376D01*
X132603405Y-100748196D01*
X132627822Y-100667707D01*
X132636066Y-100584000D01*
X132636066Y-99106000D01*
X132793934Y-99106000D01*
X132793934Y-100584000D01*
X132802178Y-100667707D01*
X132826595Y-100748196D01*
X132866245Y-100822376D01*
X132919605Y-100887395D01*
X132984624Y-100940755D01*
X133058804Y-100980405D01*
X133139293Y-101004822D01*
X133223000Y-101013066D01*
X133431000Y-101013066D01*
X133431001Y-101170934D01*
X133223000Y-101170934D01*
X133139293Y-101179178D01*
X133058804Y-101203595D01*
X132984624Y-101243245D01*
X132919605Y-101296605D01*
X132866245Y-101361624D01*
X132826595Y-101435804D01*
X132802178Y-101516293D01*
X132793934Y-101600000D01*
X132793934Y-103124000D01*
X132802178Y-103207707D01*
X132826595Y-103288196D01*
X132866245Y-103362376D01*
X132919605Y-103427395D01*
X132984624Y-103480755D01*
X133058804Y-103520405D01*
X133139293Y-103544822D01*
X133223000Y-103553066D01*
X133459178Y-103553066D01*
X133466356Y-103576725D01*
X133470696Y-103591032D01*
X133522138Y-103687275D01*
X133591369Y-103771632D01*
X133612505Y-103788979D01*
X134844021Y-105020495D01*
X134861368Y-105041632D01*
X134945725Y-105110863D01*
X135041968Y-105162305D01*
X135146397Y-105193984D01*
X135227788Y-105202000D01*
X135227797Y-105202000D01*
X135254999Y-105204679D01*
X135282201Y-105202000D01*
X143947261Y-105202000D01*
X143956625Y-105232868D01*
X144019377Y-105350269D01*
X144103828Y-105453172D01*
X144206731Y-105537623D01*
X144324132Y-105600375D01*
X144451520Y-105639018D01*
X144583999Y-105652066D01*
X145484001Y-105652066D01*
X145616480Y-105639018D01*
X145743868Y-105600375D01*
X145861269Y-105537623D01*
X145964172Y-105453172D01*
X146048623Y-105350269D01*
X146111375Y-105232868D01*
X146120739Y-105202000D01*
X146851796Y-105202000D01*
X146879000Y-105204679D01*
X146906204Y-105202000D01*
X146906212Y-105202000D01*
X146987603Y-105193984D01*
X147092032Y-105162305D01*
X147188275Y-105110863D01*
X147272632Y-105041632D01*
X147289983Y-105020490D01*
X147674408Y-104636066D01*
X147770001Y-104636066D01*
X147902480Y-104623018D01*
X148029868Y-104584375D01*
X148147269Y-104521623D01*
X148250172Y-104437172D01*
X148334623Y-104334269D01*
X148397375Y-104216868D01*
X148406739Y-104186000D01*
X155025796Y-104186000D01*
X155053000Y-104188679D01*
X155080204Y-104186000D01*
X155080212Y-104186000D01*
X155161603Y-104177984D01*
X155266032Y-104146305D01*
X155362275Y-104094863D01*
X155446632Y-104025632D01*
X155463983Y-104004490D01*
X156074500Y-103393975D01*
X156095632Y-103376632D01*
X156112974Y-103355501D01*
X156112979Y-103355496D01*
X156164863Y-103292275D01*
X156216305Y-103196032D01*
X156227822Y-103158066D01*
X156427000Y-103158066D01*
X156510707Y-103149822D01*
X156591196Y-103125405D01*
X156665376Y-103085755D01*
X156730395Y-103032395D01*
X156783755Y-102967376D01*
X156823405Y-102893196D01*
X156847822Y-102812707D01*
X156856066Y-102729000D01*
X156856066Y-102279000D01*
X156847822Y-102195293D01*
X156842879Y-102179000D01*
X156847822Y-102162707D01*
X156856066Y-102079000D01*
X156856066Y-101629000D01*
X156847822Y-101545293D01*
X156842879Y-101529000D01*
X156847822Y-101512707D01*
X156856066Y-101429000D01*
X156856066Y-100979000D01*
X156847822Y-100895293D01*
X156842879Y-100879000D01*
X156847822Y-100862707D01*
X156856066Y-100779000D01*
X156856066Y-100329000D01*
X156847822Y-100245293D01*
X156823405Y-100164804D01*
X156783755Y-100090624D01*
X156730395Y-100025605D01*
X156665376Y-99972245D01*
X156591196Y-99932595D01*
X156510707Y-99908178D01*
X156427000Y-99899934D01*
X154986000Y-99899934D01*
X154986000Y-98913553D01*
X155074372Y-98825181D01*
X155164877Y-98689731D01*
X155227218Y-98539227D01*
X155259000Y-98379452D01*
X155259000Y-98216548D01*
X155227218Y-98056773D01*
X155164877Y-97906269D01*
X155074372Y-97770819D01*
X154959181Y-97655628D01*
X154823731Y-97565123D01*
X154673227Y-97502782D01*
X154513452Y-97471000D01*
X154350548Y-97471000D01*
X154190773Y-97502782D01*
X154040269Y-97565123D01*
X153904819Y-97655628D01*
X153789628Y-97770819D01*
X153699123Y-97906269D01*
X153670000Y-97976578D01*
X153640877Y-97906269D01*
X153550372Y-97770819D01*
X153435181Y-97655628D01*
X153299731Y-97565123D01*
X153149227Y-97502782D01*
X152989452Y-97471000D01*
X152826548Y-97471000D01*
X152666773Y-97502782D01*
X152516269Y-97565123D01*
X152380819Y-97655628D01*
X152265628Y-97770819D01*
X152175123Y-97906269D01*
X152146000Y-97976578D01*
X152116877Y-97906269D01*
X152026372Y-97770819D01*
X151911181Y-97655628D01*
X151775731Y-97565123D01*
X151625227Y-97502782D01*
X151465452Y-97471000D01*
X151302548Y-97471000D01*
X151142773Y-97502782D01*
X150992269Y-97565123D01*
X150856819Y-97655628D01*
X150741628Y-97770819D01*
X150651123Y-97906269D01*
X150588782Y-98056773D01*
X150557000Y-98216548D01*
X150557000Y-98379452D01*
X150588782Y-98539227D01*
X150651123Y-98689731D01*
X150741628Y-98825181D01*
X150856819Y-98940372D01*
X150992269Y-99030877D01*
X151142773Y-99093218D01*
X151302548Y-99125000D01*
X151427527Y-99125000D01*
X151996526Y-99694000D01*
X151587750Y-99694000D01*
X151429000Y-99852750D01*
X151429000Y-100441500D01*
X151449000Y-100441500D01*
X151449000Y-100549934D01*
X150577000Y-100549934D01*
X150493293Y-100558178D01*
X150412804Y-100582595D01*
X150338624Y-100622245D01*
X150284699Y-100666500D01*
X150100750Y-100666500D01*
X149942000Y-100825250D01*
X149942000Y-100841542D01*
X149966403Y-100964223D01*
X150014270Y-101079785D01*
X150083763Y-101183789D01*
X150147934Y-101247960D01*
X150147934Y-101300000D01*
X148521473Y-101300000D01*
X148445853Y-101224380D01*
X148436018Y-101124520D01*
X148397375Y-100997132D01*
X148334623Y-100879731D01*
X148250172Y-100776828D01*
X148147269Y-100692377D01*
X148029868Y-100629625D01*
X147902480Y-100590982D01*
X147770001Y-100577934D01*
X147674408Y-100577934D01*
X147362932Y-100266458D01*
X149942000Y-100266458D01*
X149942000Y-100282750D01*
X150100750Y-100441500D01*
X151175000Y-100441500D01*
X151175000Y-99852750D01*
X151016250Y-99694000D01*
X150514458Y-99694000D01*
X150391777Y-99718403D01*
X150276215Y-99766270D01*
X150172211Y-99835763D01*
X150083763Y-99924211D01*
X150014270Y-100028215D01*
X149966403Y-100143777D01*
X149942000Y-100266458D01*
X147362932Y-100266458D01*
X145275983Y-98179510D01*
X145258632Y-98158368D01*
X145174275Y-98089137D01*
X145078032Y-98037695D01*
X144973603Y-98006016D01*
X144892212Y-97998000D01*
X144892204Y-97998000D01*
X144865000Y-97995321D01*
X144837796Y-97998000D01*
X132361204Y-97998000D01*
X132334000Y-97995321D01*
X132306796Y-97998000D01*
X132306788Y-97998000D01*
X132234765Y-98005093D01*
X132225396Y-98006016D01*
X132120967Y-98037695D01*
X132024725Y-98089137D01*
X131961504Y-98141021D01*
X131961499Y-98141026D01*
X131940368Y-98158368D01*
X131923026Y-98179500D01*
X131471592Y-98630934D01*
X130683000Y-98630934D01*
X130599293Y-98639178D01*
X130518804Y-98663595D01*
X130444624Y-98703245D01*
X130379605Y-98756605D01*
X130326245Y-98821624D01*
X130286595Y-98895804D01*
X130283687Y-98905391D01*
X130277597Y-98874777D01*
X130229730Y-98759215D01*
X130160237Y-98655211D01*
X130071789Y-98566763D01*
X129967785Y-98497270D01*
X129852223Y-98449403D01*
X129729542Y-98425000D01*
X129190750Y-98425000D01*
X129032000Y-98583750D01*
X128778000Y-98583750D01*
X128619250Y-98425000D01*
X128080458Y-98425000D01*
X127957777Y-98449403D01*
X127842215Y-98497270D01*
X127738211Y-98566763D01*
X127649763Y-98655211D01*
X127580270Y-98759215D01*
X127532403Y-98874777D01*
X127508000Y-98997458D01*
X117546000Y-98997458D01*
X117546000Y-97226000D01*
X166934000Y-97226000D01*
X166934001Y-105974000D01*
G36*
X146352202Y-100822675D02*
X146305377Y-100879731D01*
X146242625Y-100997132D01*
X146203982Y-101124520D01*
X146190934Y-101256999D01*
X146190934Y-101907001D01*
X146203982Y-102039480D01*
X146205353Y-102044000D01*
X146120739Y-102044000D01*
X146111375Y-102013132D01*
X146048623Y-101895731D01*
X145964172Y-101792828D01*
X145861269Y-101708377D01*
X145743868Y-101645625D01*
X145616480Y-101606982D01*
X145484001Y-101593934D01*
X144583999Y-101593934D01*
X144451520Y-101606982D01*
X144324132Y-101645625D01*
X144206731Y-101708377D01*
X144103828Y-101792828D01*
X144019377Y-101895731D01*
X143956625Y-102013132D01*
X143917982Y-102140520D01*
X143908147Y-102240379D01*
X142816527Y-103332000D01*
X140428163Y-103332000D01*
X140437597Y-103309223D01*
X140462000Y-103186542D01*
X140462000Y-102647750D01*
X140303250Y-102489000D01*
X139192000Y-102489000D01*
X139192000Y-102509000D01*
X138938000Y-102509000D01*
X138938000Y-102489000D01*
X138918000Y-102489000D01*
X138918000Y-102235000D01*
X138938000Y-102235000D01*
X138938000Y-101123750D01*
X138906250Y-101092000D01*
X138938000Y-101060250D01*
X138938000Y-99949000D01*
X139192000Y-99949000D01*
X139192000Y-101060250D01*
X139223750Y-101092000D01*
X139192000Y-101123750D01*
X139192000Y-102235000D01*
X140303250Y-102235000D01*
X140462000Y-102076250D01*
X140462000Y-101537458D01*
X140437597Y-101414777D01*
X140389730Y-101299215D01*
X140320237Y-101195211D01*
X140231789Y-101106763D01*
X140209695Y-101092000D01*
X140231789Y-101077237D01*
X140320237Y-100988789D01*
X140389730Y-100884785D01*
X140437597Y-100769223D01*
X140462000Y-100646542D01*
X140462000Y-100107750D01*
X140303250Y-99949000D01*
X139192000Y-99949000D01*
X138938000Y-99949000D01*
X138918000Y-99949000D01*
X138918000Y-99695000D01*
X138938000Y-99695000D01*
X138938000Y-99675000D01*
X139192000Y-99675000D01*
X139192000Y-99695000D01*
X140303250Y-99695000D01*
X140462000Y-99536250D01*
X140462000Y-99106000D01*
X144635527Y-99106000D01*
X146352202Y-100822675D01*
X146352202Y-100822675D01*
G37*
X146352202Y-100822675D02*
X146305377Y-100879731D01*
X146242625Y-100997132D01*
X146203982Y-101124520D01*
X146190934Y-101256999D01*
X146190934Y-101907001D01*
X146203982Y-102039480D01*
X146205353Y-102044000D01*
X146120739Y-102044000D01*
X146111375Y-102013132D01*
X146048623Y-101895731D01*
X145964172Y-101792828D01*
X145861269Y-101708377D01*
X145743868Y-101645625D01*
X145616480Y-101606982D01*
X145484001Y-101593934D01*
X144583999Y-101593934D01*
X144451520Y-101606982D01*
X144324132Y-101645625D01*
X144206731Y-101708377D01*
X144103828Y-101792828D01*
X144019377Y-101895731D01*
X143956625Y-102013132D01*
X143917982Y-102140520D01*
X143908147Y-102240379D01*
X142816527Y-103332000D01*
X140428163Y-103332000D01*
X140437597Y-103309223D01*
X140462000Y-103186542D01*
X140462000Y-102647750D01*
X140303250Y-102489000D01*
X139192000Y-102489000D01*
X139192000Y-102509000D01*
X138938000Y-102509000D01*
X138938000Y-102489000D01*
X138918000Y-102489000D01*
X138918000Y-102235000D01*
X138938000Y-102235000D01*
X138938000Y-101123750D01*
X138906250Y-101092000D01*
X138938000Y-101060250D01*
X138938000Y-99949000D01*
X139192000Y-99949000D01*
X139192000Y-101060250D01*
X139223750Y-101092000D01*
X139192000Y-101123750D01*
X139192000Y-102235000D01*
X140303250Y-102235000D01*
X140462000Y-102076250D01*
X140462000Y-101537458D01*
X140437597Y-101414777D01*
X140389730Y-101299215D01*
X140320237Y-101195211D01*
X140231789Y-101106763D01*
X140209695Y-101092000D01*
X140231789Y-101077237D01*
X140320237Y-100988789D01*
X140389730Y-100884785D01*
X140437597Y-100769223D01*
X140462000Y-100646542D01*
X140462000Y-100107750D01*
X140303250Y-99949000D01*
X139192000Y-99949000D01*
X138938000Y-99949000D01*
X138918000Y-99949000D01*
X138918000Y-99695000D01*
X138938000Y-99695000D01*
X138938000Y-99675000D01*
X139192000Y-99675000D01*
X139192000Y-99695000D01*
X140303250Y-99695000D01*
X140462000Y-99536250D01*
X140462000Y-99106000D01*
X144635527Y-99106000D01*
X146352202Y-100822675D01*
G04 #@! TD*
M02*
