G04 #@! TF.GenerationSoftware,KiCad,Pcbnew,5.0.2-bee76a0~70~ubuntu18.04.1*
G04 #@! TF.CreationDate,2020-07-16T17:13:30+02:00*
G04 #@! TF.ProjectId,MCPB_R1,4d435042-5f52-4312-9e6b-696361645f70,rev?*
G04 #@! TF.SameCoordinates,Original*
G04 #@! TF.FileFunction,Soldermask,Bot*
G04 #@! TF.FilePolarity,Negative*
%FSLAX46Y46*%
G04 Gerber Fmt 4.6, Leading zero omitted, Abs format (unit mm)*
G04 Created by KiCad (PCBNEW 5.0.2-bee76a0~70~ubuntu18.04.1) date Čt 16. července 2020, 17:13:30 CEST*
%MOMM*%
%LPD*%
G01*
G04 APERTURE LIST*
%ADD10C,0.100000*%
G04 APERTURE END LIST*
D10*
G36*
X145622677Y-104026465D02*
X145660364Y-104037898D01*
X145695103Y-104056466D01*
X145725548Y-104081452D01*
X145750534Y-104111897D01*
X145769102Y-104146636D01*
X145780535Y-104184323D01*
X145785000Y-104229661D01*
X145785000Y-105066339D01*
X145780535Y-105111677D01*
X145769102Y-105149364D01*
X145750534Y-105184103D01*
X145725548Y-105214548D01*
X145695103Y-105239534D01*
X145660364Y-105258102D01*
X145622677Y-105269535D01*
X145577339Y-105274000D01*
X144490661Y-105274000D01*
X144445323Y-105269535D01*
X144407636Y-105258102D01*
X144372897Y-105239534D01*
X144342452Y-105214548D01*
X144317466Y-105184103D01*
X144298898Y-105149364D01*
X144287465Y-105111677D01*
X144283000Y-105066339D01*
X144283000Y-104229661D01*
X144287465Y-104184323D01*
X144298898Y-104146636D01*
X144317466Y-104111897D01*
X144342452Y-104081452D01*
X144372897Y-104056466D01*
X144407636Y-104037898D01*
X144445323Y-104026465D01*
X144490661Y-104022000D01*
X145577339Y-104022000D01*
X145622677Y-104026465D01*
X145622677Y-104026465D01*
G37*
G36*
X163449941Y-98666248D02*
X163449943Y-98666249D01*
X163449944Y-98666249D01*
X164005190Y-98896239D01*
X164498162Y-99225633D01*
X164504902Y-99230136D01*
X164929864Y-99655098D01*
X164929866Y-99655101D01*
X165263761Y-100154810D01*
X165462662Y-100635000D01*
X165493752Y-100710059D01*
X165611000Y-101299501D01*
X165611000Y-101900499D01*
X165542639Y-102244173D01*
X165493751Y-102489944D01*
X165263761Y-103045190D01*
X165108087Y-103278173D01*
X164929864Y-103544902D01*
X164504902Y-103969864D01*
X164504899Y-103969866D01*
X164005190Y-104303761D01*
X163449944Y-104533751D01*
X163449943Y-104533751D01*
X163449941Y-104533752D01*
X162860499Y-104651000D01*
X162259501Y-104651000D01*
X161670059Y-104533752D01*
X161670057Y-104533751D01*
X161670056Y-104533751D01*
X161114810Y-104303761D01*
X160615101Y-103969866D01*
X160615098Y-103969864D01*
X160190136Y-103544902D01*
X160011913Y-103278173D01*
X159856239Y-103045190D01*
X159626249Y-102489944D01*
X159577362Y-102244173D01*
X159509000Y-101900499D01*
X159509000Y-101299501D01*
X159626248Y-100710059D01*
X159657338Y-100635000D01*
X159856239Y-100154810D01*
X160190134Y-99655101D01*
X160190136Y-99655098D01*
X160615098Y-99230136D01*
X160621838Y-99225633D01*
X161114810Y-98896239D01*
X161670056Y-98666249D01*
X161670057Y-98666249D01*
X161670059Y-98666248D01*
X162259501Y-98549000D01*
X162860499Y-98549000D01*
X163449941Y-98666248D01*
X163449941Y-98666248D01*
G37*
G36*
X122809941Y-98666248D02*
X122809943Y-98666249D01*
X122809944Y-98666249D01*
X123365190Y-98896239D01*
X123858162Y-99225633D01*
X123864902Y-99230136D01*
X124289864Y-99655098D01*
X124289866Y-99655101D01*
X124623761Y-100154810D01*
X124822662Y-100635000D01*
X124853752Y-100710059D01*
X124971000Y-101299501D01*
X124971000Y-101900499D01*
X124902639Y-102244173D01*
X124853751Y-102489944D01*
X124623761Y-103045190D01*
X124468087Y-103278173D01*
X124289864Y-103544902D01*
X123864902Y-103969864D01*
X123864899Y-103969866D01*
X123365190Y-104303761D01*
X122809944Y-104533751D01*
X122809943Y-104533751D01*
X122809941Y-104533752D01*
X122220499Y-104651000D01*
X121619501Y-104651000D01*
X121030059Y-104533752D01*
X121030057Y-104533751D01*
X121030056Y-104533751D01*
X120474810Y-104303761D01*
X119975101Y-103969866D01*
X119975098Y-103969864D01*
X119550136Y-103544902D01*
X119371913Y-103278173D01*
X119216239Y-103045190D01*
X118986249Y-102489944D01*
X118937362Y-102244173D01*
X118869000Y-101900499D01*
X118869000Y-101299501D01*
X118986248Y-100710059D01*
X119017338Y-100635000D01*
X119216239Y-100154810D01*
X119550134Y-99655101D01*
X119550136Y-99655098D01*
X119975098Y-99230136D01*
X119981838Y-99225633D01*
X120474810Y-98896239D01*
X121030056Y-98666249D01*
X121030057Y-98666249D01*
X121030059Y-98666248D01*
X121619501Y-98549000D01*
X122220499Y-98549000D01*
X122809941Y-98666248D01*
X122809941Y-98666248D01*
G37*
G36*
X147908677Y-103010465D02*
X147946364Y-103021898D01*
X147981103Y-103040466D01*
X148011548Y-103065452D01*
X148036534Y-103095897D01*
X148055102Y-103130636D01*
X148066535Y-103168323D01*
X148071000Y-103213661D01*
X148071000Y-104050339D01*
X148066535Y-104095677D01*
X148055102Y-104133364D01*
X148036534Y-104168103D01*
X148011548Y-104198548D01*
X147981103Y-104223534D01*
X147946364Y-104242102D01*
X147908677Y-104253535D01*
X147863339Y-104258000D01*
X146776661Y-104258000D01*
X146731323Y-104253535D01*
X146693636Y-104242102D01*
X146658897Y-104223534D01*
X146628452Y-104198548D01*
X146603466Y-104168103D01*
X146584898Y-104133364D01*
X146573465Y-104095677D01*
X146569000Y-104050339D01*
X146569000Y-103213661D01*
X146573465Y-103168323D01*
X146584898Y-103130636D01*
X146603466Y-103095897D01*
X146628452Y-103065452D01*
X146658897Y-103040466D01*
X146693636Y-103021898D01*
X146731323Y-103010465D01*
X146776661Y-103006000D01*
X147863339Y-103006000D01*
X147908677Y-103010465D01*
X147908677Y-103010465D01*
G37*
G36*
X145622677Y-101976465D02*
X145660364Y-101987898D01*
X145695103Y-102006466D01*
X145725548Y-102031452D01*
X145750534Y-102061897D01*
X145769102Y-102096636D01*
X145780535Y-102134323D01*
X145785000Y-102179661D01*
X145785000Y-103016339D01*
X145780535Y-103061677D01*
X145769102Y-103099364D01*
X145750534Y-103134103D01*
X145725548Y-103164548D01*
X145695103Y-103189534D01*
X145660364Y-103208102D01*
X145622677Y-103219535D01*
X145577339Y-103224000D01*
X144490661Y-103224000D01*
X144445323Y-103219535D01*
X144407636Y-103208102D01*
X144372897Y-103189534D01*
X144342452Y-103164548D01*
X144317466Y-103134103D01*
X144298898Y-103099364D01*
X144287465Y-103061677D01*
X144283000Y-103016339D01*
X144283000Y-102179661D01*
X144287465Y-102134323D01*
X144298898Y-102096636D01*
X144317466Y-102061897D01*
X144342452Y-102031452D01*
X144372897Y-102006466D01*
X144407636Y-101987898D01*
X144445323Y-101976465D01*
X144490661Y-101972000D01*
X145577339Y-101972000D01*
X145622677Y-101976465D01*
X145622677Y-101976465D01*
G37*
G36*
X139878000Y-103175000D02*
X138252000Y-103175000D01*
X138252000Y-101549000D01*
X139878000Y-101549000D01*
X139878000Y-103175000D01*
X139878000Y-103175000D01*
G37*
G36*
X137338000Y-103175000D02*
X135712000Y-103175000D01*
X135712000Y-101549000D01*
X137338000Y-101549000D01*
X137338000Y-103175000D01*
X137338000Y-103175000D01*
G37*
G36*
X134798000Y-103175000D02*
X133172000Y-103175000D01*
X133172000Y-101549000D01*
X134798000Y-101549000D01*
X134798000Y-103175000D01*
X134798000Y-103175000D01*
G37*
G36*
X132258000Y-103175000D02*
X130632000Y-103175000D01*
X130632000Y-101549000D01*
X132258000Y-101549000D01*
X132258000Y-103175000D01*
X132258000Y-103175000D01*
G37*
G36*
X129718000Y-103175000D02*
X128092000Y-103175000D01*
X128092000Y-101549000D01*
X129718000Y-101549000D01*
X129718000Y-103175000D01*
X129718000Y-103175000D01*
G37*
G36*
X152078000Y-102780000D02*
X150526000Y-102780000D01*
X150526000Y-100278000D01*
X152078000Y-100278000D01*
X152078000Y-102780000D01*
X152078000Y-102780000D01*
G37*
G36*
X156478000Y-102780000D02*
X154926000Y-102780000D01*
X154926000Y-100278000D01*
X156478000Y-100278000D01*
X156478000Y-102780000D01*
X156478000Y-102780000D01*
G37*
G36*
X147908677Y-100960465D02*
X147946364Y-100971898D01*
X147981103Y-100990466D01*
X148011548Y-101015452D01*
X148036534Y-101045897D01*
X148055102Y-101080636D01*
X148066535Y-101118323D01*
X148071000Y-101163661D01*
X148071000Y-102000339D01*
X148066535Y-102045677D01*
X148055102Y-102083364D01*
X148036534Y-102118103D01*
X148011548Y-102148548D01*
X147981103Y-102173534D01*
X147946364Y-102192102D01*
X147908677Y-102203535D01*
X147863339Y-102208000D01*
X146776661Y-102208000D01*
X146731323Y-102203535D01*
X146693636Y-102192102D01*
X146658897Y-102173534D01*
X146628452Y-102148548D01*
X146603466Y-102118103D01*
X146584898Y-102083364D01*
X146573465Y-102045677D01*
X146569000Y-102000339D01*
X146569000Y-101163661D01*
X146573465Y-101118323D01*
X146584898Y-101080636D01*
X146603466Y-101045897D01*
X146628452Y-101015452D01*
X146658897Y-100990466D01*
X146693636Y-100971898D01*
X146731323Y-100960465D01*
X146776661Y-100956000D01*
X147863339Y-100956000D01*
X147908677Y-100960465D01*
X147908677Y-100960465D01*
G37*
G36*
X132258000Y-100635000D02*
X130632000Y-100635000D01*
X130632000Y-99009000D01*
X132258000Y-99009000D01*
X132258000Y-100635000D01*
X132258000Y-100635000D01*
G37*
G36*
X129718000Y-100635000D02*
X128092000Y-100635000D01*
X128092000Y-99009000D01*
X129718000Y-99009000D01*
X129718000Y-100635000D01*
X129718000Y-100635000D01*
G37*
G36*
X134798000Y-100635000D02*
X133172000Y-100635000D01*
X133172000Y-99009000D01*
X134798000Y-99009000D01*
X134798000Y-100635000D01*
X134798000Y-100635000D01*
G37*
G36*
X139878000Y-100635000D02*
X138252000Y-100635000D01*
X138252000Y-99009000D01*
X139878000Y-99009000D01*
X139878000Y-100635000D01*
X139878000Y-100635000D01*
G37*
G36*
X137338000Y-100635000D02*
X135712000Y-100635000D01*
X135712000Y-99009000D01*
X137338000Y-99009000D01*
X137338000Y-100635000D01*
X137338000Y-100635000D01*
G37*
M02*
