G04 #@! TF.GenerationSoftware,KiCad,Pcbnew,5.1.5-52549c5~84~ubuntu18.04.1*
G04 #@! TF.CreationDate,2020-01-10T14:36:42+01:00*
G04 #@! TF.ProjectId,MCPB_R1,4d435042-5f52-4312-9e6b-696361645f70,rev?*
G04 #@! TF.SameCoordinates,Original*
G04 #@! TF.FileFunction,Paste,Top*
G04 #@! TF.FilePolarity,Positive*
%FSLAX46Y46*%
G04 Gerber Fmt 4.6, Leading zero omitted, Abs format (unit mm)*
G04 Created by KiCad (PCBNEW 5.1.5-52549c5~84~ubuntu18.04.1) date 2020-01-10 14:36:42*
%MOMM*%
%LPD*%
G04 APERTURE LIST*
%ADD10C,0.100000*%
G04 APERTURE END LIST*
D10*
G36*
X154781505Y-103187204D02*
G01*
X154805773Y-103190804D01*
X154829572Y-103196765D01*
X154852671Y-103205030D01*
X154874850Y-103215520D01*
X154895893Y-103228132D01*
X154915599Y-103242747D01*
X154933777Y-103259223D01*
X154950253Y-103277401D01*
X154964868Y-103297107D01*
X154977480Y-103318150D01*
X154987970Y-103340329D01*
X154996235Y-103363428D01*
X155002196Y-103387227D01*
X155005796Y-103411495D01*
X155007000Y-103435999D01*
X155007000Y-104336001D01*
X155005796Y-104360505D01*
X155002196Y-104384773D01*
X154996235Y-104408572D01*
X154987970Y-104431671D01*
X154977480Y-104453850D01*
X154964868Y-104474893D01*
X154950253Y-104494599D01*
X154933777Y-104512777D01*
X154915599Y-104529253D01*
X154895893Y-104543868D01*
X154874850Y-104556480D01*
X154852671Y-104566970D01*
X154829572Y-104575235D01*
X154805773Y-104581196D01*
X154781505Y-104584796D01*
X154757001Y-104586000D01*
X154106999Y-104586000D01*
X154082495Y-104584796D01*
X154058227Y-104581196D01*
X154034428Y-104575235D01*
X154011329Y-104566970D01*
X153989150Y-104556480D01*
X153968107Y-104543868D01*
X153948401Y-104529253D01*
X153930223Y-104512777D01*
X153913747Y-104494599D01*
X153899132Y-104474893D01*
X153886520Y-104453850D01*
X153876030Y-104431671D01*
X153867765Y-104408572D01*
X153861804Y-104384773D01*
X153858204Y-104360505D01*
X153857000Y-104336001D01*
X153857000Y-103435999D01*
X153858204Y-103411495D01*
X153861804Y-103387227D01*
X153867765Y-103363428D01*
X153876030Y-103340329D01*
X153886520Y-103318150D01*
X153899132Y-103297107D01*
X153913747Y-103277401D01*
X153930223Y-103259223D01*
X153948401Y-103242747D01*
X153968107Y-103228132D01*
X153989150Y-103215520D01*
X154011329Y-103205030D01*
X154034428Y-103196765D01*
X154058227Y-103190804D01*
X154082495Y-103187204D01*
X154106999Y-103186000D01*
X154757001Y-103186000D01*
X154781505Y-103187204D01*
G37*
G36*
X152731505Y-103187204D02*
G01*
X152755773Y-103190804D01*
X152779572Y-103196765D01*
X152802671Y-103205030D01*
X152824850Y-103215520D01*
X152845893Y-103228132D01*
X152865599Y-103242747D01*
X152883777Y-103259223D01*
X152900253Y-103277401D01*
X152914868Y-103297107D01*
X152927480Y-103318150D01*
X152937970Y-103340329D01*
X152946235Y-103363428D01*
X152952196Y-103387227D01*
X152955796Y-103411495D01*
X152957000Y-103435999D01*
X152957000Y-104336001D01*
X152955796Y-104360505D01*
X152952196Y-104384773D01*
X152946235Y-104408572D01*
X152937970Y-104431671D01*
X152927480Y-104453850D01*
X152914868Y-104474893D01*
X152900253Y-104494599D01*
X152883777Y-104512777D01*
X152865599Y-104529253D01*
X152845893Y-104543868D01*
X152824850Y-104556480D01*
X152802671Y-104566970D01*
X152779572Y-104575235D01*
X152755773Y-104581196D01*
X152731505Y-104584796D01*
X152707001Y-104586000D01*
X152056999Y-104586000D01*
X152032495Y-104584796D01*
X152008227Y-104581196D01*
X151984428Y-104575235D01*
X151961329Y-104566970D01*
X151939150Y-104556480D01*
X151918107Y-104543868D01*
X151898401Y-104529253D01*
X151880223Y-104512777D01*
X151863747Y-104494599D01*
X151849132Y-104474893D01*
X151836520Y-104453850D01*
X151826030Y-104431671D01*
X151817765Y-104408572D01*
X151811804Y-104384773D01*
X151808204Y-104360505D01*
X151807000Y-104336001D01*
X151807000Y-103435999D01*
X151808204Y-103411495D01*
X151811804Y-103387227D01*
X151817765Y-103363428D01*
X151826030Y-103340329D01*
X151836520Y-103318150D01*
X151849132Y-103297107D01*
X151863747Y-103277401D01*
X151880223Y-103259223D01*
X151898401Y-103242747D01*
X151918107Y-103228132D01*
X151939150Y-103215520D01*
X151961329Y-103205030D01*
X151984428Y-103196765D01*
X152008227Y-103190804D01*
X152032495Y-103187204D01*
X152056999Y-103186000D01*
X152707001Y-103186000D01*
X152731505Y-103187204D01*
G37*
G36*
X154781505Y-100901204D02*
G01*
X154805773Y-100904804D01*
X154829572Y-100910765D01*
X154852671Y-100919030D01*
X154874850Y-100929520D01*
X154895893Y-100942132D01*
X154915599Y-100956747D01*
X154933777Y-100973223D01*
X154950253Y-100991401D01*
X154964868Y-101011107D01*
X154977480Y-101032150D01*
X154987970Y-101054329D01*
X154996235Y-101077428D01*
X155002196Y-101101227D01*
X155005796Y-101125495D01*
X155007000Y-101149999D01*
X155007000Y-102050001D01*
X155005796Y-102074505D01*
X155002196Y-102098773D01*
X154996235Y-102122572D01*
X154987970Y-102145671D01*
X154977480Y-102167850D01*
X154964868Y-102188893D01*
X154950253Y-102208599D01*
X154933777Y-102226777D01*
X154915599Y-102243253D01*
X154895893Y-102257868D01*
X154874850Y-102270480D01*
X154852671Y-102280970D01*
X154829572Y-102289235D01*
X154805773Y-102295196D01*
X154781505Y-102298796D01*
X154757001Y-102300000D01*
X154106999Y-102300000D01*
X154082495Y-102298796D01*
X154058227Y-102295196D01*
X154034428Y-102289235D01*
X154011329Y-102280970D01*
X153989150Y-102270480D01*
X153968107Y-102257868D01*
X153948401Y-102243253D01*
X153930223Y-102226777D01*
X153913747Y-102208599D01*
X153899132Y-102188893D01*
X153886520Y-102167850D01*
X153876030Y-102145671D01*
X153867765Y-102122572D01*
X153861804Y-102098773D01*
X153858204Y-102074505D01*
X153857000Y-102050001D01*
X153857000Y-101149999D01*
X153858204Y-101125495D01*
X153861804Y-101101227D01*
X153867765Y-101077428D01*
X153876030Y-101054329D01*
X153886520Y-101032150D01*
X153899132Y-101011107D01*
X153913747Y-100991401D01*
X153930223Y-100973223D01*
X153948401Y-100956747D01*
X153968107Y-100942132D01*
X153989150Y-100929520D01*
X154011329Y-100919030D01*
X154034428Y-100910765D01*
X154058227Y-100904804D01*
X154082495Y-100901204D01*
X154106999Y-100900000D01*
X154757001Y-100900000D01*
X154781505Y-100901204D01*
G37*
G36*
X152731505Y-100901204D02*
G01*
X152755773Y-100904804D01*
X152779572Y-100910765D01*
X152802671Y-100919030D01*
X152824850Y-100929520D01*
X152845893Y-100942132D01*
X152865599Y-100956747D01*
X152883777Y-100973223D01*
X152900253Y-100991401D01*
X152914868Y-101011107D01*
X152927480Y-101032150D01*
X152937970Y-101054329D01*
X152946235Y-101077428D01*
X152952196Y-101101227D01*
X152955796Y-101125495D01*
X152957000Y-101149999D01*
X152957000Y-102050001D01*
X152955796Y-102074505D01*
X152952196Y-102098773D01*
X152946235Y-102122572D01*
X152937970Y-102145671D01*
X152927480Y-102167850D01*
X152914868Y-102188893D01*
X152900253Y-102208599D01*
X152883777Y-102226777D01*
X152865599Y-102243253D01*
X152845893Y-102257868D01*
X152824850Y-102270480D01*
X152802671Y-102280970D01*
X152779572Y-102289235D01*
X152755773Y-102295196D01*
X152731505Y-102298796D01*
X152707001Y-102300000D01*
X152056999Y-102300000D01*
X152032495Y-102298796D01*
X152008227Y-102295196D01*
X151984428Y-102289235D01*
X151961329Y-102280970D01*
X151939150Y-102270480D01*
X151918107Y-102257868D01*
X151898401Y-102243253D01*
X151880223Y-102226777D01*
X151863747Y-102208599D01*
X151849132Y-102188893D01*
X151836520Y-102167850D01*
X151826030Y-102145671D01*
X151817765Y-102122572D01*
X151811804Y-102098773D01*
X151808204Y-102074505D01*
X151807000Y-102050001D01*
X151807000Y-101149999D01*
X151808204Y-101125495D01*
X151811804Y-101101227D01*
X151817765Y-101077428D01*
X151826030Y-101054329D01*
X151836520Y-101032150D01*
X151849132Y-101011107D01*
X151863747Y-100991401D01*
X151880223Y-100973223D01*
X151898401Y-100956747D01*
X151918107Y-100942132D01*
X151939150Y-100929520D01*
X151961329Y-100919030D01*
X151984428Y-100910765D01*
X152008227Y-100904804D01*
X152032495Y-100901204D01*
X152056999Y-100900000D01*
X152707001Y-100900000D01*
X152731505Y-100901204D01*
G37*
G36*
X154790505Y-98615204D02*
G01*
X154814773Y-98618804D01*
X154838572Y-98624765D01*
X154861671Y-98633030D01*
X154883850Y-98643520D01*
X154904893Y-98656132D01*
X154924599Y-98670747D01*
X154942777Y-98687223D01*
X154959253Y-98705401D01*
X154973868Y-98725107D01*
X154986480Y-98746150D01*
X154996970Y-98768329D01*
X155005235Y-98791428D01*
X155011196Y-98815227D01*
X155014796Y-98839495D01*
X155016000Y-98863999D01*
X155016000Y-99764001D01*
X155014796Y-99788505D01*
X155011196Y-99812773D01*
X155005235Y-99836572D01*
X154996970Y-99859671D01*
X154986480Y-99881850D01*
X154973868Y-99902893D01*
X154959253Y-99922599D01*
X154942777Y-99940777D01*
X154924599Y-99957253D01*
X154904893Y-99971868D01*
X154883850Y-99984480D01*
X154861671Y-99994970D01*
X154838572Y-100003235D01*
X154814773Y-100009196D01*
X154790505Y-100012796D01*
X154766001Y-100014000D01*
X154115999Y-100014000D01*
X154091495Y-100012796D01*
X154067227Y-100009196D01*
X154043428Y-100003235D01*
X154020329Y-99994970D01*
X153998150Y-99984480D01*
X153977107Y-99971868D01*
X153957401Y-99957253D01*
X153939223Y-99940777D01*
X153922747Y-99922599D01*
X153908132Y-99902893D01*
X153895520Y-99881850D01*
X153885030Y-99859671D01*
X153876765Y-99836572D01*
X153870804Y-99812773D01*
X153867204Y-99788505D01*
X153866000Y-99764001D01*
X153866000Y-98863999D01*
X153867204Y-98839495D01*
X153870804Y-98815227D01*
X153876765Y-98791428D01*
X153885030Y-98768329D01*
X153895520Y-98746150D01*
X153908132Y-98725107D01*
X153922747Y-98705401D01*
X153939223Y-98687223D01*
X153957401Y-98670747D01*
X153977107Y-98656132D01*
X153998150Y-98643520D01*
X154020329Y-98633030D01*
X154043428Y-98624765D01*
X154067227Y-98618804D01*
X154091495Y-98615204D01*
X154115999Y-98614000D01*
X154766001Y-98614000D01*
X154790505Y-98615204D01*
G37*
G36*
X152740505Y-98615204D02*
G01*
X152764773Y-98618804D01*
X152788572Y-98624765D01*
X152811671Y-98633030D01*
X152833850Y-98643520D01*
X152854893Y-98656132D01*
X152874599Y-98670747D01*
X152892777Y-98687223D01*
X152909253Y-98705401D01*
X152923868Y-98725107D01*
X152936480Y-98746150D01*
X152946970Y-98768329D01*
X152955235Y-98791428D01*
X152961196Y-98815227D01*
X152964796Y-98839495D01*
X152966000Y-98863999D01*
X152966000Y-99764001D01*
X152964796Y-99788505D01*
X152961196Y-99812773D01*
X152955235Y-99836572D01*
X152946970Y-99859671D01*
X152936480Y-99881850D01*
X152923868Y-99902893D01*
X152909253Y-99922599D01*
X152892777Y-99940777D01*
X152874599Y-99957253D01*
X152854893Y-99971868D01*
X152833850Y-99984480D01*
X152811671Y-99994970D01*
X152788572Y-100003235D01*
X152764773Y-100009196D01*
X152740505Y-100012796D01*
X152716001Y-100014000D01*
X152065999Y-100014000D01*
X152041495Y-100012796D01*
X152017227Y-100009196D01*
X151993428Y-100003235D01*
X151970329Y-99994970D01*
X151948150Y-99984480D01*
X151927107Y-99971868D01*
X151907401Y-99957253D01*
X151889223Y-99940777D01*
X151872747Y-99922599D01*
X151858132Y-99902893D01*
X151845520Y-99881850D01*
X151835030Y-99859671D01*
X151826765Y-99836572D01*
X151820804Y-99812773D01*
X151817204Y-99788505D01*
X151816000Y-99764001D01*
X151816000Y-98863999D01*
X151817204Y-98839495D01*
X151820804Y-98815227D01*
X151826765Y-98791428D01*
X151835030Y-98768329D01*
X151845520Y-98746150D01*
X151858132Y-98725107D01*
X151872747Y-98705401D01*
X151889223Y-98687223D01*
X151907401Y-98670747D01*
X151927107Y-98656132D01*
X151948150Y-98643520D01*
X151970329Y-98633030D01*
X151993428Y-98624765D01*
X152017227Y-98618804D01*
X152041495Y-98615204D01*
X152065999Y-98614000D01*
X152716001Y-98614000D01*
X152740505Y-98615204D01*
G37*
M02*
