G04 #@! TF.GenerationSoftware,KiCad,Pcbnew,5.1.5-52549c5~84~ubuntu18.04.1*
G04 #@! TF.CreationDate,2020-01-10T14:36:42+01:00*
G04 #@! TF.ProjectId,MCPB_R1,4d435042-5f52-4312-9e6b-696361645f70,rev?*
G04 #@! TF.SameCoordinates,Original*
G04 #@! TF.FileFunction,Copper,L2,Bot*
G04 #@! TF.FilePolarity,Positive*
%FSLAX46Y46*%
G04 Gerber Fmt 4.6, Leading zero omitted, Abs format (unit mm)*
G04 Created by KiCad (PCBNEW 5.1.5-52549c5~84~ubuntu18.04.1) date 2020-01-10 14:36:42*
%MOMM*%
%LPD*%
G04 APERTURE LIST*
%ADD10R,0.450000X1.450000*%
%ADD11C,0.100000*%
%ADD12C,6.000000*%
%ADD13R,1.524000X1.524000*%
%ADD14C,0.800000*%
%ADD15C,0.250000*%
%ADD16C,0.254000*%
G04 APERTURE END LIST*
D10*
X152695000Y-103800000D03*
X153345000Y-103800000D03*
X153995000Y-103800000D03*
X154645000Y-103800000D03*
X154645000Y-99400000D03*
X153995000Y-99400000D03*
X153345000Y-99400000D03*
X152695000Y-99400000D03*
G04 #@! TA.AperFunction,SMDPad,CuDef*
D11*
G36*
X147794505Y-103956204D02*
G01*
X147818773Y-103959804D01*
X147842572Y-103965765D01*
X147865671Y-103974030D01*
X147887850Y-103984520D01*
X147908893Y-103997132D01*
X147928599Y-104011747D01*
X147946777Y-104028223D01*
X147963253Y-104046401D01*
X147977868Y-104066107D01*
X147990480Y-104087150D01*
X148000970Y-104109329D01*
X148009235Y-104132428D01*
X148015196Y-104156227D01*
X148018796Y-104180495D01*
X148020000Y-104204999D01*
X148020000Y-104855001D01*
X148018796Y-104879505D01*
X148015196Y-104903773D01*
X148009235Y-104927572D01*
X148000970Y-104950671D01*
X147990480Y-104972850D01*
X147977868Y-104993893D01*
X147963253Y-105013599D01*
X147946777Y-105031777D01*
X147928599Y-105048253D01*
X147908893Y-105062868D01*
X147887850Y-105075480D01*
X147865671Y-105085970D01*
X147842572Y-105094235D01*
X147818773Y-105100196D01*
X147794505Y-105103796D01*
X147770001Y-105105000D01*
X146869999Y-105105000D01*
X146845495Y-105103796D01*
X146821227Y-105100196D01*
X146797428Y-105094235D01*
X146774329Y-105085970D01*
X146752150Y-105075480D01*
X146731107Y-105062868D01*
X146711401Y-105048253D01*
X146693223Y-105031777D01*
X146676747Y-105013599D01*
X146662132Y-104993893D01*
X146649520Y-104972850D01*
X146639030Y-104950671D01*
X146630765Y-104927572D01*
X146624804Y-104903773D01*
X146621204Y-104879505D01*
X146620000Y-104855001D01*
X146620000Y-104204999D01*
X146621204Y-104180495D01*
X146624804Y-104156227D01*
X146630765Y-104132428D01*
X146639030Y-104109329D01*
X146649520Y-104087150D01*
X146662132Y-104066107D01*
X146676747Y-104046401D01*
X146693223Y-104028223D01*
X146711401Y-104011747D01*
X146731107Y-103997132D01*
X146752150Y-103984520D01*
X146774329Y-103974030D01*
X146797428Y-103965765D01*
X146821227Y-103959804D01*
X146845495Y-103956204D01*
X146869999Y-103955000D01*
X147770001Y-103955000D01*
X147794505Y-103956204D01*
G37*
G04 #@! TD.AperFunction*
G04 #@! TA.AperFunction,SMDPad,CuDef*
G36*
X147794505Y-101906204D02*
G01*
X147818773Y-101909804D01*
X147842572Y-101915765D01*
X147865671Y-101924030D01*
X147887850Y-101934520D01*
X147908893Y-101947132D01*
X147928599Y-101961747D01*
X147946777Y-101978223D01*
X147963253Y-101996401D01*
X147977868Y-102016107D01*
X147990480Y-102037150D01*
X148000970Y-102059329D01*
X148009235Y-102082428D01*
X148015196Y-102106227D01*
X148018796Y-102130495D01*
X148020000Y-102154999D01*
X148020000Y-102805001D01*
X148018796Y-102829505D01*
X148015196Y-102853773D01*
X148009235Y-102877572D01*
X148000970Y-102900671D01*
X147990480Y-102922850D01*
X147977868Y-102943893D01*
X147963253Y-102963599D01*
X147946777Y-102981777D01*
X147928599Y-102998253D01*
X147908893Y-103012868D01*
X147887850Y-103025480D01*
X147865671Y-103035970D01*
X147842572Y-103044235D01*
X147818773Y-103050196D01*
X147794505Y-103053796D01*
X147770001Y-103055000D01*
X146869999Y-103055000D01*
X146845495Y-103053796D01*
X146821227Y-103050196D01*
X146797428Y-103044235D01*
X146774329Y-103035970D01*
X146752150Y-103025480D01*
X146731107Y-103012868D01*
X146711401Y-102998253D01*
X146693223Y-102981777D01*
X146676747Y-102963599D01*
X146662132Y-102943893D01*
X146649520Y-102922850D01*
X146639030Y-102900671D01*
X146630765Y-102877572D01*
X146624804Y-102853773D01*
X146621204Y-102829505D01*
X146620000Y-102805001D01*
X146620000Y-102154999D01*
X146621204Y-102130495D01*
X146624804Y-102106227D01*
X146630765Y-102082428D01*
X146639030Y-102059329D01*
X146649520Y-102037150D01*
X146662132Y-102016107D01*
X146676747Y-101996401D01*
X146693223Y-101978223D01*
X146711401Y-101961747D01*
X146731107Y-101947132D01*
X146752150Y-101934520D01*
X146774329Y-101924030D01*
X146797428Y-101915765D01*
X146821227Y-101909804D01*
X146845495Y-101906204D01*
X146869999Y-101905000D01*
X147770001Y-101905000D01*
X147794505Y-101906204D01*
G37*
G04 #@! TD.AperFunction*
G04 #@! TA.AperFunction,SMDPad,CuDef*
G36*
X144619505Y-100391204D02*
G01*
X144643773Y-100394804D01*
X144667572Y-100400765D01*
X144690671Y-100409030D01*
X144712850Y-100419520D01*
X144733893Y-100432132D01*
X144753599Y-100446747D01*
X144771777Y-100463223D01*
X144788253Y-100481401D01*
X144802868Y-100501107D01*
X144815480Y-100522150D01*
X144825970Y-100544329D01*
X144834235Y-100567428D01*
X144840196Y-100591227D01*
X144843796Y-100615495D01*
X144845000Y-100639999D01*
X144845000Y-101290001D01*
X144843796Y-101314505D01*
X144840196Y-101338773D01*
X144834235Y-101362572D01*
X144825970Y-101385671D01*
X144815480Y-101407850D01*
X144802868Y-101428893D01*
X144788253Y-101448599D01*
X144771777Y-101466777D01*
X144753599Y-101483253D01*
X144733893Y-101497868D01*
X144712850Y-101510480D01*
X144690671Y-101520970D01*
X144667572Y-101529235D01*
X144643773Y-101535196D01*
X144619505Y-101538796D01*
X144595001Y-101540000D01*
X143694999Y-101540000D01*
X143670495Y-101538796D01*
X143646227Y-101535196D01*
X143622428Y-101529235D01*
X143599329Y-101520970D01*
X143577150Y-101510480D01*
X143556107Y-101497868D01*
X143536401Y-101483253D01*
X143518223Y-101466777D01*
X143501747Y-101448599D01*
X143487132Y-101428893D01*
X143474520Y-101407850D01*
X143464030Y-101385671D01*
X143455765Y-101362572D01*
X143449804Y-101338773D01*
X143446204Y-101314505D01*
X143445000Y-101290001D01*
X143445000Y-100639999D01*
X143446204Y-100615495D01*
X143449804Y-100591227D01*
X143455765Y-100567428D01*
X143464030Y-100544329D01*
X143474520Y-100522150D01*
X143487132Y-100501107D01*
X143501747Y-100481401D01*
X143518223Y-100463223D01*
X143536401Y-100446747D01*
X143556107Y-100432132D01*
X143577150Y-100419520D01*
X143599329Y-100409030D01*
X143622428Y-100400765D01*
X143646227Y-100394804D01*
X143670495Y-100391204D01*
X143694999Y-100390000D01*
X144595001Y-100390000D01*
X144619505Y-100391204D01*
G37*
G04 #@! TD.AperFunction*
G04 #@! TA.AperFunction,SMDPad,CuDef*
G36*
X144619505Y-98341204D02*
G01*
X144643773Y-98344804D01*
X144667572Y-98350765D01*
X144690671Y-98359030D01*
X144712850Y-98369520D01*
X144733893Y-98382132D01*
X144753599Y-98396747D01*
X144771777Y-98413223D01*
X144788253Y-98431401D01*
X144802868Y-98451107D01*
X144815480Y-98472150D01*
X144825970Y-98494329D01*
X144834235Y-98517428D01*
X144840196Y-98541227D01*
X144843796Y-98565495D01*
X144845000Y-98589999D01*
X144845000Y-99240001D01*
X144843796Y-99264505D01*
X144840196Y-99288773D01*
X144834235Y-99312572D01*
X144825970Y-99335671D01*
X144815480Y-99357850D01*
X144802868Y-99378893D01*
X144788253Y-99398599D01*
X144771777Y-99416777D01*
X144753599Y-99433253D01*
X144733893Y-99447868D01*
X144712850Y-99460480D01*
X144690671Y-99470970D01*
X144667572Y-99479235D01*
X144643773Y-99485196D01*
X144619505Y-99488796D01*
X144595001Y-99490000D01*
X143694999Y-99490000D01*
X143670495Y-99488796D01*
X143646227Y-99485196D01*
X143622428Y-99479235D01*
X143599329Y-99470970D01*
X143577150Y-99460480D01*
X143556107Y-99447868D01*
X143536401Y-99433253D01*
X143518223Y-99416777D01*
X143501747Y-99398599D01*
X143487132Y-99378893D01*
X143474520Y-99357850D01*
X143464030Y-99335671D01*
X143455765Y-99312572D01*
X143449804Y-99288773D01*
X143446204Y-99264505D01*
X143445000Y-99240001D01*
X143445000Y-98589999D01*
X143446204Y-98565495D01*
X143449804Y-98541227D01*
X143455765Y-98517428D01*
X143464030Y-98494329D01*
X143474520Y-98472150D01*
X143487132Y-98451107D01*
X143501747Y-98431401D01*
X143518223Y-98413223D01*
X143536401Y-98396747D01*
X143556107Y-98382132D01*
X143577150Y-98369520D01*
X143599329Y-98359030D01*
X143622428Y-98350765D01*
X143646227Y-98344804D01*
X143670495Y-98341204D01*
X143694999Y-98340000D01*
X144595001Y-98340000D01*
X144619505Y-98341204D01*
G37*
G04 #@! TD.AperFunction*
D12*
X162560000Y-101600000D03*
X121920000Y-101600000D03*
D13*
X139065000Y-99060000D03*
X139065000Y-101600000D03*
X136525000Y-99060000D03*
X136525000Y-101600000D03*
X133985000Y-99060000D03*
X133985000Y-101600000D03*
X131445000Y-99060000D03*
X131445000Y-101600000D03*
X128905000Y-99060000D03*
X128905000Y-101600000D03*
D14*
X156210000Y-100584000D03*
X156210000Y-101600000D03*
X156210000Y-102616000D03*
D15*
X137160000Y-104140000D02*
X141545000Y-104140000D01*
X136525000Y-103505000D02*
X137160000Y-104140000D01*
X144145000Y-101540000D02*
X144145000Y-100965000D01*
X141545000Y-104140000D02*
X144145000Y-101540000D01*
X136525000Y-99695000D02*
X136525000Y-103505000D01*
X152695000Y-100375000D02*
X152695000Y-99400000D01*
X144145000Y-100965000D02*
X152105000Y-100965000D01*
X152105000Y-100965000D02*
X152695000Y-100375000D01*
X135890000Y-104775000D02*
X141605000Y-104775000D01*
X133985000Y-99695000D02*
X133985000Y-102870000D01*
X143900000Y-102480000D02*
X147320000Y-102480000D01*
X141605000Y-104775000D02*
X143900000Y-102480000D01*
X133985000Y-102870000D02*
X135890000Y-104775000D01*
X152695000Y-102825000D02*
X152695000Y-103800000D01*
X147320000Y-102480000D02*
X152350000Y-102480000D01*
X152350000Y-102480000D02*
X152695000Y-102825000D01*
X131445000Y-101804002D02*
X135050998Y-105410000D01*
X131445000Y-99695000D02*
X131445000Y-101804002D01*
X135050998Y-105410000D02*
X141605000Y-105410000D01*
X141789990Y-105225010D02*
X141791401Y-105225009D01*
X141605000Y-105410000D02*
X141789990Y-105225010D01*
X142486410Y-104530000D02*
X147320000Y-104530000D01*
X141791401Y-105225009D02*
X142486410Y-104530000D01*
X153345000Y-102838590D02*
X155599590Y-100584000D01*
X153345000Y-103800000D02*
X153345000Y-102838590D01*
X155599590Y-100584000D02*
X156210000Y-100584000D01*
X156210000Y-100584000D02*
X156210000Y-100584000D01*
X153995000Y-102825000D02*
X155220000Y-101600000D01*
X153995000Y-103800000D02*
X153995000Y-102825000D01*
X155220000Y-101600000D02*
X156210000Y-101600000D01*
X156210000Y-101600000D02*
X156210000Y-101600000D01*
X154645000Y-102825000D02*
X154854000Y-102616000D01*
X154645000Y-103800000D02*
X154645000Y-102825000D01*
X154854000Y-102616000D02*
X155448000Y-102616000D01*
X155448000Y-102616000D02*
X156210000Y-102616000D01*
X156210000Y-102616000D02*
X156210000Y-102616000D01*
D16*
G36*
X166726001Y-105766000D02*
G01*
X142330113Y-105766000D01*
X142331784Y-105764627D01*
X142355391Y-105735820D01*
X142801212Y-105290000D01*
X146100386Y-105290000D01*
X146131595Y-105348387D01*
X146242038Y-105482962D01*
X146376613Y-105593405D01*
X146530149Y-105675472D01*
X146696745Y-105726008D01*
X146869999Y-105743072D01*
X147770001Y-105743072D01*
X147943255Y-105726008D01*
X148109851Y-105675472D01*
X148263387Y-105593405D01*
X148397962Y-105482962D01*
X148508405Y-105348387D01*
X148590472Y-105194851D01*
X148641008Y-105028255D01*
X148658072Y-104855001D01*
X148658072Y-104204999D01*
X148641008Y-104031745D01*
X148590472Y-103865149D01*
X148508405Y-103711613D01*
X148397962Y-103577038D01*
X148310184Y-103505000D01*
X148397962Y-103432962D01*
X148508405Y-103298387D01*
X148539614Y-103240000D01*
X151831928Y-103240000D01*
X151831928Y-104525000D01*
X151844188Y-104649482D01*
X151880498Y-104769180D01*
X151939463Y-104879494D01*
X152018815Y-104976185D01*
X152115506Y-105055537D01*
X152225820Y-105114502D01*
X152345518Y-105150812D01*
X152470000Y-105163072D01*
X152920000Y-105163072D01*
X153020000Y-105153223D01*
X153120000Y-105163072D01*
X153570000Y-105163072D01*
X153670000Y-105153223D01*
X153770000Y-105163072D01*
X154220000Y-105163072D01*
X154320000Y-105153223D01*
X154420000Y-105163072D01*
X154870000Y-105163072D01*
X154994482Y-105150812D01*
X155114180Y-105114502D01*
X155224494Y-105055537D01*
X155321185Y-104976185D01*
X155400537Y-104879494D01*
X155459502Y-104769180D01*
X155495812Y-104649482D01*
X155508072Y-104525000D01*
X155508072Y-103377783D01*
X155550226Y-103419937D01*
X155719744Y-103533205D01*
X155908102Y-103611226D01*
X156108061Y-103651000D01*
X156311939Y-103651000D01*
X156511898Y-103611226D01*
X156700256Y-103533205D01*
X156869774Y-103419937D01*
X157013937Y-103275774D01*
X157127205Y-103106256D01*
X157205226Y-102917898D01*
X157245000Y-102717939D01*
X157245000Y-102514061D01*
X157205226Y-102314102D01*
X157127205Y-102125744D01*
X157115349Y-102108000D01*
X157127205Y-102090256D01*
X157205226Y-101901898D01*
X157245000Y-101701939D01*
X157245000Y-101498061D01*
X157205226Y-101298102D01*
X157127205Y-101109744D01*
X157115349Y-101092000D01*
X157127205Y-101074256D01*
X157205226Y-100885898D01*
X157245000Y-100685939D01*
X157245000Y-100482061D01*
X157205226Y-100282102D01*
X157127205Y-100093744D01*
X157013937Y-99924226D01*
X156869774Y-99780063D01*
X156700256Y-99666795D01*
X156511898Y-99588774D01*
X156311939Y-99549000D01*
X156108061Y-99549000D01*
X155908102Y-99588774D01*
X155719744Y-99666795D01*
X155550226Y-99780063D01*
X155505967Y-99824322D01*
X155505000Y-99685750D01*
X155346250Y-99527000D01*
X154858072Y-99527000D01*
X154858072Y-99273000D01*
X155346250Y-99273000D01*
X155505000Y-99114250D01*
X155507998Y-98684715D01*
X155497634Y-98560061D01*
X155463151Y-98439825D01*
X155405874Y-98328625D01*
X155328003Y-98230737D01*
X155232531Y-98149922D01*
X155123127Y-98089285D01*
X155003996Y-98051156D01*
X154901750Y-98040000D01*
X154743000Y-98198750D01*
X154743000Y-98311322D01*
X154671185Y-98223815D01*
X154574494Y-98144463D01*
X154464180Y-98085498D01*
X154420497Y-98072247D01*
X154388250Y-98040000D01*
X154323227Y-98047095D01*
X154220000Y-98036928D01*
X153770000Y-98036928D01*
X153670000Y-98046777D01*
X153570000Y-98036928D01*
X153120000Y-98036928D01*
X153020000Y-98046777D01*
X152920000Y-98036928D01*
X152470000Y-98036928D01*
X152345518Y-98049188D01*
X152225820Y-98085498D01*
X152115506Y-98144463D01*
X152018815Y-98223815D01*
X151939463Y-98320506D01*
X151880498Y-98430820D01*
X151844188Y-98550518D01*
X151831928Y-98675000D01*
X151831928Y-100125000D01*
X151835359Y-100159839D01*
X151790199Y-100205000D01*
X145364614Y-100205000D01*
X145333405Y-100146613D01*
X145222962Y-100012038D01*
X145135184Y-99940000D01*
X145222962Y-99867962D01*
X145333405Y-99733387D01*
X145415472Y-99579851D01*
X145466008Y-99413255D01*
X145483072Y-99240001D01*
X145483072Y-98589999D01*
X145466008Y-98416745D01*
X145415472Y-98250149D01*
X145333405Y-98096613D01*
X145222962Y-97962038D01*
X145088387Y-97851595D01*
X144934851Y-97769528D01*
X144768255Y-97718992D01*
X144595001Y-97701928D01*
X143694999Y-97701928D01*
X143521745Y-97718992D01*
X143355149Y-97769528D01*
X143201613Y-97851595D01*
X143067038Y-97962038D01*
X142956595Y-98096613D01*
X142874528Y-98250149D01*
X142823992Y-98416745D01*
X142806928Y-98589999D01*
X142806928Y-99240001D01*
X142823992Y-99413255D01*
X142874528Y-99579851D01*
X142956595Y-99733387D01*
X143067038Y-99867962D01*
X143154816Y-99940000D01*
X143067038Y-100012038D01*
X142956595Y-100146613D01*
X142874528Y-100300149D01*
X142823992Y-100466745D01*
X142806928Y-100639999D01*
X142806928Y-101290001D01*
X142823992Y-101463255D01*
X142874528Y-101629851D01*
X142911388Y-101698811D01*
X141230199Y-103380000D01*
X137474802Y-103380000D01*
X137285000Y-103190199D01*
X137285000Y-103000072D01*
X137287000Y-103000072D01*
X137411482Y-102987812D01*
X137531180Y-102951502D01*
X137641494Y-102892537D01*
X137738185Y-102813185D01*
X137795000Y-102743956D01*
X137851815Y-102813185D01*
X137948506Y-102892537D01*
X138058820Y-102951502D01*
X138178518Y-102987812D01*
X138303000Y-103000072D01*
X138779250Y-102997000D01*
X138938000Y-102838250D01*
X138938000Y-101727000D01*
X139192000Y-101727000D01*
X139192000Y-102838250D01*
X139350750Y-102997000D01*
X139827000Y-103000072D01*
X139951482Y-102987812D01*
X140071180Y-102951502D01*
X140181494Y-102892537D01*
X140278185Y-102813185D01*
X140357537Y-102716494D01*
X140416502Y-102606180D01*
X140452812Y-102486482D01*
X140465072Y-102362000D01*
X140462000Y-101885750D01*
X140303250Y-101727000D01*
X139192000Y-101727000D01*
X138938000Y-101727000D01*
X138918000Y-101727000D01*
X138918000Y-101473000D01*
X138938000Y-101473000D01*
X138938000Y-100361750D01*
X138906250Y-100330000D01*
X138938000Y-100298250D01*
X138938000Y-99187000D01*
X139192000Y-99187000D01*
X139192000Y-100298250D01*
X139223750Y-100330000D01*
X139192000Y-100361750D01*
X139192000Y-101473000D01*
X140303250Y-101473000D01*
X140462000Y-101314250D01*
X140465072Y-100838000D01*
X140452812Y-100713518D01*
X140416502Y-100593820D01*
X140357537Y-100483506D01*
X140278185Y-100386815D01*
X140208956Y-100330000D01*
X140278185Y-100273185D01*
X140357537Y-100176494D01*
X140416502Y-100066180D01*
X140452812Y-99946482D01*
X140465072Y-99822000D01*
X140462000Y-99345750D01*
X140303250Y-99187000D01*
X139192000Y-99187000D01*
X138938000Y-99187000D01*
X138918000Y-99187000D01*
X138918000Y-98933000D01*
X138938000Y-98933000D01*
X138938000Y-97821750D01*
X139192000Y-97821750D01*
X139192000Y-98933000D01*
X140303250Y-98933000D01*
X140462000Y-98774250D01*
X140465072Y-98298000D01*
X140452812Y-98173518D01*
X140416502Y-98053820D01*
X140357537Y-97943506D01*
X140278185Y-97846815D01*
X140181494Y-97767463D01*
X140071180Y-97708498D01*
X139951482Y-97672188D01*
X139827000Y-97659928D01*
X139350750Y-97663000D01*
X139192000Y-97821750D01*
X138938000Y-97821750D01*
X138779250Y-97663000D01*
X138303000Y-97659928D01*
X138178518Y-97672188D01*
X138058820Y-97708498D01*
X137948506Y-97767463D01*
X137851815Y-97846815D01*
X137795000Y-97916044D01*
X137738185Y-97846815D01*
X137641494Y-97767463D01*
X137531180Y-97708498D01*
X137411482Y-97672188D01*
X137287000Y-97659928D01*
X135763000Y-97659928D01*
X135638518Y-97672188D01*
X135518820Y-97708498D01*
X135408506Y-97767463D01*
X135311815Y-97846815D01*
X135255000Y-97916044D01*
X135198185Y-97846815D01*
X135101494Y-97767463D01*
X134991180Y-97708498D01*
X134871482Y-97672188D01*
X134747000Y-97659928D01*
X133223000Y-97659928D01*
X133098518Y-97672188D01*
X132978820Y-97708498D01*
X132868506Y-97767463D01*
X132771815Y-97846815D01*
X132715000Y-97916044D01*
X132658185Y-97846815D01*
X132561494Y-97767463D01*
X132451180Y-97708498D01*
X132331482Y-97672188D01*
X132207000Y-97659928D01*
X130683000Y-97659928D01*
X130558518Y-97672188D01*
X130438820Y-97708498D01*
X130328506Y-97767463D01*
X130231815Y-97846815D01*
X130175000Y-97916044D01*
X130118185Y-97846815D01*
X130021494Y-97767463D01*
X129911180Y-97708498D01*
X129791482Y-97672188D01*
X129667000Y-97659928D01*
X129190750Y-97663000D01*
X129032000Y-97821750D01*
X129032000Y-98933000D01*
X129052000Y-98933000D01*
X129052000Y-99187000D01*
X129032000Y-99187000D01*
X129032000Y-100298250D01*
X129063750Y-100330000D01*
X129032000Y-100361750D01*
X129032000Y-101473000D01*
X129052000Y-101473000D01*
X129052000Y-101727000D01*
X129032000Y-101727000D01*
X129032000Y-102838250D01*
X129190750Y-102997000D01*
X129667000Y-103000072D01*
X129791482Y-102987812D01*
X129911180Y-102951502D01*
X130021494Y-102892537D01*
X130118185Y-102813185D01*
X130175000Y-102743956D01*
X130231815Y-102813185D01*
X130328506Y-102892537D01*
X130438820Y-102951502D01*
X130558518Y-102987812D01*
X130683000Y-103000072D01*
X131566269Y-103000072D01*
X134332196Y-105766000D01*
X117754000Y-105766000D01*
X117754000Y-102362000D01*
X127504928Y-102362000D01*
X127517188Y-102486482D01*
X127553498Y-102606180D01*
X127612463Y-102716494D01*
X127691815Y-102813185D01*
X127788506Y-102892537D01*
X127898820Y-102951502D01*
X128018518Y-102987812D01*
X128143000Y-103000072D01*
X128619250Y-102997000D01*
X128778000Y-102838250D01*
X128778000Y-101727000D01*
X127666750Y-101727000D01*
X127508000Y-101885750D01*
X127504928Y-102362000D01*
X117754000Y-102362000D01*
X117754000Y-99822000D01*
X127504928Y-99822000D01*
X127517188Y-99946482D01*
X127553498Y-100066180D01*
X127612463Y-100176494D01*
X127691815Y-100273185D01*
X127761044Y-100330000D01*
X127691815Y-100386815D01*
X127612463Y-100483506D01*
X127553498Y-100593820D01*
X127517188Y-100713518D01*
X127504928Y-100838000D01*
X127508000Y-101314250D01*
X127666750Y-101473000D01*
X128778000Y-101473000D01*
X128778000Y-100361750D01*
X128746250Y-100330000D01*
X128778000Y-100298250D01*
X128778000Y-99187000D01*
X127666750Y-99187000D01*
X127508000Y-99345750D01*
X127504928Y-99822000D01*
X117754000Y-99822000D01*
X117754000Y-98298000D01*
X127504928Y-98298000D01*
X127508000Y-98774250D01*
X127666750Y-98933000D01*
X128778000Y-98933000D01*
X128778000Y-97821750D01*
X128619250Y-97663000D01*
X128143000Y-97659928D01*
X128018518Y-97672188D01*
X127898820Y-97708498D01*
X127788506Y-97767463D01*
X127691815Y-97846815D01*
X127612463Y-97943506D01*
X127553498Y-98053820D01*
X127517188Y-98173518D01*
X127504928Y-98298000D01*
X117754000Y-98298000D01*
X117754000Y-97434000D01*
X166726000Y-97434000D01*
X166726001Y-105766000D01*
G37*
X166726001Y-105766000D02*
X142330113Y-105766000D01*
X142331784Y-105764627D01*
X142355391Y-105735820D01*
X142801212Y-105290000D01*
X146100386Y-105290000D01*
X146131595Y-105348387D01*
X146242038Y-105482962D01*
X146376613Y-105593405D01*
X146530149Y-105675472D01*
X146696745Y-105726008D01*
X146869999Y-105743072D01*
X147770001Y-105743072D01*
X147943255Y-105726008D01*
X148109851Y-105675472D01*
X148263387Y-105593405D01*
X148397962Y-105482962D01*
X148508405Y-105348387D01*
X148590472Y-105194851D01*
X148641008Y-105028255D01*
X148658072Y-104855001D01*
X148658072Y-104204999D01*
X148641008Y-104031745D01*
X148590472Y-103865149D01*
X148508405Y-103711613D01*
X148397962Y-103577038D01*
X148310184Y-103505000D01*
X148397962Y-103432962D01*
X148508405Y-103298387D01*
X148539614Y-103240000D01*
X151831928Y-103240000D01*
X151831928Y-104525000D01*
X151844188Y-104649482D01*
X151880498Y-104769180D01*
X151939463Y-104879494D01*
X152018815Y-104976185D01*
X152115506Y-105055537D01*
X152225820Y-105114502D01*
X152345518Y-105150812D01*
X152470000Y-105163072D01*
X152920000Y-105163072D01*
X153020000Y-105153223D01*
X153120000Y-105163072D01*
X153570000Y-105163072D01*
X153670000Y-105153223D01*
X153770000Y-105163072D01*
X154220000Y-105163072D01*
X154320000Y-105153223D01*
X154420000Y-105163072D01*
X154870000Y-105163072D01*
X154994482Y-105150812D01*
X155114180Y-105114502D01*
X155224494Y-105055537D01*
X155321185Y-104976185D01*
X155400537Y-104879494D01*
X155459502Y-104769180D01*
X155495812Y-104649482D01*
X155508072Y-104525000D01*
X155508072Y-103377783D01*
X155550226Y-103419937D01*
X155719744Y-103533205D01*
X155908102Y-103611226D01*
X156108061Y-103651000D01*
X156311939Y-103651000D01*
X156511898Y-103611226D01*
X156700256Y-103533205D01*
X156869774Y-103419937D01*
X157013937Y-103275774D01*
X157127205Y-103106256D01*
X157205226Y-102917898D01*
X157245000Y-102717939D01*
X157245000Y-102514061D01*
X157205226Y-102314102D01*
X157127205Y-102125744D01*
X157115349Y-102108000D01*
X157127205Y-102090256D01*
X157205226Y-101901898D01*
X157245000Y-101701939D01*
X157245000Y-101498061D01*
X157205226Y-101298102D01*
X157127205Y-101109744D01*
X157115349Y-101092000D01*
X157127205Y-101074256D01*
X157205226Y-100885898D01*
X157245000Y-100685939D01*
X157245000Y-100482061D01*
X157205226Y-100282102D01*
X157127205Y-100093744D01*
X157013937Y-99924226D01*
X156869774Y-99780063D01*
X156700256Y-99666795D01*
X156511898Y-99588774D01*
X156311939Y-99549000D01*
X156108061Y-99549000D01*
X155908102Y-99588774D01*
X155719744Y-99666795D01*
X155550226Y-99780063D01*
X155505967Y-99824322D01*
X155505000Y-99685750D01*
X155346250Y-99527000D01*
X154858072Y-99527000D01*
X154858072Y-99273000D01*
X155346250Y-99273000D01*
X155505000Y-99114250D01*
X155507998Y-98684715D01*
X155497634Y-98560061D01*
X155463151Y-98439825D01*
X155405874Y-98328625D01*
X155328003Y-98230737D01*
X155232531Y-98149922D01*
X155123127Y-98089285D01*
X155003996Y-98051156D01*
X154901750Y-98040000D01*
X154743000Y-98198750D01*
X154743000Y-98311322D01*
X154671185Y-98223815D01*
X154574494Y-98144463D01*
X154464180Y-98085498D01*
X154420497Y-98072247D01*
X154388250Y-98040000D01*
X154323227Y-98047095D01*
X154220000Y-98036928D01*
X153770000Y-98036928D01*
X153670000Y-98046777D01*
X153570000Y-98036928D01*
X153120000Y-98036928D01*
X153020000Y-98046777D01*
X152920000Y-98036928D01*
X152470000Y-98036928D01*
X152345518Y-98049188D01*
X152225820Y-98085498D01*
X152115506Y-98144463D01*
X152018815Y-98223815D01*
X151939463Y-98320506D01*
X151880498Y-98430820D01*
X151844188Y-98550518D01*
X151831928Y-98675000D01*
X151831928Y-100125000D01*
X151835359Y-100159839D01*
X151790199Y-100205000D01*
X145364614Y-100205000D01*
X145333405Y-100146613D01*
X145222962Y-100012038D01*
X145135184Y-99940000D01*
X145222962Y-99867962D01*
X145333405Y-99733387D01*
X145415472Y-99579851D01*
X145466008Y-99413255D01*
X145483072Y-99240001D01*
X145483072Y-98589999D01*
X145466008Y-98416745D01*
X145415472Y-98250149D01*
X145333405Y-98096613D01*
X145222962Y-97962038D01*
X145088387Y-97851595D01*
X144934851Y-97769528D01*
X144768255Y-97718992D01*
X144595001Y-97701928D01*
X143694999Y-97701928D01*
X143521745Y-97718992D01*
X143355149Y-97769528D01*
X143201613Y-97851595D01*
X143067038Y-97962038D01*
X142956595Y-98096613D01*
X142874528Y-98250149D01*
X142823992Y-98416745D01*
X142806928Y-98589999D01*
X142806928Y-99240001D01*
X142823992Y-99413255D01*
X142874528Y-99579851D01*
X142956595Y-99733387D01*
X143067038Y-99867962D01*
X143154816Y-99940000D01*
X143067038Y-100012038D01*
X142956595Y-100146613D01*
X142874528Y-100300149D01*
X142823992Y-100466745D01*
X142806928Y-100639999D01*
X142806928Y-101290001D01*
X142823992Y-101463255D01*
X142874528Y-101629851D01*
X142911388Y-101698811D01*
X141230199Y-103380000D01*
X137474802Y-103380000D01*
X137285000Y-103190199D01*
X137285000Y-103000072D01*
X137287000Y-103000072D01*
X137411482Y-102987812D01*
X137531180Y-102951502D01*
X137641494Y-102892537D01*
X137738185Y-102813185D01*
X137795000Y-102743956D01*
X137851815Y-102813185D01*
X137948506Y-102892537D01*
X138058820Y-102951502D01*
X138178518Y-102987812D01*
X138303000Y-103000072D01*
X138779250Y-102997000D01*
X138938000Y-102838250D01*
X138938000Y-101727000D01*
X139192000Y-101727000D01*
X139192000Y-102838250D01*
X139350750Y-102997000D01*
X139827000Y-103000072D01*
X139951482Y-102987812D01*
X140071180Y-102951502D01*
X140181494Y-102892537D01*
X140278185Y-102813185D01*
X140357537Y-102716494D01*
X140416502Y-102606180D01*
X140452812Y-102486482D01*
X140465072Y-102362000D01*
X140462000Y-101885750D01*
X140303250Y-101727000D01*
X139192000Y-101727000D01*
X138938000Y-101727000D01*
X138918000Y-101727000D01*
X138918000Y-101473000D01*
X138938000Y-101473000D01*
X138938000Y-100361750D01*
X138906250Y-100330000D01*
X138938000Y-100298250D01*
X138938000Y-99187000D01*
X139192000Y-99187000D01*
X139192000Y-100298250D01*
X139223750Y-100330000D01*
X139192000Y-100361750D01*
X139192000Y-101473000D01*
X140303250Y-101473000D01*
X140462000Y-101314250D01*
X140465072Y-100838000D01*
X140452812Y-100713518D01*
X140416502Y-100593820D01*
X140357537Y-100483506D01*
X140278185Y-100386815D01*
X140208956Y-100330000D01*
X140278185Y-100273185D01*
X140357537Y-100176494D01*
X140416502Y-100066180D01*
X140452812Y-99946482D01*
X140465072Y-99822000D01*
X140462000Y-99345750D01*
X140303250Y-99187000D01*
X139192000Y-99187000D01*
X138938000Y-99187000D01*
X138918000Y-99187000D01*
X138918000Y-98933000D01*
X138938000Y-98933000D01*
X138938000Y-97821750D01*
X139192000Y-97821750D01*
X139192000Y-98933000D01*
X140303250Y-98933000D01*
X140462000Y-98774250D01*
X140465072Y-98298000D01*
X140452812Y-98173518D01*
X140416502Y-98053820D01*
X140357537Y-97943506D01*
X140278185Y-97846815D01*
X140181494Y-97767463D01*
X140071180Y-97708498D01*
X139951482Y-97672188D01*
X139827000Y-97659928D01*
X139350750Y-97663000D01*
X139192000Y-97821750D01*
X138938000Y-97821750D01*
X138779250Y-97663000D01*
X138303000Y-97659928D01*
X138178518Y-97672188D01*
X138058820Y-97708498D01*
X137948506Y-97767463D01*
X137851815Y-97846815D01*
X137795000Y-97916044D01*
X137738185Y-97846815D01*
X137641494Y-97767463D01*
X137531180Y-97708498D01*
X137411482Y-97672188D01*
X137287000Y-97659928D01*
X135763000Y-97659928D01*
X135638518Y-97672188D01*
X135518820Y-97708498D01*
X135408506Y-97767463D01*
X135311815Y-97846815D01*
X135255000Y-97916044D01*
X135198185Y-97846815D01*
X135101494Y-97767463D01*
X134991180Y-97708498D01*
X134871482Y-97672188D01*
X134747000Y-97659928D01*
X133223000Y-97659928D01*
X133098518Y-97672188D01*
X132978820Y-97708498D01*
X132868506Y-97767463D01*
X132771815Y-97846815D01*
X132715000Y-97916044D01*
X132658185Y-97846815D01*
X132561494Y-97767463D01*
X132451180Y-97708498D01*
X132331482Y-97672188D01*
X132207000Y-97659928D01*
X130683000Y-97659928D01*
X130558518Y-97672188D01*
X130438820Y-97708498D01*
X130328506Y-97767463D01*
X130231815Y-97846815D01*
X130175000Y-97916044D01*
X130118185Y-97846815D01*
X130021494Y-97767463D01*
X129911180Y-97708498D01*
X129791482Y-97672188D01*
X129667000Y-97659928D01*
X129190750Y-97663000D01*
X129032000Y-97821750D01*
X129032000Y-98933000D01*
X129052000Y-98933000D01*
X129052000Y-99187000D01*
X129032000Y-99187000D01*
X129032000Y-100298250D01*
X129063750Y-100330000D01*
X129032000Y-100361750D01*
X129032000Y-101473000D01*
X129052000Y-101473000D01*
X129052000Y-101727000D01*
X129032000Y-101727000D01*
X129032000Y-102838250D01*
X129190750Y-102997000D01*
X129667000Y-103000072D01*
X129791482Y-102987812D01*
X129911180Y-102951502D01*
X130021494Y-102892537D01*
X130118185Y-102813185D01*
X130175000Y-102743956D01*
X130231815Y-102813185D01*
X130328506Y-102892537D01*
X130438820Y-102951502D01*
X130558518Y-102987812D01*
X130683000Y-103000072D01*
X131566269Y-103000072D01*
X134332196Y-105766000D01*
X117754000Y-105766000D01*
X117754000Y-102362000D01*
X127504928Y-102362000D01*
X127517188Y-102486482D01*
X127553498Y-102606180D01*
X127612463Y-102716494D01*
X127691815Y-102813185D01*
X127788506Y-102892537D01*
X127898820Y-102951502D01*
X128018518Y-102987812D01*
X128143000Y-103000072D01*
X128619250Y-102997000D01*
X128778000Y-102838250D01*
X128778000Y-101727000D01*
X127666750Y-101727000D01*
X127508000Y-101885750D01*
X127504928Y-102362000D01*
X117754000Y-102362000D01*
X117754000Y-99822000D01*
X127504928Y-99822000D01*
X127517188Y-99946482D01*
X127553498Y-100066180D01*
X127612463Y-100176494D01*
X127691815Y-100273185D01*
X127761044Y-100330000D01*
X127691815Y-100386815D01*
X127612463Y-100483506D01*
X127553498Y-100593820D01*
X127517188Y-100713518D01*
X127504928Y-100838000D01*
X127508000Y-101314250D01*
X127666750Y-101473000D01*
X128778000Y-101473000D01*
X128778000Y-100361750D01*
X128746250Y-100330000D01*
X128778000Y-100298250D01*
X128778000Y-99187000D01*
X127666750Y-99187000D01*
X127508000Y-99345750D01*
X127504928Y-99822000D01*
X117754000Y-99822000D01*
X117754000Y-98298000D01*
X127504928Y-98298000D01*
X127508000Y-98774250D01*
X127666750Y-98933000D01*
X128778000Y-98933000D01*
X128778000Y-97821750D01*
X128619250Y-97663000D01*
X128143000Y-97659928D01*
X128018518Y-97672188D01*
X127898820Y-97708498D01*
X127788506Y-97767463D01*
X127691815Y-97846815D01*
X127612463Y-97943506D01*
X127553498Y-98053820D01*
X127517188Y-98173518D01*
X127504928Y-98298000D01*
X117754000Y-98298000D01*
X117754000Y-97434000D01*
X166726000Y-97434000D01*
X166726001Y-105766000D01*
M02*
