G04 #@! TF.GenerationSoftware,KiCad,Pcbnew,5.1.5-52549c5~84~ubuntu18.04.1*
G04 #@! TF.CreationDate,2020-01-14T18:33:40+01:00*
G04 #@! TF.ProjectId,MCPB_R1,4d435042-5f52-4312-9e6b-696361645f70,rev?*
G04 #@! TF.SameCoordinates,Original*
G04 #@! TF.FileFunction,Paste,Bot*
G04 #@! TF.FilePolarity,Positive*
%FSLAX46Y46*%
G04 Gerber Fmt 4.6, Leading zero omitted, Abs format (unit mm)*
G04 Created by KiCad (PCBNEW 5.1.5-52549c5~84~ubuntu18.04.1) date 2020-01-14 18:33:40*
%MOMM*%
%LPD*%
G04 APERTURE LIST*
%ADD10R,1.450000X0.450000*%
%ADD11C,0.100000*%
G04 APERTURE END LIST*
D10*
X155702000Y-102504000D03*
X155702000Y-101854000D03*
X155702000Y-101204000D03*
X155702000Y-100554000D03*
X151302000Y-100554000D03*
X151302000Y-101204000D03*
X151302000Y-101854000D03*
X151302000Y-102504000D03*
D11*
G36*
X147794505Y-101008204D02*
G01*
X147818773Y-101011804D01*
X147842572Y-101017765D01*
X147865671Y-101026030D01*
X147887850Y-101036520D01*
X147908893Y-101049132D01*
X147928599Y-101063747D01*
X147946777Y-101080223D01*
X147963253Y-101098401D01*
X147977868Y-101118107D01*
X147990480Y-101139150D01*
X148000970Y-101161329D01*
X148009235Y-101184428D01*
X148015196Y-101208227D01*
X148018796Y-101232495D01*
X148020000Y-101256999D01*
X148020000Y-101907001D01*
X148018796Y-101931505D01*
X148015196Y-101955773D01*
X148009235Y-101979572D01*
X148000970Y-102002671D01*
X147990480Y-102024850D01*
X147977868Y-102045893D01*
X147963253Y-102065599D01*
X147946777Y-102083777D01*
X147928599Y-102100253D01*
X147908893Y-102114868D01*
X147887850Y-102127480D01*
X147865671Y-102137970D01*
X147842572Y-102146235D01*
X147818773Y-102152196D01*
X147794505Y-102155796D01*
X147770001Y-102157000D01*
X146869999Y-102157000D01*
X146845495Y-102155796D01*
X146821227Y-102152196D01*
X146797428Y-102146235D01*
X146774329Y-102137970D01*
X146752150Y-102127480D01*
X146731107Y-102114868D01*
X146711401Y-102100253D01*
X146693223Y-102083777D01*
X146676747Y-102065599D01*
X146662132Y-102045893D01*
X146649520Y-102024850D01*
X146639030Y-102002671D01*
X146630765Y-101979572D01*
X146624804Y-101955773D01*
X146621204Y-101931505D01*
X146620000Y-101907001D01*
X146620000Y-101256999D01*
X146621204Y-101232495D01*
X146624804Y-101208227D01*
X146630765Y-101184428D01*
X146639030Y-101161329D01*
X146649520Y-101139150D01*
X146662132Y-101118107D01*
X146676747Y-101098401D01*
X146693223Y-101080223D01*
X146711401Y-101063747D01*
X146731107Y-101049132D01*
X146752150Y-101036520D01*
X146774329Y-101026030D01*
X146797428Y-101017765D01*
X146821227Y-101011804D01*
X146845495Y-101008204D01*
X146869999Y-101007000D01*
X147770001Y-101007000D01*
X147794505Y-101008204D01*
G37*
G36*
X147794505Y-103058204D02*
G01*
X147818773Y-103061804D01*
X147842572Y-103067765D01*
X147865671Y-103076030D01*
X147887850Y-103086520D01*
X147908893Y-103099132D01*
X147928599Y-103113747D01*
X147946777Y-103130223D01*
X147963253Y-103148401D01*
X147977868Y-103168107D01*
X147990480Y-103189150D01*
X148000970Y-103211329D01*
X148009235Y-103234428D01*
X148015196Y-103258227D01*
X148018796Y-103282495D01*
X148020000Y-103306999D01*
X148020000Y-103957001D01*
X148018796Y-103981505D01*
X148015196Y-104005773D01*
X148009235Y-104029572D01*
X148000970Y-104052671D01*
X147990480Y-104074850D01*
X147977868Y-104095893D01*
X147963253Y-104115599D01*
X147946777Y-104133777D01*
X147928599Y-104150253D01*
X147908893Y-104164868D01*
X147887850Y-104177480D01*
X147865671Y-104187970D01*
X147842572Y-104196235D01*
X147818773Y-104202196D01*
X147794505Y-104205796D01*
X147770001Y-104207000D01*
X146869999Y-104207000D01*
X146845495Y-104205796D01*
X146821227Y-104202196D01*
X146797428Y-104196235D01*
X146774329Y-104187970D01*
X146752150Y-104177480D01*
X146731107Y-104164868D01*
X146711401Y-104150253D01*
X146693223Y-104133777D01*
X146676747Y-104115599D01*
X146662132Y-104095893D01*
X146649520Y-104074850D01*
X146639030Y-104052671D01*
X146630765Y-104029572D01*
X146624804Y-104005773D01*
X146621204Y-103981505D01*
X146620000Y-103957001D01*
X146620000Y-103306999D01*
X146621204Y-103282495D01*
X146624804Y-103258227D01*
X146630765Y-103234428D01*
X146639030Y-103211329D01*
X146649520Y-103189150D01*
X146662132Y-103168107D01*
X146676747Y-103148401D01*
X146693223Y-103130223D01*
X146711401Y-103113747D01*
X146731107Y-103099132D01*
X146752150Y-103086520D01*
X146774329Y-103076030D01*
X146797428Y-103067765D01*
X146821227Y-103061804D01*
X146845495Y-103058204D01*
X146869999Y-103057000D01*
X147770001Y-103057000D01*
X147794505Y-103058204D01*
G37*
G36*
X145508505Y-102024204D02*
G01*
X145532773Y-102027804D01*
X145556572Y-102033765D01*
X145579671Y-102042030D01*
X145601850Y-102052520D01*
X145622893Y-102065132D01*
X145642599Y-102079747D01*
X145660777Y-102096223D01*
X145677253Y-102114401D01*
X145691868Y-102134107D01*
X145704480Y-102155150D01*
X145714970Y-102177329D01*
X145723235Y-102200428D01*
X145729196Y-102224227D01*
X145732796Y-102248495D01*
X145734000Y-102272999D01*
X145734000Y-102923001D01*
X145732796Y-102947505D01*
X145729196Y-102971773D01*
X145723235Y-102995572D01*
X145714970Y-103018671D01*
X145704480Y-103040850D01*
X145691868Y-103061893D01*
X145677253Y-103081599D01*
X145660777Y-103099777D01*
X145642599Y-103116253D01*
X145622893Y-103130868D01*
X145601850Y-103143480D01*
X145579671Y-103153970D01*
X145556572Y-103162235D01*
X145532773Y-103168196D01*
X145508505Y-103171796D01*
X145484001Y-103173000D01*
X144583999Y-103173000D01*
X144559495Y-103171796D01*
X144535227Y-103168196D01*
X144511428Y-103162235D01*
X144488329Y-103153970D01*
X144466150Y-103143480D01*
X144445107Y-103130868D01*
X144425401Y-103116253D01*
X144407223Y-103099777D01*
X144390747Y-103081599D01*
X144376132Y-103061893D01*
X144363520Y-103040850D01*
X144353030Y-103018671D01*
X144344765Y-102995572D01*
X144338804Y-102971773D01*
X144335204Y-102947505D01*
X144334000Y-102923001D01*
X144334000Y-102272999D01*
X144335204Y-102248495D01*
X144338804Y-102224227D01*
X144344765Y-102200428D01*
X144353030Y-102177329D01*
X144363520Y-102155150D01*
X144376132Y-102134107D01*
X144390747Y-102114401D01*
X144407223Y-102096223D01*
X144425401Y-102079747D01*
X144445107Y-102065132D01*
X144466150Y-102052520D01*
X144488329Y-102042030D01*
X144511428Y-102033765D01*
X144535227Y-102027804D01*
X144559495Y-102024204D01*
X144583999Y-102023000D01*
X145484001Y-102023000D01*
X145508505Y-102024204D01*
G37*
G36*
X145508505Y-104074204D02*
G01*
X145532773Y-104077804D01*
X145556572Y-104083765D01*
X145579671Y-104092030D01*
X145601850Y-104102520D01*
X145622893Y-104115132D01*
X145642599Y-104129747D01*
X145660777Y-104146223D01*
X145677253Y-104164401D01*
X145691868Y-104184107D01*
X145704480Y-104205150D01*
X145714970Y-104227329D01*
X145723235Y-104250428D01*
X145729196Y-104274227D01*
X145732796Y-104298495D01*
X145734000Y-104322999D01*
X145734000Y-104973001D01*
X145732796Y-104997505D01*
X145729196Y-105021773D01*
X145723235Y-105045572D01*
X145714970Y-105068671D01*
X145704480Y-105090850D01*
X145691868Y-105111893D01*
X145677253Y-105131599D01*
X145660777Y-105149777D01*
X145642599Y-105166253D01*
X145622893Y-105180868D01*
X145601850Y-105193480D01*
X145579671Y-105203970D01*
X145556572Y-105212235D01*
X145532773Y-105218196D01*
X145508505Y-105221796D01*
X145484001Y-105223000D01*
X144583999Y-105223000D01*
X144559495Y-105221796D01*
X144535227Y-105218196D01*
X144511428Y-105212235D01*
X144488329Y-105203970D01*
X144466150Y-105193480D01*
X144445107Y-105180868D01*
X144425401Y-105166253D01*
X144407223Y-105149777D01*
X144390747Y-105131599D01*
X144376132Y-105111893D01*
X144363520Y-105090850D01*
X144353030Y-105068671D01*
X144344765Y-105045572D01*
X144338804Y-105021773D01*
X144335204Y-104997505D01*
X144334000Y-104973001D01*
X144334000Y-104322999D01*
X144335204Y-104298495D01*
X144338804Y-104274227D01*
X144344765Y-104250428D01*
X144353030Y-104227329D01*
X144363520Y-104205150D01*
X144376132Y-104184107D01*
X144390747Y-104164401D01*
X144407223Y-104146223D01*
X144425401Y-104129747D01*
X144445107Y-104115132D01*
X144466150Y-104102520D01*
X144488329Y-104092030D01*
X144511428Y-104083765D01*
X144535227Y-104077804D01*
X144559495Y-104074204D01*
X144583999Y-104073000D01*
X145484001Y-104073000D01*
X145508505Y-104074204D01*
G37*
M02*
