G04 #@! TF.GenerationSoftware,KiCad,Pcbnew,5.1.5-52549c5~84~ubuntu18.04.1*
G04 #@! TF.CreationDate,2020-01-09T23:46:23+01:00*
G04 #@! TF.ProjectId,MCPB_R1,4d435042-5f52-4312-9e6b-696361645f70,rev?*
G04 #@! TF.SameCoordinates,Original*
G04 #@! TF.FileFunction,Soldermask,Bot*
G04 #@! TF.FilePolarity,Negative*
%FSLAX46Y46*%
G04 Gerber Fmt 4.6, Leading zero omitted, Abs format (unit mm)*
G04 Created by KiCad (PCBNEW 5.1.5-52549c5~84~ubuntu18.04.1) date 2020-01-09 23:46:23*
%MOMM*%
%LPD*%
G04 APERTURE LIST*
%ADD10C,0.100000*%
G04 APERTURE END LIST*
D10*
G36*
X147908674Y-103908465D02*
G01*
X147946367Y-103919899D01*
X147981103Y-103938466D01*
X148011548Y-103963452D01*
X148036534Y-103993897D01*
X148055101Y-104028633D01*
X148066535Y-104066326D01*
X148071000Y-104111661D01*
X148071000Y-104948339D01*
X148066535Y-104993674D01*
X148055101Y-105031367D01*
X148036534Y-105066103D01*
X148011548Y-105096548D01*
X147981103Y-105121534D01*
X147946367Y-105140101D01*
X147908674Y-105151535D01*
X147863339Y-105156000D01*
X146776661Y-105156000D01*
X146731326Y-105151535D01*
X146693633Y-105140101D01*
X146658897Y-105121534D01*
X146628452Y-105096548D01*
X146603466Y-105066103D01*
X146584899Y-105031367D01*
X146573465Y-104993674D01*
X146569000Y-104948339D01*
X146569000Y-104111661D01*
X146573465Y-104066326D01*
X146584899Y-104028633D01*
X146603466Y-103993897D01*
X146628452Y-103963452D01*
X146658897Y-103938466D01*
X146693633Y-103919899D01*
X146731326Y-103908465D01*
X146776661Y-103904000D01*
X147863339Y-103904000D01*
X147908674Y-103908465D01*
G37*
G36*
X163449943Y-98666248D02*
G01*
X164005189Y-98896238D01*
X164005190Y-98896239D01*
X164504899Y-99230134D01*
X164929866Y-99655101D01*
X165097948Y-99906653D01*
X165263762Y-100154811D01*
X165493752Y-100710057D01*
X165611000Y-101299501D01*
X165611000Y-101900499D01*
X165493752Y-102489943D01*
X165263762Y-103045189D01*
X165223129Y-103106000D01*
X164929866Y-103544899D01*
X164504899Y-103969866D01*
X164484168Y-103983718D01*
X164005189Y-104303762D01*
X163449943Y-104533752D01*
X162860499Y-104651000D01*
X162259501Y-104651000D01*
X161670057Y-104533752D01*
X161114811Y-104303762D01*
X160635832Y-103983718D01*
X160615101Y-103969866D01*
X160190134Y-103544899D01*
X159896871Y-103106000D01*
X159856238Y-103045189D01*
X159626248Y-102489943D01*
X159509000Y-101900499D01*
X159509000Y-101299501D01*
X159626248Y-100710057D01*
X159856238Y-100154811D01*
X160022052Y-99906653D01*
X160190134Y-99655101D01*
X160615101Y-99230134D01*
X161114810Y-98896239D01*
X161114811Y-98896238D01*
X161670057Y-98666248D01*
X162259501Y-98549000D01*
X162860499Y-98549000D01*
X163449943Y-98666248D01*
G37*
G36*
X122809943Y-98666248D02*
G01*
X123365189Y-98896238D01*
X123365190Y-98896239D01*
X123864899Y-99230134D01*
X124289866Y-99655101D01*
X124457948Y-99906653D01*
X124623762Y-100154811D01*
X124853752Y-100710057D01*
X124971000Y-101299501D01*
X124971000Y-101900499D01*
X124853752Y-102489943D01*
X124623762Y-103045189D01*
X124583129Y-103106000D01*
X124289866Y-103544899D01*
X123864899Y-103969866D01*
X123844168Y-103983718D01*
X123365189Y-104303762D01*
X122809943Y-104533752D01*
X122220499Y-104651000D01*
X121619501Y-104651000D01*
X121030057Y-104533752D01*
X120474811Y-104303762D01*
X119995832Y-103983718D01*
X119975101Y-103969866D01*
X119550134Y-103544899D01*
X119256871Y-103106000D01*
X119216238Y-103045189D01*
X118986248Y-102489943D01*
X118869000Y-101900499D01*
X118869000Y-101299501D01*
X118986248Y-100710057D01*
X119216238Y-100154811D01*
X119382052Y-99906653D01*
X119550134Y-99655101D01*
X119975101Y-99230134D01*
X120474810Y-98896239D01*
X120474811Y-98896238D01*
X121030057Y-98666248D01*
X121619501Y-98549000D01*
X122220499Y-98549000D01*
X122809943Y-98666248D01*
G37*
G36*
X154921000Y-104576000D02*
G01*
X152419000Y-104576000D01*
X152419000Y-103024000D01*
X154921000Y-103024000D01*
X154921000Y-104576000D01*
G37*
G36*
X147908674Y-101858465D02*
G01*
X147946367Y-101869899D01*
X147981103Y-101888466D01*
X148011548Y-101913452D01*
X148036534Y-101943897D01*
X148055101Y-101978633D01*
X148066535Y-102016326D01*
X148071000Y-102061661D01*
X148071000Y-102898339D01*
X148066535Y-102943674D01*
X148055101Y-102981367D01*
X148036534Y-103016103D01*
X148011548Y-103046548D01*
X147981103Y-103071534D01*
X147946367Y-103090101D01*
X147908674Y-103101535D01*
X147863339Y-103106000D01*
X146776661Y-103106000D01*
X146731326Y-103101535D01*
X146693633Y-103090101D01*
X146658897Y-103071534D01*
X146628452Y-103046548D01*
X146603466Y-103016103D01*
X146584899Y-102981367D01*
X146573465Y-102943674D01*
X146569000Y-102898339D01*
X146569000Y-102061661D01*
X146573465Y-102016326D01*
X146584899Y-101978633D01*
X146603466Y-101943897D01*
X146628452Y-101913452D01*
X146658897Y-101888466D01*
X146693633Y-101869899D01*
X146731326Y-101858465D01*
X146776661Y-101854000D01*
X147863339Y-101854000D01*
X147908674Y-101858465D01*
G37*
G36*
X137338000Y-102413000D02*
G01*
X135712000Y-102413000D01*
X135712000Y-100787000D01*
X137338000Y-100787000D01*
X137338000Y-102413000D01*
G37*
G36*
X134798000Y-102413000D02*
G01*
X133172000Y-102413000D01*
X133172000Y-100787000D01*
X134798000Y-100787000D01*
X134798000Y-102413000D01*
G37*
G36*
X132258000Y-102413000D02*
G01*
X130632000Y-102413000D01*
X130632000Y-100787000D01*
X132258000Y-100787000D01*
X132258000Y-102413000D01*
G37*
G36*
X129718000Y-102413000D02*
G01*
X128092000Y-102413000D01*
X128092000Y-100787000D01*
X129718000Y-100787000D01*
X129718000Y-102413000D01*
G37*
G36*
X139878000Y-102413000D02*
G01*
X138252000Y-102413000D01*
X138252000Y-100787000D01*
X139878000Y-100787000D01*
X139878000Y-102413000D01*
G37*
G36*
X144733674Y-100343465D02*
G01*
X144771367Y-100354899D01*
X144806103Y-100373466D01*
X144836548Y-100398452D01*
X144861534Y-100428897D01*
X144880101Y-100463633D01*
X144891535Y-100501326D01*
X144896000Y-100546661D01*
X144896000Y-101383339D01*
X144891535Y-101428674D01*
X144880101Y-101466367D01*
X144861534Y-101501103D01*
X144836548Y-101531548D01*
X144806103Y-101556534D01*
X144771367Y-101575101D01*
X144733674Y-101586535D01*
X144688339Y-101591000D01*
X143601661Y-101591000D01*
X143556326Y-101586535D01*
X143518633Y-101575101D01*
X143483897Y-101556534D01*
X143453452Y-101531548D01*
X143428466Y-101501103D01*
X143409899Y-101466367D01*
X143398465Y-101428674D01*
X143394000Y-101383339D01*
X143394000Y-100546661D01*
X143398465Y-100501326D01*
X143409899Y-100463633D01*
X143428466Y-100428897D01*
X143453452Y-100398452D01*
X143483897Y-100373466D01*
X143518633Y-100354899D01*
X143556326Y-100343465D01*
X143601661Y-100339000D01*
X144688339Y-100339000D01*
X144733674Y-100343465D01*
G37*
G36*
X154921000Y-100176000D02*
G01*
X152419000Y-100176000D01*
X152419000Y-98624000D01*
X154921000Y-98624000D01*
X154921000Y-100176000D01*
G37*
G36*
X129718000Y-99873000D02*
G01*
X128092000Y-99873000D01*
X128092000Y-98247000D01*
X129718000Y-98247000D01*
X129718000Y-99873000D01*
G37*
G36*
X139878000Y-99873000D02*
G01*
X138252000Y-99873000D01*
X138252000Y-98247000D01*
X139878000Y-98247000D01*
X139878000Y-99873000D01*
G37*
G36*
X132258000Y-99873000D02*
G01*
X130632000Y-99873000D01*
X130632000Y-98247000D01*
X132258000Y-98247000D01*
X132258000Y-99873000D01*
G37*
G36*
X137338000Y-99873000D02*
G01*
X135712000Y-99873000D01*
X135712000Y-98247000D01*
X137338000Y-98247000D01*
X137338000Y-99873000D01*
G37*
G36*
X134798000Y-99873000D02*
G01*
X133172000Y-99873000D01*
X133172000Y-98247000D01*
X134798000Y-98247000D01*
X134798000Y-99873000D01*
G37*
G36*
X144733674Y-98293465D02*
G01*
X144771367Y-98304899D01*
X144806103Y-98323466D01*
X144836548Y-98348452D01*
X144861534Y-98378897D01*
X144880101Y-98413633D01*
X144891535Y-98451326D01*
X144896000Y-98496661D01*
X144896000Y-99333339D01*
X144891535Y-99378674D01*
X144880101Y-99416367D01*
X144861534Y-99451103D01*
X144836548Y-99481548D01*
X144806103Y-99506534D01*
X144771367Y-99525101D01*
X144733674Y-99536535D01*
X144688339Y-99541000D01*
X143601661Y-99541000D01*
X143556326Y-99536535D01*
X143518633Y-99525101D01*
X143483897Y-99506534D01*
X143453452Y-99481548D01*
X143428466Y-99451103D01*
X143409899Y-99416367D01*
X143398465Y-99378674D01*
X143394000Y-99333339D01*
X143394000Y-98496661D01*
X143398465Y-98451326D01*
X143409899Y-98413633D01*
X143428466Y-98378897D01*
X143453452Y-98348452D01*
X143483897Y-98323466D01*
X143518633Y-98304899D01*
X143556326Y-98293465D01*
X143601661Y-98289000D01*
X144688339Y-98289000D01*
X144733674Y-98293465D01*
G37*
M02*
