G04 #@! TF.GenerationSoftware,KiCad,Pcbnew,5.1.5-52549c5~84~ubuntu18.04.1*
G04 #@! TF.CreationDate,2020-01-14T18:33:40+01:00*
G04 #@! TF.ProjectId,MCPB_R1,4d435042-5f52-4312-9e6b-696361645f70,rev?*
G04 #@! TF.SameCoordinates,Original*
G04 #@! TF.FileFunction,Paste,Top*
G04 #@! TF.FilePolarity,Positive*
%FSLAX46Y46*%
G04 Gerber Fmt 4.6, Leading zero omitted, Abs format (unit mm)*
G04 Created by KiCad (PCBNEW 5.1.5-52549c5~84~ubuntu18.04.1) date 2020-01-14 18:33:40*
%MOMM*%
%LPD*%
G04 APERTURE LIST*
%ADD10C,0.100000*%
G04 APERTURE END LIST*
D10*
G36*
X155414505Y-99756204D02*
G01*
X155438773Y-99759804D01*
X155462572Y-99765765D01*
X155485671Y-99774030D01*
X155507850Y-99784520D01*
X155528893Y-99797132D01*
X155548599Y-99811747D01*
X155566777Y-99828223D01*
X155583253Y-99846401D01*
X155597868Y-99866107D01*
X155610480Y-99887150D01*
X155620970Y-99909329D01*
X155629235Y-99932428D01*
X155635196Y-99956227D01*
X155638796Y-99980495D01*
X155640000Y-100004999D01*
X155640000Y-100655001D01*
X155638796Y-100679505D01*
X155635196Y-100703773D01*
X155629235Y-100727572D01*
X155620970Y-100750671D01*
X155610480Y-100772850D01*
X155597868Y-100793893D01*
X155583253Y-100813599D01*
X155566777Y-100831777D01*
X155548599Y-100848253D01*
X155528893Y-100862868D01*
X155507850Y-100875480D01*
X155485671Y-100885970D01*
X155462572Y-100894235D01*
X155438773Y-100900196D01*
X155414505Y-100903796D01*
X155390001Y-100905000D01*
X154489999Y-100905000D01*
X154465495Y-100903796D01*
X154441227Y-100900196D01*
X154417428Y-100894235D01*
X154394329Y-100885970D01*
X154372150Y-100875480D01*
X154351107Y-100862868D01*
X154331401Y-100848253D01*
X154313223Y-100831777D01*
X154296747Y-100813599D01*
X154282132Y-100793893D01*
X154269520Y-100772850D01*
X154259030Y-100750671D01*
X154250765Y-100727572D01*
X154244804Y-100703773D01*
X154241204Y-100679505D01*
X154240000Y-100655001D01*
X154240000Y-100004999D01*
X154241204Y-99980495D01*
X154244804Y-99956227D01*
X154250765Y-99932428D01*
X154259030Y-99909329D01*
X154269520Y-99887150D01*
X154282132Y-99866107D01*
X154296747Y-99846401D01*
X154313223Y-99828223D01*
X154331401Y-99811747D01*
X154351107Y-99797132D01*
X154372150Y-99784520D01*
X154394329Y-99774030D01*
X154417428Y-99765765D01*
X154441227Y-99759804D01*
X154465495Y-99756204D01*
X154489999Y-99755000D01*
X155390001Y-99755000D01*
X155414505Y-99756204D01*
G37*
G36*
X155414505Y-101806204D02*
G01*
X155438773Y-101809804D01*
X155462572Y-101815765D01*
X155485671Y-101824030D01*
X155507850Y-101834520D01*
X155528893Y-101847132D01*
X155548599Y-101861747D01*
X155566777Y-101878223D01*
X155583253Y-101896401D01*
X155597868Y-101916107D01*
X155610480Y-101937150D01*
X155620970Y-101959329D01*
X155629235Y-101982428D01*
X155635196Y-102006227D01*
X155638796Y-102030495D01*
X155640000Y-102054999D01*
X155640000Y-102705001D01*
X155638796Y-102729505D01*
X155635196Y-102753773D01*
X155629235Y-102777572D01*
X155620970Y-102800671D01*
X155610480Y-102822850D01*
X155597868Y-102843893D01*
X155583253Y-102863599D01*
X155566777Y-102881777D01*
X155548599Y-102898253D01*
X155528893Y-102912868D01*
X155507850Y-102925480D01*
X155485671Y-102935970D01*
X155462572Y-102944235D01*
X155438773Y-102950196D01*
X155414505Y-102953796D01*
X155390001Y-102955000D01*
X154489999Y-102955000D01*
X154465495Y-102953796D01*
X154441227Y-102950196D01*
X154417428Y-102944235D01*
X154394329Y-102935970D01*
X154372150Y-102925480D01*
X154351107Y-102912868D01*
X154331401Y-102898253D01*
X154313223Y-102881777D01*
X154296747Y-102863599D01*
X154282132Y-102843893D01*
X154269520Y-102822850D01*
X154259030Y-102800671D01*
X154250765Y-102777572D01*
X154244804Y-102753773D01*
X154241204Y-102729505D01*
X154240000Y-102705001D01*
X154240000Y-102054999D01*
X154241204Y-102030495D01*
X154244804Y-102006227D01*
X154250765Y-101982428D01*
X154259030Y-101959329D01*
X154269520Y-101937150D01*
X154282132Y-101916107D01*
X154296747Y-101896401D01*
X154313223Y-101878223D01*
X154331401Y-101861747D01*
X154351107Y-101847132D01*
X154372150Y-101834520D01*
X154394329Y-101824030D01*
X154417428Y-101815765D01*
X154441227Y-101809804D01*
X154465495Y-101806204D01*
X154489999Y-101805000D01*
X155390001Y-101805000D01*
X155414505Y-101806204D01*
G37*
G36*
X153382505Y-99756204D02*
G01*
X153406773Y-99759804D01*
X153430572Y-99765765D01*
X153453671Y-99774030D01*
X153475850Y-99784520D01*
X153496893Y-99797132D01*
X153516599Y-99811747D01*
X153534777Y-99828223D01*
X153551253Y-99846401D01*
X153565868Y-99866107D01*
X153578480Y-99887150D01*
X153588970Y-99909329D01*
X153597235Y-99932428D01*
X153603196Y-99956227D01*
X153606796Y-99980495D01*
X153608000Y-100004999D01*
X153608000Y-100655001D01*
X153606796Y-100679505D01*
X153603196Y-100703773D01*
X153597235Y-100727572D01*
X153588970Y-100750671D01*
X153578480Y-100772850D01*
X153565868Y-100793893D01*
X153551253Y-100813599D01*
X153534777Y-100831777D01*
X153516599Y-100848253D01*
X153496893Y-100862868D01*
X153475850Y-100875480D01*
X153453671Y-100885970D01*
X153430572Y-100894235D01*
X153406773Y-100900196D01*
X153382505Y-100903796D01*
X153358001Y-100905000D01*
X152457999Y-100905000D01*
X152433495Y-100903796D01*
X152409227Y-100900196D01*
X152385428Y-100894235D01*
X152362329Y-100885970D01*
X152340150Y-100875480D01*
X152319107Y-100862868D01*
X152299401Y-100848253D01*
X152281223Y-100831777D01*
X152264747Y-100813599D01*
X152250132Y-100793893D01*
X152237520Y-100772850D01*
X152227030Y-100750671D01*
X152218765Y-100727572D01*
X152212804Y-100703773D01*
X152209204Y-100679505D01*
X152208000Y-100655001D01*
X152208000Y-100004999D01*
X152209204Y-99980495D01*
X152212804Y-99956227D01*
X152218765Y-99932428D01*
X152227030Y-99909329D01*
X152237520Y-99887150D01*
X152250132Y-99866107D01*
X152264747Y-99846401D01*
X152281223Y-99828223D01*
X152299401Y-99811747D01*
X152319107Y-99797132D01*
X152340150Y-99784520D01*
X152362329Y-99774030D01*
X152385428Y-99765765D01*
X152409227Y-99759804D01*
X152433495Y-99756204D01*
X152457999Y-99755000D01*
X153358001Y-99755000D01*
X153382505Y-99756204D01*
G37*
G36*
X153382505Y-101806204D02*
G01*
X153406773Y-101809804D01*
X153430572Y-101815765D01*
X153453671Y-101824030D01*
X153475850Y-101834520D01*
X153496893Y-101847132D01*
X153516599Y-101861747D01*
X153534777Y-101878223D01*
X153551253Y-101896401D01*
X153565868Y-101916107D01*
X153578480Y-101937150D01*
X153588970Y-101959329D01*
X153597235Y-101982428D01*
X153603196Y-102006227D01*
X153606796Y-102030495D01*
X153608000Y-102054999D01*
X153608000Y-102705001D01*
X153606796Y-102729505D01*
X153603196Y-102753773D01*
X153597235Y-102777572D01*
X153588970Y-102800671D01*
X153578480Y-102822850D01*
X153565868Y-102843893D01*
X153551253Y-102863599D01*
X153534777Y-102881777D01*
X153516599Y-102898253D01*
X153496893Y-102912868D01*
X153475850Y-102925480D01*
X153453671Y-102935970D01*
X153430572Y-102944235D01*
X153406773Y-102950196D01*
X153382505Y-102953796D01*
X153358001Y-102955000D01*
X152457999Y-102955000D01*
X152433495Y-102953796D01*
X152409227Y-102950196D01*
X152385428Y-102944235D01*
X152362329Y-102935970D01*
X152340150Y-102925480D01*
X152319107Y-102912868D01*
X152299401Y-102898253D01*
X152281223Y-102881777D01*
X152264747Y-102863599D01*
X152250132Y-102843893D01*
X152237520Y-102822850D01*
X152227030Y-102800671D01*
X152218765Y-102777572D01*
X152212804Y-102753773D01*
X152209204Y-102729505D01*
X152208000Y-102705001D01*
X152208000Y-102054999D01*
X152209204Y-102030495D01*
X152212804Y-102006227D01*
X152218765Y-101982428D01*
X152227030Y-101959329D01*
X152237520Y-101937150D01*
X152250132Y-101916107D01*
X152264747Y-101896401D01*
X152281223Y-101878223D01*
X152299401Y-101861747D01*
X152319107Y-101847132D01*
X152340150Y-101834520D01*
X152362329Y-101824030D01*
X152385428Y-101815765D01*
X152409227Y-101809804D01*
X152433495Y-101806204D01*
X152457999Y-101805000D01*
X153358001Y-101805000D01*
X153382505Y-101806204D01*
G37*
G36*
X151350505Y-99756204D02*
G01*
X151374773Y-99759804D01*
X151398572Y-99765765D01*
X151421671Y-99774030D01*
X151443850Y-99784520D01*
X151464893Y-99797132D01*
X151484599Y-99811747D01*
X151502777Y-99828223D01*
X151519253Y-99846401D01*
X151533868Y-99866107D01*
X151546480Y-99887150D01*
X151556970Y-99909329D01*
X151565235Y-99932428D01*
X151571196Y-99956227D01*
X151574796Y-99980495D01*
X151576000Y-100004999D01*
X151576000Y-100655001D01*
X151574796Y-100679505D01*
X151571196Y-100703773D01*
X151565235Y-100727572D01*
X151556970Y-100750671D01*
X151546480Y-100772850D01*
X151533868Y-100793893D01*
X151519253Y-100813599D01*
X151502777Y-100831777D01*
X151484599Y-100848253D01*
X151464893Y-100862868D01*
X151443850Y-100875480D01*
X151421671Y-100885970D01*
X151398572Y-100894235D01*
X151374773Y-100900196D01*
X151350505Y-100903796D01*
X151326001Y-100905000D01*
X150425999Y-100905000D01*
X150401495Y-100903796D01*
X150377227Y-100900196D01*
X150353428Y-100894235D01*
X150330329Y-100885970D01*
X150308150Y-100875480D01*
X150287107Y-100862868D01*
X150267401Y-100848253D01*
X150249223Y-100831777D01*
X150232747Y-100813599D01*
X150218132Y-100793893D01*
X150205520Y-100772850D01*
X150195030Y-100750671D01*
X150186765Y-100727572D01*
X150180804Y-100703773D01*
X150177204Y-100679505D01*
X150176000Y-100655001D01*
X150176000Y-100004999D01*
X150177204Y-99980495D01*
X150180804Y-99956227D01*
X150186765Y-99932428D01*
X150195030Y-99909329D01*
X150205520Y-99887150D01*
X150218132Y-99866107D01*
X150232747Y-99846401D01*
X150249223Y-99828223D01*
X150267401Y-99811747D01*
X150287107Y-99797132D01*
X150308150Y-99784520D01*
X150330329Y-99774030D01*
X150353428Y-99765765D01*
X150377227Y-99759804D01*
X150401495Y-99756204D01*
X150425999Y-99755000D01*
X151326001Y-99755000D01*
X151350505Y-99756204D01*
G37*
G36*
X151350505Y-101806204D02*
G01*
X151374773Y-101809804D01*
X151398572Y-101815765D01*
X151421671Y-101824030D01*
X151443850Y-101834520D01*
X151464893Y-101847132D01*
X151484599Y-101861747D01*
X151502777Y-101878223D01*
X151519253Y-101896401D01*
X151533868Y-101916107D01*
X151546480Y-101937150D01*
X151556970Y-101959329D01*
X151565235Y-101982428D01*
X151571196Y-102006227D01*
X151574796Y-102030495D01*
X151576000Y-102054999D01*
X151576000Y-102705001D01*
X151574796Y-102729505D01*
X151571196Y-102753773D01*
X151565235Y-102777572D01*
X151556970Y-102800671D01*
X151546480Y-102822850D01*
X151533868Y-102843893D01*
X151519253Y-102863599D01*
X151502777Y-102881777D01*
X151484599Y-102898253D01*
X151464893Y-102912868D01*
X151443850Y-102925480D01*
X151421671Y-102935970D01*
X151398572Y-102944235D01*
X151374773Y-102950196D01*
X151350505Y-102953796D01*
X151326001Y-102955000D01*
X150425999Y-102955000D01*
X150401495Y-102953796D01*
X150377227Y-102950196D01*
X150353428Y-102944235D01*
X150330329Y-102935970D01*
X150308150Y-102925480D01*
X150287107Y-102912868D01*
X150267401Y-102898253D01*
X150249223Y-102881777D01*
X150232747Y-102863599D01*
X150218132Y-102843893D01*
X150205520Y-102822850D01*
X150195030Y-102800671D01*
X150186765Y-102777572D01*
X150180804Y-102753773D01*
X150177204Y-102729505D01*
X150176000Y-102705001D01*
X150176000Y-102054999D01*
X150177204Y-102030495D01*
X150180804Y-102006227D01*
X150186765Y-101982428D01*
X150195030Y-101959329D01*
X150205520Y-101937150D01*
X150218132Y-101916107D01*
X150232747Y-101896401D01*
X150249223Y-101878223D01*
X150267401Y-101861747D01*
X150287107Y-101847132D01*
X150308150Y-101834520D01*
X150330329Y-101824030D01*
X150353428Y-101815765D01*
X150377227Y-101809804D01*
X150401495Y-101806204D01*
X150425999Y-101805000D01*
X151326001Y-101805000D01*
X151350505Y-101806204D01*
G37*
M02*
