G04 #@! TF.GenerationSoftware,KiCad,Pcbnew,5.1.5-52549c5~84~ubuntu18.04.1*
G04 #@! TF.CreationDate,2020-01-10T14:36:42+01:00*
G04 #@! TF.ProjectId,MCPB_R1,4d435042-5f52-4312-9e6b-696361645f70,rev?*
G04 #@! TF.SameCoordinates,Original*
G04 #@! TF.FileFunction,Soldermask,Top*
G04 #@! TF.FilePolarity,Negative*
%FSLAX46Y46*%
G04 Gerber Fmt 4.6, Leading zero omitted, Abs format (unit mm)*
G04 Created by KiCad (PCBNEW 5.1.5-52549c5~84~ubuntu18.04.1) date 2020-01-10 14:36:42*
%MOMM*%
%LPD*%
G04 APERTURE LIST*
%ADD10C,0.100000*%
G04 APERTURE END LIST*
D10*
G36*
X163449943Y-98666248D02*
G01*
X164005189Y-98896238D01*
X164005190Y-98896239D01*
X164504899Y-99230134D01*
X164929866Y-99655101D01*
X165091486Y-99896983D01*
X165263762Y-100154811D01*
X165493752Y-100710057D01*
X165611000Y-101299501D01*
X165611000Y-101900499D01*
X165493752Y-102489943D01*
X165263762Y-103045189D01*
X165173103Y-103180869D01*
X164929866Y-103544899D01*
X164504899Y-103969866D01*
X164253347Y-104137948D01*
X164005189Y-104303762D01*
X163449943Y-104533752D01*
X162860499Y-104651000D01*
X162259501Y-104651000D01*
X161670057Y-104533752D01*
X161114811Y-104303762D01*
X160866653Y-104137948D01*
X160615101Y-103969866D01*
X160190134Y-103544899D01*
X159946897Y-103180869D01*
X159856238Y-103045189D01*
X159626248Y-102489943D01*
X159509000Y-101900499D01*
X159509000Y-101299501D01*
X159626248Y-100710057D01*
X159856238Y-100154811D01*
X160028514Y-99896983D01*
X160190134Y-99655101D01*
X160615101Y-99230134D01*
X161114810Y-98896239D01*
X161114811Y-98896238D01*
X161670057Y-98666248D01*
X162259501Y-98549000D01*
X162860499Y-98549000D01*
X163449943Y-98666248D01*
G37*
G36*
X122809943Y-98666248D02*
G01*
X123365189Y-98896238D01*
X123365190Y-98896239D01*
X123864899Y-99230134D01*
X124289866Y-99655101D01*
X124451486Y-99896983D01*
X124623762Y-100154811D01*
X124853752Y-100710057D01*
X124971000Y-101299501D01*
X124971000Y-101900499D01*
X124853752Y-102489943D01*
X124623762Y-103045189D01*
X124533103Y-103180869D01*
X124289866Y-103544899D01*
X123864899Y-103969866D01*
X123613347Y-104137948D01*
X123365189Y-104303762D01*
X122809943Y-104533752D01*
X122220499Y-104651000D01*
X121619501Y-104651000D01*
X121030057Y-104533752D01*
X120474811Y-104303762D01*
X120226653Y-104137948D01*
X119975101Y-103969866D01*
X119550134Y-103544899D01*
X119306897Y-103180869D01*
X119216238Y-103045189D01*
X118986248Y-102489943D01*
X118869000Y-101900499D01*
X118869000Y-101299501D01*
X118986248Y-100710057D01*
X119216238Y-100154811D01*
X119388514Y-99896983D01*
X119550134Y-99655101D01*
X119975101Y-99230134D01*
X120474810Y-98896239D01*
X120474811Y-98896238D01*
X121030057Y-98666248D01*
X121619501Y-98549000D01*
X122220499Y-98549000D01*
X122809943Y-98666248D01*
G37*
G36*
X152845674Y-103139465D02*
G01*
X152883367Y-103150899D01*
X152918103Y-103169466D01*
X152948548Y-103194452D01*
X152973534Y-103224897D01*
X152992101Y-103259633D01*
X153003535Y-103297326D01*
X153008000Y-103342661D01*
X153008000Y-104429339D01*
X153003535Y-104474674D01*
X152992101Y-104512367D01*
X152973534Y-104547103D01*
X152948548Y-104577548D01*
X152918103Y-104602534D01*
X152883367Y-104621101D01*
X152845674Y-104632535D01*
X152800339Y-104637000D01*
X151963661Y-104637000D01*
X151918326Y-104632535D01*
X151880633Y-104621101D01*
X151845897Y-104602534D01*
X151815452Y-104577548D01*
X151790466Y-104547103D01*
X151771899Y-104512367D01*
X151760465Y-104474674D01*
X151756000Y-104429339D01*
X151756000Y-103342661D01*
X151760465Y-103297326D01*
X151771899Y-103259633D01*
X151790466Y-103224897D01*
X151815452Y-103194452D01*
X151845897Y-103169466D01*
X151880633Y-103150899D01*
X151918326Y-103139465D01*
X151963661Y-103135000D01*
X152800339Y-103135000D01*
X152845674Y-103139465D01*
G37*
G36*
X154895674Y-103139465D02*
G01*
X154933367Y-103150899D01*
X154968103Y-103169466D01*
X154998548Y-103194452D01*
X155023534Y-103224897D01*
X155042101Y-103259633D01*
X155053535Y-103297326D01*
X155058000Y-103342661D01*
X155058000Y-104429339D01*
X155053535Y-104474674D01*
X155042101Y-104512367D01*
X155023534Y-104547103D01*
X154998548Y-104577548D01*
X154968103Y-104602534D01*
X154933367Y-104621101D01*
X154895674Y-104632535D01*
X154850339Y-104637000D01*
X154013661Y-104637000D01*
X153968326Y-104632535D01*
X153930633Y-104621101D01*
X153895897Y-104602534D01*
X153865452Y-104577548D01*
X153840466Y-104547103D01*
X153821899Y-104512367D01*
X153810465Y-104474674D01*
X153806000Y-104429339D01*
X153806000Y-103342661D01*
X153810465Y-103297326D01*
X153821899Y-103259633D01*
X153840466Y-103224897D01*
X153865452Y-103194452D01*
X153895897Y-103169466D01*
X153930633Y-103150899D01*
X153968326Y-103139465D01*
X154013661Y-103135000D01*
X154850339Y-103135000D01*
X154895674Y-103139465D01*
G37*
G36*
X129718000Y-102413000D02*
G01*
X128092000Y-102413000D01*
X128092000Y-100787000D01*
X129718000Y-100787000D01*
X129718000Y-102413000D01*
G37*
G36*
X132258000Y-102413000D02*
G01*
X130632000Y-102413000D01*
X130632000Y-100787000D01*
X132258000Y-100787000D01*
X132258000Y-102413000D01*
G37*
G36*
X134798000Y-102413000D02*
G01*
X133172000Y-102413000D01*
X133172000Y-100787000D01*
X134798000Y-100787000D01*
X134798000Y-102413000D01*
G37*
G36*
X137338000Y-102413000D02*
G01*
X135712000Y-102413000D01*
X135712000Y-100787000D01*
X137338000Y-100787000D01*
X137338000Y-102413000D01*
G37*
G36*
X139878000Y-102413000D02*
G01*
X138252000Y-102413000D01*
X138252000Y-100787000D01*
X139878000Y-100787000D01*
X139878000Y-102413000D01*
G37*
G36*
X152845674Y-100853465D02*
G01*
X152883367Y-100864899D01*
X152918103Y-100883466D01*
X152948548Y-100908452D01*
X152973534Y-100938897D01*
X152992101Y-100973633D01*
X153003535Y-101011326D01*
X153008000Y-101056661D01*
X153008000Y-102143339D01*
X153003535Y-102188674D01*
X152992101Y-102226367D01*
X152973534Y-102261103D01*
X152948548Y-102291548D01*
X152918103Y-102316534D01*
X152883367Y-102335101D01*
X152845674Y-102346535D01*
X152800339Y-102351000D01*
X151963661Y-102351000D01*
X151918326Y-102346535D01*
X151880633Y-102335101D01*
X151845897Y-102316534D01*
X151815452Y-102291548D01*
X151790466Y-102261103D01*
X151771899Y-102226367D01*
X151760465Y-102188674D01*
X151756000Y-102143339D01*
X151756000Y-101056661D01*
X151760465Y-101011326D01*
X151771899Y-100973633D01*
X151790466Y-100938897D01*
X151815452Y-100908452D01*
X151845897Y-100883466D01*
X151880633Y-100864899D01*
X151918326Y-100853465D01*
X151963661Y-100849000D01*
X152800339Y-100849000D01*
X152845674Y-100853465D01*
G37*
G36*
X154895674Y-100853465D02*
G01*
X154933367Y-100864899D01*
X154968103Y-100883466D01*
X154998548Y-100908452D01*
X155023534Y-100938897D01*
X155042101Y-100973633D01*
X155053535Y-101011326D01*
X155058000Y-101056661D01*
X155058000Y-102143339D01*
X155053535Y-102188674D01*
X155042101Y-102226367D01*
X155023534Y-102261103D01*
X154998548Y-102291548D01*
X154968103Y-102316534D01*
X154933367Y-102335101D01*
X154895674Y-102346535D01*
X154850339Y-102351000D01*
X154013661Y-102351000D01*
X153968326Y-102346535D01*
X153930633Y-102335101D01*
X153895897Y-102316534D01*
X153865452Y-102291548D01*
X153840466Y-102261103D01*
X153821899Y-102226367D01*
X153810465Y-102188674D01*
X153806000Y-102143339D01*
X153806000Y-101056661D01*
X153810465Y-101011326D01*
X153821899Y-100973633D01*
X153840466Y-100938897D01*
X153865452Y-100908452D01*
X153895897Y-100883466D01*
X153930633Y-100864899D01*
X153968326Y-100853465D01*
X154013661Y-100849000D01*
X154850339Y-100849000D01*
X154895674Y-100853465D01*
G37*
G36*
X154904674Y-98567465D02*
G01*
X154942367Y-98578899D01*
X154977103Y-98597466D01*
X155007548Y-98622452D01*
X155032534Y-98652897D01*
X155051101Y-98687633D01*
X155062535Y-98725326D01*
X155067000Y-98770661D01*
X155067000Y-99857339D01*
X155062535Y-99902674D01*
X155051101Y-99940367D01*
X155032534Y-99975103D01*
X155007548Y-100005548D01*
X154977103Y-100030534D01*
X154942367Y-100049101D01*
X154904674Y-100060535D01*
X154859339Y-100065000D01*
X154022661Y-100065000D01*
X153977326Y-100060535D01*
X153939633Y-100049101D01*
X153904897Y-100030534D01*
X153874452Y-100005548D01*
X153849466Y-99975103D01*
X153830899Y-99940367D01*
X153819465Y-99902674D01*
X153815000Y-99857339D01*
X153815000Y-98770661D01*
X153819465Y-98725326D01*
X153830899Y-98687633D01*
X153849466Y-98652897D01*
X153874452Y-98622452D01*
X153904897Y-98597466D01*
X153939633Y-98578899D01*
X153977326Y-98567465D01*
X154022661Y-98563000D01*
X154859339Y-98563000D01*
X154904674Y-98567465D01*
G37*
G36*
X152854674Y-98567465D02*
G01*
X152892367Y-98578899D01*
X152927103Y-98597466D01*
X152957548Y-98622452D01*
X152982534Y-98652897D01*
X153001101Y-98687633D01*
X153012535Y-98725326D01*
X153017000Y-98770661D01*
X153017000Y-99857339D01*
X153012535Y-99902674D01*
X153001101Y-99940367D01*
X152982534Y-99975103D01*
X152957548Y-100005548D01*
X152927103Y-100030534D01*
X152892367Y-100049101D01*
X152854674Y-100060535D01*
X152809339Y-100065000D01*
X151972661Y-100065000D01*
X151927326Y-100060535D01*
X151889633Y-100049101D01*
X151854897Y-100030534D01*
X151824452Y-100005548D01*
X151799466Y-99975103D01*
X151780899Y-99940367D01*
X151769465Y-99902674D01*
X151765000Y-99857339D01*
X151765000Y-98770661D01*
X151769465Y-98725326D01*
X151780899Y-98687633D01*
X151799466Y-98652897D01*
X151824452Y-98622452D01*
X151854897Y-98597466D01*
X151889633Y-98578899D01*
X151927326Y-98567465D01*
X151972661Y-98563000D01*
X152809339Y-98563000D01*
X152854674Y-98567465D01*
G37*
G36*
X139878000Y-99873000D02*
G01*
X138252000Y-99873000D01*
X138252000Y-98247000D01*
X139878000Y-98247000D01*
X139878000Y-99873000D01*
G37*
G36*
X137338000Y-99873000D02*
G01*
X135712000Y-99873000D01*
X135712000Y-98247000D01*
X137338000Y-98247000D01*
X137338000Y-99873000D01*
G37*
G36*
X129718000Y-99873000D02*
G01*
X128092000Y-99873000D01*
X128092000Y-98247000D01*
X129718000Y-98247000D01*
X129718000Y-99873000D01*
G37*
G36*
X134798000Y-99873000D02*
G01*
X133172000Y-99873000D01*
X133172000Y-98247000D01*
X134798000Y-98247000D01*
X134798000Y-99873000D01*
G37*
G36*
X132258000Y-99873000D02*
G01*
X130632000Y-99873000D01*
X130632000Y-98247000D01*
X132258000Y-98247000D01*
X132258000Y-99873000D01*
G37*
M02*
