G04 #@! TF.GenerationSoftware,KiCad,Pcbnew,5.1.4-e60b266~84~ubuntu18.04.1*
G04 #@! TF.CreationDate,2019-09-18T23:31:40+02:00*
G04 #@! TF.ProjectId,PCB,5043422e-6b69-4636-9164-5f7063625858,rev?*
G04 #@! TF.SameCoordinates,Original*
G04 #@! TF.FileFunction,Soldermask,Top*
G04 #@! TF.FilePolarity,Negative*
%FSLAX46Y46*%
G04 Gerber Fmt 4.6, Leading zero omitted, Abs format (unit mm)*
G04 Created by KiCad (PCBNEW 5.1.4-e60b266~84~ubuntu18.04.1) date 2019-09-18 23:31:40*
%MOMM*%
%LPD*%
G04 APERTURE LIST*
%ADD10C,0.050000*%
%ADD11C,0.100000*%
G04 APERTURE END LIST*
D10*
X116840000Y-50800000D02*
X203200000Y-50800000D01*
X111760000Y-55880000D02*
G75*
G02X116840000Y-50800000I5080000J0D01*
G01*
X208280000Y-119380000D02*
X208280000Y-55880000D01*
X203200000Y-50800000D02*
G75*
G02X208280000Y-55880000I0J-5080000D01*
G01*
X111760000Y-119380000D02*
X111760000Y-55880000D01*
X116840000Y-124460000D02*
X203200000Y-124460000D01*
X116840000Y-124460000D02*
G75*
G02X111760000Y-119380000I0J5080000D01*
G01*
X208280000Y-119380000D02*
G75*
G02X203200000Y-124460000I-5080000J0D01*
G01*
D11*
G36*
X203834239Y-116331467D02*
G01*
X204148282Y-116393934D01*
X204739926Y-116639001D01*
X205272392Y-116994784D01*
X205725216Y-117447608D01*
X206080999Y-117980074D01*
X206326066Y-118571718D01*
X206329833Y-118590655D01*
X206451000Y-119199803D01*
X206451000Y-119840197D01*
X206388533Y-120154239D01*
X206326066Y-120468282D01*
X206080999Y-121059926D01*
X205725216Y-121592392D01*
X205272392Y-122045216D01*
X204739926Y-122400999D01*
X204148282Y-122646066D01*
X203834239Y-122708533D01*
X203520197Y-122771000D01*
X202879803Y-122771000D01*
X202565761Y-122708533D01*
X202251718Y-122646066D01*
X201660074Y-122400999D01*
X201127608Y-122045216D01*
X200674784Y-121592392D01*
X200319001Y-121059926D01*
X200073934Y-120468282D01*
X200011467Y-120154239D01*
X199949000Y-119840197D01*
X199949000Y-119199803D01*
X200070167Y-118590655D01*
X200073934Y-118571718D01*
X200319001Y-117980074D01*
X200674784Y-117447608D01*
X201127608Y-116994784D01*
X201660074Y-116639001D01*
X202251718Y-116393934D01*
X202565761Y-116331467D01*
X202879803Y-116269000D01*
X203520197Y-116269000D01*
X203834239Y-116331467D01*
X203834239Y-116331467D01*
G37*
G36*
X117474239Y-116191467D02*
G01*
X117788282Y-116253934D01*
X118379926Y-116499001D01*
X118912392Y-116854784D01*
X119365216Y-117307608D01*
X119720999Y-117840074D01*
X119966066Y-118431718D01*
X119997681Y-118590656D01*
X120091000Y-119059803D01*
X120091000Y-119700197D01*
X120047344Y-119919671D01*
X119966066Y-120328282D01*
X119720999Y-120919926D01*
X119365216Y-121452392D01*
X118912392Y-121905216D01*
X118379926Y-122260999D01*
X117788282Y-122506066D01*
X117474239Y-122568533D01*
X117160197Y-122631000D01*
X116519803Y-122631000D01*
X116205761Y-122568533D01*
X115891718Y-122506066D01*
X115300074Y-122260999D01*
X114767608Y-121905216D01*
X114314784Y-121452392D01*
X113959001Y-120919926D01*
X113713934Y-120328282D01*
X113632656Y-119919671D01*
X113589000Y-119700197D01*
X113589000Y-119059803D01*
X113682319Y-118590656D01*
X113713934Y-118431718D01*
X113959001Y-117840074D01*
X114314784Y-117307608D01*
X114767608Y-116854784D01*
X115300074Y-116499001D01*
X115891718Y-116253934D01*
X116205761Y-116191467D01*
X116519803Y-116129000D01*
X117160197Y-116129000D01*
X117474239Y-116191467D01*
X117474239Y-116191467D01*
G37*
G36*
X132157022Y-117840590D02*
G01*
X132245284Y-117867364D01*
X132308012Y-117886392D01*
X132435424Y-117954496D01*
X132447164Y-117960771D01*
X132569133Y-118060867D01*
X132609816Y-118110440D01*
X132669229Y-118182835D01*
X132743608Y-118321987D01*
X132758875Y-118372318D01*
X132789410Y-118472977D01*
X132801000Y-118590655D01*
X132801000Y-120169345D01*
X132789410Y-120287023D01*
X132776894Y-120328282D01*
X132743608Y-120438013D01*
X132669229Y-120577165D01*
X132569133Y-120699133D01*
X132447165Y-120799229D01*
X132308013Y-120873608D01*
X132257682Y-120888875D01*
X132157023Y-120919410D01*
X132000000Y-120934875D01*
X131842978Y-120919410D01*
X131742319Y-120888875D01*
X131691988Y-120873608D01*
X131552836Y-120799229D01*
X131430868Y-120699133D01*
X131330772Y-120577165D01*
X131256393Y-120438013D01*
X131223107Y-120328282D01*
X131210591Y-120287023D01*
X131199001Y-120169345D01*
X131199000Y-118590656D01*
X131210590Y-118472978D01*
X131256392Y-118321989D01*
X131256392Y-118321988D01*
X131330771Y-118182836D01*
X131385119Y-118116612D01*
X131430867Y-118060867D01*
X131552835Y-117960771D01*
X131564575Y-117954496D01*
X131691987Y-117886392D01*
X131754715Y-117867364D01*
X131842977Y-117840590D01*
X132000000Y-117825125D01*
X132157022Y-117840590D01*
X132157022Y-117840590D01*
G37*
G36*
X157557022Y-117840590D02*
G01*
X157645284Y-117867364D01*
X157708012Y-117886392D01*
X157835424Y-117954496D01*
X157847164Y-117960771D01*
X157969133Y-118060867D01*
X158009816Y-118110440D01*
X158069229Y-118182835D01*
X158143608Y-118321987D01*
X158158875Y-118372318D01*
X158189410Y-118472977D01*
X158201000Y-118590655D01*
X158201000Y-120169345D01*
X158189410Y-120287023D01*
X158176894Y-120328282D01*
X158143608Y-120438013D01*
X158069229Y-120577165D01*
X157969133Y-120699133D01*
X157847165Y-120799229D01*
X157708013Y-120873608D01*
X157657682Y-120888875D01*
X157557023Y-120919410D01*
X157400000Y-120934875D01*
X157242978Y-120919410D01*
X157142319Y-120888875D01*
X157091988Y-120873608D01*
X156952836Y-120799229D01*
X156830868Y-120699133D01*
X156730772Y-120577165D01*
X156656393Y-120438013D01*
X156623107Y-120328282D01*
X156610591Y-120287023D01*
X156599001Y-120169345D01*
X156599000Y-118590656D01*
X156610590Y-118472978D01*
X156656392Y-118321989D01*
X156656392Y-118321988D01*
X156730771Y-118182836D01*
X156785119Y-118116612D01*
X156830867Y-118060867D01*
X156952835Y-117960771D01*
X156964575Y-117954496D01*
X157091987Y-117886392D01*
X157154715Y-117867364D01*
X157242977Y-117840590D01*
X157400000Y-117825125D01*
X157557022Y-117840590D01*
X157557022Y-117840590D01*
G37*
G36*
X142157022Y-117840590D02*
G01*
X142245284Y-117867364D01*
X142308012Y-117886392D01*
X142435424Y-117954496D01*
X142447164Y-117960771D01*
X142569133Y-118060867D01*
X142609816Y-118110440D01*
X142669229Y-118182835D01*
X142743608Y-118321987D01*
X142758875Y-118372318D01*
X142789410Y-118472977D01*
X142801000Y-118590655D01*
X142801000Y-120169345D01*
X142789410Y-120287023D01*
X142776894Y-120328282D01*
X142743608Y-120438013D01*
X142669229Y-120577165D01*
X142569133Y-120699133D01*
X142447165Y-120799229D01*
X142308013Y-120873608D01*
X142257682Y-120888875D01*
X142157023Y-120919410D01*
X142000000Y-120934875D01*
X141842978Y-120919410D01*
X141742319Y-120888875D01*
X141691988Y-120873608D01*
X141552836Y-120799229D01*
X141430868Y-120699133D01*
X141330772Y-120577165D01*
X141256393Y-120438013D01*
X141223107Y-120328282D01*
X141210591Y-120287023D01*
X141199001Y-120169345D01*
X141199000Y-118590656D01*
X141210590Y-118472978D01*
X141256392Y-118321989D01*
X141256392Y-118321988D01*
X141330771Y-118182836D01*
X141385119Y-118116612D01*
X141430867Y-118060867D01*
X141552835Y-117960771D01*
X141564575Y-117954496D01*
X141691987Y-117886392D01*
X141754715Y-117867364D01*
X141842977Y-117840590D01*
X142000000Y-117825125D01*
X142157022Y-117840590D01*
X142157022Y-117840590D01*
G37*
G36*
X137157022Y-117840590D02*
G01*
X137245284Y-117867364D01*
X137308012Y-117886392D01*
X137435424Y-117954496D01*
X137447164Y-117960771D01*
X137569133Y-118060867D01*
X137609816Y-118110440D01*
X137669229Y-118182835D01*
X137743608Y-118321987D01*
X137758875Y-118372318D01*
X137789410Y-118472977D01*
X137801000Y-118590655D01*
X137801000Y-120169345D01*
X137789410Y-120287023D01*
X137776894Y-120328282D01*
X137743608Y-120438013D01*
X137669229Y-120577165D01*
X137569133Y-120699133D01*
X137447165Y-120799229D01*
X137308013Y-120873608D01*
X137257682Y-120888875D01*
X137157023Y-120919410D01*
X137000000Y-120934875D01*
X136842978Y-120919410D01*
X136742319Y-120888875D01*
X136691988Y-120873608D01*
X136552836Y-120799229D01*
X136430868Y-120699133D01*
X136330772Y-120577165D01*
X136256393Y-120438013D01*
X136223107Y-120328282D01*
X136210591Y-120287023D01*
X136199001Y-120169345D01*
X136199000Y-118590656D01*
X136210590Y-118472978D01*
X136256392Y-118321989D01*
X136256392Y-118321988D01*
X136330771Y-118182836D01*
X136385119Y-118116612D01*
X136430867Y-118060867D01*
X136552835Y-117960771D01*
X136564575Y-117954496D01*
X136691987Y-117886392D01*
X136754715Y-117867364D01*
X136842977Y-117840590D01*
X137000000Y-117825125D01*
X137157022Y-117840590D01*
X137157022Y-117840590D01*
G37*
G36*
X167557022Y-117840590D02*
G01*
X167645284Y-117867364D01*
X167708012Y-117886392D01*
X167835424Y-117954496D01*
X167847164Y-117960771D01*
X167969133Y-118060867D01*
X168009816Y-118110440D01*
X168069229Y-118182835D01*
X168143608Y-118321987D01*
X168158875Y-118372318D01*
X168189410Y-118472977D01*
X168201000Y-118590655D01*
X168201000Y-120169345D01*
X168189410Y-120287023D01*
X168176894Y-120328282D01*
X168143608Y-120438013D01*
X168069229Y-120577165D01*
X167969133Y-120699133D01*
X167847165Y-120799229D01*
X167708013Y-120873608D01*
X167657682Y-120888875D01*
X167557023Y-120919410D01*
X167400000Y-120934875D01*
X167242978Y-120919410D01*
X167142319Y-120888875D01*
X167091988Y-120873608D01*
X166952836Y-120799229D01*
X166830868Y-120699133D01*
X166730772Y-120577165D01*
X166656393Y-120438013D01*
X166623107Y-120328282D01*
X166610591Y-120287023D01*
X166599001Y-120169345D01*
X166599000Y-118590656D01*
X166610590Y-118472978D01*
X166656392Y-118321989D01*
X166656392Y-118321988D01*
X166730771Y-118182836D01*
X166785119Y-118116612D01*
X166830867Y-118060867D01*
X166952835Y-117960771D01*
X166964575Y-117954496D01*
X167091987Y-117886392D01*
X167154715Y-117867364D01*
X167242977Y-117840590D01*
X167400000Y-117825125D01*
X167557022Y-117840590D01*
X167557022Y-117840590D01*
G37*
G36*
X192957022Y-117840590D02*
G01*
X193045284Y-117867364D01*
X193108012Y-117886392D01*
X193235424Y-117954496D01*
X193247164Y-117960771D01*
X193369133Y-118060867D01*
X193409816Y-118110440D01*
X193469229Y-118182835D01*
X193543608Y-118321987D01*
X193558875Y-118372318D01*
X193589410Y-118472977D01*
X193601000Y-118590655D01*
X193601000Y-120169345D01*
X193589410Y-120287023D01*
X193576894Y-120328282D01*
X193543608Y-120438013D01*
X193469229Y-120577165D01*
X193369133Y-120699133D01*
X193247165Y-120799229D01*
X193108013Y-120873608D01*
X193057682Y-120888875D01*
X192957023Y-120919410D01*
X192800000Y-120934875D01*
X192642978Y-120919410D01*
X192542319Y-120888875D01*
X192491988Y-120873608D01*
X192352836Y-120799229D01*
X192230868Y-120699133D01*
X192130772Y-120577165D01*
X192056393Y-120438013D01*
X192023107Y-120328282D01*
X192010591Y-120287023D01*
X191999001Y-120169345D01*
X191999000Y-118590656D01*
X192010590Y-118472978D01*
X192056392Y-118321989D01*
X192056392Y-118321988D01*
X192130771Y-118182836D01*
X192185119Y-118116612D01*
X192230867Y-118060867D01*
X192352835Y-117960771D01*
X192364575Y-117954496D01*
X192491987Y-117886392D01*
X192554715Y-117867364D01*
X192642977Y-117840590D01*
X192800000Y-117825125D01*
X192957022Y-117840590D01*
X192957022Y-117840590D01*
G37*
G36*
X187957022Y-117840590D02*
G01*
X188045284Y-117867364D01*
X188108012Y-117886392D01*
X188235424Y-117954496D01*
X188247164Y-117960771D01*
X188369133Y-118060867D01*
X188409816Y-118110440D01*
X188469229Y-118182835D01*
X188543608Y-118321987D01*
X188558875Y-118372318D01*
X188589410Y-118472977D01*
X188601000Y-118590655D01*
X188601000Y-120169345D01*
X188589410Y-120287023D01*
X188576894Y-120328282D01*
X188543608Y-120438013D01*
X188469229Y-120577165D01*
X188369133Y-120699133D01*
X188247165Y-120799229D01*
X188108013Y-120873608D01*
X188057682Y-120888875D01*
X187957023Y-120919410D01*
X187800000Y-120934875D01*
X187642978Y-120919410D01*
X187542319Y-120888875D01*
X187491988Y-120873608D01*
X187352836Y-120799229D01*
X187230868Y-120699133D01*
X187130772Y-120577165D01*
X187056393Y-120438013D01*
X187023107Y-120328282D01*
X187010591Y-120287023D01*
X186999001Y-120169345D01*
X186999000Y-118590656D01*
X187010590Y-118472978D01*
X187056392Y-118321989D01*
X187056392Y-118321988D01*
X187130771Y-118182836D01*
X187185119Y-118116612D01*
X187230867Y-118060867D01*
X187352835Y-117960771D01*
X187364575Y-117954496D01*
X187491987Y-117886392D01*
X187554715Y-117867364D01*
X187642977Y-117840590D01*
X187800000Y-117825125D01*
X187957022Y-117840590D01*
X187957022Y-117840590D01*
G37*
G36*
X182957022Y-117840590D02*
G01*
X183045284Y-117867364D01*
X183108012Y-117886392D01*
X183235424Y-117954496D01*
X183247164Y-117960771D01*
X183369133Y-118060867D01*
X183409816Y-118110440D01*
X183469229Y-118182835D01*
X183543608Y-118321987D01*
X183558875Y-118372318D01*
X183589410Y-118472977D01*
X183601000Y-118590655D01*
X183601000Y-120169345D01*
X183589410Y-120287023D01*
X183576894Y-120328282D01*
X183543608Y-120438013D01*
X183469229Y-120577165D01*
X183369133Y-120699133D01*
X183247165Y-120799229D01*
X183108013Y-120873608D01*
X183057682Y-120888875D01*
X182957023Y-120919410D01*
X182800000Y-120934875D01*
X182642978Y-120919410D01*
X182542319Y-120888875D01*
X182491988Y-120873608D01*
X182352836Y-120799229D01*
X182230868Y-120699133D01*
X182130772Y-120577165D01*
X182056393Y-120438013D01*
X182023107Y-120328282D01*
X182010591Y-120287023D01*
X181999001Y-120169345D01*
X181999000Y-118590656D01*
X182010590Y-118472978D01*
X182056392Y-118321989D01*
X182056392Y-118321988D01*
X182130771Y-118182836D01*
X182185119Y-118116612D01*
X182230867Y-118060867D01*
X182352835Y-117960771D01*
X182364575Y-117954496D01*
X182491987Y-117886392D01*
X182554715Y-117867364D01*
X182642977Y-117840590D01*
X182800000Y-117825125D01*
X182957022Y-117840590D01*
X182957022Y-117840590D01*
G37*
G36*
X162557022Y-117840590D02*
G01*
X162645284Y-117867364D01*
X162708012Y-117886392D01*
X162835424Y-117954496D01*
X162847164Y-117960771D01*
X162969133Y-118060867D01*
X163009816Y-118110440D01*
X163069229Y-118182835D01*
X163143608Y-118321987D01*
X163158875Y-118372318D01*
X163189410Y-118472977D01*
X163201000Y-118590655D01*
X163201000Y-120169345D01*
X163189410Y-120287023D01*
X163176894Y-120328282D01*
X163143608Y-120438013D01*
X163069229Y-120577165D01*
X162969133Y-120699133D01*
X162847165Y-120799229D01*
X162708013Y-120873608D01*
X162657682Y-120888875D01*
X162557023Y-120919410D01*
X162400000Y-120934875D01*
X162242978Y-120919410D01*
X162142319Y-120888875D01*
X162091988Y-120873608D01*
X161952836Y-120799229D01*
X161830868Y-120699133D01*
X161730772Y-120577165D01*
X161656393Y-120438013D01*
X161623107Y-120328282D01*
X161610591Y-120287023D01*
X161599001Y-120169345D01*
X161599000Y-118590656D01*
X161610590Y-118472978D01*
X161656392Y-118321989D01*
X161656392Y-118321988D01*
X161730771Y-118182836D01*
X161785119Y-118116612D01*
X161830867Y-118060867D01*
X161952835Y-117960771D01*
X161964575Y-117954496D01*
X162091987Y-117886392D01*
X162154715Y-117867364D01*
X162242977Y-117840590D01*
X162400000Y-117825125D01*
X162557022Y-117840590D01*
X162557022Y-117840590D01*
G37*
G36*
X178601000Y-120931000D02*
G01*
X176999000Y-120931000D01*
X176999000Y-117829000D01*
X178601000Y-117829000D01*
X178601000Y-120931000D01*
X178601000Y-120931000D01*
G37*
G36*
X127801000Y-120931000D02*
G01*
X126199000Y-120931000D01*
X126199000Y-117829000D01*
X127801000Y-117829000D01*
X127801000Y-120931000D01*
X127801000Y-120931000D01*
G37*
G36*
X153201000Y-120931000D02*
G01*
X151599000Y-120931000D01*
X151599000Y-117829000D01*
X153201000Y-117829000D01*
X153201000Y-120931000D01*
X153201000Y-120931000D01*
G37*
G36*
X132157022Y-112840590D02*
G01*
X132257681Y-112871125D01*
X132308012Y-112886392D01*
X132447164Y-112960771D01*
X132569133Y-113060867D01*
X132669229Y-113182835D01*
X132743608Y-113321987D01*
X132758875Y-113372318D01*
X132789410Y-113472977D01*
X132801000Y-113590655D01*
X132801000Y-115169345D01*
X132789410Y-115287023D01*
X132758875Y-115387682D01*
X132743608Y-115438013D01*
X132669229Y-115577165D01*
X132569133Y-115699133D01*
X132447165Y-115799229D01*
X132308013Y-115873608D01*
X132257682Y-115888875D01*
X132157023Y-115919410D01*
X132000000Y-115934875D01*
X131842978Y-115919410D01*
X131742319Y-115888875D01*
X131691988Y-115873608D01*
X131552836Y-115799229D01*
X131430868Y-115699133D01*
X131330772Y-115577165D01*
X131256393Y-115438013D01*
X131241126Y-115387682D01*
X131210591Y-115287023D01*
X131199001Y-115169345D01*
X131199000Y-113590656D01*
X131210590Y-113472978D01*
X131256392Y-113321989D01*
X131256392Y-113321988D01*
X131330771Y-113182836D01*
X131330772Y-113182835D01*
X131430867Y-113060867D01*
X131552835Y-112960771D01*
X131691987Y-112886392D01*
X131742318Y-112871125D01*
X131842977Y-112840590D01*
X132000000Y-112825125D01*
X132157022Y-112840590D01*
X132157022Y-112840590D01*
G37*
G36*
X192957022Y-112840590D02*
G01*
X193057681Y-112871125D01*
X193108012Y-112886392D01*
X193247164Y-112960771D01*
X193369133Y-113060867D01*
X193469229Y-113182835D01*
X193543608Y-113321987D01*
X193558875Y-113372318D01*
X193589410Y-113472977D01*
X193601000Y-113590655D01*
X193601000Y-115169345D01*
X193589410Y-115287023D01*
X193558875Y-115387682D01*
X193543608Y-115438013D01*
X193469229Y-115577165D01*
X193369133Y-115699133D01*
X193247165Y-115799229D01*
X193108013Y-115873608D01*
X193057682Y-115888875D01*
X192957023Y-115919410D01*
X192800000Y-115934875D01*
X192642978Y-115919410D01*
X192542319Y-115888875D01*
X192491988Y-115873608D01*
X192352836Y-115799229D01*
X192230868Y-115699133D01*
X192130772Y-115577165D01*
X192056393Y-115438013D01*
X192041126Y-115387682D01*
X192010591Y-115287023D01*
X191999001Y-115169345D01*
X191999000Y-113590656D01*
X192010590Y-113472978D01*
X192056392Y-113321989D01*
X192056392Y-113321988D01*
X192130771Y-113182836D01*
X192130772Y-113182835D01*
X192230867Y-113060867D01*
X192352835Y-112960771D01*
X192491987Y-112886392D01*
X192542318Y-112871125D01*
X192642977Y-112840590D01*
X192800000Y-112825125D01*
X192957022Y-112840590D01*
X192957022Y-112840590D01*
G37*
G36*
X187957022Y-112840590D02*
G01*
X188057681Y-112871125D01*
X188108012Y-112886392D01*
X188247164Y-112960771D01*
X188369133Y-113060867D01*
X188469229Y-113182835D01*
X188543608Y-113321987D01*
X188558875Y-113372318D01*
X188589410Y-113472977D01*
X188601000Y-113590655D01*
X188601000Y-115169345D01*
X188589410Y-115287023D01*
X188558875Y-115387682D01*
X188543608Y-115438013D01*
X188469229Y-115577165D01*
X188369133Y-115699133D01*
X188247165Y-115799229D01*
X188108013Y-115873608D01*
X188057682Y-115888875D01*
X187957023Y-115919410D01*
X187800000Y-115934875D01*
X187642978Y-115919410D01*
X187542319Y-115888875D01*
X187491988Y-115873608D01*
X187352836Y-115799229D01*
X187230868Y-115699133D01*
X187130772Y-115577165D01*
X187056393Y-115438013D01*
X187041126Y-115387682D01*
X187010591Y-115287023D01*
X186999001Y-115169345D01*
X186999000Y-113590656D01*
X187010590Y-113472978D01*
X187056392Y-113321989D01*
X187056392Y-113321988D01*
X187130771Y-113182836D01*
X187130772Y-113182835D01*
X187230867Y-113060867D01*
X187352835Y-112960771D01*
X187491987Y-112886392D01*
X187542318Y-112871125D01*
X187642977Y-112840590D01*
X187800000Y-112825125D01*
X187957022Y-112840590D01*
X187957022Y-112840590D01*
G37*
G36*
X182957022Y-112840590D02*
G01*
X183057681Y-112871125D01*
X183108012Y-112886392D01*
X183247164Y-112960771D01*
X183369133Y-113060867D01*
X183469229Y-113182835D01*
X183543608Y-113321987D01*
X183558875Y-113372318D01*
X183589410Y-113472977D01*
X183601000Y-113590655D01*
X183601000Y-115169345D01*
X183589410Y-115287023D01*
X183558875Y-115387682D01*
X183543608Y-115438013D01*
X183469229Y-115577165D01*
X183369133Y-115699133D01*
X183247165Y-115799229D01*
X183108013Y-115873608D01*
X183057682Y-115888875D01*
X182957023Y-115919410D01*
X182800000Y-115934875D01*
X182642978Y-115919410D01*
X182542319Y-115888875D01*
X182491988Y-115873608D01*
X182352836Y-115799229D01*
X182230868Y-115699133D01*
X182130772Y-115577165D01*
X182056393Y-115438013D01*
X182041126Y-115387682D01*
X182010591Y-115287023D01*
X181999001Y-115169345D01*
X181999000Y-113590656D01*
X182010590Y-113472978D01*
X182056392Y-113321989D01*
X182056392Y-113321988D01*
X182130771Y-113182836D01*
X182130772Y-113182835D01*
X182230867Y-113060867D01*
X182352835Y-112960771D01*
X182491987Y-112886392D01*
X182542318Y-112871125D01*
X182642977Y-112840590D01*
X182800000Y-112825125D01*
X182957022Y-112840590D01*
X182957022Y-112840590D01*
G37*
G36*
X162557022Y-112840590D02*
G01*
X162657681Y-112871125D01*
X162708012Y-112886392D01*
X162847164Y-112960771D01*
X162969133Y-113060867D01*
X163069229Y-113182835D01*
X163143608Y-113321987D01*
X163158875Y-113372318D01*
X163189410Y-113472977D01*
X163201000Y-113590655D01*
X163201000Y-115169345D01*
X163189410Y-115287023D01*
X163158875Y-115387682D01*
X163143608Y-115438013D01*
X163069229Y-115577165D01*
X162969133Y-115699133D01*
X162847165Y-115799229D01*
X162708013Y-115873608D01*
X162657682Y-115888875D01*
X162557023Y-115919410D01*
X162400000Y-115934875D01*
X162242978Y-115919410D01*
X162142319Y-115888875D01*
X162091988Y-115873608D01*
X161952836Y-115799229D01*
X161830868Y-115699133D01*
X161730772Y-115577165D01*
X161656393Y-115438013D01*
X161641126Y-115387682D01*
X161610591Y-115287023D01*
X161599001Y-115169345D01*
X161599000Y-113590656D01*
X161610590Y-113472978D01*
X161656392Y-113321989D01*
X161656392Y-113321988D01*
X161730771Y-113182836D01*
X161730772Y-113182835D01*
X161830867Y-113060867D01*
X161952835Y-112960771D01*
X162091987Y-112886392D01*
X162142318Y-112871125D01*
X162242977Y-112840590D01*
X162400000Y-112825125D01*
X162557022Y-112840590D01*
X162557022Y-112840590D01*
G37*
G36*
X157557022Y-112840590D02*
G01*
X157657681Y-112871125D01*
X157708012Y-112886392D01*
X157847164Y-112960771D01*
X157969133Y-113060867D01*
X158069229Y-113182835D01*
X158143608Y-113321987D01*
X158158875Y-113372318D01*
X158189410Y-113472977D01*
X158201000Y-113590655D01*
X158201000Y-115169345D01*
X158189410Y-115287023D01*
X158158875Y-115387682D01*
X158143608Y-115438013D01*
X158069229Y-115577165D01*
X157969133Y-115699133D01*
X157847165Y-115799229D01*
X157708013Y-115873608D01*
X157657682Y-115888875D01*
X157557023Y-115919410D01*
X157400000Y-115934875D01*
X157242978Y-115919410D01*
X157142319Y-115888875D01*
X157091988Y-115873608D01*
X156952836Y-115799229D01*
X156830868Y-115699133D01*
X156730772Y-115577165D01*
X156656393Y-115438013D01*
X156641126Y-115387682D01*
X156610591Y-115287023D01*
X156599001Y-115169345D01*
X156599000Y-113590656D01*
X156610590Y-113472978D01*
X156656392Y-113321989D01*
X156656392Y-113321988D01*
X156730771Y-113182836D01*
X156730772Y-113182835D01*
X156830867Y-113060867D01*
X156952835Y-112960771D01*
X157091987Y-112886392D01*
X157142318Y-112871125D01*
X157242977Y-112840590D01*
X157400000Y-112825125D01*
X157557022Y-112840590D01*
X157557022Y-112840590D01*
G37*
G36*
X137157022Y-112840590D02*
G01*
X137257681Y-112871125D01*
X137308012Y-112886392D01*
X137447164Y-112960771D01*
X137569133Y-113060867D01*
X137669229Y-113182835D01*
X137743608Y-113321987D01*
X137758875Y-113372318D01*
X137789410Y-113472977D01*
X137801000Y-113590655D01*
X137801000Y-115169345D01*
X137789410Y-115287023D01*
X137758875Y-115387682D01*
X137743608Y-115438013D01*
X137669229Y-115577165D01*
X137569133Y-115699133D01*
X137447165Y-115799229D01*
X137308013Y-115873608D01*
X137257682Y-115888875D01*
X137157023Y-115919410D01*
X137000000Y-115934875D01*
X136842978Y-115919410D01*
X136742319Y-115888875D01*
X136691988Y-115873608D01*
X136552836Y-115799229D01*
X136430868Y-115699133D01*
X136330772Y-115577165D01*
X136256393Y-115438013D01*
X136241126Y-115387682D01*
X136210591Y-115287023D01*
X136199001Y-115169345D01*
X136199000Y-113590656D01*
X136210590Y-113472978D01*
X136256392Y-113321989D01*
X136256392Y-113321988D01*
X136330771Y-113182836D01*
X136330772Y-113182835D01*
X136430867Y-113060867D01*
X136552835Y-112960771D01*
X136691987Y-112886392D01*
X136742318Y-112871125D01*
X136842977Y-112840590D01*
X137000000Y-112825125D01*
X137157022Y-112840590D01*
X137157022Y-112840590D01*
G37*
G36*
X142157022Y-112840590D02*
G01*
X142257681Y-112871125D01*
X142308012Y-112886392D01*
X142447164Y-112960771D01*
X142569133Y-113060867D01*
X142669229Y-113182835D01*
X142743608Y-113321987D01*
X142758875Y-113372318D01*
X142789410Y-113472977D01*
X142801000Y-113590655D01*
X142801000Y-115169345D01*
X142789410Y-115287023D01*
X142758875Y-115387682D01*
X142743608Y-115438013D01*
X142669229Y-115577165D01*
X142569133Y-115699133D01*
X142447165Y-115799229D01*
X142308013Y-115873608D01*
X142257682Y-115888875D01*
X142157023Y-115919410D01*
X142000000Y-115934875D01*
X141842978Y-115919410D01*
X141742319Y-115888875D01*
X141691988Y-115873608D01*
X141552836Y-115799229D01*
X141430868Y-115699133D01*
X141330772Y-115577165D01*
X141256393Y-115438013D01*
X141241126Y-115387682D01*
X141210591Y-115287023D01*
X141199001Y-115169345D01*
X141199000Y-113590656D01*
X141210590Y-113472978D01*
X141256392Y-113321989D01*
X141256392Y-113321988D01*
X141330771Y-113182836D01*
X141330772Y-113182835D01*
X141430867Y-113060867D01*
X141552835Y-112960771D01*
X141691987Y-112886392D01*
X141742318Y-112871125D01*
X141842977Y-112840590D01*
X142000000Y-112825125D01*
X142157022Y-112840590D01*
X142157022Y-112840590D01*
G37*
G36*
X167557022Y-112840590D02*
G01*
X167657681Y-112871125D01*
X167708012Y-112886392D01*
X167847164Y-112960771D01*
X167969133Y-113060867D01*
X168069229Y-113182835D01*
X168143608Y-113321987D01*
X168158875Y-113372318D01*
X168189410Y-113472977D01*
X168201000Y-113590655D01*
X168201000Y-115169345D01*
X168189410Y-115287023D01*
X168158875Y-115387682D01*
X168143608Y-115438013D01*
X168069229Y-115577165D01*
X167969133Y-115699133D01*
X167847165Y-115799229D01*
X167708013Y-115873608D01*
X167657682Y-115888875D01*
X167557023Y-115919410D01*
X167400000Y-115934875D01*
X167242978Y-115919410D01*
X167142319Y-115888875D01*
X167091988Y-115873608D01*
X166952836Y-115799229D01*
X166830868Y-115699133D01*
X166730772Y-115577165D01*
X166656393Y-115438013D01*
X166641126Y-115387682D01*
X166610591Y-115287023D01*
X166599001Y-115169345D01*
X166599000Y-113590656D01*
X166610590Y-113472978D01*
X166656392Y-113321989D01*
X166656392Y-113321988D01*
X166730771Y-113182836D01*
X166730772Y-113182835D01*
X166830867Y-113060867D01*
X166952835Y-112960771D01*
X167091987Y-112886392D01*
X167142318Y-112871125D01*
X167242977Y-112840590D01*
X167400000Y-112825125D01*
X167557022Y-112840590D01*
X167557022Y-112840590D01*
G37*
G36*
X127801000Y-115931000D02*
G01*
X126199000Y-115931000D01*
X126199000Y-112829000D01*
X127801000Y-112829000D01*
X127801000Y-115931000D01*
X127801000Y-115931000D01*
G37*
G36*
X153201000Y-115931000D02*
G01*
X151599000Y-115931000D01*
X151599000Y-112829000D01*
X153201000Y-112829000D01*
X153201000Y-115931000D01*
X153201000Y-115931000D01*
G37*
G36*
X178601000Y-115931000D02*
G01*
X176999000Y-115931000D01*
X176999000Y-112829000D01*
X178601000Y-112829000D01*
X178601000Y-115931000D01*
X178601000Y-115931000D01*
G37*
G36*
X200770443Y-108325519D02*
G01*
X200836627Y-108332037D01*
X201006466Y-108383557D01*
X201162991Y-108467222D01*
X201198729Y-108496552D01*
X201300186Y-108579814D01*
X201383448Y-108681271D01*
X201412778Y-108717009D01*
X201496443Y-108873534D01*
X201547963Y-109043373D01*
X201565359Y-109220000D01*
X201547963Y-109396627D01*
X201496443Y-109566466D01*
X201412778Y-109722991D01*
X201383448Y-109758729D01*
X201300186Y-109860186D01*
X201198729Y-109943448D01*
X201162991Y-109972778D01*
X201006466Y-110056443D01*
X200836627Y-110107963D01*
X200770443Y-110114481D01*
X200704260Y-110121000D01*
X200615740Y-110121000D01*
X200549557Y-110114481D01*
X200483373Y-110107963D01*
X200313534Y-110056443D01*
X200157009Y-109972778D01*
X200121271Y-109943448D01*
X200019814Y-109860186D01*
X199936552Y-109758729D01*
X199907222Y-109722991D01*
X199823557Y-109566466D01*
X199772037Y-109396627D01*
X199754641Y-109220000D01*
X199772037Y-109043373D01*
X199823557Y-108873534D01*
X199907222Y-108717009D01*
X199936552Y-108681271D01*
X200019814Y-108579814D01*
X200121271Y-108496552D01*
X200157009Y-108467222D01*
X200313534Y-108383557D01*
X200483373Y-108332037D01*
X200549557Y-108325519D01*
X200615740Y-108319000D01*
X200704260Y-108319000D01*
X200770443Y-108325519D01*
X200770443Y-108325519D01*
G37*
G36*
X200770443Y-105785519D02*
G01*
X200836627Y-105792037D01*
X201006466Y-105843557D01*
X201162991Y-105927222D01*
X201198729Y-105956552D01*
X201300186Y-106039814D01*
X201383448Y-106141271D01*
X201412778Y-106177009D01*
X201496443Y-106333534D01*
X201547963Y-106503373D01*
X201565359Y-106680000D01*
X201547963Y-106856627D01*
X201496443Y-107026466D01*
X201412778Y-107182991D01*
X201383448Y-107218729D01*
X201300186Y-107320186D01*
X201198729Y-107403448D01*
X201162991Y-107432778D01*
X201006466Y-107516443D01*
X200836627Y-107567963D01*
X200770443Y-107574481D01*
X200704260Y-107581000D01*
X200615740Y-107581000D01*
X200549557Y-107574481D01*
X200483373Y-107567963D01*
X200313534Y-107516443D01*
X200157009Y-107432778D01*
X200121271Y-107403448D01*
X200019814Y-107320186D01*
X199936552Y-107218729D01*
X199907222Y-107182991D01*
X199823557Y-107026466D01*
X199772037Y-106856627D01*
X199754641Y-106680000D01*
X199772037Y-106503373D01*
X199823557Y-106333534D01*
X199907222Y-106177009D01*
X199936552Y-106141271D01*
X200019814Y-106039814D01*
X200121271Y-105956552D01*
X200157009Y-105927222D01*
X200313534Y-105843557D01*
X200483373Y-105792037D01*
X200549557Y-105785519D01*
X200615740Y-105779000D01*
X200704260Y-105779000D01*
X200770443Y-105785519D01*
X200770443Y-105785519D01*
G37*
G36*
X127196719Y-103103520D02*
G01*
X127385880Y-103160901D01*
X127385883Y-103160902D01*
X127478333Y-103210318D01*
X127560212Y-103254083D01*
X127713015Y-103379485D01*
X127838417Y-103532288D01*
X127931599Y-103706619D01*
X127988980Y-103895780D01*
X128003500Y-104043206D01*
X128003500Y-104236793D01*
X127988980Y-104384219D01*
X127931599Y-104573380D01*
X127931598Y-104573383D01*
X127882182Y-104665833D01*
X127838417Y-104747712D01*
X127713015Y-104900515D01*
X127560212Y-105025917D01*
X127385881Y-105119099D01*
X127196720Y-105176480D01*
X127000000Y-105195855D01*
X126803281Y-105176480D01*
X126614120Y-105119099D01*
X126439788Y-105025917D01*
X126286985Y-104900515D01*
X126161583Y-104747712D01*
X126068401Y-104573381D01*
X126011020Y-104384220D01*
X125996500Y-104236794D01*
X125996500Y-104043207D01*
X126011020Y-103895781D01*
X126068401Y-103706620D01*
X126068402Y-103706617D01*
X126117818Y-103614167D01*
X126161583Y-103532288D01*
X126286985Y-103379485D01*
X126439788Y-103254083D01*
X126614119Y-103160901D01*
X126803280Y-103103520D01*
X127000000Y-103084145D01*
X127196719Y-103103520D01*
X127196719Y-103103520D01*
G37*
G36*
X131736719Y-103103520D02*
G01*
X131925880Y-103160901D01*
X131925883Y-103160902D01*
X132018333Y-103210318D01*
X132100212Y-103254083D01*
X132253015Y-103379485D01*
X132378417Y-103532288D01*
X132471599Y-103706619D01*
X132528980Y-103895780D01*
X132543500Y-104043206D01*
X132543500Y-104236793D01*
X132528980Y-104384219D01*
X132471599Y-104573380D01*
X132471598Y-104573383D01*
X132422182Y-104665833D01*
X132378417Y-104747712D01*
X132253015Y-104900515D01*
X132100212Y-105025917D01*
X131925881Y-105119099D01*
X131736720Y-105176480D01*
X131540000Y-105195855D01*
X131343281Y-105176480D01*
X131154120Y-105119099D01*
X130979788Y-105025917D01*
X130826985Y-104900515D01*
X130701583Y-104747712D01*
X130608401Y-104573381D01*
X130551020Y-104384220D01*
X130536500Y-104236794D01*
X130536500Y-104043207D01*
X130551020Y-103895781D01*
X130608401Y-103706620D01*
X130608402Y-103706617D01*
X130657818Y-103614167D01*
X130701583Y-103532288D01*
X130826985Y-103379485D01*
X130979788Y-103254083D01*
X131154119Y-103160901D01*
X131343280Y-103103520D01*
X131540000Y-103084145D01*
X131736719Y-103103520D01*
X131736719Y-103103520D01*
G37*
G36*
X144436719Y-103103520D02*
G01*
X144625880Y-103160901D01*
X144625883Y-103160902D01*
X144718333Y-103210318D01*
X144800212Y-103254083D01*
X144953015Y-103379485D01*
X145078417Y-103532288D01*
X145171599Y-103706619D01*
X145228980Y-103895780D01*
X145243500Y-104043206D01*
X145243500Y-104236793D01*
X145228980Y-104384219D01*
X145171599Y-104573380D01*
X145171598Y-104573383D01*
X145122182Y-104665833D01*
X145078417Y-104747712D01*
X144953015Y-104900515D01*
X144800212Y-105025917D01*
X144625881Y-105119099D01*
X144436720Y-105176480D01*
X144240000Y-105195855D01*
X144043281Y-105176480D01*
X143854120Y-105119099D01*
X143679788Y-105025917D01*
X143526985Y-104900515D01*
X143401583Y-104747712D01*
X143308401Y-104573381D01*
X143251020Y-104384220D01*
X143236500Y-104236794D01*
X143236500Y-104043207D01*
X143251020Y-103895781D01*
X143308401Y-103706620D01*
X143308402Y-103706617D01*
X143357818Y-103614167D01*
X143401583Y-103532288D01*
X143526985Y-103379485D01*
X143679788Y-103254083D01*
X143854119Y-103160901D01*
X144043280Y-103103520D01*
X144240000Y-103084145D01*
X144436719Y-103103520D01*
X144436719Y-103103520D01*
G37*
G36*
X152596719Y-103103520D02*
G01*
X152785880Y-103160901D01*
X152785883Y-103160902D01*
X152878333Y-103210318D01*
X152960212Y-103254083D01*
X153113015Y-103379485D01*
X153238417Y-103532288D01*
X153331599Y-103706619D01*
X153388980Y-103895780D01*
X153403500Y-104043206D01*
X153403500Y-104236793D01*
X153388980Y-104384219D01*
X153331599Y-104573380D01*
X153331598Y-104573383D01*
X153282182Y-104665833D01*
X153238417Y-104747712D01*
X153113015Y-104900515D01*
X152960212Y-105025917D01*
X152785881Y-105119099D01*
X152596720Y-105176480D01*
X152400000Y-105195855D01*
X152203281Y-105176480D01*
X152014120Y-105119099D01*
X151839788Y-105025917D01*
X151686985Y-104900515D01*
X151561583Y-104747712D01*
X151468401Y-104573381D01*
X151411020Y-104384220D01*
X151396500Y-104236794D01*
X151396500Y-104043207D01*
X151411020Y-103895781D01*
X151468401Y-103706620D01*
X151468402Y-103706617D01*
X151517818Y-103614167D01*
X151561583Y-103532288D01*
X151686985Y-103379485D01*
X151839788Y-103254083D01*
X152014119Y-103160901D01*
X152203280Y-103103520D01*
X152400000Y-103084145D01*
X152596719Y-103103520D01*
X152596719Y-103103520D01*
G37*
G36*
X195236719Y-103103520D02*
G01*
X195425880Y-103160901D01*
X195425883Y-103160902D01*
X195518333Y-103210318D01*
X195600212Y-103254083D01*
X195753015Y-103379485D01*
X195878417Y-103532288D01*
X195971599Y-103706619D01*
X196028980Y-103895780D01*
X196043500Y-104043206D01*
X196043500Y-104236793D01*
X196028980Y-104384219D01*
X195971599Y-104573380D01*
X195971598Y-104573383D01*
X195922182Y-104665833D01*
X195878417Y-104747712D01*
X195753015Y-104900515D01*
X195600212Y-105025917D01*
X195425881Y-105119099D01*
X195236720Y-105176480D01*
X195040000Y-105195855D01*
X194843281Y-105176480D01*
X194654120Y-105119099D01*
X194479788Y-105025917D01*
X194326985Y-104900515D01*
X194201583Y-104747712D01*
X194108401Y-104573381D01*
X194051020Y-104384220D01*
X194036500Y-104236794D01*
X194036500Y-104043207D01*
X194051020Y-103895781D01*
X194108401Y-103706620D01*
X194108402Y-103706617D01*
X194157818Y-103614167D01*
X194201583Y-103532288D01*
X194326985Y-103379485D01*
X194479788Y-103254083D01*
X194654119Y-103160901D01*
X194843280Y-103103520D01*
X195040000Y-103084145D01*
X195236719Y-103103520D01*
X195236719Y-103103520D01*
G37*
G36*
X190696719Y-103103520D02*
G01*
X190885880Y-103160901D01*
X190885883Y-103160902D01*
X190978333Y-103210318D01*
X191060212Y-103254083D01*
X191213015Y-103379485D01*
X191338417Y-103532288D01*
X191431599Y-103706619D01*
X191488980Y-103895780D01*
X191503500Y-104043206D01*
X191503500Y-104236793D01*
X191488980Y-104384219D01*
X191431599Y-104573380D01*
X191431598Y-104573383D01*
X191382182Y-104665833D01*
X191338417Y-104747712D01*
X191213015Y-104900515D01*
X191060212Y-105025917D01*
X190885881Y-105119099D01*
X190696720Y-105176480D01*
X190500000Y-105195855D01*
X190303281Y-105176480D01*
X190114120Y-105119099D01*
X189939788Y-105025917D01*
X189786985Y-104900515D01*
X189661583Y-104747712D01*
X189568401Y-104573381D01*
X189511020Y-104384220D01*
X189496500Y-104236794D01*
X189496500Y-104043207D01*
X189511020Y-103895781D01*
X189568401Y-103706620D01*
X189568402Y-103706617D01*
X189617818Y-103614167D01*
X189661583Y-103532288D01*
X189786985Y-103379485D01*
X189939788Y-103254083D01*
X190114119Y-103160901D01*
X190303280Y-103103520D01*
X190500000Y-103084145D01*
X190696719Y-103103520D01*
X190696719Y-103103520D01*
G37*
G36*
X182536719Y-103103520D02*
G01*
X182725880Y-103160901D01*
X182725883Y-103160902D01*
X182818333Y-103210318D01*
X182900212Y-103254083D01*
X183053015Y-103379485D01*
X183178417Y-103532288D01*
X183271599Y-103706619D01*
X183328980Y-103895780D01*
X183343500Y-104043206D01*
X183343500Y-104236793D01*
X183328980Y-104384219D01*
X183271599Y-104573380D01*
X183271598Y-104573383D01*
X183222182Y-104665833D01*
X183178417Y-104747712D01*
X183053015Y-104900515D01*
X182900212Y-105025917D01*
X182725881Y-105119099D01*
X182536720Y-105176480D01*
X182340000Y-105195855D01*
X182143281Y-105176480D01*
X181954120Y-105119099D01*
X181779788Y-105025917D01*
X181626985Y-104900515D01*
X181501583Y-104747712D01*
X181408401Y-104573381D01*
X181351020Y-104384220D01*
X181336500Y-104236794D01*
X181336500Y-104043207D01*
X181351020Y-103895781D01*
X181408401Y-103706620D01*
X181408402Y-103706617D01*
X181457818Y-103614167D01*
X181501583Y-103532288D01*
X181626985Y-103379485D01*
X181779788Y-103254083D01*
X181954119Y-103160901D01*
X182143280Y-103103520D01*
X182340000Y-103084145D01*
X182536719Y-103103520D01*
X182536719Y-103103520D01*
G37*
G36*
X177996719Y-103103520D02*
G01*
X178185880Y-103160901D01*
X178185883Y-103160902D01*
X178278333Y-103210318D01*
X178360212Y-103254083D01*
X178513015Y-103379485D01*
X178638417Y-103532288D01*
X178731599Y-103706619D01*
X178788980Y-103895780D01*
X178803500Y-104043206D01*
X178803500Y-104236793D01*
X178788980Y-104384219D01*
X178731599Y-104573380D01*
X178731598Y-104573383D01*
X178682182Y-104665833D01*
X178638417Y-104747712D01*
X178513015Y-104900515D01*
X178360212Y-105025917D01*
X178185881Y-105119099D01*
X177996720Y-105176480D01*
X177800000Y-105195855D01*
X177603281Y-105176480D01*
X177414120Y-105119099D01*
X177239788Y-105025917D01*
X177086985Y-104900515D01*
X176961583Y-104747712D01*
X176868401Y-104573381D01*
X176811020Y-104384220D01*
X176796500Y-104236794D01*
X176796500Y-104043207D01*
X176811020Y-103895781D01*
X176868401Y-103706620D01*
X176868402Y-103706617D01*
X176917818Y-103614167D01*
X176961583Y-103532288D01*
X177086985Y-103379485D01*
X177239788Y-103254083D01*
X177414119Y-103160901D01*
X177603280Y-103103520D01*
X177800000Y-103084145D01*
X177996719Y-103103520D01*
X177996719Y-103103520D01*
G37*
G36*
X169836719Y-103103520D02*
G01*
X170025880Y-103160901D01*
X170025883Y-103160902D01*
X170118333Y-103210318D01*
X170200212Y-103254083D01*
X170353015Y-103379485D01*
X170478417Y-103532288D01*
X170571599Y-103706619D01*
X170628980Y-103895780D01*
X170643500Y-104043206D01*
X170643500Y-104236793D01*
X170628980Y-104384219D01*
X170571599Y-104573380D01*
X170571598Y-104573383D01*
X170522182Y-104665833D01*
X170478417Y-104747712D01*
X170353015Y-104900515D01*
X170200212Y-105025917D01*
X170025881Y-105119099D01*
X169836720Y-105176480D01*
X169640000Y-105195855D01*
X169443281Y-105176480D01*
X169254120Y-105119099D01*
X169079788Y-105025917D01*
X168926985Y-104900515D01*
X168801583Y-104747712D01*
X168708401Y-104573381D01*
X168651020Y-104384220D01*
X168636500Y-104236794D01*
X168636500Y-104043207D01*
X168651020Y-103895781D01*
X168708401Y-103706620D01*
X168708402Y-103706617D01*
X168757818Y-103614167D01*
X168801583Y-103532288D01*
X168926985Y-103379485D01*
X169079788Y-103254083D01*
X169254119Y-103160901D01*
X169443280Y-103103520D01*
X169640000Y-103084145D01*
X169836719Y-103103520D01*
X169836719Y-103103520D01*
G37*
G36*
X165296719Y-103103520D02*
G01*
X165485880Y-103160901D01*
X165485883Y-103160902D01*
X165578333Y-103210318D01*
X165660212Y-103254083D01*
X165813015Y-103379485D01*
X165938417Y-103532288D01*
X166031599Y-103706619D01*
X166088980Y-103895780D01*
X166103500Y-104043206D01*
X166103500Y-104236793D01*
X166088980Y-104384219D01*
X166031599Y-104573380D01*
X166031598Y-104573383D01*
X165982182Y-104665833D01*
X165938417Y-104747712D01*
X165813015Y-104900515D01*
X165660212Y-105025917D01*
X165485881Y-105119099D01*
X165296720Y-105176480D01*
X165100000Y-105195855D01*
X164903281Y-105176480D01*
X164714120Y-105119099D01*
X164539788Y-105025917D01*
X164386985Y-104900515D01*
X164261583Y-104747712D01*
X164168401Y-104573381D01*
X164111020Y-104384220D01*
X164096500Y-104236794D01*
X164096500Y-104043207D01*
X164111020Y-103895781D01*
X164168401Y-103706620D01*
X164168402Y-103706617D01*
X164217818Y-103614167D01*
X164261583Y-103532288D01*
X164386985Y-103379485D01*
X164539788Y-103254083D01*
X164714119Y-103160901D01*
X164903280Y-103103520D01*
X165100000Y-103084145D01*
X165296719Y-103103520D01*
X165296719Y-103103520D01*
G37*
G36*
X157136719Y-103103520D02*
G01*
X157325880Y-103160901D01*
X157325883Y-103160902D01*
X157418333Y-103210318D01*
X157500212Y-103254083D01*
X157653015Y-103379485D01*
X157778417Y-103532288D01*
X157871599Y-103706619D01*
X157928980Y-103895780D01*
X157943500Y-104043206D01*
X157943500Y-104236793D01*
X157928980Y-104384219D01*
X157871599Y-104573380D01*
X157871598Y-104573383D01*
X157822182Y-104665833D01*
X157778417Y-104747712D01*
X157653015Y-104900515D01*
X157500212Y-105025917D01*
X157325881Y-105119099D01*
X157136720Y-105176480D01*
X156940000Y-105195855D01*
X156743281Y-105176480D01*
X156554120Y-105119099D01*
X156379788Y-105025917D01*
X156226985Y-104900515D01*
X156101583Y-104747712D01*
X156008401Y-104573381D01*
X155951020Y-104384220D01*
X155936500Y-104236794D01*
X155936500Y-104043207D01*
X155951020Y-103895781D01*
X156008401Y-103706620D01*
X156008402Y-103706617D01*
X156057818Y-103614167D01*
X156101583Y-103532288D01*
X156226985Y-103379485D01*
X156379788Y-103254083D01*
X156554119Y-103160901D01*
X156743280Y-103103520D01*
X156940000Y-103084145D01*
X157136719Y-103103520D01*
X157136719Y-103103520D01*
G37*
G36*
X139896719Y-103103520D02*
G01*
X140085880Y-103160901D01*
X140085883Y-103160902D01*
X140178333Y-103210318D01*
X140260212Y-103254083D01*
X140413015Y-103379485D01*
X140538417Y-103532288D01*
X140631599Y-103706619D01*
X140688980Y-103895780D01*
X140703500Y-104043206D01*
X140703500Y-104236793D01*
X140688980Y-104384219D01*
X140631599Y-104573380D01*
X140631598Y-104573383D01*
X140582182Y-104665833D01*
X140538417Y-104747712D01*
X140413015Y-104900515D01*
X140260212Y-105025917D01*
X140085881Y-105119099D01*
X139896720Y-105176480D01*
X139700000Y-105195855D01*
X139503281Y-105176480D01*
X139314120Y-105119099D01*
X139139788Y-105025917D01*
X138986985Y-104900515D01*
X138861583Y-104747712D01*
X138768401Y-104573381D01*
X138711020Y-104384220D01*
X138696500Y-104236794D01*
X138696500Y-104043207D01*
X138711020Y-103895781D01*
X138768401Y-103706620D01*
X138768402Y-103706617D01*
X138817818Y-103614167D01*
X138861583Y-103532288D01*
X138986985Y-103379485D01*
X139139788Y-103254083D01*
X139314119Y-103160901D01*
X139503280Y-103103520D01*
X139700000Y-103084145D01*
X139896719Y-103103520D01*
X139896719Y-103103520D01*
G37*
G36*
X175263500Y-105191000D02*
G01*
X173256500Y-105191000D01*
X173256500Y-103089000D01*
X175263500Y-103089000D01*
X175263500Y-105191000D01*
X175263500Y-105191000D01*
G37*
G36*
X137163500Y-105191000D02*
G01*
X135156500Y-105191000D01*
X135156500Y-103089000D01*
X137163500Y-103089000D01*
X137163500Y-105191000D01*
X137163500Y-105191000D01*
G37*
G36*
X162563500Y-105191000D02*
G01*
X160556500Y-105191000D01*
X160556500Y-103089000D01*
X162563500Y-103089000D01*
X162563500Y-105191000D01*
X162563500Y-105191000D01*
G37*
G36*
X149863500Y-105191000D02*
G01*
X147856500Y-105191000D01*
X147856500Y-103089000D01*
X149863500Y-103089000D01*
X149863500Y-105191000D01*
X149863500Y-105191000D01*
G37*
G36*
X187963500Y-105191000D02*
G01*
X185956500Y-105191000D01*
X185956500Y-103089000D01*
X187963500Y-103089000D01*
X187963500Y-105191000D01*
X187963500Y-105191000D01*
G37*
G36*
X124463500Y-105191000D02*
G01*
X122456500Y-105191000D01*
X122456500Y-103089000D01*
X124463500Y-103089000D01*
X124463500Y-105191000D01*
X124463500Y-105191000D01*
G37*
G36*
X201561000Y-105041000D02*
G01*
X199759000Y-105041000D01*
X199759000Y-103239000D01*
X201561000Y-103239000D01*
X201561000Y-105041000D01*
X201561000Y-105041000D01*
G37*
G36*
X118288062Y-96868181D02*
G01*
X118322981Y-96878774D01*
X118355163Y-96895976D01*
X118383373Y-96919127D01*
X118406524Y-96947337D01*
X118423726Y-96979519D01*
X118434319Y-97014438D01*
X118438500Y-97056895D01*
X118438500Y-98523105D01*
X118434319Y-98565562D01*
X118423726Y-98600481D01*
X118406524Y-98632663D01*
X118383373Y-98660873D01*
X118355163Y-98684024D01*
X118322981Y-98701226D01*
X118288062Y-98711819D01*
X118245605Y-98716000D01*
X117104395Y-98716000D01*
X117061938Y-98711819D01*
X117027019Y-98701226D01*
X116994837Y-98684024D01*
X116966627Y-98660873D01*
X116943476Y-98632663D01*
X116926274Y-98600481D01*
X116915681Y-98565562D01*
X116911500Y-98523105D01*
X116911500Y-97056895D01*
X116915681Y-97014438D01*
X116926274Y-96979519D01*
X116943476Y-96947337D01*
X116966627Y-96919127D01*
X116994837Y-96895976D01*
X117027019Y-96878774D01*
X117061938Y-96868181D01*
X117104395Y-96864000D01*
X118245605Y-96864000D01*
X118288062Y-96868181D01*
X118288062Y-96868181D01*
G37*
G36*
X183710562Y-96868181D02*
G01*
X183745481Y-96878774D01*
X183777663Y-96895976D01*
X183805873Y-96919127D01*
X183829024Y-96947337D01*
X183846226Y-96979519D01*
X183856819Y-97014438D01*
X183861000Y-97056895D01*
X183861000Y-98523105D01*
X183856819Y-98565562D01*
X183846226Y-98600481D01*
X183829024Y-98632663D01*
X183805873Y-98660873D01*
X183777663Y-98684024D01*
X183745481Y-98701226D01*
X183710562Y-98711819D01*
X183668105Y-98716000D01*
X182526895Y-98716000D01*
X182484438Y-98711819D01*
X182449519Y-98701226D01*
X182417337Y-98684024D01*
X182389127Y-98660873D01*
X182365976Y-98632663D01*
X182348774Y-98600481D01*
X182338181Y-98565562D01*
X182334000Y-98523105D01*
X182334000Y-97056895D01*
X182338181Y-97014438D01*
X182348774Y-96979519D01*
X182365976Y-96947337D01*
X182389127Y-96919127D01*
X182417337Y-96895976D01*
X182449519Y-96878774D01*
X182484438Y-96868181D01*
X182526895Y-96864000D01*
X183668105Y-96864000D01*
X183710562Y-96868181D01*
X183710562Y-96868181D01*
G37*
G36*
X180736187Y-96868166D02*
G01*
X180770965Y-96878716D01*
X180803010Y-96895845D01*
X180831102Y-96918898D01*
X180854155Y-96946990D01*
X180871284Y-96979035D01*
X180881834Y-97013813D01*
X180886000Y-97056114D01*
X180886000Y-98523886D01*
X180881834Y-98566187D01*
X180871284Y-98600965D01*
X180854155Y-98633010D01*
X180831102Y-98661102D01*
X180803010Y-98684155D01*
X180770965Y-98701284D01*
X180736187Y-98711834D01*
X180693886Y-98716000D01*
X179551114Y-98716000D01*
X179508813Y-98711834D01*
X179474035Y-98701284D01*
X179441990Y-98684155D01*
X179413898Y-98661102D01*
X179390845Y-98633010D01*
X179373716Y-98600965D01*
X179363166Y-98566187D01*
X179359000Y-98523886D01*
X179359000Y-97056114D01*
X179363166Y-97013813D01*
X179373716Y-96979035D01*
X179390845Y-96946990D01*
X179413898Y-96918898D01*
X179441990Y-96895845D01*
X179474035Y-96878716D01*
X179508813Y-96868166D01*
X179551114Y-96864000D01*
X180693886Y-96864000D01*
X180736187Y-96868166D01*
X180736187Y-96868166D01*
G37*
G36*
X171010562Y-96868181D02*
G01*
X171045481Y-96878774D01*
X171077663Y-96895976D01*
X171105873Y-96919127D01*
X171129024Y-96947337D01*
X171146226Y-96979519D01*
X171156819Y-97014438D01*
X171161000Y-97056895D01*
X171161000Y-98523105D01*
X171156819Y-98565562D01*
X171146226Y-98600481D01*
X171129024Y-98632663D01*
X171105873Y-98660873D01*
X171077663Y-98684024D01*
X171045481Y-98701226D01*
X171010562Y-98711819D01*
X170968105Y-98716000D01*
X169826895Y-98716000D01*
X169784438Y-98711819D01*
X169749519Y-98701226D01*
X169717337Y-98684024D01*
X169689127Y-98660873D01*
X169665976Y-98632663D01*
X169648774Y-98600481D01*
X169638181Y-98565562D01*
X169634000Y-98523105D01*
X169634000Y-97056895D01*
X169638181Y-97014438D01*
X169648774Y-96979519D01*
X169665976Y-96947337D01*
X169689127Y-96919127D01*
X169717337Y-96895976D01*
X169749519Y-96878774D01*
X169784438Y-96868181D01*
X169826895Y-96864000D01*
X170968105Y-96864000D01*
X171010562Y-96868181D01*
X171010562Y-96868181D01*
G37*
G36*
X168035562Y-96868181D02*
G01*
X168070481Y-96878774D01*
X168102663Y-96895976D01*
X168130873Y-96919127D01*
X168154024Y-96947337D01*
X168171226Y-96979519D01*
X168181819Y-97014438D01*
X168186000Y-97056895D01*
X168186000Y-98523105D01*
X168181819Y-98565562D01*
X168171226Y-98600481D01*
X168154024Y-98632663D01*
X168130873Y-98660873D01*
X168102663Y-98684024D01*
X168070481Y-98701226D01*
X168035562Y-98711819D01*
X167993105Y-98716000D01*
X166851895Y-98716000D01*
X166809438Y-98711819D01*
X166774519Y-98701226D01*
X166742337Y-98684024D01*
X166714127Y-98660873D01*
X166690976Y-98632663D01*
X166673774Y-98600481D01*
X166663181Y-98565562D01*
X166659000Y-98523105D01*
X166659000Y-97056895D01*
X166663181Y-97014438D01*
X166673774Y-96979519D01*
X166690976Y-96947337D01*
X166714127Y-96919127D01*
X166742337Y-96895976D01*
X166774519Y-96878774D01*
X166809438Y-96868181D01*
X166851895Y-96864000D01*
X167993105Y-96864000D01*
X168035562Y-96868181D01*
X168035562Y-96868181D01*
G37*
G36*
X158310562Y-96868181D02*
G01*
X158345481Y-96878774D01*
X158377663Y-96895976D01*
X158405873Y-96919127D01*
X158429024Y-96947337D01*
X158446226Y-96979519D01*
X158456819Y-97014438D01*
X158461000Y-97056895D01*
X158461000Y-98523105D01*
X158456819Y-98565562D01*
X158446226Y-98600481D01*
X158429024Y-98632663D01*
X158405873Y-98660873D01*
X158377663Y-98684024D01*
X158345481Y-98701226D01*
X158310562Y-98711819D01*
X158268105Y-98716000D01*
X157126895Y-98716000D01*
X157084438Y-98711819D01*
X157049519Y-98701226D01*
X157017337Y-98684024D01*
X156989127Y-98660873D01*
X156965976Y-98632663D01*
X156948774Y-98600481D01*
X156938181Y-98565562D01*
X156934000Y-98523105D01*
X156934000Y-97056895D01*
X156938181Y-97014438D01*
X156948774Y-96979519D01*
X156965976Y-96947337D01*
X156989127Y-96919127D01*
X157017337Y-96895976D01*
X157049519Y-96878774D01*
X157084438Y-96868181D01*
X157126895Y-96864000D01*
X158268105Y-96864000D01*
X158310562Y-96868181D01*
X158310562Y-96868181D01*
G37*
G36*
X145828062Y-96868181D02*
G01*
X145862981Y-96878774D01*
X145895163Y-96895976D01*
X145923373Y-96919127D01*
X145946524Y-96947337D01*
X145963726Y-96979519D01*
X145974319Y-97014438D01*
X145978500Y-97056895D01*
X145978500Y-98523105D01*
X145974319Y-98565562D01*
X145963726Y-98600481D01*
X145946524Y-98632663D01*
X145923373Y-98660873D01*
X145895163Y-98684024D01*
X145862981Y-98701226D01*
X145828062Y-98711819D01*
X145785605Y-98716000D01*
X144644395Y-98716000D01*
X144601938Y-98711819D01*
X144567019Y-98701226D01*
X144534837Y-98684024D01*
X144506627Y-98660873D01*
X144483476Y-98632663D01*
X144466274Y-98600481D01*
X144455681Y-98565562D01*
X144451500Y-98523105D01*
X144451500Y-97056895D01*
X144455681Y-97014438D01*
X144466274Y-96979519D01*
X144483476Y-96947337D01*
X144506627Y-96919127D01*
X144534837Y-96895976D01*
X144567019Y-96878774D01*
X144601938Y-96868181D01*
X144644395Y-96864000D01*
X145785605Y-96864000D01*
X145828062Y-96868181D01*
X145828062Y-96868181D01*
G37*
G36*
X155335562Y-96868181D02*
G01*
X155370481Y-96878774D01*
X155402663Y-96895976D01*
X155430873Y-96919127D01*
X155454024Y-96947337D01*
X155471226Y-96979519D01*
X155481819Y-97014438D01*
X155486000Y-97056895D01*
X155486000Y-98523105D01*
X155481819Y-98565562D01*
X155471226Y-98600481D01*
X155454024Y-98632663D01*
X155430873Y-98660873D01*
X155402663Y-98684024D01*
X155370481Y-98701226D01*
X155335562Y-98711819D01*
X155293105Y-98716000D01*
X154151895Y-98716000D01*
X154109438Y-98711819D01*
X154074519Y-98701226D01*
X154042337Y-98684024D01*
X154014127Y-98660873D01*
X153990976Y-98632663D01*
X153973774Y-98600481D01*
X153963181Y-98565562D01*
X153959000Y-98523105D01*
X153959000Y-97056895D01*
X153963181Y-97014438D01*
X153973774Y-96979519D01*
X153990976Y-96947337D01*
X154014127Y-96919127D01*
X154042337Y-96895976D01*
X154074519Y-96878774D01*
X154109438Y-96868181D01*
X154151895Y-96864000D01*
X155293105Y-96864000D01*
X155335562Y-96868181D01*
X155335562Y-96868181D01*
G37*
G36*
X121263062Y-96868181D02*
G01*
X121297981Y-96878774D01*
X121330163Y-96895976D01*
X121358373Y-96919127D01*
X121381524Y-96947337D01*
X121398726Y-96979519D01*
X121409319Y-97014438D01*
X121413500Y-97056895D01*
X121413500Y-98523105D01*
X121409319Y-98565562D01*
X121398726Y-98600481D01*
X121381524Y-98632663D01*
X121358373Y-98660873D01*
X121330163Y-98684024D01*
X121297981Y-98701226D01*
X121263062Y-98711819D01*
X121220605Y-98716000D01*
X120079395Y-98716000D01*
X120036938Y-98711819D01*
X120002019Y-98701226D01*
X119969837Y-98684024D01*
X119941627Y-98660873D01*
X119918476Y-98632663D01*
X119901274Y-98600481D01*
X119890681Y-98565562D01*
X119886500Y-98523105D01*
X119886500Y-97056895D01*
X119890681Y-97014438D01*
X119901274Y-96979519D01*
X119918476Y-96947337D01*
X119941627Y-96919127D01*
X119969837Y-96895976D01*
X120002019Y-96878774D01*
X120036938Y-96868181D01*
X120079395Y-96864000D01*
X121220605Y-96864000D01*
X121263062Y-96868181D01*
X121263062Y-96868181D01*
G37*
G36*
X130153062Y-96868181D02*
G01*
X130187981Y-96878774D01*
X130220163Y-96895976D01*
X130248373Y-96919127D01*
X130271524Y-96947337D01*
X130288726Y-96979519D01*
X130299319Y-97014438D01*
X130303500Y-97056895D01*
X130303500Y-98523105D01*
X130299319Y-98565562D01*
X130288726Y-98600481D01*
X130271524Y-98632663D01*
X130248373Y-98660873D01*
X130220163Y-98684024D01*
X130187981Y-98701226D01*
X130153062Y-98711819D01*
X130110605Y-98716000D01*
X128969395Y-98716000D01*
X128926938Y-98711819D01*
X128892019Y-98701226D01*
X128859837Y-98684024D01*
X128831627Y-98660873D01*
X128808476Y-98632663D01*
X128791274Y-98600481D01*
X128780681Y-98565562D01*
X128776500Y-98523105D01*
X128776500Y-97056895D01*
X128780681Y-97014438D01*
X128791274Y-96979519D01*
X128808476Y-96947337D01*
X128831627Y-96919127D01*
X128859837Y-96895976D01*
X128892019Y-96878774D01*
X128926938Y-96868181D01*
X128969395Y-96864000D01*
X130110605Y-96864000D01*
X130153062Y-96868181D01*
X130153062Y-96868181D01*
G37*
G36*
X142853062Y-96868181D02*
G01*
X142887981Y-96878774D01*
X142920163Y-96895976D01*
X142948373Y-96919127D01*
X142971524Y-96947337D01*
X142988726Y-96979519D01*
X142999319Y-97014438D01*
X143003500Y-97056895D01*
X143003500Y-98523105D01*
X142999319Y-98565562D01*
X142988726Y-98600481D01*
X142971524Y-98632663D01*
X142948373Y-98660873D01*
X142920163Y-98684024D01*
X142887981Y-98701226D01*
X142853062Y-98711819D01*
X142810605Y-98716000D01*
X141669395Y-98716000D01*
X141626938Y-98711819D01*
X141592019Y-98701226D01*
X141559837Y-98684024D01*
X141531627Y-98660873D01*
X141508476Y-98632663D01*
X141491274Y-98600481D01*
X141480681Y-98565562D01*
X141476500Y-98523105D01*
X141476500Y-97056895D01*
X141480681Y-97014438D01*
X141491274Y-96979519D01*
X141508476Y-96947337D01*
X141531627Y-96919127D01*
X141559837Y-96895976D01*
X141592019Y-96878774D01*
X141626938Y-96868181D01*
X141669395Y-96864000D01*
X142810605Y-96864000D01*
X142853062Y-96868181D01*
X142853062Y-96868181D01*
G37*
G36*
X133128062Y-96868181D02*
G01*
X133162981Y-96878774D01*
X133195163Y-96895976D01*
X133223373Y-96919127D01*
X133246524Y-96947337D01*
X133263726Y-96979519D01*
X133274319Y-97014438D01*
X133278500Y-97056895D01*
X133278500Y-98523105D01*
X133274319Y-98565562D01*
X133263726Y-98600481D01*
X133246524Y-98632663D01*
X133223373Y-98660873D01*
X133195163Y-98684024D01*
X133162981Y-98701226D01*
X133128062Y-98711819D01*
X133085605Y-98716000D01*
X131944395Y-98716000D01*
X131901938Y-98711819D01*
X131867019Y-98701226D01*
X131834837Y-98684024D01*
X131806627Y-98660873D01*
X131783476Y-98632663D01*
X131766274Y-98600481D01*
X131755681Y-98565562D01*
X131751500Y-98523105D01*
X131751500Y-97056895D01*
X131755681Y-97014438D01*
X131766274Y-96979519D01*
X131783476Y-96947337D01*
X131806627Y-96919127D01*
X131834837Y-96895976D01*
X131867019Y-96878774D01*
X131901938Y-96868181D01*
X131944395Y-96864000D01*
X133085605Y-96864000D01*
X133128062Y-96868181D01*
X133128062Y-96868181D01*
G37*
G36*
X136661000Y-97921000D02*
G01*
X135659000Y-97921000D01*
X135659000Y-97019000D01*
X136661000Y-97019000D01*
X136661000Y-97921000D01*
X136661000Y-97921000D01*
G37*
G36*
X175269000Y-97921000D02*
G01*
X174267000Y-97921000D01*
X174267000Y-97019000D01*
X175269000Y-97019000D01*
X175269000Y-97921000D01*
X175269000Y-97921000D01*
G37*
G36*
X186461000Y-97921000D02*
G01*
X185459000Y-97921000D01*
X185459000Y-97019000D01*
X186461000Y-97019000D01*
X186461000Y-97921000D01*
X186461000Y-97921000D01*
G37*
G36*
X149361000Y-97921000D02*
G01*
X148359000Y-97921000D01*
X148359000Y-97019000D01*
X149361000Y-97019000D01*
X149361000Y-97921000D01*
X149361000Y-97921000D01*
G37*
G36*
X162061000Y-97921000D02*
G01*
X161059000Y-97921000D01*
X161059000Y-97019000D01*
X162061000Y-97019000D01*
X162061000Y-97921000D01*
X162061000Y-97921000D01*
G37*
G36*
X123961000Y-97921000D02*
G01*
X122959000Y-97921000D01*
X122959000Y-97019000D01*
X123961000Y-97019000D01*
X123961000Y-97921000D01*
X123961000Y-97921000D01*
G37*
G36*
X200770442Y-95625518D02*
G01*
X200836627Y-95632037D01*
X201006466Y-95683557D01*
X201162991Y-95767222D01*
X201198729Y-95796552D01*
X201300186Y-95879814D01*
X201383448Y-95981271D01*
X201412778Y-96017009D01*
X201496443Y-96173534D01*
X201547963Y-96343373D01*
X201565359Y-96520000D01*
X201547963Y-96696627D01*
X201497191Y-96864000D01*
X201496442Y-96866468D01*
X201480669Y-96895976D01*
X201412778Y-97022991D01*
X201383448Y-97058729D01*
X201300186Y-97160186D01*
X201198729Y-97243448D01*
X201162991Y-97272778D01*
X201006466Y-97356443D01*
X200836627Y-97407963D01*
X200770442Y-97414482D01*
X200704260Y-97421000D01*
X200615740Y-97421000D01*
X200549558Y-97414482D01*
X200483373Y-97407963D01*
X200313534Y-97356443D01*
X200157009Y-97272778D01*
X200121271Y-97243448D01*
X200019814Y-97160186D01*
X199936552Y-97058729D01*
X199907222Y-97022991D01*
X199839331Y-96895976D01*
X199823558Y-96866468D01*
X199822809Y-96864000D01*
X199772037Y-96696627D01*
X199754641Y-96520000D01*
X199772037Y-96343373D01*
X199823557Y-96173534D01*
X199907222Y-96017009D01*
X199936552Y-95981271D01*
X200019814Y-95879814D01*
X200121271Y-95796552D01*
X200157009Y-95767222D01*
X200313534Y-95683557D01*
X200483373Y-95632037D01*
X200549558Y-95625518D01*
X200615740Y-95619000D01*
X200704260Y-95619000D01*
X200770442Y-95625518D01*
X200770442Y-95625518D01*
G37*
G36*
X177269000Y-96971000D02*
G01*
X176267000Y-96971000D01*
X176267000Y-96069000D01*
X177269000Y-96069000D01*
X177269000Y-96971000D01*
X177269000Y-96971000D01*
G37*
G36*
X125961000Y-96971000D02*
G01*
X124959000Y-96971000D01*
X124959000Y-96069000D01*
X125961000Y-96069000D01*
X125961000Y-96971000D01*
X125961000Y-96971000D01*
G37*
G36*
X138661000Y-96971000D02*
G01*
X137659000Y-96971000D01*
X137659000Y-96069000D01*
X138661000Y-96069000D01*
X138661000Y-96971000D01*
X138661000Y-96971000D01*
G37*
G36*
X188461000Y-96971000D02*
G01*
X187459000Y-96971000D01*
X187459000Y-96069000D01*
X188461000Y-96069000D01*
X188461000Y-96971000D01*
X188461000Y-96971000D01*
G37*
G36*
X151361000Y-96971000D02*
G01*
X150359000Y-96971000D01*
X150359000Y-96069000D01*
X151361000Y-96069000D01*
X151361000Y-96971000D01*
X151361000Y-96971000D01*
G37*
G36*
X164061000Y-96971000D02*
G01*
X163059000Y-96971000D01*
X163059000Y-96069000D01*
X164061000Y-96069000D01*
X164061000Y-96971000D01*
X164061000Y-96971000D01*
G37*
G36*
X123961000Y-96021000D02*
G01*
X122959000Y-96021000D01*
X122959000Y-95119000D01*
X123961000Y-95119000D01*
X123961000Y-96021000D01*
X123961000Y-96021000D01*
G37*
G36*
X149361000Y-96021000D02*
G01*
X148359000Y-96021000D01*
X148359000Y-95119000D01*
X149361000Y-95119000D01*
X149361000Y-96021000D01*
X149361000Y-96021000D01*
G37*
G36*
X136661000Y-96021000D02*
G01*
X135659000Y-96021000D01*
X135659000Y-95119000D01*
X136661000Y-95119000D01*
X136661000Y-96021000D01*
X136661000Y-96021000D01*
G37*
G36*
X162061000Y-96021000D02*
G01*
X161059000Y-96021000D01*
X161059000Y-95119000D01*
X162061000Y-95119000D01*
X162061000Y-96021000D01*
X162061000Y-96021000D01*
G37*
G36*
X186461000Y-96021000D02*
G01*
X185459000Y-96021000D01*
X185459000Y-95119000D01*
X186461000Y-95119000D01*
X186461000Y-96021000D01*
X186461000Y-96021000D01*
G37*
G36*
X175269000Y-96021000D02*
G01*
X174267000Y-96021000D01*
X174267000Y-95119000D01*
X175269000Y-95119000D01*
X175269000Y-96021000D01*
X175269000Y-96021000D01*
G37*
G36*
X192033000Y-95889000D02*
G01*
X191031000Y-95889000D01*
X191031000Y-94987000D01*
X192033000Y-94987000D01*
X192033000Y-95889000D01*
X192033000Y-95889000D01*
G37*
G36*
X194033000Y-94939000D02*
G01*
X193031000Y-94939000D01*
X193031000Y-94037000D01*
X194033000Y-94037000D01*
X194033000Y-94939000D01*
X194033000Y-94939000D01*
G37*
G36*
X200770443Y-93085519D02*
G01*
X200836627Y-93092037D01*
X201006466Y-93143557D01*
X201162991Y-93227222D01*
X201198729Y-93256552D01*
X201300186Y-93339814D01*
X201383448Y-93441271D01*
X201412778Y-93477009D01*
X201496443Y-93633534D01*
X201547963Y-93803373D01*
X201565359Y-93980000D01*
X201547963Y-94156627D01*
X201496443Y-94326466D01*
X201412778Y-94482991D01*
X201383448Y-94518729D01*
X201300186Y-94620186D01*
X201198729Y-94703448D01*
X201162991Y-94732778D01*
X201006466Y-94816443D01*
X200836627Y-94867963D01*
X200770443Y-94874481D01*
X200704260Y-94881000D01*
X200615740Y-94881000D01*
X200549557Y-94874481D01*
X200483373Y-94867963D01*
X200313534Y-94816443D01*
X200157009Y-94732778D01*
X200121271Y-94703448D01*
X200019814Y-94620186D01*
X199936552Y-94518729D01*
X199907222Y-94482991D01*
X199823557Y-94326466D01*
X199772037Y-94156627D01*
X199754641Y-93980000D01*
X199772037Y-93803373D01*
X199823557Y-93633534D01*
X199907222Y-93477009D01*
X199936552Y-93441271D01*
X200019814Y-93339814D01*
X200121271Y-93256552D01*
X200157009Y-93227222D01*
X200313534Y-93143557D01*
X200483373Y-93092037D01*
X200549557Y-93085519D01*
X200615740Y-93079000D01*
X200704260Y-93079000D01*
X200770443Y-93085519D01*
X200770443Y-93085519D01*
G37*
G36*
X192033000Y-93989000D02*
G01*
X191031000Y-93989000D01*
X191031000Y-93087000D01*
X192033000Y-93087000D01*
X192033000Y-93989000D01*
X192033000Y-93989000D01*
G37*
G36*
X200770443Y-90545519D02*
G01*
X200836627Y-90552037D01*
X201006466Y-90603557D01*
X201162991Y-90687222D01*
X201198729Y-90716552D01*
X201300186Y-90799814D01*
X201383448Y-90901271D01*
X201412778Y-90937009D01*
X201496443Y-91093534D01*
X201547963Y-91263373D01*
X201565359Y-91440000D01*
X201547963Y-91616627D01*
X201496443Y-91786466D01*
X201412778Y-91942991D01*
X201383448Y-91978729D01*
X201300186Y-92080186D01*
X201198729Y-92163448D01*
X201162991Y-92192778D01*
X201006466Y-92276443D01*
X200836627Y-92327963D01*
X200770443Y-92334481D01*
X200704260Y-92341000D01*
X200615740Y-92341000D01*
X200549557Y-92334481D01*
X200483373Y-92327963D01*
X200313534Y-92276443D01*
X200157009Y-92192778D01*
X200121271Y-92163448D01*
X200019814Y-92080186D01*
X199936552Y-91978729D01*
X199907222Y-91942991D01*
X199823557Y-91786466D01*
X199772037Y-91616627D01*
X199754641Y-91440000D01*
X199772037Y-91263373D01*
X199823557Y-91093534D01*
X199907222Y-90937009D01*
X199936552Y-90901271D01*
X200019814Y-90799814D01*
X200121271Y-90716552D01*
X200157009Y-90687222D01*
X200313534Y-90603557D01*
X200483373Y-90552037D01*
X200549558Y-90545518D01*
X200615740Y-90539000D01*
X200704260Y-90539000D01*
X200770443Y-90545519D01*
X200770443Y-90545519D01*
G37*
G36*
X194824604Y-88612347D02*
G01*
X194861144Y-88623432D01*
X194894821Y-88641433D01*
X194924341Y-88665659D01*
X194948567Y-88695179D01*
X194966568Y-88728856D01*
X194977653Y-88765396D01*
X194982000Y-88809538D01*
X194982000Y-89758462D01*
X194977653Y-89802604D01*
X194966568Y-89839144D01*
X194948567Y-89872821D01*
X194924341Y-89902341D01*
X194894821Y-89926567D01*
X194861144Y-89944568D01*
X194824604Y-89955653D01*
X194780462Y-89960000D01*
X193331538Y-89960000D01*
X193287396Y-89955653D01*
X193250856Y-89944568D01*
X193217179Y-89926567D01*
X193187659Y-89902341D01*
X193163433Y-89872821D01*
X193145432Y-89839144D01*
X193134347Y-89802604D01*
X193130000Y-89758462D01*
X193130000Y-88809538D01*
X193134347Y-88765396D01*
X193145432Y-88728856D01*
X193163433Y-88695179D01*
X193187659Y-88665659D01*
X193217179Y-88641433D01*
X193250856Y-88623432D01*
X193287396Y-88612347D01*
X193331538Y-88608000D01*
X194780462Y-88608000D01*
X194824604Y-88612347D01*
X194824604Y-88612347D01*
G37*
G36*
X132225936Y-87901340D02*
G01*
X132324220Y-87911020D01*
X132513381Y-87968401D01*
X132687712Y-88061583D01*
X132840515Y-88186985D01*
X132965917Y-88339788D01*
X133059099Y-88514119D01*
X133116480Y-88703280D01*
X133135855Y-88900000D01*
X133116480Y-89096720D01*
X133059099Y-89285881D01*
X132965917Y-89460212D01*
X132840515Y-89613015D01*
X132687712Y-89738417D01*
X132513381Y-89831599D01*
X132324220Y-89888980D01*
X132225936Y-89898660D01*
X132176795Y-89903500D01*
X131983205Y-89903500D01*
X131934064Y-89898660D01*
X131835780Y-89888980D01*
X131646619Y-89831599D01*
X131472288Y-89738417D01*
X131319485Y-89613015D01*
X131194083Y-89460212D01*
X131100901Y-89285881D01*
X131043520Y-89096720D01*
X131024145Y-88900000D01*
X131043520Y-88703280D01*
X131100901Y-88514119D01*
X131194083Y-88339788D01*
X131319485Y-88186985D01*
X131472288Y-88061583D01*
X131646619Y-87968401D01*
X131835780Y-87911020D01*
X131934064Y-87901340D01*
X131983205Y-87896500D01*
X132176795Y-87896500D01*
X132225936Y-87901340D01*
X132225936Y-87901340D01*
G37*
G36*
X187079000Y-89819000D02*
G01*
X180577000Y-89819000D01*
X180577000Y-83917000D01*
X187079000Y-83917000D01*
X187079000Y-89819000D01*
X187079000Y-89819000D01*
G37*
G36*
X201561000Y-89801000D02*
G01*
X199759000Y-89801000D01*
X199759000Y-87999000D01*
X201561000Y-87999000D01*
X201561000Y-89801000D01*
X201561000Y-89801000D01*
G37*
G36*
X191279000Y-89799000D02*
G01*
X188977000Y-89799000D01*
X188977000Y-88497000D01*
X191279000Y-88497000D01*
X191279000Y-89799000D01*
X191279000Y-89799000D01*
G37*
G36*
X140151000Y-89766000D02*
G01*
X139249000Y-89766000D01*
X139249000Y-88764000D01*
X140151000Y-88764000D01*
X140151000Y-89766000D01*
X140151000Y-89766000D01*
G37*
G36*
X117668571Y-87862863D02*
G01*
X117747023Y-87870590D01*
X117832437Y-87896500D01*
X117898013Y-87916392D01*
X118037165Y-87990771D01*
X118159133Y-88090867D01*
X118259229Y-88212835D01*
X118333608Y-88351987D01*
X118333608Y-88351988D01*
X118379410Y-88502977D01*
X118394875Y-88660000D01*
X118379410Y-88817023D01*
X118360791Y-88878400D01*
X118333608Y-88968013D01*
X118259229Y-89107165D01*
X118159133Y-89229133D01*
X118037165Y-89329229D01*
X117898013Y-89403608D01*
X117847682Y-89418875D01*
X117747023Y-89449410D01*
X117668571Y-89457137D01*
X117629346Y-89461000D01*
X116050654Y-89461000D01*
X116011429Y-89457137D01*
X115932977Y-89449410D01*
X115832318Y-89418875D01*
X115781987Y-89403608D01*
X115642835Y-89329229D01*
X115520867Y-89229133D01*
X115420771Y-89107165D01*
X115346392Y-88968013D01*
X115319209Y-88878400D01*
X115300590Y-88817023D01*
X115285125Y-88660000D01*
X115300590Y-88502977D01*
X115346392Y-88351988D01*
X115346392Y-88351987D01*
X115420771Y-88212835D01*
X115520867Y-88090867D01*
X115642835Y-87990771D01*
X115781987Y-87916392D01*
X115847563Y-87896500D01*
X115932977Y-87870590D01*
X116011429Y-87862863D01*
X116050654Y-87859000D01*
X117629346Y-87859000D01*
X117668571Y-87862863D01*
X117668571Y-87862863D01*
G37*
G36*
X122668571Y-87862863D02*
G01*
X122747023Y-87870590D01*
X122832437Y-87896500D01*
X122898013Y-87916392D01*
X123037165Y-87990771D01*
X123159133Y-88090867D01*
X123259229Y-88212835D01*
X123333608Y-88351987D01*
X123333608Y-88351988D01*
X123379410Y-88502977D01*
X123394875Y-88660000D01*
X123379410Y-88817023D01*
X123360791Y-88878400D01*
X123333608Y-88968013D01*
X123259229Y-89107165D01*
X123159133Y-89229133D01*
X123037165Y-89329229D01*
X122898013Y-89403608D01*
X122847682Y-89418875D01*
X122747023Y-89449410D01*
X122668571Y-89457137D01*
X122629346Y-89461000D01*
X121050654Y-89461000D01*
X121011429Y-89457137D01*
X120932977Y-89449410D01*
X120832318Y-89418875D01*
X120781987Y-89403608D01*
X120642835Y-89329229D01*
X120520867Y-89229133D01*
X120420771Y-89107165D01*
X120346392Y-88968013D01*
X120319209Y-88878400D01*
X120300590Y-88817023D01*
X120285125Y-88660000D01*
X120300590Y-88502977D01*
X120346392Y-88351988D01*
X120346392Y-88351987D01*
X120420771Y-88212835D01*
X120520867Y-88090867D01*
X120642835Y-87990771D01*
X120781987Y-87916392D01*
X120847563Y-87896500D01*
X120932977Y-87870590D01*
X121011429Y-87862863D01*
X121050654Y-87859000D01*
X122629346Y-87859000D01*
X122668571Y-87862863D01*
X122668571Y-87862863D01*
G37*
G36*
X166236000Y-88291000D02*
G01*
X165234000Y-88291000D01*
X165234000Y-86189000D01*
X166236000Y-86189000D01*
X166236000Y-88291000D01*
X166236000Y-88291000D01*
G37*
G36*
X164966000Y-88291000D02*
G01*
X163964000Y-88291000D01*
X163964000Y-86189000D01*
X164966000Y-86189000D01*
X164966000Y-88291000D01*
X164966000Y-88291000D01*
G37*
G36*
X152266000Y-88291000D02*
G01*
X151264000Y-88291000D01*
X151264000Y-86189000D01*
X152266000Y-86189000D01*
X152266000Y-88291000D01*
X152266000Y-88291000D01*
G37*
G36*
X163696000Y-88291000D02*
G01*
X162694000Y-88291000D01*
X162694000Y-86189000D01*
X163696000Y-86189000D01*
X163696000Y-88291000D01*
X163696000Y-88291000D01*
G37*
G36*
X162426000Y-88291000D02*
G01*
X161424000Y-88291000D01*
X161424000Y-86189000D01*
X162426000Y-86189000D01*
X162426000Y-88291000D01*
X162426000Y-88291000D01*
G37*
G36*
X161156000Y-88291000D02*
G01*
X160154000Y-88291000D01*
X160154000Y-86189000D01*
X161156000Y-86189000D01*
X161156000Y-88291000D01*
X161156000Y-88291000D01*
G37*
G36*
X159886000Y-88291000D02*
G01*
X158884000Y-88291000D01*
X158884000Y-86189000D01*
X159886000Y-86189000D01*
X159886000Y-88291000D01*
X159886000Y-88291000D01*
G37*
G36*
X158616000Y-88291000D02*
G01*
X157614000Y-88291000D01*
X157614000Y-86189000D01*
X158616000Y-86189000D01*
X158616000Y-88291000D01*
X158616000Y-88291000D01*
G37*
G36*
X157346000Y-88291000D02*
G01*
X156344000Y-88291000D01*
X156344000Y-86189000D01*
X157346000Y-86189000D01*
X157346000Y-88291000D01*
X157346000Y-88291000D01*
G37*
G36*
X156076000Y-88291000D02*
G01*
X155074000Y-88291000D01*
X155074000Y-86189000D01*
X156076000Y-86189000D01*
X156076000Y-88291000D01*
X156076000Y-88291000D01*
G37*
G36*
X154806000Y-88291000D02*
G01*
X153804000Y-88291000D01*
X153804000Y-86189000D01*
X154806000Y-86189000D01*
X154806000Y-88291000D01*
X154806000Y-88291000D01*
G37*
G36*
X153536000Y-88291000D02*
G01*
X152534000Y-88291000D01*
X152534000Y-86189000D01*
X153536000Y-86189000D01*
X153536000Y-88291000D01*
X153536000Y-88291000D01*
G37*
G36*
X150996000Y-88291000D02*
G01*
X149994000Y-88291000D01*
X149994000Y-86189000D01*
X150996000Y-86189000D01*
X150996000Y-88291000D01*
X150996000Y-88291000D01*
G37*
G36*
X149726000Y-88291000D02*
G01*
X148724000Y-88291000D01*
X148724000Y-86189000D01*
X149726000Y-86189000D01*
X149726000Y-88291000D01*
X149726000Y-88291000D01*
G37*
G36*
X141101000Y-87766000D02*
G01*
X140199000Y-87766000D01*
X140199000Y-86764000D01*
X141101000Y-86764000D01*
X141101000Y-87766000D01*
X141101000Y-87766000D01*
G37*
G36*
X139201000Y-87766000D02*
G01*
X138299000Y-87766000D01*
X138299000Y-86764000D01*
X139201000Y-86764000D01*
X139201000Y-87766000D01*
X139201000Y-87766000D01*
G37*
G36*
X132225936Y-85361340D02*
G01*
X132324220Y-85371020D01*
X132513381Y-85428401D01*
X132687712Y-85521583D01*
X132840515Y-85646985D01*
X132965917Y-85799788D01*
X133059099Y-85974119D01*
X133116480Y-86163280D01*
X133135855Y-86360000D01*
X133116480Y-86556720D01*
X133059099Y-86745881D01*
X132965917Y-86920212D01*
X132840515Y-87073015D01*
X132687712Y-87198417D01*
X132513381Y-87291599D01*
X132324220Y-87348980D01*
X132225936Y-87358660D01*
X132176795Y-87363500D01*
X131983205Y-87363500D01*
X131934064Y-87358660D01*
X131835780Y-87348980D01*
X131646619Y-87291599D01*
X131472288Y-87198417D01*
X131319485Y-87073015D01*
X131194083Y-86920212D01*
X131100901Y-86745881D01*
X131043520Y-86556720D01*
X131024145Y-86360000D01*
X131043520Y-86163280D01*
X131100901Y-85974119D01*
X131194083Y-85799788D01*
X131319485Y-85646985D01*
X131472288Y-85521583D01*
X131646619Y-85428401D01*
X131835780Y-85371020D01*
X131934064Y-85361340D01*
X131983205Y-85356500D01*
X132176795Y-85356500D01*
X132225936Y-85361340D01*
X132225936Y-85361340D01*
G37*
G36*
X194824604Y-85812347D02*
G01*
X194861144Y-85823432D01*
X194894821Y-85841433D01*
X194924341Y-85865659D01*
X194948567Y-85895179D01*
X194966568Y-85928856D01*
X194977653Y-85965396D01*
X194982000Y-86009538D01*
X194982000Y-86958462D01*
X194977653Y-87002604D01*
X194966568Y-87039144D01*
X194948567Y-87072821D01*
X194924341Y-87102341D01*
X194894821Y-87126567D01*
X194861144Y-87144568D01*
X194824604Y-87155653D01*
X194780462Y-87160000D01*
X193331538Y-87160000D01*
X193287396Y-87155653D01*
X193250856Y-87144568D01*
X193217179Y-87126567D01*
X193187659Y-87102341D01*
X193163433Y-87072821D01*
X193145432Y-87039144D01*
X193134347Y-87002604D01*
X193130000Y-86958462D01*
X193130000Y-86009538D01*
X193134347Y-85965396D01*
X193145432Y-85928856D01*
X193163433Y-85895179D01*
X193187659Y-85865659D01*
X193217179Y-85841433D01*
X193250856Y-85823432D01*
X193287396Y-85812347D01*
X193331538Y-85808000D01*
X194780462Y-85808000D01*
X194824604Y-85812347D01*
X194824604Y-85812347D01*
G37*
G36*
X191279000Y-85239000D02*
G01*
X188977000Y-85239000D01*
X188977000Y-83937000D01*
X191279000Y-83937000D01*
X191279000Y-85239000D01*
X191279000Y-85239000D01*
G37*
G36*
X149276000Y-84956000D02*
G01*
X147174000Y-84956000D01*
X147174000Y-83954000D01*
X149276000Y-83954000D01*
X149276000Y-84956000D01*
X149276000Y-84956000D01*
G37*
G36*
X133131000Y-84823500D02*
G01*
X131029000Y-84823500D01*
X131029000Y-82816500D01*
X133131000Y-82816500D01*
X133131000Y-84823500D01*
X133131000Y-84823500D01*
G37*
G36*
X200770443Y-82925519D02*
G01*
X200836627Y-82932037D01*
X201006466Y-82983557D01*
X201162991Y-83067222D01*
X201191802Y-83090867D01*
X201300186Y-83179814D01*
X201383448Y-83281271D01*
X201412778Y-83317009D01*
X201496443Y-83473534D01*
X201547963Y-83643373D01*
X201565359Y-83820000D01*
X201547963Y-83996627D01*
X201496443Y-84166466D01*
X201412778Y-84322991D01*
X201383448Y-84358729D01*
X201300186Y-84460186D01*
X201198729Y-84543448D01*
X201162991Y-84572778D01*
X201006466Y-84656443D01*
X200836627Y-84707963D01*
X200770443Y-84714481D01*
X200704260Y-84721000D01*
X200615740Y-84721000D01*
X200549557Y-84714481D01*
X200483373Y-84707963D01*
X200313534Y-84656443D01*
X200157009Y-84572778D01*
X200121271Y-84543448D01*
X200019814Y-84460186D01*
X199936552Y-84358729D01*
X199907222Y-84322991D01*
X199823557Y-84166466D01*
X199772037Y-83996627D01*
X199754641Y-83820000D01*
X199772037Y-83643373D01*
X199823557Y-83473534D01*
X199907222Y-83317009D01*
X199936552Y-83281271D01*
X200019814Y-83179814D01*
X200128198Y-83090867D01*
X200157009Y-83067222D01*
X200313534Y-82983557D01*
X200483373Y-82932037D01*
X200549557Y-82925519D01*
X200615740Y-82919000D01*
X200704260Y-82919000D01*
X200770443Y-82925519D01*
X200770443Y-82925519D01*
G37*
G36*
X117668571Y-82862863D02*
G01*
X117747023Y-82870590D01*
X117847682Y-82901125D01*
X117898013Y-82916392D01*
X118037165Y-82990771D01*
X118159133Y-83090867D01*
X118259229Y-83212835D01*
X118333608Y-83351987D01*
X118333608Y-83351988D01*
X118379410Y-83502977D01*
X118394875Y-83660000D01*
X118379410Y-83817023D01*
X118371498Y-83843105D01*
X118333608Y-83968013D01*
X118259229Y-84107165D01*
X118159133Y-84229133D01*
X118037165Y-84329229D01*
X117898013Y-84403608D01*
X117847682Y-84418875D01*
X117747023Y-84449410D01*
X117668571Y-84457137D01*
X117629346Y-84461000D01*
X116050654Y-84461000D01*
X116011429Y-84457137D01*
X115932977Y-84449410D01*
X115832318Y-84418875D01*
X115781987Y-84403608D01*
X115642835Y-84329229D01*
X115520867Y-84229133D01*
X115420771Y-84107165D01*
X115346392Y-83968013D01*
X115308502Y-83843105D01*
X115300590Y-83817023D01*
X115285125Y-83660000D01*
X115300590Y-83502977D01*
X115346392Y-83351988D01*
X115346392Y-83351987D01*
X115420771Y-83212835D01*
X115520867Y-83090867D01*
X115642835Y-82990771D01*
X115781987Y-82916392D01*
X115832318Y-82901125D01*
X115932977Y-82870590D01*
X116011429Y-82862863D01*
X116050654Y-82859000D01*
X117629346Y-82859000D01*
X117668571Y-82862863D01*
X117668571Y-82862863D01*
G37*
G36*
X122668571Y-82862863D02*
G01*
X122747023Y-82870590D01*
X122847682Y-82901125D01*
X122898013Y-82916392D01*
X123037165Y-82990771D01*
X123159133Y-83090867D01*
X123259229Y-83212835D01*
X123333608Y-83351987D01*
X123333608Y-83351988D01*
X123379410Y-83502977D01*
X123394875Y-83660000D01*
X123379410Y-83817023D01*
X123371498Y-83843105D01*
X123333608Y-83968013D01*
X123259229Y-84107165D01*
X123159133Y-84229133D01*
X123037165Y-84329229D01*
X122898013Y-84403608D01*
X122847682Y-84418875D01*
X122747023Y-84449410D01*
X122668571Y-84457137D01*
X122629346Y-84461000D01*
X121050654Y-84461000D01*
X121011429Y-84457137D01*
X120932977Y-84449410D01*
X120832318Y-84418875D01*
X120781987Y-84403608D01*
X120642835Y-84329229D01*
X120520867Y-84229133D01*
X120420771Y-84107165D01*
X120346392Y-83968013D01*
X120308502Y-83843105D01*
X120300590Y-83817023D01*
X120285125Y-83660000D01*
X120300590Y-83502977D01*
X120346392Y-83351988D01*
X120346392Y-83351987D01*
X120420771Y-83212835D01*
X120520867Y-83090867D01*
X120642835Y-82990771D01*
X120781987Y-82916392D01*
X120832318Y-82901125D01*
X120932977Y-82870590D01*
X121011429Y-82862863D01*
X121050654Y-82859000D01*
X122629346Y-82859000D01*
X122668571Y-82862863D01*
X122668571Y-82862863D01*
G37*
G36*
X142435562Y-82263181D02*
G01*
X142470481Y-82273774D01*
X142502663Y-82290976D01*
X142530873Y-82314127D01*
X142554024Y-82342337D01*
X142571226Y-82374519D01*
X142581819Y-82409438D01*
X142586000Y-82451895D01*
X142586000Y-83918105D01*
X142581819Y-83960562D01*
X142571226Y-83995481D01*
X142554024Y-84027663D01*
X142530873Y-84055873D01*
X142502663Y-84079024D01*
X142470481Y-84096226D01*
X142435562Y-84106819D01*
X142393105Y-84111000D01*
X141251895Y-84111000D01*
X141209438Y-84106819D01*
X141174519Y-84096226D01*
X141142337Y-84079024D01*
X141114127Y-84055873D01*
X141090976Y-84027663D01*
X141073774Y-83995481D01*
X141063181Y-83960562D01*
X141059000Y-83918105D01*
X141059000Y-82451895D01*
X141063181Y-82409438D01*
X141073774Y-82374519D01*
X141090976Y-82342337D01*
X141114127Y-82314127D01*
X141142337Y-82290976D01*
X141174519Y-82273774D01*
X141209438Y-82263181D01*
X141251895Y-82259000D01*
X142393105Y-82259000D01*
X142435562Y-82263181D01*
X142435562Y-82263181D01*
G37*
G36*
X139460562Y-82263181D02*
G01*
X139495481Y-82273774D01*
X139527663Y-82290976D01*
X139555873Y-82314127D01*
X139579024Y-82342337D01*
X139596226Y-82374519D01*
X139606819Y-82409438D01*
X139611000Y-82451895D01*
X139611000Y-83918105D01*
X139606819Y-83960562D01*
X139596226Y-83995481D01*
X139579024Y-84027663D01*
X139555873Y-84055873D01*
X139527663Y-84079024D01*
X139495481Y-84096226D01*
X139460562Y-84106819D01*
X139418105Y-84111000D01*
X138276895Y-84111000D01*
X138234438Y-84106819D01*
X138199519Y-84096226D01*
X138167337Y-84079024D01*
X138139127Y-84055873D01*
X138115976Y-84027663D01*
X138098774Y-83995481D01*
X138088181Y-83960562D01*
X138084000Y-83918105D01*
X138084000Y-82451895D01*
X138088181Y-82409438D01*
X138098774Y-82374519D01*
X138115976Y-82342337D01*
X138139127Y-82314127D01*
X138167337Y-82290976D01*
X138199519Y-82273774D01*
X138234438Y-82263181D01*
X138276895Y-82259000D01*
X139418105Y-82259000D01*
X139460562Y-82263181D01*
X139460562Y-82263181D01*
G37*
G36*
X149276000Y-83686000D02*
G01*
X147174000Y-83686000D01*
X147174000Y-82684000D01*
X149276000Y-82684000D01*
X149276000Y-83686000D01*
X149276000Y-83686000D01*
G37*
G36*
X186062604Y-80993347D02*
G01*
X186099144Y-81004432D01*
X186132821Y-81022433D01*
X186162341Y-81046659D01*
X186186567Y-81076179D01*
X186204568Y-81109856D01*
X186215653Y-81146396D01*
X186220000Y-81190538D01*
X186220000Y-82639462D01*
X186215653Y-82683604D01*
X186204568Y-82720144D01*
X186186567Y-82753821D01*
X186162341Y-82783341D01*
X186132821Y-82807567D01*
X186099144Y-82825568D01*
X186062604Y-82836653D01*
X186018462Y-82841000D01*
X185069538Y-82841000D01*
X185025396Y-82836653D01*
X184988856Y-82825568D01*
X184955179Y-82807567D01*
X184925659Y-82783341D01*
X184901433Y-82753821D01*
X184883432Y-82720144D01*
X184872347Y-82683604D01*
X184868000Y-82639462D01*
X184868000Y-81190538D01*
X184872347Y-81146396D01*
X184883432Y-81109856D01*
X184901433Y-81076179D01*
X184925659Y-81046659D01*
X184955179Y-81022433D01*
X184988856Y-81004432D01*
X185025396Y-80993347D01*
X185069538Y-80989000D01*
X186018462Y-80989000D01*
X186062604Y-80993347D01*
X186062604Y-80993347D01*
G37*
G36*
X188862604Y-80993347D02*
G01*
X188899144Y-81004432D01*
X188932821Y-81022433D01*
X188962341Y-81046659D01*
X188986567Y-81076179D01*
X189004568Y-81109856D01*
X189015653Y-81146396D01*
X189020000Y-81190538D01*
X189020000Y-82639462D01*
X189015653Y-82683604D01*
X189004568Y-82720144D01*
X188986567Y-82753821D01*
X188962341Y-82783341D01*
X188932821Y-82807567D01*
X188899144Y-82825568D01*
X188862604Y-82836653D01*
X188818462Y-82841000D01*
X187869538Y-82841000D01*
X187825396Y-82836653D01*
X187788856Y-82825568D01*
X187755179Y-82807567D01*
X187725659Y-82783341D01*
X187701433Y-82753821D01*
X187683432Y-82720144D01*
X187672347Y-82683604D01*
X187668000Y-82639462D01*
X187668000Y-81190538D01*
X187672347Y-81146396D01*
X187683432Y-81109856D01*
X187701433Y-81076179D01*
X187725659Y-81046659D01*
X187755179Y-81022433D01*
X187788856Y-81004432D01*
X187825396Y-80993347D01*
X187869538Y-80989000D01*
X188818462Y-80989000D01*
X188862604Y-80993347D01*
X188862604Y-80993347D01*
G37*
G36*
X149276000Y-82416000D02*
G01*
X147174000Y-82416000D01*
X147174000Y-81414000D01*
X149276000Y-81414000D01*
X149276000Y-82416000D01*
X149276000Y-82416000D01*
G37*
G36*
X200770442Y-80385518D02*
G01*
X200836627Y-80392037D01*
X201006466Y-80443557D01*
X201162991Y-80527222D01*
X201198729Y-80556552D01*
X201300186Y-80639814D01*
X201383448Y-80741271D01*
X201412778Y-80777009D01*
X201496443Y-80933534D01*
X201547963Y-81103373D01*
X201565359Y-81280000D01*
X201547963Y-81456627D01*
X201496443Y-81626466D01*
X201412778Y-81782991D01*
X201383448Y-81818729D01*
X201300186Y-81920186D01*
X201198729Y-82003448D01*
X201162991Y-82032778D01*
X201006466Y-82116443D01*
X200836627Y-82167963D01*
X200770443Y-82174481D01*
X200704260Y-82181000D01*
X200615740Y-82181000D01*
X200549557Y-82174481D01*
X200483373Y-82167963D01*
X200313534Y-82116443D01*
X200157009Y-82032778D01*
X200121271Y-82003448D01*
X200019814Y-81920186D01*
X199936552Y-81818729D01*
X199907222Y-81782991D01*
X199823557Y-81626466D01*
X199772037Y-81456627D01*
X199754641Y-81280000D01*
X199772037Y-81103373D01*
X199823557Y-80933534D01*
X199907222Y-80777009D01*
X199936552Y-80741271D01*
X200019814Y-80639814D01*
X200121271Y-80556552D01*
X200157009Y-80527222D01*
X200313534Y-80443557D01*
X200483373Y-80392037D01*
X200549558Y-80385518D01*
X200615740Y-80379000D01*
X200704260Y-80379000D01*
X200770442Y-80385518D01*
X200770442Y-80385518D01*
G37*
G36*
X149276000Y-81146000D02*
G01*
X147174000Y-81146000D01*
X147174000Y-80144000D01*
X149276000Y-80144000D01*
X149276000Y-81146000D01*
X149276000Y-81146000D01*
G37*
G36*
X160786000Y-80291000D02*
G01*
X155684000Y-80291000D01*
X155684000Y-75189000D01*
X160786000Y-75189000D01*
X160786000Y-80291000D01*
X160786000Y-80291000D01*
G37*
G36*
X149276000Y-79876000D02*
G01*
X147174000Y-79876000D01*
X147174000Y-78874000D01*
X149276000Y-78874000D01*
X149276000Y-79876000D01*
X149276000Y-79876000D01*
G37*
G36*
X200770443Y-77845519D02*
G01*
X200836627Y-77852037D01*
X201006466Y-77903557D01*
X201006468Y-77903558D01*
X201084728Y-77945389D01*
X201162991Y-77987222D01*
X201167315Y-77990771D01*
X201300186Y-78099814D01*
X201383448Y-78201271D01*
X201412778Y-78237009D01*
X201412779Y-78237011D01*
X201474236Y-78351987D01*
X201496443Y-78393534D01*
X201547963Y-78563373D01*
X201565359Y-78740000D01*
X201547963Y-78916627D01*
X201496443Y-79086466D01*
X201412778Y-79242991D01*
X201383448Y-79278729D01*
X201300186Y-79380186D01*
X201215835Y-79449410D01*
X201162991Y-79492778D01*
X201006466Y-79576443D01*
X200836627Y-79627963D01*
X200770442Y-79634482D01*
X200704260Y-79641000D01*
X200615740Y-79641000D01*
X200549558Y-79634482D01*
X200483373Y-79627963D01*
X200313534Y-79576443D01*
X200157009Y-79492778D01*
X200104165Y-79449410D01*
X200019814Y-79380186D01*
X199936552Y-79278729D01*
X199907222Y-79242991D01*
X199823557Y-79086466D01*
X199772037Y-78916627D01*
X199754641Y-78740000D01*
X199772037Y-78563373D01*
X199823557Y-78393534D01*
X199845765Y-78351987D01*
X199907221Y-78237011D01*
X199907222Y-78237009D01*
X199936552Y-78201271D01*
X200019814Y-78099814D01*
X200152685Y-77990771D01*
X200157009Y-77987222D01*
X200235272Y-77945389D01*
X200313532Y-77903558D01*
X200313534Y-77903557D01*
X200483373Y-77852037D01*
X200549557Y-77845519D01*
X200615740Y-77839000D01*
X200704260Y-77839000D01*
X200770443Y-77845519D01*
X200770443Y-77845519D01*
G37*
G36*
X122668571Y-77862863D02*
G01*
X122747023Y-77870590D01*
X122847682Y-77901125D01*
X122898013Y-77916392D01*
X123037165Y-77990771D01*
X123159133Y-78090867D01*
X123259229Y-78212835D01*
X123333608Y-78351987D01*
X123333608Y-78351988D01*
X123379410Y-78502977D01*
X123394875Y-78660000D01*
X123379410Y-78817023D01*
X123362126Y-78874000D01*
X123333608Y-78968013D01*
X123259229Y-79107165D01*
X123159133Y-79229133D01*
X123037165Y-79329229D01*
X122898013Y-79403608D01*
X122847682Y-79418875D01*
X122747023Y-79449410D01*
X122668571Y-79457137D01*
X122629346Y-79461000D01*
X121050654Y-79461000D01*
X121011429Y-79457137D01*
X120932977Y-79449410D01*
X120832318Y-79418875D01*
X120781987Y-79403608D01*
X120642835Y-79329229D01*
X120520867Y-79229133D01*
X120420771Y-79107165D01*
X120346392Y-78968013D01*
X120317874Y-78874000D01*
X120300590Y-78817023D01*
X120285125Y-78660000D01*
X120300590Y-78502977D01*
X120346392Y-78351988D01*
X120346392Y-78351987D01*
X120420771Y-78212835D01*
X120520867Y-78090867D01*
X120642835Y-77990771D01*
X120781987Y-77916392D01*
X120832318Y-77901125D01*
X120932977Y-77870590D01*
X121011429Y-77862863D01*
X121050654Y-77859000D01*
X122629346Y-77859000D01*
X122668571Y-77862863D01*
X122668571Y-77862863D01*
G37*
G36*
X117668571Y-77862863D02*
G01*
X117747023Y-77870590D01*
X117847682Y-77901125D01*
X117898013Y-77916392D01*
X118037165Y-77990771D01*
X118159133Y-78090867D01*
X118259229Y-78212835D01*
X118333608Y-78351987D01*
X118333608Y-78351988D01*
X118379410Y-78502977D01*
X118394875Y-78660000D01*
X118379410Y-78817023D01*
X118362126Y-78874000D01*
X118333608Y-78968013D01*
X118259229Y-79107165D01*
X118159133Y-79229133D01*
X118037165Y-79329229D01*
X117898013Y-79403608D01*
X117847682Y-79418875D01*
X117747023Y-79449410D01*
X117668571Y-79457137D01*
X117629346Y-79461000D01*
X116050654Y-79461000D01*
X116011429Y-79457137D01*
X115932977Y-79449410D01*
X115832318Y-79418875D01*
X115781987Y-79403608D01*
X115642835Y-79329229D01*
X115520867Y-79229133D01*
X115420771Y-79107165D01*
X115346392Y-78968013D01*
X115317874Y-78874000D01*
X115300590Y-78817023D01*
X115285125Y-78660000D01*
X115300590Y-78502977D01*
X115346392Y-78351988D01*
X115346392Y-78351987D01*
X115420771Y-78212835D01*
X115520867Y-78090867D01*
X115642835Y-77990771D01*
X115781987Y-77916392D01*
X115832318Y-77901125D01*
X115932977Y-77870590D01*
X116011429Y-77862863D01*
X116050654Y-77859000D01*
X117629346Y-77859000D01*
X117668571Y-77862863D01*
X117668571Y-77862863D01*
G37*
G36*
X149276000Y-78606000D02*
G01*
X147174000Y-78606000D01*
X147174000Y-77604000D01*
X149276000Y-77604000D01*
X149276000Y-78606000D01*
X149276000Y-78606000D01*
G37*
G36*
X149276000Y-77336000D02*
G01*
X147174000Y-77336000D01*
X147174000Y-76334000D01*
X149276000Y-76334000D01*
X149276000Y-77336000D01*
X149276000Y-77336000D01*
G37*
G36*
X132225936Y-75201340D02*
G01*
X132324220Y-75211020D01*
X132513381Y-75268401D01*
X132687712Y-75361583D01*
X132840515Y-75486985D01*
X132965917Y-75639788D01*
X133059099Y-75814119D01*
X133116480Y-76003280D01*
X133135855Y-76200000D01*
X133116480Y-76396720D01*
X133059099Y-76585881D01*
X132965917Y-76760212D01*
X132840515Y-76913015D01*
X132687712Y-77038417D01*
X132513381Y-77131599D01*
X132324220Y-77188980D01*
X132225936Y-77198660D01*
X132176795Y-77203500D01*
X131983205Y-77203500D01*
X131934064Y-77198660D01*
X131835780Y-77188980D01*
X131646619Y-77131599D01*
X131472288Y-77038417D01*
X131319485Y-76913015D01*
X131194083Y-76760212D01*
X131100901Y-76585881D01*
X131043520Y-76396720D01*
X131024145Y-76200000D01*
X131043520Y-76003280D01*
X131100901Y-75814119D01*
X131194083Y-75639788D01*
X131319485Y-75486985D01*
X131472288Y-75361583D01*
X131646619Y-75268401D01*
X131835780Y-75211020D01*
X131934064Y-75201340D01*
X131983205Y-75196500D01*
X132176795Y-75196500D01*
X132225936Y-75201340D01*
X132225936Y-75201340D01*
G37*
G36*
X201561000Y-77101000D02*
G01*
X199759000Y-77101000D01*
X199759000Y-75299000D01*
X201561000Y-75299000D01*
X201561000Y-77101000D01*
X201561000Y-77101000D01*
G37*
G36*
X140151000Y-77066000D02*
G01*
X139249000Y-77066000D01*
X139249000Y-76064000D01*
X140151000Y-76064000D01*
X140151000Y-77066000D01*
X140151000Y-77066000D01*
G37*
G36*
X189112601Y-75234397D02*
G01*
X189151305Y-75242096D01*
X189183340Y-75255365D01*
X189260680Y-75287400D01*
X189359115Y-75353173D01*
X189442827Y-75436885D01*
X189508600Y-75535320D01*
X189540635Y-75612660D01*
X189553904Y-75644695D01*
X189577000Y-75760807D01*
X189577000Y-75879193D01*
X189553904Y-75995305D01*
X189540635Y-76027340D01*
X189508600Y-76104680D01*
X189442827Y-76203115D01*
X189359115Y-76286827D01*
X189260680Y-76352600D01*
X189183340Y-76384635D01*
X189151305Y-76397904D01*
X189112601Y-76405603D01*
X189035195Y-76421000D01*
X188916805Y-76421000D01*
X188839399Y-76405603D01*
X188800695Y-76397904D01*
X188768660Y-76384635D01*
X188691320Y-76352600D01*
X188592885Y-76286827D01*
X188509173Y-76203115D01*
X188443400Y-76104680D01*
X188411365Y-76027340D01*
X188398096Y-75995305D01*
X188375000Y-75879193D01*
X188375000Y-75760807D01*
X188398096Y-75644695D01*
X188411365Y-75612660D01*
X188443400Y-75535320D01*
X188509173Y-75436885D01*
X188592885Y-75353173D01*
X188691320Y-75287400D01*
X188768660Y-75255365D01*
X188800695Y-75242096D01*
X188839399Y-75234397D01*
X188916805Y-75219000D01*
X189035195Y-75219000D01*
X189112601Y-75234397D01*
X189112601Y-75234397D01*
G37*
G36*
X149276000Y-76066000D02*
G01*
X147174000Y-76066000D01*
X147174000Y-75064000D01*
X149276000Y-75064000D01*
X149276000Y-76066000D01*
X149276000Y-76066000D01*
G37*
G36*
X141101000Y-75066000D02*
G01*
X140199000Y-75066000D01*
X140199000Y-74064000D01*
X141101000Y-74064000D01*
X141101000Y-75066000D01*
X141101000Y-75066000D01*
G37*
G36*
X139201000Y-75066000D02*
G01*
X138299000Y-75066000D01*
X138299000Y-74064000D01*
X139201000Y-74064000D01*
X139201000Y-75066000D01*
X139201000Y-75066000D01*
G37*
G36*
X149276000Y-74796000D02*
G01*
X147174000Y-74796000D01*
X147174000Y-73794000D01*
X149276000Y-73794000D01*
X149276000Y-74796000D01*
X149276000Y-74796000D01*
G37*
G36*
X191679468Y-72605668D02*
G01*
X191695568Y-72607254D01*
X191781900Y-72633443D01*
X191868234Y-72659632D01*
X192027365Y-72744689D01*
X192166844Y-72859156D01*
X192281311Y-72998635D01*
X192366368Y-73157766D01*
X192401287Y-73272878D01*
X192418746Y-73330432D01*
X192418746Y-73330434D01*
X192432000Y-73465003D01*
X192432000Y-73854998D01*
X192418746Y-73989567D01*
X192366368Y-74162234D01*
X192281311Y-74321365D01*
X192166844Y-74460844D01*
X192027364Y-74575311D01*
X191868233Y-74660368D01*
X191781899Y-74686557D01*
X191695567Y-74712746D01*
X191679467Y-74714332D01*
X191516000Y-74730432D01*
X191352532Y-74714332D01*
X191336432Y-74712746D01*
X191163766Y-74660368D01*
X191004635Y-74575311D01*
X190865156Y-74460844D01*
X190750689Y-74321364D01*
X190665632Y-74162233D01*
X190635833Y-74064000D01*
X190613254Y-73989567D01*
X190600170Y-73856718D01*
X190600000Y-73854997D01*
X190600000Y-73465002D01*
X190613254Y-73330433D01*
X190665632Y-73157766D01*
X190750689Y-72998635D01*
X190865157Y-72859156D01*
X191004636Y-72744689D01*
X191163767Y-72659632D01*
X191336433Y-72607254D01*
X191352533Y-72605668D01*
X191516000Y-72589568D01*
X191679468Y-72605668D01*
X191679468Y-72605668D01*
G37*
G36*
X186599468Y-72605668D02*
G01*
X186615568Y-72607254D01*
X186701900Y-72633443D01*
X186788234Y-72659632D01*
X186947365Y-72744689D01*
X187086844Y-72859156D01*
X187201311Y-72998635D01*
X187286368Y-73157766D01*
X187321287Y-73272878D01*
X187338746Y-73330432D01*
X187338746Y-73330434D01*
X187352000Y-73465003D01*
X187352000Y-73854998D01*
X187338746Y-73989567D01*
X187286368Y-74162234D01*
X187201311Y-74321365D01*
X187086844Y-74460844D01*
X186947364Y-74575311D01*
X186788233Y-74660368D01*
X186701899Y-74686557D01*
X186615567Y-74712746D01*
X186599467Y-74714332D01*
X186436000Y-74730432D01*
X186272532Y-74714332D01*
X186256432Y-74712746D01*
X186083766Y-74660368D01*
X185924635Y-74575311D01*
X185785156Y-74460844D01*
X185670689Y-74321364D01*
X185585632Y-74162233D01*
X185555833Y-74064000D01*
X185533254Y-73989567D01*
X185520170Y-73856718D01*
X185520000Y-73854997D01*
X185520000Y-73465002D01*
X185533254Y-73330433D01*
X185585632Y-73157766D01*
X185670689Y-72998635D01*
X185785157Y-72859156D01*
X185924636Y-72744689D01*
X186083767Y-72659632D01*
X186256433Y-72607254D01*
X186272533Y-72605668D01*
X186436000Y-72589568D01*
X186599468Y-72605668D01*
X186599468Y-72605668D01*
G37*
G36*
X189139468Y-72605668D02*
G01*
X189155568Y-72607254D01*
X189241900Y-72633443D01*
X189328234Y-72659632D01*
X189487365Y-72744689D01*
X189626844Y-72859156D01*
X189741311Y-72998635D01*
X189826368Y-73157766D01*
X189861287Y-73272878D01*
X189878746Y-73330432D01*
X189878746Y-73330434D01*
X189892000Y-73465003D01*
X189892000Y-73854998D01*
X189878746Y-73989567D01*
X189826368Y-74162234D01*
X189741311Y-74321365D01*
X189626844Y-74460844D01*
X189487364Y-74575311D01*
X189328233Y-74660368D01*
X189241899Y-74686557D01*
X189155567Y-74712746D01*
X189139467Y-74714332D01*
X188976000Y-74730432D01*
X188812532Y-74714332D01*
X188796432Y-74712746D01*
X188623766Y-74660368D01*
X188464635Y-74575311D01*
X188325156Y-74460844D01*
X188210689Y-74321364D01*
X188125632Y-74162233D01*
X188095833Y-74064000D01*
X188073254Y-73989567D01*
X188060170Y-73856718D01*
X188060000Y-73854997D01*
X188060000Y-73465002D01*
X188073254Y-73330433D01*
X188125632Y-73157766D01*
X188210689Y-72998635D01*
X188325157Y-72859156D01*
X188464636Y-72744689D01*
X188623767Y-72659632D01*
X188796433Y-72607254D01*
X188812533Y-72605668D01*
X188976000Y-72589568D01*
X189139468Y-72605668D01*
X189139468Y-72605668D01*
G37*
G36*
X194972000Y-74726000D02*
G01*
X193140000Y-74726000D01*
X193140000Y-72594000D01*
X194972000Y-72594000D01*
X194972000Y-74726000D01*
X194972000Y-74726000D01*
G37*
G36*
X132225936Y-72661340D02*
G01*
X132324220Y-72671020D01*
X132513381Y-72728401D01*
X132687712Y-72821583D01*
X132840515Y-72946985D01*
X132965917Y-73099788D01*
X133059099Y-73274119D01*
X133116480Y-73463280D01*
X133135855Y-73660000D01*
X133116480Y-73856720D01*
X133059099Y-74045881D01*
X132965917Y-74220212D01*
X132840515Y-74373015D01*
X132687712Y-74498417D01*
X132513381Y-74591599D01*
X132324220Y-74648980D01*
X132225936Y-74658660D01*
X132176795Y-74663500D01*
X131983205Y-74663500D01*
X131934064Y-74658660D01*
X131835780Y-74648980D01*
X131646619Y-74591599D01*
X131472288Y-74498417D01*
X131319485Y-74373015D01*
X131194083Y-74220212D01*
X131100901Y-74045881D01*
X131043520Y-73856720D01*
X131024145Y-73660000D01*
X131043520Y-73463280D01*
X131100901Y-73274119D01*
X131194083Y-73099788D01*
X131319485Y-72946985D01*
X131472288Y-72821583D01*
X131646619Y-72728401D01*
X131835780Y-72671020D01*
X131934064Y-72661340D01*
X131983205Y-72656500D01*
X132176795Y-72656500D01*
X132225936Y-72661340D01*
X132225936Y-72661340D01*
G37*
G36*
X123391000Y-74461000D02*
G01*
X120289000Y-74461000D01*
X120289000Y-72859000D01*
X123391000Y-72859000D01*
X123391000Y-74461000D01*
X123391000Y-74461000D01*
G37*
G36*
X118391000Y-74461000D02*
G01*
X115289000Y-74461000D01*
X115289000Y-72859000D01*
X118391000Y-72859000D01*
X118391000Y-74461000D01*
X118391000Y-74461000D01*
G37*
G36*
X149276000Y-73526000D02*
G01*
X147174000Y-73526000D01*
X147174000Y-72524000D01*
X149276000Y-72524000D01*
X149276000Y-73526000D01*
X149276000Y-73526000D01*
G37*
G36*
X133131000Y-72123500D02*
G01*
X131029000Y-72123500D01*
X131029000Y-70116500D01*
X133131000Y-70116500D01*
X133131000Y-72123500D01*
X133131000Y-72123500D01*
G37*
G36*
X200770442Y-70225518D02*
G01*
X200836627Y-70232037D01*
X201006466Y-70283557D01*
X201162991Y-70367222D01*
X201198729Y-70396552D01*
X201300186Y-70479814D01*
X201383448Y-70581271D01*
X201412778Y-70617009D01*
X201496443Y-70773534D01*
X201547963Y-70943373D01*
X201565359Y-71120000D01*
X201547963Y-71296627D01*
X201496443Y-71466466D01*
X201412778Y-71622991D01*
X201383448Y-71658729D01*
X201300186Y-71760186D01*
X201198729Y-71843448D01*
X201162991Y-71872778D01*
X201006466Y-71956443D01*
X200836627Y-72007963D01*
X200770443Y-72014481D01*
X200704260Y-72021000D01*
X200615740Y-72021000D01*
X200549557Y-72014481D01*
X200483373Y-72007963D01*
X200313534Y-71956443D01*
X200157009Y-71872778D01*
X200121271Y-71843448D01*
X200019814Y-71760186D01*
X199936552Y-71658729D01*
X199907222Y-71622991D01*
X199823557Y-71466466D01*
X199772037Y-71296627D01*
X199754641Y-71120000D01*
X199772037Y-70943373D01*
X199823557Y-70773534D01*
X199907222Y-70617009D01*
X199936552Y-70581271D01*
X200019814Y-70479814D01*
X200121271Y-70396552D01*
X200157009Y-70367222D01*
X200313534Y-70283557D01*
X200483373Y-70232037D01*
X200549558Y-70225518D01*
X200615740Y-70219000D01*
X200704260Y-70219000D01*
X200770442Y-70225518D01*
X200770442Y-70225518D01*
G37*
G36*
X139878062Y-69563181D02*
G01*
X139912981Y-69573774D01*
X139945163Y-69590976D01*
X139973373Y-69614127D01*
X139996524Y-69642337D01*
X140013726Y-69674519D01*
X140024319Y-69709438D01*
X140028500Y-69751895D01*
X140028500Y-71218105D01*
X140024319Y-71260562D01*
X140013726Y-71295481D01*
X139996524Y-71327663D01*
X139973373Y-71355873D01*
X139945163Y-71379024D01*
X139912981Y-71396226D01*
X139878062Y-71406819D01*
X139835605Y-71411000D01*
X138694395Y-71411000D01*
X138651938Y-71406819D01*
X138617019Y-71396226D01*
X138584837Y-71379024D01*
X138556627Y-71355873D01*
X138533476Y-71327663D01*
X138516274Y-71295481D01*
X138505681Y-71260562D01*
X138501500Y-71218105D01*
X138501500Y-69751895D01*
X138505681Y-69709438D01*
X138516274Y-69674519D01*
X138533476Y-69642337D01*
X138556627Y-69614127D01*
X138584837Y-69590976D01*
X138617019Y-69573774D01*
X138651938Y-69563181D01*
X138694395Y-69559000D01*
X139835605Y-69559000D01*
X139878062Y-69563181D01*
X139878062Y-69563181D01*
G37*
G36*
X142853062Y-69563181D02*
G01*
X142887981Y-69573774D01*
X142920163Y-69590976D01*
X142948373Y-69614127D01*
X142971524Y-69642337D01*
X142988726Y-69674519D01*
X142999319Y-69709438D01*
X143003500Y-69751895D01*
X143003500Y-71218105D01*
X142999319Y-71260562D01*
X142988726Y-71295481D01*
X142971524Y-71327663D01*
X142948373Y-71355873D01*
X142920163Y-71379024D01*
X142887981Y-71396226D01*
X142853062Y-71406819D01*
X142810605Y-71411000D01*
X141669395Y-71411000D01*
X141626938Y-71406819D01*
X141592019Y-71396226D01*
X141559837Y-71379024D01*
X141531627Y-71355873D01*
X141508476Y-71327663D01*
X141491274Y-71295481D01*
X141480681Y-71260562D01*
X141476500Y-71218105D01*
X141476500Y-69751895D01*
X141480681Y-69709438D01*
X141491274Y-69674519D01*
X141508476Y-69642337D01*
X141531627Y-69614127D01*
X141559837Y-69590976D01*
X141592019Y-69573774D01*
X141626938Y-69563181D01*
X141669395Y-69559000D01*
X142810605Y-69559000D01*
X142853062Y-69563181D01*
X142853062Y-69563181D01*
G37*
G36*
X149726000Y-71291000D02*
G01*
X148724000Y-71291000D01*
X148724000Y-69189000D01*
X149726000Y-69189000D01*
X149726000Y-71291000D01*
X149726000Y-71291000D01*
G37*
G36*
X150996000Y-71291000D02*
G01*
X149994000Y-71291000D01*
X149994000Y-69189000D01*
X150996000Y-69189000D01*
X150996000Y-71291000D01*
X150996000Y-71291000D01*
G37*
G36*
X152266000Y-71291000D02*
G01*
X151264000Y-71291000D01*
X151264000Y-69189000D01*
X152266000Y-69189000D01*
X152266000Y-71291000D01*
X152266000Y-71291000D01*
G37*
G36*
X153536000Y-71291000D02*
G01*
X152534000Y-71291000D01*
X152534000Y-69189000D01*
X153536000Y-69189000D01*
X153536000Y-71291000D01*
X153536000Y-71291000D01*
G37*
G36*
X154806000Y-71291000D02*
G01*
X153804000Y-71291000D01*
X153804000Y-69189000D01*
X154806000Y-69189000D01*
X154806000Y-71291000D01*
X154806000Y-71291000D01*
G37*
G36*
X156076000Y-71291000D02*
G01*
X155074000Y-71291000D01*
X155074000Y-69189000D01*
X156076000Y-69189000D01*
X156076000Y-71291000D01*
X156076000Y-71291000D01*
G37*
G36*
X163696000Y-71291000D02*
G01*
X162694000Y-71291000D01*
X162694000Y-69189000D01*
X163696000Y-69189000D01*
X163696000Y-71291000D01*
X163696000Y-71291000D01*
G37*
G36*
X166236000Y-71291000D02*
G01*
X165234000Y-71291000D01*
X165234000Y-69189000D01*
X166236000Y-69189000D01*
X166236000Y-71291000D01*
X166236000Y-71291000D01*
G37*
G36*
X164966000Y-71291000D02*
G01*
X163964000Y-71291000D01*
X163964000Y-69189000D01*
X164966000Y-69189000D01*
X164966000Y-71291000D01*
X164966000Y-71291000D01*
G37*
G36*
X162426000Y-71291000D02*
G01*
X161424000Y-71291000D01*
X161424000Y-69189000D01*
X162426000Y-69189000D01*
X162426000Y-71291000D01*
X162426000Y-71291000D01*
G37*
G36*
X157346000Y-71291000D02*
G01*
X156344000Y-71291000D01*
X156344000Y-69189000D01*
X157346000Y-69189000D01*
X157346000Y-71291000D01*
X157346000Y-71291000D01*
G37*
G36*
X159886000Y-71291000D02*
G01*
X158884000Y-71291000D01*
X158884000Y-69189000D01*
X159886000Y-69189000D01*
X159886000Y-71291000D01*
X159886000Y-71291000D01*
G37*
G36*
X161156000Y-71291000D02*
G01*
X160154000Y-71291000D01*
X160154000Y-69189000D01*
X161156000Y-69189000D01*
X161156000Y-71291000D01*
X161156000Y-71291000D01*
G37*
G36*
X158616000Y-71291000D02*
G01*
X157614000Y-71291000D01*
X157614000Y-69189000D01*
X158616000Y-69189000D01*
X158616000Y-71291000D01*
X158616000Y-71291000D01*
G37*
G36*
X200770443Y-67685519D02*
G01*
X200836627Y-67692037D01*
X201006466Y-67743557D01*
X201162991Y-67827222D01*
X201198729Y-67856552D01*
X201300186Y-67939814D01*
X201383448Y-68041271D01*
X201412778Y-68077009D01*
X201496443Y-68233534D01*
X201547963Y-68403373D01*
X201565359Y-68580000D01*
X201547963Y-68756627D01*
X201496443Y-68926466D01*
X201412778Y-69082991D01*
X201383448Y-69118729D01*
X201300186Y-69220186D01*
X201198729Y-69303448D01*
X201162991Y-69332778D01*
X201006466Y-69416443D01*
X200836627Y-69467963D01*
X200770442Y-69474482D01*
X200704260Y-69481000D01*
X200615740Y-69481000D01*
X200549558Y-69474482D01*
X200483373Y-69467963D01*
X200313534Y-69416443D01*
X200157009Y-69332778D01*
X200121271Y-69303448D01*
X200019814Y-69220186D01*
X199936552Y-69118729D01*
X199907222Y-69082991D01*
X199823557Y-68926466D01*
X199772037Y-68756627D01*
X199754641Y-68580000D01*
X199772037Y-68403373D01*
X199823557Y-68233534D01*
X199907222Y-68077009D01*
X199936552Y-68041271D01*
X200019814Y-67939814D01*
X200121271Y-67856552D01*
X200157009Y-67827222D01*
X200313534Y-67743557D01*
X200483373Y-67692037D01*
X200549557Y-67685519D01*
X200615740Y-67679000D01*
X200704260Y-67679000D01*
X200770443Y-67685519D01*
X200770443Y-67685519D01*
G37*
G36*
X189112601Y-66344397D02*
G01*
X189151305Y-66352096D01*
X189183340Y-66365365D01*
X189260680Y-66397400D01*
X189359115Y-66463173D01*
X189442827Y-66546885D01*
X189508600Y-66645320D01*
X189553904Y-66754696D01*
X189577000Y-66870805D01*
X189577000Y-66989195D01*
X189553904Y-67105304D01*
X189508600Y-67214680D01*
X189442827Y-67313115D01*
X189359115Y-67396827D01*
X189260680Y-67462600D01*
X189183340Y-67494635D01*
X189151305Y-67507904D01*
X189112601Y-67515603D01*
X189035195Y-67531000D01*
X188916805Y-67531000D01*
X188839399Y-67515603D01*
X188800695Y-67507904D01*
X188768660Y-67494635D01*
X188691320Y-67462600D01*
X188592885Y-67396827D01*
X188509173Y-67313115D01*
X188443400Y-67214680D01*
X188398096Y-67105304D01*
X188375000Y-66989195D01*
X188375000Y-66870805D01*
X188398096Y-66754696D01*
X188443400Y-66645320D01*
X188509173Y-66546885D01*
X188592885Y-66463173D01*
X188691320Y-66397400D01*
X188768660Y-66365365D01*
X188800695Y-66352096D01*
X188839399Y-66344397D01*
X188916805Y-66329000D01*
X189035195Y-66329000D01*
X189112601Y-66344397D01*
X189112601Y-66344397D01*
G37*
G36*
X201561000Y-66941000D02*
G01*
X199759000Y-66941000D01*
X199759000Y-65139000D01*
X201561000Y-65139000D01*
X201561000Y-66941000D01*
X201561000Y-66941000D01*
G37*
G36*
X191679468Y-63715668D02*
G01*
X191695568Y-63717254D01*
X191781900Y-63743443D01*
X191868234Y-63769632D01*
X192027365Y-63854689D01*
X192166844Y-63969156D01*
X192281311Y-64108635D01*
X192366368Y-64267766D01*
X192372991Y-64289600D01*
X192418746Y-64440432D01*
X192418746Y-64440434D01*
X192432000Y-64575003D01*
X192432000Y-64964998D01*
X192418746Y-65099567D01*
X192366368Y-65272234D01*
X192281311Y-65431365D01*
X192166844Y-65570844D01*
X192027364Y-65685311D01*
X191868233Y-65770368D01*
X191695567Y-65822746D01*
X191679467Y-65824332D01*
X191516000Y-65840432D01*
X191352532Y-65824332D01*
X191336432Y-65822746D01*
X191163766Y-65770368D01*
X191004635Y-65685311D01*
X190865156Y-65570844D01*
X190750689Y-65431364D01*
X190665632Y-65272233D01*
X190625216Y-65139000D01*
X190613254Y-65099567D01*
X190611361Y-65080342D01*
X190600000Y-64964997D01*
X190600000Y-64575002D01*
X190613254Y-64440433D01*
X190665632Y-64267766D01*
X190750689Y-64108635D01*
X190865157Y-63969156D01*
X191004636Y-63854689D01*
X191163767Y-63769632D01*
X191250101Y-63743443D01*
X191336433Y-63717254D01*
X191352533Y-63715668D01*
X191516000Y-63699568D01*
X191679468Y-63715668D01*
X191679468Y-63715668D01*
G37*
G36*
X189139468Y-63715668D02*
G01*
X189155568Y-63717254D01*
X189241900Y-63743443D01*
X189328234Y-63769632D01*
X189487365Y-63854689D01*
X189626844Y-63969156D01*
X189741311Y-64108635D01*
X189826368Y-64267766D01*
X189832991Y-64289600D01*
X189878746Y-64440432D01*
X189878746Y-64440434D01*
X189892000Y-64575003D01*
X189892000Y-64964998D01*
X189878746Y-65099567D01*
X189826368Y-65272234D01*
X189741311Y-65431365D01*
X189626844Y-65570844D01*
X189487364Y-65685311D01*
X189328233Y-65770368D01*
X189155567Y-65822746D01*
X189139467Y-65824332D01*
X188976000Y-65840432D01*
X188812532Y-65824332D01*
X188796432Y-65822746D01*
X188623766Y-65770368D01*
X188464635Y-65685311D01*
X188325156Y-65570844D01*
X188210689Y-65431364D01*
X188125632Y-65272233D01*
X188085216Y-65139000D01*
X188073254Y-65099567D01*
X188071361Y-65080342D01*
X188060000Y-64964997D01*
X188060000Y-64575002D01*
X188073254Y-64440433D01*
X188125632Y-64267766D01*
X188210689Y-64108635D01*
X188325157Y-63969156D01*
X188464636Y-63854689D01*
X188623767Y-63769632D01*
X188710101Y-63743443D01*
X188796433Y-63717254D01*
X188812533Y-63715668D01*
X188976000Y-63699568D01*
X189139468Y-63715668D01*
X189139468Y-63715668D01*
G37*
G36*
X186599468Y-63715668D02*
G01*
X186615568Y-63717254D01*
X186701900Y-63743443D01*
X186788234Y-63769632D01*
X186947365Y-63854689D01*
X187086844Y-63969156D01*
X187201311Y-64108635D01*
X187286368Y-64267766D01*
X187292991Y-64289600D01*
X187338746Y-64440432D01*
X187338746Y-64440434D01*
X187352000Y-64575003D01*
X187352000Y-64964998D01*
X187338746Y-65099567D01*
X187286368Y-65272234D01*
X187201311Y-65431365D01*
X187086844Y-65570844D01*
X186947364Y-65685311D01*
X186788233Y-65770368D01*
X186615567Y-65822746D01*
X186599467Y-65824332D01*
X186436000Y-65840432D01*
X186272532Y-65824332D01*
X186256432Y-65822746D01*
X186083766Y-65770368D01*
X185924635Y-65685311D01*
X185785156Y-65570844D01*
X185670689Y-65431364D01*
X185585632Y-65272233D01*
X185545216Y-65139000D01*
X185533254Y-65099567D01*
X185531361Y-65080342D01*
X185520000Y-64964997D01*
X185520000Y-64575002D01*
X185533254Y-64440433D01*
X185585632Y-64267766D01*
X185670689Y-64108635D01*
X185785157Y-63969156D01*
X185924636Y-63854689D01*
X186083767Y-63769632D01*
X186170101Y-63743443D01*
X186256433Y-63717254D01*
X186272533Y-63715668D01*
X186436000Y-63699568D01*
X186599468Y-63715668D01*
X186599468Y-63715668D01*
G37*
G36*
X194972000Y-65836000D02*
G01*
X193140000Y-65836000D01*
X193140000Y-63704000D01*
X194972000Y-63704000D01*
X194972000Y-65836000D01*
X194972000Y-65836000D01*
G37*
G36*
X144871000Y-64591000D02*
G01*
X143469000Y-64591000D01*
X143469000Y-63689000D01*
X144871000Y-63689000D01*
X144871000Y-64591000D01*
X144871000Y-64591000D01*
G37*
G36*
X151171000Y-64591000D02*
G01*
X149769000Y-64591000D01*
X149769000Y-63689000D01*
X151171000Y-63689000D01*
X151171000Y-64591000D01*
X151171000Y-64591000D01*
G37*
G36*
X162693604Y-63212347D02*
G01*
X162730144Y-63223432D01*
X162763821Y-63241433D01*
X162793341Y-63265659D01*
X162817567Y-63295179D01*
X162835568Y-63328856D01*
X162846653Y-63365396D01*
X162851000Y-63409538D01*
X162851000Y-64358462D01*
X162846653Y-64402604D01*
X162835568Y-64439144D01*
X162817567Y-64472821D01*
X162793341Y-64502341D01*
X162763821Y-64526567D01*
X162730144Y-64544568D01*
X162693604Y-64555653D01*
X162649462Y-64560000D01*
X161200538Y-64560000D01*
X161156396Y-64555653D01*
X161119856Y-64544568D01*
X161086179Y-64526567D01*
X161056659Y-64502341D01*
X161032433Y-64472821D01*
X161014432Y-64439144D01*
X161003347Y-64402604D01*
X160999000Y-64358462D01*
X160999000Y-63409538D01*
X161003347Y-63365396D01*
X161014432Y-63328856D01*
X161032433Y-63295179D01*
X161056659Y-63265659D01*
X161086179Y-63241433D01*
X161119856Y-63223432D01*
X161156396Y-63212347D01*
X161200538Y-63208000D01*
X162649462Y-63208000D01*
X162693604Y-63212347D01*
X162693604Y-63212347D01*
G37*
G36*
X179481000Y-63771000D02*
G01*
X173579000Y-63771000D01*
X173579000Y-57269000D01*
X179481000Y-57269000D01*
X179481000Y-63771000D01*
X179481000Y-63771000D01*
G37*
G36*
X151171000Y-63311000D02*
G01*
X149769000Y-63311000D01*
X149769000Y-62409000D01*
X151171000Y-62409000D01*
X151171000Y-63311000D01*
X151171000Y-63311000D01*
G37*
G36*
X144871000Y-63311000D02*
G01*
X143469000Y-63311000D01*
X143469000Y-62409000D01*
X144871000Y-62409000D01*
X144871000Y-63311000D01*
X144871000Y-63311000D01*
G37*
G36*
X129653512Y-59333927D02*
G01*
X129802812Y-59363624D01*
X129966784Y-59431544D01*
X130114354Y-59530147D01*
X130239853Y-59655646D01*
X130338456Y-59803216D01*
X130406376Y-59967188D01*
X130441000Y-60141259D01*
X130441000Y-60318741D01*
X130406376Y-60492812D01*
X130338456Y-60656784D01*
X130239853Y-60804354D01*
X130114354Y-60929853D01*
X129966784Y-61028456D01*
X129821771Y-61088523D01*
X129800171Y-61100068D01*
X129781229Y-61115613D01*
X129765684Y-61134555D01*
X129754133Y-61156166D01*
X129747020Y-61179615D01*
X129744618Y-61204001D01*
X129747020Y-61228387D01*
X129754133Y-61251836D01*
X129765684Y-61273447D01*
X129781229Y-61292389D01*
X129800171Y-61307934D01*
X129821782Y-61319485D01*
X129845231Y-61326598D01*
X129869617Y-61329000D01*
X130441000Y-61329000D01*
X130441000Y-63131000D01*
X128639000Y-63131000D01*
X128639000Y-61329000D01*
X129210383Y-61329000D01*
X129234769Y-61326598D01*
X129258218Y-61319485D01*
X129279829Y-61307934D01*
X129298771Y-61292389D01*
X129314316Y-61273447D01*
X129325867Y-61251836D01*
X129332980Y-61228387D01*
X129335382Y-61204001D01*
X129332980Y-61179615D01*
X129325867Y-61156166D01*
X129314316Y-61134555D01*
X129298771Y-61115613D01*
X129279829Y-61100068D01*
X129258229Y-61088523D01*
X129113216Y-61028456D01*
X128965646Y-60929853D01*
X128840147Y-60804354D01*
X128741544Y-60656784D01*
X128673624Y-60492812D01*
X128639000Y-60318741D01*
X128639000Y-60141259D01*
X128673624Y-59967188D01*
X128741544Y-59803216D01*
X128840147Y-59655646D01*
X128965646Y-59530147D01*
X129113216Y-59431544D01*
X129277188Y-59363624D01*
X129426488Y-59333927D01*
X129451258Y-59329000D01*
X129628742Y-59329000D01*
X129653512Y-59333927D01*
X129653512Y-59333927D01*
G37*
G36*
X132153512Y-59333927D02*
G01*
X132302812Y-59363624D01*
X132466784Y-59431544D01*
X132614354Y-59530147D01*
X132739853Y-59655646D01*
X132838456Y-59803216D01*
X132906376Y-59967188D01*
X132941000Y-60141259D01*
X132941000Y-60318741D01*
X132906376Y-60492812D01*
X132838456Y-60656784D01*
X132739853Y-60804354D01*
X132614354Y-60929853D01*
X132466784Y-61028456D01*
X132302812Y-61096376D01*
X132247362Y-61107405D01*
X132223922Y-61114516D01*
X132202311Y-61126067D01*
X132183369Y-61141613D01*
X132167824Y-61160555D01*
X132156273Y-61182165D01*
X132149160Y-61205614D01*
X132146758Y-61230000D01*
X132149160Y-61254387D01*
X132156273Y-61277835D01*
X132167824Y-61299446D01*
X132183370Y-61318388D01*
X132202312Y-61333933D01*
X132223922Y-61345484D01*
X132247362Y-61352595D01*
X132302812Y-61363624D01*
X132466784Y-61431544D01*
X132614354Y-61530147D01*
X132739853Y-61655646D01*
X132838456Y-61803216D01*
X132906376Y-61967188D01*
X132941000Y-62141259D01*
X132941000Y-62318741D01*
X132906376Y-62492812D01*
X132838456Y-62656784D01*
X132739853Y-62804354D01*
X132614354Y-62929853D01*
X132466784Y-63028456D01*
X132302812Y-63096376D01*
X132153512Y-63126073D01*
X132128742Y-63131000D01*
X131951258Y-63131000D01*
X131926488Y-63126073D01*
X131777188Y-63096376D01*
X131613216Y-63028456D01*
X131465646Y-62929853D01*
X131340147Y-62804354D01*
X131241544Y-62656784D01*
X131173624Y-62492812D01*
X131139000Y-62318741D01*
X131139000Y-62141259D01*
X131173624Y-61967188D01*
X131241544Y-61803216D01*
X131340147Y-61655646D01*
X131465646Y-61530147D01*
X131613216Y-61431544D01*
X131777188Y-61363624D01*
X131832638Y-61352595D01*
X131856078Y-61345484D01*
X131877689Y-61333933D01*
X131896631Y-61318387D01*
X131912176Y-61299445D01*
X131923727Y-61277835D01*
X131930840Y-61254386D01*
X131933242Y-61230000D01*
X131930840Y-61205613D01*
X131923727Y-61182165D01*
X131912176Y-61160554D01*
X131896630Y-61141612D01*
X131877688Y-61126067D01*
X131856078Y-61114516D01*
X131832638Y-61107405D01*
X131777188Y-61096376D01*
X131613216Y-61028456D01*
X131465646Y-60929853D01*
X131340147Y-60804354D01*
X131241544Y-60656784D01*
X131173624Y-60492812D01*
X131139000Y-60318741D01*
X131139000Y-60141259D01*
X131173624Y-59967188D01*
X131241544Y-59803216D01*
X131340147Y-59655646D01*
X131465646Y-59530147D01*
X131613216Y-59431544D01*
X131777188Y-59363624D01*
X131926488Y-59333927D01*
X131951258Y-59329000D01*
X132128742Y-59329000D01*
X132153512Y-59333927D01*
X132153512Y-59333927D01*
G37*
G36*
X168523228Y-60871703D02*
G01*
X168678100Y-60935853D01*
X168817481Y-61028985D01*
X168936015Y-61147519D01*
X169029147Y-61286900D01*
X169093297Y-61441772D01*
X169126000Y-61606184D01*
X169126000Y-61773816D01*
X169093297Y-61938228D01*
X169029147Y-62093100D01*
X168936015Y-62232481D01*
X168817481Y-62351015D01*
X168678100Y-62444147D01*
X168523228Y-62508297D01*
X168358816Y-62541000D01*
X168191184Y-62541000D01*
X168026772Y-62508297D01*
X167871900Y-62444147D01*
X167732519Y-62351015D01*
X167613985Y-62232481D01*
X167520853Y-62093100D01*
X167456703Y-61938228D01*
X167424000Y-61773816D01*
X167424000Y-61606184D01*
X167456703Y-61441772D01*
X167520853Y-61286900D01*
X167613985Y-61147519D01*
X167732519Y-61028985D01*
X167871900Y-60935853D01*
X168026772Y-60871703D01*
X168191184Y-60839000D01*
X168358816Y-60839000D01*
X168523228Y-60871703D01*
X168523228Y-60871703D01*
G37*
G36*
X155808642Y-60624781D02*
G01*
X155938089Y-60678400D01*
X155954416Y-60685163D01*
X156085608Y-60772822D01*
X156197178Y-60884392D01*
X156284837Y-61015584D01*
X156284838Y-61015586D01*
X156345219Y-61161358D01*
X156376000Y-61316107D01*
X156376000Y-61473893D01*
X156345219Y-61628642D01*
X156285086Y-61773815D01*
X156284837Y-61774416D01*
X156197178Y-61905608D01*
X156085608Y-62017178D01*
X155954416Y-62104837D01*
X155954415Y-62104838D01*
X155954414Y-62104838D01*
X155808642Y-62165219D01*
X155653893Y-62196000D01*
X155496107Y-62196000D01*
X155341358Y-62165219D01*
X155195586Y-62104838D01*
X155195585Y-62104838D01*
X155195584Y-62104837D01*
X155064392Y-62017178D01*
X154952822Y-61905608D01*
X154865163Y-61774416D01*
X154864914Y-61773815D01*
X154804781Y-61628642D01*
X154774000Y-61473893D01*
X154774000Y-61316107D01*
X154804781Y-61161358D01*
X154865162Y-61015586D01*
X154865163Y-61015584D01*
X154952822Y-60884392D01*
X155064392Y-60772822D01*
X155195584Y-60685163D01*
X155211911Y-60678400D01*
X155341358Y-60624781D01*
X155496107Y-60594000D01*
X155653893Y-60594000D01*
X155808642Y-60624781D01*
X155808642Y-60624781D01*
G37*
G36*
X151171000Y-62051000D02*
G01*
X149769000Y-62051000D01*
X149769000Y-61149000D01*
X151171000Y-61149000D01*
X151171000Y-62051000D01*
X151171000Y-62051000D01*
G37*
G36*
X144871000Y-62051000D02*
G01*
X143469000Y-62051000D01*
X143469000Y-61149000D01*
X144871000Y-61149000D01*
X144871000Y-62051000D01*
X144871000Y-62051000D01*
G37*
G36*
X162693604Y-60412347D02*
G01*
X162730144Y-60423432D01*
X162763821Y-60441433D01*
X162793341Y-60465659D01*
X162817567Y-60495179D01*
X162835568Y-60528856D01*
X162846653Y-60565396D01*
X162851000Y-60609538D01*
X162851000Y-61558462D01*
X162846653Y-61602604D01*
X162835568Y-61639144D01*
X162817567Y-61672821D01*
X162793341Y-61702341D01*
X162763821Y-61726567D01*
X162730144Y-61744568D01*
X162693604Y-61755653D01*
X162649462Y-61760000D01*
X161200538Y-61760000D01*
X161156396Y-61755653D01*
X161119856Y-61744568D01*
X161086179Y-61726567D01*
X161056659Y-61702341D01*
X161032433Y-61672821D01*
X161014432Y-61639144D01*
X161003347Y-61602604D01*
X160999000Y-61558462D01*
X160999000Y-60609538D01*
X161003347Y-60565396D01*
X161014432Y-60528856D01*
X161032433Y-60495179D01*
X161056659Y-60465659D01*
X161086179Y-60441433D01*
X161119856Y-60423432D01*
X161156396Y-60412347D01*
X161200538Y-60408000D01*
X162649462Y-60408000D01*
X162693604Y-60412347D01*
X162693604Y-60412347D01*
G37*
G36*
X151171000Y-60781000D02*
G01*
X149769000Y-60781000D01*
X149769000Y-59879000D01*
X151171000Y-59879000D01*
X151171000Y-60781000D01*
X151171000Y-60781000D01*
G37*
G36*
X144871000Y-60781000D02*
G01*
X143469000Y-60781000D01*
X143469000Y-59879000D01*
X144871000Y-59879000D01*
X144871000Y-60781000D01*
X144871000Y-60781000D01*
G37*
G36*
X169126000Y-60541000D02*
G01*
X167424000Y-60541000D01*
X167424000Y-58839000D01*
X169126000Y-58839000D01*
X169126000Y-60541000D01*
X169126000Y-60541000D01*
G37*
G36*
X144871000Y-59501000D02*
G01*
X143469000Y-59501000D01*
X143469000Y-58599000D01*
X144871000Y-58599000D01*
X144871000Y-59501000D01*
X144871000Y-59501000D01*
G37*
G36*
X151171000Y-59501000D02*
G01*
X149769000Y-59501000D01*
X149769000Y-58599000D01*
X151171000Y-58599000D01*
X151171000Y-59501000D01*
X151171000Y-59501000D01*
G37*
G36*
X125295331Y-55788211D02*
G01*
X125623092Y-55923974D01*
X125918070Y-56121072D01*
X126168928Y-56371930D01*
X126366026Y-56666908D01*
X126501789Y-56994669D01*
X126571000Y-57342616D01*
X126571000Y-57697384D01*
X126501789Y-58045331D01*
X126366026Y-58373092D01*
X126168928Y-58668070D01*
X125918070Y-58918928D01*
X125623092Y-59116026D01*
X125295331Y-59251789D01*
X124947384Y-59321000D01*
X124592616Y-59321000D01*
X124244669Y-59251789D01*
X123916908Y-59116026D01*
X123621930Y-58918928D01*
X123371072Y-58668070D01*
X123173974Y-58373092D01*
X123038211Y-58045331D01*
X122969000Y-57697384D01*
X122969000Y-57342616D01*
X123038211Y-56994669D01*
X123173974Y-56666908D01*
X123371072Y-56371930D01*
X123621930Y-56121072D01*
X123916908Y-55923974D01*
X124244669Y-55788211D01*
X124592616Y-55719000D01*
X124947384Y-55719000D01*
X125295331Y-55788211D01*
X125295331Y-55788211D01*
G37*
G36*
X137335331Y-55788211D02*
G01*
X137663092Y-55923974D01*
X137958070Y-56121072D01*
X138208928Y-56371930D01*
X138406026Y-56666908D01*
X138541789Y-56994669D01*
X138611000Y-57342616D01*
X138611000Y-57697384D01*
X138541789Y-58045331D01*
X138406026Y-58373092D01*
X138208928Y-58668070D01*
X137958070Y-58918928D01*
X137663092Y-59116026D01*
X137335331Y-59251789D01*
X136987384Y-59321000D01*
X136632616Y-59321000D01*
X136284669Y-59251789D01*
X135956908Y-59116026D01*
X135661930Y-58918928D01*
X135411072Y-58668070D01*
X135213974Y-58373092D01*
X135078211Y-58045331D01*
X135009000Y-57697384D01*
X135009000Y-57342616D01*
X135078211Y-56994669D01*
X135213974Y-56666908D01*
X135411072Y-56371930D01*
X135661930Y-56121072D01*
X135956908Y-55923974D01*
X136284669Y-55788211D01*
X136632616Y-55719000D01*
X136987384Y-55719000D01*
X137335331Y-55788211D01*
X137335331Y-55788211D01*
G37*
G36*
X203798711Y-52684400D02*
G01*
X204148282Y-52753934D01*
X204739926Y-52999001D01*
X205272392Y-53354784D01*
X205725216Y-53807608D01*
X206080999Y-54340074D01*
X206326066Y-54931718D01*
X206383138Y-55218637D01*
X206451000Y-55559803D01*
X206451000Y-56200197D01*
X206416840Y-56371930D01*
X206326066Y-56828282D01*
X206080999Y-57419926D01*
X205833265Y-57790685D01*
X205725217Y-57952391D01*
X205272391Y-58405217D01*
X205166477Y-58475986D01*
X204739926Y-58760999D01*
X204148282Y-59006066D01*
X203834239Y-59068533D01*
X203520197Y-59131000D01*
X202879803Y-59131000D01*
X202565761Y-59068533D01*
X202251718Y-59006066D01*
X201660074Y-58760999D01*
X201233523Y-58475986D01*
X201127609Y-58405217D01*
X200674783Y-57952391D01*
X200566735Y-57790685D01*
X200319001Y-57419926D01*
X200073934Y-56828282D01*
X199983160Y-56371930D01*
X199949000Y-56200197D01*
X199949000Y-55559803D01*
X200016862Y-55218637D01*
X200073934Y-54931718D01*
X200319001Y-54340074D01*
X200674784Y-53807608D01*
X201127608Y-53354784D01*
X201660074Y-52999001D01*
X202251718Y-52753934D01*
X202601289Y-52684400D01*
X202879803Y-52629000D01*
X203520197Y-52629000D01*
X203798711Y-52684400D01*
X203798711Y-52684400D01*
G37*
G36*
X117438711Y-52684400D02*
G01*
X117788282Y-52753934D01*
X118379926Y-52999001D01*
X118912392Y-53354784D01*
X119365216Y-53807608D01*
X119720999Y-54340074D01*
X119966066Y-54931718D01*
X120023138Y-55218637D01*
X120091000Y-55559803D01*
X120091000Y-56200197D01*
X120056840Y-56371930D01*
X119966066Y-56828282D01*
X119720999Y-57419926D01*
X119473265Y-57790685D01*
X119365217Y-57952391D01*
X118912391Y-58405217D01*
X118806477Y-58475986D01*
X118379926Y-58760999D01*
X117788282Y-59006066D01*
X117474239Y-59068533D01*
X117160197Y-59131000D01*
X116519803Y-59131000D01*
X116205761Y-59068533D01*
X115891718Y-59006066D01*
X115300074Y-58760999D01*
X114873523Y-58475986D01*
X114767609Y-58405217D01*
X114314783Y-57952391D01*
X114206735Y-57790685D01*
X113959001Y-57419926D01*
X113713934Y-56828282D01*
X113623160Y-56371930D01*
X113589000Y-56200197D01*
X113589000Y-55559803D01*
X113656862Y-55218637D01*
X113713934Y-54931718D01*
X113959001Y-54340074D01*
X114314784Y-53807608D01*
X114767608Y-53354784D01*
X115300074Y-52999001D01*
X115891718Y-52753934D01*
X116241289Y-52684400D01*
X116519803Y-52629000D01*
X117160197Y-52629000D01*
X117438711Y-52684400D01*
X117438711Y-52684400D01*
G37*
G36*
X189112601Y-57454397D02*
G01*
X189151305Y-57462096D01*
X189183340Y-57475365D01*
X189260680Y-57507400D01*
X189359115Y-57573173D01*
X189442827Y-57656885D01*
X189508600Y-57755320D01*
X189523248Y-57790685D01*
X189553845Y-57864552D01*
X189553904Y-57864696D01*
X189577000Y-57980805D01*
X189577000Y-58099195D01*
X189553904Y-58215304D01*
X189508600Y-58324680D01*
X189442827Y-58423115D01*
X189359115Y-58506827D01*
X189260680Y-58572600D01*
X189196943Y-58599000D01*
X189151305Y-58617904D01*
X189112601Y-58625603D01*
X189035195Y-58641000D01*
X188916805Y-58641000D01*
X188839399Y-58625603D01*
X188800695Y-58617904D01*
X188755057Y-58599000D01*
X188691320Y-58572600D01*
X188592885Y-58506827D01*
X188509173Y-58423115D01*
X188443400Y-58324680D01*
X188398096Y-58215304D01*
X188375000Y-58099195D01*
X188375000Y-57980805D01*
X188398096Y-57864696D01*
X188398156Y-57864552D01*
X188428752Y-57790685D01*
X188443400Y-57755320D01*
X188509173Y-57656885D01*
X188592885Y-57573173D01*
X188691320Y-57507400D01*
X188768660Y-57475365D01*
X188800695Y-57462096D01*
X188839399Y-57454397D01*
X188916805Y-57439000D01*
X189035195Y-57439000D01*
X189112601Y-57454397D01*
X189112601Y-57454397D01*
G37*
G36*
X144871000Y-58231000D02*
G01*
X143469000Y-58231000D01*
X143469000Y-57329000D01*
X144871000Y-57329000D01*
X144871000Y-58231000D01*
X144871000Y-58231000D01*
G37*
G36*
X151171000Y-58231000D02*
G01*
X149769000Y-58231000D01*
X149769000Y-57329000D01*
X151171000Y-57329000D01*
X151171000Y-58231000D01*
X151171000Y-58231000D01*
G37*
G36*
X155808642Y-55744781D02*
G01*
X155913493Y-55788212D01*
X155954416Y-55805163D01*
X156085608Y-55892822D01*
X156197178Y-56004392D01*
X156275140Y-56121072D01*
X156284838Y-56135586D01*
X156345219Y-56281358D01*
X156376000Y-56436107D01*
X156376000Y-56593893D01*
X156345219Y-56748642D01*
X156290656Y-56880368D01*
X156284837Y-56894416D01*
X156197178Y-57025608D01*
X156085608Y-57137178D01*
X155954416Y-57224837D01*
X155954415Y-57224838D01*
X155954414Y-57224838D01*
X155808642Y-57285219D01*
X155653893Y-57316000D01*
X155496107Y-57316000D01*
X155341358Y-57285219D01*
X155195586Y-57224838D01*
X155195585Y-57224838D01*
X155195584Y-57224837D01*
X155064392Y-57137178D01*
X154952822Y-57025608D01*
X154865163Y-56894416D01*
X154859344Y-56880368D01*
X154804781Y-56748642D01*
X154774000Y-56593893D01*
X154774000Y-56436107D01*
X154804781Y-56281358D01*
X154865162Y-56135586D01*
X154874860Y-56121072D01*
X154952822Y-56004392D01*
X155064392Y-55892822D01*
X155195584Y-55805163D01*
X155236507Y-55788212D01*
X155341358Y-55744781D01*
X155496107Y-55714000D01*
X155653893Y-55714000D01*
X155808642Y-55744781D01*
X155808642Y-55744781D01*
G37*
G36*
X151171000Y-56971000D02*
G01*
X149769000Y-56971000D01*
X149769000Y-56069000D01*
X151171000Y-56069000D01*
X151171000Y-56971000D01*
X151171000Y-56971000D01*
G37*
G36*
X144871000Y-56971000D02*
G01*
X143469000Y-56971000D01*
X143469000Y-56069000D01*
X144871000Y-56069000D01*
X144871000Y-56971000D01*
X144871000Y-56971000D01*
G37*
G36*
X186599468Y-54825668D02*
G01*
X186615568Y-54827254D01*
X186788234Y-54879632D01*
X186947365Y-54964689D01*
X187086844Y-55079156D01*
X187201311Y-55218635D01*
X187286368Y-55377766D01*
X187307167Y-55446332D01*
X187338746Y-55550432D01*
X187338746Y-55550434D01*
X187352000Y-55685003D01*
X187352000Y-56074998D01*
X187342890Y-56167496D01*
X187338746Y-56209568D01*
X187317480Y-56279671D01*
X187286368Y-56382234D01*
X187201311Y-56541365D01*
X187086844Y-56680844D01*
X186947364Y-56795311D01*
X186788233Y-56880368D01*
X186741923Y-56894416D01*
X186615567Y-56932746D01*
X186599467Y-56934332D01*
X186436000Y-56950432D01*
X186272532Y-56934332D01*
X186256432Y-56932746D01*
X186130076Y-56894416D01*
X186083766Y-56880368D01*
X185924635Y-56795311D01*
X185785156Y-56680844D01*
X185670689Y-56541364D01*
X185585632Y-56382233D01*
X185539548Y-56230314D01*
X185533254Y-56209567D01*
X185531361Y-56190342D01*
X185520000Y-56074997D01*
X185520000Y-55685002D01*
X185533254Y-55550433D01*
X185539548Y-55529686D01*
X185570090Y-55429000D01*
X185585632Y-55377766D01*
X185670689Y-55218635D01*
X185785157Y-55079156D01*
X185924636Y-54964689D01*
X186083767Y-54879632D01*
X186170101Y-54853443D01*
X186256433Y-54827254D01*
X186272533Y-54825668D01*
X186436000Y-54809568D01*
X186599468Y-54825668D01*
X186599468Y-54825668D01*
G37*
G36*
X189139468Y-54825668D02*
G01*
X189155568Y-54827254D01*
X189328234Y-54879632D01*
X189487365Y-54964689D01*
X189626844Y-55079156D01*
X189741311Y-55218635D01*
X189826368Y-55377766D01*
X189847167Y-55446332D01*
X189878746Y-55550432D01*
X189878746Y-55550434D01*
X189892000Y-55685003D01*
X189892000Y-56074998D01*
X189882890Y-56167496D01*
X189878746Y-56209568D01*
X189857480Y-56279671D01*
X189826368Y-56382234D01*
X189741311Y-56541365D01*
X189626844Y-56680844D01*
X189487364Y-56795311D01*
X189328233Y-56880368D01*
X189281923Y-56894416D01*
X189155567Y-56932746D01*
X189139467Y-56934332D01*
X188976000Y-56950432D01*
X188812532Y-56934332D01*
X188796432Y-56932746D01*
X188670076Y-56894416D01*
X188623766Y-56880368D01*
X188464635Y-56795311D01*
X188325156Y-56680844D01*
X188210689Y-56541364D01*
X188125632Y-56382233D01*
X188079548Y-56230314D01*
X188073254Y-56209567D01*
X188071361Y-56190342D01*
X188060000Y-56074997D01*
X188060000Y-55685002D01*
X188073254Y-55550433D01*
X188079548Y-55529686D01*
X188110090Y-55429000D01*
X188125632Y-55377766D01*
X188210689Y-55218635D01*
X188325157Y-55079156D01*
X188464636Y-54964689D01*
X188623767Y-54879632D01*
X188710101Y-54853443D01*
X188796433Y-54827254D01*
X188812533Y-54825668D01*
X188976000Y-54809568D01*
X189139468Y-54825668D01*
X189139468Y-54825668D01*
G37*
G36*
X191679468Y-54825668D02*
G01*
X191695568Y-54827254D01*
X191868234Y-54879632D01*
X192027365Y-54964689D01*
X192166844Y-55079156D01*
X192281311Y-55218635D01*
X192366368Y-55377766D01*
X192387167Y-55446332D01*
X192418746Y-55550432D01*
X192418746Y-55550434D01*
X192432000Y-55685003D01*
X192432000Y-56074998D01*
X192422890Y-56167496D01*
X192418746Y-56209568D01*
X192397480Y-56279671D01*
X192366368Y-56382234D01*
X192281311Y-56541365D01*
X192166844Y-56680844D01*
X192027364Y-56795311D01*
X191868233Y-56880368D01*
X191821923Y-56894416D01*
X191695567Y-56932746D01*
X191679467Y-56934332D01*
X191516000Y-56950432D01*
X191352532Y-56934332D01*
X191336432Y-56932746D01*
X191210076Y-56894416D01*
X191163766Y-56880368D01*
X191004635Y-56795311D01*
X190865156Y-56680844D01*
X190750689Y-56541364D01*
X190665632Y-56382233D01*
X190619548Y-56230314D01*
X190613254Y-56209567D01*
X190611361Y-56190342D01*
X190600000Y-56074997D01*
X190600000Y-55685002D01*
X190613254Y-55550433D01*
X190619548Y-55529686D01*
X190650090Y-55429000D01*
X190665632Y-55377766D01*
X190750689Y-55218635D01*
X190865157Y-55079156D01*
X191004636Y-54964689D01*
X191163767Y-54879632D01*
X191250101Y-54853443D01*
X191336433Y-54827254D01*
X191352533Y-54825668D01*
X191516000Y-54809568D01*
X191679468Y-54825668D01*
X191679468Y-54825668D01*
G37*
G36*
X194972000Y-56946000D02*
G01*
X193140000Y-56946000D01*
X193140000Y-54814000D01*
X194972000Y-54814000D01*
X194972000Y-56946000D01*
X194972000Y-56946000D01*
G37*
G36*
X162693604Y-55592347D02*
G01*
X162730144Y-55603432D01*
X162763821Y-55621433D01*
X162793341Y-55645659D01*
X162817567Y-55675179D01*
X162835568Y-55708856D01*
X162846653Y-55745396D01*
X162851000Y-55789538D01*
X162851000Y-56738462D01*
X162846653Y-56782604D01*
X162835568Y-56819144D01*
X162817567Y-56852821D01*
X162793341Y-56882341D01*
X162763821Y-56906567D01*
X162730144Y-56924568D01*
X162693604Y-56935653D01*
X162649462Y-56940000D01*
X161200538Y-56940000D01*
X161156396Y-56935653D01*
X161119856Y-56924568D01*
X161086179Y-56906567D01*
X161056659Y-56882341D01*
X161032433Y-56852821D01*
X161014432Y-56819144D01*
X161003347Y-56782604D01*
X160999000Y-56738462D01*
X160999000Y-55789538D01*
X161003347Y-55745396D01*
X161014432Y-55708856D01*
X161032433Y-55675179D01*
X161056659Y-55645659D01*
X161086179Y-55621433D01*
X161119856Y-55603432D01*
X161156396Y-55592347D01*
X161200538Y-55588000D01*
X162649462Y-55588000D01*
X162693604Y-55592347D01*
X162693604Y-55592347D01*
G37*
G36*
X144871000Y-55691000D02*
G01*
X143469000Y-55691000D01*
X143469000Y-54789000D01*
X144871000Y-54789000D01*
X144871000Y-55691000D01*
X144871000Y-55691000D01*
G37*
G36*
X151171000Y-55691000D02*
G01*
X149769000Y-55691000D01*
X149769000Y-54789000D01*
X151171000Y-54789000D01*
X151171000Y-55691000D01*
X151171000Y-55691000D01*
G37*
G36*
X174901000Y-55371000D02*
G01*
X173599000Y-55371000D01*
X173599000Y-53069000D01*
X174901000Y-53069000D01*
X174901000Y-55371000D01*
X174901000Y-55371000D01*
G37*
G36*
X179461000Y-55371000D02*
G01*
X178159000Y-55371000D01*
X178159000Y-53069000D01*
X179461000Y-53069000D01*
X179461000Y-55371000D01*
X179461000Y-55371000D01*
G37*
G36*
X167393604Y-52418347D02*
G01*
X167430144Y-52429432D01*
X167463821Y-52447433D01*
X167493341Y-52471659D01*
X167517567Y-52501179D01*
X167535568Y-52534856D01*
X167546653Y-52571396D01*
X167551000Y-52615538D01*
X167551000Y-54064462D01*
X167546653Y-54108604D01*
X167535568Y-54145144D01*
X167517567Y-54178821D01*
X167493341Y-54208341D01*
X167463821Y-54232567D01*
X167430144Y-54250568D01*
X167393604Y-54261653D01*
X167349462Y-54266000D01*
X166400538Y-54266000D01*
X166356396Y-54261653D01*
X166319856Y-54250568D01*
X166286179Y-54232567D01*
X166256659Y-54208341D01*
X166232433Y-54178821D01*
X166214432Y-54145144D01*
X166203347Y-54108604D01*
X166199000Y-54064462D01*
X166199000Y-52615538D01*
X166203347Y-52571396D01*
X166214432Y-52534856D01*
X166232433Y-52501179D01*
X166256659Y-52471659D01*
X166286179Y-52447433D01*
X166319856Y-52429432D01*
X166356396Y-52418347D01*
X166400538Y-52414000D01*
X167349462Y-52414000D01*
X167393604Y-52418347D01*
X167393604Y-52418347D01*
G37*
G36*
X170193604Y-52418347D02*
G01*
X170230144Y-52429432D01*
X170263821Y-52447433D01*
X170293341Y-52471659D01*
X170317567Y-52501179D01*
X170335568Y-52534856D01*
X170346653Y-52571396D01*
X170351000Y-52615538D01*
X170351000Y-54064462D01*
X170346653Y-54108604D01*
X170335568Y-54145144D01*
X170317567Y-54178821D01*
X170293341Y-54208341D01*
X170263821Y-54232567D01*
X170230144Y-54250568D01*
X170193604Y-54261653D01*
X170149462Y-54266000D01*
X169200538Y-54266000D01*
X169156396Y-54261653D01*
X169119856Y-54250568D01*
X169086179Y-54232567D01*
X169056659Y-54208341D01*
X169032433Y-54178821D01*
X169014432Y-54145144D01*
X169003347Y-54108604D01*
X168999000Y-54064462D01*
X168999000Y-52615538D01*
X169003347Y-52571396D01*
X169014432Y-52534856D01*
X169032433Y-52501179D01*
X169056659Y-52471659D01*
X169086179Y-52447433D01*
X169119856Y-52429432D01*
X169156396Y-52418347D01*
X169200538Y-52414000D01*
X170149462Y-52414000D01*
X170193604Y-52418347D01*
X170193604Y-52418347D01*
G37*
G36*
X162693604Y-52792347D02*
G01*
X162730144Y-52803432D01*
X162763821Y-52821433D01*
X162793341Y-52845659D01*
X162817567Y-52875179D01*
X162835568Y-52908856D01*
X162846653Y-52945396D01*
X162851000Y-52989538D01*
X162851000Y-53938462D01*
X162846653Y-53982604D01*
X162835568Y-54019144D01*
X162817567Y-54052821D01*
X162793341Y-54082341D01*
X162763821Y-54106567D01*
X162730144Y-54124568D01*
X162693604Y-54135653D01*
X162649462Y-54140000D01*
X161200538Y-54140000D01*
X161156396Y-54135653D01*
X161119856Y-54124568D01*
X161086179Y-54106567D01*
X161056659Y-54082341D01*
X161032433Y-54052821D01*
X161014432Y-54019144D01*
X161003347Y-53982604D01*
X160999000Y-53938462D01*
X160999000Y-52989538D01*
X161003347Y-52945396D01*
X161014432Y-52908856D01*
X161032433Y-52875179D01*
X161056659Y-52845659D01*
X161086179Y-52821433D01*
X161119856Y-52803432D01*
X161156396Y-52792347D01*
X161200538Y-52788000D01*
X162649462Y-52788000D01*
X162693604Y-52792347D01*
X162693604Y-52792347D01*
G37*
M02*
