G04 #@! TF.GenerationSoftware,KiCad,Pcbnew,5.1.4-e60b266~84~ubuntu18.04.1*
G04 #@! TF.CreationDate,2019-09-18T19:11:52+02:00*
G04 #@! TF.ProjectId,PCB,5043422e-6b69-4636-9164-5f7063625858,rev?*
G04 #@! TF.SameCoordinates,Original*
G04 #@! TF.FileFunction,Copper,L2,Bot*
G04 #@! TF.FilePolarity,Positive*
%FSLAX46Y46*%
G04 Gerber Fmt 4.6, Leading zero omitted, Abs format (unit mm)*
G04 Created by KiCad (PCBNEW 5.1.4-e60b266~84~ubuntu18.04.1) date 2019-09-18 19:11:52*
%MOMM*%
%LPD*%
G04 APERTURE LIST*
%ADD10C,0.050000*%
%ADD11C,1.500000*%
%ADD12O,2.000000X1.905000*%
%ADD13R,2.000000X1.905000*%
%ADD14O,1.905000X2.000000*%
%ADD15R,1.905000X2.000000*%
%ADD16O,1.700000X1.700000*%
%ADD17R,1.700000X1.700000*%
%ADD18O,3.000000X1.500000*%
%ADD19R,3.000000X1.500000*%
%ADD20O,1.500000X3.000000*%
%ADD21R,1.500000X3.000000*%
%ADD22O,1.730000X2.030000*%
%ADD23R,1.730000X2.030000*%
%ADD24C,3.500000*%
%ADD25C,1.700000*%
%ADD26C,0.800000*%
%ADD27C,6.400000*%
%ADD28C,1.600000*%
%ADD29R,1.600000X1.600000*%
%ADD30C,0.500000*%
%ADD31C,1.500000*%
%ADD32C,1.000000*%
%ADD33C,4.000000*%
%ADD34C,2.000000*%
%ADD35C,0.750000*%
%ADD36C,0.254000*%
G04 APERTURE END LIST*
D10*
X116840000Y-50800000D02*
X203200000Y-50800000D01*
X111760000Y-55880000D02*
G75*
G02X116840000Y-50800000I5080000J0D01*
G01*
X208280000Y-119380000D02*
X208280000Y-55880000D01*
X203200000Y-50800000D02*
G75*
G02X208280000Y-55880000I0J-5080000D01*
G01*
X111760000Y-119380000D02*
X111760000Y-55880000D01*
X116840000Y-124460000D02*
X203200000Y-124460000D01*
X116840000Y-124460000D02*
G75*
G02X111760000Y-119380000I0J5080000D01*
G01*
X208280000Y-119380000D02*
G75*
G02X203200000Y-124460000I-5080000J0D01*
G01*
D11*
X155575000Y-61395000D03*
X155575000Y-56515000D03*
D12*
X132080000Y-88900000D03*
X132080000Y-86360000D03*
D13*
X132080000Y-83820000D03*
D12*
X132080000Y-76200000D03*
X132080000Y-73660000D03*
D13*
X132080000Y-71120000D03*
D14*
X144240000Y-104140000D03*
X139700000Y-104140000D03*
D15*
X136160000Y-104140000D03*
D14*
X131540000Y-104140000D03*
X127000000Y-104140000D03*
D15*
X123460000Y-104140000D03*
D14*
X169640000Y-104140000D03*
X165100000Y-104140000D03*
D15*
X161560000Y-104140000D03*
D14*
X156940000Y-104140000D03*
X152400000Y-104140000D03*
D15*
X148860000Y-104140000D03*
D14*
X195040000Y-104140000D03*
X190500000Y-104140000D03*
D15*
X186960000Y-104140000D03*
D14*
X182340000Y-104140000D03*
X177800000Y-104140000D03*
D15*
X174260000Y-104140000D03*
D16*
X200660000Y-83820000D03*
X200660000Y-81280000D03*
X200660000Y-78740000D03*
D17*
X200660000Y-76200000D03*
D18*
X121840000Y-88660000D03*
X116840000Y-88660000D03*
X121840000Y-83660000D03*
X116840000Y-83660000D03*
X121840000Y-78660000D03*
X116840000Y-78660000D03*
D19*
X121840000Y-73660000D03*
X116840000Y-73660000D03*
D20*
X142000000Y-114380000D03*
X142000000Y-119380000D03*
X137000000Y-114380000D03*
X137000000Y-119380000D03*
X132000000Y-114380000D03*
X132000000Y-119380000D03*
D21*
X127000000Y-114380000D03*
X127000000Y-119380000D03*
D20*
X167400000Y-114380000D03*
X167400000Y-119380000D03*
X162400000Y-114380000D03*
X162400000Y-119380000D03*
X157400000Y-114380000D03*
X157400000Y-119380000D03*
D21*
X152400000Y-114380000D03*
X152400000Y-119380000D03*
D20*
X192800000Y-114380000D03*
X192800000Y-119380000D03*
X187800000Y-114380000D03*
X187800000Y-119380000D03*
X182800000Y-114380000D03*
X182800000Y-119380000D03*
D21*
X177800000Y-114380000D03*
X177800000Y-119380000D03*
D22*
X186436000Y-73660000D03*
X188976000Y-73660000D03*
X191516000Y-73660000D03*
D23*
X194056000Y-73660000D03*
D22*
X186436000Y-64770000D03*
X188976000Y-64770000D03*
X191516000Y-64770000D03*
D23*
X194056000Y-64770000D03*
D22*
X186436000Y-55880000D03*
X188976000Y-55880000D03*
X191516000Y-55880000D03*
D23*
X194056000Y-55880000D03*
D16*
X200660000Y-96520000D03*
X200660000Y-93980000D03*
X200660000Y-91440000D03*
D17*
X200660000Y-88900000D03*
D16*
X200660000Y-71120000D03*
X200660000Y-68580000D03*
D17*
X200660000Y-66040000D03*
D16*
X200660000Y-109220000D03*
X200660000Y-106680000D03*
D17*
X200660000Y-104140000D03*
D24*
X136810000Y-57520000D03*
X124770000Y-57520000D03*
D25*
X129540000Y-60230000D03*
X132040000Y-60230000D03*
X132040000Y-62230000D03*
D17*
X129540000Y-62230000D03*
D26*
X118537056Y-121077056D03*
X119240000Y-119380000D03*
X118537056Y-117682944D03*
X116840000Y-116980000D03*
X115142944Y-117682944D03*
X114440000Y-119380000D03*
X115142944Y-121077056D03*
X116840000Y-121780000D03*
D27*
X116840000Y-119380000D03*
D26*
X204897056Y-57577056D03*
X205600000Y-55880000D03*
X204897056Y-54182944D03*
X203200000Y-53480000D03*
X201502944Y-54182944D03*
X200800000Y-55880000D03*
X201502944Y-57577056D03*
X203200000Y-58280000D03*
D27*
X203200000Y-55880000D03*
D26*
X118537056Y-57577056D03*
X119240000Y-55880000D03*
X118537056Y-54182944D03*
X116840000Y-53480000D03*
X115142944Y-54182944D03*
X114440000Y-55880000D03*
X115142944Y-57577056D03*
X116840000Y-58280000D03*
D27*
X116840000Y-55880000D03*
D26*
X204897056Y-121217056D03*
X205600000Y-119520000D03*
X204897056Y-117822944D03*
X203200000Y-117120000D03*
X201502944Y-117822944D03*
X200800000Y-119520000D03*
X201502944Y-121217056D03*
X203200000Y-121920000D03*
D27*
X203200000Y-119520000D03*
D28*
X168275000Y-61690000D03*
D29*
X168275000Y-59690000D03*
D26*
X132080000Y-93980000D03*
X127965200Y-95529400D03*
X147701000Y-91414600D03*
X143789400Y-93599000D03*
X156260800Y-94259400D03*
X168681400Y-90754200D03*
X175768000Y-92506800D03*
X177241200Y-83185000D03*
X181559200Y-74726800D03*
X174269400Y-74523600D03*
X180441600Y-65811400D03*
X142316200Y-79476600D03*
X128041400Y-66929000D03*
X119583200Y-65024000D03*
X150545800Y-73634600D03*
X164998400Y-73939400D03*
X165176200Y-99187000D03*
X114300000Y-92075000D03*
X119634000Y-110896400D03*
X197916800Y-60706000D03*
X198297800Y-117627400D03*
X202006200Y-113182400D03*
X141605000Y-62865000D03*
X141605000Y-64135000D03*
X196215000Y-89535000D03*
X196215000Y-90805000D03*
X196215000Y-92075000D03*
X175260000Y-70485000D03*
X164465000Y-68580000D03*
X164465000Y-67945000D03*
X170180000Y-73025000D03*
X163830000Y-82550000D03*
X165100000Y-80010000D03*
X153670000Y-83185000D03*
X172085000Y-80645000D03*
X153670000Y-84455000D03*
X146685000Y-70485000D03*
X146050000Y-72390000D03*
X150495000Y-71740000D03*
X174625000Y-99060000D03*
X186055000Y-99060000D03*
X148590000Y-99060000D03*
X161290000Y-99060000D03*
X135890000Y-99060000D03*
X140335000Y-98425000D03*
X139700000Y-90805000D03*
X139065000Y-81280000D03*
X161925000Y-67310000D03*
X161925000Y-83185000D03*
X160655000Y-66040000D03*
X160655000Y-83185000D03*
D30*
X155575000Y-56515000D02*
X153035000Y-56515000D01*
X153035000Y-56515000D02*
X146685000Y-62865000D01*
X146685000Y-62865000D02*
X141605000Y-62865000D01*
X141605000Y-62865000D02*
X141605000Y-62865000D01*
X155575000Y-61395000D02*
X149425000Y-61395000D01*
X149425000Y-61395000D02*
X146685000Y-64135000D01*
X146685000Y-64135000D02*
X141605000Y-64135000D01*
X141605000Y-64135000D02*
X141605000Y-64135000D01*
D31*
X200660000Y-106680000D02*
X199390000Y-106680000D01*
X197990010Y-105280010D02*
X197990010Y-94485010D01*
X199390000Y-106680000D02*
X197990010Y-105280010D01*
X197990010Y-94485010D02*
X196215000Y-92710000D01*
X196215000Y-92710000D02*
X196215000Y-92075000D01*
X196215000Y-89535000D02*
X196215000Y-89535000D01*
X196215000Y-90805000D02*
X196215000Y-89535000D01*
X196215000Y-92075000D02*
X196215000Y-90805000D01*
X196215000Y-89535000D02*
X196215000Y-80645000D01*
X196215000Y-80645000D02*
X191770000Y-76200000D01*
X191516000Y-76175000D02*
X191516000Y-73660000D01*
X191770000Y-76200000D02*
X191541000Y-76200000D01*
X191541000Y-76200000D02*
X191516000Y-76175000D01*
X191516000Y-73660000D02*
X191516000Y-55880000D01*
D32*
X166475000Y-59690000D02*
X164465000Y-61700000D01*
X168275000Y-59690000D02*
X166475000Y-59690000D01*
X164465000Y-61700000D02*
X164465000Y-67945000D01*
X175260000Y-70485000D02*
X175260000Y-65405000D01*
X175260000Y-65405000D02*
X170180000Y-60325000D01*
X170075000Y-59690000D02*
X168275000Y-59690000D01*
X170180000Y-60325000D02*
X170180000Y-59795000D01*
X170180000Y-59795000D02*
X170075000Y-59690000D01*
X164465000Y-67945000D02*
X164465000Y-68580000D01*
D30*
X163830000Y-79375000D02*
X170180000Y-73025000D01*
X163830000Y-82550000D02*
X163830000Y-79375000D01*
X153670000Y-83185000D02*
X158750000Y-83185000D01*
X158750000Y-83185000D02*
X160020000Y-84455000D01*
X160020000Y-84455000D02*
X163830000Y-84455000D01*
X165100000Y-83185000D02*
X165100000Y-80010000D01*
X163830000Y-84455000D02*
X165100000Y-83185000D01*
X158750000Y-84455000D02*
X153670000Y-84455000D01*
X164119953Y-85155010D02*
X159450010Y-85155010D01*
X167005000Y-82269962D02*
X164119953Y-85155010D01*
X159450010Y-85155010D02*
X158750000Y-84455000D01*
X172085000Y-80645000D02*
X167005000Y-80645000D01*
X167005000Y-80645000D02*
X167005000Y-82269962D01*
X146685000Y-70485000D02*
X148590000Y-70485000D01*
X163195000Y-55880000D02*
X186436000Y-55880000D01*
X148590000Y-70485000D02*
X163195000Y-55880000D01*
X186436000Y-64620000D02*
X186436000Y-64770000D01*
X146050000Y-72390000D02*
X146685000Y-71755000D01*
X178396010Y-56580010D02*
X186436000Y-64620000D01*
X148590000Y-71474962D02*
X163484952Y-56580010D01*
X163484952Y-56580010D02*
X178396010Y-56580010D01*
X146965038Y-71474962D02*
X146050000Y-72390000D01*
X148590000Y-71474962D02*
X146965038Y-71474962D01*
X186436000Y-73510000D02*
X186436000Y-73660000D01*
X150495000Y-71740000D02*
X150495000Y-70559924D01*
X150495000Y-70559924D02*
X163774904Y-57280020D01*
X163774904Y-57280020D02*
X170206020Y-57280020D01*
X170206020Y-57280020D02*
X178106058Y-57280020D01*
X178106058Y-57280020D02*
X184555519Y-63729481D01*
X184555519Y-63729481D02*
X184785000Y-63958962D01*
X184785000Y-63958962D02*
X184785000Y-71755000D01*
X184785000Y-71859000D02*
X186436000Y-73510000D01*
X184785000Y-71755000D02*
X184785000Y-71859000D01*
D33*
X192800000Y-114380000D02*
X192800000Y-119380000D01*
X195040000Y-112140000D02*
X192800000Y-114380000D01*
X195040000Y-104140000D02*
X195040000Y-112140000D01*
X190500000Y-104140000D02*
X190500000Y-109220000D01*
X187800000Y-111920000D02*
X187800000Y-119380000D01*
X190500000Y-109220000D02*
X187800000Y-111920000D01*
X182800000Y-104600000D02*
X182340000Y-104140000D01*
X182800000Y-119380000D02*
X182800000Y-104600000D01*
X177800000Y-104140000D02*
X177800000Y-119380000D01*
X169640000Y-112140000D02*
X167400000Y-114380000D01*
X169640000Y-104140000D02*
X169640000Y-112140000D01*
X167400000Y-114380000D02*
X167400000Y-119380000D01*
X162400000Y-111840000D02*
X162400000Y-119380000D01*
X165100000Y-104140000D02*
X165100000Y-109140000D01*
X165100000Y-109140000D02*
X162400000Y-111840000D01*
X157400000Y-104600000D02*
X156940000Y-104140000D01*
X157400000Y-119380000D02*
X157400000Y-104600000D01*
X152400000Y-104140000D02*
X152400000Y-119380000D01*
X144240000Y-112140000D02*
X142000000Y-114380000D01*
X144240000Y-104140000D02*
X144240000Y-112140000D01*
X142000000Y-114380000D02*
X142000000Y-119380000D01*
X137000000Y-111840000D02*
X137000000Y-119380000D01*
X139700000Y-104140000D02*
X139700000Y-109140000D01*
X139700000Y-109140000D02*
X137000000Y-111840000D01*
X132000000Y-104600000D02*
X131540000Y-104140000D01*
X132000000Y-119380000D02*
X132000000Y-104600000D01*
X127000000Y-104140000D02*
X127000000Y-119380000D01*
D34*
X116840000Y-88660000D02*
X121840000Y-88660000D01*
X131840000Y-88660000D02*
X132080000Y-88900000D01*
X121840000Y-88660000D02*
X131840000Y-88660000D01*
X124300000Y-83660000D02*
X116840000Y-83660000D01*
X132080000Y-86360000D02*
X127000000Y-86360000D01*
X127000000Y-86360000D02*
X124300000Y-83660000D01*
X124380000Y-78660000D02*
X126840000Y-76200000D01*
X116840000Y-78660000D02*
X124380000Y-78660000D01*
X126840000Y-76200000D02*
X132080000Y-76200000D01*
X132080000Y-73660000D02*
X116840000Y-73660000D01*
D30*
X174260000Y-104140000D02*
X174260000Y-99425000D01*
X174260000Y-99425000D02*
X174625000Y-99060000D01*
X174625000Y-99060000D02*
X174625000Y-99060000D01*
X186960000Y-102640000D02*
X186055000Y-101735000D01*
X186960000Y-104140000D02*
X186960000Y-102640000D01*
X186055000Y-101735000D02*
X186055000Y-99060000D01*
X186055000Y-99060000D02*
X186055000Y-99060000D01*
X148860000Y-104140000D02*
X148860000Y-99330000D01*
X148860000Y-99330000D02*
X148590000Y-99060000D01*
X148590000Y-99060000D02*
X148590000Y-99060000D01*
X161560000Y-104140000D02*
X161560000Y-99330000D01*
X161560000Y-99330000D02*
X161290000Y-99060000D01*
X161290000Y-99060000D02*
X161290000Y-99060000D01*
X136160000Y-104140000D02*
X136160000Y-99330000D01*
X136160000Y-99330000D02*
X135890000Y-99060000D01*
X135890000Y-99060000D02*
X135890000Y-99060000D01*
D35*
X140335000Y-91440000D02*
X139700000Y-90805000D01*
X140335000Y-98425000D02*
X140335000Y-91440000D01*
D30*
X133580000Y-83820000D02*
X136120000Y-81280000D01*
X132080000Y-83820000D02*
X133580000Y-83820000D01*
X136120000Y-81280000D02*
X139065000Y-81280000D01*
X139065000Y-81280000D02*
X139065000Y-81280000D01*
X161925000Y-83185000D02*
X161925000Y-67310000D01*
X160655000Y-66040000D02*
X160655000Y-83185000D01*
D36*
G36*
X207547563Y-120162249D02*
G01*
X207340328Y-120919774D01*
X207002223Y-121628625D01*
X206543933Y-122266404D01*
X205979945Y-122812946D01*
X205328087Y-123250977D01*
X204608962Y-123566651D01*
X203840232Y-123751206D01*
X203175779Y-123800001D01*
X116869392Y-123800000D01*
X116057751Y-123727563D01*
X115300226Y-123520328D01*
X114591373Y-123182221D01*
X113953590Y-122723928D01*
X113407054Y-122159945D01*
X112969022Y-121508085D01*
X112653349Y-120788963D01*
X112468794Y-120020232D01*
X112420000Y-119355792D01*
X112420000Y-55909392D01*
X112492437Y-55097751D01*
X112699672Y-54340226D01*
X113037779Y-53631373D01*
X113496072Y-52993590D01*
X114060055Y-52447054D01*
X114711915Y-52009022D01*
X115431037Y-51693349D01*
X116199768Y-51508794D01*
X116864208Y-51460000D01*
X132186260Y-51460000D01*
X132186260Y-58745000D01*
X131893740Y-58745000D01*
X131606842Y-58802068D01*
X131336589Y-58914010D01*
X131093368Y-59076525D01*
X130886525Y-59283368D01*
X130724010Y-59526589D01*
X130612068Y-59796842D01*
X130555000Y-60083740D01*
X130555000Y-60376260D01*
X130612068Y-60663158D01*
X130673525Y-60811529D01*
X130634180Y-60790498D01*
X130514482Y-60754188D01*
X130390000Y-60741928D01*
X128690000Y-60741928D01*
X128565518Y-60754188D01*
X128445820Y-60790498D01*
X128335506Y-60849463D01*
X128238815Y-60928815D01*
X128159463Y-61025506D01*
X128100498Y-61135820D01*
X128064188Y-61255518D01*
X128051928Y-61380000D01*
X128051928Y-63080000D01*
X128064188Y-63204482D01*
X128100498Y-63324180D01*
X128159463Y-63434494D01*
X128238815Y-63531185D01*
X128335506Y-63610537D01*
X128445820Y-63669502D01*
X128565518Y-63705812D01*
X128690000Y-63718072D01*
X130390000Y-63718072D01*
X130514482Y-63705812D01*
X130634180Y-63669502D01*
X130744494Y-63610537D01*
X130841185Y-63531185D01*
X130920537Y-63434494D01*
X130979502Y-63324180D01*
X130992203Y-63282310D01*
X131093368Y-63383475D01*
X131336589Y-63545990D01*
X131606842Y-63657932D01*
X131893740Y-63715000D01*
X132186260Y-63715000D01*
X132473158Y-63657932D01*
X132743411Y-63545990D01*
X132986632Y-63383475D01*
X133080000Y-63290107D01*
X133080000Y-69529428D01*
X131080000Y-69529428D01*
X130955518Y-69541688D01*
X130835820Y-69577998D01*
X130725506Y-69636963D01*
X130628815Y-69716315D01*
X130549463Y-69813006D01*
X130490498Y-69923320D01*
X130454188Y-70043018D01*
X130441928Y-70167500D01*
X130441928Y-72025000D01*
X116759678Y-72025001D01*
X116519484Y-72048658D01*
X116211285Y-72142149D01*
X115968486Y-72271928D01*
X115340000Y-72271928D01*
X115215518Y-72284188D01*
X115095820Y-72320498D01*
X114985506Y-72379463D01*
X114888815Y-72458815D01*
X114809463Y-72555506D01*
X114750498Y-72665820D01*
X114714188Y-72785518D01*
X114701928Y-72910000D01*
X114701928Y-74410000D01*
X114714188Y-74534482D01*
X114750498Y-74654180D01*
X114809463Y-74764494D01*
X114888815Y-74861185D01*
X114985506Y-74940537D01*
X115095820Y-74999502D01*
X115215518Y-75035812D01*
X115340000Y-75048072D01*
X115968484Y-75048072D01*
X116211285Y-75177852D01*
X116519484Y-75271343D01*
X116759678Y-75295000D01*
X125432762Y-75295000D01*
X123702760Y-77025001D01*
X116759679Y-77025000D01*
X116519485Y-77048657D01*
X116211286Y-77142148D01*
X115949359Y-77282151D01*
X115818493Y-77295040D01*
X115557419Y-77374237D01*
X115316812Y-77502844D01*
X115105919Y-77675920D01*
X114932843Y-77886813D01*
X114804236Y-78127420D01*
X114725040Y-78388494D01*
X114698299Y-78660000D01*
X114725040Y-78931507D01*
X114804236Y-79192581D01*
X114932843Y-79433188D01*
X115105919Y-79644081D01*
X115316812Y-79817157D01*
X115557419Y-79945764D01*
X115818493Y-80024960D01*
X115949358Y-80037849D01*
X116211285Y-80177852D01*
X116519484Y-80271343D01*
X116759678Y-80295000D01*
X124299681Y-80295000D01*
X124380001Y-80302911D01*
X124460322Y-80295000D01*
X124700516Y-80271343D01*
X125008715Y-80177852D01*
X125292752Y-80026031D01*
X125541714Y-79821714D01*
X125592920Y-79759319D01*
X127517238Y-77835000D01*
X132160322Y-77835000D01*
X132400516Y-77811343D01*
X132708715Y-77717852D01*
X132992752Y-77566031D01*
X133241714Y-77361714D01*
X133446031Y-77112752D01*
X133597852Y-76828715D01*
X133691343Y-76520516D01*
X133722911Y-76200000D01*
X133691343Y-75879485D01*
X133597852Y-75571286D01*
X133446031Y-75287249D01*
X133241714Y-75038287D01*
X133109766Y-74930001D01*
X133241714Y-74821714D01*
X133446031Y-74572751D01*
X133597852Y-74288714D01*
X133691343Y-73980515D01*
X133722911Y-73660000D01*
X133691343Y-73339484D01*
X133597852Y-73031285D01*
X133446031Y-72747248D01*
X133360249Y-72642722D01*
X133434494Y-72603037D01*
X133531185Y-72523685D01*
X133610537Y-72426994D01*
X133669502Y-72316680D01*
X133705812Y-72196982D01*
X133718072Y-72072500D01*
X133718072Y-70167500D01*
X133705812Y-70043018D01*
X133669502Y-69923320D01*
X133610537Y-69813006D01*
X133531185Y-69716315D01*
X133434494Y-69636963D01*
X133324180Y-69577998D01*
X133204482Y-69541688D01*
X133080000Y-69529428D01*
X133080000Y-63290107D01*
X133193475Y-63176632D01*
X133355990Y-62933411D01*
X133467932Y-62663158D01*
X133525000Y-62376260D01*
X133525000Y-62083740D01*
X133467932Y-61796842D01*
X133355990Y-61526589D01*
X133193475Y-61283368D01*
X133140107Y-61230000D01*
X133193475Y-61176632D01*
X133355990Y-60933411D01*
X133467932Y-60663158D01*
X133525000Y-60376260D01*
X133525000Y-60083740D01*
X133467932Y-59796842D01*
X133355990Y-59526589D01*
X133193475Y-59283368D01*
X132986632Y-59076525D01*
X132743411Y-58914010D01*
X132473158Y-58802068D01*
X132186260Y-58745000D01*
X132186260Y-51460000D01*
X139166939Y-51460000D01*
X139166939Y-80245000D01*
X138963061Y-80245000D01*
X138763102Y-80284774D01*
X138574744Y-80362795D01*
X138526544Y-80395001D01*
X136163469Y-80395000D01*
X136120000Y-80390719D01*
X136076531Y-80395000D01*
X136076524Y-80395000D01*
X135946511Y-80407805D01*
X135779688Y-80458411D01*
X135625942Y-80540589D01*
X135491183Y-80651183D01*
X135463466Y-80684956D01*
X133619203Y-82529218D01*
X133610537Y-82513006D01*
X133531185Y-82416315D01*
X133434494Y-82336963D01*
X133324180Y-82277998D01*
X133204482Y-82241688D01*
X133080000Y-82229428D01*
X131080000Y-82229428D01*
X130955518Y-82241688D01*
X130835820Y-82277998D01*
X130725506Y-82336963D01*
X130628815Y-82416315D01*
X130549463Y-82513006D01*
X130490498Y-82623320D01*
X130454188Y-82743018D01*
X130441928Y-82867500D01*
X130441928Y-84725000D01*
X127677240Y-84725001D01*
X125512924Y-82560686D01*
X125461714Y-82498286D01*
X125212751Y-82293969D01*
X124928714Y-82142148D01*
X124620515Y-82048657D01*
X124403127Y-82027246D01*
X124300000Y-82017089D01*
X124219680Y-82025000D01*
X116759678Y-82025001D01*
X116519484Y-82048658D01*
X116211285Y-82142149D01*
X115949360Y-82282151D01*
X115818493Y-82295040D01*
X115557419Y-82374237D01*
X115316812Y-82502844D01*
X115105919Y-82675920D01*
X114932843Y-82886813D01*
X114804236Y-83127420D01*
X114725040Y-83388494D01*
X114698299Y-83660000D01*
X114725040Y-83931507D01*
X114804236Y-84192581D01*
X114932843Y-84433188D01*
X115105919Y-84644081D01*
X115316812Y-84817157D01*
X115557419Y-84945764D01*
X115818493Y-85024960D01*
X115949358Y-85037849D01*
X116211285Y-85177852D01*
X116519484Y-85271343D01*
X116759678Y-85295000D01*
X123622762Y-85295000D01*
X125352761Y-87025000D01*
X121759679Y-87025000D01*
X121759669Y-87025001D01*
X116759679Y-87025000D01*
X116519485Y-87048657D01*
X116211286Y-87142148D01*
X115949359Y-87282151D01*
X115818493Y-87295040D01*
X115557419Y-87374237D01*
X115316812Y-87502844D01*
X115105919Y-87675920D01*
X114932843Y-87886813D01*
X114804236Y-88127420D01*
X114725040Y-88388494D01*
X114698299Y-88660000D01*
X114725040Y-88931507D01*
X114804236Y-89192581D01*
X114932843Y-89433188D01*
X115105919Y-89644081D01*
X115316812Y-89817157D01*
X115557419Y-89945764D01*
X115818493Y-90024960D01*
X115949358Y-90037849D01*
X116211285Y-90177852D01*
X116519484Y-90271343D01*
X116759678Y-90295000D01*
X131221447Y-90295000D01*
X131451286Y-90417851D01*
X131759484Y-90511342D01*
X132079999Y-90542911D01*
X132400516Y-90511342D01*
X132708714Y-90417851D01*
X132992752Y-90266030D01*
X133241713Y-90061713D01*
X133446030Y-89812752D01*
X133597851Y-89528714D01*
X133691342Y-89220516D01*
X133722911Y-88899999D01*
X133691342Y-88579484D01*
X133597851Y-88271286D01*
X133446030Y-87987248D01*
X133292915Y-87800677D01*
X133116616Y-87624378D01*
X133241714Y-87521714D01*
X133446031Y-87272751D01*
X133597852Y-86988714D01*
X133691343Y-86680515D01*
X133722911Y-86360000D01*
X133691343Y-86039484D01*
X133597852Y-85731285D01*
X133446031Y-85447248D01*
X133360249Y-85342722D01*
X133434494Y-85303037D01*
X133531185Y-85223685D01*
X133610537Y-85126994D01*
X133669502Y-85016680D01*
X133705812Y-84896982D01*
X133718072Y-84772500D01*
X133718072Y-84695683D01*
X133753490Y-84692195D01*
X133920313Y-84641589D01*
X134074059Y-84559411D01*
X134208817Y-84448817D01*
X134236530Y-84415049D01*
X135991939Y-82659640D01*
X135991939Y-98025000D01*
X135788061Y-98025000D01*
X135588102Y-98064774D01*
X135399744Y-98142795D01*
X135230226Y-98256063D01*
X135086063Y-98400226D01*
X134972795Y-98569744D01*
X134894774Y-98758102D01*
X134855000Y-98958061D01*
X134855000Y-99161939D01*
X134894774Y-99361898D01*
X134972795Y-99550256D01*
X135086063Y-99719774D01*
X135230226Y-99863937D01*
X135275000Y-99893854D01*
X135275000Y-102501928D01*
X135207500Y-102501928D01*
X135083018Y-102514188D01*
X134963320Y-102550498D01*
X134853006Y-102609463D01*
X134756315Y-102688815D01*
X134676963Y-102785506D01*
X134617998Y-102895820D01*
X134581688Y-103015518D01*
X134569428Y-103140000D01*
X134569428Y-103992976D01*
X134446201Y-103586750D01*
X134201523Y-103128989D01*
X133872241Y-102727759D01*
X133771694Y-102645242D01*
X133311697Y-102185245D01*
X133011010Y-101938478D01*
X132553249Y-101693799D01*
X132056549Y-101543127D01*
X131540000Y-101492252D01*
X131023451Y-101543127D01*
X130526751Y-101693799D01*
X130068990Y-101938478D01*
X129667759Y-102267759D01*
X129338478Y-102668990D01*
X129270001Y-102797102D01*
X129201523Y-102668989D01*
X128872241Y-102267759D01*
X128471011Y-101938477D01*
X128013250Y-101693799D01*
X127516550Y-101543127D01*
X127000000Y-101492251D01*
X126483450Y-101543127D01*
X125986750Y-101693799D01*
X125528989Y-101938477D01*
X125127759Y-102267759D01*
X124814998Y-102648859D01*
X124766994Y-102609463D01*
X124656680Y-102550498D01*
X124536982Y-102514188D01*
X124412500Y-102501928D01*
X122507500Y-102501928D01*
X122383018Y-102514188D01*
X122263320Y-102550498D01*
X122153006Y-102609463D01*
X122056315Y-102688815D01*
X121976963Y-102785506D01*
X121917998Y-102895820D01*
X121881688Y-103015518D01*
X121869428Y-103140000D01*
X121869428Y-105140000D01*
X121881688Y-105264482D01*
X121917998Y-105384180D01*
X121976963Y-105494494D01*
X122056315Y-105591185D01*
X122153006Y-105670537D01*
X122263320Y-105729502D01*
X122383018Y-105765812D01*
X122507500Y-105778072D01*
X124365000Y-105778072D01*
X124365000Y-119509442D01*
X124403127Y-119896550D01*
X124553799Y-120393250D01*
X124798477Y-120851011D01*
X125127759Y-121252241D01*
X125528989Y-121581523D01*
X125986750Y-121826201D01*
X126483450Y-121976873D01*
X127000000Y-122027749D01*
X127516550Y-121976873D01*
X128013250Y-121826201D01*
X128471011Y-121581523D01*
X128872241Y-121252241D01*
X129201523Y-120851011D01*
X129446201Y-120393250D01*
X129500000Y-120215898D01*
X129553799Y-120393250D01*
X129798477Y-120851011D01*
X130127759Y-121252241D01*
X130528989Y-121581523D01*
X130986750Y-121826201D01*
X131483450Y-121976873D01*
X132000000Y-122027749D01*
X132516550Y-121976873D01*
X133013250Y-121826201D01*
X133471011Y-121581523D01*
X133872241Y-121252241D01*
X134201523Y-120851011D01*
X134446201Y-120393250D01*
X134500000Y-120215898D01*
X134553799Y-120393250D01*
X134798477Y-120851011D01*
X135127759Y-121252241D01*
X135528989Y-121581523D01*
X135986750Y-121826201D01*
X136483450Y-121976873D01*
X137000000Y-122027749D01*
X137516550Y-121976873D01*
X138013250Y-121826201D01*
X138471011Y-121581523D01*
X138872241Y-121252241D01*
X139201523Y-120851011D01*
X139446201Y-120393250D01*
X139500000Y-120215898D01*
X139553799Y-120393250D01*
X139798477Y-120851011D01*
X140127759Y-121252241D01*
X140528989Y-121581523D01*
X140986750Y-121826201D01*
X141483450Y-121976873D01*
X142000000Y-122027749D01*
X142516550Y-121976873D01*
X143013250Y-121826201D01*
X143471011Y-121581523D01*
X143872241Y-121252241D01*
X144201523Y-120851011D01*
X144446201Y-120393250D01*
X144596873Y-119896550D01*
X144635000Y-119509442D01*
X144635000Y-115471453D01*
X146011694Y-114094758D01*
X146112241Y-114012241D01*
X146441523Y-113611011D01*
X146686201Y-113153250D01*
X146836873Y-112656550D01*
X146875000Y-112269442D01*
X146875000Y-112269434D01*
X146887748Y-112140000D01*
X146875000Y-112010566D01*
X146875000Y-104010558D01*
X146836873Y-103623450D01*
X146686201Y-103126750D01*
X146441523Y-102668989D01*
X146112241Y-102267759D01*
X145711011Y-101938477D01*
X145253250Y-101693799D01*
X144756550Y-101543127D01*
X144240000Y-101492251D01*
X143723450Y-101543127D01*
X143226750Y-101693799D01*
X142768989Y-101938477D01*
X142367759Y-102267759D01*
X142038477Y-102668989D01*
X141970000Y-102797101D01*
X141901523Y-102668989D01*
X141572241Y-102267759D01*
X141171011Y-101938477D01*
X140713250Y-101693799D01*
X140216550Y-101543127D01*
X139700000Y-101492251D01*
X139183450Y-101543127D01*
X138686750Y-101693799D01*
X138228989Y-101938477D01*
X137827759Y-102267759D01*
X137514998Y-102648859D01*
X137466994Y-102609463D01*
X137356680Y-102550498D01*
X137236982Y-102514188D01*
X137112500Y-102501928D01*
X137045000Y-102501928D01*
X137045000Y-99373469D01*
X137049281Y-99330000D01*
X137045000Y-99286531D01*
X137045000Y-99286523D01*
X137032195Y-99156510D01*
X136981589Y-98989687D01*
X136901478Y-98839809D01*
X136885226Y-98758102D01*
X136807205Y-98569744D01*
X136693937Y-98400226D01*
X136549774Y-98256063D01*
X136380256Y-98142795D01*
X136191898Y-98064774D01*
X135991939Y-98025000D01*
X135991939Y-82659640D01*
X136486578Y-82165000D01*
X138526546Y-82165000D01*
X138574744Y-82197205D01*
X138763102Y-82275226D01*
X138963061Y-82315000D01*
X139166939Y-82315000D01*
X139366898Y-82275226D01*
X139555256Y-82197205D01*
X139724774Y-82083937D01*
X139801939Y-82006772D01*
X139801939Y-89770000D01*
X139598061Y-89770000D01*
X139398102Y-89809774D01*
X139209744Y-89887795D01*
X139040226Y-90001063D01*
X138896063Y-90145226D01*
X138782795Y-90314744D01*
X138704774Y-90503102D01*
X138665000Y-90703061D01*
X138665000Y-90906939D01*
X138704774Y-91106898D01*
X138782795Y-91295256D01*
X138896063Y-91464774D01*
X139040226Y-91608937D01*
X139146777Y-91680132D01*
X139325000Y-91858355D01*
X139325000Y-98197377D01*
X139300000Y-98323061D01*
X139300000Y-98526939D01*
X139339774Y-98726898D01*
X139417795Y-98915256D01*
X139531063Y-99084774D01*
X139675226Y-99228937D01*
X139844744Y-99342205D01*
X140033102Y-99420226D01*
X140233061Y-99460000D01*
X140436939Y-99460000D01*
X140636898Y-99420226D01*
X140825256Y-99342205D01*
X140994774Y-99228937D01*
X141138937Y-99084774D01*
X141252205Y-98915256D01*
X141330226Y-98726898D01*
X141370000Y-98526939D01*
X141370000Y-98323061D01*
X141345000Y-98197377D01*
X141345000Y-91489608D01*
X141349886Y-91440000D01*
X141330385Y-91242005D01*
X141303102Y-91152066D01*
X141272632Y-91051620D01*
X141178847Y-90876160D01*
X141052633Y-90722367D01*
X141014094Y-90690739D01*
X140575132Y-90251777D01*
X140503937Y-90145226D01*
X140359774Y-90001063D01*
X140190256Y-89887795D01*
X140001898Y-89809774D01*
X139801939Y-89770000D01*
X139801939Y-82006772D01*
X139868937Y-81939774D01*
X139982205Y-81770256D01*
X140060226Y-81581898D01*
X140100000Y-81381939D01*
X140100000Y-81178061D01*
X140060226Y-80978102D01*
X139982205Y-80789744D01*
X139868937Y-80620226D01*
X139724774Y-80476063D01*
X139555256Y-80362795D01*
X139366898Y-80284774D01*
X139166939Y-80245000D01*
X139166939Y-51460000D01*
X191516000Y-51460000D01*
X191516000Y-54222743D01*
X191221949Y-54251705D01*
X190939198Y-54337476D01*
X190678613Y-54476762D01*
X190450208Y-54664208D01*
X190262762Y-54892613D01*
X190246000Y-54923972D01*
X190229238Y-54892613D01*
X190041792Y-54664208D01*
X189813387Y-54476762D01*
X189552802Y-54337476D01*
X189270051Y-54251705D01*
X188976000Y-54222743D01*
X188681949Y-54251705D01*
X188399198Y-54337476D01*
X188138613Y-54476762D01*
X187910208Y-54664208D01*
X187722762Y-54892613D01*
X187706000Y-54923972D01*
X187689238Y-54892613D01*
X187501792Y-54664208D01*
X187273387Y-54476762D01*
X187012802Y-54337476D01*
X186730051Y-54251705D01*
X186436000Y-54222743D01*
X186141949Y-54251705D01*
X185859198Y-54337476D01*
X185598613Y-54476762D01*
X185370208Y-54664208D01*
X185182762Y-54892613D01*
X185128034Y-54995001D01*
X163238469Y-54995000D01*
X163195000Y-54990719D01*
X163151531Y-54995000D01*
X163151524Y-54995000D01*
X163043037Y-55005685D01*
X163021510Y-55007805D01*
X163008411Y-55011779D01*
X162854688Y-55058411D01*
X162700942Y-55140589D01*
X162566183Y-55251183D01*
X162538466Y-55284956D01*
X156884994Y-60938427D01*
X156802371Y-60738957D01*
X156650799Y-60512114D01*
X156457886Y-60319201D01*
X156231043Y-60167629D01*
X155978989Y-60063225D01*
X155711411Y-60010000D01*
X155438589Y-60010000D01*
X155171011Y-60063225D01*
X154918957Y-60167629D01*
X154692114Y-60319201D01*
X154501315Y-60510000D01*
X150291578Y-60510001D01*
X153401578Y-57400000D01*
X154501315Y-57400000D01*
X154692114Y-57590799D01*
X154918957Y-57742371D01*
X155171011Y-57846775D01*
X155438589Y-57900000D01*
X155711411Y-57900000D01*
X155978989Y-57846775D01*
X156231043Y-57742371D01*
X156457886Y-57590799D01*
X156650799Y-57397886D01*
X156802371Y-57171043D01*
X156906775Y-56918989D01*
X156960000Y-56651411D01*
X156960000Y-56378589D01*
X156906775Y-56111011D01*
X156802371Y-55858957D01*
X156650799Y-55632114D01*
X156457886Y-55439201D01*
X156231043Y-55287629D01*
X155978989Y-55183225D01*
X155711411Y-55130000D01*
X155438589Y-55130000D01*
X155171011Y-55183225D01*
X154918957Y-55287629D01*
X154692114Y-55439201D01*
X154501315Y-55630000D01*
X153078479Y-55630001D01*
X153035000Y-55625719D01*
X152861510Y-55642805D01*
X152694687Y-55693412D01*
X152540941Y-55775590D01*
X152439954Y-55858468D01*
X152439951Y-55858471D01*
X152406183Y-55886184D01*
X152378470Y-55919952D01*
X146318421Y-61980000D01*
X142143456Y-61980001D01*
X142095256Y-61947795D01*
X141906898Y-61869774D01*
X141706939Y-61830000D01*
X141503061Y-61830000D01*
X141303102Y-61869774D01*
X141114744Y-61947795D01*
X140945226Y-62061063D01*
X140801063Y-62205226D01*
X140687795Y-62374744D01*
X140609774Y-62563102D01*
X140570000Y-62763061D01*
X140570000Y-62966939D01*
X140609774Y-63166898D01*
X140687795Y-63355256D01*
X140784510Y-63500000D01*
X140687795Y-63644744D01*
X140609774Y-63833102D01*
X140570000Y-64033061D01*
X140570000Y-64236939D01*
X140609774Y-64436898D01*
X140687795Y-64625256D01*
X140801063Y-64794774D01*
X140945226Y-64938937D01*
X141114744Y-65052205D01*
X141303102Y-65130226D01*
X141503061Y-65170000D01*
X141706939Y-65170000D01*
X141906898Y-65130226D01*
X142095256Y-65052205D01*
X142143454Y-65020000D01*
X146641535Y-65020000D01*
X146685001Y-65024281D01*
X146728467Y-65020000D01*
X146728477Y-65020000D01*
X146858490Y-65007195D01*
X147025313Y-64956589D01*
X147179059Y-64874411D01*
X147208548Y-64850210D01*
X147280047Y-64791532D01*
X147280049Y-64791530D01*
X147313817Y-64763817D01*
X147341529Y-64730050D01*
X149791578Y-62280000D01*
X154501315Y-62280000D01*
X154692114Y-62470799D01*
X154918957Y-62622371D01*
X155118427Y-62704994D01*
X148223420Y-69600001D01*
X147223455Y-69600000D01*
X147175256Y-69567795D01*
X146986898Y-69489774D01*
X146786939Y-69450000D01*
X146583061Y-69450000D01*
X146383102Y-69489774D01*
X146194744Y-69567795D01*
X146025226Y-69681063D01*
X145881063Y-69825226D01*
X145767795Y-69994744D01*
X145689774Y-70183102D01*
X145650000Y-70383061D01*
X145650000Y-70586939D01*
X145689774Y-70786898D01*
X145767795Y-70975256D01*
X145881063Y-71144774D01*
X145962355Y-71226066D01*
X145804956Y-71383465D01*
X145748102Y-71394774D01*
X145559744Y-71472795D01*
X145390226Y-71586063D01*
X145246063Y-71730226D01*
X145132795Y-71899744D01*
X145054774Y-72088102D01*
X145015000Y-72288061D01*
X145015000Y-72491939D01*
X145054774Y-72691898D01*
X145132795Y-72880256D01*
X145246063Y-73049774D01*
X145390226Y-73193937D01*
X145559744Y-73307205D01*
X145748102Y-73385226D01*
X145948061Y-73425000D01*
X146151939Y-73425000D01*
X146351898Y-73385226D01*
X146540256Y-73307205D01*
X146709774Y-73193937D01*
X146853937Y-73049774D01*
X146967205Y-72880256D01*
X147045226Y-72691898D01*
X147056535Y-72635044D01*
X147331616Y-72359962D01*
X148546535Y-72359962D01*
X148590001Y-72364243D01*
X148633467Y-72359962D01*
X148633477Y-72359962D01*
X148763490Y-72347157D01*
X148930313Y-72296551D01*
X149084059Y-72214373D01*
X149113548Y-72190172D01*
X149185047Y-72131494D01*
X149185049Y-72131492D01*
X149218817Y-72103779D01*
X149246528Y-72070013D01*
X149462423Y-71854118D01*
X149499774Y-72041898D01*
X149577795Y-72230256D01*
X149691063Y-72399774D01*
X149835226Y-72543937D01*
X150004744Y-72657205D01*
X150193102Y-72735226D01*
X150393061Y-72775000D01*
X150596939Y-72775000D01*
X150796898Y-72735226D01*
X150985256Y-72657205D01*
X151154774Y-72543937D01*
X151298937Y-72399774D01*
X151412205Y-72230256D01*
X151490226Y-72041898D01*
X151530000Y-71841939D01*
X151530000Y-71638061D01*
X151490226Y-71438102D01*
X151412205Y-71249744D01*
X151380000Y-71201546D01*
X151380000Y-70926503D01*
X160756939Y-61549564D01*
X160756939Y-65005000D01*
X160553061Y-65005000D01*
X160353102Y-65044774D01*
X160164744Y-65122795D01*
X159995226Y-65236063D01*
X159851063Y-65380226D01*
X159737795Y-65549744D01*
X159659774Y-65738102D01*
X159620000Y-65938061D01*
X159620000Y-66141939D01*
X159659774Y-66341898D01*
X159737795Y-66530256D01*
X159770000Y-66578454D01*
X159770000Y-82646546D01*
X159737795Y-82694744D01*
X159671462Y-82854884D01*
X159406529Y-82589951D01*
X159378817Y-82556184D01*
X159345049Y-82528471D01*
X159345046Y-82528468D01*
X159244059Y-82445590D01*
X159090313Y-82363412D01*
X158923490Y-82312805D01*
X158750000Y-82295719D01*
X158706521Y-82300001D01*
X154208454Y-82300000D01*
X154160256Y-82267795D01*
X153971898Y-82189774D01*
X153771939Y-82150000D01*
X153568061Y-82150000D01*
X153368102Y-82189774D01*
X153179744Y-82267795D01*
X153010226Y-82381063D01*
X152866063Y-82525226D01*
X152752795Y-82694744D01*
X152674774Y-82883102D01*
X152635000Y-83083061D01*
X152635000Y-83286939D01*
X152674774Y-83486898D01*
X152752795Y-83675256D01*
X152849510Y-83820000D01*
X152752795Y-83964744D01*
X152674774Y-84153102D01*
X152635000Y-84353061D01*
X152635000Y-84556939D01*
X152674774Y-84756898D01*
X152752795Y-84945256D01*
X152866063Y-85114774D01*
X153010226Y-85258937D01*
X153179744Y-85372205D01*
X153368102Y-85450226D01*
X153568061Y-85490000D01*
X153771939Y-85490000D01*
X153971898Y-85450226D01*
X154160256Y-85372205D01*
X154208454Y-85340000D01*
X158383422Y-85340000D01*
X158793480Y-85750059D01*
X158821193Y-85783827D01*
X158955951Y-85894421D01*
X159090312Y-85966238D01*
X159109696Y-85976599D01*
X159276520Y-86027205D01*
X159378817Y-86037280D01*
X159406533Y-86040010D01*
X159406541Y-86040010D01*
X159450010Y-86044291D01*
X159493479Y-86040010D01*
X161391939Y-86040010D01*
X161391939Y-98025000D01*
X161188061Y-98025000D01*
X160988102Y-98064774D01*
X160799744Y-98142795D01*
X160630226Y-98256063D01*
X160486063Y-98400226D01*
X160372795Y-98569744D01*
X160294774Y-98758102D01*
X160255000Y-98958061D01*
X160255000Y-99161939D01*
X160294774Y-99361898D01*
X160372795Y-99550256D01*
X160486063Y-99719774D01*
X160630226Y-99863937D01*
X160675000Y-99893854D01*
X160675000Y-102501928D01*
X160607500Y-102501928D01*
X160483018Y-102514188D01*
X160363320Y-102550498D01*
X160253006Y-102609463D01*
X160156315Y-102688815D01*
X160076963Y-102785506D01*
X160017998Y-102895820D01*
X159981688Y-103015518D01*
X159969428Y-103140000D01*
X159969428Y-103992976D01*
X159846201Y-103586750D01*
X159601523Y-103128989D01*
X159272241Y-102727759D01*
X159171694Y-102645242D01*
X158711697Y-102185245D01*
X158411010Y-101938478D01*
X157953249Y-101693799D01*
X157456549Y-101543127D01*
X156940000Y-101492252D01*
X156423451Y-101543127D01*
X155926751Y-101693799D01*
X155468990Y-101938478D01*
X155067759Y-102267759D01*
X154738478Y-102668990D01*
X154670001Y-102797102D01*
X154601523Y-102668989D01*
X154272241Y-102267759D01*
X153871011Y-101938477D01*
X153413250Y-101693799D01*
X152916550Y-101543127D01*
X152400000Y-101492251D01*
X151883450Y-101543127D01*
X151386750Y-101693799D01*
X150928989Y-101938477D01*
X150527759Y-102267759D01*
X150214998Y-102648859D01*
X150166994Y-102609463D01*
X150056680Y-102550498D01*
X149936982Y-102514188D01*
X149812500Y-102501928D01*
X149745000Y-102501928D01*
X149745000Y-99373469D01*
X149749281Y-99330000D01*
X149745000Y-99286531D01*
X149745000Y-99286523D01*
X149732195Y-99156510D01*
X149681589Y-98989687D01*
X149601478Y-98839809D01*
X149585226Y-98758102D01*
X149507205Y-98569744D01*
X149393937Y-98400226D01*
X149249774Y-98256063D01*
X149080256Y-98142795D01*
X148891898Y-98064774D01*
X148691939Y-98025000D01*
X148488061Y-98025000D01*
X148288102Y-98064774D01*
X148099744Y-98142795D01*
X147930226Y-98256063D01*
X147786063Y-98400226D01*
X147672795Y-98569744D01*
X147594774Y-98758102D01*
X147555000Y-98958061D01*
X147555000Y-99161939D01*
X147594774Y-99361898D01*
X147672795Y-99550256D01*
X147786063Y-99719774D01*
X147930226Y-99863937D01*
X147975000Y-99893854D01*
X147975000Y-102501928D01*
X147907500Y-102501928D01*
X147783018Y-102514188D01*
X147663320Y-102550498D01*
X147553006Y-102609463D01*
X147456315Y-102688815D01*
X147376963Y-102785506D01*
X147317998Y-102895820D01*
X147281688Y-103015518D01*
X147269428Y-103140000D01*
X147269428Y-105140000D01*
X147281688Y-105264482D01*
X147317998Y-105384180D01*
X147376963Y-105494494D01*
X147456315Y-105591185D01*
X147553006Y-105670537D01*
X147663320Y-105729502D01*
X147783018Y-105765812D01*
X147907500Y-105778072D01*
X149765000Y-105778072D01*
X149765000Y-119509442D01*
X149803127Y-119896550D01*
X149953799Y-120393250D01*
X150198477Y-120851011D01*
X150527759Y-121252241D01*
X150928989Y-121581523D01*
X151386750Y-121826201D01*
X151883450Y-121976873D01*
X152400000Y-122027749D01*
X152916550Y-121976873D01*
X153413250Y-121826201D01*
X153871011Y-121581523D01*
X154272241Y-121252241D01*
X154601523Y-120851011D01*
X154846201Y-120393250D01*
X154900000Y-120215898D01*
X154953799Y-120393250D01*
X155198477Y-120851011D01*
X155527759Y-121252241D01*
X155928989Y-121581523D01*
X156386750Y-121826201D01*
X156883450Y-121976873D01*
X157400000Y-122027749D01*
X157916550Y-121976873D01*
X158413250Y-121826201D01*
X158871011Y-121581523D01*
X159272241Y-121252241D01*
X159601523Y-120851011D01*
X159846201Y-120393250D01*
X159900000Y-120215898D01*
X159953799Y-120393250D01*
X160198477Y-120851011D01*
X160527759Y-121252241D01*
X160928989Y-121581523D01*
X161386750Y-121826201D01*
X161883450Y-121976873D01*
X162400000Y-122027749D01*
X162916550Y-121976873D01*
X163413250Y-121826201D01*
X163871011Y-121581523D01*
X164272241Y-121252241D01*
X164601523Y-120851011D01*
X164846201Y-120393250D01*
X164900000Y-120215898D01*
X164953799Y-120393250D01*
X165198477Y-120851011D01*
X165527759Y-121252241D01*
X165928989Y-121581523D01*
X166386750Y-121826201D01*
X166883450Y-121976873D01*
X167400000Y-122027749D01*
X167916550Y-121976873D01*
X168413250Y-121826201D01*
X168871011Y-121581523D01*
X169272241Y-121252241D01*
X169601523Y-120851011D01*
X169846201Y-120393250D01*
X169996873Y-119896550D01*
X170035000Y-119509442D01*
X170035000Y-115471453D01*
X171411694Y-114094758D01*
X171512241Y-114012241D01*
X171841523Y-113611011D01*
X172086201Y-113153250D01*
X172236873Y-112656550D01*
X172275000Y-112269442D01*
X172275000Y-112269434D01*
X172287748Y-112140000D01*
X172275000Y-112010566D01*
X172275000Y-104010558D01*
X172236873Y-103623450D01*
X172086201Y-103126750D01*
X171841523Y-102668989D01*
X171512241Y-102267759D01*
X171111011Y-101938477D01*
X170653250Y-101693799D01*
X170156550Y-101543127D01*
X169640000Y-101492251D01*
X169123450Y-101543127D01*
X168626750Y-101693799D01*
X168168989Y-101938477D01*
X167767759Y-102267759D01*
X167438477Y-102668989D01*
X167370000Y-102797101D01*
X167301523Y-102668989D01*
X166972241Y-102267759D01*
X166571011Y-101938477D01*
X166113250Y-101693799D01*
X165616550Y-101543127D01*
X165100000Y-101492251D01*
X164583450Y-101543127D01*
X164086750Y-101693799D01*
X163628989Y-101938477D01*
X163227759Y-102267759D01*
X162914998Y-102648859D01*
X162866994Y-102609463D01*
X162756680Y-102550498D01*
X162636982Y-102514188D01*
X162512500Y-102501928D01*
X162445000Y-102501928D01*
X162445000Y-99373469D01*
X162449281Y-99330000D01*
X162445000Y-99286531D01*
X162445000Y-99286523D01*
X162432195Y-99156510D01*
X162381589Y-98989687D01*
X162301478Y-98839809D01*
X162285226Y-98758102D01*
X162207205Y-98569744D01*
X162093937Y-98400226D01*
X161949774Y-98256063D01*
X161780256Y-98142795D01*
X161591898Y-98064774D01*
X161391939Y-98025000D01*
X161391939Y-86040010D01*
X164076488Y-86040010D01*
X164119954Y-86044291D01*
X164163420Y-86040010D01*
X164163430Y-86040010D01*
X164293443Y-86027205D01*
X164460266Y-85976599D01*
X164614012Y-85894421D01*
X164664185Y-85853245D01*
X164715000Y-85811542D01*
X164715002Y-85811540D01*
X164748770Y-85783827D01*
X164776482Y-85750060D01*
X167600044Y-82926496D01*
X167633817Y-82898779D01*
X167744411Y-82764021D01*
X167826589Y-82610275D01*
X167877195Y-82443452D01*
X167890000Y-82313439D01*
X167890000Y-82313431D01*
X167894281Y-82269962D01*
X167890000Y-82226496D01*
X167890000Y-81530000D01*
X171546546Y-81530000D01*
X171594744Y-81562205D01*
X171783102Y-81640226D01*
X171983061Y-81680000D01*
X172186939Y-81680000D01*
X172386898Y-81640226D01*
X172575256Y-81562205D01*
X172744774Y-81448937D01*
X172888937Y-81304774D01*
X173002205Y-81135256D01*
X173080226Y-80946898D01*
X173120000Y-80746939D01*
X173120000Y-80543061D01*
X173080226Y-80343102D01*
X173002205Y-80154744D01*
X172888937Y-79985226D01*
X172744774Y-79841063D01*
X172575256Y-79727795D01*
X172386898Y-79649774D01*
X172186939Y-79610000D01*
X171983061Y-79610000D01*
X171783102Y-79649774D01*
X171594744Y-79727795D01*
X171546546Y-79760000D01*
X167048487Y-79760001D01*
X167005000Y-79755718D01*
X166831510Y-79772805D01*
X166664687Y-79823411D01*
X166510941Y-79905589D01*
X166376183Y-80016183D01*
X166265589Y-80150941D01*
X166183411Y-80304687D01*
X166132805Y-80471510D01*
X166120000Y-80601523D01*
X166120000Y-80601524D01*
X166115718Y-80645000D01*
X166120000Y-80688477D01*
X166120000Y-81903384D01*
X165985000Y-82038384D01*
X165985000Y-80548454D01*
X166017205Y-80500256D01*
X166095226Y-80311898D01*
X166135000Y-80111939D01*
X166135000Y-79908061D01*
X166095226Y-79708102D01*
X166017205Y-79519744D01*
X165903937Y-79350226D01*
X165759774Y-79206063D01*
X165590256Y-79092795D01*
X165430116Y-79026463D01*
X170425043Y-74031535D01*
X170481898Y-74020226D01*
X170670256Y-73942205D01*
X170839774Y-73828937D01*
X170983937Y-73684774D01*
X171097205Y-73515256D01*
X171175226Y-73326898D01*
X171215000Y-73126939D01*
X171215000Y-72923061D01*
X171175226Y-72723102D01*
X171097205Y-72534744D01*
X170983937Y-72365226D01*
X170839774Y-72221063D01*
X170670256Y-72107795D01*
X170481898Y-72029774D01*
X170281939Y-71990000D01*
X170078061Y-71990000D01*
X169878102Y-72029774D01*
X169689744Y-72107795D01*
X169520226Y-72221063D01*
X169376063Y-72365226D01*
X169262795Y-72534744D01*
X169184774Y-72723102D01*
X169173465Y-72779957D01*
X163234951Y-78718470D01*
X163201183Y-78746183D01*
X163173470Y-78779951D01*
X163173468Y-78779953D01*
X163151524Y-78806692D01*
X163090589Y-78880941D01*
X163008411Y-79034687D01*
X162957805Y-79201510D01*
X162945000Y-79331523D01*
X162945000Y-79331533D01*
X162940719Y-79374999D01*
X162945000Y-79418465D01*
X162945000Y-82011546D01*
X162912795Y-82059744D01*
X162834774Y-82248102D01*
X162810000Y-82372650D01*
X162810000Y-67848454D01*
X162842205Y-67800256D01*
X162920226Y-67611898D01*
X162960000Y-67411939D01*
X162960000Y-67208061D01*
X162920226Y-67008102D01*
X162842205Y-66819744D01*
X162728937Y-66650226D01*
X162584774Y-66506063D01*
X162415256Y-66392795D01*
X162226898Y-66314774D01*
X162026939Y-66275000D01*
X161823061Y-66275000D01*
X161656961Y-66308039D01*
X161690000Y-66141939D01*
X161690000Y-65938061D01*
X161650226Y-65738102D01*
X161572205Y-65549744D01*
X161458937Y-65380226D01*
X161314774Y-65236063D01*
X161145256Y-65122795D01*
X160956898Y-65044774D01*
X160756939Y-65005000D01*
X160756939Y-61549564D01*
X164141482Y-58165020D01*
X169075000Y-58165020D01*
X169075000Y-58251928D01*
X167475000Y-58251928D01*
X167350518Y-58264188D01*
X167230820Y-58300498D01*
X167120506Y-58359463D01*
X167023815Y-58438815D01*
X166944463Y-58535506D01*
X166934043Y-58555000D01*
X166530751Y-58555000D01*
X166475000Y-58549509D01*
X166252502Y-58571423D01*
X166038554Y-58636324D01*
X166015000Y-58648914D01*
X165841377Y-58741717D01*
X165668551Y-58883552D01*
X165633009Y-58926860D01*
X163701859Y-60858009D01*
X163658551Y-60893551D01*
X163516716Y-61066377D01*
X163411324Y-61263553D01*
X163346423Y-61477501D01*
X163330000Y-61644248D01*
X163330000Y-61644257D01*
X163324510Y-61699999D01*
X163330000Y-61755741D01*
X163330000Y-68635752D01*
X163346423Y-68802499D01*
X163411324Y-69016447D01*
X163516716Y-69213623D01*
X163658551Y-69386449D01*
X163831377Y-69528284D01*
X164028553Y-69633676D01*
X164242501Y-69698577D01*
X164465000Y-69720491D01*
X164687499Y-69698577D01*
X164901447Y-69633676D01*
X165098623Y-69528284D01*
X165271449Y-69386449D01*
X165413284Y-69213623D01*
X165518676Y-69016447D01*
X165583577Y-68802499D01*
X165600000Y-68635752D01*
X165600000Y-62170132D01*
X166937905Y-60832226D01*
X166944463Y-60844494D01*
X167023815Y-60941185D01*
X167120506Y-61020537D01*
X167230820Y-61079502D01*
X167350518Y-61115812D01*
X167475000Y-61128072D01*
X169075000Y-61128072D01*
X169199482Y-61115812D01*
X169319180Y-61079502D01*
X169327340Y-61075140D01*
X169373551Y-61131449D01*
X169416865Y-61166996D01*
X174125000Y-65875132D01*
X174125000Y-70540752D01*
X174141423Y-70707499D01*
X174206324Y-70921447D01*
X174311716Y-71118623D01*
X174453551Y-71291449D01*
X174626377Y-71433284D01*
X174823553Y-71538676D01*
X175037501Y-71603577D01*
X175260000Y-71625491D01*
X175482499Y-71603577D01*
X175696447Y-71538676D01*
X175893623Y-71433284D01*
X176066449Y-71291449D01*
X176208284Y-71118623D01*
X176313676Y-70921447D01*
X176378577Y-70707499D01*
X176395000Y-70540752D01*
X176395000Y-65460751D01*
X176400491Y-65405000D01*
X176395000Y-65349248D01*
X176378577Y-65182501D01*
X176313676Y-64968553D01*
X176208284Y-64771377D01*
X176066449Y-64598551D01*
X176023141Y-64563009D01*
X171315000Y-59854869D01*
X171315000Y-59850741D01*
X171320490Y-59794999D01*
X171315000Y-59739258D01*
X171315000Y-59739248D01*
X171298577Y-59572501D01*
X171233676Y-59358553D01*
X171128284Y-59161377D01*
X170986449Y-58988551D01*
X170943135Y-58953004D01*
X170916996Y-58926865D01*
X170881449Y-58883551D01*
X170708623Y-58741716D01*
X170511447Y-58636325D01*
X170511446Y-58636324D01*
X170297498Y-58571423D01*
X170075000Y-58549509D01*
X170019249Y-58555000D01*
X169615957Y-58555000D01*
X169605537Y-58535506D01*
X169526185Y-58438815D01*
X169429494Y-58359463D01*
X169319180Y-58300498D01*
X169199482Y-58264188D01*
X169075000Y-58251928D01*
X169075000Y-58165020D01*
X177739480Y-58165020D01*
X183900000Y-64325541D01*
X183900000Y-71815531D01*
X183895719Y-71859000D01*
X183900000Y-71902469D01*
X183900000Y-71902477D01*
X183912805Y-72032490D01*
X183963411Y-72199313D01*
X184045589Y-72353059D01*
X184156183Y-72487817D01*
X184189956Y-72515534D01*
X184951668Y-73277246D01*
X184936000Y-73436320D01*
X184936000Y-73883680D01*
X184957705Y-74104051D01*
X185043476Y-74386802D01*
X185182762Y-74647387D01*
X185370208Y-74875792D01*
X185598613Y-75063238D01*
X185859198Y-75202524D01*
X186141949Y-75288295D01*
X186436000Y-75317257D01*
X186730051Y-75288295D01*
X187012802Y-75202524D01*
X187273387Y-75063238D01*
X187501792Y-74875792D01*
X187689238Y-74647387D01*
X187706000Y-74616028D01*
X187722762Y-74647387D01*
X187910208Y-74875792D01*
X188093742Y-75026414D01*
X188055550Y-75064606D01*
X187925866Y-75258692D01*
X187836539Y-75474348D01*
X187791000Y-75703288D01*
X187791000Y-75936712D01*
X187836539Y-76165652D01*
X187925866Y-76381308D01*
X188055550Y-76575394D01*
X188220606Y-76740450D01*
X188414692Y-76870134D01*
X188630348Y-76959461D01*
X188859288Y-77005000D01*
X189092712Y-77005000D01*
X189321652Y-76959461D01*
X189537308Y-76870134D01*
X189731394Y-76740450D01*
X189896450Y-76575394D01*
X190026134Y-76381308D01*
X190115461Y-76165652D01*
X190131000Y-76087532D01*
X190131000Y-76106971D01*
X190124300Y-76175000D01*
X190131000Y-76243029D01*
X190131000Y-76243037D01*
X190151040Y-76446507D01*
X190230236Y-76707581D01*
X190358843Y-76948188D01*
X190531919Y-77159081D01*
X190545650Y-77170350D01*
X190556919Y-77184081D01*
X190767813Y-77357157D01*
X191008420Y-77485764D01*
X191135684Y-77524369D01*
X194830000Y-81218686D01*
X194830000Y-92641971D01*
X194823300Y-92710000D01*
X194830000Y-92778029D01*
X194830000Y-92778037D01*
X194850040Y-92981507D01*
X194929236Y-93242581D01*
X195057843Y-93483188D01*
X195230919Y-93694081D01*
X195283769Y-93737454D01*
X196605010Y-95058696D01*
X196605010Y-102015620D01*
X196511011Y-101938477D01*
X196053250Y-101693799D01*
X195556550Y-101543127D01*
X195040000Y-101492251D01*
X194523450Y-101543127D01*
X194026750Y-101693799D01*
X193568989Y-101938477D01*
X193167759Y-102267759D01*
X192838477Y-102668989D01*
X192770000Y-102797101D01*
X192701523Y-102668989D01*
X192372241Y-102267759D01*
X191971011Y-101938477D01*
X191513250Y-101693799D01*
X191016550Y-101543127D01*
X190500000Y-101492251D01*
X189983450Y-101543127D01*
X189486750Y-101693799D01*
X189028989Y-101938477D01*
X188627759Y-102267759D01*
X188314998Y-102648859D01*
X188266994Y-102609463D01*
X188156680Y-102550498D01*
X188036982Y-102514188D01*
X187912500Y-102501928D01*
X187835683Y-102501928D01*
X187832195Y-102466510D01*
X187781589Y-102299687D01*
X187699411Y-102145941D01*
X187699410Y-102145939D01*
X187699410Y-102145940D01*
X187616532Y-102044953D01*
X187616530Y-102044951D01*
X187588817Y-102011183D01*
X187555049Y-101983470D01*
X186940000Y-101368422D01*
X186940000Y-99598454D01*
X186972205Y-99550256D01*
X187050226Y-99361898D01*
X187090000Y-99161939D01*
X187090000Y-98958061D01*
X187050226Y-98758102D01*
X186972205Y-98569744D01*
X186858937Y-98400226D01*
X186714774Y-98256063D01*
X186545256Y-98142795D01*
X186356898Y-98064774D01*
X186156939Y-98025000D01*
X185953061Y-98025000D01*
X185753102Y-98064774D01*
X185564744Y-98142795D01*
X185395226Y-98256063D01*
X185251063Y-98400226D01*
X185137795Y-98569744D01*
X185059774Y-98758102D01*
X185020000Y-98958061D01*
X185020000Y-99161939D01*
X185059774Y-99361898D01*
X185137795Y-99550256D01*
X185170000Y-99598454D01*
X185170000Y-101691531D01*
X185165719Y-101735000D01*
X185170000Y-101778469D01*
X185170000Y-101778477D01*
X185182805Y-101908490D01*
X185233411Y-102075313D01*
X185315589Y-102229059D01*
X185426183Y-102363817D01*
X185459956Y-102391534D01*
X185669219Y-102600797D01*
X185653006Y-102609463D01*
X185556315Y-102688815D01*
X185476963Y-102785506D01*
X185417998Y-102895820D01*
X185381688Y-103015518D01*
X185369428Y-103140000D01*
X185369428Y-103992976D01*
X185246201Y-103586750D01*
X185001523Y-103128989D01*
X184672241Y-102727759D01*
X184571694Y-102645242D01*
X184111697Y-102185245D01*
X183811010Y-101938478D01*
X183353249Y-101693799D01*
X182856549Y-101543127D01*
X182340000Y-101492252D01*
X181823451Y-101543127D01*
X181326751Y-101693799D01*
X180868990Y-101938478D01*
X180467759Y-102267759D01*
X180138478Y-102668990D01*
X180070001Y-102797102D01*
X180001523Y-102668989D01*
X179672241Y-102267759D01*
X179271011Y-101938477D01*
X178813250Y-101693799D01*
X178316550Y-101543127D01*
X177800000Y-101492251D01*
X177283450Y-101543127D01*
X176786750Y-101693799D01*
X176328989Y-101938477D01*
X175927759Y-102267759D01*
X175614998Y-102648859D01*
X175566994Y-102609463D01*
X175456680Y-102550498D01*
X175336982Y-102514188D01*
X175212500Y-102501928D01*
X175145000Y-102501928D01*
X175145000Y-99957331D01*
X175284774Y-99863937D01*
X175428937Y-99719774D01*
X175542205Y-99550256D01*
X175620226Y-99361898D01*
X175660000Y-99161939D01*
X175660000Y-98958061D01*
X175620226Y-98758102D01*
X175542205Y-98569744D01*
X175428937Y-98400226D01*
X175284774Y-98256063D01*
X175115256Y-98142795D01*
X174926898Y-98064774D01*
X174726939Y-98025000D01*
X174523061Y-98025000D01*
X174323102Y-98064774D01*
X174134744Y-98142795D01*
X173965226Y-98256063D01*
X173821063Y-98400226D01*
X173707795Y-98569744D01*
X173629774Y-98758102D01*
X173619325Y-98810632D01*
X173520589Y-98930941D01*
X173438411Y-99084687D01*
X173403157Y-99200903D01*
X173387805Y-99251509D01*
X173386348Y-99266306D01*
X173375000Y-99381523D01*
X173375000Y-99381531D01*
X173370719Y-99425000D01*
X173375000Y-99468469D01*
X173375000Y-102501928D01*
X173307500Y-102501928D01*
X173183018Y-102514188D01*
X173063320Y-102550498D01*
X172953006Y-102609463D01*
X172856315Y-102688815D01*
X172776963Y-102785506D01*
X172717998Y-102895820D01*
X172681688Y-103015518D01*
X172669428Y-103140000D01*
X172669428Y-105140000D01*
X172681688Y-105264482D01*
X172717998Y-105384180D01*
X172776963Y-105494494D01*
X172856315Y-105591185D01*
X172953006Y-105670537D01*
X173063320Y-105729502D01*
X173183018Y-105765812D01*
X173307500Y-105778072D01*
X175165000Y-105778072D01*
X175165000Y-119509442D01*
X175203127Y-119896550D01*
X175353799Y-120393250D01*
X175598477Y-120851011D01*
X175927759Y-121252241D01*
X176328989Y-121581523D01*
X176786750Y-121826201D01*
X177283450Y-121976873D01*
X177800000Y-122027749D01*
X178316550Y-121976873D01*
X178813250Y-121826201D01*
X179271011Y-121581523D01*
X179672241Y-121252241D01*
X180001523Y-120851011D01*
X180246201Y-120393250D01*
X180300000Y-120215898D01*
X180353799Y-120393250D01*
X180598477Y-120851011D01*
X180927759Y-121252241D01*
X181328989Y-121581523D01*
X181786750Y-121826201D01*
X182283450Y-121976873D01*
X182800000Y-122027749D01*
X183316550Y-121976873D01*
X183813250Y-121826201D01*
X184271011Y-121581523D01*
X184672241Y-121252241D01*
X185001523Y-120851011D01*
X185246201Y-120393250D01*
X185300000Y-120215898D01*
X185353799Y-120393250D01*
X185598477Y-120851011D01*
X185927759Y-121252241D01*
X186328989Y-121581523D01*
X186786750Y-121826201D01*
X187283450Y-121976873D01*
X187800000Y-122027749D01*
X188316550Y-121976873D01*
X188813250Y-121826201D01*
X189271011Y-121581523D01*
X189672241Y-121252241D01*
X190001523Y-120851011D01*
X190246201Y-120393250D01*
X190300000Y-120215898D01*
X190353799Y-120393250D01*
X190598477Y-120851011D01*
X190927759Y-121252241D01*
X191328989Y-121581523D01*
X191786750Y-121826201D01*
X192283450Y-121976873D01*
X192800000Y-122027749D01*
X193316550Y-121976873D01*
X193813250Y-121826201D01*
X194271011Y-121581523D01*
X194672241Y-121252241D01*
X195001523Y-120851011D01*
X195246201Y-120393250D01*
X195396873Y-119896550D01*
X195435000Y-119509442D01*
X195435000Y-115471453D01*
X196811694Y-114094758D01*
X196912241Y-114012241D01*
X197241523Y-113611011D01*
X197486201Y-113153250D01*
X197636873Y-112656550D01*
X197675000Y-112269442D01*
X197675000Y-112269434D01*
X197687748Y-112140000D01*
X197675000Y-112010566D01*
X197675000Y-106923685D01*
X198362550Y-107611236D01*
X198405919Y-107664081D01*
X198616812Y-107837157D01*
X198857419Y-107965764D01*
X199118493Y-108044960D01*
X199321963Y-108065000D01*
X199321971Y-108065000D01*
X199390000Y-108071700D01*
X199458029Y-108065000D01*
X200110067Y-108065000D01*
X200368889Y-108143513D01*
X200660000Y-108172185D01*
X200951111Y-108143513D01*
X201231034Y-108058599D01*
X201489014Y-107920706D01*
X201715134Y-107735134D01*
X201900706Y-107509014D01*
X202038599Y-107251034D01*
X202123513Y-106971111D01*
X202145000Y-106752950D01*
X202145000Y-106607050D01*
X202123513Y-106388889D01*
X202038599Y-106108966D01*
X201900706Y-105850986D01*
X201715134Y-105624866D01*
X201489014Y-105439294D01*
X201231034Y-105301401D01*
X200951111Y-105216487D01*
X200660000Y-105187815D01*
X200368889Y-105216487D01*
X200110067Y-105295000D01*
X199963686Y-105295000D01*
X199375010Y-104706325D01*
X199375010Y-97266164D01*
X199419294Y-97349014D01*
X199604866Y-97575134D01*
X199830986Y-97760706D01*
X200088966Y-97898599D01*
X200368889Y-97983513D01*
X200660000Y-98012185D01*
X200951111Y-97983513D01*
X201231034Y-97898599D01*
X201489014Y-97760706D01*
X201715134Y-97575134D01*
X201900706Y-97349014D01*
X202038599Y-97091034D01*
X202123513Y-96811111D01*
X202145000Y-96592950D01*
X202145000Y-96447050D01*
X202123513Y-96228889D01*
X202038599Y-95948966D01*
X201900706Y-95690986D01*
X201715134Y-95464866D01*
X201489014Y-95279294D01*
X201434209Y-95250000D01*
X201489014Y-95220706D01*
X201715134Y-95035134D01*
X201900706Y-94809014D01*
X202038599Y-94551034D01*
X202123513Y-94271111D01*
X202145000Y-94052950D01*
X202145000Y-93907050D01*
X202123513Y-93688889D01*
X202038599Y-93408966D01*
X201900706Y-93150986D01*
X201715134Y-92924866D01*
X201489014Y-92739294D01*
X201434209Y-92710000D01*
X201489014Y-92680706D01*
X201715134Y-92495134D01*
X201900706Y-92269014D01*
X202038599Y-92011034D01*
X202123513Y-91731111D01*
X202145000Y-91512950D01*
X202145000Y-91367050D01*
X202123513Y-91148889D01*
X202038599Y-90868966D01*
X201900706Y-90610986D01*
X201715134Y-90384866D01*
X201489014Y-90199294D01*
X201231034Y-90061401D01*
X200951111Y-89976487D01*
X200660000Y-89947815D01*
X200368889Y-89976487D01*
X200088966Y-90061401D01*
X199830986Y-90199294D01*
X199604866Y-90384866D01*
X199419294Y-90610986D01*
X199281401Y-90868966D01*
X199196487Y-91148889D01*
X199175000Y-91367050D01*
X199175000Y-91512950D01*
X199196487Y-91731111D01*
X199281401Y-92011034D01*
X199419294Y-92269014D01*
X199604866Y-92495134D01*
X199830986Y-92680706D01*
X199885791Y-92710000D01*
X199830986Y-92739294D01*
X199604866Y-92924866D01*
X199419294Y-93150986D01*
X199281401Y-93408966D01*
X199196487Y-93688889D01*
X199186906Y-93786168D01*
X199147167Y-93711822D01*
X199147166Y-93711820D01*
X199147166Y-93711821D01*
X199017462Y-93553776D01*
X199017460Y-93553774D01*
X198974091Y-93500929D01*
X198921246Y-93457560D01*
X197600000Y-92136315D01*
X197600000Y-80713026D01*
X197606700Y-80644999D01*
X197600000Y-80576972D01*
X197600000Y-80576963D01*
X197579960Y-80373493D01*
X197500764Y-80112419D01*
X197372157Y-79871812D01*
X197372156Y-79871810D01*
X197372156Y-79871811D01*
X197242452Y-79713766D01*
X197242450Y-79713764D01*
X197199081Y-79660919D01*
X197146236Y-79617550D01*
X192901000Y-75372315D01*
X192901000Y-74400878D01*
X192908524Y-74386802D01*
X192994295Y-74104051D01*
X193016000Y-73883680D01*
X193016000Y-73436320D01*
X192994295Y-73215949D01*
X192908524Y-72933198D01*
X192901000Y-72919122D01*
X192901000Y-65510878D01*
X192908524Y-65496802D01*
X192994295Y-65214051D01*
X193016000Y-64993680D01*
X193016000Y-64546320D01*
X192994295Y-64325949D01*
X192908524Y-64043198D01*
X192901000Y-64029122D01*
X192901000Y-56620878D01*
X192908524Y-56606802D01*
X192994295Y-56324051D01*
X193016000Y-56103680D01*
X193016000Y-55656320D01*
X192994295Y-55435949D01*
X192908524Y-55153198D01*
X192769238Y-54892613D01*
X192581792Y-54664208D01*
X192353387Y-54476762D01*
X192092802Y-54337476D01*
X191810051Y-54251705D01*
X191516000Y-54222743D01*
X191516000Y-51460000D01*
X200660000Y-51460000D01*
X200660000Y-67087815D01*
X200368889Y-67116487D01*
X200088966Y-67201401D01*
X199830986Y-67339294D01*
X199604866Y-67524866D01*
X199419294Y-67750986D01*
X199281401Y-68008966D01*
X199196487Y-68288889D01*
X199175000Y-68507050D01*
X199175000Y-68652950D01*
X199196487Y-68871111D01*
X199281401Y-69151034D01*
X199419294Y-69409014D01*
X199604866Y-69635134D01*
X199830986Y-69820706D01*
X199885791Y-69850000D01*
X199830986Y-69879294D01*
X199604866Y-70064866D01*
X199419294Y-70290986D01*
X199281401Y-70548966D01*
X199196487Y-70828889D01*
X199175000Y-71047050D01*
X199175000Y-71192950D01*
X199196487Y-71411111D01*
X199281401Y-71691034D01*
X199419294Y-71949014D01*
X199604866Y-72175134D01*
X199830986Y-72360706D01*
X200088966Y-72498599D01*
X200368889Y-72583513D01*
X200660000Y-72612185D01*
X200951111Y-72583513D01*
X201231034Y-72498599D01*
X201489014Y-72360706D01*
X201510000Y-72343484D01*
X201510000Y-74711928D01*
X199810000Y-74711928D01*
X199685518Y-74724188D01*
X199565820Y-74760498D01*
X199455506Y-74819463D01*
X199358815Y-74898815D01*
X199279463Y-74995506D01*
X199220498Y-75105820D01*
X199184188Y-75225518D01*
X199171928Y-75350000D01*
X199171928Y-77050000D01*
X199184188Y-77174482D01*
X199220498Y-77294180D01*
X199279463Y-77404494D01*
X199358815Y-77501185D01*
X199455506Y-77580537D01*
X199565820Y-77639502D01*
X199685518Y-77675812D01*
X199810000Y-77688072D01*
X200660000Y-77688072D01*
X200660000Y-79787815D01*
X200368889Y-79816487D01*
X200088966Y-79901401D01*
X199830986Y-80039294D01*
X199604866Y-80224866D01*
X199419294Y-80450986D01*
X199281401Y-80708966D01*
X199196487Y-80988889D01*
X199175000Y-81207050D01*
X199175000Y-81352950D01*
X199196487Y-81571111D01*
X199281401Y-81851034D01*
X199419294Y-82109014D01*
X199604866Y-82335134D01*
X199830986Y-82520706D01*
X199885791Y-82550000D01*
X199830986Y-82579294D01*
X199604866Y-82764866D01*
X199419294Y-82990986D01*
X199281401Y-83248966D01*
X199196487Y-83528889D01*
X199175000Y-83747050D01*
X199175000Y-83892950D01*
X199196487Y-84111111D01*
X199281401Y-84391034D01*
X199419294Y-84649014D01*
X199604866Y-84875134D01*
X199830986Y-85060706D01*
X200088966Y-85198599D01*
X200368889Y-85283513D01*
X200660000Y-85312185D01*
X200951111Y-85283513D01*
X201231034Y-85198599D01*
X201489014Y-85060706D01*
X201715134Y-84875134D01*
X201900706Y-84649014D01*
X202038599Y-84391034D01*
X202123513Y-84111111D01*
X202145000Y-83892950D01*
X202145000Y-83747050D01*
X202123513Y-83528889D01*
X202038599Y-83248966D01*
X201900706Y-82990986D01*
X201715134Y-82764866D01*
X201489014Y-82579294D01*
X201434209Y-82550000D01*
X201489014Y-82520706D01*
X201715134Y-82335134D01*
X201900706Y-82109014D01*
X202038599Y-81851034D01*
X202123513Y-81571111D01*
X202145000Y-81352950D01*
X202145000Y-81207050D01*
X202123513Y-80988889D01*
X202038599Y-80708966D01*
X201900706Y-80450986D01*
X201715134Y-80224866D01*
X201489014Y-80039294D01*
X201231034Y-79901401D01*
X200951111Y-79816487D01*
X200660000Y-79787815D01*
X200660000Y-77688072D01*
X201510000Y-77688072D01*
X201634482Y-77675812D01*
X201754180Y-77639502D01*
X201864494Y-77580537D01*
X201961185Y-77501185D01*
X202040537Y-77404494D01*
X202099502Y-77294180D01*
X202135812Y-77174482D01*
X202148072Y-77050000D01*
X202148072Y-75350000D01*
X202135812Y-75225518D01*
X202099502Y-75105820D01*
X202040537Y-74995506D01*
X201961185Y-74898815D01*
X201864494Y-74819463D01*
X201754180Y-74760498D01*
X201634482Y-74724188D01*
X201510000Y-74711928D01*
X201510000Y-72343484D01*
X201715134Y-72175134D01*
X201900706Y-71949014D01*
X202038599Y-71691034D01*
X202123513Y-71411111D01*
X202145000Y-71192950D01*
X202145000Y-71047050D01*
X202123513Y-70828889D01*
X202038599Y-70548966D01*
X201900706Y-70290986D01*
X201715134Y-70064866D01*
X201489014Y-69879294D01*
X201434209Y-69850000D01*
X201489014Y-69820706D01*
X201715134Y-69635134D01*
X201900706Y-69409014D01*
X202038599Y-69151034D01*
X202123513Y-68871111D01*
X202145000Y-68652950D01*
X202145000Y-68507050D01*
X202123513Y-68288889D01*
X202038599Y-68008966D01*
X201900706Y-67750986D01*
X201715134Y-67524866D01*
X201489014Y-67339294D01*
X201231034Y-67201401D01*
X200951111Y-67116487D01*
X200660000Y-67087815D01*
X200660000Y-51460000D01*
X203170608Y-51460000D01*
X203982249Y-51532437D01*
X204739774Y-51739672D01*
X205448625Y-52077777D01*
X206086404Y-52536067D01*
X206632946Y-53100055D01*
X207070977Y-53751913D01*
X207386651Y-54471038D01*
X207571206Y-55239768D01*
X207620000Y-55904207D01*
X207620000Y-119350608D01*
X207547563Y-120162249D01*
X207547563Y-120162249D01*
G37*
X207547563Y-120162249D02*
X207340328Y-120919774D01*
X207002223Y-121628625D01*
X206543933Y-122266404D01*
X205979945Y-122812946D01*
X205328087Y-123250977D01*
X204608962Y-123566651D01*
X203840232Y-123751206D01*
X203175779Y-123800001D01*
X116869392Y-123800000D01*
X116057751Y-123727563D01*
X115300226Y-123520328D01*
X114591373Y-123182221D01*
X113953590Y-122723928D01*
X113407054Y-122159945D01*
X112969022Y-121508085D01*
X112653349Y-120788963D01*
X112468794Y-120020232D01*
X112420000Y-119355792D01*
X112420000Y-55909392D01*
X112492437Y-55097751D01*
X112699672Y-54340226D01*
X113037779Y-53631373D01*
X113496072Y-52993590D01*
X114060055Y-52447054D01*
X114711915Y-52009022D01*
X115431037Y-51693349D01*
X116199768Y-51508794D01*
X116864208Y-51460000D01*
X132186260Y-51460000D01*
X132186260Y-58745000D01*
X131893740Y-58745000D01*
X131606842Y-58802068D01*
X131336589Y-58914010D01*
X131093368Y-59076525D01*
X130886525Y-59283368D01*
X130724010Y-59526589D01*
X130612068Y-59796842D01*
X130555000Y-60083740D01*
X130555000Y-60376260D01*
X130612068Y-60663158D01*
X130673525Y-60811529D01*
X130634180Y-60790498D01*
X130514482Y-60754188D01*
X130390000Y-60741928D01*
X128690000Y-60741928D01*
X128565518Y-60754188D01*
X128445820Y-60790498D01*
X128335506Y-60849463D01*
X128238815Y-60928815D01*
X128159463Y-61025506D01*
X128100498Y-61135820D01*
X128064188Y-61255518D01*
X128051928Y-61380000D01*
X128051928Y-63080000D01*
X128064188Y-63204482D01*
X128100498Y-63324180D01*
X128159463Y-63434494D01*
X128238815Y-63531185D01*
X128335506Y-63610537D01*
X128445820Y-63669502D01*
X128565518Y-63705812D01*
X128690000Y-63718072D01*
X130390000Y-63718072D01*
X130514482Y-63705812D01*
X130634180Y-63669502D01*
X130744494Y-63610537D01*
X130841185Y-63531185D01*
X130920537Y-63434494D01*
X130979502Y-63324180D01*
X130992203Y-63282310D01*
X131093368Y-63383475D01*
X131336589Y-63545990D01*
X131606842Y-63657932D01*
X131893740Y-63715000D01*
X132186260Y-63715000D01*
X132473158Y-63657932D01*
X132743411Y-63545990D01*
X132986632Y-63383475D01*
X133080000Y-63290107D01*
X133080000Y-69529428D01*
X131080000Y-69529428D01*
X130955518Y-69541688D01*
X130835820Y-69577998D01*
X130725506Y-69636963D01*
X130628815Y-69716315D01*
X130549463Y-69813006D01*
X130490498Y-69923320D01*
X130454188Y-70043018D01*
X130441928Y-70167500D01*
X130441928Y-72025000D01*
X116759678Y-72025001D01*
X116519484Y-72048658D01*
X116211285Y-72142149D01*
X115968486Y-72271928D01*
X115340000Y-72271928D01*
X115215518Y-72284188D01*
X115095820Y-72320498D01*
X114985506Y-72379463D01*
X114888815Y-72458815D01*
X114809463Y-72555506D01*
X114750498Y-72665820D01*
X114714188Y-72785518D01*
X114701928Y-72910000D01*
X114701928Y-74410000D01*
X114714188Y-74534482D01*
X114750498Y-74654180D01*
X114809463Y-74764494D01*
X114888815Y-74861185D01*
X114985506Y-74940537D01*
X115095820Y-74999502D01*
X115215518Y-75035812D01*
X115340000Y-75048072D01*
X115968484Y-75048072D01*
X116211285Y-75177852D01*
X116519484Y-75271343D01*
X116759678Y-75295000D01*
X125432762Y-75295000D01*
X123702760Y-77025001D01*
X116759679Y-77025000D01*
X116519485Y-77048657D01*
X116211286Y-77142148D01*
X115949359Y-77282151D01*
X115818493Y-77295040D01*
X115557419Y-77374237D01*
X115316812Y-77502844D01*
X115105919Y-77675920D01*
X114932843Y-77886813D01*
X114804236Y-78127420D01*
X114725040Y-78388494D01*
X114698299Y-78660000D01*
X114725040Y-78931507D01*
X114804236Y-79192581D01*
X114932843Y-79433188D01*
X115105919Y-79644081D01*
X115316812Y-79817157D01*
X115557419Y-79945764D01*
X115818493Y-80024960D01*
X115949358Y-80037849D01*
X116211285Y-80177852D01*
X116519484Y-80271343D01*
X116759678Y-80295000D01*
X124299681Y-80295000D01*
X124380001Y-80302911D01*
X124460322Y-80295000D01*
X124700516Y-80271343D01*
X125008715Y-80177852D01*
X125292752Y-80026031D01*
X125541714Y-79821714D01*
X125592920Y-79759319D01*
X127517238Y-77835000D01*
X132160322Y-77835000D01*
X132400516Y-77811343D01*
X132708715Y-77717852D01*
X132992752Y-77566031D01*
X133241714Y-77361714D01*
X133446031Y-77112752D01*
X133597852Y-76828715D01*
X133691343Y-76520516D01*
X133722911Y-76200000D01*
X133691343Y-75879485D01*
X133597852Y-75571286D01*
X133446031Y-75287249D01*
X133241714Y-75038287D01*
X133109766Y-74930001D01*
X133241714Y-74821714D01*
X133446031Y-74572751D01*
X133597852Y-74288714D01*
X133691343Y-73980515D01*
X133722911Y-73660000D01*
X133691343Y-73339484D01*
X133597852Y-73031285D01*
X133446031Y-72747248D01*
X133360249Y-72642722D01*
X133434494Y-72603037D01*
X133531185Y-72523685D01*
X133610537Y-72426994D01*
X133669502Y-72316680D01*
X133705812Y-72196982D01*
X133718072Y-72072500D01*
X133718072Y-70167500D01*
X133705812Y-70043018D01*
X133669502Y-69923320D01*
X133610537Y-69813006D01*
X133531185Y-69716315D01*
X133434494Y-69636963D01*
X133324180Y-69577998D01*
X133204482Y-69541688D01*
X133080000Y-69529428D01*
X133080000Y-63290107D01*
X133193475Y-63176632D01*
X133355990Y-62933411D01*
X133467932Y-62663158D01*
X133525000Y-62376260D01*
X133525000Y-62083740D01*
X133467932Y-61796842D01*
X133355990Y-61526589D01*
X133193475Y-61283368D01*
X133140107Y-61230000D01*
X133193475Y-61176632D01*
X133355990Y-60933411D01*
X133467932Y-60663158D01*
X133525000Y-60376260D01*
X133525000Y-60083740D01*
X133467932Y-59796842D01*
X133355990Y-59526589D01*
X133193475Y-59283368D01*
X132986632Y-59076525D01*
X132743411Y-58914010D01*
X132473158Y-58802068D01*
X132186260Y-58745000D01*
X132186260Y-51460000D01*
X139166939Y-51460000D01*
X139166939Y-80245000D01*
X138963061Y-80245000D01*
X138763102Y-80284774D01*
X138574744Y-80362795D01*
X138526544Y-80395001D01*
X136163469Y-80395000D01*
X136120000Y-80390719D01*
X136076531Y-80395000D01*
X136076524Y-80395000D01*
X135946511Y-80407805D01*
X135779688Y-80458411D01*
X135625942Y-80540589D01*
X135491183Y-80651183D01*
X135463466Y-80684956D01*
X133619203Y-82529218D01*
X133610537Y-82513006D01*
X133531185Y-82416315D01*
X133434494Y-82336963D01*
X133324180Y-82277998D01*
X133204482Y-82241688D01*
X133080000Y-82229428D01*
X131080000Y-82229428D01*
X130955518Y-82241688D01*
X130835820Y-82277998D01*
X130725506Y-82336963D01*
X130628815Y-82416315D01*
X130549463Y-82513006D01*
X130490498Y-82623320D01*
X130454188Y-82743018D01*
X130441928Y-82867500D01*
X130441928Y-84725000D01*
X127677240Y-84725001D01*
X125512924Y-82560686D01*
X125461714Y-82498286D01*
X125212751Y-82293969D01*
X124928714Y-82142148D01*
X124620515Y-82048657D01*
X124403127Y-82027246D01*
X124300000Y-82017089D01*
X124219680Y-82025000D01*
X116759678Y-82025001D01*
X116519484Y-82048658D01*
X116211285Y-82142149D01*
X115949360Y-82282151D01*
X115818493Y-82295040D01*
X115557419Y-82374237D01*
X115316812Y-82502844D01*
X115105919Y-82675920D01*
X114932843Y-82886813D01*
X114804236Y-83127420D01*
X114725040Y-83388494D01*
X114698299Y-83660000D01*
X114725040Y-83931507D01*
X114804236Y-84192581D01*
X114932843Y-84433188D01*
X115105919Y-84644081D01*
X115316812Y-84817157D01*
X115557419Y-84945764D01*
X115818493Y-85024960D01*
X115949358Y-85037849D01*
X116211285Y-85177852D01*
X116519484Y-85271343D01*
X116759678Y-85295000D01*
X123622762Y-85295000D01*
X125352761Y-87025000D01*
X121759679Y-87025000D01*
X121759669Y-87025001D01*
X116759679Y-87025000D01*
X116519485Y-87048657D01*
X116211286Y-87142148D01*
X115949359Y-87282151D01*
X115818493Y-87295040D01*
X115557419Y-87374237D01*
X115316812Y-87502844D01*
X115105919Y-87675920D01*
X114932843Y-87886813D01*
X114804236Y-88127420D01*
X114725040Y-88388494D01*
X114698299Y-88660000D01*
X114725040Y-88931507D01*
X114804236Y-89192581D01*
X114932843Y-89433188D01*
X115105919Y-89644081D01*
X115316812Y-89817157D01*
X115557419Y-89945764D01*
X115818493Y-90024960D01*
X115949358Y-90037849D01*
X116211285Y-90177852D01*
X116519484Y-90271343D01*
X116759678Y-90295000D01*
X131221447Y-90295000D01*
X131451286Y-90417851D01*
X131759484Y-90511342D01*
X132079999Y-90542911D01*
X132400516Y-90511342D01*
X132708714Y-90417851D01*
X132992752Y-90266030D01*
X133241713Y-90061713D01*
X133446030Y-89812752D01*
X133597851Y-89528714D01*
X133691342Y-89220516D01*
X133722911Y-88899999D01*
X133691342Y-88579484D01*
X133597851Y-88271286D01*
X133446030Y-87987248D01*
X133292915Y-87800677D01*
X133116616Y-87624378D01*
X133241714Y-87521714D01*
X133446031Y-87272751D01*
X133597852Y-86988714D01*
X133691343Y-86680515D01*
X133722911Y-86360000D01*
X133691343Y-86039484D01*
X133597852Y-85731285D01*
X133446031Y-85447248D01*
X133360249Y-85342722D01*
X133434494Y-85303037D01*
X133531185Y-85223685D01*
X133610537Y-85126994D01*
X133669502Y-85016680D01*
X133705812Y-84896982D01*
X133718072Y-84772500D01*
X133718072Y-84695683D01*
X133753490Y-84692195D01*
X133920313Y-84641589D01*
X134074059Y-84559411D01*
X134208817Y-84448817D01*
X134236530Y-84415049D01*
X135991939Y-82659640D01*
X135991939Y-98025000D01*
X135788061Y-98025000D01*
X135588102Y-98064774D01*
X135399744Y-98142795D01*
X135230226Y-98256063D01*
X135086063Y-98400226D01*
X134972795Y-98569744D01*
X134894774Y-98758102D01*
X134855000Y-98958061D01*
X134855000Y-99161939D01*
X134894774Y-99361898D01*
X134972795Y-99550256D01*
X135086063Y-99719774D01*
X135230226Y-99863937D01*
X135275000Y-99893854D01*
X135275000Y-102501928D01*
X135207500Y-102501928D01*
X135083018Y-102514188D01*
X134963320Y-102550498D01*
X134853006Y-102609463D01*
X134756315Y-102688815D01*
X134676963Y-102785506D01*
X134617998Y-102895820D01*
X134581688Y-103015518D01*
X134569428Y-103140000D01*
X134569428Y-103992976D01*
X134446201Y-103586750D01*
X134201523Y-103128989D01*
X133872241Y-102727759D01*
X133771694Y-102645242D01*
X133311697Y-102185245D01*
X133011010Y-101938478D01*
X132553249Y-101693799D01*
X132056549Y-101543127D01*
X131540000Y-101492252D01*
X131023451Y-101543127D01*
X130526751Y-101693799D01*
X130068990Y-101938478D01*
X129667759Y-102267759D01*
X129338478Y-102668990D01*
X129270001Y-102797102D01*
X129201523Y-102668989D01*
X128872241Y-102267759D01*
X128471011Y-101938477D01*
X128013250Y-101693799D01*
X127516550Y-101543127D01*
X127000000Y-101492251D01*
X126483450Y-101543127D01*
X125986750Y-101693799D01*
X125528989Y-101938477D01*
X125127759Y-102267759D01*
X124814998Y-102648859D01*
X124766994Y-102609463D01*
X124656680Y-102550498D01*
X124536982Y-102514188D01*
X124412500Y-102501928D01*
X122507500Y-102501928D01*
X122383018Y-102514188D01*
X122263320Y-102550498D01*
X122153006Y-102609463D01*
X122056315Y-102688815D01*
X121976963Y-102785506D01*
X121917998Y-102895820D01*
X121881688Y-103015518D01*
X121869428Y-103140000D01*
X121869428Y-105140000D01*
X121881688Y-105264482D01*
X121917998Y-105384180D01*
X121976963Y-105494494D01*
X122056315Y-105591185D01*
X122153006Y-105670537D01*
X122263320Y-105729502D01*
X122383018Y-105765812D01*
X122507500Y-105778072D01*
X124365000Y-105778072D01*
X124365000Y-119509442D01*
X124403127Y-119896550D01*
X124553799Y-120393250D01*
X124798477Y-120851011D01*
X125127759Y-121252241D01*
X125528989Y-121581523D01*
X125986750Y-121826201D01*
X126483450Y-121976873D01*
X127000000Y-122027749D01*
X127516550Y-121976873D01*
X128013250Y-121826201D01*
X128471011Y-121581523D01*
X128872241Y-121252241D01*
X129201523Y-120851011D01*
X129446201Y-120393250D01*
X129500000Y-120215898D01*
X129553799Y-120393250D01*
X129798477Y-120851011D01*
X130127759Y-121252241D01*
X130528989Y-121581523D01*
X130986750Y-121826201D01*
X131483450Y-121976873D01*
X132000000Y-122027749D01*
X132516550Y-121976873D01*
X133013250Y-121826201D01*
X133471011Y-121581523D01*
X133872241Y-121252241D01*
X134201523Y-120851011D01*
X134446201Y-120393250D01*
X134500000Y-120215898D01*
X134553799Y-120393250D01*
X134798477Y-120851011D01*
X135127759Y-121252241D01*
X135528989Y-121581523D01*
X135986750Y-121826201D01*
X136483450Y-121976873D01*
X137000000Y-122027749D01*
X137516550Y-121976873D01*
X138013250Y-121826201D01*
X138471011Y-121581523D01*
X138872241Y-121252241D01*
X139201523Y-120851011D01*
X139446201Y-120393250D01*
X139500000Y-120215898D01*
X139553799Y-120393250D01*
X139798477Y-120851011D01*
X140127759Y-121252241D01*
X140528989Y-121581523D01*
X140986750Y-121826201D01*
X141483450Y-121976873D01*
X142000000Y-122027749D01*
X142516550Y-121976873D01*
X143013250Y-121826201D01*
X143471011Y-121581523D01*
X143872241Y-121252241D01*
X144201523Y-120851011D01*
X144446201Y-120393250D01*
X144596873Y-119896550D01*
X144635000Y-119509442D01*
X144635000Y-115471453D01*
X146011694Y-114094758D01*
X146112241Y-114012241D01*
X146441523Y-113611011D01*
X146686201Y-113153250D01*
X146836873Y-112656550D01*
X146875000Y-112269442D01*
X146875000Y-112269434D01*
X146887748Y-112140000D01*
X146875000Y-112010566D01*
X146875000Y-104010558D01*
X146836873Y-103623450D01*
X146686201Y-103126750D01*
X146441523Y-102668989D01*
X146112241Y-102267759D01*
X145711011Y-101938477D01*
X145253250Y-101693799D01*
X144756550Y-101543127D01*
X144240000Y-101492251D01*
X143723450Y-101543127D01*
X143226750Y-101693799D01*
X142768989Y-101938477D01*
X142367759Y-102267759D01*
X142038477Y-102668989D01*
X141970000Y-102797101D01*
X141901523Y-102668989D01*
X141572241Y-102267759D01*
X141171011Y-101938477D01*
X140713250Y-101693799D01*
X140216550Y-101543127D01*
X139700000Y-101492251D01*
X139183450Y-101543127D01*
X138686750Y-101693799D01*
X138228989Y-101938477D01*
X137827759Y-102267759D01*
X137514998Y-102648859D01*
X137466994Y-102609463D01*
X137356680Y-102550498D01*
X137236982Y-102514188D01*
X137112500Y-102501928D01*
X137045000Y-102501928D01*
X137045000Y-99373469D01*
X137049281Y-99330000D01*
X137045000Y-99286531D01*
X137045000Y-99286523D01*
X137032195Y-99156510D01*
X136981589Y-98989687D01*
X136901478Y-98839809D01*
X136885226Y-98758102D01*
X136807205Y-98569744D01*
X136693937Y-98400226D01*
X136549774Y-98256063D01*
X136380256Y-98142795D01*
X136191898Y-98064774D01*
X135991939Y-98025000D01*
X135991939Y-82659640D01*
X136486578Y-82165000D01*
X138526546Y-82165000D01*
X138574744Y-82197205D01*
X138763102Y-82275226D01*
X138963061Y-82315000D01*
X139166939Y-82315000D01*
X139366898Y-82275226D01*
X139555256Y-82197205D01*
X139724774Y-82083937D01*
X139801939Y-82006772D01*
X139801939Y-89770000D01*
X139598061Y-89770000D01*
X139398102Y-89809774D01*
X139209744Y-89887795D01*
X139040226Y-90001063D01*
X138896063Y-90145226D01*
X138782795Y-90314744D01*
X138704774Y-90503102D01*
X138665000Y-90703061D01*
X138665000Y-90906939D01*
X138704774Y-91106898D01*
X138782795Y-91295256D01*
X138896063Y-91464774D01*
X139040226Y-91608937D01*
X139146777Y-91680132D01*
X139325000Y-91858355D01*
X139325000Y-98197377D01*
X139300000Y-98323061D01*
X139300000Y-98526939D01*
X139339774Y-98726898D01*
X139417795Y-98915256D01*
X139531063Y-99084774D01*
X139675226Y-99228937D01*
X139844744Y-99342205D01*
X140033102Y-99420226D01*
X140233061Y-99460000D01*
X140436939Y-99460000D01*
X140636898Y-99420226D01*
X140825256Y-99342205D01*
X140994774Y-99228937D01*
X141138937Y-99084774D01*
X141252205Y-98915256D01*
X141330226Y-98726898D01*
X141370000Y-98526939D01*
X141370000Y-98323061D01*
X141345000Y-98197377D01*
X141345000Y-91489608D01*
X141349886Y-91440000D01*
X141330385Y-91242005D01*
X141303102Y-91152066D01*
X141272632Y-91051620D01*
X141178847Y-90876160D01*
X141052633Y-90722367D01*
X141014094Y-90690739D01*
X140575132Y-90251777D01*
X140503937Y-90145226D01*
X140359774Y-90001063D01*
X140190256Y-89887795D01*
X140001898Y-89809774D01*
X139801939Y-89770000D01*
X139801939Y-82006772D01*
X139868937Y-81939774D01*
X139982205Y-81770256D01*
X140060226Y-81581898D01*
X140100000Y-81381939D01*
X140100000Y-81178061D01*
X140060226Y-80978102D01*
X139982205Y-80789744D01*
X139868937Y-80620226D01*
X139724774Y-80476063D01*
X139555256Y-80362795D01*
X139366898Y-80284774D01*
X139166939Y-80245000D01*
X139166939Y-51460000D01*
X191516000Y-51460000D01*
X191516000Y-54222743D01*
X191221949Y-54251705D01*
X190939198Y-54337476D01*
X190678613Y-54476762D01*
X190450208Y-54664208D01*
X190262762Y-54892613D01*
X190246000Y-54923972D01*
X190229238Y-54892613D01*
X190041792Y-54664208D01*
X189813387Y-54476762D01*
X189552802Y-54337476D01*
X189270051Y-54251705D01*
X188976000Y-54222743D01*
X188681949Y-54251705D01*
X188399198Y-54337476D01*
X188138613Y-54476762D01*
X187910208Y-54664208D01*
X187722762Y-54892613D01*
X187706000Y-54923972D01*
X187689238Y-54892613D01*
X187501792Y-54664208D01*
X187273387Y-54476762D01*
X187012802Y-54337476D01*
X186730051Y-54251705D01*
X186436000Y-54222743D01*
X186141949Y-54251705D01*
X185859198Y-54337476D01*
X185598613Y-54476762D01*
X185370208Y-54664208D01*
X185182762Y-54892613D01*
X185128034Y-54995001D01*
X163238469Y-54995000D01*
X163195000Y-54990719D01*
X163151531Y-54995000D01*
X163151524Y-54995000D01*
X163043037Y-55005685D01*
X163021510Y-55007805D01*
X163008411Y-55011779D01*
X162854688Y-55058411D01*
X162700942Y-55140589D01*
X162566183Y-55251183D01*
X162538466Y-55284956D01*
X156884994Y-60938427D01*
X156802371Y-60738957D01*
X156650799Y-60512114D01*
X156457886Y-60319201D01*
X156231043Y-60167629D01*
X155978989Y-60063225D01*
X155711411Y-60010000D01*
X155438589Y-60010000D01*
X155171011Y-60063225D01*
X154918957Y-60167629D01*
X154692114Y-60319201D01*
X154501315Y-60510000D01*
X150291578Y-60510001D01*
X153401578Y-57400000D01*
X154501315Y-57400000D01*
X154692114Y-57590799D01*
X154918957Y-57742371D01*
X155171011Y-57846775D01*
X155438589Y-57900000D01*
X155711411Y-57900000D01*
X155978989Y-57846775D01*
X156231043Y-57742371D01*
X156457886Y-57590799D01*
X156650799Y-57397886D01*
X156802371Y-57171043D01*
X156906775Y-56918989D01*
X156960000Y-56651411D01*
X156960000Y-56378589D01*
X156906775Y-56111011D01*
X156802371Y-55858957D01*
X156650799Y-55632114D01*
X156457886Y-55439201D01*
X156231043Y-55287629D01*
X155978989Y-55183225D01*
X155711411Y-55130000D01*
X155438589Y-55130000D01*
X155171011Y-55183225D01*
X154918957Y-55287629D01*
X154692114Y-55439201D01*
X154501315Y-55630000D01*
X153078479Y-55630001D01*
X153035000Y-55625719D01*
X152861510Y-55642805D01*
X152694687Y-55693412D01*
X152540941Y-55775590D01*
X152439954Y-55858468D01*
X152439951Y-55858471D01*
X152406183Y-55886184D01*
X152378470Y-55919952D01*
X146318421Y-61980000D01*
X142143456Y-61980001D01*
X142095256Y-61947795D01*
X141906898Y-61869774D01*
X141706939Y-61830000D01*
X141503061Y-61830000D01*
X141303102Y-61869774D01*
X141114744Y-61947795D01*
X140945226Y-62061063D01*
X140801063Y-62205226D01*
X140687795Y-62374744D01*
X140609774Y-62563102D01*
X140570000Y-62763061D01*
X140570000Y-62966939D01*
X140609774Y-63166898D01*
X140687795Y-63355256D01*
X140784510Y-63500000D01*
X140687795Y-63644744D01*
X140609774Y-63833102D01*
X140570000Y-64033061D01*
X140570000Y-64236939D01*
X140609774Y-64436898D01*
X140687795Y-64625256D01*
X140801063Y-64794774D01*
X140945226Y-64938937D01*
X141114744Y-65052205D01*
X141303102Y-65130226D01*
X141503061Y-65170000D01*
X141706939Y-65170000D01*
X141906898Y-65130226D01*
X142095256Y-65052205D01*
X142143454Y-65020000D01*
X146641535Y-65020000D01*
X146685001Y-65024281D01*
X146728467Y-65020000D01*
X146728477Y-65020000D01*
X146858490Y-65007195D01*
X147025313Y-64956589D01*
X147179059Y-64874411D01*
X147208548Y-64850210D01*
X147280047Y-64791532D01*
X147280049Y-64791530D01*
X147313817Y-64763817D01*
X147341529Y-64730050D01*
X149791578Y-62280000D01*
X154501315Y-62280000D01*
X154692114Y-62470799D01*
X154918957Y-62622371D01*
X155118427Y-62704994D01*
X148223420Y-69600001D01*
X147223455Y-69600000D01*
X147175256Y-69567795D01*
X146986898Y-69489774D01*
X146786939Y-69450000D01*
X146583061Y-69450000D01*
X146383102Y-69489774D01*
X146194744Y-69567795D01*
X146025226Y-69681063D01*
X145881063Y-69825226D01*
X145767795Y-69994744D01*
X145689774Y-70183102D01*
X145650000Y-70383061D01*
X145650000Y-70586939D01*
X145689774Y-70786898D01*
X145767795Y-70975256D01*
X145881063Y-71144774D01*
X145962355Y-71226066D01*
X145804956Y-71383465D01*
X145748102Y-71394774D01*
X145559744Y-71472795D01*
X145390226Y-71586063D01*
X145246063Y-71730226D01*
X145132795Y-71899744D01*
X145054774Y-72088102D01*
X145015000Y-72288061D01*
X145015000Y-72491939D01*
X145054774Y-72691898D01*
X145132795Y-72880256D01*
X145246063Y-73049774D01*
X145390226Y-73193937D01*
X145559744Y-73307205D01*
X145748102Y-73385226D01*
X145948061Y-73425000D01*
X146151939Y-73425000D01*
X146351898Y-73385226D01*
X146540256Y-73307205D01*
X146709774Y-73193937D01*
X146853937Y-73049774D01*
X146967205Y-72880256D01*
X147045226Y-72691898D01*
X147056535Y-72635044D01*
X147331616Y-72359962D01*
X148546535Y-72359962D01*
X148590001Y-72364243D01*
X148633467Y-72359962D01*
X148633477Y-72359962D01*
X148763490Y-72347157D01*
X148930313Y-72296551D01*
X149084059Y-72214373D01*
X149113548Y-72190172D01*
X149185047Y-72131494D01*
X149185049Y-72131492D01*
X149218817Y-72103779D01*
X149246528Y-72070013D01*
X149462423Y-71854118D01*
X149499774Y-72041898D01*
X149577795Y-72230256D01*
X149691063Y-72399774D01*
X149835226Y-72543937D01*
X150004744Y-72657205D01*
X150193102Y-72735226D01*
X150393061Y-72775000D01*
X150596939Y-72775000D01*
X150796898Y-72735226D01*
X150985256Y-72657205D01*
X151154774Y-72543937D01*
X151298937Y-72399774D01*
X151412205Y-72230256D01*
X151490226Y-72041898D01*
X151530000Y-71841939D01*
X151530000Y-71638061D01*
X151490226Y-71438102D01*
X151412205Y-71249744D01*
X151380000Y-71201546D01*
X151380000Y-70926503D01*
X160756939Y-61549564D01*
X160756939Y-65005000D01*
X160553061Y-65005000D01*
X160353102Y-65044774D01*
X160164744Y-65122795D01*
X159995226Y-65236063D01*
X159851063Y-65380226D01*
X159737795Y-65549744D01*
X159659774Y-65738102D01*
X159620000Y-65938061D01*
X159620000Y-66141939D01*
X159659774Y-66341898D01*
X159737795Y-66530256D01*
X159770000Y-66578454D01*
X159770000Y-82646546D01*
X159737795Y-82694744D01*
X159671462Y-82854884D01*
X159406529Y-82589951D01*
X159378817Y-82556184D01*
X159345049Y-82528471D01*
X159345046Y-82528468D01*
X159244059Y-82445590D01*
X159090313Y-82363412D01*
X158923490Y-82312805D01*
X158750000Y-82295719D01*
X158706521Y-82300001D01*
X154208454Y-82300000D01*
X154160256Y-82267795D01*
X153971898Y-82189774D01*
X153771939Y-82150000D01*
X153568061Y-82150000D01*
X153368102Y-82189774D01*
X153179744Y-82267795D01*
X153010226Y-82381063D01*
X152866063Y-82525226D01*
X152752795Y-82694744D01*
X152674774Y-82883102D01*
X152635000Y-83083061D01*
X152635000Y-83286939D01*
X152674774Y-83486898D01*
X152752795Y-83675256D01*
X152849510Y-83820000D01*
X152752795Y-83964744D01*
X152674774Y-84153102D01*
X152635000Y-84353061D01*
X152635000Y-84556939D01*
X152674774Y-84756898D01*
X152752795Y-84945256D01*
X152866063Y-85114774D01*
X153010226Y-85258937D01*
X153179744Y-85372205D01*
X153368102Y-85450226D01*
X153568061Y-85490000D01*
X153771939Y-85490000D01*
X153971898Y-85450226D01*
X154160256Y-85372205D01*
X154208454Y-85340000D01*
X158383422Y-85340000D01*
X158793480Y-85750059D01*
X158821193Y-85783827D01*
X158955951Y-85894421D01*
X159090312Y-85966238D01*
X159109696Y-85976599D01*
X159276520Y-86027205D01*
X159378817Y-86037280D01*
X159406533Y-86040010D01*
X159406541Y-86040010D01*
X159450010Y-86044291D01*
X159493479Y-86040010D01*
X161391939Y-86040010D01*
X161391939Y-98025000D01*
X161188061Y-98025000D01*
X160988102Y-98064774D01*
X160799744Y-98142795D01*
X160630226Y-98256063D01*
X160486063Y-98400226D01*
X160372795Y-98569744D01*
X160294774Y-98758102D01*
X160255000Y-98958061D01*
X160255000Y-99161939D01*
X160294774Y-99361898D01*
X160372795Y-99550256D01*
X160486063Y-99719774D01*
X160630226Y-99863937D01*
X160675000Y-99893854D01*
X160675000Y-102501928D01*
X160607500Y-102501928D01*
X160483018Y-102514188D01*
X160363320Y-102550498D01*
X160253006Y-102609463D01*
X160156315Y-102688815D01*
X160076963Y-102785506D01*
X160017998Y-102895820D01*
X159981688Y-103015518D01*
X159969428Y-103140000D01*
X159969428Y-103992976D01*
X159846201Y-103586750D01*
X159601523Y-103128989D01*
X159272241Y-102727759D01*
X159171694Y-102645242D01*
X158711697Y-102185245D01*
X158411010Y-101938478D01*
X157953249Y-101693799D01*
X157456549Y-101543127D01*
X156940000Y-101492252D01*
X156423451Y-101543127D01*
X155926751Y-101693799D01*
X155468990Y-101938478D01*
X155067759Y-102267759D01*
X154738478Y-102668990D01*
X154670001Y-102797102D01*
X154601523Y-102668989D01*
X154272241Y-102267759D01*
X153871011Y-101938477D01*
X153413250Y-101693799D01*
X152916550Y-101543127D01*
X152400000Y-101492251D01*
X151883450Y-101543127D01*
X151386750Y-101693799D01*
X150928989Y-101938477D01*
X150527759Y-102267759D01*
X150214998Y-102648859D01*
X150166994Y-102609463D01*
X150056680Y-102550498D01*
X149936982Y-102514188D01*
X149812500Y-102501928D01*
X149745000Y-102501928D01*
X149745000Y-99373469D01*
X149749281Y-99330000D01*
X149745000Y-99286531D01*
X149745000Y-99286523D01*
X149732195Y-99156510D01*
X149681589Y-98989687D01*
X149601478Y-98839809D01*
X149585226Y-98758102D01*
X149507205Y-98569744D01*
X149393937Y-98400226D01*
X149249774Y-98256063D01*
X149080256Y-98142795D01*
X148891898Y-98064774D01*
X148691939Y-98025000D01*
X148488061Y-98025000D01*
X148288102Y-98064774D01*
X148099744Y-98142795D01*
X147930226Y-98256063D01*
X147786063Y-98400226D01*
X147672795Y-98569744D01*
X147594774Y-98758102D01*
X147555000Y-98958061D01*
X147555000Y-99161939D01*
X147594774Y-99361898D01*
X147672795Y-99550256D01*
X147786063Y-99719774D01*
X147930226Y-99863937D01*
X147975000Y-99893854D01*
X147975000Y-102501928D01*
X147907500Y-102501928D01*
X147783018Y-102514188D01*
X147663320Y-102550498D01*
X147553006Y-102609463D01*
X147456315Y-102688815D01*
X147376963Y-102785506D01*
X147317998Y-102895820D01*
X147281688Y-103015518D01*
X147269428Y-103140000D01*
X147269428Y-105140000D01*
X147281688Y-105264482D01*
X147317998Y-105384180D01*
X147376963Y-105494494D01*
X147456315Y-105591185D01*
X147553006Y-105670537D01*
X147663320Y-105729502D01*
X147783018Y-105765812D01*
X147907500Y-105778072D01*
X149765000Y-105778072D01*
X149765000Y-119509442D01*
X149803127Y-119896550D01*
X149953799Y-120393250D01*
X150198477Y-120851011D01*
X150527759Y-121252241D01*
X150928989Y-121581523D01*
X151386750Y-121826201D01*
X151883450Y-121976873D01*
X152400000Y-122027749D01*
X152916550Y-121976873D01*
X153413250Y-121826201D01*
X153871011Y-121581523D01*
X154272241Y-121252241D01*
X154601523Y-120851011D01*
X154846201Y-120393250D01*
X154900000Y-120215898D01*
X154953799Y-120393250D01*
X155198477Y-120851011D01*
X155527759Y-121252241D01*
X155928989Y-121581523D01*
X156386750Y-121826201D01*
X156883450Y-121976873D01*
X157400000Y-122027749D01*
X157916550Y-121976873D01*
X158413250Y-121826201D01*
X158871011Y-121581523D01*
X159272241Y-121252241D01*
X159601523Y-120851011D01*
X159846201Y-120393250D01*
X159900000Y-120215898D01*
X159953799Y-120393250D01*
X160198477Y-120851011D01*
X160527759Y-121252241D01*
X160928989Y-121581523D01*
X161386750Y-121826201D01*
X161883450Y-121976873D01*
X162400000Y-122027749D01*
X162916550Y-121976873D01*
X163413250Y-121826201D01*
X163871011Y-121581523D01*
X164272241Y-121252241D01*
X164601523Y-120851011D01*
X164846201Y-120393250D01*
X164900000Y-120215898D01*
X164953799Y-120393250D01*
X165198477Y-120851011D01*
X165527759Y-121252241D01*
X165928989Y-121581523D01*
X166386750Y-121826201D01*
X166883450Y-121976873D01*
X167400000Y-122027749D01*
X167916550Y-121976873D01*
X168413250Y-121826201D01*
X168871011Y-121581523D01*
X169272241Y-121252241D01*
X169601523Y-120851011D01*
X169846201Y-120393250D01*
X169996873Y-119896550D01*
X170035000Y-119509442D01*
X170035000Y-115471453D01*
X171411694Y-114094758D01*
X171512241Y-114012241D01*
X171841523Y-113611011D01*
X172086201Y-113153250D01*
X172236873Y-112656550D01*
X172275000Y-112269442D01*
X172275000Y-112269434D01*
X172287748Y-112140000D01*
X172275000Y-112010566D01*
X172275000Y-104010558D01*
X172236873Y-103623450D01*
X172086201Y-103126750D01*
X171841523Y-102668989D01*
X171512241Y-102267759D01*
X171111011Y-101938477D01*
X170653250Y-101693799D01*
X170156550Y-101543127D01*
X169640000Y-101492251D01*
X169123450Y-101543127D01*
X168626750Y-101693799D01*
X168168989Y-101938477D01*
X167767759Y-102267759D01*
X167438477Y-102668989D01*
X167370000Y-102797101D01*
X167301523Y-102668989D01*
X166972241Y-102267759D01*
X166571011Y-101938477D01*
X166113250Y-101693799D01*
X165616550Y-101543127D01*
X165100000Y-101492251D01*
X164583450Y-101543127D01*
X164086750Y-101693799D01*
X163628989Y-101938477D01*
X163227759Y-102267759D01*
X162914998Y-102648859D01*
X162866994Y-102609463D01*
X162756680Y-102550498D01*
X162636982Y-102514188D01*
X162512500Y-102501928D01*
X162445000Y-102501928D01*
X162445000Y-99373469D01*
X162449281Y-99330000D01*
X162445000Y-99286531D01*
X162445000Y-99286523D01*
X162432195Y-99156510D01*
X162381589Y-98989687D01*
X162301478Y-98839809D01*
X162285226Y-98758102D01*
X162207205Y-98569744D01*
X162093937Y-98400226D01*
X161949774Y-98256063D01*
X161780256Y-98142795D01*
X161591898Y-98064774D01*
X161391939Y-98025000D01*
X161391939Y-86040010D01*
X164076488Y-86040010D01*
X164119954Y-86044291D01*
X164163420Y-86040010D01*
X164163430Y-86040010D01*
X164293443Y-86027205D01*
X164460266Y-85976599D01*
X164614012Y-85894421D01*
X164664185Y-85853245D01*
X164715000Y-85811542D01*
X164715002Y-85811540D01*
X164748770Y-85783827D01*
X164776482Y-85750060D01*
X167600044Y-82926496D01*
X167633817Y-82898779D01*
X167744411Y-82764021D01*
X167826589Y-82610275D01*
X167877195Y-82443452D01*
X167890000Y-82313439D01*
X167890000Y-82313431D01*
X167894281Y-82269962D01*
X167890000Y-82226496D01*
X167890000Y-81530000D01*
X171546546Y-81530000D01*
X171594744Y-81562205D01*
X171783102Y-81640226D01*
X171983061Y-81680000D01*
X172186939Y-81680000D01*
X172386898Y-81640226D01*
X172575256Y-81562205D01*
X172744774Y-81448937D01*
X172888937Y-81304774D01*
X173002205Y-81135256D01*
X173080226Y-80946898D01*
X173120000Y-80746939D01*
X173120000Y-80543061D01*
X173080226Y-80343102D01*
X173002205Y-80154744D01*
X172888937Y-79985226D01*
X172744774Y-79841063D01*
X172575256Y-79727795D01*
X172386898Y-79649774D01*
X172186939Y-79610000D01*
X171983061Y-79610000D01*
X171783102Y-79649774D01*
X171594744Y-79727795D01*
X171546546Y-79760000D01*
X167048487Y-79760001D01*
X167005000Y-79755718D01*
X166831510Y-79772805D01*
X166664687Y-79823411D01*
X166510941Y-79905589D01*
X166376183Y-80016183D01*
X166265589Y-80150941D01*
X166183411Y-80304687D01*
X166132805Y-80471510D01*
X166120000Y-80601523D01*
X166120000Y-80601524D01*
X166115718Y-80645000D01*
X166120000Y-80688477D01*
X166120000Y-81903384D01*
X165985000Y-82038384D01*
X165985000Y-80548454D01*
X166017205Y-80500256D01*
X166095226Y-80311898D01*
X166135000Y-80111939D01*
X166135000Y-79908061D01*
X166095226Y-79708102D01*
X166017205Y-79519744D01*
X165903937Y-79350226D01*
X165759774Y-79206063D01*
X165590256Y-79092795D01*
X165430116Y-79026463D01*
X170425043Y-74031535D01*
X170481898Y-74020226D01*
X170670256Y-73942205D01*
X170839774Y-73828937D01*
X170983937Y-73684774D01*
X171097205Y-73515256D01*
X171175226Y-73326898D01*
X171215000Y-73126939D01*
X171215000Y-72923061D01*
X171175226Y-72723102D01*
X171097205Y-72534744D01*
X170983937Y-72365226D01*
X170839774Y-72221063D01*
X170670256Y-72107795D01*
X170481898Y-72029774D01*
X170281939Y-71990000D01*
X170078061Y-71990000D01*
X169878102Y-72029774D01*
X169689744Y-72107795D01*
X169520226Y-72221063D01*
X169376063Y-72365226D01*
X169262795Y-72534744D01*
X169184774Y-72723102D01*
X169173465Y-72779957D01*
X163234951Y-78718470D01*
X163201183Y-78746183D01*
X163173470Y-78779951D01*
X163173468Y-78779953D01*
X163151524Y-78806692D01*
X163090589Y-78880941D01*
X163008411Y-79034687D01*
X162957805Y-79201510D01*
X162945000Y-79331523D01*
X162945000Y-79331533D01*
X162940719Y-79374999D01*
X162945000Y-79418465D01*
X162945000Y-82011546D01*
X162912795Y-82059744D01*
X162834774Y-82248102D01*
X162810000Y-82372650D01*
X162810000Y-67848454D01*
X162842205Y-67800256D01*
X162920226Y-67611898D01*
X162960000Y-67411939D01*
X162960000Y-67208061D01*
X162920226Y-67008102D01*
X162842205Y-66819744D01*
X162728937Y-66650226D01*
X162584774Y-66506063D01*
X162415256Y-66392795D01*
X162226898Y-66314774D01*
X162026939Y-66275000D01*
X161823061Y-66275000D01*
X161656961Y-66308039D01*
X161690000Y-66141939D01*
X161690000Y-65938061D01*
X161650226Y-65738102D01*
X161572205Y-65549744D01*
X161458937Y-65380226D01*
X161314774Y-65236063D01*
X161145256Y-65122795D01*
X160956898Y-65044774D01*
X160756939Y-65005000D01*
X160756939Y-61549564D01*
X164141482Y-58165020D01*
X169075000Y-58165020D01*
X169075000Y-58251928D01*
X167475000Y-58251928D01*
X167350518Y-58264188D01*
X167230820Y-58300498D01*
X167120506Y-58359463D01*
X167023815Y-58438815D01*
X166944463Y-58535506D01*
X166934043Y-58555000D01*
X166530751Y-58555000D01*
X166475000Y-58549509D01*
X166252502Y-58571423D01*
X166038554Y-58636324D01*
X166015000Y-58648914D01*
X165841377Y-58741717D01*
X165668551Y-58883552D01*
X165633009Y-58926860D01*
X163701859Y-60858009D01*
X163658551Y-60893551D01*
X163516716Y-61066377D01*
X163411324Y-61263553D01*
X163346423Y-61477501D01*
X163330000Y-61644248D01*
X163330000Y-61644257D01*
X163324510Y-61699999D01*
X163330000Y-61755741D01*
X163330000Y-68635752D01*
X163346423Y-68802499D01*
X163411324Y-69016447D01*
X163516716Y-69213623D01*
X163658551Y-69386449D01*
X163831377Y-69528284D01*
X164028553Y-69633676D01*
X164242501Y-69698577D01*
X164465000Y-69720491D01*
X164687499Y-69698577D01*
X164901447Y-69633676D01*
X165098623Y-69528284D01*
X165271449Y-69386449D01*
X165413284Y-69213623D01*
X165518676Y-69016447D01*
X165583577Y-68802499D01*
X165600000Y-68635752D01*
X165600000Y-62170132D01*
X166937905Y-60832226D01*
X166944463Y-60844494D01*
X167023815Y-60941185D01*
X167120506Y-61020537D01*
X167230820Y-61079502D01*
X167350518Y-61115812D01*
X167475000Y-61128072D01*
X169075000Y-61128072D01*
X169199482Y-61115812D01*
X169319180Y-61079502D01*
X169327340Y-61075140D01*
X169373551Y-61131449D01*
X169416865Y-61166996D01*
X174125000Y-65875132D01*
X174125000Y-70540752D01*
X174141423Y-70707499D01*
X174206324Y-70921447D01*
X174311716Y-71118623D01*
X174453551Y-71291449D01*
X174626377Y-71433284D01*
X174823553Y-71538676D01*
X175037501Y-71603577D01*
X175260000Y-71625491D01*
X175482499Y-71603577D01*
X175696447Y-71538676D01*
X175893623Y-71433284D01*
X176066449Y-71291449D01*
X176208284Y-71118623D01*
X176313676Y-70921447D01*
X176378577Y-70707499D01*
X176395000Y-70540752D01*
X176395000Y-65460751D01*
X176400491Y-65405000D01*
X176395000Y-65349248D01*
X176378577Y-65182501D01*
X176313676Y-64968553D01*
X176208284Y-64771377D01*
X176066449Y-64598551D01*
X176023141Y-64563009D01*
X171315000Y-59854869D01*
X171315000Y-59850741D01*
X171320490Y-59794999D01*
X171315000Y-59739258D01*
X171315000Y-59739248D01*
X171298577Y-59572501D01*
X171233676Y-59358553D01*
X171128284Y-59161377D01*
X170986449Y-58988551D01*
X170943135Y-58953004D01*
X170916996Y-58926865D01*
X170881449Y-58883551D01*
X170708623Y-58741716D01*
X170511447Y-58636325D01*
X170511446Y-58636324D01*
X170297498Y-58571423D01*
X170075000Y-58549509D01*
X170019249Y-58555000D01*
X169615957Y-58555000D01*
X169605537Y-58535506D01*
X169526185Y-58438815D01*
X169429494Y-58359463D01*
X169319180Y-58300498D01*
X169199482Y-58264188D01*
X169075000Y-58251928D01*
X169075000Y-58165020D01*
X177739480Y-58165020D01*
X183900000Y-64325541D01*
X183900000Y-71815531D01*
X183895719Y-71859000D01*
X183900000Y-71902469D01*
X183900000Y-71902477D01*
X183912805Y-72032490D01*
X183963411Y-72199313D01*
X184045589Y-72353059D01*
X184156183Y-72487817D01*
X184189956Y-72515534D01*
X184951668Y-73277246D01*
X184936000Y-73436320D01*
X184936000Y-73883680D01*
X184957705Y-74104051D01*
X185043476Y-74386802D01*
X185182762Y-74647387D01*
X185370208Y-74875792D01*
X185598613Y-75063238D01*
X185859198Y-75202524D01*
X186141949Y-75288295D01*
X186436000Y-75317257D01*
X186730051Y-75288295D01*
X187012802Y-75202524D01*
X187273387Y-75063238D01*
X187501792Y-74875792D01*
X187689238Y-74647387D01*
X187706000Y-74616028D01*
X187722762Y-74647387D01*
X187910208Y-74875792D01*
X188093742Y-75026414D01*
X188055550Y-75064606D01*
X187925866Y-75258692D01*
X187836539Y-75474348D01*
X187791000Y-75703288D01*
X187791000Y-75936712D01*
X187836539Y-76165652D01*
X187925866Y-76381308D01*
X188055550Y-76575394D01*
X188220606Y-76740450D01*
X188414692Y-76870134D01*
X188630348Y-76959461D01*
X188859288Y-77005000D01*
X189092712Y-77005000D01*
X189321652Y-76959461D01*
X189537308Y-76870134D01*
X189731394Y-76740450D01*
X189896450Y-76575394D01*
X190026134Y-76381308D01*
X190115461Y-76165652D01*
X190131000Y-76087532D01*
X190131000Y-76106971D01*
X190124300Y-76175000D01*
X190131000Y-76243029D01*
X190131000Y-76243037D01*
X190151040Y-76446507D01*
X190230236Y-76707581D01*
X190358843Y-76948188D01*
X190531919Y-77159081D01*
X190545650Y-77170350D01*
X190556919Y-77184081D01*
X190767813Y-77357157D01*
X191008420Y-77485764D01*
X191135684Y-77524369D01*
X194830000Y-81218686D01*
X194830000Y-92641971D01*
X194823300Y-92710000D01*
X194830000Y-92778029D01*
X194830000Y-92778037D01*
X194850040Y-92981507D01*
X194929236Y-93242581D01*
X195057843Y-93483188D01*
X195230919Y-93694081D01*
X195283769Y-93737454D01*
X196605010Y-95058696D01*
X196605010Y-102015620D01*
X196511011Y-101938477D01*
X196053250Y-101693799D01*
X195556550Y-101543127D01*
X195040000Y-101492251D01*
X194523450Y-101543127D01*
X194026750Y-101693799D01*
X193568989Y-101938477D01*
X193167759Y-102267759D01*
X192838477Y-102668989D01*
X192770000Y-102797101D01*
X192701523Y-102668989D01*
X192372241Y-102267759D01*
X191971011Y-101938477D01*
X191513250Y-101693799D01*
X191016550Y-101543127D01*
X190500000Y-101492251D01*
X189983450Y-101543127D01*
X189486750Y-101693799D01*
X189028989Y-101938477D01*
X188627759Y-102267759D01*
X188314998Y-102648859D01*
X188266994Y-102609463D01*
X188156680Y-102550498D01*
X188036982Y-102514188D01*
X187912500Y-102501928D01*
X187835683Y-102501928D01*
X187832195Y-102466510D01*
X187781589Y-102299687D01*
X187699411Y-102145941D01*
X187699410Y-102145939D01*
X187699410Y-102145940D01*
X187616532Y-102044953D01*
X187616530Y-102044951D01*
X187588817Y-102011183D01*
X187555049Y-101983470D01*
X186940000Y-101368422D01*
X186940000Y-99598454D01*
X186972205Y-99550256D01*
X187050226Y-99361898D01*
X187090000Y-99161939D01*
X187090000Y-98958061D01*
X187050226Y-98758102D01*
X186972205Y-98569744D01*
X186858937Y-98400226D01*
X186714774Y-98256063D01*
X186545256Y-98142795D01*
X186356898Y-98064774D01*
X186156939Y-98025000D01*
X185953061Y-98025000D01*
X185753102Y-98064774D01*
X185564744Y-98142795D01*
X185395226Y-98256063D01*
X185251063Y-98400226D01*
X185137795Y-98569744D01*
X185059774Y-98758102D01*
X185020000Y-98958061D01*
X185020000Y-99161939D01*
X185059774Y-99361898D01*
X185137795Y-99550256D01*
X185170000Y-99598454D01*
X185170000Y-101691531D01*
X185165719Y-101735000D01*
X185170000Y-101778469D01*
X185170000Y-101778477D01*
X185182805Y-101908490D01*
X185233411Y-102075313D01*
X185315589Y-102229059D01*
X185426183Y-102363817D01*
X185459956Y-102391534D01*
X185669219Y-102600797D01*
X185653006Y-102609463D01*
X185556315Y-102688815D01*
X185476963Y-102785506D01*
X185417998Y-102895820D01*
X185381688Y-103015518D01*
X185369428Y-103140000D01*
X185369428Y-103992976D01*
X185246201Y-103586750D01*
X185001523Y-103128989D01*
X184672241Y-102727759D01*
X184571694Y-102645242D01*
X184111697Y-102185245D01*
X183811010Y-101938478D01*
X183353249Y-101693799D01*
X182856549Y-101543127D01*
X182340000Y-101492252D01*
X181823451Y-101543127D01*
X181326751Y-101693799D01*
X180868990Y-101938478D01*
X180467759Y-102267759D01*
X180138478Y-102668990D01*
X180070001Y-102797102D01*
X180001523Y-102668989D01*
X179672241Y-102267759D01*
X179271011Y-101938477D01*
X178813250Y-101693799D01*
X178316550Y-101543127D01*
X177800000Y-101492251D01*
X177283450Y-101543127D01*
X176786750Y-101693799D01*
X176328989Y-101938477D01*
X175927759Y-102267759D01*
X175614998Y-102648859D01*
X175566994Y-102609463D01*
X175456680Y-102550498D01*
X175336982Y-102514188D01*
X175212500Y-102501928D01*
X175145000Y-102501928D01*
X175145000Y-99957331D01*
X175284774Y-99863937D01*
X175428937Y-99719774D01*
X175542205Y-99550256D01*
X175620226Y-99361898D01*
X175660000Y-99161939D01*
X175660000Y-98958061D01*
X175620226Y-98758102D01*
X175542205Y-98569744D01*
X175428937Y-98400226D01*
X175284774Y-98256063D01*
X175115256Y-98142795D01*
X174926898Y-98064774D01*
X174726939Y-98025000D01*
X174523061Y-98025000D01*
X174323102Y-98064774D01*
X174134744Y-98142795D01*
X173965226Y-98256063D01*
X173821063Y-98400226D01*
X173707795Y-98569744D01*
X173629774Y-98758102D01*
X173619325Y-98810632D01*
X173520589Y-98930941D01*
X173438411Y-99084687D01*
X173403157Y-99200903D01*
X173387805Y-99251509D01*
X173386348Y-99266306D01*
X173375000Y-99381523D01*
X173375000Y-99381531D01*
X173370719Y-99425000D01*
X173375000Y-99468469D01*
X173375000Y-102501928D01*
X173307500Y-102501928D01*
X173183018Y-102514188D01*
X173063320Y-102550498D01*
X172953006Y-102609463D01*
X172856315Y-102688815D01*
X172776963Y-102785506D01*
X172717998Y-102895820D01*
X172681688Y-103015518D01*
X172669428Y-103140000D01*
X172669428Y-105140000D01*
X172681688Y-105264482D01*
X172717998Y-105384180D01*
X172776963Y-105494494D01*
X172856315Y-105591185D01*
X172953006Y-105670537D01*
X173063320Y-105729502D01*
X173183018Y-105765812D01*
X173307500Y-105778072D01*
X175165000Y-105778072D01*
X175165000Y-119509442D01*
X175203127Y-119896550D01*
X175353799Y-120393250D01*
X175598477Y-120851011D01*
X175927759Y-121252241D01*
X176328989Y-121581523D01*
X176786750Y-121826201D01*
X177283450Y-121976873D01*
X177800000Y-122027749D01*
X178316550Y-121976873D01*
X178813250Y-121826201D01*
X179271011Y-121581523D01*
X179672241Y-121252241D01*
X180001523Y-120851011D01*
X180246201Y-120393250D01*
X180300000Y-120215898D01*
X180353799Y-120393250D01*
X180598477Y-120851011D01*
X180927759Y-121252241D01*
X181328989Y-121581523D01*
X181786750Y-121826201D01*
X182283450Y-121976873D01*
X182800000Y-122027749D01*
X183316550Y-121976873D01*
X183813250Y-121826201D01*
X184271011Y-121581523D01*
X184672241Y-121252241D01*
X185001523Y-120851011D01*
X185246201Y-120393250D01*
X185300000Y-120215898D01*
X185353799Y-120393250D01*
X185598477Y-120851011D01*
X185927759Y-121252241D01*
X186328989Y-121581523D01*
X186786750Y-121826201D01*
X187283450Y-121976873D01*
X187800000Y-122027749D01*
X188316550Y-121976873D01*
X188813250Y-121826201D01*
X189271011Y-121581523D01*
X189672241Y-121252241D01*
X190001523Y-120851011D01*
X190246201Y-120393250D01*
X190300000Y-120215898D01*
X190353799Y-120393250D01*
X190598477Y-120851011D01*
X190927759Y-121252241D01*
X191328989Y-121581523D01*
X191786750Y-121826201D01*
X192283450Y-121976873D01*
X192800000Y-122027749D01*
X193316550Y-121976873D01*
X193813250Y-121826201D01*
X194271011Y-121581523D01*
X194672241Y-121252241D01*
X195001523Y-120851011D01*
X195246201Y-120393250D01*
X195396873Y-119896550D01*
X195435000Y-119509442D01*
X195435000Y-115471453D01*
X196811694Y-114094758D01*
X196912241Y-114012241D01*
X197241523Y-113611011D01*
X197486201Y-113153250D01*
X197636873Y-112656550D01*
X197675000Y-112269442D01*
X197675000Y-112269434D01*
X197687748Y-112140000D01*
X197675000Y-112010566D01*
X197675000Y-106923685D01*
X198362550Y-107611236D01*
X198405919Y-107664081D01*
X198616812Y-107837157D01*
X198857419Y-107965764D01*
X199118493Y-108044960D01*
X199321963Y-108065000D01*
X199321971Y-108065000D01*
X199390000Y-108071700D01*
X199458029Y-108065000D01*
X200110067Y-108065000D01*
X200368889Y-108143513D01*
X200660000Y-108172185D01*
X200951111Y-108143513D01*
X201231034Y-108058599D01*
X201489014Y-107920706D01*
X201715134Y-107735134D01*
X201900706Y-107509014D01*
X202038599Y-107251034D01*
X202123513Y-106971111D01*
X202145000Y-106752950D01*
X202145000Y-106607050D01*
X202123513Y-106388889D01*
X202038599Y-106108966D01*
X201900706Y-105850986D01*
X201715134Y-105624866D01*
X201489014Y-105439294D01*
X201231034Y-105301401D01*
X200951111Y-105216487D01*
X200660000Y-105187815D01*
X200368889Y-105216487D01*
X200110067Y-105295000D01*
X199963686Y-105295000D01*
X199375010Y-104706325D01*
X199375010Y-97266164D01*
X199419294Y-97349014D01*
X199604866Y-97575134D01*
X199830986Y-97760706D01*
X200088966Y-97898599D01*
X200368889Y-97983513D01*
X200660000Y-98012185D01*
X200951111Y-97983513D01*
X201231034Y-97898599D01*
X201489014Y-97760706D01*
X201715134Y-97575134D01*
X201900706Y-97349014D01*
X202038599Y-97091034D01*
X202123513Y-96811111D01*
X202145000Y-96592950D01*
X202145000Y-96447050D01*
X202123513Y-96228889D01*
X202038599Y-95948966D01*
X201900706Y-95690986D01*
X201715134Y-95464866D01*
X201489014Y-95279294D01*
X201434209Y-95250000D01*
X201489014Y-95220706D01*
X201715134Y-95035134D01*
X201900706Y-94809014D01*
X202038599Y-94551034D01*
X202123513Y-94271111D01*
X202145000Y-94052950D01*
X202145000Y-93907050D01*
X202123513Y-93688889D01*
X202038599Y-93408966D01*
X201900706Y-93150986D01*
X201715134Y-92924866D01*
X201489014Y-92739294D01*
X201434209Y-92710000D01*
X201489014Y-92680706D01*
X201715134Y-92495134D01*
X201900706Y-92269014D01*
X202038599Y-92011034D01*
X202123513Y-91731111D01*
X202145000Y-91512950D01*
X202145000Y-91367050D01*
X202123513Y-91148889D01*
X202038599Y-90868966D01*
X201900706Y-90610986D01*
X201715134Y-90384866D01*
X201489014Y-90199294D01*
X201231034Y-90061401D01*
X200951111Y-89976487D01*
X200660000Y-89947815D01*
X200368889Y-89976487D01*
X200088966Y-90061401D01*
X199830986Y-90199294D01*
X199604866Y-90384866D01*
X199419294Y-90610986D01*
X199281401Y-90868966D01*
X199196487Y-91148889D01*
X199175000Y-91367050D01*
X199175000Y-91512950D01*
X199196487Y-91731111D01*
X199281401Y-92011034D01*
X199419294Y-92269014D01*
X199604866Y-92495134D01*
X199830986Y-92680706D01*
X199885791Y-92710000D01*
X199830986Y-92739294D01*
X199604866Y-92924866D01*
X199419294Y-93150986D01*
X199281401Y-93408966D01*
X199196487Y-93688889D01*
X199186906Y-93786168D01*
X199147167Y-93711822D01*
X199147166Y-93711820D01*
X199147166Y-93711821D01*
X199017462Y-93553776D01*
X199017460Y-93553774D01*
X198974091Y-93500929D01*
X198921246Y-93457560D01*
X197600000Y-92136315D01*
X197600000Y-80713026D01*
X197606700Y-80644999D01*
X197600000Y-80576972D01*
X197600000Y-80576963D01*
X197579960Y-80373493D01*
X197500764Y-80112419D01*
X197372157Y-79871812D01*
X197372156Y-79871810D01*
X197372156Y-79871811D01*
X197242452Y-79713766D01*
X197242450Y-79713764D01*
X197199081Y-79660919D01*
X197146236Y-79617550D01*
X192901000Y-75372315D01*
X192901000Y-74400878D01*
X192908524Y-74386802D01*
X192994295Y-74104051D01*
X193016000Y-73883680D01*
X193016000Y-73436320D01*
X192994295Y-73215949D01*
X192908524Y-72933198D01*
X192901000Y-72919122D01*
X192901000Y-65510878D01*
X192908524Y-65496802D01*
X192994295Y-65214051D01*
X193016000Y-64993680D01*
X193016000Y-64546320D01*
X192994295Y-64325949D01*
X192908524Y-64043198D01*
X192901000Y-64029122D01*
X192901000Y-56620878D01*
X192908524Y-56606802D01*
X192994295Y-56324051D01*
X193016000Y-56103680D01*
X193016000Y-55656320D01*
X192994295Y-55435949D01*
X192908524Y-55153198D01*
X192769238Y-54892613D01*
X192581792Y-54664208D01*
X192353387Y-54476762D01*
X192092802Y-54337476D01*
X191810051Y-54251705D01*
X191516000Y-54222743D01*
X191516000Y-51460000D01*
X200660000Y-51460000D01*
X200660000Y-67087815D01*
X200368889Y-67116487D01*
X200088966Y-67201401D01*
X199830986Y-67339294D01*
X199604866Y-67524866D01*
X199419294Y-67750986D01*
X199281401Y-68008966D01*
X199196487Y-68288889D01*
X199175000Y-68507050D01*
X199175000Y-68652950D01*
X199196487Y-68871111D01*
X199281401Y-69151034D01*
X199419294Y-69409014D01*
X199604866Y-69635134D01*
X199830986Y-69820706D01*
X199885791Y-69850000D01*
X199830986Y-69879294D01*
X199604866Y-70064866D01*
X199419294Y-70290986D01*
X199281401Y-70548966D01*
X199196487Y-70828889D01*
X199175000Y-71047050D01*
X199175000Y-71192950D01*
X199196487Y-71411111D01*
X199281401Y-71691034D01*
X199419294Y-71949014D01*
X199604866Y-72175134D01*
X199830986Y-72360706D01*
X200088966Y-72498599D01*
X200368889Y-72583513D01*
X200660000Y-72612185D01*
X200951111Y-72583513D01*
X201231034Y-72498599D01*
X201489014Y-72360706D01*
X201510000Y-72343484D01*
X201510000Y-74711928D01*
X199810000Y-74711928D01*
X199685518Y-74724188D01*
X199565820Y-74760498D01*
X199455506Y-74819463D01*
X199358815Y-74898815D01*
X199279463Y-74995506D01*
X199220498Y-75105820D01*
X199184188Y-75225518D01*
X199171928Y-75350000D01*
X199171928Y-77050000D01*
X199184188Y-77174482D01*
X199220498Y-77294180D01*
X199279463Y-77404494D01*
X199358815Y-77501185D01*
X199455506Y-77580537D01*
X199565820Y-77639502D01*
X199685518Y-77675812D01*
X199810000Y-77688072D01*
X200660000Y-77688072D01*
X200660000Y-79787815D01*
X200368889Y-79816487D01*
X200088966Y-79901401D01*
X199830986Y-80039294D01*
X199604866Y-80224866D01*
X199419294Y-80450986D01*
X199281401Y-80708966D01*
X199196487Y-80988889D01*
X199175000Y-81207050D01*
X199175000Y-81352950D01*
X199196487Y-81571111D01*
X199281401Y-81851034D01*
X199419294Y-82109014D01*
X199604866Y-82335134D01*
X199830986Y-82520706D01*
X199885791Y-82550000D01*
X199830986Y-82579294D01*
X199604866Y-82764866D01*
X199419294Y-82990986D01*
X199281401Y-83248966D01*
X199196487Y-83528889D01*
X199175000Y-83747050D01*
X199175000Y-83892950D01*
X199196487Y-84111111D01*
X199281401Y-84391034D01*
X199419294Y-84649014D01*
X199604866Y-84875134D01*
X199830986Y-85060706D01*
X200088966Y-85198599D01*
X200368889Y-85283513D01*
X200660000Y-85312185D01*
X200951111Y-85283513D01*
X201231034Y-85198599D01*
X201489014Y-85060706D01*
X201715134Y-84875134D01*
X201900706Y-84649014D01*
X202038599Y-84391034D01*
X202123513Y-84111111D01*
X202145000Y-83892950D01*
X202145000Y-83747050D01*
X202123513Y-83528889D01*
X202038599Y-83248966D01*
X201900706Y-82990986D01*
X201715134Y-82764866D01*
X201489014Y-82579294D01*
X201434209Y-82550000D01*
X201489014Y-82520706D01*
X201715134Y-82335134D01*
X201900706Y-82109014D01*
X202038599Y-81851034D01*
X202123513Y-81571111D01*
X202145000Y-81352950D01*
X202145000Y-81207050D01*
X202123513Y-80988889D01*
X202038599Y-80708966D01*
X201900706Y-80450986D01*
X201715134Y-80224866D01*
X201489014Y-80039294D01*
X201231034Y-79901401D01*
X200951111Y-79816487D01*
X200660000Y-79787815D01*
X200660000Y-77688072D01*
X201510000Y-77688072D01*
X201634482Y-77675812D01*
X201754180Y-77639502D01*
X201864494Y-77580537D01*
X201961185Y-77501185D01*
X202040537Y-77404494D01*
X202099502Y-77294180D01*
X202135812Y-77174482D01*
X202148072Y-77050000D01*
X202148072Y-75350000D01*
X202135812Y-75225518D01*
X202099502Y-75105820D01*
X202040537Y-74995506D01*
X201961185Y-74898815D01*
X201864494Y-74819463D01*
X201754180Y-74760498D01*
X201634482Y-74724188D01*
X201510000Y-74711928D01*
X201510000Y-72343484D01*
X201715134Y-72175134D01*
X201900706Y-71949014D01*
X202038599Y-71691034D01*
X202123513Y-71411111D01*
X202145000Y-71192950D01*
X202145000Y-71047050D01*
X202123513Y-70828889D01*
X202038599Y-70548966D01*
X201900706Y-70290986D01*
X201715134Y-70064866D01*
X201489014Y-69879294D01*
X201434209Y-69850000D01*
X201489014Y-69820706D01*
X201715134Y-69635134D01*
X201900706Y-69409014D01*
X202038599Y-69151034D01*
X202123513Y-68871111D01*
X202145000Y-68652950D01*
X202145000Y-68507050D01*
X202123513Y-68288889D01*
X202038599Y-68008966D01*
X201900706Y-67750986D01*
X201715134Y-67524866D01*
X201489014Y-67339294D01*
X201231034Y-67201401D01*
X200951111Y-67116487D01*
X200660000Y-67087815D01*
X200660000Y-51460000D01*
X203170608Y-51460000D01*
X203982249Y-51532437D01*
X204739774Y-51739672D01*
X205448625Y-52077777D01*
X206086404Y-52536067D01*
X206632946Y-53100055D01*
X207070977Y-53751913D01*
X207386651Y-54471038D01*
X207571206Y-55239768D01*
X207620000Y-55904207D01*
X207620000Y-119350608D01*
X207547563Y-120162249D01*
M02*
