G04 #@! TF.GenerationSoftware,KiCad,Pcbnew,5.1.4-e60b266~84~ubuntu18.04.1*
G04 #@! TF.CreationDate,2019-09-18T19:11:52+02:00*
G04 #@! TF.ProjectId,PCB,5043422e-6b69-4636-9164-5f7063625858,rev?*
G04 #@! TF.SameCoordinates,Original*
G04 #@! TF.FileFunction,Paste,Top*
G04 #@! TF.FilePolarity,Positive*
%FSLAX46Y46*%
G04 Gerber Fmt 4.6, Leading zero omitted, Abs format (unit mm)*
G04 Created by KiCad (PCBNEW 5.1.4-e60b266~84~ubuntu18.04.1) date 2019-09-18 19:11:52*
%MOMM*%
%LPD*%
G04 APERTURE LIST*
%ADD10C,0.050000*%
%ADD11R,3.050000X2.750000*%
%ADD12R,2.200000X1.200000*%
%ADD13R,2.750000X3.050000*%
%ADD14R,1.200000X2.200000*%
%ADD15R,0.900000X2.000000*%
%ADD16R,2.000000X0.900000*%
%ADD17R,5.000000X5.000000*%
%ADD18R,1.300000X0.800000*%
%ADD19C,0.100000*%
%ADD20C,1.425000*%
%ADD21R,0.800000X0.900000*%
%ADD22R,0.900000X0.800000*%
%ADD23C,1.250000*%
G04 APERTURE END LIST*
D10*
X116840000Y-50800000D02*
X203200000Y-50800000D01*
X111760000Y-55880000D02*
G75*
G02X116840000Y-50800000I5080000J0D01*
G01*
X208280000Y-119380000D02*
X208280000Y-55880000D01*
X203200000Y-50800000D02*
G75*
G02X208280000Y-55880000I0J-5080000D01*
G01*
X111760000Y-119380000D02*
X111760000Y-55880000D01*
X116840000Y-124460000D02*
X203200000Y-124460000D01*
X116840000Y-124460000D02*
G75*
G02X111760000Y-119380000I0J5080000D01*
G01*
X208280000Y-119380000D02*
G75*
G02X203200000Y-124460000I-5080000J0D01*
G01*
D11*
X185503000Y-85343000D03*
X182153000Y-88393000D03*
X185503000Y-88393000D03*
X182153000Y-85343000D03*
D12*
X190128000Y-84588000D03*
X190128000Y-89148000D03*
D13*
X175005000Y-58845000D03*
X178055000Y-62195000D03*
X178055000Y-58845000D03*
X175005000Y-62195000D03*
D14*
X174250000Y-54220000D03*
X178810000Y-54220000D03*
D15*
X165735000Y-87240000D03*
X164465000Y-87240000D03*
X163195000Y-87240000D03*
X161925000Y-87240000D03*
X160655000Y-87240000D03*
X159385000Y-87240000D03*
X158115000Y-87240000D03*
X156845000Y-87240000D03*
X155575000Y-87240000D03*
X154305000Y-87240000D03*
X153035000Y-87240000D03*
X151765000Y-87240000D03*
X150495000Y-87240000D03*
X149225000Y-87240000D03*
D16*
X148225000Y-84455000D03*
X148225000Y-83185000D03*
X148225000Y-81915000D03*
X148225000Y-80645000D03*
X148225000Y-79375000D03*
X148225000Y-78105000D03*
X148225000Y-76835000D03*
X148225000Y-75565000D03*
X148225000Y-74295000D03*
X148225000Y-73025000D03*
D15*
X149225000Y-70240000D03*
X150495000Y-70240000D03*
X151765000Y-70240000D03*
X153035000Y-70240000D03*
X154305000Y-70240000D03*
X155575000Y-70240000D03*
X156845000Y-70240000D03*
X158115000Y-70240000D03*
X159385000Y-70240000D03*
X160655000Y-70240000D03*
X161925000Y-70240000D03*
X163195000Y-70240000D03*
X164465000Y-70240000D03*
X165735000Y-70240000D03*
D17*
X158235000Y-77740000D03*
D18*
X150470000Y-55240000D03*
X150470000Y-56520000D03*
X150470000Y-57780000D03*
X150470000Y-59050000D03*
X150470000Y-60330000D03*
X150470000Y-61600000D03*
X150470000Y-62860000D03*
X150470000Y-64140000D03*
X144170000Y-64140000D03*
X144170000Y-62860000D03*
X144170000Y-61600000D03*
X144170000Y-60330000D03*
X144170000Y-59050000D03*
X144170000Y-57780000D03*
X144170000Y-56520000D03*
X144170000Y-55240000D03*
D19*
G36*
X142309504Y-82311204D02*
G01*
X142333773Y-82314804D01*
X142357571Y-82320765D01*
X142380671Y-82329030D01*
X142402849Y-82339520D01*
X142423893Y-82352133D01*
X142443598Y-82366747D01*
X142461777Y-82383223D01*
X142478253Y-82401402D01*
X142492867Y-82421107D01*
X142505480Y-82442151D01*
X142515970Y-82464329D01*
X142524235Y-82487429D01*
X142530196Y-82511227D01*
X142533796Y-82535496D01*
X142535000Y-82560000D01*
X142535000Y-83810000D01*
X142533796Y-83834504D01*
X142530196Y-83858773D01*
X142524235Y-83882571D01*
X142515970Y-83905671D01*
X142505480Y-83927849D01*
X142492867Y-83948893D01*
X142478253Y-83968598D01*
X142461777Y-83986777D01*
X142443598Y-84003253D01*
X142423893Y-84017867D01*
X142402849Y-84030480D01*
X142380671Y-84040970D01*
X142357571Y-84049235D01*
X142333773Y-84055196D01*
X142309504Y-84058796D01*
X142285000Y-84060000D01*
X141360000Y-84060000D01*
X141335496Y-84058796D01*
X141311227Y-84055196D01*
X141287429Y-84049235D01*
X141264329Y-84040970D01*
X141242151Y-84030480D01*
X141221107Y-84017867D01*
X141201402Y-84003253D01*
X141183223Y-83986777D01*
X141166747Y-83968598D01*
X141152133Y-83948893D01*
X141139520Y-83927849D01*
X141129030Y-83905671D01*
X141120765Y-83882571D01*
X141114804Y-83858773D01*
X141111204Y-83834504D01*
X141110000Y-83810000D01*
X141110000Y-82560000D01*
X141111204Y-82535496D01*
X141114804Y-82511227D01*
X141120765Y-82487429D01*
X141129030Y-82464329D01*
X141139520Y-82442151D01*
X141152133Y-82421107D01*
X141166747Y-82401402D01*
X141183223Y-82383223D01*
X141201402Y-82366747D01*
X141221107Y-82352133D01*
X141242151Y-82339520D01*
X141264329Y-82329030D01*
X141287429Y-82320765D01*
X141311227Y-82314804D01*
X141335496Y-82311204D01*
X141360000Y-82310000D01*
X142285000Y-82310000D01*
X142309504Y-82311204D01*
X142309504Y-82311204D01*
G37*
D20*
X141822500Y-83185000D03*
D19*
G36*
X139334504Y-82311204D02*
G01*
X139358773Y-82314804D01*
X139382571Y-82320765D01*
X139405671Y-82329030D01*
X139427849Y-82339520D01*
X139448893Y-82352133D01*
X139468598Y-82366747D01*
X139486777Y-82383223D01*
X139503253Y-82401402D01*
X139517867Y-82421107D01*
X139530480Y-82442151D01*
X139540970Y-82464329D01*
X139549235Y-82487429D01*
X139555196Y-82511227D01*
X139558796Y-82535496D01*
X139560000Y-82560000D01*
X139560000Y-83810000D01*
X139558796Y-83834504D01*
X139555196Y-83858773D01*
X139549235Y-83882571D01*
X139540970Y-83905671D01*
X139530480Y-83927849D01*
X139517867Y-83948893D01*
X139503253Y-83968598D01*
X139486777Y-83986777D01*
X139468598Y-84003253D01*
X139448893Y-84017867D01*
X139427849Y-84030480D01*
X139405671Y-84040970D01*
X139382571Y-84049235D01*
X139358773Y-84055196D01*
X139334504Y-84058796D01*
X139310000Y-84060000D01*
X138385000Y-84060000D01*
X138360496Y-84058796D01*
X138336227Y-84055196D01*
X138312429Y-84049235D01*
X138289329Y-84040970D01*
X138267151Y-84030480D01*
X138246107Y-84017867D01*
X138226402Y-84003253D01*
X138208223Y-83986777D01*
X138191747Y-83968598D01*
X138177133Y-83948893D01*
X138164520Y-83927849D01*
X138154030Y-83905671D01*
X138145765Y-83882571D01*
X138139804Y-83858773D01*
X138136204Y-83834504D01*
X138135000Y-83810000D01*
X138135000Y-82560000D01*
X138136204Y-82535496D01*
X138139804Y-82511227D01*
X138145765Y-82487429D01*
X138154030Y-82464329D01*
X138164520Y-82442151D01*
X138177133Y-82421107D01*
X138191747Y-82401402D01*
X138208223Y-82383223D01*
X138226402Y-82366747D01*
X138246107Y-82352133D01*
X138267151Y-82339520D01*
X138289329Y-82329030D01*
X138312429Y-82320765D01*
X138336227Y-82314804D01*
X138360496Y-82311204D01*
X138385000Y-82310000D01*
X139310000Y-82310000D01*
X139334504Y-82311204D01*
X139334504Y-82311204D01*
G37*
D20*
X138847500Y-83185000D03*
D19*
G36*
X142727004Y-69611204D02*
G01*
X142751273Y-69614804D01*
X142775071Y-69620765D01*
X142798171Y-69629030D01*
X142820349Y-69639520D01*
X142841393Y-69652133D01*
X142861098Y-69666747D01*
X142879277Y-69683223D01*
X142895753Y-69701402D01*
X142910367Y-69721107D01*
X142922980Y-69742151D01*
X142933470Y-69764329D01*
X142941735Y-69787429D01*
X142947696Y-69811227D01*
X142951296Y-69835496D01*
X142952500Y-69860000D01*
X142952500Y-71110000D01*
X142951296Y-71134504D01*
X142947696Y-71158773D01*
X142941735Y-71182571D01*
X142933470Y-71205671D01*
X142922980Y-71227849D01*
X142910367Y-71248893D01*
X142895753Y-71268598D01*
X142879277Y-71286777D01*
X142861098Y-71303253D01*
X142841393Y-71317867D01*
X142820349Y-71330480D01*
X142798171Y-71340970D01*
X142775071Y-71349235D01*
X142751273Y-71355196D01*
X142727004Y-71358796D01*
X142702500Y-71360000D01*
X141777500Y-71360000D01*
X141752996Y-71358796D01*
X141728727Y-71355196D01*
X141704929Y-71349235D01*
X141681829Y-71340970D01*
X141659651Y-71330480D01*
X141638607Y-71317867D01*
X141618902Y-71303253D01*
X141600723Y-71286777D01*
X141584247Y-71268598D01*
X141569633Y-71248893D01*
X141557020Y-71227849D01*
X141546530Y-71205671D01*
X141538265Y-71182571D01*
X141532304Y-71158773D01*
X141528704Y-71134504D01*
X141527500Y-71110000D01*
X141527500Y-69860000D01*
X141528704Y-69835496D01*
X141532304Y-69811227D01*
X141538265Y-69787429D01*
X141546530Y-69764329D01*
X141557020Y-69742151D01*
X141569633Y-69721107D01*
X141584247Y-69701402D01*
X141600723Y-69683223D01*
X141618902Y-69666747D01*
X141638607Y-69652133D01*
X141659651Y-69639520D01*
X141681829Y-69629030D01*
X141704929Y-69620765D01*
X141728727Y-69614804D01*
X141752996Y-69611204D01*
X141777500Y-69610000D01*
X142702500Y-69610000D01*
X142727004Y-69611204D01*
X142727004Y-69611204D01*
G37*
D20*
X142240000Y-70485000D03*
D19*
G36*
X139752004Y-69611204D02*
G01*
X139776273Y-69614804D01*
X139800071Y-69620765D01*
X139823171Y-69629030D01*
X139845349Y-69639520D01*
X139866393Y-69652133D01*
X139886098Y-69666747D01*
X139904277Y-69683223D01*
X139920753Y-69701402D01*
X139935367Y-69721107D01*
X139947980Y-69742151D01*
X139958470Y-69764329D01*
X139966735Y-69787429D01*
X139972696Y-69811227D01*
X139976296Y-69835496D01*
X139977500Y-69860000D01*
X139977500Y-71110000D01*
X139976296Y-71134504D01*
X139972696Y-71158773D01*
X139966735Y-71182571D01*
X139958470Y-71205671D01*
X139947980Y-71227849D01*
X139935367Y-71248893D01*
X139920753Y-71268598D01*
X139904277Y-71286777D01*
X139886098Y-71303253D01*
X139866393Y-71317867D01*
X139845349Y-71330480D01*
X139823171Y-71340970D01*
X139800071Y-71349235D01*
X139776273Y-71355196D01*
X139752004Y-71358796D01*
X139727500Y-71360000D01*
X138802500Y-71360000D01*
X138777996Y-71358796D01*
X138753727Y-71355196D01*
X138729929Y-71349235D01*
X138706829Y-71340970D01*
X138684651Y-71330480D01*
X138663607Y-71317867D01*
X138643902Y-71303253D01*
X138625723Y-71286777D01*
X138609247Y-71268598D01*
X138594633Y-71248893D01*
X138582020Y-71227849D01*
X138571530Y-71205671D01*
X138563265Y-71182571D01*
X138557304Y-71158773D01*
X138553704Y-71134504D01*
X138552500Y-71110000D01*
X138552500Y-69860000D01*
X138553704Y-69835496D01*
X138557304Y-69811227D01*
X138563265Y-69787429D01*
X138571530Y-69764329D01*
X138582020Y-69742151D01*
X138594633Y-69721107D01*
X138609247Y-69701402D01*
X138625723Y-69683223D01*
X138643902Y-69666747D01*
X138663607Y-69652133D01*
X138684651Y-69639520D01*
X138706829Y-69629030D01*
X138729929Y-69620765D01*
X138753727Y-69614804D01*
X138777996Y-69611204D01*
X138802500Y-69610000D01*
X139727500Y-69610000D01*
X139752004Y-69611204D01*
X139752004Y-69611204D01*
G37*
D20*
X139265000Y-70485000D03*
D19*
G36*
X130027004Y-96916204D02*
G01*
X130051273Y-96919804D01*
X130075071Y-96925765D01*
X130098171Y-96934030D01*
X130120349Y-96944520D01*
X130141393Y-96957133D01*
X130161098Y-96971747D01*
X130179277Y-96988223D01*
X130195753Y-97006402D01*
X130210367Y-97026107D01*
X130222980Y-97047151D01*
X130233470Y-97069329D01*
X130241735Y-97092429D01*
X130247696Y-97116227D01*
X130251296Y-97140496D01*
X130252500Y-97165000D01*
X130252500Y-98415000D01*
X130251296Y-98439504D01*
X130247696Y-98463773D01*
X130241735Y-98487571D01*
X130233470Y-98510671D01*
X130222980Y-98532849D01*
X130210367Y-98553893D01*
X130195753Y-98573598D01*
X130179277Y-98591777D01*
X130161098Y-98608253D01*
X130141393Y-98622867D01*
X130120349Y-98635480D01*
X130098171Y-98645970D01*
X130075071Y-98654235D01*
X130051273Y-98660196D01*
X130027004Y-98663796D01*
X130002500Y-98665000D01*
X129077500Y-98665000D01*
X129052996Y-98663796D01*
X129028727Y-98660196D01*
X129004929Y-98654235D01*
X128981829Y-98645970D01*
X128959651Y-98635480D01*
X128938607Y-98622867D01*
X128918902Y-98608253D01*
X128900723Y-98591777D01*
X128884247Y-98573598D01*
X128869633Y-98553893D01*
X128857020Y-98532849D01*
X128846530Y-98510671D01*
X128838265Y-98487571D01*
X128832304Y-98463773D01*
X128828704Y-98439504D01*
X128827500Y-98415000D01*
X128827500Y-97165000D01*
X128828704Y-97140496D01*
X128832304Y-97116227D01*
X128838265Y-97092429D01*
X128846530Y-97069329D01*
X128857020Y-97047151D01*
X128869633Y-97026107D01*
X128884247Y-97006402D01*
X128900723Y-96988223D01*
X128918902Y-96971747D01*
X128938607Y-96957133D01*
X128959651Y-96944520D01*
X128981829Y-96934030D01*
X129004929Y-96925765D01*
X129028727Y-96919804D01*
X129052996Y-96916204D01*
X129077500Y-96915000D01*
X130002500Y-96915000D01*
X130027004Y-96916204D01*
X130027004Y-96916204D01*
G37*
D20*
X129540000Y-97790000D03*
D19*
G36*
X133002004Y-96916204D02*
G01*
X133026273Y-96919804D01*
X133050071Y-96925765D01*
X133073171Y-96934030D01*
X133095349Y-96944520D01*
X133116393Y-96957133D01*
X133136098Y-96971747D01*
X133154277Y-96988223D01*
X133170753Y-97006402D01*
X133185367Y-97026107D01*
X133197980Y-97047151D01*
X133208470Y-97069329D01*
X133216735Y-97092429D01*
X133222696Y-97116227D01*
X133226296Y-97140496D01*
X133227500Y-97165000D01*
X133227500Y-98415000D01*
X133226296Y-98439504D01*
X133222696Y-98463773D01*
X133216735Y-98487571D01*
X133208470Y-98510671D01*
X133197980Y-98532849D01*
X133185367Y-98553893D01*
X133170753Y-98573598D01*
X133154277Y-98591777D01*
X133136098Y-98608253D01*
X133116393Y-98622867D01*
X133095349Y-98635480D01*
X133073171Y-98645970D01*
X133050071Y-98654235D01*
X133026273Y-98660196D01*
X133002004Y-98663796D01*
X132977500Y-98665000D01*
X132052500Y-98665000D01*
X132027996Y-98663796D01*
X132003727Y-98660196D01*
X131979929Y-98654235D01*
X131956829Y-98645970D01*
X131934651Y-98635480D01*
X131913607Y-98622867D01*
X131893902Y-98608253D01*
X131875723Y-98591777D01*
X131859247Y-98573598D01*
X131844633Y-98553893D01*
X131832020Y-98532849D01*
X131821530Y-98510671D01*
X131813265Y-98487571D01*
X131807304Y-98463773D01*
X131803704Y-98439504D01*
X131802500Y-98415000D01*
X131802500Y-97165000D01*
X131803704Y-97140496D01*
X131807304Y-97116227D01*
X131813265Y-97092429D01*
X131821530Y-97069329D01*
X131832020Y-97047151D01*
X131844633Y-97026107D01*
X131859247Y-97006402D01*
X131875723Y-96988223D01*
X131893902Y-96971747D01*
X131913607Y-96957133D01*
X131934651Y-96944520D01*
X131956829Y-96934030D01*
X131979929Y-96925765D01*
X132003727Y-96919804D01*
X132027996Y-96916204D01*
X132052500Y-96915000D01*
X132977500Y-96915000D01*
X133002004Y-96916204D01*
X133002004Y-96916204D01*
G37*
D20*
X132515000Y-97790000D03*
D19*
G36*
X118162004Y-96916204D02*
G01*
X118186273Y-96919804D01*
X118210071Y-96925765D01*
X118233171Y-96934030D01*
X118255349Y-96944520D01*
X118276393Y-96957133D01*
X118296098Y-96971747D01*
X118314277Y-96988223D01*
X118330753Y-97006402D01*
X118345367Y-97026107D01*
X118357980Y-97047151D01*
X118368470Y-97069329D01*
X118376735Y-97092429D01*
X118382696Y-97116227D01*
X118386296Y-97140496D01*
X118387500Y-97165000D01*
X118387500Y-98415000D01*
X118386296Y-98439504D01*
X118382696Y-98463773D01*
X118376735Y-98487571D01*
X118368470Y-98510671D01*
X118357980Y-98532849D01*
X118345367Y-98553893D01*
X118330753Y-98573598D01*
X118314277Y-98591777D01*
X118296098Y-98608253D01*
X118276393Y-98622867D01*
X118255349Y-98635480D01*
X118233171Y-98645970D01*
X118210071Y-98654235D01*
X118186273Y-98660196D01*
X118162004Y-98663796D01*
X118137500Y-98665000D01*
X117212500Y-98665000D01*
X117187996Y-98663796D01*
X117163727Y-98660196D01*
X117139929Y-98654235D01*
X117116829Y-98645970D01*
X117094651Y-98635480D01*
X117073607Y-98622867D01*
X117053902Y-98608253D01*
X117035723Y-98591777D01*
X117019247Y-98573598D01*
X117004633Y-98553893D01*
X116992020Y-98532849D01*
X116981530Y-98510671D01*
X116973265Y-98487571D01*
X116967304Y-98463773D01*
X116963704Y-98439504D01*
X116962500Y-98415000D01*
X116962500Y-97165000D01*
X116963704Y-97140496D01*
X116967304Y-97116227D01*
X116973265Y-97092429D01*
X116981530Y-97069329D01*
X116992020Y-97047151D01*
X117004633Y-97026107D01*
X117019247Y-97006402D01*
X117035723Y-96988223D01*
X117053902Y-96971747D01*
X117073607Y-96957133D01*
X117094651Y-96944520D01*
X117116829Y-96934030D01*
X117139929Y-96925765D01*
X117163727Y-96919804D01*
X117187996Y-96916204D01*
X117212500Y-96915000D01*
X118137500Y-96915000D01*
X118162004Y-96916204D01*
X118162004Y-96916204D01*
G37*
D20*
X117675000Y-97790000D03*
D19*
G36*
X121137004Y-96916204D02*
G01*
X121161273Y-96919804D01*
X121185071Y-96925765D01*
X121208171Y-96934030D01*
X121230349Y-96944520D01*
X121251393Y-96957133D01*
X121271098Y-96971747D01*
X121289277Y-96988223D01*
X121305753Y-97006402D01*
X121320367Y-97026107D01*
X121332980Y-97047151D01*
X121343470Y-97069329D01*
X121351735Y-97092429D01*
X121357696Y-97116227D01*
X121361296Y-97140496D01*
X121362500Y-97165000D01*
X121362500Y-98415000D01*
X121361296Y-98439504D01*
X121357696Y-98463773D01*
X121351735Y-98487571D01*
X121343470Y-98510671D01*
X121332980Y-98532849D01*
X121320367Y-98553893D01*
X121305753Y-98573598D01*
X121289277Y-98591777D01*
X121271098Y-98608253D01*
X121251393Y-98622867D01*
X121230349Y-98635480D01*
X121208171Y-98645970D01*
X121185071Y-98654235D01*
X121161273Y-98660196D01*
X121137004Y-98663796D01*
X121112500Y-98665000D01*
X120187500Y-98665000D01*
X120162996Y-98663796D01*
X120138727Y-98660196D01*
X120114929Y-98654235D01*
X120091829Y-98645970D01*
X120069651Y-98635480D01*
X120048607Y-98622867D01*
X120028902Y-98608253D01*
X120010723Y-98591777D01*
X119994247Y-98573598D01*
X119979633Y-98553893D01*
X119967020Y-98532849D01*
X119956530Y-98510671D01*
X119948265Y-98487571D01*
X119942304Y-98463773D01*
X119938704Y-98439504D01*
X119937500Y-98415000D01*
X119937500Y-97165000D01*
X119938704Y-97140496D01*
X119942304Y-97116227D01*
X119948265Y-97092429D01*
X119956530Y-97069329D01*
X119967020Y-97047151D01*
X119979633Y-97026107D01*
X119994247Y-97006402D01*
X120010723Y-96988223D01*
X120028902Y-96971747D01*
X120048607Y-96957133D01*
X120069651Y-96944520D01*
X120091829Y-96934030D01*
X120114929Y-96925765D01*
X120138727Y-96919804D01*
X120162996Y-96916204D01*
X120187500Y-96915000D01*
X121112500Y-96915000D01*
X121137004Y-96916204D01*
X121137004Y-96916204D01*
G37*
D20*
X120650000Y-97790000D03*
D19*
G36*
X155209504Y-96916204D02*
G01*
X155233773Y-96919804D01*
X155257571Y-96925765D01*
X155280671Y-96934030D01*
X155302849Y-96944520D01*
X155323893Y-96957133D01*
X155343598Y-96971747D01*
X155361777Y-96988223D01*
X155378253Y-97006402D01*
X155392867Y-97026107D01*
X155405480Y-97047151D01*
X155415970Y-97069329D01*
X155424235Y-97092429D01*
X155430196Y-97116227D01*
X155433796Y-97140496D01*
X155435000Y-97165000D01*
X155435000Y-98415000D01*
X155433796Y-98439504D01*
X155430196Y-98463773D01*
X155424235Y-98487571D01*
X155415970Y-98510671D01*
X155405480Y-98532849D01*
X155392867Y-98553893D01*
X155378253Y-98573598D01*
X155361777Y-98591777D01*
X155343598Y-98608253D01*
X155323893Y-98622867D01*
X155302849Y-98635480D01*
X155280671Y-98645970D01*
X155257571Y-98654235D01*
X155233773Y-98660196D01*
X155209504Y-98663796D01*
X155185000Y-98665000D01*
X154260000Y-98665000D01*
X154235496Y-98663796D01*
X154211227Y-98660196D01*
X154187429Y-98654235D01*
X154164329Y-98645970D01*
X154142151Y-98635480D01*
X154121107Y-98622867D01*
X154101402Y-98608253D01*
X154083223Y-98591777D01*
X154066747Y-98573598D01*
X154052133Y-98553893D01*
X154039520Y-98532849D01*
X154029030Y-98510671D01*
X154020765Y-98487571D01*
X154014804Y-98463773D01*
X154011204Y-98439504D01*
X154010000Y-98415000D01*
X154010000Y-97165000D01*
X154011204Y-97140496D01*
X154014804Y-97116227D01*
X154020765Y-97092429D01*
X154029030Y-97069329D01*
X154039520Y-97047151D01*
X154052133Y-97026107D01*
X154066747Y-97006402D01*
X154083223Y-96988223D01*
X154101402Y-96971747D01*
X154121107Y-96957133D01*
X154142151Y-96944520D01*
X154164329Y-96934030D01*
X154187429Y-96925765D01*
X154211227Y-96919804D01*
X154235496Y-96916204D01*
X154260000Y-96915000D01*
X155185000Y-96915000D01*
X155209504Y-96916204D01*
X155209504Y-96916204D01*
G37*
D20*
X154722500Y-97790000D03*
D19*
G36*
X158184504Y-96916204D02*
G01*
X158208773Y-96919804D01*
X158232571Y-96925765D01*
X158255671Y-96934030D01*
X158277849Y-96944520D01*
X158298893Y-96957133D01*
X158318598Y-96971747D01*
X158336777Y-96988223D01*
X158353253Y-97006402D01*
X158367867Y-97026107D01*
X158380480Y-97047151D01*
X158390970Y-97069329D01*
X158399235Y-97092429D01*
X158405196Y-97116227D01*
X158408796Y-97140496D01*
X158410000Y-97165000D01*
X158410000Y-98415000D01*
X158408796Y-98439504D01*
X158405196Y-98463773D01*
X158399235Y-98487571D01*
X158390970Y-98510671D01*
X158380480Y-98532849D01*
X158367867Y-98553893D01*
X158353253Y-98573598D01*
X158336777Y-98591777D01*
X158318598Y-98608253D01*
X158298893Y-98622867D01*
X158277849Y-98635480D01*
X158255671Y-98645970D01*
X158232571Y-98654235D01*
X158208773Y-98660196D01*
X158184504Y-98663796D01*
X158160000Y-98665000D01*
X157235000Y-98665000D01*
X157210496Y-98663796D01*
X157186227Y-98660196D01*
X157162429Y-98654235D01*
X157139329Y-98645970D01*
X157117151Y-98635480D01*
X157096107Y-98622867D01*
X157076402Y-98608253D01*
X157058223Y-98591777D01*
X157041747Y-98573598D01*
X157027133Y-98553893D01*
X157014520Y-98532849D01*
X157004030Y-98510671D01*
X156995765Y-98487571D01*
X156989804Y-98463773D01*
X156986204Y-98439504D01*
X156985000Y-98415000D01*
X156985000Y-97165000D01*
X156986204Y-97140496D01*
X156989804Y-97116227D01*
X156995765Y-97092429D01*
X157004030Y-97069329D01*
X157014520Y-97047151D01*
X157027133Y-97026107D01*
X157041747Y-97006402D01*
X157058223Y-96988223D01*
X157076402Y-96971747D01*
X157096107Y-96957133D01*
X157117151Y-96944520D01*
X157139329Y-96934030D01*
X157162429Y-96925765D01*
X157186227Y-96919804D01*
X157210496Y-96916204D01*
X157235000Y-96915000D01*
X158160000Y-96915000D01*
X158184504Y-96916204D01*
X158184504Y-96916204D01*
G37*
D20*
X157697500Y-97790000D03*
D19*
G36*
X142727004Y-96916204D02*
G01*
X142751273Y-96919804D01*
X142775071Y-96925765D01*
X142798171Y-96934030D01*
X142820349Y-96944520D01*
X142841393Y-96957133D01*
X142861098Y-96971747D01*
X142879277Y-96988223D01*
X142895753Y-97006402D01*
X142910367Y-97026107D01*
X142922980Y-97047151D01*
X142933470Y-97069329D01*
X142941735Y-97092429D01*
X142947696Y-97116227D01*
X142951296Y-97140496D01*
X142952500Y-97165000D01*
X142952500Y-98415000D01*
X142951296Y-98439504D01*
X142947696Y-98463773D01*
X142941735Y-98487571D01*
X142933470Y-98510671D01*
X142922980Y-98532849D01*
X142910367Y-98553893D01*
X142895753Y-98573598D01*
X142879277Y-98591777D01*
X142861098Y-98608253D01*
X142841393Y-98622867D01*
X142820349Y-98635480D01*
X142798171Y-98645970D01*
X142775071Y-98654235D01*
X142751273Y-98660196D01*
X142727004Y-98663796D01*
X142702500Y-98665000D01*
X141777500Y-98665000D01*
X141752996Y-98663796D01*
X141728727Y-98660196D01*
X141704929Y-98654235D01*
X141681829Y-98645970D01*
X141659651Y-98635480D01*
X141638607Y-98622867D01*
X141618902Y-98608253D01*
X141600723Y-98591777D01*
X141584247Y-98573598D01*
X141569633Y-98553893D01*
X141557020Y-98532849D01*
X141546530Y-98510671D01*
X141538265Y-98487571D01*
X141532304Y-98463773D01*
X141528704Y-98439504D01*
X141527500Y-98415000D01*
X141527500Y-97165000D01*
X141528704Y-97140496D01*
X141532304Y-97116227D01*
X141538265Y-97092429D01*
X141546530Y-97069329D01*
X141557020Y-97047151D01*
X141569633Y-97026107D01*
X141584247Y-97006402D01*
X141600723Y-96988223D01*
X141618902Y-96971747D01*
X141638607Y-96957133D01*
X141659651Y-96944520D01*
X141681829Y-96934030D01*
X141704929Y-96925765D01*
X141728727Y-96919804D01*
X141752996Y-96916204D01*
X141777500Y-96915000D01*
X142702500Y-96915000D01*
X142727004Y-96916204D01*
X142727004Y-96916204D01*
G37*
D20*
X142240000Y-97790000D03*
D19*
G36*
X145702004Y-96916204D02*
G01*
X145726273Y-96919804D01*
X145750071Y-96925765D01*
X145773171Y-96934030D01*
X145795349Y-96944520D01*
X145816393Y-96957133D01*
X145836098Y-96971747D01*
X145854277Y-96988223D01*
X145870753Y-97006402D01*
X145885367Y-97026107D01*
X145897980Y-97047151D01*
X145908470Y-97069329D01*
X145916735Y-97092429D01*
X145922696Y-97116227D01*
X145926296Y-97140496D01*
X145927500Y-97165000D01*
X145927500Y-98415000D01*
X145926296Y-98439504D01*
X145922696Y-98463773D01*
X145916735Y-98487571D01*
X145908470Y-98510671D01*
X145897980Y-98532849D01*
X145885367Y-98553893D01*
X145870753Y-98573598D01*
X145854277Y-98591777D01*
X145836098Y-98608253D01*
X145816393Y-98622867D01*
X145795349Y-98635480D01*
X145773171Y-98645970D01*
X145750071Y-98654235D01*
X145726273Y-98660196D01*
X145702004Y-98663796D01*
X145677500Y-98665000D01*
X144752500Y-98665000D01*
X144727996Y-98663796D01*
X144703727Y-98660196D01*
X144679929Y-98654235D01*
X144656829Y-98645970D01*
X144634651Y-98635480D01*
X144613607Y-98622867D01*
X144593902Y-98608253D01*
X144575723Y-98591777D01*
X144559247Y-98573598D01*
X144544633Y-98553893D01*
X144532020Y-98532849D01*
X144521530Y-98510671D01*
X144513265Y-98487571D01*
X144507304Y-98463773D01*
X144503704Y-98439504D01*
X144502500Y-98415000D01*
X144502500Y-97165000D01*
X144503704Y-97140496D01*
X144507304Y-97116227D01*
X144513265Y-97092429D01*
X144521530Y-97069329D01*
X144532020Y-97047151D01*
X144544633Y-97026107D01*
X144559247Y-97006402D01*
X144575723Y-96988223D01*
X144593902Y-96971747D01*
X144613607Y-96957133D01*
X144634651Y-96944520D01*
X144656829Y-96934030D01*
X144679929Y-96925765D01*
X144703727Y-96919804D01*
X144727996Y-96916204D01*
X144752500Y-96915000D01*
X145677500Y-96915000D01*
X145702004Y-96916204D01*
X145702004Y-96916204D01*
G37*
D20*
X145215000Y-97790000D03*
D19*
G36*
X180610069Y-96916201D02*
G01*
X180634276Y-96919792D01*
X180658015Y-96925738D01*
X180681057Y-96933982D01*
X180703180Y-96944446D01*
X180724171Y-96957027D01*
X180743827Y-96971605D01*
X180761960Y-96988040D01*
X180778395Y-97006173D01*
X180792973Y-97025829D01*
X180805554Y-97046820D01*
X180816018Y-97068943D01*
X180824262Y-97091985D01*
X180830208Y-97115724D01*
X180833799Y-97139931D01*
X180835000Y-97164374D01*
X180835000Y-98415626D01*
X180833799Y-98440069D01*
X180830208Y-98464276D01*
X180824262Y-98488015D01*
X180816018Y-98511057D01*
X180805554Y-98533180D01*
X180792973Y-98554171D01*
X180778395Y-98573827D01*
X180761960Y-98591960D01*
X180743827Y-98608395D01*
X180724171Y-98622973D01*
X180703180Y-98635554D01*
X180681057Y-98646018D01*
X180658015Y-98654262D01*
X180634276Y-98660208D01*
X180610069Y-98663799D01*
X180585626Y-98665000D01*
X179659374Y-98665000D01*
X179634931Y-98663799D01*
X179610724Y-98660208D01*
X179586985Y-98654262D01*
X179563943Y-98646018D01*
X179541820Y-98635554D01*
X179520829Y-98622973D01*
X179501173Y-98608395D01*
X179483040Y-98591960D01*
X179466605Y-98573827D01*
X179452027Y-98554171D01*
X179439446Y-98533180D01*
X179428982Y-98511057D01*
X179420738Y-98488015D01*
X179414792Y-98464276D01*
X179411201Y-98440069D01*
X179410000Y-98415626D01*
X179410000Y-97164374D01*
X179411201Y-97139931D01*
X179414792Y-97115724D01*
X179420738Y-97091985D01*
X179428982Y-97068943D01*
X179439446Y-97046820D01*
X179452027Y-97025829D01*
X179466605Y-97006173D01*
X179483040Y-96988040D01*
X179501173Y-96971605D01*
X179520829Y-96957027D01*
X179541820Y-96944446D01*
X179563943Y-96933982D01*
X179586985Y-96925738D01*
X179610724Y-96919792D01*
X179634931Y-96916201D01*
X179659374Y-96915000D01*
X180585626Y-96915000D01*
X180610069Y-96916201D01*
X180610069Y-96916201D01*
G37*
D20*
X180122500Y-97790000D03*
D19*
G36*
X183584504Y-96916204D02*
G01*
X183608773Y-96919804D01*
X183632571Y-96925765D01*
X183655671Y-96934030D01*
X183677849Y-96944520D01*
X183698893Y-96957133D01*
X183718598Y-96971747D01*
X183736777Y-96988223D01*
X183753253Y-97006402D01*
X183767867Y-97026107D01*
X183780480Y-97047151D01*
X183790970Y-97069329D01*
X183799235Y-97092429D01*
X183805196Y-97116227D01*
X183808796Y-97140496D01*
X183810000Y-97165000D01*
X183810000Y-98415000D01*
X183808796Y-98439504D01*
X183805196Y-98463773D01*
X183799235Y-98487571D01*
X183790970Y-98510671D01*
X183780480Y-98532849D01*
X183767867Y-98553893D01*
X183753253Y-98573598D01*
X183736777Y-98591777D01*
X183718598Y-98608253D01*
X183698893Y-98622867D01*
X183677849Y-98635480D01*
X183655671Y-98645970D01*
X183632571Y-98654235D01*
X183608773Y-98660196D01*
X183584504Y-98663796D01*
X183560000Y-98665000D01*
X182635000Y-98665000D01*
X182610496Y-98663796D01*
X182586227Y-98660196D01*
X182562429Y-98654235D01*
X182539329Y-98645970D01*
X182517151Y-98635480D01*
X182496107Y-98622867D01*
X182476402Y-98608253D01*
X182458223Y-98591777D01*
X182441747Y-98573598D01*
X182427133Y-98553893D01*
X182414520Y-98532849D01*
X182404030Y-98510671D01*
X182395765Y-98487571D01*
X182389804Y-98463773D01*
X182386204Y-98439504D01*
X182385000Y-98415000D01*
X182385000Y-97165000D01*
X182386204Y-97140496D01*
X182389804Y-97116227D01*
X182395765Y-97092429D01*
X182404030Y-97069329D01*
X182414520Y-97047151D01*
X182427133Y-97026107D01*
X182441747Y-97006402D01*
X182458223Y-96988223D01*
X182476402Y-96971747D01*
X182496107Y-96957133D01*
X182517151Y-96944520D01*
X182539329Y-96934030D01*
X182562429Y-96925765D01*
X182586227Y-96919804D01*
X182610496Y-96916204D01*
X182635000Y-96915000D01*
X183560000Y-96915000D01*
X183584504Y-96916204D01*
X183584504Y-96916204D01*
G37*
D20*
X183097500Y-97790000D03*
D19*
G36*
X167909504Y-96916204D02*
G01*
X167933773Y-96919804D01*
X167957571Y-96925765D01*
X167980671Y-96934030D01*
X168002849Y-96944520D01*
X168023893Y-96957133D01*
X168043598Y-96971747D01*
X168061777Y-96988223D01*
X168078253Y-97006402D01*
X168092867Y-97026107D01*
X168105480Y-97047151D01*
X168115970Y-97069329D01*
X168124235Y-97092429D01*
X168130196Y-97116227D01*
X168133796Y-97140496D01*
X168135000Y-97165000D01*
X168135000Y-98415000D01*
X168133796Y-98439504D01*
X168130196Y-98463773D01*
X168124235Y-98487571D01*
X168115970Y-98510671D01*
X168105480Y-98532849D01*
X168092867Y-98553893D01*
X168078253Y-98573598D01*
X168061777Y-98591777D01*
X168043598Y-98608253D01*
X168023893Y-98622867D01*
X168002849Y-98635480D01*
X167980671Y-98645970D01*
X167957571Y-98654235D01*
X167933773Y-98660196D01*
X167909504Y-98663796D01*
X167885000Y-98665000D01*
X166960000Y-98665000D01*
X166935496Y-98663796D01*
X166911227Y-98660196D01*
X166887429Y-98654235D01*
X166864329Y-98645970D01*
X166842151Y-98635480D01*
X166821107Y-98622867D01*
X166801402Y-98608253D01*
X166783223Y-98591777D01*
X166766747Y-98573598D01*
X166752133Y-98553893D01*
X166739520Y-98532849D01*
X166729030Y-98510671D01*
X166720765Y-98487571D01*
X166714804Y-98463773D01*
X166711204Y-98439504D01*
X166710000Y-98415000D01*
X166710000Y-97165000D01*
X166711204Y-97140496D01*
X166714804Y-97116227D01*
X166720765Y-97092429D01*
X166729030Y-97069329D01*
X166739520Y-97047151D01*
X166752133Y-97026107D01*
X166766747Y-97006402D01*
X166783223Y-96988223D01*
X166801402Y-96971747D01*
X166821107Y-96957133D01*
X166842151Y-96944520D01*
X166864329Y-96934030D01*
X166887429Y-96925765D01*
X166911227Y-96919804D01*
X166935496Y-96916204D01*
X166960000Y-96915000D01*
X167885000Y-96915000D01*
X167909504Y-96916204D01*
X167909504Y-96916204D01*
G37*
D20*
X167422500Y-97790000D03*
D19*
G36*
X170884504Y-96916204D02*
G01*
X170908773Y-96919804D01*
X170932571Y-96925765D01*
X170955671Y-96934030D01*
X170977849Y-96944520D01*
X170998893Y-96957133D01*
X171018598Y-96971747D01*
X171036777Y-96988223D01*
X171053253Y-97006402D01*
X171067867Y-97026107D01*
X171080480Y-97047151D01*
X171090970Y-97069329D01*
X171099235Y-97092429D01*
X171105196Y-97116227D01*
X171108796Y-97140496D01*
X171110000Y-97165000D01*
X171110000Y-98415000D01*
X171108796Y-98439504D01*
X171105196Y-98463773D01*
X171099235Y-98487571D01*
X171090970Y-98510671D01*
X171080480Y-98532849D01*
X171067867Y-98553893D01*
X171053253Y-98573598D01*
X171036777Y-98591777D01*
X171018598Y-98608253D01*
X170998893Y-98622867D01*
X170977849Y-98635480D01*
X170955671Y-98645970D01*
X170932571Y-98654235D01*
X170908773Y-98660196D01*
X170884504Y-98663796D01*
X170860000Y-98665000D01*
X169935000Y-98665000D01*
X169910496Y-98663796D01*
X169886227Y-98660196D01*
X169862429Y-98654235D01*
X169839329Y-98645970D01*
X169817151Y-98635480D01*
X169796107Y-98622867D01*
X169776402Y-98608253D01*
X169758223Y-98591777D01*
X169741747Y-98573598D01*
X169727133Y-98553893D01*
X169714520Y-98532849D01*
X169704030Y-98510671D01*
X169695765Y-98487571D01*
X169689804Y-98463773D01*
X169686204Y-98439504D01*
X169685000Y-98415000D01*
X169685000Y-97165000D01*
X169686204Y-97140496D01*
X169689804Y-97116227D01*
X169695765Y-97092429D01*
X169704030Y-97069329D01*
X169714520Y-97047151D01*
X169727133Y-97026107D01*
X169741747Y-97006402D01*
X169758223Y-96988223D01*
X169776402Y-96971747D01*
X169796107Y-96957133D01*
X169817151Y-96944520D01*
X169839329Y-96934030D01*
X169862429Y-96925765D01*
X169886227Y-96919804D01*
X169910496Y-96916204D01*
X169935000Y-96915000D01*
X170860000Y-96915000D01*
X170884504Y-96916204D01*
X170884504Y-96916204D01*
G37*
D20*
X170397500Y-97790000D03*
D21*
X139700000Y-89265000D03*
X138750000Y-87265000D03*
X140650000Y-87265000D03*
X139700000Y-76565000D03*
X138750000Y-74565000D03*
X140650000Y-74565000D03*
D22*
X138160000Y-96520000D03*
X136160000Y-97470000D03*
X136160000Y-95570000D03*
X125460000Y-96520000D03*
X123460000Y-97470000D03*
X123460000Y-95570000D03*
X163560000Y-96520000D03*
X161560000Y-97470000D03*
X161560000Y-95570000D03*
X150860000Y-96520000D03*
X148860000Y-97470000D03*
X148860000Y-95570000D03*
X187960000Y-96520000D03*
X185960000Y-97470000D03*
X185960000Y-95570000D03*
X176768000Y-96520000D03*
X174768000Y-97470000D03*
X174768000Y-95570000D03*
X193532000Y-94488000D03*
X191532000Y-95438000D03*
X191532000Y-93538000D03*
D19*
G36*
X185943504Y-81041204D02*
G01*
X185967773Y-81044804D01*
X185991571Y-81050765D01*
X186014671Y-81059030D01*
X186036849Y-81069520D01*
X186057893Y-81082133D01*
X186077598Y-81096747D01*
X186095777Y-81113223D01*
X186112253Y-81131402D01*
X186126867Y-81151107D01*
X186139480Y-81172151D01*
X186149970Y-81194329D01*
X186158235Y-81217429D01*
X186164196Y-81241227D01*
X186167796Y-81265496D01*
X186169000Y-81290000D01*
X186169000Y-82540000D01*
X186167796Y-82564504D01*
X186164196Y-82588773D01*
X186158235Y-82612571D01*
X186149970Y-82635671D01*
X186139480Y-82657849D01*
X186126867Y-82678893D01*
X186112253Y-82698598D01*
X186095777Y-82716777D01*
X186077598Y-82733253D01*
X186057893Y-82747867D01*
X186036849Y-82760480D01*
X186014671Y-82770970D01*
X185991571Y-82779235D01*
X185967773Y-82785196D01*
X185943504Y-82788796D01*
X185919000Y-82790000D01*
X185169000Y-82790000D01*
X185144496Y-82788796D01*
X185120227Y-82785196D01*
X185096429Y-82779235D01*
X185073329Y-82770970D01*
X185051151Y-82760480D01*
X185030107Y-82747867D01*
X185010402Y-82733253D01*
X184992223Y-82716777D01*
X184975747Y-82698598D01*
X184961133Y-82678893D01*
X184948520Y-82657849D01*
X184938030Y-82635671D01*
X184929765Y-82612571D01*
X184923804Y-82588773D01*
X184920204Y-82564504D01*
X184919000Y-82540000D01*
X184919000Y-81290000D01*
X184920204Y-81265496D01*
X184923804Y-81241227D01*
X184929765Y-81217429D01*
X184938030Y-81194329D01*
X184948520Y-81172151D01*
X184961133Y-81151107D01*
X184975747Y-81131402D01*
X184992223Y-81113223D01*
X185010402Y-81096747D01*
X185030107Y-81082133D01*
X185051151Y-81069520D01*
X185073329Y-81059030D01*
X185096429Y-81050765D01*
X185120227Y-81044804D01*
X185144496Y-81041204D01*
X185169000Y-81040000D01*
X185919000Y-81040000D01*
X185943504Y-81041204D01*
X185943504Y-81041204D01*
G37*
D23*
X185544000Y-81915000D03*
D19*
G36*
X188743504Y-81041204D02*
G01*
X188767773Y-81044804D01*
X188791571Y-81050765D01*
X188814671Y-81059030D01*
X188836849Y-81069520D01*
X188857893Y-81082133D01*
X188877598Y-81096747D01*
X188895777Y-81113223D01*
X188912253Y-81131402D01*
X188926867Y-81151107D01*
X188939480Y-81172151D01*
X188949970Y-81194329D01*
X188958235Y-81217429D01*
X188964196Y-81241227D01*
X188967796Y-81265496D01*
X188969000Y-81290000D01*
X188969000Y-82540000D01*
X188967796Y-82564504D01*
X188964196Y-82588773D01*
X188958235Y-82612571D01*
X188949970Y-82635671D01*
X188939480Y-82657849D01*
X188926867Y-82678893D01*
X188912253Y-82698598D01*
X188895777Y-82716777D01*
X188877598Y-82733253D01*
X188857893Y-82747867D01*
X188836849Y-82760480D01*
X188814671Y-82770970D01*
X188791571Y-82779235D01*
X188767773Y-82785196D01*
X188743504Y-82788796D01*
X188719000Y-82790000D01*
X187969000Y-82790000D01*
X187944496Y-82788796D01*
X187920227Y-82785196D01*
X187896429Y-82779235D01*
X187873329Y-82770970D01*
X187851151Y-82760480D01*
X187830107Y-82747867D01*
X187810402Y-82733253D01*
X187792223Y-82716777D01*
X187775747Y-82698598D01*
X187761133Y-82678893D01*
X187748520Y-82657849D01*
X187738030Y-82635671D01*
X187729765Y-82612571D01*
X187723804Y-82588773D01*
X187720204Y-82564504D01*
X187719000Y-82540000D01*
X187719000Y-81290000D01*
X187720204Y-81265496D01*
X187723804Y-81241227D01*
X187729765Y-81217429D01*
X187738030Y-81194329D01*
X187748520Y-81172151D01*
X187761133Y-81151107D01*
X187775747Y-81131402D01*
X187792223Y-81113223D01*
X187810402Y-81096747D01*
X187830107Y-81082133D01*
X187851151Y-81069520D01*
X187873329Y-81059030D01*
X187896429Y-81050765D01*
X187920227Y-81044804D01*
X187944496Y-81041204D01*
X187969000Y-81040000D01*
X188719000Y-81040000D01*
X188743504Y-81041204D01*
X188743504Y-81041204D01*
G37*
D23*
X188344000Y-81915000D03*
D19*
G36*
X167274504Y-52466204D02*
G01*
X167298773Y-52469804D01*
X167322571Y-52475765D01*
X167345671Y-52484030D01*
X167367849Y-52494520D01*
X167388893Y-52507133D01*
X167408598Y-52521747D01*
X167426777Y-52538223D01*
X167443253Y-52556402D01*
X167457867Y-52576107D01*
X167470480Y-52597151D01*
X167480970Y-52619329D01*
X167489235Y-52642429D01*
X167495196Y-52666227D01*
X167498796Y-52690496D01*
X167500000Y-52715000D01*
X167500000Y-53965000D01*
X167498796Y-53989504D01*
X167495196Y-54013773D01*
X167489235Y-54037571D01*
X167480970Y-54060671D01*
X167470480Y-54082849D01*
X167457867Y-54103893D01*
X167443253Y-54123598D01*
X167426777Y-54141777D01*
X167408598Y-54158253D01*
X167388893Y-54172867D01*
X167367849Y-54185480D01*
X167345671Y-54195970D01*
X167322571Y-54204235D01*
X167298773Y-54210196D01*
X167274504Y-54213796D01*
X167250000Y-54215000D01*
X166500000Y-54215000D01*
X166475496Y-54213796D01*
X166451227Y-54210196D01*
X166427429Y-54204235D01*
X166404329Y-54195970D01*
X166382151Y-54185480D01*
X166361107Y-54172867D01*
X166341402Y-54158253D01*
X166323223Y-54141777D01*
X166306747Y-54123598D01*
X166292133Y-54103893D01*
X166279520Y-54082849D01*
X166269030Y-54060671D01*
X166260765Y-54037571D01*
X166254804Y-54013773D01*
X166251204Y-53989504D01*
X166250000Y-53965000D01*
X166250000Y-52715000D01*
X166251204Y-52690496D01*
X166254804Y-52666227D01*
X166260765Y-52642429D01*
X166269030Y-52619329D01*
X166279520Y-52597151D01*
X166292133Y-52576107D01*
X166306747Y-52556402D01*
X166323223Y-52538223D01*
X166341402Y-52521747D01*
X166361107Y-52507133D01*
X166382151Y-52494520D01*
X166404329Y-52484030D01*
X166427429Y-52475765D01*
X166451227Y-52469804D01*
X166475496Y-52466204D01*
X166500000Y-52465000D01*
X167250000Y-52465000D01*
X167274504Y-52466204D01*
X167274504Y-52466204D01*
G37*
D23*
X166875000Y-53340000D03*
D19*
G36*
X170074504Y-52466204D02*
G01*
X170098773Y-52469804D01*
X170122571Y-52475765D01*
X170145671Y-52484030D01*
X170167849Y-52494520D01*
X170188893Y-52507133D01*
X170208598Y-52521747D01*
X170226777Y-52538223D01*
X170243253Y-52556402D01*
X170257867Y-52576107D01*
X170270480Y-52597151D01*
X170280970Y-52619329D01*
X170289235Y-52642429D01*
X170295196Y-52666227D01*
X170298796Y-52690496D01*
X170300000Y-52715000D01*
X170300000Y-53965000D01*
X170298796Y-53989504D01*
X170295196Y-54013773D01*
X170289235Y-54037571D01*
X170280970Y-54060671D01*
X170270480Y-54082849D01*
X170257867Y-54103893D01*
X170243253Y-54123598D01*
X170226777Y-54141777D01*
X170208598Y-54158253D01*
X170188893Y-54172867D01*
X170167849Y-54185480D01*
X170145671Y-54195970D01*
X170122571Y-54204235D01*
X170098773Y-54210196D01*
X170074504Y-54213796D01*
X170050000Y-54215000D01*
X169300000Y-54215000D01*
X169275496Y-54213796D01*
X169251227Y-54210196D01*
X169227429Y-54204235D01*
X169204329Y-54195970D01*
X169182151Y-54185480D01*
X169161107Y-54172867D01*
X169141402Y-54158253D01*
X169123223Y-54141777D01*
X169106747Y-54123598D01*
X169092133Y-54103893D01*
X169079520Y-54082849D01*
X169069030Y-54060671D01*
X169060765Y-54037571D01*
X169054804Y-54013773D01*
X169051204Y-53989504D01*
X169050000Y-53965000D01*
X169050000Y-52715000D01*
X169051204Y-52690496D01*
X169054804Y-52666227D01*
X169060765Y-52642429D01*
X169069030Y-52619329D01*
X169079520Y-52597151D01*
X169092133Y-52576107D01*
X169106747Y-52556402D01*
X169123223Y-52538223D01*
X169141402Y-52521747D01*
X169161107Y-52507133D01*
X169182151Y-52494520D01*
X169204329Y-52484030D01*
X169227429Y-52475765D01*
X169251227Y-52469804D01*
X169275496Y-52466204D01*
X169300000Y-52465000D01*
X170050000Y-52465000D01*
X170074504Y-52466204D01*
X170074504Y-52466204D01*
G37*
D23*
X169675000Y-53340000D03*
D19*
G36*
X194705504Y-85860204D02*
G01*
X194729773Y-85863804D01*
X194753571Y-85869765D01*
X194776671Y-85878030D01*
X194798849Y-85888520D01*
X194819893Y-85901133D01*
X194839598Y-85915747D01*
X194857777Y-85932223D01*
X194874253Y-85950402D01*
X194888867Y-85970107D01*
X194901480Y-85991151D01*
X194911970Y-86013329D01*
X194920235Y-86036429D01*
X194926196Y-86060227D01*
X194929796Y-86084496D01*
X194931000Y-86109000D01*
X194931000Y-86859000D01*
X194929796Y-86883504D01*
X194926196Y-86907773D01*
X194920235Y-86931571D01*
X194911970Y-86954671D01*
X194901480Y-86976849D01*
X194888867Y-86997893D01*
X194874253Y-87017598D01*
X194857777Y-87035777D01*
X194839598Y-87052253D01*
X194819893Y-87066867D01*
X194798849Y-87079480D01*
X194776671Y-87089970D01*
X194753571Y-87098235D01*
X194729773Y-87104196D01*
X194705504Y-87107796D01*
X194681000Y-87109000D01*
X193431000Y-87109000D01*
X193406496Y-87107796D01*
X193382227Y-87104196D01*
X193358429Y-87098235D01*
X193335329Y-87089970D01*
X193313151Y-87079480D01*
X193292107Y-87066867D01*
X193272402Y-87052253D01*
X193254223Y-87035777D01*
X193237747Y-87017598D01*
X193223133Y-86997893D01*
X193210520Y-86976849D01*
X193200030Y-86954671D01*
X193191765Y-86931571D01*
X193185804Y-86907773D01*
X193182204Y-86883504D01*
X193181000Y-86859000D01*
X193181000Y-86109000D01*
X193182204Y-86084496D01*
X193185804Y-86060227D01*
X193191765Y-86036429D01*
X193200030Y-86013329D01*
X193210520Y-85991151D01*
X193223133Y-85970107D01*
X193237747Y-85950402D01*
X193254223Y-85932223D01*
X193272402Y-85915747D01*
X193292107Y-85901133D01*
X193313151Y-85888520D01*
X193335329Y-85878030D01*
X193358429Y-85869765D01*
X193382227Y-85863804D01*
X193406496Y-85860204D01*
X193431000Y-85859000D01*
X194681000Y-85859000D01*
X194705504Y-85860204D01*
X194705504Y-85860204D01*
G37*
D23*
X194056000Y-86484000D03*
D19*
G36*
X194705504Y-88660204D02*
G01*
X194729773Y-88663804D01*
X194753571Y-88669765D01*
X194776671Y-88678030D01*
X194798849Y-88688520D01*
X194819893Y-88701133D01*
X194839598Y-88715747D01*
X194857777Y-88732223D01*
X194874253Y-88750402D01*
X194888867Y-88770107D01*
X194901480Y-88791151D01*
X194911970Y-88813329D01*
X194920235Y-88836429D01*
X194926196Y-88860227D01*
X194929796Y-88884496D01*
X194931000Y-88909000D01*
X194931000Y-89659000D01*
X194929796Y-89683504D01*
X194926196Y-89707773D01*
X194920235Y-89731571D01*
X194911970Y-89754671D01*
X194901480Y-89776849D01*
X194888867Y-89797893D01*
X194874253Y-89817598D01*
X194857777Y-89835777D01*
X194839598Y-89852253D01*
X194819893Y-89866867D01*
X194798849Y-89879480D01*
X194776671Y-89889970D01*
X194753571Y-89898235D01*
X194729773Y-89904196D01*
X194705504Y-89907796D01*
X194681000Y-89909000D01*
X193431000Y-89909000D01*
X193406496Y-89907796D01*
X193382227Y-89904196D01*
X193358429Y-89898235D01*
X193335329Y-89889970D01*
X193313151Y-89879480D01*
X193292107Y-89866867D01*
X193272402Y-89852253D01*
X193254223Y-89835777D01*
X193237747Y-89817598D01*
X193223133Y-89797893D01*
X193210520Y-89776849D01*
X193200030Y-89754671D01*
X193191765Y-89731571D01*
X193185804Y-89707773D01*
X193182204Y-89683504D01*
X193181000Y-89659000D01*
X193181000Y-88909000D01*
X193182204Y-88884496D01*
X193185804Y-88860227D01*
X193191765Y-88836429D01*
X193200030Y-88813329D01*
X193210520Y-88791151D01*
X193223133Y-88770107D01*
X193237747Y-88750402D01*
X193254223Y-88732223D01*
X193272402Y-88715747D01*
X193292107Y-88701133D01*
X193313151Y-88688520D01*
X193335329Y-88678030D01*
X193358429Y-88669765D01*
X193382227Y-88663804D01*
X193406496Y-88660204D01*
X193431000Y-88659000D01*
X194681000Y-88659000D01*
X194705504Y-88660204D01*
X194705504Y-88660204D01*
G37*
D23*
X194056000Y-89284000D03*
D19*
G36*
X162574504Y-63260204D02*
G01*
X162598773Y-63263804D01*
X162622571Y-63269765D01*
X162645671Y-63278030D01*
X162667849Y-63288520D01*
X162688893Y-63301133D01*
X162708598Y-63315747D01*
X162726777Y-63332223D01*
X162743253Y-63350402D01*
X162757867Y-63370107D01*
X162770480Y-63391151D01*
X162780970Y-63413329D01*
X162789235Y-63436429D01*
X162795196Y-63460227D01*
X162798796Y-63484496D01*
X162800000Y-63509000D01*
X162800000Y-64259000D01*
X162798796Y-64283504D01*
X162795196Y-64307773D01*
X162789235Y-64331571D01*
X162780970Y-64354671D01*
X162770480Y-64376849D01*
X162757867Y-64397893D01*
X162743253Y-64417598D01*
X162726777Y-64435777D01*
X162708598Y-64452253D01*
X162688893Y-64466867D01*
X162667849Y-64479480D01*
X162645671Y-64489970D01*
X162622571Y-64498235D01*
X162598773Y-64504196D01*
X162574504Y-64507796D01*
X162550000Y-64509000D01*
X161300000Y-64509000D01*
X161275496Y-64507796D01*
X161251227Y-64504196D01*
X161227429Y-64498235D01*
X161204329Y-64489970D01*
X161182151Y-64479480D01*
X161161107Y-64466867D01*
X161141402Y-64452253D01*
X161123223Y-64435777D01*
X161106747Y-64417598D01*
X161092133Y-64397893D01*
X161079520Y-64376849D01*
X161069030Y-64354671D01*
X161060765Y-64331571D01*
X161054804Y-64307773D01*
X161051204Y-64283504D01*
X161050000Y-64259000D01*
X161050000Y-63509000D01*
X161051204Y-63484496D01*
X161054804Y-63460227D01*
X161060765Y-63436429D01*
X161069030Y-63413329D01*
X161079520Y-63391151D01*
X161092133Y-63370107D01*
X161106747Y-63350402D01*
X161123223Y-63332223D01*
X161141402Y-63315747D01*
X161161107Y-63301133D01*
X161182151Y-63288520D01*
X161204329Y-63278030D01*
X161227429Y-63269765D01*
X161251227Y-63263804D01*
X161275496Y-63260204D01*
X161300000Y-63259000D01*
X162550000Y-63259000D01*
X162574504Y-63260204D01*
X162574504Y-63260204D01*
G37*
D23*
X161925000Y-63884000D03*
D19*
G36*
X162574504Y-60460204D02*
G01*
X162598773Y-60463804D01*
X162622571Y-60469765D01*
X162645671Y-60478030D01*
X162667849Y-60488520D01*
X162688893Y-60501133D01*
X162708598Y-60515747D01*
X162726777Y-60532223D01*
X162743253Y-60550402D01*
X162757867Y-60570107D01*
X162770480Y-60591151D01*
X162780970Y-60613329D01*
X162789235Y-60636429D01*
X162795196Y-60660227D01*
X162798796Y-60684496D01*
X162800000Y-60709000D01*
X162800000Y-61459000D01*
X162798796Y-61483504D01*
X162795196Y-61507773D01*
X162789235Y-61531571D01*
X162780970Y-61554671D01*
X162770480Y-61576849D01*
X162757867Y-61597893D01*
X162743253Y-61617598D01*
X162726777Y-61635777D01*
X162708598Y-61652253D01*
X162688893Y-61666867D01*
X162667849Y-61679480D01*
X162645671Y-61689970D01*
X162622571Y-61698235D01*
X162598773Y-61704196D01*
X162574504Y-61707796D01*
X162550000Y-61709000D01*
X161300000Y-61709000D01*
X161275496Y-61707796D01*
X161251227Y-61704196D01*
X161227429Y-61698235D01*
X161204329Y-61689970D01*
X161182151Y-61679480D01*
X161161107Y-61666867D01*
X161141402Y-61652253D01*
X161123223Y-61635777D01*
X161106747Y-61617598D01*
X161092133Y-61597893D01*
X161079520Y-61576849D01*
X161069030Y-61554671D01*
X161060765Y-61531571D01*
X161054804Y-61507773D01*
X161051204Y-61483504D01*
X161050000Y-61459000D01*
X161050000Y-60709000D01*
X161051204Y-60684496D01*
X161054804Y-60660227D01*
X161060765Y-60636429D01*
X161069030Y-60613329D01*
X161079520Y-60591151D01*
X161092133Y-60570107D01*
X161106747Y-60550402D01*
X161123223Y-60532223D01*
X161141402Y-60515747D01*
X161161107Y-60501133D01*
X161182151Y-60488520D01*
X161204329Y-60478030D01*
X161227429Y-60469765D01*
X161251227Y-60463804D01*
X161275496Y-60460204D01*
X161300000Y-60459000D01*
X162550000Y-60459000D01*
X162574504Y-60460204D01*
X162574504Y-60460204D01*
G37*
D23*
X161925000Y-61084000D03*
D19*
G36*
X162574504Y-52840204D02*
G01*
X162598773Y-52843804D01*
X162622571Y-52849765D01*
X162645671Y-52858030D01*
X162667849Y-52868520D01*
X162688893Y-52881133D01*
X162708598Y-52895747D01*
X162726777Y-52912223D01*
X162743253Y-52930402D01*
X162757867Y-52950107D01*
X162770480Y-52971151D01*
X162780970Y-52993329D01*
X162789235Y-53016429D01*
X162795196Y-53040227D01*
X162798796Y-53064496D01*
X162800000Y-53089000D01*
X162800000Y-53839000D01*
X162798796Y-53863504D01*
X162795196Y-53887773D01*
X162789235Y-53911571D01*
X162780970Y-53934671D01*
X162770480Y-53956849D01*
X162757867Y-53977893D01*
X162743253Y-53997598D01*
X162726777Y-54015777D01*
X162708598Y-54032253D01*
X162688893Y-54046867D01*
X162667849Y-54059480D01*
X162645671Y-54069970D01*
X162622571Y-54078235D01*
X162598773Y-54084196D01*
X162574504Y-54087796D01*
X162550000Y-54089000D01*
X161300000Y-54089000D01*
X161275496Y-54087796D01*
X161251227Y-54084196D01*
X161227429Y-54078235D01*
X161204329Y-54069970D01*
X161182151Y-54059480D01*
X161161107Y-54046867D01*
X161141402Y-54032253D01*
X161123223Y-54015777D01*
X161106747Y-53997598D01*
X161092133Y-53977893D01*
X161079520Y-53956849D01*
X161069030Y-53934671D01*
X161060765Y-53911571D01*
X161054804Y-53887773D01*
X161051204Y-53863504D01*
X161050000Y-53839000D01*
X161050000Y-53089000D01*
X161051204Y-53064496D01*
X161054804Y-53040227D01*
X161060765Y-53016429D01*
X161069030Y-52993329D01*
X161079520Y-52971151D01*
X161092133Y-52950107D01*
X161106747Y-52930402D01*
X161123223Y-52912223D01*
X161141402Y-52895747D01*
X161161107Y-52881133D01*
X161182151Y-52868520D01*
X161204329Y-52858030D01*
X161227429Y-52849765D01*
X161251227Y-52843804D01*
X161275496Y-52840204D01*
X161300000Y-52839000D01*
X162550000Y-52839000D01*
X162574504Y-52840204D01*
X162574504Y-52840204D01*
G37*
D23*
X161925000Y-53464000D03*
D19*
G36*
X162574504Y-55640204D02*
G01*
X162598773Y-55643804D01*
X162622571Y-55649765D01*
X162645671Y-55658030D01*
X162667849Y-55668520D01*
X162688893Y-55681133D01*
X162708598Y-55695747D01*
X162726777Y-55712223D01*
X162743253Y-55730402D01*
X162757867Y-55750107D01*
X162770480Y-55771151D01*
X162780970Y-55793329D01*
X162789235Y-55816429D01*
X162795196Y-55840227D01*
X162798796Y-55864496D01*
X162800000Y-55889000D01*
X162800000Y-56639000D01*
X162798796Y-56663504D01*
X162795196Y-56687773D01*
X162789235Y-56711571D01*
X162780970Y-56734671D01*
X162770480Y-56756849D01*
X162757867Y-56777893D01*
X162743253Y-56797598D01*
X162726777Y-56815777D01*
X162708598Y-56832253D01*
X162688893Y-56846867D01*
X162667849Y-56859480D01*
X162645671Y-56869970D01*
X162622571Y-56878235D01*
X162598773Y-56884196D01*
X162574504Y-56887796D01*
X162550000Y-56889000D01*
X161300000Y-56889000D01*
X161275496Y-56887796D01*
X161251227Y-56884196D01*
X161227429Y-56878235D01*
X161204329Y-56869970D01*
X161182151Y-56859480D01*
X161161107Y-56846867D01*
X161141402Y-56832253D01*
X161123223Y-56815777D01*
X161106747Y-56797598D01*
X161092133Y-56777893D01*
X161079520Y-56756849D01*
X161069030Y-56734671D01*
X161060765Y-56711571D01*
X161054804Y-56687773D01*
X161051204Y-56663504D01*
X161050000Y-56639000D01*
X161050000Y-55889000D01*
X161051204Y-55864496D01*
X161054804Y-55840227D01*
X161060765Y-55816429D01*
X161069030Y-55793329D01*
X161079520Y-55771151D01*
X161092133Y-55750107D01*
X161106747Y-55730402D01*
X161123223Y-55712223D01*
X161141402Y-55695747D01*
X161161107Y-55681133D01*
X161182151Y-55668520D01*
X161204329Y-55658030D01*
X161227429Y-55649765D01*
X161251227Y-55643804D01*
X161275496Y-55640204D01*
X161300000Y-55639000D01*
X162550000Y-55639000D01*
X162574504Y-55640204D01*
X162574504Y-55640204D01*
G37*
D23*
X161925000Y-56264000D03*
M02*
