G04 #@! TF.GenerationSoftware,KiCad,Pcbnew,5.1.5-52549c5~84~ubuntu18.04.1*
G04 #@! TF.CreationDate,2020-01-05T10:41:31+01:00*
G04 #@! TF.ProjectId,PCB,5043422e-6b69-4636-9164-5f7063625858,rev?*
G04 #@! TF.SameCoordinates,Original*
G04 #@! TF.FileFunction,Paste,Bot*
G04 #@! TF.FilePolarity,Positive*
%FSLAX46Y46*%
G04 Gerber Fmt 4.6, Leading zero omitted, Abs format (unit mm)*
G04 Created by KiCad (PCBNEW 5.1.5-52549c5~84~ubuntu18.04.1) date 2020-01-05 10:41:31*
%MOMM*%
%LPD*%
G04 APERTURE LIST*
%ADD10C,0.050000*%
%ADD11R,7.875000X2.000000*%
%ADD12R,0.900000X2.000000*%
%ADD13R,2.000000X0.900000*%
%ADD14R,5.000000X5.000000*%
%ADD15R,1.500000X1.050000*%
%ADD16C,0.150000*%
%ADD17R,0.800000X0.900000*%
%ADD18R,3.500000X1.800000*%
%ADD19R,1.600000X2.000000*%
%ADD20R,2.000000X1.600000*%
%ADD21R,3.050000X2.750000*%
%ADD22R,2.200000X1.200000*%
G04 APERTURE END LIST*
D10*
X86614000Y-45974000D02*
X208026000Y-45974000D01*
X208026000Y-45974000D02*
X208026000Y-56134000D01*
X86614000Y-56134000D02*
X86614000Y-45974000D01*
X208026000Y-136906000D02*
X86614000Y-136906000D01*
X208026000Y-56134000D02*
X208026000Y-136906000D01*
X86614000Y-136906000D02*
X86614000Y-56134000D01*
D11*
X111633000Y-89916000D03*
X123508000Y-89916000D03*
D12*
X173990000Y-87240000D03*
X175260000Y-87240000D03*
X176530000Y-87240000D03*
X177800000Y-87240000D03*
X179070000Y-87240000D03*
X180340000Y-87240000D03*
X181610000Y-87240000D03*
X182880000Y-87240000D03*
X184150000Y-87240000D03*
X185420000Y-87240000D03*
X186690000Y-87240000D03*
X187960000Y-87240000D03*
X189230000Y-87240000D03*
X190500000Y-87240000D03*
D13*
X191500000Y-84455000D03*
X191500000Y-83185000D03*
X191500000Y-81915000D03*
X191500000Y-80645000D03*
X191500000Y-79375000D03*
X191500000Y-78105000D03*
X191500000Y-76835000D03*
X191500000Y-75565000D03*
X191500000Y-74295000D03*
X191500000Y-73025000D03*
D12*
X190500000Y-70240000D03*
X189230000Y-70240000D03*
X187960000Y-70240000D03*
X186690000Y-70240000D03*
X185420000Y-70240000D03*
X184150000Y-70240000D03*
X182880000Y-70240000D03*
X181610000Y-70240000D03*
X180340000Y-70240000D03*
X179070000Y-70240000D03*
X177800000Y-70240000D03*
X176530000Y-70240000D03*
X175260000Y-70240000D03*
X173990000Y-70240000D03*
D14*
X181490000Y-77740000D03*
D15*
X119253000Y-55118000D03*
X119253000Y-59118000D03*
X106680000Y-55118000D03*
X106680000Y-59118000D03*
X123317000Y-55118000D03*
X123317000Y-59118000D03*
D16*
G36*
X159399504Y-94538704D02*
G01*
X159423773Y-94542304D01*
X159447571Y-94548265D01*
X159470671Y-94556530D01*
X159492849Y-94567020D01*
X159513893Y-94579633D01*
X159533598Y-94594247D01*
X159551777Y-94610723D01*
X159568253Y-94628902D01*
X159582867Y-94648607D01*
X159595480Y-94669651D01*
X159605970Y-94691829D01*
X159614235Y-94714929D01*
X159620196Y-94738727D01*
X159623796Y-94762996D01*
X159625000Y-94787500D01*
X159625000Y-95712500D01*
X159623796Y-95737004D01*
X159620196Y-95761273D01*
X159614235Y-95785071D01*
X159605970Y-95808171D01*
X159595480Y-95830349D01*
X159582867Y-95851393D01*
X159568253Y-95871098D01*
X159551777Y-95889277D01*
X159533598Y-95905753D01*
X159513893Y-95920367D01*
X159492849Y-95932980D01*
X159470671Y-95943470D01*
X159447571Y-95951735D01*
X159423773Y-95957696D01*
X159399504Y-95961296D01*
X159375000Y-95962500D01*
X158125000Y-95962500D01*
X158100496Y-95961296D01*
X158076227Y-95957696D01*
X158052429Y-95951735D01*
X158029329Y-95943470D01*
X158007151Y-95932980D01*
X157986107Y-95920367D01*
X157966402Y-95905753D01*
X157948223Y-95889277D01*
X157931747Y-95871098D01*
X157917133Y-95851393D01*
X157904520Y-95830349D01*
X157894030Y-95808171D01*
X157885765Y-95785071D01*
X157879804Y-95761273D01*
X157876204Y-95737004D01*
X157875000Y-95712500D01*
X157875000Y-94787500D01*
X157876204Y-94762996D01*
X157879804Y-94738727D01*
X157885765Y-94714929D01*
X157894030Y-94691829D01*
X157904520Y-94669651D01*
X157917133Y-94648607D01*
X157931747Y-94628902D01*
X157948223Y-94610723D01*
X157966402Y-94594247D01*
X157986107Y-94579633D01*
X158007151Y-94567020D01*
X158029329Y-94556530D01*
X158052429Y-94548265D01*
X158076227Y-94542304D01*
X158100496Y-94538704D01*
X158125000Y-94537500D01*
X159375000Y-94537500D01*
X159399504Y-94538704D01*
G37*
G36*
X159399504Y-97513704D02*
G01*
X159423773Y-97517304D01*
X159447571Y-97523265D01*
X159470671Y-97531530D01*
X159492849Y-97542020D01*
X159513893Y-97554633D01*
X159533598Y-97569247D01*
X159551777Y-97585723D01*
X159568253Y-97603902D01*
X159582867Y-97623607D01*
X159595480Y-97644651D01*
X159605970Y-97666829D01*
X159614235Y-97689929D01*
X159620196Y-97713727D01*
X159623796Y-97737996D01*
X159625000Y-97762500D01*
X159625000Y-98687500D01*
X159623796Y-98712004D01*
X159620196Y-98736273D01*
X159614235Y-98760071D01*
X159605970Y-98783171D01*
X159595480Y-98805349D01*
X159582867Y-98826393D01*
X159568253Y-98846098D01*
X159551777Y-98864277D01*
X159533598Y-98880753D01*
X159513893Y-98895367D01*
X159492849Y-98907980D01*
X159470671Y-98918470D01*
X159447571Y-98926735D01*
X159423773Y-98932696D01*
X159399504Y-98936296D01*
X159375000Y-98937500D01*
X158125000Y-98937500D01*
X158100496Y-98936296D01*
X158076227Y-98932696D01*
X158052429Y-98926735D01*
X158029329Y-98918470D01*
X158007151Y-98907980D01*
X157986107Y-98895367D01*
X157966402Y-98880753D01*
X157948223Y-98864277D01*
X157931747Y-98846098D01*
X157917133Y-98826393D01*
X157904520Y-98805349D01*
X157894030Y-98783171D01*
X157885765Y-98760071D01*
X157879804Y-98736273D01*
X157876204Y-98712004D01*
X157875000Y-98687500D01*
X157875000Y-97762500D01*
X157876204Y-97737996D01*
X157879804Y-97713727D01*
X157885765Y-97689929D01*
X157894030Y-97666829D01*
X157904520Y-97644651D01*
X157917133Y-97623607D01*
X157931747Y-97603902D01*
X157948223Y-97585723D01*
X157966402Y-97569247D01*
X157986107Y-97554633D01*
X158007151Y-97542020D01*
X158029329Y-97531530D01*
X158052429Y-97523265D01*
X158076227Y-97517304D01*
X158100496Y-97513704D01*
X158125000Y-97512500D01*
X159375000Y-97512500D01*
X159399504Y-97513704D01*
G37*
G36*
X147969504Y-94538704D02*
G01*
X147993773Y-94542304D01*
X148017571Y-94548265D01*
X148040671Y-94556530D01*
X148062849Y-94567020D01*
X148083893Y-94579633D01*
X148103598Y-94594247D01*
X148121777Y-94610723D01*
X148138253Y-94628902D01*
X148152867Y-94648607D01*
X148165480Y-94669651D01*
X148175970Y-94691829D01*
X148184235Y-94714929D01*
X148190196Y-94738727D01*
X148193796Y-94762996D01*
X148195000Y-94787500D01*
X148195000Y-95712500D01*
X148193796Y-95737004D01*
X148190196Y-95761273D01*
X148184235Y-95785071D01*
X148175970Y-95808171D01*
X148165480Y-95830349D01*
X148152867Y-95851393D01*
X148138253Y-95871098D01*
X148121777Y-95889277D01*
X148103598Y-95905753D01*
X148083893Y-95920367D01*
X148062849Y-95932980D01*
X148040671Y-95943470D01*
X148017571Y-95951735D01*
X147993773Y-95957696D01*
X147969504Y-95961296D01*
X147945000Y-95962500D01*
X146695000Y-95962500D01*
X146670496Y-95961296D01*
X146646227Y-95957696D01*
X146622429Y-95951735D01*
X146599329Y-95943470D01*
X146577151Y-95932980D01*
X146556107Y-95920367D01*
X146536402Y-95905753D01*
X146518223Y-95889277D01*
X146501747Y-95871098D01*
X146487133Y-95851393D01*
X146474520Y-95830349D01*
X146464030Y-95808171D01*
X146455765Y-95785071D01*
X146449804Y-95761273D01*
X146446204Y-95737004D01*
X146445000Y-95712500D01*
X146445000Y-94787500D01*
X146446204Y-94762996D01*
X146449804Y-94738727D01*
X146455765Y-94714929D01*
X146464030Y-94691829D01*
X146474520Y-94669651D01*
X146487133Y-94648607D01*
X146501747Y-94628902D01*
X146518223Y-94610723D01*
X146536402Y-94594247D01*
X146556107Y-94579633D01*
X146577151Y-94567020D01*
X146599329Y-94556530D01*
X146622429Y-94548265D01*
X146646227Y-94542304D01*
X146670496Y-94538704D01*
X146695000Y-94537500D01*
X147945000Y-94537500D01*
X147969504Y-94538704D01*
G37*
G36*
X147969504Y-97513704D02*
G01*
X147993773Y-97517304D01*
X148017571Y-97523265D01*
X148040671Y-97531530D01*
X148062849Y-97542020D01*
X148083893Y-97554633D01*
X148103598Y-97569247D01*
X148121777Y-97585723D01*
X148138253Y-97603902D01*
X148152867Y-97623607D01*
X148165480Y-97644651D01*
X148175970Y-97666829D01*
X148184235Y-97689929D01*
X148190196Y-97713727D01*
X148193796Y-97737996D01*
X148195000Y-97762500D01*
X148195000Y-98687500D01*
X148193796Y-98712004D01*
X148190196Y-98736273D01*
X148184235Y-98760071D01*
X148175970Y-98783171D01*
X148165480Y-98805349D01*
X148152867Y-98826393D01*
X148138253Y-98846098D01*
X148121777Y-98864277D01*
X148103598Y-98880753D01*
X148083893Y-98895367D01*
X148062849Y-98907980D01*
X148040671Y-98918470D01*
X148017571Y-98926735D01*
X147993773Y-98932696D01*
X147969504Y-98936296D01*
X147945000Y-98937500D01*
X146695000Y-98937500D01*
X146670496Y-98936296D01*
X146646227Y-98932696D01*
X146622429Y-98926735D01*
X146599329Y-98918470D01*
X146577151Y-98907980D01*
X146556107Y-98895367D01*
X146536402Y-98880753D01*
X146518223Y-98864277D01*
X146501747Y-98846098D01*
X146487133Y-98826393D01*
X146474520Y-98805349D01*
X146464030Y-98783171D01*
X146455765Y-98760071D01*
X146449804Y-98736273D01*
X146446204Y-98712004D01*
X146445000Y-98687500D01*
X146445000Y-97762500D01*
X146446204Y-97737996D01*
X146449804Y-97713727D01*
X146455765Y-97689929D01*
X146464030Y-97666829D01*
X146474520Y-97644651D01*
X146487133Y-97623607D01*
X146501747Y-97603902D01*
X146518223Y-97585723D01*
X146536402Y-97569247D01*
X146556107Y-97554633D01*
X146577151Y-97542020D01*
X146599329Y-97531530D01*
X146622429Y-97523265D01*
X146646227Y-97517304D01*
X146670496Y-97513704D01*
X146695000Y-97512500D01*
X147945000Y-97512500D01*
X147969504Y-97513704D01*
G37*
G36*
X151779504Y-94538704D02*
G01*
X151803773Y-94542304D01*
X151827571Y-94548265D01*
X151850671Y-94556530D01*
X151872849Y-94567020D01*
X151893893Y-94579633D01*
X151913598Y-94594247D01*
X151931777Y-94610723D01*
X151948253Y-94628902D01*
X151962867Y-94648607D01*
X151975480Y-94669651D01*
X151985970Y-94691829D01*
X151994235Y-94714929D01*
X152000196Y-94738727D01*
X152003796Y-94762996D01*
X152005000Y-94787500D01*
X152005000Y-95712500D01*
X152003796Y-95737004D01*
X152000196Y-95761273D01*
X151994235Y-95785071D01*
X151985970Y-95808171D01*
X151975480Y-95830349D01*
X151962867Y-95851393D01*
X151948253Y-95871098D01*
X151931777Y-95889277D01*
X151913598Y-95905753D01*
X151893893Y-95920367D01*
X151872849Y-95932980D01*
X151850671Y-95943470D01*
X151827571Y-95951735D01*
X151803773Y-95957696D01*
X151779504Y-95961296D01*
X151755000Y-95962500D01*
X150505000Y-95962500D01*
X150480496Y-95961296D01*
X150456227Y-95957696D01*
X150432429Y-95951735D01*
X150409329Y-95943470D01*
X150387151Y-95932980D01*
X150366107Y-95920367D01*
X150346402Y-95905753D01*
X150328223Y-95889277D01*
X150311747Y-95871098D01*
X150297133Y-95851393D01*
X150284520Y-95830349D01*
X150274030Y-95808171D01*
X150265765Y-95785071D01*
X150259804Y-95761273D01*
X150256204Y-95737004D01*
X150255000Y-95712500D01*
X150255000Y-94787500D01*
X150256204Y-94762996D01*
X150259804Y-94738727D01*
X150265765Y-94714929D01*
X150274030Y-94691829D01*
X150284520Y-94669651D01*
X150297133Y-94648607D01*
X150311747Y-94628902D01*
X150328223Y-94610723D01*
X150346402Y-94594247D01*
X150366107Y-94579633D01*
X150387151Y-94567020D01*
X150409329Y-94556530D01*
X150432429Y-94548265D01*
X150456227Y-94542304D01*
X150480496Y-94538704D01*
X150505000Y-94537500D01*
X151755000Y-94537500D01*
X151779504Y-94538704D01*
G37*
G36*
X151779504Y-97513704D02*
G01*
X151803773Y-97517304D01*
X151827571Y-97523265D01*
X151850671Y-97531530D01*
X151872849Y-97542020D01*
X151893893Y-97554633D01*
X151913598Y-97569247D01*
X151931777Y-97585723D01*
X151948253Y-97603902D01*
X151962867Y-97623607D01*
X151975480Y-97644651D01*
X151985970Y-97666829D01*
X151994235Y-97689929D01*
X152000196Y-97713727D01*
X152003796Y-97737996D01*
X152005000Y-97762500D01*
X152005000Y-98687500D01*
X152003796Y-98712004D01*
X152000196Y-98736273D01*
X151994235Y-98760071D01*
X151985970Y-98783171D01*
X151975480Y-98805349D01*
X151962867Y-98826393D01*
X151948253Y-98846098D01*
X151931777Y-98864277D01*
X151913598Y-98880753D01*
X151893893Y-98895367D01*
X151872849Y-98907980D01*
X151850671Y-98918470D01*
X151827571Y-98926735D01*
X151803773Y-98932696D01*
X151779504Y-98936296D01*
X151755000Y-98937500D01*
X150505000Y-98937500D01*
X150480496Y-98936296D01*
X150456227Y-98932696D01*
X150432429Y-98926735D01*
X150409329Y-98918470D01*
X150387151Y-98907980D01*
X150366107Y-98895367D01*
X150346402Y-98880753D01*
X150328223Y-98864277D01*
X150311747Y-98846098D01*
X150297133Y-98826393D01*
X150284520Y-98805349D01*
X150274030Y-98783171D01*
X150265765Y-98760071D01*
X150259804Y-98736273D01*
X150256204Y-98712004D01*
X150255000Y-98687500D01*
X150255000Y-97762500D01*
X150256204Y-97737996D01*
X150259804Y-97713727D01*
X150265765Y-97689929D01*
X150274030Y-97666829D01*
X150284520Y-97644651D01*
X150297133Y-97623607D01*
X150311747Y-97603902D01*
X150328223Y-97585723D01*
X150346402Y-97569247D01*
X150366107Y-97554633D01*
X150387151Y-97542020D01*
X150409329Y-97531530D01*
X150432429Y-97523265D01*
X150456227Y-97517304D01*
X150480496Y-97513704D01*
X150505000Y-97512500D01*
X151755000Y-97512500D01*
X151779504Y-97513704D01*
G37*
G36*
X155589504Y-94538704D02*
G01*
X155613773Y-94542304D01*
X155637571Y-94548265D01*
X155660671Y-94556530D01*
X155682849Y-94567020D01*
X155703893Y-94579633D01*
X155723598Y-94594247D01*
X155741777Y-94610723D01*
X155758253Y-94628902D01*
X155772867Y-94648607D01*
X155785480Y-94669651D01*
X155795970Y-94691829D01*
X155804235Y-94714929D01*
X155810196Y-94738727D01*
X155813796Y-94762996D01*
X155815000Y-94787500D01*
X155815000Y-95712500D01*
X155813796Y-95737004D01*
X155810196Y-95761273D01*
X155804235Y-95785071D01*
X155795970Y-95808171D01*
X155785480Y-95830349D01*
X155772867Y-95851393D01*
X155758253Y-95871098D01*
X155741777Y-95889277D01*
X155723598Y-95905753D01*
X155703893Y-95920367D01*
X155682849Y-95932980D01*
X155660671Y-95943470D01*
X155637571Y-95951735D01*
X155613773Y-95957696D01*
X155589504Y-95961296D01*
X155565000Y-95962500D01*
X154315000Y-95962500D01*
X154290496Y-95961296D01*
X154266227Y-95957696D01*
X154242429Y-95951735D01*
X154219329Y-95943470D01*
X154197151Y-95932980D01*
X154176107Y-95920367D01*
X154156402Y-95905753D01*
X154138223Y-95889277D01*
X154121747Y-95871098D01*
X154107133Y-95851393D01*
X154094520Y-95830349D01*
X154084030Y-95808171D01*
X154075765Y-95785071D01*
X154069804Y-95761273D01*
X154066204Y-95737004D01*
X154065000Y-95712500D01*
X154065000Y-94787500D01*
X154066204Y-94762996D01*
X154069804Y-94738727D01*
X154075765Y-94714929D01*
X154084030Y-94691829D01*
X154094520Y-94669651D01*
X154107133Y-94648607D01*
X154121747Y-94628902D01*
X154138223Y-94610723D01*
X154156402Y-94594247D01*
X154176107Y-94579633D01*
X154197151Y-94567020D01*
X154219329Y-94556530D01*
X154242429Y-94548265D01*
X154266227Y-94542304D01*
X154290496Y-94538704D01*
X154315000Y-94537500D01*
X155565000Y-94537500D01*
X155589504Y-94538704D01*
G37*
G36*
X155589504Y-97513704D02*
G01*
X155613773Y-97517304D01*
X155637571Y-97523265D01*
X155660671Y-97531530D01*
X155682849Y-97542020D01*
X155703893Y-97554633D01*
X155723598Y-97569247D01*
X155741777Y-97585723D01*
X155758253Y-97603902D01*
X155772867Y-97623607D01*
X155785480Y-97644651D01*
X155795970Y-97666829D01*
X155804235Y-97689929D01*
X155810196Y-97713727D01*
X155813796Y-97737996D01*
X155815000Y-97762500D01*
X155815000Y-98687500D01*
X155813796Y-98712004D01*
X155810196Y-98736273D01*
X155804235Y-98760071D01*
X155795970Y-98783171D01*
X155785480Y-98805349D01*
X155772867Y-98826393D01*
X155758253Y-98846098D01*
X155741777Y-98864277D01*
X155723598Y-98880753D01*
X155703893Y-98895367D01*
X155682849Y-98907980D01*
X155660671Y-98918470D01*
X155637571Y-98926735D01*
X155613773Y-98932696D01*
X155589504Y-98936296D01*
X155565000Y-98937500D01*
X154315000Y-98937500D01*
X154290496Y-98936296D01*
X154266227Y-98932696D01*
X154242429Y-98926735D01*
X154219329Y-98918470D01*
X154197151Y-98907980D01*
X154176107Y-98895367D01*
X154156402Y-98880753D01*
X154138223Y-98864277D01*
X154121747Y-98846098D01*
X154107133Y-98826393D01*
X154094520Y-98805349D01*
X154084030Y-98783171D01*
X154075765Y-98760071D01*
X154069804Y-98736273D01*
X154066204Y-98712004D01*
X154065000Y-98687500D01*
X154065000Y-97762500D01*
X154066204Y-97737996D01*
X154069804Y-97713727D01*
X154075765Y-97689929D01*
X154084030Y-97666829D01*
X154094520Y-97644651D01*
X154107133Y-97623607D01*
X154121747Y-97603902D01*
X154138223Y-97585723D01*
X154156402Y-97569247D01*
X154176107Y-97554633D01*
X154197151Y-97542020D01*
X154219329Y-97531530D01*
X154242429Y-97523265D01*
X154266227Y-97517304D01*
X154290496Y-97513704D01*
X154315000Y-97512500D01*
X155565000Y-97512500D01*
X155589504Y-97513704D01*
G37*
G36*
X140349504Y-94538704D02*
G01*
X140373773Y-94542304D01*
X140397571Y-94548265D01*
X140420671Y-94556530D01*
X140442849Y-94567020D01*
X140463893Y-94579633D01*
X140483598Y-94594247D01*
X140501777Y-94610723D01*
X140518253Y-94628902D01*
X140532867Y-94648607D01*
X140545480Y-94669651D01*
X140555970Y-94691829D01*
X140564235Y-94714929D01*
X140570196Y-94738727D01*
X140573796Y-94762996D01*
X140575000Y-94787500D01*
X140575000Y-95712500D01*
X140573796Y-95737004D01*
X140570196Y-95761273D01*
X140564235Y-95785071D01*
X140555970Y-95808171D01*
X140545480Y-95830349D01*
X140532867Y-95851393D01*
X140518253Y-95871098D01*
X140501777Y-95889277D01*
X140483598Y-95905753D01*
X140463893Y-95920367D01*
X140442849Y-95932980D01*
X140420671Y-95943470D01*
X140397571Y-95951735D01*
X140373773Y-95957696D01*
X140349504Y-95961296D01*
X140325000Y-95962500D01*
X139075000Y-95962500D01*
X139050496Y-95961296D01*
X139026227Y-95957696D01*
X139002429Y-95951735D01*
X138979329Y-95943470D01*
X138957151Y-95932980D01*
X138936107Y-95920367D01*
X138916402Y-95905753D01*
X138898223Y-95889277D01*
X138881747Y-95871098D01*
X138867133Y-95851393D01*
X138854520Y-95830349D01*
X138844030Y-95808171D01*
X138835765Y-95785071D01*
X138829804Y-95761273D01*
X138826204Y-95737004D01*
X138825000Y-95712500D01*
X138825000Y-94787500D01*
X138826204Y-94762996D01*
X138829804Y-94738727D01*
X138835765Y-94714929D01*
X138844030Y-94691829D01*
X138854520Y-94669651D01*
X138867133Y-94648607D01*
X138881747Y-94628902D01*
X138898223Y-94610723D01*
X138916402Y-94594247D01*
X138936107Y-94579633D01*
X138957151Y-94567020D01*
X138979329Y-94556530D01*
X139002429Y-94548265D01*
X139026227Y-94542304D01*
X139050496Y-94538704D01*
X139075000Y-94537500D01*
X140325000Y-94537500D01*
X140349504Y-94538704D01*
G37*
G36*
X140349504Y-97513704D02*
G01*
X140373773Y-97517304D01*
X140397571Y-97523265D01*
X140420671Y-97531530D01*
X140442849Y-97542020D01*
X140463893Y-97554633D01*
X140483598Y-97569247D01*
X140501777Y-97585723D01*
X140518253Y-97603902D01*
X140532867Y-97623607D01*
X140545480Y-97644651D01*
X140555970Y-97666829D01*
X140564235Y-97689929D01*
X140570196Y-97713727D01*
X140573796Y-97737996D01*
X140575000Y-97762500D01*
X140575000Y-98687500D01*
X140573796Y-98712004D01*
X140570196Y-98736273D01*
X140564235Y-98760071D01*
X140555970Y-98783171D01*
X140545480Y-98805349D01*
X140532867Y-98826393D01*
X140518253Y-98846098D01*
X140501777Y-98864277D01*
X140483598Y-98880753D01*
X140463893Y-98895367D01*
X140442849Y-98907980D01*
X140420671Y-98918470D01*
X140397571Y-98926735D01*
X140373773Y-98932696D01*
X140349504Y-98936296D01*
X140325000Y-98937500D01*
X139075000Y-98937500D01*
X139050496Y-98936296D01*
X139026227Y-98932696D01*
X139002429Y-98926735D01*
X138979329Y-98918470D01*
X138957151Y-98907980D01*
X138936107Y-98895367D01*
X138916402Y-98880753D01*
X138898223Y-98864277D01*
X138881747Y-98846098D01*
X138867133Y-98826393D01*
X138854520Y-98805349D01*
X138844030Y-98783171D01*
X138835765Y-98760071D01*
X138829804Y-98736273D01*
X138826204Y-98712004D01*
X138825000Y-98687500D01*
X138825000Y-97762500D01*
X138826204Y-97737996D01*
X138829804Y-97713727D01*
X138835765Y-97689929D01*
X138844030Y-97666829D01*
X138854520Y-97644651D01*
X138867133Y-97623607D01*
X138881747Y-97603902D01*
X138898223Y-97585723D01*
X138916402Y-97569247D01*
X138936107Y-97554633D01*
X138957151Y-97542020D01*
X138979329Y-97531530D01*
X139002429Y-97523265D01*
X139026227Y-97517304D01*
X139050496Y-97513704D01*
X139075000Y-97512500D01*
X140325000Y-97512500D01*
X140349504Y-97513704D01*
G37*
G36*
X144159504Y-94538704D02*
G01*
X144183773Y-94542304D01*
X144207571Y-94548265D01*
X144230671Y-94556530D01*
X144252849Y-94567020D01*
X144273893Y-94579633D01*
X144293598Y-94594247D01*
X144311777Y-94610723D01*
X144328253Y-94628902D01*
X144342867Y-94648607D01*
X144355480Y-94669651D01*
X144365970Y-94691829D01*
X144374235Y-94714929D01*
X144380196Y-94738727D01*
X144383796Y-94762996D01*
X144385000Y-94787500D01*
X144385000Y-95712500D01*
X144383796Y-95737004D01*
X144380196Y-95761273D01*
X144374235Y-95785071D01*
X144365970Y-95808171D01*
X144355480Y-95830349D01*
X144342867Y-95851393D01*
X144328253Y-95871098D01*
X144311777Y-95889277D01*
X144293598Y-95905753D01*
X144273893Y-95920367D01*
X144252849Y-95932980D01*
X144230671Y-95943470D01*
X144207571Y-95951735D01*
X144183773Y-95957696D01*
X144159504Y-95961296D01*
X144135000Y-95962500D01*
X142885000Y-95962500D01*
X142860496Y-95961296D01*
X142836227Y-95957696D01*
X142812429Y-95951735D01*
X142789329Y-95943470D01*
X142767151Y-95932980D01*
X142746107Y-95920367D01*
X142726402Y-95905753D01*
X142708223Y-95889277D01*
X142691747Y-95871098D01*
X142677133Y-95851393D01*
X142664520Y-95830349D01*
X142654030Y-95808171D01*
X142645765Y-95785071D01*
X142639804Y-95761273D01*
X142636204Y-95737004D01*
X142635000Y-95712500D01*
X142635000Y-94787500D01*
X142636204Y-94762996D01*
X142639804Y-94738727D01*
X142645765Y-94714929D01*
X142654030Y-94691829D01*
X142664520Y-94669651D01*
X142677133Y-94648607D01*
X142691747Y-94628902D01*
X142708223Y-94610723D01*
X142726402Y-94594247D01*
X142746107Y-94579633D01*
X142767151Y-94567020D01*
X142789329Y-94556530D01*
X142812429Y-94548265D01*
X142836227Y-94542304D01*
X142860496Y-94538704D01*
X142885000Y-94537500D01*
X144135000Y-94537500D01*
X144159504Y-94538704D01*
G37*
G36*
X144159504Y-97513704D02*
G01*
X144183773Y-97517304D01*
X144207571Y-97523265D01*
X144230671Y-97531530D01*
X144252849Y-97542020D01*
X144273893Y-97554633D01*
X144293598Y-97569247D01*
X144311777Y-97585723D01*
X144328253Y-97603902D01*
X144342867Y-97623607D01*
X144355480Y-97644651D01*
X144365970Y-97666829D01*
X144374235Y-97689929D01*
X144380196Y-97713727D01*
X144383796Y-97737996D01*
X144385000Y-97762500D01*
X144385000Y-98687500D01*
X144383796Y-98712004D01*
X144380196Y-98736273D01*
X144374235Y-98760071D01*
X144365970Y-98783171D01*
X144355480Y-98805349D01*
X144342867Y-98826393D01*
X144328253Y-98846098D01*
X144311777Y-98864277D01*
X144293598Y-98880753D01*
X144273893Y-98895367D01*
X144252849Y-98907980D01*
X144230671Y-98918470D01*
X144207571Y-98926735D01*
X144183773Y-98932696D01*
X144159504Y-98936296D01*
X144135000Y-98937500D01*
X142885000Y-98937500D01*
X142860496Y-98936296D01*
X142836227Y-98932696D01*
X142812429Y-98926735D01*
X142789329Y-98918470D01*
X142767151Y-98907980D01*
X142746107Y-98895367D01*
X142726402Y-98880753D01*
X142708223Y-98864277D01*
X142691747Y-98846098D01*
X142677133Y-98826393D01*
X142664520Y-98805349D01*
X142654030Y-98783171D01*
X142645765Y-98760071D01*
X142639804Y-98736273D01*
X142636204Y-98712004D01*
X142635000Y-98687500D01*
X142635000Y-97762500D01*
X142636204Y-97737996D01*
X142639804Y-97713727D01*
X142645765Y-97689929D01*
X142654030Y-97666829D01*
X142664520Y-97644651D01*
X142677133Y-97623607D01*
X142691747Y-97603902D01*
X142708223Y-97585723D01*
X142726402Y-97569247D01*
X142746107Y-97554633D01*
X142767151Y-97542020D01*
X142789329Y-97531530D01*
X142812429Y-97523265D01*
X142836227Y-97517304D01*
X142860496Y-97513704D01*
X142885000Y-97512500D01*
X144135000Y-97512500D01*
X144159504Y-97513704D01*
G37*
G36*
X136539504Y-94538704D02*
G01*
X136563773Y-94542304D01*
X136587571Y-94548265D01*
X136610671Y-94556530D01*
X136632849Y-94567020D01*
X136653893Y-94579633D01*
X136673598Y-94594247D01*
X136691777Y-94610723D01*
X136708253Y-94628902D01*
X136722867Y-94648607D01*
X136735480Y-94669651D01*
X136745970Y-94691829D01*
X136754235Y-94714929D01*
X136760196Y-94738727D01*
X136763796Y-94762996D01*
X136765000Y-94787500D01*
X136765000Y-95712500D01*
X136763796Y-95737004D01*
X136760196Y-95761273D01*
X136754235Y-95785071D01*
X136745970Y-95808171D01*
X136735480Y-95830349D01*
X136722867Y-95851393D01*
X136708253Y-95871098D01*
X136691777Y-95889277D01*
X136673598Y-95905753D01*
X136653893Y-95920367D01*
X136632849Y-95932980D01*
X136610671Y-95943470D01*
X136587571Y-95951735D01*
X136563773Y-95957696D01*
X136539504Y-95961296D01*
X136515000Y-95962500D01*
X135265000Y-95962500D01*
X135240496Y-95961296D01*
X135216227Y-95957696D01*
X135192429Y-95951735D01*
X135169329Y-95943470D01*
X135147151Y-95932980D01*
X135126107Y-95920367D01*
X135106402Y-95905753D01*
X135088223Y-95889277D01*
X135071747Y-95871098D01*
X135057133Y-95851393D01*
X135044520Y-95830349D01*
X135034030Y-95808171D01*
X135025765Y-95785071D01*
X135019804Y-95761273D01*
X135016204Y-95737004D01*
X135015000Y-95712500D01*
X135015000Y-94787500D01*
X135016204Y-94762996D01*
X135019804Y-94738727D01*
X135025765Y-94714929D01*
X135034030Y-94691829D01*
X135044520Y-94669651D01*
X135057133Y-94648607D01*
X135071747Y-94628902D01*
X135088223Y-94610723D01*
X135106402Y-94594247D01*
X135126107Y-94579633D01*
X135147151Y-94567020D01*
X135169329Y-94556530D01*
X135192429Y-94548265D01*
X135216227Y-94542304D01*
X135240496Y-94538704D01*
X135265000Y-94537500D01*
X136515000Y-94537500D01*
X136539504Y-94538704D01*
G37*
G36*
X136539504Y-97513704D02*
G01*
X136563773Y-97517304D01*
X136587571Y-97523265D01*
X136610671Y-97531530D01*
X136632849Y-97542020D01*
X136653893Y-97554633D01*
X136673598Y-97569247D01*
X136691777Y-97585723D01*
X136708253Y-97603902D01*
X136722867Y-97623607D01*
X136735480Y-97644651D01*
X136745970Y-97666829D01*
X136754235Y-97689929D01*
X136760196Y-97713727D01*
X136763796Y-97737996D01*
X136765000Y-97762500D01*
X136765000Y-98687500D01*
X136763796Y-98712004D01*
X136760196Y-98736273D01*
X136754235Y-98760071D01*
X136745970Y-98783171D01*
X136735480Y-98805349D01*
X136722867Y-98826393D01*
X136708253Y-98846098D01*
X136691777Y-98864277D01*
X136673598Y-98880753D01*
X136653893Y-98895367D01*
X136632849Y-98907980D01*
X136610671Y-98918470D01*
X136587571Y-98926735D01*
X136563773Y-98932696D01*
X136539504Y-98936296D01*
X136515000Y-98937500D01*
X135265000Y-98937500D01*
X135240496Y-98936296D01*
X135216227Y-98932696D01*
X135192429Y-98926735D01*
X135169329Y-98918470D01*
X135147151Y-98907980D01*
X135126107Y-98895367D01*
X135106402Y-98880753D01*
X135088223Y-98864277D01*
X135071747Y-98846098D01*
X135057133Y-98826393D01*
X135044520Y-98805349D01*
X135034030Y-98783171D01*
X135025765Y-98760071D01*
X135019804Y-98736273D01*
X135016204Y-98712004D01*
X135015000Y-98687500D01*
X135015000Y-97762500D01*
X135016204Y-97737996D01*
X135019804Y-97713727D01*
X135025765Y-97689929D01*
X135034030Y-97666829D01*
X135044520Y-97644651D01*
X135057133Y-97623607D01*
X135071747Y-97603902D01*
X135088223Y-97585723D01*
X135106402Y-97569247D01*
X135126107Y-97554633D01*
X135147151Y-97542020D01*
X135169329Y-97531530D01*
X135192429Y-97523265D01*
X135216227Y-97517304D01*
X135240496Y-97513704D01*
X135265000Y-97512500D01*
X136515000Y-97512500D01*
X136539504Y-97513704D01*
G37*
G36*
X132729504Y-94538704D02*
G01*
X132753773Y-94542304D01*
X132777571Y-94548265D01*
X132800671Y-94556530D01*
X132822849Y-94567020D01*
X132843893Y-94579633D01*
X132863598Y-94594247D01*
X132881777Y-94610723D01*
X132898253Y-94628902D01*
X132912867Y-94648607D01*
X132925480Y-94669651D01*
X132935970Y-94691829D01*
X132944235Y-94714929D01*
X132950196Y-94738727D01*
X132953796Y-94762996D01*
X132955000Y-94787500D01*
X132955000Y-95712500D01*
X132953796Y-95737004D01*
X132950196Y-95761273D01*
X132944235Y-95785071D01*
X132935970Y-95808171D01*
X132925480Y-95830349D01*
X132912867Y-95851393D01*
X132898253Y-95871098D01*
X132881777Y-95889277D01*
X132863598Y-95905753D01*
X132843893Y-95920367D01*
X132822849Y-95932980D01*
X132800671Y-95943470D01*
X132777571Y-95951735D01*
X132753773Y-95957696D01*
X132729504Y-95961296D01*
X132705000Y-95962500D01*
X131455000Y-95962500D01*
X131430496Y-95961296D01*
X131406227Y-95957696D01*
X131382429Y-95951735D01*
X131359329Y-95943470D01*
X131337151Y-95932980D01*
X131316107Y-95920367D01*
X131296402Y-95905753D01*
X131278223Y-95889277D01*
X131261747Y-95871098D01*
X131247133Y-95851393D01*
X131234520Y-95830349D01*
X131224030Y-95808171D01*
X131215765Y-95785071D01*
X131209804Y-95761273D01*
X131206204Y-95737004D01*
X131205000Y-95712500D01*
X131205000Y-94787500D01*
X131206204Y-94762996D01*
X131209804Y-94738727D01*
X131215765Y-94714929D01*
X131224030Y-94691829D01*
X131234520Y-94669651D01*
X131247133Y-94648607D01*
X131261747Y-94628902D01*
X131278223Y-94610723D01*
X131296402Y-94594247D01*
X131316107Y-94579633D01*
X131337151Y-94567020D01*
X131359329Y-94556530D01*
X131382429Y-94548265D01*
X131406227Y-94542304D01*
X131430496Y-94538704D01*
X131455000Y-94537500D01*
X132705000Y-94537500D01*
X132729504Y-94538704D01*
G37*
G36*
X132729504Y-97513704D02*
G01*
X132753773Y-97517304D01*
X132777571Y-97523265D01*
X132800671Y-97531530D01*
X132822849Y-97542020D01*
X132843893Y-97554633D01*
X132863598Y-97569247D01*
X132881777Y-97585723D01*
X132898253Y-97603902D01*
X132912867Y-97623607D01*
X132925480Y-97644651D01*
X132935970Y-97666829D01*
X132944235Y-97689929D01*
X132950196Y-97713727D01*
X132953796Y-97737996D01*
X132955000Y-97762500D01*
X132955000Y-98687500D01*
X132953796Y-98712004D01*
X132950196Y-98736273D01*
X132944235Y-98760071D01*
X132935970Y-98783171D01*
X132925480Y-98805349D01*
X132912867Y-98826393D01*
X132898253Y-98846098D01*
X132881777Y-98864277D01*
X132863598Y-98880753D01*
X132843893Y-98895367D01*
X132822849Y-98907980D01*
X132800671Y-98918470D01*
X132777571Y-98926735D01*
X132753773Y-98932696D01*
X132729504Y-98936296D01*
X132705000Y-98937500D01*
X131455000Y-98937500D01*
X131430496Y-98936296D01*
X131406227Y-98932696D01*
X131382429Y-98926735D01*
X131359329Y-98918470D01*
X131337151Y-98907980D01*
X131316107Y-98895367D01*
X131296402Y-98880753D01*
X131278223Y-98864277D01*
X131261747Y-98846098D01*
X131247133Y-98826393D01*
X131234520Y-98805349D01*
X131224030Y-98783171D01*
X131215765Y-98760071D01*
X131209804Y-98736273D01*
X131206204Y-98712004D01*
X131205000Y-98687500D01*
X131205000Y-97762500D01*
X131206204Y-97737996D01*
X131209804Y-97713727D01*
X131215765Y-97689929D01*
X131224030Y-97666829D01*
X131234520Y-97644651D01*
X131247133Y-97623607D01*
X131261747Y-97603902D01*
X131278223Y-97585723D01*
X131296402Y-97569247D01*
X131316107Y-97554633D01*
X131337151Y-97542020D01*
X131359329Y-97531530D01*
X131382429Y-97523265D01*
X131406227Y-97517304D01*
X131430496Y-97513704D01*
X131455000Y-97512500D01*
X132705000Y-97512500D01*
X132729504Y-97513704D01*
G37*
G36*
X103357004Y-74691204D02*
G01*
X103381273Y-74694804D01*
X103405071Y-74700765D01*
X103428171Y-74709030D01*
X103450349Y-74719520D01*
X103471393Y-74732133D01*
X103491098Y-74746747D01*
X103509277Y-74763223D01*
X103525753Y-74781402D01*
X103540367Y-74801107D01*
X103552980Y-74822151D01*
X103563470Y-74844329D01*
X103571735Y-74867429D01*
X103577696Y-74891227D01*
X103581296Y-74915496D01*
X103582500Y-74940000D01*
X103582500Y-76190000D01*
X103581296Y-76214504D01*
X103577696Y-76238773D01*
X103571735Y-76262571D01*
X103563470Y-76285671D01*
X103552980Y-76307849D01*
X103540367Y-76328893D01*
X103525753Y-76348598D01*
X103509277Y-76366777D01*
X103491098Y-76383253D01*
X103471393Y-76397867D01*
X103450349Y-76410480D01*
X103428171Y-76420970D01*
X103405071Y-76429235D01*
X103381273Y-76435196D01*
X103357004Y-76438796D01*
X103332500Y-76440000D01*
X102407500Y-76440000D01*
X102382996Y-76438796D01*
X102358727Y-76435196D01*
X102334929Y-76429235D01*
X102311829Y-76420970D01*
X102289651Y-76410480D01*
X102268607Y-76397867D01*
X102248902Y-76383253D01*
X102230723Y-76366777D01*
X102214247Y-76348598D01*
X102199633Y-76328893D01*
X102187020Y-76307849D01*
X102176530Y-76285671D01*
X102168265Y-76262571D01*
X102162304Y-76238773D01*
X102158704Y-76214504D01*
X102157500Y-76190000D01*
X102157500Y-74940000D01*
X102158704Y-74915496D01*
X102162304Y-74891227D01*
X102168265Y-74867429D01*
X102176530Y-74844329D01*
X102187020Y-74822151D01*
X102199633Y-74801107D01*
X102214247Y-74781402D01*
X102230723Y-74763223D01*
X102248902Y-74746747D01*
X102268607Y-74732133D01*
X102289651Y-74719520D01*
X102311829Y-74709030D01*
X102334929Y-74700765D01*
X102358727Y-74694804D01*
X102382996Y-74691204D01*
X102407500Y-74690000D01*
X103332500Y-74690000D01*
X103357004Y-74691204D01*
G37*
G36*
X106332004Y-74691204D02*
G01*
X106356273Y-74694804D01*
X106380071Y-74700765D01*
X106403171Y-74709030D01*
X106425349Y-74719520D01*
X106446393Y-74732133D01*
X106466098Y-74746747D01*
X106484277Y-74763223D01*
X106500753Y-74781402D01*
X106515367Y-74801107D01*
X106527980Y-74822151D01*
X106538470Y-74844329D01*
X106546735Y-74867429D01*
X106552696Y-74891227D01*
X106556296Y-74915496D01*
X106557500Y-74940000D01*
X106557500Y-76190000D01*
X106556296Y-76214504D01*
X106552696Y-76238773D01*
X106546735Y-76262571D01*
X106538470Y-76285671D01*
X106527980Y-76307849D01*
X106515367Y-76328893D01*
X106500753Y-76348598D01*
X106484277Y-76366777D01*
X106466098Y-76383253D01*
X106446393Y-76397867D01*
X106425349Y-76410480D01*
X106403171Y-76420970D01*
X106380071Y-76429235D01*
X106356273Y-76435196D01*
X106332004Y-76438796D01*
X106307500Y-76440000D01*
X105382500Y-76440000D01*
X105357996Y-76438796D01*
X105333727Y-76435196D01*
X105309929Y-76429235D01*
X105286829Y-76420970D01*
X105264651Y-76410480D01*
X105243607Y-76397867D01*
X105223902Y-76383253D01*
X105205723Y-76366777D01*
X105189247Y-76348598D01*
X105174633Y-76328893D01*
X105162020Y-76307849D01*
X105151530Y-76285671D01*
X105143265Y-76262571D01*
X105137304Y-76238773D01*
X105133704Y-76214504D01*
X105132500Y-76190000D01*
X105132500Y-74940000D01*
X105133704Y-74915496D01*
X105137304Y-74891227D01*
X105143265Y-74867429D01*
X105151530Y-74844329D01*
X105162020Y-74822151D01*
X105174633Y-74801107D01*
X105189247Y-74781402D01*
X105205723Y-74763223D01*
X105223902Y-74746747D01*
X105243607Y-74732133D01*
X105264651Y-74719520D01*
X105286829Y-74709030D01*
X105309929Y-74700765D01*
X105333727Y-74694804D01*
X105357996Y-74691204D01*
X105382500Y-74690000D01*
X106307500Y-74690000D01*
X106332004Y-74691204D01*
G37*
G36*
X106313504Y-62607704D02*
G01*
X106337773Y-62611304D01*
X106361571Y-62617265D01*
X106384671Y-62625530D01*
X106406849Y-62636020D01*
X106427893Y-62648633D01*
X106447598Y-62663247D01*
X106465777Y-62679723D01*
X106482253Y-62697902D01*
X106496867Y-62717607D01*
X106509480Y-62738651D01*
X106519970Y-62760829D01*
X106528235Y-62783929D01*
X106534196Y-62807727D01*
X106537796Y-62831996D01*
X106539000Y-62856500D01*
X106539000Y-63781500D01*
X106537796Y-63806004D01*
X106534196Y-63830273D01*
X106528235Y-63854071D01*
X106519970Y-63877171D01*
X106509480Y-63899349D01*
X106496867Y-63920393D01*
X106482253Y-63940098D01*
X106465777Y-63958277D01*
X106447598Y-63974753D01*
X106427893Y-63989367D01*
X106406849Y-64001980D01*
X106384671Y-64012470D01*
X106361571Y-64020735D01*
X106337773Y-64026696D01*
X106313504Y-64030296D01*
X106289000Y-64031500D01*
X105039000Y-64031500D01*
X105014496Y-64030296D01*
X104990227Y-64026696D01*
X104966429Y-64020735D01*
X104943329Y-64012470D01*
X104921151Y-64001980D01*
X104900107Y-63989367D01*
X104880402Y-63974753D01*
X104862223Y-63958277D01*
X104845747Y-63940098D01*
X104831133Y-63920393D01*
X104818520Y-63899349D01*
X104808030Y-63877171D01*
X104799765Y-63854071D01*
X104793804Y-63830273D01*
X104790204Y-63806004D01*
X104789000Y-63781500D01*
X104789000Y-62856500D01*
X104790204Y-62831996D01*
X104793804Y-62807727D01*
X104799765Y-62783929D01*
X104808030Y-62760829D01*
X104818520Y-62738651D01*
X104831133Y-62717607D01*
X104845747Y-62697902D01*
X104862223Y-62679723D01*
X104880402Y-62663247D01*
X104900107Y-62648633D01*
X104921151Y-62636020D01*
X104943329Y-62625530D01*
X104966429Y-62617265D01*
X104990227Y-62611304D01*
X105014496Y-62607704D01*
X105039000Y-62606500D01*
X106289000Y-62606500D01*
X106313504Y-62607704D01*
G37*
G36*
X106313504Y-65582704D02*
G01*
X106337773Y-65586304D01*
X106361571Y-65592265D01*
X106384671Y-65600530D01*
X106406849Y-65611020D01*
X106427893Y-65623633D01*
X106447598Y-65638247D01*
X106465777Y-65654723D01*
X106482253Y-65672902D01*
X106496867Y-65692607D01*
X106509480Y-65713651D01*
X106519970Y-65735829D01*
X106528235Y-65758929D01*
X106534196Y-65782727D01*
X106537796Y-65806996D01*
X106539000Y-65831500D01*
X106539000Y-66756500D01*
X106537796Y-66781004D01*
X106534196Y-66805273D01*
X106528235Y-66829071D01*
X106519970Y-66852171D01*
X106509480Y-66874349D01*
X106496867Y-66895393D01*
X106482253Y-66915098D01*
X106465777Y-66933277D01*
X106447598Y-66949753D01*
X106427893Y-66964367D01*
X106406849Y-66976980D01*
X106384671Y-66987470D01*
X106361571Y-66995735D01*
X106337773Y-67001696D01*
X106313504Y-67005296D01*
X106289000Y-67006500D01*
X105039000Y-67006500D01*
X105014496Y-67005296D01*
X104990227Y-67001696D01*
X104966429Y-66995735D01*
X104943329Y-66987470D01*
X104921151Y-66976980D01*
X104900107Y-66964367D01*
X104880402Y-66949753D01*
X104862223Y-66933277D01*
X104845747Y-66915098D01*
X104831133Y-66895393D01*
X104818520Y-66874349D01*
X104808030Y-66852171D01*
X104799765Y-66829071D01*
X104793804Y-66805273D01*
X104790204Y-66781004D01*
X104789000Y-66756500D01*
X104789000Y-65831500D01*
X104790204Y-65806996D01*
X104793804Y-65782727D01*
X104799765Y-65758929D01*
X104808030Y-65735829D01*
X104818520Y-65713651D01*
X104831133Y-65692607D01*
X104845747Y-65672902D01*
X104862223Y-65654723D01*
X104880402Y-65638247D01*
X104900107Y-65623633D01*
X104921151Y-65611020D01*
X104943329Y-65600530D01*
X104966429Y-65592265D01*
X104990227Y-65586304D01*
X105014496Y-65582704D01*
X105039000Y-65581500D01*
X106289000Y-65581500D01*
X106313504Y-65582704D01*
G37*
G36*
X140476504Y-85575704D02*
G01*
X140500773Y-85579304D01*
X140524571Y-85585265D01*
X140547671Y-85593530D01*
X140569849Y-85604020D01*
X140590893Y-85616633D01*
X140610598Y-85631247D01*
X140628777Y-85647723D01*
X140645253Y-85665902D01*
X140659867Y-85685607D01*
X140672480Y-85706651D01*
X140682970Y-85728829D01*
X140691235Y-85751929D01*
X140697196Y-85775727D01*
X140700796Y-85799996D01*
X140702000Y-85824500D01*
X140702000Y-86749500D01*
X140700796Y-86774004D01*
X140697196Y-86798273D01*
X140691235Y-86822071D01*
X140682970Y-86845171D01*
X140672480Y-86867349D01*
X140659867Y-86888393D01*
X140645253Y-86908098D01*
X140628777Y-86926277D01*
X140610598Y-86942753D01*
X140590893Y-86957367D01*
X140569849Y-86969980D01*
X140547671Y-86980470D01*
X140524571Y-86988735D01*
X140500773Y-86994696D01*
X140476504Y-86998296D01*
X140452000Y-86999500D01*
X139202000Y-86999500D01*
X139177496Y-86998296D01*
X139153227Y-86994696D01*
X139129429Y-86988735D01*
X139106329Y-86980470D01*
X139084151Y-86969980D01*
X139063107Y-86957367D01*
X139043402Y-86942753D01*
X139025223Y-86926277D01*
X139008747Y-86908098D01*
X138994133Y-86888393D01*
X138981520Y-86867349D01*
X138971030Y-86845171D01*
X138962765Y-86822071D01*
X138956804Y-86798273D01*
X138953204Y-86774004D01*
X138952000Y-86749500D01*
X138952000Y-85824500D01*
X138953204Y-85799996D01*
X138956804Y-85775727D01*
X138962765Y-85751929D01*
X138971030Y-85728829D01*
X138981520Y-85706651D01*
X138994133Y-85685607D01*
X139008747Y-85665902D01*
X139025223Y-85647723D01*
X139043402Y-85631247D01*
X139063107Y-85616633D01*
X139084151Y-85604020D01*
X139106329Y-85593530D01*
X139129429Y-85585265D01*
X139153227Y-85579304D01*
X139177496Y-85575704D01*
X139202000Y-85574500D01*
X140452000Y-85574500D01*
X140476504Y-85575704D01*
G37*
G36*
X140476504Y-82600704D02*
G01*
X140500773Y-82604304D01*
X140524571Y-82610265D01*
X140547671Y-82618530D01*
X140569849Y-82629020D01*
X140590893Y-82641633D01*
X140610598Y-82656247D01*
X140628777Y-82672723D01*
X140645253Y-82690902D01*
X140659867Y-82710607D01*
X140672480Y-82731651D01*
X140682970Y-82753829D01*
X140691235Y-82776929D01*
X140697196Y-82800727D01*
X140700796Y-82824996D01*
X140702000Y-82849500D01*
X140702000Y-83774500D01*
X140700796Y-83799004D01*
X140697196Y-83823273D01*
X140691235Y-83847071D01*
X140682970Y-83870171D01*
X140672480Y-83892349D01*
X140659867Y-83913393D01*
X140645253Y-83933098D01*
X140628777Y-83951277D01*
X140610598Y-83967753D01*
X140590893Y-83982367D01*
X140569849Y-83994980D01*
X140547671Y-84005470D01*
X140524571Y-84013735D01*
X140500773Y-84019696D01*
X140476504Y-84023296D01*
X140452000Y-84024500D01*
X139202000Y-84024500D01*
X139177496Y-84023296D01*
X139153227Y-84019696D01*
X139129429Y-84013735D01*
X139106329Y-84005470D01*
X139084151Y-83994980D01*
X139063107Y-83982367D01*
X139043402Y-83967753D01*
X139025223Y-83951277D01*
X139008747Y-83933098D01*
X138994133Y-83913393D01*
X138981520Y-83892349D01*
X138971030Y-83870171D01*
X138962765Y-83847071D01*
X138956804Y-83823273D01*
X138953204Y-83799004D01*
X138952000Y-83774500D01*
X138952000Y-82849500D01*
X138953204Y-82824996D01*
X138956804Y-82800727D01*
X138962765Y-82776929D01*
X138971030Y-82753829D01*
X138981520Y-82731651D01*
X138994133Y-82710607D01*
X139008747Y-82690902D01*
X139025223Y-82672723D01*
X139043402Y-82656247D01*
X139063107Y-82641633D01*
X139084151Y-82629020D01*
X139106329Y-82618530D01*
X139129429Y-82610265D01*
X139153227Y-82604304D01*
X139177496Y-82600704D01*
X139202000Y-82599500D01*
X140452000Y-82599500D01*
X140476504Y-82600704D01*
G37*
G36*
X136666504Y-85575704D02*
G01*
X136690773Y-85579304D01*
X136714571Y-85585265D01*
X136737671Y-85593530D01*
X136759849Y-85604020D01*
X136780893Y-85616633D01*
X136800598Y-85631247D01*
X136818777Y-85647723D01*
X136835253Y-85665902D01*
X136849867Y-85685607D01*
X136862480Y-85706651D01*
X136872970Y-85728829D01*
X136881235Y-85751929D01*
X136887196Y-85775727D01*
X136890796Y-85799996D01*
X136892000Y-85824500D01*
X136892000Y-86749500D01*
X136890796Y-86774004D01*
X136887196Y-86798273D01*
X136881235Y-86822071D01*
X136872970Y-86845171D01*
X136862480Y-86867349D01*
X136849867Y-86888393D01*
X136835253Y-86908098D01*
X136818777Y-86926277D01*
X136800598Y-86942753D01*
X136780893Y-86957367D01*
X136759849Y-86969980D01*
X136737671Y-86980470D01*
X136714571Y-86988735D01*
X136690773Y-86994696D01*
X136666504Y-86998296D01*
X136642000Y-86999500D01*
X135392000Y-86999500D01*
X135367496Y-86998296D01*
X135343227Y-86994696D01*
X135319429Y-86988735D01*
X135296329Y-86980470D01*
X135274151Y-86969980D01*
X135253107Y-86957367D01*
X135233402Y-86942753D01*
X135215223Y-86926277D01*
X135198747Y-86908098D01*
X135184133Y-86888393D01*
X135171520Y-86867349D01*
X135161030Y-86845171D01*
X135152765Y-86822071D01*
X135146804Y-86798273D01*
X135143204Y-86774004D01*
X135142000Y-86749500D01*
X135142000Y-85824500D01*
X135143204Y-85799996D01*
X135146804Y-85775727D01*
X135152765Y-85751929D01*
X135161030Y-85728829D01*
X135171520Y-85706651D01*
X135184133Y-85685607D01*
X135198747Y-85665902D01*
X135215223Y-85647723D01*
X135233402Y-85631247D01*
X135253107Y-85616633D01*
X135274151Y-85604020D01*
X135296329Y-85593530D01*
X135319429Y-85585265D01*
X135343227Y-85579304D01*
X135367496Y-85575704D01*
X135392000Y-85574500D01*
X136642000Y-85574500D01*
X136666504Y-85575704D01*
G37*
G36*
X136666504Y-82600704D02*
G01*
X136690773Y-82604304D01*
X136714571Y-82610265D01*
X136737671Y-82618530D01*
X136759849Y-82629020D01*
X136780893Y-82641633D01*
X136800598Y-82656247D01*
X136818777Y-82672723D01*
X136835253Y-82690902D01*
X136849867Y-82710607D01*
X136862480Y-82731651D01*
X136872970Y-82753829D01*
X136881235Y-82776929D01*
X136887196Y-82800727D01*
X136890796Y-82824996D01*
X136892000Y-82849500D01*
X136892000Y-83774500D01*
X136890796Y-83799004D01*
X136887196Y-83823273D01*
X136881235Y-83847071D01*
X136872970Y-83870171D01*
X136862480Y-83892349D01*
X136849867Y-83913393D01*
X136835253Y-83933098D01*
X136818777Y-83951277D01*
X136800598Y-83967753D01*
X136780893Y-83982367D01*
X136759849Y-83994980D01*
X136737671Y-84005470D01*
X136714571Y-84013735D01*
X136690773Y-84019696D01*
X136666504Y-84023296D01*
X136642000Y-84024500D01*
X135392000Y-84024500D01*
X135367496Y-84023296D01*
X135343227Y-84019696D01*
X135319429Y-84013735D01*
X135296329Y-84005470D01*
X135274151Y-83994980D01*
X135253107Y-83982367D01*
X135233402Y-83967753D01*
X135215223Y-83951277D01*
X135198747Y-83933098D01*
X135184133Y-83913393D01*
X135171520Y-83892349D01*
X135161030Y-83870171D01*
X135152765Y-83847071D01*
X135146804Y-83823273D01*
X135143204Y-83799004D01*
X135142000Y-83774500D01*
X135142000Y-82849500D01*
X135143204Y-82824996D01*
X135146804Y-82800727D01*
X135152765Y-82776929D01*
X135161030Y-82753829D01*
X135171520Y-82731651D01*
X135184133Y-82710607D01*
X135198747Y-82690902D01*
X135215223Y-82672723D01*
X135233402Y-82656247D01*
X135253107Y-82641633D01*
X135274151Y-82629020D01*
X135296329Y-82618530D01*
X135319429Y-82610265D01*
X135343227Y-82604304D01*
X135367496Y-82600704D01*
X135392000Y-82599500D01*
X136642000Y-82599500D01*
X136666504Y-82600704D01*
G37*
G36*
X110123504Y-65582704D02*
G01*
X110147773Y-65586304D01*
X110171571Y-65592265D01*
X110194671Y-65600530D01*
X110216849Y-65611020D01*
X110237893Y-65623633D01*
X110257598Y-65638247D01*
X110275777Y-65654723D01*
X110292253Y-65672902D01*
X110306867Y-65692607D01*
X110319480Y-65713651D01*
X110329970Y-65735829D01*
X110338235Y-65758929D01*
X110344196Y-65782727D01*
X110347796Y-65806996D01*
X110349000Y-65831500D01*
X110349000Y-66756500D01*
X110347796Y-66781004D01*
X110344196Y-66805273D01*
X110338235Y-66829071D01*
X110329970Y-66852171D01*
X110319480Y-66874349D01*
X110306867Y-66895393D01*
X110292253Y-66915098D01*
X110275777Y-66933277D01*
X110257598Y-66949753D01*
X110237893Y-66964367D01*
X110216849Y-66976980D01*
X110194671Y-66987470D01*
X110171571Y-66995735D01*
X110147773Y-67001696D01*
X110123504Y-67005296D01*
X110099000Y-67006500D01*
X108849000Y-67006500D01*
X108824496Y-67005296D01*
X108800227Y-67001696D01*
X108776429Y-66995735D01*
X108753329Y-66987470D01*
X108731151Y-66976980D01*
X108710107Y-66964367D01*
X108690402Y-66949753D01*
X108672223Y-66933277D01*
X108655747Y-66915098D01*
X108641133Y-66895393D01*
X108628520Y-66874349D01*
X108618030Y-66852171D01*
X108609765Y-66829071D01*
X108603804Y-66805273D01*
X108600204Y-66781004D01*
X108599000Y-66756500D01*
X108599000Y-65831500D01*
X108600204Y-65806996D01*
X108603804Y-65782727D01*
X108609765Y-65758929D01*
X108618030Y-65735829D01*
X108628520Y-65713651D01*
X108641133Y-65692607D01*
X108655747Y-65672902D01*
X108672223Y-65654723D01*
X108690402Y-65638247D01*
X108710107Y-65623633D01*
X108731151Y-65611020D01*
X108753329Y-65600530D01*
X108776429Y-65592265D01*
X108800227Y-65586304D01*
X108824496Y-65582704D01*
X108849000Y-65581500D01*
X110099000Y-65581500D01*
X110123504Y-65582704D01*
G37*
G36*
X110123504Y-62607704D02*
G01*
X110147773Y-62611304D01*
X110171571Y-62617265D01*
X110194671Y-62625530D01*
X110216849Y-62636020D01*
X110237893Y-62648633D01*
X110257598Y-62663247D01*
X110275777Y-62679723D01*
X110292253Y-62697902D01*
X110306867Y-62717607D01*
X110319480Y-62738651D01*
X110329970Y-62760829D01*
X110338235Y-62783929D01*
X110344196Y-62807727D01*
X110347796Y-62831996D01*
X110349000Y-62856500D01*
X110349000Y-63781500D01*
X110347796Y-63806004D01*
X110344196Y-63830273D01*
X110338235Y-63854071D01*
X110329970Y-63877171D01*
X110319480Y-63899349D01*
X110306867Y-63920393D01*
X110292253Y-63940098D01*
X110275777Y-63958277D01*
X110257598Y-63974753D01*
X110237893Y-63989367D01*
X110216849Y-64001980D01*
X110194671Y-64012470D01*
X110171571Y-64020735D01*
X110147773Y-64026696D01*
X110123504Y-64030296D01*
X110099000Y-64031500D01*
X108849000Y-64031500D01*
X108824496Y-64030296D01*
X108800227Y-64026696D01*
X108776429Y-64020735D01*
X108753329Y-64012470D01*
X108731151Y-64001980D01*
X108710107Y-63989367D01*
X108690402Y-63974753D01*
X108672223Y-63958277D01*
X108655747Y-63940098D01*
X108641133Y-63920393D01*
X108628520Y-63899349D01*
X108618030Y-63877171D01*
X108609765Y-63854071D01*
X108603804Y-63830273D01*
X108600204Y-63806004D01*
X108599000Y-63781500D01*
X108599000Y-62856500D01*
X108600204Y-62831996D01*
X108603804Y-62807727D01*
X108609765Y-62783929D01*
X108618030Y-62760829D01*
X108628520Y-62738651D01*
X108641133Y-62717607D01*
X108655747Y-62697902D01*
X108672223Y-62679723D01*
X108690402Y-62663247D01*
X108710107Y-62648633D01*
X108731151Y-62636020D01*
X108753329Y-62625530D01*
X108776429Y-62617265D01*
X108800227Y-62611304D01*
X108824496Y-62607704D01*
X108849000Y-62606500D01*
X110099000Y-62606500D01*
X110123504Y-62607704D01*
G37*
G36*
X113933504Y-65582704D02*
G01*
X113957773Y-65586304D01*
X113981571Y-65592265D01*
X114004671Y-65600530D01*
X114026849Y-65611020D01*
X114047893Y-65623633D01*
X114067598Y-65638247D01*
X114085777Y-65654723D01*
X114102253Y-65672902D01*
X114116867Y-65692607D01*
X114129480Y-65713651D01*
X114139970Y-65735829D01*
X114148235Y-65758929D01*
X114154196Y-65782727D01*
X114157796Y-65806996D01*
X114159000Y-65831500D01*
X114159000Y-66756500D01*
X114157796Y-66781004D01*
X114154196Y-66805273D01*
X114148235Y-66829071D01*
X114139970Y-66852171D01*
X114129480Y-66874349D01*
X114116867Y-66895393D01*
X114102253Y-66915098D01*
X114085777Y-66933277D01*
X114067598Y-66949753D01*
X114047893Y-66964367D01*
X114026849Y-66976980D01*
X114004671Y-66987470D01*
X113981571Y-66995735D01*
X113957773Y-67001696D01*
X113933504Y-67005296D01*
X113909000Y-67006500D01*
X112659000Y-67006500D01*
X112634496Y-67005296D01*
X112610227Y-67001696D01*
X112586429Y-66995735D01*
X112563329Y-66987470D01*
X112541151Y-66976980D01*
X112520107Y-66964367D01*
X112500402Y-66949753D01*
X112482223Y-66933277D01*
X112465747Y-66915098D01*
X112451133Y-66895393D01*
X112438520Y-66874349D01*
X112428030Y-66852171D01*
X112419765Y-66829071D01*
X112413804Y-66805273D01*
X112410204Y-66781004D01*
X112409000Y-66756500D01*
X112409000Y-65831500D01*
X112410204Y-65806996D01*
X112413804Y-65782727D01*
X112419765Y-65758929D01*
X112428030Y-65735829D01*
X112438520Y-65713651D01*
X112451133Y-65692607D01*
X112465747Y-65672902D01*
X112482223Y-65654723D01*
X112500402Y-65638247D01*
X112520107Y-65623633D01*
X112541151Y-65611020D01*
X112563329Y-65600530D01*
X112586429Y-65592265D01*
X112610227Y-65586304D01*
X112634496Y-65582704D01*
X112659000Y-65581500D01*
X113909000Y-65581500D01*
X113933504Y-65582704D01*
G37*
G36*
X113933504Y-62607704D02*
G01*
X113957773Y-62611304D01*
X113981571Y-62617265D01*
X114004671Y-62625530D01*
X114026849Y-62636020D01*
X114047893Y-62648633D01*
X114067598Y-62663247D01*
X114085777Y-62679723D01*
X114102253Y-62697902D01*
X114116867Y-62717607D01*
X114129480Y-62738651D01*
X114139970Y-62760829D01*
X114148235Y-62783929D01*
X114154196Y-62807727D01*
X114157796Y-62831996D01*
X114159000Y-62856500D01*
X114159000Y-63781500D01*
X114157796Y-63806004D01*
X114154196Y-63830273D01*
X114148235Y-63854071D01*
X114139970Y-63877171D01*
X114129480Y-63899349D01*
X114116867Y-63920393D01*
X114102253Y-63940098D01*
X114085777Y-63958277D01*
X114067598Y-63974753D01*
X114047893Y-63989367D01*
X114026849Y-64001980D01*
X114004671Y-64012470D01*
X113981571Y-64020735D01*
X113957773Y-64026696D01*
X113933504Y-64030296D01*
X113909000Y-64031500D01*
X112659000Y-64031500D01*
X112634496Y-64030296D01*
X112610227Y-64026696D01*
X112586429Y-64020735D01*
X112563329Y-64012470D01*
X112541151Y-64001980D01*
X112520107Y-63989367D01*
X112500402Y-63974753D01*
X112482223Y-63958277D01*
X112465747Y-63940098D01*
X112451133Y-63920393D01*
X112438520Y-63899349D01*
X112428030Y-63877171D01*
X112419765Y-63854071D01*
X112413804Y-63830273D01*
X112410204Y-63806004D01*
X112409000Y-63781500D01*
X112409000Y-62856500D01*
X112410204Y-62831996D01*
X112413804Y-62807727D01*
X112419765Y-62783929D01*
X112428030Y-62760829D01*
X112438520Y-62738651D01*
X112451133Y-62717607D01*
X112465747Y-62697902D01*
X112482223Y-62679723D01*
X112500402Y-62663247D01*
X112520107Y-62648633D01*
X112541151Y-62636020D01*
X112563329Y-62625530D01*
X112586429Y-62617265D01*
X112610227Y-62611304D01*
X112634496Y-62607704D01*
X112659000Y-62606500D01*
X113909000Y-62606500D01*
X113933504Y-62607704D01*
G37*
G36*
X119775504Y-65582704D02*
G01*
X119799773Y-65586304D01*
X119823571Y-65592265D01*
X119846671Y-65600530D01*
X119868849Y-65611020D01*
X119889893Y-65623633D01*
X119909598Y-65638247D01*
X119927777Y-65654723D01*
X119944253Y-65672902D01*
X119958867Y-65692607D01*
X119971480Y-65713651D01*
X119981970Y-65735829D01*
X119990235Y-65758929D01*
X119996196Y-65782727D01*
X119999796Y-65806996D01*
X120001000Y-65831500D01*
X120001000Y-66756500D01*
X119999796Y-66781004D01*
X119996196Y-66805273D01*
X119990235Y-66829071D01*
X119981970Y-66852171D01*
X119971480Y-66874349D01*
X119958867Y-66895393D01*
X119944253Y-66915098D01*
X119927777Y-66933277D01*
X119909598Y-66949753D01*
X119889893Y-66964367D01*
X119868849Y-66976980D01*
X119846671Y-66987470D01*
X119823571Y-66995735D01*
X119799773Y-67001696D01*
X119775504Y-67005296D01*
X119751000Y-67006500D01*
X118501000Y-67006500D01*
X118476496Y-67005296D01*
X118452227Y-67001696D01*
X118428429Y-66995735D01*
X118405329Y-66987470D01*
X118383151Y-66976980D01*
X118362107Y-66964367D01*
X118342402Y-66949753D01*
X118324223Y-66933277D01*
X118307747Y-66915098D01*
X118293133Y-66895393D01*
X118280520Y-66874349D01*
X118270030Y-66852171D01*
X118261765Y-66829071D01*
X118255804Y-66805273D01*
X118252204Y-66781004D01*
X118251000Y-66756500D01*
X118251000Y-65831500D01*
X118252204Y-65806996D01*
X118255804Y-65782727D01*
X118261765Y-65758929D01*
X118270030Y-65735829D01*
X118280520Y-65713651D01*
X118293133Y-65692607D01*
X118307747Y-65672902D01*
X118324223Y-65654723D01*
X118342402Y-65638247D01*
X118362107Y-65623633D01*
X118383151Y-65611020D01*
X118405329Y-65600530D01*
X118428429Y-65592265D01*
X118452227Y-65586304D01*
X118476496Y-65582704D01*
X118501000Y-65581500D01*
X119751000Y-65581500D01*
X119775504Y-65582704D01*
G37*
G36*
X119775504Y-62607704D02*
G01*
X119799773Y-62611304D01*
X119823571Y-62617265D01*
X119846671Y-62625530D01*
X119868849Y-62636020D01*
X119889893Y-62648633D01*
X119909598Y-62663247D01*
X119927777Y-62679723D01*
X119944253Y-62697902D01*
X119958867Y-62717607D01*
X119971480Y-62738651D01*
X119981970Y-62760829D01*
X119990235Y-62783929D01*
X119996196Y-62807727D01*
X119999796Y-62831996D01*
X120001000Y-62856500D01*
X120001000Y-63781500D01*
X119999796Y-63806004D01*
X119996196Y-63830273D01*
X119990235Y-63854071D01*
X119981970Y-63877171D01*
X119971480Y-63899349D01*
X119958867Y-63920393D01*
X119944253Y-63940098D01*
X119927777Y-63958277D01*
X119909598Y-63974753D01*
X119889893Y-63989367D01*
X119868849Y-64001980D01*
X119846671Y-64012470D01*
X119823571Y-64020735D01*
X119799773Y-64026696D01*
X119775504Y-64030296D01*
X119751000Y-64031500D01*
X118501000Y-64031500D01*
X118476496Y-64030296D01*
X118452227Y-64026696D01*
X118428429Y-64020735D01*
X118405329Y-64012470D01*
X118383151Y-64001980D01*
X118362107Y-63989367D01*
X118342402Y-63974753D01*
X118324223Y-63958277D01*
X118307747Y-63940098D01*
X118293133Y-63920393D01*
X118280520Y-63899349D01*
X118270030Y-63877171D01*
X118261765Y-63854071D01*
X118255804Y-63830273D01*
X118252204Y-63806004D01*
X118251000Y-63781500D01*
X118251000Y-62856500D01*
X118252204Y-62831996D01*
X118255804Y-62807727D01*
X118261765Y-62783929D01*
X118270030Y-62760829D01*
X118280520Y-62738651D01*
X118293133Y-62717607D01*
X118307747Y-62697902D01*
X118324223Y-62679723D01*
X118342402Y-62663247D01*
X118362107Y-62648633D01*
X118383151Y-62636020D01*
X118405329Y-62625530D01*
X118428429Y-62617265D01*
X118452227Y-62611304D01*
X118476496Y-62607704D01*
X118501000Y-62606500D01*
X119751000Y-62606500D01*
X119775504Y-62607704D01*
G37*
G36*
X123585504Y-65582704D02*
G01*
X123609773Y-65586304D01*
X123633571Y-65592265D01*
X123656671Y-65600530D01*
X123678849Y-65611020D01*
X123699893Y-65623633D01*
X123719598Y-65638247D01*
X123737777Y-65654723D01*
X123754253Y-65672902D01*
X123768867Y-65692607D01*
X123781480Y-65713651D01*
X123791970Y-65735829D01*
X123800235Y-65758929D01*
X123806196Y-65782727D01*
X123809796Y-65806996D01*
X123811000Y-65831500D01*
X123811000Y-66756500D01*
X123809796Y-66781004D01*
X123806196Y-66805273D01*
X123800235Y-66829071D01*
X123791970Y-66852171D01*
X123781480Y-66874349D01*
X123768867Y-66895393D01*
X123754253Y-66915098D01*
X123737777Y-66933277D01*
X123719598Y-66949753D01*
X123699893Y-66964367D01*
X123678849Y-66976980D01*
X123656671Y-66987470D01*
X123633571Y-66995735D01*
X123609773Y-67001696D01*
X123585504Y-67005296D01*
X123561000Y-67006500D01*
X122311000Y-67006500D01*
X122286496Y-67005296D01*
X122262227Y-67001696D01*
X122238429Y-66995735D01*
X122215329Y-66987470D01*
X122193151Y-66976980D01*
X122172107Y-66964367D01*
X122152402Y-66949753D01*
X122134223Y-66933277D01*
X122117747Y-66915098D01*
X122103133Y-66895393D01*
X122090520Y-66874349D01*
X122080030Y-66852171D01*
X122071765Y-66829071D01*
X122065804Y-66805273D01*
X122062204Y-66781004D01*
X122061000Y-66756500D01*
X122061000Y-65831500D01*
X122062204Y-65806996D01*
X122065804Y-65782727D01*
X122071765Y-65758929D01*
X122080030Y-65735829D01*
X122090520Y-65713651D01*
X122103133Y-65692607D01*
X122117747Y-65672902D01*
X122134223Y-65654723D01*
X122152402Y-65638247D01*
X122172107Y-65623633D01*
X122193151Y-65611020D01*
X122215329Y-65600530D01*
X122238429Y-65592265D01*
X122262227Y-65586304D01*
X122286496Y-65582704D01*
X122311000Y-65581500D01*
X123561000Y-65581500D01*
X123585504Y-65582704D01*
G37*
G36*
X123585504Y-62607704D02*
G01*
X123609773Y-62611304D01*
X123633571Y-62617265D01*
X123656671Y-62625530D01*
X123678849Y-62636020D01*
X123699893Y-62648633D01*
X123719598Y-62663247D01*
X123737777Y-62679723D01*
X123754253Y-62697902D01*
X123768867Y-62717607D01*
X123781480Y-62738651D01*
X123791970Y-62760829D01*
X123800235Y-62783929D01*
X123806196Y-62807727D01*
X123809796Y-62831996D01*
X123811000Y-62856500D01*
X123811000Y-63781500D01*
X123809796Y-63806004D01*
X123806196Y-63830273D01*
X123800235Y-63854071D01*
X123791970Y-63877171D01*
X123781480Y-63899349D01*
X123768867Y-63920393D01*
X123754253Y-63940098D01*
X123737777Y-63958277D01*
X123719598Y-63974753D01*
X123699893Y-63989367D01*
X123678849Y-64001980D01*
X123656671Y-64012470D01*
X123633571Y-64020735D01*
X123609773Y-64026696D01*
X123585504Y-64030296D01*
X123561000Y-64031500D01*
X122311000Y-64031500D01*
X122286496Y-64030296D01*
X122262227Y-64026696D01*
X122238429Y-64020735D01*
X122215329Y-64012470D01*
X122193151Y-64001980D01*
X122172107Y-63989367D01*
X122152402Y-63974753D01*
X122134223Y-63958277D01*
X122117747Y-63940098D01*
X122103133Y-63920393D01*
X122090520Y-63899349D01*
X122080030Y-63877171D01*
X122071765Y-63854071D01*
X122065804Y-63830273D01*
X122062204Y-63806004D01*
X122061000Y-63781500D01*
X122061000Y-62856500D01*
X122062204Y-62831996D01*
X122065804Y-62807727D01*
X122071765Y-62783929D01*
X122080030Y-62760829D01*
X122090520Y-62738651D01*
X122103133Y-62717607D01*
X122117747Y-62697902D01*
X122134223Y-62679723D01*
X122152402Y-62663247D01*
X122172107Y-62648633D01*
X122193151Y-62636020D01*
X122215329Y-62625530D01*
X122238429Y-62617265D01*
X122262227Y-62611304D01*
X122286496Y-62607704D01*
X122311000Y-62606500D01*
X123561000Y-62606500D01*
X123585504Y-62607704D01*
G37*
G36*
X144921504Y-85648704D02*
G01*
X144945773Y-85652304D01*
X144969571Y-85658265D01*
X144992671Y-85666530D01*
X145014849Y-85677020D01*
X145035893Y-85689633D01*
X145055598Y-85704247D01*
X145073777Y-85720723D01*
X145090253Y-85738902D01*
X145104867Y-85758607D01*
X145117480Y-85779651D01*
X145127970Y-85801829D01*
X145136235Y-85824929D01*
X145142196Y-85848727D01*
X145145796Y-85872996D01*
X145147000Y-85897500D01*
X145147000Y-86822500D01*
X145145796Y-86847004D01*
X145142196Y-86871273D01*
X145136235Y-86895071D01*
X145127970Y-86918171D01*
X145117480Y-86940349D01*
X145104867Y-86961393D01*
X145090253Y-86981098D01*
X145073777Y-86999277D01*
X145055598Y-87015753D01*
X145035893Y-87030367D01*
X145014849Y-87042980D01*
X144992671Y-87053470D01*
X144969571Y-87061735D01*
X144945773Y-87067696D01*
X144921504Y-87071296D01*
X144897000Y-87072500D01*
X143647000Y-87072500D01*
X143622496Y-87071296D01*
X143598227Y-87067696D01*
X143574429Y-87061735D01*
X143551329Y-87053470D01*
X143529151Y-87042980D01*
X143508107Y-87030367D01*
X143488402Y-87015753D01*
X143470223Y-86999277D01*
X143453747Y-86981098D01*
X143439133Y-86961393D01*
X143426520Y-86940349D01*
X143416030Y-86918171D01*
X143407765Y-86895071D01*
X143401804Y-86871273D01*
X143398204Y-86847004D01*
X143397000Y-86822500D01*
X143397000Y-85897500D01*
X143398204Y-85872996D01*
X143401804Y-85848727D01*
X143407765Y-85824929D01*
X143416030Y-85801829D01*
X143426520Y-85779651D01*
X143439133Y-85758607D01*
X143453747Y-85738902D01*
X143470223Y-85720723D01*
X143488402Y-85704247D01*
X143508107Y-85689633D01*
X143529151Y-85677020D01*
X143551329Y-85666530D01*
X143574429Y-85658265D01*
X143598227Y-85652304D01*
X143622496Y-85648704D01*
X143647000Y-85647500D01*
X144897000Y-85647500D01*
X144921504Y-85648704D01*
G37*
G36*
X144921504Y-82673704D02*
G01*
X144945773Y-82677304D01*
X144969571Y-82683265D01*
X144992671Y-82691530D01*
X145014849Y-82702020D01*
X145035893Y-82714633D01*
X145055598Y-82729247D01*
X145073777Y-82745723D01*
X145090253Y-82763902D01*
X145104867Y-82783607D01*
X145117480Y-82804651D01*
X145127970Y-82826829D01*
X145136235Y-82849929D01*
X145142196Y-82873727D01*
X145145796Y-82897996D01*
X145147000Y-82922500D01*
X145147000Y-83847500D01*
X145145796Y-83872004D01*
X145142196Y-83896273D01*
X145136235Y-83920071D01*
X145127970Y-83943171D01*
X145117480Y-83965349D01*
X145104867Y-83986393D01*
X145090253Y-84006098D01*
X145073777Y-84024277D01*
X145055598Y-84040753D01*
X145035893Y-84055367D01*
X145014849Y-84067980D01*
X144992671Y-84078470D01*
X144969571Y-84086735D01*
X144945773Y-84092696D01*
X144921504Y-84096296D01*
X144897000Y-84097500D01*
X143647000Y-84097500D01*
X143622496Y-84096296D01*
X143598227Y-84092696D01*
X143574429Y-84086735D01*
X143551329Y-84078470D01*
X143529151Y-84067980D01*
X143508107Y-84055367D01*
X143488402Y-84040753D01*
X143470223Y-84024277D01*
X143453747Y-84006098D01*
X143439133Y-83986393D01*
X143426520Y-83965349D01*
X143416030Y-83943171D01*
X143407765Y-83920071D01*
X143401804Y-83896273D01*
X143398204Y-83872004D01*
X143397000Y-83847500D01*
X143397000Y-82922500D01*
X143398204Y-82897996D01*
X143401804Y-82873727D01*
X143407765Y-82849929D01*
X143416030Y-82826829D01*
X143426520Y-82804651D01*
X143439133Y-82783607D01*
X143453747Y-82763902D01*
X143470223Y-82745723D01*
X143488402Y-82729247D01*
X143508107Y-82714633D01*
X143529151Y-82702020D01*
X143551329Y-82691530D01*
X143574429Y-82683265D01*
X143598227Y-82677304D01*
X143622496Y-82673704D01*
X143647000Y-82672500D01*
X144897000Y-82672500D01*
X144921504Y-82673704D01*
G37*
G36*
X148731504Y-85648704D02*
G01*
X148755773Y-85652304D01*
X148779571Y-85658265D01*
X148802671Y-85666530D01*
X148824849Y-85677020D01*
X148845893Y-85689633D01*
X148865598Y-85704247D01*
X148883777Y-85720723D01*
X148900253Y-85738902D01*
X148914867Y-85758607D01*
X148927480Y-85779651D01*
X148937970Y-85801829D01*
X148946235Y-85824929D01*
X148952196Y-85848727D01*
X148955796Y-85872996D01*
X148957000Y-85897500D01*
X148957000Y-86822500D01*
X148955796Y-86847004D01*
X148952196Y-86871273D01*
X148946235Y-86895071D01*
X148937970Y-86918171D01*
X148927480Y-86940349D01*
X148914867Y-86961393D01*
X148900253Y-86981098D01*
X148883777Y-86999277D01*
X148865598Y-87015753D01*
X148845893Y-87030367D01*
X148824849Y-87042980D01*
X148802671Y-87053470D01*
X148779571Y-87061735D01*
X148755773Y-87067696D01*
X148731504Y-87071296D01*
X148707000Y-87072500D01*
X147457000Y-87072500D01*
X147432496Y-87071296D01*
X147408227Y-87067696D01*
X147384429Y-87061735D01*
X147361329Y-87053470D01*
X147339151Y-87042980D01*
X147318107Y-87030367D01*
X147298402Y-87015753D01*
X147280223Y-86999277D01*
X147263747Y-86981098D01*
X147249133Y-86961393D01*
X147236520Y-86940349D01*
X147226030Y-86918171D01*
X147217765Y-86895071D01*
X147211804Y-86871273D01*
X147208204Y-86847004D01*
X147207000Y-86822500D01*
X147207000Y-85897500D01*
X147208204Y-85872996D01*
X147211804Y-85848727D01*
X147217765Y-85824929D01*
X147226030Y-85801829D01*
X147236520Y-85779651D01*
X147249133Y-85758607D01*
X147263747Y-85738902D01*
X147280223Y-85720723D01*
X147298402Y-85704247D01*
X147318107Y-85689633D01*
X147339151Y-85677020D01*
X147361329Y-85666530D01*
X147384429Y-85658265D01*
X147408227Y-85652304D01*
X147432496Y-85648704D01*
X147457000Y-85647500D01*
X148707000Y-85647500D01*
X148731504Y-85648704D01*
G37*
G36*
X148731504Y-82673704D02*
G01*
X148755773Y-82677304D01*
X148779571Y-82683265D01*
X148802671Y-82691530D01*
X148824849Y-82702020D01*
X148845893Y-82714633D01*
X148865598Y-82729247D01*
X148883777Y-82745723D01*
X148900253Y-82763902D01*
X148914867Y-82783607D01*
X148927480Y-82804651D01*
X148937970Y-82826829D01*
X148946235Y-82849929D01*
X148952196Y-82873727D01*
X148955796Y-82897996D01*
X148957000Y-82922500D01*
X148957000Y-83847500D01*
X148955796Y-83872004D01*
X148952196Y-83896273D01*
X148946235Y-83920071D01*
X148937970Y-83943171D01*
X148927480Y-83965349D01*
X148914867Y-83986393D01*
X148900253Y-84006098D01*
X148883777Y-84024277D01*
X148865598Y-84040753D01*
X148845893Y-84055367D01*
X148824849Y-84067980D01*
X148802671Y-84078470D01*
X148779571Y-84086735D01*
X148755773Y-84092696D01*
X148731504Y-84096296D01*
X148707000Y-84097500D01*
X147457000Y-84097500D01*
X147432496Y-84096296D01*
X147408227Y-84092696D01*
X147384429Y-84086735D01*
X147361329Y-84078470D01*
X147339151Y-84067980D01*
X147318107Y-84055367D01*
X147298402Y-84040753D01*
X147280223Y-84024277D01*
X147263747Y-84006098D01*
X147249133Y-83986393D01*
X147236520Y-83965349D01*
X147226030Y-83943171D01*
X147217765Y-83920071D01*
X147211804Y-83896273D01*
X147208204Y-83872004D01*
X147207000Y-83847500D01*
X147207000Y-82922500D01*
X147208204Y-82897996D01*
X147211804Y-82873727D01*
X147217765Y-82849929D01*
X147226030Y-82826829D01*
X147236520Y-82804651D01*
X147249133Y-82783607D01*
X147263747Y-82763902D01*
X147280223Y-82745723D01*
X147298402Y-82729247D01*
X147318107Y-82714633D01*
X147339151Y-82702020D01*
X147361329Y-82691530D01*
X147384429Y-82683265D01*
X147408227Y-82677304D01*
X147432496Y-82673704D01*
X147457000Y-82672500D01*
X148707000Y-82672500D01*
X148731504Y-82673704D01*
G37*
G36*
X199404504Y-76323704D02*
G01*
X199428773Y-76327304D01*
X199452571Y-76333265D01*
X199475671Y-76341530D01*
X199497849Y-76352020D01*
X199518893Y-76364633D01*
X199538598Y-76379247D01*
X199556777Y-76395723D01*
X199573253Y-76413902D01*
X199587867Y-76433607D01*
X199600480Y-76454651D01*
X199610970Y-76476829D01*
X199619235Y-76499929D01*
X199625196Y-76523727D01*
X199628796Y-76547996D01*
X199630000Y-76572500D01*
X199630000Y-77497500D01*
X199628796Y-77522004D01*
X199625196Y-77546273D01*
X199619235Y-77570071D01*
X199610970Y-77593171D01*
X199600480Y-77615349D01*
X199587867Y-77636393D01*
X199573253Y-77656098D01*
X199556777Y-77674277D01*
X199538598Y-77690753D01*
X199518893Y-77705367D01*
X199497849Y-77717980D01*
X199475671Y-77728470D01*
X199452571Y-77736735D01*
X199428773Y-77742696D01*
X199404504Y-77746296D01*
X199380000Y-77747500D01*
X198130000Y-77747500D01*
X198105496Y-77746296D01*
X198081227Y-77742696D01*
X198057429Y-77736735D01*
X198034329Y-77728470D01*
X198012151Y-77717980D01*
X197991107Y-77705367D01*
X197971402Y-77690753D01*
X197953223Y-77674277D01*
X197936747Y-77656098D01*
X197922133Y-77636393D01*
X197909520Y-77615349D01*
X197899030Y-77593171D01*
X197890765Y-77570071D01*
X197884804Y-77546273D01*
X197881204Y-77522004D01*
X197880000Y-77497500D01*
X197880000Y-76572500D01*
X197881204Y-76547996D01*
X197884804Y-76523727D01*
X197890765Y-76499929D01*
X197899030Y-76476829D01*
X197909520Y-76454651D01*
X197922133Y-76433607D01*
X197936747Y-76413902D01*
X197953223Y-76395723D01*
X197971402Y-76379247D01*
X197991107Y-76364633D01*
X198012151Y-76352020D01*
X198034329Y-76341530D01*
X198057429Y-76333265D01*
X198081227Y-76327304D01*
X198105496Y-76323704D01*
X198130000Y-76322500D01*
X199380000Y-76322500D01*
X199404504Y-76323704D01*
G37*
G36*
X199404504Y-79298704D02*
G01*
X199428773Y-79302304D01*
X199452571Y-79308265D01*
X199475671Y-79316530D01*
X199497849Y-79327020D01*
X199518893Y-79339633D01*
X199538598Y-79354247D01*
X199556777Y-79370723D01*
X199573253Y-79388902D01*
X199587867Y-79408607D01*
X199600480Y-79429651D01*
X199610970Y-79451829D01*
X199619235Y-79474929D01*
X199625196Y-79498727D01*
X199628796Y-79522996D01*
X199630000Y-79547500D01*
X199630000Y-80472500D01*
X199628796Y-80497004D01*
X199625196Y-80521273D01*
X199619235Y-80545071D01*
X199610970Y-80568171D01*
X199600480Y-80590349D01*
X199587867Y-80611393D01*
X199573253Y-80631098D01*
X199556777Y-80649277D01*
X199538598Y-80665753D01*
X199518893Y-80680367D01*
X199497849Y-80692980D01*
X199475671Y-80703470D01*
X199452571Y-80711735D01*
X199428773Y-80717696D01*
X199404504Y-80721296D01*
X199380000Y-80722500D01*
X198130000Y-80722500D01*
X198105496Y-80721296D01*
X198081227Y-80717696D01*
X198057429Y-80711735D01*
X198034329Y-80703470D01*
X198012151Y-80692980D01*
X197991107Y-80680367D01*
X197971402Y-80665753D01*
X197953223Y-80649277D01*
X197936747Y-80631098D01*
X197922133Y-80611393D01*
X197909520Y-80590349D01*
X197899030Y-80568171D01*
X197890765Y-80545071D01*
X197884804Y-80521273D01*
X197881204Y-80497004D01*
X197880000Y-80472500D01*
X197880000Y-79547500D01*
X197881204Y-79522996D01*
X197884804Y-79498727D01*
X197890765Y-79474929D01*
X197899030Y-79451829D01*
X197909520Y-79429651D01*
X197922133Y-79408607D01*
X197936747Y-79388902D01*
X197953223Y-79370723D01*
X197971402Y-79354247D01*
X197991107Y-79339633D01*
X198012151Y-79327020D01*
X198034329Y-79316530D01*
X198057429Y-79308265D01*
X198081227Y-79302304D01*
X198105496Y-79298704D01*
X198130000Y-79297500D01*
X199380000Y-79297500D01*
X199404504Y-79298704D01*
G37*
G36*
X199404504Y-85013704D02*
G01*
X199428773Y-85017304D01*
X199452571Y-85023265D01*
X199475671Y-85031530D01*
X199497849Y-85042020D01*
X199518893Y-85054633D01*
X199538598Y-85069247D01*
X199556777Y-85085723D01*
X199573253Y-85103902D01*
X199587867Y-85123607D01*
X199600480Y-85144651D01*
X199610970Y-85166829D01*
X199619235Y-85189929D01*
X199625196Y-85213727D01*
X199628796Y-85237996D01*
X199630000Y-85262500D01*
X199630000Y-86187500D01*
X199628796Y-86212004D01*
X199625196Y-86236273D01*
X199619235Y-86260071D01*
X199610970Y-86283171D01*
X199600480Y-86305349D01*
X199587867Y-86326393D01*
X199573253Y-86346098D01*
X199556777Y-86364277D01*
X199538598Y-86380753D01*
X199518893Y-86395367D01*
X199497849Y-86407980D01*
X199475671Y-86418470D01*
X199452571Y-86426735D01*
X199428773Y-86432696D01*
X199404504Y-86436296D01*
X199380000Y-86437500D01*
X198130000Y-86437500D01*
X198105496Y-86436296D01*
X198081227Y-86432696D01*
X198057429Y-86426735D01*
X198034329Y-86418470D01*
X198012151Y-86407980D01*
X197991107Y-86395367D01*
X197971402Y-86380753D01*
X197953223Y-86364277D01*
X197936747Y-86346098D01*
X197922133Y-86326393D01*
X197909520Y-86305349D01*
X197899030Y-86283171D01*
X197890765Y-86260071D01*
X197884804Y-86236273D01*
X197881204Y-86212004D01*
X197880000Y-86187500D01*
X197880000Y-85262500D01*
X197881204Y-85237996D01*
X197884804Y-85213727D01*
X197890765Y-85189929D01*
X197899030Y-85166829D01*
X197909520Y-85144651D01*
X197922133Y-85123607D01*
X197936747Y-85103902D01*
X197953223Y-85085723D01*
X197971402Y-85069247D01*
X197991107Y-85054633D01*
X198012151Y-85042020D01*
X198034329Y-85031530D01*
X198057429Y-85023265D01*
X198081227Y-85017304D01*
X198105496Y-85013704D01*
X198130000Y-85012500D01*
X199380000Y-85012500D01*
X199404504Y-85013704D01*
G37*
G36*
X199404504Y-82038704D02*
G01*
X199428773Y-82042304D01*
X199452571Y-82048265D01*
X199475671Y-82056530D01*
X199497849Y-82067020D01*
X199518893Y-82079633D01*
X199538598Y-82094247D01*
X199556777Y-82110723D01*
X199573253Y-82128902D01*
X199587867Y-82148607D01*
X199600480Y-82169651D01*
X199610970Y-82191829D01*
X199619235Y-82214929D01*
X199625196Y-82238727D01*
X199628796Y-82262996D01*
X199630000Y-82287500D01*
X199630000Y-83212500D01*
X199628796Y-83237004D01*
X199625196Y-83261273D01*
X199619235Y-83285071D01*
X199610970Y-83308171D01*
X199600480Y-83330349D01*
X199587867Y-83351393D01*
X199573253Y-83371098D01*
X199556777Y-83389277D01*
X199538598Y-83405753D01*
X199518893Y-83420367D01*
X199497849Y-83432980D01*
X199475671Y-83443470D01*
X199452571Y-83451735D01*
X199428773Y-83457696D01*
X199404504Y-83461296D01*
X199380000Y-83462500D01*
X198130000Y-83462500D01*
X198105496Y-83461296D01*
X198081227Y-83457696D01*
X198057429Y-83451735D01*
X198034329Y-83443470D01*
X198012151Y-83432980D01*
X197991107Y-83420367D01*
X197971402Y-83405753D01*
X197953223Y-83389277D01*
X197936747Y-83371098D01*
X197922133Y-83351393D01*
X197909520Y-83330349D01*
X197899030Y-83308171D01*
X197890765Y-83285071D01*
X197884804Y-83261273D01*
X197881204Y-83237004D01*
X197880000Y-83212500D01*
X197880000Y-82287500D01*
X197881204Y-82262996D01*
X197884804Y-82238727D01*
X197890765Y-82214929D01*
X197899030Y-82191829D01*
X197909520Y-82169651D01*
X197922133Y-82148607D01*
X197936747Y-82128902D01*
X197953223Y-82110723D01*
X197971402Y-82094247D01*
X197991107Y-82079633D01*
X198012151Y-82067020D01*
X198034329Y-82056530D01*
X198057429Y-82048265D01*
X198081227Y-82042304D01*
X198105496Y-82038704D01*
X198130000Y-82037500D01*
X199380000Y-82037500D01*
X199404504Y-82038704D01*
G37*
G36*
X199404504Y-65328704D02*
G01*
X199428773Y-65332304D01*
X199452571Y-65338265D01*
X199475671Y-65346530D01*
X199497849Y-65357020D01*
X199518893Y-65369633D01*
X199538598Y-65384247D01*
X199556777Y-65400723D01*
X199573253Y-65418902D01*
X199587867Y-65438607D01*
X199600480Y-65459651D01*
X199610970Y-65481829D01*
X199619235Y-65504929D01*
X199625196Y-65528727D01*
X199628796Y-65552996D01*
X199630000Y-65577500D01*
X199630000Y-66502500D01*
X199628796Y-66527004D01*
X199625196Y-66551273D01*
X199619235Y-66575071D01*
X199610970Y-66598171D01*
X199600480Y-66620349D01*
X199587867Y-66641393D01*
X199573253Y-66661098D01*
X199556777Y-66679277D01*
X199538598Y-66695753D01*
X199518893Y-66710367D01*
X199497849Y-66722980D01*
X199475671Y-66733470D01*
X199452571Y-66741735D01*
X199428773Y-66747696D01*
X199404504Y-66751296D01*
X199380000Y-66752500D01*
X198130000Y-66752500D01*
X198105496Y-66751296D01*
X198081227Y-66747696D01*
X198057429Y-66741735D01*
X198034329Y-66733470D01*
X198012151Y-66722980D01*
X197991107Y-66710367D01*
X197971402Y-66695753D01*
X197953223Y-66679277D01*
X197936747Y-66661098D01*
X197922133Y-66641393D01*
X197909520Y-66620349D01*
X197899030Y-66598171D01*
X197890765Y-66575071D01*
X197884804Y-66551273D01*
X197881204Y-66527004D01*
X197880000Y-66502500D01*
X197880000Y-65577500D01*
X197881204Y-65552996D01*
X197884804Y-65528727D01*
X197890765Y-65504929D01*
X197899030Y-65481829D01*
X197909520Y-65459651D01*
X197922133Y-65438607D01*
X197936747Y-65418902D01*
X197953223Y-65400723D01*
X197971402Y-65384247D01*
X197991107Y-65369633D01*
X198012151Y-65357020D01*
X198034329Y-65346530D01*
X198057429Y-65338265D01*
X198081227Y-65332304D01*
X198105496Y-65328704D01*
X198130000Y-65327500D01*
X199380000Y-65327500D01*
X199404504Y-65328704D01*
G37*
G36*
X199404504Y-62353704D02*
G01*
X199428773Y-62357304D01*
X199452571Y-62363265D01*
X199475671Y-62371530D01*
X199497849Y-62382020D01*
X199518893Y-62394633D01*
X199538598Y-62409247D01*
X199556777Y-62425723D01*
X199573253Y-62443902D01*
X199587867Y-62463607D01*
X199600480Y-62484651D01*
X199610970Y-62506829D01*
X199619235Y-62529929D01*
X199625196Y-62553727D01*
X199628796Y-62577996D01*
X199630000Y-62602500D01*
X199630000Y-63527500D01*
X199628796Y-63552004D01*
X199625196Y-63576273D01*
X199619235Y-63600071D01*
X199610970Y-63623171D01*
X199600480Y-63645349D01*
X199587867Y-63666393D01*
X199573253Y-63686098D01*
X199556777Y-63704277D01*
X199538598Y-63720753D01*
X199518893Y-63735367D01*
X199497849Y-63747980D01*
X199475671Y-63758470D01*
X199452571Y-63766735D01*
X199428773Y-63772696D01*
X199404504Y-63776296D01*
X199380000Y-63777500D01*
X198130000Y-63777500D01*
X198105496Y-63776296D01*
X198081227Y-63772696D01*
X198057429Y-63766735D01*
X198034329Y-63758470D01*
X198012151Y-63747980D01*
X197991107Y-63735367D01*
X197971402Y-63720753D01*
X197953223Y-63704277D01*
X197936747Y-63686098D01*
X197922133Y-63666393D01*
X197909520Y-63645349D01*
X197899030Y-63623171D01*
X197890765Y-63600071D01*
X197884804Y-63576273D01*
X197881204Y-63552004D01*
X197880000Y-63527500D01*
X197880000Y-62602500D01*
X197881204Y-62577996D01*
X197884804Y-62553727D01*
X197890765Y-62529929D01*
X197899030Y-62506829D01*
X197909520Y-62484651D01*
X197922133Y-62463607D01*
X197936747Y-62443902D01*
X197953223Y-62425723D01*
X197971402Y-62409247D01*
X197991107Y-62394633D01*
X198012151Y-62382020D01*
X198034329Y-62371530D01*
X198057429Y-62363265D01*
X198081227Y-62357304D01*
X198105496Y-62353704D01*
X198130000Y-62352500D01*
X199380000Y-62352500D01*
X199404504Y-62353704D01*
G37*
D17*
X140462000Y-76962000D03*
X139512000Y-78962000D03*
X141412000Y-78962000D03*
X135382000Y-76962000D03*
X134432000Y-78962000D03*
X136332000Y-78962000D03*
D15*
X110490000Y-55118000D03*
X110490000Y-59118000D03*
D16*
G36*
X92914504Y-88251204D02*
G01*
X92938773Y-88254804D01*
X92962571Y-88260765D01*
X92985671Y-88269030D01*
X93007849Y-88279520D01*
X93028893Y-88292133D01*
X93048598Y-88306747D01*
X93066777Y-88323223D01*
X93083253Y-88341402D01*
X93097867Y-88361107D01*
X93110480Y-88382151D01*
X93120970Y-88404329D01*
X93129235Y-88427429D01*
X93135196Y-88451227D01*
X93138796Y-88475496D01*
X93140000Y-88500000D01*
X93140000Y-89300000D01*
X93138796Y-89324504D01*
X93135196Y-89348773D01*
X93129235Y-89372571D01*
X93120970Y-89395671D01*
X93110480Y-89417849D01*
X93097867Y-89438893D01*
X93083253Y-89458598D01*
X93066777Y-89476777D01*
X93048598Y-89493253D01*
X93028893Y-89507867D01*
X93007849Y-89520480D01*
X92985671Y-89530970D01*
X92962571Y-89539235D01*
X92938773Y-89545196D01*
X92914504Y-89548796D01*
X92890000Y-89550000D01*
X89990000Y-89550000D01*
X89965496Y-89548796D01*
X89941227Y-89545196D01*
X89917429Y-89539235D01*
X89894329Y-89530970D01*
X89872151Y-89520480D01*
X89851107Y-89507867D01*
X89831402Y-89493253D01*
X89813223Y-89476777D01*
X89796747Y-89458598D01*
X89782133Y-89438893D01*
X89769520Y-89417849D01*
X89759030Y-89395671D01*
X89750765Y-89372571D01*
X89744804Y-89348773D01*
X89741204Y-89324504D01*
X89740000Y-89300000D01*
X89740000Y-88500000D01*
X89741204Y-88475496D01*
X89744804Y-88451227D01*
X89750765Y-88427429D01*
X89759030Y-88404329D01*
X89769520Y-88382151D01*
X89782133Y-88361107D01*
X89796747Y-88341402D01*
X89813223Y-88323223D01*
X89831402Y-88306747D01*
X89851107Y-88292133D01*
X89872151Y-88279520D01*
X89894329Y-88269030D01*
X89917429Y-88260765D01*
X89941227Y-88254804D01*
X89965496Y-88251204D01*
X89990000Y-88250000D01*
X92890000Y-88250000D01*
X92914504Y-88251204D01*
G37*
G36*
X92914504Y-83801204D02*
G01*
X92938773Y-83804804D01*
X92962571Y-83810765D01*
X92985671Y-83819030D01*
X93007849Y-83829520D01*
X93028893Y-83842133D01*
X93048598Y-83856747D01*
X93066777Y-83873223D01*
X93083253Y-83891402D01*
X93097867Y-83911107D01*
X93110480Y-83932151D01*
X93120970Y-83954329D01*
X93129235Y-83977429D01*
X93135196Y-84001227D01*
X93138796Y-84025496D01*
X93140000Y-84050000D01*
X93140000Y-84850000D01*
X93138796Y-84874504D01*
X93135196Y-84898773D01*
X93129235Y-84922571D01*
X93120970Y-84945671D01*
X93110480Y-84967849D01*
X93097867Y-84988893D01*
X93083253Y-85008598D01*
X93066777Y-85026777D01*
X93048598Y-85043253D01*
X93028893Y-85057867D01*
X93007849Y-85070480D01*
X92985671Y-85080970D01*
X92962571Y-85089235D01*
X92938773Y-85095196D01*
X92914504Y-85098796D01*
X92890000Y-85100000D01*
X89990000Y-85100000D01*
X89965496Y-85098796D01*
X89941227Y-85095196D01*
X89917429Y-85089235D01*
X89894329Y-85080970D01*
X89872151Y-85070480D01*
X89851107Y-85057867D01*
X89831402Y-85043253D01*
X89813223Y-85026777D01*
X89796747Y-85008598D01*
X89782133Y-84988893D01*
X89769520Y-84967849D01*
X89759030Y-84945671D01*
X89750765Y-84922571D01*
X89744804Y-84898773D01*
X89741204Y-84874504D01*
X89740000Y-84850000D01*
X89740000Y-84050000D01*
X89741204Y-84025496D01*
X89744804Y-84001227D01*
X89750765Y-83977429D01*
X89759030Y-83954329D01*
X89769520Y-83932151D01*
X89782133Y-83911107D01*
X89796747Y-83891402D01*
X89813223Y-83873223D01*
X89831402Y-83856747D01*
X89851107Y-83842133D01*
X89872151Y-83829520D01*
X89894329Y-83819030D01*
X89917429Y-83810765D01*
X89941227Y-83804804D01*
X89965496Y-83801204D01*
X89990000Y-83800000D01*
X92890000Y-83800000D01*
X92914504Y-83801204D01*
G37*
D18*
X134700000Y-50800000D03*
X139700000Y-50800000D03*
X134700000Y-55880000D03*
X139700000Y-55880000D03*
D16*
G36*
X118274703Y-75355722D02*
G01*
X118289264Y-75357882D01*
X118303543Y-75361459D01*
X118317403Y-75366418D01*
X118330710Y-75372712D01*
X118343336Y-75380280D01*
X118355159Y-75389048D01*
X118366066Y-75398934D01*
X118375952Y-75409841D01*
X118384720Y-75421664D01*
X118392288Y-75434290D01*
X118398582Y-75447597D01*
X118403541Y-75461457D01*
X118407118Y-75475736D01*
X118409278Y-75490297D01*
X118410000Y-75505000D01*
X118410000Y-77155000D01*
X118409278Y-77169703D01*
X118407118Y-77184264D01*
X118403541Y-77198543D01*
X118398582Y-77212403D01*
X118392288Y-77225710D01*
X118384720Y-77238336D01*
X118375952Y-77250159D01*
X118366066Y-77261066D01*
X118355159Y-77270952D01*
X118343336Y-77279720D01*
X118330710Y-77287288D01*
X118317403Y-77293582D01*
X118303543Y-77298541D01*
X118289264Y-77302118D01*
X118274703Y-77304278D01*
X118260000Y-77305000D01*
X117960000Y-77305000D01*
X117945297Y-77304278D01*
X117930736Y-77302118D01*
X117916457Y-77298541D01*
X117902597Y-77293582D01*
X117889290Y-77287288D01*
X117876664Y-77279720D01*
X117864841Y-77270952D01*
X117853934Y-77261066D01*
X117844048Y-77250159D01*
X117835280Y-77238336D01*
X117827712Y-77225710D01*
X117821418Y-77212403D01*
X117816459Y-77198543D01*
X117812882Y-77184264D01*
X117810722Y-77169703D01*
X117810000Y-77155000D01*
X117810000Y-75505000D01*
X117810722Y-75490297D01*
X117812882Y-75475736D01*
X117816459Y-75461457D01*
X117821418Y-75447597D01*
X117827712Y-75434290D01*
X117835280Y-75421664D01*
X117844048Y-75409841D01*
X117853934Y-75398934D01*
X117864841Y-75389048D01*
X117876664Y-75380280D01*
X117889290Y-75372712D01*
X117902597Y-75366418D01*
X117916457Y-75361459D01*
X117930736Y-75357882D01*
X117945297Y-75355722D01*
X117960000Y-75355000D01*
X118260000Y-75355000D01*
X118274703Y-75355722D01*
G37*
G36*
X117004703Y-75355722D02*
G01*
X117019264Y-75357882D01*
X117033543Y-75361459D01*
X117047403Y-75366418D01*
X117060710Y-75372712D01*
X117073336Y-75380280D01*
X117085159Y-75389048D01*
X117096066Y-75398934D01*
X117105952Y-75409841D01*
X117114720Y-75421664D01*
X117122288Y-75434290D01*
X117128582Y-75447597D01*
X117133541Y-75461457D01*
X117137118Y-75475736D01*
X117139278Y-75490297D01*
X117140000Y-75505000D01*
X117140000Y-77155000D01*
X117139278Y-77169703D01*
X117137118Y-77184264D01*
X117133541Y-77198543D01*
X117128582Y-77212403D01*
X117122288Y-77225710D01*
X117114720Y-77238336D01*
X117105952Y-77250159D01*
X117096066Y-77261066D01*
X117085159Y-77270952D01*
X117073336Y-77279720D01*
X117060710Y-77287288D01*
X117047403Y-77293582D01*
X117033543Y-77298541D01*
X117019264Y-77302118D01*
X117004703Y-77304278D01*
X116990000Y-77305000D01*
X116690000Y-77305000D01*
X116675297Y-77304278D01*
X116660736Y-77302118D01*
X116646457Y-77298541D01*
X116632597Y-77293582D01*
X116619290Y-77287288D01*
X116606664Y-77279720D01*
X116594841Y-77270952D01*
X116583934Y-77261066D01*
X116574048Y-77250159D01*
X116565280Y-77238336D01*
X116557712Y-77225710D01*
X116551418Y-77212403D01*
X116546459Y-77198543D01*
X116542882Y-77184264D01*
X116540722Y-77169703D01*
X116540000Y-77155000D01*
X116540000Y-75505000D01*
X116540722Y-75490297D01*
X116542882Y-75475736D01*
X116546459Y-75461457D01*
X116551418Y-75447597D01*
X116557712Y-75434290D01*
X116565280Y-75421664D01*
X116574048Y-75409841D01*
X116583934Y-75398934D01*
X116594841Y-75389048D01*
X116606664Y-75380280D01*
X116619290Y-75372712D01*
X116632597Y-75366418D01*
X116646457Y-75361459D01*
X116660736Y-75357882D01*
X116675297Y-75355722D01*
X116690000Y-75355000D01*
X116990000Y-75355000D01*
X117004703Y-75355722D01*
G37*
G36*
X115734703Y-75355722D02*
G01*
X115749264Y-75357882D01*
X115763543Y-75361459D01*
X115777403Y-75366418D01*
X115790710Y-75372712D01*
X115803336Y-75380280D01*
X115815159Y-75389048D01*
X115826066Y-75398934D01*
X115835952Y-75409841D01*
X115844720Y-75421664D01*
X115852288Y-75434290D01*
X115858582Y-75447597D01*
X115863541Y-75461457D01*
X115867118Y-75475736D01*
X115869278Y-75490297D01*
X115870000Y-75505000D01*
X115870000Y-77155000D01*
X115869278Y-77169703D01*
X115867118Y-77184264D01*
X115863541Y-77198543D01*
X115858582Y-77212403D01*
X115852288Y-77225710D01*
X115844720Y-77238336D01*
X115835952Y-77250159D01*
X115826066Y-77261066D01*
X115815159Y-77270952D01*
X115803336Y-77279720D01*
X115790710Y-77287288D01*
X115777403Y-77293582D01*
X115763543Y-77298541D01*
X115749264Y-77302118D01*
X115734703Y-77304278D01*
X115720000Y-77305000D01*
X115420000Y-77305000D01*
X115405297Y-77304278D01*
X115390736Y-77302118D01*
X115376457Y-77298541D01*
X115362597Y-77293582D01*
X115349290Y-77287288D01*
X115336664Y-77279720D01*
X115324841Y-77270952D01*
X115313934Y-77261066D01*
X115304048Y-77250159D01*
X115295280Y-77238336D01*
X115287712Y-77225710D01*
X115281418Y-77212403D01*
X115276459Y-77198543D01*
X115272882Y-77184264D01*
X115270722Y-77169703D01*
X115270000Y-77155000D01*
X115270000Y-75505000D01*
X115270722Y-75490297D01*
X115272882Y-75475736D01*
X115276459Y-75461457D01*
X115281418Y-75447597D01*
X115287712Y-75434290D01*
X115295280Y-75421664D01*
X115304048Y-75409841D01*
X115313934Y-75398934D01*
X115324841Y-75389048D01*
X115336664Y-75380280D01*
X115349290Y-75372712D01*
X115362597Y-75366418D01*
X115376457Y-75361459D01*
X115390736Y-75357882D01*
X115405297Y-75355722D01*
X115420000Y-75355000D01*
X115720000Y-75355000D01*
X115734703Y-75355722D01*
G37*
G36*
X114464703Y-75355722D02*
G01*
X114479264Y-75357882D01*
X114493543Y-75361459D01*
X114507403Y-75366418D01*
X114520710Y-75372712D01*
X114533336Y-75380280D01*
X114545159Y-75389048D01*
X114556066Y-75398934D01*
X114565952Y-75409841D01*
X114574720Y-75421664D01*
X114582288Y-75434290D01*
X114588582Y-75447597D01*
X114593541Y-75461457D01*
X114597118Y-75475736D01*
X114599278Y-75490297D01*
X114600000Y-75505000D01*
X114600000Y-77155000D01*
X114599278Y-77169703D01*
X114597118Y-77184264D01*
X114593541Y-77198543D01*
X114588582Y-77212403D01*
X114582288Y-77225710D01*
X114574720Y-77238336D01*
X114565952Y-77250159D01*
X114556066Y-77261066D01*
X114545159Y-77270952D01*
X114533336Y-77279720D01*
X114520710Y-77287288D01*
X114507403Y-77293582D01*
X114493543Y-77298541D01*
X114479264Y-77302118D01*
X114464703Y-77304278D01*
X114450000Y-77305000D01*
X114150000Y-77305000D01*
X114135297Y-77304278D01*
X114120736Y-77302118D01*
X114106457Y-77298541D01*
X114092597Y-77293582D01*
X114079290Y-77287288D01*
X114066664Y-77279720D01*
X114054841Y-77270952D01*
X114043934Y-77261066D01*
X114034048Y-77250159D01*
X114025280Y-77238336D01*
X114017712Y-77225710D01*
X114011418Y-77212403D01*
X114006459Y-77198543D01*
X114002882Y-77184264D01*
X114000722Y-77169703D01*
X114000000Y-77155000D01*
X114000000Y-75505000D01*
X114000722Y-75490297D01*
X114002882Y-75475736D01*
X114006459Y-75461457D01*
X114011418Y-75447597D01*
X114017712Y-75434290D01*
X114025280Y-75421664D01*
X114034048Y-75409841D01*
X114043934Y-75398934D01*
X114054841Y-75389048D01*
X114066664Y-75380280D01*
X114079290Y-75372712D01*
X114092597Y-75366418D01*
X114106457Y-75361459D01*
X114120736Y-75357882D01*
X114135297Y-75355722D01*
X114150000Y-75355000D01*
X114450000Y-75355000D01*
X114464703Y-75355722D01*
G37*
G36*
X113194703Y-75355722D02*
G01*
X113209264Y-75357882D01*
X113223543Y-75361459D01*
X113237403Y-75366418D01*
X113250710Y-75372712D01*
X113263336Y-75380280D01*
X113275159Y-75389048D01*
X113286066Y-75398934D01*
X113295952Y-75409841D01*
X113304720Y-75421664D01*
X113312288Y-75434290D01*
X113318582Y-75447597D01*
X113323541Y-75461457D01*
X113327118Y-75475736D01*
X113329278Y-75490297D01*
X113330000Y-75505000D01*
X113330000Y-77155000D01*
X113329278Y-77169703D01*
X113327118Y-77184264D01*
X113323541Y-77198543D01*
X113318582Y-77212403D01*
X113312288Y-77225710D01*
X113304720Y-77238336D01*
X113295952Y-77250159D01*
X113286066Y-77261066D01*
X113275159Y-77270952D01*
X113263336Y-77279720D01*
X113250710Y-77287288D01*
X113237403Y-77293582D01*
X113223543Y-77298541D01*
X113209264Y-77302118D01*
X113194703Y-77304278D01*
X113180000Y-77305000D01*
X112880000Y-77305000D01*
X112865297Y-77304278D01*
X112850736Y-77302118D01*
X112836457Y-77298541D01*
X112822597Y-77293582D01*
X112809290Y-77287288D01*
X112796664Y-77279720D01*
X112784841Y-77270952D01*
X112773934Y-77261066D01*
X112764048Y-77250159D01*
X112755280Y-77238336D01*
X112747712Y-77225710D01*
X112741418Y-77212403D01*
X112736459Y-77198543D01*
X112732882Y-77184264D01*
X112730722Y-77169703D01*
X112730000Y-77155000D01*
X112730000Y-75505000D01*
X112730722Y-75490297D01*
X112732882Y-75475736D01*
X112736459Y-75461457D01*
X112741418Y-75447597D01*
X112747712Y-75434290D01*
X112755280Y-75421664D01*
X112764048Y-75409841D01*
X112773934Y-75398934D01*
X112784841Y-75389048D01*
X112796664Y-75380280D01*
X112809290Y-75372712D01*
X112822597Y-75366418D01*
X112836457Y-75361459D01*
X112850736Y-75357882D01*
X112865297Y-75355722D01*
X112880000Y-75355000D01*
X113180000Y-75355000D01*
X113194703Y-75355722D01*
G37*
G36*
X111924703Y-75355722D02*
G01*
X111939264Y-75357882D01*
X111953543Y-75361459D01*
X111967403Y-75366418D01*
X111980710Y-75372712D01*
X111993336Y-75380280D01*
X112005159Y-75389048D01*
X112016066Y-75398934D01*
X112025952Y-75409841D01*
X112034720Y-75421664D01*
X112042288Y-75434290D01*
X112048582Y-75447597D01*
X112053541Y-75461457D01*
X112057118Y-75475736D01*
X112059278Y-75490297D01*
X112060000Y-75505000D01*
X112060000Y-77155000D01*
X112059278Y-77169703D01*
X112057118Y-77184264D01*
X112053541Y-77198543D01*
X112048582Y-77212403D01*
X112042288Y-77225710D01*
X112034720Y-77238336D01*
X112025952Y-77250159D01*
X112016066Y-77261066D01*
X112005159Y-77270952D01*
X111993336Y-77279720D01*
X111980710Y-77287288D01*
X111967403Y-77293582D01*
X111953543Y-77298541D01*
X111939264Y-77302118D01*
X111924703Y-77304278D01*
X111910000Y-77305000D01*
X111610000Y-77305000D01*
X111595297Y-77304278D01*
X111580736Y-77302118D01*
X111566457Y-77298541D01*
X111552597Y-77293582D01*
X111539290Y-77287288D01*
X111526664Y-77279720D01*
X111514841Y-77270952D01*
X111503934Y-77261066D01*
X111494048Y-77250159D01*
X111485280Y-77238336D01*
X111477712Y-77225710D01*
X111471418Y-77212403D01*
X111466459Y-77198543D01*
X111462882Y-77184264D01*
X111460722Y-77169703D01*
X111460000Y-77155000D01*
X111460000Y-75505000D01*
X111460722Y-75490297D01*
X111462882Y-75475736D01*
X111466459Y-75461457D01*
X111471418Y-75447597D01*
X111477712Y-75434290D01*
X111485280Y-75421664D01*
X111494048Y-75409841D01*
X111503934Y-75398934D01*
X111514841Y-75389048D01*
X111526664Y-75380280D01*
X111539290Y-75372712D01*
X111552597Y-75366418D01*
X111566457Y-75361459D01*
X111580736Y-75357882D01*
X111595297Y-75355722D01*
X111610000Y-75355000D01*
X111910000Y-75355000D01*
X111924703Y-75355722D01*
G37*
G36*
X110654703Y-75355722D02*
G01*
X110669264Y-75357882D01*
X110683543Y-75361459D01*
X110697403Y-75366418D01*
X110710710Y-75372712D01*
X110723336Y-75380280D01*
X110735159Y-75389048D01*
X110746066Y-75398934D01*
X110755952Y-75409841D01*
X110764720Y-75421664D01*
X110772288Y-75434290D01*
X110778582Y-75447597D01*
X110783541Y-75461457D01*
X110787118Y-75475736D01*
X110789278Y-75490297D01*
X110790000Y-75505000D01*
X110790000Y-77155000D01*
X110789278Y-77169703D01*
X110787118Y-77184264D01*
X110783541Y-77198543D01*
X110778582Y-77212403D01*
X110772288Y-77225710D01*
X110764720Y-77238336D01*
X110755952Y-77250159D01*
X110746066Y-77261066D01*
X110735159Y-77270952D01*
X110723336Y-77279720D01*
X110710710Y-77287288D01*
X110697403Y-77293582D01*
X110683543Y-77298541D01*
X110669264Y-77302118D01*
X110654703Y-77304278D01*
X110640000Y-77305000D01*
X110340000Y-77305000D01*
X110325297Y-77304278D01*
X110310736Y-77302118D01*
X110296457Y-77298541D01*
X110282597Y-77293582D01*
X110269290Y-77287288D01*
X110256664Y-77279720D01*
X110244841Y-77270952D01*
X110233934Y-77261066D01*
X110224048Y-77250159D01*
X110215280Y-77238336D01*
X110207712Y-77225710D01*
X110201418Y-77212403D01*
X110196459Y-77198543D01*
X110192882Y-77184264D01*
X110190722Y-77169703D01*
X110190000Y-77155000D01*
X110190000Y-75505000D01*
X110190722Y-75490297D01*
X110192882Y-75475736D01*
X110196459Y-75461457D01*
X110201418Y-75447597D01*
X110207712Y-75434290D01*
X110215280Y-75421664D01*
X110224048Y-75409841D01*
X110233934Y-75398934D01*
X110244841Y-75389048D01*
X110256664Y-75380280D01*
X110269290Y-75372712D01*
X110282597Y-75366418D01*
X110296457Y-75361459D01*
X110310736Y-75357882D01*
X110325297Y-75355722D01*
X110340000Y-75355000D01*
X110640000Y-75355000D01*
X110654703Y-75355722D01*
G37*
G36*
X109384703Y-75355722D02*
G01*
X109399264Y-75357882D01*
X109413543Y-75361459D01*
X109427403Y-75366418D01*
X109440710Y-75372712D01*
X109453336Y-75380280D01*
X109465159Y-75389048D01*
X109476066Y-75398934D01*
X109485952Y-75409841D01*
X109494720Y-75421664D01*
X109502288Y-75434290D01*
X109508582Y-75447597D01*
X109513541Y-75461457D01*
X109517118Y-75475736D01*
X109519278Y-75490297D01*
X109520000Y-75505000D01*
X109520000Y-77155000D01*
X109519278Y-77169703D01*
X109517118Y-77184264D01*
X109513541Y-77198543D01*
X109508582Y-77212403D01*
X109502288Y-77225710D01*
X109494720Y-77238336D01*
X109485952Y-77250159D01*
X109476066Y-77261066D01*
X109465159Y-77270952D01*
X109453336Y-77279720D01*
X109440710Y-77287288D01*
X109427403Y-77293582D01*
X109413543Y-77298541D01*
X109399264Y-77302118D01*
X109384703Y-77304278D01*
X109370000Y-77305000D01*
X109070000Y-77305000D01*
X109055297Y-77304278D01*
X109040736Y-77302118D01*
X109026457Y-77298541D01*
X109012597Y-77293582D01*
X108999290Y-77287288D01*
X108986664Y-77279720D01*
X108974841Y-77270952D01*
X108963934Y-77261066D01*
X108954048Y-77250159D01*
X108945280Y-77238336D01*
X108937712Y-77225710D01*
X108931418Y-77212403D01*
X108926459Y-77198543D01*
X108922882Y-77184264D01*
X108920722Y-77169703D01*
X108920000Y-77155000D01*
X108920000Y-75505000D01*
X108920722Y-75490297D01*
X108922882Y-75475736D01*
X108926459Y-75461457D01*
X108931418Y-75447597D01*
X108937712Y-75434290D01*
X108945280Y-75421664D01*
X108954048Y-75409841D01*
X108963934Y-75398934D01*
X108974841Y-75389048D01*
X108986664Y-75380280D01*
X108999290Y-75372712D01*
X109012597Y-75366418D01*
X109026457Y-75361459D01*
X109040736Y-75357882D01*
X109055297Y-75355722D01*
X109070000Y-75355000D01*
X109370000Y-75355000D01*
X109384703Y-75355722D01*
G37*
G36*
X109384703Y-80305722D02*
G01*
X109399264Y-80307882D01*
X109413543Y-80311459D01*
X109427403Y-80316418D01*
X109440710Y-80322712D01*
X109453336Y-80330280D01*
X109465159Y-80339048D01*
X109476066Y-80348934D01*
X109485952Y-80359841D01*
X109494720Y-80371664D01*
X109502288Y-80384290D01*
X109508582Y-80397597D01*
X109513541Y-80411457D01*
X109517118Y-80425736D01*
X109519278Y-80440297D01*
X109520000Y-80455000D01*
X109520000Y-82105000D01*
X109519278Y-82119703D01*
X109517118Y-82134264D01*
X109513541Y-82148543D01*
X109508582Y-82162403D01*
X109502288Y-82175710D01*
X109494720Y-82188336D01*
X109485952Y-82200159D01*
X109476066Y-82211066D01*
X109465159Y-82220952D01*
X109453336Y-82229720D01*
X109440710Y-82237288D01*
X109427403Y-82243582D01*
X109413543Y-82248541D01*
X109399264Y-82252118D01*
X109384703Y-82254278D01*
X109370000Y-82255000D01*
X109070000Y-82255000D01*
X109055297Y-82254278D01*
X109040736Y-82252118D01*
X109026457Y-82248541D01*
X109012597Y-82243582D01*
X108999290Y-82237288D01*
X108986664Y-82229720D01*
X108974841Y-82220952D01*
X108963934Y-82211066D01*
X108954048Y-82200159D01*
X108945280Y-82188336D01*
X108937712Y-82175710D01*
X108931418Y-82162403D01*
X108926459Y-82148543D01*
X108922882Y-82134264D01*
X108920722Y-82119703D01*
X108920000Y-82105000D01*
X108920000Y-80455000D01*
X108920722Y-80440297D01*
X108922882Y-80425736D01*
X108926459Y-80411457D01*
X108931418Y-80397597D01*
X108937712Y-80384290D01*
X108945280Y-80371664D01*
X108954048Y-80359841D01*
X108963934Y-80348934D01*
X108974841Y-80339048D01*
X108986664Y-80330280D01*
X108999290Y-80322712D01*
X109012597Y-80316418D01*
X109026457Y-80311459D01*
X109040736Y-80307882D01*
X109055297Y-80305722D01*
X109070000Y-80305000D01*
X109370000Y-80305000D01*
X109384703Y-80305722D01*
G37*
G36*
X110654703Y-80305722D02*
G01*
X110669264Y-80307882D01*
X110683543Y-80311459D01*
X110697403Y-80316418D01*
X110710710Y-80322712D01*
X110723336Y-80330280D01*
X110735159Y-80339048D01*
X110746066Y-80348934D01*
X110755952Y-80359841D01*
X110764720Y-80371664D01*
X110772288Y-80384290D01*
X110778582Y-80397597D01*
X110783541Y-80411457D01*
X110787118Y-80425736D01*
X110789278Y-80440297D01*
X110790000Y-80455000D01*
X110790000Y-82105000D01*
X110789278Y-82119703D01*
X110787118Y-82134264D01*
X110783541Y-82148543D01*
X110778582Y-82162403D01*
X110772288Y-82175710D01*
X110764720Y-82188336D01*
X110755952Y-82200159D01*
X110746066Y-82211066D01*
X110735159Y-82220952D01*
X110723336Y-82229720D01*
X110710710Y-82237288D01*
X110697403Y-82243582D01*
X110683543Y-82248541D01*
X110669264Y-82252118D01*
X110654703Y-82254278D01*
X110640000Y-82255000D01*
X110340000Y-82255000D01*
X110325297Y-82254278D01*
X110310736Y-82252118D01*
X110296457Y-82248541D01*
X110282597Y-82243582D01*
X110269290Y-82237288D01*
X110256664Y-82229720D01*
X110244841Y-82220952D01*
X110233934Y-82211066D01*
X110224048Y-82200159D01*
X110215280Y-82188336D01*
X110207712Y-82175710D01*
X110201418Y-82162403D01*
X110196459Y-82148543D01*
X110192882Y-82134264D01*
X110190722Y-82119703D01*
X110190000Y-82105000D01*
X110190000Y-80455000D01*
X110190722Y-80440297D01*
X110192882Y-80425736D01*
X110196459Y-80411457D01*
X110201418Y-80397597D01*
X110207712Y-80384290D01*
X110215280Y-80371664D01*
X110224048Y-80359841D01*
X110233934Y-80348934D01*
X110244841Y-80339048D01*
X110256664Y-80330280D01*
X110269290Y-80322712D01*
X110282597Y-80316418D01*
X110296457Y-80311459D01*
X110310736Y-80307882D01*
X110325297Y-80305722D01*
X110340000Y-80305000D01*
X110640000Y-80305000D01*
X110654703Y-80305722D01*
G37*
G36*
X111924703Y-80305722D02*
G01*
X111939264Y-80307882D01*
X111953543Y-80311459D01*
X111967403Y-80316418D01*
X111980710Y-80322712D01*
X111993336Y-80330280D01*
X112005159Y-80339048D01*
X112016066Y-80348934D01*
X112025952Y-80359841D01*
X112034720Y-80371664D01*
X112042288Y-80384290D01*
X112048582Y-80397597D01*
X112053541Y-80411457D01*
X112057118Y-80425736D01*
X112059278Y-80440297D01*
X112060000Y-80455000D01*
X112060000Y-82105000D01*
X112059278Y-82119703D01*
X112057118Y-82134264D01*
X112053541Y-82148543D01*
X112048582Y-82162403D01*
X112042288Y-82175710D01*
X112034720Y-82188336D01*
X112025952Y-82200159D01*
X112016066Y-82211066D01*
X112005159Y-82220952D01*
X111993336Y-82229720D01*
X111980710Y-82237288D01*
X111967403Y-82243582D01*
X111953543Y-82248541D01*
X111939264Y-82252118D01*
X111924703Y-82254278D01*
X111910000Y-82255000D01*
X111610000Y-82255000D01*
X111595297Y-82254278D01*
X111580736Y-82252118D01*
X111566457Y-82248541D01*
X111552597Y-82243582D01*
X111539290Y-82237288D01*
X111526664Y-82229720D01*
X111514841Y-82220952D01*
X111503934Y-82211066D01*
X111494048Y-82200159D01*
X111485280Y-82188336D01*
X111477712Y-82175710D01*
X111471418Y-82162403D01*
X111466459Y-82148543D01*
X111462882Y-82134264D01*
X111460722Y-82119703D01*
X111460000Y-82105000D01*
X111460000Y-80455000D01*
X111460722Y-80440297D01*
X111462882Y-80425736D01*
X111466459Y-80411457D01*
X111471418Y-80397597D01*
X111477712Y-80384290D01*
X111485280Y-80371664D01*
X111494048Y-80359841D01*
X111503934Y-80348934D01*
X111514841Y-80339048D01*
X111526664Y-80330280D01*
X111539290Y-80322712D01*
X111552597Y-80316418D01*
X111566457Y-80311459D01*
X111580736Y-80307882D01*
X111595297Y-80305722D01*
X111610000Y-80305000D01*
X111910000Y-80305000D01*
X111924703Y-80305722D01*
G37*
G36*
X113194703Y-80305722D02*
G01*
X113209264Y-80307882D01*
X113223543Y-80311459D01*
X113237403Y-80316418D01*
X113250710Y-80322712D01*
X113263336Y-80330280D01*
X113275159Y-80339048D01*
X113286066Y-80348934D01*
X113295952Y-80359841D01*
X113304720Y-80371664D01*
X113312288Y-80384290D01*
X113318582Y-80397597D01*
X113323541Y-80411457D01*
X113327118Y-80425736D01*
X113329278Y-80440297D01*
X113330000Y-80455000D01*
X113330000Y-82105000D01*
X113329278Y-82119703D01*
X113327118Y-82134264D01*
X113323541Y-82148543D01*
X113318582Y-82162403D01*
X113312288Y-82175710D01*
X113304720Y-82188336D01*
X113295952Y-82200159D01*
X113286066Y-82211066D01*
X113275159Y-82220952D01*
X113263336Y-82229720D01*
X113250710Y-82237288D01*
X113237403Y-82243582D01*
X113223543Y-82248541D01*
X113209264Y-82252118D01*
X113194703Y-82254278D01*
X113180000Y-82255000D01*
X112880000Y-82255000D01*
X112865297Y-82254278D01*
X112850736Y-82252118D01*
X112836457Y-82248541D01*
X112822597Y-82243582D01*
X112809290Y-82237288D01*
X112796664Y-82229720D01*
X112784841Y-82220952D01*
X112773934Y-82211066D01*
X112764048Y-82200159D01*
X112755280Y-82188336D01*
X112747712Y-82175710D01*
X112741418Y-82162403D01*
X112736459Y-82148543D01*
X112732882Y-82134264D01*
X112730722Y-82119703D01*
X112730000Y-82105000D01*
X112730000Y-80455000D01*
X112730722Y-80440297D01*
X112732882Y-80425736D01*
X112736459Y-80411457D01*
X112741418Y-80397597D01*
X112747712Y-80384290D01*
X112755280Y-80371664D01*
X112764048Y-80359841D01*
X112773934Y-80348934D01*
X112784841Y-80339048D01*
X112796664Y-80330280D01*
X112809290Y-80322712D01*
X112822597Y-80316418D01*
X112836457Y-80311459D01*
X112850736Y-80307882D01*
X112865297Y-80305722D01*
X112880000Y-80305000D01*
X113180000Y-80305000D01*
X113194703Y-80305722D01*
G37*
G36*
X114464703Y-80305722D02*
G01*
X114479264Y-80307882D01*
X114493543Y-80311459D01*
X114507403Y-80316418D01*
X114520710Y-80322712D01*
X114533336Y-80330280D01*
X114545159Y-80339048D01*
X114556066Y-80348934D01*
X114565952Y-80359841D01*
X114574720Y-80371664D01*
X114582288Y-80384290D01*
X114588582Y-80397597D01*
X114593541Y-80411457D01*
X114597118Y-80425736D01*
X114599278Y-80440297D01*
X114600000Y-80455000D01*
X114600000Y-82105000D01*
X114599278Y-82119703D01*
X114597118Y-82134264D01*
X114593541Y-82148543D01*
X114588582Y-82162403D01*
X114582288Y-82175710D01*
X114574720Y-82188336D01*
X114565952Y-82200159D01*
X114556066Y-82211066D01*
X114545159Y-82220952D01*
X114533336Y-82229720D01*
X114520710Y-82237288D01*
X114507403Y-82243582D01*
X114493543Y-82248541D01*
X114479264Y-82252118D01*
X114464703Y-82254278D01*
X114450000Y-82255000D01*
X114150000Y-82255000D01*
X114135297Y-82254278D01*
X114120736Y-82252118D01*
X114106457Y-82248541D01*
X114092597Y-82243582D01*
X114079290Y-82237288D01*
X114066664Y-82229720D01*
X114054841Y-82220952D01*
X114043934Y-82211066D01*
X114034048Y-82200159D01*
X114025280Y-82188336D01*
X114017712Y-82175710D01*
X114011418Y-82162403D01*
X114006459Y-82148543D01*
X114002882Y-82134264D01*
X114000722Y-82119703D01*
X114000000Y-82105000D01*
X114000000Y-80455000D01*
X114000722Y-80440297D01*
X114002882Y-80425736D01*
X114006459Y-80411457D01*
X114011418Y-80397597D01*
X114017712Y-80384290D01*
X114025280Y-80371664D01*
X114034048Y-80359841D01*
X114043934Y-80348934D01*
X114054841Y-80339048D01*
X114066664Y-80330280D01*
X114079290Y-80322712D01*
X114092597Y-80316418D01*
X114106457Y-80311459D01*
X114120736Y-80307882D01*
X114135297Y-80305722D01*
X114150000Y-80305000D01*
X114450000Y-80305000D01*
X114464703Y-80305722D01*
G37*
G36*
X115734703Y-80305722D02*
G01*
X115749264Y-80307882D01*
X115763543Y-80311459D01*
X115777403Y-80316418D01*
X115790710Y-80322712D01*
X115803336Y-80330280D01*
X115815159Y-80339048D01*
X115826066Y-80348934D01*
X115835952Y-80359841D01*
X115844720Y-80371664D01*
X115852288Y-80384290D01*
X115858582Y-80397597D01*
X115863541Y-80411457D01*
X115867118Y-80425736D01*
X115869278Y-80440297D01*
X115870000Y-80455000D01*
X115870000Y-82105000D01*
X115869278Y-82119703D01*
X115867118Y-82134264D01*
X115863541Y-82148543D01*
X115858582Y-82162403D01*
X115852288Y-82175710D01*
X115844720Y-82188336D01*
X115835952Y-82200159D01*
X115826066Y-82211066D01*
X115815159Y-82220952D01*
X115803336Y-82229720D01*
X115790710Y-82237288D01*
X115777403Y-82243582D01*
X115763543Y-82248541D01*
X115749264Y-82252118D01*
X115734703Y-82254278D01*
X115720000Y-82255000D01*
X115420000Y-82255000D01*
X115405297Y-82254278D01*
X115390736Y-82252118D01*
X115376457Y-82248541D01*
X115362597Y-82243582D01*
X115349290Y-82237288D01*
X115336664Y-82229720D01*
X115324841Y-82220952D01*
X115313934Y-82211066D01*
X115304048Y-82200159D01*
X115295280Y-82188336D01*
X115287712Y-82175710D01*
X115281418Y-82162403D01*
X115276459Y-82148543D01*
X115272882Y-82134264D01*
X115270722Y-82119703D01*
X115270000Y-82105000D01*
X115270000Y-80455000D01*
X115270722Y-80440297D01*
X115272882Y-80425736D01*
X115276459Y-80411457D01*
X115281418Y-80397597D01*
X115287712Y-80384290D01*
X115295280Y-80371664D01*
X115304048Y-80359841D01*
X115313934Y-80348934D01*
X115324841Y-80339048D01*
X115336664Y-80330280D01*
X115349290Y-80322712D01*
X115362597Y-80316418D01*
X115376457Y-80311459D01*
X115390736Y-80307882D01*
X115405297Y-80305722D01*
X115420000Y-80305000D01*
X115720000Y-80305000D01*
X115734703Y-80305722D01*
G37*
G36*
X117004703Y-80305722D02*
G01*
X117019264Y-80307882D01*
X117033543Y-80311459D01*
X117047403Y-80316418D01*
X117060710Y-80322712D01*
X117073336Y-80330280D01*
X117085159Y-80339048D01*
X117096066Y-80348934D01*
X117105952Y-80359841D01*
X117114720Y-80371664D01*
X117122288Y-80384290D01*
X117128582Y-80397597D01*
X117133541Y-80411457D01*
X117137118Y-80425736D01*
X117139278Y-80440297D01*
X117140000Y-80455000D01*
X117140000Y-82105000D01*
X117139278Y-82119703D01*
X117137118Y-82134264D01*
X117133541Y-82148543D01*
X117128582Y-82162403D01*
X117122288Y-82175710D01*
X117114720Y-82188336D01*
X117105952Y-82200159D01*
X117096066Y-82211066D01*
X117085159Y-82220952D01*
X117073336Y-82229720D01*
X117060710Y-82237288D01*
X117047403Y-82243582D01*
X117033543Y-82248541D01*
X117019264Y-82252118D01*
X117004703Y-82254278D01*
X116990000Y-82255000D01*
X116690000Y-82255000D01*
X116675297Y-82254278D01*
X116660736Y-82252118D01*
X116646457Y-82248541D01*
X116632597Y-82243582D01*
X116619290Y-82237288D01*
X116606664Y-82229720D01*
X116594841Y-82220952D01*
X116583934Y-82211066D01*
X116574048Y-82200159D01*
X116565280Y-82188336D01*
X116557712Y-82175710D01*
X116551418Y-82162403D01*
X116546459Y-82148543D01*
X116542882Y-82134264D01*
X116540722Y-82119703D01*
X116540000Y-82105000D01*
X116540000Y-80455000D01*
X116540722Y-80440297D01*
X116542882Y-80425736D01*
X116546459Y-80411457D01*
X116551418Y-80397597D01*
X116557712Y-80384290D01*
X116565280Y-80371664D01*
X116574048Y-80359841D01*
X116583934Y-80348934D01*
X116594841Y-80339048D01*
X116606664Y-80330280D01*
X116619290Y-80322712D01*
X116632597Y-80316418D01*
X116646457Y-80311459D01*
X116660736Y-80307882D01*
X116675297Y-80305722D01*
X116690000Y-80305000D01*
X116990000Y-80305000D01*
X117004703Y-80305722D01*
G37*
G36*
X118274703Y-80305722D02*
G01*
X118289264Y-80307882D01*
X118303543Y-80311459D01*
X118317403Y-80316418D01*
X118330710Y-80322712D01*
X118343336Y-80330280D01*
X118355159Y-80339048D01*
X118366066Y-80348934D01*
X118375952Y-80359841D01*
X118384720Y-80371664D01*
X118392288Y-80384290D01*
X118398582Y-80397597D01*
X118403541Y-80411457D01*
X118407118Y-80425736D01*
X118409278Y-80440297D01*
X118410000Y-80455000D01*
X118410000Y-82105000D01*
X118409278Y-82119703D01*
X118407118Y-82134264D01*
X118403541Y-82148543D01*
X118398582Y-82162403D01*
X118392288Y-82175710D01*
X118384720Y-82188336D01*
X118375952Y-82200159D01*
X118366066Y-82211066D01*
X118355159Y-82220952D01*
X118343336Y-82229720D01*
X118330710Y-82237288D01*
X118317403Y-82243582D01*
X118303543Y-82248541D01*
X118289264Y-82252118D01*
X118274703Y-82254278D01*
X118260000Y-82255000D01*
X117960000Y-82255000D01*
X117945297Y-82254278D01*
X117930736Y-82252118D01*
X117916457Y-82248541D01*
X117902597Y-82243582D01*
X117889290Y-82237288D01*
X117876664Y-82229720D01*
X117864841Y-82220952D01*
X117853934Y-82211066D01*
X117844048Y-82200159D01*
X117835280Y-82188336D01*
X117827712Y-82175710D01*
X117821418Y-82162403D01*
X117816459Y-82148543D01*
X117812882Y-82134264D01*
X117810722Y-82119703D01*
X117810000Y-82105000D01*
X117810000Y-80455000D01*
X117810722Y-80440297D01*
X117812882Y-80425736D01*
X117816459Y-80411457D01*
X117821418Y-80397597D01*
X117827712Y-80384290D01*
X117835280Y-80371664D01*
X117844048Y-80359841D01*
X117853934Y-80348934D01*
X117864841Y-80339048D01*
X117876664Y-80330280D01*
X117889290Y-80322712D01*
X117902597Y-80316418D01*
X117916457Y-80311459D01*
X117930736Y-80307882D01*
X117945297Y-80305722D01*
X117960000Y-80305000D01*
X118260000Y-80305000D01*
X118274703Y-80305722D01*
G37*
D19*
X158496000Y-68834000D03*
X158496000Y-64834000D03*
D16*
G36*
X146791004Y-67706204D02*
G01*
X146815273Y-67709804D01*
X146839071Y-67715765D01*
X146862171Y-67724030D01*
X146884349Y-67734520D01*
X146905393Y-67747133D01*
X146925098Y-67761747D01*
X146943277Y-67778223D01*
X146959753Y-67796402D01*
X146974367Y-67816107D01*
X146986980Y-67837151D01*
X146997470Y-67859329D01*
X147005735Y-67882429D01*
X147011696Y-67906227D01*
X147015296Y-67930496D01*
X147016500Y-67955000D01*
X147016500Y-69205000D01*
X147015296Y-69229504D01*
X147011696Y-69253773D01*
X147005735Y-69277571D01*
X146997470Y-69300671D01*
X146986980Y-69322849D01*
X146974367Y-69343893D01*
X146959753Y-69363598D01*
X146943277Y-69381777D01*
X146925098Y-69398253D01*
X146905393Y-69412867D01*
X146884349Y-69425480D01*
X146862171Y-69435970D01*
X146839071Y-69444235D01*
X146815273Y-69450196D01*
X146791004Y-69453796D01*
X146766500Y-69455000D01*
X145841500Y-69455000D01*
X145816996Y-69453796D01*
X145792727Y-69450196D01*
X145768929Y-69444235D01*
X145745829Y-69435970D01*
X145723651Y-69425480D01*
X145702607Y-69412867D01*
X145682902Y-69398253D01*
X145664723Y-69381777D01*
X145648247Y-69363598D01*
X145633633Y-69343893D01*
X145621020Y-69322849D01*
X145610530Y-69300671D01*
X145602265Y-69277571D01*
X145596304Y-69253773D01*
X145592704Y-69229504D01*
X145591500Y-69205000D01*
X145591500Y-67955000D01*
X145592704Y-67930496D01*
X145596304Y-67906227D01*
X145602265Y-67882429D01*
X145610530Y-67859329D01*
X145621020Y-67837151D01*
X145633633Y-67816107D01*
X145648247Y-67796402D01*
X145664723Y-67778223D01*
X145682902Y-67761747D01*
X145702607Y-67747133D01*
X145723651Y-67734520D01*
X145745829Y-67724030D01*
X145768929Y-67715765D01*
X145792727Y-67709804D01*
X145816996Y-67706204D01*
X145841500Y-67705000D01*
X146766500Y-67705000D01*
X146791004Y-67706204D01*
G37*
G36*
X143816004Y-67706204D02*
G01*
X143840273Y-67709804D01*
X143864071Y-67715765D01*
X143887171Y-67724030D01*
X143909349Y-67734520D01*
X143930393Y-67747133D01*
X143950098Y-67761747D01*
X143968277Y-67778223D01*
X143984753Y-67796402D01*
X143999367Y-67816107D01*
X144011980Y-67837151D01*
X144022470Y-67859329D01*
X144030735Y-67882429D01*
X144036696Y-67906227D01*
X144040296Y-67930496D01*
X144041500Y-67955000D01*
X144041500Y-69205000D01*
X144040296Y-69229504D01*
X144036696Y-69253773D01*
X144030735Y-69277571D01*
X144022470Y-69300671D01*
X144011980Y-69322849D01*
X143999367Y-69343893D01*
X143984753Y-69363598D01*
X143968277Y-69381777D01*
X143950098Y-69398253D01*
X143930393Y-69412867D01*
X143909349Y-69425480D01*
X143887171Y-69435970D01*
X143864071Y-69444235D01*
X143840273Y-69450196D01*
X143816004Y-69453796D01*
X143791500Y-69455000D01*
X142866500Y-69455000D01*
X142841996Y-69453796D01*
X142817727Y-69450196D01*
X142793929Y-69444235D01*
X142770829Y-69435970D01*
X142748651Y-69425480D01*
X142727607Y-69412867D01*
X142707902Y-69398253D01*
X142689723Y-69381777D01*
X142673247Y-69363598D01*
X142658633Y-69343893D01*
X142646020Y-69322849D01*
X142635530Y-69300671D01*
X142627265Y-69277571D01*
X142621304Y-69253773D01*
X142617704Y-69229504D01*
X142616500Y-69205000D01*
X142616500Y-67955000D01*
X142617704Y-67930496D01*
X142621304Y-67906227D01*
X142627265Y-67882429D01*
X142635530Y-67859329D01*
X142646020Y-67837151D01*
X142658633Y-67816107D01*
X142673247Y-67796402D01*
X142689723Y-67778223D01*
X142707902Y-67761747D01*
X142727607Y-67747133D01*
X142748651Y-67734520D01*
X142770829Y-67724030D01*
X142793929Y-67715765D01*
X142817727Y-67709804D01*
X142841996Y-67706204D01*
X142866500Y-67705000D01*
X143791500Y-67705000D01*
X143816004Y-67706204D01*
G37*
D19*
X158496000Y-56134000D03*
X158496000Y-60134000D03*
D16*
G36*
X174042004Y-61356204D02*
G01*
X174066273Y-61359804D01*
X174090071Y-61365765D01*
X174113171Y-61374030D01*
X174135349Y-61384520D01*
X174156393Y-61397133D01*
X174176098Y-61411747D01*
X174194277Y-61428223D01*
X174210753Y-61446402D01*
X174225367Y-61466107D01*
X174237980Y-61487151D01*
X174248470Y-61509329D01*
X174256735Y-61532429D01*
X174262696Y-61556227D01*
X174266296Y-61580496D01*
X174267500Y-61605000D01*
X174267500Y-62855000D01*
X174266296Y-62879504D01*
X174262696Y-62903773D01*
X174256735Y-62927571D01*
X174248470Y-62950671D01*
X174237980Y-62972849D01*
X174225367Y-62993893D01*
X174210753Y-63013598D01*
X174194277Y-63031777D01*
X174176098Y-63048253D01*
X174156393Y-63062867D01*
X174135349Y-63075480D01*
X174113171Y-63085970D01*
X174090071Y-63094235D01*
X174066273Y-63100196D01*
X174042004Y-63103796D01*
X174017500Y-63105000D01*
X173092500Y-63105000D01*
X173067996Y-63103796D01*
X173043727Y-63100196D01*
X173019929Y-63094235D01*
X172996829Y-63085970D01*
X172974651Y-63075480D01*
X172953607Y-63062867D01*
X172933902Y-63048253D01*
X172915723Y-63031777D01*
X172899247Y-63013598D01*
X172884633Y-62993893D01*
X172872020Y-62972849D01*
X172861530Y-62950671D01*
X172853265Y-62927571D01*
X172847304Y-62903773D01*
X172843704Y-62879504D01*
X172842500Y-62855000D01*
X172842500Y-61605000D01*
X172843704Y-61580496D01*
X172847304Y-61556227D01*
X172853265Y-61532429D01*
X172861530Y-61509329D01*
X172872020Y-61487151D01*
X172884633Y-61466107D01*
X172899247Y-61446402D01*
X172915723Y-61428223D01*
X172933902Y-61411747D01*
X172953607Y-61397133D01*
X172974651Y-61384520D01*
X172996829Y-61374030D01*
X173019929Y-61365765D01*
X173043727Y-61359804D01*
X173067996Y-61356204D01*
X173092500Y-61355000D01*
X174017500Y-61355000D01*
X174042004Y-61356204D01*
G37*
G36*
X177017004Y-61356204D02*
G01*
X177041273Y-61359804D01*
X177065071Y-61365765D01*
X177088171Y-61374030D01*
X177110349Y-61384520D01*
X177131393Y-61397133D01*
X177151098Y-61411747D01*
X177169277Y-61428223D01*
X177185753Y-61446402D01*
X177200367Y-61466107D01*
X177212980Y-61487151D01*
X177223470Y-61509329D01*
X177231735Y-61532429D01*
X177237696Y-61556227D01*
X177241296Y-61580496D01*
X177242500Y-61605000D01*
X177242500Y-62855000D01*
X177241296Y-62879504D01*
X177237696Y-62903773D01*
X177231735Y-62927571D01*
X177223470Y-62950671D01*
X177212980Y-62972849D01*
X177200367Y-62993893D01*
X177185753Y-63013598D01*
X177169277Y-63031777D01*
X177151098Y-63048253D01*
X177131393Y-63062867D01*
X177110349Y-63075480D01*
X177088171Y-63085970D01*
X177065071Y-63094235D01*
X177041273Y-63100196D01*
X177017004Y-63103796D01*
X176992500Y-63105000D01*
X176067500Y-63105000D01*
X176042996Y-63103796D01*
X176018727Y-63100196D01*
X175994929Y-63094235D01*
X175971829Y-63085970D01*
X175949651Y-63075480D01*
X175928607Y-63062867D01*
X175908902Y-63048253D01*
X175890723Y-63031777D01*
X175874247Y-63013598D01*
X175859633Y-62993893D01*
X175847020Y-62972849D01*
X175836530Y-62950671D01*
X175828265Y-62927571D01*
X175822304Y-62903773D01*
X175818704Y-62879504D01*
X175817500Y-62855000D01*
X175817500Y-61605000D01*
X175818704Y-61580496D01*
X175822304Y-61556227D01*
X175828265Y-61532429D01*
X175836530Y-61509329D01*
X175847020Y-61487151D01*
X175859633Y-61466107D01*
X175874247Y-61446402D01*
X175890723Y-61428223D01*
X175908902Y-61411747D01*
X175928607Y-61397133D01*
X175949651Y-61384520D01*
X175971829Y-61374030D01*
X175994929Y-61365765D01*
X176018727Y-61359804D01*
X176042996Y-61356204D01*
X176067500Y-61355000D01*
X176992500Y-61355000D01*
X177017004Y-61356204D01*
G37*
G36*
X174042004Y-64912204D02*
G01*
X174066273Y-64915804D01*
X174090071Y-64921765D01*
X174113171Y-64930030D01*
X174135349Y-64940520D01*
X174156393Y-64953133D01*
X174176098Y-64967747D01*
X174194277Y-64984223D01*
X174210753Y-65002402D01*
X174225367Y-65022107D01*
X174237980Y-65043151D01*
X174248470Y-65065329D01*
X174256735Y-65088429D01*
X174262696Y-65112227D01*
X174266296Y-65136496D01*
X174267500Y-65161000D01*
X174267500Y-66411000D01*
X174266296Y-66435504D01*
X174262696Y-66459773D01*
X174256735Y-66483571D01*
X174248470Y-66506671D01*
X174237980Y-66528849D01*
X174225367Y-66549893D01*
X174210753Y-66569598D01*
X174194277Y-66587777D01*
X174176098Y-66604253D01*
X174156393Y-66618867D01*
X174135349Y-66631480D01*
X174113171Y-66641970D01*
X174090071Y-66650235D01*
X174066273Y-66656196D01*
X174042004Y-66659796D01*
X174017500Y-66661000D01*
X173092500Y-66661000D01*
X173067996Y-66659796D01*
X173043727Y-66656196D01*
X173019929Y-66650235D01*
X172996829Y-66641970D01*
X172974651Y-66631480D01*
X172953607Y-66618867D01*
X172933902Y-66604253D01*
X172915723Y-66587777D01*
X172899247Y-66569598D01*
X172884633Y-66549893D01*
X172872020Y-66528849D01*
X172861530Y-66506671D01*
X172853265Y-66483571D01*
X172847304Y-66459773D01*
X172843704Y-66435504D01*
X172842500Y-66411000D01*
X172842500Y-65161000D01*
X172843704Y-65136496D01*
X172847304Y-65112227D01*
X172853265Y-65088429D01*
X172861530Y-65065329D01*
X172872020Y-65043151D01*
X172884633Y-65022107D01*
X172899247Y-65002402D01*
X172915723Y-64984223D01*
X172933902Y-64967747D01*
X172953607Y-64953133D01*
X172974651Y-64940520D01*
X172996829Y-64930030D01*
X173019929Y-64921765D01*
X173043727Y-64915804D01*
X173067996Y-64912204D01*
X173092500Y-64911000D01*
X174017500Y-64911000D01*
X174042004Y-64912204D01*
G37*
G36*
X177017004Y-64912204D02*
G01*
X177041273Y-64915804D01*
X177065071Y-64921765D01*
X177088171Y-64930030D01*
X177110349Y-64940520D01*
X177131393Y-64953133D01*
X177151098Y-64967747D01*
X177169277Y-64984223D01*
X177185753Y-65002402D01*
X177200367Y-65022107D01*
X177212980Y-65043151D01*
X177223470Y-65065329D01*
X177231735Y-65088429D01*
X177237696Y-65112227D01*
X177241296Y-65136496D01*
X177242500Y-65161000D01*
X177242500Y-66411000D01*
X177241296Y-66435504D01*
X177237696Y-66459773D01*
X177231735Y-66483571D01*
X177223470Y-66506671D01*
X177212980Y-66528849D01*
X177200367Y-66549893D01*
X177185753Y-66569598D01*
X177169277Y-66587777D01*
X177151098Y-66604253D01*
X177131393Y-66618867D01*
X177110349Y-66631480D01*
X177088171Y-66641970D01*
X177065071Y-66650235D01*
X177041273Y-66656196D01*
X177017004Y-66659796D01*
X176992500Y-66661000D01*
X176067500Y-66661000D01*
X176042996Y-66659796D01*
X176018727Y-66656196D01*
X175994929Y-66650235D01*
X175971829Y-66641970D01*
X175949651Y-66631480D01*
X175928607Y-66618867D01*
X175908902Y-66604253D01*
X175890723Y-66587777D01*
X175874247Y-66569598D01*
X175859633Y-66549893D01*
X175847020Y-66528849D01*
X175836530Y-66506671D01*
X175828265Y-66483571D01*
X175822304Y-66459773D01*
X175818704Y-66435504D01*
X175817500Y-66411000D01*
X175817500Y-65161000D01*
X175818704Y-65136496D01*
X175822304Y-65112227D01*
X175828265Y-65088429D01*
X175836530Y-65065329D01*
X175847020Y-65043151D01*
X175859633Y-65022107D01*
X175874247Y-65002402D01*
X175890723Y-64984223D01*
X175908902Y-64967747D01*
X175928607Y-64953133D01*
X175949651Y-64940520D01*
X175971829Y-64930030D01*
X175994929Y-64921765D01*
X176018727Y-64915804D01*
X176042996Y-64912204D01*
X176067500Y-64911000D01*
X176992500Y-64911000D01*
X177017004Y-64912204D01*
G37*
D19*
X91440000Y-97980000D03*
X91440000Y-93980000D03*
D20*
X114173000Y-94996000D03*
X110173000Y-94996000D03*
X120333000Y-94996000D03*
X124333000Y-94996000D03*
D21*
X149860000Y-64010000D03*
X146510000Y-60960000D03*
X149860000Y-60960000D03*
X146510000Y-64010000D03*
D22*
X154485000Y-64765000D03*
X154485000Y-60205000D03*
D21*
X134620000Y-67820000D03*
X131270000Y-64770000D03*
X134620000Y-64770000D03*
X131270000Y-67820000D03*
D22*
X139245000Y-68575000D03*
X139245000Y-64015000D03*
M02*
