G04 #@! TF.GenerationSoftware,KiCad,Pcbnew,5.1.4-e60b266~84~ubuntu18.04.1*
G04 #@! TF.CreationDate,2019-09-18T23:31:39+02:00*
G04 #@! TF.ProjectId,PCB,5043422e-6b69-4636-9164-5f7063625858,rev?*
G04 #@! TF.SameCoordinates,Original*
G04 #@! TF.FileFunction,Legend,Bot*
G04 #@! TF.FilePolarity,Positive*
%FSLAX46Y46*%
G04 Gerber Fmt 4.6, Leading zero omitted, Abs format (unit mm)*
G04 Created by KiCad (PCBNEW 5.1.4-e60b266~84~ubuntu18.04.1) date 2019-09-18 23:31:39*
%MOMM*%
%LPD*%
G04 APERTURE LIST*
%ADD10C,0.300000*%
%ADD11C,0.100000*%
%ADD12C,0.500000*%
%ADD13C,1.000000*%
%ADD14C,0.050000*%
%ADD15C,0.010000*%
G04 APERTURE END LIST*
D10*
X169320571Y-81756285D02*
X168653904Y-81756285D01*
X168368190Y-83851523D02*
X169320571Y-83851523D01*
X169320571Y-79851523D01*
X168368190Y-79851523D01*
X167606285Y-83661047D02*
X167320571Y-83851523D01*
X166844380Y-83851523D01*
X166653904Y-83661047D01*
X166558666Y-83470571D01*
X166463428Y-83089619D01*
X166463428Y-82708666D01*
X166558666Y-82327714D01*
X166653904Y-82137238D01*
X166844380Y-81946761D01*
X167225333Y-81756285D01*
X167415809Y-81565809D01*
X167511047Y-81375333D01*
X167606285Y-80994380D01*
X167606285Y-80613428D01*
X167511047Y-80232476D01*
X167415809Y-80042000D01*
X167225333Y-79851523D01*
X166749142Y-79851523D01*
X166463428Y-80042000D01*
X165606285Y-83851523D02*
X165606285Y-79851523D01*
X164844380Y-79851523D01*
X164653904Y-80042000D01*
X164558666Y-80232476D01*
X164463428Y-80613428D01*
X164463428Y-81184857D01*
X164558666Y-81565809D01*
X164653904Y-81756285D01*
X164844380Y-81946761D01*
X165606285Y-81946761D01*
X163796761Y-79851523D02*
X162558666Y-79851523D01*
X163225333Y-81375333D01*
X162939619Y-81375333D01*
X162749142Y-81565809D01*
X162653904Y-81756285D01*
X162558666Y-82137238D01*
X162558666Y-83089619D01*
X162653904Y-83470571D01*
X162749142Y-83661047D01*
X162939619Y-83851523D01*
X163511047Y-83851523D01*
X163701523Y-83661047D01*
X163796761Y-83470571D01*
X161796761Y-80232476D02*
X161701523Y-80042000D01*
X161511047Y-79851523D01*
X161034857Y-79851523D01*
X160844380Y-80042000D01*
X160749142Y-80232476D01*
X160653904Y-80613428D01*
X160653904Y-80994380D01*
X160749142Y-81565809D01*
X161892000Y-83851523D01*
X160653904Y-83851523D01*
X157130095Y-83470571D02*
X157225333Y-83661047D01*
X157511047Y-83851523D01*
X157701523Y-83851523D01*
X157987238Y-83661047D01*
X158177714Y-83280095D01*
X158272952Y-82899142D01*
X158368190Y-82137238D01*
X158368190Y-81565809D01*
X158272952Y-80803904D01*
X158177714Y-80422952D01*
X157987238Y-80042000D01*
X157701523Y-79851523D01*
X157511047Y-79851523D01*
X157225333Y-80042000D01*
X157130095Y-80232476D01*
X155892000Y-79851523D02*
X155511047Y-79851523D01*
X155320571Y-80042000D01*
X155130095Y-80422952D01*
X155034857Y-81184857D01*
X155034857Y-82518190D01*
X155130095Y-83280095D01*
X155320571Y-83661047D01*
X155511047Y-83851523D01*
X155892000Y-83851523D01*
X156082476Y-83661047D01*
X156272952Y-83280095D01*
X156368190Y-82518190D01*
X156368190Y-81184857D01*
X156272952Y-80422952D01*
X156082476Y-80042000D01*
X155892000Y-79851523D01*
X154177714Y-83851523D02*
X154177714Y-79851523D01*
X153034857Y-83851523D01*
X153034857Y-79851523D01*
X152368190Y-79851523D02*
X151225333Y-79851523D01*
X151796761Y-83851523D02*
X151796761Y-79851523D01*
X149415809Y-83851523D02*
X150082476Y-81946761D01*
X150558666Y-83851523D02*
X150558666Y-79851523D01*
X149796761Y-79851523D01*
X149606285Y-80042000D01*
X149511047Y-80232476D01*
X149415809Y-80613428D01*
X149415809Y-81184857D01*
X149511047Y-81565809D01*
X149606285Y-81756285D01*
X149796761Y-81946761D01*
X150558666Y-81946761D01*
X148177714Y-79851523D02*
X147796761Y-79851523D01*
X147606285Y-80042000D01*
X147415809Y-80422952D01*
X147320571Y-81184857D01*
X147320571Y-82518190D01*
X147415809Y-83280095D01*
X147606285Y-83661047D01*
X147796761Y-83851523D01*
X148177714Y-83851523D01*
X148368190Y-83661047D01*
X148558666Y-83280095D01*
X148653904Y-82518190D01*
X148653904Y-81184857D01*
X148558666Y-80422952D01*
X148368190Y-80042000D01*
X148177714Y-79851523D01*
X145511047Y-83851523D02*
X146463428Y-83851523D01*
X146463428Y-79851523D01*
X142653904Y-81756285D02*
X142368190Y-81946761D01*
X142272952Y-82137238D01*
X142177714Y-82518190D01*
X142177714Y-83089619D01*
X142272952Y-83470571D01*
X142368190Y-83661047D01*
X142558666Y-83851523D01*
X143320571Y-83851523D01*
X143320571Y-79851523D01*
X142653904Y-79851523D01*
X142463428Y-80042000D01*
X142368190Y-80232476D01*
X142272952Y-80613428D01*
X142272952Y-80994380D01*
X142368190Y-81375333D01*
X142463428Y-81565809D01*
X142653904Y-81756285D01*
X143320571Y-81756285D01*
X140939619Y-79851523D02*
X140558666Y-79851523D01*
X140368190Y-80042000D01*
X140177714Y-80422952D01*
X140082476Y-81184857D01*
X140082476Y-82518190D01*
X140177714Y-83280095D01*
X140368190Y-83661047D01*
X140558666Y-83851523D01*
X140939619Y-83851523D01*
X141130095Y-83661047D01*
X141320571Y-83280095D01*
X141415809Y-82518190D01*
X141415809Y-81184857D01*
X141320571Y-80422952D01*
X141130095Y-80042000D01*
X140939619Y-79851523D01*
X139320571Y-82708666D02*
X138368190Y-82708666D01*
X139511047Y-83851523D02*
X138844380Y-79851523D01*
X138177714Y-83851523D01*
X136368190Y-83851523D02*
X137034857Y-81946761D01*
X137511047Y-83851523D02*
X137511047Y-79851523D01*
X136749142Y-79851523D01*
X136558666Y-80042000D01*
X136463428Y-80232476D01*
X136368190Y-80613428D01*
X136368190Y-81184857D01*
X136463428Y-81565809D01*
X136558666Y-81756285D01*
X136749142Y-81946761D01*
X137511047Y-81946761D01*
X135511047Y-83851523D02*
X135511047Y-79851523D01*
X135034857Y-79851523D01*
X134749142Y-80042000D01*
X134558666Y-80422952D01*
X134463428Y-80803904D01*
X134368190Y-81565809D01*
X134368190Y-82137238D01*
X134463428Y-82899142D01*
X134558666Y-83280095D01*
X134749142Y-83661047D01*
X135034857Y-83851523D01*
X135511047Y-83851523D01*
D11*
G36*
X208280000Y-86360000D02*
G01*
X134239000Y-86360000D01*
X133350000Y-85090000D01*
X208280000Y-85090000D01*
X208280000Y-86360000D01*
G37*
X208280000Y-86360000D02*
X134239000Y-86360000D01*
X133350000Y-85090000D01*
X208280000Y-85090000D01*
X208280000Y-86360000D01*
D12*
X144145000Y-101600000D02*
X135382000Y-87884000D01*
X208280000Y-101600000D02*
X144145000Y-101600000D01*
D11*
G36*
X147320000Y-98425000D02*
G01*
X208280000Y-98425000D01*
X208280000Y-100330000D01*
X145415000Y-100330000D01*
X137160000Y-87630000D01*
X139954000Y-87630000D01*
X147320000Y-98425000D01*
G37*
X147320000Y-98425000D02*
X208280000Y-98425000D01*
X208280000Y-100330000D01*
X145415000Y-100330000D01*
X137160000Y-87630000D01*
X139954000Y-87630000D01*
X147320000Y-98425000D01*
D13*
X194720000Y-95313142D02*
X194910476Y-95694095D01*
X195481904Y-96075047D01*
X195862857Y-96075047D01*
X196434285Y-95694095D01*
X196815238Y-94932190D01*
X197005714Y-94170285D01*
X197196190Y-92646476D01*
X197196190Y-91503619D01*
X197005714Y-89979809D01*
X196815238Y-89217904D01*
X196434285Y-88456000D01*
X195862857Y-88075047D01*
X195481904Y-88075047D01*
X194910476Y-88456000D01*
X194720000Y-88836952D01*
X191100952Y-96075047D02*
X193005714Y-96075047D01*
X193005714Y-88075047D01*
X189005714Y-88075047D02*
X188243809Y-88075047D01*
X187862857Y-88456000D01*
X187481904Y-89217904D01*
X187291428Y-90741714D01*
X187291428Y-93408380D01*
X187481904Y-94932190D01*
X187862857Y-95694095D01*
X188243809Y-96075047D01*
X189005714Y-96075047D01*
X189386666Y-95694095D01*
X189767619Y-94932190D01*
X189958095Y-93408380D01*
X189958095Y-90741714D01*
X189767619Y-89217904D01*
X189386666Y-88456000D01*
X189005714Y-88075047D01*
X185577142Y-88075047D02*
X185577142Y-94551238D01*
X185386666Y-95313142D01*
X185196190Y-95694095D01*
X184815238Y-96075047D01*
X184053333Y-96075047D01*
X183672380Y-95694095D01*
X183481904Y-95313142D01*
X183291428Y-94551238D01*
X183291428Y-88075047D01*
X181386666Y-96075047D02*
X181386666Y-88075047D01*
X180434285Y-88075047D01*
X179862857Y-88456000D01*
X179481904Y-89217904D01*
X179291428Y-89979809D01*
X179100952Y-91503619D01*
X179100952Y-92646476D01*
X179291428Y-94170285D01*
X179481904Y-94932190D01*
X179862857Y-95694095D01*
X180434285Y-96075047D01*
X181386666Y-96075047D01*
X172053333Y-95313142D02*
X172243809Y-95694095D01*
X172815238Y-96075047D01*
X173196190Y-96075047D01*
X173767619Y-95694095D01*
X174148571Y-94932190D01*
X174339047Y-94170285D01*
X174529523Y-92646476D01*
X174529523Y-91503619D01*
X174339047Y-89979809D01*
X174148571Y-89217904D01*
X173767619Y-88456000D01*
X173196190Y-88075047D01*
X172815238Y-88075047D01*
X172243809Y-88456000D01*
X172053333Y-88836952D01*
X170339047Y-96075047D02*
X170339047Y-88075047D01*
X170339047Y-91884571D02*
X168053333Y-91884571D01*
X168053333Y-96075047D02*
X168053333Y-88075047D01*
X166339047Y-93789333D02*
X164434285Y-93789333D01*
X166720000Y-96075047D02*
X165386666Y-88075047D01*
X164053333Y-96075047D01*
X162720000Y-96075047D02*
X162720000Y-88075047D01*
X161386666Y-93789333D01*
X160053333Y-88075047D01*
X160053333Y-96075047D01*
X156815238Y-91884571D02*
X156243809Y-92265523D01*
X156053333Y-92646476D01*
X155862857Y-93408380D01*
X155862857Y-94551238D01*
X156053333Y-95313142D01*
X156243809Y-95694095D01*
X156624761Y-96075047D01*
X158148571Y-96075047D01*
X158148571Y-88075047D01*
X156815238Y-88075047D01*
X156434285Y-88456000D01*
X156243809Y-88836952D01*
X156053333Y-89598857D01*
X156053333Y-90360761D01*
X156243809Y-91122666D01*
X156434285Y-91503619D01*
X156815238Y-91884571D01*
X158148571Y-91884571D01*
X154148571Y-91884571D02*
X152815238Y-91884571D01*
X152243809Y-96075047D02*
X154148571Y-96075047D01*
X154148571Y-88075047D01*
X152243809Y-88075047D01*
X148243809Y-96075047D02*
X149577142Y-92265523D01*
X150529523Y-96075047D02*
X150529523Y-88075047D01*
X149005714Y-88075047D01*
X148624761Y-88456000D01*
X148434285Y-88836952D01*
X148243809Y-89598857D01*
X148243809Y-90741714D01*
X148434285Y-91503619D01*
X148624761Y-91884571D01*
X149005714Y-92265523D01*
X150529523Y-92265523D01*
D10*
X181346714Y-54276761D02*
X180846714Y-56276761D01*
X180346714Y-54276761D01*
X179846714Y-56276761D02*
X179846714Y-54943428D01*
X179846714Y-54276761D02*
X179918142Y-54372000D01*
X179846714Y-54467238D01*
X179775285Y-54372000D01*
X179846714Y-54276761D01*
X179846714Y-54467238D01*
X178918142Y-56276761D02*
X179061000Y-56181523D01*
X179132428Y-55991047D01*
X179132428Y-54276761D01*
X177775285Y-56181523D02*
X177918142Y-56276761D01*
X178203857Y-56276761D01*
X178346714Y-56181523D01*
X178418142Y-55991047D01*
X178418142Y-55229142D01*
X178346714Y-55038666D01*
X178203857Y-54943428D01*
X177918142Y-54943428D01*
X177775285Y-55038666D01*
X177703857Y-55229142D01*
X177703857Y-55419619D01*
X178418142Y-55610095D01*
X177918142Y-54181523D02*
X178132428Y-54467238D01*
X177061000Y-56276761D02*
X177061000Y-54943428D01*
X177061000Y-55133904D02*
X176989571Y-55038666D01*
X176846714Y-54943428D01*
X176632428Y-54943428D01*
X176489571Y-55038666D01*
X176418142Y-55229142D01*
X176418142Y-56276761D01*
X176418142Y-55229142D02*
X176346714Y-55038666D01*
X176203857Y-54943428D01*
X175989571Y-54943428D01*
X175846714Y-55038666D01*
X175775285Y-55229142D01*
X175775285Y-56276761D01*
X173061000Y-56276761D02*
X173561000Y-55324380D01*
X173918142Y-56276761D02*
X173918142Y-54276761D01*
X173346714Y-54276761D01*
X173203857Y-54372000D01*
X173132428Y-54467238D01*
X173061000Y-54657714D01*
X173061000Y-54943428D01*
X173132428Y-55133904D01*
X173203857Y-55229142D01*
X173346714Y-55324380D01*
X173918142Y-55324380D01*
X171775285Y-56276761D02*
X171775285Y-55229142D01*
X171846714Y-55038666D01*
X171989571Y-54943428D01*
X172275285Y-54943428D01*
X172418142Y-55038666D01*
X171775285Y-56181523D02*
X171918142Y-56276761D01*
X172275285Y-56276761D01*
X172418142Y-56181523D01*
X172489571Y-55991047D01*
X172489571Y-55800571D01*
X172418142Y-55610095D01*
X172275285Y-55514857D01*
X171918142Y-55514857D01*
X171775285Y-55419619D01*
X171132428Y-56181523D02*
X170989571Y-56276761D01*
X170703857Y-56276761D01*
X170561000Y-56181523D01*
X170489571Y-55991047D01*
X170489571Y-55895809D01*
X170561000Y-55705333D01*
X170703857Y-55610095D01*
X170918142Y-55610095D01*
X171061000Y-55514857D01*
X171132428Y-55324380D01*
X171132428Y-55229142D01*
X171061000Y-55038666D01*
X170918142Y-54943428D01*
X170703857Y-54943428D01*
X170561000Y-55038666D01*
X171132428Y-54181523D02*
X170846714Y-54467238D01*
X170561000Y-54181523D01*
X169846714Y-56276761D02*
X169846714Y-54276761D01*
X169703857Y-55514857D02*
X169275285Y-56276761D01*
X169275285Y-54943428D02*
X169846714Y-55705333D01*
X167989571Y-56276761D02*
X167989571Y-55229142D01*
X168061000Y-55038666D01*
X168203857Y-54943428D01*
X168489571Y-54943428D01*
X168632428Y-55038666D01*
X167989571Y-56181523D02*
X168132428Y-56276761D01*
X168489571Y-56276761D01*
X168632428Y-56181523D01*
X168703857Y-55991047D01*
X168703857Y-55800571D01*
X168632428Y-55610095D01*
X168489571Y-55514857D01*
X168132428Y-55514857D01*
X167989571Y-55419619D01*
X165061000Y-54467238D02*
X164989571Y-54372000D01*
X164846714Y-54276761D01*
X164489571Y-54276761D01*
X164346714Y-54372000D01*
X164275285Y-54467238D01*
X164203857Y-54657714D01*
X164203857Y-54848190D01*
X164275285Y-55133904D01*
X165132428Y-56276761D01*
X164203857Y-56276761D01*
X163275285Y-54276761D02*
X163132428Y-54276761D01*
X162989571Y-54372000D01*
X162918142Y-54467238D01*
X162846714Y-54657714D01*
X162775285Y-55038666D01*
X162775285Y-55514857D01*
X162846714Y-55895809D01*
X162918142Y-56086285D01*
X162989571Y-56181523D01*
X163132428Y-56276761D01*
X163275285Y-56276761D01*
X163418142Y-56181523D01*
X163489571Y-56086285D01*
X163561000Y-55895809D01*
X163632428Y-55514857D01*
X163632428Y-55038666D01*
X163561000Y-54657714D01*
X163489571Y-54467238D01*
X163418142Y-54372000D01*
X163275285Y-54276761D01*
X161346714Y-56276761D02*
X162203857Y-56276761D01*
X161775285Y-56276761D02*
X161775285Y-54276761D01*
X161918142Y-54562476D01*
X162061000Y-54752952D01*
X162203857Y-54848190D01*
X160632428Y-56276761D02*
X160346714Y-56276761D01*
X160203857Y-56181523D01*
X160132428Y-56086285D01*
X159989571Y-55800571D01*
X159918142Y-55419619D01*
X159918142Y-54657714D01*
X159989571Y-54467238D01*
X160061000Y-54372000D01*
X160203857Y-54276761D01*
X160489571Y-54276761D01*
X160632428Y-54372000D01*
X160703857Y-54467238D01*
X160775285Y-54657714D01*
X160775285Y-55133904D01*
X160703857Y-55324380D01*
X160632428Y-55419619D01*
X160489571Y-55514857D01*
X160203857Y-55514857D01*
X160061000Y-55419619D01*
X159989571Y-55324380D01*
X159918142Y-55133904D01*
D14*
X116840000Y-50800000D02*
X203200000Y-50800000D01*
X111760000Y-55880000D02*
G75*
G02X116840000Y-50800000I5080000J0D01*
G01*
X208280000Y-119380000D02*
X208280000Y-55880000D01*
X203200000Y-50800000D02*
G75*
G02X208280000Y-55880000I0J-5080000D01*
G01*
X111760000Y-119380000D02*
X111760000Y-55880000D01*
X116840000Y-124460000D02*
X203200000Y-124460000D01*
X116840000Y-124460000D02*
G75*
G02X111760000Y-119380000I0J5080000D01*
G01*
X208280000Y-119380000D02*
G75*
G02X203200000Y-124460000I-5080000J0D01*
G01*
D15*
G36*
X132434708Y-100491409D02*
G01*
X132382143Y-100491944D01*
X132228119Y-100495660D01*
X132099125Y-100506699D01*
X131990763Y-100526246D01*
X131898638Y-100555483D01*
X131818353Y-100595597D01*
X131745512Y-100647769D01*
X131719495Y-100670433D01*
X131676337Y-100723462D01*
X131637421Y-100795421D01*
X131607427Y-100875184D01*
X131591035Y-100951625D01*
X131589332Y-100979872D01*
X131600005Y-101058174D01*
X131628607Y-101143705D01*
X131670011Y-101224663D01*
X131719095Y-101289246D01*
X131727067Y-101297038D01*
X131794600Y-101351808D01*
X131868552Y-101394563D01*
X131953188Y-101426423D01*
X132052771Y-101448508D01*
X132171566Y-101461938D01*
X132313834Y-101467834D01*
X132379000Y-101468334D01*
X132461855Y-101467935D01*
X132520123Y-101466266D01*
X132559270Y-101462622D01*
X132584763Y-101456293D01*
X132602068Y-101446574D01*
X132611344Y-101438274D01*
X132620106Y-101428192D01*
X132626979Y-101415185D01*
X132632192Y-101395769D01*
X132635973Y-101366460D01*
X132638551Y-101323773D01*
X132640154Y-101264225D01*
X132641011Y-101184330D01*
X132641351Y-101080605D01*
X132641403Y-100979872D01*
X132641734Y-100845519D01*
X132641662Y-100738192D01*
X132640384Y-100686795D01*
X132446019Y-100686795D01*
X132446019Y-101272949D01*
X132322025Y-101272835D01*
X132247415Y-101270696D01*
X132169272Y-101265183D01*
X132104074Y-101257472D01*
X132102090Y-101257155D01*
X131996717Y-101231678D01*
X131914986Y-101192000D01*
X131852816Y-101135538D01*
X131813314Y-101074406D01*
X131788974Y-101006593D01*
X131790861Y-100942919D01*
X131819109Y-100874665D01*
X131874362Y-100804056D01*
X131950927Y-100751735D01*
X132050449Y-100716763D01*
X132116961Y-100704386D01*
X132192461Y-100695694D01*
X132272479Y-100689404D01*
X132340538Y-100686788D01*
X132344569Y-100686776D01*
X132446019Y-100686795D01*
X132640384Y-100686795D01*
X132639590Y-100654881D01*
X132633915Y-100592579D01*
X132623041Y-100548275D01*
X132605368Y-100518960D01*
X132579297Y-100501625D01*
X132543229Y-100493261D01*
X132495566Y-100490859D01*
X132434708Y-100491409D01*
X132434708Y-100491409D01*
G37*
X132434708Y-100491409D02*
X132382143Y-100491944D01*
X132228119Y-100495660D01*
X132099125Y-100506699D01*
X131990763Y-100526246D01*
X131898638Y-100555483D01*
X131818353Y-100595597D01*
X131745512Y-100647769D01*
X131719495Y-100670433D01*
X131676337Y-100723462D01*
X131637421Y-100795421D01*
X131607427Y-100875184D01*
X131591035Y-100951625D01*
X131589332Y-100979872D01*
X131600005Y-101058174D01*
X131628607Y-101143705D01*
X131670011Y-101224663D01*
X131719095Y-101289246D01*
X131727067Y-101297038D01*
X131794600Y-101351808D01*
X131868552Y-101394563D01*
X131953188Y-101426423D01*
X132052771Y-101448508D01*
X132171566Y-101461938D01*
X132313834Y-101467834D01*
X132379000Y-101468334D01*
X132461855Y-101467935D01*
X132520123Y-101466266D01*
X132559270Y-101462622D01*
X132584763Y-101456293D01*
X132602068Y-101446574D01*
X132611344Y-101438274D01*
X132620106Y-101428192D01*
X132626979Y-101415185D01*
X132632192Y-101395769D01*
X132635973Y-101366460D01*
X132638551Y-101323773D01*
X132640154Y-101264225D01*
X132641011Y-101184330D01*
X132641351Y-101080605D01*
X132641403Y-100979872D01*
X132641734Y-100845519D01*
X132641662Y-100738192D01*
X132640384Y-100686795D01*
X132446019Y-100686795D01*
X132446019Y-101272949D01*
X132322025Y-101272835D01*
X132247415Y-101270696D01*
X132169272Y-101265183D01*
X132104074Y-101257472D01*
X132102090Y-101257155D01*
X131996717Y-101231678D01*
X131914986Y-101192000D01*
X131852816Y-101135538D01*
X131813314Y-101074406D01*
X131788974Y-101006593D01*
X131790861Y-100942919D01*
X131819109Y-100874665D01*
X131874362Y-100804056D01*
X131950927Y-100751735D01*
X132050449Y-100716763D01*
X132116961Y-100704386D01*
X132192461Y-100695694D01*
X132272479Y-100689404D01*
X132340538Y-100686788D01*
X132344569Y-100686776D01*
X132446019Y-100686795D01*
X132640384Y-100686795D01*
X132639590Y-100654881D01*
X132633915Y-100592579D01*
X132623041Y-100548275D01*
X132605368Y-100518960D01*
X132579297Y-100501625D01*
X132543229Y-100493261D01*
X132495566Y-100490859D01*
X132434708Y-100491409D01*
G36*
X130559384Y-100491516D02*
G01*
X130466976Y-100492012D01*
X130397227Y-100493165D01*
X130346437Y-100495244D01*
X130310905Y-100498515D01*
X130286932Y-100503247D01*
X130270818Y-100509707D01*
X130258863Y-100518163D01*
X130254533Y-100522055D01*
X130228205Y-100563404D01*
X130223465Y-100610916D01*
X130240784Y-100653095D01*
X130248793Y-100661620D01*
X130261746Y-100669885D01*
X130282602Y-100676261D01*
X130315230Y-100681059D01*
X130363496Y-100684588D01*
X130431268Y-100687158D01*
X130522414Y-100689081D01*
X130605745Y-100690251D01*
X130935546Y-100694310D01*
X130944560Y-100867150D01*
X130720696Y-100867150D01*
X130623508Y-100867989D01*
X130552357Y-100871496D01*
X130503245Y-100879159D01*
X130472171Y-100892467D01*
X130455138Y-100912905D01*
X130448146Y-100941963D01*
X130447084Y-100968931D01*
X130450384Y-101002021D01*
X130462837Y-101026404D01*
X130488274Y-101043353D01*
X130530525Y-101054143D01*
X130593420Y-101060048D01*
X130680789Y-101062341D01*
X130728475Y-101062535D01*
X130943060Y-101062535D01*
X130943060Y-101272949D01*
X130612409Y-101272949D01*
X130504024Y-101273100D01*
X130421651Y-101273778D01*
X130361243Y-101275320D01*
X130318753Y-101278063D01*
X130290135Y-101282345D01*
X130271342Y-101288503D01*
X130258328Y-101296873D01*
X130251699Y-101303008D01*
X130228961Y-101338813D01*
X130221640Y-101370641D01*
X130232093Y-101409518D01*
X130251699Y-101438274D01*
X130262159Y-101447327D01*
X130275662Y-101454357D01*
X130295840Y-101459618D01*
X130326325Y-101463365D01*
X130370749Y-101465854D01*
X130432745Y-101467339D01*
X130515945Y-101468075D01*
X130623981Y-101468318D01*
X130680043Y-101468334D01*
X130800098Y-101468227D01*
X130893728Y-101467739D01*
X130964563Y-101466613D01*
X131016235Y-101464595D01*
X131052377Y-101461430D01*
X131076622Y-101456863D01*
X131092601Y-101450640D01*
X131103947Y-101442504D01*
X131108386Y-101438274D01*
X131117171Y-101428160D01*
X131124058Y-101415112D01*
X131129275Y-101395634D01*
X131133053Y-101366228D01*
X131135624Y-101323398D01*
X131137218Y-101263648D01*
X131138065Y-101183481D01*
X131138396Y-101079401D01*
X131138445Y-100982492D01*
X131138400Y-100858387D01*
X131138088Y-100760830D01*
X131137242Y-100686310D01*
X131135596Y-100631315D01*
X131132883Y-100592334D01*
X131128837Y-100565857D01*
X131123191Y-100548370D01*
X131115680Y-100536364D01*
X131106036Y-100526327D01*
X131103660Y-100524090D01*
X131092129Y-100514183D01*
X131078732Y-100506512D01*
X131059750Y-100500790D01*
X131031469Y-100496732D01*
X130990172Y-100494052D01*
X130932142Y-100492466D01*
X130853663Y-100491688D01*
X130751020Y-100491432D01*
X130678150Y-100491410D01*
X130559384Y-100491516D01*
X130559384Y-100491516D01*
G37*
X130559384Y-100491516D02*
X130466976Y-100492012D01*
X130397227Y-100493165D01*
X130346437Y-100495244D01*
X130310905Y-100498515D01*
X130286932Y-100503247D01*
X130270818Y-100509707D01*
X130258863Y-100518163D01*
X130254533Y-100522055D01*
X130228205Y-100563404D01*
X130223465Y-100610916D01*
X130240784Y-100653095D01*
X130248793Y-100661620D01*
X130261746Y-100669885D01*
X130282602Y-100676261D01*
X130315230Y-100681059D01*
X130363496Y-100684588D01*
X130431268Y-100687158D01*
X130522414Y-100689081D01*
X130605745Y-100690251D01*
X130935546Y-100694310D01*
X130944560Y-100867150D01*
X130720696Y-100867150D01*
X130623508Y-100867989D01*
X130552357Y-100871496D01*
X130503245Y-100879159D01*
X130472171Y-100892467D01*
X130455138Y-100912905D01*
X130448146Y-100941963D01*
X130447084Y-100968931D01*
X130450384Y-101002021D01*
X130462837Y-101026404D01*
X130488274Y-101043353D01*
X130530525Y-101054143D01*
X130593420Y-101060048D01*
X130680789Y-101062341D01*
X130728475Y-101062535D01*
X130943060Y-101062535D01*
X130943060Y-101272949D01*
X130612409Y-101272949D01*
X130504024Y-101273100D01*
X130421651Y-101273778D01*
X130361243Y-101275320D01*
X130318753Y-101278063D01*
X130290135Y-101282345D01*
X130271342Y-101288503D01*
X130258328Y-101296873D01*
X130251699Y-101303008D01*
X130228961Y-101338813D01*
X130221640Y-101370641D01*
X130232093Y-101409518D01*
X130251699Y-101438274D01*
X130262159Y-101447327D01*
X130275662Y-101454357D01*
X130295840Y-101459618D01*
X130326325Y-101463365D01*
X130370749Y-101465854D01*
X130432745Y-101467339D01*
X130515945Y-101468075D01*
X130623981Y-101468318D01*
X130680043Y-101468334D01*
X130800098Y-101468227D01*
X130893728Y-101467739D01*
X130964563Y-101466613D01*
X131016235Y-101464595D01*
X131052377Y-101461430D01*
X131076622Y-101456863D01*
X131092601Y-101450640D01*
X131103947Y-101442504D01*
X131108386Y-101438274D01*
X131117171Y-101428160D01*
X131124058Y-101415112D01*
X131129275Y-101395634D01*
X131133053Y-101366228D01*
X131135624Y-101323398D01*
X131137218Y-101263648D01*
X131138065Y-101183481D01*
X131138396Y-101079401D01*
X131138445Y-100982492D01*
X131138400Y-100858387D01*
X131138088Y-100760830D01*
X131137242Y-100686310D01*
X131135596Y-100631315D01*
X131132883Y-100592334D01*
X131128837Y-100565857D01*
X131123191Y-100548370D01*
X131115680Y-100536364D01*
X131106036Y-100526327D01*
X131103660Y-100524090D01*
X131092129Y-100514183D01*
X131078732Y-100506512D01*
X131059750Y-100500790D01*
X131031469Y-100496732D01*
X130990172Y-100494052D01*
X130932142Y-100492466D01*
X130853663Y-100491688D01*
X130751020Y-100491432D01*
X130678150Y-100491410D01*
X130559384Y-100491516D01*
G36*
X129199942Y-100493121D02*
G01*
X129100337Y-100500084D01*
X129007698Y-100510959D01*
X128927412Y-100525338D01*
X128864862Y-100542810D01*
X128825435Y-100562966D01*
X128819383Y-100568899D01*
X128798338Y-100614939D01*
X128804720Y-100662204D01*
X128837361Y-100702642D01*
X128838918Y-100703801D01*
X128858117Y-100716261D01*
X128878159Y-100722813D01*
X128906114Y-100723608D01*
X128949053Y-100718800D01*
X129014045Y-100708539D01*
X129019273Y-100707675D01*
X129116115Y-100695778D01*
X129220598Y-100689909D01*
X129325389Y-100689852D01*
X129423156Y-100695391D01*
X129506566Y-100706309D01*
X129568287Y-100722389D01*
X129572342Y-100724005D01*
X129617118Y-100749093D01*
X129632850Y-100774482D01*
X129620534Y-100799451D01*
X129581169Y-100823280D01*
X129515752Y-100845246D01*
X129425280Y-100864630D01*
X129364954Y-100873962D01*
X129239554Y-100891913D01*
X129139819Y-100908323D01*
X129061500Y-100924612D01*
X129000347Y-100942202D01*
X128952113Y-100962513D01*
X128912549Y-100986967D01*
X128877406Y-101016984D01*
X128849165Y-101046460D01*
X128815662Y-101087531D01*
X128799173Y-101122846D01*
X128794017Y-101166357D01*
X128793830Y-101182292D01*
X128797702Y-101235169D01*
X128813181Y-101274507D01*
X128839969Y-101309424D01*
X128894413Y-101362798D01*
X128955124Y-101403502D01*
X129026612Y-101432864D01*
X129113390Y-101452211D01*
X129219968Y-101462870D01*
X129350857Y-101466169D01*
X129372469Y-101466113D01*
X129459752Y-101464304D01*
X129546313Y-101460193D01*
X129622716Y-101454370D01*
X129679524Y-101447425D01*
X129684118Y-101446628D01*
X129740599Y-101433248D01*
X129788506Y-101416346D01*
X129815627Y-101400895D01*
X129840865Y-101360130D01*
X129842623Y-101312662D01*
X129820866Y-101270359D01*
X129815998Y-101265576D01*
X129795876Y-101251363D01*
X129770712Y-101245240D01*
X129731767Y-101246282D01*
X129684489Y-101251698D01*
X129631659Y-101256537D01*
X129557602Y-101260619D01*
X129471145Y-101263582D01*
X129381117Y-101265061D01*
X129357439Y-101265158D01*
X129267076Y-101264794D01*
X129200943Y-101263040D01*
X129153221Y-101259287D01*
X129118092Y-101252927D01*
X129089736Y-101243351D01*
X129072695Y-101235375D01*
X129035250Y-101213229D01*
X129011375Y-101193172D01*
X129007886Y-101187487D01*
X129015247Y-101164009D01*
X129050241Y-101141281D01*
X129110442Y-101120334D01*
X129193425Y-101102200D01*
X129217874Y-101098161D01*
X129345576Y-101078103D01*
X129447494Y-101061338D01*
X129527560Y-101046647D01*
X129589708Y-101032812D01*
X129637872Y-101018615D01*
X129675986Y-101002837D01*
X129707984Y-100984260D01*
X129737798Y-100961666D01*
X129769364Y-100933837D01*
X129779986Y-100924080D01*
X129817227Y-100887666D01*
X129836941Y-100858816D01*
X129844653Y-100825802D01*
X129845901Y-100784199D01*
X129832169Y-100702615D01*
X129791132Y-100633298D01*
X129723024Y-100576472D01*
X129628081Y-100532361D01*
X129560338Y-100512576D01*
X129486713Y-100499797D01*
X129398515Y-100492568D01*
X129301130Y-100490479D01*
X129199942Y-100493121D01*
X129199942Y-100493121D01*
G37*
X129199942Y-100493121D02*
X129100337Y-100500084D01*
X129007698Y-100510959D01*
X128927412Y-100525338D01*
X128864862Y-100542810D01*
X128825435Y-100562966D01*
X128819383Y-100568899D01*
X128798338Y-100614939D01*
X128804720Y-100662204D01*
X128837361Y-100702642D01*
X128838918Y-100703801D01*
X128858117Y-100716261D01*
X128878159Y-100722813D01*
X128906114Y-100723608D01*
X128949053Y-100718800D01*
X129014045Y-100708539D01*
X129019273Y-100707675D01*
X129116115Y-100695778D01*
X129220598Y-100689909D01*
X129325389Y-100689852D01*
X129423156Y-100695391D01*
X129506566Y-100706309D01*
X129568287Y-100722389D01*
X129572342Y-100724005D01*
X129617118Y-100749093D01*
X129632850Y-100774482D01*
X129620534Y-100799451D01*
X129581169Y-100823280D01*
X129515752Y-100845246D01*
X129425280Y-100864630D01*
X129364954Y-100873962D01*
X129239554Y-100891913D01*
X129139819Y-100908323D01*
X129061500Y-100924612D01*
X129000347Y-100942202D01*
X128952113Y-100962513D01*
X128912549Y-100986967D01*
X128877406Y-101016984D01*
X128849165Y-101046460D01*
X128815662Y-101087531D01*
X128799173Y-101122846D01*
X128794017Y-101166357D01*
X128793830Y-101182292D01*
X128797702Y-101235169D01*
X128813181Y-101274507D01*
X128839969Y-101309424D01*
X128894413Y-101362798D01*
X128955124Y-101403502D01*
X129026612Y-101432864D01*
X129113390Y-101452211D01*
X129219968Y-101462870D01*
X129350857Y-101466169D01*
X129372469Y-101466113D01*
X129459752Y-101464304D01*
X129546313Y-101460193D01*
X129622716Y-101454370D01*
X129679524Y-101447425D01*
X129684118Y-101446628D01*
X129740599Y-101433248D01*
X129788506Y-101416346D01*
X129815627Y-101400895D01*
X129840865Y-101360130D01*
X129842623Y-101312662D01*
X129820866Y-101270359D01*
X129815998Y-101265576D01*
X129795876Y-101251363D01*
X129770712Y-101245240D01*
X129731767Y-101246282D01*
X129684489Y-101251698D01*
X129631659Y-101256537D01*
X129557602Y-101260619D01*
X129471145Y-101263582D01*
X129381117Y-101265061D01*
X129357439Y-101265158D01*
X129267076Y-101264794D01*
X129200943Y-101263040D01*
X129153221Y-101259287D01*
X129118092Y-101252927D01*
X129089736Y-101243351D01*
X129072695Y-101235375D01*
X129035250Y-101213229D01*
X129011375Y-101193172D01*
X129007886Y-101187487D01*
X129015247Y-101164009D01*
X129050241Y-101141281D01*
X129110442Y-101120334D01*
X129193425Y-101102200D01*
X129217874Y-101098161D01*
X129345576Y-101078103D01*
X129447494Y-101061338D01*
X129527560Y-101046647D01*
X129589708Y-101032812D01*
X129637872Y-101018615D01*
X129675986Y-101002837D01*
X129707984Y-100984260D01*
X129737798Y-100961666D01*
X129769364Y-100933837D01*
X129779986Y-100924080D01*
X129817227Y-100887666D01*
X129836941Y-100858816D01*
X129844653Y-100825802D01*
X129845901Y-100784199D01*
X129832169Y-100702615D01*
X129791132Y-100633298D01*
X129723024Y-100576472D01*
X129628081Y-100532361D01*
X129560338Y-100512576D01*
X129486713Y-100499797D01*
X129398515Y-100492568D01*
X129301130Y-100490479D01*
X129199942Y-100493121D01*
G36*
X128177617Y-100521470D02*
G01*
X128168855Y-100531552D01*
X128161982Y-100544559D01*
X128156769Y-100563975D01*
X128152988Y-100593284D01*
X128150410Y-100635971D01*
X128148807Y-100695519D01*
X128147949Y-100775414D01*
X128147610Y-100879140D01*
X128147557Y-100979872D01*
X128147650Y-101104816D01*
X128148081Y-101203185D01*
X128149077Y-101278465D01*
X128150869Y-101334138D01*
X128153683Y-101373690D01*
X128157750Y-101400605D01*
X128163296Y-101418367D01*
X128170551Y-101430461D01*
X128177617Y-101438274D01*
X128221556Y-101464476D01*
X128268374Y-101462125D01*
X128310263Y-101433548D01*
X128319888Y-101422391D01*
X128327409Y-101409447D01*
X128333088Y-101391136D01*
X128337181Y-101363882D01*
X128339949Y-101324104D01*
X128341650Y-101268226D01*
X128342543Y-101192668D01*
X128342887Y-101093852D01*
X128342942Y-100981978D01*
X128342942Y-100565192D01*
X128306051Y-100528301D01*
X128260579Y-100497264D01*
X128216470Y-100496145D01*
X128177617Y-100521470D01*
X128177617Y-100521470D01*
G37*
X128177617Y-100521470D02*
X128168855Y-100531552D01*
X128161982Y-100544559D01*
X128156769Y-100563975D01*
X128152988Y-100593284D01*
X128150410Y-100635971D01*
X128148807Y-100695519D01*
X128147949Y-100775414D01*
X128147610Y-100879140D01*
X128147557Y-100979872D01*
X128147650Y-101104816D01*
X128148081Y-101203185D01*
X128149077Y-101278465D01*
X128150869Y-101334138D01*
X128153683Y-101373690D01*
X128157750Y-101400605D01*
X128163296Y-101418367D01*
X128170551Y-101430461D01*
X128177617Y-101438274D01*
X128221556Y-101464476D01*
X128268374Y-101462125D01*
X128310263Y-101433548D01*
X128319888Y-101422391D01*
X128327409Y-101409447D01*
X128333088Y-101391136D01*
X128337181Y-101363882D01*
X128339949Y-101324104D01*
X128341650Y-101268226D01*
X128342543Y-101192668D01*
X128342887Y-101093852D01*
X128342942Y-100981978D01*
X128342942Y-100565192D01*
X128306051Y-100528301D01*
X128260579Y-100497264D01*
X128216470Y-100496145D01*
X128177617Y-100521470D01*
G36*
X126881216Y-100498776D02*
G01*
X126789995Y-100514082D01*
X126719936Y-100537875D01*
X126674358Y-100569204D01*
X126661938Y-100587078D01*
X126649308Y-100628649D01*
X126657807Y-100666256D01*
X126684639Y-100701919D01*
X126726330Y-100718603D01*
X126786824Y-100717248D01*
X126833613Y-100708209D01*
X126937582Y-100690987D01*
X127043834Y-100689351D01*
X127162763Y-100703329D01*
X127195614Y-100709252D01*
X127306199Y-100740431D01*
X127392713Y-100786810D01*
X127454207Y-100847599D01*
X127489732Y-100922008D01*
X127497079Y-100960478D01*
X127492270Y-101038527D01*
X127461220Y-101107581D01*
X127406760Y-101166293D01*
X127331718Y-101213317D01*
X127238924Y-101247307D01*
X127131206Y-101266918D01*
X127011395Y-101270805D01*
X126882319Y-101257620D01*
X126875031Y-101256376D01*
X126823692Y-101246814D01*
X126795226Y-101237578D01*
X126782888Y-101223873D01*
X126779932Y-101200906D01*
X126779865Y-101188743D01*
X126779865Y-101137683D01*
X126871031Y-101137683D01*
X126951536Y-101132168D01*
X127006475Y-101114594D01*
X127038440Y-101083417D01*
X127050026Y-101037094D01*
X127050167Y-101031048D01*
X127043389Y-100991453D01*
X127020145Y-100963181D01*
X126976884Y-100944471D01*
X126910055Y-100933564D01*
X126845324Y-100929554D01*
X126751241Y-100927253D01*
X126682998Y-100930764D01*
X126636455Y-100943719D01*
X126607472Y-100969750D01*
X126591909Y-101012491D01*
X126585625Y-101075574D01*
X126584480Y-101158428D01*
X126586356Y-101250910D01*
X126592000Y-101313818D01*
X126601436Y-101347403D01*
X126603267Y-101350033D01*
X126655079Y-101391998D01*
X126731044Y-101425232D01*
X126826346Y-101449023D01*
X126936170Y-101462663D01*
X127055700Y-101465442D01*
X127180120Y-101456649D01*
X127253297Y-101445849D01*
X127368074Y-101413362D01*
X127474750Y-101360250D01*
X127564065Y-101291319D01*
X127577640Y-101277542D01*
X127621746Y-101219622D01*
X127661543Y-101147840D01*
X127692381Y-101072583D01*
X127709611Y-101004241D01*
X127711688Y-100977993D01*
X127702847Y-100923241D01*
X127679349Y-100855119D01*
X127645703Y-100783414D01*
X127606418Y-100717913D01*
X127571709Y-100674162D01*
X127490557Y-100609083D01*
X127385652Y-100557285D01*
X127260754Y-100519938D01*
X127119621Y-100498217D01*
X126990279Y-100492909D01*
X126881216Y-100498776D01*
X126881216Y-100498776D01*
G37*
X126881216Y-100498776D02*
X126789995Y-100514082D01*
X126719936Y-100537875D01*
X126674358Y-100569204D01*
X126661938Y-100587078D01*
X126649308Y-100628649D01*
X126657807Y-100666256D01*
X126684639Y-100701919D01*
X126726330Y-100718603D01*
X126786824Y-100717248D01*
X126833613Y-100708209D01*
X126937582Y-100690987D01*
X127043834Y-100689351D01*
X127162763Y-100703329D01*
X127195614Y-100709252D01*
X127306199Y-100740431D01*
X127392713Y-100786810D01*
X127454207Y-100847599D01*
X127489732Y-100922008D01*
X127497079Y-100960478D01*
X127492270Y-101038527D01*
X127461220Y-101107581D01*
X127406760Y-101166293D01*
X127331718Y-101213317D01*
X127238924Y-101247307D01*
X127131206Y-101266918D01*
X127011395Y-101270805D01*
X126882319Y-101257620D01*
X126875031Y-101256376D01*
X126823692Y-101246814D01*
X126795226Y-101237578D01*
X126782888Y-101223873D01*
X126779932Y-101200906D01*
X126779865Y-101188743D01*
X126779865Y-101137683D01*
X126871031Y-101137683D01*
X126951536Y-101132168D01*
X127006475Y-101114594D01*
X127038440Y-101083417D01*
X127050026Y-101037094D01*
X127050167Y-101031048D01*
X127043389Y-100991453D01*
X127020145Y-100963181D01*
X126976884Y-100944471D01*
X126910055Y-100933564D01*
X126845324Y-100929554D01*
X126751241Y-100927253D01*
X126682998Y-100930764D01*
X126636455Y-100943719D01*
X126607472Y-100969750D01*
X126591909Y-101012491D01*
X126585625Y-101075574D01*
X126584480Y-101158428D01*
X126586356Y-101250910D01*
X126592000Y-101313818D01*
X126601436Y-101347403D01*
X126603267Y-101350033D01*
X126655079Y-101391998D01*
X126731044Y-101425232D01*
X126826346Y-101449023D01*
X126936170Y-101462663D01*
X127055700Y-101465442D01*
X127180120Y-101456649D01*
X127253297Y-101445849D01*
X127368074Y-101413362D01*
X127474750Y-101360250D01*
X127564065Y-101291319D01*
X127577640Y-101277542D01*
X127621746Y-101219622D01*
X127661543Y-101147840D01*
X127692381Y-101072583D01*
X127709611Y-101004241D01*
X127711688Y-100977993D01*
X127702847Y-100923241D01*
X127679349Y-100855119D01*
X127645703Y-100783414D01*
X127606418Y-100717913D01*
X127571709Y-100674162D01*
X127490557Y-100609083D01*
X127385652Y-100557285D01*
X127260754Y-100519938D01*
X127119621Y-100498217D01*
X126990279Y-100492909D01*
X126881216Y-100498776D01*
G36*
X126015874Y-100497244D02*
G01*
X125984499Y-100515649D01*
X125943476Y-100545749D01*
X125890678Y-100588960D01*
X125823979Y-100646702D01*
X125741253Y-100720392D01*
X125640374Y-100811448D01*
X125524895Y-100916138D01*
X125284421Y-101134207D01*
X125276906Y-100841508D01*
X125274193Y-100740754D01*
X125271576Y-100665722D01*
X125268474Y-100612084D01*
X125264310Y-100575510D01*
X125258505Y-100551671D01*
X125250478Y-100536238D01*
X125239651Y-100524882D01*
X125233910Y-100520110D01*
X125187937Y-100494877D01*
X125144191Y-100498566D01*
X125109489Y-100520123D01*
X125074007Y-100548835D01*
X125069594Y-100968150D01*
X125068373Y-101091471D01*
X125067751Y-101188348D01*
X125067944Y-101262394D01*
X125069168Y-101317221D01*
X125071638Y-101356443D01*
X125075568Y-101383673D01*
X125081174Y-101402523D01*
X125088672Y-101416605D01*
X125096987Y-101427899D01*
X125114976Y-101448846D01*
X125132875Y-101462731D01*
X125153166Y-101468060D01*
X125178332Y-101463340D01*
X125210854Y-101447077D01*
X125253217Y-101417777D01*
X125307902Y-101373946D01*
X125377391Y-101314091D01*
X125464169Y-101236718D01*
X125562469Y-101147814D01*
X125915664Y-100827435D01*
X125923179Y-101119177D01*
X125925897Y-101219747D01*
X125928521Y-101294604D01*
X125931633Y-101348084D01*
X125935816Y-101384526D01*
X125941651Y-101408268D01*
X125949720Y-101423646D01*
X125960605Y-101435000D01*
X125966175Y-101439626D01*
X126015410Y-101465042D01*
X126061931Y-101461209D01*
X126102443Y-101428733D01*
X126111710Y-101415667D01*
X126118933Y-101400409D01*
X126124366Y-101379296D01*
X126128262Y-101348669D01*
X126130875Y-101304866D01*
X126132461Y-101244227D01*
X126133272Y-101163091D01*
X126133562Y-101057797D01*
X126133593Y-100979872D01*
X126133495Y-100857988D01*
X126133033Y-100762503D01*
X126131951Y-100689755D01*
X126129997Y-100636083D01*
X126126916Y-100597827D01*
X126122454Y-100571327D01*
X126116357Y-100552920D01*
X126108371Y-100538948D01*
X126102443Y-100531011D01*
X126087416Y-100512212D01*
X126073372Y-100498017D01*
X126058184Y-100489846D01*
X126039727Y-100489116D01*
X126015874Y-100497244D01*
X126015874Y-100497244D01*
G37*
X126015874Y-100497244D02*
X125984499Y-100515649D01*
X125943476Y-100545749D01*
X125890678Y-100588960D01*
X125823979Y-100646702D01*
X125741253Y-100720392D01*
X125640374Y-100811448D01*
X125524895Y-100916138D01*
X125284421Y-101134207D01*
X125276906Y-100841508D01*
X125274193Y-100740754D01*
X125271576Y-100665722D01*
X125268474Y-100612084D01*
X125264310Y-100575510D01*
X125258505Y-100551671D01*
X125250478Y-100536238D01*
X125239651Y-100524882D01*
X125233910Y-100520110D01*
X125187937Y-100494877D01*
X125144191Y-100498566D01*
X125109489Y-100520123D01*
X125074007Y-100548835D01*
X125069594Y-100968150D01*
X125068373Y-101091471D01*
X125067751Y-101188348D01*
X125067944Y-101262394D01*
X125069168Y-101317221D01*
X125071638Y-101356443D01*
X125075568Y-101383673D01*
X125081174Y-101402523D01*
X125088672Y-101416605D01*
X125096987Y-101427899D01*
X125114976Y-101448846D01*
X125132875Y-101462731D01*
X125153166Y-101468060D01*
X125178332Y-101463340D01*
X125210854Y-101447077D01*
X125253217Y-101417777D01*
X125307902Y-101373946D01*
X125377391Y-101314091D01*
X125464169Y-101236718D01*
X125562469Y-101147814D01*
X125915664Y-100827435D01*
X125923179Y-101119177D01*
X125925897Y-101219747D01*
X125928521Y-101294604D01*
X125931633Y-101348084D01*
X125935816Y-101384526D01*
X125941651Y-101408268D01*
X125949720Y-101423646D01*
X125960605Y-101435000D01*
X125966175Y-101439626D01*
X126015410Y-101465042D01*
X126061931Y-101461209D01*
X126102443Y-101428733D01*
X126111710Y-101415667D01*
X126118933Y-101400409D01*
X126124366Y-101379296D01*
X126128262Y-101348669D01*
X126130875Y-101304866D01*
X126132461Y-101244227D01*
X126133272Y-101163091D01*
X126133562Y-101057797D01*
X126133593Y-100979872D01*
X126133495Y-100857988D01*
X126133033Y-100762503D01*
X126131951Y-100689755D01*
X126129997Y-100636083D01*
X126126916Y-100597827D01*
X126122454Y-100571327D01*
X126116357Y-100552920D01*
X126108371Y-100538948D01*
X126102443Y-100531011D01*
X126087416Y-100512212D01*
X126073372Y-100498017D01*
X126058184Y-100489846D01*
X126039727Y-100489116D01*
X126015874Y-100497244D01*
G36*
X123978284Y-100491667D02*
G01*
X123876623Y-100492884D01*
X123798718Y-100495730D01*
X123741419Y-100500874D01*
X123701573Y-100508984D01*
X123676032Y-100520731D01*
X123661643Y-100536782D01*
X123655255Y-100557808D01*
X123653719Y-100584476D01*
X123653711Y-100587626D01*
X123655045Y-100617790D01*
X123661349Y-100641103D01*
X123676078Y-100658506D01*
X123702685Y-100670940D01*
X123744626Y-100679345D01*
X123805354Y-100684665D01*
X123888324Y-100687839D01*
X123996989Y-100689809D01*
X124030295Y-100690245D01*
X124352587Y-100694310D01*
X124357094Y-100780730D01*
X124361602Y-100867150D01*
X124137737Y-100867150D01*
X124050279Y-100867473D01*
X123987831Y-100868837D01*
X123945346Y-100871839D01*
X123917777Y-100877073D01*
X123900078Y-100885135D01*
X123887203Y-100896620D01*
X123887120Y-100896711D01*
X123863770Y-100941471D01*
X123864614Y-100989847D01*
X123889121Y-101031086D01*
X123893971Y-101035325D01*
X123911185Y-101046249D01*
X123934774Y-101053849D01*
X123969993Y-101058697D01*
X124022100Y-101061366D01*
X124096350Y-101062428D01*
X124143838Y-101062535D01*
X124360102Y-101062535D01*
X124360102Y-101272949D01*
X124031780Y-101272949D01*
X123923382Y-101273139D01*
X123841065Y-101273914D01*
X123780851Y-101275584D01*
X123738765Y-101278458D01*
X123710829Y-101282847D01*
X123693066Y-101289059D01*
X123681500Y-101297404D01*
X123678585Y-101300434D01*
X123657064Y-101342434D01*
X123655490Y-101390214D01*
X123673145Y-101431642D01*
X123687115Y-101444937D01*
X123701646Y-101452256D01*
X123724162Y-101457919D01*
X123758224Y-101462123D01*
X123807393Y-101465068D01*
X123875232Y-101466951D01*
X123965302Y-101467970D01*
X124081163Y-101468325D01*
X124107357Y-101468334D01*
X124225161Y-101468256D01*
X124316604Y-101467831D01*
X124385386Y-101466766D01*
X124435204Y-101464769D01*
X124469760Y-101461550D01*
X124492750Y-101456816D01*
X124507874Y-101450277D01*
X124518831Y-101441641D01*
X124524842Y-101435440D01*
X124533890Y-101424457D01*
X124540958Y-101410852D01*
X124546291Y-101391056D01*
X124550132Y-101361502D01*
X124552725Y-101318621D01*
X124554313Y-101258845D01*
X124555139Y-101178607D01*
X124555448Y-101074339D01*
X124555486Y-100986580D01*
X124555392Y-100863608D01*
X124554943Y-100767069D01*
X124553892Y-100693339D01*
X124551990Y-100638790D01*
X124548991Y-100599799D01*
X124544645Y-100572739D01*
X124538706Y-100553984D01*
X124530925Y-100539910D01*
X124524336Y-100531011D01*
X124493186Y-100491410D01*
X124106852Y-100491410D01*
X123978284Y-100491667D01*
X123978284Y-100491667D01*
G37*
X123978284Y-100491667D02*
X123876623Y-100492884D01*
X123798718Y-100495730D01*
X123741419Y-100500874D01*
X123701573Y-100508984D01*
X123676032Y-100520731D01*
X123661643Y-100536782D01*
X123655255Y-100557808D01*
X123653719Y-100584476D01*
X123653711Y-100587626D01*
X123655045Y-100617790D01*
X123661349Y-100641103D01*
X123676078Y-100658506D01*
X123702685Y-100670940D01*
X123744626Y-100679345D01*
X123805354Y-100684665D01*
X123888324Y-100687839D01*
X123996989Y-100689809D01*
X124030295Y-100690245D01*
X124352587Y-100694310D01*
X124357094Y-100780730D01*
X124361602Y-100867150D01*
X124137737Y-100867150D01*
X124050279Y-100867473D01*
X123987831Y-100868837D01*
X123945346Y-100871839D01*
X123917777Y-100877073D01*
X123900078Y-100885135D01*
X123887203Y-100896620D01*
X123887120Y-100896711D01*
X123863770Y-100941471D01*
X123864614Y-100989847D01*
X123889121Y-101031086D01*
X123893971Y-101035325D01*
X123911185Y-101046249D01*
X123934774Y-101053849D01*
X123969993Y-101058697D01*
X124022100Y-101061366D01*
X124096350Y-101062428D01*
X124143838Y-101062535D01*
X124360102Y-101062535D01*
X124360102Y-101272949D01*
X124031780Y-101272949D01*
X123923382Y-101273139D01*
X123841065Y-101273914D01*
X123780851Y-101275584D01*
X123738765Y-101278458D01*
X123710829Y-101282847D01*
X123693066Y-101289059D01*
X123681500Y-101297404D01*
X123678585Y-101300434D01*
X123657064Y-101342434D01*
X123655490Y-101390214D01*
X123673145Y-101431642D01*
X123687115Y-101444937D01*
X123701646Y-101452256D01*
X123724162Y-101457919D01*
X123758224Y-101462123D01*
X123807393Y-101465068D01*
X123875232Y-101466951D01*
X123965302Y-101467970D01*
X124081163Y-101468325D01*
X124107357Y-101468334D01*
X124225161Y-101468256D01*
X124316604Y-101467831D01*
X124385386Y-101466766D01*
X124435204Y-101464769D01*
X124469760Y-101461550D01*
X124492750Y-101456816D01*
X124507874Y-101450277D01*
X124518831Y-101441641D01*
X124524842Y-101435440D01*
X124533890Y-101424457D01*
X124540958Y-101410852D01*
X124546291Y-101391056D01*
X124550132Y-101361502D01*
X124552725Y-101318621D01*
X124554313Y-101258845D01*
X124555139Y-101178607D01*
X124555448Y-101074339D01*
X124555486Y-100986580D01*
X124555392Y-100863608D01*
X124554943Y-100767069D01*
X124553892Y-100693339D01*
X124551990Y-100638790D01*
X124548991Y-100599799D01*
X124544645Y-100572739D01*
X124538706Y-100553984D01*
X124530925Y-100539910D01*
X124524336Y-100531011D01*
X124493186Y-100491410D01*
X124106852Y-100491410D01*
X123978284Y-100491667D01*
G36*
X122929217Y-100491687D02*
G01*
X122757499Y-100497493D01*
X122611445Y-100515101D01*
X122488647Y-100545563D01*
X122386697Y-100589935D01*
X122303186Y-100649271D01*
X122235707Y-100724624D01*
X122181851Y-100817050D01*
X122180792Y-100819304D01*
X122148651Y-100902024D01*
X122137199Y-100975284D01*
X122146480Y-101049012D01*
X122176539Y-101133135D01*
X122182239Y-101145937D01*
X122221115Y-101220862D01*
X122264805Y-101278757D01*
X122321194Y-101327972D01*
X122398162Y-101376857D01*
X122402634Y-101379409D01*
X122469637Y-101411595D01*
X122545369Y-101435632D01*
X122634696Y-101452351D01*
X122742485Y-101462579D01*
X122873602Y-101467146D01*
X122919928Y-101467543D01*
X123140524Y-101468334D01*
X123171674Y-101428733D01*
X123180914Y-101415711D01*
X123188122Y-101400504D01*
X123193550Y-101379466D01*
X123197449Y-101348950D01*
X123200071Y-101305311D01*
X123200926Y-101272949D01*
X122992409Y-101272949D01*
X122867418Y-101272949D01*
X122794277Y-101270810D01*
X122719193Y-101265181D01*
X122657570Y-101257243D01*
X122653851Y-101256575D01*
X122544401Y-101227212D01*
X122459506Y-101183097D01*
X122396482Y-101122183D01*
X122352640Y-101042424D01*
X122345017Y-101021284D01*
X122337544Y-100988362D01*
X122340779Y-100955836D01*
X122356521Y-100912564D01*
X122366010Y-100891307D01*
X122397083Y-100834820D01*
X122434521Y-100795191D01*
X122475713Y-100767594D01*
X122558224Y-100731682D01*
X122663821Y-100705668D01*
X122786836Y-100690688D01*
X122875930Y-100687392D01*
X122992409Y-100686795D01*
X122992409Y-101272949D01*
X123200926Y-101272949D01*
X123201668Y-101244900D01*
X123202490Y-101164072D01*
X123202790Y-101059181D01*
X123202824Y-100977162D01*
X123202824Y-100565192D01*
X123165933Y-100528301D01*
X123149560Y-100513348D01*
X123131857Y-100503108D01*
X123107135Y-100496701D01*
X123069706Y-100493247D01*
X123013881Y-100491867D01*
X122933972Y-100491681D01*
X122929217Y-100491687D01*
X122929217Y-100491687D01*
G37*
X122929217Y-100491687D02*
X122757499Y-100497493D01*
X122611445Y-100515101D01*
X122488647Y-100545563D01*
X122386697Y-100589935D01*
X122303186Y-100649271D01*
X122235707Y-100724624D01*
X122181851Y-100817050D01*
X122180792Y-100819304D01*
X122148651Y-100902024D01*
X122137199Y-100975284D01*
X122146480Y-101049012D01*
X122176539Y-101133135D01*
X122182239Y-101145937D01*
X122221115Y-101220862D01*
X122264805Y-101278757D01*
X122321194Y-101327972D01*
X122398162Y-101376857D01*
X122402634Y-101379409D01*
X122469637Y-101411595D01*
X122545369Y-101435632D01*
X122634696Y-101452351D01*
X122742485Y-101462579D01*
X122873602Y-101467146D01*
X122919928Y-101467543D01*
X123140524Y-101468334D01*
X123171674Y-101428733D01*
X123180914Y-101415711D01*
X123188122Y-101400504D01*
X123193550Y-101379466D01*
X123197449Y-101348950D01*
X123200071Y-101305311D01*
X123200926Y-101272949D01*
X122992409Y-101272949D01*
X122867418Y-101272949D01*
X122794277Y-101270810D01*
X122719193Y-101265181D01*
X122657570Y-101257243D01*
X122653851Y-101256575D01*
X122544401Y-101227212D01*
X122459506Y-101183097D01*
X122396482Y-101122183D01*
X122352640Y-101042424D01*
X122345017Y-101021284D01*
X122337544Y-100988362D01*
X122340779Y-100955836D01*
X122356521Y-100912564D01*
X122366010Y-100891307D01*
X122397083Y-100834820D01*
X122434521Y-100795191D01*
X122475713Y-100767594D01*
X122558224Y-100731682D01*
X122663821Y-100705668D01*
X122786836Y-100690688D01*
X122875930Y-100687392D01*
X122992409Y-100686795D01*
X122992409Y-101272949D01*
X123200926Y-101272949D01*
X123201668Y-101244900D01*
X123202490Y-101164072D01*
X123202790Y-101059181D01*
X123202824Y-100977162D01*
X123202824Y-100565192D01*
X123165933Y-100528301D01*
X123149560Y-100513348D01*
X123131857Y-100503108D01*
X123107135Y-100496701D01*
X123069706Y-100493247D01*
X123013881Y-100491867D01*
X122933972Y-100491681D01*
X122929217Y-100491687D01*
G36*
X119299453Y-100494030D02*
G01*
X119273372Y-100503350D01*
X119272366Y-100503806D01*
X119236948Y-100530834D01*
X119217434Y-100558636D01*
X119213616Y-100571672D01*
X119213805Y-100588992D01*
X119219178Y-100613667D01*
X119230912Y-100648764D01*
X119250187Y-100697353D01*
X119278178Y-100762502D01*
X119316064Y-100847281D01*
X119365022Y-100954759D01*
X119391969Y-101013503D01*
X119440630Y-101118373D01*
X119486310Y-101214814D01*
X119527266Y-101299298D01*
X119561754Y-101368300D01*
X119588031Y-101418294D01*
X119604354Y-101445754D01*
X119607584Y-101449547D01*
X119648911Y-101466280D01*
X119695591Y-101464039D01*
X119733030Y-101443687D01*
X119734556Y-101442032D01*
X119749449Y-101419486D01*
X119774431Y-101375571D01*
X119806421Y-101315940D01*
X119842340Y-101246246D01*
X119855248Y-101220563D01*
X119952686Y-101025397D01*
X120058894Y-101237407D01*
X120096803Y-101310661D01*
X120131973Y-101374190D01*
X120161532Y-101423131D01*
X120182606Y-101452622D01*
X120189748Y-101458876D01*
X120245262Y-101467345D01*
X120291071Y-101449547D01*
X120304546Y-101430525D01*
X120327864Y-101388249D01*
X120359123Y-101326880D01*
X120396420Y-101250576D01*
X120437854Y-101163499D01*
X120481522Y-101069807D01*
X120525522Y-100973661D01*
X120567952Y-100879221D01*
X120606910Y-100790645D01*
X120640493Y-100712096D01*
X120666799Y-100647731D01*
X120683926Y-100601711D01*
X120689971Y-100578197D01*
X120689909Y-100577345D01*
X120675200Y-100547756D01*
X120645798Y-100517620D01*
X120644067Y-100516308D01*
X120607930Y-100495882D01*
X120574506Y-100496080D01*
X120561978Y-100499931D01*
X120546713Y-100508253D01*
X120530502Y-100524625D01*
X120511401Y-100552442D01*
X120487465Y-100595100D01*
X120456749Y-100655995D01*
X120417309Y-100738525D01*
X120381742Y-100814707D01*
X120340823Y-100903014D01*
X120304156Y-100982426D01*
X120273646Y-101048796D01*
X120251198Y-101097975D01*
X120238717Y-101125813D01*
X120236897Y-101130168D01*
X120228710Y-101123049D01*
X120209895Y-101093241D01*
X120182954Y-101045096D01*
X120150392Y-100982963D01*
X120137434Y-100957328D01*
X120093540Y-100870765D01*
X120059689Y-100807725D01*
X120033103Y-100764542D01*
X120011005Y-100737552D01*
X119990616Y-100723088D01*
X119969160Y-100717487D01*
X119955177Y-100716854D01*
X119930512Y-100719040D01*
X119908898Y-100728079D01*
X119887422Y-100747697D01*
X119863170Y-100781617D01*
X119833230Y-100833562D01*
X119794687Y-100907258D01*
X119773422Y-100949180D01*
X119738928Y-101015994D01*
X119708844Y-101071401D01*
X119685823Y-101110727D01*
X119672520Y-101129296D01*
X119670711Y-101130069D01*
X119662120Y-101115455D01*
X119642886Y-101077507D01*
X119614935Y-101020196D01*
X119580193Y-100947496D01*
X119540587Y-100863376D01*
X119521104Y-100821594D01*
X119470420Y-100713763D01*
X119429607Y-100630790D01*
X119396546Y-100569966D01*
X119369119Y-100528585D01*
X119345208Y-100503940D01*
X119322692Y-100493324D01*
X119299453Y-100494030D01*
X119299453Y-100494030D01*
G37*
X119299453Y-100494030D02*
X119273372Y-100503350D01*
X119272366Y-100503806D01*
X119236948Y-100530834D01*
X119217434Y-100558636D01*
X119213616Y-100571672D01*
X119213805Y-100588992D01*
X119219178Y-100613667D01*
X119230912Y-100648764D01*
X119250187Y-100697353D01*
X119278178Y-100762502D01*
X119316064Y-100847281D01*
X119365022Y-100954759D01*
X119391969Y-101013503D01*
X119440630Y-101118373D01*
X119486310Y-101214814D01*
X119527266Y-101299298D01*
X119561754Y-101368300D01*
X119588031Y-101418294D01*
X119604354Y-101445754D01*
X119607584Y-101449547D01*
X119648911Y-101466280D01*
X119695591Y-101464039D01*
X119733030Y-101443687D01*
X119734556Y-101442032D01*
X119749449Y-101419486D01*
X119774431Y-101375571D01*
X119806421Y-101315940D01*
X119842340Y-101246246D01*
X119855248Y-101220563D01*
X119952686Y-101025397D01*
X120058894Y-101237407D01*
X120096803Y-101310661D01*
X120131973Y-101374190D01*
X120161532Y-101423131D01*
X120182606Y-101452622D01*
X120189748Y-101458876D01*
X120245262Y-101467345D01*
X120291071Y-101449547D01*
X120304546Y-101430525D01*
X120327864Y-101388249D01*
X120359123Y-101326880D01*
X120396420Y-101250576D01*
X120437854Y-101163499D01*
X120481522Y-101069807D01*
X120525522Y-100973661D01*
X120567952Y-100879221D01*
X120606910Y-100790645D01*
X120640493Y-100712096D01*
X120666799Y-100647731D01*
X120683926Y-100601711D01*
X120689971Y-100578197D01*
X120689909Y-100577345D01*
X120675200Y-100547756D01*
X120645798Y-100517620D01*
X120644067Y-100516308D01*
X120607930Y-100495882D01*
X120574506Y-100496080D01*
X120561978Y-100499931D01*
X120546713Y-100508253D01*
X120530502Y-100524625D01*
X120511401Y-100552442D01*
X120487465Y-100595100D01*
X120456749Y-100655995D01*
X120417309Y-100738525D01*
X120381742Y-100814707D01*
X120340823Y-100903014D01*
X120304156Y-100982426D01*
X120273646Y-101048796D01*
X120251198Y-101097975D01*
X120238717Y-101125813D01*
X120236897Y-101130168D01*
X120228710Y-101123049D01*
X120209895Y-101093241D01*
X120182954Y-101045096D01*
X120150392Y-100982963D01*
X120137434Y-100957328D01*
X120093540Y-100870765D01*
X120059689Y-100807725D01*
X120033103Y-100764542D01*
X120011005Y-100737552D01*
X119990616Y-100723088D01*
X119969160Y-100717487D01*
X119955177Y-100716854D01*
X119930512Y-100719040D01*
X119908898Y-100728079D01*
X119887422Y-100747697D01*
X119863170Y-100781617D01*
X119833230Y-100833562D01*
X119794687Y-100907258D01*
X119773422Y-100949180D01*
X119738928Y-101015994D01*
X119708844Y-101071401D01*
X119685823Y-101110727D01*
X119672520Y-101129296D01*
X119670711Y-101130069D01*
X119662120Y-101115455D01*
X119642886Y-101077507D01*
X119614935Y-101020196D01*
X119580193Y-100947496D01*
X119540587Y-100863376D01*
X119521104Y-100821594D01*
X119470420Y-100713763D01*
X119429607Y-100630790D01*
X119396546Y-100569966D01*
X119369119Y-100528585D01*
X119345208Y-100503940D01*
X119322692Y-100493324D01*
X119299453Y-100494030D01*
G36*
X118708396Y-100500477D02*
G01*
X118676826Y-100520142D01*
X118641344Y-100548873D01*
X118641344Y-100976966D01*
X118641457Y-101102190D01*
X118641941Y-101200847D01*
X118643014Y-101276430D01*
X118644892Y-101332433D01*
X118647794Y-101372347D01*
X118651937Y-101399666D01*
X118657538Y-101417881D01*
X118664815Y-101430486D01*
X118669976Y-101436696D01*
X118711832Y-101463980D01*
X118759495Y-101462867D01*
X118801247Y-101439602D01*
X118836729Y-101410871D01*
X118836729Y-100548873D01*
X118801247Y-100520142D01*
X118767002Y-100499242D01*
X118739037Y-100491410D01*
X118708396Y-100500477D01*
X118708396Y-100500477D01*
G37*
X118708396Y-100500477D02*
X118676826Y-100520142D01*
X118641344Y-100548873D01*
X118641344Y-100976966D01*
X118641457Y-101102190D01*
X118641941Y-101200847D01*
X118643014Y-101276430D01*
X118644892Y-101332433D01*
X118647794Y-101372347D01*
X118651937Y-101399666D01*
X118657538Y-101417881D01*
X118664815Y-101430486D01*
X118669976Y-101436696D01*
X118711832Y-101463980D01*
X118759495Y-101462867D01*
X118801247Y-101439602D01*
X118836729Y-101410871D01*
X118836729Y-100548873D01*
X118801247Y-100520142D01*
X118767002Y-100499242D01*
X118739037Y-100491410D01*
X118708396Y-100500477D01*
G36*
X117677323Y-100491539D02*
G01*
X117572535Y-100492043D01*
X117491201Y-100493096D01*
X117430020Y-100494876D01*
X117385689Y-100497557D01*
X117354906Y-100501314D01*
X117334369Y-100506325D01*
X117320775Y-100512763D01*
X117314197Y-100517712D01*
X117280056Y-100561029D01*
X117275926Y-100606003D01*
X117297024Y-100646860D01*
X117310821Y-100663186D01*
X117325668Y-100674318D01*
X117347185Y-100681250D01*
X117380992Y-100684977D01*
X117432708Y-100686494D01*
X117507953Y-100686794D01*
X117522731Y-100686795D01*
X117717025Y-100686795D01*
X117717025Y-101047505D01*
X117717153Y-101161201D01*
X117717734Y-101248685D01*
X117719064Y-101313802D01*
X117721440Y-101360398D01*
X117725156Y-101392319D01*
X117730508Y-101413412D01*
X117737793Y-101427523D01*
X117747084Y-101438274D01*
X117790929Y-101464696D01*
X117836700Y-101462614D01*
X117878210Y-101432469D01*
X117881259Y-101428733D01*
X117891188Y-101414610D01*
X117898752Y-101398086D01*
X117904271Y-101375146D01*
X117908067Y-101341773D01*
X117910458Y-101293955D01*
X117911766Y-101227674D01*
X117912309Y-101138918D01*
X117912409Y-101037963D01*
X117912409Y-100686795D01*
X118097950Y-100686795D01*
X118177573Y-100686256D01*
X118232696Y-100684157D01*
X118268868Y-100679771D01*
X118291638Y-100672376D01*
X118306553Y-100661245D01*
X118308364Y-100659310D01*
X118330142Y-100615057D01*
X118328216Y-100565029D01*
X118303179Y-100521470D01*
X118293496Y-100513020D01*
X118281012Y-100506321D01*
X118262397Y-100501169D01*
X118234323Y-100497361D01*
X118193459Y-100494697D01*
X118136478Y-100492972D01*
X118060048Y-100491984D01*
X117960843Y-100491532D01*
X117835531Y-100491412D01*
X117808867Y-100491410D01*
X117677323Y-100491539D01*
X117677323Y-100491539D01*
G37*
X117677323Y-100491539D02*
X117572535Y-100492043D01*
X117491201Y-100493096D01*
X117430020Y-100494876D01*
X117385689Y-100497557D01*
X117354906Y-100501314D01*
X117334369Y-100506325D01*
X117320775Y-100512763D01*
X117314197Y-100517712D01*
X117280056Y-100561029D01*
X117275926Y-100606003D01*
X117297024Y-100646860D01*
X117310821Y-100663186D01*
X117325668Y-100674318D01*
X117347185Y-100681250D01*
X117380992Y-100684977D01*
X117432708Y-100686494D01*
X117507953Y-100686794D01*
X117522731Y-100686795D01*
X117717025Y-100686795D01*
X117717025Y-101047505D01*
X117717153Y-101161201D01*
X117717734Y-101248685D01*
X117719064Y-101313802D01*
X117721440Y-101360398D01*
X117725156Y-101392319D01*
X117730508Y-101413412D01*
X117737793Y-101427523D01*
X117747084Y-101438274D01*
X117790929Y-101464696D01*
X117836700Y-101462614D01*
X117878210Y-101432469D01*
X117881259Y-101428733D01*
X117891188Y-101414610D01*
X117898752Y-101398086D01*
X117904271Y-101375146D01*
X117908067Y-101341773D01*
X117910458Y-101293955D01*
X117911766Y-101227674D01*
X117912309Y-101138918D01*
X117912409Y-101037963D01*
X117912409Y-100686795D01*
X118097950Y-100686795D01*
X118177573Y-100686256D01*
X118232696Y-100684157D01*
X118268868Y-100679771D01*
X118291638Y-100672376D01*
X118306553Y-100661245D01*
X118308364Y-100659310D01*
X118330142Y-100615057D01*
X118328216Y-100565029D01*
X118303179Y-100521470D01*
X118293496Y-100513020D01*
X118281012Y-100506321D01*
X118262397Y-100501169D01*
X118234323Y-100497361D01*
X118193459Y-100494697D01*
X118136478Y-100492972D01*
X118060048Y-100491984D01*
X117960843Y-100491532D01*
X117835531Y-100491412D01*
X117808867Y-100491410D01*
X117677323Y-100491539D01*
G36*
X115992141Y-100498688D02*
G01*
X115950365Y-100528301D01*
X115913475Y-100565192D01*
X115913475Y-100977162D01*
X115913571Y-101099486D01*
X115914028Y-101195398D01*
X115915097Y-101268544D01*
X115917029Y-101322570D01*
X115920077Y-101361123D01*
X115924491Y-101387848D01*
X115930524Y-101406394D01*
X115938426Y-101420405D01*
X115944625Y-101428733D01*
X115985539Y-101461449D01*
X116032518Y-101465000D01*
X116075456Y-101444937D01*
X116089644Y-101433092D01*
X116099128Y-101417358D01*
X116104849Y-101392022D01*
X116107747Y-101351370D01*
X116108762Y-101289688D01*
X116108859Y-101242038D01*
X116108859Y-101062535D01*
X116770161Y-101062535D01*
X116770161Y-101225833D01*
X116770845Y-101300505D01*
X116773581Y-101351824D01*
X116779396Y-101386477D01*
X116789316Y-101411155D01*
X116801311Y-101428733D01*
X116842454Y-101461357D01*
X116888983Y-101465220D01*
X116933527Y-101442032D01*
X116945688Y-101429876D01*
X116954277Y-101413761D01*
X116959942Y-101388660D01*
X116963331Y-101349544D01*
X116965092Y-101291386D01*
X116965872Y-101209158D01*
X116965964Y-101190286D01*
X116966608Y-101035357D01*
X116966940Y-100907674D01*
X116966832Y-100804427D01*
X116966155Y-100722803D01*
X116964782Y-100659992D01*
X116962584Y-100613181D01*
X116959434Y-100579559D01*
X116955202Y-100556315D01*
X116949762Y-100540636D01*
X116942985Y-100529711D01*
X116935486Y-100521470D01*
X116893067Y-100495107D01*
X116848828Y-100498688D01*
X116807052Y-100528301D01*
X116790147Y-100547407D01*
X116779371Y-100568511D01*
X116773359Y-100598568D01*
X116770744Y-100644533D01*
X116770161Y-100713360D01*
X116770161Y-100867150D01*
X116108859Y-100867150D01*
X116108859Y-100709339D01*
X116108184Y-100636636D01*
X116105474Y-100587545D01*
X116099699Y-100555636D01*
X116089831Y-100534478D01*
X116078800Y-100521470D01*
X116036381Y-100495107D01*
X115992141Y-100498688D01*
X115992141Y-100498688D01*
G37*
X115992141Y-100498688D02*
X115950365Y-100528301D01*
X115913475Y-100565192D01*
X115913475Y-100977162D01*
X115913571Y-101099486D01*
X115914028Y-101195398D01*
X115915097Y-101268544D01*
X115917029Y-101322570D01*
X115920077Y-101361123D01*
X115924491Y-101387848D01*
X115930524Y-101406394D01*
X115938426Y-101420405D01*
X115944625Y-101428733D01*
X115985539Y-101461449D01*
X116032518Y-101465000D01*
X116075456Y-101444937D01*
X116089644Y-101433092D01*
X116099128Y-101417358D01*
X116104849Y-101392022D01*
X116107747Y-101351370D01*
X116108762Y-101289688D01*
X116108859Y-101242038D01*
X116108859Y-101062535D01*
X116770161Y-101062535D01*
X116770161Y-101225833D01*
X116770845Y-101300505D01*
X116773581Y-101351824D01*
X116779396Y-101386477D01*
X116789316Y-101411155D01*
X116801311Y-101428733D01*
X116842454Y-101461357D01*
X116888983Y-101465220D01*
X116933527Y-101442032D01*
X116945688Y-101429876D01*
X116954277Y-101413761D01*
X116959942Y-101388660D01*
X116963331Y-101349544D01*
X116965092Y-101291386D01*
X116965872Y-101209158D01*
X116965964Y-101190286D01*
X116966608Y-101035357D01*
X116966940Y-100907674D01*
X116966832Y-100804427D01*
X116966155Y-100722803D01*
X116964782Y-100659992D01*
X116962584Y-100613181D01*
X116959434Y-100579559D01*
X116955202Y-100556315D01*
X116949762Y-100540636D01*
X116942985Y-100529711D01*
X116935486Y-100521470D01*
X116893067Y-100495107D01*
X116848828Y-100498688D01*
X116807052Y-100528301D01*
X116790147Y-100547407D01*
X116779371Y-100568511D01*
X116773359Y-100598568D01*
X116770744Y-100644533D01*
X116770161Y-100713360D01*
X116770161Y-100867150D01*
X116108859Y-100867150D01*
X116108859Y-100709339D01*
X116108184Y-100636636D01*
X116105474Y-100587545D01*
X116099699Y-100555636D01*
X116089831Y-100534478D01*
X116078800Y-100521470D01*
X116036381Y-100495107D01*
X115992141Y-100498688D01*
G36*
X128062318Y-91968933D02*
G01*
X127926071Y-92016172D01*
X127799221Y-92090527D01*
X127685933Y-92191987D01*
X127590372Y-92320543D01*
X127547446Y-92401572D01*
X127510295Y-92514908D01*
X127492288Y-92645751D01*
X127494283Y-92780265D01*
X127516423Y-92902158D01*
X127576936Y-93051107D01*
X127664686Y-93180309D01*
X127775212Y-93287223D01*
X127904054Y-93369306D01*
X128046753Y-93424016D01*
X128198849Y-93448810D01*
X128355881Y-93441147D01*
X128433286Y-93424772D01*
X128584141Y-93366089D01*
X128718125Y-93276543D01*
X128832006Y-93158893D01*
X128922552Y-93015902D01*
X128930212Y-93000286D01*
X128956694Y-92941686D01*
X128973322Y-92892334D01*
X128982350Y-92840270D01*
X128986032Y-92773539D01*
X128986643Y-92700929D01*
X128985633Y-92613691D01*
X128981072Y-92550624D01*
X128970666Y-92499636D01*
X128952121Y-92448633D01*
X128929230Y-92398313D01*
X128843846Y-92255470D01*
X128738699Y-92139810D01*
X128617955Y-92051325D01*
X128485779Y-91990005D01*
X128346337Y-91955839D01*
X128203795Y-91948818D01*
X128062318Y-91968933D01*
X128062318Y-91968933D01*
G37*
X128062318Y-91968933D02*
X127926071Y-92016172D01*
X127799221Y-92090527D01*
X127685933Y-92191987D01*
X127590372Y-92320543D01*
X127547446Y-92401572D01*
X127510295Y-92514908D01*
X127492288Y-92645751D01*
X127494283Y-92780265D01*
X127516423Y-92902158D01*
X127576936Y-93051107D01*
X127664686Y-93180309D01*
X127775212Y-93287223D01*
X127904054Y-93369306D01*
X128046753Y-93424016D01*
X128198849Y-93448810D01*
X128355881Y-93441147D01*
X128433286Y-93424772D01*
X128584141Y-93366089D01*
X128718125Y-93276543D01*
X128832006Y-93158893D01*
X128922552Y-93015902D01*
X128930212Y-93000286D01*
X128956694Y-92941686D01*
X128973322Y-92892334D01*
X128982350Y-92840270D01*
X128986032Y-92773539D01*
X128986643Y-92700929D01*
X128985633Y-92613691D01*
X128981072Y-92550624D01*
X128970666Y-92499636D01*
X128952121Y-92448633D01*
X128929230Y-92398313D01*
X128843846Y-92255470D01*
X128738699Y-92139810D01*
X128617955Y-92051325D01*
X128485779Y-91990005D01*
X128346337Y-91955839D01*
X128203795Y-91948818D01*
X128062318Y-91968933D01*
G36*
X115418429Y-93185089D02*
G01*
X115264124Y-93185723D01*
X115211679Y-93186042D01*
X114490500Y-93190786D01*
X114481429Y-95957572D01*
X114480231Y-96332756D01*
X114479168Y-96673417D01*
X114478173Y-96981318D01*
X114477177Y-97258221D01*
X114476112Y-97505888D01*
X114474909Y-97726081D01*
X114473501Y-97920562D01*
X114471818Y-98091094D01*
X114469794Y-98239440D01*
X114467359Y-98367361D01*
X114464446Y-98476620D01*
X114460985Y-98568979D01*
X114456910Y-98646200D01*
X114452151Y-98710046D01*
X114446640Y-98762278D01*
X114440309Y-98804660D01*
X114433090Y-98838953D01*
X114424915Y-98866920D01*
X114415715Y-98890324D01*
X114405423Y-98910925D01*
X114393969Y-98930487D01*
X114381285Y-98950772D01*
X114367305Y-98973543D01*
X114364439Y-98978393D01*
X114316360Y-99060433D01*
X115706072Y-99050929D01*
X115715143Y-98898295D01*
X115720082Y-98825045D01*
X115725229Y-98782696D01*
X115732214Y-98765892D01*
X115742663Y-98769277D01*
X115751429Y-98778960D01*
X115789612Y-98814229D01*
X115851845Y-98859563D01*
X115929359Y-98909546D01*
X116013387Y-98958761D01*
X116095161Y-99001791D01*
X116157948Y-99030101D01*
X116305046Y-99076624D01*
X116473820Y-99109579D01*
X116651809Y-99127707D01*
X116826553Y-99129750D01*
X116985593Y-99114447D01*
X116988212Y-99114009D01*
X117205832Y-99059402D01*
X117409545Y-98972401D01*
X117597387Y-98854876D01*
X117767393Y-98708697D01*
X117917598Y-98535734D01*
X118046036Y-98337857D01*
X118150743Y-98116936D01*
X118207754Y-97953286D01*
X118245349Y-97816375D01*
X118273229Y-97683798D01*
X118292247Y-97547502D01*
X118303255Y-97399433D01*
X118307105Y-97231537D01*
X118305400Y-97094440D01*
X116966641Y-97094440D01*
X116960306Y-97324329D01*
X116940321Y-97522111D01*
X116906073Y-97689539D01*
X116856945Y-97828369D01*
X116792324Y-97940358D01*
X116711595Y-98027259D01*
X116618409Y-98088692D01*
X116569920Y-98111626D01*
X116527866Y-98125375D01*
X116480980Y-98131666D01*
X116417996Y-98132222D01*
X116350143Y-98129773D01*
X116216705Y-98118004D01*
X116111168Y-98094955D01*
X116078000Y-98083410D01*
X116002265Y-98049311D01*
X115922386Y-98006491D01*
X115887500Y-97985057D01*
X115796786Y-97925556D01*
X115796786Y-96039584D01*
X115896572Y-95979771D01*
X116035733Y-95912185D01*
X116177913Y-95872214D01*
X116317910Y-95859622D01*
X116450526Y-95874173D01*
X116570560Y-95915632D01*
X116672812Y-95983763D01*
X116705805Y-96016466D01*
X116785333Y-96123619D01*
X116849701Y-96253327D01*
X116899447Y-96407814D01*
X116935109Y-96589302D01*
X116957225Y-96800015D01*
X116966333Y-97042175D01*
X116966641Y-97094440D01*
X118305400Y-97094440D01*
X118304690Y-97037374D01*
X118289395Y-96738713D01*
X118258642Y-96469325D01*
X118211619Y-96225285D01*
X118147518Y-96002670D01*
X118065528Y-95797556D01*
X118036270Y-95736746D01*
X117918419Y-95538440D01*
X117776004Y-95362212D01*
X117612371Y-95210908D01*
X117430869Y-95087371D01*
X117234847Y-94994447D01*
X117117345Y-94956115D01*
X117001946Y-94933359D01*
X116863093Y-94919820D01*
X116712426Y-94915492D01*
X116561587Y-94920368D01*
X116422215Y-94934444D01*
X116310309Y-94956525D01*
X116177116Y-94999828D01*
X116048021Y-95055511D01*
X115935072Y-95117936D01*
X115874957Y-95160303D01*
X115833490Y-95191807D01*
X115804455Y-95210990D01*
X115797850Y-95213714D01*
X115795802Y-95196163D01*
X115793893Y-95145875D01*
X115792164Y-95066400D01*
X115790659Y-94961286D01*
X115789419Y-94834083D01*
X115788487Y-94688339D01*
X115787905Y-94527603D01*
X115787714Y-94363884D01*
X115787821Y-94154188D01*
X115788342Y-93977396D01*
X115789584Y-93830126D01*
X115791852Y-93708997D01*
X115795450Y-93610627D01*
X115800683Y-93531634D01*
X115807856Y-93468638D01*
X115817274Y-93418255D01*
X115829242Y-93377105D01*
X115844065Y-93341806D01*
X115862048Y-93308977D01*
X115883495Y-93275235D01*
X115886255Y-93271057D01*
X115913917Y-93227356D01*
X115930618Y-93197305D01*
X115932857Y-93190967D01*
X115915357Y-93188967D01*
X115865426Y-93187340D01*
X115786915Y-93186112D01*
X115683677Y-93185311D01*
X115559564Y-93184961D01*
X115418429Y-93185089D01*
X115418429Y-93185089D01*
G37*
X115418429Y-93185089D02*
X115264124Y-93185723D01*
X115211679Y-93186042D01*
X114490500Y-93190786D01*
X114481429Y-95957572D01*
X114480231Y-96332756D01*
X114479168Y-96673417D01*
X114478173Y-96981318D01*
X114477177Y-97258221D01*
X114476112Y-97505888D01*
X114474909Y-97726081D01*
X114473501Y-97920562D01*
X114471818Y-98091094D01*
X114469794Y-98239440D01*
X114467359Y-98367361D01*
X114464446Y-98476620D01*
X114460985Y-98568979D01*
X114456910Y-98646200D01*
X114452151Y-98710046D01*
X114446640Y-98762278D01*
X114440309Y-98804660D01*
X114433090Y-98838953D01*
X114424915Y-98866920D01*
X114415715Y-98890324D01*
X114405423Y-98910925D01*
X114393969Y-98930487D01*
X114381285Y-98950772D01*
X114367305Y-98973543D01*
X114364439Y-98978393D01*
X114316360Y-99060433D01*
X115706072Y-99050929D01*
X115715143Y-98898295D01*
X115720082Y-98825045D01*
X115725229Y-98782696D01*
X115732214Y-98765892D01*
X115742663Y-98769277D01*
X115751429Y-98778960D01*
X115789612Y-98814229D01*
X115851845Y-98859563D01*
X115929359Y-98909546D01*
X116013387Y-98958761D01*
X116095161Y-99001791D01*
X116157948Y-99030101D01*
X116305046Y-99076624D01*
X116473820Y-99109579D01*
X116651809Y-99127707D01*
X116826553Y-99129750D01*
X116985593Y-99114447D01*
X116988212Y-99114009D01*
X117205832Y-99059402D01*
X117409545Y-98972401D01*
X117597387Y-98854876D01*
X117767393Y-98708697D01*
X117917598Y-98535734D01*
X118046036Y-98337857D01*
X118150743Y-98116936D01*
X118207754Y-97953286D01*
X118245349Y-97816375D01*
X118273229Y-97683798D01*
X118292247Y-97547502D01*
X118303255Y-97399433D01*
X118307105Y-97231537D01*
X118305400Y-97094440D01*
X116966641Y-97094440D01*
X116960306Y-97324329D01*
X116940321Y-97522111D01*
X116906073Y-97689539D01*
X116856945Y-97828369D01*
X116792324Y-97940358D01*
X116711595Y-98027259D01*
X116618409Y-98088692D01*
X116569920Y-98111626D01*
X116527866Y-98125375D01*
X116480980Y-98131666D01*
X116417996Y-98132222D01*
X116350143Y-98129773D01*
X116216705Y-98118004D01*
X116111168Y-98094955D01*
X116078000Y-98083410D01*
X116002265Y-98049311D01*
X115922386Y-98006491D01*
X115887500Y-97985057D01*
X115796786Y-97925556D01*
X115796786Y-96039584D01*
X115896572Y-95979771D01*
X116035733Y-95912185D01*
X116177913Y-95872214D01*
X116317910Y-95859622D01*
X116450526Y-95874173D01*
X116570560Y-95915632D01*
X116672812Y-95983763D01*
X116705805Y-96016466D01*
X116785333Y-96123619D01*
X116849701Y-96253327D01*
X116899447Y-96407814D01*
X116935109Y-96589302D01*
X116957225Y-96800015D01*
X116966333Y-97042175D01*
X116966641Y-97094440D01*
X118305400Y-97094440D01*
X118304690Y-97037374D01*
X118289395Y-96738713D01*
X118258642Y-96469325D01*
X118211619Y-96225285D01*
X118147518Y-96002670D01*
X118065528Y-95797556D01*
X118036270Y-95736746D01*
X117918419Y-95538440D01*
X117776004Y-95362212D01*
X117612371Y-95210908D01*
X117430869Y-95087371D01*
X117234847Y-94994447D01*
X117117345Y-94956115D01*
X117001946Y-94933359D01*
X116863093Y-94919820D01*
X116712426Y-94915492D01*
X116561587Y-94920368D01*
X116422215Y-94934444D01*
X116310309Y-94956525D01*
X116177116Y-94999828D01*
X116048021Y-95055511D01*
X115935072Y-95117936D01*
X115874957Y-95160303D01*
X115833490Y-95191807D01*
X115804455Y-95210990D01*
X115797850Y-95213714D01*
X115795802Y-95196163D01*
X115793893Y-95145875D01*
X115792164Y-95066400D01*
X115790659Y-94961286D01*
X115789419Y-94834083D01*
X115788487Y-94688339D01*
X115787905Y-94527603D01*
X115787714Y-94363884D01*
X115787821Y-94154188D01*
X115788342Y-93977396D01*
X115789584Y-93830126D01*
X115791852Y-93708997D01*
X115795450Y-93610627D01*
X115800683Y-93531634D01*
X115807856Y-93468638D01*
X115817274Y-93418255D01*
X115829242Y-93377105D01*
X115844065Y-93341806D01*
X115862048Y-93308977D01*
X115883495Y-93275235D01*
X115886255Y-93271057D01*
X115913917Y-93227356D01*
X115930618Y-93197305D01*
X115932857Y-93190967D01*
X115915357Y-93188967D01*
X115865426Y-93187340D01*
X115786915Y-93186112D01*
X115683677Y-93185311D01*
X115559564Y-93184961D01*
X115418429Y-93185089D01*
G36*
X120274368Y-94912730D02*
G01*
X120184477Y-94919535D01*
X119927285Y-94953753D01*
X119699515Y-95008331D01*
X119500057Y-95084020D01*
X119327803Y-95181570D01*
X119181641Y-95301732D01*
X119060464Y-95445258D01*
X118963161Y-95612898D01*
X118892109Y-95794286D01*
X118874073Y-95852146D01*
X118858368Y-95906329D01*
X118844808Y-95959752D01*
X118833208Y-96015333D01*
X118823383Y-96075988D01*
X118815147Y-96144635D01*
X118808316Y-96224190D01*
X118802705Y-96317572D01*
X118798128Y-96427696D01*
X118794400Y-96557481D01*
X118791335Y-96709842D01*
X118788750Y-96887698D01*
X118786458Y-97093965D01*
X118784275Y-97331561D01*
X118782714Y-97517857D01*
X118772215Y-98796929D01*
X118704179Y-98920018D01*
X118671962Y-98979317D01*
X118647988Y-99025377D01*
X118636550Y-99049893D01*
X118636143Y-99051553D01*
X118653625Y-99053454D01*
X118703426Y-99055205D01*
X118781579Y-99056758D01*
X118884118Y-99058062D01*
X119007078Y-99059070D01*
X119146490Y-99059731D01*
X119298389Y-99059997D01*
X119316500Y-99060000D01*
X119996857Y-99060000D01*
X119996857Y-98905786D01*
X119998018Y-98836094D01*
X120001113Y-98782794D01*
X120005568Y-98754217D01*
X120007537Y-98751572D01*
X120025545Y-98762653D01*
X120062607Y-98791736D01*
X120110778Y-98832579D01*
X120111859Y-98833524D01*
X120199765Y-98898971D01*
X120310783Y-98964688D01*
X120432369Y-99024219D01*
X120551979Y-99071109D01*
X120604643Y-99087133D01*
X120709449Y-99107485D01*
X120838050Y-99120472D01*
X120978675Y-99125909D01*
X121119552Y-99123611D01*
X121248907Y-99113392D01*
X121339429Y-99098689D01*
X121561420Y-99033499D01*
X121761271Y-98940594D01*
X121937681Y-98821126D01*
X122089350Y-98676247D01*
X122214976Y-98507110D01*
X122313259Y-98314867D01*
X122355659Y-98198214D01*
X122382232Y-98084833D01*
X122399842Y-97948722D01*
X122407990Y-97802437D01*
X122407722Y-97781151D01*
X121180679Y-97781151D01*
X121170504Y-97889850D01*
X121136622Y-97980185D01*
X121074000Y-98063995D01*
X121049948Y-98088571D01*
X120964449Y-98155011D01*
X120865627Y-98197574D01*
X120747232Y-98218177D01*
X120622555Y-98219694D01*
X120504302Y-98209677D01*
X120413761Y-98190085D01*
X120374440Y-98175370D01*
X120303568Y-98135265D01*
X120228475Y-98078863D01*
X120159962Y-98015561D01*
X120108828Y-97954755D01*
X120095250Y-97932449D01*
X120084695Y-97901212D01*
X120077190Y-97851507D01*
X120072387Y-97778587D01*
X120069935Y-97677703D01*
X120069429Y-97581689D01*
X120069772Y-97469750D01*
X120071157Y-97388809D01*
X120074119Y-97333585D01*
X120079192Y-97298794D01*
X120086910Y-97279154D01*
X120097808Y-97269380D01*
X120101179Y-97267824D01*
X120130471Y-97263029D01*
X120188244Y-97259108D01*
X120266696Y-97256414D01*
X120358026Y-97255299D01*
X120377857Y-97255298D01*
X120499937Y-97257246D01*
X120594251Y-97263041D01*
X120669193Y-97273475D01*
X120731097Y-97288714D01*
X120884651Y-97346784D01*
X121005068Y-97418179D01*
X121093390Y-97504039D01*
X121150661Y-97605507D01*
X121177922Y-97723725D01*
X121180679Y-97781151D01*
X122407722Y-97781151D01*
X122406177Y-97658533D01*
X122393904Y-97529565D01*
X122384330Y-97477460D01*
X122323199Y-97283997D01*
X122230243Y-97105993D01*
X122107217Y-96945155D01*
X121955876Y-96803190D01*
X121777975Y-96681806D01*
X121575268Y-96582709D01*
X121402929Y-96522533D01*
X121287747Y-96490919D01*
X121177577Y-96466354D01*
X121065281Y-96448039D01*
X120943725Y-96435178D01*
X120805771Y-96426972D01*
X120644285Y-96422624D01*
X120498285Y-96421400D01*
X120065355Y-96420215D01*
X120073649Y-96290080D01*
X120097199Y-96148883D01*
X120147297Y-96027518D01*
X120221809Y-95929017D01*
X120318601Y-95856409D01*
X120403829Y-95820979D01*
X120525944Y-95798650D01*
X120671317Y-95795443D01*
X120833133Y-95810177D01*
X121004578Y-95841670D01*
X121178837Y-95888740D01*
X121349096Y-95950203D01*
X121472824Y-96006417D01*
X121532353Y-96035283D01*
X121577758Y-96055443D01*
X121600850Y-96063310D01*
X121602103Y-96063058D01*
X121610071Y-96045437D01*
X121629969Y-95998733D01*
X121659923Y-95927418D01*
X121698061Y-95835969D01*
X121742512Y-95728859D01*
X121787695Y-95619549D01*
X121968333Y-95181740D01*
X121839845Y-95160636D01*
X121784154Y-95150047D01*
X121700436Y-95132263D01*
X121595861Y-95108898D01*
X121477601Y-95081565D01*
X121352828Y-95051881D01*
X121303143Y-95039818D01*
X121088193Y-94989962D01*
X120900005Y-94952584D01*
X120731554Y-94926927D01*
X120575814Y-94912235D01*
X120425760Y-94907755D01*
X120274368Y-94912730D01*
X120274368Y-94912730D01*
G37*
X120274368Y-94912730D02*
X120184477Y-94919535D01*
X119927285Y-94953753D01*
X119699515Y-95008331D01*
X119500057Y-95084020D01*
X119327803Y-95181570D01*
X119181641Y-95301732D01*
X119060464Y-95445258D01*
X118963161Y-95612898D01*
X118892109Y-95794286D01*
X118874073Y-95852146D01*
X118858368Y-95906329D01*
X118844808Y-95959752D01*
X118833208Y-96015333D01*
X118823383Y-96075988D01*
X118815147Y-96144635D01*
X118808316Y-96224190D01*
X118802705Y-96317572D01*
X118798128Y-96427696D01*
X118794400Y-96557481D01*
X118791335Y-96709842D01*
X118788750Y-96887698D01*
X118786458Y-97093965D01*
X118784275Y-97331561D01*
X118782714Y-97517857D01*
X118772215Y-98796929D01*
X118704179Y-98920018D01*
X118671962Y-98979317D01*
X118647988Y-99025377D01*
X118636550Y-99049893D01*
X118636143Y-99051553D01*
X118653625Y-99053454D01*
X118703426Y-99055205D01*
X118781579Y-99056758D01*
X118884118Y-99058062D01*
X119007078Y-99059070D01*
X119146490Y-99059731D01*
X119298389Y-99059997D01*
X119316500Y-99060000D01*
X119996857Y-99060000D01*
X119996857Y-98905786D01*
X119998018Y-98836094D01*
X120001113Y-98782794D01*
X120005568Y-98754217D01*
X120007537Y-98751572D01*
X120025545Y-98762653D01*
X120062607Y-98791736D01*
X120110778Y-98832579D01*
X120111859Y-98833524D01*
X120199765Y-98898971D01*
X120310783Y-98964688D01*
X120432369Y-99024219D01*
X120551979Y-99071109D01*
X120604643Y-99087133D01*
X120709449Y-99107485D01*
X120838050Y-99120472D01*
X120978675Y-99125909D01*
X121119552Y-99123611D01*
X121248907Y-99113392D01*
X121339429Y-99098689D01*
X121561420Y-99033499D01*
X121761271Y-98940594D01*
X121937681Y-98821126D01*
X122089350Y-98676247D01*
X122214976Y-98507110D01*
X122313259Y-98314867D01*
X122355659Y-98198214D01*
X122382232Y-98084833D01*
X122399842Y-97948722D01*
X122407990Y-97802437D01*
X122407722Y-97781151D01*
X121180679Y-97781151D01*
X121170504Y-97889850D01*
X121136622Y-97980185D01*
X121074000Y-98063995D01*
X121049948Y-98088571D01*
X120964449Y-98155011D01*
X120865627Y-98197574D01*
X120747232Y-98218177D01*
X120622555Y-98219694D01*
X120504302Y-98209677D01*
X120413761Y-98190085D01*
X120374440Y-98175370D01*
X120303568Y-98135265D01*
X120228475Y-98078863D01*
X120159962Y-98015561D01*
X120108828Y-97954755D01*
X120095250Y-97932449D01*
X120084695Y-97901212D01*
X120077190Y-97851507D01*
X120072387Y-97778587D01*
X120069935Y-97677703D01*
X120069429Y-97581689D01*
X120069772Y-97469750D01*
X120071157Y-97388809D01*
X120074119Y-97333585D01*
X120079192Y-97298794D01*
X120086910Y-97279154D01*
X120097808Y-97269380D01*
X120101179Y-97267824D01*
X120130471Y-97263029D01*
X120188244Y-97259108D01*
X120266696Y-97256414D01*
X120358026Y-97255299D01*
X120377857Y-97255298D01*
X120499937Y-97257246D01*
X120594251Y-97263041D01*
X120669193Y-97273475D01*
X120731097Y-97288714D01*
X120884651Y-97346784D01*
X121005068Y-97418179D01*
X121093390Y-97504039D01*
X121150661Y-97605507D01*
X121177922Y-97723725D01*
X121180679Y-97781151D01*
X122407722Y-97781151D01*
X122406177Y-97658533D01*
X122393904Y-97529565D01*
X122384330Y-97477460D01*
X122323199Y-97283997D01*
X122230243Y-97105993D01*
X122107217Y-96945155D01*
X121955876Y-96803190D01*
X121777975Y-96681806D01*
X121575268Y-96582709D01*
X121402929Y-96522533D01*
X121287747Y-96490919D01*
X121177577Y-96466354D01*
X121065281Y-96448039D01*
X120943725Y-96435178D01*
X120805771Y-96426972D01*
X120644285Y-96422624D01*
X120498285Y-96421400D01*
X120065355Y-96420215D01*
X120073649Y-96290080D01*
X120097199Y-96148883D01*
X120147297Y-96027518D01*
X120221809Y-95929017D01*
X120318601Y-95856409D01*
X120403829Y-95820979D01*
X120525944Y-95798650D01*
X120671317Y-95795443D01*
X120833133Y-95810177D01*
X121004578Y-95841670D01*
X121178837Y-95888740D01*
X121349096Y-95950203D01*
X121472824Y-96006417D01*
X121532353Y-96035283D01*
X121577758Y-96055443D01*
X121600850Y-96063310D01*
X121602103Y-96063058D01*
X121610071Y-96045437D01*
X121629969Y-95998733D01*
X121659923Y-95927418D01*
X121698061Y-95835969D01*
X121742512Y-95728859D01*
X121787695Y-95619549D01*
X121968333Y-95181740D01*
X121839845Y-95160636D01*
X121784154Y-95150047D01*
X121700436Y-95132263D01*
X121595861Y-95108898D01*
X121477601Y-95081565D01*
X121352828Y-95051881D01*
X121303143Y-95039818D01*
X121088193Y-94989962D01*
X120900005Y-94952584D01*
X120731554Y-94926927D01*
X120575814Y-94912235D01*
X120425760Y-94907755D01*
X120274368Y-94912730D01*
G36*
X123878622Y-93454231D02*
G01*
X123682981Y-93475649D01*
X123493438Y-93513985D01*
X123302283Y-93571238D01*
X123101804Y-93649409D01*
X122884292Y-93750496D01*
X122845120Y-93770076D01*
X122755228Y-93814362D01*
X122670447Y-93854239D01*
X122599145Y-93885898D01*
X122549690Y-93905532D01*
X122542092Y-93908004D01*
X122469286Y-93929817D01*
X122795197Y-94403944D01*
X122874877Y-94519823D01*
X122947728Y-94625694D01*
X123011270Y-94717962D01*
X123063028Y-94793033D01*
X123100523Y-94847313D01*
X123121277Y-94877207D01*
X123124649Y-94881941D01*
X123138345Y-94872042D01*
X123172057Y-94842285D01*
X123219756Y-94798073D01*
X123246080Y-94773084D01*
X123395228Y-94654456D01*
X123562732Y-94564313D01*
X123707072Y-94514936D01*
X123793717Y-94499429D01*
X123902204Y-94489979D01*
X124019773Y-94486761D01*
X124133666Y-94489951D01*
X124231121Y-94499724D01*
X124270010Y-94507209D01*
X124445288Y-94567512D01*
X124603235Y-94659590D01*
X124743732Y-94783273D01*
X124866665Y-94938393D01*
X124971915Y-95124781D01*
X125059365Y-95342270D01*
X125128900Y-95590692D01*
X125170225Y-95803357D01*
X125181006Y-95897241D01*
X125188352Y-96018524D01*
X125192333Y-96158493D01*
X125193021Y-96308431D01*
X125190486Y-96459622D01*
X125184800Y-96603351D01*
X125176033Y-96730903D01*
X125164256Y-96833562D01*
X125161707Y-96849401D01*
X125105519Y-97104536D01*
X125028964Y-97330342D01*
X124931574Y-97527831D01*
X124812886Y-97698014D01*
X124728637Y-97790022D01*
X124577230Y-97914943D01*
X124411183Y-98007540D01*
X124233299Y-98067309D01*
X124046378Y-98093746D01*
X123853222Y-98086348D01*
X123656631Y-98044611D01*
X123540403Y-98003771D01*
X123379562Y-97921990D01*
X123213787Y-97804678D01*
X123120927Y-97725345D01*
X123068786Y-97679429D01*
X123027820Y-97645742D01*
X123004502Y-97629510D01*
X123001607Y-97629015D01*
X122991200Y-97645601D01*
X122964233Y-97689432D01*
X122923004Y-97756748D01*
X122869811Y-97843794D01*
X122806950Y-97946810D01*
X122736719Y-98062041D01*
X122697628Y-98126231D01*
X122399036Y-98616677D01*
X122771839Y-98800915D01*
X122906631Y-98867093D01*
X123015825Y-98919278D01*
X123106093Y-98960060D01*
X123184112Y-98992033D01*
X123256556Y-99017787D01*
X123330099Y-99039914D01*
X123411416Y-99061007D01*
X123489357Y-99079530D01*
X123558634Y-99093863D01*
X123631083Y-99104694D01*
X123713958Y-99112626D01*
X123814512Y-99118258D01*
X123939997Y-99122192D01*
X124024572Y-99123891D01*
X124145246Y-99125050D01*
X124260958Y-99124465D01*
X124364049Y-99122304D01*
X124446862Y-99118732D01*
X124501740Y-99113917D01*
X124504992Y-99113437D01*
X124789957Y-99051786D01*
X125057558Y-98958285D01*
X125307703Y-98832993D01*
X125540296Y-98675974D01*
X125755243Y-98487289D01*
X125952450Y-98267000D01*
X126095273Y-98071214D01*
X126247320Y-97814949D01*
X126370227Y-97544317D01*
X126464590Y-97257149D01*
X126531001Y-96951276D01*
X126570056Y-96624528D01*
X126582360Y-96292739D01*
X126572241Y-95971779D01*
X126540439Y-95675646D01*
X126485946Y-95399345D01*
X126407750Y-95137881D01*
X126304841Y-94886258D01*
X126292553Y-94860190D01*
X126157180Y-94616507D01*
X125990911Y-94384618D01*
X125798459Y-94169323D01*
X125584534Y-93975422D01*
X125353845Y-93807715D01*
X125138891Y-93684696D01*
X124921742Y-93588345D01*
X124704132Y-93518551D01*
X124477638Y-93473413D01*
X124233834Y-93451031D01*
X124088072Y-93447731D01*
X123878622Y-93454231D01*
X123878622Y-93454231D01*
G37*
X123878622Y-93454231D02*
X123682981Y-93475649D01*
X123493438Y-93513985D01*
X123302283Y-93571238D01*
X123101804Y-93649409D01*
X122884292Y-93750496D01*
X122845120Y-93770076D01*
X122755228Y-93814362D01*
X122670447Y-93854239D01*
X122599145Y-93885898D01*
X122549690Y-93905532D01*
X122542092Y-93908004D01*
X122469286Y-93929817D01*
X122795197Y-94403944D01*
X122874877Y-94519823D01*
X122947728Y-94625694D01*
X123011270Y-94717962D01*
X123063028Y-94793033D01*
X123100523Y-94847313D01*
X123121277Y-94877207D01*
X123124649Y-94881941D01*
X123138345Y-94872042D01*
X123172057Y-94842285D01*
X123219756Y-94798073D01*
X123246080Y-94773084D01*
X123395228Y-94654456D01*
X123562732Y-94564313D01*
X123707072Y-94514936D01*
X123793717Y-94499429D01*
X123902204Y-94489979D01*
X124019773Y-94486761D01*
X124133666Y-94489951D01*
X124231121Y-94499724D01*
X124270010Y-94507209D01*
X124445288Y-94567512D01*
X124603235Y-94659590D01*
X124743732Y-94783273D01*
X124866665Y-94938393D01*
X124971915Y-95124781D01*
X125059365Y-95342270D01*
X125128900Y-95590692D01*
X125170225Y-95803357D01*
X125181006Y-95897241D01*
X125188352Y-96018524D01*
X125192333Y-96158493D01*
X125193021Y-96308431D01*
X125190486Y-96459622D01*
X125184800Y-96603351D01*
X125176033Y-96730903D01*
X125164256Y-96833562D01*
X125161707Y-96849401D01*
X125105519Y-97104536D01*
X125028964Y-97330342D01*
X124931574Y-97527831D01*
X124812886Y-97698014D01*
X124728637Y-97790022D01*
X124577230Y-97914943D01*
X124411183Y-98007540D01*
X124233299Y-98067309D01*
X124046378Y-98093746D01*
X123853222Y-98086348D01*
X123656631Y-98044611D01*
X123540403Y-98003771D01*
X123379562Y-97921990D01*
X123213787Y-97804678D01*
X123120927Y-97725345D01*
X123068786Y-97679429D01*
X123027820Y-97645742D01*
X123004502Y-97629510D01*
X123001607Y-97629015D01*
X122991200Y-97645601D01*
X122964233Y-97689432D01*
X122923004Y-97756748D01*
X122869811Y-97843794D01*
X122806950Y-97946810D01*
X122736719Y-98062041D01*
X122697628Y-98126231D01*
X122399036Y-98616677D01*
X122771839Y-98800915D01*
X122906631Y-98867093D01*
X123015825Y-98919278D01*
X123106093Y-98960060D01*
X123184112Y-98992033D01*
X123256556Y-99017787D01*
X123330099Y-99039914D01*
X123411416Y-99061007D01*
X123489357Y-99079530D01*
X123558634Y-99093863D01*
X123631083Y-99104694D01*
X123713958Y-99112626D01*
X123814512Y-99118258D01*
X123939997Y-99122192D01*
X124024572Y-99123891D01*
X124145246Y-99125050D01*
X124260958Y-99124465D01*
X124364049Y-99122304D01*
X124446862Y-99118732D01*
X124501740Y-99113917D01*
X124504992Y-99113437D01*
X124789957Y-99051786D01*
X125057558Y-98958285D01*
X125307703Y-98832993D01*
X125540296Y-98675974D01*
X125755243Y-98487289D01*
X125952450Y-98267000D01*
X126095273Y-98071214D01*
X126247320Y-97814949D01*
X126370227Y-97544317D01*
X126464590Y-97257149D01*
X126531001Y-96951276D01*
X126570056Y-96624528D01*
X126582360Y-96292739D01*
X126572241Y-95971779D01*
X126540439Y-95675646D01*
X126485946Y-95399345D01*
X126407750Y-95137881D01*
X126304841Y-94886258D01*
X126292553Y-94860190D01*
X126157180Y-94616507D01*
X125990911Y-94384618D01*
X125798459Y-94169323D01*
X125584534Y-93975422D01*
X125353845Y-93807715D01*
X125138891Y-93684696D01*
X124921742Y-93588345D01*
X124704132Y-93518551D01*
X124477638Y-93473413D01*
X124233834Y-93451031D01*
X124088072Y-93447731D01*
X123878622Y-93454231D01*
G36*
X132330089Y-92546660D02*
G01*
X131980540Y-92546707D01*
X131817830Y-92546714D01*
X129213429Y-92546715D01*
X129213429Y-92700238D01*
X129197043Y-92887063D01*
X129147588Y-93059367D01*
X129064620Y-93218175D01*
X128947695Y-93364510D01*
X128908136Y-93404032D01*
X128765830Y-93516138D01*
X128608922Y-93597899D01*
X128442072Y-93649353D01*
X128269939Y-93670537D01*
X128097185Y-93661487D01*
X127928470Y-93622242D01*
X127768454Y-93552838D01*
X127621798Y-93453311D01*
X127555932Y-93393265D01*
X127433192Y-93246043D01*
X127343188Y-93084147D01*
X127286706Y-92909427D01*
X127264529Y-92723735D01*
X127264234Y-92705467D01*
X127263072Y-92546720D01*
X127193300Y-92546717D01*
X127131405Y-92555118D01*
X127074865Y-92575556D01*
X127071128Y-92577667D01*
X127058358Y-92584293D01*
X127046632Y-92589454D01*
X127035906Y-92594651D01*
X127026139Y-92601390D01*
X127017288Y-92611171D01*
X127009311Y-92625500D01*
X127002165Y-92645878D01*
X126995808Y-92673808D01*
X126990198Y-92710795D01*
X126985293Y-92758340D01*
X126981049Y-92817947D01*
X126977424Y-92891119D01*
X126974377Y-92979359D01*
X126971864Y-93084170D01*
X126969844Y-93207055D01*
X126968274Y-93349517D01*
X126967112Y-93513060D01*
X126966314Y-93699186D01*
X126965840Y-93909398D01*
X126965646Y-94145200D01*
X126965690Y-94408094D01*
X126965930Y-94699584D01*
X126966323Y-95021172D01*
X126966827Y-95374362D01*
X126967400Y-95760657D01*
X126967999Y-96181560D01*
X126968068Y-96232840D01*
X126968605Y-96656426D01*
X126969061Y-97045230D01*
X126969484Y-97400753D01*
X126969921Y-97724498D01*
X126970422Y-98017966D01*
X126971035Y-98282661D01*
X126971808Y-98520085D01*
X126972789Y-98731740D01*
X126974026Y-98919129D01*
X126975568Y-99083754D01*
X126977463Y-99227117D01*
X126979759Y-99350720D01*
X126982504Y-99456067D01*
X126985747Y-99544659D01*
X126989536Y-99618000D01*
X126993919Y-99677590D01*
X126998945Y-99724933D01*
X127004661Y-99761531D01*
X127011116Y-99788886D01*
X127018359Y-99808502D01*
X127026437Y-99821879D01*
X127035398Y-99830521D01*
X127045292Y-99835930D01*
X127056165Y-99839608D01*
X127068067Y-99843058D01*
X127081046Y-99847782D01*
X127084217Y-99849220D01*
X127094181Y-99852451D01*
X127110859Y-99855420D01*
X127135707Y-99858137D01*
X127170180Y-99860613D01*
X127215736Y-99862858D01*
X127273830Y-99864883D01*
X127345919Y-99866698D01*
X127433458Y-99868315D01*
X127537905Y-99869743D01*
X127660715Y-99870993D01*
X127803345Y-99872076D01*
X127967251Y-99873002D01*
X128153890Y-99873782D01*
X128364716Y-99874426D01*
X128601188Y-99874946D01*
X128864761Y-99875351D01*
X129156890Y-99875652D01*
X129479034Y-99875860D01*
X129832647Y-99875985D01*
X130219186Y-99876038D01*
X130640108Y-99876029D01*
X130776456Y-99876016D01*
X131206716Y-99875947D01*
X131602164Y-99875834D01*
X131964273Y-99875665D01*
X132294517Y-99875430D01*
X132594371Y-99875116D01*
X132865308Y-99874713D01*
X133108800Y-99874207D01*
X133326323Y-99873589D01*
X133519350Y-99872846D01*
X133689354Y-99871968D01*
X133837810Y-99870941D01*
X133966190Y-99869756D01*
X134075969Y-99868400D01*
X134168620Y-99866862D01*
X134245617Y-99865130D01*
X134308434Y-99863194D01*
X134358544Y-99861040D01*
X134397421Y-99858659D01*
X134426538Y-99856037D01*
X134447371Y-99853165D01*
X134461391Y-99850030D01*
X134469034Y-99847159D01*
X134482618Y-99841430D01*
X134495090Y-99837206D01*
X134506498Y-99832985D01*
X134516889Y-99827268D01*
X134526309Y-99818555D01*
X134534808Y-99805345D01*
X134542430Y-99786137D01*
X134549225Y-99759433D01*
X134555238Y-99723730D01*
X134560517Y-99677530D01*
X134565110Y-99619332D01*
X134569064Y-99547635D01*
X134572425Y-99460940D01*
X134575241Y-99357746D01*
X134577560Y-99236553D01*
X134579428Y-99095860D01*
X134579916Y-99041857D01*
X134095704Y-99041857D01*
X132384256Y-99041857D01*
X132417187Y-98991964D01*
X132449947Y-98940693D01*
X132477689Y-98891869D01*
X132500807Y-98842076D01*
X132519697Y-98787898D01*
X132534751Y-98725916D01*
X132546367Y-98652715D01*
X132554936Y-98564878D01*
X132560856Y-98458988D01*
X132564519Y-98331628D01*
X132566321Y-98179381D01*
X132566656Y-97998832D01*
X132565919Y-97786562D01*
X132565501Y-97707755D01*
X132560786Y-96862911D01*
X132025572Y-97591557D01*
X131873946Y-97798265D01*
X131742581Y-97978260D01*
X131630057Y-98133925D01*
X131534957Y-98267647D01*
X131455862Y-98381809D01*
X131391353Y-98478797D01*
X131340012Y-98560994D01*
X131300420Y-98630786D01*
X131271160Y-98690558D01*
X131250812Y-98742693D01*
X131237958Y-98789576D01*
X131231181Y-98833593D01*
X131229060Y-98877127D01*
X131230179Y-98922564D01*
X131230464Y-98928275D01*
X131236357Y-99041933D01*
X129360771Y-99041857D01*
X129500278Y-98901189D01*
X129538135Y-98862715D01*
X129574047Y-98825279D01*
X129609593Y-98786814D01*
X129646347Y-98745258D01*
X129685886Y-98698545D01*
X129729786Y-98644610D01*
X129779623Y-98581390D01*
X129836972Y-98506818D01*
X129903411Y-98418832D01*
X129980515Y-98315365D01*
X130069861Y-98194354D01*
X130173024Y-98053734D01*
X130291580Y-97891440D01*
X130427105Y-97705407D01*
X130581177Y-97493571D01*
X130707462Y-97319804D01*
X130865954Y-97101501D01*
X131004216Y-96910629D01*
X131123499Y-96745374D01*
X131225057Y-96603926D01*
X131310141Y-96484471D01*
X131380005Y-96385198D01*
X131435900Y-96304295D01*
X131479080Y-96239949D01*
X131510797Y-96190347D01*
X131532302Y-96153679D01*
X131544850Y-96128132D01*
X131549692Y-96111893D01*
X131548237Y-96103355D01*
X131530599Y-96080635D01*
X131492466Y-96032543D01*
X131436138Y-95961938D01*
X131363916Y-95871678D01*
X131278101Y-95764621D01*
X131180994Y-95643627D01*
X131074896Y-95511554D01*
X130962109Y-95371260D01*
X130844932Y-95225603D01*
X130725667Y-95077444D01*
X130660067Y-94996000D01*
X129031314Y-94996000D01*
X128963621Y-95118465D01*
X128895929Y-95240929D01*
X128895929Y-98796929D01*
X128963621Y-98919393D01*
X129031314Y-99041857D01*
X128230559Y-99041857D01*
X128039398Y-99041802D01*
X127881501Y-99041551D01*
X127753848Y-99040979D01*
X127653419Y-99039959D01*
X127577193Y-99038365D01*
X127522148Y-99036070D01*
X127485264Y-99032950D01*
X127463521Y-99028877D01*
X127453898Y-99023725D01*
X127453373Y-99017367D01*
X127458926Y-99009679D01*
X127458984Y-99009615D01*
X127481860Y-98976524D01*
X127512151Y-98922719D01*
X127538903Y-98869008D01*
X127589643Y-98760643D01*
X127594818Y-96878322D01*
X127599993Y-94996000D01*
X129031314Y-94996000D01*
X130660067Y-94996000D01*
X130606615Y-94929639D01*
X130490077Y-94785047D01*
X130378354Y-94646528D01*
X130273746Y-94516939D01*
X130178556Y-94399140D01*
X130095083Y-94295988D01*
X130025629Y-94210343D01*
X129972494Y-94145062D01*
X129941285Y-94107000D01*
X129820097Y-93964670D01*
X129703507Y-93836230D01*
X129595603Y-93725886D01*
X129500470Y-93637841D01*
X129432957Y-93583862D01*
X129353127Y-93526429D01*
X131189108Y-93526429D01*
X131188592Y-93634165D01*
X131193724Y-93713372D01*
X131213015Y-93786805D01*
X131242877Y-93856415D01*
X131262288Y-93895741D01*
X131283159Y-93934707D01*
X131307396Y-93975901D01*
X131336906Y-94021908D01*
X131373594Y-94075317D01*
X131419368Y-94138714D01*
X131476135Y-94214685D01*
X131545800Y-94305817D01*
X131630270Y-94414698D01*
X131731453Y-94543914D01*
X131851253Y-94696052D01*
X131991579Y-94873698D01*
X132007429Y-94893742D01*
X132560786Y-95593508D01*
X132566143Y-94818504D01*
X132567221Y-94586368D01*
X132566992Y-94389846D01*
X132565443Y-94228292D01*
X132562563Y-94101056D01*
X132558341Y-94007492D01*
X132552766Y-93946952D01*
X132550893Y-93935468D01*
X132521495Y-93814499D01*
X132482978Y-93705446D01*
X132439026Y-93617763D01*
X132412621Y-93580574D01*
X132367060Y-93526429D01*
X133231530Y-93526429D01*
X133437745Y-93526605D01*
X133610188Y-93527179D01*
X133751373Y-93528217D01*
X133863812Y-93529787D01*
X133950017Y-93531954D01*
X134012502Y-93534788D01*
X134053779Y-93538353D01*
X134076360Y-93542718D01*
X134082759Y-93547949D01*
X134082317Y-93549107D01*
X134063991Y-93576769D01*
X134033396Y-93620615D01*
X134017567Y-93642791D01*
X134001202Y-93664920D01*
X133986492Y-93684709D01*
X133973344Y-93704106D01*
X133961667Y-93725058D01*
X133951368Y-93749512D01*
X133942354Y-93779416D01*
X133934532Y-93816717D01*
X133927809Y-93863363D01*
X133922094Y-93921301D01*
X133917293Y-93992479D01*
X133913315Y-94078844D01*
X133910065Y-94182344D01*
X133907452Y-94304925D01*
X133905383Y-94448537D01*
X133903766Y-94615125D01*
X133902507Y-94806637D01*
X133901515Y-95025022D01*
X133900696Y-95272226D01*
X133899958Y-95550196D01*
X133899209Y-95860881D01*
X133898508Y-96146300D01*
X133897847Y-96464492D01*
X133897503Y-96768077D01*
X133897468Y-97055115D01*
X133897732Y-97323669D01*
X133898285Y-97571798D01*
X133899120Y-97797563D01*
X133900227Y-97999026D01*
X133901596Y-98174246D01*
X133903219Y-98321286D01*
X133905087Y-98438206D01*
X133907189Y-98523067D01*
X133909518Y-98573929D01*
X133909959Y-98579304D01*
X133926008Y-98702613D01*
X133951064Y-98801644D01*
X133989221Y-98888070D01*
X134044572Y-98973565D01*
X134051496Y-98982893D01*
X134095704Y-99041857D01*
X134579916Y-99041857D01*
X134580892Y-98934168D01*
X134582001Y-98749976D01*
X134582801Y-98541784D01*
X134583339Y-98308091D01*
X134583662Y-98047398D01*
X134583817Y-97758204D01*
X134583854Y-97439009D01*
X134583817Y-97088313D01*
X134583755Y-96704614D01*
X134583715Y-96286414D01*
X134583714Y-96203393D01*
X134583691Y-95780789D01*
X134583612Y-95392981D01*
X134583467Y-95038480D01*
X134583244Y-94715797D01*
X134582931Y-94423442D01*
X134582517Y-94159927D01*
X134581991Y-93923762D01*
X134581340Y-93713458D01*
X134580553Y-93527526D01*
X134579619Y-93364475D01*
X134578526Y-93222818D01*
X134577263Y-93101064D01*
X134575817Y-92997725D01*
X134574179Y-92911311D01*
X134572334Y-92840333D01*
X134570274Y-92783301D01*
X134567985Y-92738727D01*
X134565456Y-92705121D01*
X134562676Y-92680993D01*
X134559633Y-92664856D01*
X134556316Y-92655218D01*
X134556193Y-92654978D01*
X134549360Y-92640255D01*
X134543670Y-92626926D01*
X134537374Y-92614922D01*
X134528728Y-92604173D01*
X134515986Y-92594611D01*
X134497400Y-92586167D01*
X134471226Y-92578771D01*
X134435716Y-92572354D01*
X134389125Y-92566848D01*
X134329707Y-92562183D01*
X134255715Y-92558291D01*
X134165403Y-92555102D01*
X134057025Y-92552547D01*
X133928835Y-92550558D01*
X133779087Y-92549065D01*
X133606034Y-92547998D01*
X133407931Y-92547291D01*
X133183031Y-92546872D01*
X132929588Y-92546673D01*
X132645856Y-92546626D01*
X132330089Y-92546660D01*
X132330089Y-92546660D01*
G37*
X132330089Y-92546660D02*
X131980540Y-92546707D01*
X131817830Y-92546714D01*
X129213429Y-92546715D01*
X129213429Y-92700238D01*
X129197043Y-92887063D01*
X129147588Y-93059367D01*
X129064620Y-93218175D01*
X128947695Y-93364510D01*
X128908136Y-93404032D01*
X128765830Y-93516138D01*
X128608922Y-93597899D01*
X128442072Y-93649353D01*
X128269939Y-93670537D01*
X128097185Y-93661487D01*
X127928470Y-93622242D01*
X127768454Y-93552838D01*
X127621798Y-93453311D01*
X127555932Y-93393265D01*
X127433192Y-93246043D01*
X127343188Y-93084147D01*
X127286706Y-92909427D01*
X127264529Y-92723735D01*
X127264234Y-92705467D01*
X127263072Y-92546720D01*
X127193300Y-92546717D01*
X127131405Y-92555118D01*
X127074865Y-92575556D01*
X127071128Y-92577667D01*
X127058358Y-92584293D01*
X127046632Y-92589454D01*
X127035906Y-92594651D01*
X127026139Y-92601390D01*
X127017288Y-92611171D01*
X127009311Y-92625500D01*
X127002165Y-92645878D01*
X126995808Y-92673808D01*
X126990198Y-92710795D01*
X126985293Y-92758340D01*
X126981049Y-92817947D01*
X126977424Y-92891119D01*
X126974377Y-92979359D01*
X126971864Y-93084170D01*
X126969844Y-93207055D01*
X126968274Y-93349517D01*
X126967112Y-93513060D01*
X126966314Y-93699186D01*
X126965840Y-93909398D01*
X126965646Y-94145200D01*
X126965690Y-94408094D01*
X126965930Y-94699584D01*
X126966323Y-95021172D01*
X126966827Y-95374362D01*
X126967400Y-95760657D01*
X126967999Y-96181560D01*
X126968068Y-96232840D01*
X126968605Y-96656426D01*
X126969061Y-97045230D01*
X126969484Y-97400753D01*
X126969921Y-97724498D01*
X126970422Y-98017966D01*
X126971035Y-98282661D01*
X126971808Y-98520085D01*
X126972789Y-98731740D01*
X126974026Y-98919129D01*
X126975568Y-99083754D01*
X126977463Y-99227117D01*
X126979759Y-99350720D01*
X126982504Y-99456067D01*
X126985747Y-99544659D01*
X126989536Y-99618000D01*
X126993919Y-99677590D01*
X126998945Y-99724933D01*
X127004661Y-99761531D01*
X127011116Y-99788886D01*
X127018359Y-99808502D01*
X127026437Y-99821879D01*
X127035398Y-99830521D01*
X127045292Y-99835930D01*
X127056165Y-99839608D01*
X127068067Y-99843058D01*
X127081046Y-99847782D01*
X127084217Y-99849220D01*
X127094181Y-99852451D01*
X127110859Y-99855420D01*
X127135707Y-99858137D01*
X127170180Y-99860613D01*
X127215736Y-99862858D01*
X127273830Y-99864883D01*
X127345919Y-99866698D01*
X127433458Y-99868315D01*
X127537905Y-99869743D01*
X127660715Y-99870993D01*
X127803345Y-99872076D01*
X127967251Y-99873002D01*
X128153890Y-99873782D01*
X128364716Y-99874426D01*
X128601188Y-99874946D01*
X128864761Y-99875351D01*
X129156890Y-99875652D01*
X129479034Y-99875860D01*
X129832647Y-99875985D01*
X130219186Y-99876038D01*
X130640108Y-99876029D01*
X130776456Y-99876016D01*
X131206716Y-99875947D01*
X131602164Y-99875834D01*
X131964273Y-99875665D01*
X132294517Y-99875430D01*
X132594371Y-99875116D01*
X132865308Y-99874713D01*
X133108800Y-99874207D01*
X133326323Y-99873589D01*
X133519350Y-99872846D01*
X133689354Y-99871968D01*
X133837810Y-99870941D01*
X133966190Y-99869756D01*
X134075969Y-99868400D01*
X134168620Y-99866862D01*
X134245617Y-99865130D01*
X134308434Y-99863194D01*
X134358544Y-99861040D01*
X134397421Y-99858659D01*
X134426538Y-99856037D01*
X134447371Y-99853165D01*
X134461391Y-99850030D01*
X134469034Y-99847159D01*
X134482618Y-99841430D01*
X134495090Y-99837206D01*
X134506498Y-99832985D01*
X134516889Y-99827268D01*
X134526309Y-99818555D01*
X134534808Y-99805345D01*
X134542430Y-99786137D01*
X134549225Y-99759433D01*
X134555238Y-99723730D01*
X134560517Y-99677530D01*
X134565110Y-99619332D01*
X134569064Y-99547635D01*
X134572425Y-99460940D01*
X134575241Y-99357746D01*
X134577560Y-99236553D01*
X134579428Y-99095860D01*
X134579916Y-99041857D01*
X134095704Y-99041857D01*
X132384256Y-99041857D01*
X132417187Y-98991964D01*
X132449947Y-98940693D01*
X132477689Y-98891869D01*
X132500807Y-98842076D01*
X132519697Y-98787898D01*
X132534751Y-98725916D01*
X132546367Y-98652715D01*
X132554936Y-98564878D01*
X132560856Y-98458988D01*
X132564519Y-98331628D01*
X132566321Y-98179381D01*
X132566656Y-97998832D01*
X132565919Y-97786562D01*
X132565501Y-97707755D01*
X132560786Y-96862911D01*
X132025572Y-97591557D01*
X131873946Y-97798265D01*
X131742581Y-97978260D01*
X131630057Y-98133925D01*
X131534957Y-98267647D01*
X131455862Y-98381809D01*
X131391353Y-98478797D01*
X131340012Y-98560994D01*
X131300420Y-98630786D01*
X131271160Y-98690558D01*
X131250812Y-98742693D01*
X131237958Y-98789576D01*
X131231181Y-98833593D01*
X131229060Y-98877127D01*
X131230179Y-98922564D01*
X131230464Y-98928275D01*
X131236357Y-99041933D01*
X129360771Y-99041857D01*
X129500278Y-98901189D01*
X129538135Y-98862715D01*
X129574047Y-98825279D01*
X129609593Y-98786814D01*
X129646347Y-98745258D01*
X129685886Y-98698545D01*
X129729786Y-98644610D01*
X129779623Y-98581390D01*
X129836972Y-98506818D01*
X129903411Y-98418832D01*
X129980515Y-98315365D01*
X130069861Y-98194354D01*
X130173024Y-98053734D01*
X130291580Y-97891440D01*
X130427105Y-97705407D01*
X130581177Y-97493571D01*
X130707462Y-97319804D01*
X130865954Y-97101501D01*
X131004216Y-96910629D01*
X131123499Y-96745374D01*
X131225057Y-96603926D01*
X131310141Y-96484471D01*
X131380005Y-96385198D01*
X131435900Y-96304295D01*
X131479080Y-96239949D01*
X131510797Y-96190347D01*
X131532302Y-96153679D01*
X131544850Y-96128132D01*
X131549692Y-96111893D01*
X131548237Y-96103355D01*
X131530599Y-96080635D01*
X131492466Y-96032543D01*
X131436138Y-95961938D01*
X131363916Y-95871678D01*
X131278101Y-95764621D01*
X131180994Y-95643627D01*
X131074896Y-95511554D01*
X130962109Y-95371260D01*
X130844932Y-95225603D01*
X130725667Y-95077444D01*
X130660067Y-94996000D01*
X129031314Y-94996000D01*
X128963621Y-95118465D01*
X128895929Y-95240929D01*
X128895929Y-98796929D01*
X128963621Y-98919393D01*
X129031314Y-99041857D01*
X128230559Y-99041857D01*
X128039398Y-99041802D01*
X127881501Y-99041551D01*
X127753848Y-99040979D01*
X127653419Y-99039959D01*
X127577193Y-99038365D01*
X127522148Y-99036070D01*
X127485264Y-99032950D01*
X127463521Y-99028877D01*
X127453898Y-99023725D01*
X127453373Y-99017367D01*
X127458926Y-99009679D01*
X127458984Y-99009615D01*
X127481860Y-98976524D01*
X127512151Y-98922719D01*
X127538903Y-98869008D01*
X127589643Y-98760643D01*
X127594818Y-96878322D01*
X127599993Y-94996000D01*
X129031314Y-94996000D01*
X130660067Y-94996000D01*
X130606615Y-94929639D01*
X130490077Y-94785047D01*
X130378354Y-94646528D01*
X130273746Y-94516939D01*
X130178556Y-94399140D01*
X130095083Y-94295988D01*
X130025629Y-94210343D01*
X129972494Y-94145062D01*
X129941285Y-94107000D01*
X129820097Y-93964670D01*
X129703507Y-93836230D01*
X129595603Y-93725886D01*
X129500470Y-93637841D01*
X129432957Y-93583862D01*
X129353127Y-93526429D01*
X131189108Y-93526429D01*
X131188592Y-93634165D01*
X131193724Y-93713372D01*
X131213015Y-93786805D01*
X131242877Y-93856415D01*
X131262288Y-93895741D01*
X131283159Y-93934707D01*
X131307396Y-93975901D01*
X131336906Y-94021908D01*
X131373594Y-94075317D01*
X131419368Y-94138714D01*
X131476135Y-94214685D01*
X131545800Y-94305817D01*
X131630270Y-94414698D01*
X131731453Y-94543914D01*
X131851253Y-94696052D01*
X131991579Y-94873698D01*
X132007429Y-94893742D01*
X132560786Y-95593508D01*
X132566143Y-94818504D01*
X132567221Y-94586368D01*
X132566992Y-94389846D01*
X132565443Y-94228292D01*
X132562563Y-94101056D01*
X132558341Y-94007492D01*
X132552766Y-93946952D01*
X132550893Y-93935468D01*
X132521495Y-93814499D01*
X132482978Y-93705446D01*
X132439026Y-93617763D01*
X132412621Y-93580574D01*
X132367060Y-93526429D01*
X133231530Y-93526429D01*
X133437745Y-93526605D01*
X133610188Y-93527179D01*
X133751373Y-93528217D01*
X133863812Y-93529787D01*
X133950017Y-93531954D01*
X134012502Y-93534788D01*
X134053779Y-93538353D01*
X134076360Y-93542718D01*
X134082759Y-93547949D01*
X134082317Y-93549107D01*
X134063991Y-93576769D01*
X134033396Y-93620615D01*
X134017567Y-93642791D01*
X134001202Y-93664920D01*
X133986492Y-93684709D01*
X133973344Y-93704106D01*
X133961667Y-93725058D01*
X133951368Y-93749512D01*
X133942354Y-93779416D01*
X133934532Y-93816717D01*
X133927809Y-93863363D01*
X133922094Y-93921301D01*
X133917293Y-93992479D01*
X133913315Y-94078844D01*
X133910065Y-94182344D01*
X133907452Y-94304925D01*
X133905383Y-94448537D01*
X133903766Y-94615125D01*
X133902507Y-94806637D01*
X133901515Y-95025022D01*
X133900696Y-95272226D01*
X133899958Y-95550196D01*
X133899209Y-95860881D01*
X133898508Y-96146300D01*
X133897847Y-96464492D01*
X133897503Y-96768077D01*
X133897468Y-97055115D01*
X133897732Y-97323669D01*
X133898285Y-97571798D01*
X133899120Y-97797563D01*
X133900227Y-97999026D01*
X133901596Y-98174246D01*
X133903219Y-98321286D01*
X133905087Y-98438206D01*
X133907189Y-98523067D01*
X133909518Y-98573929D01*
X133909959Y-98579304D01*
X133926008Y-98702613D01*
X133951064Y-98801644D01*
X133989221Y-98888070D01*
X134044572Y-98973565D01*
X134051496Y-98982893D01*
X134095704Y-99041857D01*
X134579916Y-99041857D01*
X134580892Y-98934168D01*
X134582001Y-98749976D01*
X134582801Y-98541784D01*
X134583339Y-98308091D01*
X134583662Y-98047398D01*
X134583817Y-97758204D01*
X134583854Y-97439009D01*
X134583817Y-97088313D01*
X134583755Y-96704614D01*
X134583715Y-96286414D01*
X134583714Y-96203393D01*
X134583691Y-95780789D01*
X134583612Y-95392981D01*
X134583467Y-95038480D01*
X134583244Y-94715797D01*
X134582931Y-94423442D01*
X134582517Y-94159927D01*
X134581991Y-93923762D01*
X134581340Y-93713458D01*
X134580553Y-93527526D01*
X134579619Y-93364475D01*
X134578526Y-93222818D01*
X134577263Y-93101064D01*
X134575817Y-92997725D01*
X134574179Y-92911311D01*
X134572334Y-92840333D01*
X134570274Y-92783301D01*
X134567985Y-92738727D01*
X134565456Y-92705121D01*
X134562676Y-92680993D01*
X134559633Y-92664856D01*
X134556316Y-92655218D01*
X134556193Y-92654978D01*
X134549360Y-92640255D01*
X134543670Y-92626926D01*
X134537374Y-92614922D01*
X134528728Y-92604173D01*
X134515986Y-92594611D01*
X134497400Y-92586167D01*
X134471226Y-92578771D01*
X134435716Y-92572354D01*
X134389125Y-92566848D01*
X134329707Y-92562183D01*
X134255715Y-92558291D01*
X134165403Y-92555102D01*
X134057025Y-92552547D01*
X133928835Y-92550558D01*
X133779087Y-92549065D01*
X133606034Y-92547998D01*
X133407931Y-92547291D01*
X133183031Y-92546872D01*
X132929588Y-92546673D01*
X132645856Y-92546626D01*
X132330089Y-92546660D01*
G36*
X122269250Y-65935679D02*
G01*
X120024072Y-65935679D01*
X120024072Y-63667821D01*
X118844786Y-63667821D01*
X118844786Y-69428179D01*
X120024072Y-69428179D01*
X120024072Y-66910430D01*
X121140992Y-66916313D01*
X122257911Y-66922196D01*
X122263773Y-68175187D01*
X122269635Y-69428179D01*
X123448536Y-69428179D01*
X123448536Y-63667821D01*
X122269250Y-63667821D01*
X122269250Y-65935679D01*
X122269250Y-65935679D01*
G37*
X122269250Y-65935679D02*
X120024072Y-65935679D01*
X120024072Y-63667821D01*
X118844786Y-63667821D01*
X118844786Y-69428179D01*
X120024072Y-69428179D01*
X120024072Y-66910430D01*
X121140992Y-66916313D01*
X122257911Y-66922196D01*
X122263773Y-68175187D01*
X122269635Y-69428179D01*
X123448536Y-69428179D01*
X123448536Y-63667821D01*
X122269250Y-63667821D01*
X122269250Y-65935679D01*
G36*
X132559652Y-63675046D02*
G01*
X132203405Y-63677765D01*
X131885134Y-63680980D01*
X131605855Y-63684670D01*
X131366584Y-63688814D01*
X131168337Y-63693391D01*
X131012129Y-63698380D01*
X130898976Y-63703760D01*
X130829893Y-63709511D01*
X130819072Y-63711099D01*
X130608570Y-63752224D01*
X130434407Y-63797936D01*
X130287567Y-63852363D01*
X130159035Y-63919632D01*
X130039796Y-64003868D01*
X129920832Y-64109200D01*
X129895601Y-64133833D01*
X129800109Y-64232505D01*
X129729593Y-64317383D01*
X129673450Y-64402807D01*
X129621081Y-64503117D01*
X129618266Y-64509002D01*
X129549130Y-64664744D01*
X129500871Y-64803619D01*
X129470223Y-64940648D01*
X129453921Y-65090856D01*
X129448700Y-65269265D01*
X129448662Y-65289339D01*
X129460560Y-65543293D01*
X129498139Y-65765428D01*
X129564225Y-65963104D01*
X129661644Y-66143679D01*
X129793221Y-66314513D01*
X129875789Y-66401652D01*
X129986577Y-66504558D01*
X130097505Y-66590462D01*
X130216579Y-66663341D01*
X130351806Y-66727170D01*
X130511190Y-66785928D01*
X130702739Y-66843590D01*
X130838572Y-66879866D01*
X130914769Y-66899518D01*
X130747858Y-67012581D01*
X130578055Y-67143003D01*
X130403000Y-67305436D01*
X130233086Y-67489314D01*
X130078705Y-67684076D01*
X130055854Y-67715946D01*
X130016862Y-67773149D01*
X129960238Y-67858945D01*
X129888977Y-67968589D01*
X129806073Y-68097336D01*
X129714522Y-68240441D01*
X129617316Y-68393156D01*
X129517452Y-68550738D01*
X129417923Y-68708440D01*
X129321725Y-68861517D01*
X129231851Y-69005224D01*
X129151297Y-69134814D01*
X129083057Y-69245542D01*
X129030125Y-69332663D01*
X128995497Y-69391431D01*
X128982166Y-69417101D01*
X128982108Y-69417531D01*
X129003875Y-69420164D01*
X129065530Y-69422560D01*
X129161605Y-69424635D01*
X129286631Y-69426308D01*
X129435140Y-69427494D01*
X129601662Y-69428110D01*
X129681188Y-69428179D01*
X130380268Y-69428179D01*
X130959583Y-68560723D01*
X131084485Y-68374423D01*
X131207316Y-68192574D01*
X131324628Y-68020186D01*
X131432972Y-67862272D01*
X131528901Y-67723840D01*
X131608965Y-67609902D01*
X131669718Y-67525469D01*
X131697559Y-67488342D01*
X131817728Y-67345055D01*
X131934606Y-67234516D01*
X132056570Y-67152885D01*
X132191996Y-67096317D01*
X132349261Y-67060969D01*
X132536742Y-67043000D01*
X132677396Y-67038833D01*
X132962197Y-67035589D01*
X132973937Y-69428179D01*
X134152822Y-69428179D01*
X134152822Y-64665679D01*
X132973536Y-64665679D01*
X132973536Y-66094429D01*
X132264831Y-66094242D01*
X132078818Y-66093453D01*
X131897682Y-66091309D01*
X131729074Y-66088006D01*
X131580647Y-66083736D01*
X131460052Y-66078691D01*
X131374939Y-66073066D01*
X131357973Y-66071352D01*
X131179380Y-66043016D01*
X131037586Y-66001701D01*
X130925140Y-65944377D01*
X130834588Y-65868017D01*
X130821031Y-65853147D01*
X130728162Y-65715636D01*
X130672813Y-65555632D01*
X130654080Y-65370452D01*
X130654109Y-65357375D01*
X130673450Y-65172068D01*
X130728341Y-65014920D01*
X130818889Y-64885785D01*
X130945199Y-64784518D01*
X131107381Y-64710974D01*
X131137209Y-64701608D01*
X131175810Y-64692059D01*
X131224016Y-64684305D01*
X131286547Y-64678172D01*
X131368123Y-64673487D01*
X131473465Y-64670077D01*
X131607292Y-64667768D01*
X131774324Y-64666388D01*
X131979282Y-64665763D01*
X132115867Y-64665679D01*
X132973536Y-64665679D01*
X134152822Y-64665679D01*
X134152822Y-63664576D01*
X132559652Y-63675046D01*
X132559652Y-63675046D01*
G37*
X132559652Y-63675046D02*
X132203405Y-63677765D01*
X131885134Y-63680980D01*
X131605855Y-63684670D01*
X131366584Y-63688814D01*
X131168337Y-63693391D01*
X131012129Y-63698380D01*
X130898976Y-63703760D01*
X130829893Y-63709511D01*
X130819072Y-63711099D01*
X130608570Y-63752224D01*
X130434407Y-63797936D01*
X130287567Y-63852363D01*
X130159035Y-63919632D01*
X130039796Y-64003868D01*
X129920832Y-64109200D01*
X129895601Y-64133833D01*
X129800109Y-64232505D01*
X129729593Y-64317383D01*
X129673450Y-64402807D01*
X129621081Y-64503117D01*
X129618266Y-64509002D01*
X129549130Y-64664744D01*
X129500871Y-64803619D01*
X129470223Y-64940648D01*
X129453921Y-65090856D01*
X129448700Y-65269265D01*
X129448662Y-65289339D01*
X129460560Y-65543293D01*
X129498139Y-65765428D01*
X129564225Y-65963104D01*
X129661644Y-66143679D01*
X129793221Y-66314513D01*
X129875789Y-66401652D01*
X129986577Y-66504558D01*
X130097505Y-66590462D01*
X130216579Y-66663341D01*
X130351806Y-66727170D01*
X130511190Y-66785928D01*
X130702739Y-66843590D01*
X130838572Y-66879866D01*
X130914769Y-66899518D01*
X130747858Y-67012581D01*
X130578055Y-67143003D01*
X130403000Y-67305436D01*
X130233086Y-67489314D01*
X130078705Y-67684076D01*
X130055854Y-67715946D01*
X130016862Y-67773149D01*
X129960238Y-67858945D01*
X129888977Y-67968589D01*
X129806073Y-68097336D01*
X129714522Y-68240441D01*
X129617316Y-68393156D01*
X129517452Y-68550738D01*
X129417923Y-68708440D01*
X129321725Y-68861517D01*
X129231851Y-69005224D01*
X129151297Y-69134814D01*
X129083057Y-69245542D01*
X129030125Y-69332663D01*
X128995497Y-69391431D01*
X128982166Y-69417101D01*
X128982108Y-69417531D01*
X129003875Y-69420164D01*
X129065530Y-69422560D01*
X129161605Y-69424635D01*
X129286631Y-69426308D01*
X129435140Y-69427494D01*
X129601662Y-69428110D01*
X129681188Y-69428179D01*
X130380268Y-69428179D01*
X130959583Y-68560723D01*
X131084485Y-68374423D01*
X131207316Y-68192574D01*
X131324628Y-68020186D01*
X131432972Y-67862272D01*
X131528901Y-67723840D01*
X131608965Y-67609902D01*
X131669718Y-67525469D01*
X131697559Y-67488342D01*
X131817728Y-67345055D01*
X131934606Y-67234516D01*
X132056570Y-67152885D01*
X132191996Y-67096317D01*
X132349261Y-67060969D01*
X132536742Y-67043000D01*
X132677396Y-67038833D01*
X132962197Y-67035589D01*
X132973937Y-69428179D01*
X134152822Y-69428179D01*
X134152822Y-64665679D01*
X132973536Y-64665679D01*
X132973536Y-66094429D01*
X132264831Y-66094242D01*
X132078818Y-66093453D01*
X131897682Y-66091309D01*
X131729074Y-66088006D01*
X131580647Y-66083736D01*
X131460052Y-66078691D01*
X131374939Y-66073066D01*
X131357973Y-66071352D01*
X131179380Y-66043016D01*
X131037586Y-66001701D01*
X130925140Y-65944377D01*
X130834588Y-65868017D01*
X130821031Y-65853147D01*
X130728162Y-65715636D01*
X130672813Y-65555632D01*
X130654080Y-65370452D01*
X130654109Y-65357375D01*
X130673450Y-65172068D01*
X130728341Y-65014920D01*
X130818889Y-64885785D01*
X130945199Y-64784518D01*
X131107381Y-64710974D01*
X131137209Y-64701608D01*
X131175810Y-64692059D01*
X131224016Y-64684305D01*
X131286547Y-64678172D01*
X131368123Y-64673487D01*
X131473465Y-64670077D01*
X131607292Y-64667768D01*
X131774324Y-64666388D01*
X131979282Y-64665763D01*
X132115867Y-64665679D01*
X132973536Y-64665679D01*
X134152822Y-64665679D01*
X134152822Y-63664576D01*
X132559652Y-63675046D01*
G36*
X115211368Y-63592987D02*
G01*
X114982044Y-63620497D01*
X114772005Y-63664937D01*
X114573167Y-63727711D01*
X114377443Y-63810226D01*
X114334294Y-63831023D01*
X114100692Y-63969313D01*
X113900626Y-64137953D01*
X113733669Y-64337436D01*
X113599395Y-64568254D01*
X113512673Y-64783363D01*
X113476002Y-64911355D01*
X113447305Y-65046596D01*
X113432333Y-65158670D01*
X113418759Y-65334696D01*
X113484050Y-65335926D01*
X113525078Y-65337067D01*
X113604009Y-65339586D01*
X113713421Y-65343232D01*
X113845888Y-65347758D01*
X113993986Y-65352914D01*
X114070947Y-65355628D01*
X114592554Y-65374101D01*
X114633818Y-65213734D01*
X114703413Y-65020995D01*
X114804259Y-64859979D01*
X114935130Y-64732046D01*
X115094796Y-64638559D01*
X115182197Y-64606041D01*
X115287178Y-64582995D01*
X115423136Y-64567055D01*
X115576193Y-64558596D01*
X115732471Y-64557994D01*
X115878091Y-64565626D01*
X115999176Y-64581866D01*
X116007975Y-64583673D01*
X116184166Y-64634343D01*
X116337669Y-64704861D01*
X116461745Y-64791180D01*
X116549654Y-64889252D01*
X116567614Y-64919686D01*
X116590546Y-64996025D01*
X116598469Y-65095458D01*
X116591310Y-65198256D01*
X116568996Y-65284685D01*
X116568968Y-65284752D01*
X116533033Y-65344107D01*
X116477638Y-65409327D01*
X116450593Y-65435116D01*
X116391127Y-65482232D01*
X116321786Y-65526289D01*
X116238107Y-65568901D01*
X116135623Y-65611682D01*
X116009870Y-65656248D01*
X115856382Y-65704213D01*
X115670695Y-65757192D01*
X115448343Y-65816799D01*
X115261572Y-65865103D01*
X114947726Y-65949297D01*
X114674822Y-66031583D01*
X114438622Y-66114098D01*
X114234893Y-66198977D01*
X114059399Y-66288357D01*
X113907904Y-66384375D01*
X113776172Y-66489167D01*
X113659969Y-66604868D01*
X113564353Y-66721166D01*
X113455493Y-66893468D01*
X113365480Y-67090798D01*
X113302603Y-67294074D01*
X113290595Y-67351585D01*
X113272948Y-67493109D01*
X113265452Y-67658686D01*
X113267737Y-67832673D01*
X113279431Y-67999429D01*
X113300161Y-68143314D01*
X113310500Y-68189401D01*
X113374921Y-68380721D01*
X113468890Y-68578214D01*
X113583367Y-68764207D01*
X113649697Y-68852613D01*
X113824931Y-69033408D01*
X114035869Y-69188166D01*
X114280406Y-69315908D01*
X114556439Y-69415654D01*
X114861864Y-69486424D01*
X115075363Y-69516445D01*
X115251568Y-69530327D01*
X115447978Y-69537306D01*
X115650388Y-69537504D01*
X115844591Y-69531046D01*
X116016384Y-69518055D01*
X116100679Y-69507498D01*
X116410659Y-69446740D01*
X116685119Y-69362451D01*
X116928539Y-69252486D01*
X117145396Y-69114698D01*
X117340171Y-68946942D01*
X117399960Y-68885078D01*
X117546421Y-68699526D01*
X117676431Y-68480745D01*
X117785371Y-68239292D01*
X117868625Y-67985725D01*
X117921577Y-67730601D01*
X117928594Y-67676259D01*
X117935909Y-67603101D01*
X117934244Y-67564161D01*
X117920374Y-67548666D01*
X117891072Y-67545842D01*
X117889546Y-67545840D01*
X117851163Y-67543702D01*
X117775371Y-67537746D01*
X117669897Y-67528644D01*
X117542467Y-67517066D01*
X117400807Y-67503683D01*
X117370679Y-67500775D01*
X117196704Y-67483879D01*
X117062576Y-67471213D01*
X116962970Y-67462932D01*
X116892558Y-67459190D01*
X116846015Y-67460139D01*
X116818014Y-67465934D01*
X116803229Y-67476728D01*
X116796334Y-67492676D01*
X116792003Y-67513932D01*
X116791262Y-67517509D01*
X116760098Y-67632752D01*
X116714167Y-67765631D01*
X116660504Y-67898014D01*
X116606146Y-68011769D01*
X116584757Y-68049702D01*
X116461119Y-68211918D01*
X116305584Y-68342475D01*
X116119213Y-68440873D01*
X115903069Y-68506616D01*
X115658211Y-68539205D01*
X115533715Y-68542927D01*
X115280819Y-68528309D01*
X115060672Y-68483989D01*
X114871151Y-68409266D01*
X114710132Y-68303440D01*
X114653691Y-68252697D01*
X114541104Y-68117232D01*
X114467341Y-67972532D01*
X114432985Y-67824086D01*
X114438618Y-67677380D01*
X114484822Y-67537904D01*
X114565211Y-67418925D01*
X114615783Y-67367365D01*
X114674781Y-67320122D01*
X114746371Y-67275619D01*
X114834716Y-67232280D01*
X114943981Y-67188527D01*
X115078331Y-67142785D01*
X115241931Y-67093477D01*
X115438944Y-67039026D01*
X115673535Y-66977856D01*
X115844333Y-66934699D01*
X116196527Y-66837589D01*
X116505895Y-66733409D01*
X116771885Y-66622386D01*
X116993941Y-66504745D01*
X117139813Y-66405843D01*
X117328422Y-66233709D01*
X117482216Y-66036385D01*
X117600167Y-65818946D01*
X117681243Y-65586465D01*
X117724416Y-65344017D01*
X117728654Y-65096677D01*
X117692927Y-64849518D01*
X117616206Y-64607616D01*
X117537930Y-64444799D01*
X117413116Y-64261077D01*
X117252471Y-64089503D01*
X117065341Y-63938164D01*
X116861070Y-63815145D01*
X116753279Y-63765905D01*
X116586646Y-63703619D01*
X116426098Y-63656682D01*
X116260149Y-63622980D01*
X116077311Y-63600400D01*
X115866097Y-63586826D01*
X115760209Y-63583134D01*
X115468061Y-63581001D01*
X115211368Y-63592987D01*
X115211368Y-63592987D01*
G37*
X115211368Y-63592987D02*
X114982044Y-63620497D01*
X114772005Y-63664937D01*
X114573167Y-63727711D01*
X114377443Y-63810226D01*
X114334294Y-63831023D01*
X114100692Y-63969313D01*
X113900626Y-64137953D01*
X113733669Y-64337436D01*
X113599395Y-64568254D01*
X113512673Y-64783363D01*
X113476002Y-64911355D01*
X113447305Y-65046596D01*
X113432333Y-65158670D01*
X113418759Y-65334696D01*
X113484050Y-65335926D01*
X113525078Y-65337067D01*
X113604009Y-65339586D01*
X113713421Y-65343232D01*
X113845888Y-65347758D01*
X113993986Y-65352914D01*
X114070947Y-65355628D01*
X114592554Y-65374101D01*
X114633818Y-65213734D01*
X114703413Y-65020995D01*
X114804259Y-64859979D01*
X114935130Y-64732046D01*
X115094796Y-64638559D01*
X115182197Y-64606041D01*
X115287178Y-64582995D01*
X115423136Y-64567055D01*
X115576193Y-64558596D01*
X115732471Y-64557994D01*
X115878091Y-64565626D01*
X115999176Y-64581866D01*
X116007975Y-64583673D01*
X116184166Y-64634343D01*
X116337669Y-64704861D01*
X116461745Y-64791180D01*
X116549654Y-64889252D01*
X116567614Y-64919686D01*
X116590546Y-64996025D01*
X116598469Y-65095458D01*
X116591310Y-65198256D01*
X116568996Y-65284685D01*
X116568968Y-65284752D01*
X116533033Y-65344107D01*
X116477638Y-65409327D01*
X116450593Y-65435116D01*
X116391127Y-65482232D01*
X116321786Y-65526289D01*
X116238107Y-65568901D01*
X116135623Y-65611682D01*
X116009870Y-65656248D01*
X115856382Y-65704213D01*
X115670695Y-65757192D01*
X115448343Y-65816799D01*
X115261572Y-65865103D01*
X114947726Y-65949297D01*
X114674822Y-66031583D01*
X114438622Y-66114098D01*
X114234893Y-66198977D01*
X114059399Y-66288357D01*
X113907904Y-66384375D01*
X113776172Y-66489167D01*
X113659969Y-66604868D01*
X113564353Y-66721166D01*
X113455493Y-66893468D01*
X113365480Y-67090798D01*
X113302603Y-67294074D01*
X113290595Y-67351585D01*
X113272948Y-67493109D01*
X113265452Y-67658686D01*
X113267737Y-67832673D01*
X113279431Y-67999429D01*
X113300161Y-68143314D01*
X113310500Y-68189401D01*
X113374921Y-68380721D01*
X113468890Y-68578214D01*
X113583367Y-68764207D01*
X113649697Y-68852613D01*
X113824931Y-69033408D01*
X114035869Y-69188166D01*
X114280406Y-69315908D01*
X114556439Y-69415654D01*
X114861864Y-69486424D01*
X115075363Y-69516445D01*
X115251568Y-69530327D01*
X115447978Y-69537306D01*
X115650388Y-69537504D01*
X115844591Y-69531046D01*
X116016384Y-69518055D01*
X116100679Y-69507498D01*
X116410659Y-69446740D01*
X116685119Y-69362451D01*
X116928539Y-69252486D01*
X117145396Y-69114698D01*
X117340171Y-68946942D01*
X117399960Y-68885078D01*
X117546421Y-68699526D01*
X117676431Y-68480745D01*
X117785371Y-68239292D01*
X117868625Y-67985725D01*
X117921577Y-67730601D01*
X117928594Y-67676259D01*
X117935909Y-67603101D01*
X117934244Y-67564161D01*
X117920374Y-67548666D01*
X117891072Y-67545842D01*
X117889546Y-67545840D01*
X117851163Y-67543702D01*
X117775371Y-67537746D01*
X117669897Y-67528644D01*
X117542467Y-67517066D01*
X117400807Y-67503683D01*
X117370679Y-67500775D01*
X117196704Y-67483879D01*
X117062576Y-67471213D01*
X116962970Y-67462932D01*
X116892558Y-67459190D01*
X116846015Y-67460139D01*
X116818014Y-67465934D01*
X116803229Y-67476728D01*
X116796334Y-67492676D01*
X116792003Y-67513932D01*
X116791262Y-67517509D01*
X116760098Y-67632752D01*
X116714167Y-67765631D01*
X116660504Y-67898014D01*
X116606146Y-68011769D01*
X116584757Y-68049702D01*
X116461119Y-68211918D01*
X116305584Y-68342475D01*
X116119213Y-68440873D01*
X115903069Y-68506616D01*
X115658211Y-68539205D01*
X115533715Y-68542927D01*
X115280819Y-68528309D01*
X115060672Y-68483989D01*
X114871151Y-68409266D01*
X114710132Y-68303440D01*
X114653691Y-68252697D01*
X114541104Y-68117232D01*
X114467341Y-67972532D01*
X114432985Y-67824086D01*
X114438618Y-67677380D01*
X114484822Y-67537904D01*
X114565211Y-67418925D01*
X114615783Y-67367365D01*
X114674781Y-67320122D01*
X114746371Y-67275619D01*
X114834716Y-67232280D01*
X114943981Y-67188527D01*
X115078331Y-67142785D01*
X115241931Y-67093477D01*
X115438944Y-67039026D01*
X115673535Y-66977856D01*
X115844333Y-66934699D01*
X116196527Y-66837589D01*
X116505895Y-66733409D01*
X116771885Y-66622386D01*
X116993941Y-66504745D01*
X117139813Y-66405843D01*
X117328422Y-66233709D01*
X117482216Y-66036385D01*
X117600167Y-65818946D01*
X117681243Y-65586465D01*
X117724416Y-65344017D01*
X117728654Y-65096677D01*
X117692927Y-64849518D01*
X117616206Y-64607616D01*
X117537930Y-64444799D01*
X117413116Y-64261077D01*
X117252471Y-64089503D01*
X117065341Y-63938164D01*
X116861070Y-63815145D01*
X116753279Y-63765905D01*
X116586646Y-63703619D01*
X116426098Y-63656682D01*
X116260149Y-63622980D01*
X116077311Y-63600400D01*
X115866097Y-63586826D01*
X115760209Y-63583134D01*
X115468061Y-63581001D01*
X115211368Y-63592987D01*
G36*
X126464786Y-65178139D02*
G01*
X126313368Y-65179181D01*
X126196683Y-65182145D01*
X126104119Y-65188060D01*
X126025062Y-65197951D01*
X125948896Y-65212847D01*
X125865008Y-65233772D01*
X125851023Y-65237516D01*
X125560869Y-65338250D01*
X125293309Y-65476979D01*
X125051326Y-65651213D01*
X124837905Y-65858467D01*
X124656029Y-66096253D01*
X124513064Y-66352678D01*
X124429969Y-66556601D01*
X124371332Y-66765963D01*
X124334252Y-66993596D01*
X124317143Y-67219394D01*
X124320054Y-67553223D01*
X124359734Y-67861691D01*
X124437026Y-68147125D01*
X124552774Y-68411849D01*
X124707819Y-68658189D01*
X124903004Y-68888472D01*
X124932956Y-68918937D01*
X125154295Y-69114500D01*
X125388889Y-69269647D01*
X125644531Y-69388986D01*
X125833724Y-69451854D01*
X125951995Y-69477662D01*
X126101738Y-69498474D01*
X126269249Y-69513339D01*
X126440822Y-69521310D01*
X126602753Y-69521438D01*
X126730462Y-69513912D01*
X126967147Y-69474899D01*
X127211177Y-69406784D01*
X127450483Y-69314426D01*
X127672996Y-69202685D01*
X127866647Y-69076419D01*
X127918137Y-69035747D01*
X128111802Y-68845838D01*
X128276561Y-68623038D01*
X128410694Y-68370762D01*
X128512481Y-68092424D01*
X128580203Y-67791440D01*
X128594110Y-67693268D01*
X128616669Y-67349926D01*
X128616221Y-67341750D01*
X127467799Y-67341750D01*
X127454071Y-67611973D01*
X127410314Y-67849240D01*
X127335779Y-68055234D01*
X127229718Y-68231638D01*
X127091384Y-68380135D01*
X126963689Y-68475695D01*
X126857493Y-68537022D01*
X126757603Y-68576883D01*
X126649801Y-68598725D01*
X126519871Y-68605998D01*
X126430768Y-68604954D01*
X126314089Y-68599720D01*
X126227679Y-68589662D01*
X126156495Y-68571986D01*
X126085495Y-68543903D01*
X126074305Y-68538793D01*
X125940011Y-68458974D01*
X125808281Y-68349219D01*
X125694385Y-68223136D01*
X125651045Y-68161617D01*
X125574705Y-68009827D01*
X125515553Y-67826326D01*
X125475588Y-67622143D01*
X125456812Y-67408304D01*
X125461223Y-67195838D01*
X125466312Y-67143092D01*
X125503330Y-66913291D01*
X125559592Y-66719242D01*
X125637812Y-66554456D01*
X125740709Y-66412446D01*
X125797103Y-66352955D01*
X125957903Y-66225246D01*
X126134653Y-66136650D01*
X126321394Y-66087164D01*
X126512166Y-66076788D01*
X126701009Y-66105520D01*
X126881965Y-66173358D01*
X127049073Y-66280300D01*
X127130435Y-66353282D01*
X127254616Y-66500991D01*
X127348672Y-66666858D01*
X127414363Y-66856039D01*
X127453450Y-67073694D01*
X127467694Y-67324980D01*
X127467799Y-67341750D01*
X128616221Y-67341750D01*
X128598706Y-67022671D01*
X128540751Y-66713131D01*
X128443329Y-66422933D01*
X128306969Y-66153704D01*
X128132197Y-65907073D01*
X127953358Y-65715967D01*
X127736311Y-65540640D01*
X127488274Y-65393890D01*
X127216293Y-65279595D01*
X127086479Y-65239370D01*
X126999869Y-65216368D01*
X126925258Y-65199863D01*
X126852117Y-65188815D01*
X126769918Y-65182189D01*
X126668132Y-65178947D01*
X126536229Y-65178053D01*
X126464786Y-65178139D01*
X126464786Y-65178139D01*
G37*
X126464786Y-65178139D02*
X126313368Y-65179181D01*
X126196683Y-65182145D01*
X126104119Y-65188060D01*
X126025062Y-65197951D01*
X125948896Y-65212847D01*
X125865008Y-65233772D01*
X125851023Y-65237516D01*
X125560869Y-65338250D01*
X125293309Y-65476979D01*
X125051326Y-65651213D01*
X124837905Y-65858467D01*
X124656029Y-66096253D01*
X124513064Y-66352678D01*
X124429969Y-66556601D01*
X124371332Y-66765963D01*
X124334252Y-66993596D01*
X124317143Y-67219394D01*
X124320054Y-67553223D01*
X124359734Y-67861691D01*
X124437026Y-68147125D01*
X124552774Y-68411849D01*
X124707819Y-68658189D01*
X124903004Y-68888472D01*
X124932956Y-68918937D01*
X125154295Y-69114500D01*
X125388889Y-69269647D01*
X125644531Y-69388986D01*
X125833724Y-69451854D01*
X125951995Y-69477662D01*
X126101738Y-69498474D01*
X126269249Y-69513339D01*
X126440822Y-69521310D01*
X126602753Y-69521438D01*
X126730462Y-69513912D01*
X126967147Y-69474899D01*
X127211177Y-69406784D01*
X127450483Y-69314426D01*
X127672996Y-69202685D01*
X127866647Y-69076419D01*
X127918137Y-69035747D01*
X128111802Y-68845838D01*
X128276561Y-68623038D01*
X128410694Y-68370762D01*
X128512481Y-68092424D01*
X128580203Y-67791440D01*
X128594110Y-67693268D01*
X128616669Y-67349926D01*
X128616221Y-67341750D01*
X127467799Y-67341750D01*
X127454071Y-67611973D01*
X127410314Y-67849240D01*
X127335779Y-68055234D01*
X127229718Y-68231638D01*
X127091384Y-68380135D01*
X126963689Y-68475695D01*
X126857493Y-68537022D01*
X126757603Y-68576883D01*
X126649801Y-68598725D01*
X126519871Y-68605998D01*
X126430768Y-68604954D01*
X126314089Y-68599720D01*
X126227679Y-68589662D01*
X126156495Y-68571986D01*
X126085495Y-68543903D01*
X126074305Y-68538793D01*
X125940011Y-68458974D01*
X125808281Y-68349219D01*
X125694385Y-68223136D01*
X125651045Y-68161617D01*
X125574705Y-68009827D01*
X125515553Y-67826326D01*
X125475588Y-67622143D01*
X125456812Y-67408304D01*
X125461223Y-67195838D01*
X125466312Y-67143092D01*
X125503330Y-66913291D01*
X125559592Y-66719242D01*
X125637812Y-66554456D01*
X125740709Y-66412446D01*
X125797103Y-66352955D01*
X125957903Y-66225246D01*
X126134653Y-66136650D01*
X126321394Y-66087164D01*
X126512166Y-66076788D01*
X126701009Y-66105520D01*
X126881965Y-66173358D01*
X127049073Y-66280300D01*
X127130435Y-66353282D01*
X127254616Y-66500991D01*
X127348672Y-66666858D01*
X127414363Y-66856039D01*
X127453450Y-67073694D01*
X127467694Y-67324980D01*
X127467799Y-67341750D01*
X128616221Y-67341750D01*
X128598706Y-67022671D01*
X128540751Y-66713131D01*
X128443329Y-66422933D01*
X128306969Y-66153704D01*
X128132197Y-65907073D01*
X127953358Y-65715967D01*
X127736311Y-65540640D01*
X127488274Y-65393890D01*
X127216293Y-65279595D01*
X127086479Y-65239370D01*
X126999869Y-65216368D01*
X126925258Y-65199863D01*
X126852117Y-65188815D01*
X126769918Y-65182189D01*
X126668132Y-65178947D01*
X126536229Y-65178053D01*
X126464786Y-65178139D01*
M02*
