G04 #@! TF.GenerationSoftware,KiCad,Pcbnew,5.1.5-52549c5~84~ubuntu18.04.1*
G04 #@! TF.CreationDate,2020-01-05T10:41:31+01:00*
G04 #@! TF.ProjectId,PCB,5043422e-6b69-4636-9164-5f7063625858,rev?*
G04 #@! TF.SameCoordinates,Original*
G04 #@! TF.FileFunction,Legend,Bot*
G04 #@! TF.FilePolarity,Positive*
%FSLAX46Y46*%
G04 Gerber Fmt 4.6, Leading zero omitted, Abs format (unit mm)*
G04 Created by KiCad (PCBNEW 5.1.5-52549c5~84~ubuntu18.04.1) date 2020-01-05 10:41:31*
%MOMM*%
%LPD*%
G04 APERTURE LIST*
%ADD10C,0.300000*%
%ADD11C,0.050000*%
%ADD12C,0.010000*%
%ADD13C,0.120000*%
%ADD14C,0.150000*%
%ADD15C,0.099060*%
G04 APERTURE END LIST*
D10*
X91332857Y-112824285D02*
X91332857Y-113324285D01*
X92118571Y-113538571D02*
X92118571Y-112824285D01*
X90618571Y-112824285D01*
X90618571Y-113538571D01*
X90618571Y-114038571D02*
X90618571Y-114967142D01*
X91190000Y-114467142D01*
X91190000Y-114681428D01*
X91261428Y-114824285D01*
X91332857Y-114895714D01*
X91475714Y-114967142D01*
X91832857Y-114967142D01*
X91975714Y-114895714D01*
X92047142Y-114824285D01*
X92118571Y-114681428D01*
X92118571Y-114252857D01*
X92047142Y-114110000D01*
X91975714Y-114038571D01*
X90761428Y-115538571D02*
X90690000Y-115610000D01*
X90618571Y-115752857D01*
X90618571Y-116110000D01*
X90690000Y-116252857D01*
X90761428Y-116324285D01*
X90904285Y-116395714D01*
X91047142Y-116395714D01*
X91261428Y-116324285D01*
X92118571Y-115467142D01*
X92118571Y-116395714D01*
X91975714Y-117895714D02*
X92047142Y-117824285D01*
X92118571Y-117610000D01*
X92118571Y-117467142D01*
X92047142Y-117252857D01*
X91904285Y-117110000D01*
X91761428Y-117038571D01*
X91475714Y-116967142D01*
X91261428Y-116967142D01*
X90975714Y-117038571D01*
X90832857Y-117110000D01*
X90690000Y-117252857D01*
X90618571Y-117467142D01*
X90618571Y-117610000D01*
X90690000Y-117824285D01*
X90761428Y-117895714D01*
X91332857Y-119038571D02*
X91404285Y-119252857D01*
X91475714Y-119324285D01*
X91618571Y-119395714D01*
X91832857Y-119395714D01*
X91975714Y-119324285D01*
X92047142Y-119252857D01*
X92118571Y-119110000D01*
X92118571Y-118538571D01*
X90618571Y-118538571D01*
X90618571Y-119038571D01*
X90690000Y-119181428D01*
X90761428Y-119252857D01*
X90904285Y-119324285D01*
X91047142Y-119324285D01*
X91190000Y-119252857D01*
X91261428Y-119181428D01*
X91332857Y-119038571D01*
X91332857Y-118538571D01*
X92261428Y-119681428D02*
X92261428Y-120824285D01*
X92118571Y-122038571D02*
X91404285Y-121538571D01*
X92118571Y-121181428D02*
X90618571Y-121181428D01*
X90618571Y-121752857D01*
X90690000Y-121895714D01*
X90761428Y-121967142D01*
X90904285Y-122038571D01*
X91118571Y-122038571D01*
X91261428Y-121967142D01*
X91332857Y-121895714D01*
X91404285Y-121752857D01*
X91404285Y-121181428D01*
X90761428Y-122610000D02*
X90690000Y-122681428D01*
X90618571Y-122824285D01*
X90618571Y-123181428D01*
X90690000Y-123324285D01*
X90761428Y-123395714D01*
X90904285Y-123467142D01*
X91047142Y-123467142D01*
X91261428Y-123395714D01*
X92118571Y-122538571D01*
X92118571Y-123467142D01*
D11*
X86614000Y-45974000D02*
X208026000Y-45974000D01*
X208026000Y-45974000D02*
X208026000Y-56134000D01*
X86614000Y-56134000D02*
X86614000Y-45974000D01*
X208026000Y-136906000D02*
X86614000Y-136906000D01*
X208026000Y-56134000D02*
X208026000Y-136906000D01*
X86614000Y-136906000D02*
X86614000Y-56134000D01*
D12*
G36*
X154656744Y-75474337D02*
G01*
X154657567Y-75590066D01*
X155257885Y-76200000D01*
X155858204Y-76809934D01*
X155858641Y-77089835D01*
X155859079Y-77369737D01*
X156224663Y-77369737D01*
X156234083Y-77440756D01*
X156237650Y-77473127D01*
X156243662Y-77534087D01*
X156251799Y-77619998D01*
X156261738Y-77727226D01*
X156273157Y-77852133D01*
X156285736Y-77991083D01*
X156299153Y-78140441D01*
X156313085Y-78296568D01*
X156327212Y-78455830D01*
X156341212Y-78614590D01*
X156354763Y-78769211D01*
X156367544Y-78916057D01*
X156379233Y-79051493D01*
X156389508Y-79171880D01*
X156398048Y-79273584D01*
X156404531Y-79352967D01*
X156408636Y-79406394D01*
X156410041Y-79430229D01*
X156410040Y-79430342D01*
X156399796Y-79449466D01*
X156369026Y-79488955D01*
X156317311Y-79549266D01*
X156244233Y-79630861D01*
X156149373Y-79734198D01*
X156032313Y-79859738D01*
X155892633Y-80007940D01*
X155729916Y-80179263D01*
X155684179Y-80227237D01*
X154958805Y-80987566D01*
X155017449Y-81046052D01*
X155076092Y-81104539D01*
X155170974Y-81001310D01*
X155205685Y-80964003D01*
X155259906Y-80906311D01*
X155330059Y-80832013D01*
X155412568Y-80744889D01*
X155503855Y-80648718D01*
X155600342Y-80547280D01*
X155658065Y-80486695D01*
X155766434Y-80373197D01*
X155854028Y-80282285D01*
X155923080Y-80212307D01*
X155975824Y-80161610D01*
X156014494Y-80128540D01*
X156041323Y-80111444D01*
X156058544Y-80108669D01*
X156068392Y-80118563D01*
X156073099Y-80139471D01*
X156074899Y-80169741D01*
X156075141Y-80178002D01*
X156087658Y-80234909D01*
X156118497Y-80303693D01*
X156161503Y-80373475D01*
X156210520Y-80433378D01*
X156230134Y-80451882D01*
X156330770Y-80516628D01*
X156448327Y-80552854D01*
X156552262Y-80561447D01*
X156670049Y-80545239D01*
X156778831Y-80497712D01*
X156875110Y-80420511D01*
X156892875Y-80401295D01*
X156957832Y-80327500D01*
X158081579Y-80327500D01*
X158081579Y-80561447D01*
X158382368Y-80561447D01*
X158382368Y-80452152D01*
X158386143Y-80377539D01*
X158398825Y-80325750D01*
X158414237Y-80297580D01*
X158425250Y-80277424D01*
X158434679Y-80248200D01*
X158443151Y-80205575D01*
X158451290Y-80145217D01*
X158459721Y-80062793D01*
X158469068Y-79953972D01*
X158475469Y-79873017D01*
X158504831Y-79493732D01*
X159225659Y-80223938D01*
X159355992Y-80356066D01*
X159481108Y-80483096D01*
X159598721Y-80602695D01*
X159706545Y-80712528D01*
X159802295Y-80810263D01*
X159883683Y-80893566D01*
X159948423Y-80960104D01*
X159994230Y-81007542D01*
X160018792Y-81033520D01*
X160059145Y-81074649D01*
X160092805Y-81103335D01*
X160110910Y-81112895D01*
X160134035Y-81101697D01*
X160167743Y-81073719D01*
X160179169Y-81062326D01*
X160227617Y-81011757D01*
X159960881Y-80740702D01*
X159892831Y-80671652D01*
X159805085Y-80582774D01*
X159701492Y-80477959D01*
X159585900Y-80361097D01*
X159462159Y-80236079D01*
X159334119Y-80106795D01*
X159205628Y-79977136D01*
X159113454Y-79884179D01*
X158973342Y-79742520D01*
X158855632Y-79622591D01*
X158758820Y-79522768D01*
X158681399Y-79441428D01*
X158621864Y-79376948D01*
X158592358Y-79343277D01*
X158355409Y-79343277D01*
X158325743Y-79722592D01*
X158316797Y-79833777D01*
X158308142Y-79935453D01*
X158300271Y-80022304D01*
X158293672Y-80089018D01*
X158288836Y-80130279D01*
X158287280Y-80139506D01*
X158278482Y-80177105D01*
X157016681Y-80177105D01*
X157008258Y-80072173D01*
X156982828Y-79948195D01*
X156929611Y-79838524D01*
X156851963Y-79747156D01*
X156753237Y-79678083D01*
X156642428Y-79636620D01*
X156606480Y-79617171D01*
X156588483Y-79575430D01*
X156588106Y-79573589D01*
X156585947Y-79555967D01*
X156588616Y-79537922D01*
X156598720Y-79516108D01*
X156618863Y-79487177D01*
X156651651Y-79447783D01*
X156699690Y-79394577D01*
X156765584Y-79324214D01*
X156851940Y-79233346D01*
X156857520Y-79227493D01*
X156950405Y-79129956D01*
X157049155Y-79026067D01*
X157146984Y-78922977D01*
X157237107Y-78827839D01*
X157312738Y-78747804D01*
X157329605Y-78729911D01*
X157394265Y-78662444D01*
X157451705Y-78604709D01*
X157497801Y-78560675D01*
X157528431Y-78534314D01*
X157538715Y-78528521D01*
X157554052Y-78540646D01*
X157589917Y-78573910D01*
X157643488Y-78625542D01*
X157711940Y-78692775D01*
X157792447Y-78772837D01*
X157882187Y-78862961D01*
X157955532Y-78937198D01*
X158355409Y-79343277D01*
X158592358Y-79343277D01*
X158578709Y-79327703D01*
X158550429Y-79292071D01*
X158535517Y-79268429D01*
X158532199Y-79257480D01*
X158533456Y-79233586D01*
X158537274Y-79179501D01*
X158543407Y-79098338D01*
X158551607Y-78993210D01*
X158561627Y-78867228D01*
X158573220Y-78723505D01*
X158586140Y-78565154D01*
X158600138Y-78395287D01*
X158611419Y-78259528D01*
X158675250Y-77494106D01*
X158511004Y-77494106D01*
X158510297Y-77510624D01*
X158506969Y-77557145D01*
X158501290Y-77630378D01*
X158493526Y-77727028D01*
X158483943Y-77843805D01*
X158472811Y-77977414D01*
X158460395Y-78124563D01*
X158448480Y-78264271D01*
X158434984Y-78422787D01*
X158422413Y-78572421D01*
X158411055Y-78709602D01*
X158401198Y-78830759D01*
X158393130Y-78932320D01*
X158387140Y-79010712D01*
X158383515Y-79062363D01*
X158382509Y-79082423D01*
X158380940Y-79094908D01*
X158374722Y-79099862D01*
X158361459Y-79095218D01*
X158338753Y-79078909D01*
X158304208Y-79048868D01*
X158255427Y-79003027D01*
X158190013Y-78939320D01*
X158105569Y-78855679D01*
X158015971Y-78766299D01*
X157649574Y-78400186D01*
X157652141Y-78397434D01*
X157409951Y-78397434D01*
X157398913Y-78412550D01*
X157368013Y-78448142D01*
X157320347Y-78500941D01*
X157259013Y-78567673D01*
X157187107Y-78645070D01*
X157107727Y-78729858D01*
X157023969Y-78818767D01*
X156938930Y-78908526D01*
X156855708Y-78995864D01*
X156777399Y-79077509D01*
X156707100Y-79150191D01*
X156647909Y-79210637D01*
X156602922Y-79255578D01*
X156575236Y-79281742D01*
X156567686Y-79287072D01*
X156565197Y-79269867D01*
X156560030Y-79222348D01*
X156552470Y-79147489D01*
X156542800Y-79048264D01*
X156531305Y-78927649D01*
X156518269Y-78788618D01*
X156503976Y-78634145D01*
X156488710Y-78467206D01*
X156476521Y-78332597D01*
X156460929Y-78158054D01*
X156446523Y-77993627D01*
X156433547Y-77842299D01*
X156422241Y-77707053D01*
X156412848Y-77590870D01*
X156405611Y-77496735D01*
X156400772Y-77427630D01*
X156398573Y-77386538D01*
X156398824Y-77375868D01*
X156411970Y-77385372D01*
X156445446Y-77415920D01*
X156496326Y-77464556D01*
X156561683Y-77528323D01*
X156638591Y-77604265D01*
X156724124Y-77689424D01*
X156815354Y-77780845D01*
X156909356Y-77875569D01*
X157003202Y-77970641D01*
X157093967Y-78063103D01*
X157178723Y-78149999D01*
X157254544Y-78228372D01*
X157318503Y-78295265D01*
X157367674Y-78347722D01*
X157399131Y-78382785D01*
X157409951Y-78397434D01*
X157652141Y-78397434D01*
X157786202Y-78253760D01*
X157855784Y-78179448D01*
X157933881Y-78096483D01*
X158017406Y-78008102D01*
X158103270Y-77917541D01*
X158188385Y-77828036D01*
X158269664Y-77742823D01*
X158344019Y-77665139D01*
X158408363Y-77598220D01*
X158459606Y-77545303D01*
X158494663Y-77509623D01*
X158510444Y-77494416D01*
X158511004Y-77494106D01*
X158675250Y-77494106D01*
X158691204Y-77302807D01*
X159489286Y-76463485D01*
X160287368Y-75624164D01*
X160286781Y-75506852D01*
X160286194Y-75389539D01*
X160157275Y-75527253D01*
X160085124Y-75604063D01*
X159999940Y-75694304D01*
X159904021Y-75795575D01*
X159799666Y-75905476D01*
X159689174Y-76021604D01*
X159574844Y-76141558D01*
X159458975Y-76262936D01*
X159343865Y-76383338D01*
X159231814Y-76500362D01*
X159125119Y-76611606D01*
X159026080Y-76714669D01*
X158936997Y-76807150D01*
X158860166Y-76886647D01*
X158797888Y-76950758D01*
X158752462Y-76997083D01*
X158726185Y-77023219D01*
X158720426Y-77028233D01*
X158720030Y-77010791D01*
X158722208Y-76966135D01*
X158726583Y-76900340D01*
X158732775Y-76819483D01*
X158735433Y-76787183D01*
X158755228Y-76550921D01*
X158600242Y-76550921D01*
X158592240Y-76588520D01*
X158588160Y-76618255D01*
X158582425Y-76674203D01*
X158575701Y-76749236D01*
X158568648Y-76836225D01*
X158566207Y-76868421D01*
X158559008Y-76960861D01*
X158551742Y-77046707D01*
X158545136Y-77117847D01*
X158539916Y-77166169D01*
X158538739Y-77174939D01*
X158534298Y-77192942D01*
X158524687Y-77214017D01*
X158507860Y-77240525D01*
X158481775Y-77274828D01*
X158444387Y-77319289D01*
X158393654Y-77376271D01*
X158327530Y-77448136D01*
X158243974Y-77537246D01*
X158140940Y-77645964D01*
X158035833Y-77756275D01*
X157931262Y-77865441D01*
X157833649Y-77966540D01*
X157745422Y-78057115D01*
X157669012Y-78134708D01*
X157606849Y-78196862D01*
X157561363Y-78241118D01*
X157534983Y-78265018D01*
X157529357Y-78268574D01*
X157514557Y-78255681D01*
X157479961Y-78222060D01*
X157428929Y-78171082D01*
X157364817Y-78106120D01*
X157290984Y-78030548D01*
X157237589Y-77975493D01*
X156958827Y-77687237D01*
X157780790Y-77687237D01*
X157780790Y-77369737D01*
X156778158Y-77369737D01*
X156778158Y-77511206D01*
X156594342Y-77327960D01*
X156463948Y-77197971D01*
X156210000Y-77197971D01*
X156207571Y-77218477D01*
X156195276Y-77229902D01*
X156165604Y-77234880D01*
X156111045Y-77236044D01*
X156101382Y-77236052D01*
X155992763Y-77236052D01*
X155992763Y-76944584D01*
X156101382Y-77052237D01*
X156162654Y-77117687D01*
X156199301Y-77167829D01*
X156210000Y-77197971D01*
X156463948Y-77197971D01*
X156410526Y-77144715D01*
X156410526Y-76981502D01*
X156410015Y-76906414D01*
X156407672Y-76858645D01*
X156402289Y-76832098D01*
X156392656Y-76820679D01*
X156378129Y-76818289D01*
X156361973Y-76814780D01*
X156350031Y-76800711D01*
X156340861Y-76770769D01*
X156333018Y-76719642D01*
X156325058Y-76642017D01*
X156322504Y-76613585D01*
X156316974Y-76550921D01*
X158600242Y-76550921D01*
X158755228Y-76550921D01*
X158967237Y-76550921D01*
X158967237Y-76400526D01*
X158877141Y-76400526D01*
X158824445Y-76399083D01*
X158795812Y-76392116D01*
X158792309Y-76387970D01*
X158607766Y-76387970D01*
X158598054Y-76397442D01*
X158564412Y-76400366D01*
X158541706Y-76400526D01*
X158465921Y-76400526D01*
X158183306Y-76400526D01*
X156303481Y-76400526D01*
X156367062Y-76335413D01*
X156465814Y-76255062D01*
X156588032Y-76193089D01*
X156735787Y-76148646D01*
X156882599Y-76124065D01*
X156978684Y-76112596D01*
X156978684Y-76233421D01*
X157747368Y-76233421D01*
X157747368Y-76096345D01*
X157860165Y-76107776D01*
X157938975Y-76117425D01*
X158022943Y-76130214D01*
X158073224Y-76139348D01*
X158173487Y-76159488D01*
X158178397Y-76280007D01*
X158183306Y-76400526D01*
X158465921Y-76400526D01*
X158465921Y-76333684D01*
X158468131Y-76291810D01*
X158473650Y-76268536D01*
X158475874Y-76266842D01*
X158500613Y-76277560D01*
X158536757Y-76303563D01*
X158572990Y-76335623D01*
X158597999Y-76364511D01*
X158600227Y-76368267D01*
X158607766Y-76387970D01*
X158792309Y-76387970D01*
X158781919Y-76375674D01*
X158776311Y-76357762D01*
X158753422Y-76311279D01*
X158709460Y-76255400D01*
X158651989Y-76197960D01*
X158588573Y-76146793D01*
X158546918Y-76120143D01*
X158499466Y-76090972D01*
X158475141Y-76066467D01*
X158466595Y-76037572D01*
X158465938Y-76020362D01*
X158465937Y-76016184D01*
X157613684Y-76016184D01*
X157613684Y-76099737D01*
X157112368Y-76099737D01*
X157112368Y-76016184D01*
X157613684Y-76016184D01*
X158465937Y-76016184D01*
X158465921Y-75966052D01*
X158325274Y-75966052D01*
X158260564Y-75967617D01*
X158210130Y-75971785D01*
X158182094Y-75977773D01*
X158179057Y-75980197D01*
X158161273Y-75983918D01*
X158117992Y-75982394D01*
X158056651Y-75976075D01*
X158014737Y-75970240D01*
X157938737Y-75958778D01*
X157869230Y-75948430D01*
X157816997Y-75940796D01*
X157801678Y-75938627D01*
X157761653Y-75926232D01*
X157747368Y-75906808D01*
X157743025Y-75898898D01*
X157727490Y-75892863D01*
X157697001Y-75888466D01*
X157647800Y-75885469D01*
X157576126Y-75883635D01*
X157478219Y-75882725D01*
X157363026Y-75882500D01*
X157240086Y-75882628D01*
X157146559Y-75883230D01*
X157078440Y-75884639D01*
X157031719Y-75887181D01*
X157002391Y-75891189D01*
X156986449Y-75896991D01*
X156979885Y-75904917D01*
X156978684Y-75914133D01*
X156968460Y-75943385D01*
X156934970Y-75960031D01*
X156873988Y-75965968D01*
X156863017Y-75966052D01*
X156759746Y-75976706D01*
X156642453Y-76006033D01*
X156521715Y-76050084D01*
X156408111Y-76104911D01*
X156312219Y-76166564D01*
X156299799Y-76176332D01*
X156259318Y-76208115D01*
X156235345Y-76220844D01*
X156218604Y-76216729D01*
X156201419Y-76199750D01*
X156150664Y-76166492D01*
X156084607Y-76153725D01*
X156013474Y-76160365D01*
X155947486Y-76185327D01*
X155896868Y-76227529D01*
X155893203Y-76232434D01*
X155855328Y-76311211D01*
X155848281Y-76392754D01*
X155871285Y-76470487D01*
X155923563Y-76537835D01*
X155929956Y-76543396D01*
X155967073Y-76569813D01*
X156004733Y-76581447D01*
X156057676Y-76582287D01*
X156070902Y-76581542D01*
X156122703Y-76579641D01*
X156149386Y-76583996D01*
X156159045Y-76597138D01*
X156160037Y-76609408D01*
X156162061Y-76645002D01*
X156167086Y-76698533D01*
X156170697Y-76730559D01*
X156175934Y-76781427D01*
X156173756Y-76807468D01*
X156161125Y-76816986D01*
X156138625Y-76818289D01*
X156125282Y-76813986D01*
X156103756Y-76800057D01*
X156072452Y-76774977D01*
X156029776Y-76737219D01*
X155974132Y-76685256D01*
X155903925Y-76617562D01*
X155817560Y-76532611D01*
X155713442Y-76428875D01*
X155589975Y-76304828D01*
X155445564Y-76158944D01*
X155375969Y-76088449D01*
X154655921Y-75358610D01*
X154656744Y-75474337D01*
G37*
X154656744Y-75474337D02*
X154657567Y-75590066D01*
X155257885Y-76200000D01*
X155858204Y-76809934D01*
X155858641Y-77089835D01*
X155859079Y-77369737D01*
X156224663Y-77369737D01*
X156234083Y-77440756D01*
X156237650Y-77473127D01*
X156243662Y-77534087D01*
X156251799Y-77619998D01*
X156261738Y-77727226D01*
X156273157Y-77852133D01*
X156285736Y-77991083D01*
X156299153Y-78140441D01*
X156313085Y-78296568D01*
X156327212Y-78455830D01*
X156341212Y-78614590D01*
X156354763Y-78769211D01*
X156367544Y-78916057D01*
X156379233Y-79051493D01*
X156389508Y-79171880D01*
X156398048Y-79273584D01*
X156404531Y-79352967D01*
X156408636Y-79406394D01*
X156410041Y-79430229D01*
X156410040Y-79430342D01*
X156399796Y-79449466D01*
X156369026Y-79488955D01*
X156317311Y-79549266D01*
X156244233Y-79630861D01*
X156149373Y-79734198D01*
X156032313Y-79859738D01*
X155892633Y-80007940D01*
X155729916Y-80179263D01*
X155684179Y-80227237D01*
X154958805Y-80987566D01*
X155017449Y-81046052D01*
X155076092Y-81104539D01*
X155170974Y-81001310D01*
X155205685Y-80964003D01*
X155259906Y-80906311D01*
X155330059Y-80832013D01*
X155412568Y-80744889D01*
X155503855Y-80648718D01*
X155600342Y-80547280D01*
X155658065Y-80486695D01*
X155766434Y-80373197D01*
X155854028Y-80282285D01*
X155923080Y-80212307D01*
X155975824Y-80161610D01*
X156014494Y-80128540D01*
X156041323Y-80111444D01*
X156058544Y-80108669D01*
X156068392Y-80118563D01*
X156073099Y-80139471D01*
X156074899Y-80169741D01*
X156075141Y-80178002D01*
X156087658Y-80234909D01*
X156118497Y-80303693D01*
X156161503Y-80373475D01*
X156210520Y-80433378D01*
X156230134Y-80451882D01*
X156330770Y-80516628D01*
X156448327Y-80552854D01*
X156552262Y-80561447D01*
X156670049Y-80545239D01*
X156778831Y-80497712D01*
X156875110Y-80420511D01*
X156892875Y-80401295D01*
X156957832Y-80327500D01*
X158081579Y-80327500D01*
X158081579Y-80561447D01*
X158382368Y-80561447D01*
X158382368Y-80452152D01*
X158386143Y-80377539D01*
X158398825Y-80325750D01*
X158414237Y-80297580D01*
X158425250Y-80277424D01*
X158434679Y-80248200D01*
X158443151Y-80205575D01*
X158451290Y-80145217D01*
X158459721Y-80062793D01*
X158469068Y-79953972D01*
X158475469Y-79873017D01*
X158504831Y-79493732D01*
X159225659Y-80223938D01*
X159355992Y-80356066D01*
X159481108Y-80483096D01*
X159598721Y-80602695D01*
X159706545Y-80712528D01*
X159802295Y-80810263D01*
X159883683Y-80893566D01*
X159948423Y-80960104D01*
X159994230Y-81007542D01*
X160018792Y-81033520D01*
X160059145Y-81074649D01*
X160092805Y-81103335D01*
X160110910Y-81112895D01*
X160134035Y-81101697D01*
X160167743Y-81073719D01*
X160179169Y-81062326D01*
X160227617Y-81011757D01*
X159960881Y-80740702D01*
X159892831Y-80671652D01*
X159805085Y-80582774D01*
X159701492Y-80477959D01*
X159585900Y-80361097D01*
X159462159Y-80236079D01*
X159334119Y-80106795D01*
X159205628Y-79977136D01*
X159113454Y-79884179D01*
X158973342Y-79742520D01*
X158855632Y-79622591D01*
X158758820Y-79522768D01*
X158681399Y-79441428D01*
X158621864Y-79376948D01*
X158592358Y-79343277D01*
X158355409Y-79343277D01*
X158325743Y-79722592D01*
X158316797Y-79833777D01*
X158308142Y-79935453D01*
X158300271Y-80022304D01*
X158293672Y-80089018D01*
X158288836Y-80130279D01*
X158287280Y-80139506D01*
X158278482Y-80177105D01*
X157016681Y-80177105D01*
X157008258Y-80072173D01*
X156982828Y-79948195D01*
X156929611Y-79838524D01*
X156851963Y-79747156D01*
X156753237Y-79678083D01*
X156642428Y-79636620D01*
X156606480Y-79617171D01*
X156588483Y-79575430D01*
X156588106Y-79573589D01*
X156585947Y-79555967D01*
X156588616Y-79537922D01*
X156598720Y-79516108D01*
X156618863Y-79487177D01*
X156651651Y-79447783D01*
X156699690Y-79394577D01*
X156765584Y-79324214D01*
X156851940Y-79233346D01*
X156857520Y-79227493D01*
X156950405Y-79129956D01*
X157049155Y-79026067D01*
X157146984Y-78922977D01*
X157237107Y-78827839D01*
X157312738Y-78747804D01*
X157329605Y-78729911D01*
X157394265Y-78662444D01*
X157451705Y-78604709D01*
X157497801Y-78560675D01*
X157528431Y-78534314D01*
X157538715Y-78528521D01*
X157554052Y-78540646D01*
X157589917Y-78573910D01*
X157643488Y-78625542D01*
X157711940Y-78692775D01*
X157792447Y-78772837D01*
X157882187Y-78862961D01*
X157955532Y-78937198D01*
X158355409Y-79343277D01*
X158592358Y-79343277D01*
X158578709Y-79327703D01*
X158550429Y-79292071D01*
X158535517Y-79268429D01*
X158532199Y-79257480D01*
X158533456Y-79233586D01*
X158537274Y-79179501D01*
X158543407Y-79098338D01*
X158551607Y-78993210D01*
X158561627Y-78867228D01*
X158573220Y-78723505D01*
X158586140Y-78565154D01*
X158600138Y-78395287D01*
X158611419Y-78259528D01*
X158675250Y-77494106D01*
X158511004Y-77494106D01*
X158510297Y-77510624D01*
X158506969Y-77557145D01*
X158501290Y-77630378D01*
X158493526Y-77727028D01*
X158483943Y-77843805D01*
X158472811Y-77977414D01*
X158460395Y-78124563D01*
X158448480Y-78264271D01*
X158434984Y-78422787D01*
X158422413Y-78572421D01*
X158411055Y-78709602D01*
X158401198Y-78830759D01*
X158393130Y-78932320D01*
X158387140Y-79010712D01*
X158383515Y-79062363D01*
X158382509Y-79082423D01*
X158380940Y-79094908D01*
X158374722Y-79099862D01*
X158361459Y-79095218D01*
X158338753Y-79078909D01*
X158304208Y-79048868D01*
X158255427Y-79003027D01*
X158190013Y-78939320D01*
X158105569Y-78855679D01*
X158015971Y-78766299D01*
X157649574Y-78400186D01*
X157652141Y-78397434D01*
X157409951Y-78397434D01*
X157398913Y-78412550D01*
X157368013Y-78448142D01*
X157320347Y-78500941D01*
X157259013Y-78567673D01*
X157187107Y-78645070D01*
X157107727Y-78729858D01*
X157023969Y-78818767D01*
X156938930Y-78908526D01*
X156855708Y-78995864D01*
X156777399Y-79077509D01*
X156707100Y-79150191D01*
X156647909Y-79210637D01*
X156602922Y-79255578D01*
X156575236Y-79281742D01*
X156567686Y-79287072D01*
X156565197Y-79269867D01*
X156560030Y-79222348D01*
X156552470Y-79147489D01*
X156542800Y-79048264D01*
X156531305Y-78927649D01*
X156518269Y-78788618D01*
X156503976Y-78634145D01*
X156488710Y-78467206D01*
X156476521Y-78332597D01*
X156460929Y-78158054D01*
X156446523Y-77993627D01*
X156433547Y-77842299D01*
X156422241Y-77707053D01*
X156412848Y-77590870D01*
X156405611Y-77496735D01*
X156400772Y-77427630D01*
X156398573Y-77386538D01*
X156398824Y-77375868D01*
X156411970Y-77385372D01*
X156445446Y-77415920D01*
X156496326Y-77464556D01*
X156561683Y-77528323D01*
X156638591Y-77604265D01*
X156724124Y-77689424D01*
X156815354Y-77780845D01*
X156909356Y-77875569D01*
X157003202Y-77970641D01*
X157093967Y-78063103D01*
X157178723Y-78149999D01*
X157254544Y-78228372D01*
X157318503Y-78295265D01*
X157367674Y-78347722D01*
X157399131Y-78382785D01*
X157409951Y-78397434D01*
X157652141Y-78397434D01*
X157786202Y-78253760D01*
X157855784Y-78179448D01*
X157933881Y-78096483D01*
X158017406Y-78008102D01*
X158103270Y-77917541D01*
X158188385Y-77828036D01*
X158269664Y-77742823D01*
X158344019Y-77665139D01*
X158408363Y-77598220D01*
X158459606Y-77545303D01*
X158494663Y-77509623D01*
X158510444Y-77494416D01*
X158511004Y-77494106D01*
X158675250Y-77494106D01*
X158691204Y-77302807D01*
X159489286Y-76463485D01*
X160287368Y-75624164D01*
X160286781Y-75506852D01*
X160286194Y-75389539D01*
X160157275Y-75527253D01*
X160085124Y-75604063D01*
X159999940Y-75694304D01*
X159904021Y-75795575D01*
X159799666Y-75905476D01*
X159689174Y-76021604D01*
X159574844Y-76141558D01*
X159458975Y-76262936D01*
X159343865Y-76383338D01*
X159231814Y-76500362D01*
X159125119Y-76611606D01*
X159026080Y-76714669D01*
X158936997Y-76807150D01*
X158860166Y-76886647D01*
X158797888Y-76950758D01*
X158752462Y-76997083D01*
X158726185Y-77023219D01*
X158720426Y-77028233D01*
X158720030Y-77010791D01*
X158722208Y-76966135D01*
X158726583Y-76900340D01*
X158732775Y-76819483D01*
X158735433Y-76787183D01*
X158755228Y-76550921D01*
X158600242Y-76550921D01*
X158592240Y-76588520D01*
X158588160Y-76618255D01*
X158582425Y-76674203D01*
X158575701Y-76749236D01*
X158568648Y-76836225D01*
X158566207Y-76868421D01*
X158559008Y-76960861D01*
X158551742Y-77046707D01*
X158545136Y-77117847D01*
X158539916Y-77166169D01*
X158538739Y-77174939D01*
X158534298Y-77192942D01*
X158524687Y-77214017D01*
X158507860Y-77240525D01*
X158481775Y-77274828D01*
X158444387Y-77319289D01*
X158393654Y-77376271D01*
X158327530Y-77448136D01*
X158243974Y-77537246D01*
X158140940Y-77645964D01*
X158035833Y-77756275D01*
X157931262Y-77865441D01*
X157833649Y-77966540D01*
X157745422Y-78057115D01*
X157669012Y-78134708D01*
X157606849Y-78196862D01*
X157561363Y-78241118D01*
X157534983Y-78265018D01*
X157529357Y-78268574D01*
X157514557Y-78255681D01*
X157479961Y-78222060D01*
X157428929Y-78171082D01*
X157364817Y-78106120D01*
X157290984Y-78030548D01*
X157237589Y-77975493D01*
X156958827Y-77687237D01*
X157780790Y-77687237D01*
X157780790Y-77369737D01*
X156778158Y-77369737D01*
X156778158Y-77511206D01*
X156594342Y-77327960D01*
X156463948Y-77197971D01*
X156210000Y-77197971D01*
X156207571Y-77218477D01*
X156195276Y-77229902D01*
X156165604Y-77234880D01*
X156111045Y-77236044D01*
X156101382Y-77236052D01*
X155992763Y-77236052D01*
X155992763Y-76944584D01*
X156101382Y-77052237D01*
X156162654Y-77117687D01*
X156199301Y-77167829D01*
X156210000Y-77197971D01*
X156463948Y-77197971D01*
X156410526Y-77144715D01*
X156410526Y-76981502D01*
X156410015Y-76906414D01*
X156407672Y-76858645D01*
X156402289Y-76832098D01*
X156392656Y-76820679D01*
X156378129Y-76818289D01*
X156361973Y-76814780D01*
X156350031Y-76800711D01*
X156340861Y-76770769D01*
X156333018Y-76719642D01*
X156325058Y-76642017D01*
X156322504Y-76613585D01*
X156316974Y-76550921D01*
X158600242Y-76550921D01*
X158755228Y-76550921D01*
X158967237Y-76550921D01*
X158967237Y-76400526D01*
X158877141Y-76400526D01*
X158824445Y-76399083D01*
X158795812Y-76392116D01*
X158792309Y-76387970D01*
X158607766Y-76387970D01*
X158598054Y-76397442D01*
X158564412Y-76400366D01*
X158541706Y-76400526D01*
X158465921Y-76400526D01*
X158183306Y-76400526D01*
X156303481Y-76400526D01*
X156367062Y-76335413D01*
X156465814Y-76255062D01*
X156588032Y-76193089D01*
X156735787Y-76148646D01*
X156882599Y-76124065D01*
X156978684Y-76112596D01*
X156978684Y-76233421D01*
X157747368Y-76233421D01*
X157747368Y-76096345D01*
X157860165Y-76107776D01*
X157938975Y-76117425D01*
X158022943Y-76130214D01*
X158073224Y-76139348D01*
X158173487Y-76159488D01*
X158178397Y-76280007D01*
X158183306Y-76400526D01*
X158465921Y-76400526D01*
X158465921Y-76333684D01*
X158468131Y-76291810D01*
X158473650Y-76268536D01*
X158475874Y-76266842D01*
X158500613Y-76277560D01*
X158536757Y-76303563D01*
X158572990Y-76335623D01*
X158597999Y-76364511D01*
X158600227Y-76368267D01*
X158607766Y-76387970D01*
X158792309Y-76387970D01*
X158781919Y-76375674D01*
X158776311Y-76357762D01*
X158753422Y-76311279D01*
X158709460Y-76255400D01*
X158651989Y-76197960D01*
X158588573Y-76146793D01*
X158546918Y-76120143D01*
X158499466Y-76090972D01*
X158475141Y-76066467D01*
X158466595Y-76037572D01*
X158465938Y-76020362D01*
X158465937Y-76016184D01*
X157613684Y-76016184D01*
X157613684Y-76099737D01*
X157112368Y-76099737D01*
X157112368Y-76016184D01*
X157613684Y-76016184D01*
X158465937Y-76016184D01*
X158465921Y-75966052D01*
X158325274Y-75966052D01*
X158260564Y-75967617D01*
X158210130Y-75971785D01*
X158182094Y-75977773D01*
X158179057Y-75980197D01*
X158161273Y-75983918D01*
X158117992Y-75982394D01*
X158056651Y-75976075D01*
X158014737Y-75970240D01*
X157938737Y-75958778D01*
X157869230Y-75948430D01*
X157816997Y-75940796D01*
X157801678Y-75938627D01*
X157761653Y-75926232D01*
X157747368Y-75906808D01*
X157743025Y-75898898D01*
X157727490Y-75892863D01*
X157697001Y-75888466D01*
X157647800Y-75885469D01*
X157576126Y-75883635D01*
X157478219Y-75882725D01*
X157363026Y-75882500D01*
X157240086Y-75882628D01*
X157146559Y-75883230D01*
X157078440Y-75884639D01*
X157031719Y-75887181D01*
X157002391Y-75891189D01*
X156986449Y-75896991D01*
X156979885Y-75904917D01*
X156978684Y-75914133D01*
X156968460Y-75943385D01*
X156934970Y-75960031D01*
X156873988Y-75965968D01*
X156863017Y-75966052D01*
X156759746Y-75976706D01*
X156642453Y-76006033D01*
X156521715Y-76050084D01*
X156408111Y-76104911D01*
X156312219Y-76166564D01*
X156299799Y-76176332D01*
X156259318Y-76208115D01*
X156235345Y-76220844D01*
X156218604Y-76216729D01*
X156201419Y-76199750D01*
X156150664Y-76166492D01*
X156084607Y-76153725D01*
X156013474Y-76160365D01*
X155947486Y-76185327D01*
X155896868Y-76227529D01*
X155893203Y-76232434D01*
X155855328Y-76311211D01*
X155848281Y-76392754D01*
X155871285Y-76470487D01*
X155923563Y-76537835D01*
X155929956Y-76543396D01*
X155967073Y-76569813D01*
X156004733Y-76581447D01*
X156057676Y-76582287D01*
X156070902Y-76581542D01*
X156122703Y-76579641D01*
X156149386Y-76583996D01*
X156159045Y-76597138D01*
X156160037Y-76609408D01*
X156162061Y-76645002D01*
X156167086Y-76698533D01*
X156170697Y-76730559D01*
X156175934Y-76781427D01*
X156173756Y-76807468D01*
X156161125Y-76816986D01*
X156138625Y-76818289D01*
X156125282Y-76813986D01*
X156103756Y-76800057D01*
X156072452Y-76774977D01*
X156029776Y-76737219D01*
X155974132Y-76685256D01*
X155903925Y-76617562D01*
X155817560Y-76532611D01*
X155713442Y-76428875D01*
X155589975Y-76304828D01*
X155445564Y-76158944D01*
X155375969Y-76088449D01*
X154655921Y-75358610D01*
X154656744Y-75474337D01*
G36*
X155157237Y-83385526D02*
G01*
X159836184Y-83385526D01*
X159836184Y-82232500D01*
X155157237Y-82232500D01*
X155157237Y-83385526D01*
G37*
X155157237Y-83385526D02*
X159836184Y-83385526D01*
X159836184Y-82232500D01*
X155157237Y-82232500D01*
X155157237Y-83385526D01*
G36*
X202587679Y-115728750D02*
G01*
X202587679Y-117973928D01*
X200319821Y-117973928D01*
X200319821Y-119153214D01*
X206080179Y-119153214D01*
X206080179Y-117973928D01*
X203562430Y-117973928D01*
X203568313Y-116857008D01*
X203574196Y-115740089D01*
X204827187Y-115734227D01*
X206080179Y-115728365D01*
X206080179Y-114549464D01*
X200319821Y-114549464D01*
X200319821Y-115728750D01*
X202587679Y-115728750D01*
G37*
X202587679Y-115728750D02*
X202587679Y-117973928D01*
X200319821Y-117973928D01*
X200319821Y-119153214D01*
X206080179Y-119153214D01*
X206080179Y-117973928D01*
X203562430Y-117973928D01*
X203568313Y-116857008D01*
X203574196Y-115740089D01*
X204827187Y-115734227D01*
X206080179Y-115728365D01*
X206080179Y-114549464D01*
X200319821Y-114549464D01*
X200319821Y-115728750D01*
X202587679Y-115728750D01*
G36*
X200327046Y-105438348D02*
G01*
X200329765Y-105794595D01*
X200332980Y-106112866D01*
X200336670Y-106392145D01*
X200340814Y-106631416D01*
X200345391Y-106829663D01*
X200350380Y-106985871D01*
X200355760Y-107099024D01*
X200361511Y-107168107D01*
X200363099Y-107178928D01*
X200404224Y-107389430D01*
X200449936Y-107563593D01*
X200504363Y-107710433D01*
X200571632Y-107838965D01*
X200655868Y-107958204D01*
X200761200Y-108077168D01*
X200785833Y-108102399D01*
X200884505Y-108197891D01*
X200969383Y-108268407D01*
X201054807Y-108324550D01*
X201155117Y-108376919D01*
X201161002Y-108379734D01*
X201316744Y-108448870D01*
X201455619Y-108497129D01*
X201592648Y-108527777D01*
X201742856Y-108544079D01*
X201921265Y-108549300D01*
X201941339Y-108549338D01*
X202195293Y-108537440D01*
X202417428Y-108499861D01*
X202615104Y-108433775D01*
X202795679Y-108336356D01*
X202966513Y-108204779D01*
X203053652Y-108122211D01*
X203156558Y-108011423D01*
X203242462Y-107900495D01*
X203315341Y-107781421D01*
X203379170Y-107646194D01*
X203437928Y-107486810D01*
X203495590Y-107295261D01*
X203531866Y-107159428D01*
X203551518Y-107083231D01*
X203664581Y-107250142D01*
X203795003Y-107419945D01*
X203957436Y-107595000D01*
X204141314Y-107764914D01*
X204336076Y-107919295D01*
X204367946Y-107942146D01*
X204425149Y-107981138D01*
X204510945Y-108037762D01*
X204620589Y-108109023D01*
X204749336Y-108191927D01*
X204892441Y-108283478D01*
X205045156Y-108380684D01*
X205202738Y-108480548D01*
X205360440Y-108580077D01*
X205513517Y-108676275D01*
X205657224Y-108766149D01*
X205786814Y-108846703D01*
X205897542Y-108914943D01*
X205984663Y-108967875D01*
X206043431Y-109002503D01*
X206069101Y-109015834D01*
X206069531Y-109015892D01*
X206072164Y-108994125D01*
X206074560Y-108932470D01*
X206076635Y-108836395D01*
X206078308Y-108711369D01*
X206079494Y-108562860D01*
X206080110Y-108396338D01*
X206080179Y-108316812D01*
X206080179Y-107617732D01*
X205212723Y-107038417D01*
X205026423Y-106913515D01*
X204844574Y-106790684D01*
X204672186Y-106673372D01*
X204514272Y-106565028D01*
X204375840Y-106469099D01*
X204261902Y-106389035D01*
X204177469Y-106328282D01*
X204140342Y-106300441D01*
X203997055Y-106180272D01*
X203886516Y-106063394D01*
X203804885Y-105941430D01*
X203748317Y-105806004D01*
X203712969Y-105648739D01*
X203695000Y-105461258D01*
X203690833Y-105320604D01*
X203687589Y-105035803D01*
X206080179Y-105024063D01*
X206080179Y-103845178D01*
X201317679Y-103845178D01*
X201317679Y-105024464D01*
X202746429Y-105024464D01*
X202746242Y-105733169D01*
X202745453Y-105919182D01*
X202743309Y-106100318D01*
X202740006Y-106268926D01*
X202735736Y-106417353D01*
X202730691Y-106537948D01*
X202725066Y-106623061D01*
X202723352Y-106640027D01*
X202695016Y-106818620D01*
X202653701Y-106960414D01*
X202596377Y-107072860D01*
X202520017Y-107163412D01*
X202505147Y-107176969D01*
X202367636Y-107269838D01*
X202207632Y-107325187D01*
X202022452Y-107343920D01*
X202009375Y-107343891D01*
X201824068Y-107324550D01*
X201666920Y-107269659D01*
X201537785Y-107179111D01*
X201436518Y-107052801D01*
X201362974Y-106890619D01*
X201353608Y-106860791D01*
X201344059Y-106822190D01*
X201336305Y-106773984D01*
X201330172Y-106711453D01*
X201325487Y-106629877D01*
X201322077Y-106524535D01*
X201319768Y-106390708D01*
X201318388Y-106223676D01*
X201317763Y-106018718D01*
X201317679Y-105882133D01*
X201317679Y-105024464D01*
X201317679Y-103845178D01*
X200316576Y-103845178D01*
X200327046Y-105438348D01*
G37*
X200327046Y-105438348D02*
X200329765Y-105794595D01*
X200332980Y-106112866D01*
X200336670Y-106392145D01*
X200340814Y-106631416D01*
X200345391Y-106829663D01*
X200350380Y-106985871D01*
X200355760Y-107099024D01*
X200361511Y-107168107D01*
X200363099Y-107178928D01*
X200404224Y-107389430D01*
X200449936Y-107563593D01*
X200504363Y-107710433D01*
X200571632Y-107838965D01*
X200655868Y-107958204D01*
X200761200Y-108077168D01*
X200785833Y-108102399D01*
X200884505Y-108197891D01*
X200969383Y-108268407D01*
X201054807Y-108324550D01*
X201155117Y-108376919D01*
X201161002Y-108379734D01*
X201316744Y-108448870D01*
X201455619Y-108497129D01*
X201592648Y-108527777D01*
X201742856Y-108544079D01*
X201921265Y-108549300D01*
X201941339Y-108549338D01*
X202195293Y-108537440D01*
X202417428Y-108499861D01*
X202615104Y-108433775D01*
X202795679Y-108336356D01*
X202966513Y-108204779D01*
X203053652Y-108122211D01*
X203156558Y-108011423D01*
X203242462Y-107900495D01*
X203315341Y-107781421D01*
X203379170Y-107646194D01*
X203437928Y-107486810D01*
X203495590Y-107295261D01*
X203531866Y-107159428D01*
X203551518Y-107083231D01*
X203664581Y-107250142D01*
X203795003Y-107419945D01*
X203957436Y-107595000D01*
X204141314Y-107764914D01*
X204336076Y-107919295D01*
X204367946Y-107942146D01*
X204425149Y-107981138D01*
X204510945Y-108037762D01*
X204620589Y-108109023D01*
X204749336Y-108191927D01*
X204892441Y-108283478D01*
X205045156Y-108380684D01*
X205202738Y-108480548D01*
X205360440Y-108580077D01*
X205513517Y-108676275D01*
X205657224Y-108766149D01*
X205786814Y-108846703D01*
X205897542Y-108914943D01*
X205984663Y-108967875D01*
X206043431Y-109002503D01*
X206069101Y-109015834D01*
X206069531Y-109015892D01*
X206072164Y-108994125D01*
X206074560Y-108932470D01*
X206076635Y-108836395D01*
X206078308Y-108711369D01*
X206079494Y-108562860D01*
X206080110Y-108396338D01*
X206080179Y-108316812D01*
X206080179Y-107617732D01*
X205212723Y-107038417D01*
X205026423Y-106913515D01*
X204844574Y-106790684D01*
X204672186Y-106673372D01*
X204514272Y-106565028D01*
X204375840Y-106469099D01*
X204261902Y-106389035D01*
X204177469Y-106328282D01*
X204140342Y-106300441D01*
X203997055Y-106180272D01*
X203886516Y-106063394D01*
X203804885Y-105941430D01*
X203748317Y-105806004D01*
X203712969Y-105648739D01*
X203695000Y-105461258D01*
X203690833Y-105320604D01*
X203687589Y-105035803D01*
X206080179Y-105024063D01*
X206080179Y-103845178D01*
X201317679Y-103845178D01*
X201317679Y-105024464D01*
X202746429Y-105024464D01*
X202746242Y-105733169D01*
X202745453Y-105919182D01*
X202743309Y-106100318D01*
X202740006Y-106268926D01*
X202735736Y-106417353D01*
X202730691Y-106537948D01*
X202725066Y-106623061D01*
X202723352Y-106640027D01*
X202695016Y-106818620D01*
X202653701Y-106960414D01*
X202596377Y-107072860D01*
X202520017Y-107163412D01*
X202505147Y-107176969D01*
X202367636Y-107269838D01*
X202207632Y-107325187D01*
X202022452Y-107343920D01*
X202009375Y-107343891D01*
X201824068Y-107324550D01*
X201666920Y-107269659D01*
X201537785Y-107179111D01*
X201436518Y-107052801D01*
X201362974Y-106890619D01*
X201353608Y-106860791D01*
X201344059Y-106822190D01*
X201336305Y-106773984D01*
X201330172Y-106711453D01*
X201325487Y-106629877D01*
X201322077Y-106524535D01*
X201319768Y-106390708D01*
X201318388Y-106223676D01*
X201317763Y-106018718D01*
X201317679Y-105882133D01*
X201317679Y-105024464D01*
X201317679Y-103845178D01*
X200316576Y-103845178D01*
X200327046Y-105438348D01*
G36*
X200244987Y-122786632D02*
G01*
X200272497Y-123015956D01*
X200316937Y-123225995D01*
X200379711Y-123424833D01*
X200462226Y-123620557D01*
X200483023Y-123663706D01*
X200621313Y-123897308D01*
X200789953Y-124097374D01*
X200989436Y-124264331D01*
X201220254Y-124398605D01*
X201435363Y-124485327D01*
X201563355Y-124521998D01*
X201698596Y-124550695D01*
X201810670Y-124565667D01*
X201986696Y-124579241D01*
X201987926Y-124513950D01*
X201989067Y-124472922D01*
X201991586Y-124393991D01*
X201995232Y-124284579D01*
X201999758Y-124152112D01*
X202004914Y-124004014D01*
X202007628Y-123927053D01*
X202026101Y-123405446D01*
X201865734Y-123364182D01*
X201672995Y-123294587D01*
X201511979Y-123193741D01*
X201384046Y-123062870D01*
X201290559Y-122903204D01*
X201258041Y-122815803D01*
X201234995Y-122710822D01*
X201219055Y-122574864D01*
X201210596Y-122421807D01*
X201209994Y-122265529D01*
X201217626Y-122119909D01*
X201233866Y-121998824D01*
X201235673Y-121990025D01*
X201286343Y-121813834D01*
X201356861Y-121660331D01*
X201443180Y-121536255D01*
X201541252Y-121448346D01*
X201571686Y-121430386D01*
X201648025Y-121407454D01*
X201747458Y-121399531D01*
X201850256Y-121406690D01*
X201936685Y-121429004D01*
X201936752Y-121429032D01*
X201996107Y-121464967D01*
X202061327Y-121520362D01*
X202087116Y-121547407D01*
X202134232Y-121606873D01*
X202178289Y-121676214D01*
X202220901Y-121759893D01*
X202263682Y-121862377D01*
X202308248Y-121988130D01*
X202356213Y-122141618D01*
X202409192Y-122327305D01*
X202468799Y-122549657D01*
X202517103Y-122736428D01*
X202601297Y-123050274D01*
X202683583Y-123323178D01*
X202766098Y-123559378D01*
X202850977Y-123763107D01*
X202940357Y-123938601D01*
X203036375Y-124090096D01*
X203141167Y-124221828D01*
X203256868Y-124338031D01*
X203373166Y-124433647D01*
X203545468Y-124542507D01*
X203742798Y-124632520D01*
X203946074Y-124695397D01*
X204003585Y-124707405D01*
X204145109Y-124725052D01*
X204310686Y-124732548D01*
X204484673Y-124730263D01*
X204651429Y-124718569D01*
X204795314Y-124697839D01*
X204841401Y-124687500D01*
X205032721Y-124623079D01*
X205230214Y-124529110D01*
X205416207Y-124414633D01*
X205504613Y-124348303D01*
X205685408Y-124173069D01*
X205840166Y-123962131D01*
X205967908Y-123717594D01*
X206067654Y-123441561D01*
X206138424Y-123136136D01*
X206168445Y-122922637D01*
X206182327Y-122746432D01*
X206189306Y-122550022D01*
X206189504Y-122347612D01*
X206183046Y-122153409D01*
X206170055Y-121981616D01*
X206159498Y-121897321D01*
X206098740Y-121587341D01*
X206014451Y-121312881D01*
X205904486Y-121069461D01*
X205766698Y-120852604D01*
X205598942Y-120657829D01*
X205537078Y-120598040D01*
X205351526Y-120451579D01*
X205132745Y-120321569D01*
X204891292Y-120212629D01*
X204637725Y-120129375D01*
X204382601Y-120076423D01*
X204328259Y-120069406D01*
X204255101Y-120062091D01*
X204216161Y-120063756D01*
X204200666Y-120077626D01*
X204197842Y-120106928D01*
X204197840Y-120108454D01*
X204195702Y-120146837D01*
X204189746Y-120222629D01*
X204180644Y-120328103D01*
X204169066Y-120455533D01*
X204155683Y-120597193D01*
X204152775Y-120627321D01*
X204135879Y-120801296D01*
X204123213Y-120935424D01*
X204114932Y-121035030D01*
X204111190Y-121105442D01*
X204112139Y-121151985D01*
X204117934Y-121179986D01*
X204128728Y-121194771D01*
X204144676Y-121201666D01*
X204165932Y-121205997D01*
X204169509Y-121206738D01*
X204284752Y-121237902D01*
X204417631Y-121283833D01*
X204550014Y-121337496D01*
X204663769Y-121391854D01*
X204701702Y-121413243D01*
X204863918Y-121536881D01*
X204994475Y-121692416D01*
X205092873Y-121878787D01*
X205158616Y-122094931D01*
X205191205Y-122339789D01*
X205194927Y-122464285D01*
X205180309Y-122717181D01*
X205135989Y-122937328D01*
X205061266Y-123126849D01*
X204955440Y-123287868D01*
X204904697Y-123344309D01*
X204769232Y-123456896D01*
X204624532Y-123530659D01*
X204476086Y-123565015D01*
X204329380Y-123559382D01*
X204189904Y-123513178D01*
X204070925Y-123432789D01*
X204019365Y-123382217D01*
X203972122Y-123323219D01*
X203927619Y-123251629D01*
X203884280Y-123163284D01*
X203840527Y-123054019D01*
X203794785Y-122919669D01*
X203745477Y-122756069D01*
X203691026Y-122559056D01*
X203629856Y-122324465D01*
X203586699Y-122153667D01*
X203489589Y-121801473D01*
X203385409Y-121492105D01*
X203274386Y-121226115D01*
X203156745Y-121004059D01*
X203057843Y-120858187D01*
X202885709Y-120669578D01*
X202688385Y-120515784D01*
X202470946Y-120397833D01*
X202238465Y-120316757D01*
X201996017Y-120273584D01*
X201748677Y-120269346D01*
X201501518Y-120305073D01*
X201259616Y-120381794D01*
X201096799Y-120460070D01*
X200913077Y-120584884D01*
X200741503Y-120745529D01*
X200590164Y-120932659D01*
X200467145Y-121136930D01*
X200417905Y-121244721D01*
X200355619Y-121411354D01*
X200308682Y-121571902D01*
X200274980Y-121737851D01*
X200252400Y-121920689D01*
X200238826Y-122131903D01*
X200235134Y-122237791D01*
X200233001Y-122529939D01*
X200244987Y-122786632D01*
G37*
X200244987Y-122786632D02*
X200272497Y-123015956D01*
X200316937Y-123225995D01*
X200379711Y-123424833D01*
X200462226Y-123620557D01*
X200483023Y-123663706D01*
X200621313Y-123897308D01*
X200789953Y-124097374D01*
X200989436Y-124264331D01*
X201220254Y-124398605D01*
X201435363Y-124485327D01*
X201563355Y-124521998D01*
X201698596Y-124550695D01*
X201810670Y-124565667D01*
X201986696Y-124579241D01*
X201987926Y-124513950D01*
X201989067Y-124472922D01*
X201991586Y-124393991D01*
X201995232Y-124284579D01*
X201999758Y-124152112D01*
X202004914Y-124004014D01*
X202007628Y-123927053D01*
X202026101Y-123405446D01*
X201865734Y-123364182D01*
X201672995Y-123294587D01*
X201511979Y-123193741D01*
X201384046Y-123062870D01*
X201290559Y-122903204D01*
X201258041Y-122815803D01*
X201234995Y-122710822D01*
X201219055Y-122574864D01*
X201210596Y-122421807D01*
X201209994Y-122265529D01*
X201217626Y-122119909D01*
X201233866Y-121998824D01*
X201235673Y-121990025D01*
X201286343Y-121813834D01*
X201356861Y-121660331D01*
X201443180Y-121536255D01*
X201541252Y-121448346D01*
X201571686Y-121430386D01*
X201648025Y-121407454D01*
X201747458Y-121399531D01*
X201850256Y-121406690D01*
X201936685Y-121429004D01*
X201936752Y-121429032D01*
X201996107Y-121464967D01*
X202061327Y-121520362D01*
X202087116Y-121547407D01*
X202134232Y-121606873D01*
X202178289Y-121676214D01*
X202220901Y-121759893D01*
X202263682Y-121862377D01*
X202308248Y-121988130D01*
X202356213Y-122141618D01*
X202409192Y-122327305D01*
X202468799Y-122549657D01*
X202517103Y-122736428D01*
X202601297Y-123050274D01*
X202683583Y-123323178D01*
X202766098Y-123559378D01*
X202850977Y-123763107D01*
X202940357Y-123938601D01*
X203036375Y-124090096D01*
X203141167Y-124221828D01*
X203256868Y-124338031D01*
X203373166Y-124433647D01*
X203545468Y-124542507D01*
X203742798Y-124632520D01*
X203946074Y-124695397D01*
X204003585Y-124707405D01*
X204145109Y-124725052D01*
X204310686Y-124732548D01*
X204484673Y-124730263D01*
X204651429Y-124718569D01*
X204795314Y-124697839D01*
X204841401Y-124687500D01*
X205032721Y-124623079D01*
X205230214Y-124529110D01*
X205416207Y-124414633D01*
X205504613Y-124348303D01*
X205685408Y-124173069D01*
X205840166Y-123962131D01*
X205967908Y-123717594D01*
X206067654Y-123441561D01*
X206138424Y-123136136D01*
X206168445Y-122922637D01*
X206182327Y-122746432D01*
X206189306Y-122550022D01*
X206189504Y-122347612D01*
X206183046Y-122153409D01*
X206170055Y-121981616D01*
X206159498Y-121897321D01*
X206098740Y-121587341D01*
X206014451Y-121312881D01*
X205904486Y-121069461D01*
X205766698Y-120852604D01*
X205598942Y-120657829D01*
X205537078Y-120598040D01*
X205351526Y-120451579D01*
X205132745Y-120321569D01*
X204891292Y-120212629D01*
X204637725Y-120129375D01*
X204382601Y-120076423D01*
X204328259Y-120069406D01*
X204255101Y-120062091D01*
X204216161Y-120063756D01*
X204200666Y-120077626D01*
X204197842Y-120106928D01*
X204197840Y-120108454D01*
X204195702Y-120146837D01*
X204189746Y-120222629D01*
X204180644Y-120328103D01*
X204169066Y-120455533D01*
X204155683Y-120597193D01*
X204152775Y-120627321D01*
X204135879Y-120801296D01*
X204123213Y-120935424D01*
X204114932Y-121035030D01*
X204111190Y-121105442D01*
X204112139Y-121151985D01*
X204117934Y-121179986D01*
X204128728Y-121194771D01*
X204144676Y-121201666D01*
X204165932Y-121205997D01*
X204169509Y-121206738D01*
X204284752Y-121237902D01*
X204417631Y-121283833D01*
X204550014Y-121337496D01*
X204663769Y-121391854D01*
X204701702Y-121413243D01*
X204863918Y-121536881D01*
X204994475Y-121692416D01*
X205092873Y-121878787D01*
X205158616Y-122094931D01*
X205191205Y-122339789D01*
X205194927Y-122464285D01*
X205180309Y-122717181D01*
X205135989Y-122937328D01*
X205061266Y-123126849D01*
X204955440Y-123287868D01*
X204904697Y-123344309D01*
X204769232Y-123456896D01*
X204624532Y-123530659D01*
X204476086Y-123565015D01*
X204329380Y-123559382D01*
X204189904Y-123513178D01*
X204070925Y-123432789D01*
X204019365Y-123382217D01*
X203972122Y-123323219D01*
X203927619Y-123251629D01*
X203884280Y-123163284D01*
X203840527Y-123054019D01*
X203794785Y-122919669D01*
X203745477Y-122756069D01*
X203691026Y-122559056D01*
X203629856Y-122324465D01*
X203586699Y-122153667D01*
X203489589Y-121801473D01*
X203385409Y-121492105D01*
X203274386Y-121226115D01*
X203156745Y-121004059D01*
X203057843Y-120858187D01*
X202885709Y-120669578D01*
X202688385Y-120515784D01*
X202470946Y-120397833D01*
X202238465Y-120316757D01*
X201996017Y-120273584D01*
X201748677Y-120269346D01*
X201501518Y-120305073D01*
X201259616Y-120381794D01*
X201096799Y-120460070D01*
X200913077Y-120584884D01*
X200741503Y-120745529D01*
X200590164Y-120932659D01*
X200467145Y-121136930D01*
X200417905Y-121244721D01*
X200355619Y-121411354D01*
X200308682Y-121571902D01*
X200274980Y-121737851D01*
X200252400Y-121920689D01*
X200238826Y-122131903D01*
X200235134Y-122237791D01*
X200233001Y-122529939D01*
X200244987Y-122786632D01*
G36*
X201830139Y-111533214D02*
G01*
X201831181Y-111684632D01*
X201834145Y-111801317D01*
X201840060Y-111893881D01*
X201849951Y-111972938D01*
X201864847Y-112049104D01*
X201885772Y-112132992D01*
X201889516Y-112146977D01*
X201990250Y-112437131D01*
X202128979Y-112704691D01*
X202303213Y-112946674D01*
X202510467Y-113160095D01*
X202748253Y-113341971D01*
X203004678Y-113484936D01*
X203208601Y-113568031D01*
X203417963Y-113626668D01*
X203645596Y-113663748D01*
X203871394Y-113680857D01*
X204205223Y-113677946D01*
X204513691Y-113638266D01*
X204799125Y-113560974D01*
X205063849Y-113445226D01*
X205310189Y-113290181D01*
X205540472Y-113094996D01*
X205570937Y-113065044D01*
X205766500Y-112843705D01*
X205921647Y-112609111D01*
X206040986Y-112353469D01*
X206103854Y-112164276D01*
X206129662Y-112046005D01*
X206150474Y-111896262D01*
X206165339Y-111728751D01*
X206173310Y-111557178D01*
X206173438Y-111395247D01*
X206165912Y-111267538D01*
X206126899Y-111030853D01*
X206058784Y-110786823D01*
X205966426Y-110547517D01*
X205854685Y-110325004D01*
X205728419Y-110131353D01*
X205687747Y-110079863D01*
X205497838Y-109886198D01*
X205275038Y-109721439D01*
X205022762Y-109587306D01*
X204744424Y-109485519D01*
X204443440Y-109417797D01*
X204345268Y-109403890D01*
X204001926Y-109381331D01*
X203993750Y-109381779D01*
X203993750Y-110530201D01*
X204263973Y-110543929D01*
X204501240Y-110587686D01*
X204707234Y-110662221D01*
X204883638Y-110768282D01*
X205032135Y-110906616D01*
X205127695Y-111034311D01*
X205189022Y-111140507D01*
X205228883Y-111240397D01*
X205250725Y-111348199D01*
X205257998Y-111478129D01*
X205256954Y-111567232D01*
X205251720Y-111683911D01*
X205241662Y-111770321D01*
X205223986Y-111841505D01*
X205195903Y-111912505D01*
X205190793Y-111923695D01*
X205110974Y-112057989D01*
X205001219Y-112189719D01*
X204875136Y-112303615D01*
X204813617Y-112346955D01*
X204661827Y-112423295D01*
X204478326Y-112482447D01*
X204274143Y-112522412D01*
X204060304Y-112541188D01*
X203847838Y-112536777D01*
X203795092Y-112531688D01*
X203565291Y-112494670D01*
X203371242Y-112438408D01*
X203206456Y-112360188D01*
X203064446Y-112257291D01*
X203004955Y-112200897D01*
X202877246Y-112040097D01*
X202788650Y-111863347D01*
X202739164Y-111676606D01*
X202728788Y-111485834D01*
X202757520Y-111296991D01*
X202825358Y-111116035D01*
X202932300Y-110948927D01*
X203005282Y-110867565D01*
X203152991Y-110743384D01*
X203318858Y-110649328D01*
X203508039Y-110583637D01*
X203725694Y-110544550D01*
X203976980Y-110530306D01*
X203993750Y-110530201D01*
X203993750Y-109381779D01*
X203674671Y-109399294D01*
X203365131Y-109457249D01*
X203074933Y-109554671D01*
X202805704Y-109691031D01*
X202559073Y-109865803D01*
X202367967Y-110044642D01*
X202192640Y-110261689D01*
X202045890Y-110509726D01*
X201931595Y-110781707D01*
X201891370Y-110911521D01*
X201868368Y-110998131D01*
X201851863Y-111072742D01*
X201840815Y-111145883D01*
X201834189Y-111228082D01*
X201830947Y-111329868D01*
X201830053Y-111461771D01*
X201830139Y-111533214D01*
G37*
X201830139Y-111533214D02*
X201831181Y-111684632D01*
X201834145Y-111801317D01*
X201840060Y-111893881D01*
X201849951Y-111972938D01*
X201864847Y-112049104D01*
X201885772Y-112132992D01*
X201889516Y-112146977D01*
X201990250Y-112437131D01*
X202128979Y-112704691D01*
X202303213Y-112946674D01*
X202510467Y-113160095D01*
X202748253Y-113341971D01*
X203004678Y-113484936D01*
X203208601Y-113568031D01*
X203417963Y-113626668D01*
X203645596Y-113663748D01*
X203871394Y-113680857D01*
X204205223Y-113677946D01*
X204513691Y-113638266D01*
X204799125Y-113560974D01*
X205063849Y-113445226D01*
X205310189Y-113290181D01*
X205540472Y-113094996D01*
X205570937Y-113065044D01*
X205766500Y-112843705D01*
X205921647Y-112609111D01*
X206040986Y-112353469D01*
X206103854Y-112164276D01*
X206129662Y-112046005D01*
X206150474Y-111896262D01*
X206165339Y-111728751D01*
X206173310Y-111557178D01*
X206173438Y-111395247D01*
X206165912Y-111267538D01*
X206126899Y-111030853D01*
X206058784Y-110786823D01*
X205966426Y-110547517D01*
X205854685Y-110325004D01*
X205728419Y-110131353D01*
X205687747Y-110079863D01*
X205497838Y-109886198D01*
X205275038Y-109721439D01*
X205022762Y-109587306D01*
X204744424Y-109485519D01*
X204443440Y-109417797D01*
X204345268Y-109403890D01*
X204001926Y-109381331D01*
X203993750Y-109381779D01*
X203993750Y-110530201D01*
X204263973Y-110543929D01*
X204501240Y-110587686D01*
X204707234Y-110662221D01*
X204883638Y-110768282D01*
X205032135Y-110906616D01*
X205127695Y-111034311D01*
X205189022Y-111140507D01*
X205228883Y-111240397D01*
X205250725Y-111348199D01*
X205257998Y-111478129D01*
X205256954Y-111567232D01*
X205251720Y-111683911D01*
X205241662Y-111770321D01*
X205223986Y-111841505D01*
X205195903Y-111912505D01*
X205190793Y-111923695D01*
X205110974Y-112057989D01*
X205001219Y-112189719D01*
X204875136Y-112303615D01*
X204813617Y-112346955D01*
X204661827Y-112423295D01*
X204478326Y-112482447D01*
X204274143Y-112522412D01*
X204060304Y-112541188D01*
X203847838Y-112536777D01*
X203795092Y-112531688D01*
X203565291Y-112494670D01*
X203371242Y-112438408D01*
X203206456Y-112360188D01*
X203064446Y-112257291D01*
X203004955Y-112200897D01*
X202877246Y-112040097D01*
X202788650Y-111863347D01*
X202739164Y-111676606D01*
X202728788Y-111485834D01*
X202757520Y-111296991D01*
X202825358Y-111116035D01*
X202932300Y-110948927D01*
X203005282Y-110867565D01*
X203152991Y-110743384D01*
X203318858Y-110649328D01*
X203508039Y-110583637D01*
X203725694Y-110544550D01*
X203976980Y-110530306D01*
X203993750Y-110530201D01*
X203993750Y-109381779D01*
X203674671Y-109399294D01*
X203365131Y-109457249D01*
X203074933Y-109554671D01*
X202805704Y-109691031D01*
X202559073Y-109865803D01*
X202367967Y-110044642D01*
X202192640Y-110261689D01*
X202045890Y-110509726D01*
X201931595Y-110781707D01*
X201891370Y-110911521D01*
X201868368Y-110998131D01*
X201851863Y-111072742D01*
X201840815Y-111145883D01*
X201834189Y-111228082D01*
X201830947Y-111329868D01*
X201830053Y-111461771D01*
X201830139Y-111533214D01*
G36*
X93282202Y-110272634D02*
G01*
X93347694Y-110354615D01*
X93430821Y-110410384D01*
X93524872Y-110439941D01*
X93623135Y-110443287D01*
X93718899Y-110420421D01*
X93805453Y-110371343D01*
X93876085Y-110296053D01*
X93890755Y-110272634D01*
X93935282Y-110194859D01*
X93938357Y-107976831D01*
X93938625Y-107697241D01*
X93938654Y-107427062D01*
X93938453Y-107168507D01*
X93938034Y-106923790D01*
X93937410Y-106695127D01*
X93936591Y-106484730D01*
X93935588Y-106294815D01*
X93934415Y-106127596D01*
X93933081Y-105985287D01*
X93931599Y-105870102D01*
X93929980Y-105784256D01*
X93928235Y-105729962D01*
X93926555Y-105709864D01*
X93878882Y-105609175D01*
X93805653Y-105529051D01*
X93761764Y-105499276D01*
X93661852Y-105461655D01*
X93557890Y-105455452D01*
X93457292Y-105478687D01*
X93367471Y-105529379D01*
X93295842Y-105605549D01*
X93282202Y-105627366D01*
X93237676Y-105705141D01*
X93237676Y-110194859D01*
X93282202Y-110272634D01*
G37*
X93282202Y-110272634D02*
X93347694Y-110354615D01*
X93430821Y-110410384D01*
X93524872Y-110439941D01*
X93623135Y-110443287D01*
X93718899Y-110420421D01*
X93805453Y-110371343D01*
X93876085Y-110296053D01*
X93890755Y-110272634D01*
X93935282Y-110194859D01*
X93938357Y-107976831D01*
X93938625Y-107697241D01*
X93938654Y-107427062D01*
X93938453Y-107168507D01*
X93938034Y-106923790D01*
X93937410Y-106695127D01*
X93936591Y-106484730D01*
X93935588Y-106294815D01*
X93934415Y-106127596D01*
X93933081Y-105985287D01*
X93931599Y-105870102D01*
X93929980Y-105784256D01*
X93928235Y-105729962D01*
X93926555Y-105709864D01*
X93878882Y-105609175D01*
X93805653Y-105529051D01*
X93761764Y-105499276D01*
X93661852Y-105461655D01*
X93557890Y-105455452D01*
X93457292Y-105478687D01*
X93367471Y-105529379D01*
X93295842Y-105605549D01*
X93282202Y-105627366D01*
X93237676Y-105705141D01*
X93237676Y-110194859D01*
X93282202Y-110272634D01*
G36*
X88989244Y-110272634D02*
G01*
X89048397Y-110347063D01*
X89114455Y-110397845D01*
X89195141Y-110445282D01*
X92611620Y-110445282D01*
X92692305Y-110397845D01*
X92773967Y-110331195D01*
X92829103Y-110247327D01*
X92857745Y-110152926D01*
X92859925Y-110054674D01*
X92835676Y-109959254D01*
X92785028Y-109873350D01*
X92708015Y-109803644D01*
X92689395Y-109792202D01*
X92611620Y-109747676D01*
X91131444Y-109742804D01*
X89651267Y-109737931D01*
X89651267Y-106162068D01*
X91131444Y-106157196D01*
X92611620Y-106152324D01*
X92689395Y-106107798D01*
X92764322Y-106046706D01*
X92821319Y-105964377D01*
X92856410Y-105870423D01*
X92865614Y-105774456D01*
X92854092Y-105709864D01*
X92804387Y-105607289D01*
X92729850Y-105526732D01*
X92688524Y-105498755D01*
X92611620Y-105454718D01*
X89195141Y-105454718D01*
X89114455Y-105502154D01*
X89038690Y-105562644D01*
X88989244Y-105627366D01*
X88944718Y-105705141D01*
X88944718Y-110194859D01*
X88989244Y-110272634D01*
G37*
X88989244Y-110272634D02*
X89048397Y-110347063D01*
X89114455Y-110397845D01*
X89195141Y-110445282D01*
X92611620Y-110445282D01*
X92692305Y-110397845D01*
X92773967Y-110331195D01*
X92829103Y-110247327D01*
X92857745Y-110152926D01*
X92859925Y-110054674D01*
X92835676Y-109959254D01*
X92785028Y-109873350D01*
X92708015Y-109803644D01*
X92689395Y-109792202D01*
X92611620Y-109747676D01*
X91131444Y-109742804D01*
X89651267Y-109737931D01*
X89651267Y-106162068D01*
X91131444Y-106157196D01*
X92611620Y-106152324D01*
X92689395Y-106107798D01*
X92764322Y-106046706D01*
X92821319Y-105964377D01*
X92856410Y-105870423D01*
X92865614Y-105774456D01*
X92854092Y-105709864D01*
X92804387Y-105607289D01*
X92729850Y-105526732D01*
X92688524Y-105498755D01*
X92611620Y-105454718D01*
X89195141Y-105454718D01*
X89114455Y-105502154D01*
X89038690Y-105562644D01*
X88989244Y-105627366D01*
X88944718Y-105705141D01*
X88944718Y-110194859D01*
X88989244Y-110272634D01*
G36*
X90062484Y-109270944D02*
G01*
X90128910Y-109353486D01*
X90214990Y-109410543D01*
X90313513Y-109440250D01*
X90417267Y-109440747D01*
X90519040Y-109410169D01*
X90546076Y-109395857D01*
X90621958Y-109335289D01*
X90671037Y-109270944D01*
X90715563Y-109193169D01*
X90726319Y-108021549D01*
X91080441Y-108021549D01*
X91091197Y-109193169D01*
X91135723Y-109270944D01*
X91201375Y-109353242D01*
X91284566Y-109409181D01*
X91378613Y-109438728D01*
X91476832Y-109441853D01*
X91572542Y-109418521D01*
X91659058Y-109368702D01*
X91729698Y-109292364D01*
X91741367Y-109273854D01*
X91788803Y-109193169D01*
X91799559Y-108021549D01*
X92082131Y-108021549D01*
X92092887Y-109193169D01*
X92137413Y-109270944D01*
X92203065Y-109353242D01*
X92286256Y-109409181D01*
X92380303Y-109438728D01*
X92478522Y-109441853D01*
X92574232Y-109418521D01*
X92660748Y-109368702D01*
X92731389Y-109292364D01*
X92743057Y-109273854D01*
X92790493Y-109193169D01*
X92793784Y-108406127D01*
X92794138Y-108240013D01*
X92793818Y-108083620D01*
X92792880Y-107940864D01*
X92791377Y-107815659D01*
X92789367Y-107711921D01*
X92786904Y-107633566D01*
X92784042Y-107584508D01*
X92781983Y-107570145D01*
X92733607Y-107468725D01*
X92659689Y-107388127D01*
X92616975Y-107359037D01*
X92540070Y-107315000D01*
X90268380Y-107315000D01*
X90187695Y-107362436D01*
X90111929Y-107422926D01*
X90062484Y-107487647D01*
X90017958Y-107565422D01*
X90017958Y-109193169D01*
X90062484Y-109270944D01*
G37*
X90062484Y-109270944D02*
X90128910Y-109353486D01*
X90214990Y-109410543D01*
X90313513Y-109440250D01*
X90417267Y-109440747D01*
X90519040Y-109410169D01*
X90546076Y-109395857D01*
X90621958Y-109335289D01*
X90671037Y-109270944D01*
X90715563Y-109193169D01*
X90726319Y-108021549D01*
X91080441Y-108021549D01*
X91091197Y-109193169D01*
X91135723Y-109270944D01*
X91201375Y-109353242D01*
X91284566Y-109409181D01*
X91378613Y-109438728D01*
X91476832Y-109441853D01*
X91572542Y-109418521D01*
X91659058Y-109368702D01*
X91729698Y-109292364D01*
X91741367Y-109273854D01*
X91788803Y-109193169D01*
X91799559Y-108021549D01*
X92082131Y-108021549D01*
X92092887Y-109193169D01*
X92137413Y-109270944D01*
X92203065Y-109353242D01*
X92286256Y-109409181D01*
X92380303Y-109438728D01*
X92478522Y-109441853D01*
X92574232Y-109418521D01*
X92660748Y-109368702D01*
X92731389Y-109292364D01*
X92743057Y-109273854D01*
X92790493Y-109193169D01*
X92793784Y-108406127D01*
X92794138Y-108240013D01*
X92793818Y-108083620D01*
X92792880Y-107940864D01*
X92791377Y-107815659D01*
X92789367Y-107711921D01*
X92786904Y-107633566D01*
X92784042Y-107584508D01*
X92781983Y-107570145D01*
X92733607Y-107468725D01*
X92659689Y-107388127D01*
X92616975Y-107359037D01*
X92540070Y-107315000D01*
X90268380Y-107315000D01*
X90187695Y-107362436D01*
X90111929Y-107422926D01*
X90062484Y-107487647D01*
X90017958Y-107565422D01*
X90017958Y-109193169D01*
X90062484Y-109270944D01*
G36*
X91045517Y-106869815D02*
G01*
X91095594Y-106955476D01*
X91171855Y-107024902D01*
X91192295Y-107037418D01*
X91290827Y-107074672D01*
X91393827Y-107081633D01*
X91493607Y-107060207D01*
X91582480Y-107012297D01*
X91652759Y-106939810D01*
X91665273Y-106920223D01*
X91700389Y-106837646D01*
X91717812Y-106747257D01*
X91715187Y-106664031D01*
X91709304Y-106640005D01*
X91660550Y-106539556D01*
X91589310Y-106461950D01*
X91501527Y-106409556D01*
X91403147Y-106384745D01*
X91300114Y-106389886D01*
X91198373Y-106427351D01*
X91189135Y-106432593D01*
X91107761Y-106498886D01*
X91052748Y-106582457D01*
X91024059Y-106676603D01*
X91021661Y-106774624D01*
X91045517Y-106869815D01*
G37*
X91045517Y-106869815D02*
X91095594Y-106955476D01*
X91171855Y-107024902D01*
X91192295Y-107037418D01*
X91290827Y-107074672D01*
X91393827Y-107081633D01*
X91493607Y-107060207D01*
X91582480Y-107012297D01*
X91652759Y-106939810D01*
X91665273Y-106920223D01*
X91700389Y-106837646D01*
X91717812Y-106747257D01*
X91715187Y-106664031D01*
X91709304Y-106640005D01*
X91660550Y-106539556D01*
X91589310Y-106461950D01*
X91501527Y-106409556D01*
X91403147Y-106384745D01*
X91300114Y-106389886D01*
X91198373Y-106427351D01*
X91189135Y-106432593D01*
X91107761Y-106498886D01*
X91052748Y-106582457D01*
X91024059Y-106676603D01*
X91021661Y-106774624D01*
X91045517Y-106869815D01*
D13*
X127645500Y-92466000D02*
X111670500Y-92466000D01*
X127645500Y-87366000D02*
X127645500Y-92466000D01*
X111670500Y-87366000D02*
X127645500Y-87366000D01*
X172800000Y-69620000D02*
X172800000Y-69240000D01*
X166380000Y-69620000D02*
X172800000Y-69620000D01*
X166380000Y-87860000D02*
X172800000Y-87860000D01*
X166380000Y-69620000D02*
X166380000Y-87860000D01*
X192125000Y-87860000D02*
X192125000Y-86860000D01*
X191345000Y-87860000D02*
X192125000Y-87860000D01*
X192125000Y-69620000D02*
X192125000Y-70620000D01*
X191345000Y-69620000D02*
X192125000Y-69620000D01*
X157840000Y-97339564D02*
X157840000Y-96135436D01*
X159660000Y-97339564D02*
X159660000Y-96135436D01*
X146410000Y-97339564D02*
X146410000Y-96135436D01*
X148230000Y-97339564D02*
X148230000Y-96135436D01*
X150220000Y-97339564D02*
X150220000Y-96135436D01*
X152040000Y-97339564D02*
X152040000Y-96135436D01*
X154030000Y-97339564D02*
X154030000Y-96135436D01*
X155850000Y-97339564D02*
X155850000Y-96135436D01*
X138790000Y-97339564D02*
X138790000Y-96135436D01*
X140610000Y-97339564D02*
X140610000Y-96135436D01*
X142600000Y-97339564D02*
X142600000Y-96135436D01*
X144420000Y-97339564D02*
X144420000Y-96135436D01*
X134980000Y-97339564D02*
X134980000Y-96135436D01*
X136800000Y-97339564D02*
X136800000Y-96135436D01*
X131170000Y-97339564D02*
X131170000Y-96135436D01*
X132990000Y-97339564D02*
X132990000Y-96135436D01*
X104959564Y-76475000D02*
X103755436Y-76475000D01*
X104959564Y-74655000D02*
X103755436Y-74655000D01*
X104754000Y-65408564D02*
X104754000Y-64204436D01*
X106574000Y-65408564D02*
X106574000Y-64204436D01*
X140737000Y-84197436D02*
X140737000Y-85401564D01*
X138917000Y-84197436D02*
X138917000Y-85401564D01*
X136927000Y-84197436D02*
X136927000Y-85401564D01*
X135107000Y-84197436D02*
X135107000Y-85401564D01*
X110384000Y-64204436D02*
X110384000Y-65408564D01*
X108564000Y-64204436D02*
X108564000Y-65408564D01*
X114194000Y-64204436D02*
X114194000Y-65408564D01*
X112374000Y-64204436D02*
X112374000Y-65408564D01*
X120036000Y-64204436D02*
X120036000Y-65408564D01*
X118216000Y-64204436D02*
X118216000Y-65408564D01*
X123846000Y-64204436D02*
X123846000Y-65408564D01*
X122026000Y-64204436D02*
X122026000Y-65408564D01*
X145182000Y-84270436D02*
X145182000Y-85474564D01*
X143362000Y-84270436D02*
X143362000Y-85474564D01*
X148992000Y-84270436D02*
X148992000Y-85474564D01*
X147172000Y-84270436D02*
X147172000Y-85474564D01*
X197845000Y-79124564D02*
X197845000Y-77920436D01*
X199665000Y-79124564D02*
X199665000Y-77920436D01*
X199665000Y-83635436D02*
X199665000Y-84839564D01*
X197845000Y-83635436D02*
X197845000Y-84839564D01*
X199665000Y-63950436D02*
X199665000Y-65154564D01*
X197845000Y-63950436D02*
X197845000Y-65154564D01*
X138882000Y-77202000D02*
X138882000Y-78662000D01*
X142042000Y-77202000D02*
X142042000Y-79362000D01*
X142042000Y-77202000D02*
X141112000Y-77202000D01*
X138882000Y-77202000D02*
X139812000Y-77202000D01*
X133802000Y-77202000D02*
X133802000Y-78662000D01*
X136962000Y-77202000D02*
X136962000Y-79362000D01*
X136962000Y-77202000D02*
X136032000Y-77202000D01*
X133802000Y-77202000D02*
X134732000Y-77202000D01*
X93150000Y-85288748D02*
X93150000Y-88061252D01*
X89730000Y-85288748D02*
X89730000Y-88061252D01*
X141600000Y-49150000D02*
X134700000Y-49150000D01*
X141600000Y-52450000D02*
X134700000Y-52450000D01*
X141600000Y-49150000D02*
X141600000Y-52450000D01*
X141600000Y-54230000D02*
X134700000Y-54230000D01*
X141600000Y-57530000D02*
X134700000Y-57530000D01*
X141600000Y-54230000D02*
X141600000Y-57530000D01*
X118725000Y-78805000D02*
X118725000Y-82255000D01*
X118725000Y-78805000D02*
X118725000Y-76855000D01*
X108605000Y-78805000D02*
X108605000Y-80755000D01*
X108605000Y-78805000D02*
X108605000Y-76855000D01*
X159516000Y-65834000D02*
X159516000Y-67834000D01*
X157476000Y-67834000D02*
X157476000Y-65834000D01*
X144214436Y-67670000D02*
X145418564Y-67670000D01*
X144214436Y-69490000D02*
X145418564Y-69490000D01*
X157476000Y-59134000D02*
X157476000Y-57134000D01*
X159516000Y-57134000D02*
X159516000Y-59134000D01*
X175644564Y-63140000D02*
X174440436Y-63140000D01*
X175644564Y-61320000D02*
X174440436Y-61320000D01*
X175644564Y-66696000D02*
X174440436Y-66696000D01*
X175644564Y-64876000D02*
X174440436Y-64876000D01*
X92460000Y-94980000D02*
X92460000Y-96980000D01*
X90420000Y-96980000D02*
X90420000Y-94980000D01*
X111173000Y-93976000D02*
X113173000Y-93976000D01*
X113173000Y-96016000D02*
X111173000Y-96016000D01*
X123333000Y-96016000D02*
X121333000Y-96016000D01*
X121333000Y-93976000D02*
X123333000Y-93976000D01*
X152755000Y-65665000D02*
X153855000Y-65665000D01*
X152755000Y-65935000D02*
X152755000Y-65665000D01*
X151255000Y-65935000D02*
X152755000Y-65935000D01*
X152755000Y-59305000D02*
X155585000Y-59305000D01*
X152755000Y-59035000D02*
X152755000Y-59305000D01*
X151255000Y-59035000D02*
X152755000Y-59035000D01*
X137515000Y-69475000D02*
X138615000Y-69475000D01*
X137515000Y-69745000D02*
X137515000Y-69475000D01*
X136015000Y-69745000D02*
X137515000Y-69745000D01*
X137515000Y-63115000D02*
X140345000Y-63115000D01*
X137515000Y-62845000D02*
X137515000Y-63115000D01*
X136015000Y-62845000D02*
X137515000Y-62845000D01*
D14*
X118284523Y-92924380D02*
X117617857Y-93924380D01*
X117617857Y-92924380D02*
X118284523Y-93924380D01*
X116713095Y-93924380D02*
X117284523Y-93924380D01*
X116998809Y-93924380D02*
X116998809Y-92924380D01*
X117094047Y-93067238D01*
X117189285Y-93162476D01*
X117284523Y-93210095D01*
D10*
X186641190Y-82727142D02*
X186207857Y-82727142D01*
X186022142Y-83408095D02*
X186641190Y-83408095D01*
X186641190Y-82108095D01*
X186022142Y-82108095D01*
X185526904Y-83346190D02*
X185341190Y-83408095D01*
X185031666Y-83408095D01*
X184907857Y-83346190D01*
X184845952Y-83284285D01*
X184784047Y-83160476D01*
X184784047Y-83036666D01*
X184845952Y-82912857D01*
X184907857Y-82850952D01*
X185031666Y-82789047D01*
X185279285Y-82727142D01*
X185403095Y-82665238D01*
X185465000Y-82603333D01*
X185526904Y-82479523D01*
X185526904Y-82355714D01*
X185465000Y-82231904D01*
X185403095Y-82170000D01*
X185279285Y-82108095D01*
X184969761Y-82108095D01*
X184784047Y-82170000D01*
X184226904Y-83408095D02*
X184226904Y-82108095D01*
X183731666Y-82108095D01*
X183607857Y-82170000D01*
X183545952Y-82231904D01*
X183484047Y-82355714D01*
X183484047Y-82541428D01*
X183545952Y-82665238D01*
X183607857Y-82727142D01*
X183731666Y-82789047D01*
X184226904Y-82789047D01*
X183050714Y-82108095D02*
X182245952Y-82108095D01*
X182679285Y-82603333D01*
X182493571Y-82603333D01*
X182369761Y-82665238D01*
X182307857Y-82727142D01*
X182245952Y-82850952D01*
X182245952Y-83160476D01*
X182307857Y-83284285D01*
X182369761Y-83346190D01*
X182493571Y-83408095D01*
X182865000Y-83408095D01*
X182988809Y-83346190D01*
X183050714Y-83284285D01*
X181750714Y-82231904D02*
X181688809Y-82170000D01*
X181565000Y-82108095D01*
X181255476Y-82108095D01*
X181131666Y-82170000D01*
X181069761Y-82231904D01*
X181007857Y-82355714D01*
X181007857Y-82479523D01*
X181069761Y-82665238D01*
X181812619Y-83408095D01*
X181007857Y-83408095D01*
X180450714Y-82912857D02*
X179460238Y-82912857D01*
X178965000Y-82108095D02*
X178655476Y-83408095D01*
X178407857Y-82479523D01*
X178160238Y-83408095D01*
X177850714Y-82108095D01*
X176612619Y-83408095D02*
X177045952Y-82789047D01*
X177355476Y-83408095D02*
X177355476Y-82108095D01*
X176860238Y-82108095D01*
X176736428Y-82170000D01*
X176674523Y-82231904D01*
X176612619Y-82355714D01*
X176612619Y-82541428D01*
X176674523Y-82665238D01*
X176736428Y-82727142D01*
X176860238Y-82789047D01*
X177355476Y-82789047D01*
X175807857Y-82108095D02*
X175560238Y-82108095D01*
X175436428Y-82170000D01*
X175312619Y-82293809D01*
X175250714Y-82541428D01*
X175250714Y-82974761D01*
X175312619Y-83222380D01*
X175436428Y-83346190D01*
X175560238Y-83408095D01*
X175807857Y-83408095D01*
X175931666Y-83346190D01*
X176055476Y-83222380D01*
X176117380Y-82974761D01*
X176117380Y-82541428D01*
X176055476Y-82293809D01*
X175931666Y-82170000D01*
X175807857Y-82108095D01*
X174445952Y-82108095D02*
X174198333Y-82108095D01*
X174074523Y-82170000D01*
X173950714Y-82293809D01*
X173888809Y-82541428D01*
X173888809Y-82974761D01*
X173950714Y-83222380D01*
X174074523Y-83346190D01*
X174198333Y-83408095D01*
X174445952Y-83408095D01*
X174569761Y-83346190D01*
X174693571Y-83222380D01*
X174755476Y-82974761D01*
X174755476Y-82541428D01*
X174693571Y-82293809D01*
X174569761Y-82170000D01*
X174445952Y-82108095D01*
X173331666Y-83408095D02*
X173331666Y-82108095D01*
X172898333Y-83036666D01*
X172465000Y-82108095D01*
X172465000Y-83408095D01*
X171969761Y-82108095D02*
X171165000Y-82108095D01*
X171598333Y-82603333D01*
X171412619Y-82603333D01*
X171288809Y-82665238D01*
X171226904Y-82727142D01*
X171165000Y-82850952D01*
X171165000Y-83160476D01*
X171226904Y-83284285D01*
X171288809Y-83346190D01*
X171412619Y-83408095D01*
X171784047Y-83408095D01*
X171907857Y-83346190D01*
X171969761Y-83284285D01*
X170669761Y-82231904D02*
X170607857Y-82170000D01*
X170484047Y-82108095D01*
X170174523Y-82108095D01*
X170050714Y-82170000D01*
X169988809Y-82231904D01*
X169926904Y-82355714D01*
X169926904Y-82479523D01*
X169988809Y-82665238D01*
X170731666Y-83408095D01*
X169926904Y-83408095D01*
D15*
X117929962Y-55186088D02*
X117429582Y-55186088D01*
X117929962Y-55472019D02*
X117644030Y-55257570D01*
X117429582Y-55472019D02*
X117715513Y-55186088D01*
X117786996Y-58799721D02*
X117786996Y-59037998D01*
X117929962Y-58752066D02*
X117429582Y-58918860D01*
X117929962Y-59085653D01*
X105356962Y-55186088D02*
X104856582Y-55186088D01*
X105356962Y-55472019D02*
X105071030Y-55257570D01*
X104856582Y-55472019D02*
X105142513Y-55186088D01*
X105213996Y-58799721D02*
X105213996Y-59037998D01*
X105356962Y-58752066D02*
X104856582Y-58918860D01*
X105356962Y-59085653D01*
X121993962Y-55186088D02*
X121493582Y-55186088D01*
X121993962Y-55472019D02*
X121708030Y-55257570D01*
X121493582Y-55472019D02*
X121779513Y-55186088D01*
X121850996Y-58799721D02*
X121850996Y-59037998D01*
X121993962Y-58752066D02*
X121493582Y-58918860D01*
X121993962Y-59085653D01*
D14*
X161022380Y-96094642D02*
X160546190Y-95761309D01*
X161022380Y-95523214D02*
X160022380Y-95523214D01*
X160022380Y-95904166D01*
X160070000Y-95999404D01*
X160117619Y-96047023D01*
X160212857Y-96094642D01*
X160355714Y-96094642D01*
X160450952Y-96047023D01*
X160498571Y-95999404D01*
X160546190Y-95904166D01*
X160546190Y-95523214D01*
X160117619Y-96475595D02*
X160070000Y-96523214D01*
X160022380Y-96618452D01*
X160022380Y-96856547D01*
X160070000Y-96951785D01*
X160117619Y-96999404D01*
X160212857Y-97047023D01*
X160308095Y-97047023D01*
X160450952Y-96999404D01*
X161022380Y-96427976D01*
X161022380Y-97047023D01*
X161022380Y-97999404D02*
X161022380Y-97427976D01*
X161022380Y-97713690D02*
X160022380Y-97713690D01*
X160165238Y-97618452D01*
X160260476Y-97523214D01*
X160308095Y-97427976D01*
X149592380Y-96094642D02*
X149116190Y-95761309D01*
X149592380Y-95523214D02*
X148592380Y-95523214D01*
X148592380Y-95904166D01*
X148640000Y-95999404D01*
X148687619Y-96047023D01*
X148782857Y-96094642D01*
X148925714Y-96094642D01*
X149020952Y-96047023D01*
X149068571Y-95999404D01*
X149116190Y-95904166D01*
X149116190Y-95523214D01*
X148687619Y-96475595D02*
X148640000Y-96523214D01*
X148592380Y-96618452D01*
X148592380Y-96856547D01*
X148640000Y-96951785D01*
X148687619Y-96999404D01*
X148782857Y-97047023D01*
X148878095Y-97047023D01*
X149020952Y-96999404D01*
X149592380Y-96427976D01*
X149592380Y-97047023D01*
X148592380Y-97666071D02*
X148592380Y-97761309D01*
X148640000Y-97856547D01*
X148687619Y-97904166D01*
X148782857Y-97951785D01*
X148973333Y-97999404D01*
X149211428Y-97999404D01*
X149401904Y-97951785D01*
X149497142Y-97904166D01*
X149544761Y-97856547D01*
X149592380Y-97761309D01*
X149592380Y-97666071D01*
X149544761Y-97570833D01*
X149497142Y-97523214D01*
X149401904Y-97475595D01*
X149211428Y-97427976D01*
X148973333Y-97427976D01*
X148782857Y-97475595D01*
X148687619Y-97523214D01*
X148640000Y-97570833D01*
X148592380Y-97666071D01*
X153402380Y-96094642D02*
X152926190Y-95761309D01*
X153402380Y-95523214D02*
X152402380Y-95523214D01*
X152402380Y-95904166D01*
X152450000Y-95999404D01*
X152497619Y-96047023D01*
X152592857Y-96094642D01*
X152735714Y-96094642D01*
X152830952Y-96047023D01*
X152878571Y-95999404D01*
X152926190Y-95904166D01*
X152926190Y-95523214D01*
X153402380Y-97047023D02*
X153402380Y-96475595D01*
X153402380Y-96761309D02*
X152402380Y-96761309D01*
X152545238Y-96666071D01*
X152640476Y-96570833D01*
X152688095Y-96475595D01*
X153402380Y-97523214D02*
X153402380Y-97713690D01*
X153354761Y-97808928D01*
X153307142Y-97856547D01*
X153164285Y-97951785D01*
X152973809Y-97999404D01*
X152592857Y-97999404D01*
X152497619Y-97951785D01*
X152450000Y-97904166D01*
X152402380Y-97808928D01*
X152402380Y-97618452D01*
X152450000Y-97523214D01*
X152497619Y-97475595D01*
X152592857Y-97427976D01*
X152830952Y-97427976D01*
X152926190Y-97475595D01*
X152973809Y-97523214D01*
X153021428Y-97618452D01*
X153021428Y-97808928D01*
X152973809Y-97904166D01*
X152926190Y-97951785D01*
X152830952Y-97999404D01*
X157212380Y-96094642D02*
X156736190Y-95761309D01*
X157212380Y-95523214D02*
X156212380Y-95523214D01*
X156212380Y-95904166D01*
X156260000Y-95999404D01*
X156307619Y-96047023D01*
X156402857Y-96094642D01*
X156545714Y-96094642D01*
X156640952Y-96047023D01*
X156688571Y-95999404D01*
X156736190Y-95904166D01*
X156736190Y-95523214D01*
X157212380Y-97047023D02*
X157212380Y-96475595D01*
X157212380Y-96761309D02*
X156212380Y-96761309D01*
X156355238Y-96666071D01*
X156450476Y-96570833D01*
X156498095Y-96475595D01*
X156640952Y-97618452D02*
X156593333Y-97523214D01*
X156545714Y-97475595D01*
X156450476Y-97427976D01*
X156402857Y-97427976D01*
X156307619Y-97475595D01*
X156260000Y-97523214D01*
X156212380Y-97618452D01*
X156212380Y-97808928D01*
X156260000Y-97904166D01*
X156307619Y-97951785D01*
X156402857Y-97999404D01*
X156450476Y-97999404D01*
X156545714Y-97951785D01*
X156593333Y-97904166D01*
X156640952Y-97808928D01*
X156640952Y-97618452D01*
X156688571Y-97523214D01*
X156736190Y-97475595D01*
X156831428Y-97427976D01*
X157021904Y-97427976D01*
X157117142Y-97475595D01*
X157164761Y-97523214D01*
X157212380Y-97618452D01*
X157212380Y-97808928D01*
X157164761Y-97904166D01*
X157117142Y-97951785D01*
X157021904Y-97999404D01*
X156831428Y-97999404D01*
X156736190Y-97951785D01*
X156688571Y-97904166D01*
X156640952Y-97808928D01*
X141972380Y-96094642D02*
X141496190Y-95761309D01*
X141972380Y-95523214D02*
X140972380Y-95523214D01*
X140972380Y-95904166D01*
X141020000Y-95999404D01*
X141067619Y-96047023D01*
X141162857Y-96094642D01*
X141305714Y-96094642D01*
X141400952Y-96047023D01*
X141448571Y-95999404D01*
X141496190Y-95904166D01*
X141496190Y-95523214D01*
X141972380Y-97047023D02*
X141972380Y-96475595D01*
X141972380Y-96761309D02*
X140972380Y-96761309D01*
X141115238Y-96666071D01*
X141210476Y-96570833D01*
X141258095Y-96475595D01*
X140972380Y-97380357D02*
X140972380Y-98047023D01*
X141972380Y-97618452D01*
X145782380Y-96094642D02*
X145306190Y-95761309D01*
X145782380Y-95523214D02*
X144782380Y-95523214D01*
X144782380Y-95904166D01*
X144830000Y-95999404D01*
X144877619Y-96047023D01*
X144972857Y-96094642D01*
X145115714Y-96094642D01*
X145210952Y-96047023D01*
X145258571Y-95999404D01*
X145306190Y-95904166D01*
X145306190Y-95523214D01*
X145782380Y-97047023D02*
X145782380Y-96475595D01*
X145782380Y-96761309D02*
X144782380Y-96761309D01*
X144925238Y-96666071D01*
X145020476Y-96570833D01*
X145068095Y-96475595D01*
X144782380Y-97904166D02*
X144782380Y-97713690D01*
X144830000Y-97618452D01*
X144877619Y-97570833D01*
X145020476Y-97475595D01*
X145210952Y-97427976D01*
X145591904Y-97427976D01*
X145687142Y-97475595D01*
X145734761Y-97523214D01*
X145782380Y-97618452D01*
X145782380Y-97808928D01*
X145734761Y-97904166D01*
X145687142Y-97951785D01*
X145591904Y-97999404D01*
X145353809Y-97999404D01*
X145258571Y-97951785D01*
X145210952Y-97904166D01*
X145163333Y-97808928D01*
X145163333Y-97618452D01*
X145210952Y-97523214D01*
X145258571Y-97475595D01*
X145353809Y-97427976D01*
X138162380Y-96094642D02*
X137686190Y-95761309D01*
X138162380Y-95523214D02*
X137162380Y-95523214D01*
X137162380Y-95904166D01*
X137210000Y-95999404D01*
X137257619Y-96047023D01*
X137352857Y-96094642D01*
X137495714Y-96094642D01*
X137590952Y-96047023D01*
X137638571Y-95999404D01*
X137686190Y-95904166D01*
X137686190Y-95523214D01*
X138162380Y-97047023D02*
X138162380Y-96475595D01*
X138162380Y-96761309D02*
X137162380Y-96761309D01*
X137305238Y-96666071D01*
X137400476Y-96570833D01*
X137448095Y-96475595D01*
X137162380Y-97951785D02*
X137162380Y-97475595D01*
X137638571Y-97427976D01*
X137590952Y-97475595D01*
X137543333Y-97570833D01*
X137543333Y-97808928D01*
X137590952Y-97904166D01*
X137638571Y-97951785D01*
X137733809Y-97999404D01*
X137971904Y-97999404D01*
X138067142Y-97951785D01*
X138114761Y-97904166D01*
X138162380Y-97808928D01*
X138162380Y-97570833D01*
X138114761Y-97475595D01*
X138067142Y-97427976D01*
X134352380Y-96094642D02*
X133876190Y-95761309D01*
X134352380Y-95523214D02*
X133352380Y-95523214D01*
X133352380Y-95904166D01*
X133400000Y-95999404D01*
X133447619Y-96047023D01*
X133542857Y-96094642D01*
X133685714Y-96094642D01*
X133780952Y-96047023D01*
X133828571Y-95999404D01*
X133876190Y-95904166D01*
X133876190Y-95523214D01*
X134352380Y-97047023D02*
X134352380Y-96475595D01*
X134352380Y-96761309D02*
X133352380Y-96761309D01*
X133495238Y-96666071D01*
X133590476Y-96570833D01*
X133638095Y-96475595D01*
X133685714Y-97904166D02*
X134352380Y-97904166D01*
X133304761Y-97666071D02*
X134019047Y-97427976D01*
X134019047Y-98047023D01*
X105000357Y-74197380D02*
X105333690Y-73721190D01*
X105571785Y-74197380D02*
X105571785Y-73197380D01*
X105190833Y-73197380D01*
X105095595Y-73245000D01*
X105047976Y-73292619D01*
X105000357Y-73387857D01*
X105000357Y-73530714D01*
X105047976Y-73625952D01*
X105095595Y-73673571D01*
X105190833Y-73721190D01*
X105571785Y-73721190D01*
X104047976Y-74197380D02*
X104619404Y-74197380D01*
X104333690Y-74197380D02*
X104333690Y-73197380D01*
X104428928Y-73340238D01*
X104524166Y-73435476D01*
X104619404Y-73483095D01*
X103714642Y-73197380D02*
X103095595Y-73197380D01*
X103428928Y-73578333D01*
X103286071Y-73578333D01*
X103190833Y-73625952D01*
X103143214Y-73673571D01*
X103095595Y-73768809D01*
X103095595Y-74006904D01*
X103143214Y-74102142D01*
X103190833Y-74149761D01*
X103286071Y-74197380D01*
X103571785Y-74197380D01*
X103667023Y-74149761D01*
X103714642Y-74102142D01*
X104338380Y-64163642D02*
X103862190Y-63830309D01*
X104338380Y-63592214D02*
X103338380Y-63592214D01*
X103338380Y-63973166D01*
X103386000Y-64068404D01*
X103433619Y-64116023D01*
X103528857Y-64163642D01*
X103671714Y-64163642D01*
X103766952Y-64116023D01*
X103814571Y-64068404D01*
X103862190Y-63973166D01*
X103862190Y-63592214D01*
X104338380Y-65116023D02*
X104338380Y-64544595D01*
X104338380Y-64830309D02*
X103338380Y-64830309D01*
X103481238Y-64735071D01*
X103576476Y-64639833D01*
X103624095Y-64544595D01*
X103433619Y-65496976D02*
X103386000Y-65544595D01*
X103338380Y-65639833D01*
X103338380Y-65877928D01*
X103386000Y-65973166D01*
X103433619Y-66020785D01*
X103528857Y-66068404D01*
X103624095Y-66068404D01*
X103766952Y-66020785D01*
X104338380Y-65449357D01*
X104338380Y-66068404D01*
X138459380Y-84156642D02*
X137983190Y-83823309D01*
X138459380Y-83585214D02*
X137459380Y-83585214D01*
X137459380Y-83966166D01*
X137507000Y-84061404D01*
X137554619Y-84109023D01*
X137649857Y-84156642D01*
X137792714Y-84156642D01*
X137887952Y-84109023D01*
X137935571Y-84061404D01*
X137983190Y-83966166D01*
X137983190Y-83585214D01*
X138459380Y-85109023D02*
X138459380Y-84537595D01*
X138459380Y-84823309D02*
X137459380Y-84823309D01*
X137602238Y-84728071D01*
X137697476Y-84632833D01*
X137745095Y-84537595D01*
X138459380Y-86061404D02*
X138459380Y-85489976D01*
X138459380Y-85775690D02*
X137459380Y-85775690D01*
X137602238Y-85680452D01*
X137697476Y-85585214D01*
X137745095Y-85489976D01*
X134649380Y-84156642D02*
X134173190Y-83823309D01*
X134649380Y-83585214D02*
X133649380Y-83585214D01*
X133649380Y-83966166D01*
X133697000Y-84061404D01*
X133744619Y-84109023D01*
X133839857Y-84156642D01*
X133982714Y-84156642D01*
X134077952Y-84109023D01*
X134125571Y-84061404D01*
X134173190Y-83966166D01*
X134173190Y-83585214D01*
X134649380Y-85109023D02*
X134649380Y-84537595D01*
X134649380Y-84823309D02*
X133649380Y-84823309D01*
X133792238Y-84728071D01*
X133887476Y-84632833D01*
X133935095Y-84537595D01*
X133649380Y-85728071D02*
X133649380Y-85823309D01*
X133697000Y-85918547D01*
X133744619Y-85966166D01*
X133839857Y-86013785D01*
X134030333Y-86061404D01*
X134268428Y-86061404D01*
X134458904Y-86013785D01*
X134554142Y-85966166D01*
X134601761Y-85918547D01*
X134649380Y-85823309D01*
X134649380Y-85728071D01*
X134601761Y-85632833D01*
X134554142Y-85585214D01*
X134458904Y-85537595D01*
X134268428Y-85489976D01*
X134030333Y-85489976D01*
X133839857Y-85537595D01*
X133744619Y-85585214D01*
X133697000Y-85632833D01*
X133649380Y-85728071D01*
X108106380Y-64639833D02*
X107630190Y-64306500D01*
X108106380Y-64068404D02*
X107106380Y-64068404D01*
X107106380Y-64449357D01*
X107154000Y-64544595D01*
X107201619Y-64592214D01*
X107296857Y-64639833D01*
X107439714Y-64639833D01*
X107534952Y-64592214D01*
X107582571Y-64544595D01*
X107630190Y-64449357D01*
X107630190Y-64068404D01*
X108106380Y-65116023D02*
X108106380Y-65306500D01*
X108058761Y-65401738D01*
X108011142Y-65449357D01*
X107868285Y-65544595D01*
X107677809Y-65592214D01*
X107296857Y-65592214D01*
X107201619Y-65544595D01*
X107154000Y-65496976D01*
X107106380Y-65401738D01*
X107106380Y-65211261D01*
X107154000Y-65116023D01*
X107201619Y-65068404D01*
X107296857Y-65020785D01*
X107534952Y-65020785D01*
X107630190Y-65068404D01*
X107677809Y-65116023D01*
X107725428Y-65211261D01*
X107725428Y-65401738D01*
X107677809Y-65496976D01*
X107630190Y-65544595D01*
X107534952Y-65592214D01*
X111916380Y-64639833D02*
X111440190Y-64306500D01*
X111916380Y-64068404D02*
X110916380Y-64068404D01*
X110916380Y-64449357D01*
X110964000Y-64544595D01*
X111011619Y-64592214D01*
X111106857Y-64639833D01*
X111249714Y-64639833D01*
X111344952Y-64592214D01*
X111392571Y-64544595D01*
X111440190Y-64449357D01*
X111440190Y-64068404D01*
X111344952Y-65211261D02*
X111297333Y-65116023D01*
X111249714Y-65068404D01*
X111154476Y-65020785D01*
X111106857Y-65020785D01*
X111011619Y-65068404D01*
X110964000Y-65116023D01*
X110916380Y-65211261D01*
X110916380Y-65401738D01*
X110964000Y-65496976D01*
X111011619Y-65544595D01*
X111106857Y-65592214D01*
X111154476Y-65592214D01*
X111249714Y-65544595D01*
X111297333Y-65496976D01*
X111344952Y-65401738D01*
X111344952Y-65211261D01*
X111392571Y-65116023D01*
X111440190Y-65068404D01*
X111535428Y-65020785D01*
X111725904Y-65020785D01*
X111821142Y-65068404D01*
X111868761Y-65116023D01*
X111916380Y-65211261D01*
X111916380Y-65401738D01*
X111868761Y-65496976D01*
X111821142Y-65544595D01*
X111725904Y-65592214D01*
X111535428Y-65592214D01*
X111440190Y-65544595D01*
X111392571Y-65496976D01*
X111344952Y-65401738D01*
X117758380Y-64639833D02*
X117282190Y-64306500D01*
X117758380Y-64068404D02*
X116758380Y-64068404D01*
X116758380Y-64449357D01*
X116806000Y-64544595D01*
X116853619Y-64592214D01*
X116948857Y-64639833D01*
X117091714Y-64639833D01*
X117186952Y-64592214D01*
X117234571Y-64544595D01*
X117282190Y-64449357D01*
X117282190Y-64068404D01*
X116758380Y-64973166D02*
X116758380Y-65639833D01*
X117758380Y-65211261D01*
X121568380Y-64639833D02*
X121092190Y-64306500D01*
X121568380Y-64068404D02*
X120568380Y-64068404D01*
X120568380Y-64449357D01*
X120616000Y-64544595D01*
X120663619Y-64592214D01*
X120758857Y-64639833D01*
X120901714Y-64639833D01*
X120996952Y-64592214D01*
X121044571Y-64544595D01*
X121092190Y-64449357D01*
X121092190Y-64068404D01*
X120568380Y-65496976D02*
X120568380Y-65306500D01*
X120616000Y-65211261D01*
X120663619Y-65163642D01*
X120806476Y-65068404D01*
X120996952Y-65020785D01*
X121377904Y-65020785D01*
X121473142Y-65068404D01*
X121520761Y-65116023D01*
X121568380Y-65211261D01*
X121568380Y-65401738D01*
X121520761Y-65496976D01*
X121473142Y-65544595D01*
X121377904Y-65592214D01*
X121139809Y-65592214D01*
X121044571Y-65544595D01*
X120996952Y-65496976D01*
X120949333Y-65401738D01*
X120949333Y-65211261D01*
X120996952Y-65116023D01*
X121044571Y-65068404D01*
X121139809Y-65020785D01*
X142904380Y-84705833D02*
X142428190Y-84372500D01*
X142904380Y-84134404D02*
X141904380Y-84134404D01*
X141904380Y-84515357D01*
X141952000Y-84610595D01*
X141999619Y-84658214D01*
X142094857Y-84705833D01*
X142237714Y-84705833D01*
X142332952Y-84658214D01*
X142380571Y-84610595D01*
X142428190Y-84515357D01*
X142428190Y-84134404D01*
X141904380Y-85610595D02*
X141904380Y-85134404D01*
X142380571Y-85086785D01*
X142332952Y-85134404D01*
X142285333Y-85229642D01*
X142285333Y-85467738D01*
X142332952Y-85562976D01*
X142380571Y-85610595D01*
X142475809Y-85658214D01*
X142713904Y-85658214D01*
X142809142Y-85610595D01*
X142856761Y-85562976D01*
X142904380Y-85467738D01*
X142904380Y-85229642D01*
X142856761Y-85134404D01*
X142809142Y-85086785D01*
X146714380Y-84705833D02*
X146238190Y-84372500D01*
X146714380Y-84134404D02*
X145714380Y-84134404D01*
X145714380Y-84515357D01*
X145762000Y-84610595D01*
X145809619Y-84658214D01*
X145904857Y-84705833D01*
X146047714Y-84705833D01*
X146142952Y-84658214D01*
X146190571Y-84610595D01*
X146238190Y-84515357D01*
X146238190Y-84134404D01*
X146047714Y-85562976D02*
X146714380Y-85562976D01*
X145666761Y-85324880D02*
X146381047Y-85086785D01*
X146381047Y-85705833D01*
X197302380Y-78355833D02*
X196826190Y-78022500D01*
X197302380Y-77784404D02*
X196302380Y-77784404D01*
X196302380Y-78165357D01*
X196350000Y-78260595D01*
X196397619Y-78308214D01*
X196492857Y-78355833D01*
X196635714Y-78355833D01*
X196730952Y-78308214D01*
X196778571Y-78260595D01*
X196826190Y-78165357D01*
X196826190Y-77784404D01*
X196302380Y-78689166D02*
X196302380Y-79308214D01*
X196683333Y-78974880D01*
X196683333Y-79117738D01*
X196730952Y-79212976D01*
X196778571Y-79260595D01*
X196873809Y-79308214D01*
X197111904Y-79308214D01*
X197207142Y-79260595D01*
X197254761Y-79212976D01*
X197302380Y-79117738D01*
X197302380Y-78832023D01*
X197254761Y-78736785D01*
X197207142Y-78689166D01*
X197387380Y-84070833D02*
X196911190Y-83737500D01*
X197387380Y-83499404D02*
X196387380Y-83499404D01*
X196387380Y-83880357D01*
X196435000Y-83975595D01*
X196482619Y-84023214D01*
X196577857Y-84070833D01*
X196720714Y-84070833D01*
X196815952Y-84023214D01*
X196863571Y-83975595D01*
X196911190Y-83880357D01*
X196911190Y-83499404D01*
X196482619Y-84451785D02*
X196435000Y-84499404D01*
X196387380Y-84594642D01*
X196387380Y-84832738D01*
X196435000Y-84927976D01*
X196482619Y-84975595D01*
X196577857Y-85023214D01*
X196673095Y-85023214D01*
X196815952Y-84975595D01*
X197387380Y-84404166D01*
X197387380Y-85023214D01*
X197387380Y-64385833D02*
X196911190Y-64052500D01*
X197387380Y-63814404D02*
X196387380Y-63814404D01*
X196387380Y-64195357D01*
X196435000Y-64290595D01*
X196482619Y-64338214D01*
X196577857Y-64385833D01*
X196720714Y-64385833D01*
X196815952Y-64338214D01*
X196863571Y-64290595D01*
X196911190Y-64195357D01*
X196911190Y-63814404D01*
X197387380Y-65338214D02*
X197387380Y-64766785D01*
X197387380Y-65052500D02*
X196387380Y-65052500D01*
X196530238Y-64957261D01*
X196625476Y-64862023D01*
X196673095Y-64766785D01*
X143509619Y-77866761D02*
X143462000Y-77771523D01*
X143366761Y-77676285D01*
X143223904Y-77533428D01*
X143176285Y-77438190D01*
X143176285Y-77342952D01*
X143414380Y-77390571D02*
X143366761Y-77295333D01*
X143271523Y-77200095D01*
X143081047Y-77152476D01*
X142747714Y-77152476D01*
X142557238Y-77200095D01*
X142462000Y-77295333D01*
X142414380Y-77390571D01*
X142414380Y-77581047D01*
X142462000Y-77676285D01*
X142557238Y-77771523D01*
X142747714Y-77819142D01*
X143081047Y-77819142D01*
X143271523Y-77771523D01*
X143366761Y-77676285D01*
X143414380Y-77581047D01*
X143414380Y-77390571D01*
X142509619Y-78200095D02*
X142462000Y-78247714D01*
X142414380Y-78342952D01*
X142414380Y-78581047D01*
X142462000Y-78676285D01*
X142509619Y-78723904D01*
X142604857Y-78771523D01*
X142700095Y-78771523D01*
X142842952Y-78723904D01*
X143414380Y-78152476D01*
X143414380Y-78771523D01*
X138429619Y-77866761D02*
X138382000Y-77771523D01*
X138286761Y-77676285D01*
X138143904Y-77533428D01*
X138096285Y-77438190D01*
X138096285Y-77342952D01*
X138334380Y-77390571D02*
X138286761Y-77295333D01*
X138191523Y-77200095D01*
X138001047Y-77152476D01*
X137667714Y-77152476D01*
X137477238Y-77200095D01*
X137382000Y-77295333D01*
X137334380Y-77390571D01*
X137334380Y-77581047D01*
X137382000Y-77676285D01*
X137477238Y-77771523D01*
X137667714Y-77819142D01*
X138001047Y-77819142D01*
X138191523Y-77771523D01*
X138286761Y-77676285D01*
X138334380Y-77581047D01*
X138334380Y-77390571D01*
X138334380Y-78771523D02*
X138334380Y-78200095D01*
X138334380Y-78485809D02*
X137334380Y-78485809D01*
X137477238Y-78390571D01*
X137572476Y-78295333D01*
X137620095Y-78200095D01*
D15*
X109166962Y-55186088D02*
X108666582Y-55186088D01*
X109166962Y-55472019D02*
X108881030Y-55257570D01*
X108666582Y-55472019D02*
X108952513Y-55186088D01*
X109023996Y-58799721D02*
X109023996Y-59037998D01*
X109166962Y-58752066D02*
X108666582Y-58918860D01*
X109166962Y-59085653D01*
D14*
X88718571Y-86341666D02*
X88718571Y-86008333D01*
X89242380Y-86008333D02*
X88242380Y-86008333D01*
X88242380Y-86484523D01*
X89242380Y-87389285D02*
X89242380Y-86817857D01*
X89242380Y-87103571D02*
X88242380Y-87103571D01*
X88385238Y-87008333D01*
X88480476Y-86913095D01*
X88528095Y-86817857D01*
X137938095Y-48752380D02*
X137938095Y-47752380D01*
X137700000Y-47752380D01*
X137557142Y-47800000D01*
X137461904Y-47895238D01*
X137414285Y-47990476D01*
X137366666Y-48180952D01*
X137366666Y-48323809D01*
X137414285Y-48514285D01*
X137461904Y-48609523D01*
X137557142Y-48704761D01*
X137700000Y-48752380D01*
X137938095Y-48752380D01*
X136985714Y-47847619D02*
X136938095Y-47800000D01*
X136842857Y-47752380D01*
X136604761Y-47752380D01*
X136509523Y-47800000D01*
X136461904Y-47847619D01*
X136414285Y-47942857D01*
X136414285Y-48038095D01*
X136461904Y-48180952D01*
X137033333Y-48752380D01*
X136414285Y-48752380D01*
X137938095Y-53832380D02*
X137938095Y-52832380D01*
X137700000Y-52832380D01*
X137557142Y-52880000D01*
X137461904Y-52975238D01*
X137414285Y-53070476D01*
X137366666Y-53260952D01*
X137366666Y-53403809D01*
X137414285Y-53594285D01*
X137461904Y-53689523D01*
X137557142Y-53784761D01*
X137700000Y-53832380D01*
X137938095Y-53832380D01*
X136414285Y-53832380D02*
X136985714Y-53832380D01*
X136700000Y-53832380D02*
X136700000Y-52832380D01*
X136795238Y-52975238D01*
X136890476Y-53070476D01*
X136985714Y-53118095D01*
D10*
X120479285Y-76019285D02*
X120541190Y-75957380D01*
X120603095Y-75771666D01*
X120603095Y-75647857D01*
X120541190Y-75462142D01*
X120417380Y-75338333D01*
X120293571Y-75276428D01*
X120045952Y-75214523D01*
X119860238Y-75214523D01*
X119612619Y-75276428D01*
X119488809Y-75338333D01*
X119365000Y-75462142D01*
X119303095Y-75647857D01*
X119303095Y-75771666D01*
X119365000Y-75957380D01*
X119426904Y-76019285D01*
X120603095Y-76576428D02*
X119303095Y-76576428D01*
X119922142Y-76576428D02*
X119922142Y-77319285D01*
X120603095Y-77319285D02*
X119303095Y-77319285D01*
X119303095Y-77814523D02*
X119303095Y-78619285D01*
X119798333Y-78185952D01*
X119798333Y-78371666D01*
X119860238Y-78495476D01*
X119922142Y-78557380D01*
X120045952Y-78619285D01*
X120355476Y-78619285D01*
X120479285Y-78557380D01*
X120541190Y-78495476D01*
X120603095Y-78371666D01*
X120603095Y-78000238D01*
X120541190Y-77876428D01*
X120479285Y-77814523D01*
X119736428Y-79733571D02*
X120603095Y-79733571D01*
X119241190Y-79424047D02*
X120169761Y-79114523D01*
X120169761Y-79919285D01*
X119303095Y-80662142D02*
X119303095Y-80785952D01*
X119365000Y-80909761D01*
X119426904Y-80971666D01*
X119550714Y-81033571D01*
X119798333Y-81095476D01*
X120107857Y-81095476D01*
X120355476Y-81033571D01*
X120479285Y-80971666D01*
X120541190Y-80909761D01*
X120603095Y-80785952D01*
X120603095Y-80662142D01*
X120541190Y-80538333D01*
X120479285Y-80476428D01*
X120355476Y-80414523D01*
X120107857Y-80352619D01*
X119798333Y-80352619D01*
X119550714Y-80414523D01*
X119426904Y-80476428D01*
X119365000Y-80538333D01*
X119303095Y-80662142D01*
X119365000Y-82333571D02*
X119303095Y-82209761D01*
X119303095Y-82024047D01*
X119365000Y-81838333D01*
X119488809Y-81714523D01*
X119612619Y-81652619D01*
X119860238Y-81590714D01*
X120045952Y-81590714D01*
X120293571Y-81652619D01*
X120417380Y-81714523D01*
X120541190Y-81838333D01*
X120603095Y-82024047D01*
X120603095Y-82147857D01*
X120541190Y-82333571D01*
X120479285Y-82395476D01*
X120045952Y-82395476D01*
X120045952Y-82147857D01*
D14*
X157103142Y-66667333D02*
X157150761Y-66619714D01*
X157198380Y-66476857D01*
X157198380Y-66381619D01*
X157150761Y-66238761D01*
X157055523Y-66143523D01*
X156960285Y-66095904D01*
X156769809Y-66048285D01*
X156626952Y-66048285D01*
X156436476Y-66095904D01*
X156341238Y-66143523D01*
X156246000Y-66238761D01*
X156198380Y-66381619D01*
X156198380Y-66476857D01*
X156246000Y-66619714D01*
X156293619Y-66667333D01*
X156626952Y-67238761D02*
X156579333Y-67143523D01*
X156531714Y-67095904D01*
X156436476Y-67048285D01*
X156388857Y-67048285D01*
X156293619Y-67095904D01*
X156246000Y-67143523D01*
X156198380Y-67238761D01*
X156198380Y-67429238D01*
X156246000Y-67524476D01*
X156293619Y-67572095D01*
X156388857Y-67619714D01*
X156436476Y-67619714D01*
X156531714Y-67572095D01*
X156579333Y-67524476D01*
X156626952Y-67429238D01*
X156626952Y-67238761D01*
X156674571Y-67143523D01*
X156722190Y-67095904D01*
X156817428Y-67048285D01*
X157007904Y-67048285D01*
X157103142Y-67095904D01*
X157150761Y-67143523D01*
X157198380Y-67238761D01*
X157198380Y-67429238D01*
X157150761Y-67524476D01*
X157103142Y-67572095D01*
X157007904Y-67619714D01*
X156817428Y-67619714D01*
X156722190Y-67572095D01*
X156674571Y-67524476D01*
X156626952Y-67429238D01*
X144983166Y-70757142D02*
X145030785Y-70804761D01*
X145173642Y-70852380D01*
X145268880Y-70852380D01*
X145411738Y-70804761D01*
X145506976Y-70709523D01*
X145554595Y-70614285D01*
X145602214Y-70423809D01*
X145602214Y-70280952D01*
X145554595Y-70090476D01*
X145506976Y-69995238D01*
X145411738Y-69900000D01*
X145268880Y-69852380D01*
X145173642Y-69852380D01*
X145030785Y-69900000D01*
X144983166Y-69947619D01*
X144649833Y-69852380D02*
X143983166Y-69852380D01*
X144411738Y-70852380D01*
X160603142Y-57967333D02*
X160650761Y-57919714D01*
X160698380Y-57776857D01*
X160698380Y-57681619D01*
X160650761Y-57538761D01*
X160555523Y-57443523D01*
X160460285Y-57395904D01*
X160269809Y-57348285D01*
X160126952Y-57348285D01*
X159936476Y-57395904D01*
X159841238Y-57443523D01*
X159746000Y-57538761D01*
X159698380Y-57681619D01*
X159698380Y-57776857D01*
X159746000Y-57919714D01*
X159793619Y-57967333D01*
X159698380Y-58824476D02*
X159698380Y-58634000D01*
X159746000Y-58538761D01*
X159793619Y-58491142D01*
X159936476Y-58395904D01*
X160126952Y-58348285D01*
X160507904Y-58348285D01*
X160603142Y-58395904D01*
X160650761Y-58443523D01*
X160698380Y-58538761D01*
X160698380Y-58729238D01*
X160650761Y-58824476D01*
X160603142Y-58872095D01*
X160507904Y-58919714D01*
X160269809Y-58919714D01*
X160174571Y-58872095D01*
X160126952Y-58824476D01*
X160079333Y-58729238D01*
X160079333Y-58538761D01*
X160126952Y-58443523D01*
X160174571Y-58395904D01*
X160269809Y-58348285D01*
X175209166Y-60767142D02*
X175256785Y-60814761D01*
X175399642Y-60862380D01*
X175494880Y-60862380D01*
X175637738Y-60814761D01*
X175732976Y-60719523D01*
X175780595Y-60624285D01*
X175828214Y-60433809D01*
X175828214Y-60290952D01*
X175780595Y-60100476D01*
X175732976Y-60005238D01*
X175637738Y-59910000D01*
X175494880Y-59862380D01*
X175399642Y-59862380D01*
X175256785Y-59910000D01*
X175209166Y-59957619D01*
X174304404Y-59862380D02*
X174780595Y-59862380D01*
X174828214Y-60338571D01*
X174780595Y-60290952D01*
X174685357Y-60243333D01*
X174447261Y-60243333D01*
X174352023Y-60290952D01*
X174304404Y-60338571D01*
X174256785Y-60433809D01*
X174256785Y-60671904D01*
X174304404Y-60767142D01*
X174352023Y-60814761D01*
X174447261Y-60862380D01*
X174685357Y-60862380D01*
X174780595Y-60814761D01*
X174828214Y-60767142D01*
X175245666Y-64365142D02*
X175293285Y-64412761D01*
X175436142Y-64460380D01*
X175531380Y-64460380D01*
X175674238Y-64412761D01*
X175769476Y-64317523D01*
X175817095Y-64222285D01*
X175864714Y-64031809D01*
X175864714Y-63888952D01*
X175817095Y-63698476D01*
X175769476Y-63603238D01*
X175674238Y-63508000D01*
X175531380Y-63460380D01*
X175436142Y-63460380D01*
X175293285Y-63508000D01*
X175245666Y-63555619D01*
X174388523Y-63793714D02*
X174388523Y-64460380D01*
X174626619Y-63412761D02*
X174864714Y-64127047D01*
X174245666Y-64127047D01*
X90047142Y-95813333D02*
X90094761Y-95765714D01*
X90142380Y-95622857D01*
X90142380Y-95527619D01*
X90094761Y-95384761D01*
X89999523Y-95289523D01*
X89904285Y-95241904D01*
X89713809Y-95194285D01*
X89570952Y-95194285D01*
X89380476Y-95241904D01*
X89285238Y-95289523D01*
X89190000Y-95384761D01*
X89142380Y-95527619D01*
X89142380Y-95622857D01*
X89190000Y-95765714D01*
X89237619Y-95813333D01*
X89142380Y-96146666D02*
X89142380Y-96765714D01*
X89523333Y-96432380D01*
X89523333Y-96575238D01*
X89570952Y-96670476D01*
X89618571Y-96718095D01*
X89713809Y-96765714D01*
X89951904Y-96765714D01*
X90047142Y-96718095D01*
X90094761Y-96670476D01*
X90142380Y-96575238D01*
X90142380Y-96289523D01*
X90094761Y-96194285D01*
X90047142Y-96146666D01*
X112307666Y-97385142D02*
X112355285Y-97432761D01*
X112498142Y-97480380D01*
X112593380Y-97480380D01*
X112736238Y-97432761D01*
X112831476Y-97337523D01*
X112879095Y-97242285D01*
X112926714Y-97051809D01*
X112926714Y-96908952D01*
X112879095Y-96718476D01*
X112831476Y-96623238D01*
X112736238Y-96528000D01*
X112593380Y-96480380D01*
X112498142Y-96480380D01*
X112355285Y-96528000D01*
X112307666Y-96575619D01*
X111926714Y-96575619D02*
X111879095Y-96528000D01*
X111783857Y-96480380D01*
X111545761Y-96480380D01*
X111450523Y-96528000D01*
X111402904Y-96575619D01*
X111355285Y-96670857D01*
X111355285Y-96766095D01*
X111402904Y-96908952D01*
X111974333Y-97480380D01*
X111355285Y-97480380D01*
X122467666Y-97385142D02*
X122515285Y-97432761D01*
X122658142Y-97480380D01*
X122753380Y-97480380D01*
X122896238Y-97432761D01*
X122991476Y-97337523D01*
X123039095Y-97242285D01*
X123086714Y-97051809D01*
X123086714Y-96908952D01*
X123039095Y-96718476D01*
X122991476Y-96623238D01*
X122896238Y-96528000D01*
X122753380Y-96480380D01*
X122658142Y-96480380D01*
X122515285Y-96528000D01*
X122467666Y-96575619D01*
X121515285Y-97480380D02*
X122086714Y-97480380D01*
X121801000Y-97480380D02*
X121801000Y-96480380D01*
X121896238Y-96623238D01*
X121991476Y-96718476D01*
X122086714Y-96766095D01*
X151880238Y-58437380D02*
X152356428Y-58437380D01*
X152356428Y-57437380D01*
X151642142Y-57437380D02*
X150975476Y-57437380D01*
X151404047Y-58437380D01*
X150451666Y-57865952D02*
X150546904Y-57818333D01*
X150594523Y-57770714D01*
X150642142Y-57675476D01*
X150642142Y-57627857D01*
X150594523Y-57532619D01*
X150546904Y-57485000D01*
X150451666Y-57437380D01*
X150261190Y-57437380D01*
X150165952Y-57485000D01*
X150118333Y-57532619D01*
X150070714Y-57627857D01*
X150070714Y-57675476D01*
X150118333Y-57770714D01*
X150165952Y-57818333D01*
X150261190Y-57865952D01*
X150451666Y-57865952D01*
X150546904Y-57913571D01*
X150594523Y-57961190D01*
X150642142Y-58056428D01*
X150642142Y-58246904D01*
X150594523Y-58342142D01*
X150546904Y-58389761D01*
X150451666Y-58437380D01*
X150261190Y-58437380D01*
X150165952Y-58389761D01*
X150118333Y-58342142D01*
X150070714Y-58246904D01*
X150070714Y-58056428D01*
X150118333Y-57961190D01*
X150165952Y-57913571D01*
X150261190Y-57865952D01*
X149451666Y-57437380D02*
X149356428Y-57437380D01*
X149261190Y-57485000D01*
X149213571Y-57532619D01*
X149165952Y-57627857D01*
X149118333Y-57818333D01*
X149118333Y-58056428D01*
X149165952Y-58246904D01*
X149213571Y-58342142D01*
X149261190Y-58389761D01*
X149356428Y-58437380D01*
X149451666Y-58437380D01*
X149546904Y-58389761D01*
X149594523Y-58342142D01*
X149642142Y-58246904D01*
X149689761Y-58056428D01*
X149689761Y-57818333D01*
X149642142Y-57627857D01*
X149594523Y-57532619D01*
X149546904Y-57485000D01*
X149451666Y-57437380D01*
X148213571Y-57437380D02*
X148689761Y-57437380D01*
X148737380Y-57913571D01*
X148689761Y-57865952D01*
X148594523Y-57818333D01*
X148356428Y-57818333D01*
X148261190Y-57865952D01*
X148213571Y-57913571D01*
X148165952Y-58008809D01*
X148165952Y-58246904D01*
X148213571Y-58342142D01*
X148261190Y-58389761D01*
X148356428Y-58437380D01*
X148594523Y-58437380D01*
X148689761Y-58389761D01*
X148737380Y-58342142D01*
X136116428Y-62247380D02*
X136592619Y-62247380D01*
X136592619Y-61247380D01*
X135449761Y-61723571D02*
X135783095Y-61723571D01*
X135783095Y-62247380D02*
X135783095Y-61247380D01*
X135306904Y-61247380D01*
X135021190Y-61247380D02*
X134402142Y-61247380D01*
X134735476Y-61628333D01*
X134592619Y-61628333D01*
X134497380Y-61675952D01*
X134449761Y-61723571D01*
X134402142Y-61818809D01*
X134402142Y-62056904D01*
X134449761Y-62152142D01*
X134497380Y-62199761D01*
X134592619Y-62247380D01*
X134878333Y-62247380D01*
X134973571Y-62199761D01*
X135021190Y-62152142D01*
X134068809Y-61247380D02*
X133449761Y-61247380D01*
X133783095Y-61628333D01*
X133640238Y-61628333D01*
X133545000Y-61675952D01*
X133497380Y-61723571D01*
X133449761Y-61818809D01*
X133449761Y-62056904D01*
X133497380Y-62152142D01*
X133545000Y-62199761D01*
X133640238Y-62247380D01*
X133925952Y-62247380D01*
X134021190Y-62199761D01*
X134068809Y-62152142D01*
M02*
