M48
; DRILL file {KiCad 5.1.4-e60b266~84~ubuntu18.04.1} date Ne 15. září 2019, 11:55:07 CEST
; FORMAT={-:-/ absolute / inch / decimal}
; #@! TF.CreationDate,2019-09-15T11:55:07+02:00
; #@! TF.GenerationSoftware,Kicad,Pcbnew,5.1.4-e60b266~84~ubuntu18.04.1
FMAT,2
INCH
T1C0.0157
T2C0.0197
T3C0.0315
T4C0.0354
T5C0.0362
T6C0.0394
T7C0.0402
T8C0.0433
T9C0.0472
T10C0.0551
T11C0.0917
T12C0.1260
T13C0.0433
%
G90
G05
T1
X5.325Y-3.775
X5.325Y-4.525
X5.7Y-2.125
X5.9Y-2.15
X5.975Y-4.5
X6.275Y-2.95
X6.5Y-2.64
X6.575Y-4.5
X6.7Y-3.1
X6.75Y-2.25
X6.75Y-2.75
X6.85Y-3.675
X6.875Y-3.45
X6.9Y-2.65
X6.925Y-2.5
X6.925Y-2.575
X6.925Y-2.95
X6.975Y-2.35
X7.0Y-3.1
X7.025Y-2.375
X7.025Y-2.5
X7.05Y-2.575
X7.05Y-3.05
X7.225Y-2.9
X7.225Y-4.5
X7.425Y-2.5
X7.425Y-3.7
X7.5937Y-2.225
X7.6Y-2.375
X7.65Y-3.15
X7.8Y-2.575
X7.825Y-3.15
X7.95Y-3.275
X7.975Y-2.4
X8.0Y-2.45
X8.025Y-2.35
X8.05Y-2.175
X8.075Y-3.3
X8.475Y-4.175
X8.55Y-4.5
X8.95Y-3.05
X8.975Y-2.15
T2
X6.65Y-2.525
X6.725Y-2.35
X7.675Y-2.775
X8.35Y-3.2
X8.425Y-3.275
X8.7805Y-3.625
X8.8082Y-3.5582
X8.8082Y-3.6918
X8.875Y-3.5305
X8.875Y-3.7195
X8.9418Y-3.5582
X8.9418Y-3.6918
X8.9695Y-3.625
X7.7555Y-2.2
X7.7832Y-2.1332
X7.7832Y-2.2668
X7.85Y-2.1055
X7.85Y-2.2945
X7.9168Y-2.1332
X7.9168Y-2.2668
X7.9445Y-2.2
X5.3555Y-3.0
X5.3832Y-2.9332
X5.3832Y-3.0668
X5.45Y-2.9055
X5.45Y-3.0945
X5.5168Y-2.9332
X5.5168Y-3.0668
X5.5445Y-3.0
T3
X5.925Y-3.95
X5.925Y-4.35
X8.525Y-3.95
X8.525Y-4.35
X5.75Y-3.025
X5.9421Y-3.025
X5.3Y-3.95
X5.3Y-4.35
X7.825Y-3.95
X7.825Y-4.35
X6.1Y-2.3
X6.1Y-2.3787
X6.25Y-3.3
X6.25Y-3.7
X7.225Y-3.95
X7.225Y-4.35
X6.525Y-3.95
X6.525Y-4.35
T4
X5.475Y-3.95
X5.475Y-4.05
X5.775Y-3.95
X5.775Y-4.05
X8.7Y-3.95
X8.7Y-4.05
X9.0Y-3.95
X9.0Y-4.05
X7.0Y-3.525
X7.0Y-3.625
X7.3Y-3.525
X7.3Y-3.625
X8.0Y-3.95
X8.0Y-4.05
X8.3Y-3.95
X8.3Y-4.05
X6.7Y-3.95
X6.7Y-4.05
X7.0Y-3.95
X7.0Y-4.05
X6.1Y-3.95
X6.1Y-4.05
X6.4Y-3.95
X6.4Y-4.05
X6.425Y-3.3
X6.425Y-3.6
X6.525Y-3.3
X6.525Y-3.6
X7.4Y-3.95
X7.4Y-4.05
X7.7Y-3.95
X7.7Y-4.05
T5
X5.5463Y-2.4266
X5.5463Y-2.525
X5.625Y-2.4266
X5.625Y-2.525
T6
X8.725Y-2.2
X8.725Y-2.3
X8.725Y-2.4
X8.725Y-3.175
X8.725Y-3.275
X8.725Y-3.375
X8.725Y-2.625
X8.725Y-2.725
X8.725Y-2.825
X8.725Y-2.925
T7
X8.15Y-2.6
X8.25Y-2.6
X8.35Y-2.6
X8.45Y-2.6
X8.15Y-2.225
X8.25Y-2.225
X8.35Y-2.225
X8.45Y-2.225
X8.15Y-2.975
X8.25Y-2.975
X8.35Y-2.975
X8.45Y-2.975
T8
X8.6606Y-4.35
X8.8Y-4.35
X8.9787Y-4.35
X7.9606Y-4.35
X8.1Y-4.35
X8.2787Y-4.35
X5.4356Y-4.35
X5.575Y-4.35
X5.7537Y-4.35
X7.3606Y-4.35
X7.5Y-4.35
X7.6787Y-4.35
X6.0Y-3.35
X6.0Y-3.45
X6.0Y-3.55
X6.0606Y-4.35
X6.2Y-4.35
X6.3787Y-4.35
X6.6606Y-4.35
X6.8Y-4.35
X6.9787Y-4.35
T9
X5.55Y-3.35
X5.55Y-3.5469
X5.7469Y-3.4484
X5.7469Y-3.6453
T10
X6.7Y-4.75
X7.0Y-4.75
X7.3Y-4.75
X7.6Y-4.75
X5.4Y-4.75
X5.7Y-4.75
X6.0Y-4.75
X6.3Y-4.75
X8.0Y-4.75
X8.3Y-4.75
X8.6Y-4.75
X8.9Y-4.75
T11
X5.4396Y-2.2388
X5.4396Y-2.7128
T12
X8.875Y-3.625
X7.85Y-2.2
X5.45Y-3.0
T13
X8.25Y-2.685
X8.25Y-2.31
X8.25Y-3.06
T0
M30
