M48
; DRILL file {KiCad 5.1.4-e60b266~84~ubuntu18.04.1} date St 18. září 2019, 19:12:25 CEST
; FORMAT={-:-/ absolute / inch / decimal}
; #@! TF.CreationDate,2019-09-18T19:12:25+02:00
; #@! TF.GenerationSoftware,Kicad,Pcbnew,5.1.4-e60b266~84~ubuntu18.04.1
FMAT,2
INCH
T1C0.0157
T2C0.0197
T3C0.0315
T4C0.0362
T5C0.0394
T6C0.0402
T7C0.0433
T8C0.0917
T9C0.1260
T10C0.0433
%
G90
G05
T1
X4.5Y-3.625
X4.708Y-2.56
X4.71Y-4.366
X5.038Y-3.761
X5.041Y-2.635
X5.2Y-3.7
X5.35Y-3.9
X5.475Y-3.2
X5.5Y-3.575
X5.525Y-3.875
X5.575Y-2.475
X5.575Y-2.525
X5.603Y-3.129
X5.661Y-3.685
X5.75Y-2.85
X5.775Y-2.775
X5.815Y-3.599
X5.85Y-3.9
X5.925Y-2.8244
X5.927Y-2.899
X6.05Y-3.275
X6.05Y-3.325
X6.152Y-3.711
X6.325Y-2.6
X6.325Y-3.275
X6.35Y-3.9
X6.375Y-2.65
X6.375Y-3.275
X6.45Y-3.25
X6.475Y-2.675
X6.475Y-2.7
X6.496Y-2.911
X6.5Y-3.15
X6.503Y-3.905
X6.641Y-3.573
X6.7Y-2.875
X6.775Y-3.175
X6.861Y-2.934
X6.875Y-3.9
X6.9Y-2.775
X6.92Y-3.642
X6.978Y-3.275
X7.104Y-2.591
X7.148Y-2.942
X7.325Y-3.9
X7.725Y-3.525
X7.725Y-3.575
X7.725Y-3.625
X7.792Y-2.39
X7.807Y-4.631
X7.953Y-4.456
T2
X7.9055Y-2.2
X7.9332Y-2.1332
X7.9332Y-2.2668
X8.0Y-2.1055
X8.0Y-2.2945
X8.0668Y-2.1332
X8.0668Y-2.2668
X8.0945Y-2.2
X4.5055Y-2.2
X4.5332Y-2.1332
X4.5332Y-2.2668
X4.6Y-2.1055
X4.6Y-2.2945
X4.6668Y-2.1332
X4.6668Y-2.2668
X4.6945Y-2.2
X7.9055Y-4.7055
X7.9332Y-4.6387
X7.9332Y-4.7723
X8.0Y-4.611
X8.0Y-4.8
X8.0668Y-4.6387
X8.0668Y-4.7723
X8.0945Y-4.7055
X4.5055Y-4.7
X4.5332Y-4.6332
X4.5332Y-4.7668
X4.6Y-4.6055
X4.6Y-4.7945
X4.6668Y-4.6332
X4.6668Y-4.7668
X4.6945Y-4.7
T3
X6.625Y-2.35
X6.625Y-2.4287
X6.125Y-2.225
X6.125Y-2.4171
T4
X5.1Y-2.3713
X5.1Y-2.45
X5.1984Y-2.3713
X5.1984Y-2.45
T5
X5.0Y-4.5031
X5.0Y-4.7
X5.1969Y-4.5031
X5.1969Y-4.7
X5.3937Y-4.5031
X5.3937Y-4.7
X5.5906Y-4.5031
X5.5906Y-4.7
X7.9Y-4.1
X7.9Y-4.2
X7.9Y-4.3
X6.0Y-4.5031
X6.0Y-4.7
X6.1969Y-4.5031
X6.1969Y-4.7
X6.3937Y-4.5031
X6.3937Y-4.7
X6.5906Y-4.5031
X6.5906Y-4.7
X7.9Y-2.6
X7.9Y-2.7
X7.9Y-2.8
X4.6Y-2.9
X4.6Y-3.0969
X4.6Y-3.2937
X4.6Y-3.4906
X4.7969Y-2.9
X4.7969Y-3.0969
X4.7969Y-3.2937
X4.7969Y-3.4906
X7.9Y-3.5
X7.9Y-3.6
X7.9Y-3.7
X7.9Y-3.8
X7.9Y-3.0
X7.9Y-3.1
X7.9Y-3.2
X7.9Y-3.3
X7.0Y-4.5031
X7.0Y-4.7
X7.1969Y-4.5031
X7.1969Y-4.7
X7.3937Y-4.5031
X7.3937Y-4.7
X7.5906Y-4.5031
X7.5906Y-4.7
T6
X7.34Y-2.2
X7.44Y-2.2
X7.54Y-2.2
X7.64Y-2.2
X7.34Y-2.55
X7.44Y-2.55
X7.54Y-2.55
X7.64Y-2.55
X7.34Y-2.9
X7.44Y-2.9
X7.54Y-2.9
X7.64Y-2.9
T7
X5.3606Y-4.1
X5.5Y-4.1
X5.6787Y-4.1
X4.8606Y-4.1
X5.0Y-4.1
X5.1787Y-4.1
X5.2Y-2.8
X5.2Y-2.9
X5.2Y-3.0
X6.3606Y-4.1
X6.5Y-4.1
X6.6787Y-4.1
X5.2Y-3.3
X5.2Y-3.4
X5.2Y-3.5
X6.8606Y-4.1
X7.0Y-4.1
X7.1787Y-4.1
X5.8606Y-4.1
X6.0Y-4.1
X6.1787Y-4.1
X7.3606Y-4.1
X7.5Y-4.1
X7.6787Y-4.1
T8
X4.9122Y-2.2646
X5.3862Y-2.2646
T9
X8.0Y-2.2
X4.6Y-2.2
X8.0Y-4.7055
X4.6Y-4.7
T10
X7.44Y-2.285
X7.44Y-2.635
X7.44Y-2.985
T0
M30
